/home/ghales/git/tg-server/output/preprocessed/baseline/melody_rnn/attention_rnn/2021-09-07_201035_1.mid
Length: 95294 ticks = 95.294 beats = 23.8235 bars
Tracks: 1
Time Signature: <meta message time_signature numerator=4 denominator=4 clocks_per_click=24 notated_32nd_notes_per_beat=8 time=0>
Track 0: 
ticks_per_beat: 1000
<meta message set_tempo tempo=1000000 time=0>
<meta message time_signature numerator=4 denominator=4 clocks_per_click=24 notated_32nd_notes_per_beat=8 time=0>
<meta message set_tempo tempo=1000000 time=0>
program_change channel=0 program=0 time=0
<meta message text text='' time=5>
note_on channel=0 note=55 velocity=100 time=495
note_on channel=0 note=58 velocity=100 time=499
note_off channel=0 note=55 velocity=100 time=1
note_off channel=0 note=58 velocity=100 time=250
note_on channel=0 note=60 velocity=100 time=250
note_off channel=0 note=60 velocity=100 time=500
note_on channel=0 note=58 velocity=100 time=499
note_off channel=0 note=58 velocity=100 time=251
note_on channel=0 note=57 velocity=100 time=251
note_on channel=0 note=55 velocity=100 time=250
note_off channel=0 note=57 velocity=100 time=1
note_off channel=0 note=55 velocity=100 time=499
note_on channel=0 note=55 velocity=100 time=4250
note_off channel=0 note=55 velocity=100 time=251
note_on channel=0 note=55 velocity=100 time=251
note_on channel=0 note=58 velocity=100 time=499
note_off channel=0 note=55 velocity=100 time=1
note_off channel=0 note=58 velocity=100 time=250
note_on channel=0 note=58 velocity=100 time=250
note_off channel=0 note=58 velocity=100 time=251
note_on channel=0 note=60 velocity=100 time=251
note_off channel=0 note=60 velocity=100 time=251
note_on channel=0 note=58 velocity=100 time=250
note_off channel=0 note=58 velocity=100 time=251
note_on channel=0 note=57 velocity=100 time=250
note_off channel=0 note=57 velocity=100 time=251
note_on channel=0 note=55 velocity=100 time=0
note_off channel=0 note=55 velocity=100 time=500
note_on channel=0 note=55 velocity=100 time=3749
note_off channel=0 note=55 velocity=100 time=251
note_on channel=0 note=55 velocity=100 time=250
note_on channel=0 note=55 velocity=100 time=499
note_off channel=0 note=55 velocity=100 time=1
note_off channel=0 note=55 velocity=100 time=499
note_on channel=0 note=58 velocity=100 time=0
note_off channel=0 note=58 velocity=100 time=251
note_on channel=0 note=58 velocity=100 time=250
note_off channel=0 note=58 velocity=100 time=251
note_on channel=0 note=60 velocity=100 time=251
note_off channel=0 note=60 velocity=100 time=251
note_on channel=0 note=58 velocity=100 time=250
note_on channel=0 note=57 velocity=100 time=250
note_off channel=0 note=58 velocity=100 time=1
note_off channel=0 note=57 velocity=100 time=250
note_on channel=0 note=55 velocity=100 time=251
note_off channel=0 note=55 velocity=100 time=500
note_on channel=0 note=55 velocity=100 time=3748
note_off channel=0 note=55 velocity=100 time=251
note_on channel=0 note=55 velocity=100 time=251
note_on channel=0 note=55 velocity=100 time=499
note_off channel=0 note=55 velocity=100 time=1
note_off channel=0 note=55 velocity=100 time=499
note_on channel=0 note=58 velocity=100 time=0
note_off channel=0 note=58 velocity=100 time=251
note_on channel=0 note=58 velocity=100 time=250
note_off channel=0 note=58 velocity=100 time=251
note_on channel=0 note=60 velocity=100 time=250
note_off channel=0 note=60 velocity=100 time=251
note_on channel=0 note=58 velocity=100 time=251
note_on channel=0 note=57 velocity=100 time=250
note_off channel=0 note=58 velocity=100 time=1
note_off channel=0 note=57 velocity=100 time=499
note_on channel=0 note=55 velocity=100 time=0
note_off channel=0 note=55 velocity=100 time=500
note_on channel=0 note=55 velocity=100 time=3749
note_off channel=0 note=55 velocity=100 time=251
note_on channel=0 note=55 velocity=100 time=250
note_on channel=0 note=50 velocity=100 time=499
note_off channel=0 note=55 velocity=100 time=1
note_off channel=0 note=50 velocity=100 time=499
note_on channel=0 note=53 velocity=100 time=0
note_on channel=0 note=55 velocity=100 time=499
note_off channel=0 note=53 velocity=100 time=1
note_off channel=0 note=55 velocity=100 time=250
note_on channel=0 note=53 velocity=100 time=750
note_off channel=0 note=53 velocity=100 time=251
note_on channel=0 note=55 velocity=100 time=251
note_off channel=0 note=55 velocity=100 time=750
note_on channel=0 note=53 velocity=100 time=750
note_off channel=0 note=53 velocity=100 time=251
note_on channel=0 note=55 velocity=100 time=250
note_off channel=0 note=55 velocity=100 time=500
note_on channel=0 note=53 velocity=100 time=0
note_on channel=0 note=55 velocity=100 time=499
note_off channel=0 note=53 velocity=100 time=1
note_off channel=0 note=55 velocity=100 time=250
note_on channel=0 note=53 velocity=100 time=251
note_on channel=0 note=58 velocity=100 time=250
note_off channel=0 note=53 velocity=100 time=1
note_off channel=0 note=58 velocity=100 time=499
note_on channel=0 note=57 velocity=100 time=250
note_off channel=0 note=57 velocity=100 time=251
note_on channel=0 note=55 velocity=100 time=750
note_off channel=0 note=55 velocity=100 time=251
note_on channel=0 note=53 velocity=100 time=250
note_off channel=0 note=53 velocity=100 time=500
note_on channel=0 note=55 velocity=100 time=0
note_off channel=0 note=55 velocity=100 time=251
note_on channel=0 note=55 velocity=100 time=250
note_off channel=0 note=55 velocity=100 time=251
note_on channel=0 note=53 velocity=100 time=251
note_off channel=0 note=53 velocity=100 time=251
note_on channel=0 note=55 velocity=100 time=250
note_on channel=0 note=53 velocity=100 time=499
note_off channel=0 note=55 velocity=100 time=1
note_off channel=0 note=53 velocity=100 time=250
note_on channel=0 note=55 velocity=100 time=0
note_off channel=0 note=55 velocity=100 time=251
note_on channel=0 note=53 velocity=100 time=499
note_off channel=0 note=53 velocity=100 time=251
note_on channel=0 note=55 velocity=100 time=250
note_off channel=0 note=55 velocity=100 time=500
note_on channel=0 note=53 velocity=100 time=0
note_off channel=0 note=53 velocity=100 time=251
note_on channel=0 note=55 velocity=100 time=250
note_off channel=0 note=55 velocity=100 time=251
note_on channel=0 note=58 velocity=100 time=251
note_on channel=0 note=57 velocity=100 time=499
note_off channel=0 note=58 velocity=100 time=1
note_off channel=0 note=57 velocity=100 time=499
note_on channel=0 note=62 velocity=100 time=15000
note_on channel=0 note=62 velocity=100 time=499
note_off channel=0 note=62 velocity=100 time=1
note_off channel=0 note=62 velocity=100 time=499
note_on channel=0 note=67 velocity=100 time=0
note_off channel=0 note=67 velocity=100 time=251
note_on channel=0 note=67 velocity=100 time=250
note_off channel=0 note=67 velocity=100 time=251
note_on channel=0 note=58 velocity=100 time=2000
note_on channel=0 note=65 velocity=100 time=499
note_off channel=0 note=58 velocity=100 time=1
note_off channel=0 note=65 velocity=100 time=250
note_on channel=0 note=70 velocity=100 time=0
note_off channel=0 note=70 velocity=100 time=500
note_on channel=0 note=67 velocity=100 time=0
note_off channel=0 note=67 velocity=100 time=500
note_on channel=0 note=65 velocity=100 time=250
note_off channel=0 note=65 velocity=100 time=251
note_on channel=0 note=55 velocity=100 time=1000
note_off channel=0 note=55 velocity=100 time=251
note_on channel=0 note=57 velocity=100 time=0
note_on channel=0 note=58 velocity=100 time=499
note_off channel=0 note=57 velocity=100 time=1
note_off channel=0 note=58 velocity=100 time=499
note_on channel=0 note=65 velocity=100 time=0
note_off channel=0 note=65 velocity=100 time=251
note_on channel=0 note=57 velocity=100 time=2499
note_off channel=0 note=57 velocity=100 time=251
note_on channel=0 note=58 velocity=100 time=499
note_off channel=0 note=58 velocity=100 time=500
note_on channel=0 note=65 velocity=100 time=0
note_on channel=0 note=65 velocity=100 time=250
note_off channel=0 note=65 velocity=100 time=1
note_off channel=0 note=65 velocity=100 time=499
note_on channel=0 note=67 velocity=100 time=499
note_off channel=0 note=67 velocity=100 time=251
note_on channel=0 note=60 velocity=100 time=1001
note_off channel=0 note=60 velocity=100 time=251
note_on channel=0 note=57 velocity=100 time=499
note_off channel=0 note=57 velocity=100 time=251
note_on channel=0 note=57 velocity=100 time=0
note_off channel=0 note=57 velocity=100 time=251
note_on channel=0 note=65 velocity=100 time=499
note_on channel=0 note=57 velocity=100 time=499
note_off channel=0 note=65 velocity=100 time=1
note_off channel=0 note=57 velocity=100 time=499
note_on channel=0 note=55 velocity=100 time=3001
note_on channel=0 note=58 velocity=100 time=499
note_off channel=0 note=55 velocity=100 time=1
note_off channel=0 note=58 velocity=100 time=250
note_on channel=0 note=55 velocity=100 time=750
note_off channel=0 note=55 velocity=100 time=251
note_on channel=0 note=57 velocity=100 time=250
note_off channel=0 note=57 velocity=100 time=500
note_on channel=0 note=58 velocity=100 time=0
note_off channel=0 note=58 velocity=100 time=251
note_on channel=0 note=62 velocity=100 time=750
note_on channel=0 note=62 velocity=100 time=250
note_off channel=0 note=62 velocity=100 time=1
note_off channel=0 note=62 velocity=100 time=250
note_on channel=0 note=62 velocity=100 time=3250
note_off channel=0 note=62 velocity=100 time=251
note_on channel=0 note=62 velocity=100 time=250
note_off channel=0 note=62 velocity=100 time=500
note_on channel=0 note=60 velocity=100 time=0
note_off channel=0 note=60 velocity=100 time=251
note_on channel=0 note=58 velocity=100 time=250
note_off channel=0 note=58 velocity=100 time=251
note_on channel=0 note=58 velocity=100 time=499
note_off channel=0 note=58 velocity=100 time=251
note_on channel=0 note=57 velocity=100 time=0
note_on channel=0 note=58 velocity=100 time=499
note_off channel=0 note=57 velocity=100 time=1
note_off channel=0 note=58 velocity=100 time=250
note_on channel=0 note=69 velocity=100 time=499
note_off channel=0 note=69 velocity=100 time=251
note_on channel=0 note=65 velocity=100 time=750
note_off channel=0 note=65 velocity=100 time=251
<meta message end_of_track time=5>
/home/ghales/git/tg-server/output/preprocessed/baseline/performance_rnn/performance_with_dynamics/2021-09-07_181915_1.mid
Length: 127678 ticks = 127.678 beats = 31.9195 bars
Tracks: 1
Time Signature: <meta message time_signature numerator=4 denominator=4 clocks_per_click=24 notated_32nd_notes_per_beat=8 time=0>
Track 0: 
ticks_per_beat: 1000
<meta message set_tempo tempo=1000000 time=0>
<meta message time_signature numerator=4 denominator=4 clocks_per_click=24 notated_32nd_notes_per_beat=8 time=0>
<meta message set_tempo tempo=1000000 time=0>
program_change channel=0 program=0 time=0
<meta message text text='' time=4>
note_on channel=0 note=31 velocity=81 time=14
note_on channel=0 note=43 velocity=89 time=0
note_off channel=0 note=31 velocity=81 time=82
note_off channel=0 note=43 velocity=89 time=60
note_on channel=0 note=83 velocity=89 time=722
note_on channel=0 note=62 velocity=97 time=18
note_on channel=0 note=71 velocity=81 time=0
note_on channel=0 note=50 velocity=77 time=18
note_on channel=0 note=77 velocity=81 time=0
note_on channel=0 note=55 velocity=77 time=22
note_on channel=0 note=81 velocity=61 time=18
note_off channel=0 note=81 velocity=61 time=22
note_off channel=0 note=62 velocity=97 time=360
note_off channel=0 note=55 velocity=77 time=60
note_off channel=0 note=50 velocity=77 time=40
note_off channel=0 note=77 velocity=81 time=18
note_off channel=0 note=71 velocity=81 time=22
note_off channel=0 note=83 velocity=89 time=78
note_on channel=0 note=76 velocity=73 time=460
note_on channel=0 note=84 velocity=97 time=0
note_on channel=0 note=60 velocity=89 time=22
note_on channel=0 note=72 velocity=85 time=0
note_on channel=0 note=55 velocity=81 time=18
note_on channel=0 note=48 velocity=65 time=0
note_off channel=0 note=55 velocity=81 time=82
note_off channel=0 note=60 velocity=89 time=18
note_off channel=0 note=72 velocity=85 time=0
note_off channel=0 note=76 velocity=73 time=0
note_on channel=0 note=50 velocity=29 time=0
note_off channel=0 note=50 velocity=29 time=22
note_off channel=0 note=84 velocity=97 time=0
note_off channel=0 note=48 velocity=65 time=36
note_on channel=0 note=57 velocity=93 time=440
note_on channel=0 note=78 velocity=97 time=0
note_on channel=0 note=45 velocity=77 time=22
note_on channel=0 note=66 velocity=89 time=0
note_on channel=0 note=72 velocity=77 time=0
note_on channel=0 note=50 velocity=77 time=18
note_off channel=0 note=45 velocity=77 time=82
note_off channel=0 note=57 velocity=93 time=0
note_off channel=0 note=50 velocity=77 time=18
note_off channel=0 note=66 velocity=89 time=18
note_off channel=0 note=72 velocity=77 time=0
note_off channel=0 note=78 velocity=97 time=64
note_on channel=0 note=81 velocity=101 time=536
note_on channel=0 note=69 velocity=85 time=22
note_on channel=0 note=54 velocity=85 time=0
note_on channel=0 note=50 velocity=77 time=0
note_on channel=0 note=72 velocity=85 time=0
note_on channel=0 note=42 velocity=77 time=18
note_off channel=0 note=69 velocity=85 time=460
note_off channel=0 note=42 velocity=77 time=64
note_off channel=0 note=81 velocity=101 time=0
note_off channel=0 note=54 velocity=85 time=18
note_off channel=0 note=50 velocity=77 time=82
note_off channel=0 note=72 velocity=85 time=18
note_on channel=0 note=43 velocity=69 time=660
note_on channel=0 note=55 velocity=85 time=0
note_on channel=0 note=79 velocity=93 time=0
note_on channel=0 note=67 velocity=85 time=22
note_on channel=0 note=50 velocity=73 time=0
note_on channel=0 note=71 velocity=77 time=0
note_off channel=0 note=43 velocity=69 time=60
note_off channel=0 note=55 velocity=85 time=40
note_off channel=0 note=67 velocity=85 time=18
note_off channel=0 note=50 velocity=73 time=18
note_off channel=0 note=79 velocity=93 time=40
note_off channel=0 note=71 velocity=77 time=22
note_on channel=0 note=72 velocity=81 time=918
note_on channel=0 note=48 velocity=49 time=82
note_on channel=0 note=60 velocity=57 time=0
note_on channel=0 note=64 velocity=33 time=18
note_off channel=0 note=64 velocity=33 time=82
note_off channel=0 note=48 velocity=49 time=60
note_off channel=0 note=60 velocity=57 time=0
note_off channel=0 note=72 velocity=81 time=60
note_on channel=0 note=65 velocity=33 time=0
note_on channel=0 note=71 velocity=69 time=0
note_on channel=0 note=55 velocity=57 time=18
note_off channel=0 note=65 velocity=33 time=82
note_off channel=0 note=55 velocity=57 time=100
note_off channel=0 note=71 velocity=69 time=60
note_on channel=0 note=72 velocity=73 time=40
note_on channel=0 note=60 velocity=57 time=18
note_on channel=0 note=48 velocity=57 time=0
note_on channel=0 note=64 velocity=57 time=22
note_off channel=0 note=60 velocity=57 time=78
note_off channel=0 note=64 velocity=57 time=0
note_off channel=0 note=72 velocity=73 time=122
note_on channel=0 note=55 velocity=57 time=18
note_on channel=0 note=71 velocity=57 time=0
note_on channel=0 note=65 velocity=29 time=60
note_off channel=0 note=55 velocity=57 time=82
note_off channel=0 note=65 velocity=29 time=18
note_off channel=0 note=71 velocity=57 time=82
note_on channel=0 note=60 velocity=49 time=18
note_on channel=0 note=72 velocity=65 time=0
note_on channel=0 note=64 velocity=57 time=22
note_off channel=0 note=64 velocity=57 time=100
note_off channel=0 note=60 velocity=49 time=60
note_off channel=0 note=72 velocity=65 time=40
note_off channel=0 note=48 velocity=57 time=18
note_on channel=0 note=55 velocity=53 time=0
note_on channel=0 note=71 velocity=61 time=22
note_on channel=0 note=65 velocity=37 time=36
note_off channel=0 note=55 velocity=53 time=100
note_off channel=0 note=65 velocity=37 time=0
note_off channel=0 note=71 velocity=61 time=82
note_on channel=0 note=60 velocity=53 time=40
note_on channel=0 note=72 velocity=69 time=0
note_on channel=0 note=64 velocity=65 time=18
note_on channel=0 note=48 velocity=37 time=0
note_off channel=0 note=64 velocity=65 time=122
note_off channel=0 note=60 velocity=53 time=18
note_off channel=0 note=48 velocity=37 time=60
note_on channel=0 note=73 velocity=65 time=40
note_off channel=0 note=72 velocity=69 time=18
note_on channel=0 note=55 velocity=53 time=0
note_on channel=0 note=67 velocity=29 time=82
note_off channel=0 note=67 velocity=29 time=82
note_off channel=0 note=55 velocity=53 time=18
note_on channel=0 note=65 velocity=61 time=82
note_on channel=0 note=48 velocity=61 time=0
note_on channel=0 note=74 velocity=81 time=0
note_off channel=0 note=73 velocity=65 time=18
note_on channel=0 note=62 velocity=61 time=0
note_off channel=0 note=65 velocity=61 time=100
note_off channel=0 note=48 velocity=61 time=40
note_off channel=0 note=62 velocity=61 time=18
note_off channel=0 note=74 velocity=81 time=40
note_on channel=0 note=73 velocity=73 time=18
note_on channel=0 note=68 velocity=53 time=40
note_on channel=0 note=56 velocity=53 time=0
note_off channel=0 note=68 velocity=53 time=100
note_off channel=0 note=56 velocity=53 time=60
note_on channel=0 note=74 velocity=85 time=64
note_off channel=0 note=73 velocity=73 time=18
note_on channel=0 note=65 velocity=69 time=0
note_on channel=0 note=48 velocity=65 time=0
note_on channel=0 note=62 velocity=65 time=18
note_off channel=0 note=65 velocity=69 time=100
note_off channel=0 note=62 velocity=65 time=82
note_off channel=0 note=74 velocity=85 time=40
note_on channel=0 note=73 velocity=73 time=0
note_on channel=0 note=68 velocity=61 time=18
note_on channel=0 note=56 velocity=57 time=0
note_off channel=0 note=68 velocity=61 time=140
note_off channel=0 note=56 velocity=57 time=18
note_on channel=0 note=74 velocity=85 time=82
note_off channel=0 note=73 velocity=73 time=18
note_on channel=0 note=65 velocity=69 time=0
note_on channel=0 note=62 velocity=61 time=0
note_off channel=0 note=65 velocity=69 time=82
note_off channel=0 note=48 velocity=65 time=60
note_off channel=0 note=62 velocity=61 time=0
note_off channel=0 note=74 velocity=85 time=82
note_on channel=0 note=56 velocity=53 time=0
note_on channel=0 note=73 velocity=81 time=0
note_on channel=0 note=68 velocity=53 time=40
note_off channel=0 note=68 velocity=53 time=78
note_off channel=0 note=56 velocity=53 time=40
note_off channel=0 note=73 velocity=81 time=82
note_on channel=0 note=62 velocity=65 time=18
note_on channel=0 note=48 velocity=53 time=0
note_on channel=0 note=76 velocity=73 time=0
note_on channel=0 note=65 velocity=61 time=40
note_off channel=0 note=62 velocity=65 time=78
note_off channel=0 note=65 velocity=61 time=22
note_off channel=0 note=48 velocity=53 time=18
note_off channel=0 note=76 velocity=73 time=60
note_on channel=0 note=74 velocity=73 time=22
note_on channel=0 note=55 velocity=61 time=40
note_on channel=0 note=71 velocity=45 time=18
note_off channel=0 note=74 velocity=73 time=18
note_off channel=0 note=71 velocity=45 time=40
note_off channel=0 note=55 velocity=61 time=40
note_on channel=0 note=72 velocity=77 time=118
note_on channel=0 note=48 velocity=49 time=22
note_on channel=0 note=64 velocity=57 time=18
note_on channel=0 note=60 velocity=53 time=0
note_off channel=0 note=48 velocity=49 time=82
note_off channel=0 note=64 velocity=57 time=0
note_off channel=0 note=60 velocity=53 time=18
note_off channel=0 note=72 velocity=77 time=82
note_on channel=0 note=55 velocity=61 time=18
note_on channel=0 note=71 velocity=45 time=0
note_on channel=0 note=65 velocity=37 time=60
note_off channel=0 note=55 velocity=61 time=40
note_off channel=0 note=65 velocity=37 time=40
note_off channel=0 note=71 velocity=45 time=82
note_on channel=0 note=72 velocity=65 time=36
note_on channel=0 note=48 velocity=45 time=22
note_on channel=0 note=60 velocity=45 time=18
note_on channel=0 note=64 velocity=45 time=22
note_off channel=0 note=64 velocity=45 time=78
note_off channel=0 note=60 velocity=45 time=22
note_off channel=0 note=72 velocity=65 time=36
note_on channel=0 note=55 velocity=53 time=40
note_on channel=0 note=71 velocity=57 time=0
note_on channel=0 note=65 velocity=13 time=82
note_off channel=0 note=55 velocity=53 time=18
note_off channel=0 note=65 velocity=13 time=122
note_off channel=0 note=71 velocity=57 time=0
note_on channel=0 note=60 velocity=45 time=36
note_on channel=0 note=72 velocity=57 time=0
note_on channel=0 note=64 velocity=49 time=22
note_off channel=0 note=60 velocity=45 time=100
note_off channel=0 note=64 velocity=49 time=0
note_off channel=0 note=48 velocity=45 time=18
note_off channel=0 note=72 velocity=57 time=60
note_on channel=0 note=55 velocity=45 time=40
note_on channel=0 note=71 velocity=57 time=0
note_on channel=0 note=65 velocity=41 time=22
note_off channel=0 note=55 velocity=45 time=118
note_off channel=0 note=65 velocity=41 time=0
note_off channel=0 note=71 velocity=57 time=100
note_on channel=0 note=48 velocity=49 time=18
note_on channel=0 note=72 velocity=65 time=0
note_on channel=0 note=60 velocity=45 time=22
note_on channel=0 note=64 velocity=57 time=18
note_off channel=0 note=60 velocity=45 time=100
note_off channel=0 note=64 velocity=57 time=0
note_off channel=0 note=48 velocity=49 time=40
note_off channel=0 note=72 velocity=65 time=60
note_on channel=0 note=73 velocity=65 time=22
note_on channel=0 note=67 velocity=45 time=18
note_on channel=0 note=55 velocity=49 time=0
note_off channel=0 note=67 velocity=45 time=82
note_off channel=0 note=55 velocity=49 time=18
note_on channel=0 note=48 velocity=57 time=100
note_off channel=0 note=73 velocity=65 time=18
note_on channel=0 note=62 velocity=53 time=22
note_on channel=0 note=74 velocity=73 time=0
note_on channel=0 note=65 velocity=57 time=18
note_off channel=0 note=65 velocity=57 time=82
note_off channel=0 note=62 velocity=53 time=18
note_off channel=0 note=48 velocity=57 time=22
note_off channel=0 note=74 velocity=73 time=60
note_on channel=0 note=56 velocity=53 time=40
note_on channel=0 note=73 velocity=65 time=0
note_on channel=0 note=68 velocity=49 time=18
note_off channel=0 note=68 velocity=49 time=100
note_off channel=0 note=56 velocity=53 time=40
note_off channel=0 note=73 velocity=65 time=60
note_on channel=0 note=74 velocity=77 time=18
note_on channel=0 note=48 velocity=57 time=22
note_on channel=0 note=65 velocity=65 time=18
note_on channel=0 note=62 velocity=61 time=0
note_off channel=0 note=65 velocity=65 time=100
note_off channel=0 note=62 velocity=61 time=40
note_off channel=0 note=74 velocity=77 time=60
note_on channel=0 note=73 velocity=69 time=0
note_on channel=0 note=56 velocity=61 time=22
note_on channel=0 note=68 velocity=49 time=36
note_off channel=0 note=56 velocity=61 time=100
note_off channel=0 note=68 velocity=49 time=0
note_off channel=0 note=73 velocity=69 time=82
note_on channel=0 note=65 velocity=65 time=18
note_on channel=0 note=74 velocity=77 time=0
note_on channel=0 note=62 velocity=57 time=40
note_off channel=0 note=65 velocity=65 time=60
note_off channel=0 note=62 velocity=57 time=64
note_off channel=0 note=74 velocity=77 time=18
note_on channel=0 note=56 velocity=53 time=60
note_on channel=0 note=73 velocity=73 time=0
note_off channel=0 note=48 velocity=57 time=22
note_on channel=0 note=68 velocity=49 time=18
note_off channel=0 note=68 velocity=49 time=100
note_off channel=0 note=56 velocity=53 time=60
note_on channel=0 note=74 velocity=73 time=22
note_off channel=0 note=73 velocity=73 time=18
note_on channel=0 note=48 velocity=61 time=0
note_on channel=0 note=65 velocity=69 time=18
note_on channel=0 note=62 velocity=61 time=40
note_off channel=0 note=65 velocity=69 time=60
note_off channel=0 note=62 velocity=61 time=40
note_off channel=0 note=48 velocity=61 time=60
note_off channel=0 note=74 velocity=73 time=40
note_on channel=0 note=75 velocity=81 time=0
note_on channel=0 note=55 velocity=69 time=22
note_on channel=0 note=71 velocity=65 time=18
note_off channel=0 note=55 velocity=69 time=100
note_off channel=0 note=71 velocity=65 time=0
note_on channel=0 note=48 velocity=69 time=118
note_on channel=0 note=76 velocity=81 time=0
note_on channel=0 note=60 velocity=65 time=22
note_on channel=0 note=64 velocity=69 time=0
note_off channel=0 note=75 velocity=81 time=60
note_off channel=0 note=60 velocity=65 time=60
note_off channel=0 note=64 velocity=69 time=0
note_off channel=0 note=48 velocity=69 time=82
note_on channel=0 note=55 velocity=65 time=18
note_on channel=0 note=75 velocity=77 time=0
note_off channel=0 note=76 velocity=81 time=40
note_on channel=0 note=72 velocity=69 time=0
note_off channel=0 note=72 velocity=69 time=100
note_off channel=0 note=55 velocity=65 time=60
note_on channel=0 note=76 velocity=81 time=60
note_on channel=0 note=64 velocity=65 time=22
note_on channel=0 note=60 velocity=69 time=0
note_on channel=0 note=48 velocity=69 time=0
note_off channel=0 note=75 velocity=77 time=18
note_off channel=0 note=64 velocity=65 time=100
note_off channel=0 note=60 velocity=69 time=60
note_off channel=0 note=76 velocity=81 time=40
note_on channel=0 note=55 velocity=69 time=0
note_on channel=0 note=75 velocity=85 time=0
note_on channel=0 note=72 velocity=65 time=40
note_off channel=0 note=72 velocity=65 time=100
note_off channel=0 note=55 velocity=69 time=82
note_off channel=0 note=75 velocity=85 time=18
note_on channel=0 note=76 velocity=77 time=18
note_on channel=0 note=60 velocity=65 time=22
note_on channel=0 note=64 velocity=45 time=18
note_off channel=0 note=64 velocity=45 time=82
note_off channel=0 note=48 velocity=69 time=18
note_off channel=0 note=76 velocity=77 time=60
note_off channel=0 note=60 velocity=65 time=22
note_on channel=0 note=75 velocity=77 time=0
note_on channel=0 note=55 velocity=69 time=18
note_on channel=0 note=72 velocity=61 time=40
note_off channel=0 note=55 velocity=69 time=60
note_off channel=0 note=72 velocity=61 time=22
note_off channel=0 note=75 velocity=77 time=60
note_on channel=0 note=76 velocity=85 time=60
note_on channel=0 note=46 velocity=81 time=18
note_on channel=0 note=60 velocity=69 time=40
note_on channel=0 note=64 velocity=69 time=0
note_off channel=0 note=60 velocity=69 time=60
note_off channel=0 note=76 velocity=85 time=0
note_off channel=0 note=64 velocity=69 time=22
note_on channel=0 note=72 velocity=85 time=140
note_off channel=0 note=46 velocity=81 time=18
note_on channel=0 note=67 velocity=57 time=18
note_on channel=0 note=52 velocity=69 time=0
note_off channel=0 note=67 velocity=57 time=64
note_off channel=0 note=52 velocity=69 time=36
note_off channel=0 note=72 velocity=85 time=0
note_on channel=0 note=79 velocity=93 time=140
note_on channel=0 note=45 velocity=89 time=0
note_on channel=0 note=65 velocity=81 time=22
note_off channel=0 note=65 velocity=81 time=100
note_off channel=0 note=79 velocity=93 time=78
note_off channel=0 note=45 velocity=89 time=22
note_on channel=0 note=77 velocity=29 time=0
note_on channel=0 note=53 velocity=73 time=36
note_on channel=0 note=72 velocity=65 time=22
note_off channel=0 note=72 velocity=65 time=78
note_off channel=0 note=77 velocity=29 time=82
note_off channel=0 note=53 velocity=73 time=18
note_on channel=0 note=79 velocity=97 time=100
note_on channel=0 note=65 velocity=69 time=22
note_off channel=0 note=65 velocity=69 time=78
note_on channel=0 note=67 velocity=33 time=0
note_off channel=0 note=79 velocity=97 time=64
note_off channel=0 note=67 velocity=33 time=18
note_on channel=0 note=53 velocity=69 time=40
note_on channel=0 note=77 velocity=81 time=18
note_on channel=0 note=72 velocity=53 time=60
note_off channel=0 note=72 velocity=53 time=64
note_off channel=0 note=77 velocity=81 time=36
note_on channel=0 note=60 velocity=73 time=100
note_on channel=0 note=79 velocity=89 time=0
note_off channel=0 note=53 velocity=69 time=22
note_on channel=0 note=65 velocity=73 time=0
note_off channel=0 note=60 velocity=73 time=60
note_off channel=0 note=65 velocity=73 time=18
note_off channel=0 note=79 velocity=89 time=64
note_on channel=0 note=77 velocity=73 time=60
note_on channel=0 note=53 velocity=73 time=18
note_off channel=0 note=53 velocity=73 time=82
note_on channel=0 note=72 velocity=33 time=0
note_off channel=0 note=77 velocity=73 time=18
note_off channel=0 note=72 velocity=33 time=60
note_on channel=0 note=77 velocity=89 time=122
note_on channel=0 note=55 velocity=77 time=18
note_on channel=0 note=43 velocity=85 time=0
note_on channel=0 note=64 velocity=77 time=22
note_on channel=0 note=53 velocity=65 time=18
note_off channel=0 note=55 velocity=77 time=40
note_off channel=0 note=64 velocity=77 time=0
note_off channel=0 note=53 velocity=65 time=40
note_off channel=0 note=43 velocity=85 time=18
note_off channel=0 note=77 velocity=89 time=0
note_on channel=0 note=76 velocity=81 time=82
note_on channel=0 note=52 velocity=85 time=18
note_on channel=0 note=72 velocity=49 time=40
note_off channel=0 note=72 velocity=49 time=60
note_off channel=0 note=52 velocity=85 time=18
note_off channel=0 note=76 velocity=81 time=0
note_on channel=0 note=41 velocity=85 time=140
note_on channel=0 note=76 velocity=89 time=22
note_on channel=0 note=62 velocity=73 time=18
note_off channel=0 note=62 velocity=73 time=82
note_on channel=0 note=64 velocity=33 time=0
note_off channel=0 note=76 velocity=89 time=36
note_off channel=0 note=64 velocity=33 time=40
note_off channel=0 note=41 velocity=85 time=22
note_on channel=0 note=50 velocity=73 time=0
note_on channel=0 note=74 velocity=77 time=18
note_on channel=0 note=69 velocity=57 time=40
note_off channel=0 note=69 velocity=57 time=78
note_off channel=0 note=50 velocity=73 time=22
note_off channel=0 note=74 velocity=77 time=40
note_on channel=0 note=41 velocity=81 time=36
note_on channel=0 note=76 velocity=85 time=64
note_on channel=0 note=62 velocity=77 time=18
note_off channel=0 note=41 velocity=81 time=40
note_off channel=0 note=62 velocity=77 time=40
note_on channel=0 note=50 velocity=69 time=18
note_off channel=0 note=76 velocity=85 time=40
note_on channel=0 note=74 velocity=77 time=78
note_on channel=0 note=69 velocity=41 time=82
note_off channel=0 note=50 velocity=69 time=40
note_off channel=0 note=69 velocity=41 time=40
note_off channel=0 note=74 velocity=77 time=18
note_on channel=0 note=57 velocity=57 time=0
note_on channel=0 note=76 velocity=81 time=60
note_on channel=0 note=62 velocity=77 time=22
note_off channel=0 note=57 velocity=57 time=78
note_off channel=0 note=62 velocity=77 time=22
note_off channel=0 note=76 velocity=81 time=36
note_on channel=0 note=50 velocity=61 time=22
note_on channel=0 note=74 velocity=73 time=78
note_off channel=0 note=74 velocity=73 time=82
note_on channel=0 note=69 velocity=25 time=0
note_off channel=0 note=69 velocity=25 time=118
note_off channel=0 note=50 velocity=61 time=22
note_on channel=0 note=42 velocity=81 time=40
note_on channel=0 note=74 velocity=81 time=36
note_on channel=0 note=60 velocity=69 time=22
note_off channel=0 note=60 velocity=69 time=60
note_off channel=0 note=74 velocity=81 time=0
note_off channel=0 note=42 velocity=81 time=60
note_on channel=0 note=72 velocity=77 time=60
note_on channel=0 note=50 velocity=65 time=0
note_on channel=0 note=69 velocity=57 time=22
note_off channel=0 note=69 velocity=57 time=78
note_off channel=0 note=72 velocity=77 time=0
note_off channel=0 note=50 velocity=65 time=82
note_on channel=0 note=43 velocity=73 time=100
note_on channel=0 note=55 velocity=73 time=0
note_on channel=0 note=72 velocity=81 time=0
note_on channel=0 note=59 velocity=65 time=40
note_off channel=0 note=59 velocity=65 time=60
note_off channel=0 note=43 velocity=73 time=18
note_off channel=0 note=55 velocity=73 time=0
note_on channel=0 note=60 velocity=1 time=22
note_off channel=0 note=72 velocity=81 time=18
note_on channel=0 note=71 velocity=65 time=82
note_on channel=0 note=50 velocity=61 time=0
note_off channel=0 note=60 velocity=1 time=18
note_on channel=0 note=67 velocity=53 time=0
note_off channel=0 note=67 velocity=53 time=82
note_off channel=0 note=71 velocity=65 time=60
note_off channel=0 note=50 velocity=61 time=18
note_on channel=0 note=72 velocity=73 time=64
note_on channel=0 note=59 velocity=61 time=18
note_on channel=0 note=43 velocity=61 time=0
note_on channel=0 note=55 velocity=57 time=40
note_off channel=0 note=59 velocity=61 time=60
note_off channel=0 note=55 velocity=57 time=40
note_off channel=0 note=72 velocity=73 time=18
note_on channel=0 note=71 velocity=65 time=60
note_on channel=0 note=50 velocity=61 time=0
note_on channel=0 note=67 velocity=41 time=64
note_off channel=0 note=71 velocity=65 time=60
note_off channel=0 note=67 velocity=41 time=18
note_off channel=0 note=43 velocity=61 time=22
note_off channel=0 note=50 velocity=61 time=36
note_on channel=0 note=57 velocity=65 time=82
note_on channel=0 note=71 velocity=69 time=0
note_on channel=0 note=60 velocity=57 time=40
note_off channel=0 note=57 velocity=65 time=78
note_off channel=0 note=60 velocity=57 time=0
note_off channel=0 note=71 velocity=69 time=100
note_on channel=0 note=50 velocity=57 time=0
note_on channel=0 note=69 velocity=65 time=22
note_on channel=0 note=66 velocity=61 time=18
note_off channel=0 note=66 velocity=61 time=100
note_off channel=0 note=69 velocity=65 time=0
note_off channel=0 note=50 velocity=57 time=82
note_on channel=0 note=43 velocity=49 time=78
note_on channel=0 note=69 velocity=65 time=0
note_on channel=0 note=59 velocity=61 time=0
note_on channel=0 note=45 velocity=49 time=22
note_on channel=0 note=62 velocity=57 time=40
note_off channel=0 note=43 velocity=49 time=60
note_off channel=0 note=45 velocity=49 time=0
note_off channel=0 note=62 velocity=57 time=18
note_off channel=0 note=69 velocity=65 time=0
note_off channel=0 note=59 velocity=61 time=100
note_on channel=0 note=50 velocity=53 time=0
note_on channel=0 note=67 velocity=69 time=0
note_off channel=0 note=50 velocity=53 time=60
note_off channel=0 note=67 velocity=69 time=100
note_on channel=0 note=60 velocity=57 time=140
note_on channel=0 note=48 velocity=57 time=0
note_on channel=0 note=72 velocity=73 time=0
note_on channel=0 note=64 velocity=61 time=22
note_off channel=0 note=64 velocity=61 time=100
note_off channel=0 note=60 velocity=57 time=18
note_off channel=0 note=48 velocity=57 time=18
note_off channel=0 note=72 velocity=73 time=22
note_on channel=0 note=55 velocity=61 time=60
note_on channel=0 note=65 velocity=49 time=0
note_on channel=0 note=71 velocity=57 time=18
note_off channel=0 note=55 velocity=61 time=82
note_off channel=0 note=65 velocity=49 time=18
note_off channel=0 note=71 velocity=57 time=140
note_on channel=0 note=60 velocity=53 time=22
note_on channel=0 note=64 velocity=61 time=0
note_on channel=0 note=72 velocity=65 time=0
note_on channel=0 note=48 velocity=53 time=0
note_off channel=0 note=60 velocity=53 time=118
note_off channel=0 note=64 velocity=61 time=0
note_off channel=0 note=72 velocity=65 time=82
note_on channel=0 note=55 velocity=57 time=36
note_on channel=0 note=71 velocity=57 time=22
note_on channel=0 note=65 velocity=37 time=18
note_off channel=0 note=55 velocity=57 time=60
note_off channel=0 note=65 velocity=37 time=40
note_off channel=0 note=71 velocity=57 time=100
note_on channel=0 note=64 velocity=57 time=22
note_on channel=0 note=60 velocity=49 time=0
note_on channel=0 note=72 velocity=69 time=0
note_off channel=0 note=64 velocity=57 time=100
note_off channel=0 note=60 velocity=49 time=60
note_off channel=0 note=72 velocity=69 time=60
note_off channel=0 note=48 velocity=53 time=40
note_on channel=0 note=65 velocity=45 time=18
note_on channel=0 note=71 velocity=65 time=0
note_on channel=0 note=55 velocity=53 time=22
note_off channel=0 note=65 velocity=45 time=100
note_off channel=0 note=55 velocity=53 time=18
note_on channel=0 note=48 velocity=61 time=82
note_off channel=0 note=71 velocity=65 time=18
note_on channel=0 note=64 velocity=61 time=0
note_on channel=0 note=60 velocity=57 time=0
note_on channel=0 note=72 velocity=73 time=0
note_off channel=0 note=64 velocity=61 time=100
note_off channel=0 note=48 velocity=61 time=60
note_off channel=0 note=60 velocity=57 time=0
note_off channel=0 note=72 velocity=73 time=82
note_on channel=0 note=55 velocity=53 time=0
note_on channel=0 note=73 velocity=69 time=0
note_on channel=0 note=67 velocity=53 time=18
note_off channel=0 note=67 velocity=53 time=100
note_off channel=0 note=55 velocity=53 time=40
note_on channel=0 note=48 velocity=61 time=100
note_on channel=0 note=74 velocity=77 time=0
note_off channel=0 note=73 velocity=69 time=18
note_on channel=0 note=65 velocity=57 time=0
note_on channel=0 note=62 velocity=57 time=0
note_off channel=0 note=48 velocity=61 time=140
note_off channel=0 note=65 velocity=57 time=0
note_off channel=0 note=62 velocity=57 time=22
note_off channel=0 note=74 velocity=77 time=60
note_on channel=0 note=56 velocity=57 time=18
note_on channel=0 note=73 velocity=69 time=0
note_on channel=0 note=68 velocity=53 time=22
note_off channel=0 note=68 velocity=53 time=78
note_off channel=0 note=56 velocity=57 time=40
note_off channel=0 note=73 velocity=69 time=118
note_on channel=0 note=65 velocity=65 time=0
note_on channel=0 note=74 velocity=77 time=0
note_on channel=0 note=48 velocity=61 time=0
note_on channel=0 note=62 velocity=57 time=22
note_off channel=0 note=65 velocity=65 time=118
note_off channel=0 note=62 velocity=57 time=60
note_off channel=0 note=74 velocity=77 time=40
note_on channel=0 note=56 velocity=69 time=0
note_on channel=0 note=73 velocity=73 time=22
note_on channel=0 note=68 velocity=53 time=18
note_off channel=0 note=68 velocity=53 time=100
note_off channel=0 note=56 velocity=69 time=18
note_off channel=0 note=73 velocity=73 time=100
note_on channel=0 note=65 velocity=69 time=0
note_on channel=0 note=62 velocity=69 time=0
note_on channel=0 note=74 velocity=81 time=0
note_off channel=0 note=65 velocity=69 time=140
note_off channel=0 note=62 velocity=69 time=60
note_off channel=0 note=48 velocity=61 time=40
note_off channel=0 note=74 velocity=81 time=0
note_on channel=0 note=56 velocity=65 time=0
note_on channel=0 note=73 velocity=77 time=22
note_on channel=0 note=68 velocity=61 time=18
note_off channel=0 note=68 velocity=61 time=100
note_off channel=0 note=56 velocity=65 time=60
note_off channel=0 note=73 velocity=77 time=60
note_on channel=0 note=76 velocity=81 time=0
note_on channel=0 note=65 velocity=61 time=22
note_on channel=0 note=62 velocity=73 time=0
note_on channel=0 note=48 velocity=61 time=0
note_off channel=0 note=65 velocity=61 time=100
note_off channel=0 note=62 velocity=73 time=40
note_off channel=0 note=48 velocity=61 time=18
note_off channel=0 note=76 velocity=81 time=82
note_on channel=0 note=74 velocity=73 time=0
note_on channel=0 note=71 velocity=57 time=18
note_on channel=0 note=55 velocity=65 time=0
note_off channel=0 note=71 velocity=57 time=40
note_off channel=0 note=74 velocity=73 time=18
note_off channel=0 note=55 velocity=65 time=100
note_on channel=0 note=48 velocity=61 time=82
note_on channel=0 note=72 velocity=77 time=0
note_on channel=0 note=64 velocity=61 time=18
note_on channel=0 note=60 velocity=57 time=0
note_off channel=0 note=64 velocity=61 time=82
note_off channel=0 note=48 velocity=61 time=60
note_off channel=0 note=60 velocity=57 time=0
note_off channel=0 note=72 velocity=77 time=40
note_on channel=0 note=55 velocity=57 time=40
note_on channel=0 note=65 velocity=49 time=18
note_on channel=0 note=71 velocity=57 time=0
note_off channel=0 note=65 velocity=49 time=82
note_off channel=0 note=55 velocity=57 time=18
note_off channel=0 note=71 velocity=57 time=118
note_on channel=0 note=72 velocity=61 time=22
note_on channel=0 note=48 velocity=53 time=0
note_on channel=0 note=64 velocity=53 time=18
note_on channel=0 note=60 velocity=45 time=0
note_off channel=0 note=64 velocity=53 time=122
note_off channel=0 note=60 velocity=45 time=18
note_off channel=0 note=72 velocity=61 time=18
note_on channel=0 note=55 velocity=57 time=82
note_on channel=0 note=71 velocity=61 time=0
note_off channel=0 note=55 velocity=57 time=118
note_off channel=0 note=71 velocity=61 time=100
note_on channel=0 note=72 velocity=65 time=22
note_on channel=0 note=60 velocity=53 time=0
note_on channel=0 note=64 velocity=57 time=18
note_off channel=0 note=48 velocity=53 time=60
note_off channel=0 note=64 velocity=57 time=22
note_off channel=0 note=72 velocity=65 time=118
note_off channel=0 note=60 velocity=53 time=22
note_on channel=0 note=65 velocity=57 time=0
note_on channel=0 note=55 velocity=53 time=0
note_on channel=0 note=71 velocity=65 time=36
note_off channel=0 note=65 velocity=57 time=82
note_off channel=0 note=55 velocity=53 time=118
note_off channel=0 note=71 velocity=65 time=22
note_on channel=0 note=48 velocity=65 time=0
note_on channel=0 note=72 velocity=77 time=0
note_on channel=0 note=64 velocity=69 time=40
note_on channel=0 note=60 velocity=49 time=18
note_off channel=0 note=64 velocity=69 time=82
note_off channel=0 note=48 velocity=65 time=100
note_on channel=0 note=67 velocity=69 time=0
note_on channel=0 note=55 velocity=69 time=0
note_off channel=0 note=72 velocity=77 time=18
note_on channel=0 note=73 velocity=73 time=18
note_off channel=0 note=60 velocity=49 time=40
note_off channel=0 note=67 velocity=69 time=22
note_off channel=0 note=55 velocity=69 time=60
note_on channel=0 note=47 velocity=73 time=78
note_off channel=0 note=73 velocity=73 time=40
note_on channel=0 note=74 velocity=81 time=0
note_on channel=0 note=65 velocity=69 time=22
note_off channel=0 note=65 velocity=69 time=118
note_off channel=0 note=47 velocity=73 time=60
note_on channel=0 note=56 velocity=69 time=22
note_off channel=0 note=74 velocity=81 time=18
note_on channel=0 note=73 velocity=77 time=0
note_on channel=0 note=68 velocity=65 time=18
note_off channel=0 note=68 velocity=65 time=100
note_off channel=0 note=56 velocity=69 time=40
note_off channel=0 note=73 velocity=77 time=60
note_on channel=0 note=46 velocity=85 time=22
note_on channel=0 note=65 velocity=73 time=18
note_on channel=0 note=74 velocity=81 time=0
note_off channel=0 note=65 velocity=73 time=160
note_off channel=0 note=74 velocity=81 time=64
note_on channel=0 note=56 velocity=77 time=0
note_on channel=0 note=73 velocity=77 time=0
note_off channel=0 note=46 velocity=85 time=18
note_on channel=0 note=68 velocity=53 time=40
note_off channel=0 note=68 velocity=53 time=100
note_off channel=0 note=56 velocity=77 time=40
note_on channel=0 note=74 velocity=81 time=60
note_on channel=0 note=65 velocity=65 time=18
note_on channel=0 note=62 velocity=73 time=0
note_off channel=0 note=73 velocity=77 time=22
note_off channel=0 note=65 velocity=65 time=100
note_off channel=0 note=74 velocity=81 time=78
note_off channel=0 note=62 velocity=73 time=40
note_on channel=0 note=58 velocity=69 time=0
note_on channel=0 note=70 velocity=77 time=18
note_on channel=0 note=68 velocity=57 time=40
note_off channel=0 note=68 velocity=57 time=100
note_off channel=0 note=58 velocity=69 time=22
note_off channel=0 note=70 velocity=77 time=18
note_on channel=0 note=53 velocity=69 time=60
note_on channel=0 note=72 velocity=81 time=0
note_on channel=0 note=62 velocity=65 time=22
note_on channel=0 note=60 velocity=61 time=0
note_off channel=0 note=53 velocity=69 time=100
note_off channel=0 note=62 velocity=65 time=0
note_off channel=0 note=60 velocity=61 time=36
note_off channel=0 note=72 velocity=81 time=22
note_on channel=0 note=70 velocity=65 time=60
note_on channel=0 note=58 velocity=65 time=18
note_on channel=0 note=68 velocity=61 time=22
note_off channel=0 note=68 velocity=61 time=78
note_off channel=0 note=70 velocity=65 time=40
note_off channel=0 note=58 velocity=65 time=22
note_on channel=0 note=75 velocity=77 time=100
note_on channel=0 note=67 velocity=57 time=18
note_on channel=0 note=51 velocity=69 time=0
note_on channel=0 note=63 velocity=57 time=18
note_off channel=0 note=67 velocity=57 time=82
note_off channel=0 note=51 velocity=69 time=18
note_off channel=0 note=63 velocity=57 time=22
note_off channel=0 note=75 velocity=77 time=40
note_on channel=0 note=58 velocity=53 time=60
note_on channel=0 note=74 velocity=65 time=0
note_on channel=0 note=70 velocity=41 time=40
note_off channel=0 note=58 velocity=53 time=100
note_off channel=0 note=70 velocity=41 time=0
note_on channel=0 note=75 velocity=69 time=100
note_on channel=0 note=51 velocity=57 time=18
note_off channel=0 note=74 velocity=65 time=18
note_on channel=0 note=67 velocity=45 time=0
note_on channel=0 note=63 velocity=53 time=0
note_off channel=0 note=67 velocity=45 time=140
note_off channel=0 note=63 velocity=53 time=40
note_on channel=0 note=74 velocity=61 time=18
note_on channel=0 note=58 velocity=57 time=40
note_off channel=0 note=75 velocity=69 time=22
note_on channel=0 note=70 velocity=5 time=60
note_off channel=0 note=58 velocity=57 time=60
note_off channel=0 note=70 velocity=5 time=82
note_on channel=0 note=67 velocity=61 time=0
note_on channel=0 note=75 velocity=77 time=0
note_off channel=0 note=74 velocity=61 time=18
note_on channel=0 note=63 velocity=57 time=0
note_off channel=0 note=51 velocity=57 time=160
note_off channel=0 note=67 velocity=61 time=0
note_off channel=0 note=63 velocity=57 time=40
note_off channel=0 note=75 velocity=77 time=18
note_on channel=0 note=58 velocity=53 time=40
note_on channel=0 note=74 velocity=73 time=0
note_on channel=0 note=70 velocity=49 time=22
note_off channel=0 note=70 velocity=49 time=136
note_off channel=0 note=58 velocity=53 time=40
note_on channel=0 note=75 velocity=77 time=40
note_off channel=0 note=74 velocity=73 time=18
note_on channel=0 note=67 velocity=53 time=0
note_on channel=0 note=63 velocity=57 time=22
note_on channel=0 note=51 velocity=53 time=0
note_off channel=0 note=75 velocity=77 time=40
note_off channel=0 note=67 velocity=53 time=36
note_off channel=0 note=63 velocity=57 time=40
note_off channel=0 note=51 velocity=53 time=60
note_on channel=0 note=58 velocity=57 time=22
note_on channel=0 note=76 velocity=69 time=18
note_on channel=0 note=70 velocity=45 time=60
note_off channel=0 note=58 velocity=57 time=64
note_off channel=0 note=70 velocity=45 time=18
note_off channel=0 note=76 velocity=69 time=100
note_on channel=0 note=77 velocity=73 time=18
note_on channel=0 note=51 velocity=65 time=22
note_on channel=0 note=65 velocity=53 time=18
note_on channel=0 note=68 velocity=41 time=60
note_off channel=0 note=65 velocity=53 time=82
note_off channel=0 note=68 velocity=41 time=0
note_off channel=0 note=77 velocity=73 time=18
note_off channel=0 note=51 velocity=65 time=22
note_on channel=0 note=71 velocity=49 time=40
note_on channel=0 note=59 velocity=61 time=0
note_on channel=0 note=76 velocity=69 time=0
note_off channel=0 note=71 velocity=49 time=78
note_off channel=0 note=59 velocity=61 time=100
note_on channel=0 note=77 velocity=69 time=60
note_on channel=0 note=68 velocity=41 time=40
note_on channel=0 note=65 velocity=57 time=0
note_off channel=0 note=76 velocity=69 time=22
note_on channel=0 note=51 velocity=49 time=0
note_off channel=0 note=68 velocity=41 time=60
note_off channel=0 note=65 velocity=57 time=60
note_off channel=0 note=77 velocity=69 time=40
note_on channel=0 note=76 velocity=61 time=40
note_on channel=0 note=59 velocity=57 time=18
note_on channel=0 note=71 velocity=13 time=100
note_off channel=0 note=59 velocity=57 time=82
note_off channel=0 note=71 velocity=13 time=36
note_on channel=0 note=77 velocity=65 time=22
note_off channel=0 note=76 velocity=61 time=18
note_on channel=0 note=68 velocity=61 time=0
note_on channel=0 note=65 velocity=49 time=22
note_off channel=0 note=68 velocity=61 time=78
note_off channel=0 note=77 velocity=65 time=82
note_off channel=0 note=65 velocity=49 time=40
note_on channel=0 note=71 velocity=53 time=18
note_on channel=0 note=76 velocity=77 time=0
note_off channel=0 note=51 velocity=49 time=18
note_on channel=0 note=59 velocity=61 time=0
note_off channel=0 note=71 velocity=53 time=82
note_off channel=0 note=59 velocity=61 time=118
note_on channel=0 note=77 velocity=77 time=0
note_off channel=0 note=76 velocity=77 time=22
note_on channel=0 note=68 velocity=73 time=40
note_on channel=0 note=65 velocity=57 time=18
note_on channel=0 note=51 velocity=65 time=0
note_off channel=0 note=68 velocity=73 time=40
note_off channel=0 note=65 velocity=57 time=18
note_off channel=0 note=77 velocity=77 time=0
note_on channel=0 note=78 velocity=81 time=140
note_off channel=0 note=51 velocity=65 time=18
note_on channel=0 note=70 velocity=65 time=0
note_on channel=0 note=58 velocity=69 time=22
note_off channel=0 note=70 velocity=65 time=78
note_off channel=0 note=58 velocity=69 time=100
note_on channel=0 note=67 velocity=73 time=40
note_on channel=0 note=79 velocity=85 time=0
note_off channel=0 note=78 velocity=81 time=40
note_on channel=0 note=51 velocity=69 time=0
note_on channel=0 note=63 velocity=69 time=0
note_off channel=0 note=67 velocity=73 time=118
note_off channel=0 note=51 velocity=69 time=64
note_off channel=0 note=79 velocity=85 time=0
note_off channel=0 note=63 velocity=69 time=18
note_on channel=0 note=70 velocity=69 time=0
note_on channel=0 note=58 velocity=65 time=0
note_on channel=0 note=78 velocity=77 time=0
note_off channel=0 note=70 velocity=69 time=100
note_off channel=0 note=58 velocity=65 time=118
note_on channel=0 note=79 velocity=89 time=40
note_on channel=0 note=67 velocity=69 time=22
note_on channel=0 note=63 velocity=77 time=0
note_on channel=0 note=51 velocity=73 time=0
note_off channel=0 note=78 velocity=77 time=36
note_off channel=0 note=67 velocity=69 time=122
note_on channel=0 note=58 velocity=73 time=60
note_on channel=0 note=78 velocity=81 time=0
note_off channel=0 note=63 velocity=77 time=18
note_on channel=0 note=73 velocity=73 time=0
note_off channel=0 note=79 velocity=89 time=22
note_off channel=0 note=73 velocity=73 time=78
note_off channel=0 note=58 velocity=73 time=100
note_on channel=0 note=67 velocity=73 time=64
note_on channel=0 note=63 velocity=77 time=0
note_on channel=0 note=79 velocity=97 time=0
note_off channel=0 note=78 velocity=81 time=18
note_off channel=0 note=67 velocity=73 time=140
note_on channel=0 note=58 velocity=77 time=60
note_off channel=0 note=51 velocity=73 time=40
note_off channel=0 note=63 velocity=77 time=0
note_on channel=0 note=78 velocity=89 time=0
note_off channel=0 note=79 velocity=97 time=18
note_on channel=0 note=73 velocity=73 time=0
note_off channel=0 note=73 velocity=73 time=82
note_off channel=0 note=58 velocity=77 time=140
note_on channel=0 note=67 velocity=81 time=0
note_on channel=0 note=79 velocity=89 time=0
note_off channel=0 note=78 velocity=89 time=18
note_on channel=0 note=63 velocity=81 time=0
note_on channel=0 note=51 velocity=81 time=0
note_off channel=0 note=67 velocity=81 time=100
note_off channel=0 note=79 velocity=89 time=18
note_off channel=0 note=63 velocity=81 time=100
note_on channel=0 note=80 velocity=89 time=22
note_on channel=0 note=58 velocity=73 time=0
note_on channel=0 note=73 velocity=77 time=18
note_off channel=0 note=51 velocity=81 time=22
note_off channel=0 note=73 velocity=77 time=78
note_off channel=0 note=80 velocity=89 time=60
note_off channel=0 note=58 velocity=73 time=64
note_on channel=0 note=81 velocity=93 time=36
note_on channel=0 note=67 velocity=77 time=22
note_on channel=0 note=64 velocity=81 time=0
note_on channel=0 note=52 velocity=81 time=0
note_on channel=0 note=79 velocity=61 time=60
note_on channel=0 note=69 velocity=53 time=0
note_off channel=0 note=79 velocity=61 time=60
note_off channel=0 note=69 velocity=53 time=22
note_off channel=0 note=67 velocity=77 time=36
note_on channel=0 note=80 velocity=93 time=100
note_on channel=0 note=57 velocity=81 time=0
note_on channel=0 note=73 velocity=69 time=22
note_off channel=0 note=64 velocity=81 time=18
note_off channel=0 note=81 velocity=93 time=22
note_off channel=0 note=73 velocity=69 time=18
note_off channel=0 note=52 velocity=81 time=18
note_off channel=0 note=80 velocity=93 time=64
note_on channel=0 note=64 velocity=81 time=78
note_on channel=0 note=81 velocity=97 time=22
note_on channel=0 note=67 velocity=69 time=36
note_off channel=0 note=57 velocity=81 time=40
note_on channel=0 note=69 velocity=45 time=0
note_off channel=0 note=67 velocity=69 time=22
note_off channel=0 note=64 velocity=81 time=36
note_off channel=0 note=69 velocity=45 time=0
note_off channel=0 note=81 velocity=97 time=82
note_on channel=0 note=52 velocity=85 time=0
note_on channel=0 note=80 velocity=85 time=18
note_on channel=0 note=73 velocity=73 time=22
note_off channel=0 note=73 velocity=73 time=78
note_off channel=0 note=80 velocity=85 time=64
note_off channel=0 note=52 velocity=85 time=18
note_on channel=0 note=81 velocity=93 time=100
note_on channel=0 note=61 velocity=85 time=0
note_on channel=0 note=67 velocity=77 time=18
note_off channel=0 note=67 velocity=77 time=82
note_on channel=0 note=69 velocity=13 time=40
note_off channel=0 note=81 velocity=93 time=18
note_off channel=0 note=61 velocity=85 time=60
note_on channel=0 note=52 velocity=77 time=0
note_off channel=0 note=69 velocity=13 time=22
note_on channel=0 note=80 velocity=85 time=0
note_on channel=0 note=73 velocity=77 time=18
note_off channel=0 note=73 velocity=77 time=60
note_off channel=0 note=80 velocity=85 time=82
note_off channel=0 note=52 velocity=77 time=40
note_on channel=0 note=61 velocity=81 time=40
note_on channel=0 note=81 velocity=85 time=36
note_off channel=0 note=61 velocity=81 time=22
note_on channel=0 note=67 velocity=69 time=0
note_off channel=0 note=81 velocity=85 time=40
note_off channel=0 note=67 velocity=69 time=18
note_on channel=0 note=45 velocity=85 time=140
note_on channel=0 note=79 velocity=93 time=0
note_off channel=0 note=45 velocity=85 time=60
note_on channel=0 note=73 velocity=65 time=0
note_off channel=0 note=73 velocity=65 time=60
note_off channel=0 note=79 velocity=93 time=0
note_on channel=0 note=62 velocity=77 time=160
note_on channel=0 note=79 velocity=97 time=0
note_on channel=0 note=67 velocity=73 time=40
note_on channel=0 note=50 velocity=69 time=0
note_off channel=0 note=62 velocity=77 time=40
note_off channel=0 note=67 velocity=73 time=18
note_off channel=0 note=50 velocity=69 time=40
note_off channel=0 note=79 velocity=97 time=122
note_on channel=0 note=57 velocity=65 time=0
note_on channel=0 note=78 velocity=77 time=0
note_off channel=0 note=57 velocity=65 time=178
note_on channel=0 note=79 velocity=89 time=100
note_on channel=0 note=66 velocity=69 time=22
note_on channel=0 note=62 velocity=73 time=0
note_on channel=0 note=50 velocity=69 time=0
note_off channel=0 note=78 velocity=77 time=36
note_off channel=0 note=66 velocity=69 time=40
note_off channel=0 note=62 velocity=73 time=100
note_off channel=0 note=79 velocity=89 time=22
note_on channel=0 note=72 velocity=61 time=36
note_on channel=0 note=57 velocity=65 time=0
note_on channel=0 note=78 velocity=73 time=0
note_off channel=0 note=72 velocity=61 time=122
note_off channel=0 note=57 velocity=65 time=100
note_on channel=0 note=79 velocity=85 time=18
note_on channel=0 note=62 velocity=69 time=22
note_on channel=0 note=66 velocity=69 time=18
note_off channel=0 note=78 velocity=73 time=18
note_off channel=0 note=66 velocity=69 time=40
note_off channel=0 note=62 velocity=69 time=122
note_off channel=0 note=79 velocity=85 time=0
note_on channel=0 note=57 velocity=73 time=60
note_on channel=0 note=78 velocity=77 time=0
note_on channel=0 note=72 velocity=77 time=18
note_off channel=0 note=50 velocity=69 time=22
note_off channel=0 note=72 velocity=77 time=78
note_on channel=0 note=79 velocity=89 time=100
note_off channel=0 note=57 velocity=73 time=22
note_on channel=0 note=66 velocity=81 time=18
note_on channel=0 note=62 velocity=77 time=0
note_on channel=0 note=50 velocity=77 time=18
note_off channel=0 note=78 velocity=77 time=22
note_off channel=0 note=66 velocity=81 time=40
note_off channel=0 note=62 velocity=77 time=136
note_off channel=0 note=79 velocity=89 time=0
note_off channel=0 note=50 velocity=77 time=22
note_on channel=0 note=78 velocity=81 time=0
note_on channel=0 note=57 velocity=73 time=0
note_on channel=0 note=72 velocity=81 time=18
note_off channel=0 note=72 velocity=81 time=140
note_off channel=0 note=78 velocity=81 time=18
note_off channel=0 note=57 velocity=73 time=82
note_on channel=0 note=62 velocity=85 time=18
note_on channel=0 note=79 velocity=93 time=0
note_on channel=0 note=50 velocity=81 time=0
note_on channel=0 note=65 velocity=65 time=22
note_on channel=0 note=67 velocity=45 time=60
note_off channel=0 note=65 velocity=65 time=40
note_off channel=0 note=67 velocity=45 time=18
note_on channel=0 note=78 velocity=69 time=122
note_on channel=0 note=71 velocity=73 time=18
note_on channel=0 note=55 velocity=81 time=0
note_off channel=0 note=62 velocity=85 time=40
note_off channel=0 note=79 velocity=93 time=18
note_off channel=0 note=71 velocity=73 time=40
note_off channel=0 note=50 velocity=81 time=60
note_off channel=0 note=78 velocity=69 time=0
note_on channel=0 note=62 velocity=81 time=100
note_on channel=0 note=79 velocity=93 time=0
note_off channel=0 note=55 velocity=81 time=40
note_on channel=0 note=65 velocity=69 time=0
note_off channel=0 note=62 velocity=81 time=60
note_off channel=0 note=65 velocity=69 time=0
note_off channel=0 note=79 velocity=93 time=100
note_on channel=0 note=50 velocity=77 time=40
note_on channel=0 note=78 velocity=77 time=40
note_on channel=0 note=71 velocity=69 time=18
note_off channel=0 note=71 velocity=69 time=60
note_off channel=0 note=50 velocity=77 time=122
note_off channel=0 note=78 velocity=77 time=18
note_on channel=0 note=59 velocity=73 time=22
note_on channel=0 note=79 velocity=85 time=0
note_on channel=0 note=65 velocity=69 time=36
note_off channel=0 note=65 velocity=69 time=64
note_off channel=0 note=59 velocity=73 time=18
note_off channel=0 note=79 velocity=85 time=118
note_on channel=0 note=50 velocity=69 time=0
note_on channel=0 note=78 velocity=57 time=22
note_on channel=0 note=71 velocity=57 time=18
note_off channel=0 note=71 velocity=57 time=82
note_off channel=0 note=50 velocity=69 time=40
note_off channel=0 note=78 velocity=57 time=18
note_on channel=0 note=59 velocity=73 time=40
note_on channel=0 note=79 velocity=85 time=40
note_on channel=0 note=65 velocity=69 time=18
note_off channel=0 note=59 velocity=73 time=18
note_off channel=0 note=65 velocity=69 time=40
note_off channel=0 note=79 velocity=85 time=22
note_on channel=0 note=43 velocity=77 time=118
note_on channel=0 note=77 velocity=73 time=18
note_off channel=0 note=43 velocity=77 time=64
note_on channel=0 note=71 velocity=45 time=18
note_off channel=0 note=77 velocity=73 time=40
note_off channel=0 note=71 velocity=45 time=18
note_on channel=0 note=48 velocity=77 time=140
note_on channel=0 note=77 velocity=85 time=18
note_off channel=0 note=48 velocity=77 time=40
note_on channel=0 note=64 velocity=53 time=0
note_off channel=0 note=64 velocity=53 time=60
note_off channel=0 note=77 velocity=85 time=100
note_on channel=0 note=72 velocity=69 time=40
note_on channel=0 note=76 velocity=65 time=0
note_off channel=0 note=72 velocity=69 time=160
note_on channel=0 note=77 velocity=65 time=164
note_off channel=0 note=76 velocity=65 time=18
note_on channel=0 note=55 velocity=65 time=0
note_on channel=0 note=48 velocity=61 time=0
note_on channel=0 note=67 velocity=57 time=0
note_on channel=0 note=60 velocity=49 time=18
note_off channel=0 note=55 velocity=65 time=40
note_off channel=0 note=48 velocity=61 time=22
note_off channel=0 note=60 velocity=49 time=18
note_off channel=0 note=67 velocity=57 time=0
note_off channel=0 note=77 velocity=65 time=118
note_on channel=0 note=72 velocity=41 time=64
note_on channel=0 note=76 velocity=61 time=0
note_off channel=0 note=72 velocity=41 time=78
note_on channel=0 note=77 velocity=77 time=160
note_on channel=0 note=64 velocity=49 time=64
note_off channel=0 note=76 velocity=61 time=36
note_off channel=0 note=64 velocity=49 time=22
note_off channel=0 note=77 velocity=77 time=140
note_on channel=0 note=72 velocity=65 time=0
note_on channel=0 note=76 velocity=61 time=18
note_off channel=0 note=72 velocity=65 time=140
note_on channel=0 note=46 velocity=65 time=78
note_on channel=0 note=77 velocity=77 time=22
note_off channel=0 note=76 velocity=61 time=18
note_on channel=0 note=52 velocity=65 time=22
note_off channel=0 note=46 velocity=65 time=18
note_on channel=0 note=67 velocity=65 time=0
note_on channel=0 note=60 velocity=73 time=40
note_off channel=0 note=67 velocity=65 time=18
note_off channel=0 note=52 velocity=65 time=60
note_off channel=0 note=60 velocity=73 time=0
note_off channel=0 note=77 velocity=77 time=40
note_on channel=0 note=72 velocity=73 time=40
note_on channel=0 note=76 velocity=69 time=18
note_off channel=0 note=72 velocity=73 time=122
note_off channel=0 note=76 velocity=69 time=60
note_on channel=0 note=45 velocity=89 time=18
note_on channel=0 note=79 velocity=97 time=40
note_on channel=0 note=65 velocity=77 time=22
note_on channel=0 note=53 velocity=57 time=0
note_off channel=0 note=65 velocity=77 time=60
note_on channel=0 note=67 velocity=33 time=0
note_off channel=0 note=45 velocity=89 time=18
note_off channel=0 note=79 velocity=97 time=60
note_off channel=0 note=67 velocity=33 time=22
note_off channel=0 note=53 velocity=57 time=78
note_on channel=0 note=72 velocity=69 time=22
note_on channel=0 note=77 velocity=73 time=0
note_off channel=0 note=72 velocity=69 time=78
note_off channel=0 note=77 velocity=73 time=122
note_on channel=0 note=79 velocity=85 time=40
note_on channel=0 note=69 velocity=81 time=18
note_on channel=0 note=53 velocity=89 time=0
note_on channel=0 note=45 velocity=89 time=0
note_off channel=0 note=69 velocity=81 time=140
note_off channel=0 note=53 velocity=89 time=18
note_off channel=0 note=45 velocity=89 time=22
note_off channel=0 note=79 velocity=85 time=100
note_on channel=0 note=72 velocity=81 time=0
note_on channel=0 note=77 velocity=69 time=18
note_off channel=0 note=77 velocity=69 time=82
note_off channel=0 note=72 velocity=81 time=18
note_on channel=0 note=77 velocity=93 time=140
note_on channel=0 note=65 velocity=77 time=18
note_off channel=0 note=65 velocity=77 time=60
note_off channel=0 note=77 velocity=93 time=40
note_on channel=0 note=77 velocity=85 time=122
note_on channel=0 note=69 velocity=81 time=18
note_on channel=0 note=81 velocity=89 time=0
note_off channel=0 note=69 velocity=81 time=60
note_off channel=0 note=77 velocity=85 time=0
note_off channel=0 note=81 velocity=89 time=60
note_on channel=0 note=53 velocity=77 time=122
note_on channel=0 note=48 velocity=77 time=0
note_on channel=0 note=84 velocity=85 time=0
note_on channel=0 note=41 velocity=77 time=0
note_on channel=0 note=81 velocity=69 time=18
note_on channel=0 note=72 velocity=65 time=22
note_off channel=0 note=53 velocity=77 time=18
note_on channel=0 note=83 velocity=57 time=0
note_off channel=0 note=48 velocity=77 time=18
note_off channel=0 note=72 velocity=65 time=0
note_off channel=0 note=81 velocity=69 time=0
note_on channel=0 note=79 velocity=45 time=0
note_off channel=0 note=83 velocity=57 time=40
note_off channel=0 note=84 velocity=85 time=0
note_off channel=0 note=41 velocity=77 time=22
note_off channel=0 note=79 velocity=45 time=18
note_on channel=0 note=84 velocity=73 time=100
note_on channel=0 note=89 velocity=85 time=0
note_on channel=0 note=77 velocity=69 time=18
note_on channel=0 note=88 velocity=77 time=0
note_on channel=0 note=83 velocity=57 time=40
note_off channel=0 note=77 velocity=69 time=22
note_off channel=0 note=88 velocity=77 time=0
note_off channel=0 note=83 velocity=57 time=18
note_off channel=0 note=84 velocity=73 time=0
note_off channel=0 note=89 velocity=85 time=18
note_on channel=0 note=89 velocity=89 time=122
note_on channel=0 note=48 velocity=93 time=18
note_on channel=0 note=84 velocity=77 time=0
note_on channel=0 note=43 velocity=77 time=0
note_on channel=0 note=77 velocity=77 time=22
note_on channel=0 note=36 velocity=85 time=0
note_off channel=0 note=77 velocity=77 time=78
note_on channel=0 note=79 velocity=41 time=0
note_off channel=0 note=48 velocity=93 time=40
note_off channel=0 note=84 velocity=77 time=0
note_off channel=0 note=89 velocity=89 time=0
note_off channel=0 note=79 velocity=41 time=40
note_off channel=0 note=36 velocity=85 time=40
note_on channel=0 note=88 velocity=93 time=36
note_on channel=0 note=76 velocity=65 time=40
note_off channel=0 note=43 velocity=77 time=40
note_off channel=0 note=76 velocity=65 time=18
note_off channel=0 note=88 velocity=93 time=82
note_on channel=0 note=48 velocity=93 time=140
note_on channel=0 note=84 velocity=85 time=0
note_on channel=0 note=89 velocity=93 time=0
note_on channel=0 note=36 velocity=77 time=18
note_on channel=0 note=77 velocity=65 time=0
note_on channel=0 note=43 velocity=85 time=0
note_on channel=0 note=79 velocity=53 time=40
note_off channel=0 note=36 velocity=77 time=40
note_off channel=0 note=77 velocity=65 time=0
note_off channel=0 note=43 velocity=85 time=18
note_off channel=0 note=48 velocity=93 time=0
note_off channel=0 note=79 velocity=53 time=0
note_off channel=0 note=84 velocity=85 time=22
note_off channel=0 note=89 velocity=93 time=60
note_on channel=0 note=88 velocity=89 time=60
note_on channel=0 note=76 velocity=69 time=40
note_on channel=0 note=77 velocity=53 time=18
note_off channel=0 note=88 velocity=89 time=22
note_off channel=0 note=76 velocity=69 time=18
note_off channel=0 note=77 velocity=53 time=0
note_on channel=0 note=79 velocity=89 time=200
note_on channel=0 note=77 velocity=81 time=0
note_on channel=0 note=65 velocity=73 time=18
note_off channel=0 note=79 velocity=89 time=40
note_off channel=0 note=65 velocity=73 time=22
note_off channel=0 note=77 velocity=81 time=36
note_on channel=0 note=64 velocity=13 time=22
note_on channel=0 note=72 velocity=85 time=78
note_on channel=0 note=76 velocity=81 time=22
note_off channel=0 note=64 velocity=13 time=40
note_off channel=0 note=72 velocity=85 time=60
note_on channel=0 note=46 velocity=73 time=60
note_off channel=0 note=76 velocity=81 time=40
note_on channel=0 note=77 velocity=85 time=40
note_on channel=0 note=67 velocity=77 time=18
note_on channel=0 note=52 velocity=69 time=0
note_off channel=0 note=46 velocity=73 time=40
note_on channel=0 note=60 velocity=89 time=0
note_off channel=0 note=67 velocity=77 time=40
note_off channel=0 note=52 velocity=69 time=60
note_off channel=0 note=60 velocity=89 time=0
note_off channel=0 note=77 velocity=85 time=18
note_on channel=0 note=72 velocity=77 time=60
note_on channel=0 note=76 velocity=69 time=22
note_off channel=0 note=72 velocity=77 time=118
note_off channel=0 note=76 velocity=69 time=60
note_on channel=0 note=45 velocity=85 time=40
note_on channel=0 note=65 velocity=77 time=60
note_on channel=0 note=79 velocity=89 time=0
note_on channel=0 note=53 velocity=61 time=0
note_off channel=0 note=45 velocity=85 time=22
note_off channel=0 note=65 velocity=77 time=60
note_on channel=0 note=60 velocity=85 time=18
note_off channel=0 note=79 velocity=89 time=40
note_off channel=0 note=60 velocity=85 time=22
note_on channel=0 note=72 velocity=73 time=100
note_on channel=0 note=77 velocity=69 time=0
note_off channel=0 note=53 velocity=61 time=100
note_off channel=0 note=72 velocity=73 time=0
note_off channel=0 note=77 velocity=69 time=100
note_on channel=0 note=45 velocity=53 time=60
note_on channel=0 note=79 velocity=93 time=18
note_on channel=0 note=69 velocity=81 time=22
note_on channel=0 note=60 velocity=97 time=18
note_on channel=0 note=53 velocity=73 time=0
note_off channel=0 note=45 velocity=53 time=18
note_on channel=0 note=71 velocity=65 time=0
note_off channel=0 note=60 velocity=97 time=40
note_off channel=0 note=71 velocity=65 time=0
note_off channel=0 note=69 velocity=81 time=22
note_off channel=0 note=53 velocity=73 time=18
note_on channel=0 note=54 velocity=17 time=18
note_off channel=0 note=54 velocity=17 time=22
note_off channel=0 note=79 velocity=93 time=18
note_on channel=0 note=72 velocity=81 time=60
note_on channel=0 note=77 velocity=73 time=22
note_off channel=0 note=77 velocity=73 time=78
note_off channel=0 note=72 velocity=81 time=22
note_on channel=0 note=77 velocity=97 time=140
note_on channel=0 note=65 velocity=81 time=18
note_off channel=0 note=65 velocity=81 time=40
note_off channel=0 note=77 velocity=97 time=40
note_on channel=0 note=77 velocity=81 time=118
note_on channel=0 note=81 velocity=93 time=18
note_on channel=0 note=69 velocity=77 time=22
note_off channel=0 note=69 velocity=77 time=40
note_off channel=0 note=77 velocity=81 time=18
note_off channel=0 note=81 velocity=93 time=40
note_on channel=0 note=53 velocity=93 time=118
note_on channel=0 note=83 velocity=93 time=0
note_on channel=0 note=41 velocity=85 time=0
note_on channel=0 note=48 velocity=77 time=22
note_on channel=0 note=79 velocity=69 time=0
note_off channel=0 note=53 velocity=93 time=36
note_off channel=0 note=48 velocity=77 time=22
note_on channel=0 note=71 velocity=41 time=0
note_off channel=0 note=79 velocity=69 time=18
note_off channel=0 note=83 velocity=93 time=0
note_off channel=0 note=41 velocity=85 time=40
note_on channel=0 note=49 velocity=13 time=0
note_off channel=0 note=71 velocity=41 time=18
note_on channel=0 note=88 velocity=85 time=100
note_off channel=0 note=49 velocity=13 time=22
note_on channel=0 note=77 velocity=85 time=0
note_on channel=0 note=89 velocity=57 time=18
note_on channel=0 note=84 velocity=65 time=0
note_off channel=0 note=89 velocity=57 time=22
note_off channel=0 note=84 velocity=65 time=18
note_off channel=0 note=77 velocity=85 time=40
note_on channel=0 note=43 velocity=41 time=0
note_off channel=0 note=88 velocity=85 time=18
note_off channel=0 note=43 velocity=41 time=100
note_on channel=0 note=36 velocity=81 time=0
note_on channel=0 note=43 velocity=49 time=0
note_on channel=0 note=48 velocity=73 time=40
note_off channel=0 note=36 velocity=81 time=40
note_off channel=0 note=43 velocity=49 time=18
note_off channel=0 note=48 velocity=73 time=40
note_on channel=0 note=84 velocity=73 time=182
note_on channel=0 note=88 velocity=93 time=0
note_on channel=0 note=76 velocity=81 time=18
note_on channel=0 note=77 velocity=77 time=18
note_on channel=0 note=60 velocity=81 time=0
note_off channel=0 note=77 velocity=77 time=40
note_off channel=0 note=60 velocity=81 time=22
note_off channel=0 note=76 velocity=81 time=0
note_off channel=0 note=84 velocity=73 time=18
note_off channel=0 note=88 velocity=93 time=18
note_on channel=0 note=76 velocity=81 time=600
note_on channel=0 note=71 velocity=57 time=64
note_off channel=0 note=71 velocity=57 time=100
note_on channel=0 note=74 velocity=77 time=118
note_on channel=0 note=65 velocity=69 time=100
note_off channel=0 note=76 velocity=81 time=182
note_off channel=0 note=65 velocity=69 time=18
note_off channel=0 note=74 velocity=77 time=60
note_on channel=0 note=79 velocity=81 time=0
note_on channel=0 note=64 velocity=69 time=0
note_on channel=0 note=72 velocity=77 time=22
note_off channel=0 note=72 velocity=77 time=136
note_off channel=0 note=79 velocity=81 time=0
note_on channel=0 note=71 velocity=69 time=140
note_on channel=0 note=52 velocity=57 time=22
note_off channel=0 note=52 velocity=57 time=60
note_off channel=0 note=71 velocity=69 time=60
note_on channel=0 note=72 velocity=81 time=118
note_on channel=0 note=68 velocity=65 time=40
note_off channel=0 note=68 velocity=65 time=122
note_off channel=0 note=64 velocity=69 time=78
note_on channel=0 note=71 velocity=57 time=22
note_on channel=0 note=62 velocity=65 time=36
note_off channel=0 note=72 velocity=81 time=82
note_off channel=0 note=62 velocity=65 time=60
note_off channel=0 note=71 velocity=57 time=82
note_on channel=0 note=60 velocity=65 time=18
note_on channel=0 note=76 velocity=77 time=22
note_on channel=0 note=69 velocity=61 time=18
note_off channel=0 note=69 velocity=61 time=182
note_on channel=0 note=48 velocity=61 time=18
note_off channel=0 note=76 velocity=77 time=40
note_on channel=0 note=68 velocity=73 time=0
note_off channel=0 note=48 velocity=61 time=18
note_off channel=0 note=68 velocity=73 time=140
note_on channel=0 note=69 velocity=69 time=82
note_on channel=0 note=64 velocity=49 time=100
note_off channel=0 note=64 velocity=49 time=60
note_off channel=0 note=60 velocity=65 time=78
note_on channel=0 note=58 velocity=57 time=22
note_on channel=0 note=67 velocity=57 time=18
note_off channel=0 note=69 velocity=69 time=140
note_off channel=0 note=58 velocity=57 time=40
note_off channel=0 note=67 velocity=57 time=40
note_on channel=0 note=72 velocity=73 time=18
note_on channel=0 note=57 velocity=61 time=0
note_on channel=0 note=65 velocity=61 time=40
note_off channel=0 note=65 velocity=61 time=78
note_off channel=0 note=72 velocity=73 time=40
note_on channel=0 note=45 velocity=61 time=82
note_on channel=0 note=63 velocity=69 time=18
note_off channel=0 note=45 velocity=61 time=60
note_off channel=0 note=63 velocity=69 time=122
note_on channel=0 note=65 velocity=61 time=118
note_on channel=0 note=61 velocity=49 time=60
note_on channel=0 note=64 velocity=33 time=22
note_off channel=0 note=61 velocity=49 time=60
note_off channel=0 note=64 velocity=33 time=18
note_on channel=0 note=64 velocity=9 time=0
note_off channel=0 note=57 velocity=61 time=40
note_on channel=0 note=55 velocity=65 time=0
note_off channel=0 note=65 velocity=61 time=82
note_off channel=0 note=55 velocity=65 time=118
note_off channel=0 note=64 velocity=9 time=22
note_on channel=0 note=53 velocity=65 time=60
note_on channel=0 note=69 velocity=69 time=18
note_on channel=0 note=62 velocity=65 time=22
note_off channel=0 note=62 velocity=65 time=100
note_off channel=0 note=69 velocity=69 time=36
note_on channel=0 note=41 velocity=69 time=82
note_on channel=0 note=61 velocity=57 time=40
note_off channel=0 note=61 velocity=57 time=60
note_off channel=0 note=41 velocity=69 time=60
note_on channel=0 note=73 velocity=73 time=200
note_off channel=0 note=73 velocity=73 time=60
note_on channel=0 note=74 velocity=89 time=140
note_on channel=0 note=52 velocity=61 time=100
note_off channel=0 note=74 velocity=89 time=40
note_off channel=0 note=53 velocity=65 time=40
note_on channel=0 note=72 velocity=81 time=60
note_on channel=0 note=50 velocity=73 time=240
note_off channel=0 note=52 velocity=61 time=18
note_on channel=0 note=77 velocity=81 time=40
note_off channel=0 note=72 velocity=81 time=118
note_on channel=0 note=38 velocity=73 time=240
note_off channel=0 note=38 velocity=73 time=160
note_off channel=0 note=77 velocity=81 time=0
note_off channel=0 note=50 velocity=73 time=122
note_on channel=0 note=71 velocity=81 time=178
note_on channel=0 note=66 velocity=65 time=82
note_off channel=0 note=66 velocity=65 time=82
note_off channel=0 note=71 velocity=81 time=118
note_on channel=0 note=69 velocity=73 time=0
note_on channel=0 note=60 velocity=73 time=18
note_off channel=0 note=60 velocity=73 time=122
note_off channel=0 note=69 velocity=73 time=60
note_on channel=0 note=74 velocity=81 time=60
note_on channel=0 note=59 velocity=61 time=0
note_on channel=0 note=67 velocity=69 time=40
note_off channel=0 note=67 velocity=69 time=118
note_off channel=0 note=74 velocity=81 time=0
note_on channel=0 note=47 velocity=65 time=64
note_on channel=0 note=66 velocity=61 time=60
note_off channel=0 note=47 velocity=65 time=18
note_off channel=0 note=66 velocity=61 time=100
note_on channel=0 note=67 velocity=73 time=82
note_on channel=0 note=63 velocity=65 time=60
note_off channel=0 note=63 velocity=65 time=82
note_off channel=0 note=59 velocity=61 time=100
note_off channel=0 note=67 velocity=73 time=60
note_on channel=0 note=57 velocity=57 time=0
note_on channel=0 note=66 velocity=61 time=0
note_off channel=0 note=57 velocity=57 time=100
note_off channel=0 note=66 velocity=61 time=78
note_on channel=0 note=71 velocity=65 time=82
note_on channel=0 note=55 velocity=61 time=0
note_on channel=0 note=64 velocity=65 time=18
note_off channel=0 note=64 velocity=65 time=82
note_off channel=0 note=71 velocity=65 time=0
note_on channel=0 note=43 velocity=41 time=160
note_on channel=0 note=63 velocity=61 time=0
note_off channel=0 note=43 velocity=41 time=100
note_on channel=0 note=64 velocity=69 time=140
note_off channel=0 note=63 velocity=61 time=40
note_on channel=0 note=59 velocity=61 time=0
note_off channel=0 note=59 velocity=61 time=100
note_off channel=0 note=55 velocity=61 time=78
note_on channel=0 note=53 velocity=53 time=0
note_on channel=0 note=62 velocity=73 time=0
note_off channel=0 note=64 velocity=69 time=82
note_off channel=0 note=53 velocity=53 time=118
note_off channel=0 note=62 velocity=73 time=0
note_on channel=0 note=67 velocity=65 time=64
note_on channel=0 note=52 velocity=65 time=0
note_off channel=0 note=67 velocity=65 time=78
note_on channel=0 note=40 velocity=65 time=182
note_on channel=0 note=71 velocity=77 time=18
note_off channel=0 note=40 velocity=65 time=60
note_off channel=0 note=71 velocity=77 time=22
note_on channel=0 note=72 velocity=89 time=140
note_on channel=0 note=68 velocity=69 time=36
note_off channel=0 note=68 velocity=69 time=82
note_off channel=0 note=52 velocity=65 time=60
note_on channel=0 note=50 velocity=73 time=22
note_on channel=0 note=71 velocity=81 time=78
note_off channel=0 note=72 velocity=89 time=82
note_off channel=0 note=50 velocity=73 time=60
note_on channel=0 note=48 velocity=77 time=60
note_off channel=0 note=71 velocity=81 time=40
note_on channel=0 note=69 velocity=73 time=40
note_on channel=0 note=76 velocity=85 time=0
note_on channel=0 note=36 velocity=73 time=118
note_off channel=0 note=69 velocity=73 time=40
note_off channel=0 note=36 velocity=73 time=18
note_off channel=0 note=76 velocity=85 time=0
note_off channel=0 note=48 velocity=77 time=40
note_on channel=0 note=68 velocity=73 time=40
note_off channel=0 note=68 velocity=73 time=140
note_on channel=0 note=69 velocity=77 time=78
note_on channel=0 note=64 velocity=69 time=64
note_off channel=0 note=64 velocity=69 time=60
note_on channel=0 note=58 velocity=65 time=60
note_on channel=0 note=67 velocity=69 time=100
note_off channel=0 note=69 velocity=77 time=82
note_off channel=0 note=58 velocity=65 time=78
note_on channel=0 note=57 velocity=69 time=40
note_off channel=0 note=67 velocity=69 time=18
note_on channel=0 note=72 velocity=81 time=22
note_on channel=0 note=65 velocity=69 time=18
note_off channel=0 note=65 velocity=69 time=140
note_off channel=0 note=72 velocity=81 time=0
note_on channel=0 note=45 velocity=65 time=18
note_on channel=0 note=64 velocity=73 time=82
note_off channel=0 note=45 velocity=65 time=18
note_off channel=0 note=64 velocity=73 time=140
note_on channel=0 note=65 velocity=77 time=82
note_on channel=0 note=61 velocity=69 time=40
note_off channel=0 note=61 velocity=69 time=100
note_off channel=0 note=57 velocity=69 time=78
note_on channel=0 note=64 velocity=69 time=22
note_on channel=0 note=55 velocity=61 time=18
note_off channel=0 note=65 velocity=77 time=82
note_off channel=0 note=55 velocity=61 time=100
note_off channel=0 note=64 velocity=69 time=36
note_on channel=0 note=67 velocity=73 time=22
note_on channel=0 note=45 velocity=69 time=18
note_on channel=0 note=62 velocity=69 time=0
note_on channel=0 note=53 velocity=53 time=22
note_off channel=0 note=67 velocity=73 time=36
note_on channel=0 note=65 velocity=61 time=164
note_off channel=0 note=45 velocity=69 time=200
note_off channel=0 note=53 velocity=53 time=0
note_off channel=0 note=62 velocity=69 time=0
note_off channel=0 note=65 velocity=61 time=0
note_on channel=0 note=69 velocity=77 time=0
note_on channel=0 note=53 velocity=61 time=0
note_on channel=0 note=62 velocity=65 time=18
note_off channel=0 note=62 velocity=65 time=100
note_off channel=0 note=69 velocity=77 time=18
note_off channel=0 note=53 velocity=61 time=64
note_on channel=0 note=65 velocity=69 time=18
note_on channel=0 note=53 velocity=57 time=18
note_on channel=0 note=61 velocity=61 time=22
note_off channel=0 note=53 velocity=57 time=140
note_on channel=0 note=69 velocity=81 time=36
note_off channel=0 note=61 velocity=61 time=22
note_off channel=0 note=65 velocity=69 time=0
note_on channel=0 note=64 velocity=77 time=0
note_on channel=0 note=45 velocity=73 time=0
note_on channel=0 note=65 velocity=13 time=140
note_off channel=0 note=64 velocity=77 time=60
note_on channel=0 note=61 velocity=77 time=0
note_off channel=0 note=65 velocity=13 time=18
note_on channel=0 note=65 velocity=77 time=0
note_off channel=0 note=45 velocity=73 time=160
note_off channel=0 note=61 velocity=77 time=22
note_on channel=0 note=49 velocity=57 time=40
note_on channel=0 note=67 velocity=77 time=218
note_on channel=0 note=43 velocity=57 time=18
note_on channel=0 note=64 velocity=53 time=40
note_off channel=0 note=49 velocity=57 time=122
note_off channel=0 note=64 velocity=53 time=0
note_off channel=0 note=65 velocity=77 time=0
note_off channel=0 note=67 velocity=77 time=0
note_off channel=0 note=69 velocity=81 time=0
note_off channel=0 note=43 velocity=57 time=60
note_on channel=0 note=64 velocity=81 time=0
note_on channel=0 note=70 velocity=89 time=0
note_on channel=0 note=67 velocity=53 time=40
note_on channel=0 note=36 velocity=65 time=0
note_on channel=0 note=48 velocity=65 time=160
note_on channel=0 note=60 velocity=73 time=40
note_off channel=0 note=64 velocity=81 time=300
note_on channel=0 note=64 velocity=65 time=0
note_on channel=0 note=52 velocity=81 time=0
note_off channel=0 note=60 velocity=73 time=218
note_on channel=0 note=60 velocity=81 time=0
note_off channel=0 note=48 velocity=65 time=40
note_on channel=0 note=48 velocity=65 time=0
note_off channel=0 note=67 velocity=53 time=200
note_on channel=0 note=67 velocity=85 time=0
note_off channel=0 note=48 velocity=65 time=40
note_off channel=0 note=60 velocity=81 time=0
note_off channel=0 note=64 velocity=65 time=0
note_on channel=0 note=60 velocity=73 time=0
note_on channel=0 note=64 velocity=73 time=0
note_on channel=0 note=43 velocity=77 time=0
note_off channel=0 note=36 velocity=65 time=78
note_off channel=0 note=52 velocity=81 time=0
note_off channel=0 note=60 velocity=73 time=100
note_off channel=0 note=64 velocity=73 time=0
note_off channel=0 note=67 velocity=85 time=100
note_on channel=0 note=64 velocity=69 time=0
note_on channel=0 note=60 velocity=57 time=82
note_off channel=0 note=64 velocity=69 time=118
note_on channel=0 note=64 velocity=77 time=40
note_on channel=0 note=36 velocity=69 time=18
note_on channel=0 note=67 velocity=85 time=0
note_off channel=0 note=60 velocity=57 time=64
note_off channel=0 note=64 velocity=77 time=0
note_off channel=0 note=36 velocity=69 time=18
note_off channel=0 note=67 velocity=85 time=40
note_off channel=0 note=70 velocity=89 time=0
note_off channel=0 note=43 velocity=77 time=40
note_on channel=0 note=64 velocity=57 time=36
note_on channel=0 note=67 velocity=37 time=40
note_on channel=0 note=46 velocity=69 time=0
note_on channel=0 note=60 velocity=57 time=22
note_off channel=0 note=67 velocity=37 time=60
note_off channel=0 note=64 velocity=57 time=18
note_off channel=0 note=60 velocity=57 time=22
note_off channel=0 note=46 velocity=69 time=18
note_on channel=0 note=64 velocity=77 time=40
note_on channel=0 note=36 velocity=61 time=60
note_on channel=0 note=67 velocity=65 time=18
note_off channel=0 note=64 velocity=77 time=64
note_off channel=0 note=67 velocity=65 time=18
note_off channel=0 note=36 velocity=61 time=40
note_on channel=0 note=60 velocity=57 time=60
note_on channel=0 note=64 velocity=57 time=0
note_off channel=0 note=60 velocity=57 time=60
note_off channel=0 note=64 velocity=57 time=0
note_on channel=0 note=67 velocity=77 time=100
note_on channel=0 note=52 velocity=57 time=0
note_on channel=0 note=60 velocity=61 time=0
note_off channel=0 note=67 velocity=77 time=60
note_off channel=0 note=52 velocity=57 time=22
note_off channel=0 note=60 velocity=61 time=0
note_on channel=0 note=60 velocity=57 time=118
note_on channel=0 note=67 velocity=77 time=22
note_off channel=0 note=60 velocity=57 time=78
note_off channel=0 note=67 velocity=77 time=0
note_on channel=0 note=48 velocity=61 time=140
note_on channel=0 note=67 velocity=69 time=18
note_on channel=0 note=64 velocity=53 time=22
note_off channel=0 note=67 velocity=69 time=40
note_off channel=0 note=64 velocity=53 time=18
note_off channel=0 note=48 velocity=61 time=60
note_on channel=0 note=60 velocity=69 time=82
note_on channel=0 note=52 velocity=69 time=0
note_off channel=0 note=60 velocity=69 time=78
note_off channel=0 note=52 velocity=69 time=64
note_on channel=0 note=64 velocity=77 time=60
note_on channel=0 note=58 velocity=73 time=60
note_off channel=0 note=64 velocity=77 time=18
note_off channel=0 note=58 velocity=73 time=64
note_on channel=0 note=60 velocity=69 time=60
note_on channel=0 note=55 velocity=81 time=18
note_on channel=0 note=52 velocity=81 time=22
note_off channel=0 note=60 velocity=69 time=18
note_on channel=0 note=64 velocity=29 time=0
note_off channel=0 note=52 velocity=81 time=82
note_off channel=0 note=55 velocity=81 time=0
note_off channel=0 note=64 velocity=29 time=0
note_on channel=0 note=70 velocity=77 time=60
note_on channel=0 note=65 velocity=81 time=18
note_on channel=0 note=46 velocity=81 time=0
note_on channel=0 note=67 velocity=53 time=22
note_off channel=0 note=65 velocity=81 time=36
note_off channel=0 note=67 velocity=53 time=0
note_off channel=0 note=70 velocity=77 time=0
note_off channel=0 note=46 velocity=81 time=22
note_on channel=0 note=67 velocity=85 time=100
note_on channel=0 note=50 velocity=81 time=18
note_off channel=0 note=67 velocity=85 time=22
note_on channel=0 note=65 velocity=57 time=0
note_on channel=0 note=70 velocity=45 time=0
note_off channel=0 note=65 velocity=57 time=36
note_on channel=0 note=46 velocity=61 time=0
note_off channel=0 note=70 velocity=45 time=22
note_off channel=0 note=50 velocity=81 time=18
note_off channel=0 note=46 velocity=61 time=40
note_on channel=0 note=51 velocity=85 time=100
note_on channel=0 note=67 velocity=85 time=18
note_on channel=0 note=48 velocity=93 time=0
note_on channel=0 note=72 velocity=77 time=22
note_off channel=0 note=67 velocity=85 time=40
note_off channel=0 note=51 velocity=85 time=18
note_off channel=0 note=72 velocity=77 time=0
note_off channel=0 note=48 velocity=93 time=18
note_on channel=0 note=65 velocity=89 time=122
note_on channel=0 note=72 velocity=85 time=0
note_on channel=0 note=53 velocity=69 time=0
note_on channel=0 note=55 velocity=73 time=18
note_off channel=0 note=65 velocity=89 time=40
note_off channel=0 note=72 velocity=85 time=0
note_off channel=0 note=53 velocity=69 time=18
note_off channel=0 note=55 velocity=73 time=22
note_on channel=0 note=67 velocity=85 time=118
note_on channel=0 note=73 velocity=85 time=0
note_on channel=0 note=52 velocity=85 time=22
note_on channel=0 note=55 velocity=73 time=18
note_off channel=0 note=67 velocity=85 time=18
note_off channel=0 note=73 velocity=85 time=22
note_off channel=0 note=52 velocity=85 time=18
note_off channel=0 note=55 velocity=73 time=0
note_on channel=0 note=67 velocity=77 time=140
note_on channel=0 note=76 velocity=89 time=0
note_on channel=0 note=52 velocity=81 time=0
note_off channel=0 note=67 velocity=77 time=60
note_off channel=0 note=76 velocity=89 time=0
note_off channel=0 note=52 velocity=81 time=22
note_on channel=0 note=64 velocity=97 time=160
note_on channel=0 note=67 velocity=93 time=0
note_on channel=0 note=52 velocity=85 time=18
note_on channel=0 note=70 velocity=85 time=0
note_on channel=0 note=49 velocity=57 time=22
note_off channel=0 note=64 velocity=97 time=18
note_off channel=0 note=67 velocity=93 time=18
note_off channel=0 note=52 velocity=85 time=22
note_off channel=0 note=49 velocity=57 time=40
note_off channel=0 note=70 velocity=85 time=0
note_on channel=0 note=70 velocity=85 time=36
note_on channel=0 note=61 velocity=85 time=40
note_on channel=0 note=67 velocity=69 time=0
note_on channel=0 note=52 velocity=69 time=22
note_on channel=0 note=68 velocity=41 time=36
note_off channel=0 note=61 velocity=85 time=40
note_off channel=0 note=67 velocity=69 time=40
note_off channel=0 note=70 velocity=85 time=0
note_off channel=0 note=52 velocity=69 time=18
note_off channel=0 note=68 velocity=41 time=40
note_on channel=0 note=44 velocity=89 time=0
note_on channel=0 note=68 velocity=73 time=22
note_on channel=0 note=70 velocity=77 time=0
note_on channel=0 note=52 velocity=81 time=18
note_on channel=0 note=67 velocity=41 time=18
note_off channel=0 note=67 velocity=41 time=22
note_on channel=0 note=66 velocity=29 time=40
note_off channel=0 note=52 velocity=81 time=118
note_off channel=0 note=68 velocity=73 time=18
note_on channel=0 note=68 velocity=81 time=0
note_off channel=0 note=70 velocity=77 time=22
note_on channel=0 note=53 velocity=85 time=0
note_off channel=0 note=68 velocity=81 time=18
note_off channel=0 note=44 velocity=89 time=22
note_on channel=0 note=67 velocity=53 time=0
note_off channel=0 note=53 velocity=85 time=18
note_off channel=0 note=66 velocity=29 time=0
note_off channel=0 note=67 velocity=53 time=0
note_on channel=0 note=39 velocity=93 time=182
note_on channel=0 note=72 velocity=93 time=36
note_on channel=0 note=75 velocity=85 time=0
note_on channel=0 note=68 velocity=85 time=0
note_off channel=0 note=72 velocity=93 time=22
note_off channel=0 note=75 velocity=85 time=278
note_on channel=0 note=77 velocity=69 time=0
note_on channel=0 note=65 velocity=73 time=0
note_on channel=0 note=74 velocity=69 time=0
note_on channel=0 note=58 velocity=45 time=64
note_on channel=0 note=56 velocity=45 time=160
note_off channel=0 note=68 velocity=85 time=18
note_off channel=0 note=77 velocity=69 time=0
note_on channel=0 note=68 velocity=73 time=0
note_on channel=0 note=77 velocity=81 time=0
note_off channel=0 note=65 velocity=73 time=22
note_on channel=0 note=65 velocity=69 time=0
note_off channel=0 note=39 velocity=93 time=60
note_off channel=0 note=58 velocity=45 time=0
note_off channel=0 note=65 velocity=69 time=18
note_off channel=0 note=68 velocity=73 time=0
note_off channel=0 note=74 velocity=69 time=0
note_off channel=0 note=77 velocity=81 time=0
note_on channel=0 note=82 velocity=89 time=140
note_on channel=0 note=75 velocity=81 time=0
note_on channel=0 note=58 velocity=73 time=18
note_off channel=0 note=82 velocity=89 time=200
note_on channel=0 note=77 velocity=81 time=0
note_on channel=0 note=82 velocity=73 time=0
note_on channel=0 note=82 velocity=93 time=0
note_on channel=0 note=53 velocity=81 time=22
note_on channel=0 note=80 velocity=89 time=240
note_off channel=0 note=56 velocity=45 time=18
note_off channel=0 note=58 velocity=73 time=0
note_off channel=0 note=75 velocity=81 time=0
note_off channel=0 note=77 velocity=81 time=0
note_off channel=0 note=82 velocity=73 time=0
note_on channel=0 note=82 velocity=89 time=0
note_on channel=0 note=58 velocity=73 time=18
note_on channel=0 note=80 velocity=81 time=0
note_off channel=0 note=58 velocity=73 time=40
note_off channel=0 note=80 velocity=89 time=0
note_off channel=0 note=82 velocity=93 time=0
note_off channel=0 note=53 velocity=81 time=22
note_off channel=0 note=80 velocity=81 time=0
note_on channel=0 note=82 velocity=13 time=100
note_on channel=0 note=79 velocity=85 time=78
note_on channel=0 note=87 velocity=93 time=40
note_on channel=0 note=55 velocity=77 time=18
note_off channel=0 note=82 velocity=89 time=264
note_off channel=0 note=87 velocity=93 time=0
note_on channel=0 note=87 velocity=93 time=0
note_on channel=0 note=82 velocity=85 time=0
note_on channel=0 note=91 velocity=97 time=18
note_on channel=0 note=58 velocity=77 time=0
note_on channel=0 note=46 velocity=77 time=0
note_off channel=0 note=87 velocity=93 time=218
note_on channel=0 note=87 velocity=89 time=0
note_off channel=0 note=82 velocity=13 time=22
note_on channel=0 note=82 velocity=85 time=0
note_off channel=0 note=82 velocity=85 time=40
note_on channel=0 note=53 velocity=85 time=0
note_on channel=0 note=82 velocity=69 time=0
note_off channel=0 note=55 velocity=77 time=60
note_off channel=0 note=79 velocity=85 time=0
note_off channel=0 note=91 velocity=97 time=0
note_off channel=0 note=58 velocity=77 time=18
note_off channel=0 note=82 velocity=85 time=40
note_off channel=0 note=46 velocity=77 time=60
note_on channel=0 note=84 velocity=85 time=40
note_on channel=0 note=87 velocity=89 time=0
note_on channel=0 note=81 velocity=85 time=18
note_on channel=0 note=41 velocity=81 time=0
note_off channel=0 note=84 velocity=85 time=64
note_off channel=0 note=87 velocity=89 time=0
note_off channel=0 note=81 velocity=85 time=36
note_on channel=0 note=86 velocity=25 time=22
note_off channel=0 note=86 velocity=25 time=18
note_on channel=0 note=84 velocity=77 time=100
note_on channel=0 note=81 velocity=73 time=40
note_on channel=0 note=89 velocity=61 time=18
note_on channel=0 note=51 velocity=57 time=0
note_on channel=0 note=53 velocity=37 time=22
note_on channel=0 note=78 velocity=13 time=60
note_on channel=0 note=92 velocity=81 time=182
note_off channel=0 note=41 velocity=81 time=18
note_off channel=0 note=84 velocity=77 time=0
note_on channel=0 note=84 velocity=73 time=0
note_on channel=0 note=89 velocity=57 time=0
note_on channel=0 note=60 velocity=61 time=40
note_on channel=0 note=48 velocity=37 time=40
note_off channel=0 note=87 velocity=89 time=178
note_on channel=0 note=87 velocity=77 time=0
note_off channel=0 note=84 velocity=73 time=22
note_on channel=0 note=84 velocity=81 time=0
note_off channel=0 note=84 velocity=81 time=36
note_on channel=0 note=84 velocity=53 time=0
note_off channel=0 note=89 velocity=61 time=22
note_on channel=0 note=89 velocity=13 time=0
note_off channel=0 note=53 velocity=85 time=40
note_on channel=0 note=53 velocity=29 time=0
note_on channel=0 note=34 velocity=73 time=178
note_on channel=0 note=94 velocity=97 time=22
note_on channel=0 note=90 velocity=97 time=18
note_on channel=0 note=93 velocity=17 time=160
note_off channel=0 note=53 velocity=37 time=60
note_off channel=0 note=60 velocity=61 time=0
note_off channel=0 note=78 velocity=13 time=0
note_off channel=0 note=84 velocity=53 time=0
note_off channel=0 note=87 velocity=77 time=0
note_off channel=0 note=90 velocity=97 time=0
note_off channel=0 note=92 velocity=81 time=0
note_off channel=0 note=93 velocity=17 time=0
note_off channel=0 note=94 velocity=97 time=22
note_on channel=0 note=89 velocity=85 time=78
note_off channel=0 note=89 velocity=57 time=22
note_on channel=0 note=89 velocity=69 time=0
note_on channel=0 note=99 velocity=101 time=260
note_off channel=0 note=34 velocity=73 time=60
note_on channel=0 note=34 velocity=29 time=0
note_on channel=0 note=98 velocity=41 time=22
note_on channel=0 note=46 velocity=61 time=100
note_on channel=0 note=97 velocity=69 time=18
note_on channel=0 note=96 velocity=93 time=100
note_on channel=0 note=103 velocity=93 time=18
note_off channel=0 note=34 velocity=29 time=64
note_off channel=0 note=53 velocity=29 time=0
note_off channel=0 note=82 velocity=69 time=0
note_off channel=0 note=89 velocity=13 time=0
note_off channel=0 note=96 velocity=93 time=0
note_off channel=0 note=98 velocity=41 time=0
note_on channel=0 note=101 velocity=57 time=18
note_on channel=0 note=102 velocity=73 time=160
note_on channel=0 note=94 velocity=93 time=0
note_on channel=0 note=101 velocity=89 time=22
note_on channel=0 note=97 velocity=101 time=300
note_on channel=0 note=99 velocity=97 time=18
note_on channel=0 note=104 velocity=81 time=0
note_off channel=0 note=89 velocity=85 time=18
note_off channel=0 note=99 velocity=101 time=0
note_off channel=0 note=101 velocity=57 time=0
note_off channel=0 note=102 velocity=73 time=0
note_on channel=0 note=46 velocity=73 time=40
note_on channel=0 note=98 velocity=57 time=60
note_off channel=0 note=99 velocity=97 time=200
note_on channel=0 note=99 velocity=101 time=0
note_on channel=0 note=46 velocity=85 time=0
note_on channel=0 note=99 velocity=85 time=22
note_on channel=0 note=97 velocity=73 time=18
note_on channel=0 note=98 velocity=33 time=100
note_on channel=0 note=98 velocity=13 time=82
note_off channel=0 note=46 velocity=61 time=118
note_off channel=0 note=46 velocity=73 time=0
note_off channel=0 note=94 velocity=93 time=0
note_off channel=0 note=97 velocity=69 time=0
note_off channel=0 note=98 velocity=57 time=0
note_off channel=0 note=98 velocity=33 time=0
note_off channel=0 note=99 velocity=101 time=0
note_on channel=0 note=106 velocity=93 time=82
note_on channel=0 note=99 velocity=97 time=18
note_on channel=0 note=27 velocity=85 time=22
note_off channel=0 note=99 velocity=85 time=60
note_off channel=0 note=99 velocity=97 time=540
note_on channel=0 note=39 velocity=93 time=0
note_on channel=0 note=94 velocity=97 time=0
note_on channel=0 note=94 velocity=89 time=60
note_on channel=0 note=104 velocity=73 time=18
note_on channel=0 note=99 velocity=97 time=22
note_on channel=0 note=95 velocity=69 time=0
note_on channel=0 note=95 velocity=105 time=0
note_on channel=0 note=101 velocity=69 time=0
note_off channel=0 note=99 velocity=97 time=18
note_on channel=0 note=99 velocity=65 time=0
note_on channel=0 note=101 velocity=77 time=60
note_off channel=0 note=39 velocity=93 time=382
note_off channel=0 note=94 velocity=97 time=0
note_off channel=0 note=94 velocity=89 time=0
note_off channel=0 note=95 velocity=69 time=0
note_off channel=0 note=99 velocity=65 time=0
note_off channel=0 note=101 velocity=89 time=0
note_off channel=0 note=104 velocity=81 time=0
note_on channel=0 note=47 velocity=109 time=78
note_on channel=0 note=92 velocity=89 time=0
note_on channel=0 note=87 velocity=89 time=22
note_on channel=0 note=95 velocity=97 time=0
note_on channel=0 note=87 velocity=97 time=0
note_on channel=0 note=35 velocity=97 time=0
note_on channel=0 note=90 velocity=73 time=18
note_on channel=0 note=44 velocity=33 time=60
note_on channel=0 note=89 velocity=53 time=0
note_off channel=0 note=47 velocity=109 time=482
note_on channel=0 note=47 velocity=85 time=0
note_off channel=0 note=92 velocity=89 time=18
note_on channel=0 note=92 velocity=73 time=0
note_off channel=0 note=87 velocity=89 time=22
note_on channel=0 note=39 velocity=93 time=0
note_on channel=0 note=80 velocity=73 time=0
note_on channel=0 note=92 velocity=93 time=0
note_on channel=0 note=87 velocity=65 time=0
note_off channel=0 note=47 velocity=85 time=40
note_off channel=0 note=89 velocity=69 time=0
note_off channel=0 note=90 velocity=73 time=0
note_off channel=0 note=95 velocity=105 time=0
note_off channel=0 note=95 velocity=97 time=0
note_off channel=0 note=87 velocity=97 time=60
note_off channel=0 note=39 velocity=93 time=18
note_on channel=0 note=46 velocity=97 time=322
note_on channel=0 note=103 velocity=101 time=18
note_on channel=0 note=98 velocity=73 time=40
note_on channel=0 note=101 velocity=85 time=0
note_on channel=0 note=47 velocity=53 time=18
note_off channel=0 note=92 velocity=73 time=522
note_on channel=0 note=87 velocity=101 time=0
note_on channel=0 note=92 velocity=101 time=0
note_on channel=0 note=99 velocity=101 time=0
note_off channel=0 note=44 velocity=33 time=18
note_on channel=0 note=44 velocity=85 time=0
note_on channel=0 note=48 velocity=89 time=0
note_on channel=0 note=102 velocity=65 time=18
note_on channel=0 note=96 velocity=49 time=0
note_on channel=0 note=36 velocity=77 time=22
note_off channel=0 note=44 velocity=85 time=18
note_off channel=0 note=46 velocity=85 time=0
note_off channel=0 note=80 velocity=73 time=0
note_off channel=0 note=92 velocity=93 time=0
note_off channel=0 note=101 velocity=69 time=0
note_off channel=0 note=102 velocity=65 time=0
note_on channel=0 note=98 velocity=37 time=0
note_off channel=0 note=36 velocity=77 time=160
note_off channel=0 note=87 velocity=65 time=100
note_on channel=0 note=94 velocity=97 time=682
note_off channel=0 note=101 velocity=77 time=18
note_on channel=0 note=36 velocity=89 time=0
note_on channel=0 note=84 velocity=89 time=0
note_on channel=0 note=80 velocity=97 time=0
note_on channel=0 note=85 velocity=93 time=22
note_on channel=0 note=29 velocity=81 time=0
note_off channel=0 note=47 velocity=53 time=40
note_off channel=0 note=96 velocity=49 time=0
note_off channel=0 note=94 velocity=97 time=260
note_on channel=0 note=77 velocity=89 time=240
note_on channel=0 note=82 velocity=97 time=0
note_off channel=0 note=89 velocity=53 time=18
note_on channel=0 note=89 velocity=89 time=0
note_on channel=0 note=46 velocity=97 time=0
note_on channel=0 note=82 velocity=77 time=18
note_off channel=0 note=36 velocity=89 time=40
note_on channel=0 note=36 velocity=73 time=0
note_on channel=0 note=37 velocity=73 time=300
note_on channel=0 note=35 velocity=33 time=82
note_off channel=0 note=36 velocity=73 time=118
note_off channel=0 note=77 velocity=89 time=0
note_off channel=0 note=82 velocity=97 time=0
note_off channel=0 note=84 velocity=89 time=0
note_off channel=0 note=85 velocity=93 time=0
note_off channel=0 note=89 velocity=89 time=0
note_on channel=0 note=94 velocity=97 time=40
note_on channel=0 note=82 velocity=93 time=0
note_on channel=0 note=85 velocity=89 time=18
note_on channel=0 note=89 velocity=89 time=0
note_on channel=0 note=46 velocity=89 time=22
note_off channel=0 note=94 velocity=97 time=60
note_on channel=0 note=90 velocity=89 time=240
note_on channel=0 note=84 velocity=85 time=0
note_on channel=0 note=97 velocity=89 time=0
note_on channel=0 note=93 velocity=89 time=0
note_on channel=0 note=99 velocity=37 time=40
note_on channel=0 note=34 velocity=93 time=236
note_off channel=0 note=46 velocity=97 time=22
note_on channel=0 note=46 velocity=65 time=0
note_off channel=0 note=90 velocity=89 time=40
note_on channel=0 note=90 velocity=85 time=0
note_off channel=0 note=34 velocity=93 time=18
note_off channel=0 note=90 velocity=85 time=0
note_on channel=0 note=87 velocity=77 time=0
note_on channel=0 note=82 velocity=89 time=0
note_on channel=0 note=97 velocity=93 time=0
note_off channel=0 note=97 velocity=101 time=40
note_on channel=0 note=97 velocity=77 time=0
note_on channel=0 note=97 velocity=49 time=40
note_off channel=0 note=48 velocity=37 time=178
note_on channel=0 note=48 velocity=89 time=0
note_on channel=0 note=36 velocity=85 time=60
note_on channel=0 note=96 velocity=97 time=0
note_on channel=0 note=89 velocity=97 time=22
note_on channel=0 note=92 velocity=93 time=18
note_off channel=0 note=36 velocity=85 time=360
note_off channel=0 note=82 velocity=77 time=0
note_off channel=0 note=84 velocity=85 time=0
note_off channel=0 note=85 velocity=89 time=0
note_off channel=0 note=87 velocity=101 time=0
note_off channel=0 note=89 velocity=89 time=0
note_off channel=0 note=92 velocity=101 time=0
note_off channel=0 note=96 velocity=97 time=0
note_off channel=0 note=97 velocity=73 time=0
note_off channel=0 note=97 velocity=89 time=0
note_off channel=0 note=99 velocity=101 time=0
note_on channel=0 note=87 velocity=101 time=22
note_on channel=0 note=99 velocity=101 time=0
note_on channel=0 note=87 velocity=101 time=0
note_on channel=0 note=55 velocity=101 time=0
note_on channel=0 note=96 velocity=97 time=18
note_on channel=0 note=46 velocity=97 time=22
note_off channel=0 note=81 velocity=73 time=218
note_off channel=0 note=51 velocity=57 time=18
note_off channel=0 note=87 velocity=77 time=200
note_off channel=0 note=99 velocity=37 time=0
note_on channel=0 note=87 velocity=101 time=0
note_on channel=0 note=96 velocity=97 time=0
note_on channel=0 note=99 velocity=89 time=0
note_off channel=0 note=87 velocity=101 time=1340
note_off channel=0 note=96 velocity=97 time=0
note_off channel=0 note=99 velocity=101 time=0
note_on channel=0 note=84 velocity=97 time=0
note_on channel=0 note=63 velocity=97 time=0
note_on channel=0 note=72 velocity=93 time=0
note_on channel=0 note=87 velocity=5 time=0
note_on channel=0 note=96 velocity=97 time=0
note_on channel=0 note=91 velocity=81 time=22
note_on channel=0 note=48 velocity=101 time=0
note_on channel=0 note=90 velocity=73 time=18
note_on channel=0 note=34 velocity=89 time=0
note_off channel=0 note=103 velocity=93 time=218
note_off channel=0 note=98 velocity=13 time=1122
note_off channel=0 note=106 velocity=93 time=200
note_off channel=0 note=27 velocity=85 time=40
note_off channel=0 note=84 velocity=97 time=0
note_on channel=0 note=76 velocity=105 time=0
note_on channel=0 note=84 velocity=93 time=0
note_off channel=0 note=48 velocity=89 time=18
note_on channel=0 note=52 velocity=101 time=0
note_on channel=0 note=67 velocity=93 time=0
note_on channel=0 note=48 velocity=85 time=0
note_off channel=0 note=104 velocity=73 time=660
note_on channel=0 note=100 velocity=105 time=60
note_on channel=0 note=88 velocity=109 time=0
note_on channel=0 note=93 velocity=109 time=40
note_on channel=0 note=52 velocity=81 time=22
note_on channel=0 note=54 velocity=89 time=0
note_off channel=0 note=35 velocity=97 time=460
note_off channel=0 note=100 velocity=105 time=278
note_on channel=0 note=100 velocity=101 time=0
note_off channel=0 note=90 velocity=73 time=22
note_on channel=0 note=88 velocity=89 time=0
note_on channel=0 note=57 velocity=93 time=0
note_on channel=0 note=78 velocity=93 time=0
note_on channel=0 note=92 velocity=93 time=0
note_on channel=0 note=45 velocity=89 time=18
note_on channel=0 note=99 velocity=93 time=622
note_off channel=0 note=87 velocity=101 time=36
note_on channel=0 note=87 velocity=93 time=0
note_on channel=0 note=79 velocity=81 time=0
note_off channel=0 note=103 velocity=101 time=82
note_off channel=0 note=88 velocity=109 time=18
note_on channel=0 note=88 velocity=9 time=0
note_off channel=0 note=98 velocity=73 time=22
note_off channel=0 note=101 velocity=85 time=0
note_off channel=0 note=46 velocity=97 time=400
note_off channel=0 note=55 velocity=101 time=0
note_on channel=0 note=55 velocity=101 time=0
note_on channel=0 note=46 velocity=97 time=0
note_on channel=0 note=45 velocity=13 time=140
note_off channel=0 note=98 velocity=37 time=78
note_on channel=0 note=28 velocity=61 time=422
note_on channel=0 note=38 velocity=61 time=118
note_on channel=0 note=51 velocity=89 time=140
note_on channel=0 note=44 velocity=69 time=60
note_on channel=0 note=48 velocity=73 time=60
note_off channel=0 note=52 velocity=101 time=122
note_on channel=0 note=52 velocity=73 time=0
note_off channel=0 note=80 velocity=97 time=36
note_off channel=0 note=29 velocity=81 time=22
note_on channel=0 note=95 velocity=85 time=118
note_on channel=0 note=83 velocity=85 time=0
note_on channel=0 note=87 velocity=109 time=222
note_on channel=0 note=99 velocity=109 time=0
note_off channel=0 note=88 velocity=89 time=78
note_on channel=0 note=88 velocity=49 time=0
note_off channel=0 note=28 velocity=61 time=222
note_off channel=0 note=45 velocity=89 time=0
note_off channel=0 note=48 velocity=89 time=0
note_off channel=0 note=51 velocity=89 time=0
note_off channel=0 note=52 velocity=81 time=0
note_off channel=0 note=54 velocity=89 time=0
note_off channel=0 note=55 velocity=101 time=0
note_off channel=0 note=57 velocity=93 time=0
note_off channel=0 note=63 velocity=97 time=0
note_off channel=0 note=67 velocity=93 time=0
note_off channel=0 note=72 velocity=93 time=0
note_off channel=0 note=76 velocity=105 time=0
note_off channel=0 note=78 velocity=93 time=0
note_off channel=0 note=84 velocity=93 time=0
note_off channel=0 note=87 velocity=101 time=0
note_off channel=0 note=88 velocity=9 time=0
note_off channel=0 note=88 velocity=49 time=0
note_off channel=0 note=91 velocity=81 time=0
note_off channel=0 note=92 velocity=93 time=0
note_off channel=0 note=92 velocity=93 time=0
note_off channel=0 note=93 velocity=89 time=0
note_off channel=0 note=93 velocity=109 time=0
note_off channel=0 note=95 velocity=85 time=0
note_off channel=0 note=96 velocity=97 time=0
note_off channel=0 note=99 velocity=89 time=0
note_off channel=0 note=99 velocity=93 time=0
note_on channel=0 note=90 velocity=85 time=0
note_on channel=0 note=39 velocity=113 time=0
note_on channel=0 note=87 velocity=101 time=0
note_on channel=0 note=87 velocity=105 time=0
note_on channel=0 note=27 velocity=105 time=0
note_on channel=0 note=96 velocity=93 time=0
note_on channel=0 note=36 velocity=17 time=118
note_on channel=0 note=92 velocity=29 time=18
note_off channel=0 note=87 velocity=5 time=22
note_off channel=0 note=37 velocity=73 time=118
note_off channel=0 note=35 velocity=33 time=82
note_on channel=0 note=88 velocity=61 time=78
note_off channel=0 note=90 velocity=85 time=22
note_on channel=0 note=81 velocity=77 time=0
note_on channel=0 note=90 velocity=81 time=0
note_off channel=0 note=87 velocity=93 time=18
note_on channel=0 note=83 velocity=77 time=0
note_on channel=0 note=87 velocity=81 time=0
note_off channel=0 note=82 velocity=93 time=40
note_off channel=0 note=46 velocity=89 time=40
note_on channel=0 note=64 velocity=93 time=218
note_on channel=0 note=75 velocity=93 time=0
note_on channel=0 note=63 velocity=89 time=22
note_on channel=0 note=85 velocity=13 time=136
note_off channel=0 note=88 velocity=61 time=200
note_on channel=0 note=88 velocity=61 time=0
note_on channel=0 note=80 velocity=89 time=0
note_off channel=0 note=46 velocity=65 time=22
note_off channel=0 note=88 velocity=61 time=0
note_on channel=0 note=88 velocity=69 time=0
note_on channel=0 note=89 velocity=77 time=18
note_on channel=0 note=29 velocity=97 time=0
note_off channel=0 note=82 velocity=89 time=40
note_off channel=0 note=97 velocity=93 time=0
note_on channel=0 note=94 velocity=61 time=18
note_off channel=0 note=87 velocity=109 time=22
note_off channel=0 note=97 velocity=77 time=0
note_on channel=0 note=87 velocity=61 time=0
note_off channel=0 note=97 velocity=49 time=40
note_on channel=0 note=93 velocity=73 time=178
note_on channel=0 note=90 velocity=85 time=0
note_on channel=0 note=54 velocity=85 time=22
note_on channel=0 note=66 velocity=97 time=0
note_on channel=0 note=81 velocity=77 time=0
note_off channel=0 note=83 velocity=85 time=18
note_on channel=0 note=83 velocity=65 time=0
note_off channel=0 note=89 velocity=97 time=40
note_off channel=0 note=36 velocity=17 time=40
note_off channel=0 note=39 velocity=113 time=0
note_off channel=0 note=54 velocity=85 time=0
note_off channel=0 note=63 velocity=89 time=0
note_off channel=0 note=64 velocity=93 time=0
note_off channel=0 note=66 velocity=97 time=0
note_off channel=0 note=75 velocity=93 time=0
note_off channel=0 note=80 velocity=89 time=0
note_off channel=0 note=81 velocity=77 time=0
note_off channel=0 note=87 velocity=101 time=0
note_off channel=0 note=88 velocity=69 time=0
note_off channel=0 note=92 velocity=29 time=0
note_off channel=0 note=93 velocity=73 time=0
note_off channel=0 note=94 velocity=61 time=0
note_off channel=0 note=83 velocity=77 time=18
note_off channel=0 note=90 velocity=81 time=0
note_on channel=0 note=77 velocity=97 time=200
note_on channel=0 note=68 velocity=97 time=0
note_on channel=0 note=51 velocity=93 time=18
note_on channel=0 note=87 velocity=73 time=22
note_off channel=0 note=46 velocity=97 time=140
note_on channel=0 note=71 velocity=93 time=160
note_on channel=0 note=83 velocity=89 time=0
note_off channel=0 note=77 velocity=97 time=18
note_on channel=0 note=50 velocity=93 time=0
note_on channel=0 note=89 velocity=93 time=0
note_on channel=0 note=41 velocity=77 time=22
note_on channel=0 note=82 velocity=69 time=0
note_on channel=0 note=90 velocity=93 time=260
note_on channel=0 note=87 velocity=85 time=18
note_on channel=0 note=49 velocity=97 time=22
note_on channel=0 note=37 velocity=89 time=0
note_on channel=0 note=85 velocity=81 time=18
note_on channel=0 note=91 velocity=53 time=40
note_off channel=0 note=38 velocity=61 time=200
note_off channel=0 note=49 velocity=97 time=0
note_off channel=0 note=51 velocity=93 time=0
note_off channel=0 note=68 velocity=97 time=0
note_off channel=0 note=71 velocity=93 time=0
note_off channel=0 note=81 velocity=77 time=0
note_off channel=0 note=83 velocity=65 time=0
note_off channel=0 note=85 velocity=13 time=0
note_off channel=0 note=87 velocity=105 time=0
note_off channel=0 note=89 velocity=77 time=0
note_off channel=0 note=90 velocity=85 time=0
note_on channel=0 note=85 velocity=69 time=100
note_on channel=0 note=79 velocity=101 time=0
note_on channel=0 note=87 velocity=89 time=0
note_on channel=0 note=91 velocity=85 time=0
note_on channel=0 note=45 velocity=101 time=18
note_on channel=0 note=33 velocity=89 time=22
note_on channel=0 note=76 velocity=33 time=36
note_on channel=0 note=78 velocity=97 time=322
note_on channel=0 note=102 velocity=97 time=0
note_off channel=0 note=45 velocity=13 time=18
note_off channel=0 note=85 velocity=81 time=0
note_on channel=0 note=85 velocity=105 time=0
note_on channel=0 note=81 velocity=93 time=0
note_on channel=0 note=45 velocity=97 time=0
note_on channel=0 note=92 velocity=77 time=22
note_on channel=0 note=90 velocity=33 time=60
note_off channel=0 note=96 velocity=97 time=418
note_off channel=0 note=48 velocity=101 time=22
note_off channel=0 note=34 velocity=89 time=18
note_on channel=0 note=61 velocity=61 time=40
note_on channel=0 note=88 velocity=97 time=18
note_off channel=0 note=85 velocity=69 time=22
note_on channel=0 note=73 velocity=97 time=0
note_on channel=0 note=85 velocity=81 time=0
note_on channel=0 note=82 velocity=85 time=36
note_on channel=0 note=57 velocity=61 time=22
note_off channel=0 note=33 velocity=89 time=118
note_off channel=0 note=45 velocity=101 time=0
note_off channel=0 note=76 velocity=33 time=0
note_off channel=0 note=78 velocity=97 time=0
note_off channel=0 note=79 velocity=81 time=0
note_off channel=0 note=85 velocity=105 time=0
note_off channel=0 note=87 velocity=81 time=0
note_off channel=0 note=90 velocity=93 time=0
note_off channel=0 note=91 velocity=53 time=0
note_off channel=0 note=100 velocity=101 time=0
note_off channel=0 note=61 velocity=61 time=22
note_on channel=0 note=92 velocity=29 time=178
note_on channel=0 note=90 velocity=89 time=260
note_on channel=0 note=81 velocity=105 time=0
note_on channel=0 note=93 velocity=89 time=40
note_on channel=0 note=54 velocity=93 time=22
note_on channel=0 note=51 velocity=9 time=100
note_on channel=0 note=68 velocity=97 time=478
note_on channel=0 note=80 velocity=97 time=0
note_off channel=0 note=48 velocity=85 time=240
note_off channel=0 note=54 velocity=93 time=1400
note_off channel=0 note=57 velocity=61 time=0
note_off channel=0 note=68 velocity=97 time=0
note_off channel=0 note=73 velocity=97 time=0
note_off channel=0 note=79 velocity=101 time=0
note_off channel=0 note=80 velocity=97 time=0
note_off channel=0 note=81 velocity=93 time=0
note_off channel=0 note=90 velocity=33 time=0
note_off channel=0 note=90 velocity=89 time=0
note_off channel=0 note=92 velocity=77 time=0
note_off channel=0 note=93 velocity=89 time=0
note_on channel=0 note=84 velocity=93 time=0
note_on channel=0 note=54 velocity=93 time=0
note_on channel=0 note=92 velocity=89 time=0
note_on channel=0 note=42 velocity=77 time=18
note_on channel=0 note=80 velocity=93 time=0
note_on channel=0 note=81 velocity=97 time=482
note_on channel=0 note=93 velocity=89 time=0
note_off channel=0 note=92 velocity=29 time=700
note_on channel=0 note=92 velocity=97 time=0
note_off channel=0 note=42 velocity=77 time=18
note_off channel=0 note=80 velocity=93 time=0
note_on channel=0 note=42 velocity=73 time=0
note_on channel=0 note=80 velocity=85 time=0
note_on channel=0 note=52 velocity=73 time=0
note_off channel=0 note=84 velocity=93 time=22
note_on channel=0 note=84 velocity=57 time=0
note_off channel=0 note=81 velocity=105 time=18
note_on channel=0 note=81 velocity=57 time=0
note_off channel=0 note=46 velocity=97 time=82
note_off channel=0 note=42 velocity=73 time=200
note_off channel=0 note=54 velocity=93 time=0
note_off channel=0 note=92 velocity=89 time=0
note_off channel=0 note=81 velocity=97 time=60
note_off channel=0 note=44 velocity=69 time=700
note_off channel=0 note=48 velocity=73 time=60
note_off channel=0 note=52 velocity=73 time=122
note_off channel=0 note=99 velocity=109 time=400
note_off channel=0 note=27 velocity=105 time=300
note_off channel=0 note=96 velocity=93 time=0
note_off channel=0 note=29 velocity=97 time=1178
note_off channel=0 note=87 velocity=61 time=82
note_on channel=0 note=80 velocity=69 time=60
note_on channel=0 note=73 velocity=53 time=18
note_on channel=0 note=61 velocity=49 time=22
note_on channel=0 note=53 velocity=49 time=0
note_off channel=0 note=81 velocity=57 time=78
note_off channel=0 note=84 velocity=57 time=0
note_off channel=0 note=92 velocity=97 time=0
note_on channel=0 note=56 velocity=61 time=364
note_off channel=0 note=87 velocity=73 time=60
note_off channel=0 note=61 velocity=49 time=278
note_on channel=0 note=61 velocity=49 time=0
note_off channel=0 note=83 velocity=89 time=22
note_off channel=0 note=50 velocity=93 time=18
note_off channel=0 note=89 velocity=93 time=0
note_off channel=0 note=41 velocity=77 time=22
note_off channel=0 note=82 velocity=69 time=0
note_off channel=0 note=56 velocity=61 time=200
note_on channel=0 note=56 velocity=57 time=0
note_on channel=0 note=77 velocity=85 time=0
note_off channel=0 note=53 velocity=49 time=18
note_on channel=0 note=53 velocity=53 time=0
note_on channel=0 note=68 velocity=73 time=40
note_off channel=0 note=87 velocity=85 time=18
note_off channel=0 note=37 velocity=89 time=22
note_off channel=0 note=73 velocity=53 time=300
note_on channel=0 note=73 velocity=85 time=0
note_off channel=0 note=61 velocity=49 time=18
note_off channel=0 note=80 velocity=85 time=0
note_on channel=0 note=61 velocity=61 time=0
note_on channel=0 note=80 velocity=73 time=0
note_off channel=0 note=53 velocity=53 time=18
note_off channel=0 note=56 velocity=57 time=0
note_off channel=0 note=87 velocity=89 time=22
note_off channel=0 note=91 velocity=85 time=0
note_off channel=0 note=68 velocity=73 time=18
note_on channel=0 note=56 velocity=65 time=0
note_off channel=0 note=102 velocity=97 time=382
note_off channel=0 note=45 velocity=97 time=18
note_on channel=0 note=76 velocity=77 time=82
note_on channel=0 note=40 velocity=57 time=18
note_on channel=0 note=72 velocity=89 time=260
note_off channel=0 note=40 velocity=57 time=40
note_off channel=0 note=56 velocity=65 time=0
note_off channel=0 note=61 velocity=61 time=0
note_off channel=0 note=77 velocity=85 time=0
note_off channel=0 note=80 velocity=69 time=0
note_on channel=0 note=84 velocity=77 time=0
note_off channel=0 note=73 velocity=85 time=22
note_on channel=0 note=41 velocity=49 time=0
note_off channel=0 note=72 velocity=89 time=18
note_off channel=0 note=76 velocity=77 time=0
note_off channel=0 note=88 velocity=97 time=160
note_off channel=0 note=85 velocity=81 time=22
note_off channel=0 note=82 velocity=85 time=36
note_on channel=0 note=57 velocity=65 time=40
note_on channel=0 note=60 velocity=45 time=40
note_on channel=0 note=87 velocity=85 time=100
note_off channel=0 note=57 velocity=65 time=82
note_off channel=0 note=84 velocity=77 time=0
note_off channel=0 note=60 velocity=45 time=18
note_on channel=0 note=49 velocity=65 time=160
note_on channel=0 note=85 velocity=13 time=0
note_on channel=0 note=87 velocity=93 time=0
note_off channel=0 note=49 velocity=65 time=222
note_on channel=0 note=85 velocity=73 time=18
note_on channel=0 note=59 velocity=73 time=18
note_on channel=0 note=57 velocity=53 time=22
note_on channel=0 note=61 velocity=73 time=0
note_off channel=0 note=51 velocity=9 time=40
note_off channel=0 note=57 velocity=53 time=100
note_off channel=0 note=59 velocity=73 time=18
note_on channel=0 note=90 velocity=89 time=60
note_off channel=0 note=61 velocity=73 time=40
note_off channel=0 note=85 velocity=13 time=40
note_on channel=0 note=93 velocity=89 time=160
note_off channel=0 note=90 velocity=89 time=40
note_on channel=0 note=42 velocity=65 time=18
note_on channel=0 note=87 velocity=77 time=182
note_on channel=0 note=61 velocity=89 time=278
note_on channel=0 note=90 velocity=93 time=0
note_on channel=0 note=57 velocity=73 time=22
note_on channel=0 note=51 velocity=65 time=0
note_on channel=0 note=58 velocity=69 time=18
note_off channel=0 note=42 velocity=65 time=160
note_off channel=0 note=93 velocity=89 time=0
note_off channel=0 note=57 velocity=73 time=100
note_off channel=0 note=58 velocity=69 time=22
note_off channel=0 note=61 velocity=89 time=18
note_on channel=0 note=78 velocity=53 time=0
note_off channel=0 note=78 velocity=53 time=100
note_on channel=0 note=87 velocity=89 time=160
note_off channel=0 note=90 velocity=93 time=200
note_on channel=0 note=51 velocity=73 time=40
note_on channel=0 note=80 velocity=81 time=22
note_on channel=0 note=54 velocity=69 time=18
note_on channel=0 note=81 velocity=69 time=240
note_off channel=0 note=51 velocity=65 time=318
note_on channel=0 note=56 velocity=61 time=0
note_on channel=0 note=63 velocity=65 time=0
note_on channel=0 note=82 velocity=85 time=0
note_off channel=0 note=56 velocity=61 time=22
note_on channel=0 note=56 velocity=45 time=0
note_on channel=0 note=51 velocity=69 time=0
note_on channel=0 note=85 velocity=81 time=278
note_on channel=0 note=92 velocity=81 time=260
note_off channel=0 note=51 velocity=73 time=282
note_off channel=0 note=54 velocity=69 time=0
note_off channel=0 note=56 velocity=45 time=0
note_off channel=0 note=63 velocity=65 time=0
note_off channel=0 note=80 velocity=73 time=0
note_off channel=0 note=81 velocity=69 time=0
note_off channel=0 note=85 velocity=73 time=0
note_off channel=0 note=92 velocity=81 time=0
note_on channel=0 note=27 velocity=81 time=18
note_on channel=0 note=87 velocity=81 time=40
note_off channel=0 note=52 velocity=73 time=60
note_on channel=0 note=39 velocity=85 time=300
note_on channel=0 note=85 velocity=81 time=400
note_on channel=0 note=55 velocity=69 time=22
note_on channel=0 note=82 velocity=81 time=0
note_on channel=0 note=66 velocity=69 time=18
note_on channel=0 note=61 velocity=53 time=22
note_on channel=0 note=54 velocity=45 time=36
note_on channel=0 note=81 velocity=85 time=340
note_on channel=0 note=68 velocity=85 time=22
note_on channel=0 note=39 velocity=65 time=0
note_off channel=0 note=27 velocity=81 time=18
note_off channel=0 note=55 velocity=69 time=0
note_off channel=0 note=61 velocity=53 time=0
note_off channel=0 note=66 velocity=69 time=0
note_off channel=0 note=85 velocity=81 time=0
note_off channel=0 note=39 velocity=85 time=60
note_off channel=0 note=68 velocity=85 time=22
note_on channel=0 note=82 velocity=77 time=260
note_on channel=0 note=66 velocity=77 time=18
note_on channel=0 note=52 velocity=57 time=40
note_on channel=0 note=61 velocity=53 time=18
note_on channel=0 note=73 velocity=29 time=40
note_on channel=0 note=57 velocity=13 time=60
note_on channel=0 note=75 velocity=85 time=182
note_on channel=0 note=39 velocity=61 time=0
note_off channel=0 note=66 velocity=77 time=18
note_on channel=0 note=66 velocity=49 time=0
note_on channel=0 note=63 velocity=65 time=282
note_on channel=0 note=69 velocity=73 time=18
note_on channel=0 note=60 velocity=57 time=22
note_on channel=0 note=51 velocity=53 time=18
note_off channel=0 note=69 velocity=73 time=22
note_on channel=0 note=69 velocity=65 time=0
note_off channel=0 note=39 velocity=65 time=100
note_off channel=0 note=54 velocity=45 time=0
note_off channel=0 note=57 velocity=13 time=0
note_off channel=0 note=61 velocity=53 time=0
note_off channel=0 note=66 velocity=49 time=0
note_off channel=0 note=73 velocity=29 time=0
note_off channel=0 note=75 velocity=85 time=0
note_off channel=0 note=81 velocity=85 time=0
note_off channel=0 note=82 velocity=85 time=0
note_on channel=0 note=56 velocity=57 time=200
note_on channel=0 note=72 velocity=93 time=0
note_off channel=0 note=39 velocity=61 time=200
note_off channel=0 note=56 velocity=57 time=0
note_off channel=0 note=60 velocity=57 time=0
note_off channel=0 note=63 velocity=65 time=0
note_off channel=0 note=69 velocity=65 time=0
note_off channel=0 note=72 velocity=93 time=78
note_on channel=0 note=63 velocity=93 time=40
note_on channel=0 note=69 velocity=77 time=0
note_on channel=0 note=75 velocity=61 time=18
note_on channel=0 note=66 velocity=69 time=0
note_on channel=0 note=72 velocity=61 time=22
note_on channel=0 note=60 velocity=53 time=18
note_on channel=0 note=32 velocity=69 time=282
note_on channel=0 note=68 velocity=97 time=0
note_on channel=0 note=80 velocity=61 time=40
note_off channel=0 note=80 velocity=81 time=236
note_on channel=0 note=80 velocity=85 time=0
note_off channel=0 note=72 velocity=61 time=22
note_on channel=0 note=72 velocity=81 time=0
note_off channel=0 note=80 velocity=61 time=18
note_on channel=0 note=78 velocity=49 time=0
note_on channel=0 note=80 velocity=93 time=0
note_on channel=0 note=44 velocity=65 time=22
note_on channel=0 note=77 velocity=41 time=18
note_off channel=0 note=32 velocity=69 time=218
note_on channel=0 note=32 velocity=65 time=0
note_on channel=0 note=87 velocity=93 time=22
note_on channel=0 note=87 velocity=97 time=300
note_off channel=0 note=63 velocity=93 time=340
note_on channel=0 note=63 velocity=73 time=0
note_on channel=0 note=51 velocity=69 time=0
note_off channel=0 note=60 velocity=53 time=18
note_off channel=0 note=69 velocity=77 time=0
note_off channel=0 note=75 velocity=61 time=0
note_on channel=0 note=60 velocity=65 time=0
note_on channel=0 note=69 velocity=61 time=0
note_on channel=0 note=75 velocity=97 time=0
note_off channel=0 note=80 velocity=85 time=260
note_on channel=0 note=80 velocity=77 time=0
note_off channel=0 note=68 velocity=97 time=240
note_on channel=0 note=68 velocity=29 time=0
note_off channel=0 note=51 velocity=69 time=60
note_on channel=0 note=51 velocity=57 time=0
note_off channel=0 note=78 velocity=49 time=22
note_on channel=0 note=78 velocity=77 time=0
note_off channel=0 note=63 velocity=73 time=460
note_off channel=0 note=66 velocity=69 time=0
note_on channel=0 note=84 velocity=77 time=0
note_on channel=0 note=63 velocity=53 time=0
note_on channel=0 note=66 velocity=61 time=0
note_off channel=0 note=51 velocity=53 time=18
note_off channel=0 note=72 velocity=81 time=0
note_on channel=0 note=72 velocity=49 time=0
note_on channel=0 note=51 velocity=53 time=0
note_off channel=0 note=60 velocity=65 time=60
note_off channel=0 note=68 velocity=29 time=0
note_off channel=0 note=69 velocity=61 time=0
note_off channel=0 note=77 velocity=41 time=0
note_off channel=0 note=78 velocity=77 time=0
note_off channel=0 note=80 velocity=93 time=0
note_off channel=0 note=80 velocity=77 time=0
note_off channel=0 note=87 velocity=85 time=0
note_off channel=0 note=87 velocity=93 time=0
note_off channel=0 note=41 velocity=49 time=64
note_off channel=0 note=72 velocity=49 time=60
note_off channel=0 note=84 velocity=77 time=0
note_on channel=0 note=63 velocity=69 time=178
note_on channel=0 note=60 velocity=61 time=40
note_on channel=0 note=78 velocity=81 time=22
note_on channel=0 note=72 velocity=49 time=36
note_off channel=0 note=72 velocity=49 time=300
note_on channel=0 note=72 velocity=81 time=0
note_off channel=0 note=63 velocity=53 time=22
note_on channel=0 note=63 velocity=73 time=0
note_off channel=0 note=51 velocity=69 time=18
note_off channel=0 note=66 velocity=61 time=0
note_on channel=0 note=66 velocity=65 time=0
note_on channel=0 note=51 velocity=65 time=0
note_off channel=0 note=72 velocity=81 time=240
note_on channel=0 note=72 velocity=81 time=0
note_on channel=0 note=44 velocity=57 time=40
note_on channel=0 note=56 velocity=73 time=18
note_on channel=0 note=73 velocity=89 time=240
note_off channel=0 note=51 velocity=57 time=18
note_on channel=0 note=61 velocity=73 time=0
note_on channel=0 note=51 velocity=65 time=0
note_off channel=0 note=66 velocity=65 time=40
note_on channel=0 note=66 velocity=33 time=0
note_off channel=0 note=93 velocity=89 time=140
note_off channel=0 note=73 velocity=89 time=140
note_on channel=0 note=73 velocity=89 time=0
note_on channel=0 note=46 velocity=69 time=0
note_on channel=0 note=67 velocity=65 time=40
note_off channel=0 note=87 velocity=77 time=60
note_off channel=0 note=51 velocity=53 time=140
note_off channel=0 note=56 velocity=73 time=0
note_off channel=0 note=60 velocity=61 time=0
note_off channel=0 note=63 velocity=69 time=0
note_off channel=0 note=66 velocity=33 time=0
note_off channel=0 note=72 velocity=81 time=0
note_off channel=0 note=75 velocity=97 time=0
note_off channel=0 note=78 velocity=81 time=0
note_off channel=0 note=67 velocity=65 time=18
note_on channel=0 note=72 velocity=81 time=60
note_on channel=0 note=63 velocity=77 time=22
note_on channel=0 note=51 velocity=65 time=18
note_off channel=0 note=73 velocity=89 time=40
note_off channel=0 note=72 velocity=81 time=40
note_off channel=0 note=61 velocity=73 time=36
note_on channel=0 note=72 velocity=81 time=182
note_on channel=0 note=69 velocity=81 time=0
note_on channel=0 note=41 velocity=53 time=100
note_off channel=0 note=87 velocity=89 time=218
note_on channel=0 note=68 velocity=81 time=22
note_on channel=0 note=71 velocity=93 time=0
note_on channel=0 note=60 velocity=77 time=18
note_off channel=0 note=63 velocity=73 time=60
note_on channel=0 note=63 velocity=9 time=0
note_on channel=0 note=44 velocity=61 time=0
note_off channel=0 note=72 velocity=81 time=200
note_on channel=0 note=72 velocity=93 time=0
note_off channel=0 note=63 velocity=77 time=22
note_off channel=0 note=68 velocity=81 time=0
note_on channel=0 note=68 velocity=93 time=0
note_on channel=0 note=63 velocity=69 time=0
note_off channel=0 note=52 velocity=57 time=18
note_on channel=0 note=52 velocity=73 time=0
note_on channel=0 note=61 velocity=61 time=60
note_on channel=0 note=73 velocity=85 time=264
note_on channel=0 note=41 velocity=65 time=0
note_off channel=0 note=71 velocity=93 time=18
note_on channel=0 note=71 velocity=85 time=0
note_on channel=0 note=85 velocity=97 time=418
note_off channel=0 note=44 velocity=65 time=22
note_off channel=0 note=51 velocity=65 time=0
note_off channel=0 note=60 velocity=77 time=0
note_off channel=0 note=61 velocity=61 time=0
note_off channel=0 note=63 velocity=9 time=0
note_off channel=0 note=68 velocity=93 time=0
note_off channel=0 note=69 velocity=81 time=0
note_off channel=0 note=71 velocity=85 time=0
note_off channel=0 note=72 velocity=93 time=0
note_off channel=0 note=73 velocity=85 time=0
note_off channel=0 note=85 velocity=81 time=0
note_on channel=0 note=71 velocity=89 time=0
note_on channel=0 note=43 velocity=77 time=0
note_on channel=0 note=70 velocity=77 time=460
note_on channel=0 note=55 velocity=69 time=18
note_on channel=0 note=51 velocity=65 time=0
note_on channel=0 note=67 velocity=69 time=0
note_off channel=0 note=87 velocity=81 time=140
note_off channel=0 note=71 velocity=89 time=140
note_on channel=0 note=71 velocity=85 time=0
note_on channel=0 note=59 velocity=85 time=18
note_on channel=0 note=75 velocity=81 time=22
note_off channel=0 note=51 velocity=65 time=18
note_on channel=0 note=51 velocity=77 time=0
note_on channel=0 note=87 velocity=93 time=282
note_off channel=0 note=75 velocity=81 time=60
note_on channel=0 note=75 velocity=85 time=0
note_on channel=0 note=78 velocity=25 time=18
note_on channel=0 note=38 velocity=1 time=40
note_off channel=0 note=82 velocity=81 time=182
note_on channel=0 note=39 velocity=89 time=40
note_on channel=0 note=87 velocity=81 time=218
note_off channel=0 note=71 velocity=85 time=60
note_on channel=0 note=71 velocity=69 time=0
note_on channel=0 note=79 velocity=57 time=22
note_on channel=0 note=27 velocity=65 time=178
note_on channel=0 note=90 velocity=85 time=40
note_on channel=0 note=82 velocity=85 time=18
note_off channel=0 note=82 velocity=77 time=222
note_on channel=0 note=87 velocity=93 time=118
note_off channel=0 note=71 velocity=69 time=22
note_on channel=0 note=71 velocity=41 time=0
note_on channel=0 note=82 velocity=69 time=18
note_off channel=0 note=55 velocity=69 time=18
note_on channel=0 note=55 velocity=49 time=0
note_on channel=0 note=66 velocity=57 time=0
note_on channel=0 note=63 velocity=49 time=22
note_on channel=0 note=62 velocity=41 time=40
note_on channel=0 note=67 velocity=41 time=18
note_on channel=0 note=87 velocity=93 time=160
note_on channel=0 note=82 velocity=69 time=60
note_off channel=0 note=51 velocity=65 time=300
note_on channel=0 note=51 velocity=77 time=0
note_on channel=0 note=87 velocity=77 time=64
note_off channel=0 note=55 velocity=49 time=278
note_off channel=0 note=82 velocity=85 time=0
note_on channel=0 note=55 velocity=69 time=0
note_on channel=0 note=85 velocity=97 time=0
note_on channel=0 note=82 velocity=93 time=0
note_off channel=0 note=62 velocity=41 time=22
note_on channel=0 note=50 velocity=73 time=0
note_off channel=0 note=51 velocity=65 time=36
note_on channel=0 note=51 velocity=65 time=0
note_off channel=0 note=82 velocity=69 time=322
note_on channel=0 note=82 velocity=101 time=0
note_on channel=0 note=76 velocity=93 time=18
note_on channel=0 note=83 velocity=69 time=22
note_off channel=0 note=83 velocity=69 time=360
note_on channel=0 note=83 velocity=93 time=0
note_off channel=0 note=78 velocity=25 time=18
note_on channel=0 note=78 velocity=85 time=0
note_on channel=0 note=37 velocity=57 time=22
note_off channel=0 note=70 velocity=77 time=18
note_on channel=0 note=70 velocity=73 time=0
note_off channel=0 note=39 velocity=89 time=18
note_off channel=0 note=41 velocity=53 time=0
note_off channel=0 note=52 velocity=73 time=0
note_off channel=0 note=55 velocity=69 time=0
note_off channel=0 note=59 velocity=85 time=0
note_off channel=0 note=63 velocity=69 time=0
note_off channel=0 note=66 velocity=57 time=0
note_off channel=0 note=67 velocity=69 time=0
note_off channel=0 note=70 velocity=73 time=0
note_off channel=0 note=71 velocity=41 time=0
note_off channel=0 note=78 velocity=85 time=0
note_off channel=0 note=79 velocity=57 time=0
note_off channel=0 note=87 velocity=93 time=0
note_off channel=0 note=87 velocity=97 time=0
note_off channel=0 note=87 velocity=93 time=0
note_on channel=0 note=79 velocity=61 time=0
note_off channel=0 note=82 velocity=69 time=22
note_off channel=0 note=85 velocity=97 time=260
note_on channel=0 note=85 velocity=81 time=0
note_on channel=0 note=79 velocity=81 time=0
note_off channel=0 note=32 velocity=65 time=18
note_on channel=0 note=55 velocity=65 time=200
note_on channel=0 note=61 velocity=69 time=22
note_on channel=0 note=82 velocity=89 time=0
note_off channel=0 note=76 velocity=93 time=18
note_on channel=0 note=49 velocity=69 time=0
note_on channel=0 note=88 velocity=93 time=0
note_on channel=0 note=91 velocity=97 time=22
note_on channel=0 note=95 velocity=97 time=260
note_on channel=0 note=94 velocity=101 time=240
note_off channel=0 note=85 velocity=97 time=60
note_on channel=0 note=85 velocity=89 time=0
note_on channel=0 note=87 velocity=77 time=0
note_on channel=0 note=39 velocity=73 time=40
note_on channel=0 note=91 velocity=9 time=178
note_off channel=0 note=51 velocity=77 time=482
note_off channel=0 note=83 velocity=93 time=0
note_off channel=0 note=87 velocity=81 time=0
note_on channel=0 note=51 velocity=85 time=0
note_on channel=0 note=83 velocity=93 time=0
note_on channel=0 note=87 velocity=93 time=0
note_on channel=0 note=70 velocity=81 time=18
note_on channel=0 note=63 velocity=73 time=22
note_off channel=0 note=55 velocity=65 time=36
note_off channel=0 note=61 velocity=69 time=0
note_on channel=0 note=55 velocity=53 time=0
note_on channel=0 note=61 velocity=61 time=0
note_on channel=0 note=73 velocity=61 time=0
note_on channel=0 note=81 velocity=93 time=300
note_off channel=0 note=82 velocity=93 time=22
note_off channel=0 note=91 velocity=97 time=0
note_on channel=0 note=82 velocity=93 time=0
note_on channel=0 note=91 velocity=89 time=0
note_off channel=0 note=85 velocity=81 time=40
note_on channel=0 note=85 velocity=49 time=0
note_on channel=0 note=37 velocity=65 time=18
note_on channel=0 note=28 velocity=57 time=60
note_off channel=0 note=49 velocity=69 time=200
note_off channel=0 note=85 velocity=89 time=0
note_on channel=0 note=39 velocity=101 time=0
note_on channel=0 note=85 velocity=97 time=0
note_off channel=0 note=82 velocity=101 time=22
note_on channel=0 note=81 velocity=93 time=0
note_on channel=0 note=82 velocity=65 time=0
note_off channel=0 note=79 velocity=61 time=78
note_on channel=0 note=79 velocity=57 time=0
note_on channel=0 note=49 velocity=37 time=100
note_on channel=0 note=42 velocity=25 time=82
note_off channel=0 note=55 velocity=53 time=178
note_off channel=0 note=91 velocity=9 time=0
note_on channel=0 note=55 velocity=61 time=0
note_on channel=0 note=91 velocity=93 time=0
note_off channel=0 note=61 velocity=61 time=22
note_off channel=0 note=82 velocity=89 time=0
note_off channel=0 note=85 velocity=49 time=0
note_on channel=0 note=61 velocity=77 time=0
note_on channel=0 note=82 velocity=97 time=0
note_on channel=0 note=85 velocity=85 time=0
note_off channel=0 note=63 velocity=49 time=18
note_off channel=0 note=82 velocity=93 time=0
note_on channel=0 note=63 velocity=53 time=0
note_on channel=0 note=82 velocity=93 time=0
note_off channel=0 note=44 velocity=57 time=82
note_off channel=0 note=63 velocity=73 time=140
note_on channel=0 note=63 velocity=29 time=0
note_on channel=0 note=52 velocity=97 time=118
note_on channel=0 note=90 velocity=105 time=0
note_on channel=0 note=51 velocity=73 time=282
note_off channel=0 note=55 velocity=61 time=18
note_on channel=0 note=55 velocity=65 time=0
note_off channel=0 note=46 velocity=69 time=40
note_off channel=0 note=87 velocity=93 time=200
note_on channel=0 note=87 velocity=101 time=0
note_on channel=0 note=95 velocity=101 time=0
note_off channel=0 note=91 velocity=89 time=18
note_on channel=0 note=91 velocity=93 time=0
note_off channel=0 note=27 velocity=65 time=140
note_off channel=0 note=28 velocity=57 time=0
note_off channel=0 note=37 velocity=57 time=0
note_off channel=0 note=37 velocity=65 time=0
note_off channel=0 note=38 velocity=1 time=0
note_off channel=0 note=39 velocity=73 time=0
note_off channel=0 note=39 velocity=101 time=0
note_off channel=0 note=41 velocity=65 time=0
note_off channel=0 note=42 velocity=25 time=0
note_off channel=0 note=43 velocity=77 time=0
note_off channel=0 note=44 velocity=61 time=0
note_off channel=0 note=49 velocity=37 time=0
note_off channel=0 note=50 velocity=73 time=0
note_off channel=0 note=51 velocity=77 time=0
note_off channel=0 note=51 velocity=65 time=0
note_off channel=0 note=51 velocity=85 time=0
note_off channel=0 note=51 velocity=73 time=0
note_off channel=0 note=52 velocity=97 time=0
note_off channel=0 note=55 velocity=65 time=0
note_off channel=0 note=61 velocity=77 time=0
note_off channel=0 note=63 velocity=53 time=0
note_off channel=0 note=63 velocity=29 time=0
note_off channel=0 note=67 velocity=41 time=0
note_off channel=0 note=70 velocity=81 time=0
note_off channel=0 note=73 velocity=61 time=0
note_off channel=0 note=75 velocity=85 time=0
note_off channel=0 note=79 velocity=81 time=0
note_off channel=0 note=79 velocity=57 time=0
note_off channel=0 note=81 velocity=93 time=0
note_off channel=0 note=81 velocity=93 time=0
note_off channel=0 note=82 velocity=65 time=0
note_off channel=0 note=82 velocity=97 time=0
note_off channel=0 note=82 velocity=93 time=0
note_off channel=0 note=83 velocity=93 time=0
note_off channel=0 note=85 velocity=97 time=0
note_off channel=0 note=85 velocity=85 time=0
note_off channel=0 note=87 velocity=93 time=0
note_off channel=0 note=87 velocity=77 time=0
note_off channel=0 note=87 velocity=77 time=0
note_off channel=0 note=87 velocity=93 time=0
note_off channel=0 note=87 velocity=101 time=0
note_off channel=0 note=88 velocity=93 time=0
note_off channel=0 note=90 velocity=85 time=0
note_off channel=0 note=90 velocity=105 time=0
note_off channel=0 note=91 velocity=93 time=0
note_off channel=0 note=91 velocity=93 time=0
note_off channel=0 note=94 velocity=101 time=0
note_off channel=0 note=95 velocity=97 time=0
note_off channel=0 note=95 velocity=101 time=0
<meta message end_of_track time=4>
/home/ghales/git/tg-server/output/preprocessed/baseline/pianoroll_rnn_nade/rnn-nade_attn/2021-09-07_182637_1.mid
Length: 128005 ticks = 128.005 beats = 32.00125 bars
Tracks: 1
Time Signature: <meta message time_signature numerator=4 denominator=4 clocks_per_click=24 notated_32nd_notes_per_beat=8 time=0>
Track 0: 
ticks_per_beat: 1000
<meta message set_tempo tempo=1000000 time=0>
<meta message time_signature numerator=4 denominator=4 clocks_per_click=24 notated_32nd_notes_per_beat=8 time=0>
<meta message set_tempo tempo=1000000 time=0>
program_change channel=0 program=0 time=0
<meta message text text='' time=5>
note_on channel=0 note=77 velocity=100 time=495
note_on channel=0 note=81 velocity=100 time=0
note_on channel=0 note=76 velocity=100 time=500
note_on channel=0 note=60 velocity=100 time=0
note_on channel=0 note=67 velocity=100 time=0
note_on channel=0 note=48 velocity=100 time=0
note_off channel=0 note=76 velocity=100 time=250
note_off channel=0 note=60 velocity=100 time=250
note_off channel=0 note=77 velocity=100 time=0
note_off channel=0 note=81 velocity=100 time=0
note_on channel=0 note=76 velocity=100 time=0
note_on channel=0 note=79 velocity=100 time=0
note_on channel=0 note=62 velocity=100 time=0
note_off channel=0 note=67 velocity=100 time=250
note_off channel=0 note=76 velocity=100 time=0
note_off channel=0 note=79 velocity=100 time=0
note_on channel=0 note=74 velocity=100 time=0
note_on channel=0 note=77 velocity=100 time=0
note_off channel=0 note=48 velocity=100 time=250
note_off channel=0 note=62 velocity=100 time=0
note_off channel=0 note=74 velocity=100 time=0
note_off channel=0 note=77 velocity=100 time=0
note_on channel=0 note=60 velocity=100 time=0
note_on channel=0 note=67 velocity=100 time=0
note_on channel=0 note=76 velocity=100 time=0
note_on channel=0 note=79 velocity=100 time=0
note_on channel=0 note=72 velocity=100 time=0
note_on channel=0 note=64 velocity=100 time=0
note_off channel=0 note=60 velocity=100 time=250
note_off channel=0 note=67 velocity=100 time=0
note_off channel=0 note=76 velocity=100 time=250
note_off channel=0 note=79 velocity=100 time=0
note_off channel=0 note=72 velocity=100 time=250
note_on channel=0 note=60 velocity=100 time=0
note_off channel=0 note=60 velocity=100 time=250
note_off channel=0 note=64 velocity=100 time=0
note_on channel=0 note=59 velocity=100 time=0
note_on channel=0 note=62 velocity=100 time=0
note_on channel=0 note=74 velocity=100 time=0
note_on channel=0 note=64 velocity=100 time=250
note_off channel=0 note=64 velocity=100 time=250
note_on channel=0 note=67 velocity=100 time=250
note_off channel=0 note=59 velocity=100 time=250
note_off channel=0 note=62 velocity=100 time=0
note_off channel=0 note=74 velocity=100 time=0
note_on channel=0 note=48 velocity=100 time=0
note_on channel=0 note=72 velocity=100 time=0
note_on channel=0 note=79 velocity=100 time=0
note_on channel=0 note=60 velocity=100 time=0
note_on channel=0 note=58 velocity=100 time=0
note_on channel=0 note=76 velocity=100 time=0
note_off channel=0 note=48 velocity=100 time=250
note_off channel=0 note=72 velocity=100 time=250
note_off channel=0 note=79 velocity=100 time=0
note_on channel=0 note=77 velocity=100 time=0
note_on channel=0 note=81 velocity=100 time=0
note_off channel=0 note=60 velocity=100 time=250
note_off channel=0 note=58 velocity=100 time=250
note_off channel=0 note=67 velocity=100 time=0
note_off channel=0 note=76 velocity=100 time=0
note_on channel=0 note=65 velocity=100 time=0
note_on channel=0 note=57 velocity=100 time=0
note_on channel=0 note=60 velocity=100 time=0
note_off channel=0 note=65 velocity=100 time=500
note_off channel=0 note=77 velocity=100 time=0
note_off channel=0 note=81 velocity=100 time=0
note_on channel=0 note=76 velocity=100 time=0
note_on channel=0 note=79 velocity=100 time=0
note_on channel=0 note=67 velocity=100 time=0
note_off channel=0 note=76 velocity=100 time=250
note_off channel=0 note=79 velocity=100 time=0
note_on channel=0 note=74 velocity=100 time=0
note_on channel=0 note=77 velocity=100 time=0
note_off channel=0 note=57 velocity=100 time=250
note_off channel=0 note=60 velocity=100 time=0
note_off channel=0 note=67 velocity=100 time=0
note_off channel=0 note=74 velocity=100 time=0
note_on channel=0 note=55 velocity=100 time=0
note_on channel=0 note=65 velocity=100 time=0
note_on channel=0 note=48 velocity=100 time=0
note_on channel=0 note=69 velocity=100 time=0
note_on channel=0 note=72 velocity=100 time=0
note_on channel=0 note=76 velocity=100 time=0
note_on channel=0 note=79 velocity=100 time=0
note_off channel=0 note=55 velocity=100 time=500
note_on channel=0 note=53 velocity=100 time=0
note_off channel=0 note=65 velocity=100 time=250
note_off channel=0 note=48 velocity=100 time=250
note_off channel=0 note=53 velocity=100 time=0
note_off channel=0 note=69 velocity=100 time=0
note_off channel=0 note=72 velocity=100 time=0
note_off channel=0 note=76 velocity=100 time=0
note_off channel=0 note=77 velocity=100 time=0
note_off channel=0 note=79 velocity=100 time=0
note_on channel=0 note=74 velocity=100 time=0
note_on channel=0 note=58 velocity=100 time=0
note_on channel=0 note=65 velocity=100 time=0
note_on channel=0 note=70 velocity=100 time=0
note_off channel=0 note=74 velocity=100 time=750
note_off channel=0 note=58 velocity=100 time=250
note_off channel=0 note=65 velocity=100 time=0
note_off channel=0 note=70 velocity=100 time=0
note_on channel=0 note=62 velocity=100 time=0
note_on channel=0 note=74 velocity=100 time=0
note_on channel=0 note=54 velocity=100 time=0
note_on channel=0 note=57 velocity=100 time=0
note_on channel=0 note=69 velocity=100 time=0
note_off channel=0 note=62 velocity=100 time=750
note_off channel=0 note=74 velocity=100 time=0
note_off channel=0 note=54 velocity=100 time=250
note_off channel=0 note=57 velocity=100 time=0
note_off channel=0 note=69 velocity=100 time=0
note_on channel=0 note=55 velocity=100 time=0
note_on channel=0 note=67 velocity=100 time=0
note_on channel=0 note=59 velocity=100 time=0
note_on channel=0 note=62 velocity=100 time=0
note_on channel=0 note=74 velocity=100 time=0
note_off channel=0 note=55 velocity=100 time=500
note_on channel=0 note=53 velocity=100 time=0
note_off channel=0 note=67 velocity=100 time=250
note_off channel=0 note=53 velocity=100 time=250
note_off channel=0 note=59 velocity=100 time=0
note_off channel=0 note=62 velocity=100 time=0
note_off channel=0 note=74 velocity=100 time=0
note_on channel=0 note=64 velocity=100 time=0
note_on channel=0 note=67 velocity=100 time=0
note_on channel=0 note=72 velocity=100 time=0
note_on channel=0 note=52 velocity=100 time=0
note_on channel=0 note=60 velocity=100 time=0
note_off channel=0 note=64 velocity=100 time=500
note_off channel=0 note=67 velocity=100 time=0
note_on channel=0 note=65 velocity=100 time=0
note_off channel=0 note=65 velocity=100 time=250
note_off channel=0 note=72 velocity=100 time=0
note_on channel=0 note=67 velocity=100 time=0
note_off channel=0 note=52 velocity=100 time=250
note_off channel=0 note=60 velocity=100 time=0
note_off channel=0 note=67 velocity=100 time=0
note_on channel=0 note=65 velocity=100 time=0
note_on channel=0 note=53 velocity=100 time=0
note_on channel=0 note=69 velocity=100 time=0
note_on channel=0 note=72 velocity=100 time=0
note_off channel=0 note=65 velocity=100 time=500
note_on channel=0 note=64 velocity=100 time=0
note_off channel=0 note=53 velocity=100 time=500
note_off channel=0 note=64 velocity=100 time=0
note_off channel=0 note=69 velocity=100 time=0
note_off channel=0 note=72 velocity=100 time=0
note_on channel=0 note=67 velocity=100 time=0
note_on channel=0 note=55 velocity=100 time=0
note_on channel=0 note=62 velocity=100 time=0
note_on channel=0 note=71 velocity=100 time=0
note_off channel=0 note=67 velocity=100 time=750
note_off channel=0 note=55 velocity=100 time=250
note_off channel=0 note=62 velocity=100 time=0
note_off channel=0 note=71 velocity=100 time=0
note_on channel=0 note=48 velocity=100 time=0
note_on channel=0 note=64 velocity=100 time=0
note_on channel=0 note=67 velocity=100 time=0
note_on channel=0 note=72 velocity=100 time=0
note_off channel=0 note=48 velocity=100 time=3000
note_off channel=0 note=64 velocity=100 time=0
note_off channel=0 note=67 velocity=100 time=0
note_off channel=0 note=72 velocity=100 time=0
note_on channel=0 note=72 velocity=100 time=4000
note_on channel=0 note=59 velocity=100 time=0
note_on channel=0 note=67 velocity=100 time=0
note_on channel=0 note=71 velocity=100 time=0
note_on channel=0 note=76 velocity=100 time=0
note_on channel=0 note=79 velocity=100 time=0
note_on channel=0 note=74 velocity=100 time=0
note_on channel=0 note=43 velocity=100 time=0
note_on channel=0 note=48 velocity=100 time=0
note_off channel=0 note=72 velocity=100 time=250
note_off channel=0 note=59 velocity=100 time=250
note_off channel=0 note=67 velocity=100 time=0
note_off channel=0 note=71 velocity=100 time=0
note_off channel=0 note=76 velocity=100 time=0
note_off channel=0 note=79 velocity=100 time=0
note_on channel=0 note=57 velocity=100 time=0
note_on channel=0 note=66 velocity=100 time=0
note_on channel=0 note=72 velocity=100 time=0
note_on channel=0 note=77 velocity=100 time=0
note_on channel=0 note=81 velocity=100 time=0
note_off channel=0 note=74 velocity=100 time=250
note_off channel=0 note=43 velocity=100 time=250
note_off channel=0 note=48 velocity=100 time=0
note_off channel=0 note=57 velocity=100 time=0
note_off channel=0 note=66 velocity=100 time=0
note_off channel=0 note=72 velocity=100 time=0
note_on channel=0 note=55 velocity=100 time=0
note_on channel=0 note=59 velocity=100 time=0
note_on channel=0 note=71 velocity=100 time=0
note_on channel=0 note=74 velocity=100 time=0
note_on channel=0 note=67 velocity=100 time=0
note_off channel=0 note=55 velocity=100 time=500
note_off channel=0 note=59 velocity=100 time=0
note_off channel=0 note=71 velocity=100 time=0
note_off channel=0 note=74 velocity=100 time=0
note_off channel=0 note=77 velocity=100 time=0
note_off channel=0 note=81 velocity=100 time=0
note_on channel=0 note=76 velocity=100 time=0
note_on channel=0 note=79 velocity=100 time=0
note_on channel=0 note=54 velocity=100 time=0
note_on channel=0 note=57 velocity=100 time=0
note_on channel=0 note=69 velocity=100 time=0
note_off channel=0 note=67 velocity=100 time=250
note_off channel=0 note=76 velocity=100 time=0
note_off channel=0 note=79 velocity=100 time=0
note_on channel=0 note=77 velocity=100 time=0
note_on channel=0 note=74 velocity=100 time=0
note_off channel=0 note=54 velocity=100 time=250
note_off channel=0 note=57 velocity=100 time=0
note_off channel=0 note=69 velocity=100 time=0
note_off channel=0 note=77 velocity=100 time=0
note_on channel=0 note=55 velocity=100 time=0
note_on channel=0 note=59 velocity=100 time=0
note_on channel=0 note=76 velocity=100 time=0
note_on channel=0 note=79 velocity=100 time=0
note_on channel=0 note=67 velocity=100 time=0
note_off channel=0 note=55 velocity=100 time=500
note_off channel=0 note=59 velocity=100 time=0
note_off channel=0 note=76 velocity=100 time=0
note_off channel=0 note=79 velocity=100 time=0
note_on channel=0 note=57 velocity=100 time=0
note_on channel=0 note=66 velocity=100 time=0
note_off channel=0 note=74 velocity=100 time=250
note_on channel=0 note=60 velocity=100 time=0
note_off channel=0 note=57 velocity=100 time=250
note_off channel=0 note=60 velocity=100 time=0
note_off channel=0 note=66 velocity=100 time=0
note_off channel=0 note=67 velocity=100 time=0
note_on channel=0 note=59 velocity=100 time=0
note_on channel=0 note=62 velocity=100 time=0
note_on channel=0 note=74 velocity=100 time=0
note_on channel=0 note=64 velocity=100 time=250
note_off channel=0 note=59 velocity=100 time=250
note_off channel=0 note=64 velocity=100 time=0
note_on channel=0 note=55 velocity=100 time=0
note_on channel=0 note=67 velocity=100 time=250
note_off channel=0 note=55 velocity=100 time=250
note_off channel=0 note=62 velocity=100 time=0
note_off channel=0 note=74 velocity=100 time=0
note_on channel=0 note=48 velocity=100 time=0
note_on channel=0 note=72 velocity=100 time=0
note_on channel=0 note=79 velocity=100 time=0
note_on channel=0 note=60 velocity=100 time=0
note_on channel=0 note=76 velocity=100 time=0
note_off channel=0 note=48 velocity=100 time=250
note_off channel=0 note=72 velocity=100 time=250
note_off channel=0 note=79 velocity=100 time=0
note_on channel=0 note=58 velocity=100 time=0
note_on channel=0 note=77 velocity=100 time=0
note_on channel=0 note=81 velocity=100 time=0
note_off channel=0 note=58 velocity=100 time=250
note_off channel=0 note=60 velocity=100 time=0
note_off channel=0 note=67 velocity=100 time=0
note_off channel=0 note=76 velocity=100 time=250
note_on channel=0 note=72 velocity=100 time=0
note_on channel=0 note=58 velocity=100 time=0
note_on channel=0 note=60 velocity=100 time=0
note_on channel=0 note=67 velocity=100 time=0
note_on channel=0 note=53 velocity=100 time=0
note_off channel=0 note=77 velocity=100 time=500
note_off channel=0 note=81 velocity=100 time=0
note_on channel=0 note=76 velocity=100 time=0
note_on channel=0 note=79 velocity=100 time=0
note_off channel=0 note=72 velocity=100 time=250
note_off channel=0 note=76 velocity=100 time=0
note_off channel=0 note=79 velocity=100 time=0
note_on channel=0 note=74 velocity=100 time=0
note_on channel=0 note=77 velocity=100 time=0
note_off channel=0 note=58 velocity=100 time=250
note_off channel=0 note=60 velocity=100 time=0
note_off channel=0 note=67 velocity=100 time=0
note_off channel=0 note=74 velocity=100 time=0
note_off channel=0 note=77 velocity=100 time=0
note_on channel=0 note=57 velocity=100 time=0
note_on channel=0 note=48 velocity=100 time=0
note_on channel=0 note=76 velocity=100 time=0
note_on channel=0 note=79 velocity=100 time=0
note_on channel=0 note=72 velocity=100 time=0
note_on channel=0 note=65 velocity=100 time=0
note_off channel=0 note=57 velocity=100 time=500
note_on channel=0 note=55 velocity=100 time=0
note_on channel=0 note=64 velocity=100 time=0
note_off channel=0 note=53 velocity=100 time=250
note_off channel=0 note=48 velocity=100 time=250
note_off channel=0 note=55 velocity=100 time=0
note_off channel=0 note=64 velocity=100 time=0
note_off channel=0 note=76 velocity=100 time=0
note_off channel=0 note=79 velocity=100 time=0
note_on channel=0 note=53 velocity=100 time=0
note_on channel=0 note=57 velocity=100 time=0
note_on channel=0 note=69 velocity=100 time=0
note_off channel=0 note=72 velocity=100 time=750
note_off channel=0 note=53 velocity=100 time=250
note_off channel=0 note=57 velocity=100 time=0
note_off channel=0 note=65 velocity=100 time=0
note_off channel=0 note=69 velocity=100 time=0
note_on channel=0 note=52 velocity=100 time=0
note_on channel=0 note=67 velocity=100 time=0
note_on channel=0 note=64 velocity=100 time=0
note_on channel=0 note=72 velocity=100 time=0
note_off channel=0 note=52 velocity=100 time=500
note_on channel=0 note=53 velocity=100 time=0
note_off channel=0 note=67 velocity=100 time=250
note_off channel=0 note=53 velocity=100 time=250
note_off channel=0 note=64 velocity=100 time=0
note_off channel=0 note=72 velocity=100 time=0
note_on channel=0 note=67 velocity=100 time=0
note_on channel=0 note=55 velocity=100 time=0
note_on channel=0 note=62 velocity=100 time=0
note_on channel=0 note=71 velocity=100 time=0
note_off channel=0 note=67 velocity=100 time=500
note_on channel=0 note=65 velocity=100 time=0
note_off channel=0 note=55 velocity=100 time=500
note_off channel=0 note=62 velocity=100 time=0
note_off channel=0 note=65 velocity=100 time=0
note_off channel=0 note=71 velocity=100 time=0
note_on channel=0 note=57 velocity=100 time=0
note_on channel=0 note=64 velocity=100 time=0
note_on channel=0 note=72 velocity=100 time=0
note_on channel=0 note=60 velocity=100 time=0
note_off channel=0 note=57 velocity=100 time=500
note_on channel=0 note=55 velocity=100 time=0
note_off channel=0 note=55 velocity=100 time=500
note_off channel=0 note=64 velocity=100 time=0
note_off channel=0 note=72 velocity=100 time=0
note_on channel=0 note=65 velocity=100 time=0
note_on channel=0 note=74 velocity=100 time=0
note_on channel=0 note=53 velocity=100 time=0
note_on channel=0 note=69 velocity=100 time=0
note_off channel=0 note=65 velocity=100 time=500
note_on channel=0 note=64 velocity=100 time=0
note_off channel=0 note=74 velocity=100 time=250
note_off channel=0 note=53 velocity=100 time=250
note_off channel=0 note=60 velocity=100 time=0
note_off channel=0 note=64 velocity=100 time=0
note_off channel=0 note=69 velocity=100 time=0
note_on channel=0 note=67 velocity=100 time=0
note_on channel=0 note=55 velocity=100 time=0
note_on channel=0 note=62 velocity=100 time=0
note_on channel=0 note=59 velocity=100 time=0
note_on channel=0 note=74 velocity=100 time=0
note_off channel=0 note=67 velocity=100 time=250
note_off channel=0 note=55 velocity=100 time=250
note_off channel=0 note=62 velocity=100 time=0
note_on channel=0 note=67 velocity=100 time=0
note_on channel=0 note=43 velocity=100 time=0
note_on channel=0 note=65 velocity=100 time=0
note_off channel=0 note=67 velocity=100 time=250
note_off channel=0 note=43 velocity=100 time=250
note_off channel=0 note=59 velocity=100 time=0
note_off channel=0 note=65 velocity=100 time=0
note_off channel=0 note=74 velocity=100 time=0
note_on channel=0 note=48 velocity=100 time=0
note_on channel=0 note=55 velocity=100 time=0
note_on channel=0 note=64 velocity=100 time=0
note_on channel=0 note=67 velocity=100 time=0
note_on channel=0 note=72 velocity=100 time=0
note_off channel=0 note=48 velocity=100 time=3000
note_off channel=0 note=55 velocity=100 time=0
note_off channel=0 note=64 velocity=100 time=0
note_off channel=0 note=67 velocity=100 time=0
note_off channel=0 note=72 velocity=100 time=0
note_on channel=0 note=79 velocity=100 time=4000
note_on channel=0 note=60 velocity=100 time=0
note_on channel=0 note=67 velocity=100 time=0
note_on channel=0 note=76 velocity=100 time=0
note_on channel=0 note=72 velocity=100 time=0
note_on channel=0 note=48 velocity=100 time=0
note_off channel=0 note=79 velocity=100 time=500
note_on channel=0 note=77 velocity=100 time=0
note_on channel=0 note=81 velocity=100 time=0
note_off channel=0 note=60 velocity=100 time=250
note_off channel=0 note=67 velocity=100 time=0
note_off channel=0 note=76 velocity=100 time=0
note_off channel=0 note=72 velocity=100 time=250
note_on channel=0 note=76 velocity=100 time=0
note_on channel=0 note=60 velocity=100 time=0
note_on channel=0 note=67 velocity=100 time=0
note_off channel=0 note=76 velocity=100 time=250
note_off channel=0 note=60 velocity=100 time=250
note_off channel=0 note=77 velocity=100 time=0
note_off channel=0 note=81 velocity=100 time=0
note_on channel=0 note=76 velocity=100 time=0
note_on channel=0 note=79 velocity=100 time=0
note_on channel=0 note=62 velocity=100 time=0
note_off channel=0 note=67 velocity=100 time=250
note_off channel=0 note=76 velocity=100 time=0
note_off channel=0 note=79 velocity=100 time=0
note_on channel=0 note=74 velocity=100 time=0
note_on channel=0 note=77 velocity=100 time=0
note_off channel=0 note=48 velocity=100 time=250
note_off channel=0 note=62 velocity=100 time=0
note_off channel=0 note=74 velocity=100 time=0
note_off channel=0 note=77 velocity=100 time=0
note_on channel=0 note=60 velocity=100 time=0
note_on channel=0 note=67 velocity=100 time=0
note_on channel=0 note=76 velocity=100 time=0
note_on channel=0 note=79 velocity=100 time=0
note_on channel=0 note=72 velocity=100 time=0
note_on channel=0 note=64 velocity=100 time=0
note_off channel=0 note=60 velocity=100 time=250
note_off channel=0 note=67 velocity=100 time=0
note_off channel=0 note=76 velocity=100 time=250
note_off channel=0 note=79 velocity=100 time=0
note_off channel=0 note=72 velocity=100 time=250
note_on channel=0 note=60 velocity=100 time=0
note_off channel=0 note=60 velocity=100 time=250
note_off channel=0 note=64 velocity=100 time=0
note_on channel=0 note=59 velocity=100 time=0
note_on channel=0 note=62 velocity=100 time=0
note_on channel=0 note=74 velocity=100 time=0
note_on channel=0 note=64 velocity=100 time=250
note_off channel=0 note=64 velocity=100 time=250
note_on channel=0 note=67 velocity=100 time=250
note_off channel=0 note=59 velocity=100 time=250
note_off channel=0 note=62 velocity=100 time=0
note_off channel=0 note=74 velocity=100 time=0
note_on channel=0 note=48 velocity=100 time=0
note_on channel=0 note=72 velocity=100 time=0
note_on channel=0 note=79 velocity=100 time=0
note_on channel=0 note=60 velocity=100 time=0
note_on channel=0 note=58 velocity=100 time=0
note_on channel=0 note=76 velocity=100 time=0
note_off channel=0 note=48 velocity=100 time=250
note_off channel=0 note=72 velocity=100 time=250
note_off channel=0 note=79 velocity=100 time=0
note_on channel=0 note=77 velocity=100 time=0
note_on channel=0 note=81 velocity=100 time=0
note_off channel=0 note=60 velocity=100 time=250
note_off channel=0 note=58 velocity=100 time=250
note_off channel=0 note=67 velocity=100 time=0
note_off channel=0 note=76 velocity=100 time=0
note_on channel=0 note=65 velocity=100 time=0
note_on channel=0 note=57 velocity=100 time=0
note_on channel=0 note=60 velocity=100 time=0
note_off channel=0 note=65 velocity=100 time=500
note_off channel=0 note=77 velocity=100 time=0
note_off channel=0 note=81 velocity=100 time=0
note_on channel=0 note=76 velocity=100 time=0
note_on channel=0 note=79 velocity=100 time=0
note_on channel=0 note=67 velocity=100 time=0
note_off channel=0 note=76 velocity=100 time=250
note_off channel=0 note=79 velocity=100 time=0
note_on channel=0 note=74 velocity=100 time=0
note_on channel=0 note=77 velocity=100 time=0
note_off channel=0 note=57 velocity=100 time=250
note_off channel=0 note=60 velocity=100 time=0
note_off channel=0 note=67 velocity=100 time=0
note_off channel=0 note=74 velocity=100 time=0
note_on channel=0 note=55 velocity=100 time=0
note_on channel=0 note=65 velocity=100 time=0
note_on channel=0 note=48 velocity=100 time=0
note_on channel=0 note=69 velocity=100 time=0
note_on channel=0 note=72 velocity=100 time=0
note_on channel=0 note=76 velocity=100 time=0
note_on channel=0 note=79 velocity=100 time=0
note_off channel=0 note=55 velocity=100 time=500
note_on channel=0 note=53 velocity=100 time=0
note_off channel=0 note=65 velocity=100 time=250
note_off channel=0 note=48 velocity=100 time=250
note_off channel=0 note=53 velocity=100 time=0
note_off channel=0 note=69 velocity=100 time=0
note_off channel=0 note=72 velocity=100 time=0
note_off channel=0 note=76 velocity=100 time=0
note_off channel=0 note=77 velocity=100 time=0
note_off channel=0 note=79 velocity=100 time=0
note_on channel=0 note=74 velocity=100 time=0
note_on channel=0 note=58 velocity=100 time=0
note_on channel=0 note=65 velocity=100 time=0
note_on channel=0 note=70 velocity=100 time=0
note_off channel=0 note=74 velocity=100 time=750
note_off channel=0 note=58 velocity=100 time=250
note_off channel=0 note=65 velocity=100 time=0
note_off channel=0 note=70 velocity=100 time=0
note_on channel=0 note=62 velocity=100 time=0
note_on channel=0 note=74 velocity=100 time=0
note_on channel=0 note=54 velocity=100 time=0
note_on channel=0 note=57 velocity=100 time=0
note_on channel=0 note=69 velocity=100 time=0
note_off channel=0 note=62 velocity=100 time=750
note_off channel=0 note=74 velocity=100 time=0
note_off channel=0 note=54 velocity=100 time=250
note_off channel=0 note=57 velocity=100 time=0
note_off channel=0 note=69 velocity=100 time=0
note_on channel=0 note=55 velocity=100 time=0
note_on channel=0 note=67 velocity=100 time=0
note_on channel=0 note=59 velocity=100 time=0
note_on channel=0 note=62 velocity=100 time=0
note_on channel=0 note=74 velocity=100 time=0
note_off channel=0 note=55 velocity=100 time=500
note_on channel=0 note=53 velocity=100 time=0
note_off channel=0 note=67 velocity=100 time=250
note_off channel=0 note=53 velocity=100 time=250
note_off channel=0 note=59 velocity=100 time=0
note_off channel=0 note=62 velocity=100 time=0
note_off channel=0 note=74 velocity=100 time=0
note_on channel=0 note=64 velocity=100 time=0
note_on channel=0 note=67 velocity=100 time=0
note_on channel=0 note=72 velocity=100 time=0
note_on channel=0 note=52 velocity=100 time=0
note_on channel=0 note=60 velocity=100 time=0
note_off channel=0 note=64 velocity=100 time=500
note_off channel=0 note=67 velocity=100 time=0
note_on channel=0 note=65 velocity=100 time=0
note_off channel=0 note=65 velocity=100 time=250
note_off channel=0 note=72 velocity=100 time=0
note_on channel=0 note=67 velocity=100 time=0
note_off channel=0 note=52 velocity=100 time=250
note_off channel=0 note=60 velocity=100 time=0
note_off channel=0 note=67 velocity=100 time=0
note_on channel=0 note=65 velocity=100 time=0
note_on channel=0 note=53 velocity=100 time=0
note_on channel=0 note=69 velocity=100 time=0
note_on channel=0 note=72 velocity=100 time=0
note_off channel=0 note=65 velocity=100 time=500
note_on channel=0 note=64 velocity=100 time=0
note_off channel=0 note=53 velocity=100 time=500
note_off channel=0 note=64 velocity=100 time=0
note_off channel=0 note=69 velocity=100 time=0
note_off channel=0 note=72 velocity=100 time=0
note_on channel=0 note=67 velocity=100 time=0
note_on channel=0 note=55 velocity=100 time=0
note_on channel=0 note=62 velocity=100 time=0
note_on channel=0 note=71 velocity=100 time=0
note_off channel=0 note=67 velocity=100 time=750
note_off channel=0 note=55 velocity=100 time=250
note_off channel=0 note=62 velocity=100 time=0
note_off channel=0 note=71 velocity=100 time=0
note_on channel=0 note=48 velocity=100 time=0
note_on channel=0 note=64 velocity=100 time=0
note_on channel=0 note=67 velocity=100 time=0
note_on channel=0 note=72 velocity=100 time=0
note_off channel=0 note=48 velocity=100 time=3000
note_off channel=0 note=64 velocity=100 time=0
note_off channel=0 note=67 velocity=100 time=0
note_off channel=0 note=72 velocity=100 time=0
note_on channel=0 note=72 velocity=100 time=4000
note_on channel=0 note=59 velocity=100 time=0
note_on channel=0 note=67 velocity=100 time=0
note_on channel=0 note=71 velocity=100 time=0
note_on channel=0 note=76 velocity=100 time=0
note_on channel=0 note=79 velocity=100 time=0
note_on channel=0 note=74 velocity=100 time=0
note_on channel=0 note=43 velocity=100 time=0
note_on channel=0 note=48 velocity=100 time=0
note_off channel=0 note=72 velocity=100 time=250
note_off channel=0 note=59 velocity=100 time=250
note_off channel=0 note=67 velocity=100 time=0
note_off channel=0 note=71 velocity=100 time=0
note_off channel=0 note=76 velocity=100 time=0
note_off channel=0 note=79 velocity=100 time=0
note_on channel=0 note=57 velocity=100 time=0
note_on channel=0 note=66 velocity=100 time=0
note_on channel=0 note=72 velocity=100 time=0
note_on channel=0 note=77 velocity=100 time=0
note_on channel=0 note=81 velocity=100 time=0
note_off channel=0 note=74 velocity=100 time=250
note_off channel=0 note=43 velocity=100 time=250
note_off channel=0 note=48 velocity=100 time=0
note_off channel=0 note=57 velocity=100 time=0
note_off channel=0 note=66 velocity=100 time=0
note_off channel=0 note=72 velocity=100 time=0
note_on channel=0 note=55 velocity=100 time=0
note_on channel=0 note=59 velocity=100 time=0
note_on channel=0 note=71 velocity=100 time=0
note_on channel=0 note=74 velocity=100 time=0
note_on channel=0 note=67 velocity=100 time=0
note_off channel=0 note=55 velocity=100 time=500
note_off channel=0 note=59 velocity=100 time=0
note_off channel=0 note=71 velocity=100 time=0
note_off channel=0 note=74 velocity=100 time=0
note_off channel=0 note=77 velocity=100 time=0
note_off channel=0 note=81 velocity=100 time=0
note_on channel=0 note=76 velocity=100 time=0
note_on channel=0 note=79 velocity=100 time=0
note_on channel=0 note=54 velocity=100 time=0
note_on channel=0 note=57 velocity=100 time=0
note_on channel=0 note=69 velocity=100 time=0
note_off channel=0 note=67 velocity=100 time=250
note_off channel=0 note=76 velocity=100 time=0
note_off channel=0 note=79 velocity=100 time=0
note_on channel=0 note=77 velocity=100 time=0
note_on channel=0 note=74 velocity=100 time=0
note_off channel=0 note=54 velocity=100 time=250
note_off channel=0 note=57 velocity=100 time=0
note_off channel=0 note=69 velocity=100 time=0
note_off channel=0 note=77 velocity=100 time=0
note_on channel=0 note=55 velocity=100 time=0
note_on channel=0 note=59 velocity=100 time=0
note_on channel=0 note=76 velocity=100 time=0
note_on channel=0 note=79 velocity=100 time=0
note_on channel=0 note=67 velocity=100 time=0
note_off channel=0 note=55 velocity=100 time=500
note_off channel=0 note=59 velocity=100 time=0
note_off channel=0 note=76 velocity=100 time=0
note_off channel=0 note=79 velocity=100 time=0
note_on channel=0 note=57 velocity=100 time=0
note_on channel=0 note=66 velocity=100 time=0
note_off channel=0 note=74 velocity=100 time=250
note_on channel=0 note=60 velocity=100 time=0
note_off channel=0 note=57 velocity=100 time=250
note_off channel=0 note=60 velocity=100 time=0
note_off channel=0 note=66 velocity=100 time=0
note_off channel=0 note=67 velocity=100 time=0
note_on channel=0 note=59 velocity=100 time=0
note_on channel=0 note=62 velocity=100 time=0
note_on channel=0 note=74 velocity=100 time=0
note_on channel=0 note=64 velocity=100 time=250
note_off channel=0 note=59 velocity=100 time=250
note_off channel=0 note=64 velocity=100 time=0
note_on channel=0 note=55 velocity=100 time=0
note_on channel=0 note=72 velocity=100 time=250
note_on channel=0 note=67 velocity=100 time=0
note_off channel=0 note=55 velocity=100 time=250
note_off channel=0 note=62 velocity=100 time=0
note_off channel=0 note=72 velocity=100 time=0
note_off channel=0 note=74 velocity=100 time=0
note_on channel=0 note=48 velocity=100 time=0
note_on channel=0 note=79 velocity=100 time=0
note_on channel=0 note=60 velocity=100 time=0
note_on channel=0 note=76 velocity=100 time=0
note_off channel=0 note=48 velocity=100 time=500
note_off channel=0 note=79 velocity=100 time=0
note_off channel=0 note=60 velocity=100 time=500
note_off channel=0 note=67 velocity=100 time=0
note_off channel=0 note=76 velocity=100 time=0
note_on channel=0 note=51 velocity=100 time=500
note_on channel=0 note=60 velocity=100 time=0
note_on channel=0 note=72 velocity=100 time=0
note_off channel=0 note=51 velocity=100 time=250
note_off channel=0 note=60 velocity=100 time=0
note_off channel=0 note=72 velocity=100 time=0
note_on channel=0 note=48 velocity=100 time=0
note_on channel=0 note=77 velocity=100 time=0
note_off channel=0 note=48 velocity=100 time=250
note_off channel=0 note=77 velocity=100 time=0
note_on channel=0 note=51 velocity=100 time=0
note_on channel=0 note=60 velocity=100 time=0
note_off channel=0 note=51 velocity=100 time=250
note_off channel=0 note=60 velocity=100 time=0
note_on channel=0 note=52 velocity=100 time=0
note_on channel=0 note=72 velocity=100 time=0
note_on channel=0 note=79 velocity=100 time=0
note_off channel=0 note=52 velocity=100 time=250
note_off channel=0 note=72 velocity=100 time=0
note_off channel=0 note=79 velocity=100 time=0
note_on channel=0 note=51 velocity=100 time=0
note_on channel=0 note=60 velocity=100 time=0
note_off channel=0 note=51 velocity=100 time=250
note_on channel=0 note=76 velocity=100 time=0
note_on channel=0 note=52 velocity=100 time=0
note_on channel=0 note=79 velocity=100 time=0
note_off channel=0 note=60 velocity=100 time=250
note_off channel=0 note=76 velocity=100 time=0
note_off channel=0 note=52 velocity=100 time=250
note_off channel=0 note=79 velocity=100 time=0
note_on channel=0 note=55 velocity=100 time=0
note_on channel=0 note=60 velocity=100 time=0
note_off channel=0 note=55 velocity=100 time=250
note_off channel=0 note=60 velocity=100 time=0
note_on channel=0 note=67 velocity=100 time=0
note_on channel=0 note=52 velocity=100 time=0
note_on channel=0 note=79 velocity=100 time=0
note_off channel=0 note=67 velocity=100 time=250
note_on channel=0 note=69 velocity=100 time=0
note_off channel=0 note=52 velocity=100 time=250
note_off channel=0 note=69 velocity=100 time=0
note_off channel=0 note=79 velocity=100 time=0
note_on channel=0 note=48 velocity=100 time=0
note_on channel=0 note=64 velocity=100 time=0
note_off channel=0 note=48 velocity=100 time=250
note_off channel=0 note=64 velocity=100 time=0
note_on channel=0 note=51 velocity=100 time=0
note_on channel=0 note=55 velocity=100 time=0
note_on channel=0 note=82 velocity=100 time=0
note_on channel=0 note=76 velocity=100 time=0
note_off channel=0 note=51 velocity=100 time=250
note_off channel=0 note=55 velocity=100 time=0
note_off channel=0 note=82 velocity=100 time=0
note_on channel=0 note=64 velocity=100 time=0
note_on channel=0 note=67 velocity=100 time=0
note_off channel=0 note=64 velocity=100 time=250
note_off channel=0 note=67 velocity=100 time=0
note_off channel=0 note=76 velocity=100 time=0
note_on channel=0 note=80 velocity=100 time=0
note_off channel=0 note=80 velocity=100 time=250
note_on channel=0 note=47 velocity=100 time=0
note_off channel=0 note=47 velocity=100 time=250
note_on channel=0 note=53 velocity=100 time=0
note_on channel=0 note=71 velocity=100 time=0
note_off channel=0 note=53 velocity=100 time=250
note_off channel=0 note=71 velocity=100 time=0
note_on channel=0 note=46 velocity=100 time=0
note_on channel=0 note=58 velocity=100 time=0
note_on channel=0 note=64 velocity=100 time=0
note_on channel=0 note=76 velocity=100 time=0
note_off channel=0 note=46 velocity=100 time=250
note_off channel=0 note=58 velocity=100 time=0
note_off channel=0 note=64 velocity=100 time=0
note_on channel=0 note=53 velocity=100 time=0
note_on channel=0 note=69 velocity=100 time=0
note_on channel=0 note=55 velocity=100 time=0
note_off channel=0 note=53 velocity=100 time=250
note_off channel=0 note=69 velocity=100 time=0
note_on channel=0 note=46 velocity=100 time=0
note_on channel=0 note=60 velocity=100 time=0
note_off channel=0 note=46 velocity=100 time=250
note_off channel=0 note=55 velocity=100 time=0
note_off channel=0 note=60 velocity=100 time=0
note_off channel=0 note=76 velocity=100 time=0
note_on channel=0 note=47 velocity=100 time=0
note_on channel=0 note=52 velocity=100 time=0
note_on channel=0 note=67 velocity=100 time=0
note_on channel=0 note=74 velocity=100 time=0
note_on channel=0 note=79 velocity=100 time=0
note_off channel=0 note=47 velocity=100 time=250
note_off channel=0 note=52 velocity=100 time=0
note_off channel=0 note=67 velocity=100 time=0
note_off channel=0 note=74 velocity=100 time=0
note_off channel=0 note=79 velocity=100 time=0
note_on channel=0 note=46 velocity=100 time=0
note_on channel=0 note=57 velocity=100 time=0
note_on channel=0 note=69 velocity=100 time=0
note_off channel=0 note=46 velocity=100 time=250
note_off channel=0 note=57 velocity=100 time=0
note_off channel=0 note=69 velocity=100 time=0
note_on channel=0 note=55 velocity=100 time=0
note_on channel=0 note=64 velocity=100 time=0
note_on channel=0 note=76 velocity=100 time=0
note_off channel=0 note=55 velocity=100 time=250
note_off channel=0 note=64 velocity=100 time=0
note_off channel=0 note=76 velocity=100 time=0
note_on channel=0 note=53 velocity=100 time=0
note_on channel=0 note=77 velocity=100 time=0
note_off channel=0 note=53 velocity=100 time=250
note_off channel=0 note=77 velocity=100 time=0
note_on channel=0 note=48 velocity=100 time=0
note_on channel=0 note=60 velocity=100 time=0
note_on channel=0 note=72 velocity=100 time=0
note_on channel=0 note=76 velocity=100 time=0
note_off channel=0 note=48 velocity=100 time=250
note_off channel=0 note=60 velocity=100 time=0
note_off channel=0 note=72 velocity=100 time=0
note_off channel=0 note=76 velocity=100 time=0
note_on channel=0 note=52 velocity=100 time=0
note_on channel=0 note=55 velocity=100 time=0
note_off channel=0 note=52 velocity=100 time=250
note_off channel=0 note=55 velocity=100 time=0
note_on channel=0 note=53 velocity=100 time=0
note_on channel=0 note=72 velocity=100 time=0
note_on channel=0 note=76 velocity=100 time=0
note_off channel=0 note=53 velocity=100 time=250
note_off channel=0 note=72 velocity=100 time=0
note_off channel=0 note=76 velocity=100 time=0
note_on channel=0 note=50 velocity=100 time=0
note_on channel=0 note=57 velocity=100 time=0
note_on channel=0 note=74 velocity=100 time=0
note_on channel=0 note=77 velocity=100 time=0
note_off channel=0 note=50 velocity=100 time=250
note_off channel=0 note=57 velocity=100 time=0
note_off channel=0 note=74 velocity=100 time=0
note_off channel=0 note=77 velocity=100 time=0
note_on channel=0 note=55 velocity=100 time=0
note_on channel=0 note=59 velocity=100 time=0
note_on channel=0 note=60 velocity=100 time=0
note_on channel=0 note=79 velocity=100 time=0
note_off channel=0 note=55 velocity=100 time=250
note_off channel=0 note=59 velocity=100 time=0
note_off channel=0 note=60 velocity=100 time=0
note_off channel=0 note=79 velocity=100 time=0
note_on channel=0 note=48 velocity=100 time=0
note_on channel=0 note=62 velocity=100 time=0
note_on channel=0 note=74 velocity=100 time=0
note_on channel=0 note=77 velocity=100 time=0
note_off channel=0 note=48 velocity=100 time=250
note_off channel=0 note=62 velocity=100 time=0
note_off channel=0 note=74 velocity=100 time=0
note_off channel=0 note=77 velocity=100 time=0
note_on channel=0 note=35 velocity=100 time=0
note_on channel=0 note=60 velocity=100 time=0
note_on channel=0 note=81 velocity=100 time=0
note_on channel=0 note=84 velocity=100 time=0
note_on channel=0 note=79 velocity=100 time=0
note_on channel=0 note=76 velocity=100 time=0
note_off channel=0 note=35 velocity=100 time=250
note_off channel=0 note=60 velocity=100 time=0
note_off channel=0 note=81 velocity=100 time=0
note_off channel=0 note=84 velocity=100 time=0
note_on channel=0 note=51 velocity=100 time=0
note_on channel=0 note=67 velocity=100 time=0
note_off channel=0 note=51 velocity=100 time=250
note_off channel=0 note=67 velocity=100 time=0
note_off channel=0 note=79 velocity=100 time=0
note_on channel=0 note=72 velocity=100 time=0
note_off channel=0 note=72 velocity=100 time=250
note_off channel=0 note=76 velocity=100 time=0
note_on channel=0 note=52 velocity=100 time=0
note_on channel=0 note=79 velocity=100 time=0
note_off channel=0 note=52 velocity=100 time=250
note_on channel=0 note=36 velocity=100 time=0
note_on channel=0 note=48 velocity=100 time=0
note_on channel=0 note=55 velocity=100 time=0
note_on channel=0 note=76 velocity=100 time=0
note_off channel=0 note=36 velocity=100 time=250
note_off channel=0 note=48 velocity=100 time=0
note_off channel=0 note=55 velocity=100 time=0
note_off channel=0 note=76 velocity=100 time=0
note_off channel=0 note=79 velocity=100 time=0
note_on channel=0 note=53 velocity=100 time=0
note_on channel=0 note=70 velocity=100 time=0
note_on channel=0 note=72 velocity=100 time=0
note_on channel=0 note=77 velocity=100 time=0
note_off channel=0 note=53 velocity=100 time=250
note_off channel=0 note=70 velocity=100 time=0
note_off channel=0 note=72 velocity=100 time=0
note_off channel=0 note=77 velocity=100 time=0
note_on channel=0 note=55 velocity=100 time=0
note_on channel=0 note=67 velocity=100 time=0
note_on channel=0 note=79 velocity=100 time=0
note_on channel=0 note=48 velocity=100 time=0
note_off channel=0 note=55 velocity=100 time=250
note_off channel=0 note=67 velocity=100 time=0
note_off channel=0 note=79 velocity=100 time=0
note_on channel=0 note=72 velocity=100 time=0
note_on channel=0 note=77 velocity=100 time=0
note_off channel=0 note=48 velocity=100 time=250
note_off channel=0 note=72 velocity=100 time=0
note_on channel=0 note=53 velocity=100 time=0
note_on channel=0 note=74 velocity=100 time=0
note_off channel=0 note=53 velocity=100 time=250
note_off channel=0 note=74 velocity=100 time=0
note_off channel=0 note=77 velocity=100 time=0
note_on channel=0 note=48 velocity=100 time=0
note_off channel=0 note=48 velocity=100 time=250
note_on channel=0 note=60 velocity=100 time=0
note_on channel=0 note=65 velocity=100 time=0
note_on channel=0 note=72 velocity=100 time=0
note_on channel=0 note=84 velocity=100 time=0
note_on channel=0 note=52 velocity=100 time=0
note_off channel=0 note=60 velocity=100 time=250
note_off channel=0 note=65 velocity=100 time=0
note_off channel=0 note=72 velocity=100 time=0
note_off channel=0 note=84 velocity=100 time=0
note_on channel=0 note=76 velocity=100 time=0
note_off channel=0 note=52 velocity=100 time=250
note_off channel=0 note=76 velocity=100 time=0
note_on channel=0 note=50 velocity=100 time=0
note_on channel=0 note=69 velocity=100 time=0
note_on channel=0 note=74 velocity=100 time=0
note_on channel=0 note=77 velocity=100 time=0
note_off channel=0 note=50 velocity=100 time=250
note_off channel=0 note=69 velocity=100 time=0
note_off channel=0 note=74 velocity=100 time=0
note_off channel=0 note=77 velocity=100 time=0
note_on channel=0 note=48 velocity=100 time=0
note_on channel=0 note=60 velocity=100 time=0
note_on channel=0 note=79 velocity=100 time=0
note_on channel=0 note=55 velocity=100 time=0
note_off channel=0 note=48 velocity=100 time=250
note_off channel=0 note=60 velocity=100 time=0
note_off channel=0 note=79 velocity=100 time=0
note_on channel=0 note=43 velocity=100 time=0
note_on channel=0 note=69 velocity=100 time=0
note_on channel=0 note=74 velocity=100 time=0
note_on channel=0 note=77 velocity=100 time=0
note_off channel=0 note=43 velocity=100 time=250
note_off channel=0 note=55 velocity=100 time=0
note_off channel=0 note=69 velocity=100 time=0
note_off channel=0 note=74 velocity=100 time=0
note_on channel=0 note=47 velocity=100 time=0
note_on channel=0 note=51 velocity=100 time=0
note_on channel=0 note=75 velocity=100 time=0
note_on channel=0 note=67 velocity=100 time=0
note_off channel=0 note=47 velocity=100 time=250
note_off channel=0 note=51 velocity=100 time=0
note_off channel=0 note=75 velocity=100 time=0
note_on channel=0 note=43 velocity=100 time=0
note_on channel=0 note=53 velocity=100 time=0
note_on channel=0 note=55 velocity=100 time=0
note_off channel=0 note=43 velocity=100 time=250
note_off channel=0 note=53 velocity=100 time=0
note_off channel=0 note=55 velocity=100 time=0
note_off channel=0 note=67 velocity=100 time=0
note_off channel=0 note=77 velocity=100 time=0
note_on channel=0 note=74 velocity=100 time=0
note_on channel=0 note=53 velocity=100 time=250
note_on channel=0 note=77 velocity=100 time=0
note_on channel=0 note=55 velocity=100 time=0
note_off channel=0 note=74 velocity=100 time=250
note_on channel=0 note=67 velocity=100 time=0
note_off channel=0 note=53 velocity=100 time=250
note_off channel=0 note=67 velocity=100 time=0
note_off channel=0 note=77 velocity=100 time=0
note_on channel=0 note=79 velocity=100 time=0
note_on channel=0 note=51 velocity=100 time=0
note_off channel=0 note=79 velocity=100 time=250
note_on channel=0 note=60 velocity=100 time=0
note_on channel=0 note=74 velocity=100 time=0
note_off channel=0 note=51 velocity=100 time=250
note_off channel=0 note=55 velocity=100 time=0
note_off channel=0 note=60 velocity=100 time=0
note_off channel=0 note=74 velocity=100 time=0
note_on channel=0 note=52 velocity=100 time=0
note_on channel=0 note=75 velocity=100 time=0
note_on channel=0 note=79 velocity=100 time=0
note_off channel=0 note=52 velocity=100 time=250
note_off channel=0 note=75 velocity=100 time=0
note_off channel=0 note=79 velocity=100 time=0
note_on channel=0 note=70 velocity=100 time=0
note_on channel=0 note=77 velocity=100 time=0
note_on channel=0 note=55 velocity=100 time=0
note_off channel=0 note=70 velocity=100 time=250
note_off channel=0 note=77 velocity=100 time=0
note_on channel=0 note=51 velocity=100 time=0
note_on channel=0 note=82 velocity=100 time=0
note_off channel=0 note=51 velocity=100 time=250
note_off channel=0 note=55 velocity=100 time=0
note_off channel=0 note=82 velocity=100 time=0
note_on channel=0 note=53 velocity=100 time=0
note_on channel=0 note=59 velocity=100 time=0
note_on channel=0 note=77 velocity=100 time=0
note_on channel=0 note=79 velocity=100 time=0
note_off channel=0 note=53 velocity=100 time=250
note_off channel=0 note=59 velocity=100 time=0
note_off channel=0 note=77 velocity=100 time=0
note_off channel=0 note=79 velocity=100 time=0
note_on channel=0 note=50 velocity=100 time=0
note_off channel=0 note=50 velocity=100 time=250
note_on channel=0 note=62 velocity=100 time=0
note_on channel=0 note=79 velocity=100 time=0
note_off channel=0 note=62 velocity=100 time=250
note_off channel=0 note=79 velocity=100 time=0
note_on channel=0 note=53 velocity=100 time=0
note_off channel=0 note=53 velocity=100 time=250
note_on channel=0 note=51 velocity=100 time=0
note_on channel=0 note=60 velocity=100 time=0
note_on channel=0 note=72 velocity=100 time=0
note_on channel=0 note=78 velocity=100 time=0
note_off channel=0 note=51 velocity=100 time=250
note_off channel=0 note=60 velocity=100 time=0
note_off channel=0 note=72 velocity=100 time=0
note_off channel=0 note=78 velocity=100 time=0
note_on channel=0 note=52 velocity=100 time=0
note_on channel=0 note=68 velocity=100 time=0
note_on channel=0 note=79 velocity=100 time=0
note_off channel=0 note=52 velocity=100 time=250
note_off channel=0 note=68 velocity=100 time=0
note_on channel=0 note=53 velocity=100 time=0
note_on channel=0 note=60 velocity=100 time=0
note_on channel=0 note=69 velocity=100 time=0
note_on channel=0 note=72 velocity=100 time=0
note_off channel=0 note=53 velocity=100 time=250
note_off channel=0 note=60 velocity=100 time=0
note_off channel=0 note=79 velocity=100 time=0
note_on channel=0 note=54 velocity=100 time=0
note_on channel=0 note=75 velocity=100 time=0
note_off channel=0 note=54 velocity=100 time=250
note_off channel=0 note=69 velocity=100 time=0
note_off channel=0 note=72 velocity=100 time=0
note_off channel=0 note=75 velocity=100 time=0
note_on channel=0 note=51 velocity=100 time=0
note_on channel=0 note=55 velocity=100 time=0
note_on channel=0 note=60 velocity=100 time=0
note_off channel=0 note=51 velocity=100 time=250
note_off channel=0 note=55 velocity=100 time=0
note_off channel=0 note=60 velocity=100 time=0
note_on channel=0 note=54 velocity=100 time=0
note_off channel=0 note=54 velocity=100 time=250
note_on channel=0 note=66 velocity=100 time=0
note_on channel=0 note=74 velocity=100 time=0
note_on channel=0 note=53 velocity=100 time=0
note_off channel=0 note=66 velocity=100 time=250
note_off channel=0 note=74 velocity=100 time=0
note_on channel=0 note=62 velocity=100 time=0
note_on channel=0 note=69 velocity=100 time=0
note_on channel=0 note=72 velocity=100 time=0
note_on channel=0 note=77 velocity=100 time=0
note_off channel=0 note=62 velocity=100 time=250
note_off channel=0 note=69 velocity=100 time=0
note_off channel=0 note=72 velocity=100 time=0
note_off channel=0 note=77 velocity=100 time=0
note_on channel=0 note=40 velocity=100 time=250
note_on channel=0 note=62 velocity=100 time=0
note_on channel=0 note=69 velocity=100 time=0
note_on channel=0 note=72 velocity=100 time=0
note_on channel=0 note=76 velocity=100 time=0
note_off channel=0 note=40 velocity=100 time=250
note_off channel=0 note=53 velocity=100 time=0
note_off channel=0 note=62 velocity=100 time=0
note_off channel=0 note=69 velocity=100 time=0
note_off channel=0 note=72 velocity=100 time=0
note_off channel=0 note=76 velocity=100 time=0
note_on channel=0 note=56 velocity=100 time=0
note_on channel=0 note=60 velocity=100 time=0
note_on channel=0 note=68 velocity=100 time=0
note_on channel=0 note=77 velocity=100 time=0
note_off channel=0 note=56 velocity=100 time=250
note_off channel=0 note=60 velocity=100 time=0
note_off channel=0 note=68 velocity=100 time=0
note_off channel=0 note=77 velocity=100 time=0
note_on channel=0 note=53 velocity=100 time=0
note_on channel=0 note=69 velocity=100 time=0
note_on channel=0 note=72 velocity=100 time=0
note_on channel=0 note=76 velocity=100 time=0
note_off channel=0 note=53 velocity=100 time=250
note_off channel=0 note=69 velocity=100 time=0
note_off channel=0 note=72 velocity=100 time=0
note_off channel=0 note=76 velocity=100 time=0
note_on channel=0 note=60 velocity=100 time=0
note_on channel=0 note=77 velocity=100 time=0
note_on channel=0 note=68 velocity=100 time=0
note_off channel=0 note=60 velocity=100 time=250
note_off channel=0 note=77 velocity=100 time=0
note_on channel=0 note=52 velocity=100 time=0
note_on channel=0 note=53 velocity=100 time=0
note_off channel=0 note=52 velocity=100 time=250
note_off channel=0 note=53 velocity=100 time=0
note_off channel=0 note=68 velocity=100 time=0
note_on channel=0 note=55 velocity=100 time=0
note_on channel=0 note=59 velocity=100 time=0
note_on channel=0 note=67 velocity=100 time=0
note_off channel=0 note=55 velocity=100 time=250
note_off channel=0 note=59 velocity=100 time=0
note_off channel=0 note=67 velocity=100 time=0
note_on channel=0 note=51 velocity=100 time=0
note_on channel=0 note=60 velocity=100 time=0
note_on channel=0 note=61 velocity=100 time=0
note_on channel=0 note=69 velocity=100 time=0
note_on channel=0 note=75 velocity=100 time=0
note_on channel=0 note=76 velocity=100 time=0
note_off channel=0 note=51 velocity=100 time=250
note_off channel=0 note=60 velocity=100 time=0
note_off channel=0 note=61 velocity=100 time=0
note_off channel=0 note=69 velocity=100 time=0
note_off channel=0 note=75 velocity=100 time=0
note_off channel=0 note=76 velocity=100 time=0
note_on channel=0 note=52 velocity=100 time=0
note_on channel=0 note=64 velocity=100 time=0
note_on channel=0 note=74 velocity=100 time=0
note_off channel=0 note=52 velocity=100 time=250
note_off channel=0 note=64 velocity=100 time=0
note_off channel=0 note=74 velocity=100 time=0
note_on channel=0 note=53 velocity=100 time=0
note_on channel=0 note=67 velocity=100 time=0
note_on channel=0 note=76 velocity=100 time=0
note_on channel=0 note=79 velocity=100 time=0
note_on channel=0 note=60 velocity=100 time=0
note_off channel=0 note=53 velocity=100 time=250
note_off channel=0 note=67 velocity=100 time=0
note_off channel=0 note=76 velocity=100 time=0
note_off channel=0 note=79 velocity=100 time=0
note_on channel=0 note=45 velocity=100 time=0
note_on channel=0 note=56 velocity=100 time=0
note_on channel=0 note=65 velocity=100 time=0
note_on channel=0 note=80 velocity=100 time=0
note_off channel=0 note=45 velocity=100 time=250
note_off channel=0 note=56 velocity=100 time=0
note_off channel=0 note=60 velocity=100 time=0
note_off channel=0 note=65 velocity=100 time=0
note_off channel=0 note=80 velocity=100 time=0
note_on channel=0 note=53 velocity=100 time=0
note_on channel=0 note=58 velocity=100 time=0
note_on channel=0 note=77 velocity=100 time=0
note_on channel=0 note=79 velocity=100 time=0
note_off channel=0 note=53 velocity=100 time=250
note_off channel=0 note=58 velocity=100 time=0
note_off channel=0 note=77 velocity=100 time=0
note_off channel=0 note=79 velocity=100 time=0
note_on channel=0 note=47 velocity=100 time=0
note_on channel=0 note=59 velocity=100 time=0
note_on channel=0 note=71 velocity=100 time=0
note_off channel=0 note=47 velocity=100 time=250
note_off channel=0 note=59 velocity=100 time=0
note_off channel=0 note=71 velocity=100 time=0
note_on channel=0 note=48 velocity=100 time=0
note_on channel=0 note=57 velocity=100 time=0
note_on channel=0 note=77 velocity=100 time=0
note_off channel=0 note=48 velocity=100 time=250
note_off channel=0 note=57 velocity=100 time=0
note_off channel=0 note=77 velocity=100 time=0
note_on channel=0 note=47 velocity=100 time=0
note_on channel=0 note=62 velocity=100 time=0
note_off channel=0 note=47 velocity=100 time=250
note_on channel=0 note=50 velocity=100 time=0
note_on channel=0 note=77 velocity=100 time=0
note_off channel=0 note=50 velocity=100 time=250
note_off channel=0 note=62 velocity=100 time=0
note_off channel=0 note=77 velocity=100 time=0
note_on channel=0 note=40 velocity=100 time=0
note_on channel=0 note=67 velocity=100 time=0
note_on channel=0 note=55 velocity=100 time=0
note_off channel=0 note=40 velocity=100 time=250
note_off channel=0 note=67 velocity=100 time=0
note_on channel=0 note=47 velocity=100 time=0
note_on channel=0 note=62 velocity=100 time=0
note_on channel=0 note=65 velocity=100 time=0
note_on channel=0 note=79 velocity=100 time=0
note_on channel=0 note=74 velocity=100 time=0
note_off channel=0 note=47 velocity=100 time=250
note_off channel=0 note=55 velocity=100 time=0
note_off channel=0 note=62 velocity=100 time=0
note_off channel=0 note=65 velocity=100 time=0
note_off channel=0 note=79 velocity=100 time=0
note_on channel=0 note=46 velocity=100 time=0
note_on channel=0 note=53 velocity=100 time=0
note_on channel=0 note=77 velocity=100 time=0
note_off channel=0 note=46 velocity=100 time=250
note_off channel=0 note=53 velocity=100 time=0
note_off channel=0 note=77 velocity=100 time=0
note_on channel=0 note=43 velocity=100 time=0
note_on channel=0 note=65 velocity=100 time=0
note_on channel=0 note=79 velocity=100 time=0
note_off channel=0 note=43 velocity=100 time=250
note_off channel=0 note=65 velocity=100 time=0
note_off channel=0 note=74 velocity=100 time=0
note_off channel=0 note=79 velocity=100 time=0
note_on channel=0 note=51 velocity=100 time=0
note_on channel=0 note=55 velocity=100 time=0
note_off channel=0 note=51 velocity=100 time=250
note_on channel=0 note=43 velocity=100 time=0
note_on channel=0 note=65 velocity=100 time=0
note_on channel=0 note=77 velocity=100 time=0
note_off channel=0 note=43 velocity=100 time=250
note_off channel=0 note=65 velocity=100 time=0
note_on channel=0 note=48 velocity=100 time=0
note_on channel=0 note=60 velocity=100 time=0
note_on channel=0 note=67 velocity=100 time=0
note_on channel=0 note=74 velocity=100 time=0
note_off channel=0 note=48 velocity=100 time=250
note_off channel=0 note=60 velocity=100 time=0
note_on channel=0 note=72 velocity=100 time=0
note_off channel=0 note=67 velocity=100 time=250
note_off channel=0 note=72 velocity=100 time=0
note_off channel=0 note=74 velocity=100 time=0
note_off channel=0 note=77 velocity=100 time=0
note_on channel=0 note=58 velocity=100 time=0
note_off channel=0 note=55 velocity=100 time=250
note_off channel=0 note=58 velocity=100 time=0
note_on channel=0 note=51 velocity=100 time=0
note_on channel=0 note=57 velocity=100 time=0
note_on channel=0 note=74 velocity=100 time=0
note_on channel=0 note=75 velocity=100 time=0
note_off channel=0 note=51 velocity=100 time=250
note_off channel=0 note=57 velocity=100 time=0
note_off channel=0 note=74 velocity=100 time=0
note_off channel=0 note=75 velocity=100 time=0
note_on channel=0 note=46 velocity=100 time=0
note_on channel=0 note=58 velocity=100 time=0
note_on channel=0 note=76 velocity=100 time=0
note_on channel=0 note=79 velocity=100 time=0
note_on channel=0 note=72 velocity=100 time=0
note_on channel=0 note=55 velocity=100 time=0
note_off channel=0 note=46 velocity=100 time=250
note_off channel=0 note=58 velocity=100 time=0
note_off channel=0 note=76 velocity=100 time=0
note_off channel=0 note=79 velocity=100 time=0
note_on channel=0 note=59 velocity=100 time=0
note_on channel=0 note=65 velocity=100 time=0
note_on channel=0 note=74 velocity=100 time=0
note_on channel=0 note=77 velocity=100 time=0
note_off channel=0 note=59 velocity=100 time=250
note_off channel=0 note=65 velocity=100 time=0
note_off channel=0 note=72 velocity=100 time=0
note_off channel=0 note=74 velocity=100 time=0
note_off channel=0 note=77 velocity=100 time=0
note_on channel=0 note=51 velocity=100 time=0
note_on channel=0 note=63 velocity=100 time=0
note_on channel=0 note=75 velocity=100 time=0
note_off channel=0 note=51 velocity=100 time=250
note_off channel=0 note=63 velocity=100 time=0
note_off channel=0 note=75 velocity=100 time=0
note_on channel=0 note=74 velocity=100 time=0
note_on channel=0 note=77 velocity=100 time=0
note_off channel=0 note=74 velocity=100 time=250
note_off channel=0 note=77 velocity=100 time=0
note_on channel=0 note=70 velocity=100 time=0
note_on channel=0 note=75 velocity=100 time=0
note_off channel=0 note=70 velocity=100 time=250
note_off channel=0 note=75 velocity=100 time=0
note_on channel=0 note=45 velocity=100 time=0
note_on channel=0 note=72 velocity=100 time=0
note_on channel=0 note=74 velocity=100 time=0
note_on channel=0 note=77 velocity=100 time=0
note_off channel=0 note=45 velocity=100 time=250
note_off channel=0 note=72 velocity=100 time=0
note_off channel=0 note=74 velocity=100 time=0
note_off channel=0 note=77 velocity=100 time=0
note_on channel=0 note=63 velocity=100 time=0
note_on channel=0 note=75 velocity=100 time=0
note_off channel=0 note=63 velocity=100 time=250
note_on channel=0 note=39 velocity=100 time=0
note_on channel=0 note=47 velocity=100 time=0
note_on channel=0 note=72 velocity=100 time=0
note_on channel=0 note=74 velocity=100 time=0
note_off channel=0 note=39 velocity=100 time=250
note_off channel=0 note=47 velocity=100 time=0
note_off channel=0 note=72 velocity=100 time=0
note_off channel=0 note=74 velocity=100 time=0
note_on channel=0 note=63 velocity=100 time=0
note_on channel=0 note=79 velocity=100 time=0
note_off channel=0 note=63 velocity=100 time=250
note_off channel=0 note=79 velocity=100 time=0
note_on channel=0 note=47 velocity=100 time=0
note_on channel=0 note=60 velocity=100 time=0
note_on channel=0 note=76 velocity=100 time=0
note_off channel=0 note=47 velocity=100 time=250
note_off channel=0 note=55 velocity=100 time=0
note_off channel=0 note=60 velocity=100 time=0
note_off channel=0 note=76 velocity=100 time=0
note_on channel=0 note=45 velocity=100 time=0
note_on channel=0 note=57 velocity=100 time=0
note_on channel=0 note=66 velocity=100 time=0
note_on channel=0 note=72 velocity=100 time=0
note_on channel=0 note=78 velocity=100 time=0
note_off channel=0 note=45 velocity=100 time=250
note_off channel=0 note=57 velocity=100 time=0
note_off channel=0 note=66 velocity=100 time=0
note_off channel=0 note=72 velocity=100 time=0
note_off channel=0 note=75 velocity=100 time=0
note_off channel=0 note=78 velocity=100 time=0
note_on channel=0 note=40 velocity=100 time=0
note_on channel=0 note=58 velocity=100 time=0
note_on channel=0 note=65 velocity=100 time=0
note_on channel=0 note=79 velocity=100 time=0
note_off channel=0 note=40 velocity=100 time=250
note_off channel=0 note=58 velocity=100 time=0
note_off channel=0 note=65 velocity=100 time=0
note_off channel=0 note=79 velocity=100 time=0
note_on channel=0 note=51 velocity=100 time=0
note_on channel=0 note=55 velocity=100 time=0
note_off channel=0 note=51 velocity=100 time=250
note_on channel=0 note=48 velocity=100 time=0
note_on channel=0 note=74 velocity=100 time=0
note_on channel=0 note=79 velocity=100 time=0
note_off channel=0 note=48 velocity=100 time=250
note_off channel=0 note=74 velocity=100 time=0
note_on channel=0 note=58 velocity=100 time=0
note_on channel=0 note=63 velocity=100 time=0
note_on channel=0 note=67 velocity=100 time=0
note_on channel=0 note=72 velocity=100 time=0
note_off channel=0 note=58 velocity=100 time=250
note_off channel=0 note=63 velocity=100 time=0
note_off channel=0 note=67 velocity=100 time=0
note_off channel=0 note=79 velocity=100 time=0
note_on channel=0 note=46 velocity=100 time=0
note_on channel=0 note=64 velocity=100 time=0
note_on channel=0 note=69 velocity=100 time=0
note_on channel=0 note=75 velocity=100 time=0
note_off channel=0 note=46 velocity=100 time=250
note_off channel=0 note=55 velocity=100 time=0
note_off channel=0 note=64 velocity=100 time=0
note_off channel=0 note=69 velocity=100 time=0
note_off channel=0 note=72 velocity=100 time=0
note_off channel=0 note=75 velocity=100 time=0
note_on channel=0 note=63 velocity=100 time=0
note_on channel=0 note=79 velocity=100 time=0
note_on channel=0 note=43 velocity=100 time=250
note_on channel=0 note=72 velocity=100 time=0
note_on channel=0 note=67 velocity=100 time=0
note_off channel=0 note=43 velocity=100 time=250
note_off channel=0 note=63 velocity=100 time=0
note_off channel=0 note=72 velocity=100 time=0
note_on channel=0 note=46 velocity=100 time=0
note_on channel=0 note=55 velocity=100 time=0
note_on channel=0 note=70 velocity=100 time=0
note_on channel=0 note=73 velocity=100 time=0
note_off channel=0 note=46 velocity=100 time=250
note_off channel=0 note=55 velocity=100 time=0
note_off channel=0 note=70 velocity=100 time=0
note_off channel=0 note=73 velocity=100 time=0
note_off channel=0 note=79 velocity=100 time=0
note_on channel=0 note=48 velocity=100 time=0
note_on channel=0 note=75 velocity=100 time=0
note_on channel=0 note=72 velocity=100 time=0
note_on channel=0 note=64 velocity=100 time=0
note_off channel=0 note=48 velocity=100 time=250
note_off channel=0 note=75 velocity=100 time=0
note_on channel=0 note=55 velocity=100 time=0
note_on channel=0 note=58 velocity=100 time=0
note_off channel=0 note=55 velocity=100 time=250
note_off channel=0 note=58 velocity=100 time=0
note_off channel=0 note=67 velocity=100 time=0
note_on channel=0 note=53 velocity=100 time=0
note_on channel=0 note=57 velocity=100 time=0
note_on channel=0 note=69 velocity=100 time=0
note_on channel=0 note=77 velocity=100 time=0
note_off channel=0 note=53 velocity=100 time=250
note_off channel=0 note=57 velocity=100 time=0
note_off channel=0 note=69 velocity=100 time=0
note_off channel=0 note=72 velocity=100 time=0
note_off channel=0 note=77 velocity=100 time=0
note_on channel=0 note=55 velocity=100 time=0
note_on channel=0 note=61 velocity=100 time=0
note_on channel=0 note=70 velocity=100 time=0
note_off channel=0 note=55 velocity=100 time=250
note_off channel=0 note=61 velocity=100 time=0
note_off channel=0 note=64 velocity=100 time=0
note_off channel=0 note=70 velocity=100 time=0
note_on channel=0 note=60 velocity=100 time=0
note_on channel=0 note=65 velocity=100 time=0
note_on channel=0 note=77 velocity=100 time=0
note_off channel=0 note=60 velocity=100 time=250
note_off channel=0 note=65 velocity=100 time=0
note_on channel=0 note=52 velocity=100 time=0
note_on channel=0 note=55 velocity=100 time=0
note_on channel=0 note=72 velocity=100 time=0
note_on channel=0 note=74 velocity=100 time=0
note_off channel=0 note=52 velocity=100 time=250
note_off channel=0 note=55 velocity=100 time=0
note_off channel=0 note=72 velocity=100 time=0
note_off channel=0 note=77 velocity=100 time=0
note_on channel=0 note=53 velocity=100 time=0
note_on channel=0 note=58 velocity=100 time=0
note_on channel=0 note=66 velocity=100 time=0
note_off channel=0 note=53 velocity=100 time=250
note_off channel=0 note=58 velocity=100 time=0
note_off channel=0 note=66 velocity=100 time=0
note_off channel=0 note=74 velocity=100 time=0
note_on channel=0 note=55 velocity=100 time=0
note_on channel=0 note=60 velocity=100 time=0
note_on channel=0 note=70 velocity=100 time=0
note_on channel=0 note=72 velocity=100 time=0
note_off channel=0 note=55 velocity=100 time=250
note_off channel=0 note=60 velocity=100 time=0
note_off channel=0 note=70 velocity=100 time=0
note_on channel=0 note=48 velocity=100 time=0
note_on channel=0 note=54 velocity=100 time=0
note_on channel=0 note=63 velocity=100 time=0
note_on channel=0 note=69 velocity=100 time=0
note_on channel=0 note=75 velocity=100 time=0
note_off channel=0 note=48 velocity=100 time=250
note_off channel=0 note=54 velocity=100 time=0
note_off channel=0 note=63 velocity=100 time=0
note_off channel=0 note=69 velocity=100 time=0
note_off channel=0 note=75 velocity=100 time=0
note_on channel=0 note=60 velocity=100 time=0
note_on channel=0 note=64 velocity=100 time=0
note_on channel=0 note=76 velocity=100 time=0
note_off channel=0 note=60 velocity=100 time=250
note_off channel=0 note=64 velocity=100 time=0
note_off channel=0 note=76 velocity=100 time=0
note_on channel=0 note=47 velocity=100 time=0
note_on channel=0 note=63 velocity=100 time=0
note_on channel=0 note=69 velocity=100 time=0
note_on channel=0 note=55 velocity=100 time=0
note_on channel=0 note=75 velocity=100 time=0
note_off channel=0 note=47 velocity=100 time=250
note_off channel=0 note=63 velocity=100 time=0
note_off channel=0 note=69 velocity=100 time=0
note_off channel=0 note=72 velocity=100 time=0
note_on channel=0 note=43 velocity=100 time=0
note_on channel=0 note=67 velocity=100 time=0
note_off channel=0 note=43 velocity=100 time=250
note_off channel=0 note=55 velocity=100 time=0
note_off channel=0 note=67 velocity=100 time=0
note_off channel=0 note=75 velocity=100 time=0
note_on channel=0 note=47 velocity=100 time=0
note_on channel=0 note=69 velocity=100 time=0
note_on channel=0 note=72 velocity=100 time=0
note_off channel=0 note=47 velocity=100 time=250
note_off channel=0 note=69 velocity=100 time=0
note_off channel=0 note=72 velocity=100 time=0
note_on channel=0 note=54 velocity=100 time=0
note_on channel=0 note=57 velocity=100 time=0
note_on channel=0 note=63 velocity=100 time=0
note_off channel=0 note=54 velocity=100 time=250
note_off channel=0 note=57 velocity=100 time=0
note_off channel=0 note=63 velocity=100 time=0
note_on channel=0 note=53 velocity=100 time=0
note_on channel=0 note=75 velocity=100 time=0
note_on channel=0 note=60 velocity=100 time=0
note_off channel=0 note=53 velocity=100 time=250
note_off channel=0 note=75 velocity=100 time=0
note_on channel=0 note=70 velocity=100 time=0
note_on channel=0 note=76 velocity=100 time=0
note_on channel=0 note=57 velocity=100 time=0
note_on channel=0 note=72 velocity=100 time=0
note_off channel=0 note=60 velocity=100 time=250
note_off channel=0 note=70 velocity=100 time=0
note_off channel=0 note=76 velocity=100 time=0
note_on channel=0 note=45 velocity=100 time=0
note_on channel=0 note=65 velocity=100 time=0
note_on channel=0 note=77 velocity=100 time=0
note_off channel=0 note=45 velocity=100 time=250
note_off channel=0 note=57 velocity=100 time=0
note_off channel=0 note=65 velocity=100 time=0
note_off channel=0 note=77 velocity=100 time=0
note_on channel=0 note=52 velocity=100 time=0
note_on channel=0 note=58 velocity=100 time=0
note_on channel=0 note=69 velocity=100 time=0
note_off channel=0 note=52 velocity=100 time=250
note_off channel=0 note=58 velocity=100 time=0
note_off channel=0 note=69 velocity=100 time=0
note_on channel=0 note=48 velocity=100 time=0
note_on channel=0 note=60 velocity=100 time=0
note_on channel=0 note=64 velocity=100 time=0
note_on channel=0 note=79 velocity=100 time=0
note_off channel=0 note=48 velocity=100 time=250
note_off channel=0 note=60 velocity=100 time=0
note_off channel=0 note=64 velocity=100 time=0
note_off channel=0 note=72 velocity=100 time=0
note_off channel=0 note=79 velocity=100 time=0
note_on channel=0 note=47 velocity=100 time=0
note_on channel=0 note=59 velocity=100 time=0
note_on channel=0 note=76 velocity=100 time=0
note_off channel=0 note=47 velocity=100 time=250
note_off channel=0 note=59 velocity=100 time=0
note_off channel=0 note=76 velocity=100 time=0
note_on channel=0 note=53 velocity=100 time=0
note_on channel=0 note=55 velocity=100 time=0
note_on channel=0 note=61 velocity=100 time=0
note_on channel=0 note=70 velocity=100 time=0
note_on channel=0 note=77 velocity=100 time=0
note_off channel=0 note=53 velocity=100 time=250
note_off channel=0 note=55 velocity=100 time=0
note_off channel=0 note=61 velocity=100 time=0
note_off channel=0 note=70 velocity=100 time=0
note_off channel=0 note=77 velocity=100 time=0
note_on channel=0 note=48 velocity=100 time=0
note_on channel=0 note=68 velocity=100 time=0
note_on channel=0 note=75 velocity=100 time=0
note_on channel=0 note=72 velocity=100 time=0
note_off channel=0 note=48 velocity=100 time=250
note_off channel=0 note=68 velocity=100 time=0
note_off channel=0 note=75 velocity=100 time=0
note_on channel=0 note=44 velocity=100 time=0
note_on channel=0 note=53 velocity=100 time=0
note_on channel=0 note=56 velocity=100 time=0
note_on channel=0 note=60 velocity=100 time=0
note_on channel=0 note=69 velocity=100 time=0
note_on channel=0 note=77 velocity=100 time=0
note_off channel=0 note=44 velocity=100 time=250
note_off channel=0 note=53 velocity=100 time=0
note_off channel=0 note=56 velocity=100 time=0
note_off channel=0 note=60 velocity=100 time=0
note_off channel=0 note=69 velocity=100 time=0
note_off channel=0 note=77 velocity=100 time=0
note_on channel=0 note=52 velocity=100 time=0
note_on channel=0 note=58 velocity=100 time=0
note_on channel=0 note=76 velocity=100 time=0
note_off channel=0 note=52 velocity=100 time=250
note_off channel=0 note=58 velocity=100 time=0
note_off channel=0 note=72 velocity=100 time=0
note_off channel=0 note=76 velocity=100 time=0
note_on channel=0 note=41 velocity=100 time=0
note_on channel=0 note=60 velocity=100 time=0
note_on channel=0 note=69 velocity=100 time=0
note_on channel=0 note=53 velocity=100 time=0
note_on channel=0 note=65 velocity=100 time=0
note_off channel=0 note=41 velocity=100 time=250
note_off channel=0 note=60 velocity=100 time=0
note_off channel=0 note=69 velocity=100 time=0
note_on channel=0 note=56 velocity=100 time=0
note_on channel=0 note=59 velocity=100 time=0
note_on channel=0 note=71 velocity=100 time=0
note_off channel=0 note=53 velocity=100 time=250
note_off channel=0 note=56 velocity=100 time=0
note_off channel=0 note=59 velocity=100 time=0
note_off channel=0 note=65 velocity=100 time=0
note_off channel=0 note=71 velocity=100 time=0
note_on channel=0 note=52 velocity=100 time=0
note_on channel=0 note=55 velocity=100 time=0
note_on channel=0 note=70 velocity=100 time=0
note_on channel=0 note=74 velocity=100 time=0
note_off channel=0 note=52 velocity=100 time=250
note_off channel=0 note=55 velocity=100 time=0
note_off channel=0 note=70 velocity=100 time=0
note_off channel=0 note=74 velocity=100 time=0
note_on channel=0 note=49 velocity=100 time=0
note_on channel=0 note=53 velocity=100 time=0
note_on channel=0 note=65 velocity=100 time=0
note_off channel=0 note=49 velocity=100 time=250
note_off channel=0 note=53 velocity=100 time=0
note_off channel=0 note=65 velocity=100 time=0
note_on channel=0 note=41 velocity=100 time=0
note_on channel=0 note=51 velocity=100 time=0
note_on channel=0 note=57 velocity=100 time=0
note_on channel=0 note=69 velocity=100 time=0
note_on channel=0 note=75 velocity=100 time=0
note_off channel=0 note=41 velocity=100 time=250
note_off channel=0 note=51 velocity=100 time=0
note_off channel=0 note=57 velocity=100 time=0
note_off channel=0 note=69 velocity=100 time=0
note_off channel=0 note=75 velocity=100 time=0
note_on channel=0 note=43 velocity=100 time=0
note_on channel=0 note=67 velocity=100 time=0
note_on channel=0 note=72 velocity=100 time=0
note_on channel=0 note=76 velocity=100 time=0
note_off channel=0 note=43 velocity=100 time=250
note_off channel=0 note=67 velocity=100 time=0
note_off channel=0 note=72 velocity=100 time=0
note_on channel=0 note=48 velocity=100 time=0
note_off channel=0 note=48 velocity=100 time=250
note_on channel=0 note=44 velocity=100 time=0
note_on channel=0 note=52 velocity=100 time=0
note_on channel=0 note=56 velocity=100 time=0
note_on channel=0 note=65 velocity=100 time=0
note_on channel=0 note=72 velocity=100 time=0
note_off channel=0 note=44 velocity=100 time=250
note_off channel=0 note=52 velocity=100 time=0
note_off channel=0 note=56 velocity=100 time=0
note_off channel=0 note=65 velocity=100 time=0
note_off channel=0 note=76 velocity=100 time=0
note_on channel=0 note=48 velocity=100 time=0
note_off channel=0 note=48 velocity=100 time=250
note_off channel=0 note=72 velocity=100 time=0
note_on channel=0 note=55 velocity=100 time=0
note_on channel=0 note=67 velocity=100 time=0
note_on channel=0 note=73 velocity=100 time=0
note_on channel=0 note=76 velocity=100 time=0
note_off channel=0 note=55 velocity=100 time=250
note_off channel=0 note=67 velocity=100 time=0
note_off channel=0 note=73 velocity=100 time=0
note_off channel=0 note=76 velocity=100 time=0
note_on channel=0 note=42 velocity=100 time=0
note_on channel=0 note=53 velocity=100 time=0
note_on channel=0 note=59 velocity=100 time=0
note_on channel=0 note=69 velocity=100 time=0
note_on channel=0 note=72 velocity=100 time=0
note_on channel=0 note=77 velocity=100 time=0
note_off channel=0 note=42 velocity=100 time=250
note_off channel=0 note=53 velocity=100 time=0
note_off channel=0 note=59 velocity=100 time=0
note_off channel=0 note=69 velocity=100 time=0
note_off channel=0 note=72 velocity=100 time=0
note_off channel=0 note=77 velocity=100 time=0
note_on channel=0 note=48 velocity=100 time=0
note_on channel=0 note=75 velocity=100 time=0
note_off channel=0 note=48 velocity=100 time=250
note_off channel=0 note=75 velocity=100 time=0
note_on channel=0 note=43 velocity=100 time=0
note_on channel=0 note=65 velocity=100 time=0
note_on channel=0 note=72 velocity=100 time=0
note_on channel=0 note=77 velocity=100 time=0
note_off channel=0 note=43 velocity=100 time=250
note_off channel=0 note=65 velocity=100 time=0
note_off channel=0 note=72 velocity=100 time=0
note_off channel=0 note=77 velocity=100 time=0
note_on channel=0 note=56 velocity=100 time=0
note_on channel=0 note=59 velocity=100 time=0
note_on channel=0 note=74 velocity=100 time=0
note_on channel=0 note=76 velocity=100 time=0
note_off channel=0 note=56 velocity=100 time=250
note_off channel=0 note=59 velocity=100 time=0
note_off channel=0 note=74 velocity=100 time=0
note_off channel=0 note=76 velocity=100 time=0
note_on channel=0 note=58 velocity=100 time=0
note_on channel=0 note=62 velocity=100 time=0
note_on channel=0 note=67 velocity=100 time=0
note_on channel=0 note=72 velocity=100 time=0
note_on channel=0 note=53 velocity=100 time=0
note_off channel=0 note=58 velocity=100 time=250
note_off channel=0 note=62 velocity=100 time=0
note_off channel=0 note=67 velocity=100 time=0
note_off channel=0 note=72 velocity=100 time=0
note_on channel=0 note=59 velocity=100 time=0
note_on channel=0 note=68 velocity=100 time=0
note_on channel=0 note=77 velocity=100 time=0
note_on channel=0 note=74 velocity=100 time=0
note_off channel=0 note=53 velocity=100 time=250
note_off channel=0 note=59 velocity=100 time=0
note_off channel=0 note=68 velocity=100 time=0
note_off channel=0 note=77 velocity=100 time=0
note_on channel=0 note=50 velocity=100 time=0
note_on channel=0 note=57 velocity=100 time=0
note_on channel=0 note=69 velocity=100 time=0
note_off channel=0 note=50 velocity=100 time=250
note_off channel=0 note=57 velocity=100 time=0
note_off channel=0 note=74 velocity=100 time=0
note_on channel=0 note=53 velocity=100 time=0
note_on channel=0 note=77 velocity=100 time=0
note_on channel=0 note=72 velocity=100 time=0
note_off channel=0 note=53 velocity=100 time=250
note_off channel=0 note=69 velocity=100 time=0
note_on channel=0 note=50 velocity=100 time=0
note_on channel=0 note=60 velocity=100 time=0
note_off channel=0 note=50 velocity=100 time=250
note_off channel=0 note=60 velocity=100 time=0
note_off channel=0 note=77 velocity=100 time=0
note_on channel=0 note=52 velocity=100 time=0
note_on channel=0 note=57 velocity=100 time=0
note_on channel=0 note=67 velocity=100 time=0
note_off channel=0 note=52 velocity=100 time=250
note_off channel=0 note=57 velocity=100 time=0
note_on channel=0 note=53 velocity=100 time=0
note_on channel=0 note=62 velocity=100 time=0
note_on channel=0 note=75 velocity=100 time=0
note_off channel=0 note=53 velocity=100 time=250
note_off channel=0 note=62 velocity=100 time=0
note_off channel=0 note=67 velocity=100 time=0
note_off channel=0 note=72 velocity=100 time=0
note_off channel=0 note=75 velocity=100 time=0
note_on channel=0 note=48 velocity=100 time=0
note_on channel=0 note=60 velocity=100 time=0
note_on channel=0 note=64 velocity=100 time=0
note_on channel=0 note=74 velocity=100 time=0
note_off channel=0 note=48 velocity=100 time=250
note_off channel=0 note=60 velocity=100 time=0
note_off channel=0 note=64 velocity=100 time=0
note_off channel=0 note=74 velocity=100 time=0
note_on channel=0 note=52 velocity=100 time=0
note_on channel=0 note=72 velocity=100 time=0
note_on channel=0 note=70 velocity=100 time=0
note_on channel=0 note=76 velocity=100 time=0
note_off channel=0 note=52 velocity=100 time=250
note_off channel=0 note=72 velocity=100 time=0
note_on channel=0 note=55 velocity=100 time=0
note_on channel=0 note=59 velocity=100 time=0
note_on channel=0 note=61 velocity=100 time=0
note_off channel=0 note=55 velocity=100 time=250
note_off channel=0 note=59 velocity=100 time=0
note_off channel=0 note=61 velocity=100 time=0
note_off channel=0 note=70 velocity=100 time=0
note_off channel=0 note=76 velocity=100 time=0
note_on channel=0 note=51 velocity=100 time=0
note_on channel=0 note=77 velocity=100 time=0
note_on channel=0 note=72 velocity=100 time=0
note_off channel=0 note=51 velocity=100 time=250
note_off channel=0 note=77 velocity=100 time=0
note_on channel=0 note=52 velocity=100 time=0
note_on channel=0 note=76 velocity=100 time=0
note_on channel=0 note=67 velocity=100 time=0
note_off channel=0 note=52 velocity=100 time=250
note_off channel=0 note=76 velocity=100 time=0
note_on channel=0 note=45 velocity=100 time=0
note_on channel=0 note=55 velocity=100 time=0
note_on channel=0 note=69 velocity=100 time=0
note_off channel=0 note=45 velocity=100 time=250
note_off channel=0 note=55 velocity=100 time=0
note_off channel=0 note=67 velocity=100 time=0
note_off channel=0 note=69 velocity=100 time=0
note_off channel=0 note=72 velocity=100 time=0
note_on channel=0 note=60 velocity=100 time=0
note_on channel=0 note=65 velocity=100 time=0
note_on channel=0 note=76 velocity=100 time=0
note_off channel=0 note=60 velocity=100 time=250
note_off channel=0 note=65 velocity=100 time=0
note_on channel=0 note=52 velocity=100 time=0
note_on channel=0 note=55 velocity=100 time=0
note_on channel=0 note=68 velocity=100 time=0
note_on channel=0 note=70 velocity=100 time=0
note_on channel=0 note=72 velocity=100 time=0
note_off channel=0 note=52 velocity=100 time=250
note_off channel=0 note=55 velocity=100 time=0
note_off channel=0 note=68 velocity=100 time=0
note_off channel=0 note=70 velocity=100 time=0
note_off channel=0 note=72 velocity=100 time=0
note_off channel=0 note=76 velocity=100 time=0
note_on channel=0 note=42 velocity=100 time=0
note_on channel=0 note=67 velocity=100 time=0
note_on channel=0 note=53 velocity=100 time=0
note_off channel=0 note=42 velocity=100 time=250
note_off channel=0 note=67 velocity=100 time=0
note_on channel=0 note=62 velocity=100 time=0
note_on channel=0 note=72 velocity=100 time=0
note_on channel=0 note=74 velocity=100 time=0
note_off channel=0 note=53 velocity=100 time=250
note_off channel=0 note=62 velocity=100 time=0
note_off channel=0 note=72 velocity=100 time=0
note_off channel=0 note=74 velocity=100 time=0
note_on channel=0 note=41 velocity=100 time=0
note_on channel=0 note=57 velocity=100 time=0
note_on channel=0 note=69 velocity=100 time=0
note_off channel=0 note=41 velocity=100 time=250
note_off channel=0 note=57 velocity=100 time=0
note_off channel=0 note=69 velocity=100 time=0
note_on channel=0 note=46 velocity=100 time=0
note_on channel=0 note=55 velocity=100 time=0
note_on channel=0 note=79 velocity=100 time=0
note_on channel=0 note=70 velocity=100 time=0
note_off channel=0 note=46 velocity=100 time=250
note_off channel=0 note=55 velocity=100 time=0
note_off channel=0 note=79 velocity=100 time=0
note_off channel=0 note=70 velocity=100 time=250
note_on channel=0 note=46 velocity=100 time=0
note_on channel=0 note=64 velocity=100 time=0
note_on channel=0 note=67 velocity=100 time=0
note_on channel=0 note=73 velocity=100 time=0
note_on channel=0 note=79 velocity=100 time=0
note_off channel=0 note=46 velocity=100 time=250
note_off channel=0 note=64 velocity=100 time=0
note_off channel=0 note=67 velocity=100 time=0
note_off channel=0 note=73 velocity=100 time=0
note_off channel=0 note=79 velocity=100 time=0
note_on channel=0 note=55 velocity=100 time=0
note_on channel=0 note=58 velocity=100 time=0
note_on channel=0 note=61 velocity=100 time=0
note_on channel=0 note=74 velocity=100 time=0
note_off channel=0 note=55 velocity=100 time=250
note_off channel=0 note=58 velocity=100 time=0
note_off channel=0 note=61 velocity=100 time=0
note_on channel=0 note=43 velocity=100 time=0
note_on channel=0 note=53 velocity=100 time=0
note_on channel=0 note=70 velocity=100 time=0
note_off channel=0 note=43 velocity=100 time=250
note_off channel=0 note=53 velocity=100 time=0
note_off channel=0 note=70 velocity=100 time=0
note_off channel=0 note=74 velocity=100 time=0
note_on channel=0 note=56 velocity=100 time=0
note_on channel=0 note=57 velocity=100 time=0
note_on channel=0 note=64 velocity=100 time=0
note_off channel=0 note=56 velocity=100 time=250
note_off channel=0 note=57 velocity=100 time=0
note_off channel=0 note=64 velocity=100 time=0
note_on channel=0 note=61 velocity=100 time=0
note_on channel=0 note=65 velocity=100 time=0
note_on channel=0 note=71 velocity=100 time=0
note_off channel=0 note=61 velocity=100 time=250
note_on channel=0 note=46 velocity=100 time=0
note_on channel=0 note=56 velocity=100 time=0
note_on channel=0 note=70 velocity=100 time=0
note_on channel=0 note=74 velocity=100 time=0
note_off channel=0 note=46 velocity=100 time=250
note_off channel=0 note=56 velocity=100 time=0
note_off channel=0 note=65 velocity=100 time=0
note_off channel=0 note=70 velocity=100 time=0
note_off channel=0 note=71 velocity=100 time=0
note_on channel=0 note=47 velocity=100 time=0
note_on channel=0 note=62 velocity=100 time=0
note_on channel=0 note=55 velocity=100 time=0
note_off channel=0 note=47 velocity=100 time=250
note_off channel=0 note=62 velocity=100 time=0
note_off channel=0 note=74 velocity=100 time=0
note_on channel=0 note=46 velocity=100 time=0
note_on channel=0 note=72 velocity=100 time=0
note_on channel=0 note=76 velocity=100 time=0
note_off channel=0 note=46 velocity=100 time=250
note_off channel=0 note=55 velocity=100 time=0
note_off channel=0 note=72 velocity=100 time=0
note_off channel=0 note=76 velocity=100 time=0
note_on channel=0 note=56 velocity=100 time=0
note_on channel=0 note=62 velocity=100 time=0
note_on channel=0 note=68 velocity=100 time=0
note_on channel=0 note=73 velocity=100 time=0
note_on channel=0 note=77 velocity=100 time=0
note_off channel=0 note=56 velocity=100 time=250
note_off channel=0 note=62 velocity=100 time=0
note_off channel=0 note=68 velocity=100 time=0
note_off channel=0 note=73 velocity=100 time=0
note_off channel=0 note=77 velocity=100 time=0
note_on channel=0 note=52 velocity=100 time=0
note_on channel=0 note=67 velocity=100 time=0
note_on channel=0 note=69 velocity=100 time=0
note_on channel=0 note=72 velocity=100 time=0
note_off channel=0 note=52 velocity=100 time=250
note_off channel=0 note=67 velocity=100 time=0
note_off channel=0 note=69 velocity=100 time=0
note_off channel=0 note=72 velocity=100 time=0
note_on channel=0 note=36 velocity=100 time=0
note_on channel=0 note=55 velocity=100 time=0
note_on channel=0 note=61 velocity=100 time=0
note_on channel=0 note=70 velocity=100 time=0
note_on channel=0 note=73 velocity=100 time=0
note_off channel=0 note=36 velocity=100 time=250
note_off channel=0 note=55 velocity=100 time=0
note_off channel=0 note=61 velocity=100 time=0
note_off channel=0 note=70 velocity=100 time=0
note_off channel=0 note=73 velocity=100 time=0
note_on channel=0 note=75 velocity=100 time=0
note_off channel=0 note=75 velocity=100 time=250
note_on channel=0 note=55 velocity=100 time=0
note_on channel=0 note=68 velocity=100 time=0
note_on channel=0 note=74 velocity=100 time=0
note_off channel=0 note=55 velocity=100 time=250
note_off channel=0 note=68 velocity=100 time=0
note_on channel=0 note=43 velocity=100 time=0
note_on channel=0 note=67 velocity=100 time=0
note_on channel=0 note=70 velocity=100 time=0
note_off channel=0 note=43 velocity=100 time=250
note_off channel=0 note=67 velocity=100 time=0
note_off channel=0 note=70 velocity=100 time=0
note_off channel=0 note=74 velocity=100 time=0
note_on channel=0 note=48 velocity=100 time=0
note_on channel=0 note=60 velocity=100 time=0
note_on channel=0 note=65 velocity=100 time=0
note_on channel=0 note=55 velocity=100 time=0
note_off channel=0 note=48 velocity=100 time=250
note_off channel=0 note=60 velocity=100 time=0
note_off channel=0 note=65 velocity=100 time=0
note_on channel=0 note=61 velocity=100 time=0
note_on channel=0 note=64 velocity=100 time=0
note_on channel=0 note=70 velocity=100 time=0
note_off channel=0 note=61 velocity=100 time=250
note_off channel=0 note=64 velocity=100 time=0
note_on channel=0 note=58 velocity=100 time=0
note_on channel=0 note=76 velocity=100 time=0
note_off channel=0 note=55 velocity=100 time=250
note_off channel=0 note=58 velocity=100 time=0
note_off channel=0 note=70 velocity=100 time=0
note_off channel=0 note=76 velocity=100 time=0
note_on channel=0 note=52 velocity=100 time=0
note_on channel=0 note=68 velocity=100 time=0
note_off channel=0 note=52 velocity=100 time=250
note_off channel=0 note=68 velocity=100 time=0
note_on channel=0 note=42 velocity=100 time=0
note_on channel=0 note=53 velocity=100 time=0
note_on channel=0 note=63 velocity=100 time=0
note_on channel=0 note=70 velocity=100 time=0
note_off channel=0 note=42 velocity=100 time=250
note_off channel=0 note=53 velocity=100 time=0
note_off channel=0 note=63 velocity=100 time=0
note_off channel=0 note=70 velocity=100 time=0
note_on channel=0 note=52 velocity=100 time=0
note_on channel=0 note=69 velocity=100 time=0
note_on channel=0 note=81 velocity=100 time=0
note_off channel=0 note=52 velocity=100 time=250
note_off channel=0 note=69 velocity=100 time=0
note_off channel=0 note=81 velocity=100 time=0
note_on channel=0 note=42 velocity=100 time=0
note_on channel=0 note=58 velocity=100 time=0
note_on channel=0 note=70 velocity=100 time=0
note_on channel=0 note=53 velocity=100 time=0
note_on channel=0 note=74 velocity=100 time=0
note_off channel=0 note=42 velocity=100 time=250
note_off channel=0 note=58 velocity=100 time=0
note_off channel=0 note=70 velocity=100 time=0
note_on channel=0 note=40 velocity=100 time=0
note_on channel=0 note=65 velocity=100 time=0
note_off channel=0 note=40 velocity=100 time=250
note_off channel=0 note=53 velocity=100 time=0
note_on channel=0 note=43 velocity=100 time=0
note_on channel=0 note=71 velocity=100 time=0
note_on channel=0 note=52 velocity=100 time=0
note_off channel=0 note=43 velocity=100 time=250
note_off channel=0 note=71 velocity=100 time=0
note_off channel=0 note=74 velocity=100 time=0
note_on channel=0 note=55 velocity=100 time=0
note_on channel=0 note=70 velocity=100 time=0
note_on channel=0 note=73 velocity=100 time=0
note_off channel=0 note=52 velocity=100 time=250
note_off channel=0 note=55 velocity=100 time=0
note_off channel=0 note=65 velocity=100 time=0
note_off channel=0 note=70 velocity=100 time=0
note_off channel=0 note=73 velocity=100 time=0
note_on channel=0 note=48 velocity=100 time=0
note_on channel=0 note=64 velocity=100 time=0
note_off channel=0 note=48 velocity=100 time=250
note_on channel=0 note=50 velocity=100 time=0
note_on channel=0 note=65 velocity=100 time=0
note_on channel=0 note=70 velocity=100 time=0
note_off channel=0 note=50 velocity=100 time=250
note_off channel=0 note=65 velocity=100 time=0
note_off channel=0 note=70 velocity=100 time=0
note_on channel=0 note=36 velocity=100 time=0
note_on channel=0 note=72 velocity=100 time=0
note_on channel=0 note=77 velocity=100 time=0
note_off channel=0 note=36 velocity=100 time=250
note_off channel=0 note=72 velocity=100 time=0
note_off channel=0 note=77 velocity=100 time=0
note_on channel=0 note=43 velocity=100 time=0
note_on channel=0 note=73 velocity=100 time=0
note_off channel=0 note=43 velocity=100 time=250
note_off channel=0 note=64 velocity=100 time=0
note_off channel=0 note=73 velocity=100 time=0
note_on channel=0 note=58 velocity=100 time=0
note_on channel=0 note=69 velocity=100 time=0
note_on channel=0 note=70 velocity=100 time=0
note_on channel=0 note=53 velocity=100 time=0
note_off channel=0 note=58 velocity=100 time=250
note_off channel=0 note=69 velocity=100 time=0
note_off channel=0 note=70 velocity=100 time=0
note_on channel=0 note=41 velocity=100 time=0
note_on channel=0 note=65 velocity=100 time=0
note_on channel=0 note=79 velocity=100 time=0
note_off channel=0 note=41 velocity=100 time=250
note_off channel=0 note=53 velocity=100 time=0
note_off channel=0 note=65 velocity=100 time=0
note_off channel=0 note=79 velocity=100 time=0
note_on channel=0 note=55 velocity=100 time=0
note_on channel=0 note=71 velocity=100 time=0
note_on channel=0 note=76 velocity=100 time=0
note_off channel=0 note=55 velocity=100 time=250
note_off channel=0 note=71 velocity=100 time=0
note_off channel=0 note=76 velocity=100 time=0
note_on channel=0 note=40 velocity=100 time=0
note_on channel=0 note=74 velocity=100 time=0
note_on channel=0 note=65 velocity=100 time=0
note_off channel=0 note=40 velocity=100 time=250
note_off channel=0 note=74 velocity=100 time=0
note_on channel=0 note=69 velocity=100 time=0
note_on channel=0 note=81 velocity=100 time=0
note_off channel=0 note=65 velocity=100 time=250
note_off channel=0 note=69 velocity=100 time=0
note_off channel=0 note=81 velocity=100 time=0
note_on channel=0 note=74 velocity=100 time=0
note_on channel=0 note=77 velocity=100 time=0
note_off channel=0 note=74 velocity=100 time=250
note_off channel=0 note=77 velocity=100 time=0
note_on channel=0 note=58 velocity=100 time=0
note_on channel=0 note=67 velocity=100 time=0
note_on channel=0 note=81 velocity=100 time=0
note_off channel=0 note=58 velocity=100 time=250
note_off channel=0 note=67 velocity=100 time=0
note_off channel=0 note=81 velocity=100 time=0
note_on channel=0 note=50 velocity=100 time=0
note_on channel=0 note=64 velocity=100 time=0
note_on channel=0 note=74 velocity=100 time=0
note_on channel=0 note=77 velocity=100 time=0
note_off channel=0 note=50 velocity=100 time=250
note_off channel=0 note=64 velocity=100 time=0
note_off channel=0 note=74 velocity=100 time=0
note_off channel=0 note=77 velocity=100 time=250
note_on channel=0 note=46 velocity=100 time=0
note_on channel=0 note=55 velocity=100 time=0
note_on channel=0 note=65 velocity=100 time=0
note_on channel=0 note=70 velocity=100 time=0
note_off channel=0 note=46 velocity=100 time=250
note_off channel=0 note=55 velocity=100 time=0
note_on channel=0 note=57 velocity=100 time=0
note_on channel=0 note=62 velocity=100 time=0
note_on channel=0 note=74 velocity=100 time=0
note_off channel=0 note=57 velocity=100 time=250
note_off channel=0 note=62 velocity=100 time=0
note_off channel=0 note=65 velocity=100 time=0
note_off channel=0 note=74 velocity=100 time=0
note_on channel=0 note=46 velocity=100 time=0
note_on channel=0 note=55 velocity=100 time=0
note_on channel=0 note=77 velocity=100 time=0
note_off channel=0 note=46 velocity=100 time=250
note_off channel=0 note=55 velocity=100 time=0
note_off channel=0 note=70 velocity=100 time=0
note_off channel=0 note=77 velocity=100 time=0
note_on channel=0 note=65 velocity=100 time=0
note_on channel=0 note=71 velocity=100 time=0
note_off channel=0 note=65 velocity=100 time=250
note_off channel=0 note=71 velocity=100 time=0
note_on channel=0 note=43 velocity=100 time=0
note_on channel=0 note=55 velocity=100 time=0
note_on channel=0 note=67 velocity=100 time=0
note_on channel=0 note=73 velocity=100 time=0
note_off channel=0 note=43 velocity=100 time=250
note_off channel=0 note=55 velocity=100 time=0
note_off channel=0 note=67 velocity=100 time=0
note_off channel=0 note=73 velocity=100 time=0
note_on channel=0 note=49 velocity=100 time=0
note_on channel=0 note=53 velocity=100 time=0
note_off channel=0 note=49 velocity=100 time=250
note_off channel=0 note=53 velocity=100 time=0
note_on channel=0 note=36 velocity=100 time=0
note_on channel=0 note=48 velocity=100 time=0
note_on channel=0 note=60 velocity=100 time=0
note_on channel=0 note=67 velocity=100 time=0
note_on channel=0 note=76 velocity=100 time=0
note_off channel=0 note=36 velocity=100 time=250
note_off channel=0 note=48 velocity=100 time=0
note_off channel=0 note=60 velocity=100 time=0
note_off channel=0 note=67 velocity=100 time=0
note_off channel=0 note=76 velocity=100 time=0
note_on channel=0 note=45 velocity=100 time=0
note_on channel=0 note=57 velocity=100 time=0
note_on channel=0 note=69 velocity=100 time=0
note_on channel=0 note=70 velocity=100 time=0
note_on channel=0 note=73 velocity=100 time=0
note_off channel=0 note=45 velocity=100 time=250
note_off channel=0 note=57 velocity=100 time=0
note_off channel=0 note=69 velocity=100 time=0
note_off channel=0 note=70 velocity=100 time=0
note_off channel=0 note=73 velocity=100 time=0
note_on channel=0 note=65 velocity=100 time=0
note_on channel=0 note=77 velocity=100 time=0
note_on channel=0 note=48 velocity=100 time=0
note_off channel=0 note=65 velocity=100 time=250
note_off channel=0 note=77 velocity=100 time=0
note_on channel=0 note=57 velocity=100 time=0
note_on channel=0 note=69 velocity=100 time=0
note_on channel=0 note=75 velocity=100 time=0
note_off channel=0 note=48 velocity=100 time=250
note_off channel=0 note=57 velocity=100 time=0
note_off channel=0 note=69 velocity=100 time=0
note_off channel=0 note=75 velocity=100 time=0
note_on channel=0 note=37 velocity=100 time=0
note_on channel=0 note=49 velocity=100 time=0
note_on channel=0 note=70 velocity=100 time=0
note_on channel=0 note=64 velocity=100 time=0
note_off channel=0 note=37 velocity=100 time=250
note_off channel=0 note=49 velocity=100 time=0
note_off channel=0 note=70 velocity=100 time=0
note_on channel=0 note=43 velocity=100 time=0
note_on channel=0 note=52 velocity=100 time=0
note_on channel=0 note=57 velocity=100 time=0
note_on channel=0 note=61 velocity=100 time=0
note_on channel=0 note=78 velocity=100 time=0
note_off channel=0 note=43 velocity=100 time=250
note_off channel=0 note=52 velocity=100 time=0
note_off channel=0 note=57 velocity=100 time=0
note_off channel=0 note=61 velocity=100 time=0
note_off channel=0 note=64 velocity=100 time=0
note_off channel=0 note=78 velocity=100 time=0
note_on channel=0 note=51 velocity=100 time=0
note_on channel=0 note=63 velocity=100 time=0
note_on channel=0 note=75 velocity=100 time=0
note_off channel=0 note=51 velocity=100 time=250
note_off channel=0 note=63 velocity=100 time=0
note_off channel=0 note=75 velocity=100 time=0
note_on channel=0 note=73 velocity=100 time=0
note_off channel=0 note=73 velocity=100 time=250
note_on channel=0 note=41 velocity=100 time=0
note_on channel=0 note=53 velocity=100 time=0
note_on channel=0 note=72 velocity=100 time=0
note_on channel=0 note=77 velocity=100 time=0
note_off channel=0 note=41 velocity=100 time=250
note_off channel=0 note=53 velocity=100 time=0
note_off channel=0 note=72 velocity=100 time=0
note_on channel=0 note=62 velocity=100 time=0
note_on channel=0 note=65 velocity=100 time=0
note_on channel=0 note=70 velocity=100 time=0
note_on channel=0 note=46 velocity=100 time=0
note_off channel=0 note=62 velocity=100 time=250
note_off channel=0 note=65 velocity=100 time=0
note_off channel=0 note=70 velocity=100 time=0
note_off channel=0 note=77 velocity=100 time=0
note_on channel=0 note=55 velocity=100 time=0
note_on channel=0 note=79 velocity=100 time=0
note_off channel=0 note=55 velocity=100 time=250
note_off channel=0 note=79 velocity=100 time=0
note_on channel=0 note=77 velocity=100 time=0
note_on channel=0 note=70 velocity=100 time=0
note_off channel=0 note=46 velocity=100 time=250
note_off channel=0 note=77 velocity=100 time=0
note_on channel=0 note=47 velocity=100 time=0
note_on channel=0 note=55 velocity=100 time=0
note_on channel=0 note=56 velocity=100 time=0
note_on channel=0 note=62 velocity=100 time=0
note_on channel=0 note=68 velocity=100 time=0
note_off channel=0 note=47 velocity=100 time=250
note_off channel=0 note=55 velocity=100 time=0
note_off channel=0 note=56 velocity=100 time=0
note_off channel=0 note=62 velocity=100 time=0
note_off channel=0 note=68 velocity=100 time=0
note_on channel=0 note=58 velocity=100 time=0
note_on channel=0 note=67 velocity=100 time=0
note_on channel=0 note=74 velocity=100 time=0
note_on channel=0 note=46 velocity=100 time=0
note_off channel=0 note=58 velocity=100 time=250
note_off channel=0 note=67 velocity=100 time=0
note_off channel=0 note=70 velocity=100 time=0
note_off channel=0 note=74 velocity=100 time=0
note_on channel=0 note=55 velocity=100 time=0
note_on channel=0 note=77 velocity=100 time=0
note_on channel=0 note=65 velocity=100 time=0
note_off channel=0 note=46 velocity=100 time=250
note_off channel=0 note=55 velocity=100 time=0
note_off channel=0 note=77 velocity=100 time=0
note_on channel=0 note=41 velocity=100 time=0
note_on channel=0 note=67 velocity=100 time=0
note_off channel=0 note=41 velocity=100 time=250
note_off channel=0 note=65 velocity=100 time=0
note_off channel=0 note=67 velocity=100 time=0
note_on channel=0 note=57 velocity=100 time=0
note_on channel=0 note=66 velocity=100 time=0
note_off channel=0 note=57 velocity=100 time=250
note_off channel=0 note=66 velocity=100 time=0
note_on channel=0 note=46 velocity=100 time=0
note_on channel=0 note=55 velocity=100 time=0
note_on channel=0 note=61 velocity=100 time=0
note_on channel=0 note=68 velocity=100 time=0
note_on channel=0 note=73 velocity=100 time=0
note_on channel=0 note=77 velocity=100 time=0
note_off channel=0 note=46 velocity=100 time=250
note_off channel=0 note=55 velocity=100 time=0
note_off channel=0 note=61 velocity=100 time=0
note_off channel=0 note=68 velocity=100 time=0
note_off channel=0 note=73 velocity=100 time=0
note_off channel=0 note=77 velocity=100 time=0
note_on channel=0 note=48 velocity=100 time=0
note_off channel=0 note=48 velocity=100 time=250
note_on channel=0 note=77 velocity=100 time=0
note_on channel=0 note=46 velocity=100 time=0
note_on channel=0 note=70 velocity=100 time=0
note_on channel=0 note=56 velocity=100 time=250
note_on channel=0 note=65 velocity=100 time=0
note_on channel=0 note=68 velocity=100 time=0
note_off channel=0 note=56 velocity=100 time=250
note_off channel=0 note=65 velocity=100 time=0
note_off channel=0 note=68 velocity=100 time=0
note_off channel=0 note=77 velocity=100 time=0
note_on channel=0 note=53 velocity=100 time=0
note_on channel=0 note=67 velocity=100 time=0
note_on channel=0 note=79 velocity=100 time=0
note_on channel=0 note=62 velocity=100 time=0
note_off channel=0 note=46 velocity=100 time=250
note_off channel=0 note=53 velocity=100 time=0
note_off channel=0 note=67 velocity=100 time=0
note_off channel=0 note=70 velocity=100 time=0
note_off channel=0 note=79 velocity=100 time=0
note_on channel=0 note=48 velocity=100 time=0
note_on channel=0 note=58 velocity=100 time=0
note_off channel=0 note=48 velocity=100 time=250
note_off channel=0 note=58 velocity=100 time=0
note_off channel=0 note=62 velocity=100 time=0
note_on channel=0 note=55 velocity=100 time=0
note_on channel=0 note=65 velocity=100 time=0
note_on channel=0 note=70 velocity=100 time=0
note_on channel=0 note=75 velocity=100 time=0
note_on channel=0 note=79 velocity=100 time=0
note_off channel=0 note=55 velocity=100 time=250
note_off channel=0 note=65 velocity=100 time=0
note_off channel=0 note=70 velocity=100 time=0
note_off channel=0 note=75 velocity=100 time=0
note_off channel=0 note=79 velocity=100 time=0
note_on channel=0 note=68 velocity=100 time=0
note_on channel=0 note=71 velocity=100 time=0
note_on channel=0 note=74 velocity=100 time=0
note_off channel=0 note=68 velocity=100 time=250
note_off channel=0 note=71 velocity=100 time=0
note_off channel=0 note=74 velocity=100 time=0
note_on channel=0 note=46 velocity=100 time=0
note_on channel=0 note=54 velocity=100 time=0
note_on channel=0 note=78 velocity=100 time=0
note_off channel=0 note=46 velocity=100 time=250
note_off channel=0 note=54 velocity=100 time=0
note_off channel=0 note=78 velocity=100 time=0
note_on channel=0 note=44 velocity=100 time=0
note_on channel=0 note=68 velocity=100 time=0
note_on channel=0 note=72 velocity=100 time=0
note_on channel=0 note=75 velocity=100 time=0
note_off channel=0 note=44 velocity=100 time=250
note_off channel=0 note=68 velocity=100 time=0
note_off channel=0 note=72 velocity=100 time=0
note_off channel=0 note=75 velocity=100 time=0
note_on channel=0 note=36 velocity=100 time=0
note_on channel=0 note=46 velocity=100 time=0
note_on channel=0 note=56 velocity=100 time=0
note_off channel=0 note=36 velocity=100 time=250
note_off channel=0 note=46 velocity=100 time=0
note_off channel=0 note=56 velocity=100 time=0
note_on channel=0 note=38 velocity=100 time=0
note_on channel=0 note=68 velocity=100 time=0
note_on channel=0 note=50 velocity=100 time=0
note_on channel=0 note=65 velocity=100 time=0
note_off channel=0 note=38 velocity=100 time=250
note_off channel=0 note=68 velocity=100 time=0
note_on channel=0 note=46 velocity=100 time=0
note_on channel=0 note=74 velocity=100 time=0
note_on channel=0 note=78 velocity=100 time=0
note_on channel=0 note=72 velocity=100 time=0
note_off channel=0 note=46 velocity=100 time=250
note_off channel=0 note=50 velocity=100 time=0
note_off channel=0 note=65 velocity=100 time=0
note_off channel=0 note=74 velocity=100 time=0
note_off channel=0 note=78 velocity=100 time=0
note_on channel=0 note=48 velocity=100 time=0
note_on channel=0 note=76 velocity=100 time=0
note_on channel=0 note=67 velocity=100 time=0
note_off channel=0 note=48 velocity=100 time=250
note_off channel=0 note=76 velocity=100 time=0
note_on channel=0 note=46 velocity=100 time=0
note_off channel=0 note=46 velocity=100 time=250
note_off channel=0 note=67 velocity=100 time=0
note_off channel=0 note=72 velocity=100 time=0
note_on channel=0 note=40 velocity=100 time=0
note_on channel=0 note=74 velocity=100 time=0
note_on channel=0 note=70 velocity=100 time=0
note_off channel=0 note=40 velocity=100 time=250
note_off channel=0 note=74 velocity=100 time=0
note_on channel=0 note=32 velocity=100 time=0
note_on channel=0 note=44 velocity=100 time=0
note_on channel=0 note=77 velocity=100 time=0
note_off channel=0 note=32 velocity=100 time=250
note_off channel=0 note=44 velocity=100 time=0
note_off channel=0 note=70 velocity=100 time=0
note_off channel=0 note=77 velocity=100 time=0
note_on channel=0 note=48 velocity=100 time=0
note_on channel=0 note=72 velocity=100 time=0
note_on channel=0 note=46 velocity=100 time=0
note_off channel=0 note=48 velocity=100 time=250
note_off channel=0 note=72 velocity=100 time=0
note_on channel=0 note=73 velocity=100 time=0
note_on channel=0 note=76 velocity=100 time=0
note_off channel=0 note=46 velocity=100 time=250
note_off channel=0 note=73 velocity=100 time=0
note_off channel=0 note=76 velocity=100 time=0
note_on channel=0 note=44 velocity=100 time=0
note_on channel=0 note=53 velocity=100 time=0
note_off channel=0 note=44 velocity=100 time=250
note_off channel=0 note=53 velocity=100 time=0
note_on channel=0 note=48 velocity=100 time=0
note_on channel=0 note=60 velocity=100 time=0
note_on channel=0 note=65 velocity=100 time=0
note_on channel=0 note=77 velocity=100 time=0
note_off channel=0 note=48 velocity=100 time=250
note_off channel=0 note=60 velocity=100 time=0
note_off channel=0 note=65 velocity=100 time=0
note_off channel=0 note=77 velocity=100 time=0
<meta message end_of_track time=5>
/home/ghales/git/tg-server/output/preprocessed/baseline/polyphony_rnn/polyphony_rnn/2021-09-07_182715_1.mid
Length: 128005 ticks = 128.005 beats = 32.00125 bars
Tracks: 1
Time Signature: <meta message time_signature numerator=4 denominator=4 clocks_per_click=24 notated_32nd_notes_per_beat=8 time=0>
Track 0: 
ticks_per_beat: 1000
<meta message set_tempo tempo=1000000 time=0>
<meta message time_signature numerator=4 denominator=4 clocks_per_click=24 notated_32nd_notes_per_beat=8 time=0>
<meta message set_tempo tempo=1000000 time=0>
program_change channel=0 program=0 time=0
<meta message text text='' time=5>
note_on channel=0 note=77 velocity=100 time=495
note_on channel=0 note=81 velocity=100 time=0
note_on channel=0 note=60 velocity=100 time=500
note_on channel=0 note=60 velocity=100 time=0
note_on channel=0 note=76 velocity=100 time=0
note_on channel=0 note=48 velocity=100 time=0
note_on channel=0 note=67 velocity=100 time=0
note_off channel=0 note=60 velocity=100 time=500
note_off channel=0 note=60 velocity=100 time=0
note_off channel=0 note=77 velocity=100 time=0
note_off channel=0 note=81 velocity=100 time=0
note_on channel=0 note=79 velocity=100 time=0
note_on channel=0 note=62 velocity=100 time=0
note_on channel=0 note=62 velocity=100 time=0
note_on channel=0 note=76 velocity=100 time=0
note_off channel=0 note=76 velocity=100 time=250
note_off channel=0 note=79 velocity=100 time=0
note_on channel=0 note=74 velocity=100 time=0
note_on channel=0 note=77 velocity=100 time=0
note_off channel=0 note=48 velocity=100 time=250
note_off channel=0 note=62 velocity=100 time=0
note_off channel=0 note=62 velocity=100 time=0
note_off channel=0 note=67 velocity=100 time=0
note_off channel=0 note=74 velocity=100 time=0
note_off channel=0 note=76 velocity=100 time=0
note_off channel=0 note=77 velocity=100 time=0
note_on channel=0 note=76 velocity=100 time=0
note_on channel=0 note=79 velocity=100 time=0
note_on channel=0 note=60 velocity=100 time=0
note_on channel=0 note=64 velocity=100 time=0
note_on channel=0 note=67 velocity=100 time=0
note_on channel=0 note=64 velocity=100 time=0
note_on channel=0 note=72 velocity=100 time=0
note_off channel=0 note=76 velocity=100 time=500
note_off channel=0 note=79 velocity=100 time=0
note_on channel=0 note=48 velocity=100 time=0
note_on channel=0 note=60 velocity=100 time=0
note_on channel=0 note=64 velocity=100 time=0
note_on channel=0 note=67 velocity=100 time=0
note_off channel=0 note=48 velocity=100 time=250
note_off channel=0 note=60 velocity=100 time=0
note_off channel=0 note=64 velocity=100 time=0
note_off channel=0 note=67 velocity=100 time=0
note_on channel=0 note=48 velocity=100 time=0
note_on channel=0 note=60 velocity=100 time=0
note_on channel=0 note=64 velocity=100 time=0
note_on channel=0 note=67 velocity=100 time=0
note_off channel=0 note=48 velocity=100 time=250
note_off channel=0 note=60 velocity=100 time=0
note_off channel=0 note=60 velocity=100 time=0
note_off channel=0 note=64 velocity=100 time=0
note_off channel=0 note=64 velocity=100 time=0
note_off channel=0 note=64 velocity=100 time=0
note_off channel=0 note=67 velocity=100 time=0
note_off channel=0 note=67 velocity=100 time=0
note_off channel=0 note=72 velocity=100 time=0
note_on channel=0 note=48 velocity=100 time=0
note_on channel=0 note=64 velocity=100 time=0
note_on channel=0 note=67 velocity=100 time=0
note_on channel=0 note=72 velocity=100 time=0
note_on channel=0 note=67 velocity=100 time=0
note_on channel=0 note=59 velocity=100 time=0
note_on channel=0 note=62 velocity=100 time=0
note_on channel=0 note=62 velocity=100 time=0
note_on channel=0 note=74 velocity=100 time=0
note_off channel=0 note=48 velocity=100 time=250
note_off channel=0 note=64 velocity=100 time=0
note_off channel=0 note=67 velocity=100 time=0
note_off channel=0 note=72 velocity=100 time=0
note_on channel=0 note=48 velocity=100 time=0
note_on channel=0 note=64 velocity=100 time=0
note_on channel=0 note=72 velocity=100 time=0
note_on channel=0 note=67 velocity=100 time=0
note_off channel=0 note=48 velocity=100 time=250
note_off channel=0 note=64 velocity=100 time=0
note_off channel=0 note=67 velocity=100 time=0
note_off channel=0 note=72 velocity=100 time=0
note_on channel=0 note=48 velocity=100 time=0
note_on channel=0 note=72 velocity=100 time=0
note_on channel=0 note=76 velocity=100 time=0
note_on channel=0 note=67 velocity=100 time=0
note_off channel=0 note=48 velocity=100 time=250
note_off channel=0 note=67 velocity=100 time=0
note_off channel=0 note=72 velocity=100 time=0
note_off channel=0 note=76 velocity=100 time=0
note_on channel=0 note=48 velocity=100 time=0
note_on channel=0 note=67 velocity=100 time=0
note_on channel=0 note=72 velocity=100 time=0
note_on channel=0 note=76 velocity=100 time=0
note_off channel=0 note=48 velocity=100 time=250
note_off channel=0 note=59 velocity=100 time=0
note_off channel=0 note=62 velocity=100 time=0
note_off channel=0 note=62 velocity=100 time=0
note_off channel=0 note=67 velocity=100 time=0
note_off channel=0 note=67 velocity=100 time=0
note_off channel=0 note=72 velocity=100 time=0
note_off channel=0 note=74 velocity=100 time=0
note_off channel=0 note=76 velocity=100 time=0
note_on channel=0 note=48 velocity=100 time=0
note_on channel=0 note=72 velocity=100 time=0
note_on channel=0 note=76 velocity=100 time=0
note_on channel=0 note=79 velocity=100 time=0
note_on channel=0 note=60 velocity=100 time=0
note_on channel=0 note=58 velocity=100 time=0
note_on channel=0 note=60 velocity=100 time=0
note_on channel=0 note=67 velocity=100 time=0
note_on channel=0 note=76 velocity=100 time=0
note_off channel=0 note=48 velocity=100 time=500
note_off channel=0 note=72 velocity=100 time=0
note_off channel=0 note=76 velocity=100 time=0
note_off channel=0 note=79 velocity=100 time=0
note_on channel=0 note=48 velocity=100 time=0
note_on channel=0 note=60 velocity=100 time=0
note_on channel=0 note=77 velocity=100 time=0
note_on channel=0 note=81 velocity=100 time=0
note_off channel=0 note=48 velocity=100 time=250
note_off channel=0 note=60 velocity=100 time=0
note_on channel=0 note=48 velocity=100 time=0
note_on channel=0 note=60 velocity=100 time=0
note_off channel=0 note=48 velocity=100 time=250
note_off channel=0 note=58 velocity=100 time=0
note_off channel=0 note=60 velocity=100 time=0
note_off channel=0 note=60 velocity=100 time=0
note_off channel=0 note=60 velocity=100 time=0
note_off channel=0 note=67 velocity=100 time=0
note_off channel=0 note=76 velocity=100 time=0
note_on channel=0 note=48 velocity=100 time=0
note_on channel=0 note=60 velocity=100 time=0
note_on channel=0 note=60 velocity=100 time=0
note_on channel=0 note=65 velocity=100 time=0
note_on channel=0 note=60 velocity=100 time=0
note_on channel=0 note=57 velocity=100 time=0
note_on channel=0 note=77 velocity=100 time=0
note_off channel=0 note=48 velocity=100 time=250
note_off channel=0 note=60 velocity=100 time=0
note_on channel=0 note=48 velocity=100 time=0
note_on channel=0 note=60 velocity=100 time=0
note_off channel=0 note=48 velocity=100 time=250
note_off channel=0 note=60 velocity=100 time=0
note_off channel=0 note=65 velocity=100 time=0
note_off channel=0 note=77 velocity=100 time=0
note_off channel=0 note=81 velocity=100 time=0
note_on channel=0 note=48 velocity=100 time=0
note_on channel=0 note=76 velocity=100 time=0
note_on channel=0 note=79 velocity=100 time=0
note_on channel=0 note=60 velocity=100 time=0
note_on channel=0 note=67 velocity=100 time=0
note_off channel=0 note=48 velocity=100 time=250
note_off channel=0 note=60 velocity=100 time=0
note_off channel=0 note=76 velocity=100 time=0
note_off channel=0 note=79 velocity=100 time=0
note_on channel=0 note=48 velocity=100 time=0
note_on channel=0 note=60 velocity=100 time=0
note_on channel=0 note=74 velocity=100 time=0
note_on channel=0 note=77 velocity=100 time=0
note_off channel=0 note=48 velocity=100 time=250
note_off channel=0 note=57 velocity=100 time=0
note_off channel=0 note=60 velocity=100 time=0
note_off channel=0 note=60 velocity=100 time=0
note_off channel=0 note=60 velocity=100 time=0
note_off channel=0 note=67 velocity=100 time=0
note_off channel=0 note=74 velocity=100 time=0
note_off channel=0 note=77 velocity=100 time=0
note_on channel=0 note=55 velocity=100 time=0
note_on channel=0 note=48 velocity=100 time=0
note_on channel=0 note=65 velocity=100 time=0
note_on channel=0 note=65 velocity=100 time=0
note_on channel=0 note=69 velocity=100 time=0
note_on channel=0 note=72 velocity=100 time=0
note_on channel=0 note=76 velocity=100 time=0
note_on channel=0 note=79 velocity=100 time=0
note_off channel=0 note=55 velocity=100 time=500
note_on channel=0 note=53 velocity=100 time=0
note_off channel=0 note=48 velocity=100 time=500
note_off channel=0 note=53 velocity=100 time=0
note_off channel=0 note=65 velocity=100 time=0
note_off channel=0 note=65 velocity=100 time=0
note_off channel=0 note=69 velocity=100 time=0
note_off channel=0 note=72 velocity=100 time=0
note_off channel=0 note=76 velocity=100 time=0
note_off channel=0 note=77 velocity=100 time=0
note_off channel=0 note=79 velocity=100 time=0
note_on channel=0 note=58 velocity=100 time=0
note_on channel=0 note=65 velocity=100 time=0
note_on channel=0 note=65 velocity=100 time=0
note_on channel=0 note=70 velocity=100 time=0
note_on channel=0 note=74 velocity=100 time=0
note_off channel=0 note=58 velocity=100 time=1000
note_off channel=0 note=65 velocity=100 time=0
note_off channel=0 note=65 velocity=100 time=0
note_off channel=0 note=70 velocity=100 time=0
note_off channel=0 note=74 velocity=100 time=0
note_on channel=0 note=54 velocity=100 time=0
note_on channel=0 note=57 velocity=100 time=0
note_on channel=0 note=62 velocity=100 time=0
note_on channel=0 note=69 velocity=100 time=0
note_on channel=0 note=74 velocity=100 time=0
note_off channel=0 note=54 velocity=100 time=1000
note_off channel=0 note=57 velocity=100 time=0
note_off channel=0 note=62 velocity=100 time=0
note_off channel=0 note=69 velocity=100 time=0
note_off channel=0 note=74 velocity=100 time=0
note_on channel=0 note=55 velocity=100 time=0
note_on channel=0 note=59 velocity=100 time=0
note_on channel=0 note=62 velocity=100 time=0
note_on channel=0 note=67 velocity=100 time=0
note_on channel=0 note=74 velocity=100 time=0
note_off channel=0 note=55 velocity=100 time=500
note_on channel=0 note=53 velocity=100 time=0
note_off channel=0 note=53 velocity=100 time=500
note_off channel=0 note=59 velocity=100 time=0
note_off channel=0 note=62 velocity=100 time=0
note_off channel=0 note=67 velocity=100 time=0
note_off channel=0 note=74 velocity=100 time=0
note_on channel=0 note=64 velocity=100 time=0
note_on channel=0 note=52 velocity=100 time=0
note_on channel=0 note=60 velocity=100 time=0
note_on channel=0 note=67 velocity=100 time=0
note_on channel=0 note=72 velocity=100 time=0
note_off channel=0 note=64 velocity=100 time=500
note_on channel=0 note=65 velocity=100 time=0
note_off channel=0 note=65 velocity=100 time=250
note_on channel=0 note=67 velocity=100 time=0
note_off channel=0 note=52 velocity=100 time=250
note_off channel=0 note=60 velocity=100 time=0
note_off channel=0 note=67 velocity=100 time=0
note_off channel=0 note=67 velocity=100 time=0
note_off channel=0 note=72 velocity=100 time=0
note_on channel=0 note=65 velocity=100 time=0
note_on channel=0 note=65 velocity=100 time=0
note_on channel=0 note=53 velocity=100 time=0
note_on channel=0 note=69 velocity=100 time=0
note_on channel=0 note=72 velocity=100 time=0
note_off channel=0 note=65 velocity=100 time=500
note_off channel=0 note=65 velocity=100 time=0
note_on channel=0 note=64 velocity=100 time=0
note_on channel=0 note=64 velocity=100 time=0
note_off channel=0 note=53 velocity=100 time=500
note_off channel=0 note=64 velocity=100 time=0
note_off channel=0 note=64 velocity=100 time=0
note_off channel=0 note=69 velocity=100 time=0
note_off channel=0 note=72 velocity=100 time=0
note_on channel=0 note=55 velocity=100 time=0
note_on channel=0 note=62 velocity=100 time=0
note_on channel=0 note=62 velocity=100 time=0
note_on channel=0 note=67 velocity=100 time=0
note_on channel=0 note=71 velocity=100 time=0
note_off channel=0 note=55 velocity=100 time=1000
note_off channel=0 note=62 velocity=100 time=0
note_off channel=0 note=62 velocity=100 time=0
note_off channel=0 note=67 velocity=100 time=0
note_off channel=0 note=71 velocity=100 time=0
note_on channel=0 note=48 velocity=100 time=0
note_on channel=0 note=64 velocity=100 time=0
note_on channel=0 note=64 velocity=100 time=0
note_on channel=0 note=67 velocity=100 time=0
note_on channel=0 note=72 velocity=100 time=0
note_off channel=0 note=48 velocity=100 time=3000
note_off channel=0 note=64 velocity=100 time=0
note_off channel=0 note=64 velocity=100 time=0
note_off channel=0 note=67 velocity=100 time=0
note_off channel=0 note=72 velocity=100 time=0
note_on channel=0 note=59 velocity=100 time=4000
note_on channel=0 note=67 velocity=100 time=0
note_on channel=0 note=71 velocity=100 time=0
note_on channel=0 note=76 velocity=100 time=0
note_on channel=0 note=79 velocity=100 time=0
note_on channel=0 note=43 velocity=100 time=0
note_on channel=0 note=48 velocity=100 time=0
note_on channel=0 note=72 velocity=100 time=0
note_on channel=0 note=74 velocity=100 time=0
note_off channel=0 note=59 velocity=100 time=500
note_off channel=0 note=67 velocity=100 time=0
note_off channel=0 note=71 velocity=100 time=0
note_off channel=0 note=76 velocity=100 time=0
note_off channel=0 note=79 velocity=100 time=0
note_on channel=0 note=57 velocity=100 time=0
note_on channel=0 note=66 velocity=100 time=0
note_on channel=0 note=72 velocity=100 time=0
note_on channel=0 note=77 velocity=100 time=0
note_on channel=0 note=81 velocity=100 time=0
note_off channel=0 note=43 velocity=100 time=500
note_off channel=0 note=48 velocity=100 time=0
note_off channel=0 note=57 velocity=100 time=0
note_off channel=0 note=66 velocity=100 time=0
note_off channel=0 note=72 velocity=100 time=0
note_off channel=0 note=72 velocity=100 time=0
note_off channel=0 note=74 velocity=100 time=0
note_on channel=0 note=55 velocity=100 time=0
note_on channel=0 note=59 velocity=100 time=0
note_on channel=0 note=71 velocity=100 time=0
note_on channel=0 note=74 velocity=100 time=0
note_on channel=0 note=67 velocity=100 time=0
note_off channel=0 note=55 velocity=100 time=500
note_off channel=0 note=59 velocity=100 time=0
note_off channel=0 note=71 velocity=100 time=0
note_off channel=0 note=77 velocity=100 time=0
note_off channel=0 note=81 velocity=100 time=0
note_on channel=0 note=76 velocity=100 time=0
note_on channel=0 note=79 velocity=100 time=0
note_on channel=0 note=54 velocity=100 time=0
note_on channel=0 note=57 velocity=100 time=0
note_on channel=0 note=69 velocity=100 time=0
note_off channel=0 note=76 velocity=100 time=250
note_off channel=0 note=79 velocity=100 time=0
note_on channel=0 note=74 velocity=100 time=0
note_on channel=0 note=77 velocity=100 time=0
note_off channel=0 note=54 velocity=100 time=250
note_off channel=0 note=57 velocity=100 time=0
note_off channel=0 note=69 velocity=100 time=0
note_off channel=0 note=74 velocity=100 time=0
note_off channel=0 note=74 velocity=100 time=0
note_off channel=0 note=77 velocity=100 time=0
note_on channel=0 note=55 velocity=100 time=0
note_on channel=0 note=59 velocity=100 time=0
note_on channel=0 note=76 velocity=100 time=0
note_on channel=0 note=79 velocity=100 time=0
note_on channel=0 note=67 velocity=100 time=0
note_on channel=0 note=74 velocity=100 time=0
note_off channel=0 note=55 velocity=100 time=500
note_off channel=0 note=59 velocity=100 time=0
note_off channel=0 note=67 velocity=100 time=0
note_off channel=0 note=76 velocity=100 time=0
note_off channel=0 note=79 velocity=100 time=0
note_on channel=0 note=48 velocity=100 time=0
note_on channel=0 note=60 velocity=100 time=0
note_on channel=0 note=64 velocity=100 time=0
note_on channel=0 note=57 velocity=100 time=0
note_on channel=0 note=60 velocity=100 time=0
note_on channel=0 note=66 velocity=100 time=0
note_on channel=0 note=67 velocity=100 time=0
note_off channel=0 note=48 velocity=100 time=250
note_off channel=0 note=60 velocity=100 time=0
note_off channel=0 note=64 velocity=100 time=0
note_off channel=0 note=67 velocity=100 time=0
note_on channel=0 note=48 velocity=100 time=0
note_on channel=0 note=60 velocity=100 time=0
note_on channel=0 note=64 velocity=100 time=0
note_on channel=0 note=67 velocity=100 time=0
note_off channel=0 note=48 velocity=100 time=250
note_off channel=0 note=57 velocity=100 time=0
note_off channel=0 note=60 velocity=100 time=0
note_off channel=0 note=60 velocity=100 time=0
note_off channel=0 note=64 velocity=100 time=0
note_off channel=0 note=66 velocity=100 time=0
note_off channel=0 note=67 velocity=100 time=0
note_off channel=0 note=67 velocity=100 time=0
note_off channel=0 note=74 velocity=100 time=0
note_on channel=0 note=48 velocity=100 time=0
note_on channel=0 note=64 velocity=100 time=0
note_on channel=0 note=67 velocity=100 time=0
note_on channel=0 note=72 velocity=100 time=0
note_on channel=0 note=59 velocity=100 time=0
note_on channel=0 note=67 velocity=100 time=0
note_on channel=0 note=62 velocity=100 time=0
note_on channel=0 note=62 velocity=100 time=0
note_on channel=0 note=74 velocity=100 time=0
note_off channel=0 note=48 velocity=100 time=250
note_off channel=0 note=64 velocity=100 time=0
note_off channel=0 note=67 velocity=100 time=0
note_off channel=0 note=72 velocity=100 time=0
note_on channel=0 note=48 velocity=100 time=0
note_on channel=0 note=64 velocity=100 time=0
note_on channel=0 note=72 velocity=100 time=0
note_on channel=0 note=67 velocity=100 time=0
note_off channel=0 note=48 velocity=100 time=250
note_off channel=0 note=59 velocity=100 time=0
note_off channel=0 note=64 velocity=100 time=0
note_off channel=0 note=67 velocity=100 time=0
note_off channel=0 note=72 velocity=100 time=0
note_on channel=0 note=48 velocity=100 time=0
note_on channel=0 note=72 velocity=100 time=0
note_on channel=0 note=76 velocity=100 time=0
note_on channel=0 note=55 velocity=100 time=0
note_on channel=0 note=67 velocity=100 time=0
note_off channel=0 note=48 velocity=100 time=250
note_off channel=0 note=67 velocity=100 time=0
note_off channel=0 note=72 velocity=100 time=0
note_off channel=0 note=76 velocity=100 time=0
note_on channel=0 note=48 velocity=100 time=0
note_on channel=0 note=67 velocity=100 time=0
note_on channel=0 note=72 velocity=100 time=0
note_on channel=0 note=76 velocity=100 time=0
note_off channel=0 note=48 velocity=100 time=250
note_off channel=0 note=55 velocity=100 time=0
note_off channel=0 note=62 velocity=100 time=0
note_off channel=0 note=62 velocity=100 time=0
note_off channel=0 note=67 velocity=100 time=0
note_off channel=0 note=67 velocity=100 time=0
note_off channel=0 note=72 velocity=100 time=0
note_off channel=0 note=74 velocity=100 time=0
note_off channel=0 note=76 velocity=100 time=0
note_on channel=0 note=48 velocity=100 time=0
note_on channel=0 note=60 velocity=100 time=0
note_on channel=0 note=72 velocity=100 time=0
note_on channel=0 note=76 velocity=100 time=0
note_on channel=0 note=79 velocity=100 time=0
note_on channel=0 note=60 velocity=100 time=0
note_on channel=0 note=60 velocity=100 time=0
note_on channel=0 note=67 velocity=100 time=0
note_on channel=0 note=76 velocity=100 time=0
note_off channel=0 note=48 velocity=100 time=500
note_off channel=0 note=60 velocity=100 time=0
note_off channel=0 note=72 velocity=100 time=0
note_off channel=0 note=76 velocity=100 time=0
note_off channel=0 note=79 velocity=100 time=0
note_on channel=0 note=48 velocity=100 time=0
note_on channel=0 note=58 velocity=100 time=0
note_on channel=0 note=60 velocity=100 time=0
note_on channel=0 note=77 velocity=100 time=0
note_on channel=0 note=81 velocity=100 time=0
note_off channel=0 note=48 velocity=100 time=250
note_off channel=0 note=60 velocity=100 time=0
note_on channel=0 note=48 velocity=100 time=0
note_on channel=0 note=60 velocity=100 time=0
note_off channel=0 note=48 velocity=100 time=250
note_off channel=0 note=58 velocity=100 time=0
note_off channel=0 note=60 velocity=100 time=0
note_off channel=0 note=60 velocity=100 time=0
note_off channel=0 note=60 velocity=100 time=0
note_off channel=0 note=67 velocity=100 time=0
note_off channel=0 note=76 velocity=100 time=0
note_on channel=0 note=48 velocity=100 time=0
note_on channel=0 note=60 velocity=100 time=0
note_on channel=0 note=60 velocity=100 time=0
note_on channel=0 note=58 velocity=100 time=0
note_on channel=0 note=67 velocity=100 time=0
note_on channel=0 note=53 velocity=100 time=0
note_on channel=0 note=72 velocity=100 time=0
note_off channel=0 note=48 velocity=100 time=250
note_off channel=0 note=60 velocity=100 time=0
note_on channel=0 note=48 velocity=100 time=0
note_on channel=0 note=60 velocity=100 time=0
note_off channel=0 note=48 velocity=100 time=250
note_off channel=0 note=60 velocity=100 time=0
note_off channel=0 note=77 velocity=100 time=0
note_off channel=0 note=81 velocity=100 time=0
note_on channel=0 note=48 velocity=100 time=0
note_on channel=0 note=76 velocity=100 time=0
note_on channel=0 note=79 velocity=100 time=0
note_on channel=0 note=60 velocity=100 time=0
note_off channel=0 note=48 velocity=100 time=250
note_off channel=0 note=60 velocity=100 time=0
note_off channel=0 note=76 velocity=100 time=0
note_off channel=0 note=79 velocity=100 time=0
note_on channel=0 note=48 velocity=100 time=0
note_on channel=0 note=60 velocity=100 time=0
note_on channel=0 note=74 velocity=100 time=0
note_on channel=0 note=77 velocity=100 time=0
note_off channel=0 note=48 velocity=100 time=250
note_off channel=0 note=58 velocity=100 time=0
note_off channel=0 note=60 velocity=100 time=0
note_off channel=0 note=60 velocity=100 time=0
note_off channel=0 note=67 velocity=100 time=0
note_off channel=0 note=74 velocity=100 time=0
note_off channel=0 note=77 velocity=100 time=0
note_on channel=0 note=57 velocity=100 time=0
note_on channel=0 note=65 velocity=100 time=0
note_on channel=0 note=48 velocity=100 time=0
note_on channel=0 note=65 velocity=100 time=0
note_on channel=0 note=72 velocity=100 time=0
note_on channel=0 note=76 velocity=100 time=0
note_on channel=0 note=79 velocity=100 time=0
note_off channel=0 note=57 velocity=100 time=500
note_off channel=0 note=65 velocity=100 time=0
note_on channel=0 note=55 velocity=100 time=0
note_on channel=0 note=64 velocity=100 time=0
note_off channel=0 note=48 velocity=100 time=500
note_off channel=0 note=53 velocity=100 time=0
note_off channel=0 note=55 velocity=100 time=0
note_off channel=0 note=64 velocity=100 time=0
note_off channel=0 note=65 velocity=100 time=0
note_off channel=0 note=72 velocity=100 time=0
note_off channel=0 note=72 velocity=100 time=0
note_off channel=0 note=76 velocity=100 time=0
note_off channel=0 note=79 velocity=100 time=0
note_on channel=0 note=53 velocity=100 time=0
note_on channel=0 note=57 velocity=100 time=0
note_on channel=0 note=65 velocity=100 time=0
note_on channel=0 note=69 velocity=100 time=0
note_on channel=0 note=72 velocity=100 time=0
note_off channel=0 note=53 velocity=100 time=1000
note_off channel=0 note=57 velocity=100 time=0
note_off channel=0 note=65 velocity=100 time=0
note_off channel=0 note=69 velocity=100 time=0
note_off channel=0 note=72 velocity=100 time=0
note_on channel=0 note=52 velocity=100 time=0
note_on channel=0 note=64 velocity=100 time=0
note_on channel=0 note=67 velocity=100 time=0
note_on channel=0 note=67 velocity=100 time=0
note_on channel=0 note=72 velocity=100 time=0
note_off channel=0 note=52 velocity=100 time=500
note_on channel=0 note=53 velocity=100 time=0
note_off channel=0 note=53 velocity=100 time=500
note_off channel=0 note=64 velocity=100 time=0
note_off channel=0 note=67 velocity=100 time=0
note_off channel=0 note=67 velocity=100 time=0
note_off channel=0 note=72 velocity=100 time=0
note_on channel=0 note=67 velocity=100 time=0
note_on channel=0 note=67 velocity=100 time=0
note_on channel=0 note=55 velocity=100 time=0
note_on channel=0 note=62 velocity=100 time=0
note_on channel=0 note=71 velocity=100 time=0
note_off channel=0 note=67 velocity=100 time=500
note_off channel=0 note=67 velocity=100 time=0
note_on channel=0 note=65 velocity=100 time=0
note_on channel=0 note=65 velocity=100 time=0
note_off channel=0 note=55 velocity=100 time=500
note_off channel=0 note=62 velocity=100 time=0
note_off channel=0 note=65 velocity=100 time=0
note_off channel=0 note=65 velocity=100 time=0
note_off channel=0 note=71 velocity=100 time=0
note_on channel=0 note=57 velocity=100 time=0
note_on channel=0 note=64 velocity=100 time=0
note_on channel=0 note=64 velocity=100 time=0
note_on channel=0 note=72 velocity=100 time=0
note_on channel=0 note=60 velocity=100 time=0
note_off channel=0 note=57 velocity=100 time=500
note_on channel=0 note=55 velocity=100 time=0
note_off channel=0 note=55 velocity=100 time=500
note_off channel=0 note=64 velocity=100 time=0
note_off channel=0 note=64 velocity=100 time=0
note_off channel=0 note=72 velocity=100 time=0
note_on channel=0 note=65 velocity=100 time=0
note_on channel=0 note=53 velocity=100 time=0
note_on channel=0 note=69 velocity=100 time=0
note_on channel=0 note=74 velocity=100 time=0
note_off channel=0 note=65 velocity=100 time=500
note_on channel=0 note=64 velocity=100 time=0
note_off channel=0 note=53 velocity=100 time=500
note_off channel=0 note=60 velocity=100 time=0
note_off channel=0 note=64 velocity=100 time=0
note_off channel=0 note=69 velocity=100 time=0
note_off channel=0 note=74 velocity=100 time=0
note_on channel=0 note=55 velocity=100 time=0
note_on channel=0 note=62 velocity=100 time=0
note_on channel=0 note=67 velocity=100 time=0
note_on channel=0 note=59 velocity=100 time=0
note_on channel=0 note=74 velocity=100 time=0
note_off channel=0 note=55 velocity=100 time=500
note_off channel=0 note=62 velocity=100 time=0
note_off channel=0 note=67 velocity=100 time=0
note_on channel=0 note=43 velocity=100 time=0
note_on channel=0 note=65 velocity=100 time=0
note_on channel=0 note=67 velocity=100 time=0
note_off channel=0 note=43 velocity=100 time=500
note_off channel=0 note=59 velocity=100 time=0
note_off channel=0 note=65 velocity=100 time=0
note_off channel=0 note=67 velocity=100 time=0
note_off channel=0 note=74 velocity=100 time=0
note_on channel=0 note=48 velocity=100 time=0
note_on channel=0 note=55 velocity=100 time=0
note_on channel=0 note=64 velocity=100 time=0
note_on channel=0 note=67 velocity=100 time=0
note_on channel=0 note=72 velocity=100 time=0
note_off channel=0 note=48 velocity=100 time=3000
note_off channel=0 note=55 velocity=100 time=0
note_off channel=0 note=64 velocity=100 time=0
note_off channel=0 note=67 velocity=100 time=0
note_off channel=0 note=72 velocity=100 time=0
note_on channel=0 note=76 velocity=100 time=4000
note_on channel=0 note=79 velocity=100 time=0
note_on channel=0 note=48 velocity=100 time=0
note_on channel=0 note=48 velocity=100 time=0
note_on channel=0 note=60 velocity=100 time=0
note_on channel=0 note=60 velocity=100 time=0
note_on channel=0 note=67 velocity=100 time=0
note_on channel=0 note=72 velocity=100 time=0
note_on channel=0 note=76 velocity=100 time=0
note_off channel=0 note=76 velocity=100 time=500
note_off channel=0 note=79 velocity=100 time=0
note_on channel=0 note=77 velocity=100 time=0
note_on channel=0 note=81 velocity=100 time=0
note_off channel=0 note=48 velocity=100 time=500
note_off channel=0 note=48 velocity=100 time=0
note_off channel=0 note=60 velocity=100 time=0
note_off channel=0 note=60 velocity=100 time=0
note_off channel=0 note=67 velocity=100 time=0
note_off channel=0 note=72 velocity=100 time=0
note_off channel=0 note=76 velocity=100 time=0
note_on channel=0 note=60 velocity=100 time=0
note_on channel=0 note=60 velocity=100 time=0
note_on channel=0 note=76 velocity=100 time=0
note_on channel=0 note=48 velocity=100 time=0
note_on channel=0 note=67 velocity=100 time=0
note_off channel=0 note=60 velocity=100 time=500
note_off channel=0 note=60 velocity=100 time=0
note_off channel=0 note=77 velocity=100 time=0
note_off channel=0 note=81 velocity=100 time=0
note_on channel=0 note=79 velocity=100 time=0
note_on channel=0 note=62 velocity=100 time=0
note_on channel=0 note=62 velocity=100 time=0
note_on channel=0 note=76 velocity=100 time=0
note_off channel=0 note=76 velocity=100 time=250
note_off channel=0 note=79 velocity=100 time=0
note_on channel=0 note=74 velocity=100 time=0
note_on channel=0 note=77 velocity=100 time=0
note_off channel=0 note=48 velocity=100 time=250
note_off channel=0 note=62 velocity=100 time=0
note_off channel=0 note=62 velocity=100 time=0
note_off channel=0 note=67 velocity=100 time=0
note_off channel=0 note=74 velocity=100 time=0
note_off channel=0 note=76 velocity=100 time=0
note_off channel=0 note=77 velocity=100 time=0
note_on channel=0 note=76 velocity=100 time=0
note_on channel=0 note=79 velocity=100 time=0
note_on channel=0 note=60 velocity=100 time=0
note_on channel=0 note=64 velocity=100 time=0
note_on channel=0 note=67 velocity=100 time=0
note_on channel=0 note=64 velocity=100 time=0
note_on channel=0 note=72 velocity=100 time=0
note_off channel=0 note=76 velocity=100 time=500
note_off channel=0 note=79 velocity=100 time=0
note_on channel=0 note=48 velocity=100 time=0
note_on channel=0 note=60 velocity=100 time=0
note_on channel=0 note=64 velocity=100 time=0
note_on channel=0 note=67 velocity=100 time=0
note_off channel=0 note=48 velocity=100 time=250
note_off channel=0 note=60 velocity=100 time=0
note_off channel=0 note=64 velocity=100 time=0
note_off channel=0 note=67 velocity=100 time=0
note_on channel=0 note=48 velocity=100 time=0
note_on channel=0 note=60 velocity=100 time=0
note_on channel=0 note=64 velocity=100 time=0
note_on channel=0 note=67 velocity=100 time=0
note_off channel=0 note=48 velocity=100 time=250
note_off channel=0 note=60 velocity=100 time=0
note_off channel=0 note=60 velocity=100 time=0
note_off channel=0 note=64 velocity=100 time=0
note_off channel=0 note=64 velocity=100 time=0
note_off channel=0 note=64 velocity=100 time=0
note_off channel=0 note=67 velocity=100 time=0
note_off channel=0 note=67 velocity=100 time=0
note_off channel=0 note=72 velocity=100 time=0
note_on channel=0 note=48 velocity=100 time=0
note_on channel=0 note=64 velocity=100 time=0
note_on channel=0 note=67 velocity=100 time=0
note_on channel=0 note=72 velocity=100 time=0
note_on channel=0 note=67 velocity=100 time=0
note_on channel=0 note=59 velocity=100 time=0
note_on channel=0 note=62 velocity=100 time=0
note_on channel=0 note=62 velocity=100 time=0
note_on channel=0 note=74 velocity=100 time=0
note_off channel=0 note=48 velocity=100 time=250
note_off channel=0 note=64 velocity=100 time=0
note_off channel=0 note=67 velocity=100 time=0
note_off channel=0 note=72 velocity=100 time=0
note_on channel=0 note=48 velocity=100 time=0
note_on channel=0 note=64 velocity=100 time=0
note_on channel=0 note=72 velocity=100 time=0
note_on channel=0 note=67 velocity=100 time=0
note_off channel=0 note=48 velocity=100 time=250
note_off channel=0 note=64 velocity=100 time=0
note_off channel=0 note=67 velocity=100 time=0
note_off channel=0 note=72 velocity=100 time=0
note_on channel=0 note=48 velocity=100 time=0
note_on channel=0 note=72 velocity=100 time=0
note_on channel=0 note=76 velocity=100 time=0
note_on channel=0 note=67 velocity=100 time=0
note_off channel=0 note=48 velocity=100 time=250
note_off channel=0 note=67 velocity=100 time=0
note_off channel=0 note=72 velocity=100 time=0
note_off channel=0 note=76 velocity=100 time=0
note_on channel=0 note=48 velocity=100 time=0
note_on channel=0 note=67 velocity=100 time=0
note_on channel=0 note=72 velocity=100 time=0
note_on channel=0 note=76 velocity=100 time=0
note_off channel=0 note=48 velocity=100 time=250
note_off channel=0 note=59 velocity=100 time=0
note_off channel=0 note=62 velocity=100 time=0
note_off channel=0 note=62 velocity=100 time=0
note_off channel=0 note=67 velocity=100 time=0
note_off channel=0 note=67 velocity=100 time=0
note_off channel=0 note=72 velocity=100 time=0
note_off channel=0 note=74 velocity=100 time=0
note_off channel=0 note=76 velocity=100 time=0
note_on channel=0 note=48 velocity=100 time=0
note_on channel=0 note=72 velocity=100 time=0
note_on channel=0 note=76 velocity=100 time=0
note_on channel=0 note=79 velocity=100 time=0
note_on channel=0 note=60 velocity=100 time=0
note_on channel=0 note=58 velocity=100 time=0
note_on channel=0 note=60 velocity=100 time=0
note_on channel=0 note=67 velocity=100 time=0
note_on channel=0 note=76 velocity=100 time=0
note_off channel=0 note=48 velocity=100 time=500
note_off channel=0 note=72 velocity=100 time=0
note_off channel=0 note=76 velocity=100 time=0
note_off channel=0 note=79 velocity=100 time=0
note_on channel=0 note=48 velocity=100 time=0
note_on channel=0 note=60 velocity=100 time=0
note_on channel=0 note=77 velocity=100 time=0
note_on channel=0 note=81 velocity=100 time=0
note_off channel=0 note=48 velocity=100 time=250
note_off channel=0 note=60 velocity=100 time=0
note_on channel=0 note=48 velocity=100 time=0
note_on channel=0 note=60 velocity=100 time=0
note_off channel=0 note=48 velocity=100 time=250
note_off channel=0 note=58 velocity=100 time=0
note_off channel=0 note=60 velocity=100 time=0
note_off channel=0 note=60 velocity=100 time=0
note_off channel=0 note=60 velocity=100 time=0
note_off channel=0 note=67 velocity=100 time=0
note_off channel=0 note=76 velocity=100 time=0
note_on channel=0 note=48 velocity=100 time=0
note_on channel=0 note=60 velocity=100 time=0
note_on channel=0 note=60 velocity=100 time=0
note_on channel=0 note=65 velocity=100 time=0
note_on channel=0 note=60 velocity=100 time=0
note_on channel=0 note=57 velocity=100 time=0
note_on channel=0 note=77 velocity=100 time=0
note_off channel=0 note=48 velocity=100 time=250
note_off channel=0 note=60 velocity=100 time=0
note_on channel=0 note=48 velocity=100 time=0
note_on channel=0 note=60 velocity=100 time=0
note_off channel=0 note=48 velocity=100 time=250
note_off channel=0 note=60 velocity=100 time=0
note_off channel=0 note=65 velocity=100 time=0
note_off channel=0 note=77 velocity=100 time=0
note_off channel=0 note=81 velocity=100 time=0
note_on channel=0 note=48 velocity=100 time=0
note_on channel=0 note=76 velocity=100 time=0
note_on channel=0 note=79 velocity=100 time=0
note_on channel=0 note=60 velocity=100 time=0
note_on channel=0 note=67 velocity=100 time=0
note_off channel=0 note=48 velocity=100 time=250
note_off channel=0 note=60 velocity=100 time=0
note_off channel=0 note=76 velocity=100 time=0
note_off channel=0 note=79 velocity=100 time=0
note_on channel=0 note=48 velocity=100 time=0
note_on channel=0 note=60 velocity=100 time=0
note_on channel=0 note=74 velocity=100 time=0
note_on channel=0 note=77 velocity=100 time=0
note_off channel=0 note=48 velocity=100 time=250
note_off channel=0 note=57 velocity=100 time=0
note_off channel=0 note=60 velocity=100 time=0
note_off channel=0 note=60 velocity=100 time=0
note_off channel=0 note=60 velocity=100 time=0
note_off channel=0 note=67 velocity=100 time=0
note_off channel=0 note=74 velocity=100 time=0
note_off channel=0 note=77 velocity=100 time=0
note_on channel=0 note=55 velocity=100 time=0
note_on channel=0 note=48 velocity=100 time=0
note_on channel=0 note=65 velocity=100 time=0
note_on channel=0 note=65 velocity=100 time=0
note_on channel=0 note=69 velocity=100 time=0
note_on channel=0 note=72 velocity=100 time=0
note_on channel=0 note=76 velocity=100 time=0
note_on channel=0 note=79 velocity=100 time=0
note_off channel=0 note=55 velocity=100 time=500
note_on channel=0 note=53 velocity=100 time=0
note_off channel=0 note=48 velocity=100 time=500
note_off channel=0 note=53 velocity=100 time=0
note_off channel=0 note=65 velocity=100 time=0
note_off channel=0 note=65 velocity=100 time=0
note_off channel=0 note=69 velocity=100 time=0
note_off channel=0 note=72 velocity=100 time=0
note_off channel=0 note=76 velocity=100 time=0
note_off channel=0 note=77 velocity=100 time=0
note_off channel=0 note=79 velocity=100 time=0
note_on channel=0 note=58 velocity=100 time=0
note_on channel=0 note=65 velocity=100 time=0
note_on channel=0 note=65 velocity=100 time=0
note_on channel=0 note=70 velocity=100 time=0
note_on channel=0 note=74 velocity=100 time=0
note_off channel=0 note=58 velocity=100 time=1000
note_off channel=0 note=65 velocity=100 time=0
note_off channel=0 note=65 velocity=100 time=0
note_off channel=0 note=70 velocity=100 time=0
note_off channel=0 note=74 velocity=100 time=0
note_on channel=0 note=54 velocity=100 time=0
note_on channel=0 note=57 velocity=100 time=0
note_on channel=0 note=62 velocity=100 time=0
note_on channel=0 note=69 velocity=100 time=0
note_on channel=0 note=74 velocity=100 time=0
note_off channel=0 note=54 velocity=100 time=1000
note_off channel=0 note=57 velocity=100 time=0
note_off channel=0 note=62 velocity=100 time=0
note_off channel=0 note=69 velocity=100 time=0
note_off channel=0 note=74 velocity=100 time=0
note_on channel=0 note=55 velocity=100 time=0
note_on channel=0 note=59 velocity=100 time=0
note_on channel=0 note=62 velocity=100 time=0
note_on channel=0 note=67 velocity=100 time=0
note_on channel=0 note=74 velocity=100 time=0
note_off channel=0 note=55 velocity=100 time=500
note_on channel=0 note=53 velocity=100 time=0
note_off channel=0 note=53 velocity=100 time=500
note_off channel=0 note=59 velocity=100 time=0
note_off channel=0 note=62 velocity=100 time=0
note_off channel=0 note=67 velocity=100 time=0
note_off channel=0 note=74 velocity=100 time=0
note_on channel=0 note=64 velocity=100 time=0
note_on channel=0 note=52 velocity=100 time=0
note_on channel=0 note=60 velocity=100 time=0
note_on channel=0 note=67 velocity=100 time=0
note_on channel=0 note=72 velocity=100 time=0
note_off channel=0 note=64 velocity=100 time=500
note_on channel=0 note=65 velocity=100 time=0
note_off channel=0 note=65 velocity=100 time=250
note_on channel=0 note=67 velocity=100 time=0
note_off channel=0 note=52 velocity=100 time=250
note_off channel=0 note=60 velocity=100 time=0
note_off channel=0 note=67 velocity=100 time=0
note_off channel=0 note=67 velocity=100 time=0
note_off channel=0 note=72 velocity=100 time=0
note_on channel=0 note=65 velocity=100 time=0
note_on channel=0 note=65 velocity=100 time=0
note_on channel=0 note=53 velocity=100 time=0
note_on channel=0 note=69 velocity=100 time=0
note_on channel=0 note=72 velocity=100 time=0
note_off channel=0 note=65 velocity=100 time=500
note_off channel=0 note=65 velocity=100 time=0
note_on channel=0 note=64 velocity=100 time=0
note_on channel=0 note=64 velocity=100 time=0
note_off channel=0 note=53 velocity=100 time=500
note_off channel=0 note=64 velocity=100 time=0
note_off channel=0 note=64 velocity=100 time=0
note_off channel=0 note=69 velocity=100 time=0
note_off channel=0 note=72 velocity=100 time=0
note_on channel=0 note=55 velocity=100 time=0
note_on channel=0 note=62 velocity=100 time=0
note_on channel=0 note=62 velocity=100 time=0
note_on channel=0 note=67 velocity=100 time=0
note_on channel=0 note=71 velocity=100 time=0
note_off channel=0 note=55 velocity=100 time=1000
note_off channel=0 note=62 velocity=100 time=0
note_off channel=0 note=62 velocity=100 time=0
note_off channel=0 note=67 velocity=100 time=0
note_off channel=0 note=71 velocity=100 time=0
note_on channel=0 note=48 velocity=100 time=0
note_on channel=0 note=64 velocity=100 time=0
note_on channel=0 note=64 velocity=100 time=0
note_on channel=0 note=67 velocity=100 time=0
note_on channel=0 note=72 velocity=100 time=0
note_off channel=0 note=48 velocity=100 time=3000
note_off channel=0 note=64 velocity=100 time=0
note_off channel=0 note=64 velocity=100 time=0
note_off channel=0 note=67 velocity=100 time=0
note_off channel=0 note=72 velocity=100 time=0
note_on channel=0 note=59 velocity=100 time=4000
note_on channel=0 note=67 velocity=100 time=0
note_on channel=0 note=71 velocity=100 time=0
note_on channel=0 note=76 velocity=100 time=0
note_on channel=0 note=79 velocity=100 time=0
note_on channel=0 note=43 velocity=100 time=0
note_on channel=0 note=48 velocity=100 time=0
note_on channel=0 note=72 velocity=100 time=0
note_on channel=0 note=74 velocity=100 time=0
note_off channel=0 note=59 velocity=100 time=500
note_off channel=0 note=67 velocity=100 time=0
note_off channel=0 note=71 velocity=100 time=0
note_off channel=0 note=76 velocity=100 time=0
note_off channel=0 note=79 velocity=100 time=0
note_on channel=0 note=57 velocity=100 time=0
note_on channel=0 note=66 velocity=100 time=0
note_on channel=0 note=72 velocity=100 time=0
note_on channel=0 note=77 velocity=100 time=0
note_on channel=0 note=81 velocity=100 time=0
note_off channel=0 note=43 velocity=100 time=500
note_off channel=0 note=48 velocity=100 time=0
note_off channel=0 note=57 velocity=100 time=0
note_off channel=0 note=66 velocity=100 time=0
note_off channel=0 note=72 velocity=100 time=0
note_off channel=0 note=72 velocity=100 time=0
note_off channel=0 note=74 velocity=100 time=0
note_on channel=0 note=55 velocity=100 time=0
note_on channel=0 note=59 velocity=100 time=0
note_on channel=0 note=71 velocity=100 time=0
note_on channel=0 note=74 velocity=100 time=0
note_on channel=0 note=67 velocity=100 time=0
note_off channel=0 note=55 velocity=100 time=500
note_off channel=0 note=59 velocity=100 time=0
note_off channel=0 note=71 velocity=100 time=0
note_off channel=0 note=77 velocity=100 time=0
note_off channel=0 note=81 velocity=100 time=0
note_on channel=0 note=76 velocity=100 time=0
note_on channel=0 note=79 velocity=100 time=0
note_on channel=0 note=54 velocity=100 time=0
note_on channel=0 note=57 velocity=100 time=0
note_on channel=0 note=69 velocity=100 time=0
note_off channel=0 note=76 velocity=100 time=250
note_off channel=0 note=79 velocity=100 time=0
note_on channel=0 note=74 velocity=100 time=0
note_on channel=0 note=77 velocity=100 time=0
note_off channel=0 note=54 velocity=100 time=250
note_off channel=0 note=57 velocity=100 time=0
note_off channel=0 note=69 velocity=100 time=0
note_off channel=0 note=74 velocity=100 time=0
note_off channel=0 note=74 velocity=100 time=0
note_off channel=0 note=77 velocity=100 time=0
note_on channel=0 note=55 velocity=100 time=0
note_on channel=0 note=59 velocity=100 time=0
note_on channel=0 note=76 velocity=100 time=0
note_on channel=0 note=79 velocity=100 time=0
note_on channel=0 note=67 velocity=100 time=0
note_on channel=0 note=74 velocity=100 time=0
note_off channel=0 note=55 velocity=100 time=500
note_off channel=0 note=59 velocity=100 time=0
note_off channel=0 note=67 velocity=100 time=0
note_off channel=0 note=76 velocity=100 time=0
note_off channel=0 note=79 velocity=100 time=0
note_on channel=0 note=48 velocity=100 time=0
note_on channel=0 note=60 velocity=100 time=0
note_on channel=0 note=64 velocity=100 time=0
note_on channel=0 note=57 velocity=100 time=0
note_on channel=0 note=60 velocity=100 time=0
note_on channel=0 note=66 velocity=100 time=0
note_on channel=0 note=67 velocity=100 time=0
note_off channel=0 note=48 velocity=100 time=250
note_off channel=0 note=60 velocity=100 time=0
note_off channel=0 note=64 velocity=100 time=0
note_off channel=0 note=67 velocity=100 time=0
note_on channel=0 note=48 velocity=100 time=0
note_on channel=0 note=60 velocity=100 time=0
note_on channel=0 note=64 velocity=100 time=0
note_on channel=0 note=67 velocity=100 time=0
note_off channel=0 note=48 velocity=100 time=250
note_off channel=0 note=57 velocity=100 time=0
note_off channel=0 note=60 velocity=100 time=0
note_off channel=0 note=60 velocity=100 time=0
note_off channel=0 note=64 velocity=100 time=0
note_off channel=0 note=66 velocity=100 time=0
note_off channel=0 note=67 velocity=100 time=0
note_off channel=0 note=67 velocity=100 time=0
note_off channel=0 note=74 velocity=100 time=0
note_on channel=0 note=48 velocity=100 time=0
note_on channel=0 note=64 velocity=100 time=0
note_on channel=0 note=67 velocity=100 time=0
note_on channel=0 note=72 velocity=100 time=0
note_on channel=0 note=59 velocity=100 time=0
note_on channel=0 note=67 velocity=100 time=0
note_on channel=0 note=62 velocity=100 time=0
note_on channel=0 note=62 velocity=100 time=0
note_on channel=0 note=74 velocity=100 time=0
note_off channel=0 note=48 velocity=100 time=250
note_off channel=0 note=64 velocity=100 time=0
note_off channel=0 note=67 velocity=100 time=0
note_off channel=0 note=72 velocity=100 time=0
note_on channel=0 note=48 velocity=100 time=0
note_on channel=0 note=64 velocity=100 time=0
note_on channel=0 note=72 velocity=100 time=0
note_on channel=0 note=67 velocity=100 time=0
note_off channel=0 note=48 velocity=100 time=250
note_off channel=0 note=59 velocity=100 time=0
note_off channel=0 note=64 velocity=100 time=0
note_off channel=0 note=67 velocity=100 time=0
note_off channel=0 note=72 velocity=100 time=0
note_on channel=0 note=48 velocity=100 time=0
note_on channel=0 note=72 velocity=100 time=0
note_on channel=0 note=76 velocity=100 time=0
note_on channel=0 note=55 velocity=100 time=0
note_on channel=0 note=67 velocity=100 time=0
note_off channel=0 note=48 velocity=100 time=250
note_off channel=0 note=67 velocity=100 time=0
note_off channel=0 note=72 velocity=100 time=0
note_off channel=0 note=76 velocity=100 time=0
note_on channel=0 note=48 velocity=100 time=0
note_on channel=0 note=67 velocity=100 time=0
note_on channel=0 note=72 velocity=100 time=0
note_on channel=0 note=76 velocity=100 time=0
note_off channel=0 note=48 velocity=100 time=250
note_off channel=0 note=55 velocity=100 time=0
note_off channel=0 note=62 velocity=100 time=0
note_off channel=0 note=62 velocity=100 time=0
note_off channel=0 note=67 velocity=100 time=0
note_off channel=0 note=67 velocity=100 time=0
note_off channel=0 note=72 velocity=100 time=0
note_off channel=0 note=74 velocity=100 time=0
note_off channel=0 note=76 velocity=100 time=0
note_on channel=0 note=48 velocity=100 time=0
note_on channel=0 note=60 velocity=100 time=0
note_on channel=0 note=76 velocity=100 time=0
note_on channel=0 note=79 velocity=100 time=0
note_on channel=0 note=60 velocity=100 time=0
note_on channel=0 note=60 velocity=100 time=0
note_on channel=0 note=67 velocity=100 time=0
note_on channel=0 note=76 velocity=100 time=0
note_off channel=0 note=48 velocity=100 time=500
note_off channel=0 note=60 velocity=100 time=0
note_off channel=0 note=76 velocity=100 time=0
note_off channel=0 note=79 velocity=100 time=0
note_off channel=0 note=60 velocity=100 time=500
note_off channel=0 note=60 velocity=100 time=0
note_off channel=0 note=67 velocity=100 time=0
note_off channel=0 note=76 velocity=100 time=0
note_on channel=0 note=62 velocity=100 time=500
note_on channel=0 note=62 velocity=100 time=0
note_on channel=0 note=65 velocity=100 time=0
note_on channel=0 note=69 velocity=100 time=0
note_on channel=0 note=74 velocity=100 time=0
note_on channel=0 note=77 velocity=100 time=0
note_on channel=0 note=81 velocity=100 time=0
note_off channel=0 note=62 velocity=100 time=500
note_off channel=0 note=62 velocity=100 time=0
note_off channel=0 note=65 velocity=100 time=0
note_off channel=0 note=69 velocity=100 time=0
note_off channel=0 note=74 velocity=100 time=0
note_off channel=0 note=77 velocity=100 time=0
note_on channel=0 note=59 velocity=100 time=0
note_on channel=0 note=62 velocity=100 time=0
note_on channel=0 note=67 velocity=100 time=0
note_on channel=0 note=71 velocity=100 time=0
note_on channel=0 note=77 velocity=100 time=0
note_on channel=0 note=79 velocity=100 time=0
note_off channel=0 note=81 velocity=100 time=250
note_off channel=0 note=59 velocity=100 time=250
note_off channel=0 note=62 velocity=100 time=0
note_off channel=0 note=67 velocity=100 time=0
note_off channel=0 note=71 velocity=100 time=0
note_off channel=0 note=77 velocity=100 time=0
note_off channel=0 note=79 velocity=100 time=0
note_on channel=0 note=76 velocity=100 time=0
note_on channel=0 note=88 velocity=100 time=0
note_on channel=0 note=48 velocity=100 time=0
note_on channel=0 note=60 velocity=100 time=0
note_on channel=0 note=64 velocity=100 time=0
note_on channel=0 note=67 velocity=100 time=0
note_on channel=0 note=72 velocity=100 time=0
note_on channel=0 note=79 velocity=100 time=0
note_off channel=0 note=76 velocity=100 time=500
note_off channel=0 note=88 velocity=100 time=0
note_on channel=0 note=76 velocity=100 time=0
note_off channel=0 note=48 velocity=100 time=500
note_off channel=0 note=60 velocity=100 time=0
note_off channel=0 note=64 velocity=100 time=0
note_off channel=0 note=67 velocity=100 time=0
note_off channel=0 note=72 velocity=100 time=0
note_off channel=0 note=76 velocity=100 time=0
note_off channel=0 note=79 velocity=100 time=0
note_on channel=0 note=60 velocity=100 time=0
note_on channel=0 note=64 velocity=100 time=0
note_on channel=0 note=67 velocity=100 time=0
note_on channel=0 note=79 velocity=100 time=0
note_on channel=0 note=48 velocity=100 time=0
note_on channel=0 note=67 velocity=100 time=0
note_on channel=0 note=76 velocity=100 time=0
note_on channel=0 note=79 velocity=100 time=0
note_off channel=0 note=60 velocity=100 time=500
note_off channel=0 note=64 velocity=100 time=0
note_on channel=0 note=62 velocity=100 time=0
note_on channel=0 note=62 velocity=100 time=0
note_off channel=0 note=67 velocity=100 time=250
note_off channel=0 note=79 velocity=100 time=0
note_off channel=0 note=48 velocity=100 time=250
note_off channel=0 note=62 velocity=100 time=0
note_off channel=0 note=62 velocity=100 time=0
note_off channel=0 note=67 velocity=100 time=0
note_off channel=0 note=76 velocity=100 time=0
note_off channel=0 note=79 velocity=100 time=0
note_on channel=0 note=81 velocity=100 time=0
note_on channel=0 note=43 velocity=100 time=0
note_on channel=0 note=59 velocity=100 time=0
note_on channel=0 note=64 velocity=100 time=0
note_on channel=0 note=67 velocity=100 time=0
note_on channel=0 note=74 velocity=100 time=0
note_on channel=0 note=74 velocity=100 time=0
note_on channel=0 note=79 velocity=100 time=0
note_off channel=0 note=81 velocity=100 time=250
note_off channel=0 note=43 velocity=100 time=250
note_off channel=0 note=59 velocity=100 time=0
note_off channel=0 note=64 velocity=100 time=0
note_off channel=0 note=67 velocity=100 time=0
note_off channel=0 note=74 velocity=100 time=0
note_off channel=0 note=74 velocity=100 time=0
note_on channel=0 note=76 velocity=100 time=0
note_on channel=0 note=81 velocity=100 time=0
note_on channel=0 note=72 velocity=100 time=0
note_on channel=0 note=48 velocity=100 time=0
note_on channel=0 note=60 velocity=100 time=0
note_on channel=0 note=64 velocity=100 time=0
note_on channel=0 note=72 velocity=100 time=0
note_off channel=0 note=76 velocity=100 time=250
note_off channel=0 note=79 velocity=100 time=0
note_on channel=0 note=74 velocity=100 time=250
note_off channel=0 note=74 velocity=100 time=500
note_off channel=0 note=81 velocity=100 time=0
note_off channel=0 note=72 velocity=100 time=250
note_off channel=0 note=48 velocity=100 time=250
note_off channel=0 note=60 velocity=100 time=0
note_off channel=0 note=64 velocity=100 time=0
note_off channel=0 note=72 velocity=100 time=0
note_on channel=0 note=74 velocity=100 time=0
note_on channel=0 note=45 velocity=100 time=0
note_on channel=0 note=60 velocity=100 time=0
note_on channel=0 note=64 velocity=100 time=0
note_on channel=0 note=72 velocity=100 time=0
note_on channel=0 note=77 velocity=100 time=0
note_on channel=0 note=81 velocity=100 time=0
note_on channel=0 note=81 velocity=100 time=0
note_off channel=0 note=74 velocity=100 time=250
note_off channel=0 note=45 velocity=100 time=250
note_off channel=0 note=60 velocity=100 time=0
note_off channel=0 note=64 velocity=100 time=0
note_off channel=0 note=72 velocity=100 time=0
note_off channel=0 note=77 velocity=100 time=0
note_off channel=0 note=81 velocity=100 time=0
note_off channel=0 note=81 velocity=100 time=0
note_on channel=0 note=81 velocity=100 time=0
note_on channel=0 note=50 velocity=100 time=0
note_on channel=0 note=59 velocity=100 time=0
note_on channel=0 note=62 velocity=100 time=0
note_on channel=0 note=71 velocity=100 time=0
note_on channel=0 note=74 velocity=100 time=0
note_on channel=0 note=79 velocity=100 time=0
note_on channel=0 note=83 velocity=100 time=0
note_off channel=0 note=81 velocity=100 time=500
note_off channel=0 note=50 velocity=100 time=500
note_off channel=0 note=59 velocity=100 time=0
note_off channel=0 note=62 velocity=100 time=0
note_off channel=0 note=71 velocity=100 time=0
note_off channel=0 note=74 velocity=100 time=0
note_off channel=0 note=79 velocity=100 time=0
note_off channel=0 note=83 velocity=100 time=0
note_on channel=0 note=81 velocity=100 time=0
note_on channel=0 note=50 velocity=100 time=0
note_on channel=0 note=75 velocity=100 time=0
note_on channel=0 note=55 velocity=100 time=0
note_on channel=0 note=60 velocity=100 time=0
note_on channel=0 note=72 velocity=100 time=0
note_on channel=0 note=79 velocity=100 time=0
note_off channel=0 note=81 velocity=100 time=250
note_off channel=0 note=50 velocity=100 time=250
note_off channel=0 note=75 velocity=100 time=0
note_off channel=0 note=55 velocity=100 time=500
note_off channel=0 note=60 velocity=100 time=0
note_off channel=0 note=72 velocity=100 time=0
note_off channel=0 note=79 velocity=100 time=0
note_on channel=0 note=79 velocity=100 time=0
note_on channel=0 note=47 velocity=100 time=0
note_on channel=0 note=55 velocity=100 time=0
note_on channel=0 note=62 velocity=100 time=0
note_on channel=0 note=71 velocity=100 time=0
note_on channel=0 note=74 velocity=100 time=0
note_on channel=0 note=79 velocity=100 time=0
note_on channel=0 note=86 velocity=100 time=0
note_off channel=0 note=79 velocity=100 time=1000
note_off channel=0 note=47 velocity=100 time=500
note_off channel=0 note=55 velocity=100 time=0
note_off channel=0 note=62 velocity=100 time=500
note_off channel=0 note=71 velocity=100 time=0
note_off channel=0 note=74 velocity=100 time=0
note_off channel=0 note=79 velocity=100 time=0
note_off channel=0 note=86 velocity=100 time=0
note_on channel=0 note=52 velocity=100 time=0
note_on channel=0 note=55 velocity=100 time=0
note_on channel=0 note=64 velocity=100 time=0
note_on channel=0 note=72 velocity=100 time=0
note_on channel=0 note=76 velocity=100 time=0
note_on channel=0 note=71 velocity=100 time=0
note_on channel=0 note=81 velocity=100 time=0
note_off channel=0 note=52 velocity=100 time=1000
note_off channel=0 note=55 velocity=100 time=0
note_off channel=0 note=64 velocity=100 time=0
note_off channel=0 note=72 velocity=100 time=0
note_off channel=0 note=76 velocity=100 time=0
note_on channel=0 note=83 velocity=100 time=0
note_on channel=0 note=54 velocity=100 time=0
note_on channel=0 note=63 velocity=100 time=0
note_on channel=0 note=72 velocity=100 time=0
note_off channel=0 note=83 velocity=100 time=500
note_off channel=0 note=54 velocity=100 time=500
note_off channel=0 note=63 velocity=100 time=0
note_off channel=0 note=71 velocity=100 time=0
note_off channel=0 note=72 velocity=100 time=0
note_off channel=0 note=81 velocity=100 time=0
note_on channel=0 note=52 velocity=100 time=0
note_on channel=0 note=59 velocity=100 time=0
note_on channel=0 note=67 velocity=100 time=0
note_on channel=0 note=71 velocity=100 time=0
note_on channel=0 note=83 velocity=100 time=0
note_on channel=0 note=76 velocity=100 time=0
note_on channel=0 note=64 velocity=100 time=0
note_off channel=0 note=52 velocity=100 time=1000
note_off channel=0 note=59 velocity=100 time=0
note_off channel=0 note=67 velocity=100 time=0
note_off channel=0 note=71 velocity=100 time=0
note_off channel=0 note=83 velocity=100 time=0
note_on channel=0 note=59 velocity=100 time=0
note_on channel=0 note=62 velocity=100 time=0
note_on channel=0 note=59 velocity=100 time=0
note_on channel=0 note=67 velocity=100 time=0
note_on channel=0 note=79 velocity=100 time=0
note_off channel=0 note=59 velocity=100 time=500
note_off channel=0 note=62 velocity=100 time=0
note_off channel=0 note=76 velocity=100 time=0
note_on channel=0 note=57 velocity=100 time=0
note_off channel=0 note=57 velocity=100 time=500
note_off channel=0 note=59 velocity=100 time=0
note_off channel=0 note=64 velocity=100 time=0
note_off channel=0 note=67 velocity=100 time=0
note_off channel=0 note=79 velocity=100 time=0
note_on channel=0 note=55 velocity=100 time=0
note_on channel=0 note=59 velocity=100 time=0
note_on channel=0 note=67 velocity=100 time=0
note_on channel=0 note=76 velocity=100 time=0
note_on channel=0 note=81 velocity=100 time=0
note_on channel=0 note=64 velocity=100 time=0
note_on channel=0 note=69 velocity=100 time=0
note_off channel=0 note=55 velocity=100 time=1000
note_off channel=0 note=59 velocity=100 time=0
note_off channel=0 note=67 velocity=100 time=0
note_off channel=0 note=76 velocity=100 time=0
note_off channel=0 note=81 velocity=100 time=0
note_on channel=0 note=79 velocity=100 time=0
note_on channel=0 note=57 velocity=100 time=0
note_on channel=0 note=57 velocity=100 time=0
note_on channel=0 note=69 velocity=100 time=0
note_off channel=0 note=64 velocity=100 time=1000
note_off channel=0 note=69 velocity=100 time=0
note_off channel=0 note=79 velocity=100 time=0
note_on channel=0 note=66 velocity=100 time=0
note_on channel=0 note=71 velocity=100 time=0
note_on channel=0 note=74 velocity=100 time=0
note_on channel=0 note=78 velocity=100 time=0
note_off channel=0 note=57 velocity=100 time=2000
note_off channel=0 note=57 velocity=100 time=0
note_off channel=0 note=66 velocity=100 time=0
note_off channel=0 note=69 velocity=100 time=0
note_off channel=0 note=71 velocity=100 time=0
note_off channel=0 note=74 velocity=100 time=0
note_off channel=0 note=78 velocity=100 time=0
note_on channel=0 note=62 velocity=100 time=0
note_on channel=0 note=55 velocity=100 time=0
note_on channel=0 note=59 velocity=100 time=0
note_on channel=0 note=71 velocity=100 time=0
note_on channel=0 note=74 velocity=100 time=0
note_on channel=0 note=79 velocity=100 time=0
note_on channel=0 note=79 velocity=100 time=0
note_off channel=0 note=62 velocity=100 time=1000
note_on channel=0 note=59 velocity=100 time=0
note_off channel=0 note=55 velocity=100 time=1000
note_off channel=0 note=59 velocity=100 time=0
note_off channel=0 note=59 velocity=100 time=0
note_off channel=0 note=71 velocity=100 time=0
note_off channel=0 note=74 velocity=100 time=0
note_off channel=0 note=79 velocity=100 time=0
note_off channel=0 note=79 velocity=100 time=0
note_on channel=0 note=57 velocity=100 time=0
note_on channel=0 note=61 velocity=100 time=0
note_on channel=0 note=64 velocity=100 time=0
note_on channel=0 note=69 velocity=100 time=0
note_on channel=0 note=76 velocity=100 time=0
note_on channel=0 note=76 velocity=100 time=0
note_on channel=0 note=81 velocity=100 time=0
note_off channel=0 note=57 velocity=100 time=1000
note_on channel=0 note=55 velocity=100 time=0
note_off channel=0 note=55 velocity=100 time=500
note_off channel=0 note=61 velocity=100 time=500
note_off channel=0 note=64 velocity=100 time=0
note_off channel=0 note=69 velocity=100 time=0
note_off channel=0 note=76 velocity=100 time=0
note_off channel=0 note=76 velocity=100 time=0
note_off channel=0 note=81 velocity=100 time=0
note_on channel=0 note=76 velocity=100 time=0
note_on channel=0 note=57 velocity=100 time=0
note_on channel=0 note=64 velocity=100 time=0
note_on channel=0 note=74 velocity=100 time=0
note_on channel=0 note=62 velocity=100 time=0
note_on channel=0 note=66 velocity=100 time=0
note_on channel=0 note=81 velocity=100 time=0
note_off channel=0 note=76 velocity=100 time=250
note_off channel=0 note=57 velocity=100 time=250
note_off channel=0 note=64 velocity=100 time=0
note_off channel=0 note=74 velocity=100 time=0
note_on channel=0 note=76 velocity=100 time=0
note_off channel=0 note=62 velocity=100 time=500
note_off channel=0 note=66 velocity=100 time=0
note_off channel=0 note=76 velocity=100 time=0
note_off channel=0 note=81 velocity=100 time=0
note_on channel=0 note=55 velocity=100 time=0
note_on channel=0 note=62 velocity=100 time=0
note_on channel=0 note=69 velocity=100 time=0
note_on channel=0 note=74 velocity=100 time=0
note_on channel=0 note=76 velocity=100 time=0
note_on channel=0 note=81 velocity=100 time=0
note_on channel=0 note=81 velocity=100 time=0
note_off channel=0 note=55 velocity=100 time=500
note_on channel=0 note=54 velocity=100 time=0
note_off channel=0 note=54 velocity=100 time=500
note_off channel=0 note=62 velocity=100 time=0
note_off channel=0 note=69 velocity=100 time=0
note_off channel=0 note=74 velocity=100 time=0
note_off channel=0 note=76 velocity=100 time=0
note_on channel=0 note=62 velocity=100 time=0
note_on channel=0 note=72 velocity=100 time=0
note_on channel=0 note=76 velocity=100 time=0
note_on channel=0 note=57 velocity=100 time=0
note_on channel=0 note=69 velocity=100 time=0
note_off channel=0 note=62 velocity=100 time=500
note_off channel=0 note=72 velocity=100 time=0
note_off channel=0 note=76 velocity=100 time=0
note_off channel=0 note=81 velocity=100 time=0
note_on channel=0 note=59 velocity=100 time=0
note_on channel=0 note=65 velocity=100 time=0
note_on channel=0 note=74 velocity=100 time=0
note_on channel=0 note=74 velocity=100 time=0
note_off channel=0 note=59 velocity=100 time=250
note_off channel=0 note=57 velocity=100 time=250
note_off channel=0 note=65 velocity=100 time=0
note_off channel=0 note=69 velocity=100 time=0
note_off channel=0 note=74 velocity=100 time=0
note_off channel=0 note=74 velocity=100 time=0
note_off channel=0 note=81 velocity=100 time=0
note_on channel=0 note=72 velocity=100 time=0
note_on channel=0 note=78 velocity=100 time=0
note_on channel=0 note=57 velocity=100 time=0
note_on channel=0 note=62 velocity=100 time=0
note_on channel=0 note=65 velocity=100 time=0
note_on channel=0 note=74 velocity=100 time=0
note_on channel=0 note=83 velocity=100 time=0
note_off channel=0 note=72 velocity=100 time=250
note_off channel=0 note=78 velocity=100 time=0
note_off channel=0 note=57 velocity=100 time=750
note_on channel=0 note=55 velocity=100 time=0
note_off channel=0 note=55 velocity=100 time=1000
note_off channel=0 note=62 velocity=100 time=0
note_off channel=0 note=65 velocity=100 time=0
note_off channel=0 note=74 velocity=100 time=0
note_off channel=0 note=83 velocity=100 time=0
note_on channel=0 note=60 velocity=100 time=0
note_on channel=0 note=60 velocity=100 time=0
note_on channel=0 note=64 velocity=100 time=0
note_on channel=0 note=67 velocity=100 time=0
note_on channel=0 note=76 velocity=100 time=0
note_on channel=0 note=76 velocity=100 time=0
note_on channel=0 note=84 velocity=100 time=0
note_off channel=0 note=60 velocity=100 time=1000
note_off channel=0 note=60 velocity=100 time=0
note_off channel=0 note=64 velocity=100 time=0
note_off channel=0 note=67 velocity=100 time=0
note_off channel=0 note=76 velocity=100 time=0
note_off channel=0 note=76 velocity=100 time=0
note_off channel=0 note=84 velocity=100 time=0
note_on channel=0 note=77 velocity=100 time=0
note_on channel=0 note=59 velocity=100 time=0
note_on channel=0 note=72 velocity=100 time=0
note_on channel=0 note=76 velocity=100 time=0
note_on channel=0 note=83 velocity=100 time=0
note_on channel=0 note=55 velocity=100 time=0
note_on channel=0 note=67 velocity=100 time=0
note_off channel=0 note=77 velocity=100 time=250
note_off channel=0 note=59 velocity=100 time=250
note_off channel=0 note=72 velocity=100 time=0
note_off channel=0 note=76 velocity=100 time=0
note_off channel=0 note=83 velocity=100 time=0
note_on channel=0 note=60 velocity=100 time=0
note_on channel=0 note=81 velocity=100 time=0
note_off channel=0 note=55 velocity=100 time=500
note_on channel=0 note=53 velocity=100 time=0
note_on channel=0 note=71 velocity=100 time=0
note_on channel=0 note=74 velocity=100 time=0
note_off channel=0 note=53 velocity=100 time=500
note_on channel=0 note=52 velocity=100 time=0
note_off channel=0 note=52 velocity=100 time=500
note_off channel=0 note=60 velocity=100 time=0
note_off channel=0 note=67 velocity=100 time=0
note_off channel=0 note=71 velocity=100 time=0
note_off channel=0 note=74 velocity=100 time=0
note_off channel=0 note=81 velocity=100 time=0
note_on channel=0 note=67 velocity=100 time=0
note_on channel=0 note=56 velocity=100 time=0
note_on channel=0 note=59 velocity=100 time=0
note_on channel=0 note=83 velocity=100 time=0
note_on channel=0 note=71 velocity=100 time=0
note_on channel=0 note=76 velocity=100 time=0
note_on channel=0 note=76 velocity=100 time=0
note_off channel=0 note=67 velocity=100 time=750
note_off channel=0 note=56 velocity=100 time=1250
note_off channel=0 note=59 velocity=100 time=0
note_off channel=0 note=83 velocity=100 time=0
note_on channel=0 note=60 velocity=100 time=0
note_on channel=0 note=60 velocity=100 time=0
note_on channel=0 note=67 velocity=100 time=0
note_on channel=0 note=81 velocity=100 time=0
note_off channel=0 note=71 velocity=100 time=250
note_off channel=0 note=60 velocity=100 time=750
note_off channel=0 note=60 velocity=100 time=0
note_off channel=0 note=67 velocity=100 time=0
note_off channel=0 note=76 velocity=100 time=0
note_off channel=0 note=76 velocity=100 time=0
note_on channel=0 note=54 velocity=100 time=0
note_on channel=0 note=67 velocity=100 time=0
note_on channel=0 note=74 velocity=100 time=0
note_on channel=0 note=62 velocity=100 time=0
note_on channel=0 note=69 velocity=100 time=0
note_on channel=0 note=74 velocity=100 time=0
note_off channel=0 note=54 velocity=100 time=1000
note_off channel=0 note=67 velocity=100 time=0
note_off channel=0 note=74 velocity=100 time=0
note_on channel=0 note=54 velocity=100 time=0
note_off channel=0 note=54 velocity=100 time=1000
note_off channel=0 note=62 velocity=100 time=0
note_off channel=0 note=69 velocity=100 time=0
note_off channel=0 note=74 velocity=100 time=0
note_off channel=0 note=81 velocity=100 time=0
note_on channel=0 note=52 velocity=100 time=0
note_on channel=0 note=64 velocity=100 time=0
note_on channel=0 note=67 velocity=100 time=0
note_on channel=0 note=67 velocity=100 time=0
note_on channel=0 note=71 velocity=100 time=0
note_on channel=0 note=76 velocity=100 time=0
note_on channel=0 note=79 velocity=100 time=0
note_off channel=0 note=52 velocity=100 time=2000
note_off channel=0 note=64 velocity=100 time=0
note_off channel=0 note=67 velocity=100 time=0
note_off channel=0 note=67 velocity=100 time=0
note_off channel=0 note=71 velocity=100 time=0
note_off channel=0 note=76 velocity=100 time=0
note_off channel=0 note=79 velocity=100 time=0
note_on channel=0 note=45 velocity=100 time=0
note_on channel=0 note=64 velocity=100 time=0
note_on channel=0 note=64 velocity=100 time=0
note_on channel=0 note=69 velocity=100 time=0
note_on channel=0 note=69 velocity=100 time=0
note_on channel=0 note=72 velocity=100 time=0
note_on channel=0 note=76 velocity=100 time=0
note_off channel=0 note=45 velocity=100 time=1000
note_off channel=0 note=64 velocity=100 time=0
note_off channel=0 note=64 velocity=100 time=0
note_off channel=0 note=69 velocity=100 time=0
note_off channel=0 note=69 velocity=100 time=0
note_off channel=0 note=72 velocity=100 time=0
note_off channel=0 note=76 velocity=100 time=0
note_on channel=0 note=47 velocity=100 time=0
note_on channel=0 note=62 velocity=100 time=0
note_on channel=0 note=67 velocity=100 time=0
note_on channel=0 note=69 velocity=100 time=0
note_on channel=0 note=74 velocity=100 time=0
note_on channel=0 note=75 velocity=100 time=0
note_on channel=0 note=62 velocity=100 time=0
note_off channel=0 note=47 velocity=100 time=1000
note_off channel=0 note=62 velocity=100 time=0
note_off channel=0 note=67 velocity=100 time=0
note_off channel=0 note=69 velocity=100 time=0
note_off channel=0 note=74 velocity=100 time=0
note_off channel=0 note=75 velocity=100 time=0
note_on channel=0 note=48 velocity=100 time=0
note_on channel=0 note=60 velocity=100 time=0
note_on channel=0 note=67 velocity=100 time=0
note_on channel=0 note=69 velocity=100 time=0
note_on channel=0 note=74 velocity=100 time=0
note_on channel=0 note=76 velocity=100 time=0
note_off channel=0 note=48 velocity=100 time=1000
note_off channel=0 note=60 velocity=100 time=0
note_off channel=0 note=62 velocity=100 time=0
note_off channel=0 note=67 velocity=100 time=0
note_off channel=0 note=69 velocity=100 time=0
note_off channel=0 note=74 velocity=100 time=0
note_off channel=0 note=76 velocity=100 time=0
note_on channel=0 note=50 velocity=100 time=0
note_on channel=0 note=57 velocity=100 time=0
note_on channel=0 note=62 velocity=100 time=0
note_on channel=0 note=66 velocity=100 time=0
note_on channel=0 note=66 velocity=100 time=0
note_on channel=0 note=74 velocity=100 time=0
note_on channel=0 note=74 velocity=100 time=0
note_off channel=0 note=50 velocity=100 time=1000
note_off channel=0 note=57 velocity=100 time=0
note_off channel=0 note=62 velocity=100 time=0
note_off channel=0 note=66 velocity=100 time=0
note_off channel=0 note=66 velocity=100 time=0
note_off channel=0 note=74 velocity=100 time=0
note_off channel=0 note=74 velocity=100 time=0
note_on channel=0 note=74 velocity=100 time=0
note_on channel=0 note=43 velocity=100 time=0
note_on channel=0 note=55 velocity=100 time=0
note_on channel=0 note=62 velocity=100 time=0
note_on channel=0 note=62 velocity=100 time=0
note_on channel=0 note=67 velocity=100 time=0
note_on channel=0 note=71 velocity=100 time=0
note_off channel=0 note=74 velocity=100 time=1000
note_on channel=0 note=79 velocity=100 time=0
note_off channel=0 note=43 velocity=100 time=2000
note_off channel=0 note=55 velocity=100 time=0
note_off channel=0 note=62 velocity=100 time=0
note_off channel=0 note=62 velocity=100 time=0
note_off channel=0 note=67 velocity=100 time=0
note_off channel=0 note=71 velocity=100 time=0
note_off channel=0 note=79 velocity=100 time=0
note_on channel=0 note=55 velocity=100 time=0
note_on channel=0 note=59 velocity=100 time=0
note_on channel=0 note=62 velocity=100 time=0
note_on channel=0 note=62 velocity=100 time=0
note_on channel=0 note=67 velocity=100 time=0
note_on channel=0 note=74 velocity=100 time=0
note_off channel=0 note=55 velocity=100 time=1000
note_off channel=0 note=59 velocity=100 time=0
note_off channel=0 note=62 velocity=100 time=0
note_off channel=0 note=62 velocity=100 time=0
note_off channel=0 note=67 velocity=100 time=0
note_off channel=0 note=74 velocity=100 time=0
note_on channel=0 note=55 velocity=100 time=0
note_on channel=0 note=64 velocity=100 time=0
note_on channel=0 note=59 velocity=100 time=0
note_on channel=0 note=60 velocity=100 time=0
note_on channel=0 note=76 velocity=100 time=0
note_on channel=0 note=76 velocity=100 time=0
note_off channel=0 note=55 velocity=100 time=500
note_on channel=0 note=55 velocity=100 time=0
note_off channel=0 note=55 velocity=100 time=500
note_off channel=0 note=64 velocity=100 time=0
note_on channel=0 note=57 velocity=100 time=0
note_off channel=0 note=57 velocity=100 time=500
note_off channel=0 note=59 velocity=100 time=0
note_on channel=0 note=57 velocity=100 time=0
note_on channel=0 note=66 velocity=100 time=0
note_off channel=0 note=57 velocity=100 time=500
note_off channel=0 note=60 velocity=100 time=0
note_off channel=0 note=66 velocity=100 time=0
note_off channel=0 note=76 velocity=100 time=0
note_on channel=0 note=59 velocity=100 time=0
note_on channel=0 note=67 velocity=100 time=0
note_on channel=0 note=43 velocity=100 time=0
note_on channel=0 note=59 velocity=100 time=0
note_on channel=0 note=62 velocity=100 time=0
note_on channel=0 note=74 velocity=100 time=0
note_off channel=0 note=76 velocity=100 time=250
note_off channel=0 note=59 velocity=100 time=250
note_off channel=0 note=67 velocity=100 time=0
note_on channel=0 note=57 velocity=100 time=0
note_on channel=0 note=69 velocity=100 time=0
note_off channel=0 note=43 velocity=100 time=500
note_off channel=0 note=57 velocity=100 time=0
note_off channel=0 note=59 velocity=100 time=0
note_off channel=0 note=62 velocity=100 time=0
note_off channel=0 note=69 velocity=100 time=0
note_off channel=0 note=74 velocity=100 time=0
note_on channel=0 note=74 velocity=100 time=0
note_on channel=0 note=52 velocity=100 time=0
note_on channel=0 note=52 velocity=100 time=0
note_on channel=0 note=57 velocity=100 time=0
note_on channel=0 note=60 velocity=100 time=0
note_on channel=0 note=67 velocity=100 time=0
note_on channel=0 note=81 velocity=100 time=0
note_off channel=0 note=74 velocity=100 time=500
note_off channel=0 note=52 velocity=100 time=500
note_off channel=0 note=52 velocity=100 time=0
note_off channel=0 note=57 velocity=100 time=0
note_off channel=0 note=60 velocity=100 time=0
note_off channel=0 note=67 velocity=100 time=0
note_off channel=0 note=81 velocity=100 time=0
note_on channel=0 note=84 velocity=100 time=0
note_on channel=0 note=50 velocity=100 time=0
note_on channel=0 note=50 velocity=100 time=0
note_on channel=0 note=55 velocity=100 time=0
note_on channel=0 note=62 velocity=100 time=0
note_on channel=0 note=71 velocity=100 time=0
note_on channel=0 note=74 velocity=100 time=0
note_off channel=0 note=84 velocity=100 time=250
note_off channel=0 note=50 velocity=100 time=250
note_off channel=0 note=50 velocity=100 time=0
note_on channel=0 note=48 velocity=100 time=0
note_off channel=0 note=48 velocity=100 time=500
note_off channel=0 note=55 velocity=100 time=0
note_off channel=0 note=62 velocity=100 time=0
note_off channel=0 note=71 velocity=100 time=0
note_on channel=0 note=50 velocity=100 time=0
note_on channel=0 note=54 velocity=100 time=0
note_on channel=0 note=78 velocity=100 time=0
note_on channel=0 note=50 velocity=100 time=0
note_on channel=0 note=62 velocity=100 time=0
note_on channel=0 note=69 velocity=100 time=0
note_off channel=0 note=50 velocity=100 time=1000
note_off channel=0 note=54 velocity=100 time=0
note_off channel=0 note=78 velocity=100 time=0
note_on channel=0 note=55 velocity=100 time=0
note_on channel=0 note=76 velocity=100 time=0
note_off channel=0 note=50 velocity=100 time=750
note_off channel=0 note=62 velocity=100 time=1250
note_off channel=0 note=74 velocity=100 time=0
note_on channel=0 note=60 velocity=100 time=0
note_on channel=0 note=76 velocity=100 time=0
note_off channel=0 note=55 velocity=100 time=1000
note_off channel=0 note=60 velocity=100 time=0
note_off channel=0 note=76 velocity=100 time=0
note_off channel=0 note=76 velocity=100 time=0
note_on channel=0 note=50 velocity=100 time=0
note_on channel=0 note=54 velocity=100 time=0
note_on channel=0 note=59 velocity=100 time=0
note_on channel=0 note=62 velocity=100 time=0
note_on channel=0 note=74 velocity=100 time=0
note_on channel=0 note=74 velocity=100 time=0
note_off channel=0 note=50 velocity=100 time=2000
note_off channel=0 note=54 velocity=100 time=0
note_off channel=0 note=59 velocity=100 time=0
note_off channel=0 note=62 velocity=100 time=0
note_off channel=0 note=69 velocity=100 time=0
note_off channel=0 note=74 velocity=100 time=0
note_off channel=0 note=74 velocity=100 time=0
note_on channel=0 note=50 velocity=100 time=1000
note_on channel=0 note=54 velocity=100 time=0
note_on channel=0 note=62 velocity=100 time=0
note_on channel=0 note=62 velocity=100 time=0
note_on channel=0 note=66 velocity=100 time=0
note_on channel=0 note=69 velocity=100 time=0
note_on channel=0 note=69 velocity=100 time=0
note_off channel=0 note=50 velocity=100 time=1000
note_off channel=0 note=54 velocity=100 time=0
note_off channel=0 note=62 velocity=100 time=0
note_off channel=0 note=62 velocity=100 time=0
note_off channel=0 note=66 velocity=100 time=0
note_off channel=0 note=69 velocity=100 time=0
note_on channel=0 note=43 velocity=100 time=0
note_on channel=0 note=55 velocity=100 time=0
note_on channel=0 note=62 velocity=100 time=0
note_on channel=0 note=67 velocity=100 time=0
note_on channel=0 note=71 velocity=100 time=0
note_on channel=0 note=71 velocity=100 time=0
note_off channel=0 note=69 velocity=100 time=500
note_off channel=0 note=43 velocity=100 time=500
note_off channel=0 note=55 velocity=100 time=0
note_off channel=0 note=62 velocity=100 time=0
note_off channel=0 note=67 velocity=100 time=0
note_off channel=0 note=71 velocity=100 time=0
note_off channel=0 note=71 velocity=100 time=0
note_on channel=0 note=50 velocity=100 time=0
note_on channel=0 note=50 velocity=100 time=0
note_on channel=0 note=62 velocity=100 time=0
note_on channel=0 note=66 velocity=100 time=0
note_on channel=0 note=69 velocity=100 time=0
note_on channel=0 note=69 velocity=100 time=0
note_on channel=0 note=74 velocity=100 time=0
note_off channel=0 note=50 velocity=100 time=1000
note_off channel=0 note=50 velocity=100 time=0
note_off channel=0 note=62 velocity=100 time=0
note_off channel=0 note=66 velocity=100 time=0
note_off channel=0 note=69 velocity=100 time=0
note_off channel=0 note=69 velocity=100 time=0
note_off channel=0 note=74 velocity=100 time=0
note_on channel=0 note=55 velocity=100 time=0
note_on channel=0 note=68 velocity=100 time=0
note_on channel=0 note=76 velocity=100 time=0
note_on channel=0 note=40 velocity=100 time=0
note_on channel=0 note=67 velocity=100 time=0
note_on channel=0 note=74 velocity=100 time=0
note_on channel=0 note=67 velocity=100 time=0
note_off channel=0 note=55 velocity=100 time=250
note_off channel=0 note=68 velocity=100 time=0
note_off channel=0 note=76 velocity=100 time=250
note_off channel=0 note=40 velocity=100 time=500
note_off channel=0 note=67 velocity=100 time=0
note_on channel=0 note=48 velocity=100 time=0
note_on channel=0 note=45 velocity=100 time=0
note_on channel=0 note=64 velocity=100 time=0
note_on channel=0 note=69 velocity=100 time=0
note_on channel=0 note=72 velocity=100 time=0
note_off channel=0 note=74 velocity=100 time=500
note_off channel=0 note=48 velocity=100 time=250
note_off channel=0 note=45 velocity=100 time=250
note_off channel=0 note=64 velocity=100 time=0
note_off channel=0 note=67 velocity=100 time=0
note_off channel=0 note=69 velocity=100 time=0
note_off channel=0 note=72 velocity=100 time=0
note_on channel=0 note=47 velocity=100 time=0
note_on channel=0 note=47 velocity=100 time=0
note_on channel=0 note=62 velocity=100 time=0
note_on channel=0 note=67 velocity=100 time=0
note_on channel=0 note=67 velocity=100 time=0
note_on channel=0 note=71 velocity=100 time=0
note_on channel=0 note=74 velocity=100 time=0
note_off channel=0 note=47 velocity=100 time=1000
note_off channel=0 note=47 velocity=100 time=0
note_off channel=0 note=62 velocity=100 time=0
note_off channel=0 note=67 velocity=100 time=0
note_off channel=0 note=67 velocity=100 time=0
note_off channel=0 note=71 velocity=100 time=0
note_off channel=0 note=74 velocity=100 time=0
<meta message end_of_track time=5>
