Track 0: 01-AchGottundHerr
ticks_per_beat: 960
<meta message time_signature numerator=4 denominator=4 clocks_per_click=24 notated_32nd_notes_per_beat=8 time=0>
<meta message key_signature key='C' time=0>
<meta message set_tempo tempo=638299 time=0>
<meta message track_name name='01-AchGottundHerr' time=0>
<meta message end_of_track time=1>
Track 1: Instrument 1
ticks_per_beat: 960
program_change channel=0 program=1 time=0
control_change channel=0 control=121 value=0 time=0
control_change channel=0 control=64 value=0 time=0
control_change channel=0 control=91 value=28 time=0
control_change channel=0 control=10 value=51 time=0
control_change channel=0 control=7 value=100 time=0
<meta message track_name name='Instrument 1' time=0>
control_change channel=0 control=64 value=0 time=0
control_change channel=0 control=64 value=0 time=0
note_on channel=0 note=72 velocity=96 time=2880
note_off channel=0 note=72 velocity=0 time=960
note_on channel=0 note=71 velocity=96 time=0
note_off channel=0 note=71 velocity=0 time=960
note_on channel=0 note=69 velocity=96 time=0
note_off channel=0 note=69 velocity=0 time=960
note_on channel=0 note=67 velocity=96 time=0
note_off channel=0 note=67 velocity=0 time=960
note_on channel=0 note=67 velocity=96 time=0
note_off channel=0 note=67 velocity=0 time=960
note_on channel=0 note=69 velocity=96 time=0
note_off channel=0 note=69 velocity=0 time=960
note_on channel=0 note=71 velocity=96 time=0
note_off channel=0 note=71 velocity=0 time=960
note_on channel=0 note=72 velocity=96 time=0
note_off channel=0 note=72 velocity=0 time=960
note_on channel=0 note=74 velocity=96 time=0
note_off channel=0 note=74 velocity=0 time=960
note_on channel=0 note=72 velocity=96 time=0
note_off channel=0 note=72 velocity=0 time=960
note_on channel=0 note=71 velocity=96 time=0
note_off channel=0 note=71 velocity=0 time=960
note_on channel=0 note=69 velocity=96 time=0
note_off channel=0 note=69 velocity=0 time=960
note_on channel=0 note=71 velocity=96 time=0
note_off channel=0 note=71 velocity=0 time=480
note_on channel=0 note=72 velocity=96 time=0
note_off channel=0 note=72 velocity=0 time=480
note_on channel=0 note=69 velocity=96 time=0
note_off channel=0 note=69 velocity=0 time=1920
note_on channel=0 note=67 velocity=96 time=0
note_off channel=0 note=67 velocity=0 time=960
note_on channel=0 note=72 velocity=96 time=0
note_off channel=0 note=72 velocity=0 time=960
note_on channel=0 note=71 velocity=96 time=0
note_off channel=0 note=71 velocity=0 time=960
note_on channel=0 note=72 velocity=96 time=0
note_off channel=0 note=72 velocity=0 time=960
note_on channel=0 note=74 velocity=96 time=0
note_off channel=0 note=74 velocity=0 time=960
note_on channel=0 note=74 velocity=96 time=0
note_off channel=0 note=74 velocity=0 time=960
note_on channel=0 note=76 velocity=96 time=0
note_off channel=0 note=76 velocity=0 time=960
note_on channel=0 note=74 velocity=96 time=0
note_off channel=0 note=74 velocity=0 time=480
note_on channel=0 note=72 velocity=96 time=0
note_off channel=0 note=72 velocity=0 time=480
note_on channel=0 note=74 velocity=96 time=0
note_off channel=0 note=74 velocity=0 time=960
note_on channel=0 note=67 velocity=96 time=0
note_off channel=0 note=67 velocity=0 time=960
note_on channel=0 note=69 velocity=96 time=0
note_off channel=0 note=69 velocity=0 time=960
note_on channel=0 note=71 velocity=96 time=0
note_off channel=0 note=71 velocity=0 time=960
note_on channel=0 note=72 velocity=96 time=0
note_off channel=0 note=72 velocity=0 time=480
note_on channel=0 note=74 velocity=96 time=0
note_off channel=0 note=74 velocity=0 time=480
note_on channel=0 note=76 velocity=96 time=0
note_off channel=0 note=76 velocity=0 time=480
note_on channel=0 note=77 velocity=96 time=0
note_off channel=0 note=77 velocity=0 time=480
note_on channel=0 note=74 velocity=96 time=0
note_off channel=0 note=74 velocity=0 time=1920
note_on channel=0 note=72 velocity=96 time=0
note_off channel=0 note=72 velocity=0 time=960
<meta message end_of_track time=1>
Track 2: Instrument 2
ticks_per_beat: 960
program_change channel=1 program=1 time=0
control_change channel=1 control=121 value=0 time=0
control_change channel=1 control=64 value=0 time=0
control_change channel=1 control=91 value=28 time=0
control_change channel=1 control=10 value=51 time=0
control_change channel=1 control=7 value=100 time=0
<meta message track_name name='Instrument 2' time=0>
control_change channel=1 control=64 value=0 time=0
control_change channel=1 control=64 value=0 time=0
note_on channel=1 note=67 velocity=96 time=2880
note_off channel=1 note=67 velocity=0 time=960
note_on channel=1 note=67 velocity=96 time=0
note_off channel=1 note=67 velocity=0 time=960
note_on channel=1 note=66 velocity=96 time=0
note_off channel=1 note=66 velocity=0 time=960
note_on channel=1 note=62 velocity=96 time=0
note_off channel=1 note=62 velocity=0 time=960
note_on channel=1 note=64 velocity=96 time=0
note_off channel=1 note=64 velocity=0 time=480
note_on channel=1 note=62 velocity=96 time=0
note_off channel=1 note=62 velocity=0 time=480
note_on channel=1 note=60 velocity=96 time=0
note_off channel=1 note=60 velocity=0 time=960
note_on channel=1 note=62 velocity=96 time=0
note_off channel=1 note=62 velocity=0 time=960
note_on channel=1 note=64 velocity=96 time=0
note_off channel=1 note=64 velocity=0 time=960
note_on channel=1 note=67 velocity=96 time=0
note_off channel=1 note=67 velocity=0 time=960
note_on channel=1 note=67 velocity=96 time=0
note_off channel=1 note=67 velocity=0 time=480
note_on channel=1 note=66 velocity=96 time=0
note_off channel=1 note=66 velocity=0 time=480
note_on channel=1 note=67 velocity=96 time=0
note_off channel=1 note=67 velocity=0 time=960
note_on channel=1 note=66 velocity=96 time=0
note_off channel=1 note=66 velocity=0 time=960
note_on channel=1 note=67 velocity=96 time=0
note_off channel=1 note=67 velocity=0 time=960
note_on channel=1 note=67 velocity=96 time=0
note_off channel=1 note=67 velocity=0 time=960
note_on channel=1 note=66 velocity=96 time=0
note_off channel=1 note=66 velocity=0 time=960
note_on channel=1 note=62 velocity=96 time=0
note_off channel=1 note=62 velocity=0 time=960
note_on channel=1 note=67 velocity=96 time=0
note_off channel=1 note=67 velocity=0 time=960
note_on channel=1 note=65 velocity=96 time=0
note_off channel=1 note=65 velocity=0 time=960
note_on channel=1 note=67 velocity=96 time=0
note_off channel=1 note=67 velocity=0 time=960
note_on channel=1 note=67 velocity=96 time=0
note_off channel=1 note=67 velocity=0 time=960
note_on channel=1 note=67 velocity=96 time=0
note_off channel=1 note=67 velocity=0 time=960
note_on channel=1 note=67 velocity=96 time=0
note_off channel=1 note=67 velocity=0 time=960
note_on channel=1 note=66 velocity=96 time=0
note_off channel=1 note=66 velocity=0 time=960
note_on channel=1 note=67 velocity=96 time=0
note_off channel=1 note=67 velocity=0 time=960
note_on channel=1 note=67 velocity=96 time=0
note_off channel=1 note=67 velocity=0 time=960
note_on channel=1 note=62 velocity=96 time=0
note_off channel=1 note=62 velocity=0 time=960
note_on channel=1 note=62 velocity=96 time=0
note_off channel=1 note=62 velocity=0 time=960
note_on channel=1 note=60 velocity=96 time=0
note_off channel=1 note=60 velocity=0 time=1440
note_on channel=1 note=69 velocity=96 time=0
note_off channel=1 note=69 velocity=0 time=480
note_on channel=1 note=67 velocity=96 time=0
note_off channel=1 note=67 velocity=0 time=1440
note_on channel=1 note=65 velocity=96 time=0
note_off channel=1 note=65 velocity=0 time=480
note_on channel=1 note=64 velocity=96 time=0
note_off channel=1 note=64 velocity=0 time=960
<meta message end_of_track time=1>
Track 3: Instrument 3
ticks_per_beat: 960
program_change channel=2 program=1 time=0
control_change channel=2 control=121 value=0 time=0
control_change channel=2 control=64 value=0 time=0
control_change channel=2 control=91 value=28 time=0
control_change channel=2 control=10 value=51 time=0
control_change channel=2 control=7 value=100 time=0
<meta message track_name name='Instrument 3' time=0>
control_change channel=2 control=64 value=0 time=0
control_change channel=2 control=64 value=0 time=0
note_on channel=2 note=64 velocity=96 time=2880
note_off channel=2 note=64 velocity=0 time=960
note_on channel=2 note=62 velocity=96 time=0
note_off channel=2 note=62 velocity=0 time=960
note_on channel=2 note=62 velocity=96 time=0
note_off channel=2 note=62 velocity=0 time=480
note_on channel=2 note=60 velocity=96 time=0
note_off channel=2 note=60 velocity=0 time=480
note_on channel=2 note=59 velocity=96 time=0
note_off channel=2 note=59 velocity=0 time=960
note_on channel=2 note=60 velocity=96 time=0
note_off channel=2 note=60 velocity=0 time=480
note_on channel=2 note=58 velocity=96 time=0
note_off channel=2 note=58 velocity=0 time=480
note_on channel=2 note=57 velocity=96 time=0
note_off channel=2 note=57 velocity=0 time=480
note_on channel=2 note=55 velocity=96 time=0
note_off channel=2 note=55 velocity=0 time=480
note_on channel=2 note=53 velocity=96 time=0
note_off channel=2 note=53 velocity=0 time=960
note_on channel=2 note=55 velocity=96 time=0
note_off channel=2 note=55 velocity=0 time=960
note_on channel=2 note=59 velocity=96 time=0
note_off channel=2 note=59 velocity=0 time=960
note_on channel=2 note=60 velocity=96 time=0
note_off channel=2 note=60 velocity=0 time=960
note_on channel=2 note=62 velocity=96 time=0
note_off channel=2 note=62 velocity=0 time=960
note_on channel=2 note=62 velocity=96 time=0
note_off channel=2 note=62 velocity=0 time=960
note_on channel=2 note=62 velocity=96 time=0
note_off channel=2 note=62 velocity=0 time=960
note_on channel=2 note=64 velocity=96 time=0
note_off channel=2 note=64 velocity=0 time=960
note_on channel=2 note=62 velocity=96 time=0
note_off channel=2 note=62 velocity=0 time=480
note_on channel=2 note=60 velocity=96 time=0
note_off channel=2 note=60 velocity=0 time=480
note_on channel=2 note=59 velocity=96 time=0
note_off channel=2 note=59 velocity=0 time=960
note_on channel=2 note=60 velocity=96 time=0
note_off channel=2 note=60 velocity=0 time=960
note_on channel=2 note=62 velocity=96 time=0
note_off channel=2 note=62 velocity=0 time=960
note_on channel=2 note=64 velocity=96 time=0
note_off channel=2 note=64 velocity=0 time=960
note_on channel=2 note=59 velocity=96 time=0
note_off channel=2 note=59 velocity=0 time=960
note_on channel=2 note=59 velocity=96 time=0
note_off channel=2 note=59 velocity=0 time=960
note_on channel=2 note=60 velocity=96 time=0
note_off channel=2 note=60 velocity=0 time=960
note_on channel=2 note=60 velocity=96 time=0
note_off channel=2 note=60 velocity=0 time=960
note_on channel=2 note=59 velocity=96 time=0
note_off channel=2 note=59 velocity=0 time=960
note_on channel=2 note=60 velocity=96 time=0
note_off channel=2 note=60 velocity=0 time=960
note_on channel=2 note=60 velocity=96 time=0
note_off channel=2 note=60 velocity=0 time=960
note_on channel=2 note=59 velocity=96 time=0
note_off channel=2 note=59 velocity=0 time=960
note_on channel=2 note=64 velocity=96 time=0
note_off channel=2 note=64 velocity=0 time=480
note_on channel=2 note=65 velocity=96 time=0
note_off channel=2 note=65 velocity=0 time=480
note_on channel=2 note=67 velocity=96 time=0
note_off channel=2 note=67 velocity=0 time=480
note_on channel=2 note=60 velocity=96 time=0
note_off channel=2 note=60 velocity=0 time=480
note_on channel=2 note=60 velocity=96 time=0
note_off channel=2 note=60 velocity=0 time=960
note_on channel=2 note=59 velocity=96 time=0
note_off channel=2 note=59 velocity=0 time=960
note_on channel=2 note=55 velocity=96 time=0
note_off channel=2 note=55 velocity=0 time=960
<meta message end_of_track time=1>
Track 4: Instrument 4
ticks_per_beat: 960
program_change channel=3 program=1 time=0
control_change channel=3 control=121 value=0 time=0
control_change channel=3 control=64 value=0 time=0
control_change channel=3 control=91 value=28 time=0
control_change channel=3 control=10 value=51 time=0
control_change channel=3 control=7 value=100 time=0
<meta message track_name name='Instrument 4' time=0>
control_change channel=3 control=64 value=0 time=0
control_change channel=3 control=64 value=0 time=0
note_on channel=3 note=48 velocity=96 time=2880
note_off channel=3 note=48 velocity=0 time=960
note_on channel=3 note=55 velocity=96 time=0
note_off channel=3 note=55 velocity=0 time=960
note_on channel=3 note=50 velocity=96 time=0
note_off channel=3 note=50 velocity=0 time=960
note_on channel=3 note=43 velocity=96 time=0
note_off channel=3 note=43 velocity=0 time=960
note_on channel=3 note=48 velocity=96 time=0
note_off channel=3 note=48 velocity=0 time=960
note_on channel=3 note=53 velocity=96 time=0
note_off channel=3 note=53 velocity=0 time=480
note_on channel=3 note=52 velocity=96 time=0
note_off channel=3 note=52 velocity=0 time=480
note_on channel=3 note=50 velocity=96 time=0
note_off channel=3 note=50 velocity=0 time=960
note_on channel=3 note=48 velocity=96 time=0
note_off channel=3 note=48 velocity=0 time=960
note_on channel=3 note=43 velocity=96 time=0
note_off channel=3 note=43 velocity=0 time=960
note_on channel=3 note=45 velocity=96 time=0
note_off channel=3 note=45 velocity=0 time=960
note_on channel=3 note=47 velocity=96 time=0
note_off channel=3 note=47 velocity=0 time=480
note_on channel=3 note=48 velocity=96 time=0
note_off channel=3 note=48 velocity=0 time=480
note_on channel=3 note=50 velocity=96 time=0
note_off channel=3 note=50 velocity=0 time=960
note_on channel=3 note=55 velocity=96 time=0
note_off channel=3 note=55 velocity=0 time=960
note_on channel=3 note=48 velocity=96 time=0
note_off channel=3 note=48 velocity=0 time=960
note_on channel=3 note=50 velocity=96 time=0
note_off channel=3 note=50 velocity=0 time=960
note_on channel=3 note=43 velocity=96 time=0
note_off channel=3 note=43 velocity=0 time=960
note_on channel=3 note=52 velocity=96 time=0
note_off channel=3 note=52 velocity=0 time=960
note_on channel=3 note=50 velocity=96 time=0
note_off channel=3 note=50 velocity=0 time=960
note_on channel=3 note=48 velocity=96 time=0
note_off channel=3 note=48 velocity=0 time=960
note_on channel=3 note=55 velocity=96 time=0
note_off channel=3 note=55 velocity=0 time=960
note_on channel=3 note=55 velocity=96 time=0
note_off channel=3 note=55 velocity=0 time=960
note_on channel=3 note=60 velocity=96 time=0
note_off channel=3 note=60 velocity=0 time=480
note_on channel=3 note=59 velocity=96 time=0
note_off channel=3 note=59 velocity=0 time=480
note_on channel=3 note=57 velocity=96 time=0
note_off channel=3 note=57 velocity=0 time=960
note_on channel=3 note=55 velocity=96 time=0
note_off channel=3 note=55 velocity=0 time=960
note_on channel=3 note=52 velocity=96 time=0
note_off channel=3 note=52 velocity=0 time=960
note_on channel=3 note=54 velocity=96 time=0
note_off channel=3 note=54 velocity=0 time=960
note_on channel=3 note=56 velocity=96 time=0
note_off channel=3 note=56 velocity=0 time=960
note_on channel=3 note=57 velocity=96 time=0
note_off channel=3 note=57 velocity=0 time=960
note_on channel=3 note=55 velocity=96 time=0
note_off channel=3 note=55 velocity=0 time=480
note_on channel=3 note=53 velocity=96 time=0
note_off channel=3 note=53 velocity=0 time=480
note_on channel=3 note=55 velocity=96 time=0
note_off channel=3 note=55 velocity=0 time=960
note_on channel=3 note=43 velocity=96 time=0
note_off channel=3 note=43 velocity=0 time=960
note_on channel=3 note=48 velocity=96 time=0
note_off channel=3 note=48 velocity=0 time=960
<meta message end_of_track time=1>
Track 0: 02-AchLiebenChristen
ticks_per_beat: 960
<meta message time_signature numerator=4 denominator=4 clocks_per_click=24 notated_32nd_notes_per_beat=8 time=0>
<meta message key_signature key='Am' time=0>
<meta message set_tempo tempo=652176 time=0>
<meta message track_name name='02-AchLiebenChristen' time=0>
<meta message end_of_track time=1>
Track 1: Instrument 1
ticks_per_beat: 960
program_change channel=0 program=1 time=0
control_change channel=0 control=121 value=0 time=0
control_change channel=0 control=64 value=0 time=0
control_change channel=0 control=91 value=37 time=0
control_change channel=0 control=10 value=51 time=0
control_change channel=0 control=7 value=100 time=0
<meta message track_name name='Instrument 1' time=0>
control_change channel=0 control=64 value=0 time=0
note_on channel=0 note=72 velocity=96 time=2880
note_off channel=0 note=72 velocity=0 time=960
note_on channel=0 note=72 velocity=96 time=0
note_off channel=0 note=72 velocity=0 time=960
note_on channel=0 note=69 velocity=96 time=0
note_off channel=0 note=69 velocity=0 time=480
note_on channel=0 note=71 velocity=96 time=0
note_off channel=0 note=71 velocity=0 time=480
note_on channel=0 note=72 velocity=96 time=0
note_off channel=0 note=72 velocity=0 time=480
note_on channel=0 note=74 velocity=96 time=0
note_off channel=0 note=74 velocity=0 time=480
note_on channel=0 note=76 velocity=96 time=0
note_off channel=0 note=76 velocity=0 time=960
note_on channel=0 note=74 velocity=96 time=0
note_off channel=0 note=74 velocity=0 time=480
note_on channel=0 note=76 velocity=96 time=0
note_off channel=0 note=76 velocity=0 time=240
note_on channel=0 note=77 velocity=96 time=0
note_off channel=0 note=77 velocity=0 time=240
note_on channel=0 note=74 velocity=96 time=0
note_off channel=0 note=74 velocity=0 time=960
note_on channel=0 note=72 velocity=96 time=0
note_off channel=0 note=72 velocity=0 time=960
note_on channel=0 note=72 velocity=96 time=0
note_off channel=0 note=72 velocity=0 time=960
note_on channel=0 note=71 velocity=96 time=0
note_off channel=0 note=71 velocity=0 time=960
note_on channel=0 note=69 velocity=96 time=0
note_off channel=0 note=69 velocity=0 time=480
note_on channel=0 note=71 velocity=96 time=0
note_off channel=0 note=71 velocity=0 time=480
note_on channel=0 note=72 velocity=96 time=0
note_off channel=0 note=72 velocity=0 time=960
note_on channel=0 note=74 velocity=96 time=0
note_off channel=0 note=74 velocity=0 time=480
note_on channel=0 note=72 velocity=96 time=0
note_off channel=0 note=72 velocity=0 time=480
note_on channel=0 note=71 velocity=96 time=0
note_off channel=0 note=71 velocity=0 time=1920
note_on channel=0 note=69 velocity=96 time=0
note_off channel=0 note=69 velocity=0 time=960
note_on channel=0 note=72 velocity=96 time=0
note_off channel=0 note=72 velocity=0 time=960
note_on channel=0 note=72 velocity=96 time=0
note_off channel=0 note=72 velocity=0 time=960
note_on channel=0 note=69 velocity=96 time=0
note_off channel=0 note=69 velocity=0 time=480
note_on channel=0 note=71 velocity=96 time=0
note_off channel=0 note=71 velocity=0 time=480
note_on channel=0 note=72 velocity=96 time=0
note_off channel=0 note=72 velocity=0 time=480
note_on channel=0 note=74 velocity=96 time=0
note_off channel=0 note=74 velocity=0 time=480
note_on channel=0 note=76 velocity=96 time=0
note_off channel=0 note=76 velocity=0 time=960
note_on channel=0 note=74 velocity=96 time=0
note_off channel=0 note=74 velocity=0 time=480
note_on channel=0 note=76 velocity=96 time=0
note_off channel=0 note=76 velocity=0 time=240
note_on channel=0 note=77 velocity=96 time=0
note_off channel=0 note=77 velocity=0 time=240
note_on channel=0 note=74 velocity=96 time=0
note_off channel=0 note=74 velocity=0 time=960
note_on channel=0 note=72 velocity=96 time=0
note_off channel=0 note=72 velocity=0 time=960
note_on channel=0 note=72 velocity=96 time=0
note_off channel=0 note=72 velocity=0 time=960
note_on channel=0 note=71 velocity=96 time=0
note_off channel=0 note=71 velocity=0 time=960
note_on channel=0 note=69 velocity=96 time=0
note_off channel=0 note=69 velocity=0 time=480
note_on channel=0 note=71 velocity=96 time=0
note_off channel=0 note=71 velocity=0 time=480
note_on channel=0 note=72 velocity=96 time=0
note_off channel=0 note=72 velocity=0 time=960
note_on channel=0 note=74 velocity=96 time=0
note_off channel=0 note=74 velocity=0 time=480
note_on channel=0 note=72 velocity=96 time=0
note_off channel=0 note=72 velocity=0 time=480
note_on channel=0 note=71 velocity=96 time=0
note_off channel=0 note=71 velocity=0 time=1920
note_on channel=0 note=69 velocity=96 time=0
note_off channel=0 note=69 velocity=0 time=960
note_on channel=0 note=74 velocity=96 time=0
note_off channel=0 note=74 velocity=0 time=960
note_on channel=0 note=76 velocity=96 time=0
note_off channel=0 note=76 velocity=0 time=960
note_on channel=0 note=76 velocity=96 time=0
note_off channel=0 note=76 velocity=0 time=960
note_on channel=0 note=71 velocity=96 time=0
note_off channel=0 note=71 velocity=0 time=480
note_on channel=0 note=72 velocity=96 time=0
note_off channel=0 note=72 velocity=0 time=480
note_on channel=0 note=74 velocity=96 time=0
note_off channel=0 note=74 velocity=0 time=960
note_on channel=0 note=72 velocity=96 time=0
note_off channel=0 note=72 velocity=0 time=960
note_on channel=0 note=72 velocity=96 time=0
note_off channel=0 note=72 velocity=0 time=960
note_on channel=0 note=71 velocity=96 time=0
note_off channel=0 note=71 velocity=0 time=960
note_on channel=0 note=72 velocity=96 time=0
note_off channel=0 note=72 velocity=0 time=960
note_on channel=0 note=74 velocity=96 time=0
note_off channel=0 note=74 velocity=0 time=960
note_on channel=0 note=69 velocity=96 time=0
note_off channel=0 note=69 velocity=0 time=480
note_on channel=0 note=71 velocity=96 time=0
note_off channel=0 note=71 velocity=0 time=480
note_on channel=0 note=72 velocity=96 time=0
note_off channel=0 note=72 velocity=0 time=960
note_on channel=0 note=71 velocity=96 time=0
note_off channel=0 note=71 velocity=0 time=960
note_on channel=0 note=69 velocity=96 time=0
note_off channel=0 note=69 velocity=0 time=240
note_on channel=0 note=71 velocity=96 time=0
note_off channel=0 note=71 velocity=0 time=240
note_on channel=0 note=72 velocity=96 time=0
note_off channel=0 note=72 velocity=0 time=480
note_on channel=0 note=69 velocity=96 time=0
note_off channel=0 note=69 velocity=0 time=960
note_on channel=0 note=67 velocity=96 time=0
note_off channel=0 note=67 velocity=0 time=960
note_on channel=0 note=72 velocity=96 time=0
note_off channel=0 note=72 velocity=0 time=960
note_on channel=0 note=71 velocity=96 time=0
note_off channel=0 note=71 velocity=0 time=960
note_on channel=0 note=69 velocity=96 time=0
note_off channel=0 note=69 velocity=0 time=480
note_on channel=0 note=71 velocity=96 time=0
note_off channel=0 note=71 velocity=0 time=480
note_on channel=0 note=72 velocity=96 time=0
note_off channel=0 note=72 velocity=0 time=960
note_on channel=0 note=74 velocity=96 time=0
note_off channel=0 note=74 velocity=0 time=480
note_on channel=0 note=72 velocity=96 time=0
note_off channel=0 note=72 velocity=0 time=480
note_on channel=0 note=71 velocity=96 time=0
note_off channel=0 note=71 velocity=0 time=1920
note_on channel=0 note=69 velocity=96 time=0
note_off channel=0 note=69 velocity=0 time=960
<meta message end_of_track time=1>
Track 2: Instrument 2
ticks_per_beat: 960
program_change channel=1 program=1 time=0
control_change channel=1 control=121 value=0 time=0
control_change channel=1 control=64 value=0 time=0
control_change channel=1 control=91 value=37 time=0
control_change channel=1 control=10 value=51 time=0
control_change channel=1 control=7 value=100 time=0
<meta message track_name name='Instrument 2' time=0>
control_change channel=1 control=64 value=0 time=0
note_on channel=1 note=64 velocity=96 time=2880
note_off channel=1 note=64 velocity=0 time=480
note_on channel=1 note=65 velocity=96 time=0
note_off channel=1 note=65 velocity=0 time=480
note_on channel=1 note=67 velocity=96 time=0
note_off channel=1 note=67 velocity=0 time=960
note_on channel=1 note=65 velocity=96 time=0
note_off channel=1 note=65 velocity=0 time=960
note_on channel=1 note=67 velocity=96 time=0
note_off channel=1 note=67 velocity=0 time=960
note_on channel=1 note=67 velocity=96 time=0
note_off channel=1 note=67 velocity=0 time=960
note_on channel=1 note=69 velocity=96 time=0
note_off channel=1 note=69 velocity=0 time=960
note_on channel=1 note=67 velocity=96 time=0
note_off channel=1 note=67 velocity=0 time=480
note_on channel=1 note=65 velocity=96 time=0
note_off channel=1 note=65 velocity=0 time=480
note_on channel=1 note=64 velocity=96 time=0
note_off channel=1 note=64 velocity=0 time=960
note_on channel=1 note=66 velocity=96 time=0
note_off channel=1 note=66 velocity=0 time=960
note_on channel=1 note=67 velocity=96 time=0
note_off channel=1 note=67 velocity=0 time=960
note_on channel=1 note=65 velocity=96 time=0
note_off channel=1 note=65 velocity=0 time=960
note_on channel=1 note=64 velocity=96 time=0
note_off channel=1 note=64 velocity=0 time=960
note_on channel=1 note=69 velocity=96 time=0
note_off channel=1 note=69 velocity=0 time=960
note_on channel=1 note=69 velocity=96 time=0
note_off channel=1 note=69 velocity=0 time=960
note_on channel=1 note=68 velocity=96 time=0
note_off channel=1 note=68 velocity=0 time=960
note_on channel=1 note=64 velocity=96 time=0
note_off channel=1 note=64 velocity=0 time=960
note_on channel=1 note=64 velocity=96 time=0
note_off channel=1 note=64 velocity=0 time=480
note_on channel=1 note=65 velocity=96 time=0
note_off channel=1 note=65 velocity=0 time=480
note_on channel=1 note=67 velocity=96 time=0
note_off channel=1 note=67 velocity=0 time=960
note_on channel=1 note=65 velocity=96 time=0
note_off channel=1 note=65 velocity=0 time=960
note_on channel=1 note=67 velocity=96 time=0
note_off channel=1 note=67 velocity=0 time=960
note_on channel=1 note=67 velocity=96 time=0
note_off channel=1 note=67 velocity=0 time=960
note_on channel=1 note=69 velocity=96 time=0
note_off channel=1 note=69 velocity=0 time=960
note_on channel=1 note=67 velocity=96 time=0
note_off channel=1 note=67 velocity=0 time=480
note_on channel=1 note=65 velocity=96 time=0
note_off channel=1 note=65 velocity=0 time=480
note_on channel=1 note=64 velocity=96 time=0
note_off channel=1 note=64 velocity=0 time=960
note_on channel=1 note=66 velocity=96 time=0
note_off channel=1 note=66 velocity=0 time=960
note_on channel=1 note=67 velocity=96 time=0
note_off channel=1 note=67 velocity=0 time=960
note_on channel=1 note=65 velocity=96 time=0
note_off channel=1 note=65 velocity=0 time=960
note_on channel=1 note=64 velocity=96 time=0
note_off channel=1 note=64 velocity=0 time=960
note_on channel=1 note=69 velocity=96 time=0
note_off channel=1 note=69 velocity=0 time=960
note_on channel=1 note=69 velocity=96 time=0
note_off channel=1 note=69 velocity=0 time=960
note_on channel=1 note=68 velocity=96 time=0
note_off channel=1 note=68 velocity=0 time=960
note_on channel=1 note=64 velocity=96 time=0
note_off channel=1 note=64 velocity=0 time=960
note_on channel=1 note=67 velocity=96 time=0
note_off channel=1 note=67 velocity=0 time=960
note_on channel=1 note=67 velocity=96 time=0
note_off channel=1 note=67 velocity=0 time=960
note_on channel=1 note=67 velocity=96 time=0
note_off channel=1 note=67 velocity=0 time=960
note_on channel=1 note=62 velocity=96 time=0
note_off channel=1 note=62 velocity=0 time=480
note_on channel=1 note=64 velocity=96 time=0
note_off channel=1 note=64 velocity=0 time=480
note_on channel=1 note=65 velocity=96 time=0
note_off channel=1 note=65 velocity=0 time=960
note_on channel=1 note=64 velocity=96 time=0
note_off channel=1 note=64 velocity=0 time=960
note_on channel=1 note=69 velocity=96 time=0
note_off channel=1 note=69 velocity=0 time=960
note_on channel=1 note=68 velocity=96 time=0
note_off channel=1 note=68 velocity=0 time=960
note_on channel=1 note=69 velocity=96 time=0
note_off channel=1 note=69 velocity=0 time=960
note_on channel=1 note=69 velocity=96 time=0
note_off channel=1 note=69 velocity=0 time=480
note_on channel=1 note=67 velocity=96 time=0
note_off channel=1 note=67 velocity=0 time=480
note_on channel=1 note=66 velocity=96 time=0
note_off channel=1 note=66 velocity=0 time=960
note_on channel=1 note=64 velocity=96 time=0
note_off channel=1 note=64 velocity=0 time=960
note_on channel=1 note=62 velocity=96 time=0
note_off channel=1 note=62 velocity=0 time=480
note_on channel=1 note=67 velocity=96 time=0
note_off channel=1 note=67 velocity=0 time=480
note_on channel=1 note=67 velocity=96 time=0
note_off channel=1 note=67 velocity=0 time=480
note_on channel=1 note=64 velocity=96 time=0
note_off channel=1 note=64 velocity=0 time=480
note_on channel=1 note=66 velocity=96 time=0
note_off channel=1 note=66 velocity=0 time=960
note_on channel=1 note=62 velocity=96 time=0
note_off channel=1 note=62 velocity=0 time=960
note_on channel=1 note=64 velocity=96 time=0
note_off channel=1 note=64 velocity=0 time=960
note_on channel=1 note=62 velocity=96 time=0
note_off channel=1 note=62 velocity=0 time=480
note_on channel=1 note=64 velocity=96 time=0
note_off channel=1 note=64 velocity=0 time=480
note_on channel=1 note=66 velocity=96 time=0
note_off channel=1 note=66 velocity=0 time=480
note_on channel=1 note=65 velocity=96 time=0
note_off channel=1 note=65 velocity=0 time=480
note_on channel=1 note=64 velocity=96 time=0
note_off channel=1 note=64 velocity=0 time=960
note_on channel=1 note=69 velocity=96 time=0
note_off channel=1 note=69 velocity=0 time=960
note_on channel=1 note=69 velocity=96 time=0
note_off channel=1 note=69 velocity=0 time=960
note_on channel=1 note=68 velocity=96 time=0
note_off channel=1 note=68 velocity=0 time=960
note_on channel=1 note=64 velocity=96 time=0
note_off channel=1 note=64 velocity=0 time=960
<meta message end_of_track time=1>
Track 3: Instrument 3
ticks_per_beat: 960
program_change channel=2 program=1 time=0
control_change channel=2 control=121 value=0 time=0
control_change channel=2 control=64 value=0 time=0
control_change channel=2 control=91 value=37 time=0
control_change channel=2 control=10 value=51 time=0
control_change channel=2 control=7 value=100 time=0
<meta message track_name name='Instrument 3' time=0>
control_change channel=2 control=64 value=0 time=0
note_on channel=2 note=60 velocity=96 time=2880
note_off channel=2 note=60 velocity=0 time=960
note_on channel=2 note=60 velocity=96 time=0
note_off channel=2 note=60 velocity=0 time=960
note_on channel=2 note=60 velocity=96 time=0
note_off channel=2 note=60 velocity=0 time=960
note_on channel=2 note=60 velocity=96 time=0
note_off channel=2 note=60 velocity=0 time=960
note_on channel=2 note=60 velocity=96 time=0
note_off channel=2 note=60 velocity=0 time=960
note_on channel=2 note=60 velocity=96 time=0
note_off channel=2 note=60 velocity=0 time=960
note_on channel=2 note=59 velocity=96 time=0
note_off channel=2 note=59 velocity=0 time=960
note_on channel=2 note=55 velocity=96 time=0
note_off channel=2 note=55 velocity=0 time=960
note_on channel=2 note=57 velocity=96 time=0
note_off channel=2 note=57 velocity=0 time=960
note_on channel=2 note=62 velocity=96 time=0
note_off channel=2 note=62 velocity=0 time=960
note_on channel=2 note=62 velocity=96 time=0
note_off channel=2 note=62 velocity=0 time=960
note_on channel=2 note=60 velocity=96 time=0
note_off channel=2 note=60 velocity=0 time=480
note_on channel=2 note=59 velocity=96 time=0
note_off channel=2 note=59 velocity=0 time=480
note_on channel=2 note=57 velocity=96 time=0
note_off channel=2 note=57 velocity=0 time=960
note_on channel=2 note=65 velocity=96 time=0
note_off channel=2 note=65 velocity=0 time=960
note_on channel=2 note=64 velocity=96 time=0
note_off channel=2 note=64 velocity=0 time=480
note_on channel=2 note=62 velocity=96 time=0
note_off channel=2 note=62 velocity=0 time=480
note_on channel=2 note=61 velocity=96 time=0
note_off channel=2 note=61 velocity=0 time=960
note_on channel=2 note=60 velocity=96 time=0
note_off channel=2 note=60 velocity=0 time=960
note_on channel=2 note=60 velocity=96 time=0
note_off channel=2 note=60 velocity=0 time=960
note_on channel=2 note=60 velocity=96 time=0
note_off channel=2 note=60 velocity=0 time=960
note_on channel=2 note=60 velocity=96 time=0
note_off channel=2 note=60 velocity=0 time=960
note_on channel=2 note=60 velocity=96 time=0
note_off channel=2 note=60 velocity=0 time=960
note_on channel=2 note=60 velocity=96 time=0
note_off channel=2 note=60 velocity=0 time=960
note_on channel=2 note=59 velocity=96 time=0
note_off channel=2 note=59 velocity=0 time=960
note_on channel=2 note=55 velocity=96 time=0
note_off channel=2 note=55 velocity=0 time=960
note_on channel=2 note=57 velocity=96 time=0
note_off channel=2 note=57 velocity=0 time=960
note_on channel=2 note=62 velocity=96 time=0
note_off channel=2 note=62 velocity=0 time=960
note_on channel=2 note=62 velocity=96 time=0
note_off channel=2 note=62 velocity=0 time=960
note_on channel=2 note=60 velocity=96 time=0
note_off channel=2 note=60 velocity=0 time=480
note_on channel=2 note=59 velocity=96 time=0
note_off channel=2 note=59 velocity=0 time=480
note_on channel=2 note=57 velocity=96 time=0
note_off channel=2 note=57 velocity=0 time=960
note_on channel=2 note=65 velocity=96 time=0
note_off channel=2 note=65 velocity=0 time=960
note_on channel=2 note=64 velocity=96 time=0
note_off channel=2 note=64 velocity=0 time=480
note_on channel=2 note=62 velocity=96 time=0
note_off channel=2 note=62 velocity=0 time=480
note_on channel=2 note=61 velocity=96 time=0
note_off channel=2 note=61 velocity=0 time=960
note_on channel=2 note=59 velocity=96 time=0
note_off channel=2 note=59 velocity=0 time=960
note_on channel=2 note=60 velocity=96 time=0
note_off channel=2 note=60 velocity=0 time=960
note_on channel=2 note=55 velocity=96 time=0
note_off channel=2 note=55 velocity=0 time=480
note_on channel=2 note=57 velocity=96 time=0
note_off channel=2 note=57 velocity=0 time=480
note_on channel=2 note=59 velocity=96 time=0
note_off channel=2 note=59 velocity=0 time=960
note_on channel=2 note=57 velocity=96 time=0
note_off channel=2 note=57 velocity=0 time=480
note_on channel=2 note=59 velocity=96 time=0
note_off channel=2 note=59 velocity=0 time=480
note_on channel=2 note=60 velocity=96 time=0
note_off channel=2 note=60 velocity=0 time=480
note_on channel=2 note=62 velocity=96 time=0
note_off channel=2 note=62 velocity=0 time=480
note_on channel=2 note=64 velocity=96 time=0
note_off channel=2 note=64 velocity=0 time=960
note_on channel=2 note=64 velocity=96 time=0
note_off channel=2 note=64 velocity=0 time=960
note_on channel=2 note=64 velocity=96 time=0
note_off channel=2 note=64 velocity=0 time=960
note_on channel=2 note=57 velocity=96 time=0
note_off channel=2 note=57 velocity=0 time=960
note_on channel=2 note=62 velocity=96 time=0
note_off channel=2 note=62 velocity=0 time=960
note_on channel=2 note=55 velocity=96 time=0
note_off channel=2 note=55 velocity=0 time=480
note_on channel=2 note=57 velocity=96 time=0
note_off channel=2 note=57 velocity=0 time=480
note_on channel=2 note=59 velocity=96 time=0
note_off channel=2 note=59 velocity=0 time=480
note_on channel=2 note=62 velocity=96 time=0
note_off channel=2 note=62 velocity=0 time=480
note_on channel=2 note=64 velocity=96 time=0
note_off channel=2 note=64 velocity=0 time=960
note_on channel=2 note=62 velocity=96 time=0
note_off channel=2 note=62 velocity=0 time=480
note_on channel=2 note=60 velocity=96 time=0
note_off channel=2 note=60 velocity=0 time=480
note_on channel=2 note=59 velocity=96 time=0
note_off channel=2 note=59 velocity=0 time=960
note_on channel=2 note=55 velocity=96 time=0
note_off channel=2 note=55 velocity=0 time=480
note_on channel=2 note=57 velocity=96 time=0
note_off channel=2 note=57 velocity=0 time=480
note_on channel=2 note=59 velocity=96 time=0
note_off channel=2 note=59 velocity=0 time=480
note_on channel=2 note=60 velocity=96 time=0
note_off channel=2 note=60 velocity=0 time=480
note_on channel=2 note=62 velocity=96 time=0
note_off channel=2 note=62 velocity=0 time=960
note_on channel=2 note=60 velocity=96 time=0
note_off channel=2 note=60 velocity=0 time=480
note_on channel=2 note=59 velocity=96 time=0
note_off channel=2 note=59 velocity=0 time=480
note_on channel=2 note=57 velocity=96 time=0
note_off channel=2 note=57 velocity=0 time=480
note_on channel=2 note=60 velocity=96 time=0
note_off channel=2 note=60 velocity=0 time=480
note_on channel=2 note=65 velocity=96 time=0
note_off channel=2 note=65 velocity=0 time=480
note_on channel=2 note=62 velocity=96 time=0
note_off channel=2 note=62 velocity=0 time=480
note_on channel=2 note=59 velocity=96 time=0
note_off channel=2 note=59 velocity=0 time=480
note_on channel=2 note=64 velocity=96 time=0
note_off channel=2 note=64 velocity=0 time=480
note_on channel=2 note=61 velocity=96 time=0
note_off channel=2 note=61 velocity=0 time=960
<meta message end_of_track time=1>
Track 4: Instrument 4
ticks_per_beat: 960
program_change channel=3 program=1 time=0
control_change channel=3 control=121 value=0 time=0
control_change channel=3 control=64 value=0 time=0
control_change channel=3 control=91 value=37 time=0
control_change channel=3 control=10 value=51 time=0
control_change channel=3 control=7 value=100 time=0
<meta message track_name name='Instrument 4' time=0>
control_change channel=3 control=64 value=0 time=0
note_on channel=3 note=57 velocity=96 time=2880
note_off channel=3 note=57 velocity=0 time=960
note_on channel=3 note=52 velocity=96 time=0
note_off channel=3 note=52 velocity=0 time=960
note_on channel=3 note=53 velocity=96 time=0
note_off channel=3 note=53 velocity=0 time=960
note_on channel=3 note=52 velocity=96 time=0
note_off channel=3 note=52 velocity=0 time=480
note_on channel=3 note=50 velocity=96 time=0
note_off channel=3 note=50 velocity=0 time=480
note_on channel=3 note=48 velocity=96 time=0
note_off channel=3 note=48 velocity=0 time=960
note_on channel=3 note=53 velocity=96 time=0
note_off channel=3 note=53 velocity=0 time=960
note_on channel=3 note=55 velocity=96 time=0
note_off channel=3 note=55 velocity=0 time=960
note_on channel=3 note=48 velocity=96 time=0
note_off channel=3 note=48 velocity=0 time=960
note_on channel=3 note=57 velocity=96 time=0
note_off channel=3 note=57 velocity=0 time=960
note_on channel=3 note=55 velocity=96 time=0
note_off channel=3 note=55 velocity=0 time=960
note_on channel=3 note=62 velocity=96 time=0
note_off channel=3 note=62 velocity=0 time=960
note_on channel=3 note=57 velocity=96 time=0
note_off channel=3 note=57 velocity=0 time=480
note_on channel=3 note=55 velocity=96 time=0
note_off channel=3 note=55 velocity=0 time=480
note_on channel=3 note=53 velocity=96 time=0
note_off channel=3 note=53 velocity=0 time=480
note_on channel=3 note=52 velocity=96 time=0
note_off channel=3 note=52 velocity=0 time=480
note_on channel=3 note=50 velocity=96 time=0
note_off channel=3 note=50 velocity=0 time=960
note_on channel=3 note=52 velocity=96 time=0
note_off channel=3 note=52 velocity=0 time=960
note_on channel=3 note=45 velocity=96 time=0
note_off channel=3 note=45 velocity=0 time=960
note_on channel=3 note=57 velocity=96 time=0
note_off channel=3 note=57 velocity=0 time=960
note_on channel=3 note=52 velocity=96 time=0
note_off channel=3 note=52 velocity=0 time=960
note_on channel=3 note=53 velocity=96 time=0
note_off channel=3 note=53 velocity=0 time=960
note_on channel=3 note=52 velocity=96 time=0
note_off channel=3 note=52 velocity=0 time=480
note_on channel=3 note=50 velocity=96 time=0
note_off channel=3 note=50 velocity=0 time=480
note_on channel=3 note=48 velocity=96 time=0
note_off channel=3 note=48 velocity=0 time=960
note_on channel=3 note=53 velocity=96 time=0
note_off channel=3 note=53 velocity=0 time=960
note_on channel=3 note=55 velocity=96 time=0
note_off channel=3 note=55 velocity=0 time=960
note_on channel=3 note=48 velocity=96 time=0
note_off channel=3 note=48 velocity=0 time=960
note_on channel=3 note=57 velocity=96 time=0
note_off channel=3 note=57 velocity=0 time=960
note_on channel=3 note=55 velocity=96 time=0
note_off channel=3 note=55 velocity=0 time=960
note_on channel=3 note=62 velocity=96 time=0
note_off channel=3 note=62 velocity=0 time=960
note_on channel=3 note=57 velocity=96 time=0
note_off channel=3 note=57 velocity=0 time=480
note_on channel=3 note=55 velocity=96 time=0
note_off channel=3 note=55 velocity=0 time=480
note_on channel=3 note=53 velocity=96 time=0
note_off channel=3 note=53 velocity=0 time=480
note_on channel=3 note=52 velocity=96 time=0
note_off channel=3 note=52 velocity=0 time=480
note_on channel=3 note=50 velocity=96 time=0
note_off channel=3 note=50 velocity=0 time=960
note_on channel=3 note=52 velocity=96 time=0
note_off channel=3 note=52 velocity=0 time=960
note_on channel=3 note=45 velocity=96 time=0
note_off channel=3 note=45 velocity=0 time=960
note_on channel=3 note=43 velocity=96 time=0
note_off channel=3 note=43 velocity=0 time=960
note_on channel=3 note=48 velocity=96 time=0
note_off channel=3 note=48 velocity=0 time=480
note_on channel=3 note=50 velocity=96 time=0
note_off channel=3 note=50 velocity=0 time=480
note_on channel=3 note=52 velocity=96 time=0
note_off channel=3 note=52 velocity=0 time=480
note_on channel=3 note=53 velocity=96 time=0
note_off channel=3 note=53 velocity=0 time=480
note_on channel=3 note=55 velocity=96 time=0
note_off channel=3 note=55 velocity=0 time=960
note_on channel=3 note=53 velocity=96 time=0
note_off channel=3 note=53 velocity=0 time=960
note_on channel=3 note=45 velocity=96 time=0
note_off channel=3 note=45 velocity=0 time=480
note_on channel=3 note=47 velocity=96 time=0
note_off channel=3 note=47 velocity=0 time=480
note_on channel=3 note=48 velocity=96 time=0
note_off channel=3 note=48 velocity=0 time=480
note_on channel=3 note=50 velocity=96 time=0
note_off channel=3 note=50 velocity=0 time=480
note_on channel=3 note=52 velocity=96 time=0
note_off channel=3 note=52 velocity=0 time=960
note_on channel=3 note=57 velocity=96 time=0
note_off channel=3 note=57 velocity=0 time=480
note_on channel=3 note=55 velocity=96 time=0
note_off channel=3 note=55 velocity=0 time=480
note_on channel=3 note=54 velocity=96 time=0
note_off channel=3 note=54 velocity=0 time=480
note_on channel=3 note=52 velocity=96 time=0
note_off channel=3 note=52 velocity=0 time=480
note_on channel=3 note=50 velocity=96 time=0
note_off channel=3 note=50 velocity=0 time=960
note_on channel=3 note=52 velocity=96 time=0
note_off channel=3 note=52 velocity=0 time=480
note_on channel=3 note=54 velocity=96 time=0
note_off channel=3 note=54 velocity=0 time=480
note_on channel=3 note=55 velocity=96 time=0
note_off channel=3 note=55 velocity=0 time=960
note_on channel=3 note=48 velocity=96 time=0
note_off channel=3 note=48 velocity=0 time=960
note_on channel=3 note=50 velocity=96 time=0
note_off channel=3 note=50 velocity=0 time=960
note_on channel=3 note=43 velocity=96 time=0
note_off channel=3 note=43 velocity=0 time=960
note_on channel=3 note=52 velocity=96 time=0
note_off channel=3 note=52 velocity=0 time=480
note_on channel=3 note=54 velocity=96 time=0
note_off channel=3 note=54 velocity=0 time=480
note_on channel=3 note=55 velocity=96 time=0
note_off channel=3 note=55 velocity=0 time=960
note_on channel=3 note=54 velocity=96 time=0
note_off channel=3 note=54 velocity=0 time=480
note_on channel=3 note=56 velocity=96 time=0
note_off channel=3 note=56 velocity=0 time=480
note_on channel=3 note=57 velocity=96 time=0
note_off channel=3 note=57 velocity=0 time=480
note_on channel=3 note=55 velocity=96 time=0
note_off channel=3 note=55 velocity=0 time=480
note_on channel=3 note=53 velocity=96 time=0
note_off channel=3 note=53 velocity=0 time=480
note_on channel=3 note=52 velocity=96 time=0
note_off channel=3 note=52 velocity=0 time=480
note_on channel=3 note=50 velocity=96 time=0
note_off channel=3 note=50 velocity=0 time=480
note_on channel=3 note=47 velocity=96 time=0
note_off channel=3 note=47 velocity=0 time=480
note_on channel=3 note=52 velocity=96 time=0
note_off channel=3 note=52 velocity=0 time=960
note_on channel=3 note=45 velocity=96 time=0
note_off channel=3 note=45 velocity=0 time=960
<meta message end_of_track time=1>
Track 0: 03-ChristederdubistTagundLicht
ticks_per_beat: 960
<meta message time_signature numerator=4 denominator=4 clocks_per_click=24 notated_32nd_notes_per_beat=8 time=0>
<meta message key_signature key='Bb' time=0>
<meta message set_tempo tempo=625000 time=0>
<meta message track_name name='03-ChristederdubistTagundLicht' time=0>
<meta message end_of_track time=1>
Track 1: Instrument 1
ticks_per_beat: 960
program_change channel=0 program=1 time=0
control_change channel=0 control=121 value=0 time=0
control_change channel=0 control=64 value=0 time=0
control_change channel=0 control=91 value=37 time=0
control_change channel=0 control=10 value=51 time=0
control_change channel=0 control=7 value=100 time=0
<meta message track_name name='Instrument 1' time=0>
control_change channel=0 control=64 value=0 time=0
note_on channel=0 note=67 velocity=96 time=2880
note_off channel=0 note=67 velocity=0 time=960
note_on channel=0 note=70 velocity=96 time=0
note_off channel=0 note=70 velocity=0 time=960
note_on channel=0 note=67 velocity=96 time=0
note_off channel=0 note=67 velocity=0 time=960
note_on channel=0 note=65 velocity=96 time=0
note_off channel=0 note=65 velocity=0 time=960
note_on channel=0 note=67 velocity=96 time=0
note_off channel=0 note=67 velocity=0 time=480
note_on channel=0 note=69 velocity=96 time=0
note_off channel=0 note=69 velocity=0 time=480
note_on channel=0 note=70 velocity=96 time=0
note_off channel=0 note=70 velocity=0 time=960
note_on channel=0 note=69 velocity=96 time=0
note_off channel=0 note=69 velocity=0 time=960
note_on channel=0 note=67 velocity=96 time=0
note_off channel=0 note=67 velocity=0 time=960
note_on channel=0 note=70 velocity=96 time=0
note_off channel=0 note=70 velocity=0 time=960
note_on channel=0 note=70 velocity=96 time=0
note_off channel=0 note=70 velocity=0 time=960
note_on channel=0 note=70 velocity=96 time=0
note_off channel=0 note=70 velocity=0 time=960
note_on channel=0 note=70 velocity=96 time=0
note_off channel=0 note=70 velocity=0 time=960
note_on channel=0 note=65 velocity=96 time=0
note_off channel=0 note=65 velocity=0 time=960
note_on channel=0 note=67 velocity=96 time=0
note_off channel=0 note=67 velocity=0 time=960
note_on channel=0 note=70 velocity=96 time=0
note_off channel=0 note=70 velocity=0 time=960
note_on channel=0 note=69 velocity=96 time=0
note_off channel=0 note=69 velocity=0 time=960
note_on channel=0 note=69 velocity=96 time=0
note_off channel=0 note=69 velocity=0 time=960
note_on channel=0 note=72 velocity=96 time=0
note_off channel=0 note=72 velocity=0 time=960
note_on channel=0 note=72 velocity=96 time=0
note_off channel=0 note=72 velocity=0 time=960
note_on channel=0 note=72 velocity=96 time=0
note_off channel=0 note=72 velocity=0 time=480
note_on channel=0 note=70 velocity=96 time=0
note_off channel=0 note=70 velocity=0 time=240
note_on channel=0 note=69 velocity=96 time=0
note_off channel=0 note=69 velocity=0 time=240
note_on channel=0 note=67 velocity=96 time=0
note_off channel=0 note=67 velocity=0 time=480
note_on channel=0 note=69 velocity=96 time=0
note_off channel=0 note=69 velocity=0 time=480
note_on channel=0 note=70 velocity=96 time=0
note_off channel=0 note=70 velocity=0 time=960
note_on channel=0 note=69 velocity=96 time=0
note_off channel=0 note=69 velocity=0 time=960
note_on channel=0 note=67 velocity=96 time=0
note_off channel=0 note=67 velocity=0 time=960
note_on channel=0 note=69 velocity=96 time=0
note_off channel=0 note=69 velocity=0 time=960
note_on channel=0 note=70 velocity=96 time=0
note_off channel=0 note=70 velocity=0 time=960
note_on channel=0 note=67 velocity=96 time=0
note_off channel=0 note=67 velocity=0 time=960
note_on channel=0 note=65 velocity=96 time=0
note_off channel=0 note=65 velocity=0 time=960
note_on channel=0 note=67 velocity=96 time=0
note_off channel=0 note=67 velocity=0 time=480
note_on channel=0 note=69 velocity=96 time=0
note_off channel=0 note=69 velocity=0 time=480
note_on channel=0 note=70 velocity=96 time=0
note_off channel=0 note=70 velocity=0 time=960
note_on channel=0 note=69 velocity=96 time=0
note_off channel=0 note=69 velocity=0 time=960
note_on channel=0 note=67 velocity=96 time=0
note_off channel=0 note=67 velocity=0 time=1920
<meta message end_of_track time=1>
Track 2: Instrument 2
ticks_per_beat: 960
program_change channel=1 program=1 time=0
control_change channel=1 control=121 value=0 time=0
control_change channel=1 control=64 value=0 time=0
control_change channel=1 control=91 value=37 time=0
control_change channel=1 control=10 value=51 time=0
control_change channel=1 control=7 value=100 time=0
<meta message track_name name='Instrument 2' time=0>
control_change channel=1 control=64 value=0 time=0
note_on channel=1 note=62 velocity=96 time=2880
note_off channel=1 note=62 velocity=0 time=960
note_on channel=1 note=62 velocity=96 time=0
note_off channel=1 note=62 velocity=0 time=960
note_on channel=1 note=62 velocity=96 time=0
note_off channel=1 note=62 velocity=0 time=960
note_on channel=1 note=62 velocity=96 time=0
note_off channel=1 note=62 velocity=0 time=960
note_on channel=1 note=62 velocity=96 time=0
note_off channel=1 note=62 velocity=0 time=480
note_on channel=1 note=66 velocity=96 time=0
note_off channel=1 note=66 velocity=0 time=480
note_on channel=1 note=67 velocity=96 time=0
note_off channel=1 note=67 velocity=0 time=1440
note_on channel=1 note=66 velocity=96 time=0
note_off channel=1 note=66 velocity=0 time=480
note_on channel=1 note=62 velocity=96 time=0
note_off channel=1 note=62 velocity=0 time=960
note_on channel=1 note=67 velocity=96 time=0
note_off channel=1 note=67 velocity=0 time=960
note_on channel=1 note=67 velocity=96 time=0
note_off channel=1 note=67 velocity=0 time=960
note_on channel=1 note=67 velocity=96 time=0
note_off channel=1 note=67 velocity=0 time=960
note_on channel=1 note=65 velocity=96 time=0
note_off channel=1 note=65 velocity=0 time=480
note_on channel=1 note=63 velocity=96 time=0
note_off channel=1 note=63 velocity=0 time=960
note_on channel=1 note=62 velocity=96 time=0
note_off channel=1 note=62 velocity=0 time=240
note_on channel=1 note=60 velocity=96 time=0
note_off channel=1 note=60 velocity=0 time=240
note_on channel=1 note=62 velocity=96 time=0
note_off channel=1 note=62 velocity=0 time=480
note_on channel=1 note=64 velocity=96 time=0
note_off channel=1 note=64 velocity=0 time=240
note_on channel=1 note=65 velocity=96 time=0
note_off channel=1 note=65 velocity=0 time=240
note_on channel=1 note=67 velocity=96 time=0
note_off channel=1 note=67 velocity=0 time=960
note_on channel=1 note=65 velocity=96 time=0
note_off channel=1 note=65 velocity=0 time=960
note_on channel=1 note=65 velocity=96 time=0
note_off channel=1 note=65 velocity=0 time=960
note_on channel=1 note=65 velocity=96 time=0
note_off channel=1 note=65 velocity=0 time=960
note_on channel=1 note=64 velocity=96 time=0
note_off channel=1 note=64 velocity=0 time=480
note_on channel=1 note=66 velocity=96 time=0
note_off channel=1 note=66 velocity=0 time=480
note_on channel=1 note=67 velocity=96 time=0
note_off channel=1 note=67 velocity=0 time=480
note_on channel=1 note=66 velocity=96 time=0
note_off channel=1 note=66 velocity=0 time=480
note_on channel=1 note=67 velocity=96 time=0
note_off channel=1 note=67 velocity=0 time=480
note_on channel=1 note=62 velocity=96 time=0
note_off channel=1 note=62 velocity=0 time=480
note_on channel=1 note=62 velocity=96 time=0
note_off channel=1 note=62 velocity=0 time=480
note_on channel=1 note=67 velocity=96 time=0
note_off channel=1 note=67 velocity=0 time=960
note_on channel=1 note=66 velocity=96 time=0
note_off channel=1 note=66 velocity=0 time=480
note_on channel=1 note=62 velocity=96 time=0
note_off channel=1 note=62 velocity=0 time=960
note_on channel=1 note=66 velocity=96 time=0
note_off channel=1 note=66 velocity=0 time=960
note_on channel=1 note=67 velocity=96 time=0
note_off channel=1 note=67 velocity=0 time=960
note_on channel=1 note=62 velocity=96 time=0
note_off channel=1 note=62 velocity=0 time=960
note_on channel=1 note=62 velocity=96 time=0
note_off channel=1 note=62 velocity=0 time=960
note_on channel=1 note=62 velocity=96 time=0
note_off channel=1 note=62 velocity=0 time=480
note_on channel=1 note=66 velocity=96 time=0
note_off channel=1 note=66 velocity=0 time=480
note_on channel=1 note=67 velocity=96 time=0
note_off channel=1 note=67 velocity=0 time=1440
note_on channel=1 note=66 velocity=96 time=0
note_off channel=1 note=66 velocity=0 time=480
note_on channel=1 note=62 velocity=96 time=0
note_off channel=1 note=62 velocity=0 time=1920
<meta message end_of_track time=1>
Track 3: Instrument 3
ticks_per_beat: 960
program_change channel=2 program=1 time=0
control_change channel=2 control=121 value=0 time=0
control_change channel=2 control=64 value=0 time=0
control_change channel=2 control=91 value=37 time=0
control_change channel=2 control=10 value=51 time=0
control_change channel=2 control=7 value=100 time=0
<meta message track_name name='Instrument 3' time=0>
control_change channel=2 control=64 value=0 time=0
note_on channel=2 note=62 velocity=96 time=2880
note_off channel=2 note=62 velocity=0 time=480
note_on channel=2 note=60 velocity=96 time=0
note_off channel=2 note=60 velocity=0 time=480
note_on channel=2 note=58 velocity=96 time=0
note_off channel=2 note=58 velocity=0 time=960
note_on channel=2 note=58 velocity=96 time=0
note_off channel=2 note=58 velocity=0 time=960
note_on channel=2 note=57 velocity=96 time=0
note_off channel=2 note=57 velocity=0 time=960
note_on channel=2 note=58 velocity=96 time=0
note_off channel=2 note=58 velocity=0 time=480
note_on channel=2 note=60 velocity=96 time=0
note_off channel=2 note=60 velocity=0 time=480
note_on channel=2 note=62 velocity=96 time=0
note_off channel=2 note=62 velocity=0 time=960
note_on channel=2 note=63 velocity=96 time=0
note_off channel=2 note=63 velocity=0 time=480
note_on channel=2 note=62 velocity=96 time=0
note_off channel=2 note=62 velocity=0 time=240
note_on channel=2 note=60 velocity=96 time=0
note_off channel=2 note=60 velocity=0 time=240
note_on channel=2 note=58 velocity=96 time=0
note_off channel=2 note=58 velocity=0 time=960
note_on channel=2 note=62 velocity=96 time=0
note_off channel=2 note=62 velocity=0 time=960
note_on channel=2 note=62 velocity=96 time=0
note_off channel=2 note=62 velocity=0 time=960
note_on channel=2 note=62 velocity=96 time=0
note_off channel=2 note=62 velocity=0 time=960
note_on channel=2 note=62 velocity=96 time=0
note_off channel=2 note=62 velocity=0 time=480
note_on channel=2 note=55 velocity=96 time=0
note_off channel=2 note=55 velocity=0 time=480
note_on channel=2 note=57 velocity=96 time=0
note_off channel=2 note=57 velocity=0 time=480
note_on channel=2 note=58 velocity=96 time=0
note_off channel=2 note=58 velocity=0 time=480
note_on channel=2 note=58 velocity=96 time=0
note_off channel=2 note=58 velocity=0 time=480
note_on channel=2 note=57 velocity=96 time=0
note_off channel=2 note=57 velocity=0 time=480
note_on channel=2 note=55 velocity=96 time=0
note_off channel=2 note=55 velocity=0 time=480
note_on channel=2 note=60 velocity=96 time=0
note_off channel=2 note=60 velocity=0 time=480
note_on channel=2 note=60 velocity=96 time=0
note_off channel=2 note=60 velocity=0 time=960
note_on channel=2 note=60 velocity=96 time=0
note_off channel=2 note=60 velocity=0 time=480
note_on channel=2 note=58 velocity=96 time=0
note_off channel=2 note=58 velocity=0 time=480
note_on channel=2 note=57 velocity=96 time=0
note_off channel=2 note=57 velocity=0 time=480
note_on channel=2 note=55 velocity=96 time=0
note_off channel=2 note=55 velocity=0 time=480
note_on channel=2 note=57 velocity=96 time=0
note_off channel=2 note=57 velocity=0 time=960
note_on channel=2 note=55 velocity=96 time=0
note_off channel=2 note=55 velocity=0 time=480
note_on channel=2 note=60 velocity=96 time=0
note_off channel=2 note=60 velocity=0 time=480
note_on channel=2 note=58 velocity=96 time=0
note_off channel=2 note=58 velocity=0 time=480
note_on channel=2 note=57 velocity=96 time=0
note_off channel=2 note=57 velocity=0 time=480
note_on channel=2 note=55 velocity=96 time=0
note_off channel=2 note=55 velocity=0 time=480
note_on channel=2 note=62 velocity=96 time=0
note_off channel=2 note=62 velocity=0 time=480
note_on channel=2 note=63 velocity=96 time=0
note_off channel=2 note=63 velocity=0 time=480
note_on channel=2 note=62 velocity=96 time=0
note_off channel=2 note=62 velocity=0 time=240
note_on channel=2 note=60 velocity=96 time=0
note_off channel=2 note=60 velocity=0 time=240
note_on channel=2 note=58 velocity=96 time=0
note_off channel=2 note=58 velocity=0 time=960
note_on channel=2 note=62 velocity=96 time=0
note_off channel=2 note=62 velocity=0 time=960
note_on channel=2 note=62 velocity=96 time=0
note_off channel=2 note=62 velocity=0 time=960
note_on channel=2 note=58 velocity=96 time=0
note_off channel=2 note=58 velocity=0 time=960
note_on channel=2 note=57 velocity=96 time=0
note_off channel=2 note=57 velocity=0 time=960
note_on channel=2 note=58 velocity=96 time=0
note_off channel=2 note=58 velocity=0 time=480
note_on channel=2 note=60 velocity=96 time=0
note_off channel=2 note=60 velocity=0 time=480
note_on channel=2 note=62 velocity=96 time=0
note_off channel=2 note=62 velocity=0 time=960
note_on channel=2 note=63 velocity=96 time=0
note_off channel=2 note=63 velocity=0 time=480
note_on channel=2 note=62 velocity=96 time=0
note_off channel=2 note=62 velocity=0 time=240
note_on channel=2 note=60 velocity=96 time=0
note_off channel=2 note=60 velocity=0 time=240
note_on channel=2 note=59 velocity=96 time=0
note_off channel=2 note=59 velocity=0 time=1920
<meta message end_of_track time=1>
Track 4: Instrument 4
ticks_per_beat: 960
program_change channel=3 program=1 time=0
control_change channel=3 control=121 value=0 time=0
control_change channel=3 control=64 value=0 time=0
control_change channel=3 control=91 value=37 time=0
control_change channel=3 control=10 value=51 time=0
control_change channel=3 control=7 value=100 time=0
<meta message track_name name='Instrument 4' time=0>
control_change channel=3 control=64 value=0 time=0
note_on channel=3 note=46 velocity=96 time=2880
note_off channel=3 note=46 velocity=0 time=480
note_on channel=3 note=45 velocity=96 time=0
note_off channel=3 note=45 velocity=0 time=480
note_on channel=3 note=43 velocity=96 time=0
note_off channel=3 note=43 velocity=0 time=480
note_on channel=3 note=45 velocity=96 time=0
note_off channel=3 note=45 velocity=0 time=480
note_on channel=3 note=46 velocity=96 time=0
note_off channel=3 note=46 velocity=0 time=480
note_on channel=3 note=48 velocity=96 time=0
note_off channel=3 note=48 velocity=0 time=480
note_on channel=3 note=50 velocity=96 time=0
note_off channel=3 note=50 velocity=0 time=480
note_on channel=3 note=48 velocity=96 time=0
note_off channel=3 note=48 velocity=0 time=480
note_on channel=3 note=46 velocity=96 time=0
note_off channel=3 note=46 velocity=0 time=480
note_on channel=3 note=45 velocity=96 time=0
note_off channel=3 note=45 velocity=0 time=480
note_on channel=3 note=43 velocity=96 time=0
note_off channel=3 note=43 velocity=0 time=480
note_on channel=3 note=46 velocity=96 time=0
note_off channel=3 note=46 velocity=0 time=480
note_on channel=3 note=48 velocity=96 time=0
note_off channel=3 note=48 velocity=0 time=480
note_on channel=3 note=50 velocity=96 time=0
note_off channel=3 note=50 velocity=0 time=480
note_on channel=3 note=43 velocity=96 time=0
note_off channel=3 note=43 velocity=0 time=960
note_on channel=3 note=55 velocity=96 time=0
note_off channel=3 note=55 velocity=0 time=960
note_on channel=3 note=43 velocity=96 time=0
note_off channel=3 note=43 velocity=0 time=480
note_on channel=3 note=45 velocity=96 time=0
note_off channel=3 note=45 velocity=0 time=480
note_on channel=3 note=46 velocity=96 time=0
note_off channel=3 note=46 velocity=0 time=480
note_on channel=3 note=48 velocity=96 time=0
note_off channel=3 note=48 velocity=0 time=480
note_on channel=3 note=50 velocity=96 time=0
note_off channel=3 note=50 velocity=0 time=480
note_on channel=3 note=51 velocity=96 time=0
note_off channel=3 note=51 velocity=0 time=480
note_on channel=3 note=53 velocity=96 time=0
note_off channel=3 note=53 velocity=0 time=960
note_on channel=3 note=53 velocity=96 time=0
note_off channel=3 note=53 velocity=0 time=960
note_on channel=3 note=52 velocity=96 time=0
note_off channel=3 note=52 velocity=0 time=960
note_on channel=3 note=53 velocity=96 time=0
note_off channel=3 note=53 velocity=0 time=960
note_on channel=3 note=41 velocity=96 time=0
note_off channel=3 note=41 velocity=0 time=480
note_on channel=3 note=43 velocity=96 time=0
note_off channel=3 note=43 velocity=0 time=480
note_on channel=3 note=45 velocity=96 time=0
note_off channel=3 note=45 velocity=0 time=480
note_on channel=3 note=46 velocity=96 time=0
note_off channel=3 note=46 velocity=0 time=480
note_on channel=3 note=48 velocity=96 time=0
note_off channel=3 note=48 velocity=0 time=480
note_on channel=3 note=50 velocity=96 time=0
note_off channel=3 note=50 velocity=0 time=480
note_on channel=3 note=51 velocity=96 time=0
note_off channel=3 note=51 velocity=0 time=1440
note_on channel=3 note=42 velocity=96 time=0
note_off channel=3 note=42 velocity=0 time=480
note_on channel=3 note=43 velocity=96 time=0
note_off channel=3 note=43 velocity=0 time=480
note_on channel=3 note=46 velocity=96 time=0
note_off channel=3 note=46 velocity=0 time=480
note_on channel=3 note=48 velocity=96 time=0
note_off channel=3 note=48 velocity=0 time=480
note_on channel=3 note=50 velocity=96 time=0
note_off channel=3 note=50 velocity=0 time=480
note_on channel=3 note=43 velocity=96 time=0
note_off channel=3 note=43 velocity=0 time=960
note_on channel=3 note=50 velocity=96 time=0
note_off channel=3 note=50 velocity=0 time=960
note_on channel=3 note=43 velocity=96 time=0
note_off channel=3 note=43 velocity=0 time=480
note_on channel=3 note=45 velocity=96 time=0
note_off channel=3 note=45 velocity=0 time=480
note_on channel=3 note=46 velocity=96 time=0
note_off channel=3 note=46 velocity=0 time=480
note_on channel=3 note=48 velocity=96 time=0
note_off channel=3 note=48 velocity=0 time=480
note_on channel=3 note=50 velocity=96 time=0
note_off channel=3 note=50 velocity=0 time=480
note_on channel=3 note=48 velocity=96 time=0
note_off channel=3 note=48 velocity=0 time=480
note_on channel=3 note=46 velocity=96 time=0
note_off channel=3 note=46 velocity=0 time=480
note_on channel=3 note=45 velocity=96 time=0
note_off channel=3 note=45 velocity=0 time=480
note_on channel=3 note=43 velocity=96 time=0
note_off channel=3 note=43 velocity=0 time=480
note_on channel=3 note=46 velocity=96 time=0
note_off channel=3 note=46 velocity=0 time=480
note_on channel=3 note=48 velocity=96 time=0
note_off channel=3 note=48 velocity=0 time=480
note_on channel=3 note=50 velocity=96 time=0
note_off channel=3 note=50 velocity=0 time=480
note_on channel=3 note=43 velocity=96 time=0
note_off channel=3 note=43 velocity=0 time=1920
<meta message end_of_track time=1>
Track 0: 04-ChristeDuBeistand
ticks_per_beat: 960
<meta message time_signature numerator=4 denominator=4 clocks_per_click=24 notated_32nd_notes_per_beat=8 time=0>
<meta message key_signature key='C' time=0>
<meta message set_tempo tempo=714289 time=0>
<meta message track_name name='04-ChristeDuBeistand' time=0>
<meta message end_of_track time=1>
Track 1: Instrument 1
ticks_per_beat: 960
program_change channel=0 program=1 time=0
control_change channel=0 control=121 value=0 time=0
control_change channel=0 control=64 value=0 time=0
control_change channel=0 control=91 value=37 time=0
control_change channel=0 control=10 value=51 time=0
control_change channel=0 control=7 value=100 time=0
<meta message track_name name='Instrument 1' time=0>
control_change channel=0 control=64 value=0 time=0
note_on channel=0 note=62 velocity=96 time=2880
note_off channel=0 note=62 velocity=0 time=960
note_on channel=0 note=62 velocity=96 time=0
note_off channel=0 note=62 velocity=0 time=960
note_on channel=0 note=64 velocity=96 time=0
note_off channel=0 note=64 velocity=0 time=960
note_on channel=0 note=65 velocity=96 time=0
note_off channel=0 note=65 velocity=0 time=1920
note_on channel=0 note=64 velocity=96 time=0
note_off channel=0 note=64 velocity=0 time=1920
note_on channel=0 note=69 velocity=96 time=0
note_off channel=0 note=69 velocity=0 time=960
note_on channel=0 note=71 velocity=96 time=0
note_off channel=0 note=71 velocity=0 time=960
note_on channel=0 note=72 velocity=96 time=0
note_off channel=0 note=72 velocity=0 time=960
note_on channel=0 note=74 velocity=96 time=0
note_off channel=0 note=74 velocity=0 time=480
note_on channel=0 note=72 velocity=96 time=0
note_off channel=0 note=72 velocity=0 time=480
note_on channel=0 note=71 velocity=96 time=0
note_off channel=0 note=71 velocity=0 time=1920
note_on channel=0 note=69 velocity=96 time=0
note_off channel=0 note=69 velocity=0 time=1920
note_on channel=0 note=72 velocity=96 time=960
note_off channel=0 note=72 velocity=0 time=960
note_on channel=0 note=71 velocity=96 time=0
note_off channel=0 note=71 velocity=0 time=960
note_on channel=0 note=69 velocity=96 time=0
note_off channel=0 note=69 velocity=0 time=960
note_on channel=0 note=67 velocity=96 time=0
note_off channel=0 note=67 velocity=0 time=960
note_on channel=0 note=67 velocity=96 time=0
note_off channel=0 note=67 velocity=0 time=960
note_on channel=0 note=69 velocity=96 time=0
note_off channel=0 note=69 velocity=0 time=960
note_on channel=0 note=67 velocity=96 time=0
note_off channel=0 note=67 velocity=0 time=960
note_on channel=0 note=65 velocity=96 time=0
note_off channel=0 note=65 velocity=0 time=960
note_on channel=0 note=65 velocity=96 time=0
note_off channel=0 note=65 velocity=0 time=960
note_on channel=0 note=64 velocity=96 time=0
note_off channel=0 note=64 velocity=0 time=1920
note_on channel=0 note=65 velocity=96 time=0
note_off channel=0 note=65 velocity=0 time=960
note_on channel=0 note=64 velocity=96 time=0
note_off channel=0 note=64 velocity=0 time=960
note_on channel=0 note=64 velocity=96 time=0
note_off channel=0 note=64 velocity=0 time=960
note_on channel=0 note=65 velocity=96 time=0
note_off channel=0 note=65 velocity=0 time=960
note_on channel=0 note=67 velocity=96 time=0
note_off channel=0 note=67 velocity=0 time=1920
note_on channel=0 note=64 velocity=96 time=0
note_off channel=0 note=64 velocity=0 time=1920
note_on channel=0 note=69 velocity=96 time=0
note_off channel=0 note=69 velocity=0 time=960
note_on channel=0 note=71 velocity=96 time=0
note_off channel=0 note=71 velocity=0 time=960
note_on channel=0 note=72 velocity=96 time=0
note_off channel=0 note=72 velocity=0 time=960
note_on channel=0 note=74 velocity=96 time=0
note_off channel=0 note=74 velocity=0 time=480
note_on channel=0 note=72 velocity=96 time=0
note_off channel=0 note=72 velocity=0 time=480
note_on channel=0 note=71 velocity=96 time=0
note_off channel=0 note=71 velocity=0 time=1920
note_on channel=0 note=69 velocity=96 time=0
note_off channel=0 note=69 velocity=0 time=1920
note_on channel=0 note=66 velocity=96 time=960
note_off channel=0 note=66 velocity=0 time=960
note_on channel=0 note=67 velocity=96 time=0
note_off channel=0 note=67 velocity=0 time=960
note_on channel=0 note=67 velocity=96 time=0
note_off channel=0 note=67 velocity=0 time=960
note_on channel=0 note=67 velocity=96 time=0
note_off channel=0 note=67 velocity=0 time=960
note_on channel=0 note=66 velocity=96 time=0
note_off channel=0 note=66 velocity=0 time=960
note_on channel=0 note=67 velocity=96 time=0
note_off channel=0 note=67 velocity=0 time=1920
note_on channel=0 note=64 velocity=96 time=960
note_off channel=0 note=64 velocity=0 time=960
note_on channel=0 note=65 velocity=96 time=0
note_off channel=0 note=65 velocity=0 time=960
note_on channel=0 note=67 velocity=96 time=0
note_off channel=0 note=67 velocity=0 time=960
note_on channel=0 note=64 velocity=96 time=0
note_off channel=0 note=64 velocity=0 time=1920
note_on channel=0 note=62 velocity=96 time=0
note_off channel=0 note=62 velocity=0 time=2880
<meta message end_of_track time=1>
Track 2: Instrument 2
ticks_per_beat: 960
program_change channel=1 program=1 time=0
control_change channel=1 control=121 value=0 time=0
control_change channel=1 control=64 value=0 time=0
control_change channel=1 control=91 value=37 time=0
control_change channel=1 control=10 value=51 time=0
control_change channel=1 control=7 value=100 time=0
<meta message track_name name='Instrument 2' time=0>
control_change channel=1 control=64 value=0 time=0
note_on channel=1 note=57 velocity=96 time=2880
note_off channel=1 note=57 velocity=0 time=960
note_on channel=1 note=57 velocity=96 time=0
note_off channel=1 note=57 velocity=0 time=960
note_on channel=1 note=64 velocity=96 time=0
note_off channel=1 note=64 velocity=0 time=960
note_on channel=1 note=64 velocity=96 time=0
note_off channel=1 note=64 velocity=0 time=960
note_on channel=1 note=62 velocity=96 time=0
note_off channel=1 note=62 velocity=0 time=960
note_on channel=1 note=61 velocity=96 time=0
note_off channel=1 note=61 velocity=0 time=1920
note_on channel=1 note=64 velocity=96 time=0
note_off channel=1 note=64 velocity=0 time=960
note_on channel=1 note=64 velocity=96 time=0
note_off channel=1 note=64 velocity=0 time=960
note_on channel=1 note=69 velocity=96 time=0
note_off channel=1 note=69 velocity=0 time=960
note_on channel=1 note=69 velocity=96 time=0
note_off channel=1 note=69 velocity=0 time=960
note_on channel=1 note=69 velocity=96 time=0
note_off channel=1 note=69 velocity=0 time=960
note_on channel=1 note=68 velocity=96 time=0
note_off channel=1 note=68 velocity=0 time=960
note_on channel=1 note=64 velocity=96 time=0
note_off channel=1 note=64 velocity=0 time=1920
note_on channel=1 note=69 velocity=96 time=960
note_off channel=1 note=69 velocity=0 time=960
note_on channel=1 note=69 velocity=96 time=0
note_off channel=1 note=69 velocity=0 time=480
note_on channel=1 note=67 velocity=96 time=0
note_off channel=1 note=67 velocity=0 time=480
note_on channel=1 note=65 velocity=96 time=0
note_off channel=1 note=65 velocity=0 time=480
note_on channel=1 note=64 velocity=96 time=0
note_off channel=1 note=64 velocity=0 time=480
note_on channel=1 note=62 velocity=96 time=0
note_off channel=1 note=62 velocity=0 time=960
note_on channel=1 note=67 velocity=96 time=0
note_off channel=1 note=67 velocity=0 time=960
note_on channel=1 note=67 velocity=96 time=0
note_off channel=1 note=67 velocity=0 time=480
note_on channel=1 note=65 velocity=96 time=0
note_off channel=1 note=65 velocity=0 time=480
note_on channel=1 note=65 velocity=96 time=0
note_off channel=1 note=65 velocity=0 time=480
note_on channel=1 note=64 velocity=96 time=0
note_off channel=1 note=64 velocity=0 time=480
note_on channel=1 note=64 velocity=96 time=0
note_off channel=1 note=64 velocity=0 time=480
note_on channel=1 note=62 velocity=96 time=0
note_off channel=1 note=62 velocity=0 time=480
note_on channel=1 note=60 velocity=96 time=0
note_off channel=1 note=60 velocity=0 time=480
note_on channel=1 note=62 velocity=96 time=0
note_off channel=1 note=62 velocity=0 time=480
note_on channel=1 note=60 velocity=96 time=0
note_off channel=1 note=60 velocity=0 time=1920
note_on channel=1 note=60 velocity=96 time=0
note_off channel=1 note=60 velocity=0 time=960
note_on channel=1 note=61 velocity=96 time=0
note_off channel=1 note=61 velocity=0 time=480
note_on channel=1 note=62 velocity=96 time=0
note_off channel=1 note=62 velocity=0 time=480
note_on channel=1 note=64 velocity=96 time=0
note_off channel=1 note=64 velocity=0 time=960
note_on channel=1 note=64 velocity=96 time=0
note_off channel=1 note=64 velocity=0 time=480
note_on channel=1 note=62 velocity=96 time=0
note_off channel=1 note=62 velocity=0 time=480
note_on channel=1 note=62 velocity=96 time=0
note_off channel=1 note=62 velocity=0 time=480
note_on channel=1 note=60 velocity=96 time=0
note_off channel=1 note=60 velocity=0 time=480
note_on channel=1 note=62 velocity=96 time=0
note_off channel=1 note=62 velocity=0 time=480
note_on channel=1 note=59 velocity=96 time=0
note_off channel=1 note=59 velocity=0 time=480
note_on channel=1 note=60 velocity=96 time=0
note_off channel=1 note=60 velocity=0 time=1920
note_on channel=1 note=69 velocity=96 time=0
note_off channel=1 note=69 velocity=0 time=960
note_on channel=1 note=69 velocity=96 time=0
note_off channel=1 note=69 velocity=0 time=960
note_on channel=1 note=69 velocity=96 time=0
note_off channel=1 note=69 velocity=0 time=480
note_on channel=1 note=68 velocity=96 time=0
note_off channel=1 note=68 velocity=0 time=480
note_on channel=1 note=69 velocity=96 time=0
note_off channel=1 note=69 velocity=0 time=960
note_on channel=1 note=69 velocity=96 time=0
note_off channel=1 note=69 velocity=0 time=960
note_on channel=1 note=68 velocity=96 time=0
note_off channel=1 note=68 velocity=0 time=960
note_on channel=1 note=64 velocity=96 time=0
note_off channel=1 note=64 velocity=0 time=1920
note_on channel=1 note=60 velocity=96 time=960
note_off channel=1 note=60 velocity=0 time=960
note_on channel=1 note=62 velocity=96 time=0
note_off channel=1 note=62 velocity=0 time=960
note_on channel=1 note=62 velocity=96 time=0
note_off channel=1 note=62 velocity=0 time=960
note_on channel=1 note=63 velocity=96 time=0
note_off channel=1 note=63 velocity=0 time=960
note_on channel=1 note=62 velocity=96 time=0
note_off channel=1 note=62 velocity=0 time=960
note_on channel=1 note=62 velocity=96 time=0
note_off channel=1 note=62 velocity=0 time=1920
note_on channel=1 note=61 velocity=96 time=960
note_off channel=1 note=61 velocity=0 time=960
note_on channel=1 note=62 velocity=96 time=0
note_off channel=1 note=62 velocity=0 time=960
note_on channel=1 note=62 velocity=96 time=0
note_off channel=1 note=62 velocity=0 time=960
note_on channel=1 note=62 velocity=96 time=0
note_off channel=1 note=62 velocity=0 time=960
note_on channel=1 note=61 velocity=96 time=0
note_off channel=1 note=61 velocity=0 time=960
note_on channel=1 note=57 velocity=96 time=0
note_off channel=1 note=57 velocity=0 time=2880
<meta message end_of_track time=1>
Track 3: Instrument 3
ticks_per_beat: 960
program_change channel=2 program=1 time=0
control_change channel=2 control=121 value=0 time=0
control_change channel=2 control=64 value=0 time=0
control_change channel=2 control=91 value=37 time=0
control_change channel=2 control=10 value=51 time=0
control_change channel=2 control=7 value=100 time=0
<meta message track_name name='Instrument 3' time=0>
control_change channel=2 control=64 value=0 time=0
note_on channel=2 note=53 velocity=96 time=2880
note_off channel=2 note=53 velocity=0 time=480
note_on channel=2 note=55 velocity=96 time=0
note_off channel=2 note=55 velocity=0 time=480
note_on channel=2 note=57 velocity=96 time=0
note_off channel=2 note=57 velocity=0 time=960
note_on channel=2 note=57 velocity=96 time=0
note_off channel=2 note=57 velocity=0 time=960
note_on channel=2 note=57 velocity=96 time=0
note_off channel=2 note=57 velocity=0 time=1920
note_on channel=2 note=57 velocity=96 time=0
note_off channel=2 note=57 velocity=0 time=1920
note_on channel=2 note=57 velocity=96 time=0
note_off channel=2 note=57 velocity=0 time=960
note_on channel=2 note=64 velocity=96 time=0
note_off channel=2 note=64 velocity=0 time=960
note_on channel=2 note=64 velocity=96 time=0
note_off channel=2 note=64 velocity=0 time=960
note_on channel=2 note=62 velocity=96 time=0
note_off channel=2 note=62 velocity=0 time=480
note_on channel=2 note=64 velocity=96 time=0
note_off channel=2 note=64 velocity=0 time=480
note_on channel=2 note=65 velocity=96 time=0
note_off channel=2 note=65 velocity=0 time=960
note_on channel=2 note=64 velocity=96 time=0
note_off channel=2 note=64 velocity=0 time=480
note_on channel=2 note=62 velocity=96 time=0
note_off channel=2 note=62 velocity=0 time=480
note_on channel=2 note=60 velocity=96 time=0
note_off channel=2 note=60 velocity=0 time=1920
note_on channel=2 note=64 velocity=96 time=960
note_off channel=2 note=64 velocity=0 time=960
note_on channel=2 note=65 velocity=96 time=0
note_off channel=2 note=65 velocity=0 time=480
note_on channel=2 note=64 velocity=96 time=0
note_off channel=2 note=64 velocity=0 time=240
note_on channel=2 note=62 velocity=96 time=0
note_off channel=2 note=62 velocity=0 time=240
note_on channel=2 note=60 velocity=96 time=0
note_off channel=2 note=60 velocity=0 time=960
note_on channel=2 note=59 velocity=96 time=0
note_off channel=2 note=59 velocity=0 time=960
note_on channel=2 note=60 velocity=96 time=0
note_off channel=2 note=60 velocity=0 time=960
note_on channel=2 note=60 velocity=96 time=0
note_off channel=2 note=60 velocity=0 time=960
note_on channel=2 note=60 velocity=96 time=0
note_off channel=2 note=60 velocity=0 time=960
note_on channel=2 note=57 velocity=96 time=0
note_off channel=2 note=57 velocity=0 time=960
note_on channel=2 note=57 velocity=96 time=0
note_off channel=2 note=57 velocity=0 time=960
note_on channel=2 note=55 velocity=96 time=0
note_off channel=2 note=55 velocity=0 time=480
note_on channel=2 note=57 velocity=96 time=0
note_off channel=2 note=57 velocity=0 time=480
note_on channel=2 note=58 velocity=96 time=0
note_off channel=2 note=58 velocity=0 time=960
note_on channel=2 note=57 velocity=96 time=0
note_off channel=2 note=57 velocity=0 time=960
note_on channel=2 note=57 velocity=96 time=0
note_off channel=2 note=57 velocity=0 time=960
note_on channel=2 note=57 velocity=96 time=0
note_off channel=2 note=57 velocity=0 time=960
note_on channel=2 note=57 velocity=96 time=0
note_off channel=2 note=57 velocity=0 time=960
note_on channel=2 note=55 velocity=96 time=0
note_off channel=2 note=55 velocity=0 time=1920
note_on channel=2 note=55 velocity=96 time=0
note_off channel=2 note=55 velocity=0 time=1920
note_on channel=2 note=64 velocity=96 time=0
note_off channel=2 note=64 velocity=0 time=960
note_on channel=2 note=65 velocity=96 time=0
note_off channel=2 note=65 velocity=0 time=960
note_on channel=2 note=64 velocity=96 time=0
note_off channel=2 note=64 velocity=0 time=960
note_on channel=2 note=62 velocity=96 time=0
note_off channel=2 note=62 velocity=0 time=480
note_on channel=2 note=64 velocity=96 time=0
note_off channel=2 note=64 velocity=0 time=480
note_on channel=2 note=65 velocity=96 time=0
note_off channel=2 note=65 velocity=0 time=960
note_on channel=2 note=64 velocity=96 time=0
note_off channel=2 note=64 velocity=0 time=480
note_on channel=2 note=62 velocity=96 time=0
note_off channel=2 note=62 velocity=0 time=480
note_on channel=2 note=60 velocity=96 time=0
note_off channel=2 note=60 velocity=0 time=1920
note_on channel=2 note=57 velocity=96 time=960
note_off channel=2 note=57 velocity=0 time=960
note_on channel=2 note=55 velocity=96 time=0
note_off channel=2 note=55 velocity=0 time=1440
note_on channel=2 note=53 velocity=96 time=0
note_off channel=2 note=53 velocity=0 time=480
note_on channel=2 note=51 velocity=96 time=0
note_off channel=2 note=51 velocity=0 time=480
note_on channel=2 note=58 velocity=96 time=0
note_off channel=2 note=58 velocity=0 time=480
note_on channel=2 note=57 velocity=96 time=0
note_off channel=2 note=57 velocity=0 time=480
note_on channel=2 note=60 velocity=96 time=0
note_off channel=2 note=60 velocity=0 time=480
note_on channel=2 note=58 velocity=96 time=0
note_off channel=2 note=58 velocity=0 time=1920
note_on channel=2 note=57 velocity=96 time=960
note_off channel=2 note=57 velocity=0 time=960
note_on channel=2 note=57 velocity=96 time=0
note_off channel=2 note=57 velocity=0 time=960
note_on channel=2 note=55 velocity=96 time=0
note_off channel=2 note=55 velocity=0 time=480
note_on channel=2 note=58 velocity=96 time=0
note_off channel=2 note=58 velocity=0 time=480
note_on channel=2 note=57 velocity=96 time=0
note_off channel=2 note=57 velocity=0 time=480
note_on channel=2 note=52 velocity=96 time=0
note_off channel=2 note=52 velocity=0 time=480
note_on channel=2 note=57 velocity=96 time=0
note_off channel=2 note=57 velocity=0 time=480
note_on channel=2 note=55 velocity=96 time=0
note_off channel=2 note=55 velocity=0 time=480
note_on channel=2 note=54 velocity=96 time=0
note_off channel=2 note=54 velocity=0 time=2880
<meta message end_of_track time=1>
Track 4: Instrument 4
ticks_per_beat: 960
program_change channel=3 program=1 time=0
control_change channel=3 control=121 value=0 time=0
control_change channel=3 control=64 value=0 time=0
control_change channel=3 control=91 value=37 time=0
control_change channel=3 control=10 value=51 time=0
control_change channel=3 control=7 value=100 time=0
<meta message track_name name='Instrument 4' time=0>
control_change channel=3 control=64 value=0 time=0
note_on channel=3 note=50 velocity=96 time=2880
note_off channel=3 note=50 velocity=0 time=480
note_on channel=3 note=52 velocity=96 time=0
note_off channel=3 note=52 velocity=0 time=480
note_on channel=3 note=53 velocity=96 time=0
note_off channel=3 note=53 velocity=0 time=480
note_on channel=3 note=52 velocity=96 time=0
note_off channel=3 note=52 velocity=0 time=480
note_on channel=3 note=50 velocity=96 time=0
note_off channel=3 note=50 velocity=0 time=480
note_on channel=3 note=49 velocity=96 time=0
note_off channel=3 note=49 velocity=0 time=480
note_on channel=3 note=50 velocity=96 time=0
note_off channel=3 note=50 velocity=0 time=480
note_on channel=3 note=52 velocity=96 time=0
note_off channel=3 note=52 velocity=0 time=480
note_on channel=3 note=53 velocity=96 time=0
note_off channel=3 note=53 velocity=0 time=480
note_on channel=3 note=50 velocity=96 time=0
note_off channel=3 note=50 velocity=0 time=480
note_on channel=3 note=45 velocity=96 time=0
note_off channel=3 note=45 velocity=0 time=1920
note_on channel=3 note=48 velocity=96 time=0
note_off channel=3 note=48 velocity=0 time=480
note_on channel=3 note=47 velocity=96 time=0
note_off channel=3 note=47 velocity=0 time=480
note_on channel=3 note=45 velocity=96 time=0
note_off channel=3 note=45 velocity=0 time=480
note_on channel=3 note=44 velocity=96 time=0
note_off channel=3 note=44 velocity=0 time=480
note_on channel=3 note=45 velocity=96 time=0
note_off channel=3 note=45 velocity=0 time=480
note_on channel=3 note=48 velocity=96 time=0
note_off channel=3 note=48 velocity=0 time=480
note_on channel=3 note=53 velocity=96 time=0
note_off channel=3 note=53 velocity=0 time=480
note_on channel=3 note=52 velocity=96 time=0
note_off channel=3 note=52 velocity=0 time=480
note_on channel=3 note=50 velocity=96 time=0
note_off channel=3 note=50 velocity=0 time=480
note_on channel=3 note=47 velocity=96 time=0
note_off channel=3 note=47 velocity=0 time=480
note_on channel=3 note=52 velocity=96 time=0
note_off channel=3 note=52 velocity=0 time=960
note_on channel=3 note=45 velocity=96 time=0
note_off channel=3 note=45 velocity=0 time=1920
note_on channel=3 note=45 velocity=96 time=960
note_off channel=3 note=45 velocity=0 time=960
note_on channel=3 note=50 velocity=96 time=0
note_off channel=3 note=50 velocity=0 time=480
note_on channel=3 note=52 velocity=96 time=0
note_off channel=3 note=52 velocity=0 time=480
note_on channel=3 note=53 velocity=96 time=0
note_off channel=3 note=53 velocity=0 time=960
note_on channel=3 note=53 velocity=96 time=0
note_off channel=3 note=53 velocity=0 time=960
note_on channel=3 note=52 velocity=96 time=0
note_off channel=3 note=52 velocity=0 time=960
note_on channel=3 note=53 velocity=96 time=0
note_off channel=3 note=53 velocity=0 time=960
note_on channel=3 note=48 velocity=96 time=0
note_off channel=3 note=48 velocity=0 time=960
note_on channel=3 note=50 velocity=96 time=0
note_off channel=3 note=50 velocity=0 time=960
note_on channel=3 note=45 velocity=96 time=0
note_off channel=3 note=45 velocity=0 time=480
note_on channel=3 note=46 velocity=96 time=0
note_off channel=3 note=46 velocity=0 time=480
note_on channel=3 note=48 velocity=96 time=0
note_off channel=3 note=48 velocity=0 time=1920
note_on channel=3 note=41 velocity=96 time=0
note_off channel=3 note=41 velocity=0 time=960
note_on channel=3 note=45 velocity=96 time=0
note_off channel=3 note=45 velocity=0 time=960
note_on channel=3 note=49 velocity=96 time=0
note_off channel=3 note=49 velocity=0 time=960
note_on channel=3 note=50 velocity=96 time=0
note_off channel=3 note=50 velocity=0 time=480
note_on channel=3 note=48 velocity=96 time=0
note_off channel=3 note=48 velocity=0 time=480
note_on channel=3 note=47 velocity=96 time=0
note_off channel=3 note=47 velocity=0 time=480
note_on channel=3 note=45 velocity=96 time=0
note_off channel=3 note=45 velocity=0 time=480
note_on channel=3 note=47 velocity=96 time=0
note_off channel=3 note=47 velocity=0 time=480
note_on channel=3 note=43 velocity=96 time=0
note_off channel=3 note=43 velocity=0 time=480
note_on channel=3 note=48 velocity=96 time=0
note_off channel=3 note=48 velocity=0 time=1920
note_on channel=3 note=48 velocity=96 time=0
note_off channel=3 note=48 velocity=0 time=960
note_on channel=3 note=50 velocity=96 time=0
note_off channel=3 note=50 velocity=0 time=960
note_on channel=3 note=52 velocity=96 time=0
note_off channel=3 note=52 velocity=0 time=960
note_on channel=3 note=53 velocity=96 time=0
note_off channel=3 note=53 velocity=0 time=480
note_on channel=3 note=52 velocity=96 time=0
note_off channel=3 note=52 velocity=0 time=480
note_on channel=3 note=50 velocity=96 time=0
note_off channel=3 note=50 velocity=0 time=960
note_on channel=3 note=52 velocity=96 time=0
note_off channel=3 note=52 velocity=0 time=960
note_on channel=3 note=45 velocity=96 time=0
note_off channel=3 note=45 velocity=0 time=1920
note_on channel=3 note=45 velocity=96 time=960
note_off channel=3 note=45 velocity=0 time=960
note_on channel=3 note=46 velocity=96 time=0
note_off channel=3 note=46 velocity=0 time=960
note_on channel=3 note=47 velocity=96 time=0
note_off channel=3 note=47 velocity=0 time=960
note_on channel=3 note=48 velocity=96 time=0
note_off channel=3 note=48 velocity=0 time=960
note_on channel=3 note=50 velocity=96 time=0
note_off channel=3 note=50 velocity=0 time=960
note_on channel=3 note=43 velocity=96 time=0
note_off channel=3 note=43 velocity=0 time=1920
note_on channel=3 note=45 velocity=96 time=960
note_off channel=3 note=45 velocity=0 time=960
note_on channel=3 note=50 velocity=96 time=0
note_off channel=3 note=50 velocity=0 time=480
note_on channel=3 note=48 velocity=96 time=0
note_off channel=3 note=48 velocity=0 time=480
note_on channel=3 note=46 velocity=96 time=0
note_off channel=3 note=46 velocity=0 time=480
note_on channel=3 note=43 velocity=96 time=0
note_off channel=3 note=43 velocity=0 time=480
note_on channel=3 note=45 velocity=96 time=0
note_off channel=3 note=45 velocity=0 time=1920
note_on channel=3 note=50 velocity=96 time=0
note_off channel=3 note=50 velocity=0 time=2880
<meta message end_of_track time=1>
Track 0: 05-DieNacht
ticks_per_beat: 960
<meta message time_signature numerator=4 denominator=4 clocks_per_click=24 notated_32nd_notes_per_beat=8 time=0>
<meta message key_signature key='C' time=0>
<meta message set_tempo tempo=681818 time=0>
<meta message track_name name='05-DieNacht' time=0>
<meta message end_of_track time=1>
Track 1: Instrument 1
ticks_per_beat: 960
program_change channel=0 program=1 time=0
control_change channel=0 control=121 value=0 time=0
control_change channel=0 control=64 value=0 time=0
control_change channel=0 control=91 value=37 time=0
control_change channel=0 control=10 value=51 time=0
control_change channel=0 control=7 value=100 time=0
<meta message track_name name='Instrument 1' time=0>
control_change channel=0 control=64 value=0 time=0
note_on channel=0 note=67 velocity=96 time=2880
note_off channel=0 note=67 velocity=0 time=960
note_on channel=0 note=69 velocity=96 time=0
note_off channel=0 note=69 velocity=0 time=960
note_on channel=0 note=71 velocity=96 time=0
note_off channel=0 note=71 velocity=0 time=960
note_on channel=0 note=72 velocity=96 time=0
note_off channel=0 note=72 velocity=0 time=1920
note_on channel=0 note=71 velocity=96 time=0
note_off channel=0 note=71 velocity=0 time=1920
note_on channel=0 note=69 velocity=96 time=0
note_off channel=0 note=69 velocity=0 time=960
note_on channel=0 note=69 velocity=96 time=0
note_off channel=0 note=69 velocity=0 time=960
note_on channel=0 note=68 velocity=96 time=0
note_off channel=0 note=68 velocity=0 time=960
note_on channel=0 note=69 velocity=96 time=0
note_off channel=0 note=69 velocity=0 time=960
note_on channel=0 note=71 velocity=96 time=0
note_off channel=0 note=71 velocity=0 time=1920
note_on channel=0 note=69 velocity=96 time=0
note_off channel=0 note=69 velocity=0 time=1920
note_on channel=0 note=72 velocity=96 time=960
note_off channel=0 note=72 velocity=0 time=960
note_on channel=0 note=72 velocity=96 time=0
note_off channel=0 note=72 velocity=0 time=960
note_on channel=0 note=72 velocity=96 time=0
note_off channel=0 note=72 velocity=0 time=480
note_on channel=0 note=71 velocity=96 time=0
note_off channel=0 note=71 velocity=0 time=480
note_on channel=0 note=69 velocity=96 time=0
note_off channel=0 note=69 velocity=0 time=1920
note_on channel=0 note=74 velocity=96 time=0
note_off channel=0 note=74 velocity=0 time=1920
note_on channel=0 note=71 velocity=96 time=960
note_off channel=0 note=71 velocity=0 time=960
note_on channel=0 note=72 velocity=96 time=0
note_off channel=0 note=72 velocity=0 time=960
note_on channel=0 note=69 velocity=96 time=0
note_off channel=0 note=69 velocity=0 time=960
note_on channel=0 note=71 velocity=96 time=0
note_off channel=0 note=71 velocity=0 time=960
note_on channel=0 note=69 velocity=96 time=0
note_off channel=0 note=69 velocity=0 time=960
note_on channel=0 note=67 velocity=96 time=0
note_off channel=0 note=67 velocity=0 time=1920
note_on channel=0 note=74 velocity=96 time=960
note_off channel=0 note=74 velocity=0 time=960
note_on channel=0 note=74 velocity=96 time=0
note_off channel=0 note=74 velocity=0 time=960
note_on channel=0 note=74 velocity=96 time=0
note_off channel=0 note=74 velocity=0 time=960
note_on channel=0 note=72 velocity=96 time=0
note_off channel=0 note=72 velocity=0 time=1920
note_on channel=0 note=69 velocity=96 time=0
note_off channel=0 note=69 velocity=0 time=1920
note_on channel=0 note=72 velocity=96 time=960
note_off channel=0 note=72 velocity=0 time=960
note_on channel=0 note=72 velocity=96 time=0
note_off channel=0 note=72 velocity=0 time=960
note_on channel=0 note=71 velocity=96 time=0
note_off channel=0 note=71 velocity=0 time=960
note_on channel=0 note=72 velocity=96 time=0
note_off channel=0 note=72 velocity=0 time=480
note_on channel=0 note=71 velocity=96 time=0
note_off channel=0 note=71 velocity=0 time=480
note_on channel=0 note=69 velocity=96 time=0
note_off channel=0 note=69 velocity=0 time=960
note_on channel=0 note=69 velocity=96 time=0
note_off channel=0 note=69 velocity=0 time=1920
note_on channel=0 note=74 velocity=96 time=960
note_off channel=0 note=74 velocity=0 time=960
note_on channel=0 note=72 velocity=96 time=0
note_off channel=0 note=72 velocity=0 time=960
note_on channel=0 note=71 velocity=96 time=0
note_off channel=0 note=71 velocity=0 time=960
note_on channel=0 note=69 velocity=96 time=0
note_off channel=0 note=69 velocity=0 time=1920
note_on channel=0 note=67 velocity=96 time=0
note_off channel=0 note=67 velocity=0 time=2880
<meta message end_of_track time=1>
Track 2: Instrument 2
ticks_per_beat: 960
program_change channel=1 program=1 time=0
control_change channel=1 control=121 value=0 time=0
control_change channel=1 control=64 value=0 time=0
control_change channel=1 control=91 value=37 time=0
control_change channel=1 control=10 value=51 time=0
control_change channel=1 control=7 value=100 time=0
<meta message track_name name='Instrument 2' time=0>
control_change channel=1 control=64 value=0 time=0
note_on channel=1 note=62 velocity=96 time=2880
note_off channel=1 note=62 velocity=0 time=960
note_on channel=1 note=62 velocity=96 time=0
note_off channel=1 note=62 velocity=0 time=960
note_on channel=1 note=62 velocity=96 time=0
note_off channel=1 note=62 velocity=0 time=960
note_on channel=1 note=64 velocity=96 time=0
note_off channel=1 note=64 velocity=0 time=960
note_on channel=1 note=62 velocity=96 time=0
note_off channel=1 note=62 velocity=0 time=960
note_on channel=1 note=62 velocity=96 time=0
note_off channel=1 note=62 velocity=0 time=1920
note_on channel=1 note=64 velocity=96 time=0
note_off channel=1 note=64 velocity=0 time=960
note_on channel=1 note=62 velocity=96 time=0
note_off channel=1 note=62 velocity=0 time=480
note_on channel=1 note=60 velocity=96 time=0
note_off channel=1 note=60 velocity=0 time=480
note_on channel=1 note=59 velocity=96 time=0
note_off channel=1 note=59 velocity=0 time=960
note_on channel=1 note=64 velocity=96 time=0
note_off channel=1 note=64 velocity=0 time=960
note_on channel=1 note=65 velocity=96 time=0
note_off channel=1 note=65 velocity=0 time=960
note_on channel=1 note=64 velocity=96 time=0
note_off channel=1 note=64 velocity=0 time=480
note_on channel=1 note=62 velocity=96 time=0
note_off channel=1 note=62 velocity=0 time=480
note_on channel=1 note=60 velocity=96 time=0
note_off channel=1 note=60 velocity=0 time=1920
note_on channel=1 note=69 velocity=96 time=960
note_off channel=1 note=69 velocity=0 time=960
note_on channel=1 note=67 velocity=96 time=0
note_off channel=1 note=67 velocity=0 time=480
note_on channel=1 note=65 velocity=96 time=0
note_off channel=1 note=65 velocity=0 time=480
note_on channel=1 note=67 velocity=96 time=0
note_off channel=1 note=67 velocity=0 time=960
note_on channel=1 note=67 velocity=96 time=0
note_off channel=1 note=67 velocity=0 time=480
note_on channel=1 note=65 velocity=96 time=0
note_off channel=1 note=65 velocity=0 time=240
note_on channel=1 note=64 velocity=96 time=0
note_off channel=1 note=64 velocity=0 time=240
note_on channel=1 note=65 velocity=96 time=0
note_off channel=1 note=65 velocity=0 time=480
note_on channel=1 note=67 velocity=96 time=0
note_off channel=1 note=67 velocity=0 time=480
note_on channel=1 note=69 velocity=96 time=0
note_off channel=1 note=69 velocity=0 time=1920
note_on channel=1 note=67 velocity=96 time=960
note_off channel=1 note=67 velocity=0 time=960
note_on channel=1 note=67 velocity=96 time=0
note_off channel=1 note=67 velocity=0 time=960
note_on channel=1 note=69 velocity=96 time=0
note_off channel=1 note=69 velocity=0 time=960
note_on channel=1 note=69 velocity=96 time=0
note_off channel=1 note=69 velocity=0 time=480
note_on channel=1 note=67 velocity=96 time=0
note_off channel=1 note=67 velocity=0 time=480
note_on channel=1 note=67 velocity=96 time=0
note_off channel=1 note=67 velocity=0 time=480
note_on channel=1 note=66 velocity=96 time=0
note_off channel=1 note=66 velocity=0 time=480
note_on channel=1 note=62 velocity=96 time=0
note_off channel=1 note=62 velocity=0 time=1920
note_on channel=1 note=67 velocity=96 time=960
note_off channel=1 note=67 velocity=0 time=960
note_on channel=1 note=69 velocity=96 time=0
note_off channel=1 note=69 velocity=0 time=480
note_on channel=1 note=62 velocity=96 time=0
note_off channel=1 note=62 velocity=0 time=480
note_on channel=1 note=67 velocity=96 time=0
note_off channel=1 note=67 velocity=0 time=960
note_on channel=1 note=67 velocity=96 time=0
note_off channel=1 note=67 velocity=0 time=480
note_on channel=1 note=65 velocity=96 time=0
note_off channel=1 note=65 velocity=0 time=480
note_on channel=1 note=67 velocity=96 time=0
note_off channel=1 note=67 velocity=0 time=480
note_on channel=1 note=64 velocity=96 time=0
note_off channel=1 note=64 velocity=0 time=480
note_on channel=1 note=65 velocity=96 time=0
note_off channel=1 note=65 velocity=0 time=1920
note_on channel=1 note=67 velocity=96 time=960
note_off channel=1 note=67 velocity=0 time=960
note_on channel=1 note=69 velocity=96 time=0
note_off channel=1 note=69 velocity=0 time=960
note_on channel=1 note=69 velocity=96 time=0
note_off channel=1 note=69 velocity=0 time=480
note_on channel=1 note=67 velocity=96 time=0
note_off channel=1 note=67 velocity=0 time=480
note_on channel=1 note=67 velocity=96 time=0
note_off channel=1 note=67 velocity=0 time=960
note_on channel=1 note=67 velocity=96 time=0
note_off channel=1 note=67 velocity=0 time=960
note_on channel=1 note=66 velocity=96 time=0
note_off channel=1 note=66 velocity=0 time=1920
note_on channel=1 note=67 velocity=96 time=960
note_off channel=1 note=67 velocity=0 time=960
note_on channel=1 note=67 velocity=96 time=0
note_off channel=1 note=67 velocity=0 time=480
note_on channel=1 note=66 velocity=96 time=0
note_off channel=1 note=66 velocity=0 time=480
note_on channel=1 note=67 velocity=96 time=0
note_off channel=1 note=67 velocity=0 time=960
note_on channel=1 note=67 velocity=96 time=0
note_off channel=1 note=67 velocity=0 time=960
note_on channel=1 note=66 velocity=96 time=0
note_off channel=1 note=66 velocity=0 time=960
note_on channel=1 note=62 velocity=96 time=0
note_off channel=1 note=62 velocity=0 time=2880
<meta message end_of_track time=1>
Track 3: Instrument 3
ticks_per_beat: 960
program_change channel=2 program=1 time=0
control_change channel=2 control=121 value=0 time=0
control_change channel=2 control=64 value=0 time=0
control_change channel=2 control=91 value=37 time=0
control_change channel=2 control=10 value=51 time=0
control_change channel=2 control=7 value=100 time=0
<meta message track_name name='Instrument 3' time=0>
control_change channel=2 control=64 value=0 time=0
note_on channel=2 note=59 velocity=96 time=2880
note_off channel=2 note=59 velocity=0 time=960
note_on channel=2 note=57 velocity=96 time=0
note_off channel=2 note=57 velocity=0 time=960
note_on channel=2 note=55 velocity=96 time=0
note_off channel=2 note=55 velocity=0 time=960
note_on channel=2 note=55 velocity=96 time=0
note_off channel=2 note=55 velocity=0 time=960
note_on channel=2 note=57 velocity=96 time=0
note_off channel=2 note=57 velocity=0 time=960
note_on channel=2 note=55 velocity=96 time=0
note_off channel=2 note=55 velocity=0 time=1920
note_on channel=2 note=55 velocity=96 time=0
note_off channel=2 note=55 velocity=0 time=960
note_on channel=2 note=53 velocity=96 time=0
note_off channel=2 note=53 velocity=0 time=480
note_on channel=2 note=52 velocity=96 time=0
note_off channel=2 note=52 velocity=0 time=480
note_on channel=2 note=52 velocity=96 time=0
note_off channel=2 note=52 velocity=0 time=960
note_on channel=2 note=52 velocity=96 time=0
note_off channel=2 note=52 velocity=0 time=480
note_on channel=2 note=57 velocity=96 time=0
note_off channel=2 note=57 velocity=0 time=480
note_on channel=2 note=57 velocity=96 time=0
note_off channel=2 note=57 velocity=0 time=960
note_on channel=2 note=56 velocity=96 time=0
note_off channel=2 note=56 velocity=0 time=960
note_on channel=2 note=57 velocity=96 time=0
note_off channel=2 note=57 velocity=0 time=1920
note_on channel=2 note=64 velocity=96 time=960
note_off channel=2 note=64 velocity=0 time=960
note_on channel=2 note=64 velocity=96 time=0
note_off channel=2 note=64 velocity=0 time=480
note_on channel=2 note=62 velocity=96 time=0
note_off channel=2 note=62 velocity=0 time=480
note_on channel=2 note=64 velocity=96 time=0
note_off channel=2 note=64 velocity=0 time=960
note_on channel=2 note=60 velocity=96 time=0
note_off channel=2 note=60 velocity=0 time=480
note_on channel=2 note=61 velocity=96 time=0
note_off channel=2 note=61 velocity=0 time=480
note_on channel=2 note=62 velocity=96 time=0
note_off channel=2 note=62 velocity=0 time=480
note_on channel=2 note=64 velocity=96 time=0
note_off channel=2 note=64 velocity=0 time=480
note_on channel=2 note=65 velocity=96 time=0
note_off channel=2 note=65 velocity=0 time=1920
note_on channel=2 note=62 velocity=96 time=960
note_off channel=2 note=62 velocity=0 time=960
note_on channel=2 note=64 velocity=96 time=0
note_off channel=2 note=64 velocity=0 time=960
note_on channel=2 note=62 velocity=96 time=0
note_off channel=2 note=62 velocity=0 time=960
note_on channel=2 note=62 velocity=96 time=0
note_off channel=2 note=62 velocity=0 time=1440
note_on channel=2 note=60 velocity=96 time=0
note_off channel=2 note=60 velocity=0 time=480
note_on channel=2 note=59 velocity=96 time=0
note_off channel=2 note=59 velocity=0 time=1920
note_on channel=2 note=59 velocity=96 time=960
note_off channel=2 note=59 velocity=0 time=960
note_on channel=2 note=57 velocity=96 time=0
note_off channel=2 note=57 velocity=0 time=960
note_on channel=2 note=59 velocity=96 time=0
note_off channel=2 note=59 velocity=0 time=960
note_on channel=2 note=60 velocity=96 time=0
note_off channel=2 note=60 velocity=0 time=1920
note_on channel=2 note=60 velocity=96 time=0
note_off channel=2 note=60 velocity=0 time=1920
note_on channel=2 note=64 velocity=96 time=960
note_off channel=2 note=64 velocity=0 time=960
note_on channel=2 note=62 velocity=96 time=0
note_off channel=2 note=62 velocity=0 time=960
note_on channel=2 note=62 velocity=96 time=0
note_off channel=2 note=62 velocity=0 time=960
note_on channel=2 note=64 velocity=96 time=0
note_off channel=2 note=64 velocity=0 time=480
note_on channel=2 note=62 velocity=96 time=0
note_off channel=2 note=62 velocity=0 time=480
note_on channel=2 note=64 velocity=96 time=0
note_off channel=2 note=64 velocity=0 time=960
note_on channel=2 note=62 velocity=96 time=0
note_off channel=2 note=62 velocity=0 time=1920
note_on channel=2 note=62 velocity=96 time=960
note_off channel=2 note=62 velocity=0 time=960
note_on channel=2 note=55 velocity=96 time=0
note_off channel=2 note=55 velocity=0 time=480
note_on channel=2 note=57 velocity=96 time=0
note_off channel=2 note=57 velocity=0 time=480
note_on channel=2 note=59 velocity=96 time=0
note_off channel=2 note=59 velocity=0 time=480
note_on channel=2 note=64 velocity=96 time=0
note_off channel=2 note=64 velocity=0 time=480
note_on channel=2 note=57 velocity=96 time=0
note_off channel=2 note=57 velocity=0 time=480
note_on channel=2 note=62 velocity=96 time=0
note_off channel=2 note=62 velocity=0 time=960
note_on channel=2 note=60 velocity=96 time=0
note_off channel=2 note=60 velocity=0 time=480
note_on channel=2 note=59 velocity=96 time=0
note_off channel=2 note=59 velocity=0 time=2880
<meta message end_of_track time=1>
Track 4: Instrument 4
ticks_per_beat: 960
program_change channel=3 program=1 time=0
control_change channel=3 control=121 value=0 time=0
control_change channel=3 control=64 value=0 time=0
control_change channel=3 control=91 value=37 time=0
control_change channel=3 control=10 value=51 time=0
control_change channel=3 control=7 value=100 time=0
<meta message track_name name='Instrument 4' time=0>
control_change channel=3 control=64 value=0 time=0
note_on channel=3 note=55 velocity=96 time=2880
note_off channel=3 note=55 velocity=0 time=960
note_on channel=3 note=54 velocity=96 time=0
note_off channel=3 note=54 velocity=0 time=960
note_on channel=3 note=53 velocity=96 time=0
note_off channel=3 note=53 velocity=0 time=960
note_on channel=3 note=52 velocity=96 time=0
note_off channel=3 note=52 velocity=0 time=960
note_on channel=3 note=54 velocity=96 time=0
note_off channel=3 note=54 velocity=0 time=960
note_on channel=3 note=55 velocity=96 time=0
note_off channel=3 note=55 velocity=0 time=1920
note_on channel=3 note=49 velocity=96 time=0
note_off channel=3 note=49 velocity=0 time=960
note_on channel=3 note=50 velocity=96 time=0
note_off channel=3 note=50 velocity=0 time=960
note_on channel=3 note=50 velocity=96 time=0
note_off channel=3 note=50 velocity=0 time=960
note_on channel=3 note=48 velocity=96 time=0
note_off channel=3 note=48 velocity=0 time=960
note_on channel=3 note=50 velocity=96 time=0
note_off channel=3 note=50 velocity=0 time=960
note_on channel=3 note=52 velocity=96 time=0
note_off channel=3 note=52 velocity=0 time=960
note_on channel=3 note=45 velocity=96 time=0
note_off channel=3 note=45 velocity=0 time=1920
note_on channel=3 note=57 velocity=96 time=960
note_off channel=3 note=57 velocity=0 time=960
note_on channel=3 note=52 velocity=96 time=0
note_off channel=3 note=52 velocity=0 time=960
note_on channel=3 note=48 velocity=96 time=0
note_off channel=3 note=48 velocity=0 time=960
note_on channel=3 note=53 velocity=96 time=0
note_off channel=3 note=53 velocity=0 time=480
note_on channel=3 note=55 velocity=96 time=0
note_off channel=3 note=55 velocity=0 time=480
note_on channel=3 note=53 velocity=96 time=0
note_off channel=3 note=53 velocity=0 time=480
note_on channel=3 note=52 velocity=96 time=0
note_off channel=3 note=52 velocity=0 time=480
note_on channel=3 note=50 velocity=96 time=0
note_off channel=3 note=50 velocity=0 time=1920
note_on channel=3 note=55 velocity=96 time=960
note_off channel=3 note=55 velocity=0 time=480
note_on channel=3 note=53 velocity=96 time=0
note_off channel=3 note=53 velocity=0 time=480
note_on channel=3 note=52 velocity=96 time=0
note_off channel=3 note=52 velocity=0 time=960
note_on channel=3 note=54 velocity=96 time=0
note_off channel=3 note=54 velocity=0 time=960
note_on channel=3 note=55 velocity=96 time=0
note_off channel=3 note=55 velocity=0 time=960
note_on channel=3 note=50 velocity=96 time=0
note_off channel=3 note=50 velocity=0 time=960
note_on channel=3 note=43 velocity=96 time=0
note_off channel=3 note=43 velocity=0 time=1920
note_on channel=3 note=55 velocity=96 time=960
note_off channel=3 note=55 velocity=0 time=960
note_on channel=3 note=54 velocity=96 time=0
note_off channel=3 note=54 velocity=0 time=960
note_on channel=3 note=55 velocity=96 time=0
note_off channel=3 note=55 velocity=0 time=480
note_on channel=3 note=53 velocity=96 time=0
note_off channel=3 note=53 velocity=0 time=480
note_on channel=3 note=52 velocity=96 time=0
note_off channel=3 note=52 velocity=0 time=480
note_on channel=3 note=50 velocity=96 time=0
note_off channel=3 note=50 velocity=0 time=480
note_on channel=3 note=52 velocity=96 time=0
note_off channel=3 note=52 velocity=0 time=480
note_on channel=3 note=48 velocity=96 time=0
note_off channel=3 note=48 velocity=0 time=480
note_on channel=3 note=53 velocity=96 time=0
note_off channel=3 note=53 velocity=0 time=1920
note_on channel=3 note=52 velocity=96 time=960
note_off channel=3 note=52 velocity=0 time=960
note_on channel=3 note=54 velocity=96 time=0
note_off channel=3 note=54 velocity=0 time=960
note_on channel=3 note=55 velocity=96 time=0
note_off channel=3 note=55 velocity=0 time=960
note_on channel=3 note=48 velocity=96 time=0
note_off channel=3 note=48 velocity=0 time=960
note_on channel=3 note=49 velocity=96 time=0
note_off channel=3 note=49 velocity=0 time=960
note_on channel=3 note=50 velocity=96 time=0
note_off channel=3 note=50 velocity=0 time=1920
note_on channel=3 note=47 velocity=96 time=960
note_off channel=3 note=47 velocity=0 time=960
note_on channel=3 note=52 velocity=96 time=0
note_off channel=3 note=52 velocity=0 time=960
note_on channel=3 note=50 velocity=96 time=0
note_off channel=3 note=50 velocity=0 time=480
note_on channel=3 note=48 velocity=96 time=0
note_off channel=3 note=48 velocity=0 time=480
note_on channel=3 note=50 velocity=96 time=0
note_off channel=3 note=50 velocity=0 time=960
note_on channel=3 note=38 velocity=96 time=0
note_off channel=3 note=38 velocity=0 time=960
note_on channel=3 note=43 velocity=96 time=0
note_off channel=3 note=43 velocity=0 time=2880
<meta message end_of_track time=1>
Track 0: 06-DieSonne
ticks_per_beat: 960
<meta message time_signature numerator=4 denominator=4 clocks_per_click=24 notated_32nd_notes_per_beat=8 time=0>
<meta message key_signature key='Am' time=0>
<meta message set_tempo tempo=714289 time=0>
<meta message track_name name='06-DieSonne' time=0>
<meta message end_of_track time=1>
Track 1: Instrument 1
ticks_per_beat: 960
program_change channel=0 program=1 time=0
control_change channel=0 control=121 value=0 time=0
control_change channel=0 control=64 value=0 time=0
control_change channel=0 control=91 value=37 time=0
control_change channel=0 control=10 value=51 time=0
control_change channel=0 control=7 value=100 time=0
<meta message track_name name='Instrument 1' time=0>
control_change channel=0 control=64 value=0 time=0
note_on channel=0 note=62 velocity=96 time=2880
note_off channel=0 note=62 velocity=0 time=960
note_on channel=0 note=65 velocity=96 time=0
note_off channel=0 note=65 velocity=0 time=960
note_on channel=0 note=67 velocity=96 time=0
note_off channel=0 note=67 velocity=0 time=960
note_on channel=0 note=69 velocity=96 time=0
note_off channel=0 note=69 velocity=0 time=960
note_on channel=0 note=74 velocity=96 time=0
note_off channel=0 note=74 velocity=0 time=960
note_on channel=0 note=72 velocity=96 time=0
note_off channel=0 note=72 velocity=0 time=1440
note_on channel=0 note=71 velocity=96 time=0
note_off channel=0 note=71 velocity=0 time=480
note_on channel=0 note=69 velocity=96 time=0
note_off channel=0 note=69 velocity=0 time=480
note_on channel=0 note=71 velocity=96 time=0
note_off channel=0 note=71 velocity=0 time=480
note_on channel=0 note=72 velocity=96 time=0
note_off channel=0 note=72 velocity=0 time=960
note_on channel=0 note=71 velocity=96 time=0
note_off channel=0 note=71 velocity=0 time=1920
note_on channel=0 note=69 velocity=96 time=0
note_off channel=0 note=69 velocity=0 time=960
note_on channel=0 note=74 velocity=96 time=0
note_off channel=0 note=74 velocity=0 time=960
note_on channel=0 note=74 velocity=96 time=0
note_off channel=0 note=74 velocity=0 time=960
note_on channel=0 note=74 velocity=96 time=0
note_off channel=0 note=74 velocity=0 time=960
note_on channel=0 note=73 velocity=96 time=0
note_off channel=0 note=73 velocity=0 time=960
note_on channel=0 note=76 velocity=96 time=0
note_off channel=0 note=76 velocity=0 time=960
note_on channel=0 note=74 velocity=96 time=0
note_off channel=0 note=74 velocity=0 time=960
note_on channel=0 note=69 velocity=96 time=0
note_off channel=0 note=69 velocity=0 time=960
note_on channel=0 note=70 velocity=96 time=0
note_off channel=0 note=70 velocity=0 time=960
note_on channel=0 note=69 velocity=96 time=0
note_off channel=0 note=69 velocity=0 time=480
note_on channel=0 note=67 velocity=96 time=0
note_off channel=0 note=67 velocity=0 time=480
note_on channel=0 note=67 velocity=96 time=0
note_off channel=0 note=67 velocity=0 time=1920
note_on channel=0 note=65 velocity=96 time=0
note_off channel=0 note=65 velocity=0 time=960
note_on channel=0 note=65 velocity=96 time=0
note_off channel=0 note=65 velocity=0 time=960
note_on channel=0 note=64 velocity=96 time=0
note_off channel=0 note=64 velocity=0 time=960
note_on channel=0 note=64 velocity=96 time=0
note_off channel=0 note=64 velocity=0 time=960
note_on channel=0 note=62 velocity=96 time=0
note_off channel=0 note=62 velocity=0 time=960
note_on channel=0 note=69 velocity=96 time=0
note_off channel=0 note=69 velocity=0 time=960
note_on channel=0 note=72 velocity=96 time=0
note_off channel=0 note=72 velocity=0 time=960
note_on channel=0 note=72 velocity=96 time=0
note_off channel=0 note=72 velocity=0 time=960
note_on channel=0 note=67 velocity=96 time=0
note_off channel=0 note=67 velocity=0 time=480
note_on channel=0 note=69 velocity=96 time=0
note_off channel=0 note=69 velocity=0 time=480
note_on channel=0 note=70 velocity=96 time=0
note_off channel=0 note=70 velocity=0 time=960
note_on channel=0 note=69 velocity=96 time=0
note_off channel=0 note=69 velocity=0 time=960
note_on channel=0 note=69 velocity=96 time=0
note_off channel=0 note=69 velocity=0 time=960
note_on channel=0 note=72 velocity=96 time=0
note_off channel=0 note=72 velocity=0 time=960
note_on channel=0 note=74 velocity=96 time=0
note_off channel=0 note=74 velocity=0 time=960
note_on channel=0 note=69 velocity=96 time=0
note_off channel=0 note=69 velocity=0 time=960
note_on channel=0 note=72 velocity=96 time=0
note_off channel=0 note=72 velocity=0 time=960
note_on channel=0 note=69 velocity=96 time=0
note_off channel=0 note=69 velocity=0 time=960
note_on channel=0 note=67 velocity=96 time=0
note_off channel=0 note=67 velocity=0 time=480
note_on channel=0 note=65 velocity=96 time=0
note_off channel=0 note=65 velocity=0 time=480
note_on channel=0 note=64 velocity=96 time=0
note_off channel=0 note=64 velocity=0 time=1440
note_on channel=0 note=62 velocity=96 time=0
note_off channel=0 note=62 velocity=0 time=480
note_on channel=0 note=62 velocity=96 time=0
note_off channel=0 note=62 velocity=0 time=1920
<meta message end_of_track time=1>
Track 2: Instrument 2
ticks_per_beat: 960
program_change channel=1 program=1 time=0
control_change channel=1 control=121 value=0 time=0
control_change channel=1 control=64 value=0 time=0
control_change channel=1 control=91 value=37 time=0
control_change channel=1 control=10 value=51 time=0
control_change channel=1 control=7 value=100 time=0
<meta message track_name name='Instrument 2' time=0>
control_change channel=1 control=64 value=0 time=0
note_on channel=1 note=57 velocity=96 time=2880
note_off channel=1 note=57 velocity=0 time=960
note_on channel=1 note=62 velocity=96 time=0
note_off channel=1 note=62 velocity=0 time=1440
note_on channel=1 note=64 velocity=96 time=0
note_off channel=1 note=64 velocity=0 time=480
note_on channel=1 note=65 velocity=96 time=0
note_off channel=1 note=65 velocity=0 time=960
note_on channel=1 note=69 velocity=96 time=0
note_off channel=1 note=69 velocity=0 time=960
note_on channel=1 note=69 velocity=96 time=0
note_off channel=1 note=69 velocity=0 time=960
note_on channel=1 note=68 velocity=96 time=0
note_off channel=1 note=68 velocity=0 time=960
note_on channel=1 note=69 velocity=96 time=0
note_off channel=1 note=69 velocity=0 time=480
note_on channel=1 note=68 velocity=96 time=0
note_off channel=1 note=68 velocity=0 time=480
note_on channel=1 note=69 velocity=96 time=0
note_off channel=1 note=69 velocity=0 time=960
note_on channel=1 note=69 velocity=96 time=0
note_off channel=1 note=69 velocity=0 time=480
note_on channel=1 note=68 velocity=96 time=0
note_off channel=1 note=68 velocity=0 time=240
note_on channel=1 note=66 velocity=96 time=0
note_off channel=1 note=66 velocity=0 time=240
note_on channel=1 note=68 velocity=96 time=0
note_off channel=1 note=68 velocity=0 time=960
note_on channel=1 note=64 velocity=96 time=0
note_off channel=1 note=64 velocity=0 time=960
note_on channel=1 note=69 velocity=96 time=0
note_off channel=1 note=69 velocity=0 time=960
note_on channel=1 note=69 velocity=96 time=0
note_off channel=1 note=69 velocity=0 time=480
note_on channel=1 note=67 velocity=96 time=0
note_off channel=1 note=67 velocity=0 time=480
note_on channel=1 note=71 velocity=96 time=0
note_off channel=1 note=71 velocity=0 time=960
note_on channel=1 note=69 velocity=96 time=0
note_off channel=1 note=69 velocity=0 time=960
note_on channel=1 note=69 velocity=96 time=0
note_off channel=1 note=69 velocity=0 time=480
note_on channel=1 note=67 velocity=96 time=0
note_off channel=1 note=67 velocity=0 time=480
note_on channel=1 note=65 velocity=96 time=0
note_off channel=1 note=65 velocity=0 time=960
note_on channel=1 note=65 velocity=96 time=0
note_off channel=1 note=65 velocity=0 time=960
note_on channel=1 note=67 velocity=96 time=0
note_off channel=1 note=67 velocity=0 time=960
note_on channel=1 note=65 velocity=96 time=0
note_off channel=1 note=65 velocity=0 time=960
note_on channel=1 note=65 velocity=96 time=0
note_off channel=1 note=65 velocity=0 time=480
note_on channel=1 note=64 velocity=96 time=0
note_off channel=1 note=64 velocity=0 time=240
note_on channel=1 note=62 velocity=96 time=0
note_off channel=1 note=62 velocity=0 time=240
note_on channel=1 note=64 velocity=96 time=0
note_off channel=1 note=64 velocity=0 time=960
note_on channel=1 note=60 velocity=96 time=0
note_off channel=1 note=60 velocity=0 time=960
note_on channel=1 note=62 velocity=96 time=0
note_off channel=1 note=62 velocity=0 time=960
note_on channel=1 note=62 velocity=96 time=0
note_off channel=1 note=62 velocity=0 time=960
note_on channel=1 note=61 velocity=96 time=0
note_off channel=1 note=61 velocity=0 time=960
note_on channel=1 note=57 velocity=96 time=0
note_off channel=1 note=57 velocity=0 time=960
note_on channel=1 note=65 velocity=96 time=0
note_off channel=1 note=65 velocity=0 time=960
note_on channel=1 note=65 velocity=96 time=0
note_off channel=1 note=65 velocity=0 time=480
note_on channel=1 note=64 velocity=96 time=0
note_off channel=1 note=64 velocity=0 time=480
note_on channel=1 note=65 velocity=96 time=0
note_off channel=1 note=65 velocity=0 time=960
note_on channel=1 note=64 velocity=96 time=0
note_off channel=1 note=64 velocity=0 time=960
note_on channel=1 note=65 velocity=96 time=0
note_off channel=1 note=65 velocity=0 time=480
note_on channel=1 note=67 velocity=96 time=0
note_off channel=1 note=67 velocity=0 time=480
note_on channel=1 note=65 velocity=96 time=0
note_off channel=1 note=65 velocity=0 time=960
note_on channel=1 note=65 velocity=96 time=0
note_off channel=1 note=65 velocity=0 time=960
note_on channel=1 note=65 velocity=96 time=0
note_off channel=1 note=65 velocity=0 time=960
note_on channel=1 note=65 velocity=96 time=0
note_off channel=1 note=65 velocity=0 time=960
note_on channel=1 note=65 velocity=96 time=0
note_off channel=1 note=65 velocity=0 time=960
note_on channel=1 note=67 velocity=96 time=0
note_off channel=1 note=67 velocity=0 time=960
note_on channel=1 note=67 velocity=96 time=0
note_off channel=1 note=67 velocity=0 time=480
note_on channel=1 note=65 velocity=96 time=0
note_off channel=1 note=65 velocity=0 time=240
note_on channel=1 note=64 velocity=96 time=0
note_off channel=1 note=64 velocity=0 time=240
note_on channel=1 note=62 velocity=96 time=0
note_off channel=1 note=62 velocity=0 time=960
note_on channel=1 note=62 velocity=96 time=0
note_off channel=1 note=62 velocity=0 time=960
note_on channel=1 note=61 velocity=96 time=0
note_off channel=1 note=61 velocity=0 time=960
note_on channel=1 note=57 velocity=96 time=0
note_off channel=1 note=57 velocity=0 time=1920
<meta message end_of_track time=1>
Track 3: Instrument 3
ticks_per_beat: 960
program_change channel=2 program=1 time=0
control_change channel=2 control=121 value=0 time=0
control_change channel=2 control=64 value=0 time=0
control_change channel=2 control=91 value=37 time=0
control_change channel=2 control=10 value=51 time=0
control_change channel=2 control=7 value=100 time=0
<meta message track_name name='Instrument 3' time=0>
control_change channel=2 control=64 value=0 time=0
note_on channel=2 note=53 velocity=96 time=2880
note_off channel=2 note=53 velocity=0 time=960
note_on channel=2 note=57 velocity=96 time=0
note_off channel=2 note=57 velocity=0 time=960
note_on channel=2 note=58 velocity=96 time=0
note_off channel=2 note=58 velocity=0 time=960
note_on channel=2 note=62 velocity=96 time=0
note_off channel=2 note=62 velocity=0 time=960
note_on channel=2 note=65 velocity=96 time=0
note_off channel=2 note=65 velocity=0 time=960
note_on channel=2 note=64 velocity=96 time=0
note_off channel=2 note=64 velocity=0 time=960
note_on channel=2 note=64 velocity=96 time=0
note_off channel=2 note=64 velocity=0 time=720
note_on channel=2 note=62 velocity=96 time=0
note_off channel=2 note=62 velocity=0 time=240
note_on channel=2 note=60 velocity=96 time=0
note_off channel=2 note=60 velocity=0 time=480
note_on channel=2 note=62 velocity=96 time=0
note_off channel=2 note=62 velocity=0 time=480
note_on channel=2 note=64 velocity=96 time=0
note_off channel=2 note=64 velocity=0 time=480
note_on channel=2 note=65 velocity=96 time=0
note_off channel=2 note=65 velocity=0 time=480
note_on channel=2 note=59 velocity=96 time=0
note_off channel=2 note=59 velocity=0 time=480
note_on channel=2 note=64 velocity=96 time=0
note_off channel=2 note=64 velocity=0 time=960
note_on channel=2 note=62 velocity=96 time=0
note_off channel=2 note=62 velocity=0 time=480
note_on channel=2 note=61 velocity=96 time=0
note_off channel=2 note=61 velocity=0 time=960
note_on channel=2 note=62 velocity=96 time=0
note_off channel=2 note=62 velocity=0 time=960
note_on channel=2 note=62 velocity=96 time=0
note_off channel=2 note=62 velocity=0 time=480
note_on channel=2 note=64 velocity=96 time=0
note_off channel=2 note=64 velocity=0 time=480
note_on channel=2 note=65 velocity=96 time=0
note_off channel=2 note=65 velocity=0 time=960
note_on channel=2 note=64 velocity=96 time=0
note_off channel=2 note=64 velocity=0 time=960
note_on channel=2 note=57 velocity=96 time=0
note_off channel=2 note=57 velocity=0 time=960
note_on channel=2 note=57 velocity=96 time=0
note_off channel=2 note=57 velocity=0 time=960
note_on channel=2 note=62 velocity=96 time=0
note_off channel=2 note=62 velocity=0 time=960
note_on channel=2 note=62 velocity=96 time=0
note_off channel=2 note=62 velocity=0 time=480
note_on channel=2 note=60 velocity=96 time=0
note_off channel=2 note=60 velocity=0 time=480
note_on channel=2 note=60 velocity=96 time=0
note_off channel=2 note=60 velocity=0 time=960
note_on channel=2 note=62 velocity=96 time=0
note_off channel=2 note=62 velocity=0 time=480
note_on channel=2 note=58 velocity=96 time=0
note_off channel=2 note=58 velocity=0 time=480
note_on channel=2 note=55 velocity=96 time=0
note_off channel=2 note=55 velocity=0 time=480
note_on channel=2 note=60 velocity=96 time=0
note_off channel=2 note=60 velocity=0 time=240
note_on channel=2 note=58 velocity=96 time=0
note_off channel=2 note=58 velocity=0 time=240
note_on channel=2 note=57 velocity=96 time=0
note_off channel=2 note=57 velocity=0 time=960
note_on channel=2 note=58 velocity=96 time=0
note_off channel=2 note=58 velocity=0 time=960
note_on channel=2 note=58 velocity=96 time=0
note_off channel=2 note=58 velocity=0 time=960
note_on channel=2 note=57 velocity=96 time=0
note_off channel=2 note=57 velocity=0 time=480
note_on channel=2 note=55 velocity=96 time=0
note_off channel=2 note=55 velocity=0 time=480
note_on channel=2 note=53 velocity=96 time=0
note_off channel=2 note=53 velocity=0 time=960
note_on channel=2 note=62 velocity=96 time=0
note_off channel=2 note=62 velocity=0 time=960
note_on channel=2 note=60 velocity=96 time=0
note_off channel=2 note=60 velocity=0 time=960
note_on channel=2 note=60 velocity=96 time=0
note_off channel=2 note=60 velocity=0 time=960
note_on channel=2 note=60 velocity=96 time=0
note_off channel=2 note=60 velocity=0 time=480
note_on channel=2 note=57 velocity=96 time=0
note_off channel=2 note=57 velocity=0 time=480
note_on channel=2 note=62 velocity=96 time=0
note_off channel=2 note=62 velocity=0 time=480
note_on channel=2 note=60 velocity=96 time=0
note_off channel=2 note=60 velocity=0 time=480
note_on channel=2 note=60 velocity=96 time=0
note_off channel=2 note=60 velocity=0 time=960
note_on channel=2 note=62 velocity=96 time=0
note_off channel=2 note=62 velocity=0 time=960
note_on channel=2 note=60 velocity=96 time=0
note_off channel=2 note=60 velocity=0 time=960
note_on channel=2 note=60 velocity=96 time=0
note_off channel=2 note=60 velocity=0 time=480
note_on channel=2 note=58 velocity=96 time=0
note_off channel=2 note=58 velocity=0 time=480
note_on channel=2 note=60 velocity=96 time=0
note_off channel=2 note=60 velocity=0 time=960
note_on channel=2 note=60 velocity=96 time=0
note_off channel=2 note=60 velocity=0 time=960
note_on channel=2 note=60 velocity=96 time=0
note_off channel=2 note=60 velocity=0 time=960
note_on channel=2 note=58 velocity=96 time=0
note_off channel=2 note=58 velocity=0 time=960
note_on channel=2 note=58 velocity=96 time=0
note_off channel=2 note=58 velocity=0 time=480
note_on channel=2 note=55 velocity=96 time=0
note_off channel=2 note=55 velocity=0 time=480
note_on channel=2 note=52 velocity=96 time=0
note_off channel=2 note=52 velocity=0 time=480
note_on channel=2 note=57 velocity=96 time=0
note_off channel=2 note=57 velocity=0 time=240
note_on channel=2 note=55 velocity=96 time=0
note_off channel=2 note=55 velocity=0 time=240
note_on channel=2 note=54 velocity=96 time=0
note_off channel=2 note=54 velocity=0 time=1920
<meta message end_of_track time=1>
Track 4: Instrument 4
ticks_per_beat: 960
program_change channel=3 program=1 time=0
control_change channel=3 control=121 value=0 time=0
control_change channel=3 control=64 value=0 time=0
control_change channel=3 control=91 value=37 time=0
control_change channel=3 control=10 value=51 time=0
control_change channel=3 control=7 value=100 time=0
<meta message track_name name='Instrument 4' time=0>
control_change channel=3 control=64 value=0 time=0
note_on channel=3 note=50 velocity=96 time=2880
note_off channel=3 note=50 velocity=0 time=960
note_on channel=3 note=50 velocity=96 time=0
note_off channel=3 note=50 velocity=0 time=960
note_on channel=3 note=43 velocity=96 time=0
note_off channel=3 note=43 velocity=0 time=960
note_on channel=3 note=38 velocity=96 time=0
note_off channel=3 note=38 velocity=0 time=960
note_on channel=3 note=50 velocity=96 time=0
note_off channel=3 note=50 velocity=0 time=960
note_on channel=3 note=57 velocity=96 time=0
note_off channel=3 note=57 velocity=0 time=960
note_on channel=3 note=52 velocity=96 time=0
note_off channel=3 note=52 velocity=0 time=960
note_on channel=3 note=53 velocity=96 time=0
note_off channel=3 note=53 velocity=0 time=960
note_on channel=3 note=48 velocity=96 time=0
note_off channel=3 note=48 velocity=0 time=480
note_on channel=3 note=50 velocity=96 time=0
note_off channel=3 note=50 velocity=0 time=480
note_on channel=3 note=52 velocity=96 time=0
note_off channel=3 note=52 velocity=0 time=960
note_on channel=3 note=40 velocity=96 time=0
note_off channel=3 note=40 velocity=0 time=960
note_on channel=3 note=45 velocity=96 time=0
note_off channel=3 note=45 velocity=0 time=960
note_on channel=3 note=53 velocity=96 time=0
note_off channel=3 note=53 velocity=0 time=960
note_on channel=3 note=58 velocity=96 time=0
note_off channel=3 note=58 velocity=0 time=960
note_on channel=3 note=57 velocity=96 time=0
note_off channel=3 note=57 velocity=0 time=480
note_on channel=3 note=56 velocity=96 time=0
note_off channel=3 note=56 velocity=0 time=480
note_on channel=3 note=57 velocity=96 time=0
note_off channel=3 note=57 velocity=0 time=960
note_on channel=3 note=49 velocity=96 time=0
note_off channel=3 note=49 velocity=0 time=960
note_on channel=3 note=50 velocity=96 time=0
note_off channel=3 note=50 velocity=0 time=480
note_on channel=3 note=52 velocity=96 time=0
note_off channel=3 note=52 velocity=0 time=480
note_on channel=3 note=53 velocity=96 time=0
note_off channel=3 note=53 velocity=0 time=960
note_on channel=3 note=53 velocity=96 time=0
note_off channel=3 note=53 velocity=0 time=480
note_on channel=3 note=52 velocity=96 time=0
note_off channel=3 note=52 velocity=0 time=480
note_on channel=3 note=53 velocity=96 time=0
note_off channel=3 note=53 velocity=0 time=960
note_on channel=3 note=46 velocity=96 time=0
note_off channel=3 note=46 velocity=0 time=960
note_on channel=3 note=48 velocity=96 time=0
note_off channel=3 note=48 velocity=0 time=960
note_on channel=3 note=41 velocity=96 time=0
note_off channel=3 note=41 velocity=0 time=960
note_on channel=3 note=46 velocity=96 time=0
note_off channel=3 note=46 velocity=0 time=960
note_on channel=3 note=43 velocity=96 time=0
note_off channel=3 note=43 velocity=0 time=960
note_on channel=3 note=45 velocity=96 time=0
note_off channel=3 note=45 velocity=0 time=960
note_on channel=3 note=38 velocity=96 time=0
note_off channel=3 note=38 velocity=0 time=960
note_on channel=3 note=50 velocity=96 time=0
note_off channel=3 note=50 velocity=0 time=960
note_on channel=3 note=45 velocity=96 time=0
note_off channel=3 note=45 velocity=0 time=480
note_on channel=3 note=43 velocity=96 time=0
note_off channel=3 note=43 velocity=0 time=480
note_on channel=3 note=45 velocity=96 time=0
note_off channel=3 note=45 velocity=0 time=480
note_on channel=3 note=46 velocity=96 time=0
note_off channel=3 note=46 velocity=0 time=480
note_on channel=3 note=48 velocity=96 time=0
note_off channel=3 note=48 velocity=0 time=960
note_on channel=3 note=50 velocity=96 time=0
note_off channel=3 note=50 velocity=0 time=480
note_on channel=3 note=52 velocity=96 time=0
note_off channel=3 note=52 velocity=0 time=480
note_on channel=3 note=53 velocity=96 time=0
note_off channel=3 note=53 velocity=0 time=960
note_on channel=3 note=50 velocity=96 time=0
note_off channel=3 note=50 velocity=0 time=960
note_on channel=3 note=45 velocity=96 time=0
note_off channel=3 note=45 velocity=0 time=960
note_on channel=3 note=46 velocity=96 time=0
note_off channel=3 note=46 velocity=0 time=960
note_on channel=3 note=41 velocity=96 time=0
note_off channel=3 note=41 velocity=0 time=960
note_on channel=3 note=40 velocity=96 time=0
note_off channel=3 note=40 velocity=0 time=960
note_on channel=3 note=41 velocity=96 time=0
note_off channel=3 note=41 velocity=0 time=960
note_on channel=3 note=46 velocity=96 time=0
note_off channel=3 note=46 velocity=0 time=960
note_on channel=3 note=43 velocity=96 time=0
note_off channel=3 note=43 velocity=0 time=960
note_on channel=3 note=45 velocity=96 time=0
note_off channel=3 note=45 velocity=0 time=960
note_on channel=3 note=38 velocity=96 time=0
note_off channel=3 note=38 velocity=0 time=1920
<meta message end_of_track time=1>
Track 0: 07-HerrGott
ticks_per_beat: 960
<meta message time_signature numerator=3 denominator=4 clocks_per_click=24 notated_32nd_notes_per_beat=8 time=0>
<meta message key_signature key='Bb' time=0>
<meta message set_tempo tempo=625001 time=0>
<meta message track_name name='07-HerrGott' time=0>
<meta message end_of_track time=1>
Track 1: Instrument 1
ticks_per_beat: 960
program_change channel=0 program=1 time=0
control_change channel=0 control=121 value=0 time=0
control_change channel=0 control=64 value=0 time=0
control_change channel=0 control=91 value=37 time=0
control_change channel=0 control=10 value=51 time=0
control_change channel=0 control=7 value=100 time=0
<meta message track_name name='Instrument 1' time=0>
control_change channel=0 control=64 value=0 time=0
note_on channel=0 note=70 velocity=96 time=1920
note_off channel=0 note=70 velocity=0 time=960
note_on channel=0 note=70 velocity=96 time=0
note_off channel=0 note=70 velocity=0 time=1920
note_on channel=0 note=69 velocity=96 time=0
note_off channel=0 note=69 velocity=0 time=960
note_on channel=0 note=67 velocity=96 time=0
note_off channel=0 note=67 velocity=0 time=1920
note_on channel=0 note=65 velocity=96 time=0
note_off channel=0 note=65 velocity=0 time=960
note_on channel=0 note=70 velocity=96 time=0
note_off channel=0 note=70 velocity=0 time=960
note_on channel=0 note=72 velocity=96 time=0
note_off channel=0 note=72 velocity=0 time=1920
note_on channel=0 note=74 velocity=96 time=0
note_off channel=0 note=74 velocity=0 time=1920
note_on channel=0 note=74 velocity=96 time=0
note_off channel=0 note=74 velocity=0 time=960
note_on channel=0 note=74 velocity=96 time=0
note_off channel=0 note=74 velocity=0 time=1920
note_on channel=0 note=74 velocity=96 time=0
note_off channel=0 note=74 velocity=0 time=960
note_on channel=0 note=72 velocity=96 time=0
note_off channel=0 note=72 velocity=0 time=1920
note_on channel=0 note=74 velocity=96 time=0
note_off channel=0 note=74 velocity=0 time=960
note_on channel=0 note=75 velocity=96 time=0
note_off channel=0 note=75 velocity=0 time=960
note_on channel=0 note=74 velocity=96 time=0
note_off channel=0 note=74 velocity=0 time=1920
note_on channel=0 note=72 velocity=96 time=0
note_off channel=0 note=72 velocity=0 time=1920
note_on channel=0 note=70 velocity=96 time=0
note_off channel=0 note=70 velocity=0 time=960
note_on channel=0 note=72 velocity=96 time=0
note_off channel=0 note=72 velocity=0 time=1920
note_on channel=0 note=74 velocity=96 time=0
note_off channel=0 note=74 velocity=0 time=960
note_on channel=0 note=72 velocity=96 time=0
note_off channel=0 note=72 velocity=0 time=1920
note_on channel=0 note=70 velocity=96 time=0
note_off channel=0 note=70 velocity=0 time=960
note_on channel=0 note=67 velocity=96 time=0
note_off channel=0 note=67 velocity=0 time=960
note_on channel=0 note=69 velocity=96 time=0
note_off channel=0 note=69 velocity=0 time=1920
note_on channel=0 note=70 velocity=96 time=0
note_off channel=0 note=70 velocity=0 time=1920
note_on channel=0 note=77 velocity=96 time=0
note_off channel=0 note=77 velocity=0 time=960
note_on channel=0 note=74 velocity=96 time=0
note_off channel=0 note=74 velocity=0 time=1920
note_on channel=0 note=70 velocity=96 time=0
note_off channel=0 note=70 velocity=0 time=960
note_on channel=0 note=72 velocity=96 time=0
note_off channel=0 note=72 velocity=0 time=1920
note_on channel=0 note=75 velocity=96 time=0
note_off channel=0 note=75 velocity=0 time=960
note_on channel=0 note=74 velocity=96 time=0
note_off channel=0 note=74 velocity=0 time=960
note_on channel=0 note=72 velocity=96 time=0
note_off channel=0 note=72 velocity=0 time=1920
note_on channel=0 note=70 velocity=96 time=0
note_off channel=0 note=70 velocity=0 time=1920
<meta message end_of_track time=1>
Track 2: Instrument 2
ticks_per_beat: 960
program_change channel=1 program=1 time=0
control_change channel=1 control=121 value=0 time=0
control_change channel=1 control=64 value=0 time=0
control_change channel=1 control=91 value=37 time=0
control_change channel=1 control=10 value=51 time=0
control_change channel=1 control=7 value=100 time=0
<meta message track_name name='Instrument 2' time=0>
control_change channel=1 control=64 value=0 time=0
note_on channel=1 note=65 velocity=96 time=1920
note_off channel=1 note=65 velocity=0 time=960
note_on channel=1 note=67 velocity=96 time=0
note_off channel=1 note=67 velocity=0 time=1920
note_on channel=1 note=65 velocity=96 time=0
note_off channel=1 note=65 velocity=0 time=960
note_on channel=1 note=63 velocity=96 time=0
note_off channel=1 note=63 velocity=0 time=1920
note_on channel=1 note=62 velocity=96 time=0
note_off channel=1 note=62 velocity=0 time=960
note_on channel=1 note=62 velocity=96 time=0
note_off channel=1 note=62 velocity=0 time=960
note_on channel=1 note=67 velocity=96 time=0
note_off channel=1 note=67 velocity=0 time=960
note_on channel=1 note=65 velocity=96 time=0
note_off channel=1 note=65 velocity=0 time=960
note_on channel=1 note=65 velocity=96 time=0
note_off channel=1 note=65 velocity=0 time=1920
note_on channel=1 note=69 velocity=96 time=0
note_off channel=1 note=69 velocity=0 time=960
note_on channel=1 note=67 velocity=96 time=0
note_off channel=1 note=67 velocity=0 time=1920
note_on channel=1 note=67 velocity=96 time=0
note_off channel=1 note=67 velocity=0 time=960
note_on channel=1 note=67 velocity=96 time=0
note_off channel=1 note=67 velocity=0 time=960
note_on channel=1 note=65 velocity=96 time=0
note_off channel=1 note=65 velocity=0 time=960
note_on channel=1 note=65 velocity=96 time=0
note_off channel=1 note=65 velocity=0 time=960
note_on channel=1 note=65 velocity=96 time=0
note_off channel=1 note=65 velocity=0 time=960
note_on channel=1 note=65 velocity=96 time=0
note_off channel=1 note=65 velocity=0 time=1920
note_on channel=1 note=65 velocity=96 time=0
note_off channel=1 note=65 velocity=0 time=1920
note_on channel=1 note=67 velocity=96 time=0
note_off channel=1 note=67 velocity=0 time=960
note_on channel=1 note=65 velocity=96 time=0
note_off channel=1 note=65 velocity=0 time=1920
note_on channel=1 note=65 velocity=96 time=0
note_off channel=1 note=65 velocity=0 time=480
note_on channel=1 note=70 velocity=96 time=0
note_off channel=1 note=70 velocity=0 time=480
note_on channel=1 note=67 velocity=96 time=0
note_off channel=1 note=67 velocity=0 time=960
note_on channel=1 note=65 velocity=96 time=0
note_off channel=1 note=65 velocity=0 time=480
note_on channel=1 note=63 velocity=96 time=0
note_off channel=1 note=63 velocity=0 time=480
note_on channel=1 note=62 velocity=96 time=0
note_off channel=1 note=62 velocity=0 time=960
note_on channel=1 note=67 velocity=96 time=0
note_off channel=1 note=67 velocity=0 time=960
note_on channel=1 note=67 velocity=96 time=0
note_off channel=1 note=67 velocity=0 time=960
note_on channel=1 note=66 velocity=96 time=0
note_off channel=1 note=66 velocity=0 time=960
note_on channel=1 note=67 velocity=96 time=0
note_off channel=1 note=67 velocity=0 time=1920
note_on channel=1 note=65 velocity=96 time=0
note_off channel=1 note=65 velocity=0 time=960
note_on channel=1 note=65 velocity=96 time=0
note_off channel=1 note=65 velocity=0 time=1920
note_on channel=1 note=67 velocity=96 time=0
note_off channel=1 note=67 velocity=0 time=960
note_on channel=1 note=65 velocity=96 time=0
note_off channel=1 note=65 velocity=0 time=1920
note_on channel=1 note=65 velocity=96 time=0
note_off channel=1 note=65 velocity=0 time=960
note_on channel=1 note=65 velocity=96 time=0
note_off channel=1 note=65 velocity=0 time=960
note_on channel=1 note=67 velocity=96 time=0
note_off channel=1 note=67 velocity=0 time=960
note_on channel=1 note=65 velocity=96 time=0
note_off channel=1 note=65 velocity=0 time=480
note_on channel=1 note=63 velocity=96 time=0
note_off channel=1 note=63 velocity=0 time=480
note_on channel=1 note=62 velocity=96 time=0
note_off channel=1 note=62 velocity=0 time=1920
<meta message end_of_track time=1>
Track 3: Instrument 3
ticks_per_beat: 960
program_change channel=2 program=1 time=0
control_change channel=2 control=121 value=0 time=0
control_change channel=2 control=64 value=0 time=0
control_change channel=2 control=91 value=37 time=0
control_change channel=2 control=10 value=51 time=0
control_change channel=2 control=7 value=100 time=0
<meta message track_name name='Instrument 3' time=0>
control_change channel=2 control=64 value=0 time=0
note_on channel=2 note=62 velocity=96 time=1920
note_off channel=2 note=62 velocity=0 time=960
note_on channel=2 note=62 velocity=96 time=0
note_off channel=2 note=62 velocity=0 time=1920
note_on channel=2 note=62 velocity=96 time=0
note_off channel=2 note=62 velocity=0 time=960
note_on channel=2 note=58 velocity=96 time=0
note_off channel=2 note=58 velocity=0 time=1920
note_on channel=2 note=58 velocity=96 time=0
note_off channel=2 note=58 velocity=0 time=960
note_on channel=2 note=58 velocity=96 time=0
note_off channel=2 note=58 velocity=0 time=1920
note_on channel=2 note=57 velocity=96 time=0
note_off channel=2 note=57 velocity=0 time=960
note_on channel=2 note=58 velocity=96 time=0
note_off channel=2 note=58 velocity=0 time=1920
note_on channel=2 note=57 velocity=96 time=0
note_off channel=2 note=57 velocity=0 time=960
note_on channel=2 note=58 velocity=96 time=0
note_off channel=2 note=58 velocity=0 time=1920
note_on channel=2 note=58 velocity=96 time=0
note_off channel=2 note=58 velocity=0 time=960
note_on channel=2 note=58 velocity=96 time=0
note_off channel=2 note=58 velocity=0 time=960
note_on channel=2 note=57 velocity=96 time=0
note_off channel=2 note=57 velocity=0 time=960
note_on channel=2 note=58 velocity=96 time=0
note_off channel=2 note=58 velocity=0 time=960
note_on channel=2 note=60 velocity=96 time=0
note_off channel=2 note=60 velocity=0 time=960
note_on channel=2 note=58 velocity=96 time=0
note_off channel=2 note=58 velocity=0 time=1920
note_on channel=2 note=57 velocity=96 time=0
note_off channel=2 note=57 velocity=0 time=1920
note_on channel=2 note=62 velocity=96 time=0
note_off channel=2 note=62 velocity=0 time=960
note_on channel=2 note=60 velocity=96 time=0
note_off channel=2 note=60 velocity=0 time=1920
note_on channel=2 note=58 velocity=96 time=0
note_off channel=2 note=58 velocity=0 time=960
note_on channel=2 note=58 velocity=96 time=0
note_off channel=2 note=58 velocity=0 time=960
note_on channel=2 note=57 velocity=96 time=0
note_off channel=2 note=57 velocity=0 time=960
note_on channel=2 note=58 velocity=96 time=0
note_off channel=2 note=58 velocity=0 time=960
note_on channel=2 note=58 velocity=96 time=0
note_off channel=2 note=58 velocity=0 time=480
note_on channel=2 note=62 velocity=96 time=0
note_off channel=2 note=62 velocity=0 time=480
note_on channel=2 note=63 velocity=96 time=0
note_off channel=2 note=63 velocity=0 time=960
note_on channel=2 note=62 velocity=96 time=0
note_off channel=2 note=62 velocity=0 time=960
note_on channel=2 note=62 velocity=96 time=0
note_off channel=2 note=62 velocity=0 time=1920
note_on channel=2 note=60 velocity=96 time=0
note_off channel=2 note=60 velocity=0 time=960
note_on channel=2 note=62 velocity=96 time=0
note_off channel=2 note=62 velocity=0 time=1920
note_on channel=2 note=62 velocity=96 time=0
note_off channel=2 note=62 velocity=0 time=960
note_on channel=2 note=57 velocity=96 time=0
note_off channel=2 note=57 velocity=0 time=1920
note_on channel=2 note=57 velocity=96 time=0
note_off channel=2 note=57 velocity=0 time=960
note_on channel=2 note=58 velocity=96 time=0
note_off channel=2 note=58 velocity=0 time=1920
note_on channel=2 note=57 velocity=96 time=0
note_off channel=2 note=57 velocity=0 time=960
note_on channel=2 note=53 velocity=96 time=0
note_off channel=2 note=53 velocity=0 time=1920
<meta message end_of_track time=1>
Track 4: Instrument 4
ticks_per_beat: 960
program_change channel=3 program=1 time=0
control_change channel=3 control=121 value=0 time=0
control_change channel=3 control=64 value=0 time=0
control_change channel=3 control=91 value=37 time=0
control_change channel=3 control=10 value=51 time=0
control_change channel=3 control=7 value=100 time=0
<meta message track_name name='Instrument 4' time=0>
control_change channel=3 control=64 value=0 time=0
note_on channel=3 note=46 velocity=96 time=1920
note_off channel=3 note=46 velocity=0 time=480
note_on channel=3 note=45 velocity=96 time=0
note_off channel=3 note=45 velocity=0 time=480
note_on channel=3 note=43 velocity=96 time=0
note_off channel=3 note=43 velocity=0 time=480
note_on channel=3 note=45 velocity=96 time=0
note_off channel=3 note=45 velocity=0 time=480
note_on channel=3 note=46 velocity=96 time=0
note_off channel=3 note=46 velocity=0 time=480
note_on channel=3 note=48 velocity=96 time=0
note_off channel=3 note=48 velocity=0 time=480
note_on channel=3 note=50 velocity=96 time=0
note_off channel=3 note=50 velocity=0 time=480
note_on channel=3 note=46 velocity=96 time=0
note_off channel=3 note=46 velocity=0 time=480
note_on channel=3 note=51 velocity=96 time=0
note_off channel=3 note=51 velocity=0 time=480
note_on channel=3 note=53 velocity=96 time=0
note_off channel=3 note=53 velocity=0 time=480
note_on channel=3 note=55 velocity=96 time=0
note_off channel=3 note=55 velocity=0 time=480
note_on channel=3 note=57 velocity=96 time=0
note_off channel=3 note=57 velocity=0 time=480
note_on channel=3 note=58 velocity=96 time=0
note_off channel=3 note=58 velocity=0 time=480
note_on channel=3 note=57 velocity=96 time=0
note_off channel=3 note=57 velocity=0 time=480
note_on channel=3 note=55 velocity=96 time=0
note_off channel=3 note=55 velocity=0 time=480
note_on channel=3 note=53 velocity=96 time=0
note_off channel=3 note=53 velocity=0 time=480
note_on channel=3 note=51 velocity=96 time=0
note_off channel=3 note=51 velocity=0 time=480
note_on channel=3 note=50 velocity=96 time=0
note_off channel=3 note=50 velocity=0 time=480
note_on channel=3 note=51 velocity=96 time=0
note_off channel=3 note=51 velocity=0 time=480
note_on channel=3 note=53 velocity=96 time=0
note_off channel=3 note=53 velocity=0 time=480
note_on channel=3 note=46 velocity=96 time=0
note_off channel=3 note=46 velocity=0 time=1920
note_on channel=3 note=42 velocity=96 time=0
note_off channel=3 note=42 velocity=0 time=960
note_on channel=3 note=43 velocity=96 time=0
note_off channel=3 note=43 velocity=0 time=480
note_on channel=3 note=50 velocity=96 time=0
note_off channel=3 note=50 velocity=0 time=480
note_on channel=3 note=55 velocity=96 time=0
note_off channel=3 note=55 velocity=0 time=480
note_on channel=3 note=53 velocity=96 time=0
note_off channel=3 note=53 velocity=0 time=480
note_on channel=3 note=51 velocity=96 time=0
note_off channel=3 note=51 velocity=0 time=480
note_on channel=3 note=50 velocity=96 time=0
note_off channel=3 note=50 velocity=0 time=480
note_on channel=3 note=51 velocity=96 time=0
note_off channel=3 note=51 velocity=0 time=480
note_on channel=3 note=48 velocity=96 time=0
note_off channel=3 note=48 velocity=0 time=480
note_on channel=3 note=53 velocity=96 time=0
note_off channel=3 note=53 velocity=0 time=480
note_on channel=3 note=51 velocity=96 time=0
note_off channel=3 note=51 velocity=0 time=480
note_on channel=3 note=50 velocity=96 time=0
note_off channel=3 note=50 velocity=0 time=480
note_on channel=3 note=48 velocity=96 time=0
note_off channel=3 note=48 velocity=0 time=480
note_on channel=3 note=46 velocity=96 time=0
note_off channel=3 note=46 velocity=0 time=480
note_on channel=3 note=45 velocity=96 time=0
note_off channel=3 note=45 velocity=0 time=480
note_on channel=3 note=46 velocity=96 time=0
note_off channel=3 note=46 velocity=0 time=480
note_on channel=3 note=48 velocity=96 time=0
note_off channel=3 note=48 velocity=0 time=480
note_on channel=3 note=50 velocity=96 time=0
note_off channel=3 note=50 velocity=0 time=480
note_on channel=3 note=51 velocity=96 time=0
note_off channel=3 note=51 velocity=0 time=480
note_on channel=3 note=53 velocity=96 time=0
note_off channel=3 note=53 velocity=0 time=1920
note_on channel=3 note=55 velocity=96 time=0
note_off channel=3 note=55 velocity=0 time=960
note_on channel=3 note=57 velocity=96 time=0
note_off channel=3 note=57 velocity=0 time=480
note_on channel=3 note=53 velocity=96 time=0
note_off channel=3 note=53 velocity=0 time=480
note_on channel=3 note=55 velocity=96 time=0
note_off channel=3 note=55 velocity=0 time=480
note_on channel=3 note=57 velocity=96 time=0
note_off channel=3 note=57 velocity=0 time=480
note_on channel=3 note=58 velocity=96 time=0
note_off channel=3 note=58 velocity=0 time=480
note_on channel=3 note=55 velocity=96 time=0
note_off channel=3 note=55 velocity=0 time=480
note_on channel=3 note=51 velocity=96 time=0
note_off channel=3 note=51 velocity=0 time=480
note_on channel=3 note=50 velocity=96 time=0
note_off channel=3 note=50 velocity=0 time=480
note_on channel=3 note=51 velocity=96 time=0
note_off channel=3 note=51 velocity=0 time=480
note_on channel=3 note=53 velocity=96 time=0
note_off channel=3 note=53 velocity=0 time=480
note_on channel=3 note=55 velocity=96 time=0
note_off channel=3 note=55 velocity=0 time=480
note_on channel=3 note=50 velocity=96 time=0
note_off channel=3 note=50 velocity=0 time=480
note_on channel=3 note=51 velocity=96 time=0
note_off channel=3 note=51 velocity=0 time=480
note_on channel=3 note=46 velocity=96 time=0
note_off channel=3 note=46 velocity=0 time=480
note_on channel=3 note=48 velocity=96 time=0
note_off channel=3 note=48 velocity=0 time=480
note_on channel=3 note=45 velocity=96 time=0
note_off channel=3 note=45 velocity=0 time=480
note_on channel=3 note=50 velocity=96 time=0
note_off channel=3 note=50 velocity=0 time=480
note_on channel=3 note=38 velocity=96 time=0
note_off channel=3 note=38 velocity=0 time=480
note_on channel=3 note=43 velocity=96 time=0
note_off channel=3 note=43 velocity=0 time=1920
note_on channel=3 note=57 velocity=96 time=0
note_off channel=3 note=57 velocity=0 time=960
note_on channel=3 note=58 velocity=96 time=0
note_off channel=3 note=58 velocity=0 time=480
note_on channel=3 note=60 velocity=96 time=0
note_off channel=3 note=60 velocity=0 time=480
note_on channel=3 note=58 velocity=96 time=0
note_off channel=3 note=58 velocity=0 time=480
note_on channel=3 note=57 velocity=96 time=0
note_off channel=3 note=57 velocity=0 time=480
note_on channel=3 note=55 velocity=96 time=0
note_off channel=3 note=55 velocity=0 time=480
note_on channel=3 note=53 velocity=96 time=0
note_off channel=3 note=53 velocity=0 time=480
note_on channel=3 note=51 velocity=96 time=0
note_off channel=3 note=51 velocity=0 time=480
note_on channel=3 note=55 velocity=96 time=0
note_off channel=3 note=55 velocity=0 time=480
note_on channel=3 note=53 velocity=96 time=0
note_off channel=3 note=53 velocity=0 time=480
note_on channel=3 note=51 velocity=96 time=0
note_off channel=3 note=51 velocity=0 time=480
note_on channel=3 note=50 velocity=96 time=0
note_off channel=3 note=50 velocity=0 time=480
note_on channel=3 note=48 velocity=96 time=0
note_off channel=3 note=48 velocity=0 time=480
note_on channel=3 note=46 velocity=96 time=0
note_off channel=3 note=46 velocity=0 time=480
note_on channel=3 note=50 velocity=96 time=0
note_off channel=3 note=50 velocity=0 time=480
note_on channel=3 note=51 velocity=96 time=0
note_off channel=3 note=51 velocity=0 time=480
note_on channel=3 note=48 velocity=96 time=0
note_off channel=3 note=48 velocity=0 time=480
note_on channel=3 note=53 velocity=96 time=0
note_off channel=3 note=53 velocity=0 time=480
note_on channel=3 note=41 velocity=96 time=0
note_off channel=3 note=41 velocity=0 time=480
note_on channel=3 note=46 velocity=96 time=0
note_off channel=3 note=46 velocity=0 time=1920
<meta message end_of_track time=1>
Track 0: 08-FuerDeinenThron
ticks_per_beat: 960
<meta message time_signature numerator=3 denominator=4 clocks_per_click=24 notated_32nd_notes_per_beat=8 time=0>
<meta message key_signature key='D' time=0>
<meta message set_tempo tempo=508474 time=0>
<meta message track_name name='08-FuerDeinenThron' time=0>
<meta message end_of_track time=1>
Track 1: Instrument 1
ticks_per_beat: 960
program_change channel=0 program=1 time=0
control_change channel=0 control=121 value=0 time=0
control_change channel=0 control=64 value=0 time=0
control_change channel=0 control=91 value=37 time=0
control_change channel=0 control=10 value=51 time=0
control_change channel=0 control=7 value=100 time=0
<meta message track_name name='Instrument 1' time=0>
control_change channel=0 control=64 value=0 time=0
note_on channel=0 note=74 velocity=96 time=1920
note_off channel=0 note=74 velocity=0 time=960
note_on channel=0 note=74 velocity=96 time=0
note_off channel=0 note=74 velocity=0 time=1920
note_on channel=0 note=73 velocity=96 time=0
note_off channel=0 note=73 velocity=0 time=960
note_on channel=0 note=71 velocity=96 time=0
note_off channel=0 note=71 velocity=0 time=1920
note_on channel=0 note=69 velocity=96 time=0
note_off channel=0 note=69 velocity=0 time=960
note_on channel=0 note=74 velocity=96 time=0
note_off channel=0 note=74 velocity=0 time=960
note_on channel=0 note=76 velocity=96 time=0
note_off channel=0 note=76 velocity=0 time=1920
note_on channel=0 note=78 velocity=96 time=0
note_off channel=0 note=78 velocity=0 time=1920
note_on channel=0 note=78 velocity=96 time=0
note_off channel=0 note=78 velocity=0 time=960
note_on channel=0 note=78 velocity=96 time=0
note_off channel=0 note=78 velocity=0 time=1920
note_on channel=0 note=78 velocity=96 time=0
note_off channel=0 note=78 velocity=0 time=960
note_on channel=0 note=76 velocity=96 time=0
note_off channel=0 note=76 velocity=0 time=1920
note_on channel=0 note=78 velocity=96 time=0
note_off channel=0 note=78 velocity=0 time=960
note_on channel=0 note=79 velocity=96 time=0
note_off channel=0 note=79 velocity=0 time=960
note_on channel=0 note=78 velocity=96 time=0
note_off channel=0 note=78 velocity=0 time=1920
note_on channel=0 note=76 velocity=96 time=0
note_off channel=0 note=76 velocity=0 time=1920
note_on channel=0 note=74 velocity=96 time=0
note_off channel=0 note=74 velocity=0 time=960
note_on channel=0 note=76 velocity=96 time=0
note_off channel=0 note=76 velocity=0 time=1920
note_on channel=0 note=78 velocity=96 time=0
note_off channel=0 note=78 velocity=0 time=960
note_on channel=0 note=76 velocity=96 time=0
note_off channel=0 note=76 velocity=0 time=1920
note_on channel=0 note=74 velocity=96 time=0
note_off channel=0 note=74 velocity=0 time=960
note_on channel=0 note=71 velocity=96 time=0
note_off channel=0 note=71 velocity=0 time=960
note_on channel=0 note=73 velocity=96 time=0
note_off channel=0 note=73 velocity=0 time=1920
note_on channel=0 note=74 velocity=96 time=0
note_off channel=0 note=74 velocity=0 time=1920
note_on channel=0 note=81 velocity=96 time=0
note_off channel=0 note=81 velocity=0 time=960
note_on channel=0 note=78 velocity=96 time=0
note_off channel=0 note=78 velocity=0 time=1920
note_on channel=0 note=74 velocity=96 time=0
note_off channel=0 note=74 velocity=0 time=960
note_on channel=0 note=76 velocity=96 time=0
note_off channel=0 note=76 velocity=0 time=1920
note_on channel=0 note=79 velocity=96 time=0
note_off channel=0 note=79 velocity=0 time=960
note_on channel=0 note=78 velocity=96 time=0
note_off channel=0 note=78 velocity=0 time=960
note_on channel=0 note=76 velocity=96 time=0
note_off channel=0 note=76 velocity=0 time=1920
note_on channel=0 note=74 velocity=96 time=0
note_off channel=0 note=74 velocity=0 time=1920
<meta message end_of_track time=1>
Track 2: Instrument 2
ticks_per_beat: 960
program_change channel=1 program=1 time=0
control_change channel=1 control=121 value=0 time=0
control_change channel=1 control=64 value=0 time=0
control_change channel=1 control=91 value=37 time=0
control_change channel=1 control=10 value=51 time=0
control_change channel=1 control=7 value=100 time=0
<meta message track_name name='Instrument 2' time=0>
control_change channel=1 control=64 value=0 time=0
note_on channel=1 note=69 velocity=96 time=1920
note_off channel=1 note=69 velocity=0 time=960
note_on channel=1 note=71 velocity=96 time=0
note_off channel=1 note=71 velocity=0 time=1920
note_on channel=1 note=69 velocity=96 time=0
note_off channel=1 note=69 velocity=0 time=960
note_on channel=1 note=67 velocity=96 time=0
note_off channel=1 note=67 velocity=0 time=1920
note_on channel=1 note=66 velocity=96 time=0
note_off channel=1 note=66 velocity=0 time=960
note_on channel=1 note=66 velocity=96 time=0
note_off channel=1 note=66 velocity=0 time=960
note_on channel=1 note=71 velocity=96 time=0
note_off channel=1 note=71 velocity=0 time=960
note_on channel=1 note=69 velocity=96 time=0
note_off channel=1 note=69 velocity=0 time=960
note_on channel=1 note=69 velocity=96 time=0
note_off channel=1 note=69 velocity=0 time=1920
note_on channel=1 note=73 velocity=96 time=0
note_off channel=1 note=73 velocity=0 time=960
note_on channel=1 note=71 velocity=96 time=0
note_off channel=1 note=71 velocity=0 time=1920
note_on channel=1 note=71 velocity=96 time=0
note_off channel=1 note=71 velocity=0 time=960
note_on channel=1 note=71 velocity=96 time=0
note_off channel=1 note=71 velocity=0 time=960
note_on channel=1 note=69 velocity=96 time=0
note_off channel=1 note=69 velocity=0 time=960
note_on channel=1 note=69 velocity=96 time=0
note_off channel=1 note=69 velocity=0 time=960
note_on channel=1 note=69 velocity=96 time=0
note_off channel=1 note=69 velocity=0 time=960
note_on channel=1 note=74 velocity=96 time=0
note_off channel=1 note=74 velocity=0 time=960
note_on channel=1 note=69 velocity=96 time=0
note_off channel=1 note=69 velocity=0 time=960
note_on channel=1 note=69 velocity=96 time=0
note_off channel=1 note=69 velocity=0 time=1920
note_on channel=1 note=71 velocity=96 time=0
note_off channel=1 note=71 velocity=0 time=960
note_on channel=1 note=69 velocity=96 time=0
note_off channel=1 note=69 velocity=0 time=1920
note_on channel=1 note=69 velocity=96 time=0
note_off channel=1 note=69 velocity=0 time=960
note_on channel=1 note=71 velocity=96 time=0
note_off channel=1 note=71 velocity=0 time=960
note_on channel=1 note=69 velocity=96 time=0
note_off channel=1 note=69 velocity=0 time=480
note_on channel=1 note=67 velocity=96 time=0
note_off channel=1 note=67 velocity=0 time=480
note_on channel=1 note=66 velocity=96 time=0
note_off channel=1 note=66 velocity=0 time=960
note_on channel=1 note=71 velocity=96 time=0
note_off channel=1 note=71 velocity=0 time=960
note_on channel=1 note=71 velocity=96 time=0
note_off channel=1 note=71 velocity=0 time=960
note_on channel=1 note=70 velocity=96 time=0
note_off channel=1 note=70 velocity=0 time=960
note_on channel=1 note=71 velocity=96 time=0
note_off channel=1 note=71 velocity=0 time=1920
note_on channel=1 note=69 velocity=96 time=0
note_off channel=1 note=69 velocity=0 time=960
note_on channel=1 note=69 velocity=96 time=0
note_off channel=1 note=69 velocity=0 time=1920
note_on channel=1 note=71 velocity=96 time=0
note_off channel=1 note=71 velocity=0 time=960
note_on channel=1 note=69 velocity=96 time=0
note_off channel=1 note=69 velocity=0 time=1920
note_on channel=1 note=69 velocity=96 time=0
note_off channel=1 note=69 velocity=0 time=960
note_on channel=1 note=69 velocity=96 time=0
note_off channel=1 note=69 velocity=0 time=960
note_on channel=1 note=67 velocity=96 time=0
note_off channel=1 note=67 velocity=0 time=1920
note_on channel=1 note=66 velocity=96 time=0
note_off channel=1 note=66 velocity=0 time=1920
<meta message end_of_track time=1>
Track 3: Instrument 3
ticks_per_beat: 960
program_change channel=2 program=1 time=0
control_change channel=2 control=121 value=0 time=0
control_change channel=2 control=64 value=0 time=0
control_change channel=2 control=91 value=37 time=0
control_change channel=2 control=10 value=51 time=0
control_change channel=2 control=7 value=100 time=0
<meta message track_name name='Instrument 3' time=0>
control_change channel=2 control=64 value=0 time=0
note_on channel=2 note=66 velocity=96 time=1920
note_off channel=2 note=66 velocity=0 time=960
note_on channel=2 note=66 velocity=96 time=0
note_off channel=2 note=66 velocity=0 time=1920
note_on channel=2 note=66 velocity=96 time=0
note_off channel=2 note=66 velocity=0 time=960
note_on channel=2 note=62 velocity=96 time=0
note_off channel=2 note=62 velocity=0 time=1920
note_on channel=2 note=62 velocity=96 time=0
note_off channel=2 note=62 velocity=0 time=960
note_on channel=2 note=62 velocity=96 time=0
note_off channel=2 note=62 velocity=0 time=1920
note_on channel=2 note=61 velocity=96 time=0
note_off channel=2 note=61 velocity=0 time=960
note_on channel=2 note=62 velocity=96 time=0
note_off channel=2 note=62 velocity=0 time=1920
note_on channel=2 note=61 velocity=96 time=0
note_off channel=2 note=61 velocity=0 time=960
note_on channel=2 note=62 velocity=96 time=0
note_off channel=2 note=62 velocity=0 time=1920
note_on channel=2 note=62 velocity=96 time=0
note_off channel=2 note=62 velocity=0 time=960
note_on channel=2 note=62 velocity=96 time=0
note_off channel=2 note=62 velocity=0 time=960
note_on channel=2 note=61 velocity=96 time=0
note_off channel=2 note=61 velocity=0 time=960
note_on channel=2 note=62 velocity=96 time=0
note_off channel=2 note=62 velocity=0 time=960
note_on channel=2 note=64 velocity=96 time=0
note_off channel=2 note=64 velocity=0 time=960
note_on channel=2 note=57 velocity=96 time=0
note_off channel=2 note=57 velocity=0 time=960
note_on channel=2 note=62 velocity=96 time=0
note_off channel=2 note=62 velocity=0 time=960
note_on channel=2 note=61 velocity=96 time=0
note_off channel=2 note=61 velocity=0 time=1920
note_on channel=2 note=66 velocity=96 time=0
note_off channel=2 note=66 velocity=0 time=960
note_on channel=2 note=64 velocity=96 time=0
note_off channel=2 note=64 velocity=0 time=1920
note_on channel=2 note=62 velocity=96 time=0
note_off channel=2 note=62 velocity=0 time=960
note_on channel=2 note=62 velocity=96 time=0
note_off channel=2 note=62 velocity=0 time=960
note_on channel=2 note=61 velocity=96 time=0
note_off channel=2 note=61 velocity=0 time=960
note_on channel=2 note=62 velocity=96 time=0
note_off channel=2 note=62 velocity=0 time=960
note_on channel=2 note=62 velocity=96 time=0
note_off channel=2 note=62 velocity=0 time=960
note_on channel=2 note=67 velocity=96 time=0
note_off channel=2 note=67 velocity=0 time=960
note_on channel=2 note=66 velocity=96 time=0
note_off channel=2 note=66 velocity=0 time=960
note_on channel=2 note=66 velocity=96 time=0
note_off channel=2 note=66 velocity=0 time=1920
note_on channel=2 note=64 velocity=96 time=0
note_off channel=2 note=64 velocity=0 time=960
note_on channel=2 note=66 velocity=96 time=0
note_off channel=2 note=66 velocity=0 time=1920
note_on channel=2 note=66 velocity=96 time=0
note_off channel=2 note=66 velocity=0 time=960
note_on channel=2 note=64 velocity=96 time=0
note_off channel=2 note=64 velocity=0 time=1920
note_on channel=2 note=61 velocity=96 time=0
note_off channel=2 note=61 velocity=0 time=960
note_on channel=2 note=57 velocity=96 time=0
note_off channel=2 note=57 velocity=0 time=960
note_on channel=2 note=59 velocity=96 time=0
note_off channel=2 note=59 velocity=0 time=960
note_on channel=2 note=61 velocity=96 time=0
note_off channel=2 note=61 velocity=0 time=960
note_on channel=2 note=57 velocity=96 time=0
note_off channel=2 note=57 velocity=0 time=1920
<meta message end_of_track time=1>
Track 4: Instrument 4
ticks_per_beat: 960
program_change channel=3 program=1 time=0
control_change channel=3 control=121 value=0 time=0
control_change channel=3 control=64 value=0 time=0
control_change channel=3 control=91 value=37 time=0
control_change channel=3 control=10 value=51 time=0
control_change channel=3 control=7 value=100 time=0
<meta message track_name name='Instrument 4' time=0>
control_change channel=3 control=64 value=0 time=0
note_on channel=3 note=50 velocity=96 time=1920
note_off channel=3 note=50 velocity=0 time=960
note_on channel=3 note=47 velocity=96 time=0
note_off channel=3 note=47 velocity=0 time=960
note_on channel=3 note=50 velocity=96 time=0
note_off channel=3 note=50 velocity=0 time=960
note_on channel=3 note=54 velocity=96 time=0
note_off channel=3 note=54 velocity=0 time=960
note_on channel=3 note=55 velocity=96 time=0
note_off channel=3 note=55 velocity=0 time=960
note_on channel=3 note=59 velocity=96 time=0
note_off channel=3 note=59 velocity=0 time=960
note_on channel=3 note=62 velocity=96 time=0
note_off channel=3 note=62 velocity=0 time=960
note_on channel=3 note=59 velocity=96 time=0
note_off channel=3 note=59 velocity=0 time=960
note_on channel=3 note=55 velocity=96 time=0
note_off channel=3 note=55 velocity=0 time=960
note_on channel=3 note=57 velocity=96 time=0
note_off channel=3 note=57 velocity=0 time=960
note_on channel=3 note=50 velocity=96 time=0
note_off channel=3 note=50 velocity=0 time=1920
note_on channel=3 note=58 velocity=96 time=0
note_off channel=3 note=58 velocity=0 time=960
note_on channel=3 note=59 velocity=96 time=0
note_off channel=3 note=59 velocity=0 time=1920
note_on channel=3 note=57 velocity=96 time=0
note_off channel=3 note=57 velocity=0 time=960
note_on channel=3 note=56 velocity=96 time=0
note_off channel=3 note=56 velocity=0 time=960
note_on channel=3 note=57 velocity=96 time=0
note_off channel=3 note=57 velocity=0 time=960
note_on channel=3 note=54 velocity=96 time=0
note_off channel=3 note=54 velocity=0 time=960
note_on channel=3 note=49 velocity=96 time=0
note_off channel=3 note=49 velocity=0 time=960
note_on channel=3 note=50 velocity=96 time=0
note_off channel=3 note=50 velocity=0 time=960
note_on channel=3 note=54 velocity=96 time=0
note_off channel=3 note=54 velocity=0 time=960
note_on channel=3 note=57 velocity=96 time=0
note_off channel=3 note=57 velocity=0 time=1920
note_on channel=3 note=59 velocity=96 time=0
note_off channel=3 note=59 velocity=0 time=960
note_on channel=3 note=61 velocity=96 time=0
note_off channel=3 note=61 velocity=0 time=1920
note_on channel=3 note=62 velocity=96 time=0
note_off channel=3 note=62 velocity=0 time=960
note_on channel=3 note=55 velocity=96 time=0
note_off channel=3 note=55 velocity=0 time=960
note_on channel=3 note=57 velocity=96 time=0
note_off channel=3 note=57 velocity=0 time=960
note_on channel=3 note=59 velocity=96 time=0
note_off channel=3 note=59 velocity=0 time=960
note_on channel=3 note=55 velocity=96 time=0
note_off channel=3 note=55 velocity=0 time=960
note_on channel=3 note=52 velocity=96 time=0
note_off channel=3 note=52 velocity=0 time=960
note_on channel=3 note=54 velocity=96 time=0
note_off channel=3 note=54 velocity=0 time=960
note_on channel=3 note=47 velocity=96 time=0
note_off channel=3 note=47 velocity=0 time=1920
note_on channel=3 note=61 velocity=96 time=0
note_off channel=3 note=61 velocity=0 time=960
note_on channel=3 note=62 velocity=96 time=0
note_off channel=3 note=62 velocity=0 time=960
note_on channel=3 note=61 velocity=96 time=0
note_off channel=3 note=61 velocity=0 time=960
note_on channel=3 note=59 velocity=96 time=0
note_off channel=3 note=59 velocity=0 time=960
note_on channel=3 note=61 velocity=96 time=0
note_off channel=3 note=61 velocity=0 time=960
note_on channel=3 note=59 velocity=96 time=0
note_off channel=3 note=59 velocity=0 time=960
note_on channel=3 note=57 velocity=96 time=0
note_off channel=3 note=57 velocity=0 time=960
note_on channel=3 note=62 velocity=96 time=0
note_off channel=3 note=62 velocity=0 time=960
note_on channel=3 note=55 velocity=96 time=0
note_off channel=3 note=55 velocity=0 time=960
note_on channel=3 note=57 velocity=96 time=0
note_off channel=3 note=57 velocity=0 time=960
note_on channel=3 note=50 velocity=96 time=0
note_off channel=3 note=50 velocity=0 time=1920
<meta message end_of_track time=1>
Track 0: 09-Jesus
ticks_per_beat: 960
<meta message time_signature numerator=4 denominator=4 clocks_per_click=24 notated_32nd_notes_per_beat=8 time=0>
<meta message key_signature key='Dm' time=0>
<meta message set_tempo tempo=714289 time=0>
<meta message track_name name='09-Jesus' time=0>
<meta message end_of_track time=1>
Track 1: Instrument 1
ticks_per_beat: 960
program_change channel=0 program=1 time=0
control_change channel=0 control=121 value=0 time=0
control_change channel=0 control=64 value=0 time=0
control_change channel=0 control=91 value=37 time=0
control_change channel=0 control=10 value=51 time=0
control_change channel=0 control=7 value=100 time=0
<meta message track_name name='Instrument 1' time=0>
control_change channel=0 control=64 value=0 time=0
note_on channel=0 note=67 velocity=96 time=0
note_off channel=0 note=67 velocity=0 time=960
note_on channel=0 note=65 velocity=96 time=0
note_off channel=0 note=65 velocity=0 time=960
note_on channel=0 note=65 velocity=96 time=0
note_off channel=0 note=65 velocity=0 time=960
note_on channel=0 note=67 velocity=96 time=0
note_off channel=0 note=67 velocity=0 time=960
note_on channel=0 note=69 velocity=96 time=0
note_off channel=0 note=69 velocity=0 time=960
note_on channel=0 note=67 velocity=96 time=0
note_off channel=0 note=67 velocity=0 time=960
note_on channel=0 note=65 velocity=96 time=0
note_off channel=0 note=65 velocity=0 time=960
note_on channel=0 note=64 velocity=96 time=0
note_off channel=0 note=64 velocity=0 time=960
note_on channel=0 note=62 velocity=96 time=0
note_off channel=0 note=62 velocity=0 time=1920
note_on channel=0 note=65 velocity=96 time=960
note_off channel=0 note=65 velocity=0 time=960
note_on channel=0 note=67 velocity=96 time=0
note_off channel=0 note=67 velocity=0 time=960
note_on channel=0 note=69 velocity=96 time=0
note_off channel=0 note=69 velocity=0 time=960
note_on channel=0 note=67 velocity=96 time=0
note_off channel=0 note=67 velocity=0 time=960
note_on channel=0 note=66 velocity=96 time=0
note_off channel=0 note=66 velocity=0 time=960
note_on channel=0 note=67 velocity=96 time=0
note_off channel=0 note=67 velocity=0 time=1920
note_on channel=0 note=72 velocity=96 time=960
note_off channel=0 note=72 velocity=0 time=960
note_on channel=0 note=67 velocity=96 time=0
note_off channel=0 note=67 velocity=0 time=480
note_on channel=0 note=69 velocity=96 time=0
note_off channel=0 note=69 velocity=0 time=480
note_on channel=0 note=70 velocity=96 time=0
note_off channel=0 note=70 velocity=0 time=960
note_on channel=0 note=69 velocity=96 time=0
note_off channel=0 note=69 velocity=0 time=960
note_on channel=0 note=67 velocity=96 time=0
note_off channel=0 note=67 velocity=0 time=960
note_on channel=0 note=69 velocity=96 time=0
note_off channel=0 note=69 velocity=0 time=1920
note_on channel=0 note=67 velocity=96 time=960
note_off channel=0 note=67 velocity=0 time=960
note_on channel=0 note=65 velocity=96 time=0
note_off channel=0 note=65 velocity=0 time=960
note_on channel=0 note=67 velocity=96 time=0
note_off channel=0 note=67 velocity=0 time=960
note_on channel=0 note=69 velocity=96 time=0
note_off channel=0 note=69 velocity=0 time=960
note_on channel=0 note=67 velocity=96 time=0
note_off channel=0 note=67 velocity=0 time=960
note_on channel=0 note=65 velocity=96 time=0
note_off channel=0 note=65 velocity=0 time=960
note_on channel=0 note=64 velocity=96 time=0
note_off channel=0 note=64 velocity=0 time=960
note_on channel=0 note=62 velocity=96 time=0
note_off channel=0 note=62 velocity=0 time=960
note_on channel=0 note=65 velocity=96 time=0
note_off channel=0 note=65 velocity=0 time=960
note_on channel=0 note=67 velocity=96 time=0
note_off channel=0 note=67 velocity=0 time=960
note_on channel=0 note=69 velocity=96 time=0
note_off channel=0 note=69 velocity=0 time=960
note_on channel=0 note=67 velocity=96 time=0
note_off channel=0 note=67 velocity=0 time=960
note_on channel=0 note=66 velocity=96 time=0
note_off channel=0 note=66 velocity=0 time=960
note_on channel=0 note=67 velocity=96 time=0
note_off channel=0 note=67 velocity=0 time=3840
<meta message end_of_track time=1>
Track 2: Instrument 2
ticks_per_beat: 960
program_change channel=1 program=1 time=0
control_change channel=1 control=121 value=0 time=0
control_change channel=1 control=64 value=0 time=0
control_change channel=1 control=91 value=37 time=0
control_change channel=1 control=10 value=51 time=0
control_change channel=1 control=7 value=100 time=0
<meta message track_name name='Instrument 2' time=0>
control_change channel=1 control=64 value=0 time=0
note_on channel=1 note=62 velocity=96 time=0
note_off channel=1 note=62 velocity=0 time=960
note_on channel=1 note=62 velocity=96 time=0
note_off channel=1 note=62 velocity=0 time=960
note_on channel=1 note=62 velocity=96 time=0
note_off channel=1 note=62 velocity=0 time=960
note_on channel=1 note=62 velocity=96 time=0
note_off channel=1 note=62 velocity=0 time=480
note_on channel=1 note=60 velocity=96 time=0
note_off channel=1 note=60 velocity=0 time=480
note_on channel=1 note=60 velocity=96 time=0
note_off channel=1 note=60 velocity=0 time=480
note_on channel=1 note=65 velocity=96 time=0
note_off channel=1 note=65 velocity=0 time=960
note_on channel=1 note=64 velocity=96 time=0
note_off channel=1 note=64 velocity=0 time=480
note_on channel=1 note=62 velocity=96 time=0
note_off channel=1 note=62 velocity=0 time=1440
note_on channel=1 note=61 velocity=96 time=0
note_off channel=1 note=61 velocity=0 time=480
note_on channel=1 note=57 velocity=96 time=0
note_off channel=1 note=57 velocity=0 time=1920
note_on channel=1 note=62 velocity=96 time=960
note_off channel=1 note=62 velocity=0 time=960
note_on channel=1 note=62 velocity=96 time=0
note_off channel=1 note=62 velocity=0 time=960
note_on channel=1 note=63 velocity=96 time=0
note_off channel=1 note=63 velocity=0 time=480
note_on channel=1 note=62 velocity=96 time=0
note_off channel=1 note=62 velocity=0 time=480
note_on channel=1 note=62 velocity=96 time=0
note_off channel=1 note=62 velocity=0 time=960
note_on channel=1 note=62 velocity=96 time=0
note_off channel=1 note=62 velocity=0 time=960
note_on channel=1 note=62 velocity=96 time=0
note_off channel=1 note=62 velocity=0 time=1920
note_on channel=1 note=67 velocity=96 time=960
note_off channel=1 note=67 velocity=0 time=480
note_on channel=1 note=65 velocity=96 time=0
note_off channel=1 note=65 velocity=0 time=480
note_on channel=1 note=63 velocity=96 time=0
note_off channel=1 note=63 velocity=0 time=960
note_on channel=1 note=62 velocity=96 time=0
note_off channel=1 note=62 velocity=0 time=480
note_on channel=1 note=67 velocity=96 time=0
note_off channel=1 note=67 velocity=0 time=480
note_on channel=1 note=67 velocity=96 time=0
note_off channel=1 note=67 velocity=0 time=480
note_on channel=1 note=66 velocity=96 time=0
note_off channel=1 note=66 velocity=0 time=480
note_on channel=1 note=67 velocity=96 time=0
note_off channel=1 note=67 velocity=0 time=480
note_on channel=1 note=55 velocity=96 time=0
note_off channel=1 note=55 velocity=0 time=480
note_on channel=1 note=62 velocity=96 time=0
note_off channel=1 note=62 velocity=0 time=1920
note_on channel=1 note=62 velocity=96 time=960
note_off channel=1 note=62 velocity=0 time=480
note_on channel=1 note=61 velocity=96 time=0
note_off channel=1 note=61 velocity=0 time=480
note_on channel=1 note=62 velocity=96 time=0
note_off channel=1 note=62 velocity=0 time=480
note_on channel=1 note=65 velocity=96 time=0
note_off channel=1 note=65 velocity=0 time=480
note_on channel=1 note=65 velocity=96 time=0
note_off channel=1 note=65 velocity=0 time=480
note_on channel=1 note=64 velocity=96 time=0
note_off channel=1 note=64 velocity=0 time=480
note_on channel=1 note=65 velocity=96 time=0
note_off channel=1 note=65 velocity=0 time=960
note_on channel=1 note=64 velocity=96 time=0
note_off channel=1 note=64 velocity=0 time=960
note_on channel=1 note=64 velocity=96 time=0
note_off channel=1 note=64 velocity=0 time=480
note_on channel=1 note=62 velocity=96 time=0
note_off channel=1 note=62 velocity=0 time=960
note_on channel=1 note=61 velocity=96 time=0
note_off channel=1 note=61 velocity=0 time=480
note_on channel=1 note=57 velocity=96 time=0
note_off channel=1 note=57 velocity=0 time=960
note_on channel=1 note=62 velocity=96 time=0
note_off channel=1 note=62 velocity=0 time=960
note_on channel=1 note=62 velocity=96 time=0
note_off channel=1 note=62 velocity=0 time=960
note_on channel=1 note=63 velocity=96 time=0
note_off channel=1 note=63 velocity=0 time=960
note_on channel=1 note=62 velocity=96 time=0
note_off channel=1 note=62 velocity=0 time=960
note_on channel=1 note=62 velocity=96 time=0
note_off channel=1 note=62 velocity=0 time=960
note_on channel=1 note=62 velocity=96 time=0
note_off channel=1 note=62 velocity=0 time=3840
<meta message end_of_track time=1>
Track 3: Instrument 3
ticks_per_beat: 960
program_change channel=2 program=1 time=0
control_change channel=2 control=121 value=0 time=0
control_change channel=2 control=64 value=0 time=0
control_change channel=2 control=91 value=37 time=0
control_change channel=2 control=10 value=51 time=0
control_change channel=2 control=7 value=100 time=0
<meta message track_name name='Instrument 3' time=0>
control_change channel=2 control=64 value=0 time=0
note_on channel=2 note=58 velocity=96 time=0
note_off channel=2 note=58 velocity=0 time=960
note_on channel=2 note=58 velocity=96 time=0
note_off channel=2 note=58 velocity=0 time=960
note_on channel=2 note=57 velocity=96 time=0
note_off channel=2 note=57 velocity=0 time=480
note_on channel=2 note=58 velocity=96 time=0
note_off channel=2 note=58 velocity=0 time=480
note_on channel=2 note=55 velocity=96 time=0
note_off channel=2 note=55 velocity=0 time=960
note_on channel=2 note=53 velocity=96 time=0
note_off channel=2 note=53 velocity=0 time=480
note_on channel=2 note=57 velocity=96 time=0
note_off channel=2 note=57 velocity=0 time=480
note_on channel=2 note=58 velocity=96 time=0
note_off channel=2 note=58 velocity=0 time=960
note_on channel=2 note=59 velocity=96 time=0
note_off channel=2 note=59 velocity=0 time=960
note_on channel=2 note=52 velocity=96 time=0
note_off channel=2 note=52 velocity=0 time=480
note_on channel=2 note=57 velocity=96 time=0
note_off channel=2 note=57 velocity=0 time=240
note_on channel=2 note=55 velocity=96 time=0
note_off channel=2 note=55 velocity=0 time=240
note_on channel=2 note=53 velocity=96 time=0
note_off channel=2 note=53 velocity=0 time=1920
note_on channel=2 note=57 velocity=96 time=960
note_off channel=2 note=57 velocity=0 time=960
note_on channel=2 note=58 velocity=96 time=0
note_off channel=2 note=58 velocity=0 time=480
note_on channel=2 note=55 velocity=96 time=0
note_off channel=2 note=55 velocity=0 time=480
note_on channel=2 note=60 velocity=96 time=0
note_off channel=2 note=60 velocity=0 time=960
note_on channel=2 note=60 velocity=96 time=0
note_off channel=2 note=60 velocity=0 time=480
note_on channel=2 note=58 velocity=96 time=0
note_off channel=2 note=58 velocity=0 time=480
note_on channel=2 note=57 velocity=96 time=0
note_off channel=2 note=57 velocity=0 time=960
note_on channel=2 note=58 velocity=96 time=0
note_off channel=2 note=58 velocity=0 time=1920
note_on channel=2 note=60 velocity=96 time=960
note_off channel=2 note=60 velocity=0 time=960
note_on channel=2 note=60 velocity=96 time=0
note_off channel=2 note=60 velocity=0 time=960
note_on channel=2 note=62 velocity=96 time=0
note_off channel=2 note=62 velocity=0 time=960
note_on channel=2 note=62 velocity=96 time=0
note_off channel=2 note=62 velocity=0 time=1440
note_on channel=2 note=60 velocity=96 time=0
note_off channel=2 note=60 velocity=0 time=480
note_on channel=2 note=54 velocity=96 time=0
note_off channel=2 note=54 velocity=0 time=1920
note_on channel=2 note=58 velocity=96 time=960
note_off channel=2 note=58 velocity=0 time=960
note_on channel=2 note=57 velocity=96 time=0
note_off channel=2 note=57 velocity=0 time=960
note_on channel=2 note=60 velocity=96 time=0
note_off channel=2 note=60 velocity=0 time=960
note_on channel=2 note=60 velocity=96 time=0
note_off channel=2 note=60 velocity=0 time=960
note_on channel=2 note=58 velocity=96 time=0
note_off channel=2 note=58 velocity=0 time=960
note_on channel=2 note=57 velocity=96 time=0
note_off channel=2 note=57 velocity=0 time=1680
note_on channel=2 note=55 velocity=96 time=0
note_off channel=2 note=55 velocity=0 time=240
note_on channel=2 note=53 velocity=96 time=0
note_off channel=2 note=53 velocity=0 time=960
note_on channel=2 note=57 velocity=96 time=0
note_off channel=2 note=57 velocity=0 time=960
note_on channel=2 note=58 velocity=96 time=0
note_off channel=2 note=58 velocity=0 time=960
note_on channel=2 note=60 velocity=96 time=0
note_off channel=2 note=60 velocity=0 time=960
note_on channel=2 note=60 velocity=96 time=0
note_off channel=2 note=60 velocity=0 time=480
note_on channel=2 note=58 velocity=96 time=0
note_off channel=2 note=58 velocity=0 time=480
note_on channel=2 note=57 velocity=96 time=0
note_off channel=2 note=57 velocity=0 time=480
note_on channel=2 note=60 velocity=96 time=0
note_off channel=2 note=60 velocity=0 time=480
note_on channel=2 note=59 velocity=96 time=0
note_off channel=2 note=59 velocity=0 time=3840
<meta message end_of_track time=1>
Track 4: Instrument 4
ticks_per_beat: 960
program_change channel=3 program=1 time=0
control_change channel=3 control=121 value=0 time=0
control_change channel=3 control=64 value=0 time=0
control_change channel=3 control=91 value=37 time=0
control_change channel=3 control=10 value=51 time=0
control_change channel=3 control=7 value=100 time=0
<meta message track_name name='Instrument 4' time=0>
control_change channel=3 control=64 value=0 time=0
note_on channel=3 note=43 velocity=96 time=0
note_off channel=3 note=43 velocity=0 time=480
note_on channel=3 note=45 velocity=96 time=0
note_off channel=3 note=45 velocity=0 time=480
note_on channel=3 note=46 velocity=96 time=0
note_off channel=3 note=46 velocity=0 time=480
note_on channel=3 note=48 velocity=96 time=0
note_off channel=3 note=48 velocity=0 time=480
note_on channel=3 note=50 velocity=96 time=0
note_off channel=3 note=50 velocity=0 time=960
note_on channel=3 note=52 velocity=96 time=0
note_off channel=3 note=52 velocity=0 time=960
note_on channel=3 note=53 velocity=96 time=0
note_off channel=3 note=53 velocity=0 time=960
note_on channel=3 note=55 velocity=96 time=0
note_off channel=3 note=55 velocity=0 time=960
note_on channel=3 note=56 velocity=96 time=0
note_off channel=3 note=56 velocity=0 time=960
note_on channel=3 note=57 velocity=96 time=0
note_off channel=3 note=57 velocity=0 time=480
note_on channel=3 note=45 velocity=96 time=0
note_off channel=3 note=45 velocity=0 time=480
note_on channel=3 note=50 velocity=96 time=0
note_off channel=3 note=50 velocity=0 time=1920
note_on channel=3 note=50 velocity=96 time=960
note_off channel=3 note=50 velocity=0 time=480
note_on channel=3 note=48 velocity=96 time=0
note_off channel=3 note=48 velocity=0 time=480
note_on channel=3 note=46 velocity=96 time=0
note_off channel=3 note=46 velocity=0 time=960
note_on channel=3 note=42 velocity=96 time=0
note_off channel=3 note=42 velocity=0 time=960
note_on channel=3 note=43 velocity=96 time=0
note_off channel=3 note=43 velocity=0 time=960
note_on channel=3 note=50 velocity=96 time=0
note_off channel=3 note=50 velocity=0 time=960
note_on channel=3 note=43 velocity=96 time=0
note_off channel=3 note=43 velocity=0 time=1920
note_on channel=3 note=51 velocity=96 time=960
note_off channel=3 note=51 velocity=0 time=480
note_on channel=3 note=50 velocity=96 time=0
note_off channel=3 note=50 velocity=0 time=480
note_on channel=3 note=48 velocity=96 time=0
note_off channel=3 note=48 velocity=0 time=960
note_on channel=3 note=43 velocity=96 time=0
note_off channel=3 note=43 velocity=0 time=960
note_on channel=3 note=50 velocity=96 time=0
note_off channel=3 note=50 velocity=0 time=960
note_on channel=3 note=51 velocity=96 time=0
note_off channel=3 note=51 velocity=0 time=960
note_on channel=3 note=50 velocity=96 time=0
note_off channel=3 note=50 velocity=0 time=1920
note_on channel=3 note=43 velocity=96 time=960
note_off channel=3 note=43 velocity=0 time=960
note_on channel=3 note=50 velocity=96 time=0
note_off channel=3 note=50 velocity=0 time=960
note_on channel=3 note=48 velocity=96 time=0
note_off channel=3 note=48 velocity=0 time=960
note_on channel=3 note=53 velocity=96 time=0
note_off channel=3 note=53 velocity=0 time=480
note_on channel=3 note=52 velocity=96 time=0
note_off channel=3 note=52 velocity=0 time=480
note_on channel=3 note=50 velocity=96 time=0
note_off channel=3 note=50 velocity=0 time=480
note_on channel=3 note=49 velocity=96 time=0
note_off channel=3 note=49 velocity=0 time=480
note_on channel=3 note=50 velocity=96 time=0
note_off channel=3 note=50 velocity=0 time=960
note_on channel=3 note=45 velocity=96 time=0
note_off channel=3 note=45 velocity=0 time=960
note_on channel=3 note=38 velocity=96 time=0
note_off channel=3 note=38 velocity=0 time=960
note_on channel=3 note=50 velocity=96 time=0
note_off channel=3 note=50 velocity=0 time=480
note_on channel=3 note=48 velocity=96 time=0
note_off channel=3 note=48 velocity=0 time=480
note_on channel=3 note=46 velocity=96 time=0
note_off channel=3 note=46 velocity=0 time=480
note_on channel=3 note=45 velocity=96 time=0
note_off channel=3 note=45 velocity=0 time=480
note_on channel=3 note=43 velocity=96 time=0
note_off channel=3 note=43 velocity=0 time=480
note_on channel=3 note=42 velocity=96 time=0
note_off channel=3 note=42 velocity=0 time=480
note_on channel=3 note=43 velocity=96 time=0
note_off channel=3 note=43 velocity=0 time=960
note_on channel=3 note=38 velocity=96 time=0
note_off channel=3 note=38 velocity=0 time=960
note_on channel=3 note=43 velocity=96 time=0
note_off channel=3 note=43 velocity=0 time=3840
<meta message end_of_track time=1>
Track 0: 10-NunBitten
ticks_per_beat: 960
<meta message time_signature numerator=4 denominator=4 clocks_per_click=24 notated_32nd_notes_per_beat=8 time=0>
<meta message key_signature key='A' time=0>
<meta message set_tempo tempo=681818 time=0>
<meta message track_name name='10-NunBitten' time=0>
<meta message end_of_track time=1>
Track 1: Instrument 1
ticks_per_beat: 960
program_change channel=0 program=1 time=0
control_change channel=0 control=121 value=0 time=0
control_change channel=0 control=64 value=0 time=0
control_change channel=0 control=91 value=37 time=0
control_change channel=0 control=10 value=51 time=0
control_change channel=0 control=7 value=100 time=0
<meta message track_name name='Instrument 1' time=0>
control_change channel=0 control=64 value=0 time=0
note_on channel=0 note=69 velocity=96 time=2880
note_off channel=0 note=69 velocity=0 time=960
note_on channel=0 note=71 velocity=96 time=0
note_off channel=0 note=71 velocity=0 time=960
note_on channel=0 note=71 velocity=96 time=0
note_off channel=0 note=71 velocity=0 time=960
note_on channel=0 note=69 velocity=96 time=0
note_off channel=0 note=69 velocity=0 time=960
note_on channel=0 note=66 velocity=96 time=0
note_off channel=0 note=66 velocity=0 time=960
note_on channel=0 note=64 velocity=96 time=0
note_off channel=0 note=64 velocity=0 time=960
note_on channel=0 note=66 velocity=96 time=0
note_off channel=0 note=66 velocity=0 time=480
note_on channel=0 note=68 velocity=96 time=0
note_off channel=0 note=68 velocity=0 time=480
note_on channel=0 note=69 velocity=96 time=0
note_off channel=0 note=69 velocity=0 time=960
note_on channel=0 note=71 velocity=96 time=0
note_off channel=0 note=71 velocity=0 time=960
note_on channel=0 note=69 velocity=96 time=0
note_off channel=0 note=69 velocity=0 time=2880
note_on channel=0 note=73 velocity=96 time=0
note_off channel=0 note=73 velocity=0 time=480
note_on channel=0 note=74 velocity=96 time=0
note_off channel=0 note=74 velocity=0 time=480
note_on channel=0 note=76 velocity=96 time=0
note_off channel=0 note=76 velocity=0 time=960
note_on channel=0 note=78 velocity=96 time=0
note_off channel=0 note=78 velocity=0 time=960
note_on channel=0 note=76 velocity=96 time=0
note_off channel=0 note=76 velocity=0 time=960
note_on channel=0 note=73 velocity=96 time=0
note_off channel=0 note=73 velocity=0 time=960
note_on channel=0 note=69 velocity=96 time=0
note_off channel=0 note=69 velocity=0 time=960
note_on channel=0 note=66 velocity=96 time=0
note_off channel=0 note=66 velocity=0 time=480
note_on channel=0 note=68 velocity=96 time=0
note_off channel=0 note=68 velocity=0 time=480
note_on channel=0 note=69 velocity=96 time=0
note_off channel=0 note=69 velocity=0 time=960
note_on channel=0 note=71 velocity=96 time=0
note_off channel=0 note=71 velocity=0 time=960
note_on channel=0 note=69 velocity=96 time=0
note_off channel=0 note=69 velocity=0 time=1920
note_on channel=0 note=73 velocity=96 time=0
note_off channel=0 note=73 velocity=0 time=960
note_on channel=0 note=73 velocity=96 time=0
note_off channel=0 note=73 velocity=0 time=960
note_on channel=0 note=73 velocity=96 time=0
note_off channel=0 note=73 velocity=0 time=960
note_on channel=0 note=71 velocity=96 time=0
note_off channel=0 note=71 velocity=0 time=960
note_on channel=0 note=73 velocity=96 time=0
note_off channel=0 note=73 velocity=0 time=1920
note_on channel=0 note=69 velocity=96 time=0
note_off channel=0 note=69 velocity=0 time=1920
note_on channel=0 note=69 velocity=96 time=960
note_off channel=0 note=69 velocity=0 time=960
note_on channel=0 note=71 velocity=96 time=0
note_off channel=0 note=71 velocity=0 time=960
note_on channel=0 note=71 velocity=96 time=0
note_off channel=0 note=71 velocity=0 time=960
note_on channel=0 note=73 velocity=96 time=0
note_off channel=0 note=73 velocity=0 time=1920
note_on channel=0 note=69 velocity=96 time=0
note_off channel=0 note=69 velocity=0 time=1920
note_on channel=0 note=71 velocity=96 time=0
note_off channel=0 note=71 velocity=0 time=960
note_on channel=0 note=71 velocity=96 time=0
note_off channel=0 note=71 velocity=0 time=960
note_on channel=0 note=73 velocity=96 time=0
note_off channel=0 note=73 velocity=0 time=480
note_on channel=0 note=71 velocity=96 time=0
note_off channel=0 note=71 velocity=0 time=480
note_on channel=0 note=69 velocity=96 time=0
note_off channel=0 note=69 velocity=0 time=480
note_on channel=0 note=68 velocity=96 time=0
note_off channel=0 note=68 velocity=0 time=480
note_on channel=0 note=66 velocity=96 time=0
note_off channel=0 note=66 velocity=0 time=960
note_on channel=0 note=71 velocity=96 time=0
note_off channel=0 note=71 velocity=0 time=960
note_on channel=0 note=71 velocity=96 time=0
note_off channel=0 note=71 velocity=0 time=960
note_on channel=0 note=69 velocity=96 time=0
note_off channel=0 note=69 velocity=0 time=480
note_on channel=0 note=68 velocity=96 time=0
note_off channel=0 note=68 velocity=0 time=480
note_on channel=0 note=66 velocity=96 time=0
note_off channel=0 note=66 velocity=0 time=1920
note_on channel=0 note=64 velocity=96 time=0
note_off channel=0 note=64 velocity=0 time=1920
note_on channel=0 note=66 velocity=96 time=0
note_off channel=0 note=66 velocity=0 time=960
note_on channel=0 note=68 velocity=96 time=0
note_off channel=0 note=68 velocity=0 time=960
note_on channel=0 note=69 velocity=96 time=0
note_off channel=0 note=69 velocity=0 time=960
note_on channel=0 note=71 velocity=96 time=0
note_off channel=0 note=71 velocity=0 time=960
note_on channel=0 note=69 velocity=96 time=0
note_off channel=0 note=69 velocity=0 time=960
<meta message end_of_track time=1>
Track 2: Instrument 2
ticks_per_beat: 960
program_change channel=1 program=1 time=0
control_change channel=1 control=121 value=0 time=0
control_change channel=1 control=64 value=0 time=0
control_change channel=1 control=91 value=37 time=0
control_change channel=1 control=10 value=51 time=0
control_change channel=1 control=7 value=100 time=0
<meta message track_name name='Instrument 2' time=0>
control_change channel=1 control=64 value=0 time=0
note_on channel=1 note=64 velocity=96 time=2880
note_off channel=1 note=64 velocity=0 time=960
note_on channel=1 note=64 velocity=96 time=0
note_off channel=1 note=64 velocity=0 time=960
note_on channel=1 note=64 velocity=96 time=0
note_off channel=1 note=64 velocity=0 time=960
note_on channel=1 note=64 velocity=96 time=0
note_off channel=1 note=64 velocity=0 time=960
note_on channel=1 note=62 velocity=96 time=0
note_off channel=1 note=62 velocity=0 time=480
note_on channel=1 note=61 velocity=96 time=0
note_off channel=1 note=61 velocity=0 time=480
note_on channel=1 note=59 velocity=96 time=0
note_off channel=1 note=59 velocity=0 time=960
note_on channel=1 note=61 velocity=96 time=0
note_off channel=1 note=61 velocity=0 time=480
note_on channel=1 note=62 velocity=96 time=0
note_off channel=1 note=62 velocity=0 time=480
note_on channel=1 note=64 velocity=96 time=0
note_off channel=1 note=64 velocity=0 time=960
note_on channel=1 note=64 velocity=96 time=0
note_off channel=1 note=64 velocity=0 time=960
note_on channel=1 note=64 velocity=96 time=0
note_off channel=1 note=64 velocity=0 time=2880
note_on channel=1 note=69 velocity=96 time=0
note_off channel=1 note=69 velocity=0 time=960
note_on channel=1 note=71 velocity=96 time=0
note_off channel=1 note=71 velocity=0 time=480
note_on channel=1 note=73 velocity=96 time=0
note_off channel=1 note=73 velocity=0 time=480
note_on channel=1 note=74 velocity=96 time=0
note_off channel=1 note=74 velocity=0 time=480
note_on channel=1 note=73 velocity=96 time=0
note_off channel=1 note=73 velocity=0 time=480
note_on channel=1 note=71 velocity=96 time=0
note_off channel=1 note=71 velocity=0 time=960
note_on channel=1 note=69 velocity=96 time=0
note_off channel=1 note=69 velocity=0 time=960
note_on channel=1 note=69 velocity=96 time=0
note_off channel=1 note=69 velocity=0 time=960
note_on channel=1 note=62 velocity=96 time=0
note_off channel=1 note=62 velocity=0 time=960
note_on channel=1 note=61 velocity=96 time=0
note_off channel=1 note=61 velocity=0 time=960
note_on channel=1 note=66 velocity=96 time=0
note_off channel=1 note=66 velocity=0 time=480
note_on channel=1 note=64 velocity=96 time=0
note_off channel=1 note=64 velocity=0 time=480
note_on channel=1 note=61 velocity=96 time=0
note_off channel=1 note=61 velocity=0 time=1920
note_on channel=1 note=69 velocity=96 time=0
note_off channel=1 note=69 velocity=0 time=960
note_on channel=1 note=71 velocity=96 time=0
note_off channel=1 note=71 velocity=0 time=960
note_on channel=1 note=69 velocity=96 time=0
note_off channel=1 note=69 velocity=0 time=480
note_on channel=1 note=68 velocity=96 time=0
note_off channel=1 note=68 velocity=0 time=480
note_on channel=1 note=66 velocity=96 time=0
note_off channel=1 note=66 velocity=0 time=960
note_on channel=1 note=66 velocity=96 time=0
note_off channel=1 note=66 velocity=0 time=960
note_on channel=1 note=65 velocity=96 time=0
note_off channel=1 note=65 velocity=0 time=960
note_on channel=1 note=61 velocity=96 time=0
note_off channel=1 note=61 velocity=0 time=1920
note_on channel=1 note=66 velocity=96 time=960
note_off channel=1 note=66 velocity=0 time=960
note_on channel=1 note=68 velocity=96 time=0
note_off channel=1 note=68 velocity=0 time=960
note_on channel=1 note=68 velocity=96 time=0
note_off channel=1 note=68 velocity=0 time=960
note_on channel=1 note=69 velocity=96 time=0
note_off channel=1 note=69 velocity=0 time=480
note_on channel=1 note=66 velocity=96 time=0
note_off channel=1 note=66 velocity=0 time=480
note_on channel=1 note=67 velocity=96 time=0
note_off channel=1 note=67 velocity=0 time=960
note_on channel=1 note=66 velocity=96 time=0
note_off channel=1 note=66 velocity=0 time=1920
note_on channel=1 note=66 velocity=96 time=0
note_off channel=1 note=66 velocity=0 time=960
note_on channel=1 note=68 velocity=96 time=0
note_off channel=1 note=68 velocity=0 time=960
note_on channel=1 note=69 velocity=96 time=0
note_off channel=1 note=69 velocity=0 time=480
note_on channel=1 note=68 velocity=96 time=0
note_off channel=1 note=68 velocity=0 time=480
note_on channel=1 note=66 velocity=96 time=0
note_off channel=1 note=66 velocity=0 time=480
note_on channel=1 note=64 velocity=96 time=0
note_off channel=1 note=64 velocity=0 time=480
note_on channel=1 note=62 velocity=96 time=0
note_off channel=1 note=62 velocity=0 time=960
note_on channel=1 note=62 velocity=96 time=0
note_off channel=1 note=62 velocity=0 time=960
note_on channel=1 note=61 velocity=96 time=0
note_off channel=1 note=61 velocity=0 time=480
note_on channel=1 note=68 velocity=96 time=0
note_off channel=1 note=68 velocity=0 time=480
note_on channel=1 note=66 velocity=96 time=0
note_off channel=1 note=66 velocity=0 time=480
note_on channel=1 note=64 velocity=96 time=0
note_off channel=1 note=64 velocity=0 time=480
note_on channel=1 note=64 velocity=96 time=0
note_off channel=1 note=64 velocity=0 time=960
note_on channel=1 note=63 velocity=96 time=0
note_off channel=1 note=63 velocity=0 time=960
note_on channel=1 note=59 velocity=96 time=0
note_off channel=1 note=59 velocity=0 time=1920
note_on channel=1 note=62 velocity=96 time=0
note_off channel=1 note=62 velocity=0 time=960
note_on channel=1 note=62 velocity=96 time=0
note_off channel=1 note=62 velocity=0 time=960
note_on channel=1 note=64 velocity=96 time=0
note_off channel=1 note=64 velocity=0 time=960
note_on channel=1 note=64 velocity=96 time=0
note_off channel=1 note=64 velocity=0 time=480
note_on channel=1 note=62 velocity=96 time=0
note_off channel=1 note=62 velocity=0 time=480
note_on channel=1 note=61 velocity=96 time=0
note_off channel=1 note=61 velocity=0 time=960
<meta message end_of_track time=1>
Track 3: Instrument 3
ticks_per_beat: 960
program_change channel=2 program=1 time=0
control_change channel=2 control=121 value=0 time=0
control_change channel=2 control=64 value=0 time=0
control_change channel=2 control=91 value=37 time=0
control_change channel=2 control=10 value=51 time=0
control_change channel=2 control=7 value=100 time=0
<meta message track_name name='Instrument 3' time=0>
control_change channel=2 control=64 value=0 time=0
note_on channel=2 note=61 velocity=96 time=2880
note_off channel=2 note=61 velocity=0 time=960
note_on channel=2 note=59 velocity=96 time=0
note_off channel=2 note=59 velocity=0 time=480
note_on channel=2 note=57 velocity=96 time=0
note_off channel=2 note=57 velocity=0 time=480
note_on channel=2 note=56 velocity=96 time=0
note_off channel=2 note=56 velocity=0 time=960
note_on channel=2 note=57 velocity=96 time=0
note_off channel=2 note=57 velocity=0 time=960
note_on channel=2 note=57 velocity=96 time=0
note_off channel=2 note=57 velocity=0 time=960
note_on channel=2 note=56 velocity=96 time=0
note_off channel=2 note=56 velocity=0 time=960
note_on channel=2 note=57 velocity=96 time=0
note_off channel=2 note=57 velocity=0 time=480
note_on channel=2 note=59 velocity=96 time=0
note_off channel=2 note=59 velocity=0 time=480
note_on channel=2 note=52 velocity=96 time=0
note_off channel=2 note=52 velocity=0 time=480
note_on channel=2 note=57 velocity=96 time=0
note_off channel=2 note=57 velocity=0 time=960
note_on channel=2 note=56 velocity=96 time=0
note_off channel=2 note=56 velocity=0 time=480
note_on channel=2 note=61 velocity=96 time=0
note_off channel=2 note=61 velocity=0 time=2880
note_on channel=2 note=64 velocity=96 time=0
note_off channel=2 note=64 velocity=0 time=1920
note_on channel=2 note=57 velocity=96 time=0
note_off channel=2 note=57 velocity=0 time=960
note_on channel=2 note=59 velocity=96 time=0
note_off channel=2 note=59 velocity=0 time=960
note_on channel=2 note=61 velocity=96 time=0
note_off channel=2 note=61 velocity=0 time=480
note_on channel=2 note=62 velocity=96 time=0
note_off channel=2 note=62 velocity=0 time=480
note_on channel=2 note=64 velocity=96 time=0
note_off channel=2 note=64 velocity=0 time=960
note_on channel=2 note=57 velocity=96 time=0
note_off channel=2 note=57 velocity=0 time=960
note_on channel=2 note=57 velocity=96 time=0
note_off channel=2 note=57 velocity=0 time=1440
note_on channel=2 note=56 velocity=96 time=0
note_off channel=2 note=56 velocity=0 time=480
note_on channel=2 note=52 velocity=96 time=0
note_off channel=2 note=52 velocity=0 time=1920
note_on channel=2 note=64 velocity=96 time=0
note_off channel=2 note=64 velocity=0 time=960
note_on channel=2 note=68 velocity=96 time=0
note_off channel=2 note=68 velocity=0 time=960
note_on channel=2 note=66 velocity=96 time=0
note_off channel=2 note=66 velocity=0 time=960
note_on channel=2 note=54 velocity=96 time=0
note_off channel=2 note=54 velocity=0 time=480
note_on channel=2 note=56 velocity=96 time=0
note_off channel=2 note=56 velocity=0 time=480
note_on channel=2 note=57 velocity=96 time=0
note_off channel=2 note=57 velocity=0 time=960
note_on channel=2 note=56 velocity=96 time=0
note_off channel=2 note=56 velocity=0 time=960
note_on channel=2 note=54 velocity=96 time=0
note_off channel=2 note=54 velocity=0 time=1920
note_on channel=2 note=61 velocity=96 time=960
note_off channel=2 note=61 velocity=0 time=960
note_on channel=2 note=64 velocity=96 time=0
note_off channel=2 note=64 velocity=0 time=960
note_on channel=2 note=64 velocity=96 time=0
note_off channel=2 note=64 velocity=0 time=960
note_on channel=2 note=64 velocity=96 time=0
note_off channel=2 note=64 velocity=0 time=1920
note_on channel=2 note=62 velocity=96 time=0
note_off channel=2 note=62 velocity=0 time=1920
note_on channel=2 note=62 velocity=96 time=0
note_off channel=2 note=62 velocity=0 time=480
note_on channel=2 note=61 velocity=96 time=0
note_off channel=2 note=61 velocity=0 time=480
note_on channel=2 note=59 velocity=96 time=0
note_off channel=2 note=59 velocity=0 time=960
note_on channel=2 note=57 velocity=96 time=0
note_off channel=2 note=57 velocity=0 time=480
note_on channel=2 note=61 velocity=96 time=0
note_off channel=2 note=61 velocity=0 time=480
note_on channel=2 note=62 velocity=96 time=0
note_off channel=2 note=62 velocity=0 time=480
note_on channel=2 note=64 velocity=96 time=0
note_off channel=2 note=64 velocity=0 time=480
note_on channel=2 note=57 velocity=96 time=0
note_off channel=2 note=57 velocity=0 time=960
note_on channel=2 note=56 velocity=96 time=0
note_off channel=2 note=56 velocity=0 time=480
note_on channel=2 note=54 velocity=96 time=0
note_off channel=2 note=54 velocity=0 time=480
note_on channel=2 note=52 velocity=96 time=0
note_off channel=2 note=52 velocity=0 time=960
note_on channel=2 note=54 velocity=96 time=0
note_off channel=2 note=54 velocity=0 time=480
note_on channel=2 note=56 velocity=96 time=0
note_off channel=2 note=56 velocity=0 time=480
note_on channel=2 note=61 velocity=96 time=0
note_off channel=2 note=61 velocity=0 time=960
note_on channel=2 note=59 velocity=96 time=0
note_off channel=2 note=59 velocity=0 time=480
note_on channel=2 note=57 velocity=96 time=0
note_off channel=2 note=57 velocity=0 time=480
note_on channel=2 note=56 velocity=96 time=0
note_off channel=2 note=56 velocity=0 time=1920
note_on channel=2 note=57 velocity=96 time=0
note_off channel=2 note=57 velocity=0 time=960
note_on channel=2 note=59 velocity=96 time=0
note_off channel=2 note=59 velocity=0 time=960
note_on channel=2 note=52 velocity=96 time=0
note_off channel=2 note=52 velocity=0 time=480
note_on channel=2 note=57 velocity=96 time=0
note_off channel=2 note=57 velocity=0 time=960
note_on channel=2 note=56 velocity=96 time=0
note_off channel=2 note=56 velocity=0 time=480
note_on channel=2 note=52 velocity=96 time=0
note_off channel=2 note=52 velocity=0 time=960
<meta message end_of_track time=1>
Track 4: Instrument 4
ticks_per_beat: 960
program_change channel=3 program=1 time=0
control_change channel=3 control=121 value=0 time=0
control_change channel=3 control=64 value=0 time=0
control_change channel=3 control=91 value=37 time=0
control_change channel=3 control=10 value=51 time=0
control_change channel=3 control=7 value=100 time=0
<meta message track_name name='Instrument 4' time=0>
control_change channel=3 control=64 value=0 time=0
note_on channel=3 note=57 velocity=96 time=2880
note_off channel=3 note=57 velocity=0 time=960
note_on channel=3 note=56 velocity=96 time=0
note_off channel=3 note=56 velocity=0 time=480
note_on channel=3 note=54 velocity=96 time=0
note_off channel=3 note=54 velocity=0 time=480
note_on channel=3 note=52 velocity=96 time=0
note_off channel=3 note=52 velocity=0 time=480
note_on channel=3 note=50 velocity=96 time=0
note_off channel=3 note=50 velocity=0 time=480
note_on channel=3 note=49 velocity=96 time=0
note_off channel=3 note=49 velocity=0 time=960
note_on channel=3 note=50 velocity=96 time=0
note_off channel=3 note=50 velocity=0 time=1920
note_on channel=3 note=49 velocity=96 time=0
note_off channel=3 note=49 velocity=0 time=480
note_on channel=3 note=47 velocity=96 time=0
note_off channel=3 note=47 velocity=0 time=480
note_on channel=3 note=49 velocity=96 time=0
note_off channel=3 note=49 velocity=0 time=480
note_on channel=3 note=45 velocity=96 time=0
note_off channel=3 note=45 velocity=0 time=480
note_on channel=3 note=52 velocity=96 time=0
note_off channel=3 note=52 velocity=0 time=960
note_on channel=3 note=45 velocity=96 time=0
note_off channel=3 note=45 velocity=0 time=2880
note_on channel=3 note=57 velocity=96 time=0
note_off channel=3 note=57 velocity=0 time=960
note_on channel=3 note=56 velocity=96 time=0
note_off channel=3 note=56 velocity=0 time=960
note_on channel=3 note=54 velocity=96 time=0
note_off channel=3 note=54 velocity=0 time=960
note_on channel=3 note=56 velocity=96 time=0
note_off channel=3 note=56 velocity=0 time=960
note_on channel=3 note=57 velocity=96 time=0
note_off channel=3 note=57 velocity=0 time=960
note_on channel=3 note=49 velocity=96 time=0
note_off channel=3 note=49 velocity=0 time=960
note_on channel=3 note=50 velocity=96 time=0
note_off channel=3 note=50 velocity=0 time=480
note_on channel=3 note=52 velocity=96 time=0
note_off channel=3 note=52 velocity=0 time=480
note_on channel=3 note=54 velocity=96 time=0
note_off channel=3 note=54 velocity=0 time=480
note_on channel=3 note=57 velocity=96 time=0
note_off channel=3 note=57 velocity=0 time=480
note_on channel=3 note=50 velocity=96 time=0
note_off channel=3 note=50 velocity=0 time=480
note_on channel=3 note=52 velocity=96 time=0
note_off channel=3 note=52 velocity=0 time=480
note_on channel=3 note=45 velocity=96 time=0
note_off channel=3 note=45 velocity=0 time=1920
note_on channel=3 note=57 velocity=96 time=0
note_off channel=3 note=57 velocity=0 time=480
note_on channel=3 note=56 velocity=96 time=0
note_off channel=3 note=56 velocity=0 time=480
note_on channel=3 note=54 velocity=96 time=0
note_off channel=3 note=54 velocity=0 time=480
note_on channel=3 note=53 velocity=96 time=0
note_off channel=3 note=53 velocity=0 time=480
note_on channel=3 note=54 velocity=96 time=0
note_off channel=3 note=54 velocity=0 time=480
note_on channel=3 note=52 velocity=96 time=0
note_off channel=3 note=52 velocity=0 time=480
note_on channel=3 note=50 velocity=96 time=0
note_off channel=3 note=50 velocity=0 time=960
note_on channel=3 note=49 velocity=96 time=0
note_off channel=3 note=49 velocity=0 time=1920
note_on channel=3 note=54 velocity=96 time=0
note_off channel=3 note=54 velocity=0 time=1920
note_on channel=3 note=54 velocity=96 time=960
note_off channel=3 note=54 velocity=0 time=960
note_on channel=3 note=52 velocity=96 time=0
note_off channel=3 note=52 velocity=0 time=480
note_on channel=3 note=50 velocity=96 time=0
note_off channel=3 note=50 velocity=0 time=480
note_on channel=3 note=49 velocity=96 time=0
note_off channel=3 note=49 velocity=0 time=480
note_on channel=3 note=47 velocity=96 time=0
note_off channel=3 note=47 velocity=0 time=480
note_on channel=3 note=45 velocity=96 time=0
note_off channel=3 note=45 velocity=0 time=1920
note_on channel=3 note=50 velocity=96 time=0
note_off channel=3 note=50 velocity=0 time=1920
note_on channel=3 note=47 velocity=96 time=0
note_off channel=3 note=47 velocity=0 time=960
note_on channel=3 note=52 velocity=96 time=0
note_off channel=3 note=52 velocity=0 time=960
note_on channel=3 note=45 velocity=96 time=0
note_off channel=3 note=45 velocity=0 time=960
note_on channel=3 note=47 velocity=96 time=0
note_off channel=3 note=47 velocity=0 time=480
note_on channel=3 note=49 velocity=96 time=0
note_off channel=3 note=49 velocity=0 time=480
note_on channel=3 note=50 velocity=96 time=0
note_off channel=3 note=50 velocity=0 time=960
note_on channel=3 note=47 velocity=96 time=0
note_off channel=3 note=47 velocity=0 time=960
note_on channel=3 note=49 velocity=96 time=0
note_off channel=3 note=49 velocity=0 time=960
note_on channel=3 note=51 velocity=96 time=0
note_off channel=3 note=51 velocity=0 time=480
note_on channel=3 note=52 velocity=96 time=0
note_off channel=3 note=52 velocity=0 time=480
note_on channel=3 note=45 velocity=96 time=0
note_off channel=3 note=45 velocity=0 time=960
note_on channel=3 note=47 velocity=96 time=0
note_off channel=3 note=47 velocity=0 time=960
note_on channel=3 note=52 velocity=96 time=0
note_off channel=3 note=52 velocity=0 time=1920
note_on channel=3 note=50 velocity=96 time=0
note_off channel=3 note=50 velocity=0 time=960
note_on channel=3 note=49 velocity=96 time=0
note_off channel=3 note=49 velocity=0 time=480
note_on channel=3 note=47 velocity=96 time=0
note_off channel=3 note=47 velocity=0 time=480
note_on channel=3 note=49 velocity=96 time=0
note_off channel=3 note=49 velocity=0 time=480
note_on channel=3 note=45 velocity=96 time=0
note_off channel=3 note=45 velocity=0 time=480
note_on channel=3 note=40 velocity=96 time=0
note_off channel=3 note=40 velocity=0 time=960
note_on channel=3 note=45 velocity=96 time=0
note_off channel=3 note=45 velocity=0 time=960
<meta message end_of_track time=1>
