/home/ghales/git/tg-server/tests/data/dataset/MIDI-Unprocessed_15_R1_2009_01-02_ORIG_MID--AUDIO_15_R1_2009_15_R1_2009_02_WAV.midi
Length: 1110552 ticks = 2892.0625 beats = 723.015625 bars
Tracks: 2
Time Signature: <meta message time_signature numerator=4 denominator=4 clocks_per_click=24 notated_32nd_notes_per_beat=8 time=0>
Track 0: 
ticks_per_beat: 384
<meta message set_tempo tempo=500000 time=0>
<meta message time_signature numerator=4 denominator=4 clocks_per_click=24 notated_32nd_notes_per_beat=8 time=0>
<meta message end_of_track time=1>
Track 1: 
ticks_per_beat: 384
program_change channel=0 program=0 time=0
control_change channel=0 control=64 value=0 time=0
control_change channel=0 control=67 value=0 time=0
note_on channel=0 note=54 velocity=68 time=795
note_on channel=0 note=57 velocity=71 time=20
note_on channel=0 note=90 velocity=90 time=17
note_on channel=0 note=61 velocity=87 time=1
control_change channel=0 control=64 value=64 time=2
note_on channel=0 note=93 velocity=89 time=1
note_on channel=0 note=97 velocity=98 time=1
note_on channel=0 note=102 velocity=104 time=5
note_on channel=0 note=66 velocity=92 time=2
control_change channel=0 control=64 value=85 time=6
control_change channel=0 control=64 value=109 time=15
note_on channel=0 note=90 velocity=0 time=5
note_on channel=0 note=93 velocity=0 time=5
control_change channel=0 control=64 value=127 time=5
note_on channel=0 note=66 velocity=0 time=3
note_on channel=0 note=97 velocity=0 time=5
note_on channel=0 note=102 velocity=0 time=7
note_on channel=0 note=61 velocity=0 time=5
note_on channel=0 note=57 velocity=0 time=10
note_on channel=0 note=54 velocity=0 time=6
note_on channel=0 note=57 velocity=76 time=293
note_on channel=0 note=45 velocity=73 time=6
note_on channel=0 note=93 velocity=91 time=3
note_on channel=0 note=81 velocity=78 time=3
note_on channel=0 note=57 velocity=0 time=15
note_on channel=0 note=81 velocity=0 time=3
note_on channel=0 note=45 velocity=0 time=10
note_on channel=0 note=93 velocity=0 time=6
note_on channel=0 note=95 velocity=103 time=69
note_on channel=0 note=83 velocity=88 time=1
note_on channel=0 note=47 velocity=72 time=1
note_on channel=0 note=59 velocity=83 time=0
note_on channel=0 note=45 velocity=41 time=18
note_on channel=0 note=83 velocity=0 time=0
note_on channel=0 note=59 velocity=0 time=3
note_on channel=0 note=95 velocity=0 time=7
note_on channel=0 note=47 velocity=0 time=2
note_on channel=0 note=45 velocity=0 time=9
control_change channel=0 control=64 value=103 time=41
note_on channel=0 note=61 velocity=88 time=14
control_change channel=0 control=64 value=70 time=2
note_on channel=0 note=49 velocity=90 time=0
note_on channel=0 note=85 velocity=86 time=4
note_on channel=0 note=97 velocity=101 time=1
control_change channel=0 control=64 value=0 time=9
note_on channel=0 note=61 velocity=0 time=2
note_on channel=0 note=49 velocity=0 time=6
note_on channel=0 note=85 velocity=0 time=1
note_on channel=0 note=97 velocity=0 time=4
note_on channel=0 note=90 velocity=107 time=71
note_on channel=0 note=42 velocity=90 time=1
note_on channel=0 note=78 velocity=93 time=0
note_on channel=0 note=54 velocity=91 time=3
note_on channel=0 note=78 velocity=0 time=16
note_on channel=0 note=54 velocity=0 time=6
note_on channel=0 note=80 velocity=47 time=1
note_on channel=0 note=42 velocity=0 time=5
note_on channel=0 note=90 velocity=0 time=4
note_on channel=0 note=80 velocity=0 time=14
note_on channel=0 note=44 velocity=20 time=35
note_on channel=0 note=56 velocity=85 time=8
note_on channel=0 note=80 velocity=92 time=7
note_on channel=0 note=92 velocity=104 time=1
note_on channel=0 note=80 velocity=0 time=34
note_on channel=0 note=56 velocity=0 time=10
note_on channel=0 note=92 velocity=0 time=9
note_on channel=0 note=44 velocity=0 time=2
note_on channel=0 note=57 velocity=92 time=56
note_on channel=0 note=45 velocity=86 time=6
note_on channel=0 note=93 velocity=103 time=0
note_on channel=0 note=81 velocity=98 time=1
control_change channel=0 control=64 value=59 time=17
control_change channel=0 control=64 value=78 time=14
note_on channel=0 note=45 velocity=0 time=3
note_on channel=0 note=57 velocity=0 time=1
control_change channel=0 control=64 value=89 time=19
control_change channel=0 control=64 value=103 time=15
control_change channel=0 control=64 value=110 time=16
control_change channel=0 control=64 value=127 time=15
note_on channel=0 note=93 velocity=0 time=206
note_on channel=0 note=81 velocity=0 time=32
control_change channel=0 control=64 value=82 time=113
note_on channel=0 note=57 velocity=68 time=6
control_change channel=0 control=64 value=0 time=8
note_on channel=0 note=61 velocity=81 time=6
note_on channel=0 note=64 velocity=87 time=6
note_on channel=0 note=69 velocity=97 time=0
note_on channel=0 note=81 velocity=94 time=13
note_on channel=0 note=93 velocity=106 time=0
note_on channel=0 note=88 velocity=95 time=1
note_on channel=0 note=85 velocity=87 time=4
control_change channel=0 control=64 value=50 time=1
control_change channel=0 control=64 value=70 time=15
note_on channel=0 note=81 velocity=0 time=4
note_on channel=0 note=69 velocity=0 time=5
control_change channel=0 control=64 value=87 time=7
note_on channel=0 note=57 velocity=0 time=1
note_on channel=0 note=85 velocity=0 time=2
note_on channel=0 note=64 velocity=0 time=2
note_on channel=0 note=93 velocity=0 time=2
note_on channel=0 note=88 velocity=0 time=2
note_on channel=0 note=61 velocity=0 time=4
control_change channel=0 control=64 value=118 time=1
control_change channel=0 control=64 value=127 time=15
note_on channel=0 note=61 velocity=79 time=297
note_on channel=0 note=85 velocity=90 time=0
note_on channel=0 note=73 velocity=84 time=1
note_on channel=0 note=49 velocity=74 time=1
note_on channel=0 note=61 velocity=0 time=21
note_on channel=0 note=73 velocity=0 time=5
note_on channel=0 note=85 velocity=0 time=14
note_on channel=0 note=49 velocity=0 time=2
note_on channel=0 note=62 velocity=86 time=63
note_on channel=0 note=86 velocity=101 time=5
note_on channel=0 note=50 velocity=77 time=1
note_on channel=0 note=74 velocity=98 time=3
note_on channel=0 note=62 velocity=0 time=18
note_on channel=0 note=74 velocity=0 time=2
note_on channel=0 note=50 velocity=0 time=7
note_on channel=0 note=86 velocity=0 time=5
note_on channel=0 note=52 velocity=91 time=67
note_on channel=0 note=64 velocity=84 time=0
note_on channel=0 note=76 velocity=102 time=7
note_on channel=0 note=88 velocity=104 time=0
note_on channel=0 note=64 velocity=0 time=15
note_on channel=0 note=52 velocity=0 time=7
note_on channel=0 note=76 velocity=0 time=5
note_on channel=0 note=88 velocity=0 time=5
control_change channel=0 control=64 value=116 time=53
control_change channel=0 control=64 value=73 time=15
note_on channel=0 note=57 velocity=90 time=6
note_on channel=0 note=45 velocity=92 time=3
note_on channel=0 note=69 velocity=99 time=2
note_on channel=0 note=81 velocity=99 time=1
control_change channel=0 control=64 value=0 time=2
note_on channel=0 note=45 velocity=0 time=20
note_on channel=0 note=57 velocity=0 time=0
note_on channel=0 note=69 velocity=0 time=6
note_on channel=0 note=81 velocity=0 time=3
note_on channel=0 note=83 velocity=111 time=80
note_on channel=0 note=71 velocity=102 time=1
note_on channel=0 note=59 velocity=98 time=2
note_on channel=0 note=47 velocity=93 time=2
note_on channel=0 note=71 velocity=0 time=22
note_on channel=0 note=59 velocity=0 time=5
note_on channel=0 note=47 velocity=0 time=1
note_on channel=0 note=83 velocity=0 time=3
note_on channel=0 note=49 velocity=92 time=119
note_on channel=0 note=61 velocity=101 time=1
note_on channel=0 note=85 velocity=103 time=3
note_on channel=0 note=73 velocity=103 time=3
note_on channel=0 note=84 velocity=64 time=23
note_on channel=0 note=84 velocity=0 time=1
control_change channel=0 control=64 value=67 time=9
note_on channel=0 note=72 velocity=30 time=12
note_on channel=0 note=72 velocity=0 time=1
control_change channel=0 control=64 value=79 time=2
control_change channel=0 control=64 value=90 time=16
control_change channel=0 control=64 value=106 time=15
control_change channel=0 control=64 value=127 time=16
note_on channel=0 note=61 velocity=0 time=72
note_on channel=0 note=49 velocity=0 time=87
note_on channel=0 note=85 velocity=0 time=73
note_on channel=0 note=73 velocity=0 time=155
control_change channel=0 control=64 value=100 time=122
control_change channel=0 control=64 value=64 time=15
note_on channel=0 note=73 velocity=67 time=1
control_change channel=0 control=64 value=0 time=14
note_on channel=0 note=77 velocity=83 time=15
note_on channel=0 note=80 velocity=90 time=8
control_change channel=0 control=64 value=60 time=8
note_on channel=0 note=44 velocity=89 time=1
note_on channel=0 note=37 velocity=83 time=4
note_on channel=0 note=85 velocity=95 time=1
control_change channel=0 control=64 value=81 time=9
note_on channel=0 note=73 velocity=0 time=4
note_on channel=0 note=77 velocity=0 time=10
control_change channel=0 control=64 value=108 time=1
control_change channel=0 control=64 value=127 time=15
note_on channel=0 note=80 velocity=0 time=13
note_on channel=0 note=39 velocity=3 time=19
note_on channel=0 note=85 velocity=0 time=7
note_on channel=0 note=39 velocity=0 time=42
control_change channel=0 control=67 value=9 time=292
control_change channel=0 control=67 value=19 time=15
control_change channel=0 control=67 value=28 time=15
control_change channel=0 control=67 value=32 time=15
control_change channel=0 control=67 value=33 time=16
control_change channel=0 control=67 value=36 time=15
control_change channel=0 control=67 value=40 time=15
note_on channel=0 note=37 velocity=0 time=10
note_on channel=0 note=44 velocity=0 time=2
control_change channel=0 control=67 value=48 time=3
note_on channel=0 note=47 velocity=41 time=12
control_change channel=0 control=67 value=58 time=3
control_change channel=0 control=67 value=65 time=16
control_change channel=0 control=67 value=73 time=15
control_change channel=0 control=67 value=85 time=15
control_change channel=0 control=67 value=94 time=16
control_change channel=0 control=67 value=99 time=15
control_change channel=0 control=67 value=102 time=16
control_change channel=0 control=67 value=103 time=15
control_change channel=0 control=67 value=104 time=14
control_change channel=0 control=67 value=107 time=16
control_change channel=0 control=67 value=110 time=15
control_change channel=0 control=67 value=112 time=16
control_change channel=0 control=67 value=113 time=15
control_change channel=0 control=64 value=114 time=15
control_change channel=0 control=64 value=80 time=16
note_on channel=0 note=47 velocity=0 time=11
note_on channel=0 note=44 velocity=42 time=1
control_change channel=0 control=64 value=0 time=3
note_on channel=0 note=37 velocity=39 time=2
control_change channel=0 control=67 value=112 time=43
control_change channel=0 control=64 value=33 time=46
control_change channel=0 control=64 value=52 time=13
control_change channel=0 control=64 value=60 time=15
control_change channel=0 control=67 value=111 time=0
control_change channel=0 control=64 value=63 time=15
control_change channel=0 control=67 value=111 time=0
control_change channel=0 control=64 value=65 time=16
control_change channel=0 control=67 value=110 time=0
note_on channel=0 note=44 velocity=0 time=13
control_change channel=0 control=64 value=67 time=2
control_change channel=0 control=64 value=68 time=15
note_on channel=0 note=61 velocity=50 time=6
note_on channel=0 note=37 velocity=0 time=4
control_change channel=0 control=64 value=70 time=5
note_on channel=0 note=47 velocity=25 time=1
control_change channel=0 control=64 value=71 time=17
control_change channel=0 control=64 value=73 time=22
control_change channel=0 control=67 value=110 time=0
control_change channel=0 control=64 value=75 time=16
control_change channel=0 control=64 value=78 time=15
control_change channel=0 control=64 value=80 time=15
control_change channel=0 control=64 value=81 time=16
control_change channel=0 control=67 value=109 time=0
note_on channel=0 note=61 velocity=0 time=9
control_change channel=0 control=64 value=82 time=5
control_change channel=0 control=64 value=82 time=15
control_change channel=0 control=67 value=109 time=0
note_on channel=0 note=47 velocity=0 time=62
note_on channel=0 note=37 velocity=37 time=11
note_on channel=0 note=44 velocity=33 time=13
note_on channel=0 note=61 velocity=45 time=3
control_change channel=0 control=64 value=82 time=18
control_change channel=0 control=64 value=78 time=15
control_change channel=0 control=64 value=73 time=16
control_change channel=0 control=64 value=69 time=15
control_change channel=0 control=64 value=69 time=15
control_change channel=0 control=67 value=108 time=0
control_change channel=0 control=64 value=71 time=15
control_change channel=0 control=64 value=73 time=15
control_change channel=0 control=64 value=75 time=16
control_change channel=0 control=64 value=77 time=15
control_change channel=0 control=67 value=108 time=0
control_change channel=0 control=64 value=80 time=14
control_change channel=0 control=67 value=107 time=0
note_on channel=0 note=37 velocity=0 time=5
note_on channel=0 note=62 velocity=50 time=0
note_on channel=0 note=44 velocity=0 time=2
note_on channel=0 note=61 velocity=0 time=4
note_on channel=0 note=47 velocity=33 time=4
control_change channel=0 control=64 value=82 time=1
control_change channel=0 control=64 value=83 time=15
control_change channel=0 control=64 value=83 time=16
note_on channel=0 note=62 velocity=0 time=4
control_change channel=0 control=64 value=84 time=11
control_change channel=0 control=64 value=86 time=14
control_change channel=0 control=64 value=88 time=17
control_change channel=0 control=64 value=88 time=15
note_on channel=0 note=44 velocity=33 time=26
note_on channel=0 note=37 velocity=42 time=1
control_change channel=0 control=64 value=85 time=4
note_on channel=0 note=47 velocity=0 time=0
control_change channel=0 control=64 value=80 time=15
note_on channel=0 note=62 velocity=53 time=0
control_change channel=0 control=64 value=76 time=15
control_change channel=0 control=64 value=75 time=15
control_change channel=0 control=64 value=76 time=31
control_change channel=0 control=64 value=77 time=15
control_change channel=0 control=67 value=107 time=0
note_on channel=0 note=62 velocity=0 time=9
control_change channel=0 control=64 value=80 time=6
note_on channel=0 note=44 velocity=0 time=7
note_on channel=0 note=61 velocity=63 time=7
control_change channel=0 control=64 value=81 time=1
note_on channel=0 note=47 velocity=45 time=7
note_on channel=0 note=37 velocity=0 time=2
control_change channel=0 control=64 value=83 time=6
control_change channel=0 control=64 value=83 time=16
note_on channel=0 note=61 velocity=0 time=2
control_change channel=0 control=64 value=84 time=12
control_change channel=0 control=64 value=80 time=46
note_on channel=0 note=47 velocity=0 time=5
control_change channel=0 control=64 value=72 time=11
control_change channel=0 control=64 value=57 time=14
note_on channel=0 note=44 velocity=44 time=0
note_on channel=0 note=61 velocity=62 time=2
note_on channel=0 note=37 velocity=46 time=10
control_change channel=0 control=64 value=47 time=3
control_change channel=0 control=64 value=60 time=16
control_change channel=0 control=64 value=65 time=22
control_change channel=0 control=64 value=68 time=16
control_change channel=0 control=64 value=71 time=15
control_change channel=0 control=64 value=74 time=15
note_on channel=0 note=61 velocity=0 time=5
note_on channel=0 note=44 velocity=0 time=2
control_change channel=0 control=64 value=76 time=9
note_on channel=0 note=37 velocity=0 time=0
note_on channel=0 note=65 velocity=64 time=8
note_on channel=0 note=47 velocity=49 time=3
control_change channel=0 control=64 value=78 time=3
control_change channel=0 control=64 value=81 time=16
note_on channel=0 note=65 velocity=0 time=7
control_change channel=0 control=64 value=83 time=8
control_change channel=0 control=64 value=83 time=15
control_change channel=0 control=64 value=80 time=16
note_on channel=0 note=47 velocity=0 time=9
control_change channel=0 control=64 value=76 time=5
control_change channel=0 control=64 value=74 time=16
note_on channel=0 note=44 velocity=48 time=14
note_on channel=0 note=65 velocity=62 time=1
note_on channel=0 note=37 velocity=40 time=14
control_change channel=0 control=64 value=76 time=1
control_change channel=0 control=64 value=79 time=15
control_change channel=0 control=67 value=106 time=0
control_change channel=0 control=64 value=82 time=15
control_change channel=0 control=64 value=85 time=15
note_on channel=0 note=65 velocity=0 time=7
control_change channel=0 control=64 value=87 time=9
note_on channel=0 note=44 velocity=0 time=0
control_change channel=0 control=64 value=87 time=15
note_on channel=0 note=37 velocity=0 time=5
note_on channel=0 note=47 velocity=53 time=4
note_on channel=0 note=61 velocity=72 time=7
note_on channel=0 note=61 velocity=0 time=25
control_change channel=0 control=64 value=88 time=4
note_on channel=0 note=47 velocity=0 time=35
control_change channel=0 control=64 value=87 time=11
control_change channel=0 control=64 value=83 time=16
note_on channel=0 note=44 velocity=46 time=8
note_on channel=0 note=61 velocity=73 time=4
control_change channel=0 control=64 value=72 time=3
control_change channel=0 control=67 value=107 time=0
note_on channel=0 note=37 velocity=44 time=5
control_change channel=0 control=64 value=56 time=10
control_change channel=0 control=64 value=49 time=15
control_change channel=0 control=64 value=62 time=15
control_change channel=0 control=64 value=64 time=16
note_on channel=0 note=44 velocity=0 time=12
control_change channel=0 control=64 value=67 time=3
note_on channel=0 note=61 velocity=0 time=0
note_on channel=0 note=37 velocity=0 time=1
control_change channel=0 control=64 value=70 time=15
note_on channel=0 note=68 velocity=67 time=4
note_on channel=0 note=47 velocity=52 time=7
control_change channel=0 control=64 value=72 time=4
control_change channel=0 control=64 value=74 time=15
note_on channel=0 note=68 velocity=0 time=6
control_change channel=0 control=64 value=75 time=10
control_change channel=0 control=67 value=106 time=0
note_on channel=0 note=47 velocity=0 time=28
control_change channel=0 control=64 value=76 time=2
control_change channel=0 control=67 value=105 time=0
control_change channel=0 control=64 value=77 time=15
control_change channel=0 control=64 value=79 time=15
note_on channel=0 note=44 velocity=54 time=1
note_on channel=0 note=68 velocity=65 time=11
control_change channel=0 control=64 value=79 time=4
note_on channel=0 note=37 velocity=48 time=2
control_change channel=0 control=67 value=105 time=13
control_change channel=0 control=64 value=80 time=30
control_change channel=0 control=67 value=104 time=0
note_on channel=0 note=37 velocity=0 time=4
control_change channel=0 control=64 value=81 time=11
control_change channel=0 control=67 value=104 time=0
note_on channel=0 note=44 velocity=0 time=1
note_on channel=0 note=68 velocity=0 time=0
control_change channel=0 control=64 value=82 time=14
control_change channel=0 control=67 value=102 time=0
note_on channel=0 note=61 velocity=72 time=7
note_on channel=0 note=47 velocity=59 time=7
control_change channel=0 control=64 value=84 time=2
control_change channel=0 control=67 value=101 time=0
control_change channel=0 control=64 value=84 time=14
note_on channel=0 note=61 velocity=0 time=3
control_change channel=0 control=67 value=100 time=28
control_change channel=0 control=64 value=85 time=24
note_on channel=0 note=47 velocity=0 time=9
control_change channel=0 control=67 value=100 time=5
control_change channel=0 control=64 value=85 time=15
control_change channel=0 control=67 value=99 time=0
note_on channel=0 note=44 velocity=59 time=1
note_on channel=0 note=37 velocity=48 time=4
note_on channel=0 note=61 velocity=70 time=8
control_change channel=0 control=64 value=82 time=3
control_change channel=0 control=67 value=98 time=0
control_change channel=0 control=64 value=78 time=15
control_change channel=0 control=67 value=97 time=0
control_change channel=0 control=64 value=77 time=14
control_change channel=0 control=67 value=93 time=0
control_change channel=0 control=64 value=77 time=16
control_change channel=0 control=67 value=85 time=0
note_on channel=0 note=61 velocity=0 time=3
control_change channel=0 control=64 value=78 time=12
control_change channel=0 control=67 value=78 time=0
control_change channel=0 control=64 value=80 time=16
control_change channel=0 control=67 value=72 time=0
note_on channel=0 note=44 velocity=0 time=4
note_on channel=0 note=74 velocity=74 time=6
control_change channel=0 control=64 value=82 time=5
control_change channel=0 control=67 value=67 time=0
note_on channel=0 note=47 velocity=59 time=12
control_change channel=0 control=64 value=84 time=2
control_change channel=0 control=67 value=61 time=0
note_on channel=0 note=37 velocity=0 time=4
note_on channel=0 note=74 velocity=0 time=11
control_change channel=0 control=64 value=85 time=1
control_change channel=0 control=67 value=56 time=0
control_change channel=0 control=64 value=85 time=15
control_change channel=0 control=67 value=52 time=0
control_change channel=0 control=64 value=86 time=15
control_change channel=0 control=67 value=48 time=0
note_on channel=0 note=47 velocity=0 time=15
control_change channel=0 control=64 value=87 time=1
control_change channel=0 control=67 value=44 time=0
control_change channel=0 control=64 value=86 time=14
control_change channel=0 control=67 value=39 time=0
control_change channel=0 control=64 value=82 time=16
control_change channel=0 control=67 value=35 time=0
note_on channel=0 note=44 velocity=64 time=2
note_on channel=0 note=74 velocity=80 time=3
control_change channel=0 control=64 value=79 time=10
control_change channel=0 control=67 value=32 time=0
note_on channel=0 note=37 velocity=49 time=7
control_change channel=0 control=64 value=78 time=8
control_change channel=0 control=67 value=30 time=0
control_change channel=0 control=64 value=79 time=15
control_change channel=0 control=67 value=26 time=0
control_change channel=0 control=64 value=82 time=15
control_change channel=0 control=67 value=20 time=0
note_on channel=0 note=74 velocity=0 time=3
control_change channel=0 control=64 value=86 time=13
control_change channel=0 control=67 value=12 time=0
note_on channel=0 note=44 velocity=0 time=14
control_change channel=0 control=64 value=90 time=1
control_change channel=0 control=67 value=0 time=0
note_on channel=0 note=61 velocity=81 time=1
note_on channel=0 note=47 velocity=62 time=9
note_on channel=0 note=37 velocity=0 time=1
control_change channel=0 control=64 value=93 time=4
control_change channel=0 control=64 value=94 time=15
note_on channel=0 note=61 velocity=0 time=6
control_change channel=0 control=64 value=95 time=9
control_change channel=0 control=64 value=95 time=15
control_change channel=0 control=64 value=96 time=16
control_change channel=0 control=64 value=97 time=15
note_on channel=0 note=47 velocity=0 time=6
note_on channel=0 note=44 velocity=70 time=13
note_on channel=0 note=61 velocity=85 time=3
note_on channel=0 note=37 velocity=62 time=5
control_change channel=0 control=64 value=94 time=4
control_change channel=0 control=64 value=86 time=15
control_change channel=0 control=64 value=78 time=15
note_on channel=0 note=61 velocity=0 time=9
control_change channel=0 control=64 value=75 time=6
control_change channel=0 control=64 value=77 time=15
control_change channel=0 control=64 value=80 time=16
note_on channel=0 note=44 velocity=0 time=14
note_on channel=0 note=77 velocity=85 time=0
control_change channel=0 control=64 value=84 time=1
note_on channel=0 note=37 velocity=0 time=1
note_on channel=0 note=47 velocity=70 time=2
control_change channel=0 control=64 value=88 time=13
control_change channel=0 control=64 value=92 time=15
control_change channel=0 control=64 value=95 time=15
note_on channel=0 note=77 velocity=0 time=7
control_change channel=0 control=64 value=96 time=9
control_change channel=0 control=64 value=98 time=15
control_change channel=0 control=64 value=101 time=16
note_on channel=0 note=47 velocity=0 time=5
note_on channel=0 note=77 velocity=82 time=6
note_on channel=0 note=44 velocity=75 time=1
control_change channel=0 control=64 value=104 time=2
note_on channel=0 note=37 velocity=60 time=6
control_change channel=0 control=64 value=108 time=9
control_change channel=0 control=64 value=111 time=16
control_change channel=0 control=64 value=111 time=15
control_change channel=0 control=64 value=113 time=14
control_change channel=0 control=64 value=118 time=16
note_on channel=0 note=44 velocity=0 time=9
note_on channel=0 note=73 velocity=87 time=5
control_change channel=0 control=64 value=127 time=1
note_on channel=0 note=77 velocity=0 time=1
note_on channel=0 note=47 velocity=74 time=16
note_on channel=0 note=37 velocity=0 time=23
note_on channel=0 note=73 velocity=0 time=10
control_change channel=0 control=64 value=107 time=53
note_on channel=0 note=47 velocity=0 time=5
note_on channel=0 note=73 velocity=86 time=4
note_on channel=0 note=44 velocity=74 time=1
note_on channel=0 note=37 velocity=57 time=3
control_change channel=0 control=64 value=89 time=2
control_change channel=0 control=64 value=76 time=16
control_change channel=0 control=64 value=73 time=15
control_change channel=0 control=64 value=77 time=16
control_change channel=0 control=64 value=81 time=14
control_change channel=0 control=64 value=85 time=15
note_on channel=0 note=73 velocity=0 time=3
note_on channel=0 note=80 velocity=83 time=9
control_change channel=0 control=64 value=89 time=4
note_on channel=0 note=44 velocity=0 time=5
note_on channel=0 note=47 velocity=71 time=3
control_change channel=0 control=64 value=92 time=7
note_on channel=0 note=37 velocity=0 time=15
control_change channel=0 control=64 value=94 time=1
note_on channel=0 note=80 velocity=0 time=11
control_change channel=0 control=64 value=95 time=3
control_change channel=0 control=64 value=96 time=15
control_change channel=0 control=64 value=98 time=16
control_change channel=0 control=64 value=100 time=15
note_on channel=0 note=47 velocity=0 time=0
note_on channel=0 note=44 velocity=77 time=6
note_on channel=0 note=80 velocity=91 time=0
note_on channel=0 note=37 velocity=61 time=7
control_change channel=0 control=64 value=100 time=32
note_on channel=0 note=80 velocity=0 time=49
note_on channel=0 note=73 velocity=96 time=6
note_on channel=0 note=37 velocity=0 time=5
note_on channel=0 note=44 velocity=0 time=3
note_on channel=0 note=47 velocity=75 time=1
control_change channel=0 control=64 value=102 time=27
note_on channel=0 note=73 velocity=0 time=12
control_change channel=0 control=64 value=103 time=4
control_change channel=0 control=64 value=104 time=14
control_change channel=0 control=64 value=103 time=16
control_change channel=0 control=64 value=93 time=15
note_on channel=0 note=47 velocity=0 time=2
note_on channel=0 note=44 velocity=84 time=4
note_on channel=0 note=37 velocity=71 time=5
note_on channel=0 note=73 velocity=95 time=0
control_change channel=0 control=64 value=78 time=4
control_change channel=0 control=64 value=66 time=16
control_change channel=0 control=64 value=68 time=15
control_change channel=0 control=64 value=73 time=16
control_change channel=0 control=64 value=78 time=15
control_change channel=0 control=64 value=83 time=14
note_on channel=0 note=73 velocity=0 time=0
note_on channel=0 note=86 velocity=94 time=16
control_change channel=0 control=64 value=89 time=1
note_on channel=0 note=47 velocity=76 time=2
note_on channel=0 note=37 velocity=0 time=12
control_change channel=0 control=64 value=93 time=1
note_on channel=0 note=44 velocity=0 time=0
control_change channel=0 control=64 value=94 time=15
note_on channel=0 note=86 velocity=0 time=10
control_change channel=0 control=64 value=95 time=6
control_change channel=0 control=64 value=96 time=32
control_change channel=0 control=64 value=97 time=14
note_on channel=0 note=86 velocity=95 time=13
control_change channel=0 control=64 value=98 time=2
note_on channel=0 note=44 velocity=79 time=0
note_on channel=0 note=47 velocity=0 time=3
note_on channel=0 note=37 velocity=68 time=4
control_change channel=0 control=64 value=98 time=9
control_change channel=0 control=64 value=99 time=29
control_change channel=0 control=64 value=99 time=16
note_on channel=0 note=86 velocity=0 time=0
control_change channel=0 control=64 value=100 time=23
note_on channel=0 note=73 velocity=93 time=14
control_change channel=0 control=64 value=102 time=2
note_on channel=0 note=44 velocity=0 time=7
note_on channel=0 note=37 velocity=0 time=3
note_on channel=0 note=47 velocity=73 time=3
control_change channel=0 control=64 value=102 time=1
note_on channel=0 note=73 velocity=0 time=26
control_change channel=0 control=64 value=103 time=5
note_on channel=0 note=47 velocity=0 time=59
control_change channel=0 control=64 value=102 time=1
note_on channel=0 note=44 velocity=77 time=4
note_on channel=0 note=37 velocity=70 time=4
note_on channel=0 note=73 velocity=96 time=0
control_change channel=0 control=64 value=89 time=8
control_change channel=0 control=64 value=74 time=14
control_change channel=0 control=64 value=66 time=16
control_change channel=0 control=64 value=69 time=15
note_on channel=0 note=73 velocity=0 time=6
control_change channel=0 control=64 value=74 time=9
control_change channel=0 control=64 value=79 time=16
control_change channel=0 control=64 value=84 time=14
note_on channel=0 note=89 velocity=102 time=13
control_change channel=0 control=64 value=91 time=3
note_on channel=0 note=47 velocity=70 time=2
note_on channel=0 note=44 velocity=0 time=9
control_change channel=0 control=64 value=97 time=4
note_on channel=0 note=37 velocity=0 time=5
control_change channel=0 control=64 value=101 time=10
control_change channel=0 control=64 value=103 time=16
note_on channel=0 note=89 velocity=0 time=6
control_change channel=0 control=64 value=104 time=8
control_change channel=0 control=64 value=106 time=15
control_change channel=0 control=64 value=110 time=16
control_change channel=0 control=64 value=116 time=15
note_on channel=0 note=44 velocity=86 time=0
note_on channel=0 note=47 velocity=0 time=3
note_on channel=0 note=89 velocity=98 time=5
note_on channel=0 note=37 velocity=72 time=4
control_change channel=0 control=64 value=127 time=4
note_on channel=0 note=89 velocity=0 time=29
note_on channel=0 note=73 velocity=98 time=57
note_on channel=0 note=47 velocity=82 time=2
note_on channel=0 note=44 velocity=0 time=5
note_on channel=0 note=37 velocity=0 time=5
note_on channel=0 note=73 velocity=0 time=32
note_on channel=0 note=44 velocity=86 time=54
note_on channel=0 note=37 velocity=81 time=4
note_on channel=0 note=73 velocity=102 time=3
note_on channel=0 note=47 velocity=0 time=3
control_change channel=0 control=64 value=103 time=2
control_change channel=0 control=64 value=76 time=16
control_change channel=0 control=64 value=62 time=15
control_change channel=0 control=64 value=66 time=16
control_change channel=0 control=64 value=73 time=15
note_on channel=0 note=73 velocity=0 time=12
control_change channel=0 control=64 value=79 time=3
control_change channel=0 control=64 value=85 time=16
note_on channel=0 note=86 velocity=101 time=3
note_on channel=0 note=47 velocity=84 time=3
control_change channel=0 control=64 value=92 time=8
note_on channel=0 note=44 velocity=0 time=2
note_on channel=0 note=37 velocity=0 time=1
control_change channel=0 control=64 value=98 time=13
note_on channel=0 note=86 velocity=0 time=13
control_change channel=0 control=64 value=101 time=2
control_change channel=0 control=64 value=103 time=15
control_change channel=0 control=64 value=104 time=16
control_change channel=0 control=64 value=105 time=14
note_on channel=0 note=44 velocity=91 time=22
control_change channel=0 control=64 value=107 time=2
note_on channel=0 note=37 velocity=82 time=3
note_on channel=0 note=86 velocity=106 time=1
note_on channel=0 note=47 velocity=0 time=4
control_change channel=0 control=64 value=109 time=7
control_change channel=0 control=64 value=111 time=14
control_change channel=0 control=64 value=112 time=16
control_change channel=0 control=64 value=114 time=15
note_on channel=0 note=86 velocity=0 time=7
control_change channel=0 control=64 value=117 time=9
control_change channel=0 control=64 value=123 time=15
note_on channel=0 note=73 velocity=96 time=4
note_on channel=0 note=47 velocity=86 time=9
control_change channel=0 control=64 value=127 time=1
note_on channel=0 note=37 velocity=0 time=12
note_on channel=0 note=44 velocity=0 time=6
note_on channel=0 note=73 velocity=0 time=13
control_change channel=0 control=64 value=114 time=61
note_on channel=0 note=44 velocity=88 time=9
note_on channel=0 note=73 velocity=106 time=2
note_on channel=0 note=37 velocity=80 time=2
control_change channel=0 control=64 value=82 time=2
note_on channel=0 note=47 velocity=0 time=5
control_change channel=0 control=64 value=63 time=9
control_change channel=0 control=64 value=65 time=16
control_change channel=0 control=64 value=74 time=15
note_on channel=0 note=73 velocity=0 time=7
control_change channel=0 control=64 value=81 time=8
control_change channel=0 control=64 value=90 time=16
control_change channel=0 control=64 value=102 time=14
note_on channel=0 note=89 velocity=106 time=7
note_on channel=0 note=47 velocity=88 time=2
control_change channel=0 control=64 value=127 time=7
note_on channel=0 note=37 velocity=0 time=11
note_on channel=0 note=44 velocity=0 time=1
note_on channel=0 note=89 velocity=0 time=22
note_on channel=0 note=44 velocity=90 time=62
note_on channel=0 note=37 velocity=86 time=3
note_on channel=0 note=89 velocity=107 time=1
note_on channel=0 note=47 velocity=0 time=8
note_on channel=0 note=89 velocity=0 time=35
note_on channel=0 note=88 velocity=24 time=9
note_on channel=0 note=88 velocity=0 time=34
note_on channel=0 note=47 velocity=88 time=19
note_on channel=0 note=73 velocity=102 time=3
note_on channel=0 note=44 velocity=0 time=15
note_on channel=0 note=37 velocity=0 time=7
note_on channel=0 note=73 velocity=0 time=21
control_change channel=0 control=64 value=86 time=53
note_on channel=0 note=44 velocity=92 time=14
control_change channel=0 control=64 value=0 time=1
note_on channel=0 note=37 velocity=84 time=5
note_on channel=0 note=73 velocity=102 time=0
note_on channel=0 note=47 velocity=0 time=11
control_change channel=0 control=64 value=19 time=14
control_change channel=0 control=64 value=59 time=15
control_change channel=0 control=64 value=69 time=15
control_change channel=0 control=64 value=80 time=15
note_on channel=0 note=73 velocity=0 time=13
control_change channel=0 control=64 value=93 time=3
control_change channel=0 control=64 value=101 time=14
control_change channel=0 control=64 value=107 time=23
note_on channel=0 note=86 velocity=99 time=3
control_change channel=0 control=64 value=112 time=12
note_on channel=0 note=47 velocity=89 time=0
note_on channel=0 note=37 velocity=0 time=4
control_change channel=0 control=64 value=115 time=11
note_on channel=0 note=44 velocity=0 time=7
note_on channel=0 note=86 velocity=0 time=1
control_change channel=0 control=64 value=121 time=8
control_change channel=0 control=64 value=127 time=15
control_change channel=0 control=64 value=112 time=61
control_change channel=0 control=64 value=83 time=15
control_change channel=0 control=64 value=42 time=15
note_on channel=0 note=86 velocity=102 time=3
note_on channel=0 note=37 velocity=77 time=2
note_on channel=0 note=44 velocity=83 time=5
note_on channel=0 note=47 velocity=0 time=5
control_change channel=0 control=64 value=0 time=1
control_change channel=0 control=64 value=63 time=14
control_change channel=0 control=64 value=70 time=16
control_change channel=0 control=64 value=78 time=15
control_change channel=0 control=64 value=87 time=15
control_change channel=0 control=64 value=97 time=16
control_change channel=0 control=64 value=106 time=14
control_change channel=0 control=64 value=115 time=15
control_change channel=0 control=64 value=127 time=13
note_on channel=0 note=37 velocity=0 time=0
note_on channel=0 note=47 velocity=91 time=0
note_on channel=0 note=44 velocity=0 time=16
note_on channel=0 note=98 velocity=103 time=0
note_on channel=0 note=47 velocity=0 time=5
note_on channel=0 note=86 velocity=0 time=163
note_on channel=0 note=98 velocity=0 time=19
control_change channel=0 control=64 value=96 time=36
control_change channel=0 control=64 value=0 time=16
note_on channel=0 note=62 velocity=95 time=22
note_on channel=0 note=50 velocity=94 time=3
note_on channel=0 note=98 velocity=115 time=9
note_on channel=0 note=86 velocity=98 time=1
note_on channel=0 note=62 velocity=0 time=23
control_change channel=0 control=64 value=47 time=2
note_on channel=0 note=50 velocity=0 time=1
note_on channel=0 note=86 velocity=0 time=4
note_on channel=0 note=98 velocity=0 time=5
control_change channel=0 control=64 value=68 time=5
control_change channel=0 control=64 value=78 time=15
control_change channel=0 control=64 value=88 time=15
control_change channel=0 control=64 value=96 time=16
control_change channel=0 control=64 value=103 time=15
control_change channel=0 control=64 value=107 time=15
control_change channel=0 control=64 value=107 time=15
control_change channel=0 control=64 value=107 time=99
control_change channel=0 control=64 value=104 time=16
control_change channel=0 control=64 value=103 time=15
control_change channel=0 control=64 value=102 time=62
control_change channel=0 control=64 value=88 time=15
control_change channel=0 control=64 value=0 time=14
note_on channel=0 note=61 velocity=88 time=130
note_on channel=0 note=97 velocity=105 time=1
note_on channel=0 note=49 velocity=74 time=2
note_on channel=0 note=85 velocity=101 time=0
control_change channel=0 control=64 value=62 time=4
control_change channel=0 control=64 value=67 time=15
note_on channel=0 note=85 velocity=0 time=13
control_change channel=0 control=64 value=70 time=2
note_on channel=0 note=97 velocity=0 time=5
control_change channel=0 control=64 value=71 time=11
note_on channel=0 note=51 velocity=4 time=3
control_change channel=0 control=64 value=72 time=12
note_on channel=0 note=61 velocity=0 time=10
control_change channel=0 control=64 value=72 time=5
control_change channel=0 control=64 value=70 time=15
control_change channel=0 control=64 value=67 time=15
note_on channel=0 note=51 velocity=0 time=1
control_change channel=0 control=64 value=64 time=15
control_change channel=0 control=64 value=66 time=15
control_change channel=0 control=64 value=70 time=14
note_on channel=0 note=48 velocity=87 time=6
note_on channel=0 note=60 velocity=88 time=0
note_on channel=0 note=84 velocity=97 time=0
note_on channel=0 note=96 velocity=105 time=1
note_on channel=0 note=49 velocity=0 time=6
control_change channel=0 control=64 value=72 time=3
control_change channel=0 control=64 value=73 time=15
note_on channel=0 note=84 velocity=0 time=2
note_on channel=0 note=96 velocity=0 time=5
control_change channel=0 control=64 value=74 time=8
note_on channel=0 note=60 velocity=0 time=0
note_on channel=0 note=48 velocity=0 time=3
control_change channel=0 control=64 value=75 time=12
control_change channel=0 control=64 value=72 time=31
control_change channel=0 control=64 value=61 time=15
control_change channel=0 control=64 value=0 time=16
control_change channel=0 control=64 value=38 time=15
note_on channel=0 note=47 velocity=93 time=9
note_on channel=0 note=59 velocity=98 time=1
note_on channel=0 note=95 velocity=110 time=2
control_change channel=0 control=64 value=64 time=3
note_on channel=0 note=83 velocity=95 time=0
control_change channel=0 control=64 value=70 time=16
note_on channel=0 note=83 velocity=0 time=3
note_on channel=0 note=59 velocity=0 time=8
control_change channel=0 control=64 value=73 time=4
note_on channel=0 note=47 velocity=0 time=1
note_on channel=0 note=95 velocity=0 time=3
control_change channel=0 control=64 value=70 time=10
control_change channel=0 control=64 value=63 time=16
control_change channel=0 control=64 value=54 time=15
control_change channel=0 control=64 value=65 time=16
control_change channel=0 control=64 value=71 time=15
note_on channel=0 note=58 velocity=99 time=12
note_on channel=0 note=82 velocity=95 time=0
note_on channel=0 note=94 velocity=102 time=2
control_change channel=0 control=64 value=72 time=1
note_on channel=0 note=46 velocity=79 time=4
control_change channel=0 control=64 value=69 time=12
control_change channel=0 control=64 value=64 time=22
note_on channel=0 note=49 velocity=44 time=2
note_on channel=0 note=82 velocity=0 time=3
note_on channel=0 note=58 velocity=0 time=2
note_on channel=0 note=94 velocity=0 time=0
control_change channel=0 control=64 value=64 time=9
note_on channel=0 note=46 velocity=0 time=11
control_change channel=0 control=64 value=68 time=5
note_on channel=0 note=49 velocity=0 time=6
control_change channel=0 control=64 value=70 time=8
control_change channel=0 control=64 value=67 time=16
control_change channel=0 control=64 value=57 time=15
note_on channel=0 note=57 velocity=91 time=0
note_on channel=0 note=45 velocity=88 time=2
note_on channel=0 note=93 velocity=104 time=0
note_on channel=0 note=81 velocity=96 time=1
control_change channel=0 control=64 value=53 time=13
note_on channel=0 note=81 velocity=0 time=13
control_change channel=0 control=64 value=64 time=2
note_on channel=0 note=57 velocity=0 time=2
note_on channel=0 note=93 velocity=0 time=7
note_on channel=0 note=45 velocity=0 time=1
control_change channel=0 control=64 value=68 time=5
control_change channel=0 control=64 value=66 time=30
control_change channel=0 control=64 value=61 time=16
control_change channel=0 control=64 value=63 time=14
note_on channel=0 note=56 velocity=96 time=0
note_on channel=0 note=80 velocity=92 time=3
note_on channel=0 note=92 velocity=84 time=0
note_on channel=0 note=44 velocity=94 time=3
control_change channel=0 control=64 value=67 time=9
control_change channel=0 control=64 value=69 time=16
note_on channel=0 note=80 velocity=0 time=11
note_on channel=0 note=56 velocity=0 time=2
control_change channel=0 control=64 value=67 time=2
note_on channel=0 note=92 velocity=0 time=8
control_change channel=0 control=64 value=61 time=7
note_on channel=0 note=44 velocity=0 time=9
control_change channel=0 control=64 value=53 time=6
control_change channel=0 control=64 value=64 time=15
control_change channel=0 control=64 value=67 time=16
note_on channel=0 note=55 velocity=95 time=3
note_on channel=0 note=43 velocity=85 time=3
note_on channel=0 note=91 velocity=106 time=1
note_on channel=0 note=79 velocity=94 time=3
control_change channel=0 control=64 value=66 time=5
control_change channel=0 control=64 value=62 time=15
note_on channel=0 note=79 velocity=0 time=2
note_on channel=0 note=55 velocity=0 time=7
note_on channel=0 note=43 velocity=0 time=1
control_change channel=0 control=64 value=11 time=6
note_on channel=0 note=91 velocity=0 time=2
control_change channel=0 control=64 value=21 time=13
control_change channel=0 control=64 value=55 time=14
control_change channel=0 control=64 value=63 time=16
control_change channel=0 control=64 value=60 time=15
note_on channel=0 note=54 velocity=94 time=9
note_on channel=0 note=78 velocity=94 time=2
note_on channel=0 note=42 velocity=86 time=3
note_on channel=0 note=90 velocity=106 time=1
control_change channel=0 control=64 value=44 time=1
control_change channel=0 control=64 value=36 time=15
control_change channel=0 control=64 value=58 time=13
note_on channel=0 note=78 velocity=0 time=4
note_on channel=0 note=54 velocity=0 time=3
note_on channel=0 note=90 velocity=0 time=4
control_change channel=0 control=64 value=65 time=3
note_on channel=0 note=42 velocity=0 time=9
control_change channel=0 control=64 value=62 time=22
control_change channel=0 control=64 value=55 time=16
note_on channel=0 note=53 velocity=93 time=11
note_on channel=0 note=89 velocity=104 time=2
control_change channel=0 control=64 value=60 time=2
note_on channel=0 note=41 velocity=86 time=0
note_on channel=0 note=77 velocity=102 time=0
control_change channel=0 control=64 value=65 time=14
control_change channel=0 control=64 value=68 time=16
note_on channel=0 note=77 velocity=0 time=1
note_on channel=0 note=53 velocity=0 time=6
note_on channel=0 note=89 velocity=0 time=3
note_on channel=0 note=41 velocity=0 time=9
control_change channel=0 control=64 value=66 time=12
control_change channel=0 control=64 value=67 time=14
control_change channel=0 control=64 value=70 time=15
control_change channel=0 control=64 value=73 time=16
note_on channel=0 note=88 velocity=112 time=9
note_on channel=0 note=52 velocity=99 time=1
note_on channel=0 note=76 velocity=100 time=1
note_on channel=0 note=40 velocity=92 time=2
control_change channel=0 control=64 value=72 time=2
control_change channel=0 control=64 value=66 time=15
note_on channel=0 note=76 velocity=0 time=9
control_change channel=0 control=64 value=0 time=6
note_on channel=0 note=52 velocity=0 time=0
note_on channel=0 note=40 velocity=0 time=2
note_on channel=0 note=88 velocity=0 time=8
control_change channel=0 control=64 value=49 time=5
control_change channel=0 control=64 value=63 time=16
control_change channel=0 control=64 value=66 time=14
control_change channel=0 control=64 value=69 time=15
control_change channel=0 control=64 value=75 time=16
note_on channel=0 note=51 velocity=99 time=6
note_on channel=0 note=75 velocity=92 time=0
note_on channel=0 note=87 velocity=100 time=3
note_on channel=0 note=39 velocity=87 time=2
control_change channel=0 control=64 value=85 time=4
control_change channel=0 control=64 value=93 time=24
note_on channel=0 note=75 velocity=0 time=16
note_on channel=0 note=51 velocity=0 time=5
control_change channel=0 control=64 value=80 time=8
note_on channel=0 note=87 velocity=0 time=6
control_change channel=0 control=64 value=0 time=10
note_on channel=0 note=39 velocity=0 time=11
note_on channel=0 note=38 velocity=77 time=42
note_on channel=0 note=50 velocity=93 time=0
note_on channel=0 note=86 velocity=104 time=2
note_on channel=0 note=74 velocity=94 time=3
control_change channel=0 control=64 value=62 time=19
note_on channel=0 note=74 velocity=0 time=12
control_change channel=0 control=64 value=74 time=3
note_on channel=0 note=38 velocity=0 time=0
note_on channel=0 note=50 velocity=0 time=4
note_on channel=0 note=86 velocity=0 time=6
control_change channel=0 control=64 value=75 time=5
control_change channel=0 control=64 value=70 time=15
control_change channel=0 control=64 value=0 time=15
note_on channel=0 note=49 velocity=100 time=41
control_change channel=0 control=64 value=62 time=3
note_on channel=0 note=37 velocity=86 time=0
note_on channel=0 note=73 velocity=101 time=0
note_on channel=0 note=85 velocity=97 time=0
control_change channel=0 control=64 value=70 time=15
control_change channel=0 control=64 value=75 time=15
note_on channel=0 note=73 velocity=0 time=9
control_change channel=0 control=64 value=85 time=6
note_on channel=0 note=49 velocity=0 time=0
note_on channel=0 note=85 velocity=0 time=10
note_on channel=0 note=37 velocity=0 time=5
control_change channel=0 control=64 value=96 time=1
control_change channel=0 control=64 value=97 time=15
control_change channel=0 control=64 value=85 time=14
control_change channel=0 control=64 value=63 time=16
control_change channel=0 control=64 value=0 time=15
note_on channel=0 note=48 velocity=93 time=12
note_on channel=0 note=84 velocity=100 time=3
control_change channel=0 control=64 value=29 time=1
note_on channel=0 note=72 velocity=95 time=0
note_on channel=0 note=36 velocity=81 time=1
control_change channel=0 control=64 value=54 time=13
control_change channel=0 control=64 value=63 time=15
note_on channel=0 note=72 velocity=0 time=3
note_on channel=0 note=48 velocity=0 time=10
note_on channel=0 note=84 velocity=0 time=2
control_change channel=0 control=64 value=69 time=1
note_on channel=0 note=36 velocity=0 time=7
control_change channel=0 control=64 value=78 time=8
control_change channel=0 control=64 value=86 time=15
control_change channel=0 control=64 value=85 time=16
control_change channel=0 control=64 value=69 time=15
control_change channel=0 control=64 value=0 time=16
note_on channel=0 note=47 velocity=98 time=18
note_on channel=0 note=83 velocity=98 time=5
note_on channel=0 note=35 velocity=81 time=2
note_on channel=0 note=71 velocity=96 time=2
control_change channel=0 control=64 value=21 time=2
control_change channel=0 control=64 value=62 time=16
note_on channel=0 note=35 velocity=0 time=12
note_on channel=0 note=71 velocity=0 time=1
note_on channel=0 note=47 velocity=0 time=1
control_change channel=0 control=64 value=71 time=1
control_change channel=0 control=64 value=84 time=16
note_on channel=0 note=83 velocity=0 time=2
control_change channel=0 control=64 value=94 time=13
control_change channel=0 control=64 value=90 time=15
control_change channel=0 control=64 value=69 time=16
control_change channel=0 control=64 value=0 time=15
note_on channel=0 note=34 velocity=91 time=35
note_on channel=0 note=46 velocity=96 time=2
note_on channel=0 note=82 velocity=102 time=3
note_on channel=0 note=70 velocity=103 time=1
control_change channel=0 control=64 value=47 time=20
note_on channel=0 note=70 velocity=0 time=12
control_change channel=0 control=64 value=65 time=3
note_on channel=0 note=46 velocity=0 time=3
note_on channel=0 note=34 velocity=0 time=6
control_change channel=0 control=64 value=72 time=6
note_on channel=0 note=82 velocity=0 time=5
control_change channel=0 control=64 value=79 time=10
control_change channel=0 control=64 value=84 time=15
control_change channel=0 control=64 value=79 time=23
control_change channel=0 control=64 value=60 time=15
control_change channel=0 control=64 value=0 time=15
note_on channel=0 note=49 velocity=95 time=37
note_on channel=0 note=37 velocity=95 time=1
note_on channel=0 note=73 velocity=103 time=1
note_on channel=0 note=85 velocity=105 time=4
control_change channel=0 control=64 value=46 time=18
control_change channel=0 control=64 value=68 time=15
note_on channel=0 note=49 velocity=0 time=0
note_on channel=0 note=73 velocity=0 time=0
note_on channel=0 note=85 velocity=0 time=9
note_on channel=0 note=37 velocity=0 time=3
control_change channel=0 control=64 value=77 time=4
control_change channel=0 control=64 value=87 time=15
control_change channel=0 control=64 value=95 time=15
control_change channel=0 control=64 value=96 time=16
control_change channel=0 control=64 value=89 time=15
control_change channel=0 control=64 value=61 time=16
control_change channel=0 control=64 value=0 time=15
note_on channel=0 note=45 velocity=95 time=25
note_on channel=0 note=33 velocity=91 time=1
note_on channel=0 note=69 velocity=98 time=2
note_on channel=0 note=81 velocity=103 time=0
note_on channel=0 note=33 velocity=0 time=25
note_on channel=0 note=69 velocity=0 time=1
note_on channel=0 note=45 velocity=0 time=1
note_on channel=0 note=81 velocity=0 time=7
control_change channel=0 control=64 value=58 time=14
control_change channel=0 control=64 value=69 time=15
control_change channel=0 control=64 value=76 time=15
control_change channel=0 control=64 value=83 time=15
control_change channel=0 control=64 value=88 time=15
control_change channel=0 control=64 value=76 time=31
control_change channel=0 control=64 value=0 time=15
note_on channel=0 note=49 velocity=99 time=29
note_on channel=0 note=73 velocity=109 time=0
note_on channel=0 note=85 velocity=104 time=0
note_on channel=0 note=37 velocity=95 time=2
note_on channel=0 note=49 velocity=0 time=18
note_on channel=0 note=36 velocity=61 time=7
note_on channel=0 note=36 velocity=0 time=1
note_on channel=0 note=73 velocity=0 time=0
note_on channel=0 note=37 velocity=0 time=1
control_change channel=0 control=64 value=64 time=2
note_on channel=0 note=85 velocity=0 time=3
control_change channel=0 control=64 value=74 time=12
control_change channel=0 control=64 value=87 time=16
control_change channel=0 control=64 value=101 time=15
control_change channel=0 control=64 value=108 time=15
control_change channel=0 control=64 value=109 time=15
control_change channel=0 control=64 value=97 time=31
control_change channel=0 control=64 value=65 time=15
control_change channel=0 control=64 value=0 time=14
note_on channel=0 note=68 velocity=95 time=31
note_on channel=0 note=80 velocity=102 time=0
note_on channel=0 note=44 velocity=95 time=1
note_on channel=0 note=32 velocity=98 time=2
control_change channel=0 control=64 value=59 time=13
note_on channel=0 note=68 velocity=0 time=9
note_on channel=0 note=32 velocity=0 time=3
control_change channel=0 control=64 value=74 time=2
note_on channel=0 note=44 velocity=0 time=0
control_change channel=0 control=64 value=89 time=15
note_on channel=0 note=70 velocity=26 time=1
note_on channel=0 note=70 velocity=0 time=1
note_on channel=0 note=80 velocity=0 time=2
note_on channel=0 note=81 velocity=23 time=3
control_change channel=0 control=64 value=109 time=9
control_change channel=0 control=64 value=127 time=15
note_on channel=0 note=81 velocity=0 time=14
control_change channel=0 control=64 value=103 time=131
control_change channel=0 control=64 value=64 time=14
control_change channel=0 control=64 value=0 time=15
note_on channel=0 note=37 velocity=86 time=5
note_on channel=0 note=49 velocity=104 time=0
note_on channel=0 note=73 velocity=99 time=2
note_on channel=0 note=85 velocity=105 time=0
control_change channel=0 control=64 value=60 time=24
note_on channel=0 note=49 velocity=0 time=6
note_on channel=0 note=73 velocity=0 time=0
control_change channel=0 control=64 value=81 time=10
note_on channel=0 note=85 velocity=0 time=0
note_on channel=0 note=37 velocity=0 time=6
control_change channel=0 control=64 value=110 time=9
control_change channel=0 control=64 value=127 time=15
control_change channel=0 control=64 value=84 time=261
control_change channel=0 control=64 value=0 time=15
note_on channel=0 note=42 velocity=98 time=24
note_on channel=0 note=30 velocity=86 time=2
note_on channel=0 note=37 velocity=90 time=3
note_on channel=0 note=78 velocity=110 time=0
note_on channel=0 note=33 velocity=75 time=1
note_on channel=0 note=81 velocity=80 time=2
note_on channel=0 note=85 velocity=96 time=0
note_on channel=0 note=90 velocity=102 time=0
control_change channel=0 control=64 value=68 time=14
control_change channel=0 control=64 value=127 time=14
note_on channel=0 note=78 velocity=0 time=20
note_on channel=0 note=81 velocity=0 time=8
note_on channel=0 note=30 velocity=0 time=6
note_on channel=0 note=42 velocity=0 time=0
note_on channel=0 note=90 velocity=0 time=7
note_on channel=0 note=85 velocity=0 time=4
note_on channel=0 note=33 velocity=0 time=4
note_on channel=0 note=37 velocity=0 time=2
note_on channel=0 note=57 velocity=78 time=430
note_on channel=0 note=81 velocity=90 time=0
note_on channel=0 note=69 velocity=84 time=2
note_on channel=0 note=45 velocity=62 time=7
note_on channel=0 note=69 velocity=0 time=14
note_on channel=0 note=57 velocity=0 time=1
note_on channel=0 note=81 velocity=0 time=6
note_on channel=0 note=45 velocity=0 time=8
note_on channel=0 note=47 velocity=89 time=74
note_on channel=0 note=59 velocity=86 time=0
note_on channel=0 note=71 velocity=96 time=3
note_on channel=0 note=83 velocity=100 time=1
note_on channel=0 note=59 velocity=0 time=17
note_on channel=0 note=71 velocity=0 time=2
note_on channel=0 note=47 velocity=0 time=1
note_on channel=0 note=83 velocity=0 time=11
note_on channel=0 note=61 velocity=90 time=65
note_on channel=0 note=49 velocity=88 time=1
note_on channel=0 note=73 velocity=98 time=12
note_on channel=0 note=85 velocity=101 time=2
note_on channel=0 note=61 velocity=0 time=5
note_on channel=0 note=49 velocity=0 time=6
note_on channel=0 note=48 velocity=48 time=8
note_on channel=0 note=85 velocity=0 time=7
note_on channel=0 note=73 velocity=0 time=2
note_on channel=0 note=48 velocity=0 time=22
note_on channel=0 note=42 velocity=93 time=49
note_on channel=0 note=54 velocity=94 time=0
control_change channel=0 control=64 value=95 time=8
note_on channel=0 note=66 velocity=104 time=1
note_on channel=0 note=78 velocity=105 time=0
note_on channel=0 note=54 velocity=0 time=12
control_change channel=0 control=64 value=64 time=3
note_on channel=0 note=44 velocity=51 time=4
note_on channel=0 note=42 velocity=0 time=1
note_on channel=0 note=66 velocity=0 time=8
control_change channel=0 control=64 value=0 time=1
note_on channel=0 note=78 velocity=0 time=5
note_on channel=0 note=44 velocity=0 time=16
note_on channel=0 note=56 velocity=99 time=60
note_on channel=0 note=44 velocity=91 time=2
note_on channel=0 note=68 velocity=94 time=6
note_on channel=0 note=80 velocity=100 time=0
note_on channel=0 note=46 velocity=48 time=27
note_on channel=0 note=46 velocity=0 time=1
note_on channel=0 note=56 velocity=0 time=4
note_on channel=0 note=68 velocity=0 time=3
note_on channel=0 note=44 velocity=0 time=4
note_on channel=0 note=80 velocity=0 time=0
note_on channel=0 note=57 velocity=99 time=134
note_on channel=0 note=69 velocity=99 time=0
note_on channel=0 note=81 velocity=106 time=0
note_on channel=0 note=45 velocity=96 time=2
note_on channel=0 note=52 velocity=37 time=44
note_on channel=0 note=52 velocity=0 time=1
control_change channel=0 control=64 value=34 time=581
control_change channel=0 control=64 value=54 time=16
control_change channel=0 control=64 value=63 time=22
control_change channel=0 control=64 value=66 time=16
control_change channel=0 control=64 value=68 time=15
control_change channel=0 control=64 value=69 time=14
control_change channel=0 control=64 value=71 time=16
control_change channel=0 control=64 value=73 time=15
control_change channel=0 control=64 value=77 time=16
control_change channel=0 control=64 value=80 time=15
control_change channel=0 control=64 value=82 time=14
control_change channel=0 control=64 value=84 time=16
control_change channel=0 control=64 value=86 time=15
control_change channel=0 control=64 value=88 time=15
note_on channel=0 note=45 velocity=0 time=13
control_change channel=0 control=64 value=90 time=2
control_change channel=0 control=64 value=92 time=15
control_change channel=0 control=64 value=95 time=16
note_on channel=0 note=81 velocity=0 time=7
control_change channel=0 control=64 value=97 time=8
control_change channel=0 control=64 value=99 time=15
control_change channel=0 control=64 value=101 time=15
control_change channel=0 control=64 value=102 time=15
control_change channel=0 control=64 value=102 time=16
control_change channel=0 control=64 value=103 time=15
control_change channel=0 control=64 value=104 time=15
control_change channel=0 control=64 value=106 time=17
note_on channel=0 note=57 velocity=0 time=7
note_on channel=0 note=69 velocity=0 time=3
control_change channel=0 control=64 value=106 time=4
control_change channel=0 control=64 value=107 time=15
control_change channel=0 control=64 value=107 time=47
control_change channel=0 control=64 value=109 time=29
control_change channel=0 control=64 value=112 time=16
control_change channel=0 control=64 value=117 time=15
control_change channel=0 control=64 value=127 time=14
control_change channel=0 control=64 value=102 time=62
control_change channel=0 control=64 value=79 time=14
note_on channel=0 note=54 velocity=92 time=3
note_on channel=0 note=74 velocity=93 time=2
note_on channel=0 note=62 velocity=92 time=8
note_on channel=0 note=66 velocity=98 time=0
control_change channel=0 control=64 value=64 time=3
control_change channel=0 control=64 value=65 time=15
control_change channel=0 control=64 value=71 time=16
control_change channel=0 control=64 value=76 time=15
control_change channel=0 control=64 value=84 time=15
control_change channel=0 control=64 value=94 time=16
note_on channel=0 note=66 velocity=0 time=9
control_change channel=0 control=64 value=109 time=6
control_change channel=0 control=64 value=127 time=14
note_on channel=0 note=54 velocity=0 time=1
note_on channel=0 note=74 velocity=0 time=13
note_on channel=0 note=62 velocity=0 time=16
control_change channel=0 control=64 value=103 time=32
note_on channel=0 note=64 velocity=96 time=0
note_on channel=0 note=76 velocity=97 time=3
note_on channel=0 note=57 velocity=80 time=5
note_on channel=0 note=69 velocity=87 time=0
control_change channel=0 control=64 value=78 time=13
note_on channel=0 note=62 velocity=30 time=10
control_change channel=0 control=64 value=62 time=6
control_change channel=0 control=64 value=65 time=15
note_on channel=0 note=62 velocity=0 time=0
note_on channel=0 note=64 velocity=0 time=3
note_on channel=0 note=69 velocity=0 time=6
control_change channel=0 control=64 value=73 time=7
note_on channel=0 note=76 velocity=0 time=9
control_change channel=0 control=64 value=79 time=6
control_change channel=0 control=64 value=86 time=15
control_change channel=0 control=64 value=95 time=16
control_change channel=0 control=64 value=106 time=14
note_on channel=0 note=62 velocity=72 time=13
control_change channel=0 control=64 value=123 time=3
note_on channel=0 note=57 velocity=0 time=2
note_on channel=0 note=66 velocity=95 time=0
note_on channel=0 note=78 velocity=102 time=0
control_change channel=0 control=64 value=127 time=13
note_on channel=0 note=74 velocity=66 time=0
note_on channel=0 note=66 velocity=0 time=26
note_on channel=0 note=78 velocity=0 time=2
note_on channel=0 note=74 velocity=0 time=1
note_on channel=0 note=62 velocity=0 time=4
note_on channel=0 note=50 velocity=78 time=92
note_on channel=0 note=66 velocity=95 time=0
note_on channel=0 note=54 velocity=82 time=2
note_on channel=0 note=62 velocity=86 time=3
control_change channel=0 control=64 value=101 time=6
control_change channel=0 control=64 value=72 time=16
note_on channel=0 note=62 velocity=0 time=2
note_on channel=0 note=50 velocity=0 time=10
note_on channel=0 note=54 velocity=0 time=2
control_change channel=0 control=64 value=0 time=1
note_on channel=0 note=66 velocity=0 time=10
note_on channel=0 note=64 velocity=90 time=69
note_on channel=0 note=52 velocity=73 time=1
note_on channel=0 note=68 velocity=92 time=1
note_on channel=0 note=56 velocity=81 time=3
note_on channel=0 note=64 velocity=0 time=37
note_on channel=0 note=52 velocity=0 time=11
note_on channel=0 note=56 velocity=0 time=1
note_on channel=0 note=68 velocity=0 time=15
note_on channel=0 note=54 velocity=90 time=71
note_on channel=0 note=69 velocity=103 time=0
note_on channel=0 note=57 velocity=91 time=3
note_on channel=0 note=66 velocity=94 time=0
control_change channel=0 control=64 value=14 time=393
control_change channel=0 control=64 value=51 time=16
control_change channel=0 control=64 value=63 time=15
control_change channel=0 control=64 value=66 time=16
control_change channel=0 control=64 value=68 time=15
control_change channel=0 control=64 value=71 time=15
control_change channel=0 control=64 value=74 time=16
control_change channel=0 control=64 value=77 time=15
control_change channel=0 control=64 value=82 time=16
control_change channel=0 control=64 value=85 time=14
control_change channel=0 control=64 value=89 time=15
control_change channel=0 control=64 value=92 time=16
control_change channel=0 control=64 value=96 time=14
control_change channel=0 control=64 value=100 time=15
control_change channel=0 control=64 value=104 time=16
note_on channel=0 note=66 velocity=0 time=0
note_on channel=0 note=69 velocity=0 time=6
control_change channel=0 control=64 value=109 time=9
note_on channel=0 note=54 velocity=0 time=0
note_on channel=0 note=57 velocity=0 time=4
control_change channel=0 control=64 value=117 time=12
control_change channel=0 control=64 value=127 time=14
note_on channel=0 note=66 velocity=91 time=221
control_change channel=0 control=64 value=88 time=7
note_on channel=0 note=54 velocity=74 time=0
note_on channel=0 note=62 velocity=79 time=0
note_on channel=0 note=50 velocity=70 time=1
control_change channel=0 control=64 value=53 time=14
note_on channel=0 note=62 velocity=0 time=11
note_on channel=0 note=54 velocity=0 time=1
control_change channel=0 control=64 value=0 time=3
note_on channel=0 note=50 velocity=0 time=5
note_on channel=0 note=66 velocity=0 time=6
note_on channel=0 note=68 velocity=100 time=92
note_on channel=0 note=64 velocity=78 time=5
note_on channel=0 note=52 velocity=71 time=3
note_on channel=0 note=56 velocity=84 time=1
note_on channel=0 note=64 velocity=0 time=20
note_on channel=0 note=52 velocity=0 time=19
note_on channel=0 note=56 velocity=0 time=2
note_on channel=0 note=68 velocity=0 time=6
note_on channel=0 note=69 velocity=92 time=96
note_on channel=0 note=57 velocity=94 time=4
note_on channel=0 note=66 velocity=91 time=0
note_on channel=0 note=54 velocity=84 time=1
control_change channel=0 control=64 value=28 time=448
control_change channel=0 control=64 value=51 time=15
control_change channel=0 control=64 value=59 time=15
control_change channel=0 control=64 value=63 time=15
control_change channel=0 control=64 value=65 time=16
control_change channel=0 control=64 value=68 time=15
control_change channel=0 control=64 value=69 time=15
control_change channel=0 control=64 value=71 time=15
control_change channel=0 control=64 value=73 time=15
control_change channel=0 control=64 value=76 time=16
control_change channel=0 control=64 value=79 time=22
control_change channel=0 control=64 value=81 time=15
control_change channel=0 control=64 value=83 time=16
control_change channel=0 control=64 value=85 time=15
control_change channel=0 control=64 value=88 time=16
control_change channel=0 control=64 value=90 time=14
control_change channel=0 control=64 value=93 time=15
control_change channel=0 control=64 value=94 time=16
control_change channel=0 control=64 value=95 time=15
note_on channel=0 note=54 velocity=0 time=8
control_change channel=0 control=64 value=96 time=8
note_on channel=0 note=66 velocity=0 time=2
note_on channel=0 note=69 velocity=0 time=5
note_on channel=0 note=57 velocity=0 time=19
control_change channel=0 control=64 value=96 time=19
control_change channel=0 control=64 value=96 time=198
note_on channel=0 note=66 velocity=75 time=2
note_on channel=0 note=62 velocity=70 time=3
note_on channel=0 note=50 velocity=69 time=2
note_on channel=0 note=54 velocity=66 time=5
control_change channel=0 control=64 value=94 time=3
control_change channel=0 control=64 value=92 time=14
note_on channel=0 note=62 velocity=0 time=5
note_on channel=0 note=54 velocity=0 time=9
control_change channel=0 control=64 value=88 time=2
note_on channel=0 note=66 velocity=0 time=11
note_on channel=0 note=50 velocity=0 time=3
control_change channel=0 control=64 value=83 time=1
control_change channel=0 control=64 value=76 time=15
control_change channel=0 control=64 value=71 time=16
control_change channel=0 control=64 value=66 time=14
control_change channel=0 control=64 value=62 time=16
control_change channel=0 control=64 value=57 time=15
note_on channel=0 note=68 velocity=76 time=33
note_on channel=0 note=64 velocity=70 time=7
note_on channel=0 note=52 velocity=67 time=2
note_on channel=0 note=56 velocity=73 time=2
control_change channel=0 control=64 value=56 time=3
control_change channel=0 control=64 value=49 time=16
note_on channel=0 note=64 velocity=0 time=6
control_change channel=0 control=64 value=11 time=8
note_on channel=0 note=56 velocity=0 time=4
note_on channel=0 note=52 velocity=0 time=10
note_on channel=0 note=68 velocity=0 time=0
control_change channel=0 control=64 value=0 time=1
note_on channel=0 note=69 velocity=75 time=121
note_on channel=0 note=57 velocity=71 time=5
note_on channel=0 note=66 velocity=58 time=7
note_on channel=0 note=54 velocity=62 time=2
note_on channel=0 note=57 velocity=0 time=40
note_on channel=0 note=66 velocity=0 time=0
note_on channel=0 note=54 velocity=0 time=2
note_on channel=0 note=69 velocity=0 time=23
note_on channel=0 note=66 velocity=72 time=131
note_on channel=0 note=50 velocity=64 time=3
note_on channel=0 note=54 velocity=66 time=1
note_on channel=0 note=62 velocity=60 time=3
note_on channel=0 note=54 velocity=0 time=37
note_on channel=0 note=62 velocity=0 time=0
note_on channel=0 note=50 velocity=0 time=17
note_on channel=0 note=66 velocity=0 time=3
note_on channel=0 note=56 velocity=83 time=97
note_on channel=0 note=68 velocity=75 time=0
note_on channel=0 note=64 velocity=71 time=3
note_on channel=0 note=52 velocity=69 time=3
note_on channel=0 note=64 velocity=0 time=29
note_on channel=0 note=52 velocity=0 time=11
note_on channel=0 note=56 velocity=0 time=5
note_on channel=0 note=68 velocity=0 time=15
control_change channel=0 control=64 value=36 time=41
control_change channel=0 control=64 value=44 time=16
control_change channel=0 control=64 value=44 time=15
note_on channel=0 note=57 velocity=89 time=13
control_change channel=0 control=64 value=43 time=1
note_on channel=0 note=69 velocity=83 time=0
note_on channel=0 note=54 velocity=80 time=6
note_on channel=0 note=66 velocity=72 time=6
control_change channel=0 control=64 value=35 time=4
control_change channel=0 control=64 value=30 time=15
control_change channel=0 control=64 value=28 time=16
note_on channel=0 note=57 velocity=0 time=1
note_on channel=0 note=66 velocity=0 time=4
note_on channel=0 note=54 velocity=0 time=7
note_on channel=0 note=69 velocity=0 time=10
control_change channel=0 control=64 value=32 time=23
control_change channel=0 control=64 value=42 time=16
control_change channel=0 control=64 value=45 time=15
control_change channel=0 control=64 value=42 time=16
control_change channel=0 control=64 value=23 time=15
note_on channel=0 note=54 velocity=85 time=5
note_on channel=0 note=66 velocity=80 time=0
note_on channel=0 note=62 velocity=78 time=2
note_on channel=0 note=50 velocity=80 time=2
control_change channel=0 control=64 value=0 time=7
note_on channel=0 note=54 velocity=0 time=45
note_on channel=0 note=62 velocity=0 time=3
note_on channel=0 note=50 velocity=0 time=5
note_on channel=0 note=66 velocity=0 time=11
control_change channel=0 control=64 value=11 time=11
control_change channel=0 control=64 value=39 time=15
control_change channel=0 control=64 value=48 time=23
control_change channel=0 control=64 value=49 time=16
control_change channel=0 control=64 value=40 time=14
note_on channel=0 note=68 velocity=88 time=4
note_on channel=0 note=56 velocity=92 time=2
note_on channel=0 note=64 velocity=86 time=2
note_on channel=0 note=52 velocity=82 time=2
control_change channel=0 control=64 value=14 time=6
control_change channel=0 control=64 value=0 time=15
note_on channel=0 note=64 velocity=0 time=27
note_on channel=0 note=56 velocity=0 time=8
note_on channel=0 note=52 velocity=0 time=3
control_change channel=0 control=64 value=30 time=7
note_on channel=0 note=68 velocity=0 time=11
control_change channel=0 control=64 value=50 time=4
control_change channel=0 control=64 value=61 time=16
control_change channel=0 control=64 value=63 time=14
control_change channel=0 control=64 value=61 time=16
control_change channel=0 control=64 value=51 time=15
note_on channel=0 note=69 velocity=92 time=3
note_on channel=0 note=57 velocity=92 time=1
note_on channel=0 note=54 velocity=82 time=2
note_on channel=0 note=66 velocity=83 time=3
control_change channel=0 control=64 value=0 time=6
control_change channel=0 control=64 value=28 time=46
note_on channel=0 note=54 velocity=0 time=12
note_on channel=0 note=57 velocity=0 time=1
control_change channel=0 control=64 value=47 time=2
note_on channel=0 note=66 velocity=0 time=8
control_change channel=0 control=64 value=57 time=6
note_on channel=0 note=69 velocity=0 time=0
control_change channel=0 control=64 value=63 time=16
control_change channel=0 control=64 value=64 time=15
control_change channel=0 control=64 value=61 time=15
control_change channel=0 control=64 value=46 time=16
control_change channel=0 control=64 value=0 time=15
note_on channel=0 note=54 velocity=89 time=7
note_on channel=0 note=62 velocity=86 time=2
note_on channel=0 note=66 velocity=97 time=1
note_on channel=0 note=50 velocity=81 time=2
control_change channel=0 control=64 value=17 time=34
control_change channel=0 control=64 value=40 time=16
note_on channel=0 note=62 velocity=0 time=12
control_change channel=0 control=64 value=51 time=2
note_on channel=0 note=54 velocity=0 time=4
note_on channel=0 note=50 velocity=0 time=2
control_change channel=0 control=64 value=57 time=9
note_on channel=0 note=66 velocity=0 time=13
control_change channel=0 control=64 value=61 time=3
control_change channel=0 control=64 value=63 time=15
control_change channel=0 control=64 value=64 time=15
control_change channel=0 control=64 value=63 time=15
control_change channel=0 control=64 value=54 time=15
control_change channel=0 control=64 value=0 time=16
note_on channel=0 note=57 velocity=89 time=2
note_on channel=0 note=54 velocity=81 time=2
note_on channel=0 note=69 velocity=88 time=3
note_on channel=0 note=66 velocity=86 time=2
note_on channel=0 note=57 velocity=0 time=53
control_change channel=0 control=64 value=27 time=14
note_on channel=0 note=54 velocity=0 time=4
note_on channel=0 note=66 velocity=0 time=1
control_change channel=0 control=64 value=46 time=10
note_on channel=0 note=69 velocity=0 time=12
control_change channel=0 control=64 value=54 time=4
control_change channel=0 control=64 value=60 time=16
control_change channel=0 control=64 value=63 time=15
control_change channel=0 control=64 value=64 time=16
control_change channel=0 control=64 value=64 time=15
control_change channel=0 control=64 value=56 time=14
control_change channel=0 control=64 value=0 time=16
note_on channel=0 note=74 velocity=94 time=18
note_on channel=0 note=62 velocity=81 time=4
note_on channel=0 note=71 velocity=89 time=0
note_on channel=0 note=59 velocity=74 time=3
control_change channel=0 control=64 value=37 time=89
note_on channel=0 note=71 velocity=0 time=9
note_on channel=0 note=59 velocity=0 time=4
control_change channel=0 control=64 value=55 time=2
note_on channel=0 note=62 velocity=0 time=3
note_on channel=0 note=74 velocity=0 time=1
control_change channel=0 control=64 value=60 time=11
control_change channel=0 control=64 value=61 time=16
control_change channel=0 control=64 value=61 time=45
control_change channel=0 control=64 value=62 time=15
control_change channel=0 control=64 value=60 time=16
control_change channel=0 control=64 value=50 time=15
control_change channel=0 control=64 value=0 time=14
note_on channel=0 note=71 velocity=88 time=51
note_on channel=0 note=59 velocity=77 time=2
note_on channel=0 note=68 velocity=83 time=3
note_on channel=0 note=56 velocity=70 time=17
control_change channel=0 control=64 value=40 time=19
control_change channel=0 control=64 value=57 time=15
control_change channel=0 control=64 value=61 time=15
note_on channel=0 note=59 velocity=0 time=14
control_change channel=0 control=64 value=63 time=1
control_change channel=0 control=64 value=63 time=15
note_on channel=0 note=68 velocity=0 time=0
note_on channel=0 note=56 velocity=0 time=4
note_on channel=0 note=71 velocity=0 time=6
control_change channel=0 control=64 value=64 time=6
control_change channel=0 control=64 value=65 time=15
control_change channel=0 control=64 value=65 time=30
control_change channel=0 control=64 value=65 time=30
control_change channel=0 control=64 value=62 time=16
control_change channel=0 control=64 value=49 time=14
control_change channel=0 control=64 value=0 time=16
note_on channel=0 note=68 velocity=88 time=32
note_on channel=0 note=56 velocity=81 time=2
note_on channel=0 note=64 velocity=77 time=4
note_on channel=0 note=52 velocity=68 time=2
control_change channel=0 control=64 value=36 time=21
control_change channel=0 control=64 value=51 time=15
control_change channel=0 control=64 value=59 time=16
note_on channel=0 note=56 velocity=0 time=0
note_on channel=0 note=52 velocity=0 time=10
control_change channel=0 control=64 value=63 time=4
control_change channel=0 control=64 value=65 time=16
note_on channel=0 note=64 velocity=0 time=2
note_on channel=0 note=68 velocity=0 time=7
control_change channel=0 control=64 value=66 time=6
control_change channel=0 control=64 value=67 time=15
control_change channel=0 control=64 value=68 time=16
control_change channel=0 control=64 value=69 time=15
control_change channel=0 control=64 value=71 time=16
control_change channel=0 control=64 value=69 time=53
control_change channel=0 control=64 value=63 time=15
control_change channel=0 control=64 value=0 time=15
note_on channel=0 note=54 velocity=89 time=20
note_on channel=0 note=66 velocity=94 time=0
note_on channel=0 note=50 velocity=77 time=6
note_on channel=0 note=62 velocity=71 time=1
control_change channel=0 control=64 value=53 time=49
note_on channel=0 note=62 velocity=0 time=13
control_change channel=0 control=64 value=62 time=2
control_change channel=0 control=64 value=64 time=15
note_on channel=0 note=54 velocity=0 time=12
control_change channel=0 control=64 value=65 time=4
note_on channel=0 note=50 velocity=0 time=12
control_change channel=0 control=64 value=66 time=3
note_on channel=0 note=66 velocity=0 time=16
control_change channel=0 control=64 value=66 time=29
control_change channel=0 control=64 value=65 time=16
control_change channel=0 control=64 value=49 time=15
control_change channel=0 control=64 value=0 time=15
note_on channel=0 note=63 velocity=74 time=56
note_on channel=0 note=50 velocity=81 time=3
note_on channel=0 note=47 velocity=77 time=6
note_on channel=0 note=62 velocity=91 time=0
note_on channel=0 note=59 velocity=78 time=3
note_on channel=0 note=63 velocity=0 time=14
control_change channel=0 control=64 value=40 time=10
control_change channel=0 control=64 value=64 time=15
note_on channel=0 note=59 velocity=0 time=4
control_change channel=0 control=64 value=66 time=10
note_on channel=0 note=62 velocity=0 time=0
note_on channel=0 note=50 velocity=0 time=10
note_on channel=0 note=47 velocity=0 time=26
control_change channel=0 control=64 value=67 time=25
control_change channel=0 control=64 value=68 time=15
control_change channel=0 control=64 value=67 time=16
control_change channel=0 control=64 value=66 time=15
control_change channel=0 control=64 value=65 time=15
control_change channel=0 control=64 value=63 time=15
control_change channel=0 control=64 value=38 time=15
control_change channel=0 control=64 value=0 time=16
note_on channel=0 note=47 velocity=81 time=63
note_on channel=0 note=44 velocity=79 time=5
note_on channel=0 note=59 velocity=95 time=0
note_on channel=0 note=56 velocity=90 time=3
control_change channel=0 control=64 value=52 time=4
control_change channel=0 control=64 value=72 time=16
note_on channel=0 note=47 velocity=0 time=9
control_change channel=0 control=64 value=80 time=5
note_on channel=0 note=56 velocity=0 time=3
note_on channel=0 note=59 velocity=0 time=9
note_on channel=0 note=44 velocity=0 time=2
control_change channel=0 control=64 value=85 time=2
control_change channel=0 control=64 value=85 time=15
control_change channel=0 control=64 value=85 time=31
control_change channel=0 control=64 value=83 time=15
control_change channel=0 control=64 value=83 time=15
control_change channel=0 control=64 value=81 time=24
control_change channel=0 control=64 value=77 time=15
control_change channel=0 control=64 value=69 time=16
control_change channel=0 control=64 value=41 time=14
control_change channel=0 control=64 value=0 time=16
note_on channel=0 note=44 velocity=94 time=99
note_on channel=0 note=56 velocity=102 time=0
note_on channel=0 note=52 velocity=91 time=1
note_on channel=0 note=40 velocity=82 time=5
control_change channel=0 control=64 value=49 time=1
control_change channel=0 control=64 value=76 time=15
note_on channel=0 note=52 velocity=0 time=3
control_change channel=0 control=64 value=92 time=12
note_on channel=0 note=40 velocity=0 time=0
note_on channel=0 note=44 velocity=0 time=2
note_on channel=0 note=56 velocity=0 time=6
control_change channel=0 control=64 value=127 time=7
control_change channel=0 control=64 value=113 time=335
control_change channel=0 control=64 value=102 time=15
control_change channel=0 control=64 value=95 time=16
control_change channel=0 control=64 value=91 time=14
control_change channel=0 control=64 value=85 time=15
control_change channel=0 control=64 value=71 time=16
control_change channel=0 control=64 value=0 time=14
note_on channel=0 note=54 velocity=96 time=369
note_on channel=0 note=50 velocity=88 time=3
note_on channel=0 note=42 velocity=91 time=3
note_on channel=0 note=38 velocity=82 time=6
control_change channel=0 control=64 value=68 time=8
note_on channel=0 note=50 velocity=0 time=7
control_change channel=0 control=64 value=87 time=8
note_on channel=0 note=38 velocity=0 time=5
note_on channel=0 note=42 velocity=0 time=0
note_on channel=0 note=54 velocity=0 time=4
control_change channel=0 control=64 value=111 time=6
control_change channel=0 control=64 value=127 time=15
control_change channel=0 control=64 value=113 time=259
control_change channel=0 control=64 value=101 time=16
control_change channel=0 control=64 value=93 time=14
control_change channel=0 control=64 value=86 time=15
control_change channel=0 control=64 value=78 time=16
control_change channel=0 control=64 value=68 time=15
control_change channel=0 control=64 value=0 time=16
note_on channel=0 note=53 velocity=92 time=867
note_on channel=0 note=41 velocity=89 time=4
note_on channel=0 note=37 velocity=76 time=9
note_on channel=0 note=49 velocity=82 time=2
control_change channel=0 control=64 value=14 time=579
control_change channel=0 control=64 value=41 time=16
control_change channel=0 control=64 value=52 time=15
control_change channel=0 control=64 value=59 time=14
control_change channel=0 control=64 value=62 time=16
control_change channel=0 control=64 value=64 time=15
control_change channel=0 control=64 value=65 time=16
control_change channel=0 control=64 value=67 time=15
control_change channel=0 control=64 value=68 time=15
control_change channel=0 control=64 value=69 time=16
control_change channel=0 control=64 value=70 time=14
control_change channel=0 control=64 value=71 time=16
control_change channel=0 control=67 value=8 time=0
control_change channel=0 control=64 value=72 time=22
control_change channel=0 control=67 value=8 time=0
control_change channel=0 control=64 value=74 time=15
control_change channel=0 control=64 value=76 time=15
control_change channel=0 control=64 value=77 time=15
control_change channel=0 control=67 value=9 time=0
control_change channel=0 control=64 value=78 time=16
control_change channel=0 control=67 value=10 time=0
control_change channel=0 control=64 value=79 time=15
control_change channel=0 control=67 value=12 time=0
control_change channel=0 control=64 value=80 time=15
control_change channel=0 control=67 value=13 time=0
control_change channel=0 control=64 value=82 time=16
control_change channel=0 control=67 value=13 time=0
control_change channel=0 control=64 value=84 time=15
control_change channel=0 control=67 value=14 time=0
control_change channel=0 control=64 value=85 time=16
control_change channel=0 control=67 value=15 time=0
control_change channel=0 control=64 value=86 time=15
control_change channel=0 control=67 value=15 time=0
control_change channel=0 control=64 value=87 time=15
control_change channel=0 control=64 value=88 time=16
control_change channel=0 control=67 value=16 time=0
control_change channel=0 control=64 value=88 time=15
control_change channel=0 control=64 value=89 time=14
control_change channel=0 control=67 value=16 time=0
control_change channel=0 control=64 value=90 time=16
control_change channel=0 control=67 value=17 time=0
control_change channel=0 control=64 value=91 time=15
control_change channel=0 control=67 value=17 time=0
control_change channel=0 control=67 value=19 time=16
control_change channel=0 control=67 value=19 time=15
control_change channel=0 control=67 value=20 time=15
control_change channel=0 control=64 value=92 time=16
control_change channel=0 control=67 value=21 time=0
control_change channel=0 control=67 value=23 time=15
control_change channel=0 control=67 value=26 time=14
control_change channel=0 control=67 value=28 time=16
control_change channel=0 control=67 value=30 time=15
control_change channel=0 control=67 value=31 time=16
control_change channel=0 control=67 value=32 time=15
control_change channel=0 control=67 value=33 time=14
control_change channel=0 control=67 value=34 time=16
control_change channel=0 control=67 value=35 time=15
control_change channel=0 control=67 value=36 time=14
control_change channel=0 control=67 value=37 time=16
control_change channel=0 control=67 value=38 time=15
control_change channel=0 control=67 value=40 time=16
control_change channel=0 control=67 value=41 time=15
control_change channel=0 control=67 value=42 time=14
control_change channel=0 control=67 value=42 time=16
control_change channel=0 control=67 value=43 time=15
control_change channel=0 control=67 value=45 time=16
control_change channel=0 control=67 value=46 time=15
control_change channel=0 control=67 value=48 time=14
control_change channel=0 control=67 value=48 time=16
control_change channel=0 control=67 value=49 time=15
control_change channel=0 control=67 value=51 time=14
control_change channel=0 control=67 value=52 time=16
control_change channel=0 control=67 value=54 time=15
control_change channel=0 control=67 value=54 time=16
control_change channel=0 control=67 value=55 time=15
control_change channel=0 control=67 value=56 time=15
control_change channel=0 control=67 value=58 time=16
control_change channel=0 control=67 value=59 time=22
control_change channel=0 control=67 value=60 time=16
control_change channel=0 control=67 value=61 time=15
control_change channel=0 control=67 value=63 time=14
control_change channel=0 control=67 value=65 time=16
control_change channel=0 control=67 value=66 time=15
control_change channel=0 control=67 value=68 time=16
control_change channel=0 control=67 value=69 time=14
control_change channel=0 control=67 value=71 time=15
control_change channel=0 control=67 value=73 time=16
control_change channel=0 control=67 value=75 time=15
control_change channel=0 control=67 value=77 time=15
control_change channel=0 control=67 value=79 time=16
control_change channel=0 control=67 value=81 time=15
control_change channel=0 control=67 value=83 time=15
control_change channel=0 control=67 value=85 time=16
control_change channel=0 control=67 value=87 time=15
control_change channel=0 control=67 value=89 time=16
control_change channel=0 control=67 value=92 time=15
control_change channel=0 control=67 value=96 time=15
control_change channel=0 control=67 value=98 time=15
control_change channel=0 control=67 value=101 time=15
control_change channel=0 control=67 value=103 time=16
control_change channel=0 control=67 value=106 time=15
control_change channel=0 control=67 value=109 time=14
control_change channel=0 control=67 value=112 time=16
control_change channel=0 control=67 value=115 time=15
control_change channel=0 control=67 value=118 time=16
control_change channel=0 control=67 value=121 time=15
control_change channel=0 control=67 value=123 time=15
control_change channel=0 control=67 value=126 time=16
control_change channel=0 control=67 value=127 time=15
control_change channel=0 control=64 value=91 time=183
control_change channel=0 control=64 value=91 time=371
control_change channel=0 control=64 value=90 time=108
control_change channel=0 control=64 value=90 time=212
note_on channel=0 note=37 velocity=0 time=104
control_change channel=0 control=64 value=89 time=17
note_on channel=0 note=49 velocity=0 time=23
note_on channel=0 note=53 velocity=0 time=58
note_on channel=0 note=41 velocity=0 time=104
control_change channel=0 control=64 value=89 time=20
control_change channel=0 control=64 value=88 time=45
control_change channel=0 control=64 value=88 time=62
control_change channel=0 control=64 value=87 time=60
control_change channel=0 control=64 value=87 time=77
control_change channel=0 control=64 value=86 time=61
control_change channel=0 control=64 value=85 time=30
control_change channel=0 control=64 value=85 time=15
control_change channel=0 control=64 value=84 time=15
control_change channel=0 control=64 value=84 time=77
control_change channel=0 control=64 value=83 time=15
control_change channel=0 control=64 value=82 time=15
control_change channel=0 control=64 value=81 time=15
control_change channel=0 control=64 value=80 time=16
control_change channel=0 control=64 value=80 time=15
control_change channel=0 control=64 value=79 time=15
control_change channel=0 control=64 value=78 time=15
control_change channel=0 control=64 value=77 time=15
control_change channel=0 control=64 value=76 time=16
control_change channel=0 control=64 value=75 time=15
control_change channel=0 control=64 value=74 time=15
control_change channel=0 control=64 value=73 time=22
control_change channel=0 control=64 value=72 time=15
control_change channel=0 control=64 value=71 time=16
control_change channel=0 control=64 value=70 time=15
control_change channel=0 control=64 value=69 time=15
control_change channel=0 control=64 value=69 time=16
control_change channel=0 control=64 value=68 time=15
control_change channel=0 control=64 value=68 time=31
control_change channel=0 control=64 value=67 time=14
control_change channel=0 control=64 value=67 time=16
control_change channel=0 control=64 value=66 time=45
control_change channel=0 control=64 value=66 time=15
control_change channel=0 control=64 value=65 time=16
control_change channel=0 control=64 value=65 time=29
control_change channel=0 control=64 value=64 time=16
control_change channel=0 control=64 value=64 time=30
control_change channel=0 control=64 value=63 time=16
control_change channel=0 control=64 value=62 time=30
control_change channel=0 control=64 value=61 time=15
control_change channel=0 control=64 value=59 time=16
control_change channel=0 control=64 value=59 time=16
control_change channel=0 control=64 value=58 time=30
control_change channel=0 control=64 value=55 time=15
control_change channel=0 control=64 value=49 time=15
control_change channel=0 control=64 value=47 time=16
control_change channel=0 control=64 value=46 time=29
control_change channel=0 control=64 value=39 time=16
control_change channel=0 control=64 value=0 time=15
note_on channel=0 note=30 velocity=27 time=127
control_change channel=0 control=64 value=27 time=442
control_change channel=0 control=64 value=40 time=16
control_change channel=0 control=64 value=48 time=15
control_change channel=0 control=64 value=53 time=16
control_change channel=0 control=64 value=57 time=15
control_change channel=0 control=64 value=59 time=14
control_change channel=0 control=64 value=60 time=16
control_change channel=0 control=64 value=62 time=16
note_on channel=0 note=33 velocity=33 time=4
control_change channel=0 control=64 value=63 time=12
control_change channel=0 control=64 value=64 time=15
control_change channel=0 control=64 value=65 time=14
control_change channel=0 control=64 value=66 time=16
control_change channel=0 control=64 value=67 time=15
control_change channel=0 control=64 value=67 time=15
control_change channel=0 control=64 value=68 time=16
control_change channel=0 control=64 value=69 time=14
control_change channel=0 control=64 value=70 time=16
control_change channel=0 control=64 value=71 time=15
control_change channel=0 control=64 value=73 time=15
control_change channel=0 control=64 value=74 time=16
control_change channel=0 control=64 value=76 time=15
control_change channel=0 control=64 value=77 time=15
control_change channel=0 control=64 value=79 time=16
control_change channel=0 control=64 value=80 time=14
control_change channel=0 control=64 value=82 time=16
control_change channel=0 control=64 value=83 time=15
control_change channel=0 control=64 value=84 time=15
control_change channel=0 control=64 value=83 time=145
note_on channel=0 note=36 velocity=46 time=14
control_change channel=0 control=64 value=81 time=1
control_change channel=0 control=64 value=77 time=15
control_change channel=0 control=64 value=72 time=15
control_change channel=0 control=64 value=66 time=15
control_change channel=0 control=64 value=63 time=16
control_change channel=0 control=64 value=64 time=15
control_change channel=0 control=64 value=65 time=15
control_change channel=0 control=64 value=66 time=15
control_change channel=0 control=64 value=68 time=15
control_change channel=0 control=64 value=70 time=16
control_change channel=0 control=64 value=72 time=15
control_change channel=0 control=64 value=74 time=15
control_change channel=0 control=64 value=76 time=15
control_change channel=0 control=64 value=78 time=15
note_on channel=0 note=33 velocity=0 time=3
control_change channel=0 control=64 value=80 time=13
control_change channel=0 control=64 value=82 time=15
control_change channel=0 control=64 value=84 time=15
control_change channel=0 control=67 value=127 time=0
control_change channel=0 control=64 value=87 time=15
note_on channel=0 note=37 velocity=51 time=6
control_change channel=0 control=64 value=89 time=9
note_on channel=0 note=36 velocity=0 time=0
control_change channel=0 control=64 value=92 time=16
control_change channel=0 control=64 value=93 time=15
note_on channel=0 note=37 velocity=0 time=4
control_change channel=0 control=67 value=127 time=27
note_on channel=0 note=30 velocity=0 time=38
control_change channel=0 control=64 value=92 time=23
control_change channel=0 control=64 value=87 time=15
note_on channel=0 note=37 velocity=44 time=13
control_change channel=0 control=64 value=77 time=2
note_on channel=0 note=56 velocity=56 time=5
note_on channel=0 note=49 velocity=40 time=2
note_on channel=0 note=53 velocity=44 time=0
control_change channel=0 control=64 value=64 time=8
control_change channel=0 control=64 value=0 time=16
control_change channel=0 control=64 value=30 time=58
control_change channel=0 control=64 value=50 time=16
control_change channel=0 control=64 value=57 time=15
control_change channel=0 control=64 value=61 time=15
control_change channel=0 control=67 value=127 time=0
control_change channel=0 control=64 value=64 time=16
control_change channel=0 control=67 value=126 time=0
control_change channel=0 control=64 value=66 time=14
control_change channel=0 control=64 value=67 time=16
control_change channel=0 control=67 value=125 time=0
control_change channel=0 control=64 value=68 time=15
control_change channel=0 control=64 value=70 time=22
control_change channel=0 control=67 value=125 time=0
control_change channel=0 control=64 value=71 time=16
control_change channel=0 control=67 value=123 time=0
control_change channel=0 control=64 value=73 time=15
control_change channel=0 control=67 value=121 time=0
control_change channel=0 control=64 value=75 time=16
control_change channel=0 control=67 value=119 time=0
note_on channel=0 note=53 velocity=0 time=5
control_change channel=0 control=64 value=77 time=10
control_change channel=0 control=67 value=119 time=0
note_on channel=0 note=56 velocity=0 time=11
control_change channel=0 control=64 value=79 time=3
control_change channel=0 control=67 value=117 time=0
control_change channel=0 control=64 value=80 time=16
control_change channel=0 control=67 value=116 time=0
control_change channel=0 control=64 value=81 time=15
control_change channel=0 control=67 value=114 time=0
control_change channel=0 control=64 value=83 time=16
control_change channel=0 control=67 value=113 time=0
control_change channel=0 control=64 value=84 time=15
control_change channel=0 control=67 value=112 time=0
control_change channel=0 control=64 value=86 time=14
control_change channel=0 control=67 value=110 time=0
control_change channel=0 control=64 value=87 time=16
control_change channel=0 control=67 value=109 time=0
control_change channel=0 control=64 value=89 time=15
control_change channel=0 control=67 value=106 time=0
control_change channel=0 control=64 value=90 time=15
control_change channel=0 control=67 value=104 time=0
note_on channel=0 note=56 velocity=57 time=3
note_on channel=0 note=49 velocity=0 time=9
note_on channel=0 note=61 velocity=63 time=2
control_change channel=0 control=64 value=91 time=2
control_change channel=0 control=67 value=101 time=0
note_on channel=0 note=53 velocity=43 time=5
control_change channel=0 control=64 value=92 time=10
control_change channel=0 control=67 value=98 time=0
control_change channel=0 control=64 value=93 time=15
control_change channel=0 control=67 value=97 time=0
control_change channel=0 control=64 value=94 time=15
control_change channel=0 control=67 value=96 time=0
control_change channel=0 control=64 value=94 time=15
control_change channel=0 control=67 value=93 time=0
control_change channel=0 control=64 value=95 time=16
control_change channel=0 control=67 value=90 time=0
note_on channel=0 note=53 velocity=0 time=8
control_change channel=0 control=67 value=88 time=7
control_change channel=0 control=64 value=95 time=15
control_change channel=0 control=67 value=85 time=0
control_change channel=0 control=64 value=96 time=15
control_change channel=0 control=67 value=82 time=0
note_on channel=0 note=56 velocity=0 time=12
control_change channel=0 control=64 value=96 time=3
control_change channel=0 control=67 value=80 time=0
note_on channel=0 note=61 velocity=0 time=1
control_change channel=0 control=67 value=79 time=15
control_change channel=0 control=67 value=77 time=15
control_change channel=0 control=67 value=75 time=15
control_change channel=0 control=64 value=97 time=15
control_change channel=0 control=67 value=74 time=0
control_change channel=0 control=67 value=73 time=15
control_change channel=0 control=67 value=72 time=31
control_change channel=0 control=67 value=72 time=15
control_change channel=0 control=67 value=71 time=15
control_change channel=0 control=67 value=70 time=15
control_change channel=0 control=67 value=70 time=15
control_change channel=0 control=67 value=69 time=17
control_change channel=0 control=64 value=94 time=15
control_change channel=0 control=67 value=69 time=0
control_change channel=0 control=64 value=91 time=16
control_change channel=0 control=67 value=68 time=0
control_change channel=0 control=64 value=89 time=15
control_change channel=0 control=67 value=68 time=0
control_change channel=0 control=67 value=67 time=30
control_change channel=0 control=67 value=67 time=15
note_on channel=0 note=65 velocity=58 time=4
note_on channel=0 note=56 velocity=45 time=9
control_change channel=0 control=64 value=89 time=1
note_on channel=0 note=62 velocity=42 time=7
note_on channel=0 note=59 velocity=27 time=3
control_change channel=0 control=64 value=90 time=6
control_change channel=0 control=67 value=66 time=0
control_change channel=0 control=64 value=92 time=15
control_change channel=0 control=67 value=66 time=0
control_change channel=0 control=64 value=93 time=16
control_change channel=0 control=67 value=65 time=0
control_change channel=0 control=64 value=94 time=15
control_change channel=0 control=67 value=64 time=0
note_on channel=0 note=62 velocity=0 time=5
control_change channel=0 control=67 value=63 time=9
note_on channel=0 note=59 velocity=0 time=5
control_change channel=0 control=67 value=62 time=11
control_change channel=0 control=64 value=94 time=15
control_change channel=0 control=67 value=62 time=0
control_change channel=0 control=64 value=95 time=23
control_change channel=0 control=64 value=95 time=15
control_change channel=0 control=67 value=61 time=0
control_change channel=0 control=67 value=61 time=15
control_change channel=0 control=67 value=59 time=16
note_on channel=0 note=56 velocity=0 time=7
control_change channel=0 control=67 value=58 time=8
control_change channel=0 control=67 value=57 time=15
control_change channel=0 control=67 value=56 time=15
control_change channel=0 control=67 value=56 time=15
control_change channel=0 control=67 value=54 time=16
control_change channel=0 control=67 value=54 time=15
note_on channel=0 note=65 velocity=0 time=27
control_change channel=0 control=67 value=53 time=3
note_on channel=0 note=66 velocity=62 time=23
note_on channel=0 note=57 velocity=52 time=4
note_on channel=0 note=61 velocity=47 time=14
note_on channel=0 note=57 velocity=0 time=13
note_on channel=0 note=61 velocity=0 time=16
note_on channel=0 note=66 velocity=0 time=3
control_change channel=0 control=64 value=95 time=3
control_change channel=0 control=64 value=94 time=15
control_change channel=0 control=64 value=93 time=14
control_change channel=0 control=64 value=92 time=16
control_change channel=0 control=64 value=90 time=15
control_change channel=0 control=67 value=54 time=0
control_change channel=0 control=64 value=87 time=16
control_change channel=0 control=64 value=80 time=15
control_change channel=0 control=67 value=54 time=0
note_on channel=0 note=57 velocity=39 time=0
control_change channel=0 control=64 value=70 time=15
note_on channel=0 note=30 velocity=35 time=1
note_on channel=0 note=66 velocity=49 time=2
note_on channel=0 note=61 velocity=17 time=7
control_change channel=0 control=64 value=46 time=6
control_change channel=0 control=67 value=55 time=0
control_change channel=0 control=64 value=0 time=15
note_on channel=0 note=37 velocity=0 time=5
note_on channel=0 note=61 velocity=0 time=123
control_change channel=0 control=67 value=55 time=24
control_change channel=0 control=64 value=36 time=30
control_change channel=0 control=64 value=54 time=15
control_change channel=0 control=64 value=62 time=17
control_change channel=0 control=67 value=56 time=0
control_change channel=0 control=64 value=64 time=15
control_change channel=0 control=64 value=64 time=15
control_change channel=0 control=67 value=56 time=0
control_change channel=0 control=64 value=65 time=15
control_change channel=0 control=64 value=67 time=15
control_change channel=0 control=67 value=57 time=0
control_change channel=0 control=64 value=69 time=15
control_change channel=0 control=64 value=71 time=16
control_change channel=0 control=64 value=71 time=15
control_change channel=0 control=64 value=72 time=15
control_change channel=0 control=67 value=57 time=0
control_change channel=0 control=64 value=73 time=15
control_change channel=0 control=64 value=75 time=15
control_change channel=0 control=64 value=77 time=23
control_change channel=0 control=67 value=58 time=0
note_on channel=0 note=33 velocity=44 time=14
control_change channel=0 control=64 value=78 time=1
control_change channel=0 control=67 value=58 time=16
control_change channel=0 control=64 value=78 time=15
control_change channel=0 control=64 value=79 time=15
control_change channel=0 control=67 value=59 time=0
control_change channel=0 control=64 value=80 time=15
control_change channel=0 control=64 value=82 time=15
control_change channel=0 control=67 value=59 time=0
control_change channel=0 control=64 value=82 time=16
control_change channel=0 control=67 value=60 time=0
control_change channel=0 control=67 value=60 time=30
note_on channel=0 note=57 velocity=0 time=25
control_change channel=0 control=64 value=83 time=5
control_change channel=0 control=64 value=83 time=15
control_change channel=0 control=67 value=61 time=16
note_on channel=0 note=66 velocity=0 time=15
control_change channel=0 control=67 value=61 time=61
note_on channel=0 note=30 velocity=0 time=39
control_change channel=0 control=64 value=83 time=6
control_change channel=0 control=64 value=82 time=31
control_change channel=0 control=64 value=82 time=14
control_change channel=0 control=64 value=81 time=15
control_change channel=0 control=64 value=79 time=16
control_change channel=0 control=64 value=74 time=15
control_change channel=0 control=64 value=67 time=16
note_on channel=0 note=36 velocity=50 time=13
control_change channel=0 control=64 value=46 time=2
control_change channel=0 control=64 value=14 time=15
control_change channel=0 control=64 value=34 time=15
control_change channel=0 control=64 value=42 time=15
control_change channel=0 control=64 value=47 time=15
control_change channel=0 control=67 value=61 time=0
control_change channel=0 control=64 value=53 time=16
control_change channel=0 control=64 value=58 time=15
control_change channel=0 control=67 value=60 time=0
control_change channel=0 control=64 value=62 time=16
control_change channel=0 control=67 value=60 time=0
control_change channel=0 control=64 value=64 time=14
control_change channel=0 control=64 value=66 time=15
control_change channel=0 control=67 value=59 time=0
control_change channel=0 control=64 value=68 time=16
note_on channel=0 note=33 velocity=0 time=13
control_change channel=0 control=64 value=70 time=1
control_change channel=0 control=67 value=59 time=0
control_change channel=0 control=64 value=71 time=15
control_change channel=0 control=67 value=58 time=0
control_change channel=0 control=64 value=74 time=17
control_change channel=0 control=64 value=76 time=15
control_change channel=0 control=64 value=78 time=16
control_change channel=0 control=64 value=80 time=15
control_change channel=0 control=64 value=82 time=15
note_on channel=0 note=36 velocity=0 time=6
note_on channel=0 note=37 velocity=58 time=3
control_change channel=0 control=64 value=83 time=6
control_change channel=0 control=64 value=84 time=15
note_on channel=0 note=37 velocity=0 time=14
control_change channel=0 control=64 value=85 time=2
control_change channel=0 control=64 value=84 time=67
control_change channel=0 control=64 value=83 time=16
control_change channel=0 control=67 value=59 time=0
control_change channel=0 control=64 value=79 time=15
control_change channel=0 control=67 value=59 time=0
control_change channel=0 control=64 value=73 time=15
note_on channel=0 note=53 velocity=41 time=2
note_on channel=0 note=62 velocity=54 time=1
note_on channel=0 note=37 velocity=40 time=1
note_on channel=0 note=56 velocity=32 time=7
note_on channel=0 note=59 velocity=39 time=1
control_change channel=0 control=64 value=63 time=4
control_change channel=0 control=64 value=0 time=15
control_change channel=0 control=64 value=21 time=91
control_change channel=0 control=64 value=46 time=15
control_change channel=0 control=64 value=56 time=15
control_change channel=0 control=64 value=62 time=16
control_change channel=0 control=64 value=64 time=15
control_change channel=0 control=64 value=65 time=14
control_change channel=0 control=67 value=58 time=0
control_change channel=0 control=64 value=66 time=16
control_change channel=0 control=64 value=67 time=15
control_change channel=0 control=67 value=58 time=0
control_change channel=0 control=64 value=69 time=15
control_change channel=0 control=67 value=57 time=0
control_change channel=0 control=64 value=70 time=16
control_change channel=0 control=67 value=57 time=0
control_change channel=0 control=64 value=72 time=14
control_change channel=0 control=67 value=56 time=0
control_change channel=0 control=64 value=74 time=16
note_on channel=0 note=56 velocity=0 time=5
control_change channel=0 control=64 value=75 time=10
control_change channel=0 control=67 value=56 time=0
note_on channel=0 note=59 velocity=0 time=13
control_change channel=0 control=64 value=77 time=2
control_change channel=0 control=64 value=78 time=16
control_change channel=0 control=67 value=55 time=0
control_change channel=0 control=64 value=80 time=14
note_on channel=0 note=53 velocity=0 time=9
control_change channel=0 control=64 value=81 time=6
control_change channel=0 control=67 value=55 time=0
note_on channel=0 note=62 velocity=0 time=13
control_change channel=0 control=64 value=83 time=3
control_change channel=0 control=67 value=54 time=0
control_change channel=0 control=64 value=84 time=15
control_change channel=0 control=64 value=86 time=15
control_change channel=0 control=64 value=86 time=15
control_change channel=0 control=67 value=54 time=15
note_on channel=0 note=59 velocity=49 time=1
note_on channel=0 note=65 velocity=60 time=2
note_on channel=0 note=56 velocity=48 time=11
control_change channel=0 control=67 value=53 time=17
control_change channel=0 control=67 value=53 time=16
control_change channel=0 control=64 value=87 time=15
control_change channel=0 control=67 value=52 time=61
control_change channel=0 control=64 value=87 time=15
note_on channel=0 note=59 velocity=0 time=4
note_on channel=0 note=56 velocity=0 time=1
control_change channel=0 control=67 value=52 time=42
control_change channel=0 control=64 value=88 time=14
control_change channel=0 control=67 value=51 time=16
control_change channel=0 control=64 value=88 time=23
control_change channel=0 control=67 value=48 time=16
control_change channel=0 control=67 value=45 time=14
control_change channel=0 control=67 value=42 time=15
note_on channel=0 note=65 velocity=0 time=15
control_change channel=0 control=64 value=89 time=1
control_change channel=0 control=67 value=40 time=0
control_change channel=0 control=67 value=39 time=15
control_change channel=0 control=67 value=38 time=16
control_change channel=0 control=67 value=37 time=14
control_change channel=0 control=64 value=87 time=15
control_change channel=0 control=67 value=37 time=0
control_change channel=0 control=64 value=84 time=16
control_change channel=0 control=67 value=36 time=0
control_change channel=0 control=64 value=82 time=14
control_change channel=0 control=67 value=36 time=0
control_change channel=0 control=67 value=35 time=15
note_on channel=0 note=68 velocity=62 time=16
note_on channel=0 note=59 velocity=38 time=13
control_change channel=0 control=67 value=35 time=2
control_change channel=0 control=64 value=82 time=16
control_change channel=0 control=67 value=34 time=0
control_change channel=0 control=64 value=83 time=14
control_change channel=0 control=67 value=34 time=0
control_change channel=0 control=64 value=84 time=15
control_change channel=0 control=67 value=33 time=0
control_change channel=0 control=64 value=85 time=16
control_change channel=0 control=67 value=32 time=0
control_change channel=0 control=64 value=85 time=15
control_change channel=0 control=67 value=30 time=0
note_on channel=0 note=59 velocity=0 time=9
control_change channel=0 control=64 value=86 time=7
control_change channel=0 control=67 value=29 time=0
control_change channel=0 control=67 value=27 time=15
control_change channel=0 control=64 value=86 time=15
control_change channel=0 control=67 value=26 time=0
control_change channel=0 control=64 value=87 time=16
control_change channel=0 control=67 value=25 time=0
control_change channel=0 control=64 value=88 time=15
control_change channel=0 control=67 value=25 time=0
control_change channel=0 control=64 value=88 time=14
control_change channel=0 control=67 value=24 time=0
control_change channel=0 control=67 value=23 time=16
control_change channel=0 control=67 value=23 time=15
control_change channel=0 control=64 value=89 time=45
note_on channel=0 note=68 velocity=0 time=26
note_on channel=0 note=69 velocity=60 time=29
note_on channel=0 note=57 velocity=35 time=6
note_on channel=0 note=66 velocity=41 time=5
control_change channel=0 control=64 value=88 time=26
note_on channel=0 note=66 velocity=0 time=10
note_on channel=0 note=57 velocity=0 time=4
control_change channel=0 control=67 value=23 time=1
control_change channel=0 control=64 value=87 time=14
control_change channel=0 control=67 value=24 time=0
note_on channel=0 note=69 velocity=0 time=2
control_change channel=0 control=64 value=86 time=14
control_change channel=0 control=67 value=25 time=0
control_change channel=0 control=64 value=84 time=15
control_change channel=0 control=67 value=25 time=0
control_change channel=0 control=64 value=81 time=15
control_change channel=0 control=67 value=26 time=0
control_change channel=0 control=64 value=78 time=16
control_change channel=0 control=67 value=26 time=0
control_change channel=0 control=64 value=74 time=14
control_change channel=0 control=67 value=27 time=0
control_change channel=0 control=64 value=67 time=16
control_change channel=0 control=67 value=27 time=0
control_change channel=0 control=64 value=45 time=15
control_change channel=0 control=67 value=28 time=0
note_on channel=0 note=30 velocity=37 time=13
control_change channel=0 control=64 value=0 time=2
note_on channel=0 note=69 velocity=51 time=0
control_change channel=0 control=67 value=28 time=15
note_on channel=0 note=37 velocity=0 time=5
control_change channel=0 control=67 value=29 time=10
control_change channel=0 control=67 value=30 time=16
control_change channel=0 control=67 value=30 time=15
control_change channel=0 control=67 value=31 time=39
control_change channel=0 control=67 value=32 time=14
control_change channel=0 control=64 value=39 time=31
control_change channel=0 control=67 value=32 time=0
control_change channel=0 control=64 value=52 time=15
control_change channel=0 control=64 value=59 time=16
control_change channel=0 control=64 value=63 time=14
control_change channel=0 control=64 value=64 time=16
control_change channel=0 control=67 value=33 time=0
control_change channel=0 control=64 value=66 time=15
control_change channel=0 control=67 value=33 time=0
control_change channel=0 control=64 value=67 time=15
control_change channel=0 control=67 value=34 time=0
control_change channel=0 control=64 value=69 time=16
control_change channel=0 control=64 value=70 time=14
control_change channel=0 control=64 value=71 time=15
control_change channel=0 control=67 value=34 time=0
control_change channel=0 control=64 value=72 time=16
control_change channel=0 control=67 value=35 time=0
control_change channel=0 control=64 value=74 time=15
control_change channel=0 control=67 value=36 time=0
control_change channel=0 control=64 value=76 time=15
control_change channel=0 control=67 value=36 time=0
control_change channel=0 control=64 value=78 time=15
control_change channel=0 control=67 value=37 time=0
control_change channel=0 control=64 value=78 time=15
control_change channel=0 control=67 value=38 time=0
control_change channel=0 control=64 value=79 time=16
control_change channel=0 control=67 value=40 time=0
control_change channel=0 control=64 value=80 time=15
control_change channel=0 control=67 value=42 time=0
control_change channel=0 control=64 value=81 time=15
control_change channel=0 control=67 value=44 time=0
control_change channel=0 control=64 value=82 time=16
control_change channel=0 control=67 value=45 time=0
control_change channel=0 control=64 value=83 time=15
control_change channel=0 control=67 value=46 time=0
control_change channel=0 control=64 value=84 time=16
control_change channel=0 control=67 value=47 time=0
control_change channel=0 control=67 value=49 time=14
note_on channel=0 note=33 velocity=44 time=0
control_change channel=0 control=67 value=50 time=15
control_change channel=0 control=67 value=51 time=16
control_change channel=0 control=67 value=52 time=15
control_change channel=0 control=64 value=84 time=14
control_change channel=0 control=67 value=52 time=0
control_change channel=0 control=67 value=54 time=16
control_change channel=0 control=67 value=55 time=15
control_change channel=0 control=67 value=56 time=16
control_change channel=0 control=67 value=56 time=15
note_on channel=0 note=30 velocity=0 time=4
control_change channel=0 control=67 value=57 time=10
control_change channel=0 control=67 value=60 time=16
control_change channel=0 control=64 value=84 time=15
control_change channel=0 control=67 value=63 time=0
control_change channel=0 control=67 value=64 time=15
control_change channel=0 control=67 value=66 time=15
control_change channel=0 control=67 value=68 time=15
control_change channel=0 control=67 value=70 time=16
note_on channel=0 note=69 velocity=0 time=14
control_change channel=0 control=67 value=74 time=1
control_change channel=0 control=67 value=78 time=14
control_change channel=0 control=67 value=80 time=16
control_change channel=0 control=67 value=81 time=15
control_change channel=0 control=67 value=83 time=16
control_change channel=0 control=64 value=83 time=15
control_change channel=0 control=67 value=84 time=0
control_change channel=0 control=67 value=85 time=15
control_change channel=0 control=64 value=83 time=15
control_change channel=0 control=64 value=82 time=15
control_change channel=0 control=67 value=86 time=0
control_change channel=0 control=64 value=81 time=23
control_change channel=0 control=67 value=86 time=0
control_change channel=0 control=64 value=79 time=15
control_change channel=0 control=64 value=73 time=17
note_on channel=0 note=37 velocity=51 time=6
control_change channel=0 control=64 value=64 time=9
control_change channel=0 control=64 value=0 time=15
note_on channel=0 note=33 velocity=0 time=37
control_change channel=0 control=67 value=85 time=24
control_change channel=0 control=67 value=84 time=15
control_change channel=0 control=64 value=40 time=15
control_change channel=0 control=67 value=84 time=0
control_change channel=0 control=64 value=58 time=16
control_change channel=0 control=64 value=63 time=14
control_change channel=0 control=64 value=64 time=16
control_change channel=0 control=67 value=83 time=0
control_change channel=0 control=64 value=65 time=15
control_change channel=0 control=67 value=83 time=0
control_change channel=0 control=64 value=68 time=15
control_change channel=0 control=67 value=82 time=0
control_change channel=0 control=64 value=70 time=16
control_change channel=0 control=64 value=72 time=14
control_change channel=0 control=64 value=73 time=16
control_change channel=0 control=64 value=74 time=15
control_change channel=0 control=64 value=76 time=14
control_change channel=0 control=64 value=79 time=16
control_change channel=0 control=67 value=82 time=0
control_change channel=0 control=64 value=81 time=15
control_change channel=0 control=64 value=82 time=15
note_on channel=0 note=37 velocity=0 time=13
control_change channel=0 control=64 value=83 time=3
note_on channel=0 note=38 velocity=49 time=3
control_change channel=0 control=64 value=84 time=12
control_change channel=0 control=67 value=81 time=0
control_change channel=0 control=64 value=85 time=16
note_on channel=0 note=38 velocity=0 time=6
control_change channel=0 control=64 value=84 time=69
control_change channel=0 control=67 value=82 time=31
control_change channel=0 control=64 value=83 time=15
control_change channel=0 control=64 value=82 time=15
control_change channel=0 control=67 value=82 time=0
note_on channel=0 note=57 velocity=47 time=9
note_on channel=0 note=38 velocity=34 time=4
control_change channel=0 control=64 value=78 time=2
note_on channel=0 note=53 velocity=35 time=14
control_change channel=0 control=64 value=71 time=2
control_change channel=0 control=64 value=62 time=15
control_change channel=0 control=67 value=83 time=0
control_change channel=0 control=64 value=0 time=14
control_change channel=0 control=67 value=83 time=0
control_change channel=0 control=67 value=84 time=16
control_change channel=0 control=64 value=31 time=45
control_change channel=0 control=67 value=84 time=0
control_change channel=0 control=64 value=40 time=15
control_change channel=0 control=67 value=85 time=0
control_change channel=0 control=64 value=46 time=16
control_change channel=0 control=67 value=85 time=0
control_change channel=0 control=64 value=54 time=15
control_change channel=0 control=64 value=60 time=15
control_change channel=0 control=64 value=63 time=15
control_change channel=0 control=67 value=86 time=0
control_change channel=0 control=64 value=65 time=15
control_change channel=0 control=67 value=86 time=0
control_change channel=0 control=64 value=66 time=24
control_change channel=0 control=67 value=87 time=0
control_change channel=0 control=64 value=67 time=15
control_change channel=0 control=64 value=68 time=15
control_change channel=0 control=64 value=69 time=15
control_change channel=0 control=67 value=87 time=0
control_change channel=0 control=64 value=70 time=15
control_change channel=0 control=67 value=88 time=0
control_change channel=0 control=64 value=71 time=17
control_change channel=0 control=64 value=73 time=15
control_change channel=0 control=67 value=90 time=0
control_change channel=0 control=64 value=75 time=15
control_change channel=0 control=67 value=92 time=0
note_on channel=0 note=57 velocity=0 time=12
control_change channel=0 control=64 value=76 time=3
control_change channel=0 control=67 value=92 time=0
control_change channel=0 control=64 value=78 time=15
control_change channel=0 control=64 value=79 time=16
control_change channel=0 control=64 value=81 time=15
control_change channel=0 control=64 value=82 time=14
control_change channel=0 control=64 value=83 time=16
control_change channel=0 control=64 value=84 time=15
control_change channel=0 control=64 value=85 time=16
note_on channel=0 note=53 velocity=0 time=4
control_change channel=0 control=64 value=86 time=25
control_change channel=0 control=64 value=87 time=16
control_change channel=0 control=64 value=88 time=15
note_on channel=0 note=65 velocity=61 time=5
note_on channel=0 note=57 velocity=28 time=8
note_on channel=0 note=62 velocity=41 time=0
control_change channel=0 control=64 value=89 time=1
control_change channel=0 control=67 value=92 time=16
control_change channel=0 control=64 value=89 time=15
control_change channel=0 control=64 value=90 time=16
control_change channel=0 control=64 value=91 time=15
control_change channel=0 control=64 value=91 time=14
control_change channel=0 control=64 value=92 time=31
control_change channel=0 control=64 value=93 time=16
control_change channel=0 control=64 value=94 time=15
control_change channel=0 control=64 value=95 time=15
control_change channel=0 control=64 value=96 time=15
note_on channel=0 note=57 velocity=0 time=0
note_on channel=0 note=62 velocity=0 time=6
control_change channel=0 control=64 value=97 time=9
control_change channel=0 control=64 value=98 time=15
control_change channel=0 control=64 value=99 time=16
control_change channel=0 control=64 value=101 time=15
control_change channel=0 control=64 value=102 time=16
control_change channel=0 control=64 value=104 time=15
control_change channel=0 control=67 value=93 time=0
control_change channel=0 control=64 value=105 time=14
control_change channel=0 control=67 value=93 time=0
control_change channel=0 control=64 value=107 time=16
control_change channel=0 control=67 value=94 time=0
control_change channel=0 control=64 value=108 time=15
control_change channel=0 control=67 value=95 time=0
control_change channel=0 control=64 value=109 time=15
control_change channel=0 control=67 value=98 time=0
note_on channel=0 note=65 velocity=0 time=6
control_change channel=0 control=64 value=110 time=10
control_change channel=0 control=67 value=101 time=0
control_change channel=0 control=64 value=112 time=15
control_change channel=0 control=67 value=105 time=0
control_change channel=0 control=64 value=119 time=16
control_change channel=0 control=67 value=110 time=0
control_change channel=0 control=64 value=127 time=15
control_change channel=0 control=67 value=114 time=0
control_change channel=0 control=67 value=116 time=15
note_on channel=0 note=69 velocity=69 time=10
control_change channel=0 control=67 value=117 time=5
note_on channel=0 note=62 velocity=53 time=7
control_change channel=0 control=67 value=117 time=8
control_change channel=0 control=67 value=118 time=16
note_on channel=0 note=65 velocity=30 time=5
note_on channel=0 note=69 velocity=0 time=144
note_on channel=0 note=38 velocity=0 time=65
note_on channel=0 note=71 velocity=72 time=71
control_change channel=0 control=67 value=119 time=12
note_on channel=0 note=62 velocity=0 time=21
control_change channel=0 control=67 value=119 time=10
control_change channel=0 control=67 value=120 time=15
note_on channel=0 note=65 velocity=0 time=9
control_change channel=0 control=67 value=121 time=5
note_on channel=0 note=71 velocity=0 time=7
control_change channel=0 control=67 value=123 time=9
control_change channel=0 control=67 value=125 time=15
control_change channel=0 control=67 value=127 time=15
control_change channel=0 control=64 value=110 time=30
control_change channel=0 control=64 value=92 time=16
control_change channel=0 control=64 value=77 time=15
note_on channel=0 note=26 velocity=42 time=0
note_on channel=0 note=71 velocity=54 time=4
note_on channel=0 note=62 velocity=36 time=8
note_on channel=0 note=65 velocity=31 time=0
note_on channel=0 note=68 velocity=47 time=1
control_change channel=0 control=64 value=65 time=1
note_on channel=0 note=38 velocity=31 time=5
control_change channel=0 control=64 value=54 time=11
control_change channel=0 control=64 value=60 time=15
control_change channel=0 control=64 value=61 time=16
control_change channel=0 control=64 value=62 time=15
control_change channel=0 control=64 value=64 time=14
control_change channel=0 control=64 value=66 time=16
control_change channel=0 control=64 value=69 time=15
control_change channel=0 control=64 value=71 time=15
control_change channel=0 control=64 value=72 time=15
control_change channel=0 control=64 value=75 time=15
control_change channel=0 control=64 value=78 time=16
note_on channel=0 note=26 velocity=0 time=10
control_change channel=0 control=64 value=80 time=5
control_change channel=0 control=64 value=82 time=15
control_change channel=0 control=64 value=83 time=15
note_on channel=0 note=38 velocity=0 time=3
control_change channel=0 control=64 value=87 time=12
control_change channel=0 control=64 value=90 time=16
control_change channel=0 control=64 value=92 time=15
control_change channel=0 control=64 value=92 time=15
control_change channel=0 control=64 value=91 time=130
control_change channel=0 control=64 value=87 time=14
note_on channel=0 note=29 velocity=46 time=3
note_on channel=0 note=41 velocity=40 time=6
control_change channel=0 control=64 value=81 time=6
control_change channel=0 control=64 value=71 time=16
control_change channel=0 control=64 value=62 time=15
control_change channel=0 control=64 value=60 time=15
control_change channel=0 control=64 value=63 time=17
control_change channel=0 control=64 value=63 time=15
control_change channel=0 control=64 value=64 time=15
control_change channel=0 control=64 value=65 time=15
control_change channel=0 control=64 value=67 time=15
control_change channel=0 control=64 value=69 time=15
control_change channel=0 control=64 value=71 time=15
control_change channel=0 control=64 value=74 time=16
control_change channel=0 control=64 value=77 time=15
control_change channel=0 control=64 value=80 time=15
note_on channel=0 note=41 velocity=0 time=6
control_change channel=0 control=64 value=83 time=10
control_change channel=0 control=64 value=84 time=15
control_change channel=0 control=64 value=85 time=15
control_change channel=0 control=64 value=86 time=15
note_on channel=0 note=29 velocity=0 time=74
control_change channel=0 control=64 value=85 time=17
control_change channel=0 control=64 value=82 time=15
control_change channel=0 control=64 value=74 time=16
control_change channel=0 control=64 value=65 time=15
control_change channel=0 control=64 value=21 time=15
note_on channel=0 note=32 velocity=51 time=1
note_on channel=0 note=44 velocity=47 time=9
control_change channel=0 control=64 value=40 time=5
control_change channel=0 control=64 value=58 time=15
control_change channel=0 control=64 value=64 time=16
control_change channel=0 control=64 value=68 time=14
note_on channel=0 note=32 velocity=0 time=5
note_on channel=0 note=44 velocity=0 time=8
control_change channel=0 control=64 value=71 time=2
control_change channel=0 control=64 value=74 time=16
control_change channel=0 control=64 value=78 time=14
note_on channel=0 note=62 velocity=0 time=1
control_change channel=0 control=64 value=82 time=15
note_on channel=0 note=65 velocity=0 time=4
control_change channel=0 control=64 value=84 time=11
note_on channel=0 note=71 velocity=0 time=6
note_on channel=0 note=68 velocity=0 time=8
control_change channel=0 control=64 value=86 time=1
control_change channel=0 control=64 value=87 time=15
control_change channel=0 control=64 value=88 time=15
control_change channel=0 control=64 value=89 time=16
control_change channel=0 control=64 value=90 time=15
note_on channel=0 note=50 velocity=51 time=112
note_on channel=0 note=38 velocity=44 time=5
control_change channel=0 control=64 value=89 time=26
note_on channel=0 note=50 velocity=0 time=2
note_on channel=0 note=38 velocity=0 time=19
control_change channel=0 control=64 value=88 time=10
control_change channel=0 control=64 value=85 time=16
control_change channel=0 control=64 value=79 time=15
control_change channel=0 control=64 value=67 time=15
control_change channel=0 control=64 value=0 time=16
note_on channel=0 note=69 velocity=44 time=19
note_on channel=0 note=76 velocity=52 time=32
note_on channel=0 note=81 velocity=69 time=22
control_change channel=0 control=64 value=44 time=3
note_on channel=0 note=69 velocity=0 time=3
note_on channel=0 note=50 velocity=39 time=3
control_change channel=0 control=64 value=64 time=9
note_on channel=0 note=38 velocity=36 time=6
note_on channel=0 note=76 velocity=0 time=7
control_change channel=0 control=64 value=70 time=2
control_change channel=0 control=64 value=74 time=16
note_on channel=0 note=50 velocity=0 time=0
note_on channel=0 note=81 velocity=0 time=2
note_on channel=0 note=38 velocity=0 time=7
control_change channel=0 control=64 value=77 time=6
control_change channel=0 control=64 value=78 time=16
control_change channel=0 control=64 value=80 time=15
control_change channel=0 control=64 value=83 time=15
control_change channel=0 control=64 value=85 time=15
control_change channel=0 control=64 value=88 time=15
control_change channel=0 control=64 value=89 time=16
control_change channel=0 control=64 value=90 time=14
control_change channel=0 control=64 value=90 time=61
note_on channel=0 note=62 velocity=46 time=133
note_on channel=0 note=69 velocity=53 time=10
note_on channel=0 note=64 velocity=35 time=2
note_on channel=0 note=62 velocity=0 time=15
note_on channel=0 note=69 velocity=0 time=7
note_on channel=0 note=64 velocity=0 time=12
note_on channel=0 note=62 velocity=61 time=57
note_on channel=0 note=74 velocity=65 time=17
note_on channel=0 note=62 velocity=0 time=16
note_on channel=0 note=64 velocity=28 time=4
note_on channel=0 note=74 velocity=0 time=8
note_on channel=0 note=64 velocity=0 time=32
note_on channel=0 note=62 velocity=61 time=36
note_on channel=0 note=76 velocity=75 time=9
note_on channel=0 note=62 velocity=0 time=13
note_on channel=0 note=76 velocity=0 time=12
note_on channel=0 note=62 velocity=60 time=70
note_on channel=0 note=64 velocity=48 time=1
note_on channel=0 note=62 velocity=0 time=31
note_on channel=0 note=64 velocity=0 time=15
note_on channel=0 note=68 velocity=67 time=49
note_on channel=0 note=62 velocity=52 time=11
note_on channel=0 note=64 velocity=14 time=6
control_change channel=0 control=64 value=89 time=5
note_on channel=0 note=62 velocity=0 time=8
control_change channel=0 control=64 value=83 time=6
note_on channel=0 note=68 velocity=0 time=12
control_change channel=0 control=64 value=73 time=3
note_on channel=0 note=64 velocity=0 time=7
control_change channel=0 control=64 value=55 time=9
control_change channel=0 control=64 value=0 time=15
note_on channel=0 note=62 velocity=56 time=19
note_on channel=0 note=69 velocity=71 time=9
note_on channel=0 note=64 velocity=43 time=18
control_change channel=0 control=64 value=21 time=15
control_change channel=0 control=64 value=59 time=15
control_change channel=0 control=64 value=66 time=15
control_change channel=0 control=64 value=69 time=16
note_on channel=0 note=64 velocity=0 time=3
control_change channel=0 control=64 value=72 time=12
control_change channel=0 control=64 value=75 time=16
note_on channel=0 note=62 velocity=0 time=9
control_change channel=0 control=64 value=79 time=5
control_change channel=0 control=64 value=84 time=15
control_change channel=0 control=64 value=87 time=16
control_change channel=0 control=64 value=89 time=15
control_change channel=0 control=64 value=92 time=16
control_change channel=0 control=64 value=94 time=14
control_change channel=0 control=64 value=95 time=15
note_on channel=0 note=69 velocity=0 time=67
note_on channel=0 note=61 velocity=46 time=125
control_change channel=0 control=64 value=94 time=14
note_on channel=0 note=69 velocity=44 time=9
control_change channel=0 control=64 value=93 time=7
control_change channel=0 control=64 value=92 time=15
control_change channel=0 control=64 value=90 time=15
control_change channel=0 control=64 value=89 time=15
control_change channel=0 control=64 value=88 time=15
control_change channel=0 control=64 value=83 time=16
control_change channel=0 control=64 value=74 time=15
note_on channel=0 note=37 velocity=24 time=8
note_on channel=0 note=25 velocity=35 time=4
note_on channel=0 note=76 velocity=57 time=0
control_change channel=0 control=64 value=64 time=2
control_change channel=0 control=64 value=41 time=16
control_change channel=0 control=64 value=53 time=15
control_change channel=0 control=64 value=58 time=16
control_change channel=0 control=64 value=60 time=15
control_change channel=0 control=64 value=62 time=14
control_change channel=0 control=64 value=64 time=16
control_change channel=0 control=64 value=67 time=15
control_change channel=0 control=64 value=70 time=14
control_change channel=0 control=64 value=71 time=16
control_change channel=0 control=64 value=73 time=16
control_change channel=0 control=64 value=75 time=16
control_change channel=0 control=64 value=77 time=15
note_on channel=0 note=25 velocity=0 time=11
control_change channel=0 control=64 value=80 time=4
control_change channel=0 control=64 value=82 time=16
note_on channel=0 note=37 velocity=0 time=7
control_change channel=0 control=64 value=84 time=7
control_change channel=0 control=64 value=86 time=16
control_change channel=0 control=64 value=86 time=15
control_change channel=0 control=64 value=87 time=15
control_change channel=0 control=64 value=86 time=91
control_change channel=0 control=64 value=85 time=46
control_change channel=0 control=64 value=83 time=15
note_on channel=0 note=28 velocity=48 time=4
note_on channel=0 note=40 velocity=46 time=2
control_change channel=0 control=64 value=79 time=9
control_change channel=0 control=64 value=75 time=15
control_change channel=0 control=64 value=75 time=15
control_change channel=0 control=64 value=75 time=16
control_change channel=0 control=64 value=76 time=15
control_change channel=0 control=64 value=78 time=15
note_on channel=0 note=61 velocity=0 time=6
control_change channel=0 control=64 value=79 time=10
note_on channel=0 note=76 velocity=0 time=4
control_change channel=0 control=64 value=82 time=11
control_change channel=0 control=64 value=85 time=15
control_change channel=0 control=64 value=87 time=22
note_on channel=0 note=69 velocity=0 time=8
control_change channel=0 control=64 value=90 time=7
control_change channel=0 control=64 value=92 time=16
control_change channel=0 control=64 value=94 time=15
note_on channel=0 note=28 velocity=0 time=3
control_change channel=0 control=64 value=96 time=13
control_change channel=0 control=64 value=98 time=15
note_on channel=0 note=40 velocity=0 time=17
control_change channel=0 control=64 value=98 time=14
control_change channel=0 control=64 value=98 time=90
control_change channel=0 control=64 value=97 time=46
control_change channel=0 control=64 value=92 time=16
note_on channel=0 note=33 velocity=54 time=7
note_on channel=0 note=45 velocity=51 time=2
control_change channel=0 control=64 value=83 time=6
control_change channel=0 control=64 value=70 time=15
control_change channel=0 control=64 value=54 time=16
control_change channel=0 control=64 value=53 time=15
control_change channel=0 control=64 value=62 time=14
control_change channel=0 control=64 value=65 time=16
control_change channel=0 control=64 value=69 time=15
control_change channel=0 control=64 value=73 time=16
control_change channel=0 control=64 value=77 time=15
control_change channel=0 control=64 value=81 time=15
note_on channel=0 note=33 velocity=0 time=2
control_change channel=0 control=64 value=85 time=14
note_on channel=0 note=45 velocity=0 time=3
control_change channel=0 control=64 value=88 time=12
control_change channel=0 control=64 value=91 time=16
control_change channel=0 control=64 value=94 time=15
control_change channel=0 control=64 value=96 time=14
control_change channel=0 control=64 value=98 time=16
control_change channel=0 control=64 value=98 time=15
note_on channel=0 note=49 velocity=59 time=59
note_on channel=0 note=37 velocity=38 time=19
note_on channel=0 note=49 velocity=0 time=21
note_on channel=0 note=37 velocity=0 time=24
control_change channel=0 control=64 value=97 time=29
control_change channel=0 control=64 value=92 time=14
control_change channel=0 control=64 value=81 time=16
note_on channel=0 note=69 velocity=44 time=8
control_change channel=0 control=64 value=66 time=7
note_on channel=0 note=77 velocity=58 time=14
control_change channel=0 control=64 value=0 time=1
control_change channel=0 control=64 value=38 time=16
note_on channel=0 note=69 velocity=0 time=2
note_on channel=0 note=81 velocity=74 time=0
note_on channel=0 note=49 velocity=42 time=6
control_change channel=0 control=64 value=58 time=14
note_on channel=0 note=37 velocity=50 time=1
control_change channel=0 control=64 value=64 time=15
note_on channel=0 note=77 velocity=0 time=0
control_change channel=0 control=64 value=69 time=15
control_change channel=0 control=64 value=74 time=15
note_on channel=0 note=81 velocity=0 time=1
note_on channel=0 note=37 velocity=0 time=3
note_on channel=0 note=49 velocity=0 time=4
control_change channel=0 control=64 value=77 time=7
control_change channel=0 control=64 value=80 time=15
control_change channel=0 control=64 value=82 time=16
control_change channel=0 control=64 value=84 time=15
control_change channel=0 control=64 value=87 time=15
control_change channel=0 control=64 value=88 time=15
control_change channel=0 control=64 value=88 time=15
control_change channel=0 control=64 value=89 time=15
control_change channel=0 control=64 value=89 time=15
control_change channel=0 control=64 value=90 time=76
control_change channel=0 control=64 value=90 time=61
control_change channel=0 control=64 value=91 time=16
note_on channel=0 note=65 velocity=49 time=8
note_on channel=0 note=69 velocity=56 time=4
control_change channel=0 control=64 value=92 time=3
note_on channel=0 note=61 velocity=42 time=0
note_on channel=0 note=69 velocity=0 time=20
note_on channel=0 note=65 velocity=0 time=1
control_change channel=0 control=64 value=92 time=9
note_on channel=0 note=61 velocity=0 time=1
control_change channel=0 control=64 value=93 time=60
note_on channel=0 note=65 velocity=61 time=10
note_on channel=0 note=61 velocity=44 time=13
note_on channel=0 note=65 velocity=0 time=7
control_change channel=0 control=64 value=93 time=1
note_on channel=0 note=73 velocity=52 time=4
note_on channel=0 note=61 velocity=0 time=15
note_on channel=0 note=73 velocity=0 time=8
note_on channel=0 note=65 velocity=60 time=49
note_on channel=0 note=77 velocity=76 time=7
note_on channel=0 note=65 velocity=0 time=11
note_on channel=0 note=61 velocity=46 time=1
note_on channel=0 note=77 velocity=0 time=22
note_on channel=0 note=61 velocity=0 time=11
control_change channel=0 control=64 value=94 time=39
note_on channel=0 note=65 velocity=72 time=3
note_on channel=0 note=61 velocity=52 time=23
note_on channel=0 note=61 velocity=0 time=22
note_on channel=0 note=65 velocity=0 time=2
control_change channel=0 control=64 value=93 time=42
note_on channel=0 note=69 velocity=79 time=23
note_on channel=0 note=65 velocity=47 time=1
note_on channel=0 note=61 velocity=66 time=1
note_on channel=0 note=65 velocity=0 time=27
note_on channel=0 note=61 velocity=0 time=3
note_on channel=0 note=69 velocity=0 time=20
control_change channel=0 control=64 value=91 time=8
control_change channel=0 control=64 value=86 time=15
control_change channel=0 control=64 value=76 time=15
note_on channel=0 note=65 velocity=54 time=10
note_on channel=0 note=73 velocity=79 time=5
control_change channel=0 control=64 value=56 time=1
note_on channel=0 note=61 velocity=64 time=1
control_change channel=0 control=64 value=0 time=14
control_change channel=0 control=64 value=19 time=30
control_change channel=0 control=64 value=49 time=15
control_change channel=0 control=64 value=62 time=16
note_on channel=0 note=65 velocity=0 time=10
control_change channel=0 control=64 value=67 time=5
control_change channel=0 control=64 value=70 time=15
control_change channel=0 control=64 value=73 time=15
control_change channel=0 control=64 value=76 time=15
note_on channel=0 note=61 velocity=0 time=8
control_change channel=0 control=64 value=80 time=8
control_change channel=0 control=64 value=84 time=14
control_change channel=0 control=64 value=88 time=15
control_change channel=0 control=64 value=91 time=16
control_change channel=0 control=64 value=93 time=15
control_change channel=0 control=64 value=96 time=15
control_change channel=0 control=64 value=98 time=15
control_change channel=0 control=64 value=100 time=15
control_change channel=0 control=64 value=99 time=184
control_change channel=0 control=64 value=99 time=15
control_change channel=0 control=64 value=97 time=16
control_change channel=0 control=64 value=97 time=14
control_change channel=0 control=64 value=96 time=15
control_change channel=0 control=64 value=94 time=16
control_change channel=0 control=64 value=91 time=15
note_on channel=0 note=73 velocity=0 time=8
note_on channel=0 note=69 velocity=35 time=5
control_change channel=0 control=64 value=86 time=2
note_on channel=0 note=78 velocity=54 time=4
note_on channel=0 note=25 velocity=39 time=6
note_on channel=0 note=66 velocity=34 time=1
control_change channel=0 control=64 value=77 time=5
note_on channel=0 note=37 velocity=29 time=2
control_change channel=0 control=64 value=65 time=13
control_change channel=0 control=64 value=42 time=15
control_change channel=0 control=64 value=56 time=15
control_change channel=0 control=64 value=62 time=15
control_change channel=0 control=64 value=63 time=16
control_change channel=0 control=64 value=64 time=15
control_change channel=0 control=64 value=66 time=22
control_change channel=0 control=64 value=68 time=15
control_change channel=0 control=64 value=71 time=15
control_change channel=0 control=64 value=74 time=16
control_change channel=0 control=64 value=75 time=15
control_change channel=0 control=64 value=77 time=16
control_change channel=0 control=64 value=79 time=15
note_on channel=0 note=25 velocity=0 time=3
control_change channel=0 control=64 value=83 time=12
control_change channel=0 control=64 value=86 time=15
control_change channel=0 control=64 value=88 time=15
control_change channel=0 control=64 value=89 time=16
control_change channel=0 control=64 value=90 time=15
control_change channel=0 control=64 value=91 time=15
note_on channel=0 note=37 velocity=0 time=12
note_on channel=0 note=66 velocity=0 time=107
control_change channel=0 control=64 value=90 time=18
control_change channel=0 control=64 value=87 time=14
note_on channel=0 note=30 velocity=45 time=2
note_on channel=0 note=42 velocity=49 time=5
control_change channel=0 control=64 value=82 time=8
control_change channel=0 control=64 value=75 time=16
control_change channel=0 control=64 value=68 time=15
control_change channel=0 control=64 value=69 time=30
note_on channel=0 note=78 velocity=0 time=11
control_change channel=0 control=64 value=70 time=4
note_on channel=0 note=69 velocity=0 time=10
control_change channel=0 control=64 value=71 time=6
control_change channel=0 control=64 value=72 time=14
control_change channel=0 control=64 value=75 time=15
control_change channel=0 control=64 value=79 time=16
control_change channel=0 control=64 value=81 time=15
control_change channel=0 control=64 value=83 time=16
control_change channel=0 control=64 value=86 time=16
control_change channel=0 control=64 value=89 time=15
control_change channel=0 control=64 value=93 time=15
control_change channel=0 control=64 value=96 time=15
control_change channel=0 control=64 value=98 time=16
note_on channel=0 note=30 velocity=0 time=1
note_on channel=0 note=42 velocity=0 time=1
control_change channel=0 control=64 value=98 time=43
control_change channel=0 control=64 value=98 time=61
control_change channel=0 control=64 value=96 time=30
control_change channel=0 control=64 value=92 time=15
control_change channel=0 control=64 value=83 time=22
note_on channel=0 note=33 velocity=50 time=2
note_on channel=0 note=45 velocity=52 time=5
control_change channel=0 control=64 value=70 time=8
control_change channel=0 control=64 value=62 time=16
control_change channel=0 control=64 value=64 time=15
control_change channel=0 control=64 value=66 time=15
control_change channel=0 control=64 value=68 time=16
control_change channel=0 control=64 value=71 time=15
control_change channel=0 control=64 value=75 time=16
note_on channel=0 note=33 velocity=0 time=12
control_change channel=0 control=64 value=80 time=3
note_on channel=0 note=45 velocity=0 time=7
control_change channel=0 control=64 value=83 time=8
control_change channel=0 control=64 value=85 time=15
control_change channel=0 control=64 value=88 time=15
control_change channel=0 control=64 value=90 time=15
control_change channel=0 control=64 value=91 time=16
control_change channel=0 control=64 value=91 time=14
control_change channel=0 control=64 value=92 time=16
control_change channel=0 control=64 value=92 time=30
control_change channel=0 control=64 value=93 time=16
control_change channel=0 control=64 value=93 time=14
control_change channel=0 control=67 value=127 time=13
note_on channel=0 note=49 velocity=49 time=11
note_on channel=0 note=37 velocity=10 time=26
control_change channel=0 control=67 value=126 time=8
note_on channel=0 note=49 velocity=0 time=0
note_on channel=0 note=37 velocity=0 time=46
control_change channel=0 control=64 value=91 time=1
control_change channel=0 control=67 value=127 time=0
note_on channel=0 note=74 velocity=61 time=13
control_change channel=0 control=64 value=84 time=1
control_change channel=0 control=64 value=71 time=15
control_change channel=0 control=64 value=0 time=16
note_on channel=0 note=78 velocity=54 time=11
note_on channel=0 note=74 velocity=0 time=1
note_on channel=0 note=81 velocity=67 time=8
note_on channel=0 note=49 velocity=45 time=22
control_change channel=0 control=64 value=24 time=3
control_change channel=0 control=67 value=126 time=0
note_on channel=0 note=86 velocity=77 time=1
note_on channel=0 note=78 velocity=0 time=5
note_on channel=0 note=37 velocity=62 time=4
control_change channel=0 control=64 value=58 time=5
control_change channel=0 control=64 value=66 time=16
note_on channel=0 note=81 velocity=0 time=1
control_change channel=0 control=64 value=72 time=14
note_on channel=0 note=37 velocity=0 time=3
note_on channel=0 note=86 velocity=0 time=6
control_change channel=0 control=64 value=77 time=6
control_change channel=0 control=67 value=126 time=0
note_on channel=0 note=49 velocity=0 time=2
control_change channel=0 control=64 value=81 time=14
control_change channel=0 control=64 value=84 time=15
control_change channel=0 control=67 value=125 time=0
control_change channel=0 control=64 value=87 time=15
control_change channel=0 control=67 value=124 time=0
control_change channel=0 control=64 value=90 time=16
control_change channel=0 control=67 value=123 time=0
control_change channel=0 control=64 value=92 time=15
control_change channel=0 control=67 value=122 time=0
control_change channel=0 control=64 value=92 time=15
control_change channel=0 control=67 value=121 time=0
control_change channel=0 control=67 value=121 time=15
control_change channel=0 control=67 value=120 time=31
control_change channel=0 control=67 value=119 time=15
control_change channel=0 control=67 value=117 time=16
control_change channel=0 control=67 value=116 time=15
control_change channel=0 control=67 value=115 time=15
control_change channel=0 control=67 value=113 time=22
control_change channel=0 control=67 value=112 time=15
control_change channel=0 control=64 value=93 time=16
control_change channel=0 control=67 value=111 time=0
control_change channel=0 control=67 value=110 time=15
control_change channel=0 control=67 value=110 time=15
control_change channel=0 control=67 value=109 time=16
note_on channel=0 note=66 velocity=60 time=7
note_on channel=0 note=74 velocity=65 time=2
control_change channel=0 control=67 value=109 time=5
note_on channel=0 note=62 velocity=44 time=6
note_on channel=0 note=61 velocity=44 time=1
note_on channel=0 note=66 velocity=0 time=7
note_on channel=0 note=74 velocity=0 time=9
note_on channel=0 note=62 velocity=0 time=11
note_on channel=0 note=61 velocity=0 time=3
control_change channel=0 control=67 value=108 time=9
control_change channel=0 control=67 value=108 time=16
control_change channel=0 control=67 value=107 time=15
note_on channel=0 note=66 velocity=66 time=15
note_on channel=0 note=78 velocity=70 time=14
note_on channel=0 note=66 velocity=0 time=11
note_on channel=0 note=61 velocity=46 time=1
note_on channel=0 note=78 velocity=0 time=9
note_on channel=0 note=62 velocity=22 time=5
control_change channel=0 control=67 value=107 time=6
note_on channel=0 note=61 velocity=0 time=7
note_on channel=0 note=62 velocity=0 time=22
control_change channel=0 control=67 value=106 time=1
note_on channel=0 note=66 velocity=70 time=27
note_on channel=0 note=62 velocity=35 time=1
note_on channel=0 note=81 velocity=74 time=6
note_on channel=0 note=61 velocity=48 time=12
note_on channel=0 note=66 velocity=0 time=0
note_on channel=0 note=62 velocity=0 time=15
note_on channel=0 note=81 velocity=0 time=8
note_on channel=0 note=61 velocity=0 time=11
note_on channel=0 note=66 velocity=65 time=33
note_on channel=0 note=69 velocity=78 time=11
note_on channel=0 note=62 velocity=64 time=10
note_on channel=0 note=61 velocity=56 time=7
note_on channel=0 note=69 velocity=0 time=9
note_on channel=0 note=66 velocity=0 time=1
note_on channel=0 note=62 velocity=0 time=12
control_change channel=0 control=67 value=106 time=3
note_on channel=0 note=61 velocity=0 time=5
note_on channel=0 note=74 velocity=80 time=47
note_on channel=0 note=66 velocity=62 time=4
control_change channel=0 control=64 value=92 time=5
note_on channel=0 note=61 velocity=50 time=6
note_on channel=0 note=62 velocity=56 time=4
note_on channel=0 note=66 velocity=0 time=2
control_change channel=0 control=64 value=90 time=3
control_change channel=0 control=64 value=85 time=16
note_on channel=0 note=62 velocity=0 time=0
note_on channel=0 note=61 velocity=0 time=3
note_on channel=0 note=74 velocity=0 time=3
control_change channel=0 control=64 value=74 time=9
control_change channel=0 control=64 value=59 time=16
control_change channel=0 control=64 value=0 time=14
control_change channel=0 control=64 value=32 time=15
control_change channel=0 control=67 value=105 time=0
note_on channel=0 note=78 velocity=76 time=6
note_on channel=0 note=62 velocity=58 time=8
note_on channel=0 note=66 velocity=48 time=0
control_change channel=0 control=64 value=49 time=2
note_on channel=0 note=61 velocity=61 time=0
control_change channel=0 control=64 value=55 time=15
control_change channel=0 control=64 value=62 time=15
control_change channel=0 control=64 value=66 time=16
control_change channel=0 control=64 value=69 time=15
control_change channel=0 control=64 value=72 time=15
control_change channel=0 control=67 value=105 time=0
note_on channel=0 note=66 velocity=0 time=13
control_change channel=0 control=64 value=74 time=2
control_change channel=0 control=64 value=77 time=15
control_change channel=0 control=67 value=104 time=0
note_on channel=0 note=62 velocity=0 time=10
control_change channel=0 control=64 value=81 time=6
control_change channel=0 control=64 value=85 time=15
control_change channel=0 control=67 value=104 time=0
note_on channel=0 note=61 velocity=0 time=3
control_change channel=0 control=64 value=88 time=12
control_change channel=0 control=64 value=90 time=23
control_change channel=0 control=67 value=102 time=0
note_on channel=0 note=78 velocity=0 time=14
control_change channel=0 control=64 value=92 time=1
control_change channel=0 control=67 value=99 time=0
control_change channel=0 control=64 value=95 time=15
control_change channel=0 control=67 value=96 time=0
control_change channel=0 control=64 value=96 time=15
control_change channel=0 control=67 value=92 time=0
control_change channel=0 control=64 value=96 time=16
control_change channel=0 control=67 value=90 time=0
control_change channel=0 control=67 value=88 time=14
control_change channel=0 control=67 value=86 time=15
control_change channel=0 control=67 value=84 time=16
control_change channel=0 control=67 value=83 time=15
control_change channel=0 control=67 value=82 time=15
control_change channel=0 control=67 value=81 time=16
control_change channel=0 control=67 value=80 time=15
control_change channel=0 control=67 value=78 time=16
control_change channel=0 control=67 value=77 time=15
control_change channel=0 control=67 value=76 time=15
control_change channel=0 control=67 value=75 time=15
control_change channel=0 control=67 value=74 time=15
control_change channel=0 control=67 value=73 time=16
control_change channel=0 control=67 value=71 time=15
control_change channel=0 control=67 value=70 time=14
control_change channel=0 control=67 value=70 time=16
control_change channel=0 control=67 value=69 time=15
note_on channel=0 note=75 velocity=43 time=2
control_change channel=0 control=67 value=69 time=13
control_change channel=0 control=64 value=95 time=16
control_change channel=0 control=67 value=68 time=0
note_on channel=0 note=75 velocity=0 time=10
control_change channel=0 control=64 value=95 time=4
control_change channel=0 control=67 value=67 time=0
note_on channel=0 note=78 velocity=51 time=7
control_change channel=0 control=67 value=66 time=9
control_change channel=0 control=64 value=94 time=15
control_change channel=0 control=67 value=65 time=0
control_change channel=0 control=64 value=94 time=15
control_change channel=0 control=67 value=64 time=0
note_on channel=0 note=81 velocity=52 time=10
note_on channel=0 note=78 velocity=0 time=1
control_change channel=0 control=64 value=93 time=5
control_change channel=0 control=67 value=64 time=0
control_change channel=0 control=64 value=92 time=14
control_change channel=0 control=67 value=63 time=0
control_change channel=0 control=64 value=90 time=15
control_change channel=0 control=64 value=88 time=16
note_on channel=0 note=81 velocity=0 time=12
control_change channel=0 control=64 value=84 time=2
control_change channel=0 control=67 value=63 time=0
note_on channel=0 note=87 velocity=58 time=2
control_change channel=0 control=64 value=77 time=14
note_on channel=0 note=36 velocity=37 time=0
control_change channel=0 control=64 value=65 time=15
control_change channel=0 control=67 value=62 time=0
control_change channel=0 control=64 value=0 time=15
control_change channel=0 control=67 value=62 time=16
control_change channel=0 control=64 value=36 time=14
control_change channel=0 control=64 value=47 time=15
control_change channel=0 control=67 value=61 time=0
control_change channel=0 control=64 value=53 time=16
control_change channel=0 control=67 value=61 time=0
control_change channel=0 control=64 value=58 time=15
control_change channel=0 control=67 value=60 time=0
control_change channel=0 control=64 value=62 time=16
control_change channel=0 control=67 value=59 time=0
control_change channel=0 control=64 value=65 time=15
control_change channel=0 control=67 value=58 time=0
control_change channel=0 control=64 value=68 time=15
control_change channel=0 control=67 value=57 time=0
control_change channel=0 control=64 value=69 time=16
control_change channel=0 control=67 value=56 time=0
control_change channel=0 control=64 value=70 time=15
control_change channel=0 control=67 value=55 time=0
control_change channel=0 control=64 value=72 time=16
control_change channel=0 control=67 value=54 time=0
control_change channel=0 control=64 value=74 time=14
control_change channel=0 control=67 value=53 time=0
control_change channel=0 control=64 value=76 time=15
control_change channel=0 control=67 value=52 time=0
control_change channel=0 control=64 value=77 time=16
control_change channel=0 control=67 value=50 time=0
control_change channel=0 control=64 value=78 time=23
control_change channel=0 control=67 value=49 time=0
control_change channel=0 control=64 value=79 time=16
control_change channel=0 control=67 value=47 time=0
note_on channel=0 note=87 velocity=0 time=7
control_change channel=0 control=64 value=81 time=7
control_change channel=0 control=67 value=46 time=0
control_change channel=0 control=64 value=83 time=15
control_change channel=0 control=67 value=45 time=0
control_change channel=0 control=64 value=85 time=16
control_change channel=0 control=67 value=45 time=0
control_change channel=0 control=64 value=86 time=15
control_change channel=0 control=67 value=44 time=0
control_change channel=0 control=64 value=86 time=16
control_change channel=0 control=67 value=44 time=0
control_change channel=0 control=64 value=87 time=29
control_change channel=0 control=67 value=43 time=0
control_change channel=0 control=64 value=89 time=16
control_change channel=0 control=67 value=42 time=0
note_on channel=0 note=75 velocity=48 time=10
control_change channel=0 control=64 value=91 time=4
control_change channel=0 control=67 value=42 time=0
control_change channel=0 control=64 value=92 time=15
control_change channel=0 control=67 value=41 time=0
control_change channel=0 control=64 value=93 time=16
control_change channel=0 control=67 value=41 time=0
note_on channel=0 note=75 velocity=0 time=3
control_change channel=0 control=67 value=40 time=12
control_change channel=0 control=67 value=40 time=16
control_change channel=0 control=64 value=93 time=15
control_change channel=0 control=67 value=39 time=0
control_change channel=0 control=64 value=95 time=15
control_change channel=0 control=67 value=38 time=0
note_on channel=0 note=81 velocity=54 time=12
control_change channel=0 control=64 value=96 time=3
control_change channel=0 control=67 value=37 time=0
note_on channel=0 note=42 velocity=37 time=4
control_change channel=0 control=64 value=97 time=11
control_change channel=0 control=67 value=37 time=0
control_change channel=0 control=64 value=98 time=15
control_change channel=0 control=67 value=36 time=0
note_on channel=0 note=81 velocity=0 time=7
control_change channel=0 control=64 value=99 time=24
control_change channel=0 control=67 value=36 time=0
control_change channel=0 control=64 value=100 time=16
control_change channel=0 control=67 value=35 time=0
control_change channel=0 control=64 value=103 time=15
control_change channel=0 control=67 value=35 time=0
note_on channel=0 note=84 velocity=60 time=10
control_change channel=0 control=64 value=104 time=4
control_change channel=0 control=67 value=34 time=0
control_change channel=0 control=64 value=105 time=16
control_change channel=0 control=67 value=33 time=0
control_change channel=0 control=64 value=105 time=15
note_on channel=0 note=84 velocity=0 time=3
control_change channel=0 control=64 value=107 time=12
control_change channel=0 control=67 value=33 time=0
control_change channel=0 control=64 value=112 time=16
control_change channel=0 control=64 value=119 time=14
control_change channel=0 control=67 value=32 time=0
control_change channel=0 control=64 value=127 time=16
note_on channel=0 note=72 velocity=63 time=2
note_on channel=0 note=72 velocity=0 time=47
note_on channel=0 note=75 velocity=69 time=31
control_change channel=0 control=67 value=32 time=25
note_on channel=0 note=75 velocity=0 time=27
control_change channel=0 control=67 value=31 time=19
control_change channel=0 control=67 value=31 time=16
note_on channel=0 note=78 velocity=74 time=12
control_change channel=0 control=67 value=29 time=3
control_change channel=0 control=67 value=27 time=16
note_on channel=0 note=45 velocity=52 time=4
note_on channel=0 note=78 velocity=0 time=4
control_change channel=0 control=67 value=24 time=7
note_on channel=0 note=36 velocity=0 time=8
control_change channel=0 control=67 value=21 time=6
control_change channel=0 control=67 value=18 time=16
control_change channel=0 control=67 value=15 time=15
control_change channel=0 control=67 value=11 time=15
control_change channel=0 control=67 value=0 time=17
note_on channel=0 note=45 velocity=0 time=56
note_on channel=0 note=42 velocity=0 time=35
note_on channel=0 note=48 velocity=51 time=8
note_on channel=0 note=48 velocity=0 time=42
note_on channel=0 note=78 velocity=56 time=59
note_on channel=0 note=78 velocity=0 time=46
note_on channel=0 note=84 velocity=63 time=3
note_on channel=0 note=87 velocity=76 time=35
note_on channel=0 note=84 velocity=0 time=15
control_change channel=0 control=64 value=91 time=13
control_change channel=0 control=64 value=70 time=14
control_change channel=0 control=64 value=47 time=15
note_on channel=0 note=33 velocity=54 time=3
note_on channel=0 note=90 velocity=88 time=0
note_on channel=0 note=87 velocity=0 time=5
control_change channel=0 control=64 value=56 time=8
control_change channel=0 control=64 value=63 time=15
control_change channel=0 control=64 value=65 time=15
control_change channel=0 control=64 value=70 time=15
control_change channel=0 control=64 value=77 time=15
control_change channel=0 control=64 value=84 time=16
note_on channel=0 note=90 velocity=0 time=12
control_change channel=0 control=64 value=89 time=3
control_change channel=0 control=64 value=93 time=15
control_change channel=0 control=64 value=97 time=15
control_change channel=0 control=64 value=102 time=15
control_change channel=0 control=64 value=105 time=16
control_change channel=0 control=64 value=107 time=15
control_change channel=0 control=64 value=108 time=15
control_change channel=0 control=64 value=108 time=16
control_change channel=0 control=64 value=109 time=15
control_change channel=0 control=64 value=109 time=14
control_change channel=0 control=64 value=110 time=31
control_change channel=0 control=64 value=112 time=45
control_change channel=0 control=64 value=116 time=16
control_change channel=0 control=64 value=127 time=15
note_on channel=0 note=78 velocity=57 time=9
note_on channel=0 note=78 velocity=0 time=54
note_on channel=0 note=81 velocity=65 time=57
note_on channel=0 note=39 velocity=41 time=15
note_on channel=0 note=81 velocity=0 time=41
note_on channel=0 note=84 velocity=75 time=41
note_on channel=0 note=84 velocity=0 time=47
note_on channel=0 note=72 velocity=75 time=55
note_on channel=0 note=72 velocity=0 time=88
note_on channel=0 note=75 velocity=80 time=3
note_on channel=0 note=33 velocity=0 time=80
note_on channel=0 note=75 velocity=0 time=13
note_on channel=0 note=78 velocity=80 time=12
note_on channel=0 note=42 velocity=53 time=15
note_on channel=0 note=78 velocity=0 time=27
note_on channel=0 note=81 velocity=82 time=52
note_on channel=0 note=81 velocity=0 time=88
note_on channel=0 note=84 velocity=75 time=23
note_on channel=0 note=84 velocity=0 time=88
note_on channel=0 note=87 velocity=73 time=13
note_on channel=0 note=45 velocity=40 time=9
note_on channel=0 note=42 velocity=0 time=13
note_on channel=0 note=45 velocity=0 time=34
control_change channel=0 control=67 value=8 time=5
control_change channel=0 control=67 value=8 time=15
control_change channel=0 control=67 value=9 time=15
control_change channel=0 control=67 value=11 time=15
control_change channel=0 control=67 value=13 time=17
control_change channel=0 control=64 value=109 time=15
control_change channel=0 control=67 value=16 time=0
note_on channel=0 note=87 velocity=0 time=8
control_change channel=0 control=64 value=96 time=6
control_change channel=0 control=67 value=18 time=0
control_change channel=0 control=64 value=83 time=16
control_change channel=0 control=67 value=20 time=0
note_on channel=0 note=32 velocity=44 time=3
note_on channel=0 note=39 velocity=0 time=0
note_on channel=0 note=93 velocity=55 time=0
control_change channel=0 control=64 value=70 time=12
control_change channel=0 control=67 value=24 time=0
control_change channel=0 control=64 value=41 time=16
control_change channel=0 control=67 value=27 time=0
control_change channel=0 control=64 value=0 time=15
control_change channel=0 control=67 value=31 time=0
control_change channel=0 control=67 value=37 time=15
control_change channel=0 control=64 value=11 time=15
control_change channel=0 control=67 value=41 time=0
control_change channel=0 control=64 value=31 time=15
control_change channel=0 control=67 value=44 time=0
control_change channel=0 control=64 value=38 time=16
control_change channel=0 control=67 value=46 time=0
control_change channel=0 control=64 value=44 time=15
control_change channel=0 control=67 value=49 time=0
note_on channel=0 note=90 velocity=52 time=7
control_change channel=0 control=64 value=52 time=8
control_change channel=0 control=67 value=54 time=0
note_on channel=0 note=93 velocity=0 time=9
control_change channel=0 control=64 value=61 time=7
control_change channel=0 control=67 value=58 time=0
control_change channel=0 control=64 value=64 time=15
control_change channel=0 control=67 value=61 time=0
control_change channel=0 control=64 value=65 time=14
control_change channel=0 control=67 value=62 time=0
control_change channel=0 control=64 value=67 time=16
control_change channel=0 control=67 value=64 time=0
control_change channel=0 control=64 value=70 time=15
control_change channel=0 control=67 value=65 time=0
note_on channel=0 note=90 velocity=0 time=13
control_change channel=0 control=64 value=72 time=3
control_change channel=0 control=67 value=66 time=0
note_on channel=0 note=87 velocity=54 time=6
control_change channel=0 control=64 value=74 time=9
control_change channel=0 control=67 value=66 time=0
control_change channel=0 control=64 value=76 time=14
control_change channel=0 control=64 value=78 time=16
control_change channel=0 control=64 value=81 time=15
control_change channel=0 control=67 value=67 time=0
control_change channel=0 control=64 value=84 time=15
note_on channel=0 note=87 velocity=0 time=5
control_change channel=0 control=64 value=86 time=10
control_change channel=0 control=67 value=68 time=0
note_on channel=0 note=84 velocity=48 time=5
control_change channel=0 control=64 value=87 time=10
control_change channel=0 control=64 value=88 time=16
control_change channel=0 control=64 value=89 time=15
note_on channel=0 note=84 velocity=0 time=9
control_change channel=0 control=64 value=90 time=6
control_change channel=0 control=64 value=91 time=15
control_change channel=0 control=64 value=92 time=15
control_change channel=0 control=64 value=93 time=16
note_on channel=0 note=39 velocity=39 time=4
note_on channel=0 note=81 velocity=48 time=0
control_change channel=0 control=64 value=94 time=11
note_on channel=0 note=81 velocity=0 time=11
control_change channel=0 control=64 value=95 time=4
control_change channel=0 control=64 value=96 time=15
control_change channel=0 control=64 value=98 time=15
control_change channel=0 control=64 value=99 time=15
control_change channel=0 control=64 value=99 time=15
note_on channel=0 note=32 velocity=0 time=10
control_change channel=0 control=64 value=100 time=5
note_on channel=0 note=78 velocity=51 time=1
control_change channel=0 control=64 value=101 time=30
control_change channel=0 control=64 value=101 time=15
control_change channel=0 control=67 value=67 time=0
control_change channel=0 control=64 value=102 time=15
note_on channel=0 note=78 velocity=0 time=17
note_on channel=0 note=75 velocity=44 time=24
control_change channel=0 control=67 value=66 time=5
control_change channel=0 control=64 value=102 time=38
control_change channel=0 control=67 value=66 time=0
note_on channel=0 note=75 velocity=0 time=15
note_on channel=0 note=72 velocity=44 time=49
control_change channel=0 control=67 value=65 time=12
note_on channel=0 note=72 velocity=0 time=40
note_on channel=0 note=43 velocity=53 time=38
note_on channel=0 note=69 velocity=52 time=3
control_change channel=0 control=67 value=65 time=11
note_on channel=0 note=69 velocity=0 time=63
control_change channel=0 control=67 value=64 time=13
note_on channel=0 note=72 velocity=48 time=9
note_on channel=0 note=72 velocity=0 time=59
note_on channel=0 note=75 velocity=60 time=21
note_on channel=0 note=75 velocity=0 time=21
control_change channel=0 control=67 value=64 time=12
note_on channel=0 note=43 velocity=0 time=19
note_on channel=0 note=44 velocity=50 time=41
note_on channel=0 note=81 velocity=59 time=13
note_on channel=0 note=44 velocity=0 time=24
note_on channel=0 note=81 velocity=0 time=17
note_on channel=0 note=39 velocity=0 time=39
note_on channel=0 note=93 velocity=59 time=21
control_change channel=0 control=64 value=99 time=8
control_change channel=0 control=64 value=93 time=15
note_on channel=0 note=32 velocity=50 time=3
control_change channel=0 control=64 value=83 time=12
control_change channel=0 control=64 value=70 time=16
control_change channel=0 control=64 value=37 time=16
control_change channel=0 control=64 value=0 time=15
control_change channel=0 control=64 value=43 time=15
note_on channel=0 note=90 velocity=58 time=5
control_change channel=0 control=64 value=52 time=10
note_on channel=0 note=93 velocity=0 time=13
control_change channel=0 control=64 value=59 time=3
control_change channel=0 control=64 value=63 time=14
control_change channel=0 control=64 value=66 time=15
control_change channel=0 control=64 value=68 time=16
control_change channel=0 control=64 value=70 time=23
note_on channel=0 note=90 velocity=0 time=0
note_on channel=0 note=87 velocity=50 time=11
control_change channel=0 control=64 value=71 time=5
control_change channel=0 control=64 value=73 time=14
control_change channel=0 control=64 value=75 time=15
control_change channel=0 control=64 value=77 time=16
control_change channel=0 control=64 value=78 time=15
note_on channel=0 note=87 velocity=0 time=11
control_change channel=0 control=64 value=80 time=5
control_change channel=0 control=64 value=81 time=14
note_on channel=0 note=84 velocity=42 time=1
control_change channel=0 control=64 value=82 time=14
control_change channel=0 control=64 value=83 time=16
control_change channel=0 control=64 value=85 time=14
note_on channel=0 note=84 velocity=0 time=1
control_change channel=0 control=64 value=86 time=14
control_change channel=0 control=64 value=87 time=17
control_change channel=0 control=64 value=88 time=15
note_on channel=0 note=81 velocity=48 time=4
note_on channel=0 note=39 velocity=50 time=3
control_change channel=0 control=64 value=89 time=9
control_change channel=0 control=64 value=90 time=15
note_on channel=0 note=81 velocity=0 time=9
control_change channel=0 control=64 value=91 time=6
control_change channel=0 control=64 value=92 time=15
control_change channel=0 control=64 value=93 time=15
control_change channel=0 control=64 value=95 time=15
note_on channel=0 note=32 velocity=0 time=12
control_change channel=0 control=64 value=95 time=4
note_on channel=0 note=78 velocity=44 time=13
control_change channel=0 control=64 value=96 time=47
control_change channel=0 control=64 value=96 time=15
note_on channel=0 note=75 velocity=50 time=25
note_on channel=0 note=78 velocity=0 time=14
note_on channel=0 note=75 velocity=0 time=41
control_change channel=0 control=67 value=63 time=26
note_on channel=0 note=72 velocity=47 time=18
control_change channel=0 control=64 value=97 time=44
note_on channel=0 note=72 velocity=0 time=12
note_on channel=0 note=69 velocity=52 time=40
note_on channel=0 note=43 velocity=63 time=2
note_on channel=0 note=69 velocity=0 time=65
note_on channel=0 note=72 velocity=50 time=19
note_on channel=0 note=72 velocity=0 time=85
note_on channel=0 note=75 velocity=56 time=21
note_on channel=0 note=75 velocity=0 time=24
note_on channel=0 note=43 velocity=0 time=22
note_on channel=0 note=44 velocity=56 time=40
note_on channel=0 note=39 velocity=0 time=7
note_on channel=0 note=81 velocity=55 time=25
note_on channel=0 note=44 velocity=0 time=40
note_on channel=0 note=81 velocity=0 time=7
control_change channel=0 control=64 value=96 time=24
control_change channel=0 control=67 value=64 time=0
control_change channel=0 control=64 value=95 time=16
note_on channel=0 note=91 velocity=57 time=14
control_change channel=0 control=64 value=90 time=2
note_on channel=0 note=32 velocity=53 time=1
control_change channel=0 control=64 value=79 time=13
control_change channel=0 control=64 value=65 time=15
control_change channel=0 control=64 value=0 time=16
note_on channel=0 note=91 velocity=0 time=48
note_on channel=0 note=88 velocity=46 time=22
control_change channel=0 control=64 value=45 time=35
control_change channel=0 control=64 value=55 time=16
control_change channel=0 control=64 value=61 time=15
control_change channel=0 control=67 value=63 time=0
control_change channel=0 control=64 value=64 time=15
note_on channel=0 note=85 velocity=53 time=4
note_on channel=0 note=88 velocity=0 time=2
control_change channel=0 control=64 value=66 time=9
control_change channel=0 control=64 value=67 time=15
control_change channel=0 control=64 value=69 time=16
control_change channel=0 control=64 value=70 time=15
control_change channel=0 control=64 value=72 time=15
note_on channel=0 note=85 velocity=0 time=1
note_on channel=0 note=82 velocity=57 time=13
control_change channel=0 control=64 value=73 time=1
control_change channel=0 control=64 value=74 time=15
control_change channel=0 control=64 value=75 time=16
control_change channel=0 control=64 value=76 time=15
note_on channel=0 note=82 velocity=0 time=3
control_change channel=0 control=64 value=77 time=12
control_change channel=0 control=64 value=78 time=15
control_change channel=0 control=64 value=79 time=15
note_on channel=0 note=37 velocity=59 time=11
control_change channel=0 control=64 value=80 time=4
note_on channel=0 note=79 velocity=38 time=0
note_on channel=0 note=79 velocity=0 time=29
control_change channel=0 control=64 value=81 time=33
control_change channel=0 control=64 value=82 time=15
control_change channel=0 control=64 value=82 time=16
note_on channel=0 note=76 velocity=49 time=18
control_change channel=0 control=64 value=83 time=48
note_on channel=0 note=32 velocity=0 time=0
note_on channel=0 note=76 velocity=0 time=27
note_on channel=0 note=73 velocity=53 time=24
control_change channel=0 control=64 value=83 time=26
note_on channel=0 note=73 velocity=0 time=22
note_on channel=0 note=70 velocity=44 time=35
control_change channel=0 control=64 value=82 time=50
note_on channel=0 note=70 velocity=0 time=1
control_change channel=0 control=64 value=81 time=13
control_change channel=0 control=64 value=80 time=16
note_on channel=0 note=43 velocity=65 time=22
note_on channel=0 note=67 velocity=37 time=2
control_change channel=0 control=64 value=81 time=23
control_change channel=0 control=64 value=82 time=15
note_on channel=0 note=67 velocity=0 time=10
control_change channel=0 control=64 value=83 time=5
control_change channel=0 control=64 value=84 time=15
control_change channel=0 control=64 value=85 time=15
note_on channel=0 note=70 velocity=47 time=2
control_change channel=0 control=64 value=86 time=14
control_change channel=0 control=64 value=87 time=15
control_change channel=0 control=64 value=89 time=16
note_on channel=0 note=37 velocity=0 time=2
note_on channel=0 note=70 velocity=0 time=6
control_change channel=0 control=64 value=90 time=6
control_change channel=0 control=64 value=91 time=15
note_on channel=0 note=73 velocity=52 time=28
note_on channel=0 note=73 velocity=0 time=25
note_on channel=0 note=43 velocity=0 time=44
note_on channel=0 note=44 velocity=58 time=33
note_on channel=0 note=76 velocity=46 time=14
note_on channel=0 note=76 velocity=0 time=31
note_on channel=0 note=44 velocity=0 time=10
control_change channel=0 control=67 value=64 time=28
control_change channel=0 control=64 value=89 time=15
note_on channel=0 note=91 velocity=64 time=11
control_change channel=0 control=64 value=84 time=3
control_change channel=0 control=64 value=75 time=16
note_on channel=0 note=32 velocity=50 time=3
control_change channel=0 control=64 value=63 time=12
control_change channel=0 control=64 value=0 time=16
control_change channel=0 control=67 value=64 time=15
control_change channel=0 control=64 value=24 time=15
note_on channel=0 note=91 velocity=0 time=10
control_change channel=0 control=64 value=36 time=13
control_change channel=0 control=64 value=46 time=15
note_on channel=0 note=88 velocity=51 time=0
control_change channel=0 control=64 value=54 time=16
control_change channel=0 control=64 value=62 time=15
control_change channel=0 control=64 value=64 time=14
control_change channel=0 control=67 value=64 time=0
control_change channel=0 control=64 value=65 time=16
control_change channel=0 control=64 value=66 time=15
note_on channel=0 note=88 velocity=0 time=8
control_change channel=0 control=64 value=66 time=6
note_on channel=0 note=85 velocity=55 time=3
control_change channel=0 control=64 value=68 time=13
control_change channel=0 control=64 value=69 time=15
control_change channel=0 control=64 value=70 time=16
control_change channel=0 control=64 value=71 time=15
control_change channel=0 control=64 value=72 time=15
note_on channel=0 note=85 velocity=0 time=1
control_change channel=0 control=64 value=73 time=14
note_on channel=0 note=82 velocity=56 time=0
control_change channel=0 control=64 value=74 time=15
control_change channel=0 control=64 value=75 time=16
control_change channel=0 control=64 value=76 time=15
control_change channel=0 control=67 value=63 time=0
note_on channel=0 note=82 velocity=0 time=11
control_change channel=0 control=64 value=77 time=4
control_change channel=0 control=64 value=78 time=16
control_change channel=0 control=64 value=79 time=15
note_on channel=0 note=37 velocity=55 time=5
note_on channel=0 note=79 velocity=52 time=4
control_change channel=0 control=64 value=81 time=5
control_change channel=0 control=64 value=82 time=16
note_on channel=0 note=79 velocity=0 time=2
control_change channel=0 control=64 value=83 time=14
control_change channel=0 control=64 value=84 time=45
control_change channel=0 control=64 value=85 time=16
note_on channel=0 note=76 velocity=47 time=12
control_change channel=0 control=64 value=86 time=3
control_change channel=0 control=64 value=86 time=16
note_on channel=0 note=32 velocity=0 time=27
control_change channel=0 control=64 value=87 time=3
control_change channel=0 control=64 value=87 time=16
control_change channel=0 control=64 value=88 time=14
note_on channel=0 note=76 velocity=0 time=3
note_on channel=0 note=73 velocity=59 time=10
control_change channel=0 control=64 value=89 time=2
note_on channel=0 note=73 velocity=0 time=69
control_change channel=0 control=64 value=89 time=7
note_on channel=0 note=70 velocity=49 time=15
note_on channel=0 note=70 velocity=0 time=50
note_on channel=0 note=43 velocity=60 time=40
note_on channel=0 note=67 velocity=48 time=12
note_on channel=0 note=67 velocity=0 time=58
note_on channel=0 note=70 velocity=46 time=39
note_on channel=0 note=37 velocity=0 time=13
note_on channel=0 note=70 velocity=0 time=70
note_on channel=0 note=73 velocity=52 time=21
note_on channel=0 note=73 velocity=0 time=24
note_on channel=0 note=43 velocity=0 time=7
note_on channel=0 note=44 velocity=48 time=54
control_change channel=0 control=67 value=64 time=31
note_on channel=0 note=44 velocity=0 time=8
note_on channel=0 note=76 velocity=27 time=9
note_on channel=0 note=76 velocity=0 time=40
control_change channel=0 control=64 value=89 time=3
control_change channel=0 control=64 value=87 time=15
control_change channel=0 control=67 value=64 time=0
control_change channel=0 control=64 value=83 time=15
control_change channel=0 control=64 value=73 time=16
control_change channel=0 control=64 value=62 time=15
control_change channel=0 control=64 value=0 time=17
note_on channel=0 note=32 velocity=37 time=4
note_on channel=0 note=90 velocity=47 time=1
control_change channel=0 control=64 value=23 time=55
control_change channel=0 control=64 value=40 time=15
control_change channel=0 control=64 value=52 time=16
note_on channel=0 note=87 velocity=55 time=4
control_change channel=0 control=64 value=59 time=10
control_change channel=0 control=64 value=63 time=16
control_change channel=0 control=64 value=64 time=15
control_change channel=0 control=64 value=65 time=15
control_change channel=0 control=64 value=66 time=15
note_on channel=0 note=90 velocity=0 time=11
control_change channel=0 control=64 value=68 time=4
note_on channel=0 note=87 velocity=0 time=9
note_on channel=0 note=84 velocity=51 time=2
control_change channel=0 control=64 value=69 time=5
control_change channel=0 control=64 value=70 time=15
control_change channel=0 control=64 value=71 time=15
note_on channel=0 note=84 velocity=0 time=13
control_change channel=0 control=64 value=73 time=3
control_change channel=0 control=64 value=74 time=14
control_change channel=0 control=64 value=76 time=15
note_on channel=0 note=81 velocity=61 time=8
control_change channel=0 control=64 value=77 time=8
control_change channel=0 control=64 value=78 time=14
control_change channel=0 control=64 value=79 time=16
note_on channel=0 note=81 velocity=0 time=6
control_change channel=0 control=64 value=81 time=9
control_change channel=0 control=64 value=82 time=14
control_change channel=0 control=64 value=83 time=16
control_change channel=0 control=64 value=84 time=23
note_on channel=0 note=39 velocity=47 time=1
note_on channel=0 note=78 velocity=53 time=11
control_change channel=0 control=64 value=84 time=19
control_change channel=0 control=64 value=85 time=14
control_change channel=0 control=64 value=85 time=16
control_change channel=0 control=64 value=86 time=15
note_on channel=0 note=75 velocity=55 time=36
note_on channel=0 note=78 velocity=0 time=4
note_on channel=0 note=32 velocity=0 time=15
control_change channel=0 control=64 value=85 time=51
note_on channel=0 note=75 velocity=0 time=1
note_on channel=0 note=72 velocity=51 time=19
note_on channel=0 note=72 velocity=0 time=49
control_change channel=0 control=67 value=64 time=22
note_on channel=0 note=69 velocity=51 time=21
control_change channel=0 control=64 value=85 time=55
note_on channel=0 note=69 velocity=0 time=11
control_change channel=0 control=64 value=83 time=4
control_change channel=0 control=64 value=80 time=16
note_on channel=0 note=66 velocity=53 time=14
control_change channel=0 control=64 value=78 time=1
note_on channel=0 note=43 velocity=57 time=1
control_change channel=0 control=64 value=79 time=61
control_change channel=0 control=64 value=80 time=15
control_change channel=0 control=64 value=80 time=14
note_on channel=0 note=66 velocity=0 time=12
note_on channel=0 note=63 velocity=50 time=2
control_change channel=0 control=64 value=81 time=2
control_change channel=0 control=64 value=82 time=15
note_on channel=0 note=63 velocity=0 time=67
control_change channel=0 control=64 value=83 time=9
note_on channel=0 note=60 velocity=33 time=12
control_change channel=0 control=64 value=83 time=3
note_on channel=0 note=60 velocity=0 time=40
note_on channel=0 note=43 velocity=0 time=14
note_on channel=0 note=57 velocity=51 time=17
note_on channel=0 note=44 velocity=61 time=7
note_on channel=0 note=39 velocity=0 time=33
note_on channel=0 note=44 velocity=0 time=15
control_change channel=0 control=64 value=83 time=33
note_on channel=0 note=57 velocity=0 time=13
control_change channel=0 control=64 value=82 time=3
control_change channel=0 control=64 value=80 time=15
note_on channel=0 note=66 velocity=46 time=2
note_on channel=0 note=32 velocity=51 time=4
control_change channel=0 control=64 value=75 time=10
control_change channel=0 control=64 value=68 time=15
control_change channel=0 control=64 value=38 time=15
control_change channel=0 control=64 value=0 time=16
control_change channel=0 control=64 value=34 time=15
control_change channel=0 control=64 value=50 time=16
note_on channel=0 note=63 velocity=56 time=3
control_change channel=0 control=64 value=58 time=11
control_change channel=0 control=64 value=62 time=15
note_on channel=0 note=66 velocity=0 time=4
control_change channel=0 control=64 value=64 time=12
control_change channel=0 control=64 value=64 time=15
control_change channel=0 control=64 value=66 time=14
control_change channel=0 control=64 value=67 time=16
note_on channel=0 note=63 velocity=0 time=8
control_change channel=0 control=64 value=68 time=7
note_on channel=0 note=60 velocity=46 time=4
control_change channel=0 control=64 value=69 time=12
control_change channel=0 control=64 value=70 time=14
control_change channel=0 control=64 value=71 time=15
note_on channel=0 note=60 velocity=0 time=5
control_change channel=0 control=64 value=73 time=11
control_change channel=0 control=64 value=74 time=15
note_on channel=0 note=57 velocity=48 time=14
control_change channel=0 control=64 value=75 time=1
control_change channel=0 control=64 value=76 time=15
control_change channel=0 control=64 value=77 time=15
note_on channel=0 note=57 velocity=0 time=33
note_on channel=0 note=39 velocity=43 time=29
note_on channel=0 note=54 velocity=48 time=20
note_on channel=0 note=32 velocity=0 time=101
note_on channel=0 note=51 velocity=46 time=7
control_change channel=0 control=64 value=76 time=9
note_on channel=0 note=54 velocity=0 time=5
note_on channel=0 note=51 velocity=0 time=80
note_on channel=0 note=48 velocity=47 time=7
control_change channel=0 control=64 value=76 time=14
note_on channel=0 note=48 velocity=0 time=43
control_change channel=0 control=64 value=75 time=3
note_on channel=0 note=45 velocity=48 time=23
control_change channel=0 control=64 value=75 time=8
control_change channel=0 control=64 value=74 time=15
control_change channel=0 control=64 value=73 time=22
note_on channel=0 note=45 velocity=0 time=9
control_change channel=0 control=64 value=72 time=6
control_change channel=0 control=64 value=71 time=15
control_change channel=0 control=64 value=70 time=16
control_change channel=0 control=64 value=67 time=14
control_change channel=0 control=64 value=64 time=11
note_on channel=0 note=43 velocity=53 time=0
control_change channel=0 control=64 value=55 time=15
control_change channel=0 control=64 value=0 time=16
control_change channel=0 control=64 value=14 time=91
control_change channel=0 control=64 value=32 time=16
control_change channel=0 control=64 value=47 time=15
control_change channel=0 control=64 value=59 time=15
control_change channel=0 control=64 value=63 time=15
control_change channel=0 control=64 value=64 time=15
control_change channel=0 control=64 value=65 time=15
control_change channel=0 control=67 value=63 time=0
control_change channel=0 control=64 value=66 time=16
control_change channel=0 control=64 value=67 time=15
control_change channel=0 control=64 value=69 time=15
control_change channel=0 control=64 value=71 time=15
note_on channel=0 note=43 velocity=0 time=4
note_on channel=0 note=39 velocity=0 time=1
control_change channel=0 control=64 value=72 time=10
control_change channel=0 control=64 value=73 time=16
control_change channel=0 control=64 value=73 time=15
note_on channel=0 note=44 velocity=50 time=1
control_change channel=0 control=64 value=74 time=13
control_change channel=0 control=64 value=74 time=31
control_change channel=0 control=64 value=75 time=15
control_change channel=0 control=64 value=76 time=15
control_change channel=0 control=64 value=75 time=78
note_on channel=0 note=54 velocity=43 time=23
control_change channel=0 control=64 value=75 time=7
note_on channel=0 note=32 velocity=39 time=14
control_change channel=0 control=64 value=74 time=1
note_on channel=0 note=44 velocity=0 time=28
control_change channel=0 control=64 value=73 time=3
control_change channel=0 control=64 value=73 time=14
control_change channel=0 control=64 value=72 time=16
control_change channel=0 control=64 value=72 time=15
note_on channel=0 note=51 velocity=49 time=5
control_change channel=0 control=64 value=71 time=9
control_change channel=0 control=64 value=69 time=16
control_change channel=0 control=64 value=67 time=15
note_on channel=0 note=54 velocity=0 time=9
control_change channel=0 control=64 value=66 time=6
control_change channel=0 control=64 value=66 time=16
control_change channel=0 control=64 value=65 time=22
note_on channel=0 note=48 velocity=44 time=4
note_on channel=0 note=51 velocity=0 time=14
control_change channel=0 control=64 value=64 time=13
control_change channel=0 control=64 value=63 time=16
control_change channel=0 control=64 value=63 time=15
note_on channel=0 note=48 velocity=0 time=21
note_on channel=0 note=45 velocity=52 time=12
control_change channel=0 control=64 value=62 time=12
control_change channel=0 control=64 value=61 time=15
note_on channel=0 note=45 velocity=0 time=53
control_change channel=0 control=64 value=61 time=8
control_change channel=0 control=64 value=60 time=15
note_on channel=0 note=39 velocity=44 time=28
control_change channel=0 control=64 value=59 time=33
note_on channel=0 note=32 velocity=0 time=8
control_change channel=0 control=64 value=58 time=7
control_change channel=0 control=64 value=57 time=16
control_change channel=0 control=64 value=55 time=45
control_change channel=0 control=64 value=48 time=15
control_change channel=0 control=64 value=0 time=16
control_change channel=0 control=64 value=23 time=508
control_change channel=0 control=64 value=28 time=16
control_change channel=0 control=64 value=33 time=15
control_change channel=0 control=64 value=38 time=14
control_change channel=0 control=64 value=44 time=16
control_change channel=0 control=64 value=49 time=15
control_change channel=0 control=64 value=52 time=16
control_change channel=0 control=64 value=54 time=15
control_change channel=0 control=64 value=54 time=14
control_change channel=0 control=64 value=56 time=16
control_change channel=0 control=64 value=58 time=15
control_change channel=0 control=64 value=60 time=15
control_change channel=0 control=64 value=61 time=16
control_change channel=0 control=64 value=62 time=15
control_change channel=0 control=64 value=63 time=16
control_change channel=0 control=64 value=63 time=14
control_change channel=0 control=64 value=64 time=15
control_change channel=0 control=64 value=65 time=16
control_change channel=0 control=64 value=65 time=15
control_change channel=0 control=64 value=66 time=15
control_change channel=0 control=64 value=66 time=15
control_change channel=0 control=64 value=67 time=31
control_change channel=0 control=64 value=67 time=15
control_change channel=0 control=64 value=68 time=15
note_on channel=0 note=32 velocity=32 time=9
control_change channel=0 control=64 value=68 time=6
note_on channel=0 note=54 velocity=34 time=10
control_change channel=0 control=64 value=69 time=5
control_change channel=0 control=67 value=63 time=0
control_change channel=0 control=64 value=69 time=15
control_change channel=0 control=64 value=70 time=15
control_change channel=0 control=64 value=70 time=15
control_change channel=0 control=64 value=71 time=16
note_on channel=0 note=39 velocity=0 time=4
control_change channel=0 control=64 value=72 time=11
control_change channel=0 control=64 value=73 time=15
note_on channel=0 note=51 velocity=43 time=4
control_change channel=0 control=64 value=74 time=11
control_change channel=0 control=64 value=75 time=15
control_change channel=0 control=64 value=76 time=17
control_change channel=0 control=64 value=77 time=15
note_on channel=0 note=54 velocity=0 time=4
control_change channel=0 control=64 value=78 time=11
note_on channel=0 note=48 velocity=45 time=5
note_on channel=0 note=51 velocity=0 time=37
note_on channel=0 note=48 velocity=0 time=72
note_on channel=0 note=45 velocity=43 time=3
control_change channel=0 control=64 value=77 time=13
control_change channel=0 control=64 value=77 time=15
control_change channel=0 control=64 value=76 time=15
control_change channel=0 control=64 value=75 time=15
control_change channel=0 control=64 value=74 time=15
control_change channel=0 control=64 value=73 time=15
control_change channel=0 control=64 value=71 time=16
note_on channel=0 note=39 velocity=44 time=4
control_change channel=0 control=64 value=69 time=11
note_on channel=0 note=32 velocity=0 time=4
control_change channel=0 control=64 value=67 time=11
note_on channel=0 note=45 velocity=0 time=11
control_change channel=0 control=64 value=64 time=4
control_change channel=0 control=64 value=64 time=15
control_change channel=0 control=64 value=63 time=16
control_change channel=0 control=64 value=63 time=14
control_change channel=0 control=64 value=60 time=15
control_change channel=0 control=64 value=49 time=16
control_change channel=0 control=64 value=0 time=15
control_change channel=0 control=67 value=63 time=16
note_on channel=0 note=39 velocity=0 time=1289
control_change channel=0 control=64 value=23 time=3
note_on channel=0 note=32 velocity=37 time=2
control_change channel=0 control=64 value=38 time=13
control_change channel=0 control=64 value=53 time=16
control_change channel=0 control=64 value=61 time=15
control_change channel=0 control=64 value=64 time=15
control_change channel=0 control=64 value=66 time=16
control_change channel=0 control=64 value=68 time=15
control_change channel=0 control=64 value=71 time=16
control_change channel=0 control=64 value=74 time=14
control_change channel=0 control=64 value=76 time=15
control_change channel=0 control=64 value=78 time=16
control_change channel=0 control=67 value=64 time=0
control_change channel=0 control=64 value=79 time=15
control_change channel=0 control=67 value=64 time=30
note_on channel=0 note=32 velocity=0 time=1
control_change channel=0 control=67 value=65 time=14
control_change channel=0 control=67 value=65 time=16
control_change channel=0 control=67 value=66 time=15
control_change channel=0 control=64 value=79 time=14
control_change channel=0 control=67 value=66 time=0
control_change channel=0 control=64 value=78 time=16
control_change channel=0 control=67 value=67 time=0
control_change channel=0 control=64 value=77 time=15
control_change channel=0 control=67 value=68 time=0
control_change channel=0 control=64 value=76 time=16
control_change channel=0 control=67 value=68 time=0
control_change channel=0 control=64 value=73 time=14
control_change channel=0 control=67 value=69 time=0
control_change channel=0 control=64 value=68 time=15
control_change channel=0 control=67 value=69 time=0
control_change channel=0 control=64 value=56 time=16
control_change channel=0 control=64 value=0 time=15
control_change channel=0 control=67 value=70 time=0
control_change channel=0 control=67 value=73 time=15
control_change channel=0 control=67 value=77 time=16
control_change channel=0 control=67 value=78 time=14
control_change channel=0 control=67 value=79 time=16
control_change channel=0 control=67 value=79 time=45
control_change channel=0 control=67 value=79 time=419
control_change channel=0 control=67 value=78 time=228
control_change channel=0 control=64 value=11 time=136
control_change channel=0 control=64 value=14 time=16
control_change channel=0 control=64 value=17 time=15
control_change channel=0 control=64 value=19 time=14
control_change channel=0 control=64 value=27 time=16
control_change channel=0 control=64 value=35 time=15
control_change channel=0 control=64 value=39 time=16
control_change channel=0 control=64 value=42 time=15
control_change channel=0 control=64 value=42 time=15
control_change channel=0 control=67 value=78 time=0
control_change channel=0 control=64 value=43 time=16
control_change channel=0 control=64 value=44 time=15
control_change channel=0 control=64 value=47 time=14
control_change channel=0 control=64 value=49 time=16
control_change channel=0 control=64 value=51 time=15
control_change channel=0 control=64 value=53 time=16
control_change channel=0 control=64 value=55 time=15
control_change channel=0 control=64 value=56 time=22
control_change channel=0 control=64 value=58 time=15
control_change channel=0 control=64 value=60 time=15
control_change channel=0 control=64 value=61 time=16
control_change channel=0 control=64 value=62 time=15
control_change channel=0 control=67 value=77 time=0
control_change channel=0 control=64 value=63 time=16
control_change channel=0 control=64 value=64 time=16
control_change channel=0 control=64 value=65 time=14
control_change channel=0 control=64 value=66 time=16
note_on channel=0 note=32 velocity=39 time=8
control_change channel=0 control=64 value=67 time=7
control_change channel=0 control=67 value=77 time=0
control_change channel=0 control=64 value=68 time=15
control_change channel=0 control=64 value=70 time=16
control_change channel=0 control=64 value=71 time=14
control_change channel=0 control=64 value=72 time=16
control_change channel=0 control=64 value=74 time=15
control_change channel=0 control=67 value=76 time=0
control_change channel=0 control=64 value=76 time=14
note_on channel=0 note=32 velocity=0 time=0
control_change channel=0 control=64 value=79 time=16
control_change channel=0 control=64 value=82 time=15
control_change channel=0 control=64 value=83 time=15
control_change channel=0 control=64 value=82 time=107
control_change channel=0 control=64 value=81 time=15
control_change channel=0 control=64 value=81 time=16
control_change channel=0 control=64 value=80 time=15
control_change channel=0 control=64 value=79 time=15
control_change channel=0 control=64 value=78 time=15
control_change channel=0 control=64 value=77 time=15
control_change channel=0 control=64 value=75 time=16
control_change channel=0 control=64 value=72 time=15
control_change channel=0 control=64 value=70 time=14
control_change channel=0 control=64 value=68 time=16
control_change channel=0 control=64 value=66 time=15
control_change channel=0 control=64 value=64 time=16
control_change channel=0 control=64 value=60 time=15
control_change channel=0 control=64 value=56 time=14
control_change channel=0 control=64 value=54 time=16
control_change channel=0 control=64 value=50 time=15
control_change channel=0 control=64 value=44 time=15
control_change channel=0 control=64 value=33 time=15
control_change channel=0 control=64 value=28 time=15
control_change channel=0 control=64 value=26 time=16
control_change channel=0 control=64 value=24 time=29
control_change channel=0 control=64 value=23 time=31
control_change channel=0 control=64 value=21 time=129
control_change channel=0 control=64 value=19 time=458
control_change channel=0 control=67 value=76 time=0
control_change channel=0 control=64 value=17 time=75
control_change channel=0 control=67 value=75 time=0
control_change channel=0 control=67 value=75 time=15
control_change channel=0 control=64 value=14 time=15
control_change channel=0 control=67 value=74 time=16
control_change channel=0 control=64 value=11 time=15
control_change channel=0 control=64 value=0 time=15
control_change channel=0 control=67 value=74 time=0
control_change channel=0 control=67 value=73 time=30
control_change channel=0 control=67 value=73 time=24
control_change channel=0 control=67 value=72 time=15
control_change channel=0 control=67 value=72 time=15
control_change channel=0 control=67 value=71 time=30
control_change channel=0 control=67 value=70 time=15
control_change channel=0 control=67 value=70 time=31
control_change channel=0 control=67 value=69 time=15
control_change channel=0 control=67 value=69 time=15
control_change channel=0 control=67 value=68 time=15
control_change channel=0 control=67 value=68 time=32
control_change channel=0 control=67 value=67 time=15
control_change channel=0 control=67 value=66 time=31
control_change channel=0 control=67 value=66 time=15
control_change channel=0 control=67 value=64 time=14
control_change channel=0 control=67 value=62 time=16
control_change channel=0 control=67 value=59 time=15
control_change channel=0 control=67 value=57 time=15
control_change channel=0 control=67 value=55 time=15
control_change channel=0 control=67 value=53 time=15
control_change channel=0 control=67 value=51 time=16
control_change channel=0 control=67 value=48 time=15
control_change channel=0 control=67 value=45 time=14
control_change channel=0 control=67 value=40 time=16
control_change channel=0 control=67 value=37 time=15
control_change channel=0 control=67 value=34 time=16
control_change channel=0 control=64 value=14 time=15
control_change channel=0 control=67 value=30 time=0
control_change channel=0 control=64 value=27 time=14
control_change channel=0 control=67 value=27 time=0
control_change channel=0 control=64 value=33 time=16
control_change channel=0 control=67 value=24 time=0
control_change channel=0 control=64 value=38 time=15
control_change channel=0 control=67 value=21 time=0
control_change channel=0 control=64 value=42 time=16
control_change channel=0 control=67 value=17 time=0
control_change channel=0 control=64 value=46 time=15
control_change channel=0 control=67 value=14 time=0
control_change channel=0 control=64 value=50 time=15
control_change channel=0 control=67 value=11 time=0
control_change channel=0 control=64 value=54 time=16
control_change channel=0 control=67 value=8 time=0
control_change channel=0 control=64 value=56 time=15
control_change channel=0 control=67 value=0 time=0
control_change channel=0 control=64 value=58 time=15
control_change channel=0 control=64 value=59 time=15
control_change channel=0 control=64 value=61 time=15
control_change channel=0 control=64 value=62 time=16
control_change channel=0 control=64 value=63 time=15
control_change channel=0 control=64 value=63 time=15
control_change channel=0 control=64 value=64 time=16
control_change channel=0 control=64 value=64 time=15
control_change channel=0 control=64 value=65 time=30
control_change channel=0 control=64 value=64 time=31
note_on channel=0 note=49 velocity=51 time=10
note_on channel=0 note=37 velocity=31 time=30
note_on channel=0 note=49 velocity=0 time=15
note_on channel=0 note=37 velocity=0 time=27
control_change channel=0 control=64 value=64 time=16
control_change channel=0 control=64 value=63 time=31
note_on channel=0 note=40 velocity=63 time=71
control_change channel=0 control=64 value=64 time=5
note_on channel=0 note=52 velocity=57 time=2
note_on channel=0 note=40 velocity=0 time=27
note_on channel=0 note=52 velocity=0 time=5
control_change channel=0 control=64 value=63 time=27
control_change channel=0 control=64 value=60 time=16
control_change channel=0 control=64 value=57 time=15
control_change channel=0 control=64 value=58 time=31
note_on channel=0 note=43 velocity=71 time=13
control_change channel=0 control=64 value=59 time=2
note_on channel=0 note=55 velocity=72 time=0
control_change channel=0 control=64 value=61 time=15
control_change channel=0 control=64 value=62 time=15
note_on channel=0 note=43 velocity=0 time=0
note_on channel=0 note=55 velocity=0 time=0
control_change channel=0 control=64 value=63 time=15
control_change channel=0 control=64 value=63 time=15
control_change channel=0 control=64 value=63 time=15
control_change channel=0 control=64 value=62 time=15
control_change channel=0 control=64 value=59 time=16
note_on channel=0 note=56 velocity=74 time=11
control_change channel=0 control=64 value=56 time=4
note_on channel=0 note=44 velocity=71 time=3
control_change channel=0 control=64 value=54 time=12
note_on channel=0 note=56 velocity=0 time=7
note_on channel=0 note=44 velocity=0 time=7
control_change channel=0 control=64 value=54 time=16
control_change channel=0 control=64 value=56 time=16
control_change channel=0 control=64 value=58 time=15
control_change channel=0 control=64 value=60 time=14
control_change channel=0 control=64 value=61 time=16
note_on channel=0 note=49 velocity=84 time=12
note_on channel=0 note=37 velocity=75 time=2
note_on channel=0 note=49 velocity=0 time=26
control_change channel=0 control=64 value=54 time=5
note_on channel=0 note=37 velocity=0 time=3
control_change channel=0 control=64 value=19 time=12
control_change channel=0 control=64 value=0 time=16
note_on channel=0 note=50 velocity=76 time=46
note_on channel=0 note=40 velocity=76 time=1
control_change channel=0 control=64 value=23 time=13
control_change channel=0 control=64 value=51 time=16
note_on channel=0 note=50 velocity=0 time=4
note_on channel=0 note=40 velocity=0 time=1
control_change channel=0 control=64 value=61 time=10
control_change channel=0 control=64 value=63 time=15
control_change channel=0 control=64 value=60 time=16
control_change channel=0 control=64 value=39 time=22
control_change channel=0 control=64 value=0 time=16
note_on channel=0 note=43 velocity=92 time=8
note_on channel=0 note=55 velocity=93 time=1
note_on channel=0 note=55 velocity=0 time=24
note_on channel=0 note=43 velocity=0 time=19
control_change channel=0 control=64 value=42 time=24
control_change channel=0 control=64 value=59 time=14
control_change channel=0 control=64 value=63 time=15
note_on channel=0 note=56 velocity=90 time=0
note_on channel=0 note=44 velocity=77 time=11
control_change channel=0 control=64 value=64 time=5
note_on channel=0 note=56 velocity=0 time=6
control_change channel=0 control=64 value=64 time=9
note_on channel=0 note=44 velocity=0 time=11
control_change channel=0 control=64 value=55 time=20
control_change channel=0 control=64 value=0 time=14
note_on channel=0 note=49 velocity=92 time=49
note_on channel=0 note=37 velocity=80 time=3
note_on channel=0 note=61 velocity=93 time=4
note_on channel=0 note=73 velocity=93 time=3
note_on channel=0 note=61 velocity=0 time=20
note_on channel=0 note=49 velocity=0 time=3
note_on channel=0 note=39 velocity=25 time=12
control_change channel=0 control=64 value=58 time=1
note_on channel=0 note=37 velocity=0 time=0
note_on channel=0 note=73 velocity=0 time=13
control_change channel=0 control=64 value=67 time=2
control_change channel=0 control=64 value=66 time=16
control_change channel=0 control=64 value=58 time=15
note_on channel=0 note=50 velocity=49 time=11
control_change channel=0 control=64 value=0 time=4
note_on channel=0 note=40 velocity=77 time=11
note_on channel=0 note=62 velocity=73 time=6
note_on channel=0 note=64 velocity=77 time=0
note_on channel=0 note=76 velocity=82 time=0
note_on channel=0 note=74 velocity=76 time=2
note_on channel=0 note=39 velocity=0 time=6
note_on channel=0 note=62 velocity=0 time=11
note_on channel=0 note=64 velocity=0 time=2
note_on channel=0 note=74 velocity=0 time=1
note_on channel=0 note=40 velocity=0 time=3
note_on channel=0 note=50 velocity=0 time=7
note_on channel=0 note=76 velocity=0 time=1
note_on channel=0 note=79 velocity=103 time=72
note_on channel=0 note=67 velocity=93 time=4
note_on channel=0 note=43 velocity=85 time=2
note_on channel=0 note=55 velocity=92 time=2
note_on channel=0 note=67 velocity=0 time=19
note_on channel=0 note=55 velocity=0 time=4
note_on channel=0 note=43 velocity=0 time=3
note_on channel=0 note=79 velocity=0 time=10
control_change channel=0 control=64 value=55 time=62
note_on channel=0 note=68 velocity=92 time=12
note_on channel=0 note=56 velocity=103 time=1
control_change channel=0 control=64 value=71 time=1
note_on channel=0 note=44 velocity=87 time=2
note_on channel=0 note=80 velocity=96 time=0
control_change channel=0 control=64 value=79 time=14
control_change channel=0 control=64 value=85 time=15
note_on channel=0 note=68 velocity=0 time=2
note_on channel=0 note=56 velocity=0 time=4
note_on channel=0 note=44 velocity=0 time=2
control_change channel=0 control=64 value=92 time=7
control_change channel=0 control=64 value=105 time=15
note_on channel=0 note=80 velocity=0 time=10
control_change channel=0 control=64 value=127 time=5
control_change channel=0 control=64 value=119 time=76
control_change channel=0 control=64 value=96 time=23
note_on channel=0 note=61 velocity=96 time=10
note_on channel=0 note=85 velocity=104 time=1
note_on channel=0 note=49 velocity=91 time=1
note_on channel=0 note=73 velocity=103 time=0
control_change channel=0 control=64 value=75 time=3
control_change channel=0 control=64 value=0 time=15
control_change channel=0 control=64 value=51 time=261
control_change channel=0 control=64 value=63 time=15
control_change channel=0 control=64 value=68 time=15
control_change channel=0 control=64 value=71 time=16
control_change channel=0 control=64 value=75 time=16
control_change channel=0 control=64 value=79 time=15
control_change channel=0 control=64 value=86 time=16
control_change channel=0 control=64 value=95 time=14
control_change channel=0 control=64 value=110 time=15
control_change channel=0 control=64 value=127 time=16
note_on channel=0 note=73 velocity=0 time=37
note_on channel=0 note=61 velocity=0 time=27
note_on channel=0 note=49 velocity=0 time=116
note_on channel=0 note=85 velocity=0 time=171
note_on channel=0 note=83 velocity=92 time=134
note_on channel=0 note=71 velocity=76 time=7
note_on channel=0 note=71 velocity=0 time=188
note_on channel=0 note=83 velocity=0 time=21
control_change channel=0 control=64 value=87 time=52
note_on channel=0 note=83 velocity=78 time=11
control_change channel=0 control=64 value=64 time=3
note_on channel=0 note=28 velocity=50 time=0
note_on channel=0 note=40 velocity=50 time=0
control_change channel=0 control=64 value=53 time=15
note_on channel=0 note=71 velocity=65 time=4
control_change channel=0 control=64 value=65 time=12
control_change channel=0 control=64 value=69 time=15
control_change channel=0 control=64 value=74 time=15
note_on channel=0 note=28 velocity=0 time=15
control_change channel=0 control=64 value=80 time=1
control_change channel=0 control=64 value=89 time=15
note_on channel=0 note=40 velocity=0 time=14
control_change channel=0 control=64 value=97 time=1
control_change channel=0 control=64 value=100 time=15
control_change channel=0 control=64 value=103 time=15
control_change channel=0 control=64 value=106 time=16
note_on channel=0 note=71 velocity=0 time=3
control_change channel=0 control=64 value=110 time=12
control_change channel=0 control=64 value=114 time=14
control_change channel=0 control=64 value=118 time=16
control_change channel=0 control=64 value=119 time=16
control_change channel=0 control=64 value=119 time=31
control_change channel=0 control=64 value=120 time=14
note_on channel=0 note=64 velocity=63 time=10
control_change channel=0 control=64 value=121 time=6
note_on channel=0 note=61 velocity=59 time=1
control_change channel=0 control=64 value=122 time=14
note_on channel=0 note=61 velocity=0 time=9
note_on channel=0 note=64 velocity=0 time=0
control_change channel=0 control=64 value=123 time=7
note_on channel=0 note=83 velocity=0 time=42
note_on channel=0 note=69 velocity=77 time=52
note_on channel=0 note=81 velocity=88 time=1
note_on channel=0 note=61 velocity=58 time=4
note_on channel=0 note=64 velocity=52 time=9
note_on channel=0 note=61 velocity=0 time=21
note_on channel=0 note=64 velocity=0 time=1
note_on channel=0 note=69 velocity=0 time=6
note_on channel=0 note=81 velocity=0 time=27
note_on channel=0 note=64 velocity=67 time=50
note_on channel=0 note=61 velocity=68 time=5
note_on channel=0 note=81 velocity=92 time=0
note_on channel=0 note=69 velocity=77 time=10
note_on channel=0 note=61 velocity=0 time=22
note_on channel=0 note=64 velocity=0 time=0
note_on channel=0 note=69 velocity=0 time=55
note_on channel=0 note=61 velocity=82 time=28
note_on channel=0 note=64 velocity=81 time=3
note_on channel=0 note=64 velocity=0 time=28
note_on channel=0 note=81 velocity=0 time=19
note_on channel=0 note=61 velocity=0 time=1
control_change channel=0 control=64 value=127 time=2
note_on channel=0 note=80 velocity=93 time=58
note_on channel=0 note=68 velocity=85 time=2
note_on channel=0 note=61 velocity=70 time=1
note_on channel=0 note=64 velocity=72 time=8
control_change channel=0 control=64 value=111 time=7
control_change channel=0 control=64 value=104 time=16
note_on channel=0 note=64 velocity=0 time=3
note_on channel=0 note=68 velocity=0 time=12
note_on channel=0 note=61 velocity=0 time=8
note_on channel=0 note=80 velocity=0 time=15
control_change channel=0 control=64 value=105 time=8
control_change channel=0 control=64 value=111 time=15
control_change channel=0 control=64 value=127 time=15
note_on channel=0 note=64 velocity=68 time=21
note_on channel=0 note=61 velocity=73 time=3
note_on channel=0 note=80 velocity=90 time=3
note_on channel=0 note=68 velocity=81 time=7
note_on channel=0 note=64 velocity=0 time=12
note_on channel=0 note=61 velocity=0 time=19
note_on channel=0 note=68 velocity=0 time=56
note_on channel=0 note=80 velocity=0 time=105
note_on channel=0 note=66 velocity=68 time=110
note_on channel=0 note=78 velocity=80 time=3
control_change channel=0 control=64 value=124 time=34
control_change channel=0 control=64 value=117 time=15
note_on channel=0 note=66 velocity=0 time=6
control_change channel=0 control=64 value=112 time=9
note_on channel=0 note=78 velocity=0 time=4
control_change channel=0 control=64 value=109 time=11
control_change channel=0 control=64 value=106 time=15
control_change channel=0 control=64 value=104 time=16
control_change channel=0 control=64 value=101 time=15
control_change channel=0 control=64 value=97 time=15
note_on channel=0 note=39 velocity=56 time=5
note_on channel=0 note=51 velocity=52 time=5
note_on channel=0 note=78 velocity=65 time=3
control_change channel=0 control=64 value=94 time=3
note_on channel=0 note=75 velocity=61 time=0
control_change channel=0 control=64 value=91 time=14
note_on channel=0 note=66 velocity=55 time=0
note_on channel=0 note=73 velocity=41 time=13
control_change channel=0 control=64 value=88 time=2
note_on channel=0 note=51 velocity=0 time=4
note_on channel=0 note=75 velocity=0 time=8
note_on channel=0 note=66 velocity=0 time=3
control_change channel=0 control=64 value=84 time=1
note_on channel=0 note=39 velocity=0 time=2
note_on channel=0 note=73 velocity=0 time=12
control_change channel=0 control=64 value=79 time=1
note_on channel=0 note=78 velocity=0 time=2
control_change channel=0 control=64 value=74 time=14
control_change channel=0 control=64 value=70 time=14
control_change channel=0 control=64 value=65 time=15
control_change channel=0 control=64 value=63 time=16
note_on channel=0 note=66 velocity=64 time=10
note_on channel=0 note=78 velocity=61 time=0
note_on channel=0 note=73 velocity=67 time=2
control_change channel=0 control=64 value=59 time=2
note_on channel=0 note=42 velocity=65 time=0
note_on channel=0 note=54 velocity=59 time=3
note_on channel=0 note=75 velocity=64 time=5
control_change channel=0 control=64 value=53 time=8
note_on channel=0 note=66 velocity=0 time=7
note_on channel=0 note=54 velocity=0 time=4
note_on channel=0 note=73 velocity=0 time=0
control_change channel=0 control=64 value=50 time=4
note_on channel=0 note=75 velocity=0 time=1
note_on channel=0 note=78 velocity=0 time=9
note_on channel=0 note=42 velocity=0 time=2
control_change channel=0 control=64 value=54 time=33
control_change channel=0 control=64 value=57 time=15
control_change channel=0 control=64 value=58 time=17
note_on channel=0 note=66 velocity=72 time=3
note_on channel=0 note=56 velocity=80 time=1
note_on channel=0 note=75 velocity=77 time=0
note_on channel=0 note=73 velocity=76 time=1
note_on channel=0 note=44 velocity=65 time=1
note_on channel=0 note=78 velocity=65 time=2
control_change channel=0 control=64 value=56 time=7
note_on channel=0 note=66 velocity=0 time=14
control_change channel=0 control=64 value=37 time=2
note_on channel=0 note=73 velocity=0 time=7
note_on channel=0 note=78 velocity=0 time=6
control_change channel=0 control=64 value=0 time=2
note_on channel=0 note=75 velocity=0 time=4
note_on channel=0 note=56 velocity=0 time=9
note_on channel=0 note=44 velocity=0 time=12
note_on channel=0 note=57 velocity=83 time=47
note_on channel=0 note=66 velocity=80 time=2
control_change channel=0 control=64 value=47 time=1
note_on channel=0 note=78 velocity=73 time=3
note_on channel=0 note=45 velocity=76 time=3
note_on channel=0 note=75 velocity=69 time=3
note_on channel=0 note=73 velocity=75 time=1
control_change channel=0 control=64 value=59 time=5
note_on channel=0 note=57 velocity=0 time=6
note_on channel=0 note=66 velocity=0 time=0
control_change channel=0 control=64 value=55 time=10
note_on channel=0 note=73 velocity=0 time=5
note_on channel=0 note=45 velocity=0 time=1
note_on channel=0 note=75 velocity=0 time=1
control_change channel=0 control=64 value=0 time=8
note_on channel=0 note=78 velocity=0 time=0
note_on channel=0 note=66 velocity=84 time=74
note_on channel=0 note=39 velocity=80 time=2
note_on channel=0 note=51 velocity=84 time=0
note_on channel=0 note=75 velocity=80 time=0
note_on channel=0 note=73 velocity=73 time=2
note_on channel=0 note=78 velocity=67 time=7
note_on channel=0 note=66 velocity=0 time=10
note_on channel=0 note=51 velocity=0 time=16
note_on channel=0 note=39 velocity=0 time=2
note_on channel=0 note=73 velocity=0 time=0
note_on channel=0 note=78 velocity=0 time=12
note_on channel=0 note=75 velocity=0 time=3
note_on channel=0 note=42 velocity=85 time=67
note_on channel=0 note=54 velocity=87 time=0
note_on channel=0 note=66 velocity=90 time=0
note_on channel=0 note=75 velocity=73 time=7
control_change channel=0 control=64 value=36 time=3
note_on channel=0 note=78 velocity=73 time=0
note_on channel=0 note=73 velocity=80 time=1
control_change channel=0 control=64 value=30 time=15
note_on channel=0 note=66 velocity=0 time=2
note_on channel=0 note=54 velocity=0 time=9
note_on channel=0 note=73 velocity=0 time=0
control_change channel=0 control=64 value=0 time=4
note_on channel=0 note=78 velocity=0 time=6
note_on channel=0 note=42 velocity=0 time=2
note_on channel=0 note=75 velocity=0 time=0
note_on channel=0 note=56 velocity=95 time=61
note_on channel=0 note=44 velocity=73 time=7
note_on channel=0 note=66 velocity=94 time=0
note_on channel=0 note=75 velocity=76 time=5
note_on channel=0 note=73 velocity=81 time=2
note_on channel=0 note=78 velocity=73 time=0
note_on channel=0 note=66 velocity=0 time=26
note_on channel=0 note=56 velocity=0 time=5
note_on channel=0 note=73 velocity=0 time=1
note_on channel=0 note=46 velocity=27 time=1
note_on channel=0 note=75 velocity=0 time=10
note_on channel=0 note=78 velocity=0 time=3
control_change channel=0 control=64 value=42 time=7
note_on channel=0 note=44 velocity=0 time=6
control_change channel=0 control=64 value=38 time=10
note_on channel=0 note=46 velocity=0 time=9
control_change channel=0 control=64 value=0 time=6
note_on channel=0 note=57 velocity=89 time=20
note_on channel=0 note=45 velocity=87 time=6
note_on channel=0 note=66 velocity=92 time=0
note_on channel=0 note=78 velocity=78 time=1
note_on channel=0 note=75 velocity=76 time=4
note_on channel=0 note=73 velocity=85 time=4
note_on channel=0 note=57 velocity=0 time=9
note_on channel=0 note=45 velocity=0 time=12
control_change channel=0 control=64 value=46 time=5
note_on channel=0 note=66 velocity=0 time=1
note_on channel=0 note=73 velocity=0 time=3
control_change channel=0 control=64 value=43 time=11
note_on channel=0 note=78 velocity=0 time=2
note_on channel=0 note=75 velocity=0 time=1
control_change channel=0 control=64 value=0 time=11
note_on channel=0 note=51 velocity=86 time=54
note_on channel=0 note=66 velocity=97 time=0
note_on channel=0 note=78 velocity=82 time=3
note_on channel=0 note=75 velocity=75 time=1
note_on channel=0 note=73 velocity=77 time=7
note_on channel=0 note=39 velocity=64 time=1
note_on channel=0 note=42 velocity=60 time=3
note_on channel=0 note=51 velocity=0 time=10
note_on channel=0 note=73 velocity=0 time=14
note_on channel=0 note=66 velocity=0 time=2
note_on channel=0 note=39 velocity=0 time=2
note_on channel=0 note=42 velocity=0 time=0
control_change channel=0 control=64 value=56 time=10
note_on channel=0 note=75 velocity=0 time=5
note_on channel=0 note=78 velocity=0 time=0
control_change channel=0 control=64 value=65 time=10
control_change channel=0 control=64 value=62 time=16
control_change channel=0 control=64 value=0 time=16
note_on channel=0 note=42 velocity=82 time=21
note_on channel=0 note=66 velocity=99 time=2
note_on channel=0 note=78 velocity=97 time=0
note_on channel=0 note=54 velocity=91 time=3
note_on channel=0 note=54 velocity=0 time=24
note_on channel=0 note=66 velocity=0 time=8
note_on channel=0 note=42 velocity=0 time=1
note_on channel=0 note=78 velocity=0 time=18
note_on channel=0 note=56 velocity=97 time=73
note_on channel=0 note=68 velocity=94 time=1
note_on channel=0 note=80 velocity=95 time=0
note_on channel=0 note=44 velocity=78 time=5
note_on channel=0 note=78 velocity=41 time=33
note_on channel=0 note=78 velocity=0 time=1
note_on channel=0 note=68 velocity=0 time=7
note_on channel=0 note=56 velocity=0 time=2
note_on channel=0 note=80 velocity=0 time=11
note_on channel=0 note=44 velocity=0 time=5
control_change channel=0 control=64 value=61 time=80
note_on channel=0 note=57 velocity=93 time=0
note_on channel=0 note=69 velocity=100 time=8
note_on channel=0 note=81 velocity=105 time=0
note_on channel=0 note=45 velocity=78 time=3
control_change channel=0 control=64 value=69 time=4
note_on channel=0 note=57 velocity=0 time=11
control_change channel=0 control=64 value=76 time=4
note_on channel=0 note=69 velocity=0 time=4
note_on channel=0 note=45 velocity=0 time=2
note_on channel=0 note=81 velocity=0 time=5
control_change channel=0 control=64 value=84 time=5
control_change channel=0 control=64 value=91 time=15
control_change channel=0 control=64 value=98 time=14
control_change channel=0 control=64 value=106 time=16
control_change channel=0 control=64 value=122 time=15
control_change channel=0 control=64 value=127 time=16
note_on channel=0 note=87 velocity=103 time=138
note_on channel=0 note=75 velocity=94 time=3
note_on channel=0 note=63 velocity=97 time=2
note_on channel=0 note=51 velocity=92 time=3
control_change channel=0 control=64 value=115 time=5
control_change channel=0 control=64 value=96 time=16
control_change channel=0 control=64 value=77 time=15
control_change channel=0 control=64 value=0 time=16
control_change channel=0 control=64 value=36 time=150
control_change channel=0 control=64 value=55 time=16
control_change channel=0 control=64 value=63 time=15
control_change channel=0 control=64 value=67 time=15
control_change channel=0 control=64 value=70 time=17
control_change channel=0 control=64 value=72 time=15
control_change channel=0 control=64 value=75 time=16
control_change channel=0 control=64 value=79 time=14
control_change channel=0 control=64 value=84 time=15
control_change channel=0 control=64 value=89 time=16
control_change channel=0 control=64 value=95 time=14
control_change channel=0 control=64 value=100 time=16
control_change channel=0 control=64 value=106 time=15
control_change channel=0 control=64 value=115 time=15
control_change channel=0 control=64 value=127 time=16
note_on channel=0 note=75 velocity=0 time=31
note_on channel=0 note=63 velocity=0 time=39
note_on channel=0 note=51 velocity=0 time=173
note_on channel=0 note=87 velocity=0 time=118
note_on channel=0 note=85 velocity=97 time=80
note_on channel=0 note=73 velocity=87 time=7
note_on channel=0 note=73 velocity=0 time=165
note_on channel=0 note=85 velocity=0 time=23
control_change channel=0 control=64 value=100 time=41
control_change channel=0 control=64 value=76 time=15
note_on channel=0 note=85 velocity=85 time=4
note_on channel=0 note=44 velocity=56 time=7
control_change channel=0 control=64 value=63 time=4
note_on channel=0 note=32 velocity=56 time=0
note_on channel=0 note=73 velocity=72 time=14
control_change channel=0 control=64 value=66 time=2
control_change channel=0 control=64 value=69 time=14
control_change channel=0 control=64 value=72 time=15
control_change channel=0 control=64 value=77 time=16
control_change channel=0 control=64 value=85 time=22
note_on channel=0 note=32 velocity=0 time=0
control_change channel=0 control=64 value=93 time=16
note_on channel=0 note=44 velocity=0 time=6
control_change channel=0 control=64 value=100 time=9
control_change channel=0 control=64 value=105 time=16
note_on channel=0 note=73 velocity=0 time=6
control_change channel=0 control=64 value=112 time=9
control_change channel=0 control=64 value=127 time=14
note_on channel=0 note=66 velocity=75 time=123
note_on channel=0 note=63 velocity=68 time=2
note_on channel=0 note=66 velocity=0 time=37
note_on channel=0 note=85 velocity=0 time=12
note_on channel=0 note=63 velocity=0 time=3
note_on channel=0 note=84 velocity=94 time=61
note_on channel=0 note=72 velocity=85 time=4
note_on channel=0 note=66 velocity=74 time=12
note_on channel=0 note=63 velocity=59 time=4
note_on channel=0 note=66 velocity=0 time=16
note_on channel=0 note=72 velocity=0 time=9
note_on channel=0 note=63 velocity=0 time=2
note_on channel=0 note=84 velocity=0 time=11
note_on channel=0 note=84 velocity=100 time=73
note_on channel=0 note=66 velocity=70 time=7
note_on channel=0 note=72 velocity=85 time=1
note_on channel=0 note=63 velocity=68 time=3
note_on channel=0 note=66 velocity=0 time=21
note_on channel=0 note=63 velocity=0 time=7
note_on channel=0 note=66 velocity=74 time=72
note_on channel=0 note=63 velocity=78 time=10
note_on channel=0 note=84 velocity=0 time=29
note_on channel=0 note=66 velocity=0 time=6
note_on channel=0 note=72 velocity=0 time=6
note_on channel=0 note=63 velocity=0 time=12
note_on channel=0 note=63 velocity=60 time=77
note_on channel=0 note=81 velocity=92 time=2
note_on channel=0 note=66 velocity=65 time=2
note_on channel=0 note=69 velocity=74 time=8
note_on channel=0 note=66 velocity=0 time=16
note_on channel=0 note=63 velocity=0 time=2
note_on channel=0 note=69 velocity=0 time=6
note_on channel=0 note=66 velocity=67 time=94
note_on channel=0 note=63 velocity=64 time=8
note_on channel=0 note=80 velocity=86 time=3
note_on channel=0 note=68 velocity=78 time=11
note_on channel=0 note=66 velocity=0 time=5
note_on channel=0 note=81 velocity=0 time=5
note_on channel=0 note=63 velocity=0 time=10
note_on channel=0 note=68 velocity=0 time=124
note_on channel=0 note=80 velocity=0 time=27
note_on channel=0 note=78 velocity=78 time=108
note_on channel=0 note=66 velocity=77 time=1
note_on channel=0 note=66 velocity=0 time=52
note_on channel=0 note=78 velocity=0 time=8
control_change channel=0 control=64 value=116 time=51
control_change channel=0 control=64 value=108 time=15
control_change channel=0 control=64 value=102 time=15
control_change channel=0 control=64 value=96 time=16
note_on channel=0 note=37 velocity=54 time=0
note_on channel=0 note=49 velocity=60 time=0
note_on channel=0 note=76 velocity=67 time=1
note_on channel=0 note=64 velocity=57 time=5
control_change channel=0 control=64 value=92 time=9
note_on channel=0 note=68 velocity=49 time=4
note_on channel=0 note=49 velocity=0 time=6
note_on channel=0 note=73 velocity=43 time=0
control_change channel=0 control=64 value=88 time=5
note_on channel=0 note=37 velocity=0 time=4
note_on channel=0 note=64 velocity=0 time=6
control_change channel=0 control=64 value=84 time=5
note_on channel=0 note=68 velocity=0 time=4
note_on channel=0 note=73 velocity=0 time=7
control_change channel=0 control=64 value=79 time=4
note_on channel=0 note=76 velocity=0 time=4
control_change channel=0 control=64 value=72 time=11
control_change channel=0 control=64 value=67 time=15
control_change channel=0 control=64 value=65 time=15
control_change channel=0 control=64 value=65 time=16
note_on channel=0 note=52 velocity=75 time=6
note_on channel=0 note=40 velocity=72 time=1
note_on channel=0 note=64 velocity=69 time=6
note_on channel=0 note=76 velocity=70 time=3
note_on channel=0 note=68 velocity=58 time=2
note_on channel=0 note=73 velocity=61 time=1
control_change channel=0 control=64 value=65 time=11
note_on channel=0 note=40 velocity=0 time=12
note_on channel=0 note=52 velocity=0 time=0
control_change channel=0 control=64 value=66 time=3
note_on channel=0 note=64 velocity=0 time=6
note_on channel=0 note=68 velocity=0 time=3
note_on channel=0 note=73 velocity=0 time=0
control_change channel=0 control=64 value=67 time=6
note_on channel=0 note=76 velocity=0 time=7
control_change channel=0 control=64 value=68 time=8
control_change channel=0 control=64 value=69 time=16
control_change channel=0 control=64 value=68 time=16
control_change channel=0 control=64 value=67 time=23
note_on channel=0 note=43 velocity=83 time=11
note_on channel=0 note=55 velocity=86 time=1
control_change channel=0 control=64 value=62 time=3
note_on channel=0 note=64 velocity=79 time=0
note_on channel=0 note=76 velocity=73 time=1
note_on channel=0 note=68 velocity=70 time=2
note_on channel=0 note=73 velocity=74 time=2
control_change channel=0 control=64 value=0 time=11
note_on channel=0 note=64 velocity=0 time=14
note_on channel=0 note=68 velocity=0 time=0
note_on channel=0 note=73 velocity=0 time=8
note_on channel=0 note=43 velocity=0 time=1
note_on channel=0 note=55 velocity=0 time=0
note_on channel=0 note=76 velocity=0 time=9
control_change channel=0 control=64 value=49 time=28
control_change channel=0 control=64 value=63 time=15
control_change channel=0 control=64 value=66 time=16
note_on channel=0 note=56 velocity=91 time=3
note_on channel=0 note=64 velocity=90 time=8
note_on channel=0 note=44 velocity=80 time=2
control_change channel=0 control=64 value=69 time=2
note_on channel=0 note=76 velocity=80 time=0
note_on channel=0 note=68 velocity=78 time=4
note_on channel=0 note=73 velocity=82 time=1
note_on channel=0 note=56 velocity=0 time=18
note_on channel=0 note=68 velocity=0 time=5
control_change channel=0 control=64 value=65 time=2
note_on channel=0 note=44 velocity=0 time=1
note_on channel=0 note=64 velocity=0 time=4
note_on channel=0 note=73 velocity=0 time=5
control_change channel=0 control=64 value=32 time=5
note_on channel=0 note=76 velocity=0 time=2
control_change channel=0 control=64 value=0 time=14
control_change channel=0 control=64 value=43 time=45
note_on channel=0 note=64 velocity=92 time=5
note_on channel=0 note=49 velocity=96 time=5
note_on channel=0 note=76 velocity=79 time=0
note_on channel=0 note=37 velocity=86 time=1
note_on channel=0 note=68 velocity=82 time=2
control_change channel=0 control=64 value=64 time=2
note_on channel=0 note=73 velocity=79 time=4
control_change channel=0 control=64 value=68 time=12
note_on channel=0 note=68 velocity=0 time=10
control_change channel=0 control=64 value=64 time=4
note_on channel=0 note=64 velocity=0 time=4
note_on channel=0 note=73 velocity=0 time=1
note_on channel=0 note=49 velocity=0 time=3
note_on channel=0 note=76 velocity=0 time=0
control_change channel=0 control=64 value=24 time=7
note_on channel=0 note=37 velocity=0 time=6
control_change channel=0 control=64 value=0 time=10
control_change channel=0 control=64 value=40 time=45
note_on channel=0 note=52 velocity=97 time=2
note_on channel=0 note=64 velocity=96 time=0
note_on channel=0 note=40 velocity=83 time=6
note_on channel=0 note=76 velocity=81 time=3
note_on channel=0 note=68 velocity=84 time=1
control_change channel=0 control=64 value=63 time=3
note_on channel=0 note=73 velocity=81 time=2
control_change channel=0 control=64 value=67 time=14
note_on channel=0 note=68 velocity=0 time=13
control_change channel=0 control=64 value=70 time=2
note_on channel=0 note=64 velocity=0 time=1
note_on channel=0 note=52 velocity=0 time=1
note_on channel=0 note=40 velocity=0 time=5
note_on channel=0 note=73 velocity=0 time=1
note_on channel=0 note=76 velocity=0 time=6
control_change channel=0 control=64 value=70 time=1
control_change channel=0 control=64 value=66 time=15
control_change channel=0 control=64 value=0 time=15
note_on channel=0 note=64 velocity=98 time=33
note_on channel=0 note=55 velocity=92 time=3
note_on channel=0 note=43 velocity=88 time=1
note_on channel=0 note=76 velocity=79 time=3
note_on channel=0 note=68 velocity=81 time=2
note_on channel=0 note=73 velocity=82 time=6
control_change channel=0 control=64 value=63 time=28
note_on channel=0 note=64 velocity=0 time=0
note_on channel=0 note=68 velocity=0 time=0
note_on channel=0 note=55 velocity=0 time=1
note_on channel=0 note=43 velocity=0 time=4
note_on channel=0 note=73 velocity=0 time=3
note_on channel=0 note=76 velocity=0 time=5
control_change channel=0 control=64 value=70 time=2
control_change channel=0 control=64 value=68 time=16
control_change channel=0 control=64 value=54 time=15
control_change channel=0 control=64 value=0 time=16
note_on channel=0 note=56 velocity=94 time=14
note_on channel=0 note=64 velocity=100 time=2
note_on channel=0 note=44 velocity=84 time=5
note_on channel=0 note=76 velocity=85 time=1
note_on channel=0 note=68 velocity=82 time=5
note_on channel=0 note=73 velocity=79 time=3
note_on channel=0 note=56 velocity=0 time=8
note_on channel=0 note=44 velocity=0 time=14
note_on channel=0 note=64 velocity=0 time=3
note_on channel=0 note=68 velocity=0 time=2
control_change channel=0 control=64 value=34 time=3
note_on channel=0 note=73 velocity=0 time=13
control_change channel=0 control=64 value=66 time=3
note_on channel=0 note=76 velocity=0 time=4
control_change channel=0 control=64 value=71 time=10
control_change channel=0 control=64 value=68 time=15
control_change channel=0 control=64 value=42 time=16
control_change channel=0 control=64 value=0 time=15
note_on channel=0 note=64 velocity=99 time=4
note_on channel=0 note=49 velocity=99 time=3
note_on channel=0 note=37 velocity=85 time=1
note_on channel=0 note=76 velocity=85 time=2
note_on channel=0 note=68 velocity=82 time=5
note_on channel=0 note=73 velocity=84 time=3
note_on channel=0 note=64 velocity=0 time=37
note_on channel=0 note=49 velocity=0 time=3
note_on channel=0 note=68 velocity=0 time=2
control_change channel=0 control=64 value=44 time=9
note_on channel=0 note=37 velocity=0 time=5
note_on channel=0 note=76 velocity=0 time=4
control_change channel=0 control=64 value=62 time=6
note_on channel=0 note=73 velocity=0 time=0
control_change channel=0 control=64 value=61 time=16
control_change channel=0 control=64 value=0 time=15
note_on channel=0 note=64 velocity=103 time=30
note_on channel=0 note=52 velocity=91 time=6
note_on channel=0 note=40 velocity=87 time=2
note_on channel=0 note=68 velocity=84 time=1
note_on channel=0 note=76 velocity=86 time=0
note_on channel=0 note=73 velocity=78 time=5
note_on channel=0 note=64 velocity=0 time=26
note_on channel=0 note=73 velocity=0 time=6
note_on channel=0 note=40 velocity=0 time=3
note_on channel=0 note=52 velocity=0 time=0
note_on channel=0 note=68 velocity=0 time=8
note_on channel=0 note=76 velocity=0 time=10
note_on channel=0 note=67 velocity=96 time=80
note_on channel=0 note=43 velocity=89 time=1
note_on channel=0 note=55 velocity=92 time=0
note_on channel=0 note=79 velocity=103 time=1
note_on channel=0 note=67 velocity=0 time=27
note_on channel=0 note=55 velocity=0 time=6
note_on channel=0 note=43 velocity=0 time=4
note_on channel=0 note=79 velocity=0 time=6
note_on channel=0 note=56 velocity=95 time=115
note_on channel=0 note=68 velocity=95 time=1
note_on channel=0 note=80 velocity=105 time=0
note_on channel=0 note=44 velocity=81 time=3
control_change channel=0 control=64 value=67 time=9
note_on channel=0 note=68 velocity=0 time=4
control_change channel=0 control=64 value=86 time=10
note_on channel=0 note=56 velocity=0 time=4
note_on channel=0 note=80 velocity=0 time=4
note_on channel=0 note=44 velocity=0 time=1
control_change channel=0 control=64 value=113 time=6
control_change channel=0 control=64 value=127 time=16
note_on channel=0 note=80 velocity=95 time=307
note_on channel=0 note=92 velocity=104 time=3
note_on channel=0 note=68 velocity=101 time=4
note_on channel=0 note=56 velocity=91 time=6
control_change channel=0 control=64 value=116 time=22
control_change channel=0 control=64 value=83 time=16
control_change channel=0 control=64 value=0 time=16
control_change channel=0 control=64 value=43 time=137
control_change channel=0 control=64 value=61 time=14
control_change channel=0 control=64 value=65 time=15
control_change channel=0 control=64 value=68 time=16
control_change channel=0 control=64 value=70 time=15
control_change channel=0 control=64 value=74 time=15
control_change channel=0 control=64 value=78 time=15
control_change channel=0 control=64 value=83 time=15
control_change channel=0 control=64 value=89 time=16
control_change channel=0 control=64 value=95 time=15
control_change channel=0 control=64 value=103 time=15
control_change channel=0 control=64 value=114 time=16
control_change channel=0 control=64 value=127 time=15
note_on channel=0 note=68 velocity=0 time=177
note_on channel=0 note=80 velocity=0 time=88
note_on channel=0 note=56 velocity=0 time=63
note_on channel=0 note=92 velocity=0 time=206
note_on channel=0 note=92 velocity=102 time=86
note_on channel=0 note=80 velocity=89 time=2
note_on channel=0 note=80 velocity=0 time=126
note_on channel=0 note=92 velocity=0 time=10
note_on channel=0 note=92 velocity=102 time=68
control_change channel=0 control=64 value=90 time=3
note_on channel=0 note=27 velocity=85 time=0
note_on channel=0 note=39 velocity=88 time=1
note_on channel=0 note=80 velocity=91 time=6
control_change channel=0 control=64 value=64 time=7
control_change channel=0 control=64 value=62 time=16
control_change channel=0 control=64 value=70 time=15
control_change channel=0 control=64 value=74 time=15
note_on channel=0 note=27 velocity=0 time=3
control_change channel=0 control=64 value=80 time=13
control_change channel=0 control=64 value=89 time=15
note_on channel=0 note=39 velocity=0 time=0
control_change channel=0 control=64 value=107 time=15
control_change channel=0 control=64 value=127 time=16
note_on channel=0 note=80 velocity=0 time=83
note_on channel=0 note=67 velocity=78 time=146
note_on channel=0 note=58 velocity=67 time=7
note_on channel=0 note=61 velocity=68 time=0
note_on channel=0 note=58 velocity=0 time=34
note_on channel=0 note=67 velocity=0 time=9
note_on channel=0 note=61 velocity=0 time=2
note_on channel=0 note=92 velocity=0 time=17
note_on channel=0 note=91 velocity=105 time=70
note_on channel=0 note=79 velocity=91 time=2
note_on channel=0 note=67 velocity=81 time=5
note_on channel=0 note=61 velocity=65 time=1
note_on channel=0 note=58 velocity=65 time=1
note_on channel=0 note=67 velocity=0 time=27
note_on channel=0 note=58 velocity=0 time=1
note_on channel=0 note=61 velocity=0 time=4
note_on channel=0 note=79 velocity=0 time=4
note_on channel=0 note=91 velocity=0 time=26
note_on channel=0 note=61 velocity=74 time=51
note_on channel=0 note=67 velocity=84 time=1
note_on channel=0 note=58 velocity=73 time=2
note_on channel=0 note=91 velocity=106 time=3
note_on channel=0 note=79 velocity=97 time=3
note_on channel=0 note=67 velocity=0 time=24
note_on channel=0 note=58 velocity=0 time=3
note_on channel=0 note=61 velocity=0 time=14
note_on channel=0 note=61 velocity=72 time=66
note_on channel=0 note=67 velocity=88 time=4
note_on channel=0 note=58 velocity=73 time=5
note_on channel=0 note=91 velocity=0 time=21
note_on channel=0 note=79 velocity=0 time=4
note_on channel=0 note=58 velocity=0 time=4
note_on channel=0 note=67 velocity=0 time=7
note_on channel=0 note=61 velocity=0 time=12
note_on channel=0 note=88 velocity=102 time=71
note_on channel=0 note=61 velocity=63 time=4
note_on channel=0 note=58 velocity=64 time=4
note_on channel=0 note=76 velocity=82 time=1
note_on channel=0 note=67 velocity=78 time=1
note_on channel=0 note=58 velocity=0 time=21
note_on channel=0 note=67 velocity=0 time=1
note_on channel=0 note=76 velocity=0 time=2
note_on channel=0 note=61 velocity=0 time=9
note_on channel=0 note=75 velocity=94 time=85
note_on channel=0 note=87 velocity=95 time=0
note_on channel=0 note=67 velocity=74 time=3
note_on channel=0 note=88 velocity=0 time=2
note_on channel=0 note=58 velocity=62 time=8
note_on channel=0 note=67 velocity=0 time=9
note_on channel=0 note=61 velocity=63 time=3
note_on channel=0 note=61 velocity=0 time=23
note_on channel=0 note=58 velocity=0 time=3
note_on channel=0 note=75 velocity=0 time=122
note_on channel=0 note=87 velocity=0 time=17
note_on channel=0 note=73 velocity=85 time=95
note_on channel=0 note=85 velocity=89 time=1
note_on channel=0 note=73 velocity=0 time=57
note_on channel=0 note=85 velocity=0 time=12
note_on channel=0 note=84 velocity=75 time=79
note_on channel=0 note=56 velocity=65 time=4
note_on channel=0 note=72 velocity=61 time=5
note_on channel=0 note=44 velocity=52 time=4
control_change channel=0 control=64 value=106 time=12
note_on channel=0 note=75 velocity=51 time=3
note_on channel=0 note=80 velocity=47 time=0
note_on channel=0 note=56 velocity=0 time=6
control_change channel=0 control=64 value=95 time=5
note_on channel=0 note=72 velocity=0 time=7
note_on channel=0 note=44 velocity=0 time=1
note_on channel=0 note=75 velocity=0 time=5
control_change channel=0 control=64 value=83 time=2
note_on channel=0 note=80 velocity=0 time=4
note_on channel=0 note=84 velocity=0 time=4
control_change channel=0 control=64 value=70 time=8
control_change channel=0 control=64 value=47 time=15
control_change channel=0 control=64 value=36 time=16
control_change channel=0 control=64 value=58 time=14
note_on channel=0 note=48 velocity=74 time=12
note_on channel=0 note=60 velocity=74 time=2
control_change channel=0 control=64 value=63 time=1
note_on channel=0 note=84 velocity=76 time=9
note_on channel=0 note=72 velocity=77 time=3
note_on channel=0 note=80 velocity=63 time=3
control_change channel=0 control=64 value=65 time=1
note_on channel=0 note=75 velocity=62 time=1
control_change channel=0 control=64 value=67 time=14
note_on channel=0 note=60 velocity=0 time=1
note_on channel=0 note=48 velocity=0 time=10
note_on channel=0 note=75 velocity=0 time=0
control_change channel=0 control=64 value=70 time=3
note_on channel=0 note=72 velocity=0 time=2
note_on channel=0 note=80 velocity=0 time=0
note_on channel=0 note=84 velocity=0 time=12
control_change channel=0 control=64 value=72 time=2
control_change channel=0 control=64 value=73 time=15
control_change channel=0 control=64 value=71 time=16
control_change channel=0 control=64 value=66 time=15
note_on channel=0 note=62 velocity=86 time=8
note_on channel=0 note=84 velocity=83 time=0
note_on channel=0 note=50 velocity=81 time=2
control_change channel=0 control=64 value=0 time=4
note_on channel=0 note=72 velocity=79 time=4
note_on channel=0 note=75 velocity=68 time=9
note_on channel=0 note=80 velocity=68 time=4
note_on channel=0 note=50 velocity=0 time=20
note_on channel=0 note=62 velocity=0 time=1
note_on channel=0 note=75 velocity=0 time=0
note_on channel=0 note=80 velocity=0 time=5
note_on channel=0 note=72 velocity=0 time=5
note_on channel=0 note=84 velocity=0 time=3
control_change channel=0 control=64 value=56 time=12
control_change channel=0 control=64 value=65 time=14
control_change channel=0 control=64 value=69 time=16
control_change channel=0 control=64 value=70 time=15
control_change channel=0 control=64 value=69 time=14
note_on channel=0 note=51 velocity=83 time=0
note_on channel=0 note=84 velocity=89 time=0
note_on channel=0 note=63 velocity=72 time=2
note_on channel=0 note=72 velocity=86 time=2
note_on channel=0 note=75 velocity=78 time=4
note_on channel=0 note=80 velocity=78 time=3
control_change channel=0 control=64 value=65 time=5
note_on channel=0 note=63 velocity=0 time=6
note_on channel=0 note=51 velocity=0 time=7
control_change channel=0 control=64 value=62 time=2
note_on channel=0 note=75 velocity=0 time=7
note_on channel=0 note=61 velocity=14 time=16
control_change channel=0 control=64 value=63 time=1
note_on channel=0 note=80 velocity=0 time=0
note_on channel=0 note=72 velocity=0 time=1
note_on channel=0 note=84 velocity=0 time=4
control_change channel=0 control=64 value=66 time=10
control_change channel=0 control=64 value=69 time=15
control_change channel=0 control=64 value=72 time=15
note_on channel=0 note=61 velocity=0 time=5
control_change channel=0 control=64 value=74 time=9
note_on channel=0 note=56 velocity=94 time=9
note_on channel=0 note=44 velocity=89 time=3
control_change channel=0 control=64 value=76 time=2
note_on channel=0 note=84 velocity=91 time=3
note_on channel=0 note=72 velocity=92 time=2
note_on channel=0 note=80 velocity=76 time=7
note_on channel=0 note=75 velocity=80 time=1
control_change channel=0 control=64 value=71 time=17
note_on channel=0 note=56 velocity=0 time=7
note_on channel=0 note=75 velocity=0 time=0
control_change channel=0 control=64 value=50 time=9
note_on channel=0 note=44 velocity=0 time=4
note_on channel=0 note=80 velocity=0 time=0
note_on channel=0 note=72 velocity=0 time=1
note_on channel=0 note=84 velocity=0 time=0
control_change channel=0 control=64 value=0 time=10
note_on channel=0 note=60 velocity=94 time=52
note_on channel=0 note=48 velocity=88 time=3
control_change channel=0 control=64 value=11 time=5
note_on channel=0 note=72 velocity=91 time=3
note_on channel=0 note=84 velocity=94 time=0
note_on channel=0 note=75 velocity=84 time=7
note_on channel=0 note=80 velocity=74 time=4
control_change channel=0 control=64 value=67 time=2
control_change channel=0 control=64 value=73 time=15
note_on channel=0 note=60 velocity=0 time=6
note_on channel=0 note=75 velocity=0 time=2
note_on channel=0 note=48 velocity=0 time=5
note_on channel=0 note=80 velocity=0 time=0
control_change channel=0 control=64 value=71 time=2
note_on channel=0 note=72 velocity=0 time=0
note_on channel=0 note=84 velocity=0 time=6
control_change channel=0 control=64 value=56 time=9
control_change channel=0 control=64 value=0 time=15
note_on channel=0 note=62 velocity=96 time=40
note_on channel=0 note=50 velocity=90 time=1
note_on channel=0 note=72 velocity=95 time=5
note_on channel=0 note=84 velocity=96 time=0
note_on channel=0 note=75 velocity=83 time=8
note_on channel=0 note=80 velocity=77 time=2
control_change channel=0 control=64 value=61 time=6
note_on channel=0 note=52 velocity=51 time=13
note_on channel=0 note=52 velocity=0 time=1
control_change channel=0 control=64 value=71 time=1
note_on channel=0 note=62 velocity=0 time=6
note_on channel=0 note=75 velocity=0 time=1
note_on channel=0 note=72 velocity=0 time=6
note_on channel=0 note=80 velocity=0 time=1
control_change channel=0 control=64 value=74 time=2
note_on channel=0 note=50 velocity=0 time=0
note_on channel=0 note=84 velocity=0 time=2
control_change channel=0 control=64 value=69 time=13
control_change channel=0 control=64 value=0 time=14
note_on channel=0 note=63 velocity=93 time=41
note_on channel=0 note=51 velocity=80 time=3
note_on channel=0 note=72 velocity=98 time=3
note_on channel=0 note=84 velocity=92 time=0
note_on channel=0 note=75 velocity=87 time=9
note_on channel=0 note=80 velocity=78 time=1
note_on channel=0 note=63 velocity=0 time=5
note_on channel=0 note=51 velocity=0 time=12
control_change channel=0 control=64 value=61 time=3
note_on channel=0 note=75 velocity=0 time=7
note_on channel=0 note=72 velocity=0 time=7
control_change channel=0 control=64 value=67 time=2
note_on channel=0 note=80 velocity=0 time=3
note_on channel=0 note=84 velocity=0 time=0
control_change channel=0 control=64 value=68 time=12
control_change channel=0 control=64 value=60 time=16
note_on channel=0 note=50 velocity=2 time=0
control_change channel=0 control=64 value=0 time=14
note_on channel=0 note=50 velocity=0 time=19
note_on channel=0 note=44 velocity=88 time=9
note_on channel=0 note=56 velocity=95 time=0
note_on channel=0 note=72 velocity=94 time=3
note_on channel=0 note=84 velocity=97 time=1
note_on channel=0 note=75 velocity=85 time=8
note_on channel=0 note=80 velocity=79 time=0
note_on channel=0 note=56 velocity=0 time=29
note_on channel=0 note=72 velocity=0 time=5
control_change channel=0 control=64 value=60 time=2
note_on channel=0 note=44 velocity=0 time=2
note_on channel=0 note=75 velocity=0 time=0
note_on channel=0 note=84 velocity=0 time=3
control_change channel=0 control=64 value=65 time=10
note_on channel=0 note=80 velocity=0 time=1
control_change channel=0 control=64 value=66 time=15
control_change channel=0 control=64 value=62 time=15
control_change channel=0 control=64 value=0 time=14
note_on channel=0 note=60 velocity=97 time=24
note_on channel=0 note=72 velocity=98 time=0
note_on channel=0 note=84 velocity=96 time=3
note_on channel=0 note=48 velocity=84 time=3
note_on channel=0 note=75 velocity=85 time=6
note_on channel=0 note=80 velocity=74 time=3
note_on channel=0 note=60 velocity=0 time=22
note_on channel=0 note=48 velocity=0 time=7
note_on channel=0 note=72 velocity=0 time=0
note_on channel=0 note=80 velocity=0 time=10
note_on channel=0 note=75 velocity=0 time=2
note_on channel=0 note=84 velocity=0 time=1
note_on channel=0 note=50 velocity=87 time=83
note_on channel=0 note=62 velocity=90 time=0
note_on channel=0 note=74 velocity=96 time=9
note_on channel=0 note=86 velocity=103 time=1
note_on channel=0 note=74 velocity=0 time=27
note_on channel=0 note=62 velocity=0 time=2
note_on channel=0 note=50 velocity=0 time=7
note_on channel=0 note=86 velocity=0 time=13
control_change channel=0 control=64 value=44 time=104
note_on channel=0 note=87 velocity=112 time=1
note_on channel=0 note=63 velocity=100 time=2
note_on channel=0 note=75 velocity=98 time=0
note_on channel=0 note=51 velocity=87 time=3
control_change channel=0 control=64 value=69 time=10
note_on channel=0 note=75 velocity=0 time=8
control_change channel=0 control=64 value=82 time=7
note_on channel=0 note=51 velocity=0 time=1
note_on channel=0 note=87 velocity=0 time=11
note_on channel=0 note=63 velocity=0 time=2
control_change channel=0 control=64 value=98 time=2
control_change channel=0 control=64 value=117 time=15
control_change channel=0 control=64 value=127 time=14
note_on channel=0 note=83 velocity=105 time=294
note_on channel=0 note=95 velocity=107 time=1
note_on channel=0 note=71 velocity=92 time=1
note_on channel=0 note=59 velocity=84 time=3
control_change channel=0 control=64 value=98 time=37
control_change channel=0 control=64 value=73 time=15
control_change channel=0 control=64 value=0 time=16
control_change channel=0 control=64 value=40 time=311
control_change channel=0 control=64 value=53 time=15
control_change channel=0 control=64 value=59 time=15
control_change channel=0 control=64 value=62 time=15
control_change channel=0 control=64 value=64 time=16
control_change channel=0 control=64 value=67 time=15
control_change channel=0 control=64 value=68 time=15
control_change channel=0 control=64 value=70 time=15
control_change channel=0 control=64 value=72 time=15
control_change channel=0 control=64 value=74 time=16
control_change channel=0 control=64 value=76 time=15
control_change channel=0 control=64 value=79 time=17
control_change channel=0 control=64 value=81 time=15
control_change channel=0 control=64 value=84 time=14
control_change channel=0 control=64 value=88 time=16
control_change channel=0 control=64 value=90 time=15
control_change channel=0 control=64 value=93 time=14
control_change channel=0 control=64 value=97 time=16
control_change channel=0 control=64 value=102 time=15
control_change channel=0 control=64 value=108 time=16
control_change channel=0 control=64 value=114 time=15
control_change channel=0 control=64 value=127 time=14
note_on channel=0 note=71 velocity=0 time=131
note_on channel=0 note=83 velocity=0 time=93
note_on channel=0 note=59 velocity=0 time=96
note_on channel=0 note=95 velocity=0 time=141
note_on channel=0 note=95 velocity=95 time=277
note_on channel=0 note=83 velocity=76 time=14
note_on channel=0 note=83 velocity=0 time=253
note_on channel=0 note=95 velocity=0 time=22
control_change channel=0 control=64 value=96 time=83
note_on channel=0 note=95 velocity=84 time=12
control_change channel=0 control=64 value=75 time=3
note_on channel=0 note=83 velocity=56 time=2
control_change channel=0 control=64 value=59 time=14
note_on channel=0 note=40 velocity=41 time=0
note_on channel=0 note=88 velocity=47 time=5
note_on channel=0 note=28 velocity=37 time=1
control_change channel=0 control=64 value=57 time=9
control_change channel=0 control=64 value=65 time=16
control_change channel=0 control=64 value=68 time=14
control_change channel=0 control=64 value=70 time=15
control_change channel=0 control=67 value=9 time=0
control_change channel=0 control=64 value=73 time=16
control_change channel=0 control=67 value=12 time=0
control_change channel=0 control=64 value=77 time=15
control_change channel=0 control=67 value=16 time=0
control_change channel=0 control=64 value=82 time=15
control_change channel=0 control=67 value=21 time=0
control_change channel=0 control=64 value=88 time=15
control_change channel=0 control=67 value=26 time=0
note_on channel=0 note=28 velocity=0 time=0
control_change channel=0 control=64 value=91 time=15
control_change channel=0 control=67 value=30 time=0
control_change channel=0 control=64 value=94 time=16
control_change channel=0 control=67 value=36 time=0
note_on channel=0 note=40 velocity=0 time=7
control_change channel=0 control=64 value=97 time=8
control_change channel=0 control=67 value=40 time=0
control_change channel=0 control=64 value=99 time=15
control_change channel=0 control=67 value=43 time=0
control_change channel=0 control=64 value=103 time=16
control_change channel=0 control=67 value=43 time=0
control_change channel=0 control=64 value=106 time=15
control_change channel=0 control=64 value=110 time=14
control_change channel=0 control=64 value=117 time=16
control_change channel=0 control=64 value=127 time=15
control_change channel=0 control=67 value=42 time=31
control_change channel=0 control=67 value=42 time=15
control_change channel=0 control=67 value=41 time=62
control_change channel=0 control=67 value=41 time=15
note_on channel=0 note=83 velocity=0 time=9
control_change channel=0 control=67 value=40 time=52
note_on channel=0 note=52 velocity=42 time=14
control_change channel=0 control=67 value=40 time=1
note_on channel=0 note=59 velocity=43 time=1
note_on channel=0 note=59 velocity=0 time=28
note_on channel=0 note=52 velocity=0 time=6
control_change channel=0 control=67 value=39 time=26
note_on channel=0 note=59 velocity=56 time=57
control_change channel=0 control=67 value=39 time=3
note_on channel=0 note=95 velocity=0 time=3
note_on channel=0 note=52 velocity=45 time=10
control_change channel=0 control=67 value=38 time=3
note_on channel=0 note=56 velocity=43 time=15
note_on channel=0 note=59 velocity=0 time=16
control_change channel=0 control=67 value=38 time=7
note_on channel=0 note=52 velocity=0 time=0
control_change channel=0 control=67 value=37 time=15
note_on channel=0 note=56 velocity=0 time=2
control_change channel=0 control=67 value=37 time=13
control_change channel=0 control=67 value=36 time=16
control_change channel=0 control=67 value=35 time=14
note_on channel=0 note=52 velocity=59 time=22
note_on channel=0 note=56 velocity=70 time=0
note_on channel=0 note=59 velocity=67 time=7
control_change channel=0 control=67 value=34 time=2
note_on channel=0 note=56 velocity=0 time=18
note_on channel=0 note=52 velocity=0 time=3
note_on channel=0 note=59 velocity=0 time=7
control_change channel=0 control=67 value=34 time=3
control_change channel=0 control=67 value=33 time=14
note_on channel=0 note=56 velocity=61 time=50
note_on channel=0 note=59 velocity=70 time=4
note_on channel=0 note=52 velocity=58 time=1
control_change channel=0 control=67 value=33 time=6
note_on channel=0 note=59 velocity=0 time=19
note_on channel=0 note=52 velocity=0 time=1
note_on channel=0 note=56 velocity=0 time=0
control_change channel=0 control=67 value=32 time=10
control_change channel=0 control=67 value=32 time=45
note_on channel=0 note=88 velocity=0 time=12
control_change channel=0 control=67 value=31 time=4
note_on channel=0 note=56 velocity=73 time=4
note_on channel=0 note=59 velocity=66 time=0
note_on channel=0 note=52 velocity=57 time=4
note_on channel=0 note=92 velocity=92 time=2
note_on channel=0 note=80 velocity=79 time=6
control_change channel=0 control=67 value=30 time=15
note_on channel=0 note=59 velocity=0 time=2
note_on channel=0 note=52 velocity=0 time=5
note_on channel=0 note=56 velocity=0 time=0
control_change channel=0 control=67 value=28 time=7
control_change channel=0 control=67 value=26 time=15
note_on channel=0 note=80 velocity=0 time=2
control_change channel=0 control=67 value=24 time=14
control_change channel=0 control=67 value=21 time=15
control_change channel=0 control=67 value=17 time=15
control_change channel=0 control=67 value=14 time=15
note_on channel=0 note=59 velocity=68 time=4
note_on channel=0 note=56 velocity=70 time=3
note_on channel=0 note=90 velocity=95 time=3
note_on channel=0 note=52 velocity=37 time=2
control_change channel=0 control=67 value=8 time=3
note_on channel=0 note=78 velocity=88 time=0
note_on channel=0 note=59 velocity=0 time=11
control_change channel=0 control=67 value=0 time=5
note_on channel=0 note=92 velocity=0 time=2
note_on channel=0 note=56 velocity=0 time=2
note_on channel=0 note=52 velocity=0 time=13
note_on channel=0 note=56 velocity=59 time=66
note_on channel=0 note=59 velocity=77 time=0
note_on channel=0 note=52 velocity=62 time=11
note_on channel=0 note=59 velocity=0 time=21
note_on channel=0 note=56 velocity=0 time=4
note_on channel=0 note=78 velocity=0 time=3
note_on channel=0 note=52 velocity=0 time=2
note_on channel=0 note=90 velocity=0 time=1
note_on channel=0 note=59 velocity=74 time=72
note_on channel=0 note=52 velocity=64 time=1
note_on channel=0 note=88 velocity=98 time=4
note_on channel=0 note=56 velocity=65 time=5
note_on channel=0 note=76 velocity=81 time=0
note_on channel=0 note=56 velocity=0 time=28
note_on channel=0 note=59 velocity=0 time=0
note_on channel=0 note=52 velocity=0 time=3
note_on channel=0 note=76 velocity=0 time=12
note_on channel=0 note=88 velocity=0 time=1
control_change channel=0 control=64 value=92 time=56
note_on channel=0 note=60 velocity=71 time=13
note_on channel=0 note=88 velocity=85 time=0
control_change channel=0 control=64 value=67 time=9
note_on channel=0 note=76 velocity=65 time=7
note_on channel=0 note=57 velocity=53 time=5
control_change channel=0 control=64 value=0 time=3
note_on channel=0 note=52 velocity=37 time=0
note_on channel=0 note=84 velocity=66 time=0
note_on channel=0 note=81 velocity=52 time=6
note_on channel=0 note=57 velocity=0 time=21
note_on channel=0 note=52 velocity=0 time=1
control_change channel=0 control=64 value=47 time=19
control_change channel=0 control=64 value=63 time=15
control_change channel=0 control=64 value=70 time=18
control_change channel=0 control=64 value=75 time=15
note_on channel=0 note=57 velocity=67 time=4
note_on channel=0 note=52 velocity=58 time=2
control_change channel=0 control=64 value=82 time=8
note_on channel=0 note=54 velocity=43 time=10
control_change channel=0 control=64 value=87 time=6
note_on channel=0 note=52 velocity=0 time=11
control_change channel=0 control=64 value=90 time=4
note_on channel=0 note=57 velocity=0 time=0
note_on channel=0 note=54 velocity=0 time=12
control_change channel=0 control=64 value=91 time=3
control_change channel=0 control=64 value=95 time=16
note_on channel=0 note=76 velocity=0 time=9
control_change channel=0 control=64 value=99 time=6
control_change channel=0 control=64 value=101 time=15
note_on channel=0 note=52 velocity=44 time=27
note_on channel=0 note=54 velocity=52 time=4
note_on channel=0 note=57 velocity=57 time=0
note_on channel=0 note=54 velocity=0 time=24
note_on channel=0 note=52 velocity=0 time=4
note_on channel=0 note=57 velocity=0 time=4
note_on channel=0 note=88 velocity=0 time=6
control_change channel=0 control=64 value=101 time=37
control_change channel=0 control=67 value=8 time=0
control_change channel=0 control=64 value=98 time=15
control_change channel=0 control=67 value=10 time=0
control_change channel=0 control=64 value=91 time=15
control_change channel=0 control=67 value=12 time=0
note_on channel=0 note=54 velocity=47 time=13
control_change channel=0 control=64 value=78 time=2
control_change channel=0 control=67 value=16 time=0
note_on channel=0 note=57 velocity=55 time=0
note_on channel=0 note=52 velocity=35 time=3
note_on channel=0 note=81 velocity=0 time=9
control_change channel=0 control=64 value=49 time=3
control_change channel=0 control=67 value=20 time=0
note_on channel=0 note=87 velocity=67 time=0
note_on channel=0 note=75 velocity=47 time=8
control_change channel=0 control=64 value=0 time=7
control_change channel=0 control=67 value=22 time=0
note_on channel=0 note=54 velocity=0 time=3
note_on channel=0 note=57 velocity=0 time=3
note_on channel=0 note=52 velocity=0 time=3
control_change channel=0 control=64 value=47 time=6
control_change channel=0 control=67 value=23 time=0
control_change channel=0 control=64 value=62 time=16
note_on channel=0 note=84 velocity=0 time=11
control_change channel=0 control=64 value=65 time=4
control_change channel=0 control=64 value=68 time=15
control_change channel=0 control=64 value=72 time=15
control_change channel=0 control=64 value=76 time=15
control_change channel=0 control=67 value=22 time=0
note_on channel=0 note=57 velocity=58 time=3
note_on channel=0 note=54 velocity=45 time=10
control_change channel=0 control=64 value=80 time=3
control_change channel=0 control=67 value=21 time=0
note_on channel=0 note=52 velocity=4 time=13
control_change channel=0 control=64 value=82 time=2
control_change channel=0 control=67 value=20 time=0
note_on channel=0 note=60 velocity=0 time=0
note_on channel=0 note=60 velocity=2 time=0
note_on channel=0 note=54 velocity=0 time=9
note_on channel=0 note=57 velocity=0 time=0
control_change channel=0 control=64 value=83 time=7
control_change channel=0 control=67 value=20 time=0
control_change channel=0 control=64 value=85 time=15
control_change channel=0 control=67 value=19 time=0
note_on channel=0 note=52 velocity=0 time=13
control_change channel=0 control=64 value=86 time=2
control_change channel=0 control=67 value=19 time=0
note_on channel=0 note=75 velocity=0 time=11
control_change channel=0 control=64 value=88 time=5
control_change channel=0 control=67 value=18 time=0
control_change channel=0 control=64 value=90 time=15
control_change channel=0 control=67 value=18 time=0
control_change channel=0 control=67 value=17 time=15
note_on channel=0 note=57 velocity=49 time=4
note_on channel=0 note=54 velocity=39 time=9
note_on channel=0 note=57 velocity=0 time=15
note_on channel=0 note=54 velocity=0 time=27
control_change channel=0 control=64 value=89 time=6
control_change channel=0 control=64 value=87 time=15
control_change channel=0 control=64 value=81 time=16
control_change channel=0 control=64 value=72 time=15
note_on channel=0 note=87 velocity=0 time=12
control_change channel=0 control=64 value=68 time=4
control_change channel=0 control=67 value=17 time=0
control_change channel=0 control=64 value=71 time=15
note_on channel=0 note=57 velocity=20 time=4
control_change channel=0 control=64 value=75 time=17
note_on channel=0 note=52 velocity=44 time=6
note_on channel=0 note=54 velocity=37 time=0
control_change channel=0 control=64 value=78 time=10
control_change channel=0 control=64 value=81 time=15
control_change channel=0 control=67 value=16 time=0
note_on channel=0 note=60 velocity=0 time=1
control_change channel=0 control=64 value=84 time=15
control_change channel=0 control=64 value=88 time=14
control_change channel=0 control=67 value=16 time=0
control_change channel=0 control=64 value=90 time=15
control_change channel=0 control=67 value=15 time=0
control_change channel=0 control=64 value=93 time=16
control_change channel=0 control=67 value=15 time=0
note_on channel=0 note=57 velocity=0 time=4
control_change channel=0 control=64 value=95 time=11
control_change channel=0 control=67 value=14 time=0
note_on channel=0 note=52 velocity=0 time=6
note_on channel=0 note=54 velocity=0 time=1
control_change channel=0 control=64 value=98 time=8
control_change channel=0 control=67 value=13 time=0
control_change channel=0 control=64 value=102 time=16
control_change channel=0 control=67 value=13 time=0
control_change channel=0 control=64 value=108 time=14
control_change channel=0 control=67 value=12 time=0
control_change channel=0 control=64 value=117 time=16
control_change channel=0 control=67 value=10 time=0
control_change channel=0 control=64 value=127 time=15
control_change channel=0 control=67 value=0 time=0
note_on channel=0 note=90 velocity=96 time=91
note_on channel=0 note=78 velocity=76 time=11
note_on channel=0 note=78 velocity=0 time=67
control_change channel=0 control=64 value=87 time=59
note_on channel=0 note=28 velocity=67 time=9
control_change channel=0 control=64 value=64 time=6
note_on channel=0 note=90 velocity=0 time=3
note_on channel=0 note=40 velocity=57 time=5
control_change channel=0 control=64 value=0 time=7
note_on channel=0 note=28 velocity=0 time=14
control_change channel=0 control=64 value=61 time=1
control_change channel=0 control=64 value=66 time=15
note_on channel=0 note=95 velocity=92 time=6
control_change channel=0 control=64 value=70 time=10
note_on channel=0 note=88 velocity=51 time=5
note_on channel=0 note=83 velocity=61 time=1
note_on channel=0 note=40 velocity=0 time=5
control_change channel=0 control=64 value=74 time=4
control_change channel=0 control=64 value=78 time=15
control_change channel=0 control=64 value=82 time=15
control_change channel=0 control=64 value=84 time=15
control_change channel=0 control=64 value=85 time=15
control_change channel=0 control=64 value=86 time=16
note_on channel=0 note=88 velocity=0 time=8
note_on channel=0 note=88 velocity=11 time=0
control_change channel=0 control=64 value=88 time=7
control_change channel=0 control=64 value=89 time=16
control_change channel=0 control=64 value=90 time=14
control_change channel=0 control=64 value=90 time=16
note_on channel=0 note=59 velocity=56 time=6
note_on channel=0 note=52 velocity=51 time=6
control_change channel=0 control=64 value=91 time=4
note_on channel=0 note=56 velocity=43 time=5
note_on channel=0 note=59 velocity=0 time=6
note_on channel=0 note=52 velocity=0 time=16
control_change channel=0 control=64 value=91 time=3
note_on channel=0 note=56 velocity=0 time=5
control_change channel=0 control=64 value=92 time=25
control_change channel=0 control=64 value=92 time=16
control_change channel=0 control=64 value=93 time=15
note_on channel=0 note=59 velocity=61 time=6
note_on channel=0 note=83 velocity=0 time=0
note_on channel=0 note=52 velocity=65 time=1
note_on channel=0 note=56 velocity=66 time=5
control_change channel=0 control=64 value=93 time=11
note_on channel=0 note=56 velocity=0 time=16
note_on channel=0 note=52 velocity=0 time=3
note_on channel=0 note=59 velocity=0 time=0
control_change channel=0 control=64 value=94 time=11
control_change channel=0 control=64 value=95 time=16
control_change channel=0 control=64 value=96 time=15
note_on channel=0 note=56 velocity=67 time=37
note_on channel=0 note=52 velocity=63 time=1
note_on channel=0 note=59 velocity=62 time=3
control_change channel=0 control=64 value=97 time=4
note_on channel=0 note=95 velocity=0 time=9
control_change channel=0 control=64 value=99 time=7
note_on channel=0 note=59 velocity=0 time=4
note_on channel=0 note=52 velocity=0 time=4
note_on channel=0 note=56 velocity=0 time=0
control_change channel=0 control=64 value=101 time=6
control_change channel=0 control=64 value=103 time=15
control_change channel=0 control=64 value=103 time=16
control_change channel=0 control=64 value=104 time=31
note_on channel=0 note=56 velocity=73 time=9
note_on channel=0 note=59 velocity=70 time=3
control_change channel=0 control=64 value=107 time=2
note_on channel=0 note=52 velocity=56 time=0
control_change channel=0 control=64 value=111 time=15
note_on channel=0 note=59 velocity=0 time=11
note_on channel=0 note=56 velocity=0 time=2
control_change channel=0 control=64 value=113 time=3
note_on channel=0 note=52 velocity=0 time=0
control_change channel=0 control=64 value=113 time=15
control_change channel=0 control=64 value=114 time=15
control_change channel=0 control=64 value=117 time=16
control_change channel=0 control=64 value=127 time=15
note_on channel=0 note=59 velocity=65 time=7
note_on channel=0 note=52 velocity=68 time=6
note_on channel=0 note=56 velocity=65 time=0
note_on channel=0 note=92 velocity=99 time=12
note_on channel=0 note=80 velocity=83 time=3
note_on channel=0 note=59 velocity=0 time=8
note_on channel=0 note=52 velocity=0 time=8
note_on channel=0 note=56 velocity=0 time=0
note_on channel=0 note=88 velocity=0 time=2
note_on channel=0 note=80 velocity=0 time=31
note_on channel=0 note=92 velocity=0 time=41
note_on channel=0 note=52 velocity=63 time=4
note_on channel=0 note=59 velocity=67 time=4
note_on channel=0 note=56 velocity=62 time=3
control_change channel=0 control=64 value=99 time=8
note_on channel=0 note=90 velocity=97 time=1
note_on channel=0 note=78 velocity=95 time=4
control_change channel=0 control=64 value=87 time=10
note_on channel=0 note=59 velocity=0 time=4
note_on channel=0 note=56 velocity=0 time=6
note_on channel=0 note=52 velocity=0 time=1
control_change channel=0 control=64 value=85 time=4
control_change channel=0 control=64 value=86 time=15
control_change channel=0 control=64 value=91 time=15
control_change channel=0 control=64 value=98 time=16
control_change channel=0 control=64 value=108 time=15
note_on channel=0 note=59 velocity=67 time=4
note_on channel=0 note=52 velocity=65 time=2
note_on channel=0 note=56 velocity=71 time=6
control_change channel=0 control=64 value=127 time=2
note_on channel=0 note=59 velocity=0 time=27
note_on channel=0 note=56 velocity=0 time=1
note_on channel=0 note=52 velocity=0 time=1
note_on channel=0 note=78 velocity=0 time=3
note_on channel=0 note=90 velocity=0 time=9
note_on channel=0 note=56 velocity=56 time=67
note_on channel=0 note=59 velocity=63 time=9
note_on channel=0 note=88 velocity=100 time=5
note_on channel=0 note=52 velocity=45 time=4
note_on channel=0 note=76 velocity=88 time=1
note_on channel=0 note=56 velocity=0 time=16
note_on channel=0 note=59 velocity=0 time=7
note_on channel=0 note=52 velocity=0 time=10
note_on channel=0 note=76 velocity=0 time=13
note_on channel=0 note=88 velocity=0 time=7
control_change channel=0 control=64 value=99 time=56
note_on channel=0 note=60 velocity=73 time=14
control_change channel=0 control=64 value=72 time=2
note_on channel=0 note=52 velocity=49 time=2
note_on channel=0 note=88 velocity=88 time=2
note_on channel=0 note=57 velocity=55 time=7
note_on channel=0 note=84 velocity=71 time=2
control_change channel=0 control=64 value=0 time=2
note_on channel=0 note=76 velocity=67 time=1
note_on channel=0 note=81 velocity=62 time=4
note_on channel=0 note=54 velocity=36 time=4
note_on channel=0 note=52 velocity=0 time=4
note_on channel=0 note=57 velocity=0 time=13
note_on channel=0 note=54 velocity=0 time=15
control_change channel=0 control=64 value=48 time=4
control_change channel=0 control=64 value=63 time=15
control_change channel=0 control=64 value=68 time=16
control_change channel=0 control=64 value=71 time=15
note_on channel=0 note=57 velocity=65 time=12
control_change channel=0 control=64 value=74 time=3
note_on channel=0 note=81 velocity=0 time=0
note_on channel=0 note=81 velocity=17 time=0
note_on channel=0 note=52 velocity=24 time=10
note_on channel=0 note=54 velocity=55 time=3
control_change channel=0 control=64 value=77 time=2
control_change channel=0 control=64 value=79 time=15
note_on channel=0 note=57 velocity=0 time=2
note_on channel=0 note=54 velocity=0 time=8
control_change channel=0 control=64 value=82 time=6
note_on channel=0 note=52 velocity=0 time=11
control_change channel=0 control=64 value=84 time=3
control_change channel=0 control=64 value=86 time=16
note_on channel=0 note=76 velocity=0 time=14
control_change channel=0 control=64 value=88 time=1
control_change channel=0 control=64 value=90 time=15
note_on channel=0 note=54 velocity=49 time=12
note_on channel=0 note=57 velocity=53 time=3
control_change channel=0 control=64 value=92 time=1
control_change channel=0 control=64 value=93 time=15
note_on channel=0 note=54 velocity=0 time=5
note_on channel=0 note=57 velocity=0 time=1
note_on channel=0 note=88 velocity=0 time=29
note_on channel=0 note=57 velocity=42 time=66
note_on channel=0 note=54 velocity=38 time=4
note_on channel=0 note=81 velocity=0 time=29
control_change channel=0 control=64 value=90 time=2
note_on channel=0 note=54 velocity=0 time=0
note_on channel=0 note=87 velocity=70 time=1
note_on channel=0 note=57 velocity=0 time=8
control_change channel=0 control=64 value=84 time=7
note_on channel=0 note=75 velocity=39 time=2
control_change channel=0 control=64 value=73 time=13
control_change channel=0 control=64 value=60 time=16
note_on channel=0 note=84 velocity=0 time=9
control_change channel=0 control=64 value=56 time=5
control_change channel=0 control=64 value=63 time=15
control_change channel=0 control=64 value=66 time=16
note_on channel=0 note=54 velocity=36 time=12
note_on channel=0 note=57 velocity=50 time=0
control_change channel=0 control=64 value=69 time=3
control_change channel=0 control=64 value=72 time=14
note_on channel=0 note=57 velocity=0 time=7
note_on channel=0 note=54 velocity=0 time=8
control_change channel=0 control=64 value=75 time=1
control_change channel=0 control=64 value=79 time=15
note_on channel=0 note=75 velocity=0 time=6
control_change channel=0 control=64 value=83 time=10
control_change channel=0 control=64 value=86 time=14
control_change channel=0 control=64 value=88 time=15
control_change channel=0 control=64 value=91 time=16
note_on channel=0 note=57 velocity=46 time=0
note_on channel=0 note=54 velocity=57 time=2
control_change channel=0 control=64 value=94 time=13
note_on channel=0 note=54 velocity=0 time=15
control_change channel=0 control=64 value=96 time=1
note_on channel=0 note=57 velocity=0 time=2
control_change channel=0 control=64 value=97 time=13
control_change channel=0 control=64 value=98 time=14
note_on channel=0 note=87 velocity=0 time=11
control_change channel=0 control=64 value=100 time=5
control_change channel=0 control=64 value=104 time=15
control_change channel=0 control=64 value=107 time=16
note_on channel=0 note=54 velocity=50 time=30
note_on channel=0 note=57 velocity=50 time=3
control_change channel=0 control=64 value=106 time=6
note_on channel=0 note=52 velocity=45 time=11
control_change channel=0 control=64 value=98 time=4
note_on channel=0 note=60 velocity=0 time=14
control_change channel=0 control=64 value=93 time=1
control_change channel=0 control=64 value=92 time=16
note_on channel=0 note=57 velocity=0 time=43
control_change channel=0 control=64 value=92 time=2
control_change channel=0 control=64 value=95 time=15
note_on channel=0 note=52 velocity=0 time=1
note_on channel=0 note=54 velocity=0 time=10
control_change channel=0 control=64 value=99 time=4
control_change channel=0 control=64 value=105 time=15
control_change channel=0 control=64 value=110 time=15
control_change channel=0 control=64 value=118 time=16
control_change channel=0 control=64 value=127 time=15
note_on channel=0 note=90 velocity=97 time=56
note_on channel=0 note=78 velocity=80 time=13
note_on channel=0 note=78 velocity=0 time=65
control_change channel=0 control=64 value=91 time=64
note_on channel=0 note=28 velocity=63 time=10
note_on channel=0 note=90 velocity=0 time=1
control_change channel=0 control=64 value=64 time=3
note_on channel=0 note=40 velocity=57 time=7
control_change channel=0 control=64 value=0 time=9
note_on channel=0 note=28 velocity=0 time=20
control_change channel=0 control=64 value=49 time=10
note_on channel=0 note=95 velocity=96 time=6
note_on channel=0 note=88 velocity=60 time=8
control_change channel=0 control=64 value=62 time=2
note_on channel=0 note=83 velocity=67 time=5
control_change channel=0 control=64 value=68 time=9
note_on channel=0 note=40 velocity=0 time=2
control_change channel=0 control=64 value=73 time=14
control_change channel=0 control=64 value=78 time=15
control_change channel=0 control=64 value=83 time=15
control_change channel=0 control=64 value=85 time=16
note_on channel=0 note=88 velocity=0 time=11
note_on channel=0 note=88 velocity=8 time=0
control_change channel=0 control=64 value=87 time=3
control_change channel=0 control=64 value=88 time=15
control_change channel=0 control=64 value=91 time=16
control_change channel=0 control=64 value=94 time=14
control_change channel=0 control=64 value=97 time=16
control_change channel=0 control=64 value=99 time=15
note_on channel=0 note=59 velocity=67 time=8
control_change channel=0 control=64 value=102 time=7
note_on channel=0 note=52 velocity=60 time=1
note_on channel=0 note=56 velocity=58 time=0
control_change channel=0 control=64 value=104 time=15
note_on channel=0 note=59 velocity=0 time=5
note_on channel=0 note=56 velocity=0 time=4
control_change channel=0 control=64 value=106 time=5
note_on channel=0 note=52 velocity=0 time=6
control_change channel=0 control=64 value=109 time=9
control_change channel=0 control=64 value=117 time=16
control_change channel=0 control=64 value=127 time=15
note_on channel=0 note=83 velocity=0 time=15
note_on channel=0 note=56 velocity=59 time=37
note_on channel=0 note=52 velocity=57 time=1
note_on channel=0 note=59 velocity=56 time=5
note_on channel=0 note=56 velocity=0 time=27
note_on channel=0 note=59 velocity=0 time=4
note_on channel=0 note=52 velocity=0 time=3
note_on channel=0 note=95 velocity=0 time=68
note_on channel=0 note=52 velocity=56 time=28
note_on channel=0 note=59 velocity=55 time=0
note_on channel=0 note=56 velocity=60 time=2
note_on channel=0 note=59 velocity=0 time=24
note_on channel=0 note=56 velocity=0 time=6
note_on channel=0 note=52 velocity=0 time=3
note_on channel=0 note=56 velocity=70 time=66
note_on channel=0 note=59 velocity=72 time=0
note_on channel=0 note=52 velocity=66 time=7
note_on channel=0 note=59 velocity=0 time=23
note_on channel=0 note=56 velocity=0 time=16
note_on channel=0 note=52 velocity=0 time=7
note_on channel=0 note=92 velocity=93 time=69
note_on channel=0 note=80 velocity=80 time=6
note_on channel=0 note=59 velocity=65 time=3
note_on channel=0 note=56 velocity=54 time=12
note_on channel=0 note=88 velocity=0 time=14
note_on channel=0 note=56 velocity=0 time=10
note_on channel=0 note=59 velocity=0 time=2
note_on channel=0 note=80 velocity=0 time=15
note_on channel=0 note=92 velocity=0 time=42
note_on channel=0 note=90 velocity=94 time=39
control_change channel=0 control=64 value=114 time=4
note_on channel=0 note=78 velocity=87 time=1
note_on channel=0 note=44 velocity=70 time=7
control_change channel=0 control=64 value=75 time=8
control_change channel=0 control=64 value=49 time=15
control_change channel=0 control=64 value=59 time=15
control_change channel=0 control=64 value=66 time=15
control_change channel=0 control=64 value=72 time=15
control_change channel=0 control=64 value=78 time=16
control_change channel=0 control=64 value=89 time=15
note_on channel=0 note=44 velocity=0 time=2
control_change channel=0 control=64 value=100 time=12
note_on channel=0 note=59 velocity=70 time=1
note_on channel=0 note=52 velocity=63 time=8
control_change channel=0 control=64 value=109 time=7
note_on channel=0 note=59 velocity=0 time=13
control_change channel=0 control=64 value=115 time=2
note_on channel=0 note=78 velocity=0 time=11
note_on channel=0 note=90 velocity=0 time=0
control_change channel=0 control=64 value=120 time=4
note_on channel=0 note=52 velocity=0 time=1
control_change channel=0 control=64 value=127 time=14
note_on channel=0 note=88 velocity=100 time=51
note_on channel=0 note=76 velocity=84 time=4
note_on channel=0 note=59 velocity=61 time=4
note_on channel=0 note=52 velocity=60 time=16
note_on channel=0 note=59 velocity=0 time=9
note_on channel=0 note=76 velocity=0 time=20
note_on channel=0 note=52 velocity=0 time=7
control_change channel=0 control=64 value=105 time=65
control_change channel=0 control=64 value=80 time=16
control_change channel=0 control=64 value=56 time=15
note_on channel=0 note=88 velocity=0 time=3
note_on channel=0 note=87 velocity=85 time=4
note_on channel=0 note=42 velocity=63 time=1
control_change channel=0 control=64 value=0 time=6
note_on channel=0 note=75 velocity=72 time=0
note_on channel=0 note=83 velocity=56 time=0
control_change channel=0 control=64 value=44 time=16
control_change channel=0 control=64 value=65 time=15
control_change channel=0 control=64 value=70 time=16
note_on channel=0 note=42 velocity=0 time=1
control_change channel=0 control=64 value=76 time=14
control_change channel=0 control=64 value=81 time=14
control_change channel=0 control=64 value=86 time=16
control_change channel=0 control=64 value=90 time=15
control_change channel=0 control=64 value=94 time=16
control_change channel=0 control=64 value=98 time=15
control_change channel=0 control=64 value=102 time=14
note_on channel=0 note=63 velocity=72 time=9
control_change channel=0 control=64 value=104 time=7
control_change channel=0 control=64 value=107 time=15
note_on channel=0 note=63 velocity=0 time=12
note_on channel=0 note=75 velocity=0 time=0
control_change channel=0 control=64 value=111 time=3
note_on channel=0 note=54 velocity=22 time=1
note_on channel=0 note=59 velocity=30 time=7
control_change channel=0 control=64 value=118 time=7
control_change channel=0 control=64 value=127 time=15
note_on channel=0 note=59 velocity=0 time=13
note_on channel=0 note=54 velocity=0 time=3
note_on channel=0 note=88 velocity=93 time=33
note_on channel=0 note=63 velocity=74 time=9
note_on channel=0 note=76 velocity=82 time=3
note_on channel=0 note=87 velocity=0 time=0
note_on channel=0 note=83 velocity=0 time=3
note_on channel=0 note=54 velocity=51 time=2
note_on channel=0 note=63 velocity=0 time=23
note_on channel=0 note=59 velocity=38 time=3
note_on channel=0 note=76 velocity=0 time=6
note_on channel=0 note=54 velocity=0 time=4
note_on channel=0 note=59 velocity=0 time=26
note_on channel=0 note=63 velocity=77 time=39
note_on channel=0 note=78 velocity=85 time=1
note_on channel=0 note=90 velocity=98 time=2
note_on channel=0 note=54 velocity=66 time=6
note_on channel=0 note=59 velocity=56 time=13
note_on channel=0 note=88 velocity=0 time=9
note_on channel=0 note=54 velocity=0 time=11
note_on channel=0 note=63 velocity=0 time=10
note_on channel=0 note=59 velocity=0 time=1
note_on channel=0 note=63 velocity=73 time=69
note_on channel=0 note=59 velocity=66 time=2
note_on channel=0 note=54 velocity=57 time=17
note_on channel=0 note=90 velocity=0 time=16
note_on channel=0 note=63 velocity=0 time=9
note_on channel=0 note=54 velocity=0 time=3
note_on channel=0 note=59 velocity=0 time=6
note_on channel=0 note=78 velocity=0 time=4
note_on channel=0 note=54 velocity=66 time=70
note_on channel=0 note=63 velocity=76 time=0
note_on channel=0 note=59 velocity=53 time=17
note_on channel=0 note=54 velocity=0 time=19
note_on channel=0 note=59 velocity=0 time=6
note_on channel=0 note=63 velocity=0 time=8
control_change channel=0 control=64 value=104 time=59
control_change channel=0 control=64 value=78 time=16
note_on channel=0 note=85 velocity=95 time=9
note_on channel=0 note=64 velocity=62 time=2
control_change channel=0 control=64 value=0 time=4
note_on channel=0 note=73 velocity=75 time=1
note_on channel=0 note=54 velocity=44 time=10
note_on channel=0 note=82 velocity=66 time=0
note_on channel=0 note=58 velocity=36 time=6
note_on channel=0 note=64 velocity=0 time=10
control_change channel=0 control=64 value=47 time=3
note_on channel=0 note=54 velocity=0 time=4
control_change channel=0 control=64 value=62 time=11
note_on channel=0 note=58 velocity=0 time=4
control_change channel=0 control=64 value=65 time=12
control_change channel=0 control=64 value=70 time=15
control_change channel=0 control=64 value=75 time=15
control_change channel=0 control=64 value=81 time=16
note_on channel=0 note=64 velocity=73 time=10
note_on channel=0 note=54 velocity=56 time=2
control_change channel=0 control=64 value=86 time=3
note_on channel=0 note=58 velocity=66 time=0
note_on channel=0 note=73 velocity=0 time=2
control_change channel=0 control=64 value=91 time=12
note_on channel=0 note=64 velocity=0 time=14
control_change channel=0 control=64 value=95 time=2
control_change channel=0 control=64 value=99 time=15
note_on channel=0 note=54 velocity=0 time=1
note_on channel=0 note=58 velocity=0 time=5
control_change channel=0 control=64 value=105 time=10
control_change channel=0 control=64 value=114 time=14
control_change channel=0 control=64 value=127 time=15
note_on channel=0 note=82 velocity=0 time=44
note_on channel=0 note=87 velocity=94 time=1
note_on channel=0 note=85 velocity=0 time=8
note_on channel=0 note=64 velocity=69 time=7
note_on channel=0 note=75 velocity=84 time=3
note_on channel=0 note=54 velocity=59 time=11
note_on channel=0 note=58 velocity=53 time=4
note_on channel=0 note=64 velocity=0 time=6
note_on channel=0 note=87 velocity=0 time=15
note_on channel=0 note=58 velocity=0 time=9
note_on channel=0 note=54 velocity=0 time=7
note_on channel=0 note=75 velocity=0 time=2
note_on channel=0 note=80 velocity=34 time=76
control_change channel=0 control=64 value=97 time=35
note_on channel=0 note=80 velocity=0 time=0
note_on channel=0 note=72 velocity=61 time=3
note_on channel=0 note=75 velocity=59 time=10
control_change channel=0 control=64 value=75 time=2
note_on channel=0 note=81 velocity=67 time=9
note_on channel=0 note=84 velocity=86 time=2
control_change channel=0 control=64 value=26 time=5
note_on channel=0 note=75 velocity=0 time=1
note_on channel=0 note=72 velocity=0 time=7
note_on channel=0 note=42 velocity=58 time=4
control_change channel=0 control=64 value=0 time=3
note_on channel=0 note=54 velocity=54 time=0
note_on channel=0 note=81 velocity=0 time=7
control_change channel=0 control=64 value=21 time=23
control_change channel=0 control=64 value=53 time=15
control_change channel=0 control=64 value=63 time=16
control_change channel=0 control=64 value=66 time=15
control_change channel=0 control=64 value=69 time=15
control_change channel=0 control=64 value=71 time=22
control_change channel=0 control=64 value=73 time=15
note_on channel=0 note=72 velocity=57 time=10
note_on channel=0 note=81 velocity=67 time=2
control_change channel=0 control=64 value=76 time=4
note_on channel=0 note=75 velocity=48 time=6
control_change channel=0 control=64 value=79 time=9
note_on channel=0 note=72 velocity=0 time=0
note_on channel=0 note=75 velocity=0 time=15
control_change channel=0 control=64 value=81 time=1
note_on channel=0 note=81 velocity=0 time=10
control_change channel=0 control=64 value=82 time=4
control_change channel=0 control=64 value=84 time=15
control_change channel=0 control=64 value=86 time=16
control_change channel=0 control=64 value=89 time=15
control_change channel=0 control=64 value=91 time=15
note_on channel=0 note=75 velocity=64 time=11
note_on channel=0 note=72 velocity=55 time=1
control_change channel=0 control=64 value=92 time=4
note_on channel=0 note=81 velocity=62 time=5
note_on channel=0 note=72 velocity=0 time=8
note_on channel=0 note=75 velocity=0 time=7
note_on channel=0 note=81 velocity=0 time=15
note_on channel=0 note=54 velocity=0 time=25
control_change channel=0 control=64 value=92 time=1
control_change channel=0 control=64 value=89 time=15
control_change channel=0 control=64 value=85 time=15
control_change channel=0 control=64 value=82 time=16
note_on channel=0 note=72 velocity=56 time=1
note_on channel=0 note=75 velocity=67 time=11
control_change channel=0 control=67 value=8 time=3
note_on channel=0 note=81 velocity=63 time=6
control_change channel=0 control=64 value=83 time=9
control_change channel=0 control=67 value=11 time=0
note_on channel=0 note=72 velocity=0 time=0
note_on channel=0 note=75 velocity=0 time=10
control_change channel=0 control=64 value=85 time=6
control_change channel=0 control=67 value=15 time=0
note_on channel=0 note=81 velocity=0 time=2
control_change channel=0 control=64 value=87 time=13
control_change channel=0 control=67 value=18 time=0
control_change channel=0 control=64 value=88 time=15
control_change channel=0 control=67 value=22 time=0
control_change channel=0 control=64 value=89 time=16
control_change channel=0 control=67 value=26 time=0
control_change channel=0 control=64 value=89 time=15
control_change channel=0 control=67 value=29 time=0
control_change channel=0 control=64 value=90 time=15
control_change channel=0 control=67 value=33 time=0
note_on channel=0 note=72 velocity=61 time=0
note_on channel=0 note=75 velocity=61 time=7
note_on channel=0 note=81 velocity=64 time=5
control_change channel=0 control=64 value=91 time=3
control_change channel=0 control=67 value=37 time=0
note_on channel=0 note=72 velocity=0 time=5
control_change channel=0 control=64 value=92 time=10
control_change channel=0 control=67 value=41 time=0
note_on channel=0 note=75 velocity=0 time=3
note_on channel=0 note=81 velocity=0 time=10
control_change channel=0 control=64 value=92 time=3
control_change channel=0 control=67 value=44 time=0
control_change channel=0 control=67 value=48 time=14
control_change channel=0 control=67 value=50 time=15
control_change channel=0 control=67 value=54 time=16
control_change channel=0 control=64 value=93 time=15
control_change channel=0 control=67 value=60 time=0
note_on channel=0 note=42 velocity=0 time=14
control_change channel=0 control=67 value=65 time=2
note_on channel=0 note=72 velocity=59 time=1
control_change channel=0 control=67 value=69 time=13
note_on channel=0 note=81 velocity=61 time=0
note_on channel=0 note=84 velocity=0 time=1
note_on channel=0 note=75 velocity=57 time=8
note_on channel=0 note=51 velocity=58 time=3
control_change channel=0 control=67 value=73 time=3
note_on channel=0 note=39 velocity=47 time=7
control_change channel=0 control=67 value=76 time=9
note_on channel=0 note=75 velocity=0 time=4
note_on channel=0 note=72 velocity=0 time=4
control_change channel=0 control=67 value=78 time=7
note_on channel=0 note=51 velocity=0 time=0
note_on channel=0 note=39 velocity=0 time=10
control_change channel=0 control=67 value=80 time=6
control_change channel=0 control=67 value=81 time=14
control_change channel=0 control=64 value=92 time=15
control_change channel=0 control=67 value=82 time=0
control_change channel=0 control=64 value=90 time=16
control_change channel=0 control=67 value=83 time=0
control_change channel=0 control=64 value=83 time=14
control_change channel=0 control=67 value=84 time=0
note_on channel=0 note=81 velocity=0 time=14
control_change channel=0 control=64 value=69 time=1
note_on channel=0 note=83 velocity=67 time=10
note_on channel=0 note=39 velocity=50 time=4
control_change channel=0 control=64 value=50 time=2
note_on channel=0 note=51 velocity=40 time=10
control_change channel=0 control=64 value=60 time=5
note_on channel=0 note=71 velocity=42 time=3
control_change channel=0 control=64 value=63 time=13
control_change channel=0 control=64 value=64 time=14
note_on channel=0 note=71 velocity=0 time=1
note_on channel=0 note=51 velocity=0 time=11
control_change channel=0 control=64 value=65 time=3
note_on channel=0 note=39 velocity=0 time=11
control_change channel=0 control=64 value=67 time=5
control_change channel=0 control=64 value=71 time=22
control_change channel=0 control=64 value=73 time=16
control_change channel=0 control=64 value=74 time=15
control_change channel=0 control=64 value=74 time=15
control_change channel=0 control=64 value=76 time=16
control_change channel=0 control=67 value=83 time=0
note_on channel=0 note=71 velocity=34 time=2
control_change channel=0 control=64 value=78 time=12
control_change channel=0 control=67 value=83 time=0
note_on channel=0 note=49 velocity=60 time=0
note_on channel=0 note=81 velocity=46 time=0
note_on channel=0 note=37 velocity=41 time=13
control_change channel=0 control=64 value=82 time=3
note_on channel=0 note=71 velocity=0 time=4
control_change channel=0 control=64 value=84 time=11
note_on channel=0 note=81 velocity=0 time=3
note_on channel=0 note=49 velocity=0 time=8
control_change channel=0 control=64 value=86 time=4
control_change channel=0 control=67 value=82 time=0
control_change channel=0 control=64 value=87 time=16
control_change channel=0 control=67 value=82 time=0
control_change channel=0 control=64 value=88 time=14
note_on channel=0 note=37 velocity=0 time=9
control_change channel=0 control=64 value=91 time=6
control_change channel=0 control=67 value=81 time=0
control_change channel=0 control=64 value=94 time=16
control_change channel=0 control=64 value=96 time=15
control_change channel=0 control=67 value=81 time=16
control_change channel=0 control=64 value=97 time=16
control_change channel=0 control=64 value=99 time=15
control_change channel=0 control=67 value=80 time=0
note_on channel=0 note=71 velocity=35 time=4
note_on channel=0 note=81 velocity=52 time=10
control_change channel=0 control=64 value=103 time=1
note_on channel=0 note=47 velocity=44 time=2
note_on channel=0 note=35 velocity=49 time=3
control_change channel=0 control=64 value=107 time=10
note_on channel=0 note=75 velocity=23 time=0
note_on channel=0 note=71 velocity=0 time=4
control_change channel=0 control=64 value=108 time=11
control_change channel=0 control=67 value=80 time=0
note_on channel=0 note=47 velocity=0 time=6
note_on channel=0 note=35 velocity=0 time=6
note_on channel=0 note=83 velocity=0 time=3
note_on channel=0 note=81 velocity=0 time=5
note_on channel=0 note=75 velocity=0 time=5
control_change channel=0 control=64 value=109 time=5
control_change channel=0 control=64 value=109 time=16
control_change channel=0 control=64 value=110 time=30
control_change channel=0 control=67 value=79 time=0
control_change channel=0 control=67 value=79 time=16
control_change channel=0 control=64 value=109 time=122
control_change channel=0 control=64 value=104 time=14
control_change channel=0 control=64 value=89 time=16
control_change channel=0 control=64 value=69 time=15
note_on channel=0 note=28 velocity=62 time=0
note_on channel=0 note=40 velocity=58 time=12
control_change channel=0 control=64 value=0 time=3
control_change channel=0 control=67 value=78 time=30
note_on channel=0 note=95 velocity=94 time=9
control_change channel=0 control=64 value=47 time=6
note_on channel=0 note=88 velocity=64 time=5
note_on channel=0 note=28 velocity=0 time=2
control_change channel=0 control=64 value=63 time=9
control_change channel=0 control=67 value=78 time=0
note_on channel=0 note=83 velocity=59 time=1
control_change channel=0 control=64 value=69 time=13
control_change channel=0 control=67 value=77 time=0
note_on channel=0 note=40 velocity=0 time=15
control_change channel=0 control=64 value=74 time=1
control_change channel=0 control=67 value=77 time=0
control_change channel=0 control=64 value=79 time=15
control_change channel=0 control=67 value=76 time=0
control_change channel=0 control=64 value=83 time=15
control_change channel=0 control=67 value=75 time=0
control_change channel=0 control=64 value=86 time=16
control_change channel=0 control=67 value=74 time=0
control_change channel=0 control=64 value=89 time=14
control_change channel=0 control=67 value=74 time=0
note_on channel=0 note=88 velocity=0 time=3
note_on channel=0 note=88 velocity=3 time=0
control_change channel=0 control=64 value=92 time=12
control_change channel=0 control=64 value=93 time=16
control_change channel=0 control=67 value=73 time=0
control_change channel=0 control=64 value=93 time=23
control_change channel=0 control=67 value=73 time=0
control_change channel=0 control=64 value=94 time=16
control_change channel=0 control=64 value=95 time=14
control_change channel=0 control=67 value=72 time=0
control_change channel=0 control=64 value=95 time=16
control_change channel=0 control=64 value=96 time=15
note_on channel=0 note=52 velocity=51 time=22
note_on channel=0 note=59 velocity=48 time=3
note_on channel=0 note=56 velocity=49 time=1
control_change channel=0 control=64 value=96 time=4
note_on channel=0 note=59 velocity=0 time=23
note_on channel=0 note=56 velocity=0 time=2
note_on channel=0 note=52 velocity=0 time=3
note_on channel=0 note=83 velocity=0 time=31
control_change channel=0 control=64 value=97 time=2
control_change channel=0 control=64 value=98 time=15
control_change channel=0 control=64 value=97 time=30
note_on channel=0 note=59 velocity=63 time=4
note_on channel=0 note=56 velocity=64 time=5
note_on channel=0 note=52 velocity=54 time=4
control_change channel=0 control=64 value=90 time=3
control_change channel=0 control=64 value=82 time=14
note_on channel=0 note=59 velocity=0 time=9
note_on channel=0 note=52 velocity=0 time=5
control_change channel=0 control=64 value=77 time=2
note_on channel=0 note=56 velocity=0 time=0
control_change channel=0 control=64 value=76 time=15
control_change channel=0 control=64 value=77 time=15
control_change channel=0 control=64 value=78 time=17
control_change channel=0 control=64 value=81 time=14
control_change channel=0 control=64 value=83 time=15
note_on channel=0 note=59 velocity=70 time=14
control_change channel=0 control=64 value=87 time=2
note_on channel=0 note=95 velocity=0 time=1
note_on channel=0 note=52 velocity=51 time=1
note_on channel=0 note=56 velocity=69 time=2
control_change channel=0 control=64 value=90 time=11
control_change channel=0 control=64 value=94 time=16
control_change channel=0 control=67 value=72 time=0
control_change channel=0 control=64 value=96 time=14
control_change channel=0 control=64 value=99 time=15
control_change channel=0 control=67 value=71 time=0
control_change channel=0 control=64 value=102 time=16
control_change channel=0 control=67 value=71 time=0
control_change channel=0 control=64 value=104 time=15
control_change channel=0 control=67 value=70 time=0
note_on channel=0 note=61 velocity=78 time=6
note_on channel=0 note=56 velocity=0 time=3
note_on channel=0 note=59 velocity=0 time=1
note_on channel=0 note=52 velocity=0 time=2
control_change channel=0 control=64 value=105 time=3
control_change channel=0 control=67 value=69 time=0
control_change channel=0 control=64 value=106 time=15
control_change channel=0 control=67 value=66 time=0
note_on channel=0 note=61 velocity=0 time=13
control_change channel=0 control=64 value=107 time=2
control_change channel=0 control=67 value=59 time=0
control_change channel=0 control=67 value=48 time=16
control_change channel=0 control=67 value=37 time=15
control_change channel=0 control=67 value=29 time=15
control_change channel=0 control=64 value=108 time=16
control_change channel=0 control=67 value=27 time=0
note_on channel=0 note=92 velocity=97 time=11
note_on channel=0 note=56 velocity=65 time=1
note_on channel=0 note=59 velocity=66 time=1
control_change channel=0 control=64 value=108 time=2
control_change channel=0 control=67 value=25 time=0
note_on channel=0 note=88 velocity=0 time=8
note_on channel=0 note=80 velocity=73 time=1
control_change channel=0 control=67 value=23 time=7
note_on channel=0 note=52 velocity=47 time=4
note_on channel=0 note=59 velocity=0 time=10
control_change channel=0 control=67 value=19 time=1
note_on channel=0 note=56 velocity=0 time=2
control_change channel=0 control=64 value=109 time=12
control_change channel=0 control=67 value=18 time=0
note_on channel=0 note=52 velocity=0 time=1
note_on channel=0 note=80 velocity=0 time=2
control_change channel=0 control=64 value=110 time=13
control_change channel=0 control=64 value=110 time=15
control_change channel=0 control=64 value=110 time=15
control_change channel=0 control=64 value=102 time=16
control_change channel=0 control=64 value=86 time=15
note_on channel=0 note=90 velocity=93 time=2
note_on channel=0 note=92 velocity=0 time=4
note_on channel=0 note=52 velocity=53 time=3
note_on channel=0 note=78 velocity=84 time=2
control_change channel=0 control=64 value=65 time=5
note_on channel=0 note=56 velocity=64 time=0
note_on channel=0 note=59 velocity=66 time=1
control_change channel=0 control=64 value=51 time=14
control_change channel=0 control=64 value=64 time=14
control_change channel=0 control=67 value=17 time=0
control_change channel=0 control=64 value=71 time=16
control_change channel=0 control=67 value=17 time=0
control_change channel=0 control=64 value=77 time=15
control_change channel=0 control=67 value=16 time=0
control_change channel=0 control=64 value=86 time=23
note_on channel=0 note=56 velocity=0 time=14
control_change channel=0 control=64 value=95 time=1
control_change channel=0 control=67 value=15 time=0
control_change channel=0 control=64 value=102 time=14
control_change channel=0 control=67 value=15 time=0
note_on channel=0 note=61 velocity=83 time=0
note_on channel=0 note=52 velocity=0 time=9
note_on channel=0 note=59 velocity=0 time=3
note_on channel=0 note=78 velocity=0 time=0
control_change channel=0 control=64 value=106 time=6
control_change channel=0 control=67 value=13 time=0
note_on channel=0 note=90 velocity=0 time=3
control_change channel=0 control=64 value=110 time=12
control_change channel=0 control=67 value=11 time=0
control_change channel=0 control=64 value=115 time=16
control_change channel=0 control=67 value=10 time=0
note_on channel=0 note=61 velocity=0 time=6
control_change channel=0 control=64 value=121 time=9
control_change channel=0 control=67 value=9 time=0
control_change channel=0 control=64 value=127 time=16
control_change channel=0 control=67 value=8 time=0
control_change channel=0 control=67 value=0 time=15
note_on channel=0 note=56 velocity=61 time=12
note_on channel=0 note=88 velocity=99 time=9
note_on channel=0 note=76 velocity=84 time=8
note_on channel=0 note=59 velocity=48 time=8
note_on channel=0 note=56 velocity=0 time=10
note_on channel=0 note=59 velocity=0 time=13
note_on channel=0 note=76 velocity=0 time=0
note_on channel=0 note=88 velocity=0 time=8
control_change channel=0 control=64 value=123 time=53
control_change channel=0 control=64 value=108 time=15
note_on channel=0 note=88 velocity=88 time=5
control_change channel=0 control=64 value=92 time=11
note_on channel=0 note=81 velocity=59 time=1
note_on channel=0 note=84 velocity=70 time=1
note_on channel=0 note=76 velocity=72 time=2
control_change channel=0 control=64 value=74 time=10
control_change channel=0 control=64 value=19 time=15
control_change channel=0 control=64 value=0 time=16
control_change channel=0 control=64 value=30 time=47
control_change channel=0 control=64 value=59 time=14
note_on channel=0 note=57 velocity=68 time=8
note_on channel=0 note=60 velocity=72 time=0
note_on channel=0 note=52 velocity=59 time=6
control_change channel=0 control=64 value=64 time=2
control_change channel=0 control=64 value=66 time=15
note_on channel=0 note=60 velocity=0 time=1
note_on channel=0 note=57 velocity=0 time=5
control_change channel=0 control=64 value=70 time=10
note_on channel=0 note=52 velocity=0 time=1
note_on channel=0 note=54 velocity=7 time=6
control_change channel=0 control=64 value=74 time=8
note_on channel=0 note=76 velocity=0 time=26
control_change channel=0 control=64 value=68 time=4
note_on channel=0 note=54 velocity=0 time=4
control_change channel=0 control=64 value=0 time=11
note_on channel=0 note=60 velocity=77 time=10
note_on channel=0 note=52 velocity=59 time=6
note_on channel=0 note=57 velocity=72 time=0
note_on channel=0 note=60 velocity=0 time=23
note_on channel=0 note=57 velocity=0 time=2
control_change channel=0 control=67 value=8 time=4
note_on channel=0 note=52 velocity=0 time=4
control_change channel=0 control=67 value=8 time=12
control_change channel=0 control=67 value=9 time=15
note_on channel=0 note=88 velocity=0 time=7
control_change channel=0 control=64 value=52 time=8
control_change channel=0 control=67 value=9 time=0
control_change channel=0 control=64 value=56 time=15
control_change channel=0 control=67 value=10 time=0
control_change channel=0 control=64 value=17 time=15
control_change channel=0 control=67 value=11 time=0
note_on channel=0 note=52 velocity=49 time=14
control_change channel=0 control=64 value=0 time=1
control_change channel=0 control=67 value=12 time=0
note_on channel=0 note=57 velocity=45 time=0
note_on channel=0 note=60 velocity=58 time=2
control_change channel=0 control=67 value=13 time=13
note_on channel=0 note=75 velocity=48 time=4
note_on channel=0 note=87 velocity=66 time=0
note_on channel=0 note=81 velocity=0 time=4
control_change channel=0 control=67 value=14 time=7
control_change channel=0 control=67 value=16 time=16
note_on channel=0 note=54 velocity=10 time=0
control_change channel=0 control=67 value=20 time=15
note_on channel=0 note=84 velocity=0 time=11
control_change channel=0 control=67 value=25 time=4
control_change channel=0 control=67 value=29 time=15
control_change channel=0 control=67 value=32 time=15
note_on channel=0 note=57 velocity=0 time=8
note_on channel=0 note=60 velocity=0 time=2
control_change channel=0 control=67 value=37 time=6
note_on channel=0 note=52 velocity=0 time=6
note_on channel=0 note=62 velocity=73 time=0
note_on channel=0 note=54 velocity=0 time=1
control_change channel=0 control=67 value=48 time=15
note_on channel=0 note=75 velocity=0 time=9
control_change channel=0 control=67 value=60 time=6
note_on channel=0 note=62 velocity=0 time=4
control_change channel=0 control=64 value=21 time=11
control_change channel=0 control=67 value=67 time=0
control_change channel=0 control=64 value=59 time=15
control_change channel=0 control=67 value=69 time=0
note_on channel=0 note=87 velocity=0 time=1
control_change channel=0 control=64 value=65 time=15
control_change channel=0 control=67 value=72 time=0
control_change channel=0 control=64 value=70 time=15
control_change channel=0 control=67 value=76 time=0
control_change channel=0 control=64 value=73 time=15
control_change channel=0 control=67 value=79 time=0
control_change channel=0 control=64 value=75 time=16
control_change channel=0 control=67 value=81 time=0
note_on channel=0 note=60 velocity=70 time=2
note_on channel=0 note=57 velocity=60 time=4
note_on channel=0 note=52 velocity=57 time=6
control_change channel=0 control=67 value=81 time=3
note_on channel=0 note=54 velocity=45 time=1
control_change channel=0 control=67 value=82 time=15
note_on channel=0 note=60 velocity=0 time=0
note_on channel=0 note=57 velocity=0 time=6
note_on channel=0 note=52 velocity=0 time=3
control_change channel=0 control=67 value=84 time=5
note_on channel=0 note=54 velocity=0 time=0
control_change channel=0 control=67 value=85 time=15
control_change channel=0 control=67 value=86 time=16
control_change channel=0 control=64 value=71 time=45
note_on channel=0 note=52 velocity=52 time=0
note_on channel=0 note=57 velocity=46 time=8
note_on channel=0 note=54 velocity=47 time=1
control_change channel=0 control=64 value=60 time=6
note_on channel=0 note=60 velocity=51 time=4
control_change channel=0 control=64 value=0 time=12
control_change channel=0 control=67 value=85 time=15
control_change channel=0 control=67 value=84 time=15
note_on channel=0 note=54 velocity=0 time=14
control_change channel=0 control=64 value=27 time=2
control_change channel=0 control=67 value=84 time=0
note_on channel=0 note=60 velocity=0 time=6
note_on channel=0 note=57 velocity=0 time=5
control_change channel=0 control=64 value=58 time=3
note_on channel=0 note=52 velocity=0 time=5
control_change channel=0 control=64 value=65 time=10
control_change channel=0 control=67 value=83 time=0
control_change channel=0 control=64 value=68 time=16
control_change channel=0 control=67 value=83 time=0
note_on channel=0 note=62 velocity=64 time=1
control_change channel=0 control=64 value=71 time=13
control_change channel=0 control=67 value=82 time=0
control_change channel=0 control=64 value=74 time=17
control_change channel=0 control=67 value=81 time=0
control_change channel=0 control=64 value=77 time=15
control_change channel=0 control=64 value=79 time=15
control_change channel=0 control=64 value=81 time=16
note_on channel=0 note=62 velocity=0 time=7
control_change channel=0 control=64 value=83 time=8
control_change channel=0 control=67 value=81 time=0
control_change channel=0 control=64 value=87 time=14
note_on channel=0 note=52 velocity=68 time=12
note_on channel=0 note=60 velocity=39 time=2
control_change channel=0 control=64 value=92 time=2
control_change channel=0 control=67 value=80 time=0
control_change channel=0 control=64 value=97 time=15
control_change channel=0 control=67 value=78 time=0
note_on channel=0 note=90 velocity=85 time=1
note_on channel=0 note=60 velocity=0 time=7
note_on channel=0 note=52 velocity=0 time=6
control_change channel=0 control=64 value=101 time=2
control_change channel=0 control=67 value=78 time=0
note_on channel=0 note=78 velocity=63 time=2
control_change channel=0 control=64 value=104 time=13
control_change channel=0 control=67 value=77 time=0
control_change channel=0 control=64 value=106 time=14
control_change channel=0 control=67 value=77 time=16
note_on channel=0 note=78 velocity=0 time=9
control_change channel=0 control=64 value=107 time=6
control_change channel=0 control=67 value=76 time=0
control_change channel=0 control=64 value=107 time=16
control_change channel=0 control=64 value=108 time=14
control_change channel=0 control=67 value=76 time=0
control_change channel=0 control=67 value=76 time=76
control_change channel=0 control=64 value=104 time=15
control_change channel=0 control=64 value=95 time=16
control_change channel=0 control=67 value=77 time=0
note_on channel=0 note=28 velocity=59 time=6
note_on channel=0 note=40 velocity=54 time=6
control_change channel=0 control=64 value=76 time=3
note_on channel=0 note=90 velocity=0 time=0
control_change channel=0 control=64 value=52 time=15
control_change channel=0 control=64 value=0 time=16
note_on channel=0 note=95 velocity=88 time=11
note_on channel=0 note=88 velocity=59 time=13
control_change channel=0 control=64 value=49 time=14
control_change channel=0 control=67 value=76 time=0
note_on channel=0 note=83 velocity=50 time=0
note_on channel=0 note=28 velocity=0 time=4
control_change channel=0 control=64 value=62 time=10
control_change channel=0 control=64 value=67 time=15
control_change channel=0 control=64 value=71 time=16
control_change channel=0 control=67 value=76 time=0
note_on channel=0 note=40 velocity=0 time=1
control_change channel=0 control=64 value=75 time=14
control_change channel=0 control=64 value=79 time=16
control_change channel=0 control=67 value=75 time=0
control_change channel=0 control=64 value=81 time=14
control_change channel=0 control=67 value=75 time=0
control_change channel=0 control=64 value=83 time=15
control_change channel=0 control=64 value=84 time=16
control_change channel=0 control=67 value=74 time=0
control_change channel=0 control=64 value=85 time=15
control_change channel=0 control=64 value=86 time=15
control_change channel=0 control=64 value=88 time=16
note_on channel=0 note=83 velocity=0 time=14
control_change channel=0 control=64 value=91 time=1
control_change channel=0 control=64 value=92 time=15
note_on channel=0 note=59 velocity=55 time=27
control_change channel=0 control=67 value=74 time=3
note_on channel=0 note=52 velocity=45 time=13
note_on channel=0 note=55 velocity=45 time=3
control_change channel=0 control=64 value=93 time=15
note_on channel=0 note=59 velocity=0 time=2
note_on channel=0 note=55 velocity=0 time=11
control_change channel=0 control=64 value=93 time=3
note_on channel=0 note=52 velocity=0 time=1
control_change channel=0 control=64 value=94 time=13
note_on channel=0 note=55 velocity=43 time=83
note_on channel=0 note=59 velocity=48 time=3
note_on channel=0 note=52 velocity=20 time=10
note_on channel=0 note=59 velocity=0 time=15
note_on channel=0 note=55 velocity=0 time=5
note_on channel=0 note=52 velocity=0 time=28
note_on channel=0 note=95 velocity=0 time=9
note_on channel=0 note=55 velocity=57 time=53
note_on channel=0 note=59 velocity=46 time=3
control_change channel=0 control=64 value=93 time=21
note_on channel=0 note=52 velocity=44 time=6
control_change channel=0 control=64 value=92 time=8
control_change channel=0 control=64 value=88 time=15
control_change channel=0 control=64 value=84 time=16
control_change channel=0 control=64 value=83 time=15
control_change channel=0 control=64 value=84 time=29
note_on channel=0 note=55 velocity=0 time=7
note_on channel=0 note=59 velocity=0 time=4
control_change channel=0 control=64 value=85 time=3
control_change channel=0 control=67 value=73 time=0
note_on channel=0 note=60 velocity=60 time=7
control_change channel=0 control=64 value=86 time=8
note_on channel=0 note=52 velocity=0 time=12
control_change channel=0 control=64 value=88 time=3
control_change channel=0 control=67 value=73 time=0
note_on channel=0 note=60 velocity=0 time=13
control_change channel=0 control=64 value=90 time=2
control_change channel=0 control=64 value=92 time=16
control_change channel=0 control=67 value=72 time=0
control_change channel=0 control=64 value=93 time=15
control_change channel=0 control=67 value=72 time=0
control_change channel=0 control=64 value=94 time=15
control_change channel=0 control=67 value=69 time=0
control_change channel=0 control=67 value=66 time=15
note_on channel=0 note=88 velocity=0 time=1
note_on channel=0 note=91 velocity=87 time=18
control_change channel=0 control=64 value=94 time=4
control_change channel=0 control=67 value=65 time=0
note_on channel=0 note=79 velocity=61 time=3
note_on channel=0 note=59 velocity=50 time=8
note_on channel=0 note=55 velocity=50 time=1
control_change channel=0 control=64 value=96 time=4
control_change channel=0 control=67 value=64 time=0
note_on channel=0 note=52 velocity=44 time=6
control_change channel=0 control=64 value=98 time=9
control_change channel=0 control=67 value=63 time=0
note_on channel=0 note=79 velocity=0 time=3
control_change channel=0 control=64 value=100 time=12
control_change channel=0 control=67 value=62 time=0
note_on channel=0 note=59 velocity=0 time=2
note_on channel=0 note=55 velocity=0 time=1
note_on channel=0 note=52 velocity=0 time=4
control_change channel=0 control=64 value=100 time=8
control_change channel=0 control=67 value=60 time=0
control_change channel=0 control=67 value=58 time=15
control_change channel=0 control=64 value=102 time=16
control_change channel=0 control=67 value=57 time=0
control_change channel=0 control=64 value=104 time=14
control_change channel=0 control=67 value=55 time=0
control_change channel=0 control=67 value=54 time=15
note_on channel=0 note=90 velocity=93 time=7
note_on channel=0 note=78 velocity=83 time=6
control_change channel=0 control=67 value=53 time=3
note_on channel=0 note=55 velocity=56 time=13
note_on channel=0 note=52 velocity=47 time=1
control_change channel=0 control=64 value=99 time=1
control_change channel=0 control=67 value=52 time=0
note_on channel=0 note=59 velocity=55 time=0
control_change channel=0 control=64 value=91 time=15
control_change channel=0 control=67 value=49 time=0
note_on channel=0 note=91 velocity=0 time=4
control_change channel=0 control=64 value=87 time=11
control_change channel=0 control=67 value=46 time=0
control_change channel=0 control=67 value=44 time=15
control_change channel=0 control=64 value=90 time=16
control_change channel=0 control=67 value=41 time=0
control_change channel=0 control=64 value=95 time=15
control_change channel=0 control=67 value=40 time=0
note_on channel=0 note=55 velocity=0 time=1
note_on channel=0 note=59 velocity=0 time=2
control_change channel=0 control=64 value=103 time=12
control_change channel=0 control=67 value=39 time=0
note_on channel=0 note=52 velocity=0 time=2
note_on channel=0 note=60 velocity=78 time=8
control_change channel=0 control=64 value=119 time=5
control_change channel=0 control=67 value=38 time=0
control_change channel=0 control=64 value=127 time=15
control_change channel=0 control=67 value=38 time=0
note_on channel=0 note=78 velocity=0 time=3
note_on channel=0 note=90 velocity=0 time=6
control_change channel=0 control=67 value=37 time=22
control_change channel=0 control=67 value=37 time=15
note_on channel=0 note=60 velocity=0 time=6
control_change channel=0 control=67 value=36 time=10
control_change channel=0 control=67 value=35 time=15
note_on channel=0 note=59 velocity=60 time=0
note_on channel=0 note=55 velocity=59 time=2
control_change channel=0 control=67 value=34 time=13
note_on channel=0 note=88 velocity=93 time=0
note_on channel=0 note=76 velocity=87 time=7
control_change channel=0 control=67 value=33 time=8
note_on channel=0 note=52 velocity=45 time=7
control_change channel=0 control=67 value=32 time=8
note_on channel=0 note=55 velocity=0 time=2
note_on channel=0 note=59 velocity=0 time=0
control_change channel=0 control=67 value=31 time=14
note_on channel=0 note=76 velocity=0 time=2
note_on channel=0 note=88 velocity=0 time=4
control_change channel=0 control=67 value=30 time=9
note_on channel=0 note=52 velocity=0 time=0
control_change channel=0 control=67 value=29 time=14
control_change channel=0 control=67 value=28 time=16
control_change channel=0 control=64 value=104 time=15
control_change channel=0 control=67 value=27 time=0
control_change channel=0 control=64 value=83 time=16
control_change channel=0 control=67 value=27 time=0
note_on channel=0 note=88 velocity=91 time=4
control_change channel=0 control=64 value=65 time=12
control_change channel=0 control=67 value=26 time=0
note_on channel=0 note=76 velocity=65 time=5
note_on channel=0 note=84 velocity=61 time=3
control_change channel=0 control=64 value=0 time=7
control_change channel=0 control=67 value=25 time=0
note_on channel=0 note=81 velocity=41 time=9
control_change channel=0 control=64 value=32 time=6
control_change channel=0 control=67 value=24 time=0
control_change channel=0 control=64 value=53 time=15
control_change channel=0 control=67 value=23 time=0
control_change channel=0 control=64 value=59 time=15
control_change channel=0 control=67 value=21 time=0
control_change channel=0 control=64 value=63 time=16
control_change channel=0 control=67 value=17 time=0
control_change channel=0 control=64 value=65 time=15
control_change channel=0 control=67 value=15 time=0
control_change channel=0 control=64 value=68 time=14
control_change channel=0 control=67 value=12 time=0
note_on channel=0 note=60 velocity=67 time=11
note_on channel=0 note=57 velocity=55 time=3
control_change channel=0 control=64 value=70 time=2
control_change channel=0 control=67 value=8 time=0
note_on channel=0 note=52 velocity=54 time=1
note_on channel=0 note=81 velocity=0 time=3
note_on channel=0 note=81 velocity=3 time=0
control_change channel=0 control=64 value=73 time=12
control_change channel=0 control=67 value=0 time=0
note_on channel=0 note=60 velocity=0 time=6
note_on channel=0 note=57 velocity=0 time=9
control_change channel=0 control=64 value=75 time=1
note_on channel=0 note=52 velocity=0 time=1
control_change channel=0 control=64 value=78 time=14
control_change channel=0 control=64 value=80 time=14
control_change channel=0 control=64 value=81 time=16
control_change channel=0 control=64 value=82 time=15
note_on channel=0 note=76 velocity=0 time=1
control_change channel=0 control=64 value=83 time=15
note_on channel=0 note=60 velocity=60 time=0
note_on channel=0 note=52 velocity=58 time=3
note_on channel=0 note=57 velocity=58 time=3
note_on channel=0 note=60 velocity=0 time=19
note_on channel=0 note=52 velocity=0 time=15
note_on channel=0 note=57 velocity=0 time=3
control_change channel=0 control=64 value=82 time=40
note_on channel=0 note=88 velocity=0 time=3
control_change channel=0 control=64 value=80 time=12
control_change channel=0 control=64 value=75 time=15
control_change channel=0 control=64 value=66 time=16
note_on channel=0 note=52 velocity=35 time=10
note_on channel=0 note=57 velocity=44 time=0
control_change channel=0 control=64 value=14 time=4
control_change channel=0 control=67 value=8 time=0
note_on channel=0 note=60 velocity=46 time=7
control_change channel=0 control=64 value=0 time=9
control_change channel=0 control=67 value=10 time=0
note_on channel=0 note=87 velocity=69 time=0
note_on channel=0 note=75 velocity=44 time=3
note_on channel=0 note=81 velocity=0 time=9
control_change channel=0 control=67 value=12 time=3
control_change channel=0 control=67 value=14 time=15
control_change channel=0 control=64 value=29 time=16
control_change channel=0 control=67 value=16 time=0
control_change channel=0 control=64 value=51 time=14
control_change channel=0 control=67 value=19 time=0
note_on channel=0 note=60 velocity=0 time=6
control_change channel=0 control=64 value=59 time=9
control_change channel=0 control=67 value=23 time=0
note_on channel=0 note=57 velocity=0 time=8
note_on channel=0 note=52 velocity=0 time=6
control_change channel=0 control=64 value=63 time=2
control_change channel=0 control=67 value=31 time=0
note_on channel=0 note=84 velocity=0 time=2
control_change channel=0 control=64 value=65 time=13
control_change channel=0 control=67 value=37 time=0
note_on channel=0 note=62 velocity=55 time=15
control_change channel=0 control=64 value=68 time=1
control_change channel=0 control=67 value=44 time=0
note_on channel=0 note=75 velocity=0 time=9
control_change channel=0 control=64 value=71 time=5
control_change channel=0 control=67 value=48 time=0
note_on channel=0 note=62 velocity=0 time=11
control_change channel=0 control=64 value=73 time=4
control_change channel=0 control=67 value=52 time=0
note_on channel=0 note=87 velocity=0 time=7
control_change channel=0 control=64 value=75 time=9
control_change channel=0 control=67 value=55 time=0
control_change channel=0 control=64 value=77 time=14
control_change channel=0 control=67 value=57 time=0
control_change channel=0 control=64 value=80 time=15
control_change channel=0 control=67 value=58 time=0
control_change channel=0 control=64 value=82 time=16
control_change channel=0 control=67 value=59 time=15
note_on channel=0 note=60 velocity=57 time=9
note_on channel=0 note=57 velocity=50 time=4
control_change channel=0 control=67 value=59 time=3
note_on channel=0 note=52 velocity=37 time=2
control_change channel=0 control=67 value=60 time=12
note_on channel=0 note=60 velocity=0 time=8
note_on channel=0 note=57 velocity=0 time=2
note_on channel=0 note=52 velocity=0 time=16
control_change channel=0 control=64 value=81 time=5
control_change channel=0 control=64 value=77 time=15
control_change channel=0 control=64 value=69 time=15
control_change channel=0 control=64 value=0 time=15
note_on channel=0 note=60 velocity=49 time=19
note_on channel=0 note=57 velocity=46 time=6
control_change channel=0 control=67 value=60 time=21
note_on channel=0 note=52 velocity=31 time=5
control_change channel=0 control=64 value=48 time=10
control_change channel=0 control=67 value=59 time=0
control_change channel=0 control=64 value=60 time=16
control_change channel=0 control=67 value=59 time=0
control_change channel=0 control=64 value=64 time=15
control_change channel=0 control=67 value=58 time=0
note_on channel=0 note=57 velocity=0 time=3
note_on channel=0 note=60 velocity=0 time=6
control_change channel=0 control=64 value=68 time=7
control_change channel=0 control=67 value=58 time=0
note_on channel=0 note=52 velocity=0 time=14
control_change channel=0 control=64 value=71 time=1
control_change channel=0 control=67 value=57 time=0
control_change channel=0 control=64 value=74 time=15
control_change channel=0 control=67 value=57 time=0
note_on channel=0 note=62 velocity=52 time=14
control_change channel=0 control=64 value=77 time=1
control_change channel=0 control=64 value=79 time=15
control_change channel=0 control=67 value=56 time=0
control_change channel=0 control=64 value=82 time=15
control_change channel=0 control=67 value=56 time=0
control_change channel=0 control=64 value=86 time=16
control_change channel=0 control=67 value=55 time=0
control_change channel=0 control=64 value=89 time=15
note_on channel=0 note=62 velocity=0 time=0
control_change channel=0 control=64 value=93 time=16
control_change channel=0 control=64 value=95 time=15
control_change channel=0 control=64 value=97 time=15
control_change channel=0 control=67 value=55 time=0
control_change channel=0 control=64 value=100 time=16
control_change channel=0 control=67 value=54 time=0
note_on channel=0 note=52 velocity=55 time=7
note_on channel=0 note=84 velocity=81 time=0
control_change channel=0 control=64 value=104 time=7
note_on channel=0 note=72 velocity=61 time=9
control_change channel=0 control=64 value=107 time=6
control_change channel=0 control=67 value=54 time=8
note_on channel=0 note=52 velocity=0 time=3
control_change channel=0 control=64 value=110 time=12
control_change channel=0 control=64 value=110 time=15
control_change channel=0 control=67 value=54 time=61
note_on channel=0 note=72 velocity=0 time=14
note_on channel=0 note=84 velocity=0 time=6
control_change channel=0 control=64 value=109 time=11
control_change channel=0 control=67 value=55 time=0
control_change channel=0 control=64 value=101 time=15
control_change channel=0 control=64 value=87 time=14
control_change channel=0 control=64 value=70 time=16
note_on channel=0 note=40 velocity=44 time=6
note_on channel=0 note=84 velocity=66 time=0
control_change channel=0 control=64 value=0 time=9
control_change channel=0 control=67 value=54 time=0
note_on channel=0 note=79 velocity=47 time=13
control_change channel=0 control=64 value=38 time=3
note_on channel=0 note=72 velocity=40 time=3
control_change channel=0 control=64 value=60 time=12
control_change channel=0 control=67 value=54 time=0
control_change channel=0 control=64 value=64 time=15
control_change channel=0 control=67 value=53 time=0
control_change channel=0 control=64 value=67 time=16
control_change channel=0 control=64 value=70 time=14
control_change channel=0 control=67 value=53 time=0
control_change channel=0 control=64 value=74 time=16
note_on channel=0 note=40 velocity=0 time=12
control_change channel=0 control=64 value=77 time=3
control_change channel=0 control=67 value=52 time=0
control_change channel=0 control=64 value=79 time=15
control_change channel=0 control=64 value=81 time=16
control_change channel=0 control=67 value=52 time=0
control_change channel=0 control=64 value=84 time=14
control_change channel=0 control=64 value=86 time=15
control_change channel=0 control=67 value=51 time=0
control_change channel=0 control=64 value=88 time=16
control_change channel=0 control=64 value=90 time=14
control_change channel=0 control=64 value=92 time=16
control_change channel=0 control=67 value=51 time=0
control_change channel=0 control=64 value=94 time=15
control_change channel=0 control=64 value=96 time=15
control_change channel=0 control=67 value=50 time=0
control_change channel=0 control=64 value=98 time=16
control_change channel=0 control=64 value=100 time=14
note_on channel=0 note=55 velocity=49 time=6
control_change channel=0 control=64 value=103 time=9
control_change channel=0 control=67 value=50 time=0
note_on channel=0 note=52 velocity=30 time=2
note_on channel=0 note=72 velocity=0 time=7
control_change channel=0 control=64 value=104 time=7
note_on channel=0 note=55 velocity=0 time=5
control_change channel=0 control=64 value=106 time=10
note_on channel=0 note=52 velocity=0 time=11
control_change channel=0 control=64 value=108 time=5
control_change channel=0 control=64 value=109 time=14
control_change channel=0 control=64 value=111 time=15
control_change channel=0 control=67 value=49 time=0
control_change channel=0 control=64 value=113 time=16
control_change channel=0 control=64 value=114 time=15
control_change channel=0 control=67 value=49 time=0
note_on channel=0 note=55 velocity=50 time=19
note_on channel=0 note=52 velocity=34 time=20
control_change channel=0 control=64 value=114 time=7
control_change channel=0 control=67 value=48 time=0
note_on channel=0 note=84 velocity=0 time=0
note_on channel=0 note=55 velocity=0 time=8
note_on channel=0 note=52 velocity=0 time=23
control_change channel=0 control=67 value=48 time=61
note_on channel=0 note=55 velocity=58 time=6
control_change channel=0 control=67 value=47 time=9
control_change channel=0 control=67 value=47 time=15
note_on channel=0 note=52 velocity=44 time=11
control_change channel=0 control=67 value=46 time=12
note_on channel=0 note=55 velocity=0 time=0
control_change channel=0 control=67 value=45 time=15
note_on channel=0 note=79 velocity=0 time=8
control_change channel=0 control=67 value=44 time=8
note_on channel=0 note=52 velocity=0 time=2
control_change channel=0 control=67 value=42 time=13
control_change channel=0 control=67 value=41 time=14
note_on channel=0 note=57 velocity=65 time=6
control_change channel=0 control=67 value=39 time=10
control_change channel=0 control=67 value=38 time=15
note_on channel=0 note=57 velocity=0 time=3
control_change channel=0 control=67 value=36 time=13
control_change channel=0 control=67 value=34 time=15
control_change channel=0 control=64 value=115 time=14
control_change channel=0 control=67 value=32 time=0
control_change channel=0 control=64 value=114 time=16
control_change channel=0 control=67 value=30 time=0
control_change channel=0 control=67 value=29 time=15
note_on channel=0 note=79 velocity=79 time=6
control_change channel=0 control=64 value=110 time=9
control_change channel=0 control=67 value=28 time=0
note_on channel=0 note=67 velocity=63 time=0
note_on channel=0 note=52 velocity=42 time=11
control_change channel=0 control=64 value=98 time=5
control_change channel=0 control=67 value=27 time=0
note_on channel=0 note=55 velocity=55 time=2
control_change channel=0 control=64 value=92 time=12
control_change channel=0 control=67 value=25 time=0
note_on channel=0 note=67 velocity=0 time=5
control_change channel=0 control=64 value=91 time=11
control_change channel=0 control=67 value=23 time=0
note_on channel=0 note=52 velocity=0 time=7
control_change channel=0 control=67 value=22 time=8
note_on channel=0 note=55 velocity=0 time=0
note_on channel=0 note=79 velocity=0 time=8
control_change channel=0 control=64 value=92 time=7
control_change channel=0 control=67 value=21 time=0
control_change channel=0 control=64 value=94 time=16
control_change channel=0 control=67 value=19 time=0
control_change channel=0 control=64 value=97 time=15
control_change channel=0 control=67 value=18 time=0
control_change channel=0 control=64 value=99 time=15
control_change channel=0 control=67 value=16 time=0
note_on channel=0 note=77 velocity=85 time=0
note_on channel=0 note=65 velocity=71 time=4
control_change channel=0 control=64 value=100 time=12
control_change channel=0 control=67 value=15 time=0
note_on channel=0 note=55 velocity=51 time=8
control_change channel=0 control=64 value=102 time=6
control_change channel=0 control=67 value=13 time=0
note_on channel=0 note=52 velocity=44 time=5
control_change channel=0 control=64 value=104 time=11
control_change channel=0 control=67 value=11 time=0
control_change channel=0 control=64 value=107 time=15
control_change channel=0 control=67 value=0 time=0
control_change channel=0 control=64 value=108 time=14
note_on channel=0 note=55 velocity=0 time=5
control_change channel=0 control=64 value=109 time=11
note_on channel=0 note=52 velocity=0 time=7
control_change channel=0 control=64 value=110 time=24
note_on channel=0 note=57 velocity=65 time=3
note_on channel=0 note=65 velocity=0 time=0
control_change channel=0 control=64 value=113 time=12
note_on channel=0 note=77 velocity=0 time=2
control_change channel=0 control=64 value=117 time=13
control_change channel=0 control=64 value=119 time=15
control_change channel=0 control=64 value=120 time=15
control_change channel=0 control=64 value=121 time=15
note_on channel=0 note=57 velocity=0 time=13
control_change channel=0 control=64 value=123 time=3
note_on channel=0 note=55 velocity=57 time=5
note_on channel=0 note=52 velocity=47 time=5
control_change channel=0 control=64 value=126 time=5
note_on channel=0 note=76 velocity=89 time=4
note_on channel=0 note=64 velocity=82 time=1
control_change channel=0 control=64 value=127 time=10
note_on channel=0 note=55 velocity=0 time=7
note_on channel=0 note=52 velocity=0 time=10
note_on channel=0 note=64 velocity=0 time=25
note_on channel=0 note=76 velocity=0 time=10
control_change channel=0 control=64 value=104 time=23
control_change channel=0 control=64 value=83 time=16
control_change channel=0 control=64 value=61 time=15
control_change channel=0 control=64 value=0 time=16
note_on channel=0 note=76 velocity=81 time=0
note_on channel=0 note=53 velocity=65 time=1
note_on channel=0 note=41 velocity=49 time=6
note_on channel=0 note=64 velocity=66 time=1
note_on channel=0 note=69 velocity=60 time=3
note_on channel=0 note=72 velocity=64 time=1
control_change channel=0 control=64 value=47 time=2
control_change channel=0 control=64 value=63 time=15
note_on channel=0 note=53 velocity=0 time=3
note_on channel=0 note=41 velocity=0 time=7
control_change channel=0 control=64 value=66 time=6
control_change channel=0 control=64 value=70 time=15
control_change channel=0 control=64 value=74 time=15
control_change channel=0 control=64 value=78 time=23
control_change channel=0 control=64 value=81 time=15
note_on channel=0 note=53 velocity=58 time=13
control_change channel=0 control=64 value=82 time=3
note_on channel=0 note=57 velocity=54 time=12
control_change channel=0 control=64 value=83 time=3
control_change channel=0 control=64 value=83 time=15
control_change channel=0 control=64 value=85 time=15
note_on channel=0 note=57 velocity=0 time=0
note_on channel=0 note=53 velocity=0 time=2
control_change channel=0 control=64 value=86 time=13
control_change channel=0 control=64 value=87 time=16
control_change channel=0 control=64 value=87 time=29
control_change channel=0 control=64 value=88 time=16
note_on channel=0 note=57 velocity=60 time=13
control_change channel=0 control=64 value=89 time=2
note_on channel=0 note=53 velocity=58 time=6
control_change channel=0 control=64 value=89 time=10
note_on channel=0 note=57 velocity=0 time=13
control_change channel=0 control=64 value=89 time=2
note_on channel=0 note=53 velocity=0 time=7
control_change channel=0 control=64 value=84 time=8
control_change channel=0 control=64 value=75 time=15
control_change channel=0 control=64 value=62 time=15
control_change channel=0 control=64 value=55 time=16
note_on channel=0 note=64 velocity=0 time=8
control_change channel=0 control=64 value=64 time=7
note_on channel=0 note=53 velocity=60 time=0
note_on channel=0 note=57 velocity=62 time=6
control_change channel=0 control=64 value=67 time=9
control_change channel=0 control=64 value=71 time=16
control_change channel=0 control=64 value=74 time=15
control_change channel=0 control=64 value=78 time=14
control_change channel=0 control=64 value=83 time=16
control_change channel=0 control=64 value=86 time=15
control_change channel=0 control=64 value=87 time=16
note_on channel=0 note=57 velocity=0 time=3
note_on channel=0 note=76 velocity=0 time=0
control_change channel=0 control=64 value=88 time=12
note_on channel=0 note=53 velocity=0 time=0
note_on channel=0 note=58 velocity=60 time=4
control_change channel=0 control=64 value=89 time=10
note_on channel=0 note=72 velocity=0 time=14
control_change channel=0 control=64 value=92 time=2
note_on channel=0 note=58 velocity=0 time=4
note_on channel=0 note=69 velocity=0 time=3
control_change channel=0 control=64 value=94 time=8
control_change channel=0 control=64 value=96 time=14
control_change channel=0 control=64 value=96 time=16
control_change channel=0 control=64 value=98 time=31
note_on channel=0 note=74 velocity=78 time=11
control_change channel=0 control=64 value=101 time=4
note_on channel=0 note=62 velocity=60 time=0
note_on channel=0 note=57 velocity=58 time=11
note_on channel=0 note=53 velocity=59 time=3
control_change channel=0 control=64 value=104 time=1
control_change channel=0 control=64 value=106 time=15
note_on channel=0 note=62 velocity=0 time=1
note_on channel=0 note=57 velocity=0 time=10
note_on channel=0 note=53 velocity=0 time=7
note_on channel=0 note=69 velocity=24 time=0
note_on channel=0 note=74 velocity=0 time=5
control_change channel=0 control=64 value=106 time=7
control_change channel=0 control=64 value=107 time=16
control_change channel=0 control=64 value=107 time=14
note_on channel=0 note=73 velocity=84 time=14
note_on channel=0 note=69 velocity=0 time=1
control_change channel=0 control=64 value=104 time=1
note_on channel=0 note=61 velocity=78 time=12
control_change channel=0 control=64 value=92 time=3
note_on channel=0 note=57 velocity=64 time=0
note_on channel=0 note=53 velocity=59 time=6
control_change channel=0 control=64 value=77 time=9
control_change channel=0 control=64 value=69 time=15
control_change channel=0 control=64 value=74 time=16
control_change channel=0 control=64 value=81 time=15
note_on channel=0 note=53 velocity=0 time=11
control_change channel=0 control=64 value=88 time=4
note_on channel=0 note=57 velocity=0 time=12
control_change channel=0 control=64 value=97 time=3
note_on channel=0 note=58 velocity=77 time=5
control_change channel=0 control=64 value=106 time=11
note_on channel=0 note=61 velocity=0 time=3
control_change channel=0 control=64 value=118 time=19
note_on channel=0 note=73 velocity=0 time=2
control_change channel=0 control=64 value=127 time=14
note_on channel=0 note=58 velocity=0 time=19
note_on channel=0 note=53 velocity=59 time=45
note_on channel=0 note=57 velocity=50 time=5
note_on channel=0 note=74 velocity=95 time=0
note_on channel=0 note=62 velocity=87 time=2
note_on channel=0 note=72 velocity=65 time=16
note_on channel=0 note=57 velocity=0 time=1
note_on channel=0 note=53 velocity=0 time=7
note_on channel=0 note=62 velocity=0 time=14
note_on channel=0 note=72 velocity=0 time=6
note_on channel=0 note=74 velocity=0 time=13
control_change channel=0 control=64 value=97 time=54
note_on channel=0 note=55 velocity=79 time=13
control_change channel=0 control=64 value=65 time=3
note_on channel=0 note=77 velocity=89 time=3
note_on channel=0 note=65 velocity=77 time=2
note_on channel=0 note=43 velocity=54 time=3
note_on channel=0 note=72 velocity=68 time=5
control_change channel=0 control=64 value=0 time=2
note_on channel=0 note=70 velocity=37 time=12
note_on channel=0 note=55 velocity=0 time=2
note_on channel=0 note=43 velocity=0 time=11
control_change channel=0 control=64 value=56 time=5
control_change channel=0 control=64 value=64 time=15
control_change channel=0 control=64 value=69 time=15
control_change channel=0 control=64 value=74 time=16
control_change channel=0 control=64 value=80 time=15
control_change channel=0 control=64 value=84 time=15
note_on channel=0 note=58 velocity=61 time=10
note_on channel=0 note=60 velocity=50 time=4
control_change channel=0 control=64 value=87 time=1
control_change channel=0 control=64 value=89 time=15
note_on channel=0 note=55 velocity=26 time=3
note_on channel=0 note=60 velocity=0 time=5
note_on channel=0 note=58 velocity=0 time=4
control_change channel=0 control=64 value=92 time=4
control_change channel=0 control=64 value=94 time=15
note_on channel=0 note=55 velocity=0 time=6
control_change channel=0 control=64 value=98 time=8
control_change channel=0 control=64 value=102 time=16
control_change channel=0 control=64 value=107 time=15
control_change channel=0 control=64 value=111 time=16
note_on channel=0 note=60 velocity=51 time=1
note_on channel=0 note=58 velocity=51 time=3
note_on channel=0 note=55 velocity=54 time=8
control_change channel=0 control=64 value=113 time=3
note_on channel=0 note=60 velocity=0 time=8
note_on channel=0 note=58 velocity=0 time=3
control_change channel=0 control=64 value=115 time=3
note_on channel=0 note=55 velocity=0 time=3
control_change channel=0 control=64 value=127 time=13
note_on channel=0 note=55 velocity=61 time=57
note_on channel=0 note=60 velocity=61 time=0
note_on channel=0 note=58 velocity=63 time=6
note_on channel=0 note=77 velocity=0 time=68
note_on channel=0 note=65 velocity=0 time=31
note_on channel=0 note=60 velocity=0 time=12
note_on channel=0 note=62 velocity=75 time=6
note_on channel=0 note=58 velocity=0 time=2
note_on channel=0 note=55 velocity=0 time=4
note_on channel=0 note=72 velocity=0 time=10
note_on channel=0 note=62 velocity=0 time=20
note_on channel=0 note=70 velocity=0 time=34
note_on channel=0 note=60 velocity=59 time=43
note_on channel=0 note=55 velocity=60 time=2
note_on channel=0 note=76 velocity=83 time=6
note_on channel=0 note=64 velocity=83 time=1
note_on channel=0 note=58 velocity=56 time=5
note_on channel=0 note=72 velocity=77 time=0
note_on channel=0 note=70 velocity=45 time=7
note_on channel=0 note=60 velocity=0 time=9
note_on channel=0 note=64 velocity=0 time=9
note_on channel=0 note=55 velocity=0 time=2
note_on channel=0 note=58 velocity=0 time=0
note_on channel=0 note=76 velocity=0 time=10
note_on channel=0 note=70 velocity=0 time=19
note_on channel=0 note=72 velocity=0 time=29
note_on channel=0 note=72 velocity=44 time=15
note_on channel=0 note=75 velocity=87 time=1
note_on channel=0 note=63 velocity=87 time=3
note_on channel=0 note=58 velocity=65 time=4
note_on channel=0 note=60 velocity=66 time=0
note_on channel=0 note=55 velocity=65 time=2
control_change channel=0 control=64 value=117 time=18
control_change channel=0 control=64 value=118 time=15
control_change channel=0 control=64 value=127 time=15
note_on channel=0 note=58 velocity=0 time=29
note_on channel=0 note=60 velocity=0 time=0
note_on channel=0 note=55 velocity=0 time=6
note_on channel=0 note=62 velocity=80 time=13
note_on channel=0 note=63 velocity=0 time=24
note_on channel=0 note=75 velocity=0 time=22
note_on channel=0 note=72 velocity=0 time=26
note_on channel=0 note=60 velocity=62 time=24
note_on channel=0 note=62 velocity=0 time=0
note_on channel=0 note=58 velocity=63 time=2
note_on channel=0 note=55 velocity=63 time=20
note_on channel=0 note=60 velocity=0 time=2
note_on channel=0 note=64 velocity=90 time=2
note_on channel=0 note=76 velocity=98 time=0
note_on channel=0 note=58 velocity=0 time=1
note_on channel=0 note=55 velocity=0 time=23
note_on channel=0 note=64 velocity=0 time=16
note_on channel=0 note=76 velocity=0 time=20
control_change channel=0 control=64 value=106 time=43
control_change channel=0 control=64 value=74 time=16
note_on channel=0 note=73 velocity=66 time=12
control_change channel=0 control=64 value=0 time=3
note_on channel=0 note=57 velocity=65 time=0
note_on channel=0 note=79 velocity=96 time=0
note_on channel=0 note=45 velocity=53 time=2
note_on channel=0 note=67 velocity=77 time=2
note_on channel=0 note=45 velocity=0 time=25
control_change channel=0 control=64 value=59 time=1
note_on channel=0 note=57 velocity=0 time=4
control_change channel=0 control=64 value=65 time=11
note_on channel=0 note=73 velocity=0 time=5
control_change channel=0 control=64 value=70 time=10
control_change channel=0 control=64 value=74 time=16
note_on channel=0 note=72 velocity=51 time=12
control_change channel=0 control=64 value=78 time=3
control_change channel=0 control=64 value=81 time=15
control_change channel=0 control=64 value=84 time=15
note_on channel=0 note=60 velocity=75 time=5
control_change channel=0 control=64 value=87 time=9
note_on channel=0 note=57 velocity=59 time=2
control_change channel=0 control=64 value=89 time=14
note_on channel=0 note=60 velocity=0 time=1
note_on channel=0 note=57 velocity=0 time=17
control_change channel=0 control=64 value=91 time=27
control_change channel=0 control=64 value=95 time=15
control_change channel=0 control=64 value=99 time=16
note_on channel=0 note=57 velocity=71 time=12
note_on channel=0 note=60 velocity=74 time=2
control_change channel=0 control=64 value=100 time=1
note_on channel=0 note=67 velocity=0 time=9
control_change channel=0 control=64 value=101 time=15
note_on channel=0 note=60 velocity=0 time=5
note_on channel=0 note=57 velocity=0 time=4
control_change channel=0 control=64 value=100 time=21
control_change channel=0 control=64 value=98 time=16
control_change channel=0 control=64 value=91 time=15
control_change channel=0 control=64 value=79 time=16
control_change channel=0 control=64 value=68 time=15
note_on channel=0 note=60 velocity=66 time=8
note_on channel=0 note=57 velocity=70 time=1
control_change channel=0 control=64 value=67 time=6
control_change channel=0 control=64 value=72 time=16
control_change channel=0 control=64 value=77 time=15
control_change channel=0 control=64 value=84 time=14
control_change channel=0 control=64 value=90 time=16
note_on channel=0 note=79 velocity=0 time=12
control_change channel=0 control=64 value=95 time=3
control_change channel=0 control=64 value=98 time=16
note_on channel=0 note=60 velocity=0 time=3
note_on channel=0 note=57 velocity=0 time=2
control_change channel=0 control=64 value=99 time=9
note_on channel=0 note=62 velocity=69 time=1
control_change channel=0 control=64 value=100 time=14
note_on channel=0 note=62 velocity=0 time=14
control_change channel=0 control=64 value=100 time=17
control_change channel=0 control=64 value=101 time=30
note_on channel=0 note=77 velocity=91 time=44
note_on channel=0 note=57 velocity=57 time=5
note_on channel=0 note=60 velocity=60 time=0
note_on channel=0 note=65 velocity=77 time=4
note_on channel=0 note=72 velocity=0 time=6
control_change channel=0 control=64 value=101 time=2
note_on channel=0 note=60 velocity=0 time=20
note_on channel=0 note=57 velocity=0 time=1
note_on channel=0 note=65 velocity=0 time=11
note_on channel=0 note=77 velocity=0 time=40
control_change channel=0 control=64 value=101 time=34
control_change channel=0 control=64 value=95 time=15
note_on channel=0 note=76 velocity=89 time=6
note_on channel=0 note=57 velocity=60 time=2
note_on channel=0 note=60 velocity=56 time=4
note_on channel=0 note=64 velocity=76 time=0
control_change channel=0 control=64 value=83 time=3
control_change channel=0 control=64 value=67 time=15
control_change channel=0 control=64 value=31 time=16
control_change channel=0 control=64 value=59 time=15
control_change channel=0 control=64 value=65 time=15
control_change channel=0 control=64 value=68 time=16
control_change channel=0 control=64 value=71 time=15
note_on channel=0 note=57 velocity=0 time=10
control_change channel=0 control=64 value=74 time=5
note_on channel=0 note=60 velocity=0 time=0
control_change channel=0 control=64 value=79 time=15
note_on channel=0 note=62 velocity=65 time=14
control_change channel=0 control=64 value=85 time=1
control_change channel=0 control=64 value=89 time=16
control_change channel=0 control=64 value=92 time=15
note_on channel=0 note=64 velocity=0 time=3
control_change channel=0 control=64 value=94 time=12
control_change channel=0 control=64 value=97 time=15
control_change channel=0 control=64 value=101 time=15
note_on channel=0 note=62 velocity=0 time=13
control_change channel=0 control=64 value=105 time=2
control_change channel=0 control=64 value=110 time=16
note_on channel=0 note=76 velocity=0 time=2
control_change channel=0 control=64 value=115 time=13
control_change channel=0 control=64 value=118 time=23
note_on channel=0 note=60 velocity=54 time=9
control_change channel=0 control=64 value=119 time=6
note_on channel=0 note=77 velocity=84 time=1
note_on channel=0 note=65 velocity=78 time=2
control_change channel=0 control=64 value=120 time=12
note_on channel=0 note=57 velocity=47 time=4
control_change channel=0 control=64 value=127 time=11
note_on channel=0 note=60 velocity=0 time=0
note_on channel=0 note=57 velocity=0 time=18
note_on channel=0 note=65 velocity=0 time=93
note_on channel=0 note=77 velocity=0 time=41
control_change channel=0 control=64 value=98 time=62
control_change channel=0 control=64 value=73 time=16
note_on channel=0 note=57 velocity=42 time=9
control_change channel=0 control=64 value=0 time=5
note_on channel=0 note=79 velocity=77 time=3
note_on channel=0 note=45 velocity=49 time=4
note_on channel=0 note=67 velocity=58 time=6
note_on channel=0 note=73 velocity=55 time=3
control_change channel=0 control=64 value=61 time=60
note_on channel=0 note=45 velocity=0 time=13
control_change channel=0 control=64 value=68 time=2
control_change channel=0 control=64 value=73 time=16
control_change channel=0 control=64 value=78 time=15
control_change channel=0 control=64 value=81 time=15
control_change channel=0 control=64 value=85 time=15
note_on channel=0 note=57 velocity=0 time=0
control_change channel=0 control=64 value=87 time=15
control_change channel=0 control=64 value=89 time=16
control_change channel=0 control=64 value=91 time=14
control_change channel=0 control=64 value=92 time=15
control_change channel=0 control=64 value=94 time=16
control_change channel=0 control=64 value=95 time=15
control_change channel=0 control=64 value=96 time=16
note_on channel=0 note=57 velocity=44 time=29
note_on channel=0 note=61 velocity=52 time=14
control_change channel=0 control=64 value=97 time=2
control_change channel=0 control=64 value=98 time=15
note_on channel=0 note=61 velocity=0 time=9
note_on channel=0 note=57 velocity=0 time=3
control_change channel=0 control=64 value=99 time=3
note_on channel=0 note=67 velocity=0 time=64
control_change channel=0 control=64 value=99 time=12
note_on channel=0 note=57 velocity=42 time=36
note_on channel=0 note=61 velocity=41 time=13
note_on channel=0 note=57 velocity=0 time=24
control_change channel=0 control=64 value=99 time=10
note_on channel=0 note=61 velocity=0 time=1
control_change channel=0 control=64 value=98 time=45
note_on channel=0 note=57 velocity=51 time=34
note_on channel=0 note=61 velocity=53 time=6
note_on channel=0 note=79 velocity=0 time=43
note_on channel=0 note=61 velocity=0 time=22
control_change channel=0 control=64 value=99 time=33
note_on channel=0 note=57 velocity=0 time=12
control_change channel=0 control=64 value=99 time=18
note_on channel=0 note=62 velocity=48 time=2
control_change channel=0 control=64 value=100 time=13
note_on channel=0 note=62 velocity=0 time=15
control_change channel=0 control=64 value=101 time=16
control_change channel=0 control=64 value=102 time=15
control_change channel=0 control=64 value=102 time=31
note_on channel=0 note=57 velocity=52 time=7
control_change channel=0 control=64 value=99 time=8
note_on channel=0 note=61 velocity=60 time=3
note_on channel=0 note=77 velocity=80 time=4
note_on channel=0 note=65 velocity=67 time=5
control_change channel=0 control=64 value=95 time=4
note_on channel=0 note=73 velocity=0 time=11
control_change channel=0 control=64 value=94 time=3
note_on channel=0 note=57 velocity=0 time=1
note_on channel=0 note=61 velocity=0 time=5
note_on channel=0 note=65 velocity=0 time=5
note_on channel=0 note=77 velocity=0 time=29
control_change channel=0 control=64 value=94 time=6
control_change channel=0 control=64 value=97 time=16
control_change channel=0 control=64 value=100 time=14
control_change channel=0 control=64 value=104 time=15
note_on channel=0 note=76 velocity=79 time=7
note_on channel=0 note=64 velocity=73 time=2
note_on channel=0 note=61 velocity=65 time=3
control_change channel=0 control=64 value=108 time=4
control_change channel=0 control=64 value=112 time=14
note_on channel=0 note=57 velocity=49 time=0
control_change channel=0 control=64 value=117 time=16
control_change channel=0 control=64 value=124 time=15
note_on channel=0 note=57 velocity=0 time=7
note_on channel=0 note=61 velocity=0 time=5
control_change channel=0 control=64 value=127 time=3
note_on channel=0 note=64 velocity=0 time=36
note_on channel=0 note=62 velocity=66 time=1
note_on channel=0 note=76 velocity=0 time=38
note_on channel=0 note=61 velocity=66 time=48
note_on channel=0 note=62 velocity=0 time=0
note_on channel=0 note=57 velocity=50 time=10
note_on channel=0 note=61 velocity=0 time=19
note_on channel=0 note=65 velocity=79 time=3
note_on channel=0 note=77 velocity=85 time=3
note_on channel=0 note=57 velocity=0 time=2
note_on channel=0 note=65 velocity=0 time=29
note_on channel=0 note=77 velocity=0 time=21
control_change channel=0 control=64 value=99 time=1
control_change channel=0 control=64 value=77 time=23
control_change channel=0 control=64 value=62 time=15
control_change channel=0 control=64 value=63 time=16
note_on channel=0 note=57 velocity=59 time=1
note_on channel=0 note=45 velocity=50 time=12
control_change channel=0 control=64 value=68 time=2
note_on channel=0 note=79 velocity=83 time=7
note_on channel=0 note=67 velocity=66 time=6
control_change channel=0 control=64 value=74 time=3
note_on channel=0 note=57 velocity=0 time=6
note_on channel=0 note=45 velocity=0 time=5
note_on channel=0 note=73 velocity=54 time=2
control_change channel=0 control=64 value=80 time=1
control_change channel=0 control=64 value=85 time=15
control_change channel=0 control=64 value=90 time=16
control_change channel=0 control=64 value=93 time=15
control_change channel=0 control=64 value=95 time=14
control_change channel=0 control=64 value=98 time=16
note_on channel=0 note=57 velocity=61 time=14
control_change channel=0 control=64 value=101 time=1
note_on channel=0 note=61 velocity=69 time=4
note_on channel=0 note=67 velocity=0 time=7
note_on channel=0 note=79 velocity=0 time=3
control_change channel=0 control=64 value=105 time=3
control_change channel=0 control=64 value=110 time=15
note_on channel=0 note=61 velocity=0 time=1
note_on channel=0 note=73 velocity=0 time=1
note_on channel=0 note=57 velocity=0 time=8
control_change channel=0 control=64 value=116 time=5
control_change channel=0 control=64 value=127 time=15
note_on channel=0 note=61 velocity=71 time=52
note_on channel=0 note=57 velocity=75 time=7
note_on channel=0 note=77 velocity=89 time=6
note_on channel=0 note=65 velocity=82 time=2
note_on channel=0 note=61 velocity=0 time=14
note_on channel=0 note=73 velocity=70 time=0
note_on channel=0 note=57 velocity=0 time=5
note_on channel=0 note=65 velocity=0 time=12
note_on channel=0 note=73 velocity=0 time=10
note_on channel=0 note=77 velocity=0 time=14
control_change channel=0 control=64 value=93 time=45
note_on channel=0 note=61 velocity=83 time=12
note_on channel=0 note=64 velocity=91 time=0
note_on channel=0 note=76 velocity=92 time=0
note_on channel=0 note=57 velocity=73 time=1
control_change channel=0 control=64 value=78 time=2
note_on channel=0 note=73 velocity=77 time=2
control_change channel=0 control=64 value=75 time=14
control_change channel=0 control=64 value=79 time=14
control_change channel=0 control=64 value=86 time=15
control_change channel=0 control=64 value=94 time=16
control_change channel=0 control=64 value=102 time=15
control_change channel=0 control=64 value=111 time=16
control_change channel=0 control=64 value=126 time=15
note_on channel=0 note=62 velocity=96 time=7
note_on channel=0 note=64 velocity=0 time=5
control_change channel=0 control=64 value=127 time=3
note_on channel=0 note=61 velocity=0 time=9
note_on channel=0 note=73 velocity=0 time=19
note_on channel=0 note=57 velocity=0 time=1
note_on channel=0 note=76 velocity=0 time=13
note_on channel=0 note=62 velocity=0 time=3
note_on channel=0 note=61 velocity=83 time=68
note_on channel=0 note=65 velocity=91 time=0
note_on channel=0 note=77 velocity=96 time=2
note_on channel=0 note=57 velocity=70 time=4
note_on channel=0 note=73 velocity=81 time=11
note_on channel=0 note=57 velocity=0 time=16
note_on channel=0 note=61 velocity=0 time=1
note_on channel=0 note=65 velocity=0 time=2
note_on channel=0 note=73 velocity=0 time=2
control_change channel=0 control=64 value=95 time=17
note_on channel=0 note=77 velocity=0 time=0
control_change channel=0 control=64 value=83 time=14
control_change channel=0 control=64 value=83 time=15
control_change channel=0 control=64 value=88 time=16
note_on channel=0 note=76 velocity=94 time=13
control_change channel=0 control=64 value=97 time=2
note_on channel=0 note=64 velocity=96 time=1
note_on channel=0 note=57 velocity=84 time=10
note_on channel=0 note=73 velocity=88 time=2
note_on channel=0 note=61 velocity=85 time=4
control_change channel=0 control=64 value=107 time=6
control_change channel=0 control=64 value=127 time=15
note_on channel=0 note=61 velocity=0 time=65
note_on channel=0 note=57 velocity=0 time=11
note_on channel=0 note=62 velocity=95 time=13
note_on channel=0 note=64 velocity=0 time=2
note_on channel=0 note=73 velocity=0 time=27
note_on channel=0 note=76 velocity=0 time=13
note_on channel=0 note=61 velocity=81 time=78
note_on channel=0 note=62 velocity=0 time=2
note_on channel=0 note=65 velocity=90 time=3
note_on channel=0 note=57 velocity=74 time=4
note_on channel=0 note=77 velocity=99 time=1
note_on channel=0 note=61 velocity=0 time=11
note_on channel=0 note=73 velocity=80 time=0
note_on channel=0 note=65 velocity=0 time=6
note_on channel=0 note=57 velocity=0 time=11
note_on channel=0 note=73 velocity=0 time=6
note_on channel=0 note=77 velocity=0 time=12
note_on channel=0 note=91 velocity=93 time=106
note_on channel=0 note=77 velocity=75 time=8
note_on channel=0 note=79 velocity=76 time=3
note_on channel=0 note=89 velocity=65 time=10
control_change channel=0 control=64 value=120 time=18
note_on channel=0 note=89 velocity=0 time=2
note_on channel=0 note=84 velocity=26 time=3
control_change channel=0 control=64 value=82 time=11
control_change channel=0 control=64 value=63 time=15
control_change channel=0 control=64 value=63 time=15
note_on channel=0 note=84 velocity=0 time=0
control_change channel=0 control=64 value=69 time=16
control_change channel=0 control=64 value=74 time=14
note_on channel=0 note=49 velocity=84 time=2
note_on channel=0 note=45 velocity=69 time=7
control_change channel=0 control=64 value=79 time=7
control_change channel=0 control=64 value=86 time=15
note_on channel=0 note=77 velocity=0 time=0
note_on channel=0 note=79 velocity=0 time=9
control_change channel=0 control=64 value=92 time=6
note_on channel=0 note=91 velocity=0 time=1
note_on channel=0 note=45 velocity=0 time=3
note_on channel=0 note=49 velocity=0 time=2
control_change channel=0 control=64 value=97 time=10
control_change channel=0 control=64 value=99 time=15
control_change channel=0 control=64 value=100 time=14
control_change channel=0 control=64 value=102 time=16
control_change channel=0 control=64 value=106 time=14
note_on channel=0 note=89 velocity=106 time=6
note_on channel=0 note=77 velocity=97 time=4
control_change channel=0 control=64 value=113 time=6
note_on channel=0 note=49 velocity=84 time=1
note_on channel=0 note=45 velocity=75 time=3
note_on channel=0 note=85 velocity=75 time=6
control_change channel=0 control=64 value=127 time=5
note_on channel=0 note=49 velocity=0 time=16
note_on channel=0 note=45 velocity=0 time=9
note_on channel=0 note=77 velocity=0 time=7
note_on channel=0 note=85 velocity=0 time=14
note_on channel=0 note=89 velocity=0 time=6
control_change channel=0 control=64 value=112 time=62
note_on channel=0 note=45 velocity=79 time=10
note_on channel=0 note=88 velocity=110 time=0
note_on channel=0 note=49 velocity=82 time=1
note_on channel=0 note=76 velocity=99 time=1
control_change channel=0 control=64 value=78 time=3
note_on channel=0 note=85 velocity=89 time=6
control_change channel=0 control=64 value=0 time=10
control_change channel=0 control=64 value=19 time=15
control_change channel=0 control=64 value=62 time=14
control_change channel=0 control=64 value=69 time=16
control_change channel=0 control=64 value=78 time=15
control_change channel=0 control=64 value=88 time=15
control_change channel=0 control=64 value=97 time=16
note_on channel=0 note=49 velocity=0 time=13
note_on channel=0 note=45 velocity=0 time=1
control_change channel=0 control=64 value=101 time=1
control_change channel=0 control=64 value=103 time=15
note_on channel=0 note=50 velocity=101 time=1
note_on channel=0 note=76 velocity=0 time=7
control_change channel=0 control=64 value=104 time=7
control_change channel=0 control=64 value=109 time=15
control_change channel=0 control=64 value=122 time=15
note_on channel=0 note=85 velocity=0 time=3
note_on channel=0 note=88 velocity=0 time=5
control_change channel=0 control=64 value=127 time=7
note_on channel=0 note=50 velocity=0 time=53
note_on channel=0 note=89 velocity=118 time=26
note_on channel=0 note=77 velocity=100 time=3
note_on channel=0 note=85 velocity=92 time=4
note_on channel=0 note=49 velocity=88 time=8
note_on channel=0 note=45 velocity=79 time=2
note_on channel=0 note=49 velocity=0 time=50
note_on channel=0 note=77 velocity=0 time=10
note_on channel=0 note=45 velocity=0 time=3
note_on channel=0 note=89 velocity=0 time=33
note_on channel=0 note=85 velocity=0 time=12
note_on channel=0 note=45 velocity=91 time=52
control_change channel=0 control=64 value=84 time=4
note_on channel=0 note=49 velocity=92 time=0
note_on channel=0 note=78 velocity=105 time=1
note_on channel=0 note=90 velocity=101 time=1
note_on channel=0 note=85 velocity=85 time=9
control_change channel=0 control=64 value=66 time=4
control_change channel=0 control=64 value=66 time=14
control_change channel=0 control=64 value=74 time=16
control_change channel=0 control=64 value=82 time=15
control_change channel=0 control=64 value=97 time=15
control_change channel=0 control=64 value=127 time=16
note_on channel=0 note=49 velocity=0 time=50
note_on channel=0 note=45 velocity=0 time=26
note_on channel=0 note=50 velocity=98 time=22
note_on channel=0 note=78 velocity=0 time=79
note_on channel=0 note=50 velocity=0 time=59
note_on channel=0 note=85 velocity=0 time=0
note_on channel=0 note=90 velocity=0 time=3
control_change channel=0 control=64 value=87 time=57
note_on channel=0 note=91 velocity=113 time=7
note_on channel=0 note=49 velocity=91 time=1
note_on channel=0 note=79 velocity=102 time=3
note_on channel=0 note=45 velocity=83 time=2
note_on channel=0 note=85 velocity=103 time=2
control_change channel=0 control=64 value=60 time=1
control_change channel=0 control=64 value=61 time=15
note_on channel=0 note=45 velocity=0 time=14
control_change channel=0 control=64 value=69 time=1
note_on channel=0 note=49 velocity=0 time=1
control_change channel=0 control=64 value=76 time=14
control_change channel=0 control=64 value=84 time=15
control_change channel=0 control=64 value=94 time=16
control_change channel=0 control=64 value=104 time=15
control_change channel=0 control=64 value=109 time=14
control_change channel=0 control=64 value=110 time=16
control_change channel=0 control=64 value=110 time=15
note_on channel=0 note=91 velocity=0 time=0
note_on channel=0 note=79 velocity=0 time=5
control_change channel=0 control=64 value=121 time=10
control_change channel=0 control=64 value=127 time=15
note_on channel=0 note=85 velocity=0 time=36
control_change channel=0 control=64 value=90 time=57
control_change channel=0 control=64 value=64 time=14
note_on channel=0 note=92 velocity=97 time=9
note_on channel=0 note=80 velocity=102 time=1
note_on channel=0 note=88 velocity=90 time=0
note_on channel=0 note=56 velocity=94 time=5
control_change channel=0 control=64 value=0 time=1
note_on channel=0 note=44 velocity=94 time=1
note_on channel=0 note=85 velocity=87 time=1
control_change channel=0 control=64 value=59 time=13
note_on channel=0 note=90 velocity=44 time=5
note_on channel=0 note=56 velocity=0 time=3
control_change channel=0 control=64 value=67 time=8
note_on channel=0 note=44 velocity=0 time=0
control_change channel=0 control=64 value=71 time=14
note_on channel=0 note=90 velocity=0 time=5
control_change channel=0 control=64 value=75 time=10
control_change channel=0 control=64 value=81 time=16
control_change channel=0 control=64 value=89 time=15
control_change channel=0 control=64 value=94 time=15
control_change channel=0 control=64 value=97 time=15
note_on channel=0 note=80 velocity=0 time=6
control_change channel=0 control=64 value=102 time=9
note_on channel=0 note=85 velocity=0 time=4
note_on channel=0 note=92 velocity=0 time=2
control_change channel=0 control=64 value=109 time=10
note_on channel=0 note=88 velocity=0 time=11
control_change channel=0 control=64 value=112 time=4
control_change channel=0 control=64 value=110 time=14
control_change channel=0 control=64 value=93 time=16
note_on channel=0 note=49 velocity=86 time=14
control_change channel=0 control=64 value=74 time=1
note_on channel=0 note=61 velocity=94 time=0
note_on channel=0 note=92 velocity=103 time=6
note_on channel=0 note=80 velocity=98 time=1
note_on channel=0 note=88 velocity=82 time=1
control_change channel=0 control=64 value=59 time=9
note_on channel=0 note=85 velocity=84 time=1
control_change channel=0 control=64 value=65 time=14
note_on channel=0 note=49 velocity=0 time=2
note_on channel=0 note=61 velocity=0 time=7
control_change channel=0 control=64 value=71 time=5
control_change channel=0 control=64 value=76 time=16
note_on channel=0 note=80 velocity=0 time=14
control_change channel=0 control=64 value=84 time=1
note_on channel=0 note=85 velocity=0 time=9
note_on channel=0 note=92 velocity=0 time=2
note_on channel=0 note=88 velocity=0 time=1
control_change channel=0 control=64 value=87 time=2
control_change channel=0 control=64 value=84 time=16
control_change channel=0 control=64 value=74 time=15
control_change channel=0 control=64 value=67 time=24
note_on channel=0 note=63 velocity=96 time=9
control_change channel=0 control=64 value=72 time=6
note_on channel=0 note=51 velocity=80 time=2
note_on channel=0 note=80 velocity=98 time=2
note_on channel=0 note=92 velocity=90 time=3
note_on channel=0 note=88 velocity=87 time=1
control_change channel=0 control=64 value=83 time=7
note_on channel=0 note=85 velocity=82 time=0
control_change channel=0 control=64 value=94 time=15
note_on channel=0 note=63 velocity=0 time=10
control_change channel=0 control=64 value=101 time=5
note_on channel=0 note=80 velocity=0 time=0
control_change channel=0 control=64 value=107 time=16
note_on channel=0 note=85 velocity=0 time=3
note_on channel=0 note=88 velocity=0 time=0
note_on channel=0 note=92 velocity=0 time=4
control_change channel=0 control=64 value=113 time=8
control_change channel=0 control=64 value=112 time=14
control_change channel=0 control=64 value=96 time=16
note_on channel=0 note=51 velocity=0 time=2
control_change channel=0 control=64 value=80 time=13
note_on channel=0 note=64 velocity=94 time=2
note_on channel=0 note=52 velocity=83 time=5
note_on channel=0 note=80 velocity=95 time=5
note_on channel=0 note=92 velocity=90 time=1
control_change channel=0 control=64 value=71 time=2
note_on channel=0 note=85 velocity=82 time=4
note_on channel=0 note=88 velocity=81 time=1
note_on channel=0 note=64 velocity=0 time=4
control_change channel=0 control=64 value=76 time=6
note_on channel=0 note=52 velocity=0 time=10
control_change channel=0 control=64 value=86 time=5
note_on channel=0 note=80 velocity=0 time=7
control_change channel=0 control=64 value=96 time=9
note_on channel=0 note=85 velocity=0 time=2
note_on channel=0 note=88 velocity=0 time=7
note_on channel=0 note=92 velocity=0 time=3
control_change channel=0 control=64 value=102 time=3
control_change channel=0 control=64 value=102 time=14
control_change channel=0 control=64 value=93 time=16
control_change channel=0 control=64 value=79 time=15
note_on channel=0 note=56 velocity=94 time=6
note_on channel=0 note=44 velocity=84 time=3
note_on channel=0 note=92 velocity=92 time=3
note_on channel=0 note=80 velocity=97 time=1
control_change channel=0 control=64 value=72 time=3
note_on channel=0 note=88 velocity=78 time=5
note_on channel=0 note=85 velocity=82 time=1
note_on channel=0 note=46 velocity=58 time=5
note_on channel=0 note=56 velocity=0 time=2
control_change channel=0 control=64 value=78 time=2
note_on channel=0 note=44 velocity=0 time=5
note_on channel=0 note=80 velocity=0 time=6
note_on channel=0 note=85 velocity=0 time=3
control_change channel=0 control=64 value=92 time=1
note_on channel=0 note=46 velocity=0 time=8
note_on channel=0 note=88 velocity=0 time=1
control_change channel=0 control=64 value=109 time=7
note_on channel=0 note=92 velocity=0 time=0
control_change channel=0 control=64 value=127 time=15
note_on channel=0 note=49 velocity=94 time=40
note_on channel=0 note=80 velocity=103 time=1
note_on channel=0 note=92 velocity=91 time=0
control_change channel=0 control=64 value=116 time=2
note_on channel=0 note=61 velocity=98 time=1
note_on channel=0 note=85 velocity=92 time=4
note_on channel=0 note=88 velocity=83 time=3
control_change channel=0 control=64 value=93 time=7
control_change channel=0 control=64 value=86 time=16
note_on channel=0 note=61 velocity=0 time=3
note_on channel=0 note=80 velocity=0 time=2
control_change channel=0 control=64 value=91 time=10
note_on channel=0 note=49 velocity=0 time=0
note_on channel=0 note=85 velocity=0 time=3
note_on channel=0 note=92 velocity=0 time=0
note_on channel=0 note=88 velocity=0 time=4
control_change channel=0 control=64 value=100 time=9
control_change channel=0 control=64 value=111 time=15
control_change channel=0 control=64 value=127 time=15
note_on channel=0 note=63 velocity=101 time=13
note_on channel=0 note=92 velocity=91 time=2
note_on channel=0 note=80 velocity=97 time=1
note_on channel=0 note=51 velocity=79 time=6
note_on channel=0 note=88 velocity=75 time=0
note_on channel=0 note=85 velocity=77 time=2
note_on channel=0 note=80 velocity=0 time=29
note_on channel=0 note=85 velocity=0 time=1
note_on channel=0 note=63 velocity=0 time=5
note_on channel=0 note=92 velocity=0 time=5
note_on channel=0 note=88 velocity=0 time=3
note_on channel=0 note=64 velocity=91 time=47
note_on channel=0 note=52 velocity=82 time=8
note_on channel=0 note=80 velocity=96 time=0
note_on channel=0 note=92 velocity=88 time=0
note_on channel=0 note=88 velocity=84 time=7
note_on channel=0 note=85 velocity=87 time=3
note_on channel=0 note=64 velocity=0 time=4
note_on channel=0 note=52 velocity=0 time=16
note_on channel=0 note=51 velocity=0 time=1
note_on channel=0 note=85 velocity=0 time=5
note_on channel=0 note=80 velocity=0 time=4
note_on channel=0 note=92 velocity=0 time=10
note_on channel=0 note=88 velocity=0 time=6
note_on channel=0 note=44 velocity=91 time=55
note_on channel=0 note=56 velocity=97 time=0
note_on channel=0 note=80 velocity=101 time=3
note_on channel=0 note=92 velocity=95 time=0
note_on channel=0 note=88 velocity=82 time=4
note_on channel=0 note=85 velocity=88 time=3
note_on channel=0 note=44 velocity=0 time=13
note_on channel=0 note=56 velocity=0 time=3
note_on channel=0 note=85 velocity=0 time=12
note_on channel=0 note=80 velocity=0 time=4
note_on channel=0 note=92 velocity=0 time=9
note_on channel=0 note=88 velocity=0 time=11
note_on channel=0 note=49 velocity=95 time=56
note_on channel=0 note=61 velocity=99 time=2
note_on channel=0 note=80 velocity=97 time=2
note_on channel=0 note=92 velocity=90 time=1
control_change channel=0 control=64 value=117 time=1
note_on channel=0 note=88 velocity=82 time=1
note_on channel=0 note=85 velocity=94 time=1
control_change channel=0 control=64 value=78 time=14
note_on channel=0 note=61 velocity=0 time=13
control_change channel=0 control=64 value=0 time=2
note_on channel=0 note=80 velocity=0 time=0
note_on channel=0 note=49 velocity=0 time=3
note_on channel=0 note=85 velocity=0 time=6
note_on channel=0 note=92 velocity=0 time=3
note_on channel=0 note=88 velocity=0 time=6
note_on channel=0 note=63 velocity=89 time=51
note_on channel=0 note=51 velocity=72 time=4
note_on channel=0 note=80 velocity=99 time=0
note_on channel=0 note=92 velocity=89 time=1
note_on channel=0 note=88 velocity=75 time=6
note_on channel=0 note=85 velocity=87 time=1
note_on channel=0 note=80 velocity=0 time=31
note_on channel=0 note=63 velocity=0 time=7
note_on channel=0 note=85 velocity=0 time=1
note_on channel=0 note=92 velocity=0 time=6
note_on channel=0 note=88 velocity=0 time=1
note_on channel=0 note=51 velocity=0 time=12
note_on channel=0 note=80 velocity=99 time=42
note_on channel=0 note=64 velocity=88 time=1
note_on channel=0 note=92 velocity=86 time=1
note_on channel=0 note=88 velocity=80 time=4
note_on channel=0 note=52 velocity=85 time=2
note_on channel=0 note=85 velocity=80 time=2
note_on channel=0 note=52 velocity=0 time=24
note_on channel=0 note=64 velocity=0 time=0
note_on channel=0 note=80 velocity=0 time=3
note_on channel=0 note=85 velocity=0 time=16
note_on channel=0 note=88 velocity=0 time=5
note_on channel=0 note=92 velocity=0 time=5
note_on channel=0 note=68 velocity=100 time=56
note_on channel=0 note=80 velocity=105 time=1
note_on channel=0 note=92 velocity=93 time=0
note_on channel=0 note=56 velocity=96 time=2
note_on channel=0 note=88 velocity=91 time=6
note_on channel=0 note=85 velocity=90 time=4
control_change channel=0 control=64 value=40 time=4
note_on channel=0 note=68 velocity=0 time=10
control_change channel=0 control=64 value=83 time=4
note_on channel=0 note=56 velocity=0 time=1
note_on channel=0 note=80 velocity=0 time=4
control_change channel=0 control=64 value=107 time=12
note_on channel=0 note=88 velocity=0 time=0
note_on channel=0 note=92 velocity=0 time=1
note_on channel=0 note=85 velocity=0 time=1
control_change channel=0 control=64 value=127 time=12
control_change channel=0 control=64 value=105 time=229
control_change channel=0 control=64 value=86 time=15
control_change channel=0 control=64 value=60 time=15
control_change channel=0 control=64 value=0 time=16
note_on channel=0 note=49 velocity=75 time=40
note_on channel=0 note=61 velocity=82 time=0
note_on channel=0 note=73 velocity=87 time=1
note_on channel=0 note=85 velocity=90 time=0
note_on channel=0 note=73 velocity=0 time=19
note_on channel=0 note=61 velocity=0 time=1
note_on channel=0 note=85 velocity=0 time=2
note_on channel=0 note=49 velocity=0 time=8
note_on channel=0 note=75 velocity=96 time=74
note_on channel=0 note=87 velocity=99 time=1
note_on channel=0 note=63 velocity=87 time=3
note_on channel=0 note=51 velocity=73 time=4
note_on channel=0 note=75 velocity=0 time=24
note_on channel=0 note=63 velocity=0 time=2
note_on channel=0 note=87 velocity=0 time=9
note_on channel=0 note=51 velocity=0 time=5
note_on channel=0 note=88 velocity=101 time=69
note_on channel=0 note=76 velocity=97 time=1
note_on channel=0 note=64 velocity=85 time=6
note_on channel=0 note=52 velocity=76 time=3
note_on channel=0 note=76 velocity=0 time=14
note_on channel=0 note=64 velocity=0 time=11
note_on channel=0 note=88 velocity=0 time=2
note_on channel=0 note=52 velocity=0 time=2
note_on channel=0 note=69 velocity=97 time=94
note_on channel=0 note=57 velocity=92 time=2
note_on channel=0 note=93 velocity=113 time=0
note_on channel=0 note=81 velocity=102 time=1
control_change channel=0 control=64 value=62 time=4
note_on channel=0 note=69 velocity=0 time=8
note_on channel=0 note=81 velocity=0 time=3
control_change channel=0 control=64 value=83 time=3
note_on channel=0 note=57 velocity=0 time=2
note_on channel=0 note=93 velocity=0 time=3
control_change channel=0 control=64 value=106 time=11
control_change channel=0 control=64 value=127 time=15
control_change channel=0 control=64 value=103 time=153
control_change channel=0 control=64 value=79 time=15
control_change channel=0 control=64 value=52 time=16
control_change channel=0 control=64 value=0 time=14
note_on channel=0 note=49 velocity=82 time=151
note_on channel=0 note=61 velocity=86 time=0
note_on channel=0 note=73 velocity=96 time=1
note_on channel=0 note=85 velocity=95 time=11
note_on channel=0 note=61 velocity=0 time=18
note_on channel=0 note=49 velocity=0 time=9
note_on channel=0 note=73 velocity=0 time=3
note_on channel=0 note=85 velocity=0 time=12
note_on channel=0 note=63 velocity=96 time=83
note_on channel=0 note=75 velocity=97 time=2
note_on channel=0 note=87 velocity=101 time=1
note_on channel=0 note=51 velocity=84 time=1
note_on channel=0 note=75 velocity=0 time=31
note_on channel=0 note=63 velocity=0 time=5
note_on channel=0 note=87 velocity=0 time=2
note_on channel=0 note=51 velocity=0 time=1
note_on channel=0 note=64 velocity=92 time=95
note_on channel=0 note=88 velocity=105 time=3
note_on channel=0 note=76 velocity=97 time=3
note_on channel=0 note=52 velocity=77 time=1
note_on channel=0 note=52 velocity=0 time=20
note_on channel=0 note=76 velocity=0 time=0
note_on channel=0 note=64 velocity=0 time=1
note_on channel=0 note=88 velocity=0 time=7
note_on channel=0 note=82 velocity=105 time=178
note_on channel=0 note=94 velocity=105 time=0
note_on channel=0 note=70 velocity=96 time=2
note_on channel=0 note=58 velocity=88 time=1
control_change channel=0 control=64 value=64 time=4
control_change channel=0 control=64 value=94 time=15
note_on channel=0 note=82 velocity=0 time=7
note_on channel=0 note=94 velocity=0 time=0
note_on channel=0 note=58 velocity=0 time=4
control_change channel=0 control=64 value=127 time=4
note_on channel=0 note=70 velocity=0 time=0
note_on channel=0 note=92 velocity=19 time=7
note_on channel=0 note=92 velocity=0 time=1
control_change channel=0 control=64 value=110 time=381
control_change channel=0 control=64 value=96 time=15
control_change channel=0 control=64 value=85 time=15
control_change channel=0 control=64 value=75 time=16
control_change channel=0 control=64 value=64 time=14
control_change channel=0 control=64 value=0 time=15
control_change channel=0 control=64 value=54 time=678
note_on channel=0 note=52 velocity=94 time=0
note_on channel=0 note=40 velocity=83 time=1
note_on channel=0 note=85 velocity=101 time=7
note_on channel=0 note=73 velocity=92 time=2
control_change channel=0 control=64 value=77 time=5
control_change channel=0 control=64 value=92 time=15
note_on channel=0 note=73 velocity=0 time=1
note_on channel=0 note=52 velocity=0 time=2
note_on channel=0 note=40 velocity=0 time=8
control_change channel=0 control=64 value=113 time=5
note_on channel=0 note=85 velocity=0 time=0
control_change channel=0 control=64 value=119 time=14
control_change channel=0 control=64 value=119 time=15
control_change channel=0 control=64 value=105 time=16
control_change channel=0 control=64 value=83 time=15
control_change channel=0 control=64 value=62 time=15
control_change channel=0 control=64 value=0 time=15
note_on channel=0 note=39 velocity=87 time=146
note_on channel=0 note=51 velocity=96 time=0
note_on channel=0 note=75 velocity=91 time=3
note_on channel=0 note=87 velocity=106 time=0
control_change channel=0 control=64 value=71 time=4
control_change channel=0 control=64 value=101 time=15
note_on channel=0 note=75 velocity=0 time=6
note_on channel=0 note=51 velocity=0 time=2
control_change channel=0 control=64 value=127 time=7
note_on channel=0 note=87 velocity=0 time=7
note_on channel=0 note=39 velocity=0 time=3
control_change channel=0 control=64 value=111 time=36
control_change channel=0 control=64 value=91 time=15
control_change channel=0 control=64 value=73 time=15
control_change channel=0 control=64 value=0 time=16
control_change channel=0 control=64 value=61 time=167
note_on channel=0 note=76 velocity=92 time=2
note_on channel=0 note=88 velocity=111 time=1
note_on channel=0 note=49 velocity=97 time=2
note_on channel=0 note=37 velocity=90 time=1
control_change channel=0 control=64 value=91 time=9
note_on channel=0 note=76 velocity=0 time=4
control_change channel=0 control=64 value=127 time=12
note_on channel=0 note=49 velocity=0 time=0
note_on channel=0 note=88 velocity=0 time=10
note_on channel=0 note=37 velocity=0 time=13
control_change channel=0 control=64 value=77 time=270
control_change channel=0 control=64 value=0 time=15
note_on channel=0 note=32 velocity=84 time=18
note_on channel=0 note=44 velocity=97 time=3
note_on channel=0 note=88 velocity=95 time=4
note_on channel=0 note=100 velocity=97 time=4
note_on channel=0 note=32 velocity=0 time=30
control_change channel=0 control=64 value=67 time=2
control_change channel=0 control=64 value=81 time=15
note_on channel=0 note=44 velocity=0 time=0
control_change channel=0 control=64 value=96 time=15
control_change channel=0 control=64 value=119 time=16
note_on channel=0 note=88 velocity=0 time=0
note_on channel=0 note=100 velocity=0 time=5
control_change channel=0 control=64 value=127 time=10
note_on channel=0 note=44 velocity=69 time=93
note_on channel=0 note=85 velocity=97 time=3
note_on channel=0 note=52 velocity=70 time=2
note_on channel=0 note=97 velocity=102 time=1
note_on channel=0 note=49 velocity=59 time=5
note_on channel=0 note=44 velocity=0 time=18
note_on channel=0 note=52 velocity=0 time=3
note_on channel=0 note=85 velocity=0 time=4
note_on channel=0 note=49 velocity=0 time=6
note_on channel=0 note=97 velocity=0 time=3
note_on channel=0 note=52 velocity=74 time=67
note_on channel=0 note=49 velocity=81 time=3
note_on channel=0 note=44 velocity=78 time=2
note_on channel=0 note=92 velocity=102 time=10
note_on channel=0 note=80 velocity=93 time=3
note_on channel=0 note=52 velocity=0 time=17
note_on channel=0 note=44 velocity=0 time=1
note_on channel=0 note=49 velocity=0 time=5
note_on channel=0 note=92 velocity=0 time=12
note_on channel=0 note=80 velocity=0 time=2
note_on channel=0 note=44 velocity=82 time=61
note_on channel=0 note=49 velocity=80 time=1
note_on channel=0 note=52 velocity=84 time=2
note_on channel=0 note=88 velocity=109 time=6
note_on channel=0 note=76 velocity=100 time=4
note_on channel=0 note=52 velocity=0 time=16
note_on channel=0 note=49 velocity=0 time=1
note_on channel=0 note=76 velocity=0 time=4
note_on channel=0 note=44 velocity=0 time=2
note_on channel=0 note=88 velocity=0 time=8
note_on channel=0 note=73 velocity=102 time=75
note_on channel=0 note=52 velocity=82 time=3
note_on channel=0 note=44 velocity=78 time=2
note_on channel=0 note=49 velocity=83 time=1
note_on channel=0 note=85 velocity=103 time=0
note_on channel=0 note=85 velocity=0 time=19
note_on channel=0 note=73 velocity=0 time=6
note_on channel=0 note=44 velocity=0 time=2
note_on channel=0 note=49 velocity=0 time=0
note_on channel=0 note=52 velocity=0 time=5
note_on channel=0 note=80 velocity=99 time=72
note_on channel=0 note=68 velocity=99 time=1
note_on channel=0 note=52 velocity=80 time=3
note_on channel=0 note=44 velocity=79 time=1
note_on channel=0 note=49 velocity=79 time=2
note_on channel=0 note=52 velocity=0 time=25
note_on channel=0 note=80 velocity=0 time=0
note_on channel=0 note=68 velocity=0 time=2
note_on channel=0 note=49 velocity=0 time=7
note_on channel=0 note=44 velocity=0 time=4
note_on channel=0 note=76 velocity=101 time=63
note_on channel=0 note=64 velocity=91 time=2
note_on channel=0 note=52 velocity=85 time=3
note_on channel=0 note=44 velocity=82 time=1
note_on channel=0 note=49 velocity=80 time=2
note_on channel=0 note=64 velocity=0 time=13
note_on channel=0 note=76 velocity=0 time=7
note_on channel=0 note=52 velocity=0 time=4
note_on channel=0 note=44 velocity=0 time=9
note_on channel=0 note=49 velocity=0 time=1
note_on channel=0 note=73 velocity=101 time=59
note_on channel=0 note=44 velocity=82 time=2
note_on channel=0 note=61 velocity=88 time=1
note_on channel=0 note=52 velocity=75 time=2
note_on channel=0 note=49 velocity=72 time=1
note_on channel=0 note=61 velocity=0 time=23
note_on channel=0 note=52 velocity=0 time=9
note_on channel=0 note=73 velocity=0 time=5
note_on channel=0 note=44 velocity=0 time=6
note_on channel=0 note=49 velocity=0 time=1
note_on channel=0 note=69 velocity=101 time=62
note_on channel=0 note=57 velocity=96 time=1
note_on channel=0 note=52 velocity=85 time=7
note_on channel=0 note=44 velocity=71 time=1
note_on channel=0 note=49 velocity=79 time=0
note_on channel=0 note=57 velocity=0 time=29
note_on channel=0 note=52 velocity=0 time=4
note_on channel=0 note=69 velocity=0 time=7
note_on channel=0 note=44 velocity=0 time=1
note_on channel=0 note=49 velocity=0 time=3
control_change channel=0 control=64 value=101 time=12
control_change channel=0 control=64 value=65 time=15
control_change channel=0 control=64 value=0 time=18
note_on channel=0 note=52 velocity=97 time=19
note_on channel=0 note=56 velocity=102 time=2
note_on channel=0 note=68 velocity=98 time=2
note_on channel=0 note=44 velocity=83 time=3
note_on channel=0 note=49 velocity=88 time=0
control_change channel=0 control=64 value=65 time=19
control_change channel=0 control=64 value=85 time=15
control_change channel=0 control=64 value=127 time=14
note_on channel=0 note=52 velocity=0 time=17
note_on channel=0 note=44 velocity=0 time=8
note_on channel=0 note=49 velocity=0 time=9
note_on channel=0 note=56 velocity=0 time=21
note_on channel=0 note=68 velocity=0 time=62
control_change channel=0 control=64 value=104 time=303
control_change channel=0 control=64 value=71 time=14
control_change channel=0 control=64 value=0 time=16
note_on channel=0 note=44 velocity=80 time=257
note_on channel=0 note=48 velocity=72 time=4
note_on channel=0 note=51 velocity=79 time=31
note_on channel=0 note=56 velocity=101 time=21
note_on channel=0 note=72 velocity=101 time=0
note_on channel=0 note=84 velocity=96 time=2
note_on channel=0 note=75 velocity=90 time=1
note_on channel=0 note=80 velocity=87 time=0
control_change channel=0 control=64 value=67 time=3
note_on channel=0 note=78 velocity=81 time=0
control_change channel=0 control=64 value=127 time=14
note_on channel=0 note=72 velocity=0 time=17
note_on channel=0 note=44 velocity=0 time=8
note_on channel=0 note=75 velocity=0 time=10
note_on channel=0 note=84 velocity=0 time=4
note_on channel=0 note=48 velocity=0 time=10
note_on channel=0 note=78 velocity=0 time=1
note_on channel=0 note=56 velocity=0 time=3
note_on channel=0 note=80 velocity=0 time=0
note_on channel=0 note=51 velocity=0 time=15
note_on channel=0 note=49 velocity=75 time=500
control_change channel=0 control=64 value=94 time=2
note_on channel=0 note=81 velocity=83 time=0
note_on channel=0 note=73 velocity=88 time=3
note_on channel=0 note=76 velocity=74 time=3
note_on channel=0 note=85 velocity=83 time=0
note_on channel=0 note=37 velocity=57 time=2
control_change channel=0 control=64 value=34 time=8
note_on channel=0 note=73 velocity=0 time=8
note_on channel=0 note=49 velocity=0 time=3
control_change channel=0 control=64 value=0 time=4
note_on channel=0 note=76 velocity=0 time=1
note_on channel=0 note=85 velocity=0 time=0
note_on channel=0 note=37 velocity=0 time=10
note_on channel=0 note=81 velocity=0 time=3
note_on channel=0 note=52 velocity=78 time=59
note_on channel=0 note=40 velocity=77 time=1
note_on channel=0 note=73 velocity=99 time=2
note_on channel=0 note=85 velocity=85 time=4
note_on channel=0 note=81 velocity=76 time=5
note_on channel=0 note=76 velocity=77 time=2
note_on channel=0 note=52 velocity=0 time=13
note_on channel=0 note=73 velocity=0 time=2
note_on channel=0 note=80 velocity=24 time=4
note_on channel=0 note=40 velocity=0 time=1
note_on channel=0 note=76 velocity=0 time=3
note_on channel=0 note=85 velocity=0 time=2
note_on channel=0 note=80 velocity=0 time=1
note_on channel=0 note=81 velocity=0 time=6
note_on channel=0 note=54 velocity=88 time=57
note_on channel=0 note=73 velocity=99 time=0
note_on channel=0 note=42 velocity=79 time=6
note_on channel=0 note=76 velocity=90 time=1
note_on channel=0 note=81 velocity=74 time=0
note_on channel=0 note=85 velocity=79 time=3
note_on channel=0 note=54 velocity=0 time=18
note_on channel=0 note=73 velocity=0 time=5
note_on channel=0 note=85 velocity=0 time=14
note_on channel=0 note=76 velocity=0 time=1
note_on channel=0 note=42 velocity=0 time=11
note_on channel=0 note=81 velocity=0 time=0
note_on channel=0 note=73 velocity=108 time=65
note_on channel=0 note=76 velocity=96 time=0
note_on channel=0 note=81 velocity=92 time=0
note_on channel=0 note=55 velocity=103 time=3
note_on channel=0 note=85 velocity=95 time=0
note_on channel=0 note=43 velocity=97 time=4
control_change channel=0 control=64 value=52 time=158
control_change channel=0 control=64 value=69 time=14
control_change channel=0 control=64 value=79 time=15
control_change channel=0 control=64 value=87 time=16
control_change channel=0 control=64 value=92 time=15
control_change channel=0 control=64 value=99 time=16
control_change channel=0 control=64 value=108 time=15
control_change channel=0 control=64 value=127 time=15
note_on channel=0 note=55 velocity=0 time=168
note_on channel=0 note=43 velocity=0 time=12
note_on channel=0 note=85 velocity=0 time=9
note_on channel=0 note=76 velocity=0 time=100
note_on channel=0 note=73 velocity=0 time=83
note_on channel=0 note=81 velocity=0 time=7
note_on channel=0 note=84 velocity=98 time=94
note_on channel=0 note=44 velocity=86 time=1
note_on channel=0 note=56 velocity=98 time=1
note_on channel=0 note=72 velocity=94 time=4
note_on channel=0 note=80 velocity=68 time=7
note_on channel=0 note=75 velocity=67 time=2
note_on channel=0 note=56 velocity=0 time=18
note_on channel=0 note=75 velocity=0 time=5
note_on channel=0 note=80 velocity=0 time=3
note_on channel=0 note=44 velocity=0 time=4
note_on channel=0 note=72 velocity=0 time=12
note_on channel=0 note=84 velocity=0 time=11
note_on channel=0 note=49 velocity=90 time=134
note_on channel=0 note=37 velocity=79 time=1
note_on channel=0 note=73 velocity=98 time=3
note_on channel=0 note=81 velocity=84 time=0
note_on channel=0 note=85 velocity=88 time=4
note_on channel=0 note=76 velocity=78 time=1
note_on channel=0 note=49 velocity=0 time=16
note_on channel=0 note=37 velocity=0 time=8
note_on channel=0 note=76 velocity=0 time=4
note_on channel=0 note=73 velocity=0 time=1
note_on channel=0 note=81 velocity=0 time=11
note_on channel=0 note=85 velocity=0 time=7
control_change channel=0 control=64 value=118 time=6
control_change channel=0 control=64 value=76 time=15
control_change channel=0 control=64 value=0 time=16
note_on channel=0 note=73 velocity=93 time=18
note_on channel=0 note=52 velocity=88 time=4
note_on channel=0 note=85 velocity=79 time=1
note_on channel=0 note=76 velocity=83 time=1
note_on channel=0 note=81 velocity=81 time=0
note_on channel=0 note=40 velocity=79 time=6
note_on channel=0 note=52 velocity=0 time=16
note_on channel=0 note=73 velocity=0 time=0
note_on channel=0 note=76 velocity=0 time=6
note_on channel=0 note=40 velocity=0 time=7
note_on channel=0 note=85 velocity=0 time=0
note_on channel=0 note=81 velocity=0 time=8
note_on channel=0 note=73 velocity=101 time=56
note_on channel=0 note=76 velocity=88 time=4
note_on channel=0 note=85 velocity=84 time=0
note_on channel=0 note=81 velocity=76 time=1
note_on channel=0 note=54 velocity=96 time=1
note_on channel=0 note=42 velocity=86 time=4
note_on channel=0 note=54 velocity=0 time=27
note_on channel=0 note=73 velocity=0 time=3
note_on channel=0 note=76 velocity=0 time=8
note_on channel=0 note=85 velocity=0 time=1
note_on channel=0 note=42 velocity=0 time=9
note_on channel=0 note=81 velocity=0 time=2
note_on channel=0 note=73 velocity=103 time=62
note_on channel=0 note=76 velocity=91 time=0
note_on channel=0 note=85 velocity=96 time=0
note_on channel=0 note=82 velocity=60 time=3
note_on channel=0 note=55 velocity=102 time=1
note_on channel=0 note=81 velocity=92 time=0
note_on channel=0 note=82 velocity=0 time=0
note_on channel=0 note=43 velocity=96 time=4
control_change channel=0 control=64 value=59 time=240
control_change channel=0 control=64 value=70 time=14
control_change channel=0 control=64 value=77 time=16
control_change channel=0 control=64 value=83 time=15
control_change channel=0 control=64 value=91 time=15
control_change channel=0 control=64 value=100 time=16
control_change channel=0 control=64 value=109 time=14
control_change channel=0 control=64 value=124 time=15
control_change channel=0 control=64 value=127 time=16
note_on channel=0 note=43 velocity=0 time=92
note_on channel=0 note=85 velocity=0 time=14
note_on channel=0 note=55 velocity=0 time=19
note_on channel=0 note=76 velocity=0 time=102
note_on channel=0 note=73 velocity=0 time=98
note_on channel=0 note=81 velocity=0 time=47
note_on channel=0 note=56 velocity=109 time=80
note_on channel=0 note=44 velocity=100 time=4
note_on channel=0 note=84 velocity=101 time=2
note_on channel=0 note=72 velocity=96 time=6
note_on channel=0 note=80 velocity=38 time=0
note_on channel=0 note=56 velocity=0 time=21
note_on channel=0 note=80 velocity=0 time=8
note_on channel=0 note=44 velocity=0 time=11
note_on channel=0 note=84 velocity=0 time=106
note_on channel=0 note=72 velocity=0 time=43
control_change channel=0 control=64 value=82 time=116
control_change channel=0 control=64 value=0 time=15
note_on channel=0 note=76 velocity=73 time=2
note_on channel=0 note=49 velocity=105 time=1
note_on channel=0 note=73 velocity=103 time=1
note_on channel=0 note=85 velocity=100 time=1
note_on channel=0 note=37 velocity=88 time=3
note_on channel=0 note=80 velocity=77 time=4
control_change channel=0 control=64 value=63 time=65
note_on channel=0 note=37 velocity=0 time=8
control_change channel=0 control=64 value=74 time=8
note_on channel=0 note=49 velocity=0 time=6
control_change channel=0 control=64 value=87 time=9
control_change channel=0 control=64 value=101 time=15
control_change channel=0 control=64 value=116 time=15
control_change channel=0 control=64 value=127 time=15
note_on channel=0 note=73 velocity=0 time=26
note_on channel=0 note=76 velocity=0 time=3
note_on channel=0 note=80 velocity=0 time=105
note_on channel=0 note=85 velocity=0 time=0
note_on channel=0 note=76 velocity=73 time=195
note_on channel=0 note=68 velocity=68 time=1
note_on channel=0 note=88 velocity=85 time=5
note_on channel=0 note=80 velocity=65 time=14
note_on channel=0 note=76 velocity=0 time=6
note_on channel=0 note=68 velocity=0 time=6
note_on channel=0 note=80 velocity=0 time=6
note_on channel=0 note=88 velocity=0 time=20
note_on channel=0 note=76 velocity=78 time=133
note_on channel=0 note=68 velocity=75 time=1
note_on channel=0 note=88 velocity=95 time=2
note_on channel=0 note=80 velocity=73 time=22
note_on channel=0 note=76 velocity=0 time=15
note_on channel=0 note=80 velocity=0 time=1
note_on channel=0 note=68 velocity=0 time=1
note_on channel=0 note=88 velocity=0 time=15
note_on channel=0 note=88 velocity=101 time=86
note_on channel=0 note=76 velocity=89 time=5
note_on channel=0 note=80 velocity=84 time=5
note_on channel=0 note=68 velocity=66 time=6
note_on channel=0 note=80 velocity=0 time=33
note_on channel=0 note=76 velocity=0 time=3
note_on channel=0 note=88 velocity=0 time=0
note_on channel=0 note=68 velocity=0 time=45
note_on channel=0 note=64 velocity=78 time=45
note_on channel=0 note=76 velocity=94 time=0
note_on channel=0 note=85 velocity=99 time=4
note_on channel=0 note=73 velocity=81 time=3
note_on channel=0 note=73 velocity=0 time=21
note_on channel=0 note=76 velocity=0 time=0
note_on channel=0 note=85 velocity=0 time=12
note_on channel=0 note=64 velocity=0 time=4
note_on channel=0 note=85 velocity=96 time=68
note_on channel=0 note=76 velocity=95 time=2
note_on channel=0 note=73 velocity=94 time=5
note_on channel=0 note=64 velocity=73 time=6
note_on channel=0 note=76 velocity=0 time=14
note_on channel=0 note=73 velocity=0 time=1
note_on channel=0 note=64 velocity=0 time=9
note_on channel=0 note=85 velocity=0 time=0
note_on channel=0 note=85 velocity=107 time=69
note_on channel=0 note=73 velocity=96 time=3
note_on channel=0 note=76 velocity=100 time=0
note_on channel=0 note=64 velocity=78 time=2
note_on channel=0 note=76 velocity=0 time=19
note_on channel=0 note=64 velocity=0 time=13
note_on channel=0 note=85 velocity=0 time=3
note_on channel=0 note=73 velocity=0 time=2
note_on channel=0 note=80 velocity=97 time=64
note_on channel=0 note=76 velocity=96 time=1
note_on channel=0 note=68 velocity=81 time=3
note_on channel=0 note=64 velocity=79 time=4
note_on channel=0 note=64 velocity=0 time=26
note_on channel=0 note=80 velocity=0 time=0
note_on channel=0 note=76 velocity=0 time=1
note_on channel=0 note=68 velocity=0 time=15
note_on channel=0 note=76 velocity=88 time=59
note_on channel=0 note=80 velocity=100 time=0
note_on channel=0 note=68 velocity=76 time=5
note_on channel=0 note=64 velocity=78 time=2
note_on channel=0 note=76 velocity=0 time=23
note_on channel=0 note=64 velocity=0 time=2
note_on channel=0 note=80 velocity=0 time=2
note_on channel=0 note=68 velocity=0 time=2
note_on channel=0 note=76 velocity=99 time=70
note_on channel=0 note=80 velocity=96 time=5
note_on channel=0 note=68 velocity=82 time=4
note_on channel=0 note=64 velocity=66 time=4
note_on channel=0 note=68 velocity=0 time=20
note_on channel=0 note=76 velocity=0 time=2
note_on channel=0 note=64 velocity=0 time=6
note_on channel=0 note=80 velocity=0 time=5
note_on channel=0 note=64 velocity=85 time=65
note_on channel=0 note=76 velocity=102 time=5
note_on channel=0 note=76 velocity=0 time=34
note_on channel=0 note=64 velocity=0 time=8
note_on channel=0 note=61 velocity=87 time=56
note_on channel=0 note=73 velocity=96 time=0
note_on channel=0 note=73 velocity=0 time=45
note_on channel=0 note=61 velocity=0 time=1
note_on channel=0 note=56 velocity=83 time=55
note_on channel=0 note=64 velocity=88 time=0
note_on channel=0 note=68 velocity=91 time=0
note_on channel=0 note=52 velocity=73 time=4
note_on channel=0 note=56 velocity=0 time=18
note_on channel=0 note=68 velocity=0 time=3
note_on channel=0 note=52 velocity=0 time=6
note_on channel=0 note=64 velocity=0 time=6
note_on channel=0 note=52 velocity=85 time=57
note_on channel=0 note=64 velocity=101 time=19
note_on channel=0 note=62 velocity=77 time=15
note_on channel=0 note=52 velocity=0 time=15
note_on channel=0 note=62 velocity=0 time=2
note_on channel=0 note=64 velocity=0 time=2
note_on channel=0 note=49 velocity=83 time=59
note_on channel=0 note=61 velocity=95 time=2
note_on channel=0 note=49 velocity=0 time=47
note_on channel=0 note=61 velocity=0 time=6
note_on channel=0 note=44 velocity=82 time=55
note_on channel=0 note=56 velocity=94 time=4
note_on channel=0 note=40 velocity=71 time=4
note_on channel=0 note=50 velocity=85 time=5
note_on channel=0 note=52 velocity=69 time=7
note_on channel=0 note=44 velocity=0 time=8
note_on channel=0 note=40 velocity=0 time=7
note_on channel=0 note=56 velocity=0 time=1
note_on channel=0 note=50 velocity=0 time=4
note_on channel=0 note=52 velocity=0 time=8
note_on channel=0 note=40 velocity=75 time=60
note_on channel=0 note=52 velocity=89 time=3
note_on channel=0 note=51 velocity=79 time=7
note_on channel=0 note=51 velocity=0 time=33
note_on channel=0 note=52 velocity=0 time=0
note_on channel=0 note=40 velocity=0 time=19
note_on channel=0 note=37 velocity=82 time=31
note_on channel=0 note=32 velocity=72 time=9
note_on channel=0 note=49 velocity=94 time=3
note_on channel=0 note=44 velocity=91 time=6
note_on channel=0 note=37 velocity=0 time=12
note_on channel=0 note=32 velocity=0 time=10
note_on channel=0 note=44 velocity=0 time=100
note_on channel=0 note=37 velocity=97 time=9
note_on channel=0 note=25 velocity=99 time=4
control_change channel=0 control=64 value=95 time=21
control_change channel=0 control=64 value=59 time=15
note_on channel=0 note=49 velocity=0 time=2
control_change channel=0 control=64 value=0 time=14
control_change channel=0 control=64 value=32 time=306
control_change channel=0 control=64 value=60 time=15
control_change channel=0 control=64 value=66 time=15
control_change channel=0 control=64 value=71 time=16
control_change channel=0 control=64 value=74 time=22
control_change channel=0 control=64 value=79 time=16
control_change channel=0 control=64 value=85 time=17
control_change channel=0 control=64 value=89 time=16
control_change channel=0 control=64 value=92 time=15
control_change channel=0 control=64 value=98 time=16
control_change channel=0 control=64 value=110 time=14
control_change channel=0 control=64 value=127 time=15
note_on channel=0 note=25 velocity=0 time=67
note_on channel=0 note=37 velocity=0 time=122
note_on channel=0 note=47 velocity=95 time=430
note_on channel=0 note=49 velocity=101 time=0
note_on channel=0 note=61 velocity=99 time=3
note_on channel=0 note=35 velocity=87 time=1
control_change channel=0 control=64 value=84 time=53
control_change channel=0 control=64 value=19 time=16
control_change channel=0 control=64 value=0 time=15
control_change channel=0 control=64 value=58 time=137
control_change channel=0 control=64 value=65 time=16
control_change channel=0 control=64 value=69 time=15
control_change channel=0 control=64 value=72 time=14
control_change channel=0 control=64 value=75 time=16
control_change channel=0 control=64 value=79 time=15
control_change channel=0 control=64 value=84 time=16
control_change channel=0 control=64 value=89 time=15
control_change channel=0 control=64 value=95 time=14
control_change channel=0 control=64 value=104 time=16
control_change channel=0 control=64 value=119 time=15
control_change channel=0 control=64 value=127 time=15
note_on channel=0 note=47 velocity=0 time=260
note_on channel=0 note=35 velocity=0 time=337
note_on channel=0 note=45 velocity=97 time=190
note_on channel=0 note=33 velocity=92 time=6
control_change channel=0 control=64 value=88 time=36
control_change channel=0 control=64 value=55 time=15
control_change channel=0 control=64 value=0 time=15
control_change channel=0 control=64 value=51 time=213
control_change channel=0 control=64 value=62 time=16
control_change channel=0 control=64 value=65 time=15
control_change channel=0 control=64 value=68 time=15
control_change channel=0 control=64 value=70 time=16
control_change channel=0 control=64 value=72 time=14
control_change channel=0 control=64 value=75 time=24
control_change channel=0 control=64 value=78 time=15
control_change channel=0 control=64 value=81 time=16
control_change channel=0 control=64 value=84 time=15
control_change channel=0 control=64 value=88 time=14
control_change channel=0 control=64 value=91 time=16
control_change channel=0 control=64 value=93 time=15
control_change channel=0 control=64 value=96 time=14
control_change channel=0 control=64 value=100 time=16
control_change channel=0 control=64 value=106 time=15
control_change channel=0 control=64 value=116 time=16
control_change channel=0 control=64 value=127 time=15
note_on channel=0 note=45 velocity=0 time=339
note_on channel=0 note=33 velocity=0 time=376
note_on channel=0 note=44 velocity=103 time=42
note_on channel=0 note=32 velocity=94 time=6
control_change channel=0 control=64 value=82 time=35
control_change channel=0 control=64 value=14 time=15
control_change channel=0 control=64 value=0 time=16
control_change channel=0 control=64 value=26 time=167
control_change channel=0 control=64 value=45 time=15
control_change channel=0 control=64 value=55 time=15
control_change channel=0 control=64 value=61 time=15
control_change channel=0 control=64 value=64 time=15
control_change channel=0 control=64 value=67 time=16
control_change channel=0 control=64 value=69 time=15
control_change channel=0 control=64 value=71 time=16
control_change channel=0 control=64 value=73 time=14
control_change channel=0 control=64 value=76 time=15
control_change channel=0 control=64 value=80 time=16
control_change channel=0 control=64 value=85 time=15
control_change channel=0 control=64 value=90 time=15
control_change channel=0 control=64 value=94 time=15
control_change channel=0 control=64 value=98 time=15
control_change channel=0 control=64 value=103 time=16
control_change channel=0 control=64 value=110 time=16
control_change channel=0 control=64 value=127 time=15
note_on channel=0 note=49 velocity=0 time=215
note_on channel=0 note=61 velocity=0 time=186
note_on channel=0 note=44 velocity=0 time=266
note_on channel=0 note=74 velocity=66 time=440
note_on channel=0 note=81 velocity=79 time=34
control_change channel=0 control=64 value=70 time=45
control_change channel=0 control=64 value=0 time=15
note_on channel=0 note=32 velocity=0 time=5
note_on channel=0 note=86 velocity=103 time=0
note_on channel=0 note=30 velocity=86 time=2
note_on channel=0 note=42 velocity=90 time=6
note_on channel=0 note=81 velocity=0 time=8
control_change channel=0 control=64 value=60 time=25
note_on channel=0 note=30 velocity=0 time=12
control_change channel=0 control=64 value=69 time=3
note_on channel=0 note=42 velocity=0 time=10
control_change channel=0 control=64 value=82 time=5
control_change channel=0 control=64 value=97 time=15
control_change channel=0 control=64 value=114 time=15
control_change channel=0 control=64 value=127 time=15
note_on channel=0 note=42 velocity=91 time=247
control_change channel=0 control=64 value=96 time=12
control_change channel=0 control=64 value=65 time=15
control_change channel=0 control=64 value=0 time=16
note_on channel=0 note=86 velocity=0 time=46
control_change channel=0 control=64 value=57 time=38
control_change channel=0 control=64 value=64 time=15
control_change channel=0 control=64 value=66 time=15
control_change channel=0 control=64 value=67 time=15
control_change channel=0 control=64 value=69 time=15
control_change channel=0 control=64 value=70 time=16
control_change channel=0 control=64 value=72 time=14
note_on channel=0 note=50 velocity=70 time=0
note_on channel=0 note=78 velocity=79 time=3
control_change channel=0 control=64 value=76 time=12
note_on channel=0 note=74 velocity=0 time=0
control_change channel=0 control=64 value=79 time=16
control_change channel=0 control=64 value=81 time=15
control_change channel=0 control=64 value=83 time=16
note_on channel=0 note=78 velocity=0 time=8
control_change channel=0 control=64 value=84 time=6
note_on channel=0 note=42 velocity=0 time=2
control_change channel=0 control=64 value=85 time=13
control_change channel=0 control=64 value=86 time=16
note_on channel=0 note=57 velocity=74 time=13
note_on channel=0 note=79 velocity=82 time=2
note_on channel=0 note=50 velocity=0 time=12
control_change channel=0 control=64 value=86 time=3
control_change channel=0 control=64 value=88 time=16
control_change channel=0 control=64 value=89 time=15
note_on channel=0 note=79 velocity=0 time=4
control_change channel=0 control=64 value=89 time=12
note_on channel=0 note=81 velocity=90 time=40
control_change channel=0 control=64 value=90 time=5
note_on channel=0 note=57 velocity=0 time=0
note_on channel=0 note=50 velocity=73 time=5
control_change channel=0 control=64 value=90 time=10
control_change channel=0 control=64 value=91 time=16
note_on channel=0 note=81 velocity=0 time=10
note_on channel=0 note=74 velocity=89 time=54
note_on channel=0 note=50 velocity=0 time=7
note_on channel=0 note=57 velocity=66 time=2
note_on channel=0 note=74 velocity=0 time=38
control_change channel=0 control=64 value=92 time=25
note_on channel=0 note=76 velocity=91 time=20
control_change channel=0 control=64 value=91 time=10
note_on channel=0 note=57 velocity=0 time=10
control_change channel=0 control=64 value=89 time=5
note_on channel=0 note=50 velocity=68 time=1
control_change channel=0 control=64 value=86 time=14
note_on channel=0 note=76 velocity=0 time=11
control_change channel=0 control=64 value=79 time=4
control_change channel=0 control=64 value=71 time=15
control_change channel=0 control=64 value=68 time=16
control_change channel=0 control=64 value=74 time=15
note_on channel=0 note=50 velocity=0 time=8
note_on channel=0 note=78 velocity=89 time=0
control_change channel=0 control=64 value=80 time=7
note_on channel=0 note=57 velocity=62 time=14
control_change channel=0 control=64 value=84 time=1
note_on channel=0 note=78 velocity=0 time=11
control_change channel=0 control=64 value=87 time=4
control_change channel=0 control=64 value=89 time=15
control_change channel=0 control=64 value=92 time=16
control_change channel=0 control=64 value=94 time=15
control_change channel=0 control=64 value=95 time=23
control_change channel=0 control=64 value=97 time=15
note_on channel=0 note=57 velocity=0 time=5
note_on channel=0 note=50 velocity=59 time=3
control_change channel=0 control=64 value=99 time=9
control_change channel=0 control=64 value=100 time=15
control_change channel=0 control=64 value=100 time=15
note_on channel=0 note=50 velocity=0 time=61
note_on channel=0 note=57 velocity=56 time=21
note_on channel=0 note=57 velocity=0 time=97
note_on channel=0 note=69 velocity=58 time=14
note_on channel=0 note=50 velocity=54 time=17
control_change channel=0 control=64 value=100 time=3
note_on channel=0 note=69 velocity=0 time=70
control_change channel=0 control=64 value=99 time=6
control_change channel=0 control=64 value=98 time=30
control_change channel=0 control=64 value=92 time=15
note_on channel=0 note=50 velocity=0 time=3
control_change channel=0 control=64 value=81 time=12
note_on channel=0 note=41 velocity=56 time=2
control_change channel=0 control=64 value=64 time=13
note_on channel=0 note=73 velocity=56 time=4
control_change channel=0 control=64 value=0 time=12
control_change channel=0 control=64 value=23 time=15
control_change channel=0 control=64 value=50 time=16
control_change channel=0 control=64 value=55 time=14
control_change channel=0 control=64 value=59 time=15
control_change channel=0 control=64 value=64 time=16
control_change channel=0 control=64 value=66 time=15
control_change channel=0 control=64 value=68 time=14
control_change channel=0 control=64 value=69 time=16
note_on channel=0 note=50 velocity=49 time=13
control_change channel=0 control=64 value=70 time=2
note_on channel=0 note=73 velocity=0 time=11
control_change channel=0 control=64 value=71 time=5
note_on channel=0 note=74 velocity=60 time=4
note_on channel=0 note=41 velocity=0 time=5
control_change channel=0 control=64 value=73 time=6
control_change channel=0 control=64 value=75 time=14
control_change channel=0 control=64 value=77 time=15
control_change channel=0 control=64 value=78 time=15
note_on channel=0 note=74 velocity=0 time=17
note_on channel=0 note=50 velocity=0 time=11
control_change channel=0 control=64 value=79 time=3
control_change channel=0 control=64 value=79 time=15
note_on channel=0 note=57 velocity=52 time=7
control_change channel=0 control=64 value=80 time=8
note_on channel=0 note=65 velocity=55 time=5
note_on channel=0 note=65 velocity=0 time=52
control_change channel=0 control=64 value=80 time=11
control_change channel=0 control=64 value=79 time=16
note_on channel=0 note=57 velocity=0 time=3
note_on channel=0 note=50 velocity=57 time=9
control_change channel=0 control=64 value=78 time=3
note_on channel=0 note=67 velocity=66 time=11
control_change channel=0 control=64 value=77 time=3
control_change channel=0 control=64 value=78 time=48
control_change channel=0 control=64 value=79 time=15
note_on channel=0 note=50 velocity=0 time=10
note_on channel=0 note=67 velocity=0 time=4
control_change channel=0 control=64 value=80 time=1
control_change channel=0 control=64 value=81 time=15
note_on channel=0 note=57 velocity=55 time=3
note_on channel=0 note=69 velocity=72 time=2
control_change channel=0 control=64 value=79 time=41
note_on channel=0 note=69 velocity=0 time=0
control_change channel=0 control=64 value=76 time=14
control_change channel=0 control=64 value=73 time=16
note_on channel=0 note=57 velocity=0 time=13
note_on channel=0 note=62 velocity=70 time=4
note_on channel=0 note=50 velocity=58 time=12
control_change channel=0 control=64 value=74 time=1
control_change channel=0 control=64 value=75 time=16
control_change channel=0 control=64 value=77 time=14
control_change channel=0 control=64 value=78 time=16
note_on channel=0 note=62 velocity=0 time=4
control_change channel=0 control=64 value=80 time=11
control_change channel=0 control=64 value=81 time=15
note_on channel=0 note=50 velocity=0 time=5
note_on channel=0 note=64 velocity=64 time=12
note_on channel=0 note=57 velocity=62 time=5
control_change channel=0 control=64 value=80 time=9
control_change channel=0 control=64 value=76 time=16
control_change channel=0 control=64 value=72 time=15
control_change channel=0 control=64 value=69 time=14
control_change channel=0 control=64 value=71 time=16
note_on channel=0 note=64 velocity=0 time=6
note_on channel=0 note=65 velocity=77 time=7
note_on channel=0 note=57 velocity=0 time=1
control_change channel=0 control=64 value=72 time=1
note_on channel=0 note=50 velocity=61 time=12
control_change channel=0 control=64 value=74 time=3
control_change channel=0 control=64 value=76 time=16
note_on channel=0 note=65 velocity=0 time=10
control_change channel=0 control=64 value=77 time=4
control_change channel=0 control=64 value=76 time=16
control_change channel=0 control=64 value=73 time=15
control_change channel=0 control=64 value=66 time=14
note_on channel=0 note=50 velocity=0 time=3
note_on channel=0 note=57 velocity=76 time=12
control_change channel=0 control=64 value=64 time=1
control_change channel=0 control=64 value=67 time=15
control_change channel=0 control=64 value=69 time=15
control_change channel=0 control=64 value=71 time=16
control_change channel=0 control=64 value=73 time=15
control_change channel=0 control=64 value=77 time=15
control_change channel=0 control=64 value=80 time=15
note_on channel=0 note=61 velocity=65 time=5
note_on channel=0 note=57 velocity=0 time=2
control_change channel=0 control=64 value=82 time=8
note_on channel=0 note=50 velocity=63 time=0
control_change channel=0 control=64 value=83 time=16
control_change channel=0 control=64 value=84 time=15
control_change channel=0 control=64 value=86 time=14
control_change channel=0 control=64 value=90 time=16
control_change channel=0 control=64 value=94 time=15
note_on channel=0 note=61 velocity=0 time=4
note_on channel=0 note=50 velocity=0 time=3
note_on channel=0 note=62 velocity=62 time=6
control_change channel=0 control=64 value=96 time=2
note_on channel=0 note=57 velocity=62 time=14
control_change channel=0 control=64 value=97 time=1
note_on channel=0 note=62 velocity=0 time=12
control_change channel=0 control=64 value=98 time=12
control_change channel=0 control=64 value=100 time=15
control_change channel=0 control=64 value=103 time=15
note_on channel=0 note=57 velocity=0 time=14
control_change channel=0 control=64 value=107 time=1
control_change channel=0 control=64 value=107 time=15
note_on channel=0 note=50 velocity=72 time=13
note_on channel=0 note=50 velocity=0 time=41
control_change channel=0 control=64 value=108 time=23
control_change channel=0 control=64 value=106 time=31
note_on channel=0 note=73 velocity=72 time=13
control_change channel=0 control=64 value=90 time=2
note_on channel=0 note=40 velocity=88 time=9
note_on channel=0 note=81 velocity=70 time=0
note_on channel=0 note=85 velocity=96 time=3
control_change channel=0 control=64 value=69 time=2
control_change channel=0 control=64 value=0 time=16
note_on channel=0 note=81 velocity=0 time=17
control_change channel=0 control=64 value=44 time=29
control_change channel=0 control=64 value=64 time=14
control_change channel=0 control=64 value=73 time=16
control_change channel=0 control=64 value=81 time=15
note_on channel=0 note=49 velocity=86 time=8
control_change channel=0 control=64 value=90 time=8
note_on channel=0 note=85 velocity=0 time=6
control_change channel=0 control=64 value=96 time=9
control_change channel=0 control=64 value=98 time=14
control_change channel=0 control=64 value=99 time=16
control_change channel=0 control=64 value=100 time=15
note_on channel=0 note=73 velocity=0 time=22
note_on channel=0 note=52 velocity=80 time=15
note_on channel=0 note=49 velocity=0 time=12
control_change channel=0 control=64 value=99 time=58
control_change channel=0 control=64 value=99 time=15
note_on channel=0 note=76 velocity=90 time=7
control_change channel=0 control=64 value=97 time=8
note_on channel=0 note=49 velocity=86 time=0
note_on channel=0 note=52 velocity=0 time=5
control_change channel=0 control=64 value=93 time=11
control_change channel=0 control=64 value=85 time=14
note_on channel=0 note=76 velocity=0 time=10
control_change channel=0 control=64 value=74 time=6
control_change channel=0 control=64 value=47 time=15
control_change channel=0 control=64 value=0 time=14
note_on channel=0 note=80 velocity=92 time=11
note_on channel=0 note=49 velocity=0 time=4
note_on channel=0 note=52 velocity=78 time=7
note_on channel=0 note=80 velocity=0 time=33
note_on channel=0 note=81 velocity=96 time=55
note_on channel=0 note=49 velocity=80 time=3
note_on channel=0 note=52 velocity=0 time=2
note_on channel=0 note=81 velocity=0 time=35
note_on channel=0 note=49 velocity=0 time=44
note_on channel=0 note=73 velocity=95 time=25
note_on channel=0 note=52 velocity=68 time=9
note_on channel=0 note=73 velocity=0 time=30
note_on channel=0 note=52 velocity=0 time=55
note_on channel=0 note=74 velocity=92 time=3
note_on channel=0 note=49 velocity=64 time=4
note_on channel=0 note=74 velocity=0 time=36
note_on channel=0 note=49 velocity=0 time=40
note_on channel=0 note=76 velocity=80 time=35
note_on channel=0 note=52 velocity=50 time=14
control_change channel=0 control=64 value=32 time=20
control_change channel=0 control=64 value=58 time=15
control_change channel=0 control=64 value=64 time=16
control_change channel=0 control=64 value=66 time=15
note_on channel=0 note=76 velocity=0 time=4
control_change channel=0 control=64 value=69 time=10
note_on channel=0 note=52 velocity=0 time=9
note_on channel=0 note=49 velocity=61 time=6
control_change channel=0 control=64 value=72 time=1
control_change channel=0 control=64 value=76 time=15
control_change channel=0 control=64 value=80 time=16
control_change channel=0 control=64 value=84 time=15
control_change channel=0 control=64 value=86 time=14
control_change channel=0 control=64 value=88 time=16
note_on channel=0 note=49 velocity=0 time=7
control_change channel=0 control=64 value=90 time=8
control_change channel=0 control=64 value=91 time=16
control_change channel=0 control=64 value=93 time=14
note_on channel=0 note=52 velocity=56 time=0
control_change channel=0 control=64 value=93 time=15
note_on channel=0 note=40 velocity=0 time=17
note_on channel=0 note=52 velocity=0 time=54
note_on channel=0 note=49 velocity=56 time=10
note_on channel=0 note=69 velocity=70 time=9
control_change channel=0 control=64 value=92 time=32
control_change channel=0 control=64 value=91 time=16
note_on channel=0 note=69 velocity=0 time=5
control_change channel=0 control=64 value=90 time=10
control_change channel=0 control=64 value=88 time=14
note_on channel=0 note=49 velocity=0 time=3
control_change channel=0 control=64 value=87 time=13
control_change channel=0 control=64 value=85 time=15
note_on channel=0 note=71 velocity=75 time=13
control_change channel=0 control=64 value=83 time=3
note_on channel=0 note=40 velocity=51 time=1
control_change channel=0 control=64 value=79 time=14
control_change channel=0 control=64 value=76 time=23
control_change channel=0 control=64 value=72 time=15
control_change channel=0 control=64 value=70 time=15
note_on channel=0 note=71 velocity=0 time=13
control_change channel=0 control=64 value=66 time=2
control_change channel=0 control=64 value=58 time=15
control_change channel=0 control=64 value=0 time=15
note_on channel=0 note=72 velocity=72 time=9
note_on channel=0 note=47 velocity=26 time=44
note_on channel=0 note=72 velocity=0 time=5
note_on channel=0 note=48 velocity=16 time=8
note_on channel=0 note=47 velocity=0 time=28
note_on channel=0 note=48 velocity=0 time=15
note_on channel=0 note=64 velocity=74 time=0
note_on channel=0 note=52 velocity=55 time=8
note_on channel=0 note=64 velocity=0 time=49
note_on channel=0 note=52 velocity=0 time=21
note_on channel=0 note=47 velocity=58 time=9
note_on channel=0 note=68 velocity=70 time=15
note_on channel=0 note=47 velocity=0 time=56
note_on channel=0 note=68 velocity=0 time=9
note_on channel=0 note=69 velocity=67 time=29
note_on channel=0 note=52 velocity=50 time=11
note_on channel=0 note=69 velocity=0 time=30
note_on channel=0 note=52 velocity=0 time=46
note_on channel=0 note=60 velocity=63 time=7
note_on channel=0 note=47 velocity=51 time=9
note_on channel=0 note=60 velocity=0 time=25
note_on channel=0 note=47 velocity=0 time=31
control_change channel=0 control=64 value=21 time=38
note_on channel=0 note=62 velocity=55 time=4
control_change channel=0 control=64 value=24 time=11
note_on channel=0 note=52 velocity=49 time=9
control_change channel=0 control=64 value=21 time=7
control_change channel=0 control=64 value=0 time=15
note_on channel=0 note=62 velocity=0 time=16
note_on channel=0 note=64 velocity=57 time=34
note_on channel=0 note=52 velocity=0 time=2
note_on channel=0 note=47 velocity=37 time=25
note_on channel=0 note=64 velocity=0 time=12
note_on channel=0 note=47 velocity=0 time=40
note_on channel=0 note=57 velocity=50 time=38
note_on channel=0 note=52 velocity=40 time=32
note_on channel=0 note=57 velocity=0 time=9
note_on channel=0 note=52 velocity=0 time=34
note_on channel=0 note=59 velocity=52 time=17
note_on channel=0 note=47 velocity=25 time=26
control_change channel=0 control=64 value=30 time=27
note_on channel=0 note=59 velocity=0 time=5
control_change channel=0 control=64 value=58 time=10
note_on channel=0 note=47 velocity=0 time=2
control_change channel=0 control=64 value=65 time=14
control_change channel=0 control=64 value=68 time=15
note_on channel=0 note=52 velocity=48 time=2
control_change channel=0 control=64 value=70 time=13
note_on channel=0 note=60 velocity=25 time=5
control_change channel=0 control=64 value=74 time=10
control_change channel=0 control=64 value=79 time=15
control_change channel=0 control=64 value=83 time=16
note_on channel=0 note=60 velocity=0 time=0
control_change channel=0 control=64 value=87 time=16
note_on channel=0 note=40 velocity=0 time=6
control_change channel=0 control=64 value=92 time=8
control_change channel=0 control=64 value=98 time=16
note_on channel=0 note=47 velocity=57 time=10
control_change channel=0 control=64 value=104 time=5
note_on channel=0 note=52 velocity=0 time=6
control_change channel=0 control=64 value=107 time=10
control_change channel=0 control=64 value=108 time=15
control_change channel=0 control=64 value=108 time=15
control_change channel=0 control=64 value=112 time=15
note_on channel=0 note=78 velocity=70 time=9
control_change channel=0 control=64 value=127 time=6
note_on channel=0 note=47 velocity=0 time=0
note_on channel=0 note=83 velocity=75 time=19
note_on channel=0 note=78 velocity=0 time=14
note_on channel=0 note=90 velocity=101 time=9
control_change channel=0 control=64 value=108 time=4
note_on channel=0 note=39 velocity=89 time=1
control_change channel=0 control=64 value=78 time=15
note_on channel=0 note=83 velocity=0 time=5
control_change channel=0 control=64 value=0 time=10
control_change channel=0 control=64 value=26 time=60
note_on channel=0 note=47 velocity=77 time=11
control_change channel=0 control=64 value=63 time=4
control_change channel=0 control=64 value=70 time=15
control_change channel=0 control=64 value=74 time=16
control_change channel=0 control=64 value=78 time=15
control_change channel=0 control=64 value=82 time=15
control_change channel=0 control=64 value=86 time=15
control_change channel=0 control=64 value=90 time=15
note_on channel=0 note=54 velocity=87 time=5
control_change channel=0 control=64 value=91 time=11
note_on channel=0 note=47 velocity=0 time=0
control_change channel=0 control=64 value=91 time=30
control_change channel=0 control=64 value=92 time=15
control_change channel=0 control=64 value=92 time=15
note_on channel=0 note=47 velocity=75 time=33
note_on channel=0 note=54 velocity=0 time=14
note_on channel=0 note=90 velocity=0 time=1
control_change channel=0 control=64 value=92 time=5
note_on channel=0 note=83 velocity=98 time=1
control_change channel=0 control=64 value=90 time=15
control_change channel=0 control=64 value=86 time=15
control_change channel=0 control=64 value=78 time=16
note_on channel=0 note=83 velocity=0 time=1
control_change channel=0 control=64 value=69 time=13
control_change channel=0 control=64 value=62 time=15
note_on channel=0 note=47 velocity=0 time=0
control_change channel=0 control=64 value=63 time=16
note_on channel=0 note=54 velocity=77 time=0
note_on channel=0 note=85 velocity=96 time=8
control_change channel=0 control=64 value=63 time=7
control_change channel=0 control=64 value=63 time=30
control_change channel=0 control=64 value=62 time=15
note_on channel=0 note=85 velocity=0 time=5
control_change channel=0 control=64 value=62 time=11
control_change channel=0 control=64 value=59 time=15
note_on channel=0 note=54 velocity=0 time=7
note_on channel=0 note=47 velocity=71 time=1
control_change channel=0 control=64 value=36 time=6
note_on channel=0 note=87 velocity=95 time=1
control_change channel=0 control=64 value=0 time=15
note_on channel=0 note=87 velocity=0 time=34
note_on channel=0 note=47 velocity=0 time=27
note_on channel=0 note=54 velocity=71 time=21
note_on channel=0 note=78 velocity=90 time=0
note_on channel=0 note=78 velocity=0 time=52
note_on channel=0 note=82 velocity=85 time=37
note_on channel=0 note=54 velocity=0 time=1
note_on channel=0 note=47 velocity=63 time=11
note_on channel=0 note=82 velocity=0 time=59
note_on channel=0 note=47 velocity=0 time=21
note_on channel=0 note=83 velocity=79 time=9
note_on channel=0 note=54 velocity=59 time=16
control_change channel=0 control=64 value=41 time=17
control_change channel=0 control=64 value=59 time=16
note_on channel=0 note=83 velocity=0 time=9
control_change channel=0 control=64 value=64 time=6
control_change channel=0 control=64 value=66 time=15
control_change channel=0 control=64 value=70 time=15
note_on channel=0 note=54 velocity=0 time=11
control_change channel=0 control=64 value=74 time=4
note_on channel=0 note=47 velocity=63 time=9
control_change channel=0 control=64 value=78 time=7
control_change channel=0 control=64 value=83 time=13
control_change channel=0 control=64 value=86 time=15
control_change channel=0 control=64 value=90 time=16
control_change channel=0 control=64 value=94 time=15
control_change channel=0 control=64 value=96 time=15
note_on channel=0 note=47 velocity=0 time=3
control_change channel=0 control=64 value=97 time=12
note_on channel=0 note=54 velocity=59 time=14
control_change channel=0 control=64 value=98 time=1
note_on channel=0 note=39 velocity=0 time=20
note_on channel=0 note=54 velocity=0 time=9
note_on channel=0 note=75 velocity=62 time=85
control_change channel=0 control=64 value=97 time=1
note_on channel=0 note=47 velocity=45 time=4
control_change channel=0 control=64 value=97 time=26
control_change channel=0 control=64 value=94 time=15
control_change channel=0 control=64 value=87 time=16
note_on channel=0 note=47 velocity=0 time=1
control_change channel=0 control=64 value=76 time=13
note_on channel=0 note=38 velocity=62 time=12
control_change channel=0 control=64 value=61 time=3
note_on channel=0 note=75 velocity=0 time=8
control_change channel=0 control=64 value=0 time=8
note_on channel=0 note=76 velocity=64 time=0
control_change channel=0 control=64 value=14 time=27
control_change channel=0 control=64 value=42 time=16
control_change channel=0 control=64 value=53 time=15
control_change channel=0 control=64 value=60 time=15
note_on channel=0 note=47 velocity=56 time=7
control_change channel=0 control=64 value=63 time=9
note_on channel=0 note=38 velocity=0 time=2
note_on channel=0 note=78 velocity=65 time=1
control_change channel=0 control=64 value=65 time=12
note_on channel=0 note=76 velocity=0 time=0
control_change channel=0 control=64 value=67 time=15
control_change channel=0 control=64 value=68 time=15
control_change channel=0 control=64 value=69 time=15
note_on channel=0 note=78 velocity=0 time=8
control_change channel=0 control=64 value=71 time=8
note_on channel=0 note=47 velocity=0 time=3
control_change channel=0 control=64 value=72 time=12
note_on channel=0 note=54 velocity=56 time=0
note_on channel=0 note=71 velocity=62 time=17
note_on channel=0 note=54 velocity=0 time=42
note_on channel=0 note=71 velocity=0 time=22
note_on channel=0 note=47 velocity=42 time=22
note_on channel=0 note=73 velocity=64 time=3
control_change channel=0 control=64 value=71 time=16
control_change channel=0 control=64 value=72 time=62
note_on channel=0 note=47 velocity=0 time=9
note_on channel=0 note=73 velocity=0 time=3
note_on channel=0 note=74 velocity=65 time=9
control_change channel=0 control=64 value=72 time=9
note_on channel=0 note=54 velocity=49 time=0
control_change channel=0 control=64 value=73 time=15
note_on channel=0 note=74 velocity=0 time=28
note_on channel=0 note=54 velocity=0 time=9
control_change channel=0 control=64 value=72 time=8
control_change channel=0 control=64 value=70 time=15
note_on channel=0 note=66 velocity=66 time=12
control_change channel=0 control=64 value=68 time=4
control_change channel=0 control=64 value=66 time=15
note_on channel=0 note=47 velocity=47 time=7
control_change channel=0 control=64 value=67 time=23
control_change channel=0 control=64 value=68 time=15
note_on channel=0 note=47 velocity=0 time=15
control_change channel=0 control=64 value=69 time=1
control_change channel=0 control=64 value=69 time=15
note_on channel=0 note=66 velocity=0 time=20
note_on channel=0 note=54 velocity=45 time=12
note_on channel=0 note=70 velocity=47 time=13
control_change channel=0 control=64 value=69 time=8
control_change channel=0 control=64 value=68 time=16
control_change channel=0 control=64 value=66 time=15
note_on channel=0 note=54 velocity=0 time=9
control_change channel=0 control=64 value=67 time=5
control_change channel=0 control=64 value=68 time=16
note_on channel=0 note=70 velocity=0 time=7
note_on channel=0 note=47 velocity=41 time=6
control_change channel=0 control=64 value=68 time=2
note_on channel=0 note=71 velocity=55 time=1
control_change channel=0 control=64 value=69 time=15
control_change channel=0 control=64 value=69 time=15
note_on channel=0 note=71 velocity=0 time=21
note_on channel=0 note=47 velocity=0 time=42
note_on channel=0 note=62 velocity=54 time=11
control_change channel=0 control=64 value=70 time=2
note_on channel=0 note=54 velocity=41 time=10
control_change channel=0 control=64 value=69 time=20
control_change channel=0 control=64 value=67 time=15
control_change channel=0 control=64 value=64 time=14
note_on channel=0 note=62 velocity=0 time=17
note_on channel=0 note=54 velocity=0 time=4
control_change channel=0 control=64 value=66 time=10
note_on channel=0 note=64 velocity=52 time=11
control_change channel=0 control=64 value=66 time=4
control_change channel=0 control=64 value=67 time=16
note_on channel=0 note=47 velocity=46 time=6
control_change channel=0 control=64 value=69 time=8
control_change channel=0 control=64 value=70 time=16
control_change channel=0 control=64 value=71 time=15
control_change channel=0 control=64 value=72 time=15
note_on channel=0 note=64 velocity=0 time=8
note_on channel=0 note=47 velocity=0 time=7
control_change channel=0 control=64 value=73 time=1
note_on channel=0 note=66 velocity=48 time=15
control_change channel=0 control=64 value=74 time=1
control_change channel=0 control=64 value=75 time=15
note_on channel=0 note=54 velocity=31 time=6
control_change channel=0 control=64 value=77 time=9
control_change channel=0 control=64 value=79 time=15
note_on channel=0 note=66 velocity=0 time=13
control_change channel=0 control=64 value=81 time=3
control_change channel=0 control=64 value=83 time=14
note_on channel=0 note=54 velocity=0 time=12
control_change channel=0 control=64 value=84 time=3
control_change channel=0 control=64 value=85 time=16
control_change channel=0 control=64 value=86 time=15
control_change channel=0 control=64 value=87 time=16
note_on channel=0 note=47 velocity=40 time=14
control_change channel=0 control=64 value=88 time=1
control_change channel=0 control=64 value=88 time=15
note_on channel=0 note=47 velocity=0 time=37
control_change channel=0 control=64 value=88 time=139
note_on channel=0 note=38 velocity=42 time=2
control_change channel=0 control=64 value=86 time=12
control_change channel=0 control=64 value=82 time=15
control_change channel=0 control=64 value=75 time=16
note_on channel=0 note=65 velocity=44 time=3
control_change channel=0 control=64 value=66 time=12
control_change channel=0 control=64 value=59 time=16
control_change channel=0 control=64 value=64 time=14
control_change channel=0 control=64 value=66 time=15
control_change channel=0 control=64 value=66 time=16
control_change channel=0 control=64 value=68 time=15
note_on channel=0 note=65 velocity=0 time=6
control_change channel=0 control=64 value=69 time=10
note_on channel=0 note=69 velocity=59 time=6
note_on channel=0 note=38 velocity=0 time=4
note_on channel=0 note=45 velocity=51 time=2
control_change channel=0 control=64 value=71 time=3
control_change channel=0 control=64 value=73 time=15
control_change channel=0 control=64 value=75 time=15
control_change channel=0 control=64 value=76 time=15
note_on channel=0 note=45 velocity=0 time=6
control_change channel=0 control=64 value=77 time=9
control_change channel=0 control=64 value=79 time=16
note_on channel=0 note=71 velocity=74 time=12
control_change channel=0 control=64 value=81 time=3
note_on channel=0 note=53 velocity=53 time=0
control_change channel=0 control=64 value=83 time=15
note_on channel=0 note=69 velocity=0 time=0
control_change channel=0 control=64 value=86 time=15
control_change channel=0 control=64 value=87 time=15
control_change channel=0 control=64 value=87 time=31
note_on channel=0 note=53 velocity=0 time=1
note_on channel=0 note=74 velocity=80 time=5
note_on channel=0 note=45 velocity=54 time=4
note_on channel=0 note=71 velocity=0 time=2
control_change channel=0 control=64 value=88 time=2
control_change channel=0 control=64 value=90 time=16
control_change channel=0 control=64 value=92 time=15
note_on channel=0 note=74 velocity=0 time=5
control_change channel=0 control=64 value=93 time=11
control_change channel=0 control=64 value=93 time=15
note_on channel=0 note=45 velocity=0 time=1
note_on channel=0 note=77 velocity=88 time=34
control_change channel=0 control=64 value=95 time=10
note_on channel=0 note=53 velocity=55 time=2
control_change channel=0 control=64 value=96 time=15
control_change channel=0 control=64 value=97 time=15
note_on channel=0 note=53 velocity=0 time=45
note_on channel=0 note=81 velocity=89 time=7
note_on channel=0 note=45 velocity=59 time=4
note_on channel=0 note=77 velocity=0 time=17
note_on channel=0 note=45 velocity=0 time=50
note_on channel=0 note=83 velocity=86 time=32
note_on channel=0 note=53 velocity=56 time=17
note_on channel=0 note=81 velocity=0 time=3
note_on channel=0 note=53 velocity=0 time=75
note_on channel=0 note=83 velocity=0 time=20
note_on channel=0 note=86 velocity=80 time=0
note_on channel=0 note=45 velocity=51 time=3
note_on channel=0 note=45 velocity=0 time=53
note_on channel=0 note=86 velocity=0 time=4
note_on channel=0 note=53 velocity=57 time=55
note_on channel=0 note=53 velocity=0 time=52
note_on channel=0 note=45 velocity=46 time=35
note_on channel=0 note=45 velocity=0 time=46
note_on channel=0 note=53 velocity=52 time=54
note_on channel=0 note=53 velocity=0 time=85
note_on channel=0 note=45 velocity=48 time=12
control_change channel=0 control=64 value=97 time=7
control_change channel=0 control=64 value=96 time=15
note_on channel=0 note=45 velocity=0 time=89
note_on channel=0 note=38 velocity=58 time=16
note_on channel=0 note=64 velocity=58 time=1
control_change channel=0 control=64 value=95 time=47
control_change channel=0 control=64 value=90 time=14
control_change channel=0 control=64 value=79 time=16
control_change channel=0 control=64 value=62 time=15
note_on channel=0 note=64 velocity=0 time=2
note_on channel=0 note=44 velocity=58 time=3
note_on channel=0 note=68 velocity=72 time=1
control_change channel=0 control=64 value=0 time=10
note_on channel=0 note=44 velocity=0 time=70
control_change channel=0 control=64 value=50 time=5
control_change channel=0 control=64 value=63 time=16
note_on channel=0 note=71 velocity=78 time=4
note_on channel=0 note=52 velocity=59 time=3
control_change channel=0 control=64 value=65 time=7
control_change channel=0 control=64 value=67 time=24
note_on channel=0 note=68 velocity=0 time=0
control_change channel=0 control=64 value=67 time=15
control_change channel=0 control=64 value=68 time=15
control_change channel=0 control=64 value=69 time=15
note_on channel=0 note=52 velocity=0 time=8
note_on channel=0 note=74 velocity=86 time=5
control_change channel=0 control=64 value=68 time=2
note_on channel=0 note=44 velocity=62 time=4
control_change channel=0 control=64 value=65 time=12
note_on channel=0 note=71 velocity=0 time=4
control_change channel=0 control=64 value=57 time=11
control_change channel=0 control=64 value=27 time=14
note_on channel=0 note=74 velocity=0 time=10
control_change channel=0 control=64 value=29 time=6
control_change channel=0 control=64 value=46 time=15
note_on channel=0 note=44 velocity=0 time=4
control_change channel=0 control=64 value=55 time=12
control_change channel=0 control=64 value=61 time=15
note_on channel=0 note=52 velocity=60 time=7
note_on channel=0 note=76 velocity=89 time=0
control_change channel=0 control=64 value=64 time=7
control_change channel=0 control=64 value=66 time=16
control_change channel=0 control=64 value=67 time=15
control_change channel=0 control=64 value=66 time=14
control_change channel=0 control=64 value=65 time=16
note_on channel=0 note=52 velocity=0 time=7
control_change channel=0 control=64 value=62 time=8
note_on channel=0 note=44 velocity=56 time=11
note_on channel=0 note=80 velocity=79 time=0
control_change channel=0 control=64 value=56 time=5
note_on channel=0 note=76 velocity=0 time=9
control_change channel=0 control=64 value=50 time=6
note_on channel=0 note=44 velocity=0 time=42
control_change channel=0 control=64 value=50 time=18
control_change channel=0 control=64 value=47 time=16
note_on channel=0 note=83 velocity=77 time=3
control_change channel=0 control=64 value=43 time=12
note_on channel=0 note=52 velocity=50 time=3
note_on channel=0 note=80 velocity=0 time=12
control_change channel=0 control=64 value=42 time=1
note_on channel=0 note=52 velocity=0 time=68
control_change channel=0 control=64 value=43 time=8
note_on channel=0 note=44 velocity=46 time=6
note_on channel=0 note=86 velocity=65 time=0
note_on channel=0 note=83 velocity=0 time=8
control_change channel=0 control=64 value=46 time=1
control_change channel=0 control=64 value=49 time=15
control_change channel=0 control=64 value=51 time=15
control_change channel=0 control=64 value=53 time=15
control_change channel=0 control=64 value=56 time=15
note_on channel=0 note=44 velocity=0 time=5
control_change channel=0 control=64 value=59 time=11
control_change channel=0 control=64 value=61 time=15
control_change channel=0 control=64 value=64 time=16
note_on channel=0 note=86 velocity=0 time=5
note_on channel=0 note=52 velocity=44 time=3
control_change channel=0 control=64 value=65 time=7
control_change channel=0 control=64 value=67 time=15
control_change channel=0 control=64 value=68 time=15
control_change channel=0 control=64 value=70 time=15
control_change channel=0 control=64 value=73 time=14
note_on channel=0 note=52 velocity=0 time=5
control_change channel=0 control=64 value=77 time=11
control_change channel=0 control=64 value=81 time=15
note_on channel=0 note=44 velocity=36 time=5
control_change channel=0 control=64 value=83 time=11
control_change channel=0 control=64 value=87 time=15
control_change channel=0 control=64 value=92 time=14
control_change channel=0 control=64 value=95 time=16
control_change channel=0 control=64 value=96 time=23
note_on channel=0 note=38 velocity=0 time=28
note_on channel=0 note=44 velocity=0 time=10
control_change channel=0 control=64 value=97 time=7
note_on channel=0 note=52 velocity=37 time=8
control_change channel=0 control=64 value=98 time=8
control_change channel=0 control=64 value=99 time=15
note_on channel=0 note=52 velocity=0 time=75
note_on channel=0 note=44 velocity=39 time=14
control_change channel=0 control=64 value=98 time=138
control_change channel=0 control=64 value=96 time=15
note_on channel=0 note=44 velocity=0 time=0
note_on channel=0 note=64 velocity=41 time=12
control_change channel=0 control=64 value=90 time=4
note_on channel=0 note=38 velocity=40 time=1
control_change channel=0 control=64 value=79 time=14
control_change channel=0 control=64 value=66 time=15
control_change channel=0 control=64 value=0 time=16
control_change channel=0 control=64 value=42 time=31
control_change channel=0 control=64 value=47 time=14
control_change channel=0 control=64 value=52 time=15
note_on channel=0 note=64 velocity=0 time=12
note_on channel=0 note=68 velocity=59 time=1
control_change channel=0 control=64 value=58 time=3
note_on channel=0 note=44 velocity=40 time=6
control_change channel=0 control=64 value=62 time=9
control_change channel=0 control=64 value=64 time=15
control_change channel=0 control=64 value=65 time=15
control_change channel=0 control=64 value=67 time=15
note_on channel=0 note=44 velocity=0 time=3
control_change channel=0 control=64 value=68 time=13
control_change channel=0 control=64 value=67 time=15
control_change channel=0 control=64 value=64 time=15
note_on channel=0 note=71 velocity=58 time=4
note_on channel=0 note=52 velocity=47 time=4
control_change channel=0 control=64 value=62 time=7
control_change channel=0 control=67 value=8 time=0
control_change channel=0 control=64 value=61 time=15
control_change channel=0 control=67 value=9 time=0
note_on channel=0 note=68 velocity=0 time=14
control_change channel=0 control=64 value=62 time=2
control_change channel=0 control=67 value=10 time=0
control_change channel=0 control=64 value=63 time=16
control_change channel=0 control=67 value=12 time=0
note_on channel=0 note=52 velocity=0 time=12
control_change channel=0 control=64 value=65 time=3
control_change channel=0 control=67 value=14 time=0
control_change channel=0 control=64 value=66 time=16
control_change channel=0 control=67 value=16 time=0
control_change channel=0 control=64 value=68 time=14
control_change channel=0 control=67 value=18 time=0
note_on channel=0 note=44 velocity=43 time=1
note_on channel=0 note=75 velocity=70 time=0
note_on channel=0 note=71 velocity=0 time=2
control_change channel=0 control=64 value=71 time=12
control_change channel=0 control=67 value=20 time=0
control_change channel=0 control=64 value=72 time=16
control_change channel=0 control=67 value=21 time=0
control_change channel=0 control=64 value=73 time=15
control_change channel=0 control=67 value=22 time=0
note_on channel=0 note=75 velocity=0 time=7
control_change channel=0 control=67 value=23 time=8
note_on channel=0 note=44 velocity=0 time=5
control_change channel=0 control=67 value=25 time=10
control_change channel=0 control=67 value=26 time=23
control_change channel=0 control=64 value=73 time=15
control_change channel=0 control=67 value=26 time=0
note_on channel=0 note=76 velocity=73 time=8
note_on channel=0 note=52 velocity=44 time=2
control_change channel=0 control=64 value=72 time=5
control_change channel=0 control=64 value=71 time=16
control_change channel=0 control=67 value=27 time=0
control_change channel=0 control=64 value=70 time=15
control_change channel=0 control=67 value=27 time=0
control_change channel=0 control=64 value=70 time=15
control_change channel=0 control=67 value=28 time=0
control_change channel=0 control=67 value=28 time=15
control_change channel=0 control=64 value=69 time=15
note_on channel=0 note=52 velocity=0 time=14
control_change channel=0 control=64 value=67 time=2
note_on channel=0 note=76 velocity=0 time=9
control_change channel=0 control=64 value=65 time=6
control_change channel=0 control=67 value=29 time=0
note_on channel=0 note=80 velocity=66 time=2
control_change channel=0 control=64 value=65 time=13
note_on channel=0 note=44 velocity=38 time=0
control_change channel=0 control=64 value=64 time=15
control_change channel=0 control=64 value=61 time=15
control_change channel=0 control=64 value=46 time=15
control_change channel=0 control=64 value=0 time=16
control_change channel=0 control=67 value=28 time=0
note_on channel=0 note=44 velocity=0 time=21
note_on channel=0 note=83 velocity=57 time=33
control_change channel=0 control=67 value=29 time=6
note_on channel=0 note=80 velocity=0 time=9
note_on channel=0 note=52 velocity=29 time=4
control_change channel=0 control=67 value=29 time=17
control_change channel=0 control=67 value=30 time=15
control_change channel=0 control=67 value=33 time=16
control_change channel=0 control=67 value=37 time=15
control_change channel=0 control=67 value=39 time=16
control_change channel=0 control=67 value=41 time=14
control_change channel=0 control=67 value=42 time=15
note_on channel=0 note=52 velocity=0 time=10
note_on channel=0 note=87 velocity=59 time=3
control_change channel=0 control=67 value=43 time=3
control_change channel=0 control=67 value=45 time=15
note_on channel=0 note=83 velocity=0 time=6
control_change channel=0 control=67 value=47 time=10
note_on channel=0 note=44 velocity=31 time=6
control_change channel=0 control=67 value=49 time=9
control_change channel=0 control=67 value=49 time=15
control_change channel=0 control=67 value=50 time=15
control_change channel=0 control=67 value=50 time=30
note_on channel=0 note=44 velocity=0 time=12
control_change channel=0 control=64 value=17 time=4
control_change channel=0 control=64 value=37 time=15
control_change channel=0 control=64 value=49 time=16
note_on channel=0 note=52 velocity=27 time=11
control_change channel=0 control=64 value=57 time=3
control_change channel=0 control=64 value=61 time=15
control_change channel=0 control=67 value=50 time=0
control_change channel=0 control=64 value=63 time=16
control_change channel=0 control=64 value=64 time=16
control_change channel=0 control=64 value=66 time=14
control_change channel=0 control=67 value=49 time=0
note_on channel=0 note=87 velocity=0 time=15
control_change channel=0 control=64 value=67 time=1
control_change channel=0 control=64 value=68 time=15
control_change channel=0 control=64 value=69 time=16
note_on channel=0 note=52 velocity=0 time=1
control_change channel=0 control=64 value=70 time=14
control_change channel=0 control=64 value=71 time=15
control_change channel=0 control=67 value=49 time=0
note_on channel=0 note=44 velocity=32 time=13
control_change channel=0 control=64 value=72 time=3
control_change channel=0 control=64 value=73 time=22
control_change channel=0 control=64 value=74 time=16
control_change channel=0 control=64 value=76 time=15
control_change channel=0 control=64 value=77 time=16
control_change channel=0 control=67 value=48 time=0
control_change channel=0 control=64 value=78 time=14
control_change channel=0 control=64 value=80 time=15
note_on channel=0 note=44 velocity=0 time=12
control_change channel=0 control=64 value=81 time=4
control_change channel=0 control=64 value=83 time=15
control_change channel=0 control=64 value=84 time=15
note_on channel=0 note=38 velocity=0 time=11
note_on channel=0 note=52 velocity=23 time=1
control_change channel=0 control=64 value=85 time=3
control_change channel=0 control=64 value=86 time=15
control_change channel=0 control=64 value=87 time=16
control_change channel=0 control=64 value=88 time=15
control_change channel=0 control=64 value=90 time=15
control_change channel=0 control=64 value=91 time=15
control_change channel=0 control=64 value=91 time=15
control_change channel=0 control=64 value=92 time=31
control_change channel=0 control=67 value=48 time=31
note_on channel=0 note=52 velocity=0 time=48
note_on channel=0 note=44 velocity=37 time=37
note_on channel=0 note=44 velocity=0 time=49
note_on channel=0 note=76 velocity=35 time=301
control_change channel=0 control=67 value=47 time=57
note_on channel=0 note=81 velocity=46 time=14
control_change channel=0 control=64 value=89 time=92
control_change channel=0 control=64 value=86 time=15
note_on channel=0 note=88 velocity=74 time=12
control_change channel=0 control=64 value=80 time=3
note_on channel=0 note=37 velocity=35 time=5
control_change channel=0 control=64 value=71 time=11
control_change channel=0 control=64 value=56 time=15
control_change channel=0 control=64 value=0 time=15
control_change channel=0 control=64 value=24 time=60
control_change channel=0 control=67 value=46 time=0
control_change channel=0 control=64 value=54 time=15
control_change channel=0 control=64 value=63 time=16
control_change channel=0 control=67 value=46 time=0
control_change channel=0 control=64 value=67 time=15
control_change channel=0 control=67 value=45 time=0
control_change channel=0 control=64 value=70 time=15
control_change channel=0 control=67 value=45 time=0
control_change channel=0 control=64 value=73 time=16
control_change channel=0 control=67 value=44 time=0
control_change channel=0 control=64 value=75 time=15
control_change channel=0 control=67 value=44 time=0
note_on channel=0 note=37 velocity=0 time=0
control_change channel=0 control=64 value=76 time=15
control_change channel=0 control=64 value=78 time=16
control_change channel=0 control=64 value=79 time=14
control_change channel=0 control=67 value=43 time=0
control_change channel=0 control=64 value=81 time=16
note_on channel=0 note=40 velocity=44 time=0
control_change channel=0 control=64 value=81 time=15
control_change channel=0 control=67 value=43 time=0
control_change channel=0 control=64 value=82 time=15
control_change channel=0 control=64 value=82 time=16
note_on channel=0 note=40 velocity=0 time=3
control_change channel=0 control=64 value=83 time=11
control_change channel=0 control=64 value=83 time=15
control_change channel=0 control=64 value=84 time=16
control_change channel=0 control=64 value=85 time=15
control_change channel=0 control=64 value=86 time=16
control_change channel=0 control=64 value=86 time=14
control_change channel=0 control=64 value=87 time=15
note_on channel=0 note=44 velocity=58 time=6
control_change channel=0 control=64 value=88 time=10
note_on channel=0 note=76 velocity=0 time=7
note_on channel=0 note=44 velocity=0 time=18
control_change channel=0 control=64 value=86 time=5
note_on channel=0 note=88 velocity=0 time=6
control_change channel=0 control=64 value=83 time=9
control_change channel=0 control=64 value=79 time=15
control_change channel=0 control=67 value=43 time=0
control_change channel=0 control=64 value=77 time=16
control_change channel=0 control=64 value=78 time=29
control_change channel=0 control=67 value=43 time=0
control_change channel=0 control=64 value=79 time=16
note_on channel=0 note=45 velocity=46 time=6
control_change channel=0 control=64 value=81 time=9
control_change channel=0 control=64 value=83 time=16
control_change channel=0 control=67 value=42 time=0
note_on channel=0 note=45 velocity=0 time=9
control_change channel=0 control=64 value=85 time=5
control_change channel=0 control=64 value=87 time=15
control_change channel=0 control=67 value=42 time=0
control_change channel=0 control=64 value=88 time=24
control_change channel=0 control=67 value=41 time=0
control_change channel=0 control=64 value=89 time=16
control_change channel=0 control=64 value=89 time=16
control_change channel=0 control=67 value=41 time=0
control_change channel=0 control=64 value=90 time=15
control_change channel=0 control=67 value=40 time=0
note_on channel=0 note=37 velocity=51 time=9
control_change channel=0 control=64 value=92 time=5
control_change channel=0 control=67 value=39 time=0
control_change channel=0 control=64 value=94 time=16
control_change channel=0 control=64 value=94 time=15
control_change channel=0 control=67 value=38 time=30
control_change channel=0 control=67 value=38 time=15
control_change channel=0 control=67 value=37 time=16
note_on channel=0 note=37 velocity=0 time=2
note_on channel=0 note=85 velocity=84 time=7
note_on channel=0 note=81 velocity=0 time=1
control_change channel=0 control=67 value=37 time=5
note_on channel=0 note=73 velocity=61 time=13
control_change channel=0 control=67 value=35 time=2
note_on channel=0 note=40 velocity=47 time=14
control_change channel=0 control=67 value=34 time=1
control_change channel=0 control=67 value=32 time=15
note_on channel=0 note=73 velocity=0 time=4
control_change channel=0 control=67 value=32 time=12
note_on channel=0 note=85 velocity=0 time=1
control_change channel=0 control=67 value=31 time=13
control_change channel=0 control=67 value=30 time=15
control_change channel=0 control=67 value=30 time=16
control_change channel=0 control=64 value=94 time=15
control_change channel=0 control=67 value=29 time=0
control_change channel=0 control=64 value=90 time=16
control_change channel=0 control=67 value=28 time=0
note_on channel=0 note=83 velocity=86 time=5
control_change channel=0 control=64 value=84 time=9
control_change channel=0 control=67 value=27 time=0
note_on channel=0 note=71 velocity=66 time=9
control_change channel=0 control=64 value=75 time=6
control_change channel=0 control=67 value=25 time=0
note_on channel=0 note=44 velocity=53 time=0
control_change channel=0 control=64 value=70 time=16
control_change channel=0 control=67 value=24 time=0
control_change channel=0 control=64 value=71 time=15
control_change channel=0 control=67 value=21 time=0
control_change channel=0 control=64 value=74 time=15
control_change channel=0 control=67 value=19 time=0
note_on channel=0 note=40 velocity=0 time=9
control_change channel=0 control=64 value=77 time=7
control_change channel=0 control=67 value=17 time=0
control_change channel=0 control=64 value=80 time=15
control_change channel=0 control=67 value=15 time=0
control_change channel=0 control=64 value=85 time=15
control_change channel=0 control=67 value=12 time=0
control_change channel=0 control=64 value=91 time=15
control_change channel=0 control=67 value=9 time=0
note_on channel=0 note=45 velocity=51 time=11
control_change channel=0 control=64 value=95 time=4
control_change channel=0 control=67 value=0 time=0
control_change channel=0 control=64 value=97 time=16
note_on channel=0 note=71 velocity=0 time=6
control_change channel=0 control=64 value=98 time=9
note_on channel=0 note=83 velocity=0 time=3
control_change channel=0 control=64 value=98 time=12
note_on channel=0 note=44 velocity=0 time=4
note_on channel=0 note=37 velocity=59 time=82
note_on channel=0 note=81 velocity=90 time=0
note_on channel=0 note=69 velocity=76 time=7
control_change channel=0 control=64 value=98 time=26
note_on channel=0 note=45 velocity=0 time=1
note_on channel=0 note=37 velocity=0 time=6
note_on channel=0 note=69 velocity=0 time=4
note_on channel=0 note=81 velocity=0 time=22
control_change channel=0 control=64 value=97 time=29
control_change channel=0 control=64 value=96 time=15
control_change channel=0 control=64 value=95 time=16
note_on channel=0 note=81 velocity=78 time=12
control_change channel=0 control=64 value=92 time=2
note_on channel=0 note=38 velocity=61 time=14
control_change channel=0 control=64 value=88 time=1
note_on channel=0 note=69 velocity=56 time=0
note_on channel=0 note=77 velocity=52 time=20
note_on channel=0 note=74 velocity=47 time=2
control_change channel=0 control=64 value=83 time=1
control_change channel=0 control=64 value=77 time=15
note_on channel=0 note=38 velocity=0 time=15
control_change channel=0 control=64 value=68 time=1
control_change channel=0 control=64 value=53 time=14
control_change channel=0 control=64 value=38 time=17
control_change channel=0 control=64 value=48 time=15
control_change channel=0 control=64 value=53 time=15
control_change channel=0 control=64 value=56 time=16
note_on channel=0 note=41 velocity=72 time=8
control_change channel=0 control=64 value=59 time=6
control_change channel=0 control=64 value=62 time=15
control_change channel=0 control=64 value=64 time=16
note_on channel=0 note=41 velocity=0 time=10
control_change channel=0 control=64 value=65 time=5
control_change channel=0 control=64 value=64 time=30
control_change channel=0 control=64 value=59 time=15
control_change channel=0 control=64 value=24 time=16
note_on channel=0 note=45 velocity=72 time=11
control_change channel=0 control=64 value=0 time=4
note_on channel=0 note=45 velocity=0 time=27
control_change channel=0 control=64 value=40 time=18
control_change channel=0 control=64 value=54 time=16
control_change channel=0 control=64 value=60 time=15
control_change channel=0 control=64 value=61 time=15
note_on channel=0 note=47 velocity=67 time=19
control_change channel=0 control=64 value=61 time=12
control_change channel=0 control=64 value=64 time=16
control_change channel=0 control=64 value=66 time=14
note_on channel=0 note=47 velocity=0 time=12
control_change channel=0 control=64 value=68 time=3
control_change channel=0 control=64 value=69 time=16
control_change channel=0 control=64 value=69 time=15
control_change channel=0 control=64 value=70 time=15
control_change channel=0 control=64 value=71 time=15
note_on channel=0 note=69 velocity=0 time=0
control_change channel=0 control=64 value=72 time=15
note_on channel=0 note=38 velocity=62 time=3
note_on channel=0 note=38 velocity=0 time=41
note_on channel=0 note=81 velocity=0 time=71
note_on channel=0 note=41 velocity=52 time=17
control_change channel=0 control=64 value=72 time=6
control_change channel=0 control=64 value=71 time=30
control_change channel=0 control=64 value=71 time=46
control_change channel=0 control=64 value=68 time=15
control_change channel=0 control=64 value=64 time=14
note_on channel=0 note=41 velocity=0 time=3
control_change channel=0 control=64 value=26 time=13
note_on channel=0 note=44 velocity=43 time=16
control_change channel=0 control=64 value=0 time=7
note_on channel=0 note=80 velocity=59 time=0
note_on channel=0 note=68 velocity=49 time=3
note_on channel=0 note=74 velocity=0 time=32
control_change channel=0 control=64 value=19 time=10
control_change channel=0 control=64 value=45 time=16
note_on channel=0 note=77 velocity=0 time=5
control_change channel=0 control=64 value=59 time=10
note_on channel=0 note=68 velocity=0 time=12
control_change channel=0 control=64 value=64 time=3
control_change channel=0 control=64 value=68 time=15
note_on channel=0 note=44 velocity=0 time=7
control_change channel=0 control=64 value=70 time=10
note_on channel=0 note=47 velocity=39 time=9
control_change channel=0 control=64 value=73 time=7
control_change channel=0 control=64 value=75 time=14
note_on channel=0 note=80 velocity=0 time=1
control_change channel=0 control=64 value=78 time=14
control_change channel=0 control=64 value=81 time=16
control_change channel=0 control=64 value=84 time=14
control_change channel=0 control=64 value=86 time=16
control_change channel=0 control=64 value=87 time=15
control_change channel=0 control=64 value=88 time=15
control_change channel=0 control=64 value=88 time=16
note_on channel=0 note=38 velocity=43 time=1
note_on channel=0 note=47 velocity=0 time=3
control_change channel=0 control=64 value=89 time=10
note_on channel=0 note=38 velocity=0 time=22
note_on channel=0 note=76 velocity=51 time=104
control_change channel=0 control=64 value=88 time=26
note_on channel=0 note=81 velocity=60 time=7
control_change channel=0 control=64 value=87 time=8
control_change channel=0 control=64 value=87 time=16
control_change channel=0 control=64 value=86 time=15
note_on channel=0 note=88 velocity=76 time=3
control_change channel=0 control=64 value=81 time=11
note_on channel=0 note=37 velocity=49 time=0
control_change channel=0 control=64 value=72 time=16
control_change channel=0 control=64 value=57 time=15
control_change channel=0 control=64 value=54 time=16
control_change channel=0 control=64 value=60 time=15
control_change channel=0 control=64 value=62 time=15
note_on channel=0 note=37 velocity=0 time=0
control_change channel=0 control=64 value=63 time=16
control_change channel=0 control=64 value=64 time=14
control_change channel=0 control=64 value=66 time=15
note_on channel=0 note=40 velocity=60 time=11
control_change channel=0 control=64 value=70 time=5
control_change channel=0 control=64 value=72 time=15
control_change channel=0 control=64 value=73 time=16
note_on channel=0 note=40 velocity=0 time=6
control_change channel=0 control=64 value=74 time=8
control_change channel=0 control=64 value=75 time=15
control_change channel=0 control=64 value=75 time=16
control_change channel=0 control=64 value=72 time=30
note_on channel=0 note=44 velocity=64 time=8
control_change channel=0 control=64 value=65 time=15
control_change channel=0 control=64 value=0 time=15
note_on channel=0 note=44 velocity=0 time=7
note_on channel=0 note=76 velocity=0 time=21
control_change channel=0 control=64 value=38 time=33
control_change channel=0 control=64 value=61 time=15
control_change channel=0 control=64 value=66 time=16
note_on channel=0 note=45 velocity=63 time=2
control_change channel=0 control=64 value=68 time=13
control_change channel=0 control=64 value=68 time=30
note_on channel=0 note=88 velocity=0 time=4
note_on channel=0 note=45 velocity=0 time=2
control_change channel=0 control=64 value=69 time=9
control_change channel=0 control=64 value=71 time=17
control_change channel=0 control=64 value=74 time=15
control_change channel=0 control=64 value=76 time=14
control_change channel=0 control=64 value=76 time=16
note_on channel=0 note=37 velocity=51 time=8
control_change channel=0 control=64 value=77 time=7
control_change channel=0 control=64 value=78 time=16
control_change channel=0 control=64 value=80 time=15
control_change channel=0 control=64 value=82 time=14
control_change channel=0 control=64 value=82 time=31
control_change channel=0 control=64 value=83 time=15
control_change channel=0 control=64 value=84 time=16
note_on channel=0 note=85 velocity=89 time=1
note_on channel=0 note=73 velocity=71 time=9
note_on channel=0 note=81 velocity=0 time=0
control_change channel=0 control=64 value=85 time=4
note_on channel=0 note=40 velocity=54 time=2
control_change channel=0 control=64 value=86 time=14
note_on channel=0 note=37 velocity=0 time=0
note_on channel=0 note=85 velocity=0 time=38
note_on channel=0 note=73 velocity=0 time=2
control_change channel=0 control=64 value=85 time=65
note_on channel=0 note=83 velocity=85 time=14
control_change channel=0 control=64 value=82 time=2
note_on channel=0 note=71 velocity=63 time=14
control_change channel=0 control=64 value=76 time=1
note_on channel=0 note=43 velocity=51 time=2
control_change channel=0 control=64 value=67 time=13
control_change channel=0 control=64 value=0 time=16
note_on channel=0 note=40 velocity=0 time=10
control_change channel=0 control=64 value=54 time=20
control_change channel=0 control=64 value=64 time=15
control_change channel=0 control=64 value=68 time=15
control_change channel=0 control=64 value=71 time=16
note_on channel=0 note=49 velocity=61 time=2
control_change channel=0 control=64 value=75 time=13
control_change channel=0 control=64 value=80 time=15
note_on channel=0 note=71 velocity=0 time=7
control_change channel=0 control=64 value=86 time=9
control_change channel=0 control=64 value=90 time=14
control_change channel=0 control=64 value=93 time=16
control_change channel=0 control=64 value=95 time=15
note_on channel=0 note=83 velocity=0 time=14
control_change channel=0 control=64 value=96 time=1
note_on channel=0 note=49 velocity=0 time=9
control_change channel=0 control=64 value=97 time=7
control_change channel=0 control=64 value=98 time=21
note_on channel=0 note=37 velocity=60 time=17
note_on channel=0 note=82 velocity=92 time=4
note_on channel=0 note=70 velocity=78 time=10
note_on channel=0 note=43 velocity=0 time=38
note_on channel=0 note=37 velocity=0 time=2
note_on channel=0 note=70 velocity=0 time=20
control_change channel=0 control=64 value=97 time=62
control_change channel=0 control=64 value=96 time=15
control_change channel=0 control=64 value=94 time=16
control_change channel=0 control=64 value=92 time=15
note_on channel=0 note=85 velocity=78 time=5
note_on channel=0 note=38 velocity=53 time=6
control_change channel=0 control=64 value=88 time=4
note_on channel=0 note=82 velocity=0 time=1
note_on channel=0 note=73 velocity=50 time=13
control_change channel=0 control=64 value=84 time=1
note_on channel=0 note=78 velocity=44 time=11
control_change channel=0 control=64 value=80 time=4
control_change channel=0 control=64 value=76 time=16
note_on channel=0 note=38 velocity=0 time=13
control_change channel=0 control=64 value=70 time=2
control_change channel=0 control=64 value=62 time=16
control_change channel=0 control=64 value=34 time=15
control_change channel=0 control=64 value=26 time=15
control_change channel=0 control=67 value=8 time=0
note_on channel=0 note=42 velocity=69 time=29
control_change channel=0 control=64 value=27 time=2
control_change channel=0 control=64 value=36 time=14
control_change channel=0 control=64 value=46 time=16
control_change channel=0 control=67 value=8 time=0
control_change channel=0 control=64 value=54 time=15
control_change channel=0 control=67 value=10 time=0
note_on channel=0 note=42 velocity=0 time=5
control_change channel=0 control=64 value=60 time=11
control_change channel=0 control=67 value=12 time=0
control_change channel=0 control=64 value=63 time=15
control_change channel=0 control=67 value=16 time=0
control_change channel=0 control=64 value=65 time=14
control_change channel=0 control=67 value=19 time=0
control_change channel=0 control=64 value=66 time=16
control_change channel=0 control=67 value=22 time=0
control_change channel=0 control=64 value=65 time=15
control_change channel=0 control=67 value=26 time=0
note_on channel=0 note=46 velocity=70 time=4
control_change channel=0 control=64 value=63 time=10
control_change channel=0 control=67 value=29 time=0
note_on channel=0 note=46 velocity=0 time=15
control_change channel=0 control=64 value=54 time=1
control_change channel=0 control=67 value=31 time=0
control_change channel=0 control=64 value=0 time=15
control_change channel=0 control=67 value=33 time=0
control_change channel=0 control=67 value=37 time=16
control_change channel=0 control=67 value=41 time=15
control_change channel=0 control=67 value=43 time=14
control_change channel=0 control=67 value=44 time=16
note_on channel=0 note=47 velocity=68 time=7
control_change channel=0 control=67 value=45 time=8
control_change channel=0 control=64 value=14 time=16
control_change channel=0 control=67 value=45 time=0
note_on channel=0 note=47 velocity=0 time=8
control_change channel=0 control=64 value=38 time=7
control_change channel=0 control=67 value=46 time=0
control_change channel=0 control=64 value=49 time=14
control_change channel=0 control=64 value=56 time=16
control_change channel=0 control=64 value=59 time=15
control_change channel=0 control=64 value=60 time=14
control_change channel=0 control=64 value=62 time=16
control_change channel=0 control=67 value=45 time=0
control_change channel=0 control=64 value=63 time=15
control_change channel=0 control=67 value=45 time=0
note_on channel=0 note=38 velocity=63 time=7
control_change channel=0 control=64 value=66 time=9
control_change channel=0 control=67 value=44 time=0
control_change channel=0 control=64 value=68 time=15
note_on channel=0 note=38 velocity=0 time=7
control_change channel=0 control=64 value=69 time=8
control_change channel=0 control=64 value=69 time=22
control_change channel=0 control=64 value=70 time=15
note_on channel=0 note=85 velocity=0 time=3
control_change channel=0 control=64 value=71 time=13
control_change channel=0 control=67 value=44 time=0
note_on channel=0 note=73 velocity=0 time=3
control_change channel=0 control=64 value=73 time=12
control_change channel=0 control=67 value=43 time=0
control_change channel=0 control=64 value=74 time=15
note_on channel=0 note=42 velocity=53 time=2
control_change channel=0 control=64 value=74 time=105
control_change channel=0 control=64 value=73 time=15
control_change channel=0 control=64 value=71 time=15
note_on channel=0 note=46 velocity=45 time=5
note_on channel=0 note=83 velocity=59 time=0
control_change channel=0 control=64 value=66 time=10
note_on channel=0 note=78 velocity=0 time=4
note_on channel=0 note=71 velocity=46 time=1
control_change channel=0 control=64 value=59 time=11
control_change channel=0 control=64 value=50 time=14
note_on channel=0 note=42 velocity=0 time=11
control_change channel=0 control=64 value=58 time=4
control_change channel=0 control=67 value=43 time=0
control_change channel=0 control=64 value=63 time=17
control_change channel=0 control=67 value=42 time=0
note_on channel=0 note=46 velocity=0 time=13
control_change channel=0 control=64 value=64 time=2
control_change channel=0 control=67 value=42 time=0
control_change channel=0 control=64 value=66 time=15
control_change channel=0 control=64 value=69 time=16
control_change channel=0 control=67 value=41 time=0
note_on channel=0 note=47 velocity=43 time=13
control_change channel=0 control=64 value=72 time=2
control_change channel=0 control=67 value=41 time=0
control_change channel=0 control=64 value=76 time=15
control_change channel=0 control=67 value=40 time=0
note_on channel=0 note=83 velocity=0 time=9
control_change channel=0 control=64 value=79 time=6
control_change channel=0 control=67 value=40 time=0
control_change channel=0 control=64 value=81 time=15
control_change channel=0 control=67 value=39 time=0
control_change channel=0 control=64 value=83 time=16
control_change channel=0 control=67 value=39 time=0
control_change channel=0 control=64 value=85 time=15
control_change channel=0 control=67 value=38 time=0
control_change channel=0 control=64 value=86 time=15
control_change channel=0 control=67 value=38 time=0
control_change channel=0 control=64 value=87 time=15
control_change channel=0 control=67 value=37 time=15
note_on channel=0 note=47 velocity=0 time=15
control_change channel=0 control=67 value=37 time=1
note_on channel=0 note=38 velocity=38 time=6
control_change channel=0 control=67 value=36 time=9
note_on channel=0 note=71 velocity=0 time=10
control_change channel=0 control=67 value=36 time=4
control_change channel=0 control=67 value=35 time=46
control_change channel=0 control=64 value=86 time=15
control_change channel=0 control=64 value=86 time=15
control_change channel=0 control=64 value=85 time=16
control_change channel=0 control=64 value=84 time=15
control_change channel=0 control=64 value=83 time=15
control_change channel=0 control=64 value=82 time=16
control_change channel=0 control=64 value=81 time=15
control_change channel=0 control=64 value=80 time=16
control_change channel=0 control=64 value=78 time=14
control_change channel=0 control=67 value=36 time=0
note_on channel=0 note=39 velocity=37 time=14
control_change channel=0 control=64 value=73 time=1
control_change channel=0 control=64 value=66 time=16
note_on channel=0 note=38 velocity=0 time=0
note_on channel=0 note=69 velocity=48 time=0
control_change channel=0 control=64 value=51 time=15
control_change channel=0 control=64 value=28 time=16
control_change channel=0 control=64 value=44 time=22
control_change channel=0 control=64 value=54 time=15
control_change channel=0 control=64 value=57 time=16
control_change channel=0 control=67 value=35 time=0
control_change channel=0 control=64 value=60 time=15
control_change channel=0 control=64 value=62 time=16
control_change channel=0 control=67 value=35 time=0
control_change channel=0 control=64 value=64 time=14
control_change channel=0 control=67 value=34 time=0
control_change channel=0 control=64 value=66 time=15
control_change channel=0 control=64 value=68 time=16
control_change channel=0 control=67 value=34 time=0
note_on channel=0 note=42 velocity=49 time=2
control_change channel=0 control=64 value=70 time=12
control_change channel=0 control=67 value=33 time=0
control_change channel=0 control=64 value=70 time=15
control_change channel=0 control=67 value=33 time=0
control_change channel=0 control=64 value=71 time=16
control_change channel=0 control=67 value=32 time=0
control_change channel=0 control=64 value=73 time=15
control_change channel=0 control=67 value=30 time=0
control_change channel=0 control=64 value=75 time=16
control_change channel=0 control=67 value=29 time=0
control_change channel=0 control=64 value=77 time=14
control_change channel=0 control=67 value=27 time=0
control_change channel=0 control=64 value=78 time=15
control_change channel=0 control=67 value=25 time=0
control_change channel=0 control=64 value=79 time=16
control_change channel=0 control=67 value=23 time=0
note_on channel=0 note=39 velocity=0 time=1
note_on channel=0 note=72 velocity=57 time=9
control_change channel=0 control=64 value=80 time=5
control_change channel=0 control=67 value=20 time=0
note_on channel=0 note=45 velocity=48 time=6
control_change channel=0 control=64 value=82 time=10
control_change channel=0 control=67 value=19 time=0
control_change channel=0 control=64 value=85 time=15
control_change channel=0 control=67 value=17 time=0
control_change channel=0 control=64 value=86 time=15
control_change channel=0 control=67 value=16 time=0
note_on channel=0 note=42 velocity=0 time=10
control_change channel=0 control=64 value=87 time=5
control_change channel=0 control=67 value=15 time=0
note_on channel=0 note=45 velocity=0 time=11
control_change channel=0 control=64 value=88 time=5
control_change channel=0 control=67 value=14 time=0
control_change channel=0 control=64 value=89 time=15
control_change channel=0 control=67 value=13 time=0
control_change channel=0 control=64 value=91 time=15
control_change channel=0 control=67 value=12 time=0
note_on channel=0 note=48 velocity=53 time=3
control_change channel=0 control=64 value=93 time=12
control_change channel=0 control=67 value=9 time=0
note_on channel=0 note=75 velocity=75 time=1
control_change channel=0 control=64 value=94 time=15
control_change channel=0 control=67 value=8 time=0
control_change channel=0 control=64 value=95 time=15
control_change channel=0 control=67 value=0 time=0
note_on channel=0 note=69 velocity=0 time=8
control_change channel=0 control=64 value=96 time=7
control_change channel=0 control=64 value=97 time=16
control_change channel=0 control=64 value=98 time=15
note_on channel=0 note=48 velocity=0 time=1
control_change channel=0 control=64 value=100 time=13
control_change channel=0 control=64 value=102 time=16
control_change channel=0 control=64 value=103 time=15
note_on channel=0 note=39 velocity=69 time=6
control_change channel=0 control=64 value=106 time=10
note_on channel=0 note=72 velocity=0 time=7
control_change channel=0 control=64 value=110 time=8
control_change channel=0 control=64 value=121 time=15
control_change channel=0 control=64 value=127 time=15
note_on channel=0 note=45 velocity=69 time=53
note_on channel=0 note=78 velocity=85 time=10
note_on channel=0 note=75 velocity=0 time=22
note_on channel=0 note=39 velocity=0 time=20
note_on channel=0 note=78 velocity=0 time=18
note_on channel=0 note=48 velocity=70 time=65
note_on channel=0 note=81 velocity=90 time=20
note_on channel=0 note=54 velocity=82 time=120
note_on channel=0 note=54 velocity=0 time=73
note_on channel=0 note=48 velocity=0 time=12
note_on channel=0 note=45 velocity=0 time=31
note_on channel=0 note=84 velocity=79 time=0
note_on channel=0 note=81 velocity=0 time=3
note_on channel=0 note=39 velocity=69 time=9
note_on channel=0 note=93 velocity=102 time=6
note_on channel=0 note=84 velocity=0 time=25
note_on channel=0 note=39 velocity=0 time=18
note_on channel=0 note=93 velocity=0 time=57
note_on channel=0 note=81 velocity=67 time=1
note_on channel=0 note=85 velocity=70 time=68
note_on channel=0 note=40 velocity=49 time=40
note_on channel=0 note=93 velocity=95 time=2
control_change channel=0 control=64 value=105 time=4
control_change channel=0 control=64 value=86 time=15
control_change channel=0 control=64 value=68 time=15
control_change channel=0 control=64 value=50 time=15
control_change channel=0 control=64 value=59 time=15
control_change channel=0 control=64 value=63 time=16
control_change channel=0 control=64 value=63 time=15
control_change channel=0 control=64 value=64 time=15
control_change channel=0 control=64 value=68 time=16
control_change channel=0 control=64 value=71 time=15
control_change channel=0 control=64 value=74 time=16
note_on channel=0 note=45 velocity=61 time=1
control_change channel=0 control=64 value=75 time=13
control_change channel=0 control=64 value=74 time=15
note_on channel=0 note=40 velocity=0 time=1
control_change channel=0 control=64 value=72 time=15
control_change channel=0 control=64 value=68 time=15
control_change channel=0 control=64 value=65 time=15
control_change channel=0 control=64 value=66 time=15
control_change channel=0 control=64 value=67 time=15
note_on channel=0 note=49 velocity=64 time=8
control_change channel=0 control=64 value=68 time=8
note_on channel=0 note=45 velocity=0 time=8
control_change channel=0 control=64 value=69 time=14
note_on channel=0 note=81 velocity=0 time=9
control_change channel=0 control=64 value=70 time=6
control_change channel=0 control=64 value=73 time=16
control_change channel=0 control=64 value=75 time=15
control_change channel=0 control=64 value=76 time=15
note_on channel=0 note=49 velocity=0 time=12
control_change channel=0 control=64 value=78 time=3
control_change channel=0 control=64 value=80 time=15
note_on channel=0 note=52 velocity=66 time=10
control_change channel=0 control=64 value=81 time=6
note_on channel=0 note=93 velocity=0 time=0
control_change channel=0 control=64 value=83 time=15
control_change channel=0 control=64 value=85 time=16
note_on channel=0 note=52 velocity=0 time=12
control_change channel=0 control=64 value=87 time=3
control_change channel=0 control=64 value=88 time=14
control_change channel=0 control=64 value=89 time=16
control_change channel=0 control=64 value=90 time=15
control_change channel=0 control=64 value=91 time=14
note_on channel=0 note=45 velocity=63 time=8
control_change channel=0 control=64 value=93 time=8
control_change channel=0 control=64 value=95 time=15
control_change channel=0 control=64 value=97 time=16
control_change channel=0 control=64 value=97 time=60
control_change channel=0 control=64 value=98 time=15
note_on channel=0 note=88 velocity=94 time=0
note_on channel=0 note=49 velocity=62 time=11
control_change channel=0 control=64 value=98 time=5
note_on channel=0 note=76 velocity=64 time=2
note_on channel=0 note=85 velocity=0 time=8
note_on channel=0 note=76 velocity=0 time=15
note_on channel=0 note=88 velocity=0 time=33
control_change channel=0 control=64 value=97 time=66
note_on channel=0 note=52 velocity=53 time=3
control_change channel=0 control=64 value=83 time=13
note_on channel=0 note=86 velocity=95 time=4
control_change channel=0 control=64 value=64 time=11
note_on channel=0 note=74 velocity=79 time=2
control_change channel=0 control=64 value=0 time=12
control_change channel=0 control=64 value=40 time=16
control_change channel=0 control=64 value=55 time=15
control_change channel=0 control=64 value=63 time=15
control_change channel=0 control=64 value=68 time=16
note_on channel=0 note=45 velocity=0 time=3
control_change channel=0 control=64 value=73 time=11
note_on channel=0 note=74 velocity=0 time=7
note_on channel=0 note=49 velocity=0 time=1
control_change channel=0 control=64 value=80 time=8
note_on channel=0 note=52 velocity=0 time=3
control_change channel=0 control=64 value=85 time=12
note_on channel=0 note=57 velocity=70 time=3
control_change channel=0 control=64 value=88 time=12
control_change channel=0 control=64 value=90 time=18
control_change channel=0 control=64 value=92 time=15
control_change channel=0 control=64 value=94 time=16
note_on channel=0 note=57 velocity=0 time=0
note_on channel=0 note=86 velocity=0 time=12
control_change channel=0 control=64 value=97 time=2
control_change channel=0 control=64 value=100 time=15
control_change channel=0 control=64 value=103 time=16
control_change channel=0 control=64 value=105 time=15
note_on channel=0 note=85 velocity=93 time=14
control_change channel=0 control=64 value=107 time=9
note_on channel=0 note=73 velocity=91 time=2
note_on channel=0 note=40 velocity=52 time=12
control_change channel=0 control=64 value=109 time=1
note_on channel=0 note=73 velocity=0 time=12
control_change channel=0 control=64 value=110 time=3
control_change channel=0 control=64 value=111 time=15
note_on channel=0 note=40 velocity=0 time=3
note_on channel=0 note=85 velocity=0 time=16
note_on channel=0 note=73 velocity=74 time=38
note_on channel=0 note=75 velocity=62 time=86
note_on channel=0 note=78 velocity=74 time=7
control_change channel=0 control=64 value=109 time=3
note_on channel=0 note=40 velocity=43 time=13
control_change channel=0 control=64 value=103 time=2
control_change channel=0 control=64 value=94 time=14
note_on channel=0 note=85 velocity=82 time=9
control_change channel=0 control=64 value=82 time=7
control_change channel=0 control=64 value=69 time=15
control_change channel=0 control=64 value=0 time=16
control_change channel=0 control=64 value=54 time=60
control_change channel=0 control=64 value=64 time=16
control_change channel=0 control=64 value=67 time=14
note_on channel=0 note=45 velocity=58 time=13
control_change channel=0 control=64 value=70 time=2
control_change channel=0 control=64 value=73 time=16
control_change channel=0 control=64 value=76 time=15
control_change channel=0 control=64 value=78 time=15
control_change channel=0 control=64 value=79 time=15
control_change channel=0 control=64 value=78 time=15
control_change channel=0 control=64 value=75 time=16
note_on channel=0 note=40 velocity=0 time=9
control_change channel=0 control=64 value=65 time=7
control_change channel=0 control=64 value=0 time=15
note_on channel=0 note=47 velocity=65 time=1
note_on channel=0 note=45 velocity=0 time=29
control_change channel=0 control=64 value=52 time=31
control_change channel=0 control=64 value=64 time=15
control_change channel=0 control=64 value=69 time=15
control_change channel=0 control=64 value=72 time=15
note_on channel=0 note=47 velocity=0 time=13
control_change channel=0 control=64 value=75 time=2
note_on channel=0 note=51 velocity=67 time=5
control_change channel=0 control=64 value=76 time=11
control_change channel=0 control=64 value=76 time=15
note_on channel=0 note=51 velocity=0 time=5
control_change channel=0 control=64 value=79 time=9
control_change channel=0 control=64 value=82 time=16
control_change channel=0 control=64 value=85 time=15
note_on channel=0 note=85 velocity=0 time=1
control_change channel=0 control=64 value=87 time=15
note_on channel=0 note=73 velocity=0 time=20
note_on channel=0 note=47 velocity=61 time=21
control_change channel=0 control=64 value=86 time=103
control_change channel=0 control=64 value=86 time=15
control_change channel=0 control=64 value=85 time=15
note_on channel=0 note=78 velocity=0 time=0
note_on channel=0 note=83 velocity=89 time=2
note_on channel=0 note=75 velocity=0 time=3
note_on channel=0 note=51 velocity=53 time=9
control_change channel=0 control=64 value=85 time=1
note_on channel=0 note=71 velocity=64 time=6
note_on channel=0 note=71 velocity=0 time=18
control_change channel=0 control=64 value=84 time=6
control_change channel=0 control=64 value=84 time=16
control_change channel=0 control=64 value=81 time=15
control_change channel=0 control=64 value=75 time=15
control_change channel=0 control=64 value=64 time=16
control_change channel=0 control=64 value=0 time=15
note_on channel=0 note=82 velocity=88 time=33
note_on channel=0 note=54 velocity=52 time=3
note_on channel=0 note=70 velocity=70 time=12
note_on channel=0 note=83 velocity=0 time=11
control_change channel=0 control=64 value=46 time=17
control_change channel=0 control=64 value=63 time=15
note_on channel=0 note=51 velocity=0 time=0
control_change channel=0 control=64 value=67 time=16
control_change channel=0 control=64 value=70 time=14
note_on channel=0 note=54 velocity=0 time=8
note_on channel=0 note=47 velocity=0 time=2
control_change channel=0 control=64 value=72 time=5
control_change channel=0 control=64 value=74 time=16
control_change channel=0 control=64 value=77 time=15
control_change channel=0 control=64 value=80 time=16
note_on channel=0 note=57 velocity=52 time=1
control_change channel=0 control=64 value=84 time=13
control_change channel=0 control=64 value=86 time=15
control_change channel=0 control=64 value=88 time=16
control_change channel=0 control=64 value=91 time=14
note_on channel=0 note=70 velocity=0 time=13
control_change channel=0 control=64 value=94 time=2
note_on channel=0 note=57 velocity=0 time=15
control_change channel=0 control=64 value=95 time=1
control_change channel=0 control=64 value=96 time=62
note_on channel=0 note=83 velocity=86 time=6
control_change channel=0 control=64 value=97 time=9
note_on channel=0 note=71 velocity=71 time=2
note_on channel=0 note=47 velocity=42 time=2
note_on channel=0 note=82 velocity=0 time=6
control_change channel=0 control=64 value=98 time=5
note_on channel=0 note=47 velocity=0 time=18
note_on channel=0 note=71 velocity=0 time=33
note_on channel=0 note=83 velocity=0 time=61
control_change channel=0 control=64 value=97 time=64
control_change channel=0 control=64 value=97 time=14
control_change channel=0 control=64 value=96 time=15
control_change channel=0 control=64 value=92 time=16
note_on channel=0 note=80 velocity=37 time=6
note_on channel=0 note=85 velocity=79 time=8
control_change channel=0 control=64 value=86 time=1
note_on channel=0 note=40 velocity=46 time=4
control_change channel=0 control=64 value=75 time=11
note_on channel=0 note=76 velocity=43 time=6
note_on channel=0 note=80 velocity=0 time=0
note_on channel=0 note=74 velocity=53 time=5
control_change channel=0 control=64 value=61 time=4
control_change channel=0 control=67 value=8 time=0
control_change channel=0 control=64 value=0 time=15
control_change channel=0 control=64 value=36 time=45
control_change channel=0 control=67 value=8 time=0
control_change channel=0 control=64 value=48 time=16
control_change channel=0 control=64 value=58 time=15
control_change channel=0 control=67 value=9 time=0
control_change channel=0 control=64 value=63 time=15
control_change channel=0 control=67 value=9 time=0
control_change channel=0 control=64 value=65 time=15
control_change channel=0 control=67 value=10 time=0
control_change channel=0 control=64 value=67 time=15
control_change channel=0 control=67 value=12 time=0
control_change channel=0 control=64 value=69 time=16
control_change channel=0 control=67 value=14 time=0
control_change channel=0 control=64 value=70 time=15
control_change channel=0 control=67 value=17 time=0
control_change channel=0 control=64 value=72 time=15
control_change channel=0 control=67 value=20 time=0
control_change channel=0 control=64 value=74 time=16
control_change channel=0 control=67 value=23 time=0
control_change channel=0 control=64 value=76 time=14
control_change channel=0 control=67 value=26 time=0
note_on channel=0 note=47 velocity=39 time=9
control_change channel=0 control=64 value=78 time=7
control_change channel=0 control=67 value=30 time=0
control_change channel=0 control=64 value=81 time=15
control_change channel=0 control=67 value=34 time=0
control_change channel=0 control=64 value=82 time=15
control_change channel=0 control=67 value=37 time=0
control_change channel=0 control=64 value=84 time=16
control_change channel=0 control=67 value=40 time=0
control_change channel=0 control=64 value=87 time=15
control_change channel=0 control=67 value=43 time=0
control_change channel=0 control=64 value=88 time=15
control_change channel=0 control=67 value=45 time=0
note_on channel=0 note=40 velocity=0 time=5
control_change channel=0 control=64 value=89 time=11
control_change channel=0 control=67 value=48 time=0
control_change channel=0 control=64 value=90 time=14
control_change channel=0 control=67 value=50 time=0
control_change channel=0 control=67 value=52 time=16
note_on channel=0 note=47 velocity=0 time=14
control_change channel=0 control=64 value=92 time=1
control_change channel=0 control=67 value=54 time=0
note_on channel=0 note=83 velocity=68 time=6
note_on channel=0 note=50 velocity=48 time=4
control_change channel=0 control=64 value=95 time=5
control_change channel=0 control=67 value=57 time=0
control_change channel=0 control=64 value=97 time=16
control_change channel=0 control=67 value=59 time=0
note_on channel=0 note=50 velocity=0 time=9
control_change channel=0 control=64 value=98 time=5
control_change channel=0 control=67 value=60 time=0
control_change channel=0 control=67 value=62 time=15
control_change channel=0 control=67 value=64 time=16
control_change channel=0 control=67 value=65 time=14
control_change channel=0 control=67 value=65 time=16
note_on channel=0 note=74 velocity=0 time=0
note_on channel=0 note=76 velocity=0 time=1
note_on channel=0 note=52 velocity=51 time=49
note_on channel=0 note=80 velocity=63 time=3
note_on channel=0 note=83 velocity=0 time=37
note_on channel=0 note=85 velocity=0 time=10
note_on channel=0 note=80 velocity=0 time=63
note_on channel=0 note=56 velocity=55 time=4
control_change channel=0 control=67 value=65 time=1
note_on channel=0 note=76 velocity=70 time=13
control_change channel=0 control=64 value=98 time=2
control_change channel=0 control=64 value=97 time=38
control_change channel=0 control=67 value=64 time=0
control_change channel=0 control=64 value=96 time=16
note_on channel=0 note=76 velocity=0 time=9
control_change channel=0 control=64 value=96 time=6
control_change channel=0 control=64 value=95 time=15
control_change channel=0 control=67 value=64 time=0
control_change channel=0 control=64 value=94 time=16
control_change channel=0 control=64 value=93 time=14
control_change channel=0 control=64 value=93 time=15
note_on channel=0 note=59 velocity=45 time=2
note_on channel=0 note=74 velocity=74 time=5
control_change channel=0 control=64 value=92 time=9
control_change channel=0 control=64 value=90 time=15
control_change channel=0 control=64 value=85 time=16
control_change channel=0 control=64 value=74 time=15
control_change channel=0 control=64 value=61 time=14
control_change channel=0 control=64 value=0 time=16
control_change channel=0 control=64 value=36 time=45
control_change channel=0 control=67 value=63 time=0
note_on channel=0 note=74 velocity=0 time=8
note_on channel=0 note=71 velocity=58 time=2
control_change channel=0 control=64 value=60 time=5
note_on channel=0 note=62 velocity=36 time=14
control_change channel=0 control=64 value=64 time=2
control_change channel=0 control=64 value=66 time=15
control_change channel=0 control=64 value=68 time=14
control_change channel=0 control=64 value=70 time=16
control_change channel=0 control=67 value=63 time=0
control_change channel=0 control=64 value=73 time=15
control_change channel=0 control=67 value=62 time=0
control_change channel=0 control=64 value=75 time=15
note_on channel=0 note=52 velocity=0 time=6
control_change channel=0 control=64 value=77 time=9
note_on channel=0 note=59 velocity=0 time=6
control_change channel=0 control=64 value=78 time=9
control_change channel=0 control=67 value=62 time=0
note_on channel=0 note=62 velocity=0 time=15
note_on channel=0 note=71 velocity=0 time=0
control_change channel=0 control=64 value=81 time=1
note_on channel=0 note=56 velocity=0 time=2
note_on channel=0 note=68 velocity=60 time=0
control_change channel=0 control=64 value=83 time=13
control_change channel=0 control=64 value=86 time=15
control_change channel=0 control=67 value=61 time=0
control_change channel=0 control=64 value=88 time=16
control_change channel=0 control=64 value=90 time=15
control_change channel=0 control=64 value=90 time=16
control_change channel=0 control=67 value=61 time=0
control_change channel=0 control=64 value=91 time=14
control_change channel=0 control=67 value=60 time=31
note_on channel=0 note=68 velocity=0 time=46
note_on channel=0 note=64 velocity=69 time=4
control_change channel=0 control=67 value=60 time=73
note_on channel=0 note=64 velocity=0 time=63
control_change channel=0 control=64 value=91 time=13
control_change channel=0 control=64 value=90 time=14
control_change channel=0 control=64 value=90 time=23
control_change channel=0 control=64 value=89 time=15
note_on channel=0 note=64 velocity=59 time=14
control_change channel=0 control=64 value=89 time=1
control_change channel=0 control=64 value=88 time=16
note_on channel=0 note=37 velocity=39 time=8
control_change channel=0 control=64 value=87 time=6
control_change channel=0 control=64 value=86 time=15
control_change channel=0 control=64 value=85 time=16
control_change channel=0 control=64 value=84 time=15
control_change channel=0 control=64 value=82 time=16
control_change channel=0 control=64 value=80 time=15
control_change channel=0 control=64 value=78 time=15
control_change channel=0 control=64 value=76 time=16
control_change channel=0 control=64 value=74 time=14
note_on channel=0 note=40 velocity=60 time=3
note_on channel=0 note=37 velocity=0 time=10
control_change channel=0 control=64 value=71 time=3
control_change channel=0 control=64 value=69 time=15
control_change channel=0 control=67 value=59 time=0
control_change channel=0 control=64 value=67 time=15
note_on channel=0 note=40 velocity=0 time=8
control_change channel=0 control=64 value=66 time=8
control_change channel=0 control=64 value=65 time=14
control_change channel=0 control=64 value=65 time=15
control_change channel=0 control=64 value=64 time=16
note_on channel=0 note=44 velocity=75 time=10
control_change channel=0 control=64 value=64 time=5
control_change channel=0 control=64 value=63 time=15
control_change channel=0 control=64 value=60 time=15
note_on channel=0 note=44 velocity=0 time=7
control_change channel=0 control=64 value=48 time=8
control_change channel=0 control=64 value=0 time=16
note_on channel=0 note=45 velocity=74 time=54
note_on channel=0 note=45 velocity=0 time=31
control_change channel=0 control=67 value=59 time=66
note_on channel=0 note=49 velocity=63 time=29
control_change channel=0 control=67 value=58 time=17
note_on channel=0 note=49 velocity=0 time=11
control_change channel=0 control=67 value=58 time=19
control_change channel=0 control=67 value=57 time=16
control_change channel=0 control=67 value=57 time=15
control_change channel=0 control=67 value=56 time=15
control_change channel=0 control=67 value=55 time=15
control_change channel=0 control=67 value=54 time=15
note_on channel=0 note=61 velocity=60 time=1
note_on channel=0 note=52 velocity=57 time=2
control_change channel=0 control=67 value=53 time=14
control_change channel=0 control=67 value=53 time=14
note_on channel=0 note=64 velocity=0 time=0
control_change channel=0 control=64 value=28 time=15
note_on channel=0 note=52 velocity=0 time=0
control_change channel=0 control=64 value=46 time=16
control_change channel=0 control=64 value=55 time=15
control_change channel=0 control=67 value=52 time=0
control_change channel=0 control=64 value=61 time=23
control_change channel=0 control=64 value=62 time=15
control_change channel=0 control=67 value=52 time=0
control_change channel=0 control=64 value=63 time=16
note_on channel=0 note=56 velocity=52 time=11
note_on channel=0 note=61 velocity=0 time=2
control_change channel=0 control=64 value=64 time=2
control_change channel=0 control=67 value=51 time=0
note_on channel=0 note=59 velocity=58 time=2
control_change channel=0 control=64 value=65 time=12
control_change channel=0 control=67 value=50 time=0
note_on channel=0 note=56 velocity=0 time=10
control_change channel=0 control=64 value=66 time=6
control_change channel=0 control=67 value=48 time=0
control_change channel=0 control=64 value=68 time=15
control_change channel=0 control=67 value=46 time=0
control_change channel=0 control=64 value=69 time=15
control_change channel=0 control=67 value=44 time=0
control_change channel=0 control=64 value=69 time=16
control_change channel=0 control=67 value=42 time=0
control_change channel=0 control=64 value=70 time=14
control_change channel=0 control=67 value=41 time=0
control_change channel=0 control=64 value=72 time=16
control_change channel=0 control=67 value=38 time=0
note_on channel=0 note=57 velocity=59 time=6
control_change channel=0 control=64 value=74 time=9
control_change channel=0 control=67 value=36 time=0
control_change channel=0 control=64 value=76 time=15
control_change channel=0 control=67 value=33 time=0
note_on channel=0 note=57 velocity=0 time=12
control_change channel=0 control=64 value=79 time=4
control_change channel=0 control=67 value=30 time=0
control_change channel=0 control=64 value=80 time=15
control_change channel=0 control=67 value=27 time=0
control_change channel=0 control=64 value=83 time=15
control_change channel=0 control=67 value=24 time=0
control_change channel=0 control=64 value=85 time=16
control_change channel=0 control=67 value=22 time=0
control_change channel=0 control=64 value=86 time=14
control_change channel=0 control=67 value=20 time=0
control_change channel=0 control=64 value=87 time=16
control_change channel=0 control=67 value=19 time=0
note_on channel=0 note=59 velocity=0 time=0
note_on channel=0 note=57 velocity=78 time=2
note_on channel=0 note=49 velocity=57 time=1
control_change channel=0 control=67 value=17 time=12
control_change channel=0 control=67 value=15 time=15
note_on channel=0 note=49 velocity=0 time=0
control_change channel=0 control=64 value=87 time=15
control_change channel=0 control=67 value=12 time=0
control_change channel=0 control=67 value=10 time=15
note_on channel=0 note=57 velocity=0 time=1
control_change channel=0 control=67 value=9 time=15
control_change channel=0 control=67 value=8 time=15
control_change channel=0 control=67 value=0 time=15
control_change channel=0 control=64 value=86 time=45
note_on channel=0 note=38 velocity=56 time=11
note_on channel=0 note=65 velocity=63 time=0
control_change channel=0 control=64 value=85 time=5
note_on channel=0 note=57 velocity=52 time=4
control_change channel=0 control=64 value=84 time=11
control_change channel=0 control=64 value=83 time=15
control_change channel=0 control=64 value=81 time=15
note_on channel=0 note=38 velocity=0 time=2
control_change channel=0 control=64 value=78 time=13
control_change channel=0 control=64 value=74 time=15
control_change channel=0 control=64 value=69 time=15
control_change channel=0 control=64 value=64 time=15
control_change channel=0 control=64 value=63 time=16
note_on channel=0 note=41 velocity=72 time=0
control_change channel=0 control=64 value=62 time=45
note_on channel=0 note=41 velocity=0 time=10
control_change channel=0 control=64 value=57 time=5
control_change channel=0 control=64 value=0 time=17
note_on channel=0 note=45 velocity=73 time=45
note_on channel=0 note=45 velocity=0 time=31
note_on channel=0 note=57 velocity=0 time=65
note_on channel=0 note=47 velocity=63 time=29
note_on channel=0 note=56 velocity=51 time=6
note_on channel=0 note=47 velocity=0 time=31
note_on channel=0 note=50 velocity=64 time=94
note_on channel=0 note=50 velocity=0 time=31
note_on channel=0 note=56 velocity=0 time=44
note_on channel=0 note=62 velocity=51 time=35
note_on channel=0 note=53 velocity=58 time=18
control_change channel=0 control=64 value=39 time=20
note_on channel=0 note=53 velocity=0 time=5
control_change channel=0 control=64 value=52 time=9
control_change channel=0 control=64 value=57 time=16
control_change channel=0 control=64 value=59 time=15
control_change channel=0 control=64 value=61 time=15
control_change channel=0 control=64 value=62 time=16
control_change channel=0 control=64 value=64 time=15
note_on channel=0 note=56 velocity=48 time=6
control_change channel=0 control=64 value=65 time=10
note_on channel=0 note=61 velocity=54 time=1
control_change channel=0 control=64 value=66 time=13
control_change channel=0 control=64 value=66 time=15
control_change channel=0 control=64 value=67 time=16
note_on channel=0 note=65 velocity=0 time=0
note_on channel=0 note=56 velocity=0 time=14
control_change channel=0 control=64 value=68 time=1
control_change channel=0 control=64 value=69 time=16
note_on channel=0 note=62 velocity=0 time=7
control_change channel=0 control=64 value=71 time=8
control_change channel=0 control=64 value=72 time=15
note_on channel=0 note=53 velocity=54 time=3
control_change channel=0 control=64 value=74 time=12
control_change channel=0 control=64 value=75 time=15
note_on channel=0 note=53 velocity=0 time=7
control_change channel=0 control=64 value=77 time=8
control_change channel=0 control=64 value=79 time=15
control_change channel=0 control=64 value=81 time=15
control_change channel=0 control=64 value=83 time=16
note_on channel=0 note=61 velocity=0 time=10
control_change channel=0 control=64 value=84 time=4
note_on channel=0 note=59 velocity=51 time=10
control_change channel=0 control=64 value=86 time=5
control_change channel=0 control=64 value=87 time=15
note_on channel=0 note=50 velocity=46 time=0
control_change channel=0 control=64 value=89 time=15
control_change channel=0 control=64 value=89 time=15
note_on channel=0 note=50 velocity=0 time=2
note_on channel=0 note=59 velocity=0 time=11
note_on channel=0 note=60 velocity=61 time=27
note_on channel=0 note=60 velocity=0 time=89
control_change channel=0 control=64 value=89 time=2
control_change channel=0 control=64 value=88 time=15
control_change channel=0 control=64 value=87 time=15
control_change channel=0 control=64 value=86 time=16
control_change channel=0 control=64 value=85 time=15
control_change channel=0 control=64 value=84 time=15
control_change channel=0 control=64 value=82 time=15
note_on channel=0 note=37 velocity=39 time=1
note_on channel=0 note=76 velocity=51 time=8
control_change channel=0 control=64 value=77 time=6
control_change channel=0 control=64 value=70 time=16
control_change channel=0 control=64 value=59 time=15
control_change channel=0 control=64 value=0 time=14
control_change channel=0 control=64 value=21 time=46
control_change channel=0 control=64 value=38 time=15
control_change channel=0 control=64 value=47 time=15
note_on channel=0 note=40 velocity=55 time=0
note_on channel=0 note=37 velocity=0 time=12
control_change channel=0 control=64 value=56 time=4
control_change channel=0 control=64 value=63 time=15
control_change channel=0 control=64 value=65 time=15
note_on channel=0 note=40 velocity=0 time=2
control_change channel=0 control=64 value=67 time=13
control_change channel=0 control=64 value=65 time=31
control_change channel=0 control=64 value=60 time=15
note_on channel=0 note=44 velocity=60 time=12
control_change channel=0 control=64 value=0 time=3
note_on channel=0 note=44 velocity=0 time=33
control_change channel=0 control=64 value=23 time=28
control_change channel=0 control=64 value=49 time=15
control_change channel=0 control=64 value=61 time=16
note_on channel=0 note=45 velocity=68 time=6
control_change channel=0 control=64 value=63 time=9
control_change channel=0 control=64 value=64 time=15
note_on channel=0 note=45 velocity=0 time=3
note_on channel=0 note=61 velocity=64 time=2
control_change channel=0 control=64 value=65 time=10
control_change channel=0 control=64 value=66 time=15
control_change channel=0 control=64 value=67 time=16
control_change channel=0 control=64 value=68 time=14
control_change channel=0 control=64 value=69 time=15
control_change channel=0 control=64 value=70 time=16
note_on channel=0 note=61 velocity=0 time=11
note_on channel=0 note=49 velocity=59 time=11
control_change channel=0 control=64 value=71 time=9
control_change channel=0 control=64 value=72 time=14
control_change channel=0 control=64 value=73 time=15
control_change channel=0 control=64 value=75 time=16
control_change channel=0 control=64 value=76 time=15
control_change channel=0 control=64 value=77 time=15
control_change channel=0 control=64 value=78 time=15
control_change channel=0 control=64 value=79 time=15
note_on channel=0 note=73 velocity=82 time=1
note_on channel=0 note=49 velocity=0 time=26
note_on channel=0 note=52 velocity=57 time=7
note_on channel=0 note=76 velocity=0 time=48
control_change channel=0 control=64 value=78 time=34
control_change channel=0 control=64 value=76 time=15
note_on channel=0 note=71 velocity=80 time=8
control_change channel=0 control=64 value=72 time=7
note_on channel=0 note=55 velocity=65 time=0
control_change channel=0 control=64 value=66 time=15
note_on channel=0 note=73 velocity=0 time=12
control_change channel=0 control=64 value=49 time=4
note_on channel=0 note=52 velocity=0 time=10
control_change channel=0 control=64 value=0 time=5
control_change channel=0 control=64 value=29 time=15
control_change channel=0 control=64 value=56 time=15
control_change channel=0 control=64 value=64 time=15
control_change channel=0 control=64 value=66 time=15
control_change channel=0 control=64 value=69 time=15
note_on channel=0 note=61 velocity=68 time=4
control_change channel=0 control=64 value=72 time=11
control_change channel=0 control=64 value=74 time=16
control_change channel=0 control=64 value=77 time=15
control_change channel=0 control=64 value=80 time=15
control_change channel=0 control=64 value=84 time=16
note_on channel=0 note=61 velocity=0 time=0
control_change channel=0 control=64 value=86 time=14
note_on channel=0 note=55 velocity=0 time=11
control_change channel=0 control=64 value=88 time=4
note_on channel=0 note=49 velocity=64 time=13
note_on channel=0 note=70 velocity=86 time=17
note_on channel=0 note=49 velocity=0 time=13
note_on channel=0 note=71 velocity=0 time=3
control_change channel=0 control=64 value=87 time=92
control_change channel=0 control=64 value=86 time=14
control_change channel=0 control=64 value=85 time=16
control_change channel=0 control=64 value=83 time=15
note_on channel=0 note=78 velocity=79 time=2
note_on channel=0 note=70 velocity=0 time=5
note_on channel=0 note=38 velocity=56 time=2
control_change channel=0 control=64 value=81 time=6
note_on channel=0 note=73 velocity=59 time=7
control_change channel=0 control=64 value=78 time=9
control_change channel=0 control=64 value=74 time=15
control_change channel=0 control=64 value=64 time=15
control_change channel=0 control=64 value=0 time=15
note_on channel=0 note=38 velocity=0 time=1
note_on channel=0 note=42 velocity=75 time=67
control_change channel=0 control=64 value=37 time=23
control_change channel=0 control=64 value=55 time=16
note_on channel=0 note=42 velocity=0 time=13
control_change channel=0 control=64 value=60 time=1
control_change channel=0 control=64 value=60 time=24
control_change channel=0 control=64 value=52 time=15
control_change channel=0 control=64 value=19 time=15
note_on channel=0 note=46 velocity=80 time=14
control_change channel=0 control=64 value=0 time=2
note_on channel=0 note=46 velocity=0 time=30
note_on channel=0 note=47 velocity=59 time=80
note_on channel=0 note=73 velocity=0 time=10
note_on channel=0 note=71 velocity=55 time=13
note_on channel=0 note=47 velocity=0 time=4
note_on channel=0 note=50 velocity=60 time=107
note_on channel=0 note=50 velocity=0 time=35
note_on channel=0 note=71 velocity=0 time=76
note_on channel=0 note=54 velocity=54 time=13
note_on channel=0 note=74 velocity=57 time=5
control_change channel=0 control=64 value=19 time=22
control_change channel=0 control=64 value=26 time=15
note_on channel=0 note=54 velocity=0 time=5
control_change channel=0 control=64 value=34 time=10
control_change channel=0 control=64 value=41 time=15
control_change channel=0 control=64 value=48 time=15
control_change channel=0 control=64 value=54 time=15
control_change channel=0 control=64 value=59 time=16
control_change channel=0 control=64 value=61 time=14
note_on channel=0 note=58 velocity=42 time=13
control_change channel=0 control=64 value=62 time=3
note_on channel=0 note=73 velocity=56 time=0
note_on channel=0 note=74 velocity=0 time=2
control_change channel=0 control=64 value=63 time=13
control_change channel=0 control=64 value=64 time=15
control_change channel=0 control=64 value=65 time=16
control_change channel=0 control=64 value=66 time=15
note_on channel=0 note=58 velocity=0 time=12
control_change channel=0 control=64 value=67 time=3
control_change channel=0 control=64 value=68 time=15
control_change channel=0 control=64 value=69 time=15
control_change channel=0 control=64 value=70 time=15
note_on channel=0 note=59 velocity=51 time=3
control_change channel=0 control=64 value=71 time=12
control_change channel=0 control=64 value=73 time=15
note_on channel=0 note=78 velocity=0 time=5
control_change channel=0 control=64 value=75 time=11
control_change channel=0 control=64 value=76 time=14
control_change channel=0 control=67 value=8 time=0
control_change channel=0 control=64 value=77 time=24
control_change channel=0 control=67 value=9 time=0
control_change channel=0 control=64 value=78 time=15
control_change channel=0 control=67 value=11 time=0
control_change channel=0 control=64 value=80 time=15
control_change channel=0 control=67 value=13 time=0
note_on channel=0 note=59 velocity=0 time=8
control_change channel=0 control=64 value=82 time=8
control_change channel=0 control=67 value=15 time=0
control_change channel=0 control=64 value=84 time=14
control_change channel=0 control=67 value=20 time=0
note_on channel=0 note=50 velocity=49 time=1
note_on channel=0 note=71 velocity=65 time=6
control_change channel=0 control=64 value=85 time=9
control_change channel=0 control=67 value=26 time=0
note_on channel=0 note=73 velocity=0 time=3
control_change channel=0 control=64 value=87 time=12
control_change channel=0 control=67 value=31 time=0
note_on channel=0 note=50 velocity=0 time=2
note_on channel=0 note=71 velocity=0 time=3
control_change channel=0 control=64 value=88 time=9
control_change channel=0 control=67 value=34 time=0
control_change channel=0 control=64 value=89 time=16
control_change channel=0 control=67 value=35 time=0
control_change channel=0 control=67 value=36 time=15
control_change channel=0 control=67 value=36 time=31
control_change channel=0 control=64 value=90 time=16
control_change channel=0 control=64 value=90 time=16
note_on channel=0 note=57 velocity=50 time=12
control_change channel=0 control=67 value=36 time=2
note_on channel=0 note=57 velocity=0 time=32
control_change channel=0 control=67 value=35 time=14
control_change channel=0 control=67 value=35 time=30
control_change channel=0 control=67 value=34 time=15
control_change channel=0 control=64 value=90 time=46
note_on channel=0 note=72 velocity=50 time=11
control_change channel=0 control=64 value=89 time=4
control_change channel=0 control=64 value=89 time=15
note_on channel=0 note=39 velocity=35 time=1
control_change channel=0 control=64 value=88 time=15
control_change channel=0 control=64 value=87 time=14
control_change channel=0 control=64 value=85 time=15
control_change channel=0 control=64 value=79 time=16
control_change channel=0 control=64 value=69 time=15
control_change channel=0 control=64 value=44 time=16
control_change channel=0 control=64 value=0 time=14
control_change channel=0 control=64 value=17 time=15
control_change channel=0 control=67 value=34 time=0
control_change channel=0 control=64 value=40 time=16
control_change channel=0 control=64 value=48 time=15
control_change channel=0 control=64 value=54 time=15
control_change channel=0 control=64 value=59 time=16
note_on channel=0 note=42 velocity=34 time=8
control_change channel=0 control=64 value=63 time=6
control_change channel=0 control=67 value=33 time=0
control_change channel=0 control=64 value=65 time=16
control_change channel=0 control=64 value=66 time=15
control_change channel=0 control=64 value=68 time=15
control_change channel=0 control=64 value=68 time=16
control_change channel=0 control=67 value=33 time=0
note_on channel=0 note=39 velocity=0 time=3
control_change channel=0 control=64 value=69 time=12
control_change channel=0 control=64 value=70 time=15
control_change channel=0 control=67 value=32 time=0
control_change channel=0 control=64 value=71 time=16
control_change channel=0 control=64 value=72 time=14
control_change channel=0 control=64 value=74 time=16
control_change channel=0 control=64 value=75 time=15
control_change channel=0 control=67 value=32 time=0
note_on channel=0 note=60 velocity=42 time=0
note_on channel=0 note=45 velocity=44 time=6
control_change channel=0 control=64 value=75 time=8
control_change channel=0 control=67 value=31 time=0
control_change channel=0 control=64 value=76 time=16
note_on channel=0 note=42 velocity=0 time=0
control_change channel=0 control=64 value=76 time=22
control_change channel=0 control=67 value=31 time=0
control_change channel=0 control=64 value=77 time=16
control_change channel=0 control=67 value=30 time=0
note_on channel=0 note=45 velocity=0 time=13
control_change channel=0 control=64 value=78 time=2
control_change channel=0 control=64 value=78 time=15
control_change channel=0 control=67 value=30 time=0
control_change channel=0 control=64 value=79 time=16
control_change channel=0 control=67 value=29 time=31
note_on channel=0 note=48 velocity=48 time=3
note_on channel=0 note=63 velocity=54 time=3
control_change channel=0 control=64 value=79 time=8
note_on channel=0 note=60 velocity=0 time=6
control_change channel=0 control=64 value=80 time=9
control_change channel=0 control=67 value=29 time=0
note_on channel=0 note=48 velocity=0 time=6
control_change channel=0 control=64 value=80 time=10
control_change channel=0 control=67 value=28 time=45
control_change channel=0 control=67 value=28 time=15
control_change channel=0 control=64 value=81 time=17
note_on channel=0 note=51 velocity=61 time=9
control_change channel=0 control=67 value=27 time=6
control_change channel=0 control=67 value=27 time=15
control_change channel=0 control=64 value=81 time=16
control_change channel=0 control=67 value=26 time=0
control_change channel=0 control=67 value=25 time=14
control_change channel=0 control=67 value=24 time=16
control_change channel=0 control=64 value=82 time=15
control_change channel=0 control=67 value=24 time=0
control_change channel=0 control=67 value=22 time=15
control_change channel=0 control=64 value=82 time=16
control_change channel=0 control=67 value=21 time=0
control_change channel=0 control=64 value=83 time=14
control_change channel=0 control=67 value=18 time=0
note_on channel=0 note=57 velocity=59 time=1
note_on channel=0 note=66 velocity=75 time=0
control_change channel=0 control=64 value=83 time=14
control_change channel=0 control=67 value=15 time=0
note_on channel=0 note=63 velocity=0 time=1
control_change channel=0 control=67 value=12 time=15
control_change channel=0 control=67 value=9 time=14
control_change channel=0 control=64 value=84 time=16
control_change channel=0 control=67 value=8 time=0
note_on channel=0 note=66 velocity=0 time=9
control_change channel=0 control=67 value=0 time=6
note_on channel=0 note=72 velocity=0 time=16
control_change channel=0 control=64 value=83 time=29
note_on channel=0 note=57 velocity=0 time=2
note_on channel=0 note=51 velocity=0 time=4
control_change channel=0 control=64 value=81 time=9
note_on channel=0 note=69 velocity=78 time=6
control_change channel=0 control=64 value=77 time=10
note_on channel=0 note=60 velocity=56 time=13
control_change channel=0 control=64 value=74 time=2
control_change channel=0 control=64 value=75 time=16
control_change channel=0 control=64 value=76 time=14
control_change channel=0 control=64 value=77 time=15
control_change channel=0 control=64 value=79 time=16
control_change channel=0 control=64 value=82 time=15
control_change channel=0 control=64 value=84 time=14
control_change channel=0 control=64 value=87 time=16
control_change channel=0 control=64 value=88 time=15
note_on channel=0 note=54 velocity=58 time=2
control_change channel=0 control=64 value=89 time=14
control_change channel=0 control=64 value=90 time=15
control_change channel=0 control=64 value=91 time=15
note_on channel=0 note=60 velocity=0 time=9
control_change channel=0 control=64 value=92 time=7
control_change channel=0 control=64 value=92 time=46
note_on channel=0 note=54 velocity=0 time=12
note_on channel=0 note=51 velocity=41 time=23
control_change channel=0 control=64 value=93 time=2
note_on channel=0 note=72 velocity=62 time=9
control_change channel=0 control=64 value=93 time=6
note_on channel=0 note=81 velocity=76 time=4
note_on channel=0 note=51 velocity=0 time=21
control_change channel=0 control=64 value=94 time=5
note_on channel=0 note=69 velocity=0 time=61
note_on channel=0 note=72 velocity=0 time=64
note_on channel=0 note=81 velocity=0 time=17
control_change channel=0 control=64 value=93 time=26
control_change channel=0 control=64 value=93 time=30
control_change channel=0 control=64 value=92 time=16
control_change channel=0 control=64 value=91 time=16
control_change channel=0 control=64 value=90 time=14
note_on channel=0 note=81 velocity=67 time=12
control_change channel=0 control=64 value=86 time=3
note_on channel=0 note=73 velocity=59 time=2
note_on channel=0 note=69 velocity=46 time=9
control_change channel=0 control=64 value=78 time=5
note_on channel=0 note=40 velocity=39 time=3
control_change channel=0 control=64 value=67 time=12
control_change channel=0 control=64 value=0 time=16
control_change channel=0 control=64 value=27 time=91
control_change channel=0 control=64 value=47 time=14
control_change channel=0 control=64 value=57 time=16
control_change channel=0 control=64 value=62 time=15
control_change channel=0 control=64 value=64 time=15
control_change channel=0 control=64 value=65 time=16
control_change channel=0 control=67 value=9 time=0
control_change channel=0 control=64 value=66 time=14
control_change channel=0 control=67 value=12 time=0
control_change channel=0 control=64 value=69 time=16
control_change channel=0 control=67 value=17 time=0
note_on channel=0 note=45 velocity=41 time=1
control_change channel=0 control=64 value=71 time=14
control_change channel=0 control=67 value=23 time=0
note_on channel=0 note=40 velocity=0 time=14
control_change channel=0 control=64 value=72 time=1
control_change channel=0 control=67 value=27 time=0
control_change channel=0 control=64 value=73 time=16
control_change channel=0 control=67 value=29 time=0
control_change channel=0 control=64 value=74 time=14
control_change channel=0 control=67 value=32 time=0
control_change channel=0 control=64 value=76 time=15
control_change channel=0 control=67 value=36 time=0
control_change channel=0 control=64 value=77 time=16
control_change channel=0 control=67 value=39 time=0
control_change channel=0 control=64 value=79 time=15
control_change channel=0 control=67 value=41 time=0
control_change channel=0 control=64 value=80 time=15
control_change channel=0 control=67 value=42 time=0
control_change channel=0 control=64 value=81 time=15
control_change channel=0 control=67 value=42 time=0
control_change channel=0 control=64 value=82 time=15
control_change channel=0 control=67 value=43 time=0
note_on channel=0 note=69 velocity=0 time=10
note_on channel=0 note=49 velocity=50 time=4
control_change channel=0 control=64 value=84 time=2
control_change channel=0 control=67 value=44 time=0
control_change channel=0 control=64 value=86 time=15
note_on channel=0 note=45 velocity=0 time=18
control_change channel=0 control=64 value=87 time=5
note_on channel=0 note=81 velocity=0 time=25
control_change channel=0 control=64 value=87 time=20
note_on channel=0 note=49 velocity=0 time=4
control_change channel=0 control=64 value=88 time=11
control_change channel=0 control=64 value=90 time=16
note_on channel=0 note=52 velocity=55 time=9
control_change channel=0 control=64 value=91 time=6
note_on channel=0 note=52 velocity=0 time=30
control_change channel=0 control=64 value=91 time=30
control_change channel=0 control=67 value=44 time=0
note_on channel=0 note=57 velocity=48 time=77
control_change channel=0 control=67 value=43 time=30
note_on channel=0 note=73 velocity=0 time=59
note_on channel=0 note=76 velocity=69 time=13
note_on channel=0 note=57 velocity=0 time=1
control_change channel=0 control=67 value=43 time=4
note_on channel=0 note=76 velocity=0 time=38
note_on channel=0 note=61 velocity=46 time=13
control_change channel=0 control=64 value=91 time=10
control_change channel=0 control=64 value=88 time=15
control_change channel=0 control=64 value=85 time=15
control_change channel=0 control=67 value=42 time=0
control_change channel=0 control=64 value=82 time=16
control_change channel=0 control=64 value=82 time=15
note_on channel=0 note=61 velocity=0 time=5
control_change channel=0 control=67 value=42 time=25
note_on channel=0 note=74 velocity=65 time=3
note_on channel=0 note=57 velocity=41 time=3
control_change channel=0 control=64 value=83 time=9
control_change channel=0 control=67 value=41 time=0
note_on channel=0 note=62 velocity=34 time=12
control_change channel=0 control=64 value=84 time=4
note_on channel=0 note=57 velocity=0 time=10
control_change channel=0 control=64 value=86 time=5
control_change channel=0 control=64 value=87 time=14
control_change channel=0 control=67 value=41 time=0
note_on channel=0 note=62 velocity=0 time=0
control_change channel=0 control=64 value=88 time=16
control_change channel=0 control=64 value=89 time=15
control_change channel=0 control=67 value=40 time=0
control_change channel=0 control=64 value=90 time=16
control_change channel=0 control=64 value=90 time=15
control_change channel=0 control=67 value=40 time=15
note_on channel=0 note=52 velocity=49 time=11
control_change channel=0 control=64 value=91 time=5
control_change channel=0 control=64 value=91 time=15
note_on channel=0 note=52 velocity=0 time=60
note_on channel=0 note=74 velocity=0 time=24
note_on channel=0 note=40 velocity=40 time=34
note_on channel=0 note=73 velocity=59 time=2
note_on channel=0 note=61 velocity=45 time=12
note_on channel=0 note=40 velocity=0 time=29
note_on channel=0 note=61 velocity=0 time=23
note_on channel=0 note=73 velocity=0 time=4
control_change channel=0 control=67 value=39 time=47
control_change channel=0 control=64 value=91 time=61
control_change channel=0 control=64 value=90 time=15
control_change channel=0 control=64 value=87 time=15
note_on channel=0 note=39 velocity=38 time=8
note_on channel=0 note=57 velocity=48 time=0
control_change channel=0 control=64 value=81 time=8
control_change channel=0 control=64 value=71 time=15
control_change channel=0 control=64 value=51 time=15
control_change channel=0 control=64 value=0 time=15
control_change channel=0 control=64 value=30 time=31
control_change channel=0 control=67 value=39 time=0
control_change channel=0 control=64 value=47 time=14
control_change channel=0 control=67 value=38 time=0
control_change channel=0 control=64 value=58 time=15
control_change channel=0 control=64 value=64 time=16
control_change channel=0 control=67 value=38 time=0
control_change channel=0 control=64 value=66 time=16
note_on channel=0 note=42 velocity=38 time=10
control_change channel=0 control=64 value=69 time=5
control_change channel=0 control=67 value=37 time=0
control_change channel=0 control=64 value=71 time=16
control_change channel=0 control=67 value=36 time=0
control_change channel=0 control=64 value=72 time=15
control_change channel=0 control=67 value=35 time=0
control_change channel=0 control=64 value=73 time=15
control_change channel=0 control=67 value=34 time=0
note_on channel=0 note=39 velocity=0 time=3
control_change channel=0 control=64 value=75 time=12
control_change channel=0 control=67 value=34 time=0
control_change channel=0 control=64 value=77 time=15
control_change channel=0 control=67 value=33 time=0
control_change channel=0 control=64 value=79 time=16
control_change channel=0 control=67 value=33 time=0
control_change channel=0 control=64 value=80 time=15
control_change channel=0 control=67 value=32 time=0
control_change channel=0 control=64 value=81 time=14
control_change channel=0 control=67 value=30 time=0
control_change channel=0 control=64 value=83 time=16
control_change channel=0 control=67 value=28 time=0
note_on channel=0 note=45 velocity=38 time=11
note_on channel=0 note=60 velocity=46 time=0
control_change channel=0 control=64 value=85 time=4
control_change channel=0 control=67 value=25 time=0
note_on channel=0 note=42 velocity=0 time=12
control_change channel=0 control=64 value=87 time=3
control_change channel=0 control=67 value=23 time=0
control_change channel=0 control=64 value=89 time=15
control_change channel=0 control=67 value=21 time=0
note_on channel=0 note=57 velocity=0 time=6
control_change channel=0 control=64 value=91 time=9
control_change channel=0 control=67 value=19 time=0
control_change channel=0 control=64 value=93 time=16
control_change channel=0 control=67 value=17 time=0
note_on channel=0 note=45 velocity=0 time=11
control_change channel=0 control=64 value=95 time=4
control_change channel=0 control=67 value=14 time=0
control_change channel=0 control=64 value=97 time=14
control_change channel=0 control=67 value=12 time=0
control_change channel=0 control=64 value=98 time=16
control_change channel=0 control=67 value=9 time=0
note_on channel=0 note=48 velocity=55 time=8
control_change channel=0 control=64 value=100 time=7
control_change channel=0 control=67 value=0 time=0
note_on channel=0 note=63 velocity=63 time=2
control_change channel=0 control=64 value=102 time=14
note_on channel=0 note=48 velocity=0 time=13
control_change channel=0 control=64 value=103 time=2
control_change channel=0 control=64 value=105 time=14
control_change channel=0 control=64 value=106 time=16
control_change channel=0 control=64 value=107 time=15
control_change channel=0 control=64 value=108 time=23
control_change channel=0 control=64 value=109 time=15
control_change channel=0 control=64 value=110 time=15
note_on channel=0 note=51 velocity=68 time=0
control_change channel=0 control=64 value=113 time=16
control_change channel=0 control=64 value=115 time=15
control_change channel=0 control=64 value=117 time=15
note_on channel=0 note=60 velocity=0 time=1
control_change channel=0 control=64 value=121 time=14
control_change channel=0 control=64 value=127 time=15
note_on channel=0 note=57 velocity=66 time=52
note_on channel=0 note=66 velocity=78 time=1
note_on channel=0 note=63 velocity=0 time=19
note_on channel=0 note=66 velocity=0 time=45
note_on channel=0 note=51 velocity=0 time=25
note_on channel=0 note=57 velocity=0 time=3
note_on channel=0 note=69 velocity=86 time=30
note_on channel=0 note=60 velocity=68 time=1
note_on channel=0 note=54 velocity=72 time=114
note_on channel=0 note=60 velocity=0 time=38
note_on channel=0 note=54 velocity=0 time=55
note_on channel=0 note=51 velocity=70 time=5
note_on channel=0 note=69 velocity=0 time=26
note_on channel=0 note=51 velocity=0 time=3
note_on channel=0 note=81 velocity=90 time=13
note_on channel=0 note=72 velocity=66 time=5
note_on channel=0 note=39 velocity=74 time=108
note_on channel=0 note=69 velocity=91 time=20
note_on channel=0 note=81 velocity=0 time=13
control_change channel=0 control=64 value=97 time=3
note_on channel=0 note=72 velocity=0 time=7
control_change channel=0 control=64 value=61 time=8
control_change channel=0 control=64 value=0 time=15
control_change channel=0 control=64 value=43 time=53
control_change channel=0 control=64 value=63 time=15
note_on channel=0 note=42 velocity=80 time=7
control_change channel=0 control=64 value=71 time=8
control_change channel=0 control=64 value=76 time=15
control_change channel=0 control=64 value=81 time=15
control_change channel=0 control=64 value=85 time=16
control_change channel=0 control=64 value=88 time=15
control_change channel=0 control=64 value=91 time=16
control_change channel=0 control=64 value=94 time=15
control_change channel=0 control=64 value=98 time=14
control_change channel=0 control=64 value=101 time=16
note_on channel=0 note=69 velocity=0 time=8
control_change channel=0 control=64 value=104 time=7
note_on channel=0 note=45 velocity=78 time=6
control_change channel=0 control=64 value=108 time=9
note_on channel=0 note=39 velocity=0 time=6
control_change channel=0 control=64 value=113 time=10
note_on channel=0 note=72 velocity=97 time=8
control_change channel=0 control=64 value=117 time=6
control_change channel=0 control=64 value=119 time=16
control_change channel=0 control=64 value=123 time=15
control_change channel=0 control=64 value=127 time=15
note_on channel=0 note=42 velocity=0 time=25
note_on channel=0 note=48 velocity=90 time=35
note_on channel=0 note=45 velocity=0 time=5
note_on channel=0 note=75 velocity=94 time=13
note_on channel=0 note=48 velocity=0 time=18
note_on channel=0 note=72 velocity=0 time=11
note_on channel=0 note=51 velocity=91 time=100
note_on channel=0 note=75 velocity=0 time=88
note_on channel=0 note=57 velocity=85 time=66
note_on channel=0 note=78 velocity=102 time=14
note_on channel=0 note=78 velocity=0 time=94
note_on channel=0 note=57 velocity=0 time=85
note_on channel=0 note=81 velocity=100 time=5
note_on channel=0 note=60 velocity=89 time=2
note_on channel=0 note=51 velocity=0 time=21
note_on channel=0 note=84 velocity=100 time=159
note_on channel=0 note=54 velocity=80 time=5
note_on channel=0 note=60 velocity=0 time=29
note_on channel=0 note=54 velocity=0 time=74
note_on channel=0 note=51 velocity=74 time=3
note_on channel=0 note=84 velocity=0 time=0
note_on channel=0 note=51 velocity=0 time=24
control_change channel=0 control=64 value=102 time=90
note_on channel=0 note=93 velocity=104 time=1
control_change channel=0 control=64 value=63 time=14
note_on channel=0 note=40 velocity=72 time=7
control_change channel=0 control=64 value=0 time=7
control_change channel=0 control=64 value=50 time=47
control_change channel=0 control=64 value=70 time=16
control_change channel=0 control=64 value=80 time=15
note_on channel=0 note=52 velocity=93 time=4
note_on channel=0 note=40 velocity=0 time=6
control_change channel=0 control=64 value=91 time=6
note_on channel=0 note=52 velocity=0 time=9
control_change channel=0 control=64 value=99 time=5
control_change channel=0 control=64 value=106 time=15
control_change channel=0 control=64 value=124 time=16
control_change channel=0 control=64 value=127 time=16
note_on channel=0 note=93 velocity=0 time=62
note_on channel=0 note=81 velocity=0 time=21
note_on channel=0 note=73 velocity=100 time=98
note_on channel=0 note=61 velocity=92 time=3
note_on channel=0 note=93 velocity=103 time=0
note_on channel=0 note=81 velocity=103 time=1
note_on channel=0 note=85 velocity=97 time=5
note_on channel=0 note=73 velocity=0 time=9
note_on channel=0 note=61 velocity=0 time=7
note_on channel=0 note=64 velocity=82 time=368
note_on channel=0 note=52 velocity=77 time=7
note_on channel=0 note=64 velocity=0 time=15
note_on channel=0 note=93 velocity=0 time=3
note_on channel=0 note=81 velocity=0 time=9
note_on channel=0 note=52 velocity=0 time=4
note_on channel=0 note=54 velocity=88 time=63
note_on channel=0 note=66 velocity=89 time=1
note_on channel=0 note=85 velocity=0 time=6
note_on channel=0 note=66 velocity=0 time=12
note_on channel=0 note=54 velocity=0 time=4
note_on channel=0 note=56 velocity=70 time=70
note_on channel=0 note=92 velocity=99 time=0
note_on channel=0 note=80 velocity=81 time=2
note_on channel=0 note=68 velocity=64 time=3
note_on channel=0 note=66 velocity=59 time=4
note_on channel=0 note=54 velocity=61 time=3
note_on channel=0 note=92 velocity=0 time=5
note_on channel=0 note=56 velocity=0 time=5
note_on channel=0 note=80 velocity=0 time=0
note_on channel=0 note=68 velocity=0 time=3
note_on channel=0 note=66 velocity=0 time=4
note_on channel=0 note=54 velocity=0 time=7
note_on channel=0 note=73 velocity=97 time=65
note_on channel=0 note=85 velocity=104 time=3
note_on channel=0 note=49 velocity=94 time=1
note_on channel=0 note=61 velocity=79 time=9
note_on channel=0 note=73 velocity=0 time=18
note_on channel=0 note=49 velocity=0 time=6
note_on channel=0 note=85 velocity=0 time=2
note_on channel=0 note=61 velocity=0 time=7
note_on channel=0 note=75 velocity=95 time=61
note_on channel=0 note=51 velocity=85 time=1
note_on channel=0 note=87 velocity=101 time=1
note_on channel=0 note=63 velocity=87 time=4
note_on channel=0 note=85 velocity=53 time=26
note_on channel=0 note=85 velocity=0 time=1
note_on channel=0 note=75 velocity=0 time=3
control_change channel=0 control=64 value=84 time=7
note_on channel=0 note=87 velocity=0 time=0
note_on channel=0 note=63 velocity=0 time=12
control_change channel=0 control=64 value=0 time=3
note_on channel=0 note=51 velocity=0 time=0
note_on channel=0 note=64 velocity=95 time=52
note_on channel=0 note=88 velocity=108 time=0
note_on channel=0 note=76 velocity=107 time=2
note_on channel=0 note=52 velocity=84 time=1
control_change channel=0 control=64 value=64 time=5
control_change channel=0 control=64 value=81 time=16
note_on channel=0 note=64 velocity=0 time=1
note_on channel=0 note=76 velocity=0 time=1
note_on channel=0 note=88 velocity=0 time=7
control_change channel=0 control=64 value=106 time=6
control_change channel=0 control=64 value=127 time=15
note_on channel=0 note=52 velocity=0 time=0
control_change channel=0 control=64 value=91 time=76
control_change channel=0 control=64 value=36 time=15
control_change channel=0 control=64 value=0 time=15
control_change channel=0 control=64 value=51 time=152
note_on channel=0 note=40 velocity=67 time=9
control_change channel=0 control=64 value=63 time=6
control_change channel=0 control=64 value=66 time=16
note_on channel=0 note=40 velocity=0 time=11
control_change channel=0 control=64 value=69 time=3
note_on channel=0 note=52 velocity=72 time=10
control_change channel=0 control=64 value=71 time=6
control_change channel=0 control=64 value=75 time=15
note_on channel=0 note=52 velocity=0 time=8
control_change channel=0 control=64 value=80 time=7
control_change channel=0 control=64 value=84 time=16
control_change channel=0 control=64 value=90 time=15
control_change channel=0 control=64 value=100 time=16
note_on channel=0 note=61 velocity=96 time=8
control_change channel=0 control=64 value=127 time=7
note_on channel=0 note=69 velocity=94 time=0
note_on channel=0 note=81 velocity=102 time=2
note_on channel=0 note=73 velocity=95 time=2
note_on channel=0 note=61 velocity=0 time=5
note_on channel=0 note=52 velocity=91 time=332
note_on channel=0 note=52 velocity=0 time=44
note_on channel=0 note=81 velocity=0 time=2
note_on channel=0 note=69 velocity=0 time=14
note_on channel=0 note=54 velocity=94 time=30
note_on channel=0 note=73 velocity=0 time=11
note_on channel=0 note=54 velocity=0 time=25
note_on channel=0 note=56 velocity=92 time=56
note_on channel=0 note=80 velocity=92 time=10
note_on channel=0 note=68 velocity=84 time=1
note_on channel=0 note=80 velocity=0 time=16
note_on channel=0 note=56 velocity=0 time=3
note_on channel=0 note=68 velocity=0 time=1
control_change channel=0 control=64 value=80 time=46
control_change channel=0 control=64 value=0 time=15
note_on channel=0 note=61 velocity=93 time=15
note_on channel=0 note=73 velocity=101 time=1
note_on channel=0 note=49 velocity=82 time=3
note_on channel=0 note=61 velocity=0 time=17
note_on channel=0 note=73 velocity=0 time=14
note_on channel=0 note=49 velocity=0 time=4
note_on channel=0 note=51 velocity=85 time=64
note_on channel=0 note=75 velocity=99 time=1
note_on channel=0 note=63 velocity=94 time=1
note_on channel=0 note=51 velocity=0 time=29
note_on channel=0 note=75 velocity=0 time=10
note_on channel=0 note=63 velocity=0 time=3
control_change channel=0 control=64 value=24 time=52
note_on channel=0 note=52 velocity=96 time=4
control_change channel=0 control=64 value=78 time=11
note_on channel=0 note=64 velocity=94 time=1
note_on channel=0 note=76 velocity=101 time=0
note_on channel=0 note=52 velocity=0 time=10
control_change channel=0 control=64 value=111 time=3
note_on channel=0 note=64 velocity=0 time=3
note_on channel=0 note=76 velocity=0 time=8
control_change channel=0 control=64 value=127 time=12
control_change channel=0 control=64 value=100 time=60
control_change channel=0 control=64 value=66 time=16
control_change channel=0 control=64 value=0 time=15
note_on channel=0 note=42 velocity=68 time=214
note_on channel=0 note=54 velocity=85 time=36
control_change channel=0 control=64 value=57 time=9
note_on channel=0 note=42 velocity=0 time=10
control_change channel=0 control=64 value=76 time=5
note_on channel=0 note=54 velocity=0 time=13
control_change channel=0 control=64 value=89 time=2
control_change channel=0 control=64 value=105 time=15
control_change channel=0 control=64 value=127 time=15
note_on channel=0 note=62 velocity=94 time=25
note_on channel=0 note=71 velocity=97 time=16
note_on channel=0 note=83 velocity=101 time=0
note_on channel=0 note=62 velocity=0 time=2
note_on channel=0 note=74 velocity=89 time=0
note_on channel=0 note=54 velocity=96 time=337
note_on channel=0 note=83 velocity=0 time=31
note_on channel=0 note=54 velocity=0 time=6
note_on channel=0 note=71 velocity=0 time=23
note_on channel=0 note=55 velocity=98 time=34
note_on channel=0 note=74 velocity=0 time=4
note_on channel=0 note=55 velocity=0 time=32
note_on channel=0 note=57 velocity=90 time=60
note_on channel=0 note=69 velocity=85 time=4
note_on channel=0 note=81 velocity=96 time=1
note_on channel=0 note=69 velocity=0 time=17
note_on channel=0 note=81 velocity=0 time=1
note_on channel=0 note=57 velocity=0 time=11
control_change channel=0 control=64 value=87 time=28
control_change channel=0 control=64 value=0 time=15
note_on channel=0 note=50 velocity=90 time=25
note_on channel=0 note=62 velocity=96 time=10
note_on channel=0 note=74 velocity=95 time=1
note_on channel=0 note=62 velocity=0 time=20
note_on channel=0 note=50 velocity=0 time=2
note_on channel=0 note=74 velocity=0 time=7
note_on channel=0 note=64 velocity=93 time=68
note_on channel=0 note=76 velocity=91 time=1
note_on channel=0 note=52 velocity=86 time=1
note_on channel=0 note=74 velocity=83 time=6
note_on channel=0 note=64 velocity=0 time=20
note_on channel=0 note=74 velocity=0 time=0
note_on channel=0 note=52 velocity=0 time=6
note_on channel=0 note=76 velocity=0 time=4
note_on channel=0 note=54 velocity=91 time=64
note_on channel=0 note=66 velocity=96 time=6
note_on channel=0 note=78 velocity=105 time=0
control_change channel=0 control=64 value=79 time=17
note_on channel=0 note=54 velocity=0 time=0
note_on channel=0 note=66 velocity=0 time=8
control_change channel=0 control=64 value=127 time=7
note_on channel=0 note=78 velocity=0 time=7
control_change channel=0 control=64 value=108 time=100
control_change channel=0 control=64 value=66 time=15
control_change channel=0 control=64 value=0 time=16
note_on channel=0 note=43 velocity=81 time=152
control_change channel=0 control=64 value=64 time=39
note_on channel=0 note=43 velocity=0 time=9
control_change channel=0 control=64 value=77 time=6
note_on channel=0 note=55 velocity=89 time=1
control_change channel=0 control=64 value=85 time=14
control_change channel=0 control=64 value=95 time=16
control_change channel=0 control=64 value=99 time=14
note_on channel=0 note=55 velocity=0 time=5
control_change channel=0 control=64 value=101 time=10
control_change channel=0 control=64 value=101 time=16
control_change channel=0 control=64 value=104 time=15
control_change channel=0 control=64 value=112 time=15
control_change channel=0 control=64 value=127 time=15
note_on channel=0 note=62 velocity=97 time=0
note_on channel=0 note=71 velocity=101 time=14
note_on channel=0 note=73 velocity=94 time=0
note_on channel=0 note=76 velocity=91 time=0
note_on channel=0 note=83 velocity=101 time=0
note_on channel=0 note=62 velocity=0 time=9
note_on channel=0 note=80 velocity=56 time=17
note_on channel=0 note=80 velocity=0 time=20
note_on channel=0 note=55 velocity=98 time=312
control_change channel=0 control=64 value=96 time=24
note_on channel=0 note=83 velocity=0 time=4
control_change channel=0 control=64 value=75 time=10
note_on channel=0 note=55 velocity=0 time=4
note_on channel=0 note=71 velocity=0 time=3
control_change channel=0 control=64 value=69 time=8
control_change channel=0 control=64 value=78 time=16
note_on channel=0 note=73 velocity=0 time=12
note_on channel=0 note=76 velocity=0 time=0
control_change channel=0 control=64 value=87 time=2
control_change channel=0 control=64 value=96 time=16
note_on channel=0 note=57 velocity=95 time=4
control_change channel=0 control=64 value=107 time=11
control_change channel=0 control=64 value=127 time=24
note_on channel=0 note=57 velocity=0 time=12
note_on channel=0 note=82 velocity=100 time=62
note_on channel=0 note=70 velocity=91 time=5
note_on channel=0 note=58 velocity=90 time=6
note_on channel=0 note=70 velocity=0 time=18
note_on channel=0 note=82 velocity=0 time=2
note_on channel=0 note=58 velocity=0 time=14
control_change channel=0 control=64 value=109 time=64
note_on channel=0 note=76 velocity=101 time=12
control_change channel=0 control=64 value=70 time=4
note_on channel=0 note=64 velocity=92 time=0
note_on channel=0 note=52 velocity=85 time=3
control_change channel=0 control=64 value=0 time=11
note_on channel=0 note=64 velocity=0 time=4
note_on channel=0 note=76 velocity=0 time=7
note_on channel=0 note=52 velocity=0 time=6
note_on channel=0 note=66 velocity=96 time=75
note_on channel=0 note=78 velocity=105 time=1
note_on channel=0 note=54 velocity=83 time=3
note_on channel=0 note=66 velocity=0 time=29
note_on channel=0 note=54 velocity=0 time=6
note_on channel=0 note=78 velocity=0 time=1
note_on channel=0 note=55 velocity=91 time=104
note_on channel=0 note=79 velocity=106 time=0
note_on channel=0 note=67 velocity=95 time=1
control_change channel=0 control=64 value=61 time=5
note_on channel=0 note=67 velocity=0 time=10
control_change channel=0 control=64 value=77 time=5
note_on channel=0 note=79 velocity=0 time=2
note_on channel=0 note=55 velocity=0 time=8
control_change channel=0 control=64 value=95 time=6
control_change channel=0 control=64 value=127 time=15
control_change channel=0 control=64 value=104 time=312
control_change channel=0 control=64 value=97 time=15
control_change channel=0 control=64 value=91 time=16
control_change channel=0 control=64 value=85 time=15
control_change channel=0 control=64 value=81 time=14
control_change channel=0 control=64 value=78 time=16
control_change channel=0 control=64 value=75 time=15
control_change channel=0 control=64 value=74 time=16
control_change channel=0 control=64 value=73 time=15
control_change channel=0 control=64 value=71 time=15
control_change channel=0 control=67 value=9 time=0
control_change channel=0 control=64 value=70 time=16
control_change channel=0 control=67 value=12 time=0
control_change channel=0 control=64 value=68 time=15
control_change channel=0 control=67 value=17 time=0
control_change channel=0 control=64 value=67 time=15
control_change channel=0 control=67 value=21 time=0
control_change channel=0 control=64 value=66 time=16
control_change channel=0 control=67 value=26 time=0
control_change channel=0 control=67 value=30 time=14
control_change channel=0 control=67 value=33 time=16
control_change channel=0 control=64 value=65 time=15
control_change channel=0 control=67 value=34 time=0
control_change channel=0 control=64 value=64 time=15
control_change channel=0 control=67 value=35 time=0
control_change channel=0 control=64 value=64 time=16
control_change channel=0 control=67 value=36 time=0
control_change channel=0 control=64 value=63 time=14
control_change channel=0 control=67 value=37 time=0
control_change channel=0 control=64 value=62 time=15
control_change channel=0 control=67 value=38 time=0
control_change channel=0 control=64 value=61 time=16
control_change channel=0 control=67 value=40 time=0
control_change channel=0 control=64 value=60 time=15
control_change channel=0 control=67 value=42 time=0
control_change channel=0 control=64 value=59 time=16
control_change channel=0 control=67 value=44 time=0
control_change channel=0 control=64 value=58 time=14
control_change channel=0 control=67 value=45 time=0
control_change channel=0 control=64 value=57 time=15
control_change channel=0 control=67 value=48 time=0
control_change channel=0 control=64 value=56 time=16
control_change channel=0 control=67 value=52 time=0
control_change channel=0 control=64 value=55 time=15
control_change channel=0 control=67 value=57 time=0
control_change channel=0 control=64 value=53 time=15
control_change channel=0 control=67 value=61 time=0
control_change channel=0 control=64 value=50 time=15
control_change channel=0 control=67 value=65 time=0
control_change channel=0 control=64 value=47 time=15
control_change channel=0 control=67 value=69 time=0
control_change channel=0 control=64 value=45 time=16
control_change channel=0 control=67 value=73 time=0
control_change channel=0 control=64 value=36 time=15
control_change channel=0 control=67 value=78 time=0
control_change channel=0 control=64 value=0 time=14
control_change channel=0 control=67 value=82 time=0
control_change channel=0 control=67 value=85 time=16
control_change channel=0 control=67 value=86 time=15
control_change channel=0 control=67 value=86 time=16
control_change channel=0 control=64 value=24 time=105
note_on channel=0 note=71 velocity=45 time=7
control_change channel=0 control=64 value=57 time=9
control_change channel=0 control=64 value=61 time=15
control_change channel=0 control=67 value=86 time=0
control_change channel=0 control=64 value=61 time=14
control_change channel=0 control=67 value=85 time=0
control_change channel=0 control=64 value=62 time=16
control_change channel=0 control=64 value=64 time=22
note_on channel=0 note=73 velocity=48 time=0
control_change channel=0 control=64 value=66 time=16
control_change channel=0 control=64 value=67 time=15
control_change channel=0 control=67 value=85 time=0
control_change channel=0 control=64 value=68 time=15
control_change channel=0 control=67 value=84 time=0
note_on channel=0 note=77 velocity=56 time=4
control_change channel=0 control=64 value=69 time=12
control_change channel=0 control=64 value=69 time=15
control_change channel=0 control=67 value=84 time=0
control_change channel=0 control=64 value=70 time=15
control_change channel=0 control=67 value=83 time=0
note_on channel=0 note=83 velocity=74 time=14
control_change channel=0 control=64 value=71 time=1
control_change channel=0 control=67 value=82 time=0
control_change channel=0 control=64 value=72 time=15
control_change channel=0 control=64 value=74 time=16
note_on channel=0 note=44 velocity=38 time=6
control_change channel=0 control=64 value=74 time=9
control_change channel=0 control=64 value=75 time=15
control_change channel=0 control=64 value=76 time=16
control_change channel=0 control=67 value=81 time=0
control_change channel=0 control=64 value=76 time=15
control_change channel=0 control=64 value=77 time=16
control_change channel=0 control=67 value=81 time=0
control_change channel=0 control=64 value=78 time=15
control_change channel=0 control=64 value=80 time=15
control_change channel=0 control=64 value=81 time=16
control_change channel=0 control=64 value=82 time=14
control_change channel=0 control=67 value=80 time=0
note_on channel=0 note=44 velocity=0 time=5
control_change channel=0 control=64 value=83 time=11
control_change channel=0 control=64 value=84 time=15
control_change channel=0 control=67 value=80 time=0
control_change channel=0 control=64 value=84 time=14
control_change channel=0 control=67 value=79 time=0
control_change channel=0 control=64 value=85 time=16
control_change channel=0 control=67 value=79 time=0
control_change channel=0 control=64 value=86 time=15
control_change channel=0 control=67 value=78 time=0
control_change channel=0 control=64 value=87 time=15
control_change channel=0 control=64 value=88 time=16
control_change channel=0 control=64 value=88 time=14
control_change channel=0 control=67 value=78 time=0
control_change channel=0 control=67 value=77 time=16
control_change channel=0 control=64 value=89 time=15
control_change channel=0 control=64 value=89 time=15
note_on channel=0 note=47 velocity=31 time=11
control_change channel=0 control=64 value=90 time=5
control_change channel=0 control=67 value=77 time=0
control_change channel=0 control=64 value=91 time=14
control_change channel=0 control=67 value=76 time=0
control_change channel=0 control=67 value=76 time=15
note_on channel=0 note=47 velocity=0 time=6
control_change channel=0 control=67 value=75 time=10
control_change channel=0 control=64 value=91 time=15
control_change channel=0 control=67 value=74 time=0
control_change channel=0 control=67 value=74 time=15
note_on channel=0 note=83 velocity=0 time=5
control_change channel=0 control=64 value=92 time=10
note_on channel=0 note=71 velocity=0 time=3
control_change channel=0 control=67 value=73 time=12
note_on channel=0 note=49 velocity=48 time=9
control_change channel=0 control=64 value=92 time=7
control_change channel=0 control=67 value=72 time=0
control_change channel=0 control=67 value=71 time=15
control_change channel=0 control=67 value=69 time=14
note_on channel=0 note=49 velocity=0 time=0
control_change channel=0 control=64 value=93 time=16
control_change channel=0 control=67 value=67 time=0
control_change channel=0 control=64 value=93 time=15
control_change channel=0 control=67 value=65 time=0
control_change channel=0 control=67 value=62 time=16
control_change channel=0 control=64 value=94 time=15
control_change channel=0 control=67 value=60 time=0
control_change channel=0 control=67 value=59 time=15
control_change channel=0 control=67 value=58 time=16
control_change channel=0 control=64 value=94 time=15
control_change channel=0 control=67 value=56 time=0
note_on channel=0 note=77 velocity=0 time=1
note_on channel=0 note=53 velocity=37 time=2
control_change channel=0 control=64 value=95 time=12
control_change channel=0 control=67 value=53 time=0
control_change channel=0 control=67 value=51 time=15
control_change channel=0 control=67 value=49 time=22
note_on channel=0 note=53 velocity=0 time=8
control_change channel=0 control=67 value=46 time=8
control_change channel=0 control=64 value=95 time=15
control_change channel=0 control=67 value=43 time=0
control_change channel=0 control=64 value=95 time=15
control_change channel=0 control=67 value=40 time=0
control_change channel=0 control=67 value=38 time=15
control_change channel=0 control=67 value=36 time=15
note_on channel=0 note=44 velocity=44 time=13
control_change channel=0 control=67 value=33 time=3
control_change channel=0 control=67 value=30 time=15
control_change channel=0 control=67 value=28 time=16
control_change channel=0 control=67 value=25 time=15
control_change channel=0 control=67 value=23 time=14
control_change channel=0 control=64 value=95 time=16
control_change channel=0 control=67 value=20 time=0
control_change channel=0 control=67 value=18 time=15
control_change channel=0 control=67 value=16 time=15
note_on channel=0 note=44 velocity=0 time=5
control_change channel=0 control=67 value=14 time=11
note_on channel=0 note=80 velocity=76 time=0
note_on channel=0 note=73 velocity=0 time=1
note_on channel=0 note=68 velocity=61 time=3
control_change channel=0 control=67 value=12 time=11
note_on channel=0 note=47 velocity=42 time=0
control_change channel=0 control=64 value=95 time=16
control_change channel=0 control=67 value=10 time=0
control_change channel=0 control=64 value=94 time=15
control_change channel=0 control=67 value=8 time=0
note_on channel=0 note=68 velocity=0 time=0
control_change channel=0 control=67 value=0 time=15
control_change channel=0 control=64 value=94 time=76
note_on channel=0 note=49 velocity=49 time=13
control_change channel=0 control=64 value=95 time=3
note_on channel=0 note=78 velocity=80 time=11
control_change channel=0 control=64 value=95 time=4
note_on channel=0 note=66 velocity=61 time=2
note_on channel=0 note=80 velocity=0 time=27
control_change channel=0 control=64 value=96 time=47
note_on channel=0 note=53 velocity=53 time=24
control_change channel=0 control=64 value=96 time=6
control_change channel=0 control=64 value=97 time=15
control_change channel=0 control=64 value=99 time=15
control_change channel=0 control=64 value=102 time=15
control_change channel=0 control=64 value=104 time=15
control_change channel=0 control=64 value=105 time=16
control_change channel=0 control=64 value=106 time=15
note_on channel=0 note=66 velocity=0 time=29
note_on channel=0 note=77 velocity=86 time=14
control_change channel=0 control=64 value=106 time=2
note_on channel=0 note=44 velocity=51 time=11
note_on channel=0 note=65 velocity=71 time=0
note_on channel=0 note=78 velocity=0 time=4
control_change channel=0 control=64 value=107 time=16
note_on channel=0 note=53 velocity=0 time=11
note_on channel=0 note=47 velocity=0 time=9
note_on channel=0 note=44 velocity=0 time=3
note_on channel=0 note=77 velocity=0 time=4
note_on channel=0 note=49 velocity=0 time=11
control_change channel=0 control=64 value=106 time=7
note_on channel=0 note=65 velocity=0 time=2
control_change channel=0 control=64 value=106 time=44
control_change channel=0 control=64 value=101 time=23
control_change channel=0 control=64 value=92 time=15
note_on channel=0 note=77 velocity=81 time=7
control_change channel=0 control=64 value=77 time=8
note_on channel=0 note=45 velocity=50 time=5
note_on channel=0 note=65 velocity=52 time=3
note_on channel=0 note=69 velocity=40 time=0
control_change channel=0 control=64 value=62 time=7
note_on channel=0 note=72 velocity=43 time=1
control_change channel=0 control=64 value=0 time=14
control_change channel=0 control=64 value=39 time=16
control_change channel=0 control=64 value=50 time=15
control_change channel=0 control=64 value=56 time=15
note_on channel=0 note=45 velocity=0 time=9
control_change channel=0 control=64 value=62 time=6
control_change channel=0 control=64 value=65 time=15
control_change channel=0 control=64 value=67 time=15
control_change channel=0 control=64 value=70 time=16
control_change channel=0 control=64 value=72 time=14
note_on channel=0 note=48 velocity=59 time=0
control_change channel=0 control=64 value=75 time=16
control_change channel=0 control=64 value=77 time=15
control_change channel=0 control=64 value=78 time=15
control_change channel=0 control=64 value=79 time=16
note_on channel=0 note=48 velocity=0 time=13
control_change channel=0 control=64 value=78 time=33
note_on channel=0 note=51 velocity=68 time=4
control_change channel=0 control=64 value=78 time=11
note_on channel=0 note=51 velocity=0 time=25
control_change channel=0 control=64 value=77 time=6
control_change channel=0 control=64 value=77 time=14
note_on channel=0 note=54 velocity=66 time=70
note_on channel=0 note=54 velocity=0 time=37
control_change channel=0 control=64 value=76 time=1
control_change channel=0 control=64 value=73 time=14
control_change channel=0 control=64 value=65 time=16
control_change channel=0 control=64 value=0 time=15
note_on channel=0 note=42 velocity=66 time=43
control_change channel=0 control=64 value=54 time=33
control_change channel=0 control=64 value=64 time=15
note_on channel=0 note=65 velocity=0 time=10
control_change channel=0 control=64 value=67 time=5
control_change channel=0 control=64 value=69 time=14
control_change channel=0 control=64 value=72 time=16
control_change channel=0 control=64 value=75 time=15
note_on channel=0 note=77 velocity=0 time=4
control_change channel=0 control=64 value=77 time=11
note_on channel=0 note=45 velocity=56 time=3
control_change channel=0 control=64 value=77 time=12
control_change channel=0 control=64 value=78 time=31
control_change channel=0 control=64 value=79 time=15
note_on channel=0 note=42 velocity=0 time=24
control_change channel=0 control=64 value=76 time=14
control_change channel=0 control=64 value=72 time=15
control_change channel=0 control=64 value=65 time=16
note_on channel=0 note=48 velocity=48 time=8
note_on channel=0 note=75 velocity=61 time=1
control_change channel=0 control=64 value=47 time=5
control_change channel=0 control=64 value=51 time=15
note_on channel=0 note=63 velocity=45 time=0
note_on channel=0 note=45 velocity=0 time=15
control_change channel=0 control=64 value=61 time=1
control_change channel=0 control=64 value=64 time=15
control_change channel=0 control=64 value=66 time=16
control_change channel=0 control=64 value=68 time=14
control_change channel=0 control=64 value=70 time=15
note_on channel=0 note=48 velocity=0 time=0
note_on channel=0 note=69 velocity=0 time=7
control_change channel=0 control=64 value=72 time=9
note_on channel=0 note=54 velocity=53 time=11
control_change channel=0 control=64 value=74 time=4
control_change channel=0 control=64 value=76 time=15
note_on channel=0 note=54 velocity=0 time=12
control_change channel=0 control=64 value=78 time=4
control_change channel=0 control=64 value=80 time=14
note_on channel=0 note=75 velocity=0 time=3
control_change channel=0 control=64 value=83 time=13
note_on channel=0 note=72 velocity=0 time=3
control_change channel=0 control=64 value=85 time=12
control_change channel=0 control=64 value=88 time=15
control_change channel=0 control=64 value=91 time=16
control_change channel=0 control=64 value=93 time=15
control_change channel=0 control=64 value=94 time=15
control_change channel=0 control=64 value=95 time=16
note_on channel=0 note=36 velocity=47 time=5
note_on channel=0 note=36 velocity=0 time=37
note_on channel=0 note=63 velocity=0 time=4
control_change channel=0 control=64 value=92 time=91
control_change channel=0 control=64 value=85 time=15
control_change channel=0 control=64 value=74 time=15
control_change channel=0 control=64 value=55 time=15
note_on channel=0 note=73 velocity=61 time=14
control_change channel=0 control=64 value=0 time=2
note_on channel=0 note=37 velocity=47 time=10
note_on channel=0 note=71 velocity=47 time=5
note_on channel=0 note=61 velocity=39 time=3
control_change channel=0 control=64 value=29 time=27
control_change channel=0 control=64 value=58 time=15
control_change channel=0 control=64 value=65 time=16
control_change channel=0 control=64 value=69 time=15
note_on channel=0 note=61 velocity=0 time=7
control_change channel=0 control=64 value=73 time=7
control_change channel=0 control=64 value=76 time=16
note_on channel=0 note=71 velocity=0 time=2
control_change channel=0 control=64 value=79 time=13
note_on channel=0 note=73 velocity=0 time=7
control_change channel=0 control=64 value=83 time=8
control_change channel=0 control=64 value=86 time=15
control_change channel=0 control=64 value=88 time=15
control_change channel=0 control=64 value=90 time=16
control_change channel=0 control=64 value=93 time=15
note_on channel=0 note=41 velocity=53 time=9
control_change channel=0 control=64 value=97 time=14
control_change channel=0 control=64 value=102 time=15
control_change channel=0 control=64 value=107 time=15
control_change channel=0 control=64 value=111 time=16
control_change channel=0 control=64 value=118 time=14
control_change channel=0 control=64 value=127 time=16
note_on channel=0 note=83 velocity=86 time=73
note_on channel=0 note=77 velocity=62 time=7
note_on channel=0 note=73 velocity=51 time=1
note_on channel=0 note=44 velocity=57 time=12
note_on channel=0 note=71 velocity=57 time=0
note_on channel=0 note=73 velocity=0 time=52
note_on channel=0 note=73 velocity=15 time=0
note_on channel=0 note=49 velocity=72 time=56
note_on channel=0 note=37 velocity=0 time=1
note_on channel=0 note=41 velocity=0 time=0
note_on channel=0 note=44 velocity=0 time=3
note_on channel=0 note=49 velocity=0 time=29
note_on channel=0 note=83 velocity=0 time=47
note_on channel=0 note=71 velocity=0 time=6
note_on channel=0 note=49 velocity=68 time=40
note_on channel=0 note=73 velocity=0 time=49
note_on channel=0 note=77 velocity=0 time=11
note_on channel=0 note=82 velocity=96 time=52
note_on channel=0 note=77 velocity=64 time=10
note_on channel=0 note=70 velocity=72 time=4
note_on channel=0 note=73 velocity=66 time=11
note_on channel=0 note=56 velocity=66 time=7
note_on channel=0 note=49 velocity=0 time=13
note_on channel=0 note=59 velocity=79 time=82
note_on channel=0 note=82 velocity=0 time=53
note_on channel=0 note=56 velocity=0 time=42
note_on channel=0 note=70 velocity=0 time=19
note_on channel=0 note=61 velocity=84 time=21
note_on channel=0 note=59 velocity=0 time=4
note_on channel=0 note=77 velocity=0 time=31
note_on channel=0 note=61 velocity=0 time=30
note_on channel=0 note=49 velocity=72 time=42
note_on channel=0 note=80 velocity=92 time=15
note_on channel=0 note=49 velocity=0 time=11
note_on channel=0 note=68 velocity=75 time=2
note_on channel=0 note=73 velocity=0 time=4
note_on channel=0 note=68 velocity=0 time=56
note_on channel=0 note=80 velocity=0 time=23
control_change channel=0 control=64 value=110 time=50
control_change channel=0 control=64 value=81 time=14
note_on channel=0 note=80 velocity=80 time=3
control_change channel=0 control=64 value=29 time=13
note_on channel=0 note=37 velocity=43 time=0
note_on channel=0 note=75 velocity=56 time=1
note_on channel=0 note=68 velocity=57 time=8
control_change channel=0 control=64 value=0 time=6
note_on channel=0 note=72 velocity=41 time=3
control_change channel=0 control=64 value=55 time=42
control_change channel=0 control=64 value=64 time=16
control_change channel=0 control=64 value=66 time=15
control_change channel=0 control=64 value=68 time=14
control_change channel=0 control=64 value=71 time=16
note_on channel=0 note=42 velocity=59 time=14
control_change channel=0 control=64 value=75 time=2
control_change channel=0 control=64 value=79 time=16
control_change channel=0 control=64 value=81 time=15
control_change channel=0 control=64 value=80 time=15
note_on channel=0 note=37 velocity=0 time=8
control_change channel=0 control=64 value=77 time=8
control_change channel=0 control=64 value=70 time=14
control_change channel=0 control=64 value=57 time=15
control_change channel=0 control=64 value=50 time=16
note_on channel=0 note=45 velocity=62 time=7
control_change channel=0 control=64 value=60 time=7
control_change channel=0 control=64 value=63 time=16
control_change channel=0 control=64 value=65 time=15
note_on channel=0 note=42 velocity=0 time=0
control_change channel=0 control=64 value=68 time=15
control_change channel=0 control=64 value=72 time=16
control_change channel=0 control=64 value=75 time=14
note_on channel=0 note=45 velocity=0 time=15
control_change channel=0 control=64 value=72 time=16
control_change channel=0 control=64 value=68 time=15
note_on channel=0 note=48 velocity=56 time=6
control_change channel=0 control=64 value=64 time=10
control_change channel=0 control=64 value=64 time=15
control_change channel=0 control=64 value=66 time=15
control_change channel=0 control=64 value=67 time=16
control_change channel=0 control=64 value=68 time=15
note_on channel=0 note=48 velocity=0 time=4
control_change channel=0 control=64 value=71 time=18
control_change channel=0 control=64 value=70 time=15
control_change channel=0 control=64 value=67 time=15
note_on channel=0 note=51 velocity=56 time=7
control_change channel=0 control=64 value=64 time=9
control_change channel=0 control=64 value=63 time=15
control_change channel=0 control=64 value=65 time=15
control_change channel=0 control=64 value=67 time=15
control_change channel=0 control=64 value=70 time=15
control_change channel=0 control=64 value=73 time=16
control_change channel=0 control=64 value=76 time=15
control_change channel=0 control=64 value=78 time=15
note_on channel=0 note=54 velocity=56 time=10
note_on channel=0 note=68 velocity=0 time=1
note_on channel=0 note=80 velocity=0 time=4
control_change channel=0 control=64 value=75 time=15
control_change channel=0 control=64 value=71 time=16
control_change channel=0 control=64 value=67 time=15
note_on channel=0 note=51 velocity=0 time=1
control_change channel=0 control=64 value=68 time=14
control_change channel=0 control=64 value=69 time=16
control_change channel=0 control=64 value=70 time=15
control_change channel=0 control=64 value=71 time=15
control_change channel=0 control=64 value=72 time=15
control_change channel=0 control=64 value=73 time=15
note_on channel=0 note=54 velocity=0 time=1
note_on channel=0 note=57 velocity=45 time=3
control_change channel=0 control=64 value=74 time=12
note_on channel=0 note=78 velocity=61 time=2
note_on channel=0 note=72 velocity=0 time=1
control_change channel=0 control=64 value=76 time=12
note_on channel=0 note=66 velocity=48 time=4
control_change channel=0 control=64 value=78 time=10
control_change channel=0 control=64 value=79 time=16
note_on channel=0 note=57 velocity=0 time=5
control_change channel=0 control=64 value=80 time=10
control_change channel=0 control=64 value=82 time=15
control_change channel=0 control=64 value=85 time=15
control_change channel=0 control=64 value=88 time=15
control_change channel=0 control=64 value=92 time=16
note_on channel=0 note=60 velocity=46 time=6
control_change channel=0 control=64 value=96 time=9
control_change channel=0 control=64 value=100 time=17
control_change channel=0 control=64 value=104 time=15
control_change channel=0 control=64 value=108 time=14
control_change channel=0 control=64 value=112 time=16
note_on channel=0 note=60 velocity=0 time=3
control_change channel=0 control=64 value=116 time=12
control_change channel=0 control=64 value=119 time=15
note_on channel=0 note=66 velocity=0 time=15
control_change channel=0 control=64 value=122 time=1
note_on channel=0 note=48 velocity=50 time=7
control_change channel=0 control=64 value=126 time=7
note_on channel=0 note=78 velocity=0 time=1
note_on channel=0 note=75 velocity=0 time=7
control_change channel=0 control=64 value=127 time=8
note_on channel=0 note=48 velocity=0 time=9
control_change channel=0 control=64 value=110 time=112
control_change channel=0 control=64 value=94 time=15
control_change channel=0 control=64 value=76 time=15
control_change channel=0 control=64 value=49 time=24
note_on channel=0 note=77 velocity=66 time=5
control_change channel=0 control=64 value=0 time=9
note_on channel=0 note=37 velocity=46 time=4
note_on channel=0 note=65 velocity=46 time=3
note_on channel=0 note=73 velocity=50 time=0
control_change channel=0 control=64 value=34 time=9
control_change channel=0 control=64 value=55 time=15
control_change channel=0 control=64 value=63 time=15
control_change channel=0 control=64 value=67 time=15
control_change channel=0 control=64 value=72 time=15
note_on channel=0 note=65 velocity=0 time=5
control_change channel=0 control=64 value=76 time=11
control_change channel=0 control=64 value=81 time=15
note_on channel=0 note=77 velocity=0 time=5
note_on channel=0 note=73 velocity=0 time=6
control_change channel=0 control=64 value=84 time=4
control_change channel=0 control=64 value=87 time=15
control_change channel=0 control=64 value=91 time=15
control_change channel=0 control=64 value=95 time=15
control_change channel=0 control=64 value=98 time=15
control_change channel=0 control=64 value=101 time=15
note_on channel=0 note=44 velocity=58 time=4
control_change channel=0 control=64 value=104 time=12
note_on channel=0 note=37 velocity=0 time=7
control_change channel=0 control=64 value=109 time=8
control_change channel=0 control=64 value=116 time=15
control_change channel=0 control=64 value=127 time=16
note_on channel=0 note=87 velocity=87 time=92
note_on channel=0 note=75 velocity=60 time=14
note_on channel=0 note=47 velocity=57 time=4
note_on channel=0 note=80 velocity=48 time=9
note_on channel=0 note=83 velocity=44 time=2
note_on channel=0 note=84 velocity=49 time=7
note_on channel=0 note=44 velocity=0 time=19
note_on channel=0 note=75 velocity=0 time=29
note_on channel=0 note=47 velocity=0 time=1
note_on channel=0 note=84 velocity=0 time=0
note_on channel=0 note=80 velocity=0 time=31
note_on channel=0 note=49 velocity=78 time=9
note_on channel=0 note=83 velocity=0 time=0
note_on channel=0 note=49 velocity=0 time=27
note_on channel=0 note=87 velocity=0 time=74
note_on channel=0 note=49 velocity=69 time=13
note_on channel=0 note=86 velocity=92 time=131
note_on channel=0 note=56 velocity=83 time=2
note_on channel=0 note=83 velocity=82 time=0
note_on channel=0 note=74 velocity=85 time=3
note_on channel=0 note=49 velocity=0 time=25
note_on channel=0 note=80 velocity=55 time=5
note_on channel=0 note=59 velocity=82 time=84
note_on channel=0 note=74 velocity=0 time=14
note_on channel=0 note=80 velocity=0 time=20
note_on channel=0 note=86 velocity=0 time=36
note_on channel=0 note=83 velocity=0 time=3
note_on channel=0 note=59 velocity=0 time=28
note_on channel=0 note=61 velocity=91 time=16
note_on channel=0 note=56 velocity=0 time=10
note_on channel=0 note=61 velocity=0 time=44
note_on channel=0 note=49 velocity=76 time=52
note_on channel=0 note=85 velocity=100 time=4
note_on channel=0 note=73 velocity=88 time=6
note_on channel=0 note=49 velocity=0 time=17
note_on channel=0 note=73 velocity=0 time=64
control_change channel=0 control=64 value=74 time=24
note_on channel=0 note=37 velocity=84 time=3
control_change channel=0 control=64 value=0 time=9
control_change channel=0 control=64 value=40 time=15
control_change channel=0 control=64 value=64 time=14
note_on channel=0 note=85 velocity=0 time=8
control_change channel=0 control=64 value=71 time=8
control_change channel=0 control=64 value=80 time=15
control_change channel=0 control=64 value=99 time=16
control_change channel=0 control=64 value=127 time=15
note_on channel=0 note=44 velocity=89 time=12
note_on channel=0 note=37 velocity=0 time=40
note_on channel=0 note=47 velocity=85 time=80
note_on channel=0 note=92 velocity=101 time=7
note_on channel=0 note=80 velocity=96 time=3
note_on channel=0 note=44 velocity=0 time=45
note_on channel=0 note=80 velocity=0 time=3
note_on channel=0 note=92 velocity=0 time=19
note_on channel=0 note=47 velocity=0 time=23
note_on channel=0 note=49 velocity=96 time=20
note_on channel=0 note=49 velocity=0 time=39
note_on channel=0 note=49 velocity=96 time=82
note_on channel=0 note=56 velocity=90 time=119
note_on channel=0 note=91 velocity=106 time=0
note_on channel=0 note=79 velocity=100 time=4
note_on channel=0 note=85 velocity=95 time=0
note_on channel=0 note=83 velocity=59 time=9
note_on channel=0 note=83 velocity=0 time=27
note_on channel=0 note=49 velocity=0 time=3
note_on channel=0 note=79 velocity=0 time=16
note_on channel=0 note=91 velocity=0 time=7
note_on channel=0 note=85 velocity=0 time=33
note_on channel=0 note=59 velocity=94 time=17
note_on channel=0 note=56 velocity=0 time=99
note_on channel=0 note=61 velocity=98 time=10
note_on channel=0 note=59 velocity=0 time=11
note_on channel=0 note=61 velocity=0 time=68
note_on channel=0 note=49 velocity=88 time=33
note_on channel=0 note=49 velocity=0 time=24
note_on channel=0 note=78 velocity=99 time=0
note_on channel=0 note=85 velocity=76 time=3
note_on channel=0 note=90 velocity=103 time=1
note_on channel=0 note=83 velocity=40 time=18
note_on channel=0 note=83 velocity=0 time=29
note_on channel=0 note=78 velocity=0 time=17
note_on channel=0 note=90 velocity=0 time=25
note_on channel=0 note=85 velocity=0 time=69
control_change channel=0 control=64 value=94 time=3
control_change channel=0 control=64 value=32 time=16
note_on channel=0 note=77 velocity=105 time=6
note_on channel=0 note=89 velocity=108 time=1
note_on channel=0 note=37 velocity=87 time=3
control_change channel=0 control=64 value=0 time=5
control_change channel=0 control=64 value=38 time=31
note_on channel=0 note=77 velocity=0 time=5
control_change channel=0 control=64 value=68 time=10
control_change channel=0 control=64 value=81 time=16
note_on channel=0 note=89 velocity=0 time=0
control_change channel=0 control=64 value=100 time=14
control_change channel=0 control=64 value=127 time=15
note_on channel=0 note=44 velocity=91 time=47
note_on channel=0 note=37 velocity=0 time=45
note_on channel=0 note=47 velocity=87 time=84
note_on channel=0 note=89 velocity=89 time=9
note_on channel=0 note=83 velocity=103 time=3
note_on channel=0 note=95 velocity=104 time=0
note_on channel=0 note=85 velocity=84 time=5
note_on channel=0 note=92 velocity=65 time=13
note_on channel=0 note=44 velocity=0 time=31
note_on channel=0 note=47 velocity=0 time=29
note_on channel=0 note=92 velocity=0 time=20
note_on channel=0 note=49 velocity=100 time=15
note_on channel=0 note=49 velocity=0 time=36
note_on channel=0 note=95 velocity=0 time=23
note_on channel=0 note=83 velocity=0 time=64
note_on channel=0 note=49 velocity=93 time=8
note_on channel=0 note=85 velocity=0 time=3
note_on channel=0 note=89 velocity=0 time=25
note_on channel=0 note=56 velocity=92 time=114
note_on channel=0 note=94 velocity=103 time=5
note_on channel=0 note=82 velocity=112 time=3
note_on channel=0 note=85 velocity=96 time=3
note_on channel=0 note=89 velocity=87 time=2
note_on channel=0 note=49 velocity=0 time=3
note_on channel=0 note=92 velocity=59 time=26
note_on channel=0 note=92 velocity=0 time=37
note_on channel=0 note=82 velocity=0 time=25
note_on channel=0 note=94 velocity=0 time=5
note_on channel=0 note=58 velocity=93 time=34
note_on channel=0 note=85 velocity=0 time=40
note_on channel=0 note=59 velocity=64 time=36
note_on channel=0 note=61 velocity=101 time=70
note_on channel=0 note=89 velocity=0 time=0
note_on channel=0 note=58 velocity=0 time=22
note_on channel=0 note=59 velocity=0 time=10
note_on channel=0 note=61 velocity=0 time=59
note_on channel=0 note=56 velocity=0 time=20
note_on channel=0 note=80 velocity=97 time=27
note_on channel=0 note=92 velocity=102 time=0
note_on channel=0 note=49 velocity=91 time=3
note_on channel=0 note=89 velocity=84 time=3
note_on channel=0 note=80 velocity=0 time=26
note_on channel=0 note=86 velocity=42 time=3
note_on channel=0 note=89 velocity=0 time=18
note_on channel=0 note=86 velocity=0 time=9
note_on channel=0 note=92 velocity=0 time=6
note_on channel=0 note=49 velocity=0 time=4
note_on channel=0 note=49 velocity=66 time=41
note_on channel=0 note=56 velocity=79 time=25
note_on channel=0 note=49 velocity=0 time=47
note_on channel=0 note=59 velocity=65 time=15
note_on channel=0 note=97 velocity=29 time=9
control_change channel=0 control=64 value=88 time=28
note_on channel=0 note=97 velocity=0 time=12
control_change channel=0 control=64 value=42 time=3
control_change channel=0 control=64 value=0 time=15
note_on channel=0 note=97 velocity=110 time=33
note_on channel=0 note=65 velocity=95 time=3
note_on channel=0 note=85 velocity=104 time=3
control_change channel=0 control=64 value=70 time=7
control_change channel=0 control=64 value=85 time=15
note_on channel=0 note=56 velocity=0 time=6
note_on channel=0 note=59 velocity=0 time=3
control_change channel=0 control=64 value=104 time=6
note_on channel=0 note=65 velocity=0 time=0
control_change channel=0 control=64 value=127 time=16
note_on channel=0 note=85 velocity=0 time=74
note_on channel=0 note=97 velocity=0 time=28
note_on channel=0 note=96 velocity=106 time=158
note_on channel=0 note=84 velocity=99 time=4
note_on channel=0 note=84 velocity=0 time=18
note_on channel=0 note=96 velocity=0 time=11
note_on channel=0 note=83 velocity=98 time=168
note_on channel=0 note=95 velocity=107 time=6
control_change channel=0 control=64 value=96 time=12
control_change channel=0 control=64 value=78 time=16
control_change channel=0 control=64 value=74 time=15
control_change channel=0 control=64 value=79 time=15
control_change channel=0 control=64 value=84 time=15
control_change channel=0 control=64 value=89 time=15
note_on channel=0 note=92 velocity=86 time=12
control_change channel=0 control=64 value=96 time=4
note_on channel=0 note=80 velocity=84 time=3
control_change channel=0 control=64 value=104 time=12
control_change channel=0 control=64 value=113 time=15
note_on channel=0 note=95 velocity=0 time=1
control_change channel=0 control=64 value=123 time=14
note_on channel=0 note=83 velocity=0 time=0
control_change channel=0 control=64 value=127 time=15
note_on channel=0 note=89 velocity=92 time=23
note_on channel=0 note=77 velocity=72 time=3
note_on channel=0 note=92 velocity=0 time=47
note_on channel=0 note=80 velocity=0 time=5
note_on channel=0 note=73 velocity=78 time=8
note_on channel=0 note=85 velocity=94 time=8
note_on channel=0 note=77 velocity=0 time=5
note_on channel=0 note=73 velocity=0 time=25
note_on channel=0 note=89 velocity=0 time=0
note_on channel=0 note=83 velocity=100 time=54
note_on channel=0 note=71 velocity=89 time=10
note_on channel=0 note=85 velocity=0 time=1
note_on channel=0 note=83 velocity=0 time=33
note_on channel=0 note=80 velocity=90 time=41
note_on channel=0 note=71 velocity=0 time=5
note_on channel=0 note=68 velocity=86 time=2
note_on channel=0 note=65 velocity=73 time=52
note_on channel=0 note=77 velocity=91 time=8
note_on channel=0 note=68 velocity=0 time=17
note_on channel=0 note=80 velocity=0 time=17
note_on channel=0 note=73 velocity=92 time=37
note_on channel=0 note=77 velocity=0 time=3
note_on channel=0 note=61 velocity=77 time=8
note_on channel=0 note=65 velocity=0 time=30
note_on channel=0 note=73 velocity=0 time=2
control_change channel=0 control=64 value=112 time=5
control_change channel=0 control=64 value=71 time=16
control_change channel=0 control=64 value=0 time=14
note_on channel=0 note=73 velocity=102 time=7
note_on channel=0 note=85 velocity=102 time=1
note_on channel=0 note=61 velocity=0 time=2
control_change channel=0 control=64 value=61 time=5
control_change channel=0 control=64 value=70 time=16
control_change channel=0 control=64 value=75 time=15
note_on channel=0 note=85 velocity=0 time=4
control_change channel=0 control=64 value=81 time=12
note_on channel=0 note=73 velocity=0 time=0
control_change channel=0 control=64 value=95 time=14
control_change channel=0 control=64 value=110 time=15
control_change channel=0 control=64 value=127 time=16
control_change channel=0 control=64 value=104 time=45
control_change channel=0 control=64 value=81 time=15
control_change channel=0 control=64 value=64 time=16
control_change channel=0 control=64 value=69 time=15
note_on channel=0 note=72 velocity=94 time=6
note_on channel=0 note=84 velocity=97 time=3
control_change channel=0 control=64 value=78 time=6
control_change channel=0 control=64 value=86 time=16
control_change channel=0 control=64 value=93 time=14
note_on channel=0 note=84 velocity=0 time=0
note_on channel=0 note=72 velocity=0 time=7
control_change channel=0 control=64 value=100 time=9
control_change channel=0 control=64 value=117 time=15
control_change channel=0 control=64 value=127 time=15
control_change channel=0 control=64 value=98 time=76
control_change channel=0 control=64 value=68 time=16
note_on channel=0 note=71 velocity=99 time=10
control_change channel=0 control=64 value=0 time=4
note_on channel=0 note=83 velocity=98 time=1
control_change channel=0 control=64 value=19 time=30
control_change channel=0 control=64 value=59 time=22
control_change channel=0 control=64 value=66 time=16
control_change channel=0 control=64 value=72 time=15
control_change channel=0 control=64 value=79 time=15
note_on channel=0 note=80 velocity=81 time=13
control_change channel=0 control=64 value=86 time=3
note_on channel=0 note=68 velocity=80 time=1
control_change channel=0 control=64 value=93 time=14
control_change channel=0 control=64 value=97 time=16
note_on channel=0 note=71 velocity=0 time=1
note_on channel=0 note=83 velocity=0 time=5
control_change channel=0 control=64 value=102 time=9
control_change channel=0 control=64 value=108 time=15
control_change channel=0 control=64 value=114 time=15
note_on channel=0 note=77 velocity=84 time=7
note_on channel=0 note=65 velocity=69 time=2
control_change channel=0 control=64 value=119 time=6
control_change channel=0 control=64 value=122 time=15
control_change channel=0 control=64 value=127 time=16
note_on channel=0 note=80 velocity=0 time=22
note_on channel=0 note=61 velocity=79 time=2
note_on channel=0 note=68 velocity=0 time=4
note_on channel=0 note=73 velocity=95 time=6
note_on channel=0 note=65 velocity=0 time=3
note_on channel=0 note=77 velocity=0 time=28
note_on channel=0 note=61 velocity=0 time=2
note_on channel=0 note=71 velocity=99 time=37
note_on channel=0 note=73 velocity=0 time=16
control_change channel=0 control=64 value=114 time=2
note_on channel=0 note=59 velocity=86 time=0
control_change channel=0 control=64 value=106 time=15
note_on channel=0 note=71 velocity=0 time=13
control_change channel=0 control=64 value=105 time=2
note_on channel=0 note=68 velocity=86 time=39
note_on channel=0 note=56 velocity=87 time=9
note_on channel=0 note=59 velocity=0 time=8
control_change channel=0 control=64 value=106 time=4
control_change channel=0 control=64 value=107 time=16
control_change channel=0 control=64 value=110 time=15
control_change channel=0 control=64 value=111 time=15
note_on channel=0 note=53 velocity=69 time=14
control_change channel=0 control=64 value=113 time=2
note_on channel=0 note=65 velocity=88 time=6
control_change channel=0 control=64 value=115 time=8
control_change channel=0 control=64 value=121 time=15
control_change channel=0 control=64 value=127 time=16
note_on channel=0 note=68 velocity=0 time=13
note_on channel=0 note=56 velocity=0 time=4
note_on channel=0 note=49 velocity=76 time=16
note_on channel=0 note=61 velocity=91 time=3
note_on channel=0 note=65 velocity=0 time=1
note_on channel=0 note=53 velocity=0 time=9
note_on channel=0 note=61 velocity=0 time=20
note_on channel=0 note=49 velocity=0 time=8
control_change channel=0 control=64 value=100 time=16
control_change channel=0 control=64 value=73 time=15
control_change channel=0 control=64 value=63 time=16
note_on channel=0 note=47 velocity=81 time=3
note_on channel=0 note=59 velocity=91 time=9
control_change channel=0 control=64 value=68 time=3
control_change channel=0 control=64 value=74 time=16
control_change channel=0 control=64 value=81 time=15
control_change channel=0 control=64 value=88 time=15
control_change channel=0 control=64 value=98 time=16
note_on channel=0 note=44 velocity=82 time=12
control_change channel=0 control=64 value=105 time=2
note_on channel=0 note=47 velocity=0 time=1
note_on channel=0 note=56 velocity=84 time=9
control_change channel=0 control=64 value=107 time=6
control_change channel=0 control=64 value=108 time=15
note_on channel=0 note=59 velocity=0 time=6
control_change channel=0 control=64 value=109 time=16
control_change channel=0 control=64 value=111 time=16
note_on channel=0 note=41 velocity=78 time=8
control_change channel=0 control=64 value=117 time=4
note_on channel=0 note=44 velocity=0 time=8
control_change channel=0 control=64 value=124 time=7
note_on channel=0 note=53 velocity=80 time=0
control_change channel=0 control=64 value=127 time=16
note_on channel=0 note=56 velocity=0 time=7
note_on channel=0 note=41 velocity=0 time=8
note_on channel=0 note=53 velocity=0 time=40
note_on channel=0 note=49 velocity=91 time=8
note_on channel=0 note=37 velocity=78 time=26
note_on channel=0 note=49 velocity=0 time=17
control_change channel=0 control=64 value=110 time=17
control_change channel=0 control=64 value=80 time=15
control_change channel=0 control=64 value=0 time=15
note_on channel=0 note=25 velocity=92 time=18
note_on channel=0 note=53 velocity=98 time=12
control_change channel=0 control=64 value=65 time=46
control_change channel=0 control=64 value=75 time=15
control_change channel=0 control=64 value=84 time=15
control_change channel=0 control=64 value=98 time=16
note_on channel=0 note=25 velocity=0 time=8
note_on channel=0 note=37 velocity=0 time=4
control_change channel=0 control=64 value=107 time=3
note_on channel=0 note=56 velocity=86 time=2
control_change channel=0 control=64 value=115 time=13
note_on channel=0 note=53 velocity=0 time=13
control_change channel=0 control=64 value=122 time=3
control_change channel=0 control=64 value=127 time=15
note_on channel=0 note=59 velocity=81 time=45
note_on channel=0 note=56 velocity=0 time=23
note_on channel=0 note=61 velocity=86 time=59
note_on channel=0 note=59 velocity=0 time=32
note_on channel=0 note=61 velocity=0 time=19
note_on channel=0 note=65 velocity=95 time=51
control_change channel=0 control=64 value=89 time=58
control_change channel=0 control=64 value=62 time=16
note_on channel=0 note=68 velocity=87 time=12
control_change channel=0 control=64 value=0 time=3
note_on channel=0 note=65 velocity=0 time=0
note_on channel=0 note=71 velocity=77 time=62
note_on channel=0 note=49 velocity=75 time=28
note_on channel=0 note=68 velocity=0 time=23
note_on channel=0 note=73 velocity=75 time=5
note_on channel=0 note=77 velocity=90 time=41
note_on channel=0 note=71 velocity=0 time=6
note_on channel=0 note=53 velocity=69 time=3
note_on channel=0 note=56 velocity=84 time=6
note_on channel=0 note=73 velocity=0 time=25
note_on channel=0 note=49 velocity=0 time=11
note_on channel=0 note=59 velocity=82 time=20
note_on channel=0 note=77 velocity=0 time=8
note_on channel=0 note=65 velocity=93 time=12
note_on channel=0 note=61 velocity=94 time=2
control_change channel=0 control=64 value=71 time=30
note_on channel=0 note=53 velocity=0 time=6
control_change channel=0 control=64 value=101 time=10
note_on channel=0 note=59 velocity=0 time=3
note_on channel=0 note=56 velocity=0 time=2
control_change channel=0 control=64 value=127 time=9
note_on channel=0 note=61 velocity=0 time=1
note_on channel=0 note=68 velocity=88 time=6
note_on channel=0 note=65 velocity=0 time=34
note_on channel=0 note=71 velocity=69 time=26
note_on channel=0 note=68 velocity=0 time=27
note_on channel=0 note=73 velocity=89 time=5
note_on channel=0 note=71 velocity=0 time=25
note_on channel=0 note=73 velocity=0 time=15
note_on channel=0 note=77 velocity=77 time=58
note_on channel=0 note=79 velocity=77 time=11
note_on channel=0 note=80 velocity=91 time=33
note_on channel=0 note=77 velocity=0 time=18
note_on channel=0 note=81 velocity=72 time=16
note_on channel=0 note=79 velocity=0 time=11
note_on channel=0 note=84 velocity=64 time=10
note_on channel=0 note=83 velocity=81 time=3
note_on channel=0 note=81 velocity=0 time=24
note_on channel=0 note=80 velocity=0 time=1
note_on channel=0 note=85 velocity=84 time=3
note_on channel=0 note=83 velocity=0 time=15
note_on channel=0 note=84 velocity=0 time=12
note_on channel=0 note=85 velocity=0 time=9
note_on channel=0 note=89 velocity=95 time=44
note_on channel=0 note=92 velocity=95 time=54
note_on channel=0 note=89 velocity=0 time=21
note_on channel=0 note=94 velocity=83 time=38
note_on channel=0 note=95 velocity=85 time=48
note_on channel=0 note=97 velocity=87 time=4
note_on channel=0 note=94 velocity=0 time=22
note_on channel=0 note=92 velocity=0 time=8
note_on channel=0 note=101 velocity=107 time=15
note_on channel=0 note=95 velocity=0 time=9
note_on channel=0 note=97 velocity=0 time=19
note_on channel=0 note=101 velocity=0 time=8
control_change channel=0 control=64 value=123 time=450
control_change channel=0 control=64 value=96 time=16
control_change channel=0 control=64 value=78 time=14
control_change channel=0 control=64 value=44 time=15
control_change channel=0 control=64 value=0 time=15
note_on channel=0 note=36 velocity=80 time=227
note_on channel=0 note=42 velocity=50 time=2
note_on channel=0 note=39 velocity=62 time=13
note_on channel=0 note=45 velocity=91 time=4
note_on channel=0 note=93 velocity=81 time=4
note_on channel=0 note=99 velocity=97 time=1
control_change channel=0 control=64 value=65 time=1
note_on channel=0 note=48 velocity=97 time=0
note_on channel=0 note=102 velocity=106 time=1
note_on channel=0 note=90 velocity=100 time=2
note_on channel=0 note=96 velocity=73 time=9
control_change channel=0 control=64 value=127 time=4
note_on channel=0 note=97 velocity=59 time=14
note_on channel=0 note=94 velocity=36 time=7
note_on channel=0 note=94 velocity=0 time=1
note_on channel=0 note=90 velocity=0 time=5
note_on channel=0 note=36 velocity=0 time=8
note_on channel=0 note=97 velocity=0 time=6
note_on channel=0 note=93 velocity=0 time=2
note_on channel=0 note=48 velocity=0 time=2
note_on channel=0 note=96 velocity=0 time=6
note_on channel=0 note=102 velocity=0 time=0
note_on channel=0 note=39 velocity=0 time=6
note_on channel=0 note=45 velocity=0 time=0
note_on channel=0 note=99 velocity=0 time=6
note_on channel=0 note=42 velocity=0 time=4
note_on channel=0 note=57 velocity=76 time=468
note_on channel=0 note=69 velocity=82 time=0
note_on channel=0 note=93 velocity=104 time=1
note_on channel=0 note=81 velocity=102 time=3
note_on channel=0 note=81 velocity=0 time=20
note_on channel=0 note=57 velocity=0 time=7
note_on channel=0 note=69 velocity=0 time=1
note_on channel=0 note=93 velocity=0 time=0
note_on channel=0 note=95 velocity=108 time=109
note_on channel=0 note=83 velocity=100 time=1
note_on channel=0 note=59 velocity=87 time=1
note_on channel=0 note=71 velocity=90 time=0
note_on channel=0 note=71 velocity=0 time=24
note_on channel=0 note=83 velocity=0 time=3
note_on channel=0 note=95 velocity=0 time=2
note_on channel=0 note=59 velocity=0 time=1
note_on channel=0 note=72 velocity=82 time=72
note_on channel=0 note=96 velocity=103 time=0
note_on channel=0 note=60 velocity=86 time=1
note_on channel=0 note=84 velocity=98 time=3
note_on channel=0 note=72 velocity=0 time=15
note_on channel=0 note=84 velocity=0 time=1
note_on channel=0 note=60 velocity=0 time=3
note_on channel=0 note=96 velocity=0 time=8
note_on channel=0 note=66 velocity=99 time=74
note_on channel=0 note=54 velocity=87 time=2
note_on channel=0 note=78 velocity=100 time=4
note_on channel=0 note=90 velocity=103 time=2
note_on channel=0 note=54 velocity=0 time=17
note_on channel=0 note=66 velocity=0 time=2
note_on channel=0 note=78 velocity=0 time=8
note_on channel=0 note=90 velocity=0 time=7
note_on channel=0 note=80 velocity=18 time=13
note_on channel=0 note=80 velocity=0 time=1
note_on channel=0 note=56 velocity=62 time=59
note_on channel=0 note=80 velocity=91 time=3
note_on channel=0 note=68 velocity=98 time=1
note_on channel=0 note=92 velocity=106 time=3
note_on channel=0 note=90 velocity=74 time=18
note_on channel=0 note=58 velocity=52 time=5
note_on channel=0 note=80 velocity=0 time=11
note_on channel=0 note=68 velocity=0 time=3
note_on channel=0 note=90 velocity=0 time=0
note_on channel=0 note=92 velocity=0 time=8
note_on channel=0 note=56 velocity=0 time=2
note_on channel=0 note=58 velocity=0 time=0
note_on channel=0 note=81 velocity=102 time=110
control_change channel=0 control=64 value=84 time=1
note_on channel=0 note=93 velocity=107 time=1
note_on channel=0 note=57 velocity=96 time=5
note_on channel=0 note=69 velocity=100 time=0
control_change channel=0 control=64 value=0 time=9
note_on channel=0 note=64 velocity=62 time=24
note_on channel=0 note=94 velocity=29 time=7
note_on channel=0 note=64 velocity=0 time=16
note_on channel=0 note=94 velocity=0 time=18
control_change channel=0 control=64 value=55 time=338
control_change channel=0 control=64 value=63 time=15
control_change channel=0 control=64 value=65 time=15
control_change channel=0 control=64 value=68 time=16
control_change channel=0 control=64 value=71 time=14
control_change channel=0 control=64 value=74 time=15
control_change channel=0 control=64 value=77 time=16
control_change channel=0 control=64 value=80 time=15
control_change channel=0 control=64 value=83 time=15
control_change channel=0 control=64 value=86 time=15
control_change channel=0 control=64 value=89 time=15
control_change channel=0 control=64 value=91 time=16
control_change channel=0 control=64 value=95 time=15
control_change channel=0 control=64 value=100 time=16
control_change channel=0 control=64 value=106 time=16
control_change channel=0 control=64 value=112 time=15
control_change channel=0 control=64 value=122 time=15
control_change channel=0 control=64 value=127 time=15
note_on channel=0 note=69 velocity=0 time=55
note_on channel=0 note=57 velocity=0 time=63
note_on channel=0 note=81 velocity=0 time=9
note_on channel=0 note=93 velocity=0 time=21
note_on channel=0 note=63 velocity=90 time=160
note_on channel=0 note=75 velocity=94 time=0
note_on channel=0 note=51 velocity=78 time=9
note_on channel=0 note=87 velocity=93 time=1
note_on channel=0 note=63 velocity=0 time=25
note_on channel=0 note=75 velocity=0 time=12
note_on channel=0 note=51 velocity=0 time=3
note_on channel=0 note=87 velocity=0 time=13
note_on channel=0 note=64 velocity=89 time=75
note_on channel=0 note=88 velocity=102 time=2
note_on channel=0 note=76 velocity=94 time=1
note_on channel=0 note=52 velocity=86 time=2
note_on channel=0 note=52 velocity=0 time=30
note_on channel=0 note=64 velocity=0 time=1
note_on channel=0 note=76 velocity=0 time=0
note_on channel=0 note=88 velocity=0 time=2
note_on channel=0 note=90 velocity=102 time=93
note_on channel=0 note=78 velocity=94 time=2
note_on channel=0 note=66 velocity=77 time=3
note_on channel=0 note=54 velocity=73 time=4
note_on channel=0 note=90 velocity=0 time=9
note_on channel=0 note=66 velocity=0 time=5
note_on channel=0 note=54 velocity=0 time=10
note_on channel=0 note=78 velocity=0 time=5
note_on channel=0 note=69 velocity=99 time=101
note_on channel=0 note=81 velocity=106 time=1
control_change channel=0 control=64 value=108 time=5
note_on channel=0 note=57 velocity=92 time=1
note_on channel=0 note=45 velocity=95 time=1
control_change channel=0 control=64 value=69 time=12
note_on channel=0 note=69 velocity=0 time=9
note_on channel=0 note=81 velocity=0 time=3
note_on channel=0 note=45 velocity=0 time=3
control_change channel=0 control=64 value=0 time=2
note_on channel=0 note=57 velocity=0 time=1
note_on channel=0 note=71 velocity=97 time=109
note_on channel=0 note=83 velocity=103 time=2
note_on channel=0 note=59 velocity=96 time=1
note_on channel=0 note=47 velocity=92 time=2
note_on channel=0 note=71 velocity=0 time=23
note_on channel=0 note=47 velocity=0 time=3
note_on channel=0 note=59 velocity=0 time=3
note_on channel=0 note=83 velocity=0 time=3
note_on channel=0 note=72 velocity=102 time=204
note_on channel=0 note=84 velocity=103 time=0
note_on channel=0 note=60 velocity=97 time=2
note_on channel=0 note=48 velocity=89 time=3
control_change channel=0 control=64 value=35 time=350
control_change channel=0 control=64 value=49 time=16
control_change channel=0 control=64 value=58 time=15
control_change channel=0 control=64 value=62 time=16
control_change channel=0 control=64 value=64 time=15
control_change channel=0 control=64 value=65 time=15
control_change channel=0 control=64 value=66 time=16
control_change channel=0 control=64 value=68 time=15
control_change channel=0 control=64 value=70 time=15
control_change channel=0 control=64 value=71 time=16
control_change channel=0 control=64 value=73 time=14
control_change channel=0 control=64 value=76 time=16
control_change channel=0 control=64 value=80 time=15
control_change channel=0 control=64 value=85 time=15
control_change channel=0 control=64 value=89 time=16
control_change channel=0 control=64 value=93 time=15
control_change channel=0 control=64 value=96 time=15
control_change channel=0 control=64 value=100 time=14
control_change channel=0 control=64 value=102 time=15
control_change channel=0 control=64 value=103 time=16
control_change channel=0 control=64 value=103 time=45
control_change channel=0 control=64 value=104 time=15
control_change channel=0 control=64 value=105 time=53
control_change channel=0 control=64 value=107 time=16
control_change channel=0 control=64 value=109 time=15
control_change channel=0 control=64 value=111 time=16
control_change channel=0 control=64 value=116 time=15
control_change channel=0 control=64 value=127 time=14
control_change channel=0 control=67 value=8 time=183
control_change channel=0 control=67 value=10 time=14
control_change channel=0 control=67 value=12 time=16
control_change channel=0 control=67 value=14 time=15
control_change channel=0 control=67 value=16 time=15
control_change channel=0 control=67 value=19 time=16
control_change channel=0 control=67 value=22 time=15
control_change channel=0 control=67 value=24 time=16
control_change channel=0 control=67 value=25 time=15
control_change channel=0 control=67 value=26 time=14
control_change channel=0 control=67 value=27 time=16
control_change channel=0 control=67 value=29 time=15
control_change channel=0 control=67 value=30 time=15
control_change channel=0 control=67 value=30 time=16
control_change channel=0 control=67 value=31 time=14
control_change channel=0 control=67 value=32 time=31
control_change channel=0 control=67 value=32 time=16
control_change channel=0 control=67 value=33 time=16
control_change channel=0 control=67 value=33 time=14
control_change channel=0 control=67 value=34 time=16
control_change channel=0 control=67 value=34 time=30
control_change channel=0 control=67 value=36 time=16
control_change channel=0 control=67 value=37 time=14
control_change channel=0 control=67 value=38 time=15
control_change channel=0 control=67 value=39 time=16
control_change channel=0 control=67 value=40 time=15
control_change channel=0 control=67 value=41 time=16
control_change channel=0 control=67 value=42 time=14
control_change channel=0 control=67 value=43 time=15
control_change channel=0 control=67 value=45 time=16
control_change channel=0 control=67 value=46 time=22
control_change channel=0 control=67 value=47 time=16
control_change channel=0 control=67 value=49 time=15
control_change channel=0 control=67 value=50 time=15
control_change channel=0 control=67 value=51 time=16
control_change channel=0 control=67 value=52 time=15
control_change channel=0 control=67 value=53 time=15
control_change channel=0 control=67 value=55 time=15
control_change channel=0 control=67 value=57 time=15
control_change channel=0 control=67 value=58 time=16
control_change channel=0 control=67 value=59 time=15
control_change channel=0 control=67 value=59 time=14
control_change channel=0 control=67 value=61 time=16
control_change channel=0 control=67 value=64 time=15
control_change channel=0 control=67 value=66 time=15
control_change channel=0 control=67 value=68 time=15
control_change channel=0 control=67 value=69 time=15
control_change channel=0 control=67 value=71 time=16
control_change channel=0 control=67 value=73 time=15
control_change channel=0 control=67 value=75 time=14
control_change channel=0 control=67 value=77 time=16
control_change channel=0 control=67 value=80 time=15
control_change channel=0 control=67 value=82 time=16
control_change channel=0 control=67 value=84 time=15
control_change channel=0 control=67 value=86 time=14
control_change channel=0 control=67 value=88 time=18
control_change channel=0 control=67 value=90 time=15
control_change channel=0 control=67 value=93 time=16
control_change channel=0 control=67 value=96 time=15
control_change channel=0 control=67 value=97 time=14
control_change channel=0 control=67 value=99 time=16
control_change channel=0 control=67 value=101 time=15
note_on channel=0 note=60 velocity=0 time=4
control_change channel=0 control=67 value=104 time=12
control_change channel=0 control=67 value=107 time=15
control_change channel=0 control=67 value=109 time=15
control_change channel=0 control=67 value=111 time=16
control_change channel=0 control=67 value=113 time=15
control_change channel=0 control=67 value=115 time=15
control_change channel=0 control=67 value=116 time=15
control_change channel=0 control=67 value=118 time=15
control_change channel=0 control=67 value=118 time=31
note_on channel=0 note=48 velocity=0 time=1
note_on channel=0 note=72 velocity=0 time=11
control_change channel=0 control=67 value=119 time=3
control_change channel=0 control=67 value=120 time=16
control_change channel=0 control=67 value=120 time=15
note_on channel=0 note=84 velocity=0 time=58
control_change channel=0 control=64 value=119 time=117
control_change channel=0 control=64 value=115 time=15
control_change channel=0 control=64 value=112 time=15
control_change channel=0 control=64 value=109 time=16
control_change channel=0 control=64 value=106 time=15
control_change channel=0 control=64 value=105 time=14
control_change channel=0 control=64 value=103 time=16
control_change channel=0 control=64 value=102 time=15
control_change channel=0 control=64 value=101 time=16
control_change channel=0 control=64 value=100 time=15
control_change channel=0 control=64 value=99 time=15
control_change channel=0 control=64 value=97 time=15
control_change channel=0 control=64 value=97 time=15
control_change channel=0 control=64 value=96 time=16
control_change channel=0 control=64 value=95 time=14
control_change channel=0 control=64 value=94 time=15
control_change channel=0 control=64 value=93 time=16
control_change channel=0 control=64 value=92 time=15
control_change channel=0 control=64 value=90 time=15
control_change channel=0 control=64 value=88 time=15
control_change channel=0 control=64 value=86 time=15
control_change channel=0 control=64 value=84 time=16
control_change channel=0 control=64 value=83 time=15
control_change channel=0 control=64 value=81 time=15
control_change channel=0 control=64 value=80 time=15
control_change channel=0 control=64 value=78 time=15
control_change channel=0 control=67 value=120 time=0
control_change channel=0 control=64 value=76 time=15
control_change channel=0 control=67 value=119 time=0
control_change channel=0 control=64 value=74 time=15
control_change channel=0 control=64 value=73 time=15
control_change channel=0 control=64 value=72 time=16
control_change channel=0 control=64 value=71 time=15
control_change channel=0 control=64 value=70 time=15
control_change channel=0 control=64 value=69 time=16
control_change channel=0 control=64 value=68 time=15
control_change channel=0 control=64 value=68 time=45
control_change channel=0 control=67 value=119 time=0
control_change channel=0 control=64 value=67 time=18
control_change channel=0 control=64 value=67 time=29
control_change channel=0 control=64 value=66 time=31
control_change channel=0 control=64 value=66 time=45
control_change channel=0 control=64 value=65 time=16
control_change channel=0 control=64 value=60 time=23
control_change channel=0 control=64 value=0 time=15
control_change channel=0 control=67 value=118 time=46
control_change channel=0 control=67 value=118 time=30
control_change channel=0 control=64 value=24 time=75
control_change channel=0 control=67 value=117 time=0
control_change channel=0 control=64 value=33 time=16
control_change channel=0 control=64 value=42 time=15
control_change channel=0 control=64 value=50 time=15
control_change channel=0 control=64 value=56 time=15
control_change channel=0 control=64 value=61 time=15
control_change channel=0 control=64 value=63 time=16
control_change channel=0 control=64 value=63 time=15
control_change channel=0 control=64 value=64 time=16
control_change channel=0 control=64 value=65 time=15
control_change channel=0 control=64 value=65 time=14
control_change channel=0 control=64 value=66 time=16
note_on channel=0 note=60 velocity=34 time=9
control_change channel=0 control=64 value=67 time=6
control_change channel=0 control=64 value=68 time=15
control_change channel=0 control=64 value=69 time=16
control_change channel=0 control=64 value=70 time=15
control_change channel=0 control=67 value=117 time=0
control_change channel=0 control=64 value=71 time=16
control_change channel=0 control=64 value=72 time=14
control_change channel=0 control=64 value=74 time=15
control_change channel=0 control=64 value=75 time=16
control_change channel=0 control=64 value=77 time=14
control_change channel=0 control=64 value=78 time=15
control_change channel=0 control=64 value=79 time=16
control_change channel=0 control=64 value=81 time=15
control_change channel=0 control=64 value=82 time=16
control_change channel=0 control=64 value=83 time=14
control_change channel=0 control=64 value=84 time=15
control_change channel=0 control=64 value=86 time=16
control_change channel=0 control=64 value=87 time=15
control_change channel=0 control=64 value=87 time=15
control_change channel=0 control=64 value=88 time=15
control_change channel=0 control=64 value=89 time=15
control_change channel=0 control=64 value=91 time=16
control_change channel=0 control=64 value=93 time=15
control_change channel=0 control=67 value=116 time=0
control_change channel=0 control=64 value=94 time=16
control_change channel=0 control=64 value=95 time=16
control_change channel=0 control=64 value=97 time=15
control_change channel=0 control=64 value=98 time=15
control_change channel=0 control=64 value=99 time=15
control_change channel=0 control=64 value=99 time=24
control_change channel=0 control=64 value=100 time=14
control_change channel=0 control=64 value=100 time=15
control_change channel=0 control=64 value=101 time=31
note_on channel=0 note=60 velocity=0 time=31
control_change channel=0 control=64 value=101 time=30
control_change channel=0 control=67 value=116 time=167
note_on channel=0 note=43 velocity=20 time=29
note_on channel=0 note=36 velocity=14 time=3
note_on channel=0 note=60 velocity=24 time=10
note_on channel=0 note=36 velocity=0 time=397
note_on channel=0 note=46 velocity=33 time=9
note_on channel=0 note=43 velocity=0 time=1
note_on channel=0 note=61 velocity=25 time=54
note_on channel=0 note=60 velocity=0 time=19
note_on channel=0 note=61 velocity=0 time=86
note_on channel=0 note=46 velocity=0 time=62
note_on channel=0 note=61 velocity=36 time=20
note_on channel=0 note=43 velocity=35 time=5
note_on channel=0 note=36 velocity=21 time=30
note_on channel=0 note=43 velocity=0 time=154
note_on channel=0 note=60 velocity=46 time=1
note_on channel=0 note=61 velocity=0 time=5
note_on channel=0 note=36 velocity=0 time=6
note_on channel=0 note=46 velocity=40 time=4
note_on channel=0 note=60 velocity=0 time=28
control_change channel=0 control=64 value=101 time=56
control_change channel=0 control=64 value=100 time=16
note_on channel=0 note=46 velocity=0 time=7
control_change channel=0 control=64 value=98 time=8
control_change channel=0 control=64 value=94 time=15
control_change channel=0 control=64 value=89 time=16
note_on channel=0 note=43 velocity=30 time=0
note_on channel=0 note=60 velocity=34 time=0
note_on channel=0 note=36 velocity=32 time=7
control_change channel=0 control=64 value=88 time=7
control_change channel=0 control=64 value=88 time=76
control_change channel=0 control=67 value=115 time=0
control_change channel=0 control=64 value=89 time=15
control_change channel=0 control=64 value=89 time=16
control_change channel=0 control=64 value=90 time=14
control_change channel=0 control=67 value=115 time=0
note_on channel=0 note=60 velocity=0 time=10
note_on channel=0 note=64 velocity=53 time=1
control_change channel=0 control=64 value=90 time=5
note_on channel=0 note=43 velocity=0 time=5
note_on channel=0 note=46 velocity=37 time=6
control_change channel=0 control=67 value=114 time=4
note_on channel=0 note=36 velocity=0 time=3
note_on channel=0 note=64 velocity=0 time=26
note_on channel=0 note=46 velocity=0 time=72
control_change channel=0 control=67 value=114 time=15
note_on channel=0 note=64 velocity=53 time=19
note_on channel=0 note=43 velocity=25 time=10
note_on channel=0 note=36 velocity=30 time=26
note_on channel=0 note=36 velocity=0 time=58
note_on channel=0 note=46 velocity=42 time=37
note_on channel=0 note=64 velocity=0 time=0
note_on channel=0 note=43 velocity=0 time=3
note_on channel=0 note=60 velocity=45 time=5
note_on channel=0 note=60 velocity=0 time=47
control_change channel=0 control=64 value=88 time=52
control_change channel=0 control=64 value=86 time=16
control_change channel=0 control=64 value=80 time=15
note_on channel=0 note=46 velocity=0 time=5
control_change channel=0 control=64 value=73 time=9
note_on channel=0 note=43 velocity=29 time=5
control_change channel=0 control=64 value=71 time=11
note_on channel=0 note=60 velocity=44 time=3
note_on channel=0 note=36 velocity=21 time=6
control_change channel=0 control=64 value=72 time=6
control_change channel=0 control=64 value=73 time=16
control_change channel=0 control=64 value=74 time=15
control_change channel=0 control=64 value=75 time=14
control_change channel=0 control=64 value=77 time=16
control_change channel=0 control=64 value=78 time=15
control_change channel=0 control=64 value=79 time=15
control_change channel=0 control=67 value=113 time=0
control_change channel=0 control=64 value=81 time=16
control_change channel=0 control=67 value=113 time=0
note_on channel=0 note=46 velocity=32 time=0
control_change channel=0 control=64 value=82 time=15
note_on channel=0 note=43 velocity=0 time=0
note_on channel=0 note=36 velocity=0 time=1
note_on channel=0 note=67 velocity=48 time=8
control_change channel=0 control=64 value=83 time=7
control_change channel=0 control=64 value=84 time=15
control_change channel=0 control=67 value=112 time=0
note_on channel=0 note=60 velocity=0 time=10
control_change channel=0 control=64 value=86 time=4
note_on channel=0 note=67 velocity=0 time=9
control_change channel=0 control=64 value=87 time=7
control_change channel=0 control=67 value=111 time=0
control_change channel=0 control=64 value=88 time=15
control_change channel=0 control=64 value=88 time=14
control_change channel=0 control=67 value=111 time=0
control_change channel=0 control=64 value=89 time=16
control_change channel=0 control=67 value=110 time=15
control_change channel=0 control=67 value=110 time=16
note_on channel=0 note=46 velocity=0 time=5
control_change channel=0 control=64 value=90 time=10
control_change channel=0 control=67 value=109 time=0
note_on channel=0 note=43 velocity=33 time=1
note_on channel=0 note=36 velocity=26 time=4
note_on channel=0 note=67 velocity=53 time=5
control_change channel=0 control=67 value=109 time=4
control_change channel=0 control=67 value=108 time=31
control_change channel=0 control=67 value=107 time=38
control_change channel=0 control=67 value=107 time=15
note_on channel=0 note=43 velocity=0 time=5
note_on channel=0 note=67 velocity=0 time=5
control_change channel=0 control=67 value=105 time=6
note_on channel=0 note=46 velocity=45 time=0
note_on channel=0 note=60 velocity=54 time=12
control_change channel=0 control=67 value=102 time=3
note_on channel=0 note=36 velocity=0 time=6
control_change channel=0 control=67 value=101 time=10
control_change channel=0 control=67 value=100 time=15
note_on channel=0 note=60 velocity=0 time=11
control_change channel=0 control=64 value=89 time=35
control_change channel=0 control=64 value=85 time=14
control_change channel=0 control=64 value=82 time=16
control_change channel=0 control=64 value=81 time=15
note_on channel=0 note=60 velocity=58 time=13
note_on channel=0 note=43 velocity=35 time=5
note_on channel=0 note=46 velocity=0 time=1
note_on channel=0 note=36 velocity=33 time=16
control_change channel=0 control=64 value=82 time=11
control_change channel=0 control=67 value=99 time=0
control_change channel=0 control=64 value=83 time=16
control_change channel=0 control=67 value=99 time=0
control_change channel=0 control=64 value=86 time=14
control_change channel=0 control=64 value=88 time=16
control_change channel=0 control=67 value=98 time=0
control_change channel=0 control=64 value=89 time=15
control_change channel=0 control=67 value=98 time=0
note_on channel=0 note=60 velocity=0 time=6
control_change channel=0 control=64 value=91 time=9
control_change channel=0 control=67 value=96 time=0
note_on channel=0 note=46 velocity=45 time=12
control_change channel=0 control=64 value=91 time=3
control_change channel=0 control=67 value=95 time=0
note_on channel=0 note=73 velocity=74 time=8
control_change channel=0 control=64 value=92 time=7
control_change channel=0 control=67 value=94 time=0
note_on channel=0 note=36 velocity=0 time=1
note_on channel=0 note=43 velocity=0 time=9
control_change channel=0 control=64 value=93 time=5
control_change channel=0 control=67 value=92 time=0
control_change channel=0 control=64 value=93 time=16
control_change channel=0 control=67 value=90 time=0
note_on channel=0 note=73 velocity=0 time=10
control_change channel=0 control=64 value=94 time=5
control_change channel=0 control=67 value=87 time=0
control_change channel=0 control=67 value=84 time=15
control_change channel=0 control=67 value=81 time=15
control_change channel=0 control=67 value=76 time=15
control_change channel=0 control=67 value=72 time=16
control_change channel=0 control=67 value=67 time=15
note_on channel=0 note=43 velocity=44 time=13
control_change channel=0 control=67 value=63 time=1
note_on channel=0 note=73 velocity=73 time=4
note_on channel=0 note=46 velocity=0 time=8
control_change channel=0 control=67 value=58 time=4
note_on channel=0 note=36 velocity=40 time=2
control_change channel=0 control=67 value=55 time=13
control_change channel=0 control=67 value=52 time=15
control_change channel=0 control=67 value=50 time=15
control_change channel=0 control=67 value=48 time=15
control_change channel=0 control=67 value=46 time=16
control_change channel=0 control=67 value=45 time=15
note_on channel=0 note=73 velocity=0 time=0
note_on channel=0 note=46 velocity=50 time=8
control_change channel=0 control=67 value=44 time=8
note_on channel=0 note=60 velocity=69 time=6
note_on channel=0 note=36 velocity=0 time=6
control_change channel=0 control=67 value=42 time=3
note_on channel=0 note=43 velocity=0 time=13
control_change channel=0 control=67 value=41 time=2
control_change channel=0 control=67 value=40 time=16
control_change channel=0 control=67 value=39 time=15
note_on channel=0 note=60 velocity=0 time=10
control_change channel=0 control=64 value=93 time=4
control_change channel=0 control=67 value=39 time=0
control_change channel=0 control=64 value=91 time=16
control_change channel=0 control=67 value=38 time=0
control_change channel=0 control=64 value=84 time=15
control_change channel=0 control=64 value=75 time=16
control_change channel=0 control=67 value=38 time=0
note_on channel=0 note=46 velocity=0 time=8
control_change channel=0 control=64 value=70 time=7
control_change channel=0 control=64 value=70 time=15
control_change channel=0 control=67 value=37 time=0
note_on channel=0 note=43 velocity=44 time=0
note_on channel=0 note=60 velocity=67 time=15
control_change channel=0 control=64 value=72 time=1
control_change channel=0 control=67 value=37 time=0
note_on channel=0 note=36 velocity=38 time=14
control_change channel=0 control=64 value=73 time=8
control_change channel=0 control=67 value=36 time=0
control_change channel=0 control=64 value=76 time=15
control_change channel=0 control=67 value=35 time=0
control_change channel=0 control=64 value=79 time=15
control_change channel=0 control=67 value=34 time=0
control_change channel=0 control=64 value=83 time=15
control_change channel=0 control=67 value=32 time=0
control_change channel=0 control=64 value=86 time=16
control_change channel=0 control=67 value=31 time=0
control_change channel=0 control=64 value=88 time=15
control_change channel=0 control=67 value=30 time=0
control_change channel=0 control=64 value=90 time=15
control_change channel=0 control=67 value=28 time=0
control_change channel=0 control=64 value=92 time=15
control_change channel=0 control=67 value=27 time=0
note_on channel=0 note=60 velocity=0 time=0
control_change channel=0 control=64 value=94 time=16
control_change channel=0 control=67 value=25 time=0
control_change channel=0 control=64 value=95 time=16
control_change channel=0 control=67 value=23 time=0
note_on channel=0 note=43 velocity=0 time=11
control_change channel=0 control=64 value=96 time=4
control_change channel=0 control=67 value=22 time=0
note_on channel=0 note=36 velocity=0 time=8
control_change channel=0 control=64 value=97 time=6
control_change channel=0 control=67 value=20 time=0
note_on channel=0 note=46 velocity=47 time=3
note_on channel=0 note=76 velocity=74 time=2
control_change channel=0 control=64 value=98 time=11
control_change channel=0 control=67 value=19 time=0
control_change channel=0 control=64 value=100 time=15
control_change channel=0 control=67 value=17 time=0
control_change channel=0 control=64 value=102 time=16
control_change channel=0 control=67 value=15 time=0
control_change channel=0 control=67 value=13 time=15
note_on channel=0 note=76 velocity=0 time=11
control_change channel=0 control=67 value=11 time=3
control_change channel=0 control=67 value=9 time=16
control_change channel=0 control=64 value=102 time=15
control_change channel=0 control=67 value=0 time=0
note_on channel=0 note=36 velocity=38 time=46
note_on channel=0 note=43 velocity=40 time=0
note_on channel=0 note=76 velocity=71 time=5
note_on channel=0 note=46 velocity=0 time=3
note_on channel=0 note=36 velocity=0 time=60
note_on channel=0 note=43 velocity=0 time=26
note_on channel=0 note=76 velocity=0 time=6
note_on channel=0 note=46 velocity=61 time=10
note_on channel=0 note=70 velocity=75 time=9
note_on channel=0 note=70 velocity=0 time=53
control_change channel=0 control=64 value=101 time=11
control_change channel=0 control=64 value=95 time=15
control_change channel=0 control=64 value=87 time=15
note_on channel=0 note=46 velocity=0 time=4
control_change channel=0 control=64 value=83 time=11
note_on channel=0 note=43 velocity=46 time=4
note_on channel=0 note=37 velocity=50 time=9
control_change channel=0 control=64 value=84 time=2
note_on channel=0 note=70 velocity=72 time=8
control_change channel=0 control=64 value=85 time=7
control_change channel=0 control=64 value=88 time=15
control_change channel=0 control=64 value=91 time=15
control_change channel=0 control=64 value=95 time=16
control_change channel=0 control=64 value=99 time=15
control_change channel=0 control=64 value=101 time=15
control_change channel=0 control=64 value=102 time=15
note_on channel=0 note=43 velocity=0 time=4
note_on channel=0 note=46 velocity=61 time=4
note_on channel=0 note=70 velocity=0 time=5
note_on channel=0 note=79 velocity=78 time=1
note_on channel=0 note=37 velocity=0 time=1
control_change channel=0 control=64 value=103 time=16
control_change channel=0 control=64 value=104 time=15
control_change channel=0 control=64 value=106 time=15
note_on channel=0 note=79 velocity=0 time=9
control_change channel=0 control=64 value=107 time=6
control_change channel=0 control=64 value=107 time=38
control_change channel=0 control=64 value=108 time=15
note_on channel=0 note=46 velocity=0 time=9
control_change channel=0 control=64 value=108 time=7
note_on channel=0 note=43 velocity=61 time=5
note_on channel=0 note=79 velocity=82 time=5
note_on channel=0 note=37 velocity=60 time=6
control_change channel=0 control=64 value=109 time=14
control_change channel=0 control=64 value=108 time=75
note_on channel=0 note=79 velocity=0 time=0
note_on channel=0 note=46 velocity=70 time=9
note_on channel=0 note=70 velocity=89 time=4
note_on channel=0 note=43 velocity=0 time=6
note_on channel=0 note=37 velocity=0 time=24
note_on channel=0 note=70 velocity=0 time=28
control_change channel=0 control=64 value=105 time=22
control_change channel=0 control=64 value=98 time=15
control_change channel=0 control=64 value=94 time=15
note_on channel=0 note=43 velocity=65 time=21
note_on channel=0 note=70 velocity=93 time=0
note_on channel=0 note=46 velocity=0 time=1
note_on channel=0 note=37 velocity=63 time=3
control_change channel=0 control=64 value=95 time=20
control_change channel=0 control=64 value=98 time=16
control_change channel=0 control=64 value=101 time=15
control_change channel=0 control=64 value=103 time=16
control_change channel=0 control=64 value=104 time=15
note_on channel=0 note=70 velocity=0 time=8
control_change channel=0 control=64 value=104 time=6
control_change channel=0 control=64 value=105 time=16
note_on channel=0 note=46 velocity=75 time=9
note_on channel=0 note=85 velocity=92 time=2
note_on channel=0 note=37 velocity=0 time=1
control_change channel=0 control=64 value=106 time=3
note_on channel=0 note=43 velocity=0 time=5
control_change channel=0 control=64 value=106 time=11
control_change channel=0 control=64 value=107 time=15
control_change channel=0 control=64 value=107 time=15
note_on channel=0 note=85 velocity=0 time=10
control_change channel=0 control=64 value=108 time=6
control_change channel=0 control=64 value=108 time=15
control_change channel=0 control=64 value=109 time=14
control_change channel=0 control=64 value=110 time=16
control_change channel=0 control=64 value=111 time=15
note_on channel=0 note=43 velocity=70 time=4
note_on channel=0 note=46 velocity=0 time=5
note_on channel=0 note=85 velocity=102 time=0
note_on channel=0 note=37 velocity=62 time=1
control_change channel=0 control=64 value=112 time=6
control_change channel=0 control=64 value=112 time=14
control_change channel=0 control=64 value=113 time=15
control_change channel=0 control=64 value=114 time=16
control_change channel=0 control=64 value=114 time=15
note_on channel=0 note=85 velocity=0 time=16
control_change channel=0 control=64 value=115 time=14
note_on channel=0 note=46 velocity=80 time=7
note_on channel=0 note=70 velocity=93 time=1
note_on channel=0 note=37 velocity=0 time=7
note_on channel=0 note=43 velocity=0 time=9
control_change channel=0 control=64 value=115 time=7
note_on channel=0 note=70 velocity=0 time=29
control_change channel=0 control=64 value=116 time=1
control_change channel=0 control=64 value=114 time=68
note_on channel=0 note=73 velocity=104 time=4
note_on channel=0 note=43 velocity=74 time=4
control_change channel=0 control=64 value=106 time=7
note_on channel=0 note=46 velocity=0 time=0
note_on channel=0 note=37 velocity=64 time=1
control_change channel=0 control=64 value=101 time=15
control_change channel=0 control=64 value=101 time=45
note_on channel=0 note=73 velocity=0 time=12
control_change channel=0 control=64 value=104 time=3
control_change channel=0 control=64 value=108 time=16
note_on channel=0 note=88 velocity=99 time=7
note_on channel=0 note=46 velocity=85 time=5
control_change channel=0 control=64 value=111 time=3
note_on channel=0 note=43 velocity=0 time=10
note_on channel=0 note=37 velocity=0 time=1
control_change channel=0 control=64 value=114 time=4
control_change channel=0 control=64 value=117 time=15
note_on channel=0 note=88 velocity=0 time=10
control_change channel=0 control=64 value=119 time=5
control_change channel=0 control=64 value=121 time=16
note_on channel=0 note=43 velocity=83 time=45
control_change channel=0 control=64 value=124 time=1
note_on channel=0 note=46 velocity=0 time=2
note_on channel=0 note=88 velocity=101 time=8
control_change channel=0 control=64 value=127 time=5
note_on channel=0 note=37 velocity=65 time=4
note_on channel=0 note=88 velocity=0 time=38
note_on channel=0 note=73 velocity=97 time=45
note_on channel=0 note=46 velocity=86 time=2
note_on channel=0 note=43 velocity=0 time=8
note_on channel=0 note=37 velocity=0 time=5
note_on channel=0 note=73 velocity=0 time=27
note_on channel=0 note=43 velocity=90 time=60
note_on channel=0 note=46 velocity=0 time=3
control_change channel=0 control=64 value=117 time=5
note_on channel=0 note=70 velocity=103 time=7
note_on channel=0 note=37 velocity=73 time=1
control_change channel=0 control=64 value=91 time=7
control_change channel=0 control=64 value=74 time=16
control_change channel=0 control=64 value=69 time=15
control_change channel=0 control=64 value=77 time=16
control_change channel=0 control=64 value=84 time=15
note_on channel=0 note=70 velocity=0 time=0
control_change channel=0 control=64 value=91 time=14
control_change channel=0 control=64 value=99 time=16
note_on channel=0 note=46 velocity=89 time=3
note_on channel=0 note=85 velocity=100 time=3
control_change channel=0 control=64 value=109 time=9
note_on channel=0 note=43 velocity=0 time=1
note_on channel=0 note=37 velocity=0 time=5
control_change channel=0 control=64 value=119 time=10
control_change channel=0 control=64 value=127 time=15
note_on channel=0 note=85 velocity=0 time=7
note_on channel=0 note=43 velocity=93 time=53
note_on channel=0 note=46 velocity=0 time=3
note_on channel=0 note=85 velocity=106 time=11
note_on channel=0 note=37 velocity=72 time=3
note_on channel=0 note=85 velocity=0 time=71
note_on channel=0 note=46 velocity=90 time=17
note_on channel=0 note=70 velocity=101 time=6
note_on channel=0 note=37 velocity=0 time=5
note_on channel=0 note=43 velocity=0 time=6
note_on channel=0 note=70 velocity=0 time=35
control_change channel=0 control=64 value=114 time=32
note_on channel=0 note=43 velocity=88 time=12
control_change channel=0 control=64 value=89 time=2
note_on channel=0 note=46 velocity=0 time=11
note_on channel=0 note=37 velocity=72 time=3
control_change channel=0 control=64 value=79 time=2
note_on channel=0 note=73 velocity=108 time=4
control_change channel=0 control=64 value=81 time=11
control_change channel=0 control=64 value=90 time=16
control_change channel=0 control=64 value=100 time=14
control_change channel=0 control=64 value=111 time=15
control_change channel=0 control=64 value=127 time=16
note_on channel=0 note=73 velocity=0 time=7
note_on channel=0 note=46 velocity=87 time=4
note_on channel=0 note=37 velocity=0 time=7
note_on channel=0 note=43 velocity=0 time=9
note_on channel=0 note=88 velocity=103 time=10
note_on channel=0 note=86 velocity=47 time=29
note_on channel=0 note=86 velocity=0 time=1
note_on channel=0 note=88 velocity=0 time=12
note_on channel=0 note=46 velocity=0 time=1
note_on channel=0 note=37 velocity=64 time=17
note_on channel=0 note=43 velocity=53 time=4
note_on channel=0 note=37 velocity=0 time=29
note_on channel=0 note=46 velocity=75 time=5
note_on channel=0 note=43 velocity=0 time=13
note_on channel=0 note=88 velocity=105 time=5
note_on channel=0 note=46 velocity=0 time=12
note_on channel=0 note=88 velocity=0 time=38
note_on channel=0 note=73 velocity=100 time=47
note_on channel=0 note=73 velocity=0 time=54
note_on channel=0 note=49 velocity=79 time=9
control_change channel=0 control=64 value=110 time=6
note_on channel=0 note=55 velocity=72 time=10
control_change channel=0 control=64 value=70 time=4
control_change channel=0 control=64 value=0 time=15
note_on channel=0 note=58 velocity=82 time=1
note_on channel=0 note=49 velocity=0 time=18
note_on channel=0 note=73 velocity=99 time=6
control_change channel=0 control=64 value=36 time=6
note_on channel=0 note=64 velocity=96 time=0
control_change channel=0 control=64 value=63 time=15
control_change channel=0 control=64 value=71 time=15
control_change channel=0 control=64 value=80 time=16
note_on channel=0 note=55 velocity=0 time=15
control_change channel=0 control=64 value=92 time=1
note_on channel=0 note=64 velocity=0 time=6
control_change channel=0 control=64 value=98 time=9
note_on channel=0 note=58 velocity=0 time=4
control_change channel=0 control=64 value=102 time=10
control_change channel=0 control=64 value=105 time=16
note_on channel=0 note=73 velocity=0 time=7
control_change channel=0 control=64 value=112 time=8
note_on channel=0 note=85 velocity=95 time=2
control_change channel=0 control=64 value=127 time=14
note_on channel=0 note=85 velocity=0 time=52
note_on channel=0 note=49 velocity=83 time=24
note_on channel=0 note=55 velocity=70 time=19
control_change channel=0 control=64 value=99 time=3
control_change channel=0 control=64 value=68 time=15
note_on channel=0 note=58 velocity=83 time=3
control_change channel=0 control=64 value=0 time=13
note_on channel=0 note=49 velocity=0 time=14
note_on channel=0 note=85 velocity=105 time=6
control_change channel=0 control=64 value=61 time=9
note_on channel=0 note=64 velocity=100 time=5
control_change channel=0 control=64 value=71 time=11
control_change channel=0 control=64 value=82 time=15
control_change channel=0 control=64 value=99 time=16
note_on channel=0 note=55 velocity=0 time=2
control_change channel=0 control=64 value=127 time=12
note_on channel=0 note=64 velocity=0 time=4
note_on channel=0 note=58 velocity=0 time=6
note_on channel=0 note=85 velocity=0 time=53
note_on channel=0 note=97 velocity=101 time=3
note_on channel=0 note=49 velocity=85 time=58
note_on channel=0 note=97 velocity=0 time=2
note_on channel=0 note=56 velocity=82 time=42
note_on channel=0 note=49 velocity=0 time=40
note_on channel=0 note=59 velocity=69 time=28
control_change channel=0 control=64 value=90 time=8
control_change channel=0 control=64 value=55 time=15
control_change channel=0 control=64 value=0 time=16
note_on channel=0 note=65 velocity=92 time=8
note_on channel=0 note=86 velocity=93 time=8
note_on channel=0 note=98 velocity=109 time=2
note_on channel=0 note=95 velocity=101 time=2
note_on channel=0 note=92 velocity=90 time=1
control_change channel=0 control=64 value=49 time=24
note_on channel=0 note=86 velocity=0 time=13
control_change channel=0 control=64 value=71 time=2
note_on channel=0 note=65 velocity=0 time=2
note_on channel=0 note=56 velocity=0 time=9
note_on channel=0 note=59 velocity=0 time=1
control_change channel=0 control=64 value=84 time=4
note_on channel=0 note=92 velocity=0 time=11
control_change channel=0 control=64 value=96 time=4
note_on channel=0 note=98 velocity=0 time=0
note_on channel=0 note=95 velocity=0 time=5
control_change channel=0 control=64 value=110 time=10
control_change channel=0 control=64 value=127 time=15
control_change channel=0 control=64 value=110 time=281
control_change channel=0 control=64 value=80 time=15
control_change channel=0 control=64 value=0 time=16
note_on channel=0 note=61 velocity=78 time=40
note_on channel=0 note=73 velocity=94 time=0
note_on channel=0 note=97 velocity=105 time=3
control_change channel=0 control=64 value=27 time=3
note_on channel=0 note=85 velocity=98 time=0
control_change channel=0 control=64 value=63 time=14
control_change channel=0 control=64 value=70 time=16
control_change channel=0 control=64 value=75 time=15
control_change channel=0 control=64 value=80 time=15
control_change channel=0 control=64 value=84 time=16
note_on channel=0 note=73 velocity=0 time=0
note_on channel=0 note=85 velocity=0 time=0
control_change channel=0 control=64 value=85 time=14
note_on channel=0 note=97 velocity=0 time=3
control_change channel=0 control=64 value=80 time=28
control_change channel=0 control=64 value=71 time=15
note_on channel=0 note=61 velocity=0 time=15
control_change channel=0 control=64 value=61 time=1
note_on channel=0 note=96 velocity=101 time=9
note_on channel=0 note=84 velocity=93 time=1
note_on channel=0 note=60 velocity=79 time=3
control_change channel=0 control=64 value=63 time=1
note_on channel=0 note=72 velocity=90 time=0
control_change channel=0 control=64 value=67 time=15
note_on channel=0 note=95 velocity=51 time=8
note_on channel=0 note=95 velocity=0 time=1
control_change channel=0 control=64 value=71 time=7
note_on channel=0 note=84 velocity=0 time=2
note_on channel=0 note=72 velocity=0 time=4
note_on channel=0 note=96 velocity=0 time=7
control_change channel=0 control=64 value=74 time=2
note_on channel=0 note=60 velocity=0 time=0
control_change channel=0 control=64 value=75 time=17
control_change channel=0 control=64 value=73 time=14
control_change channel=0 control=64 value=68 time=15
control_change channel=0 control=64 value=62 time=16
control_change channel=0 control=64 value=64 time=15
control_change channel=0 control=64 value=69 time=15
note_on channel=0 note=59 velocity=88 time=6
note_on channel=0 note=95 velocity=93 time=2
note_on channel=0 note=71 velocity=92 time=3
note_on channel=0 note=83 velocity=97 time=2
control_change channel=0 control=64 value=71 time=2
control_change channel=0 control=64 value=71 time=15
note_on channel=0 note=83 velocity=0 time=1
note_on channel=0 note=59 velocity=0 time=16
note_on channel=0 note=71 velocity=0 time=1
note_on channel=0 note=95 velocity=0 time=5
control_change channel=0 control=64 value=72 time=8
control_change channel=0 control=64 value=72 time=15
control_change channel=0 control=64 value=70 time=30
control_change channel=0 control=64 value=68 time=15
control_change channel=0 control=64 value=69 time=16
note_on channel=0 note=82 velocity=101 time=2
note_on channel=0 note=94 velocity=99 time=0
note_on channel=0 note=70 velocity=89 time=3
control_change channel=0 control=64 value=71 time=9
note_on channel=0 note=58 velocity=68 time=3
control_change channel=0 control=64 value=71 time=13
note_on channel=0 note=56 velocity=48 time=3
note_on channel=0 note=82 velocity=0 time=7
control_change channel=0 control=64 value=70 time=5
note_on channel=0 note=70 velocity=0 time=0
note_on channel=0 note=94 velocity=0 time=0
control_change channel=0 control=64 value=69 time=14
note_on channel=0 note=56 velocity=0 time=4
control_change channel=0 control=64 value=69 time=12
control_change channel=0 control=64 value=70 time=15
control_change channel=0 control=64 value=69 time=16
note_on channel=0 note=58 velocity=0 time=6
note_on channel=0 note=93 velocity=107 time=3
note_on channel=0 note=81 velocity=92 time=2
note_on channel=0 note=57 velocity=83 time=2
control_change channel=0 control=64 value=68 time=2
note_on channel=0 note=69 velocity=85 time=0
control_change channel=0 control=64 value=65 time=15
note_on channel=0 note=81 velocity=0 time=6
control_change channel=0 control=64 value=64 time=10
note_on channel=0 note=69 velocity=0 time=1
note_on channel=0 note=57 velocity=0 time=2
note_on channel=0 note=93 velocity=0 time=10
control_change channel=0 control=64 value=65 time=8
control_change channel=0 control=64 value=66 time=16
control_change channel=0 control=64 value=66 time=45
note_on channel=0 note=80 velocity=96 time=3
note_on channel=0 note=92 velocity=100 time=1
note_on channel=0 note=68 velocity=90 time=1
note_on channel=0 note=56 velocity=85 time=2
control_change channel=0 control=64 value=69 time=8
control_change channel=0 control=64 value=72 time=15
note_on channel=0 note=80 velocity=0 time=15
note_on channel=0 note=68 velocity=0 time=1
note_on channel=0 note=92 velocity=0 time=9
control_change channel=0 control=64 value=69 time=6
control_change channel=0 control=64 value=65 time=16
note_on channel=0 note=56 velocity=0 time=6
control_change channel=0 control=64 value=63 time=9
control_change channel=0 control=64 value=64 time=15
note_on channel=0 note=91 velocity=105 time=10
note_on channel=0 note=55 velocity=80 time=3
note_on channel=0 note=67 velocity=86 time=0
note_on channel=0 note=79 velocity=93 time=0
control_change channel=0 control=64 value=64 time=3
note_on channel=0 note=79 velocity=0 time=15
note_on channel=0 note=67 velocity=0 time=10
note_on channel=0 note=55 velocity=0 time=1
control_change channel=0 control=64 value=63 time=4
note_on channel=0 note=91 velocity=0 time=3
control_change channel=0 control=64 value=59 time=12
control_change channel=0 control=64 value=61 time=30
control_change channel=0 control=64 value=60 time=15
note_on channel=0 note=78 velocity=97 time=14
control_change channel=0 control=64 value=54 time=1
note_on channel=0 note=66 velocity=87 time=1
note_on channel=0 note=90 velocity=95 time=0
note_on channel=0 note=54 velocity=83 time=1
control_change channel=0 control=64 value=47 time=14
control_change channel=0 control=64 value=48 time=14
note_on channel=0 note=66 velocity=0 time=2
note_on channel=0 note=78 velocity=0 time=7
control_change channel=0 control=64 value=57 time=7
note_on channel=0 note=90 velocity=0 time=1
control_change channel=0 control=64 value=62 time=14
note_on channel=0 note=54 velocity=0 time=7
control_change channel=0 control=64 value=62 time=8
control_change channel=0 control=64 value=60 time=16
control_change channel=0 control=64 value=56 time=14
note_on channel=0 note=65 velocity=87 time=2
note_on channel=0 note=77 velocity=96 time=4
note_on channel=0 note=89 velocity=102 time=0
note_on channel=0 note=53 velocity=82 time=2
control_change channel=0 control=64 value=55 time=7
note_on channel=0 note=65 velocity=0 time=17
note_on channel=0 note=77 velocity=0 time=6
note_on channel=0 note=53 velocity=0 time=4
note_on channel=0 note=89 velocity=0 time=2
control_change channel=0 control=64 value=52 time=19
control_change channel=0 control=64 value=46 time=14
control_change channel=0 control=64 value=44 time=15
control_change channel=0 control=64 value=41 time=16
control_change channel=0 control=64 value=29 time=15
note_on channel=0 note=52 velocity=87 time=1
note_on channel=0 note=64 velocity=88 time=1
note_on channel=0 note=88 velocity=103 time=1
note_on channel=0 note=76 velocity=91 time=4
control_change channel=0 control=64 value=0 time=9
note_on channel=0 note=76 velocity=0 time=8
note_on channel=0 note=64 velocity=0 time=6
note_on channel=0 note=52 velocity=0 time=4
note_on channel=0 note=88 velocity=0 time=10
control_change channel=0 control=64 value=31 time=17
control_change channel=0 control=64 value=32 time=15
control_change channel=0 control=64 value=17 time=15
control_change channel=0 control=64 value=0 time=15
note_on channel=0 note=75 velocity=97 time=14
note_on channel=0 note=87 velocity=95 time=0
note_on channel=0 note=63 velocity=86 time=4
note_on channel=0 note=51 velocity=78 time=2
note_on channel=0 note=75 velocity=0 time=32
control_change channel=0 control=64 value=34 time=8
note_on channel=0 note=63 velocity=0 time=6
note_on channel=0 note=87 velocity=0 time=4
control_change channel=0 control=64 value=46 time=6
control_change channel=0 control=64 value=48 time=15
note_on channel=0 note=51 velocity=0 time=0
control_change channel=0 control=64 value=21 time=31
note_on channel=0 note=86 velocity=102 time=21
control_change channel=0 control=64 value=0 time=1
note_on channel=0 note=62 velocity=87 time=0
note_on channel=0 note=74 velocity=92 time=0
note_on channel=0 note=50 velocity=78 time=8
note_on channel=0 note=74 velocity=0 time=19
note_on channel=0 note=50 velocity=0 time=9
note_on channel=0 note=62 velocity=0 time=5
note_on channel=0 note=86 velocity=0 time=0
control_change channel=0 control=64 value=39 time=66
note_on channel=0 note=61 velocity=87 time=14
control_change channel=0 control=64 value=47 time=1
note_on channel=0 note=49 velocity=81 time=3
note_on channel=0 note=73 velocity=88 time=0
note_on channel=0 note=85 velocity=91 time=2
control_change channel=0 control=64 value=54 time=11
control_change channel=0 control=64 value=54 time=15
note_on channel=0 note=61 velocity=0 time=12
note_on channel=0 note=73 velocity=0 time=2
control_change channel=0 control=64 value=54 time=2
note_on channel=0 note=85 velocity=0 time=9
control_change channel=0 control=64 value=53 time=6
control_change channel=0 control=64 value=39 time=14
note_on channel=0 note=49 velocity=0 time=9
control_change channel=0 control=64 value=0 time=7
note_on channel=0 note=60 velocity=86 time=37
note_on channel=0 note=84 velocity=92 time=3
note_on channel=0 note=72 velocity=89 time=1
note_on channel=0 note=48 velocity=78 time=1
note_on channel=0 note=72 velocity=0 time=33
control_change channel=0 control=64 value=28 time=1
note_on channel=0 note=60 velocity=0 time=3
note_on channel=0 note=84 velocity=0 time=6
note_on channel=0 note=48 velocity=0 time=1
control_change channel=0 control=64 value=47 time=5
control_change channel=0 control=64 value=56 time=15
control_change channel=0 control=64 value=61 time=16
control_change channel=0 control=64 value=60 time=15
control_change channel=0 control=64 value=52 time=16
control_change channel=0 control=64 value=17 time=15
note_on channel=0 note=83 velocity=98 time=9
note_on channel=0 note=59 velocity=89 time=2
note_on channel=0 note=47 velocity=79 time=2
note_on channel=0 note=71 velocity=86 time=0
control_change channel=0 control=64 value=0 time=1
note_on channel=0 note=71 velocity=0 time=29
note_on channel=0 note=47 velocity=0 time=11
note_on channel=0 note=59 velocity=0 time=1
note_on channel=0 note=83 velocity=0 time=10
control_change channel=0 control=64 value=35 time=10
control_change channel=0 control=64 value=59 time=16
control_change channel=0 control=64 value=62 time=16
control_change channel=0 control=64 value=40 time=15
control_change channel=0 control=64 value=0 time=15
note_on channel=0 note=46 velocity=86 time=22
note_on channel=0 note=82 velocity=98 time=0
note_on channel=0 note=70 velocity=92 time=2
note_on channel=0 note=58 velocity=91 time=2
note_on channel=0 note=70 velocity=0 time=36
note_on channel=0 note=58 velocity=0 time=4
note_on channel=0 note=46 velocity=0 time=2
note_on channel=0 note=82 velocity=0 time=18
control_change channel=0 control=64 value=59 time=6
control_change channel=0 control=64 value=66 time=15
control_change channel=0 control=64 value=64 time=15
control_change channel=0 control=64 value=0 time=16
note_on channel=0 note=61 velocity=96 time=44
note_on channel=0 note=49 velocity=84 time=2
note_on channel=0 note=73 velocity=97 time=0
note_on channel=0 note=85 velocity=97 time=3
note_on channel=0 note=73 velocity=0 time=33
note_on channel=0 note=61 velocity=0 time=3
note_on channel=0 note=85 velocity=0 time=14
note_on channel=0 note=49 velocity=0 time=1
control_change channel=0 control=64 value=35 time=13
control_change channel=0 control=64 value=65 time=15
control_change channel=0 control=64 value=64 time=15
control_change channel=0 control=64 value=31 time=16
control_change channel=0 control=64 value=0 time=15
note_on channel=0 note=57 velocity=95 time=39
note_on channel=0 note=69 velocity=91 time=3
note_on channel=0 note=45 velocity=87 time=1
note_on channel=0 note=81 velocity=99 time=0
note_on channel=0 note=45 velocity=0 time=25
note_on channel=0 note=69 velocity=0 time=6
note_on channel=0 note=57 velocity=0 time=5
note_on channel=0 note=81 velocity=0 time=0
control_change channel=0 control=64 value=43 time=12
control_change channel=0 control=64 value=63 time=16
control_change channel=0 control=64 value=66 time=15
control_change channel=0 control=64 value=60 time=30
control_change channel=0 control=64 value=0 time=15
note_on channel=0 note=61 velocity=94 time=54
note_on channel=0 note=49 velocity=95 time=1
note_on channel=0 note=73 velocity=99 time=4
note_on channel=0 note=85 velocity=100 time=1
note_on channel=0 note=61 velocity=0 time=17
note_on channel=0 note=49 velocity=0 time=6
note_on channel=0 note=73 velocity=0 time=7
note_on channel=0 note=85 velocity=0 time=3
control_change channel=0 control=64 value=50 time=13
control_change channel=0 control=64 value=64 time=15
control_change channel=0 control=64 value=67 time=16
control_change channel=0 control=64 value=67 time=15
control_change channel=0 control=64 value=68 time=15
control_change channel=0 control=64 value=68 time=15
control_change channel=0 control=64 value=62 time=15
control_change channel=0 control=64 value=0 time=16
note_on channel=0 note=56 velocity=97 time=32
note_on channel=0 note=80 velocity=101 time=0
note_on channel=0 note=68 velocity=91 time=4
note_on channel=0 note=44 velocity=89 time=1
note_on channel=0 note=56 velocity=0 time=25
note_on channel=0 note=68 velocity=0 time=2
note_on channel=0 note=44 velocity=0 time=2
note_on channel=0 note=80 velocity=0 time=15
control_change channel=0 control=64 value=61 time=11
control_change channel=0 control=64 value=68 time=14
control_change channel=0 control=64 value=72 time=16
control_change channel=0 control=64 value=75 time=15
control_change channel=0 control=64 value=80 time=15
control_change channel=0 control=64 value=86 time=16
control_change channel=0 control=64 value=89 time=14
control_change channel=0 control=64 value=84 time=16
control_change channel=0 control=64 value=68 time=15
control_change channel=0 control=64 value=0 time=15
note_on channel=0 note=61 velocity=99 time=25
note_on channel=0 note=49 velocity=98 time=3
note_on channel=0 note=73 velocity=98 time=0
note_on channel=0 note=85 velocity=106 time=2
control_change channel=0 control=64 value=64 time=17
note_on channel=0 note=61 velocity=0 time=0
note_on channel=0 note=73 velocity=0 time=9
control_change channel=0 control=64 value=76 time=6
note_on channel=0 note=49 velocity=0 time=5
note_on channel=0 note=85 velocity=0 time=1
control_change channel=0 control=64 value=86 time=15
control_change channel=0 control=64 value=96 time=16
control_change channel=0 control=64 value=100 time=15
control_change channel=0 control=64 value=101 time=16
control_change channel=0 control=64 value=99 time=167
control_change channel=0 control=64 value=80 time=15
control_change channel=0 control=64 value=0 time=16
note_on channel=0 note=42 velocity=76 time=28
note_on channel=0 note=45 velocity=77 time=2
note_on channel=0 note=54 velocity=93 time=0
note_on channel=0 note=49 velocity=90 time=2
note_on channel=0 note=78 velocity=105 time=3
note_on channel=0 note=85 velocity=92 time=3
note_on channel=0 note=90 velocity=108 time=0
note_on channel=0 note=81 velocity=80 time=1
control_change channel=0 control=64 value=57 time=6
control_change channel=0 control=64 value=79 time=15
control_change channel=0 control=64 value=110 time=15
note_on channel=0 note=78 velocity=0 time=0
note_on channel=0 note=81 velocity=0 time=15
control_change channel=0 control=64 value=127 time=1
note_on channel=0 note=42 velocity=0 time=3
note_on channel=0 note=54 velocity=0 time=6
note_on channel=0 note=90 velocity=0 time=2
note_on channel=0 note=45 velocity=0 time=1
note_on channel=0 note=88 velocity=39 time=1
note_on channel=0 note=85 velocity=0 time=4
note_on channel=0 note=49 velocity=0 time=12
note_on channel=0 note=88 velocity=0 time=14
note_on channel=0 note=81 velocity=93 time=398
note_on channel=0 note=69 velocity=90 time=3
note_on channel=0 note=69 velocity=0 time=20
note_on channel=0 note=81 velocity=0 time=1
note_on channel=0 note=83 velocity=94 time=110
note_on channel=0 note=71 velocity=83 time=3
note_on channel=0 note=71 velocity=0 time=19
note_on channel=0 note=83 velocity=0 time=9
control_change channel=0 control=64 value=90 time=54
control_change channel=0 control=64 value=0 time=16
note_on channel=0 note=73 velocity=83 time=15
note_on channel=0 note=85 velocity=94 time=1
note_on channel=0 note=85 velocity=0 time=17
note_on channel=0 note=73 velocity=0 time=4
note_on channel=0 note=66 velocity=90 time=89
note_on channel=0 note=78 velocity=92 time=2
note_on channel=0 note=66 velocity=0 time=19
note_on channel=0 note=78 velocity=0 time=16
note_on channel=0 note=59 velocity=72 time=72
note_on channel=0 note=47 velocity=66 time=2
note_on channel=0 note=68 velocity=88 time=2
note_on channel=0 note=80 velocity=94 time=0
note_on channel=0 note=47 velocity=0 time=20
note_on channel=0 note=59 velocity=0 time=0
note_on channel=0 note=68 velocity=0 time=12
note_on channel=0 note=80 velocity=0 time=12
note_on channel=0 note=61 velocity=89 time=74
note_on channel=0 note=69 velocity=93 time=2
note_on channel=0 note=81 velocity=100 time=1
note_on channel=0 note=49 velocity=79 time=1
control_change channel=0 control=64 value=64 time=4
control_change channel=0 control=64 value=80 time=14
note_on channel=0 note=61 velocity=0 time=8
control_change channel=0 control=64 value=95 time=9
note_on channel=0 note=49 velocity=0 time=4
control_change channel=0 control=64 value=111 time=11
control_change channel=0 control=64 value=127 time=14
note_on channel=0 note=62 velocity=85 time=52
note_on channel=0 note=50 velocity=82 time=8
note_on channel=0 note=69 velocity=0 time=7
note_on channel=0 note=62 velocity=0 time=6
note_on channel=0 note=50 velocity=0 time=15
note_on channel=0 note=81 velocity=0 time=0
note_on channel=0 note=83 velocity=81 time=100
note_on channel=0 note=56 velocity=81 time=1
note_on channel=0 note=44 velocity=78 time=1
note_on channel=0 note=71 velocity=69 time=6
note_on channel=0 note=84 velocity=57 time=10
note_on channel=0 note=84 velocity=0 time=1
note_on channel=0 note=71 velocity=0 time=6
note_on channel=0 note=56 velocity=0 time=3
note_on channel=0 note=83 velocity=0 time=1
control_change channel=0 control=64 value=87 time=2
note_on channel=0 note=44 velocity=0 time=8
control_change channel=0 control=64 value=49 time=7
control_change channel=0 control=64 value=0 time=15
note_on channel=0 note=73 velocity=82 time=50
note_on channel=0 note=85 velocity=90 time=1
note_on channel=0 note=57 velocity=79 time=5
note_on channel=0 note=45 velocity=77 time=2
note_on channel=0 note=57 velocity=0 time=22
note_on channel=0 note=73 velocity=0 time=2
note_on channel=0 note=45 velocity=0 time=7
note_on channel=0 note=85 velocity=0 time=5
note_on channel=0 note=47 velocity=96 time=71
note_on channel=0 note=59 velocity=99 time=0
note_on channel=0 note=86 velocity=97 time=2
control_change channel=0 control=64 value=57 time=1
note_on channel=0 note=74 velocity=92 time=0
control_change channel=0 control=64 value=81 time=15
control_change channel=0 control=64 value=105 time=15
note_on channel=0 note=74 velocity=0 time=2
note_on channel=0 note=86 velocity=0 time=8
control_change channel=0 control=64 value=127 time=5
note_on channel=0 note=47 velocity=0 time=46
note_on channel=0 note=59 velocity=0 time=9
note_on channel=0 note=76 velocity=82 time=29
note_on channel=0 note=88 velocity=88 time=2
note_on channel=0 note=76 velocity=0 time=18
note_on channel=0 note=88 velocity=0 time=2
note_on channel=0 note=61 velocity=91 time=90
note_on channel=0 note=49 velocity=78 time=6
note_on channel=0 note=81 velocity=90 time=3
note_on channel=0 note=69 velocity=82 time=1
control_change channel=0 control=64 value=78 time=6
note_on channel=0 note=61 velocity=0 time=11
note_on channel=0 note=69 velocity=0 time=3
note_on channel=0 note=81 velocity=0 time=0
control_change channel=0 control=64 value=0 time=1
note_on channel=0 note=49 velocity=0 time=6
note_on channel=0 note=62 velocity=86 time=86
note_on channel=0 note=50 velocity=79 time=5
note_on channel=0 note=83 velocity=89 time=1
note_on channel=0 note=71 velocity=83 time=3
note_on channel=0 note=71 velocity=0 time=18
note_on channel=0 note=62 velocity=0 time=1
note_on channel=0 note=50 velocity=0 time=8
note_on channel=0 note=83 velocity=0 time=9
note_on channel=0 note=85 velocity=99 time=82
note_on channel=0 note=64 velocity=93 time=1
note_on channel=0 note=73 velocity=99 time=0
note_on channel=0 note=52 velocity=88 time=1
control_change channel=0 control=64 value=57 time=2
control_change channel=0 control=64 value=81 time=15
note_on channel=0 note=52 velocity=0 time=12
control_change channel=0 control=64 value=109 time=4
note_on channel=0 note=64 velocity=0 time=8
control_change channel=0 control=64 value=127 time=6
note_on channel=0 note=66 velocity=73 time=83
note_on channel=0 note=54 velocity=82 time=3
note_on channel=0 note=73 velocity=0 time=10
note_on channel=0 note=85 velocity=0 time=7
note_on channel=0 note=66 velocity=0 time=3
note_on channel=0 note=54 velocity=0 time=5
note_on channel=0 note=59 velocity=87 time=86
note_on channel=0 note=74 velocity=85 time=2
note_on channel=0 note=86 velocity=88 time=2
note_on channel=0 note=47 velocity=80 time=1
note_on channel=0 note=74 velocity=0 time=18
note_on channel=0 note=86 velocity=0 time=4
note_on channel=0 note=59 velocity=0 time=2
note_on channel=0 note=47 velocity=0 time=2
control_change channel=0 control=64 value=105 time=31
control_change channel=0 control=64 value=85 time=14
control_change channel=0 control=64 value=69 time=15
control_change channel=0 control=64 value=0 time=16
note_on channel=0 note=61 velocity=96 time=6
note_on channel=0 note=49 velocity=85 time=3
note_on channel=0 note=88 velocity=102 time=0
note_on channel=0 note=76 velocity=87 time=5
note_on channel=0 note=76 velocity=0 time=22
note_on channel=0 note=88 velocity=0 time=10
note_on channel=0 note=61 velocity=0 time=7
note_on channel=0 note=49 velocity=0 time=20
note_on channel=0 note=62 velocity=98 time=48
control_change channel=0 control=64 value=50 time=1
note_on channel=0 note=50 velocity=94 time=6
note_on channel=0 note=78 velocity=91 time=2
note_on channel=0 note=90 velocity=102 time=0
control_change channel=0 control=64 value=74 time=7
control_change channel=0 control=64 value=89 time=16
note_on channel=0 note=62 velocity=0 time=8
control_change channel=0 control=64 value=127 time=6
note_on channel=0 note=78 velocity=0 time=5
note_on channel=0 note=91 velocity=36 time=1
note_on channel=0 note=90 velocity=0 time=3
note_on channel=0 note=50 velocity=0 time=5
note_on channel=0 note=91 velocity=0 time=22
note_on channel=0 note=91 velocity=98 time=37
note_on channel=0 note=79 velocity=97 time=1
note_on channel=0 note=79 velocity=0 time=27
note_on channel=0 note=91 velocity=0 time=4
note_on channel=0 note=71 velocity=98 time=91
note_on channel=0 note=83 velocity=95 time=2
note_on channel=0 note=79 velocity=90 time=1
control_change channel=0 control=64 value=114 time=22
note_on channel=0 note=71 velocity=0 time=9
note_on channel=0 note=79 velocity=0 time=5
control_change channel=0 control=64 value=70 time=1
note_on channel=0 note=83 velocity=0 time=12
control_change channel=0 control=64 value=0 time=3
note_on channel=0 note=72 velocity=95 time=74
note_on channel=0 note=84 velocity=93 time=1
note_on channel=0 note=81 velocity=86 time=1
note_on channel=0 note=40 velocity=73 time=2
note_on channel=0 note=52 velocity=77 time=0
note_on channel=0 note=40 velocity=0 time=26
note_on channel=0 note=81 velocity=0 time=0
note_on channel=0 note=72 velocity=0 time=1
note_on channel=0 note=52 velocity=0 time=1
note_on channel=0 note=84 velocity=0 time=10
note_on channel=0 note=54 velocity=96 time=74
note_on channel=0 note=42 velocity=86 time=6
note_on channel=0 note=74 velocity=108 time=2
note_on channel=0 note=83 velocity=94 time=1
note_on channel=0 note=86 velocity=97 time=0
control_change channel=0 control=64 value=67 time=30
note_on channel=0 note=54 velocity=0 time=3
control_change channel=0 control=64 value=82 time=12
note_on channel=0 note=42 velocity=0 time=12
control_change channel=0 control=64 value=94 time=4
control_change channel=0 control=64 value=105 time=14
control_change channel=0 control=64 value=120 time=15
control_change channel=0 control=64 value=127 time=16
note_on channel=0 note=55 velocity=88 time=6
note_on channel=0 note=43 velocity=89 time=5
note_on channel=0 note=55 velocity=0 time=19
note_on channel=0 note=43 velocity=0 time=17
note_on channel=0 note=74 velocity=0 time=63
note_on channel=0 note=47 velocity=94 time=21
note_on channel=0 note=35 velocity=92 time=2
note_on channel=0 note=83 velocity=0 time=4
note_on channel=0 note=86 velocity=0 time=20
note_on channel=0 note=47 velocity=0 time=13
note_on channel=0 note=35 velocity=0 time=7
note_on channel=0 note=87 velocity=99 time=69
note_on channel=0 note=48 velocity=101 time=8
note_on channel=0 note=76 velocity=93 time=0
note_on channel=0 note=36 velocity=94 time=3
note_on channel=0 note=83 velocity=68 time=12
note_on channel=0 note=76 velocity=0 time=9
note_on channel=0 note=84 velocity=54 time=0
note_on channel=0 note=37 velocity=45 time=12
note_on channel=0 note=48 velocity=0 time=4
note_on channel=0 note=83 velocity=0 time=3
note_on channel=0 note=84 velocity=0 time=0
note_on channel=0 note=87 velocity=0 time=0
note_on channel=0 note=36 velocity=0 time=5
control_change channel=0 control=64 value=102 time=1
note_on channel=0 note=88 velocity=38 time=1
control_change channel=0 control=64 value=68 time=15
note_on channel=0 note=37 velocity=0 time=4
control_change channel=0 control=64 value=0 time=11
note_on channel=0 note=88 velocity=0 time=0
note_on channel=0 note=78 velocity=99 time=37
note_on channel=0 note=50 velocity=97 time=3
note_on channel=0 note=90 velocity=96 time=1
note_on channel=0 note=38 velocity=97 time=1
note_on channel=0 note=86 velocity=78 time=0
note_on channel=0 note=78 velocity=0 time=31
control_change channel=0 control=64 value=67 time=3
note_on channel=0 note=86 velocity=0 time=15
control_change channel=0 control=64 value=83 time=7
note_on channel=0 note=90 velocity=0 time=9
control_change channel=0 control=64 value=103 time=7
note_on channel=0 note=39 velocity=3 time=3
control_change channel=0 control=64 value=127 time=12
note_on channel=0 note=39 velocity=0 time=33
note_on channel=0 note=91 velocity=103 time=0
note_on channel=0 note=79 velocity=95 time=5
note_on channel=0 note=88 velocity=89 time=1
note_on channel=0 note=38 velocity=0 time=10
note_on channel=0 note=88 velocity=0 time=12
note_on channel=0 note=79 velocity=0 time=6
note_on channel=0 note=91 velocity=0 time=2
note_on channel=0 note=50 velocity=0 time=15
note_on channel=0 note=83 velocity=97 time=67
note_on channel=0 note=71 velocity=95 time=1
note_on channel=0 note=79 velocity=95 time=3
note_on channel=0 note=71 velocity=0 time=20
control_change channel=0 control=64 value=78 time=8
note_on channel=0 note=79 velocity=0 time=0
note_on channel=0 note=83 velocity=0 time=7
control_change channel=0 control=64 value=0 time=8
note_on channel=0 note=52 velocity=85 time=62
note_on channel=0 note=40 velocity=78 time=2
note_on channel=0 note=81 velocity=83 time=1
note_on channel=0 note=72 velocity=97 time=1
note_on channel=0 note=84 velocity=95 time=2
note_on channel=0 note=52 velocity=0 time=23
note_on channel=0 note=40 velocity=0 time=5
note_on channel=0 note=72 velocity=0 time=3
note_on channel=0 note=81 velocity=0 time=11
note_on channel=0 note=84 velocity=0 time=9
note_on channel=0 note=54 velocity=97 time=62
note_on channel=0 note=86 velocity=101 time=5
note_on channel=0 note=42 velocity=88 time=1
note_on channel=0 note=74 velocity=107 time=0
note_on channel=0 note=83 velocity=94 time=2
control_change channel=0 control=64 value=53 time=24
note_on channel=0 note=54 velocity=0 time=11
control_change channel=0 control=64 value=69 time=4
control_change channel=0 control=64 value=75 time=15
note_on channel=0 note=42 velocity=0 time=1
control_change channel=0 control=64 value=80 time=15
control_change channel=0 control=64 value=85 time=14
control_change channel=0 control=64 value=89 time=16
note_on channel=0 note=55 velocity=89 time=8
note_on channel=0 note=43 velocity=89 time=5
control_change channel=0 control=64 value=94 time=2
control_change channel=0 control=64 value=100 time=15
note_on channel=0 note=55 velocity=0 time=1
control_change channel=0 control=64 value=109 time=15
note_on channel=0 note=43 velocity=0 time=7
control_change channel=0 control=64 value=127 time=7
note_on channel=0 note=74 velocity=0 time=67
note_on channel=0 note=47 velocity=94 time=6
note_on channel=0 note=35 velocity=90 time=2
note_on channel=0 note=83 velocity=0 time=20
note_on channel=0 note=86 velocity=0 time=8
note_on channel=0 note=35 velocity=0 time=10
note_on channel=0 note=47 velocity=0 time=0
note_on channel=0 note=76 velocity=97 time=91
note_on channel=0 note=48 velocity=95 time=1
note_on channel=0 note=88 velocity=96 time=0
note_on channel=0 note=84 velocity=88 time=1
note_on channel=0 note=36 velocity=90 time=1
note_on channel=0 note=87 velocity=47 time=20
note_on channel=0 note=87 velocity=0 time=1
note_on channel=0 note=76 velocity=0 time=8
note_on channel=0 note=48 velocity=0 time=11
note_on channel=0 note=88 velocity=0 time=0
note_on channel=0 note=36 velocity=0 time=6
note_on channel=0 note=84 velocity=0 time=1
control_change channel=0 control=64 value=117 time=28
control_change channel=0 control=64 value=82 time=15
control_change channel=0 control=64 value=0 time=16
note_on channel=0 note=78 velocity=100 time=13
note_on channel=0 note=86 velocity=89 time=0
note_on channel=0 note=90 velocity=101 time=1
note_on channel=0 note=50 velocity=97 time=3
note_on channel=0 note=38 velocity=94 time=3
note_on channel=0 note=78 velocity=0 time=28
note_on channel=0 note=86 velocity=0 time=13
control_change channel=0 control=64 value=67 time=15
note_on channel=0 note=90 velocity=0 time=1
control_change channel=0 control=64 value=78 time=14
note_on channel=0 note=38 velocity=0 time=2
control_change channel=0 control=64 value=88 time=14
control_change channel=0 control=64 value=97 time=14
note_on channel=0 note=50 velocity=0 time=9
control_change channel=0 control=64 value=99 time=6
note_on channel=0 note=91 velocity=102 time=3
note_on channel=0 note=79 velocity=87 time=5
note_on channel=0 note=88 velocity=87 time=0
control_change channel=0 control=64 value=102 time=8
note_on channel=0 note=81 velocity=69 time=8
note_on channel=0 note=88 velocity=0 time=5
control_change channel=0 control=64 value=106 time=2
note_on channel=0 note=79 velocity=0 time=5
note_on channel=0 note=91 velocity=0 time=1
note_on channel=0 note=81 velocity=0 time=3
control_change channel=0 control=64 value=107 time=6
note_on channel=0 note=71 velocity=96 time=87
note_on channel=0 note=79 velocity=92 time=0
note_on channel=0 note=83 velocity=96 time=1
note_on channel=0 note=71 velocity=0 time=20
note_on channel=0 note=79 velocity=0 time=11
note_on channel=0 note=83 velocity=0 time=10
note_on channel=0 note=72 velocity=98 time=88
note_on channel=0 note=81 velocity=99 time=1
note_on channel=0 note=84 velocity=94 time=0
control_change channel=0 control=64 value=106 time=26
note_on channel=0 note=72 velocity=0 time=5
note_on channel=0 note=81 velocity=0 time=11
note_on channel=0 note=84 velocity=0 time=7
control_change channel=0 control=64 value=105 time=51
control_change channel=0 control=64 value=91 time=16
control_change channel=0 control=64 value=64 time=15
control_change channel=0 control=64 value=0 time=16
note_on channel=0 note=74 velocity=107 time=1
note_on channel=0 note=86 velocity=100 time=0
note_on channel=0 note=83 velocity=97 time=1
note_on channel=0 note=47 velocity=91 time=328
note_on channel=0 note=43 velocity=83 time=5
note_on channel=0 note=47 velocity=0 time=25
note_on channel=0 note=43 velocity=0 time=3
note_on channel=0 note=45 velocity=91 time=112
note_on channel=0 note=48 velocity=95 time=0
note_on channel=0 note=48 velocity=0 time=32
note_on channel=0 note=45 velocity=0 time=5
note_on channel=0 note=50 velocity=96 time=151
note_on channel=0 note=47 velocity=89 time=2
note_on channel=0 note=74 velocity=0 time=68
note_on channel=0 note=86 velocity=0 time=159
note_on channel=0 note=83 velocity=0 time=15
note_on channel=0 note=83 velocity=89 time=125
note_on channel=0 note=71 velocity=86 time=4
note_on channel=0 note=79 velocity=74 time=9
note_on channel=0 note=79 velocity=0 time=27
note_on channel=0 note=71 velocity=0 time=5
control_change channel=0 control=64 value=42 time=4
control_change channel=0 control=64 value=55 time=15
note_on channel=0 note=83 velocity=0 time=3
control_change channel=0 control=64 value=60 time=11
control_change channel=0 control=64 value=62 time=16
control_change channel=0 control=64 value=63 time=15
control_change channel=0 control=64 value=64 time=15
note_on channel=0 note=84 velocity=89 time=34
note_on channel=0 note=81 velocity=84 time=4
note_on channel=0 note=72 velocity=86 time=7
control_change channel=0 control=64 value=64 time=16
note_on channel=0 note=72 velocity=0 time=17
note_on channel=0 note=47 velocity=0 time=9
control_change channel=0 control=64 value=65 time=4
note_on channel=0 note=81 velocity=0 time=7
note_on channel=0 note=84 velocity=0 time=16
control_change channel=0 control=64 value=65 time=7
control_change channel=0 control=64 value=66 time=31
control_change channel=0 control=64 value=65 time=30
control_change channel=0 control=64 value=60 time=15
control_change channel=0 control=64 value=0 time=16
note_on channel=0 note=86 velocity=85 time=15
note_on channel=0 note=74 velocity=86 time=6
note_on channel=0 note=83 velocity=72 time=2
note_on channel=0 note=74 velocity=0 time=43
control_change channel=0 control=64 value=19 time=7
control_change channel=0 control=64 value=50 time=16
control_change channel=0 control=64 value=62 time=15
note_on channel=0 note=86 velocity=0 time=9
control_change channel=0 control=64 value=64 time=7
note_on channel=0 note=83 velocity=0 time=0
control_change channel=0 control=64 value=66 time=15
control_change channel=0 control=64 value=67 time=14
control_change channel=0 control=64 value=67 time=31
control_change channel=0 control=64 value=63 time=14
note_on channel=0 note=50 velocity=0 time=15
control_change channel=0 control=64 value=49 time=1
control_change channel=0 control=64 value=0 time=15
note_on channel=0 note=83 velocity=76 time=16
note_on channel=0 note=44 velocity=58 time=16
note_on channel=0 note=71 velocity=73 time=0
note_on channel=0 note=47 velocity=54 time=8
control_change channel=0 control=64 value=14 time=14
note_on channel=0 note=80 velocity=44 time=3
note_on channel=0 note=71 velocity=0 time=9
control_change channel=0 control=64 value=51 time=3
control_change channel=0 control=64 value=62 time=15
note_on channel=0 note=80 velocity=0 time=4
control_change channel=0 control=64 value=66 time=12
note_on channel=0 note=47 velocity=0 time=8
note_on channel=0 note=83 velocity=0 time=1
note_on channel=0 note=44 velocity=0 time=2
control_change channel=0 control=64 value=68 time=4
control_change channel=0 control=64 value=67 time=14
control_change channel=0 control=64 value=64 time=16
control_change channel=0 control=64 value=55 time=15
control_change channel=0 control=64 value=0 time=16
control_change channel=0 control=64 value=11 time=14
control_change channel=0 control=64 value=51 time=15
note_on channel=0 note=49 velocity=75 time=14
note_on channel=0 note=85 velocity=88 time=0
note_on channel=0 note=73 velocity=79 time=1
control_change channel=0 control=64 value=62 time=1
note_on channel=0 note=45 velocity=62 time=4
control_change channel=0 control=64 value=65 time=11
control_change channel=0 control=64 value=68 time=16
control_change channel=0 control=64 value=70 time=16
note_on channel=0 note=73 velocity=0 time=0
note_on channel=0 note=45 velocity=0 time=11
control_change channel=0 control=64 value=71 time=3
note_on channel=0 note=49 velocity=0 time=5
control_change channel=0 control=64 value=72 time=11
note_on channel=0 note=85 velocity=0 time=8
control_change channel=0 control=64 value=73 time=7
control_change channel=0 control=64 value=72 time=15
control_change channel=0 control=64 value=69 time=16
control_change channel=0 control=64 value=64 time=14
control_change channel=0 control=64 value=63 time=16
note_on channel=0 note=86 velocity=82 time=13
control_change channel=0 control=64 value=65 time=2
note_on channel=0 note=50 velocity=80 time=1
note_on channel=0 note=74 velocity=83 time=3
note_on channel=0 note=84 velocity=59 time=3
note_on channel=0 note=83 velocity=68 time=4
control_change channel=0 control=64 value=67 time=4
note_on channel=0 note=47 velocity=62 time=4
control_change channel=0 control=64 value=69 time=12
control_change channel=0 control=64 value=71 time=14
control_change channel=0 control=64 value=74 time=15
note_on channel=0 note=74 velocity=0 time=0
note_on channel=0 note=83 velocity=0 time=9
note_on channel=0 note=47 velocity=0 time=2
note_on channel=0 note=84 velocity=0 time=0
control_change channel=0 control=64 value=77 time=5
note_on channel=0 note=86 velocity=0 time=5
note_on channel=0 note=50 velocity=0 time=22
control_change channel=0 control=64 value=74 time=3
control_change channel=0 control=64 value=64 time=15
control_change channel=0 control=64 value=0 time=15
note_on channel=0 note=83 velocity=86 time=35
note_on channel=0 note=71 velocity=85 time=1
note_on channel=0 note=44 velocity=81 time=3
note_on channel=0 note=47 velocity=76 time=6
note_on channel=0 note=80 velocity=73 time=4
control_change channel=0 control=64 value=63 time=27
note_on channel=0 note=71 velocity=0 time=3
control_change channel=0 control=64 value=70 time=13
control_change channel=0 control=64 value=73 time=14
note_on channel=0 note=80 velocity=0 time=5
note_on channel=0 note=83 velocity=0 time=2
note_on channel=0 note=47 velocity=0 time=5
control_change channel=0 control=64 value=77 time=3
note_on channel=0 note=44 velocity=0 time=10
control_change channel=0 control=64 value=79 time=6
control_change channel=0 control=64 value=77 time=31
control_change channel=0 control=64 value=69 time=15
control_change channel=0 control=64 value=53 time=15
note_on channel=0 note=49 velocity=89 time=6
note_on channel=0 note=73 velocity=95 time=3
note_on channel=0 note=81 velocity=81 time=1
note_on channel=0 note=45 velocity=80 time=1
note_on channel=0 note=85 velocity=90 time=1
control_change channel=0 control=64 value=62 time=4
control_change channel=0 control=64 value=68 time=15
control_change channel=0 control=64 value=72 time=14
control_change channel=0 control=64 value=76 time=23
note_on channel=0 note=73 velocity=0 time=5
note_on channel=0 note=81 velocity=0 time=5
control_change channel=0 control=64 value=80 time=5
control_change channel=0 control=64 value=85 time=15
note_on channel=0 note=85 velocity=0 time=14
control_change channel=0 control=64 value=91 time=1
note_on channel=0 note=49 velocity=0 time=6
control_change channel=0 control=64 value=93 time=10
note_on channel=0 note=45 velocity=0 time=1
control_change channel=0 control=64 value=93 time=14
control_change channel=0 control=64 value=89 time=15
control_change channel=0 control=64 value=76 time=16
control_change channel=0 control=64 value=53 time=15
note_on channel=0 note=74 velocity=102 time=1
note_on channel=0 note=83 velocity=90 time=0
note_on channel=0 note=50 velocity=90 time=3
note_on channel=0 note=86 velocity=92 time=1
control_change channel=0 control=64 value=0 time=10
note_on channel=0 note=47 velocity=78 time=0
control_change channel=0 control=64 value=63 time=16
note_on channel=0 note=85 velocity=54 time=4
control_change channel=0 control=64 value=68 time=10
note_on channel=0 note=47 velocity=0 time=9
note_on channel=0 note=85 velocity=0 time=5
note_on channel=0 note=50 velocity=0 time=1
control_change channel=0 control=64 value=72 time=1
note_on channel=0 note=74 velocity=0 time=2
control_change channel=0 control=64 value=76 time=13
note_on channel=0 note=83 velocity=0 time=0
note_on channel=0 note=86 velocity=0 time=6
control_change channel=0 control=64 value=81 time=9
control_change channel=0 control=64 value=88 time=16
control_change channel=0 control=64 value=93 time=14
control_change channel=0 control=64 value=96 time=15
control_change channel=0 control=64 value=89 time=32
control_change channel=0 control=64 value=74 time=16
control_change channel=0 control=64 value=59 time=14
note_on channel=0 note=71 velocity=99 time=1
note_on channel=0 note=83 velocity=91 time=0
note_on channel=0 note=56 velocity=101 time=2
note_on channel=0 note=80 velocity=85 time=4
note_on channel=0 note=44 velocity=78 time=2
note_on channel=0 note=47 velocity=74 time=0
control_change channel=0 control=64 value=64 time=6
control_change channel=0 control=64 value=75 time=16
note_on channel=0 note=44 velocity=0 time=11
note_on channel=0 note=47 velocity=0 time=1
note_on channel=0 note=71 velocity=0 time=0
control_change channel=0 control=64 value=82 time=3
note_on channel=0 note=56 velocity=0 time=11
control_change channel=0 control=64 value=89 time=5
note_on channel=0 note=80 velocity=0 time=9
control_change channel=0 control=64 value=94 time=6
note_on channel=0 note=83 velocity=0 time=13
control_change channel=0 control=64 value=98 time=1
control_change channel=0 control=64 value=100 time=16
control_change channel=0 control=64 value=101 time=15
control_change channel=0 control=64 value=103 time=15
control_change channel=0 control=64 value=105 time=15
control_change channel=0 control=64 value=106 time=15
control_change channel=0 control=64 value=104 time=16
control_change channel=0 control=64 value=88 time=15
control_change channel=0 control=64 value=67 time=15
control_change channel=0 control=64 value=0 time=15
note_on channel=0 note=59 velocity=103 time=10
note_on channel=0 note=50 velocity=74 time=3
control_change channel=0 control=64 value=57 time=2
note_on channel=0 note=74 velocity=99 time=4
note_on channel=0 note=86 velocity=99 time=1
note_on channel=0 note=47 velocity=65 time=2
control_change channel=0 control=64 value=69 time=8
note_on channel=0 note=50 velocity=0 time=12
note_on channel=0 note=74 velocity=0 time=3
control_change channel=0 control=64 value=77 time=1
note_on channel=0 note=47 velocity=0 time=0
note_on channel=0 note=59 velocity=0 time=5
control_change channel=0 control=64 value=86 time=10
note_on channel=0 note=86 velocity=0 time=5
control_change channel=0 control=64 value=96 time=10
control_change channel=0 control=64 value=102 time=14
control_change channel=0 control=64 value=103 time=15
control_change channel=0 control=64 value=104 time=15
control_change channel=0 control=64 value=105 time=15
control_change channel=0 control=64 value=105 time=15
control_change channel=0 control=64 value=107 time=16
control_change channel=0 control=64 value=109 time=15
control_change channel=0 control=64 value=110 time=15
control_change channel=0 control=64 value=111 time=15
control_change channel=0 control=64 value=110 time=24
control_change channel=0 control=64 value=107 time=14
control_change channel=0 control=64 value=86 time=15
control_change channel=0 control=64 value=58 time=16
control_change channel=0 control=64 value=0 time=15
note_on channel=0 note=59 velocity=84 time=3
note_on channel=0 note=71 velocity=100 time=2
note_on channel=0 note=62 velocity=74 time=2
note_on channel=0 note=86 velocity=103 time=3
note_on channel=0 note=98 velocity=109 time=0
note_on channel=0 note=95 velocity=80 time=5
control_change channel=0 control=64 value=57 time=15
note_on channel=0 note=95 velocity=0 time=2
note_on channel=0 note=86 velocity=0 time=10
note_on channel=0 note=71 velocity=0 time=1
control_change channel=0 control=64 value=67 time=2
note_on channel=0 note=59 velocity=0 time=6
note_on channel=0 note=98 velocity=0 time=1
control_change channel=0 control=64 value=75 time=9
note_on channel=0 note=62 velocity=0 time=4
control_change channel=0 control=64 value=83 time=11
control_change channel=0 control=64 value=93 time=15
control_change channel=0 control=64 value=97 time=15
control_change channel=0 control=64 value=100 time=15
control_change channel=0 control=64 value=102 time=15
control_change channel=0 control=64 value=103 time=16
control_change channel=0 control=64 value=103 time=15
control_change channel=0 control=64 value=104 time=15
control_change channel=0 control=64 value=106 time=15
control_change channel=0 control=64 value=102 time=31
control_change channel=0 control=64 value=82 time=14
control_change channel=0 control=64 value=46 time=17
note_on channel=0 note=83 velocity=102 time=1
note_on channel=0 note=95 velocity=102 time=1
note_on channel=0 note=92 velocity=86 time=6
note_on channel=0 note=68 velocity=98 time=2
note_on channel=0 note=56 velocity=78 time=1
note_on channel=0 note=59 velocity=73 time=2
control_change channel=0 control=64 value=0 time=2
note_on channel=0 note=95 velocity=0 time=18
note_on channel=0 note=83 velocity=0 time=3
control_change channel=0 control=64 value=48 time=10
note_on channel=0 note=92 velocity=0 time=1
note_on channel=0 note=59 velocity=0 time=6
note_on channel=0 note=68 velocity=0 time=3
control_change channel=0 control=64 value=65 time=5
note_on channel=0 note=56 velocity=0 time=4
control_change channel=0 control=64 value=73 time=10
control_change channel=0 control=64 value=79 time=16
control_change channel=0 control=64 value=86 time=15
control_change channel=0 control=64 value=91 time=16
control_change channel=0 control=64 value=93 time=15
control_change channel=0 control=64 value=95 time=14
control_change channel=0 control=64 value=97 time=16
control_change channel=0 control=64 value=100 time=15
control_change channel=0 control=64 value=100 time=15
control_change channel=0 control=64 value=86 time=15
control_change channel=0 control=64 value=67 time=15
note_on channel=0 note=64 velocity=96 time=4
note_on channel=0 note=80 velocity=100 time=0
note_on channel=0 note=92 velocity=97 time=2
note_on channel=0 note=56 velocity=72 time=2
control_change channel=0 control=64 value=0 time=8
note_on channel=0 note=52 velocity=70 time=3
control_change channel=0 control=64 value=45 time=12
note_on channel=0 note=80 velocity=0 time=7
note_on channel=0 note=92 velocity=0 time=3
control_change channel=0 control=64 value=66 time=5
note_on channel=0 note=64 velocity=0 time=0
note_on channel=0 note=52 velocity=0 time=9
note_on channel=0 note=56 velocity=0 time=5
control_change channel=0 control=64 value=71 time=2
control_change channel=0 control=64 value=78 time=15
control_change channel=0 control=64 value=87 time=16
control_change channel=0 control=64 value=95 time=15
control_change channel=0 control=64 value=100 time=15
control_change channel=0 control=64 value=103 time=15
control_change channel=0 control=64 value=105 time=15
control_change channel=0 control=64 value=104 time=31
control_change channel=0 control=64 value=87 time=15
control_change channel=0 control=64 value=64 time=23
control_change channel=0 control=64 value=0 time=15
note_on channel=0 note=62 velocity=94 time=7
note_on channel=0 note=54 velocity=83 time=4
note_on channel=0 note=90 velocity=94 time=1
note_on channel=0 note=78 velocity=103 time=3
note_on channel=0 note=50 velocity=73 time=3
control_change channel=0 control=64 value=36 time=12
note_on channel=0 note=62 velocity=0 time=12
control_change channel=0 control=64 value=66 time=3
note_on channel=0 note=90 velocity=0 time=4
note_on channel=0 note=78 velocity=0 time=4
note_on channel=0 note=50 velocity=0 time=5
note_on channel=0 note=54 velocity=0 time=2
control_change channel=0 control=64 value=79 time=1
control_change channel=0 control=64 value=89 time=15
control_change channel=0 control=64 value=96 time=15
control_change channel=0 control=64 value=99 time=15
control_change channel=0 control=64 value=101 time=15
control_change channel=0 control=64 value=105 time=16
control_change channel=0 control=64 value=112 time=15
control_change channel=0 control=64 value=118 time=15
control_change channel=0 control=64 value=119 time=16
control_change channel=0 control=64 value=113 time=14
control_change channel=0 control=64 value=88 time=15
control_change channel=0 control=64 value=61 time=16
control_change channel=0 control=64 value=0 time=15
note_on channel=0 note=59 velocity=92 time=4
note_on channel=0 note=50 velocity=81 time=1
note_on channel=0 note=47 velocity=77 time=4
note_on channel=0 note=86 velocity=100 time=3
note_on channel=0 note=74 velocity=99 time=1
control_change channel=0 control=64 value=54 time=3
control_change channel=0 control=64 value=68 time=15
note_on channel=0 note=59 velocity=0 time=0
note_on channel=0 note=47 velocity=0 time=6
note_on channel=0 note=74 velocity=0 time=6
control_change channel=0 control=64 value=78 time=2
note_on channel=0 note=86 velocity=0 time=3
note_on channel=0 note=50 velocity=0 time=8
note_on channel=0 note=84 velocity=19 time=1
control_change channel=0 control=64 value=92 time=4
control_change channel=0 control=64 value=114 time=15
control_change channel=0 control=64 value=127 time=16
note_on channel=0 note=84 velocity=0 time=9
control_change channel=0 control=64 value=104 time=128
control_change channel=0 control=64 value=70 time=15
control_change channel=0 control=64 value=0 time=16
note_on channel=0 note=47 velocity=80 time=6
note_on channel=0 note=56 velocity=99 time=1
note_on channel=0 note=83 velocity=95 time=4
note_on channel=0 note=44 velocity=80 time=3
note_on channel=0 note=71 velocity=101 time=0
note_on channel=0 note=80 velocity=88 time=1
note_on channel=0 note=71 velocity=0 time=29
control_change channel=0 control=64 value=64 time=1
note_on channel=0 note=56 velocity=0 time=1
note_on channel=0 note=83 velocity=0 time=3
note_on channel=0 note=47 velocity=0 time=9
note_on channel=0 note=82 velocity=33 time=0
control_change channel=0 control=64 value=79 time=2
note_on channel=0 note=80 velocity=0 time=2
note_on channel=0 note=44 velocity=0 time=6
control_change channel=0 control=64 value=96 time=8
control_change channel=0 control=64 value=127 time=14
note_on channel=0 note=82 velocity=0 time=5
control_change channel=0 control=64 value=84 time=155
control_change channel=0 control=64 value=0 time=15
control_change channel=0 control=64 value=60 time=45
note_on channel=0 note=52 velocity=99 time=6
note_on channel=0 note=44 velocity=90 time=2
note_on channel=0 note=68 velocity=105 time=0
note_on channel=0 note=80 velocity=100 time=1
note_on channel=0 note=40 velocity=84 time=2
note_on channel=0 note=76 velocity=72 time=4
control_change channel=0 control=64 value=95 time=1
control_change channel=0 control=64 value=127 time=15
note_on channel=0 note=76 velocity=0 time=8
note_on channel=0 note=68 velocity=0 time=6
note_on channel=0 note=52 velocity=0 time=4
note_on channel=0 note=40 velocity=0 time=2
note_on channel=0 note=80 velocity=0 time=8
note_on channel=0 note=44 velocity=0 time=4
control_change channel=0 control=64 value=111 time=303
control_change channel=0 control=64 value=70 time=15
control_change channel=0 control=64 value=0 time=15
note_on channel=0 note=42 velocity=88 time=452
note_on channel=0 note=50 velocity=96 time=3
note_on channel=0 note=38 velocity=81 time=4
note_on channel=0 note=66 velocity=106 time=0
note_on channel=0 note=78 velocity=98 time=0
control_change channel=0 control=64 value=65 time=5
note_on channel=0 note=74 velocity=70 time=10
control_change channel=0 control=64 value=98 time=5
control_change channel=0 control=64 value=127 time=16
note_on channel=0 note=66 velocity=0 time=0
note_on channel=0 note=74 velocity=0 time=7
note_on channel=0 note=50 velocity=0 time=5
note_on channel=0 note=38 velocity=0 time=3
note_on channel=0 note=78 velocity=0 time=1
note_on channel=0 note=42 velocity=0 time=6
control_change channel=0 control=64 value=91 time=404
control_change channel=0 control=64 value=71 time=15
control_change channel=0 control=64 value=0 time=15
note_on channel=0 note=65 velocity=91 time=622
note_on channel=0 note=73 velocity=92 time=0
note_on channel=0 note=49 velocity=92 time=1
note_on channel=0 note=77 velocity=95 time=1
note_on channel=0 note=41 velocity=77 time=1
note_on channel=0 note=37 velocity=78 time=4
control_change channel=0 control=64 value=26 time=817
control_change channel=0 control=64 value=43 time=16
control_change channel=0 control=64 value=52 time=16
control_change channel=0 control=64 value=57 time=16
control_change channel=0 control=64 value=59 time=15
control_change channel=0 control=64 value=61 time=14
control_change channel=0 control=64 value=62 time=16
control_change channel=0 control=64 value=63 time=15
control_change channel=0 control=64 value=64 time=16
control_change channel=0 control=64 value=65 time=15
control_change channel=0 control=64 value=65 time=14
control_change channel=0 control=64 value=66 time=16
control_change channel=0 control=64 value=67 time=15
control_change channel=0 control=64 value=67 time=15
control_change channel=0 control=64 value=68 time=23
control_change channel=0 control=64 value=68 time=15
control_change channel=0 control=64 value=69 time=16
control_change channel=0 control=64 value=70 time=15
control_change channel=0 control=67 value=8 time=0
control_change channel=0 control=64 value=71 time=16
control_change channel=0 control=67 value=9 time=0
control_change channel=0 control=64 value=72 time=14
control_change channel=0 control=67 value=9 time=0
control_change channel=0 control=64 value=72 time=15
control_change channel=0 control=67 value=10 time=0
control_change channel=0 control=64 value=73 time=16
control_change channel=0 control=67 value=12 time=0
control_change channel=0 control=64 value=75 time=15
control_change channel=0 control=67 value=14 time=0
control_change channel=0 control=64 value=76 time=15
control_change channel=0 control=67 value=16 time=0
control_change channel=0 control=64 value=77 time=15
control_change channel=0 control=67 value=17 time=0
control_change channel=0 control=64 value=78 time=15
control_change channel=0 control=67 value=18 time=0
control_change channel=0 control=64 value=80 time=16
control_change channel=0 control=67 value=19 time=0
control_change channel=0 control=64 value=81 time=14
control_change channel=0 control=67 value=21 time=0
control_change channel=0 control=64 value=83 time=15
control_change channel=0 control=67 value=23 time=0
control_change channel=0 control=64 value=85 time=16
control_change channel=0 control=67 value=24 time=0
control_change channel=0 control=64 value=86 time=15
control_change channel=0 control=67 value=26 time=0
control_change channel=0 control=64 value=88 time=15
control_change channel=0 control=67 value=28 time=0
control_change channel=0 control=64 value=90 time=15
control_change channel=0 control=67 value=30 time=0
control_change channel=0 control=64 value=92 time=15
control_change channel=0 control=67 value=32 time=0
control_change channel=0 control=64 value=93 time=16
control_change channel=0 control=67 value=34 time=0
control_change channel=0 control=64 value=95 time=15
control_change channel=0 control=67 value=35 time=0
control_change channel=0 control=64 value=97 time=15
control_change channel=0 control=67 value=37 time=0
control_change channel=0 control=64 value=98 time=16
control_change channel=0 control=67 value=38 time=0
control_change channel=0 control=64 value=99 time=14
control_change channel=0 control=67 value=40 time=0
control_change channel=0 control=64 value=100 time=15
control_change channel=0 control=67 value=41 time=0
control_change channel=0 control=64 value=100 time=16
control_change channel=0 control=67 value=44 time=0
control_change channel=0 control=64 value=101 time=15
control_change channel=0 control=67 value=46 time=0
control_change channel=0 control=64 value=102 time=16
control_change channel=0 control=67 value=49 time=0
control_change channel=0 control=64 value=103 time=15
control_change channel=0 control=67 value=51 time=0
control_change channel=0 control=64 value=103 time=15
control_change channel=0 control=67 value=54 time=0
control_change channel=0 control=67 value=56 time=15
control_change channel=0 control=64 value=104 time=15
control_change channel=0 control=67 value=60 time=0
control_change channel=0 control=67 value=63 time=16
control_change channel=0 control=67 value=66 time=15
control_change channel=0 control=67 value=70 time=14
control_change channel=0 control=67 value=74 time=16
control_change channel=0 control=67 value=78 time=15
control_change channel=0 control=67 value=82 time=15
control_change channel=0 control=67 value=86 time=16
control_change channel=0 control=64 value=104 time=14
control_change channel=0 control=67 value=92 time=0
control_change channel=0 control=67 value=97 time=17
control_change channel=0 control=67 value=102 time=15
control_change channel=0 control=67 value=106 time=15
control_change channel=0 control=67 value=111 time=16
control_change channel=0 control=67 value=115 time=15
control_change channel=0 control=67 value=121 time=14
control_change channel=0 control=67 value=126 time=16
control_change channel=0 control=67 value=127 time=15
control_change channel=0 control=64 value=104 time=84
note_on channel=0 note=49 velocity=0 time=34
note_on channel=0 note=65 velocity=0 time=67
note_on channel=0 note=77 velocity=0 time=11
note_on channel=0 note=73 velocity=0 time=75
note_on channel=0 note=41 velocity=0 time=24
note_on channel=0 note=37 velocity=0 time=192
control_change channel=0 control=64 value=103 time=84
control_change channel=0 control=64 value=103 time=74
control_change channel=0 control=64 value=102 time=47
control_change channel=0 control=64 value=102 time=46
control_change channel=0 control=64 value=101 time=46
control_change channel=0 control=64 value=101 time=52
control_change channel=0 control=64 value=100 time=46
control_change channel=0 control=64 value=100 time=45
control_change channel=0 control=64 value=99 time=16
control_change channel=0 control=64 value=99 time=31
control_change channel=0 control=64 value=98 time=15
control_change channel=0 control=64 value=97 time=15
control_change channel=0 control=64 value=97 time=30
control_change channel=0 control=64 value=96 time=15
control_change channel=0 control=64 value=96 time=16
control_change channel=0 control=64 value=95 time=14
control_change channel=0 control=64 value=95 time=16
control_change channel=0 control=64 value=94 time=15
control_change channel=0 control=64 value=93 time=15
control_change channel=0 control=64 value=93 time=16
control_change channel=0 control=64 value=92 time=14
control_change channel=0 control=64 value=92 time=16
control_change channel=0 control=64 value=91 time=15
control_change channel=0 control=64 value=91 time=31
control_change channel=0 control=64 value=90 time=14
control_change channel=0 control=64 value=90 time=15
control_change channel=0 control=64 value=89 time=16
control_change channel=0 control=64 value=87 time=15
control_change channel=0 control=64 value=82 time=15
control_change channel=0 control=64 value=76 time=15
control_change channel=0 control=64 value=70 time=15
control_change channel=0 control=64 value=63 time=16
control_change channel=0 control=64 value=47 time=15
control_change channel=0 control=64 value=0 time=15
note_on channel=0 note=40 velocity=36 time=38
note_on channel=0 note=56 velocity=65 time=1
note_on channel=0 note=28 velocity=44 time=4
control_change channel=0 control=64 value=21 time=5
note_on channel=0 note=52 velocity=47 time=3
note_on channel=0 note=44 velocity=39 time=2
control_change channel=0 control=64 value=40 time=10
control_change channel=0 control=64 value=51 time=16
control_change channel=0 control=64 value=62 time=15
control_change channel=0 control=64 value=67 time=15
control_change channel=0 control=64 value=71 time=15
control_change channel=0 control=64 value=75 time=15
control_change channel=0 control=64 value=79 time=15
control_change channel=0 control=64 value=84 time=17
note_on channel=0 note=40 velocity=0 time=11
control_change channel=0 control=64 value=90 time=4
note_on channel=0 note=52 velocity=0 time=13
note_on channel=0 note=28 velocity=0 time=4
note_on channel=0 note=44 velocity=0 time=1
control_change channel=0 control=64 value=93 time=5
note_on channel=0 note=56 velocity=0 time=13
control_change channel=0 control=64 value=95 time=2
control_change channel=0 control=64 value=95 time=15
control_change channel=0 control=64 value=95 time=151
control_change channel=0 control=64 value=94 time=16
control_change channel=0 control=64 value=93 time=15
control_change channel=0 control=64 value=92 time=16
control_change channel=0 control=64 value=91 time=15
control_change channel=0 control=64 value=87 time=15
control_change channel=0 control=64 value=80 time=16
control_change channel=0 control=64 value=71 time=15
control_change channel=0 control=64 value=53 time=14
control_change channel=0 control=64 value=0 time=16
control_change channel=0 control=64 value=32 time=677
control_change channel=0 control=64 value=48 time=15
control_change channel=0 control=64 value=56 time=16
control_change channel=0 control=64 value=59 time=15
control_change channel=0 control=64 value=61 time=15
control_change channel=0 control=64 value=63 time=15
control_change channel=0 control=64 value=64 time=15
control_change channel=0 control=64 value=65 time=15
note_on channel=0 note=54 velocity=56 time=2
control_change channel=0 control=64 value=68 time=13
note_on channel=0 note=42 velocity=36 time=2
note_on channel=0 note=26 velocity=48 time=4
note_on channel=0 note=50 velocity=33 time=6
control_change channel=0 control=64 value=71 time=3
note_on channel=0 note=38 velocity=44 time=4
control_change channel=0 control=64 value=74 time=12
note_on channel=0 note=42 velocity=0 time=12
control_change channel=0 control=64 value=79 time=3
note_on channel=0 note=50 velocity=0 time=6
note_on channel=0 note=38 velocity=0 time=3
control_change channel=0 control=64 value=83 time=6
note_on channel=0 note=26 velocity=0 time=0
note_on channel=0 note=54 velocity=0 time=3
control_change channel=0 control=64 value=85 time=13
control_change channel=0 control=64 value=88 time=15
control_change channel=0 control=64 value=90 time=15
control_change channel=0 control=64 value=91 time=16
control_change channel=0 control=64 value=92 time=15
control_change channel=0 control=64 value=91 time=150
control_change channel=0 control=64 value=90 time=15
control_change channel=0 control=64 value=89 time=16
control_change channel=0 control=64 value=87 time=15
control_change channel=0 control=64 value=84 time=14
control_change channel=0 control=64 value=80 time=16
control_change channel=0 control=64 value=77 time=15
control_change channel=0 control=64 value=71 time=16
control_change channel=0 control=64 value=64 time=22
control_change channel=0 control=64 value=26 time=16
control_change channel=0 control=64 value=0 time=15
note_on channel=0 note=49 velocity=26 time=1469
note_on channel=0 note=41 velocity=26 time=9
note_on channel=0 note=25 velocity=38 time=1
note_on channel=0 note=37 velocity=33 time=20
note_on channel=0 note=53 velocity=30 time=10
control_change channel=0 control=64 value=17 time=256
control_change channel=0 control=64 value=23 time=15
control_change channel=0 control=64 value=26 time=16
control_change channel=0 control=64 value=33 time=14
control_change channel=0 control=64 value=41 time=16
control_change channel=0 control=64 value=49 time=15
control_change channel=0 control=64 value=56 time=15
control_change channel=0 control=64 value=60 time=16
control_change channel=0 control=64 value=61 time=14
control_change channel=0 control=64 value=62 time=16
control_change channel=0 control=64 value=63 time=15
control_change channel=0 control=64 value=64 time=15
control_change channel=0 control=64 value=65 time=16
control_change channel=0 control=64 value=66 time=14
control_change channel=0 control=64 value=67 time=15
control_change channel=0 control=64 value=68 time=16
control_change channel=0 control=64 value=69 time=14
control_change channel=0 control=64 value=70 time=16
control_change channel=0 control=64 value=71 time=15
control_change channel=0 control=64 value=72 time=15
control_change channel=0 control=64 value=73 time=16
control_change channel=0 control=64 value=74 time=15
control_change channel=0 control=64 value=75 time=14
control_change channel=0 control=64 value=76 time=16
control_change channel=0 control=64 value=77 time=16
control_change channel=0 control=64 value=78 time=16
control_change channel=0 control=64 value=79 time=14
control_change channel=0 control=64 value=79 time=15
control_change channel=0 control=64 value=80 time=16
control_change channel=0 control=64 value=81 time=15
control_change channel=0 control=64 value=82 time=16
control_change channel=0 control=64 value=83 time=15
control_change channel=0 control=64 value=84 time=15
control_change channel=0 control=64 value=85 time=23
control_change channel=0 control=64 value=86 time=14
control_change channel=0 control=64 value=87 time=16
control_change channel=0 control=64 value=88 time=15
control_change channel=0 control=64 value=89 time=15
control_change channel=0 control=64 value=89 time=16
control_change channel=0 control=64 value=90 time=29
control_change channel=0 control=64 value=91 time=16
control_change channel=0 control=64 value=92 time=15
control_change channel=0 control=64 value=93 time=15
control_change channel=0 control=64 value=93 time=15
note_on channel=0 note=41 velocity=0 time=1801
control_change channel=0 control=64 value=93 time=25
control_change channel=0 control=64 value=92 time=137
control_change channel=0 control=64 value=92 time=59
control_change channel=0 control=64 value=91 time=61
note_on channel=0 note=49 velocity=0 time=22
note_on channel=0 note=25 velocity=0 time=32
control_change channel=0 control=64 value=91 time=13
control_change channel=0 control=64 value=90 time=45
note_on channel=0 note=37 velocity=0 time=51
control_change channel=0 control=64 value=90 time=40
control_change channel=0 control=64 value=89 time=60
note_on channel=0 note=53 velocity=0 time=6
control_change channel=0 control=64 value=89 time=40
control_change channel=0 control=64 value=88 time=77
control_change channel=0 control=64 value=88 time=61
control_change channel=0 control=64 value=87 time=14
control_change channel=0 control=64 value=87 time=31
control_change channel=0 control=64 value=86 time=31
control_change channel=0 control=64 value=86 time=15
control_change channel=0 control=64 value=85 time=30
control_change channel=0 control=64 value=85 time=15
control_change channel=0 control=64 value=84 time=16
control_change channel=0 control=64 value=83 time=15
control_change channel=0 control=64 value=82 time=16
control_change channel=0 control=64 value=81 time=15
control_change channel=0 control=64 value=81 time=14
control_change channel=0 control=64 value=80 time=32
control_change channel=0 control=64 value=79 time=16
control_change channel=0 control=64 value=79 time=15
control_change channel=0 control=64 value=78 time=14
control_change channel=0 control=64 value=78 time=31
control_change channel=0 control=64 value=77 time=68
control_change channel=0 control=64 value=76 time=15
control_change channel=0 control=64 value=76 time=16
control_change channel=0 control=64 value=75 time=15
control_change channel=0 control=64 value=74 time=15
control_change channel=0 control=64 value=74 time=16
control_change channel=0 control=64 value=73 time=15
control_change channel=0 control=64 value=73 time=14
control_change channel=0 control=64 value=72 time=31
control_change channel=0 control=64 value=71 time=15
control_change channel=0 control=64 value=70 time=15
control_change channel=0 control=64 value=69 time=15
control_change channel=0 control=64 value=68 time=16
control_change channel=0 control=64 value=68 time=15
control_change channel=0 control=64 value=67 time=14
control_change channel=0 control=64 value=67 time=16
control_change channel=0 control=64 value=66 time=15
control_change channel=0 control=64 value=65 time=16
control_change channel=0 control=64 value=65 time=14
control_change channel=0 control=64 value=64 time=15
control_change channel=0 control=64 value=64 time=16
control_change channel=0 control=64 value=63 time=15
control_change channel=0 control=64 value=63 time=45
control_change channel=0 control=64 value=62 time=16
control_change channel=0 control=64 value=61 time=16
control_change channel=0 control=64 value=60 time=45
control_change channel=0 control=64 value=57 time=16
control_change channel=0 control=64 value=53 time=15
control_change channel=0 control=64 value=53 time=45
control_change channel=0 control=67 value=127 time=0
control_change channel=0 control=64 value=49 time=15
control_change channel=0 control=67 value=126 time=0
control_change channel=0 control=64 value=35 time=16
control_change channel=0 control=67 value=126 time=0
control_change channel=0 control=64 value=11 time=15
control_change channel=0 control=67 value=124 time=0
control_change channel=0 control=64 value=0 time=15
control_change channel=0 control=67 value=123 time=0
control_change channel=0 control=67 value=121 time=15
control_change channel=0 control=67 value=118 time=15
control_change channel=0 control=67 value=115 time=16
control_change channel=0 control=67 value=112 time=15
control_change channel=0 control=67 value=110 time=14
control_change channel=0 control=67 value=108 time=16
control_change channel=0 control=67 value=105 time=15
control_change channel=0 control=67 value=102 time=15
control_change channel=0 control=67 value=99 time=15
control_change channel=0 control=67 value=97 time=23
control_change channel=0 control=67 value=95 time=15
control_change channel=0 control=67 value=93 time=15
control_change channel=0 control=67 value=90 time=16
control_change channel=0 control=67 value=88 time=15
control_change channel=0 control=67 value=84 time=15
note_on channel=0 note=54 velocity=44 time=13
control_change channel=0 control=67 value=81 time=3
note_on channel=0 note=42 velocity=37 time=6
control_change channel=0 control=64 value=27 time=9
control_change channel=0 control=67 value=76 time=0
note_on channel=0 note=54 velocity=0 time=13
control_change channel=0 control=64 value=41 time=2
control_change channel=0 control=67 value=72 time=0
note_on channel=0 note=42 velocity=0 time=11
control_change channel=0 control=64 value=49 time=4
control_change channel=0 control=67 value=66 time=0
control_change channel=0 control=64 value=54 time=15
control_change channel=0 control=67 value=61 time=0
control_change channel=0 control=64 value=55 time=15
control_change channel=0 control=67 value=56 time=0
control_change channel=0 control=67 value=52 time=15
control_change channel=0 control=67 value=47 time=16
control_change channel=0 control=67 value=43 time=15
control_change channel=0 control=67 value=41 time=15
control_change channel=0 control=67 value=38 time=15
note_on channel=0 note=57 velocity=56 time=11
note_on channel=0 note=45 velocity=51 time=1
control_change channel=0 control=64 value=55 time=3
control_change channel=0 control=67 value=35 time=0
control_change channel=0 control=64 value=54 time=15
control_change channel=0 control=67 value=32 time=0
note_on channel=0 note=45 velocity=0 time=12
control_change channel=0 control=67 value=28 time=4
note_on channel=0 note=57 velocity=0 time=0
control_change channel=0 control=64 value=54 time=15
control_change channel=0 control=67 value=25 time=0
control_change channel=0 control=67 value=21 time=15
control_change channel=0 control=67 value=17 time=15
control_change channel=0 control=67 value=11 time=15
control_change channel=0 control=67 value=0 time=16
note_on channel=0 note=48 velocity=67 time=24
note_on channel=0 note=60 velocity=62 time=5
note_on channel=0 note=48 velocity=0 time=25
note_on channel=0 note=60 velocity=0 time=3
control_change channel=0 control=64 value=53 time=3
control_change channel=0 control=64 value=50 time=16
control_change channel=0 control=64 value=47 time=15
control_change channel=0 control=64 value=44 time=15
control_change channel=0 control=64 value=44 time=16
note_on channel=0 note=61 velocity=73 time=20
note_on channel=0 note=49 velocity=66 time=8
note_on channel=0 note=61 velocity=0 time=19
note_on channel=0 note=49 velocity=0 time=7
control_change channel=0 control=64 value=44 time=22
control_change channel=0 control=64 value=44 time=30
control_change channel=0 control=64 value=40 time=16
note_on channel=0 note=42 velocity=74 time=10
note_on channel=0 note=54 velocity=72 time=4
control_change channel=0 control=64 value=32 time=1
control_change channel=0 control=64 value=26 time=15
note_on channel=0 note=54 velocity=0 time=14
note_on channel=0 note=42 velocity=0 time=5
control_change channel=0 control=64 value=27 time=27
control_change channel=0 control=64 value=31 time=15
control_change channel=0 control=64 value=36 time=15
control_change channel=0 control=64 value=36 time=16
note_on channel=0 note=57 velocity=75 time=1
note_on channel=0 note=45 velocity=75 time=1
control_change channel=0 control=64 value=26 time=13
control_change channel=0 control=64 value=0 time=22
note_on channel=0 note=45 velocity=0 time=0
note_on channel=0 note=57 velocity=0 time=0
note_on channel=0 note=48 velocity=84 time=84
note_on channel=0 note=60 velocity=80 time=2
note_on channel=0 note=60 velocity=0 time=22
note_on channel=0 note=48 velocity=0 time=8
note_on channel=0 note=61 velocity=78 time=70
note_on channel=0 note=49 velocity=74 time=9
note_on channel=0 note=61 velocity=0 time=15
note_on channel=0 note=49 velocity=0 time=10
control_change channel=0 control=64 value=31 time=69
note_on channel=0 note=42 velocity=72 time=10
note_on channel=0 note=66 velocity=77 time=3
control_change channel=0 control=64 value=45 time=2
note_on channel=0 note=54 velocity=76 time=1
note_on channel=0 note=78 velocity=85 time=0
control_change channel=0 control=64 value=45 time=15
note_on channel=0 note=66 velocity=0 time=5
control_change channel=0 control=64 value=33 time=9
note_on channel=0 note=54 velocity=0 time=2
note_on channel=0 note=42 velocity=0 time=5
control_change channel=0 control=64 value=0 time=9
note_on channel=0 note=78 velocity=0 time=3
note_on channel=0 note=81 velocity=92 time=59
note_on channel=0 note=69 velocity=84 time=2
note_on channel=0 note=45 velocity=72 time=1
note_on channel=0 note=57 velocity=71 time=0
note_on channel=0 note=69 velocity=0 time=19
note_on channel=0 note=57 velocity=0 time=7
note_on channel=0 note=45 velocity=0 time=2
note_on channel=0 note=81 velocity=0 time=7
note_on channel=0 note=84 velocity=95 time=77
note_on channel=0 note=59 velocity=66 time=1
note_on channel=0 note=48 velocity=65 time=3
note_on channel=0 note=72 velocity=83 time=0
note_on channel=0 note=72 velocity=0 time=19
note_on channel=0 note=59 velocity=0 time=5
note_on channel=0 note=48 velocity=0 time=3
note_on channel=0 note=84 velocity=0 time=11
control_change channel=0 control=64 value=23 time=25
control_change channel=0 control=64 value=60 time=15
control_change channel=0 control=64 value=67 time=14
note_on channel=0 note=61 velocity=92 time=15
control_change channel=0 control=64 value=71 time=1
note_on channel=0 note=49 velocity=76 time=5
note_on channel=0 note=73 velocity=98 time=1
note_on channel=0 note=85 velocity=101 time=2
control_change channel=0 control=64 value=76 time=7
control_change channel=0 control=64 value=82 time=16
note_on channel=0 note=49 velocity=0 time=1
note_on channel=0 note=61 velocity=0 time=3
note_on channel=0 note=73 velocity=0 time=4
control_change channel=0 control=64 value=91 time=6
control_change channel=0 control=64 value=99 time=15
control_change channel=0 control=64 value=105 time=16
note_on channel=0 note=85 velocity=0 time=10
control_change channel=0 control=64 value=108 time=5
control_change channel=0 control=64 value=111 time=15
control_change channel=0 control=64 value=114 time=23
control_change channel=0 control=64 value=116 time=15
control_change channel=0 control=64 value=116 time=31
control_change channel=0 control=64 value=115 time=16
control_change channel=0 control=64 value=108 time=14
note_on channel=0 note=90 velocity=104 time=2
note_on channel=0 note=66 velocity=93 time=4
note_on channel=0 note=54 velocity=80 time=5
note_on channel=0 note=78 velocity=81 time=0
control_change channel=0 control=64 value=97 time=4
control_change channel=0 control=64 value=81 time=16
control_change channel=0 control=64 value=66 time=14
control_change channel=0 control=64 value=0 time=15
control_change channel=0 control=64 value=34 time=183
control_change channel=0 control=64 value=54 time=15
control_change channel=0 control=64 value=63 time=16
control_change channel=0 control=64 value=65 time=15
control_change channel=0 control=64 value=67 time=15
control_change channel=0 control=64 value=69 time=15
control_change channel=0 control=64 value=71 time=15
control_change channel=0 control=64 value=74 time=16
control_change channel=0 control=64 value=78 time=15
control_change channel=0 control=64 value=81 time=14
control_change channel=0 control=64 value=84 time=16
control_change channel=0 control=64 value=87 time=15
control_change channel=0 control=64 value=91 time=16
control_change channel=0 control=64 value=95 time=15
note_on channel=0 note=78 velocity=0 time=7
control_change channel=0 control=64 value=100 time=7
control_change channel=0 control=64 value=105 time=16
control_change channel=0 control=64 value=112 time=15
note_on channel=0 note=66 velocity=0 time=14
control_change channel=0 control=64 value=127 time=2
note_on channel=0 note=90 velocity=0 time=219
note_on channel=0 note=54 velocity=0 time=22
note_on channel=0 note=88 velocity=93 time=186
note_on channel=0 note=76 velocity=67 time=13
note_on channel=0 note=76 velocity=0 time=187
note_on channel=0 note=88 velocity=0 time=27
control_change channel=0 control=64 value=113 time=39
control_change channel=0 control=64 value=93 time=15
control_change channel=0 control=64 value=76 time=14
note_on channel=0 note=45 velocity=45 time=8
note_on channel=0 note=33 velocity=42 time=1
note_on channel=0 note=88 velocity=65 time=4
control_change channel=0 control=64 value=65 time=3
note_on channel=0 note=76 velocity=50 time=18
control_change channel=0 control=64 value=68 time=13
control_change channel=0 control=64 value=69 time=15
control_change channel=0 control=64 value=71 time=14
control_change channel=0 control=64 value=75 time=17
note_on channel=0 note=33 velocity=0 time=2
control_change channel=0 control=64 value=79 time=13
control_change channel=0 control=64 value=84 time=16
note_on channel=0 note=45 velocity=0 time=3
control_change channel=0 control=64 value=88 time=12
note_on channel=0 note=76 velocity=0 time=6
control_change channel=0 control=64 value=90 time=9
control_change channel=0 control=64 value=93 time=15
control_change channel=0 control=64 value=96 time=15
control_change channel=0 control=64 value=99 time=15
control_change channel=0 control=64 value=103 time=16
control_change channel=0 control=64 value=105 time=21
control_change channel=0 control=64 value=107 time=16
control_change channel=0 control=64 value=108 time=15
control_change channel=0 control=64 value=110 time=16
control_change channel=0 control=64 value=111 time=15
note_on channel=0 note=69 velocity=61 time=15
note_on channel=0 note=66 velocity=59 time=4
control_change channel=0 control=64 value=112 time=12
note_on channel=0 note=88 velocity=0 time=12
note_on channel=0 note=66 velocity=0 time=1
control_change channel=0 control=64 value=113 time=2
note_on channel=0 note=69 velocity=0 time=4
control_change channel=0 control=64 value=113 time=10
control_change channel=0 control=64 value=114 time=16
control_change channel=0 control=64 value=115 time=31
control_change channel=0 control=64 value=116 time=15
note_on channel=0 note=86 velocity=83 time=7
note_on channel=0 note=74 velocity=63 time=5
control_change channel=0 control=64 value=117 time=2
note_on channel=0 note=66 velocity=56 time=10
control_change channel=0 control=64 value=120 time=6
note_on channel=0 note=69 velocity=47 time=7
note_on channel=0 note=74 velocity=0 time=5
control_change channel=0 control=64 value=122 time=3
note_on channel=0 note=66 velocity=0 time=1
note_on channel=0 note=69 velocity=0 time=12
note_on channel=0 note=86 velocity=0 time=4
note_on channel=0 note=66 velocity=61 time=72
note_on channel=0 note=69 velocity=60 time=0
note_on channel=0 note=86 velocity=90 time=1
note_on channel=0 note=74 velocity=78 time=5
note_on channel=0 note=69 velocity=0 time=25
note_on channel=0 note=66 velocity=0 time=4
note_on channel=0 note=74 velocity=0 time=21
note_on channel=0 note=66 velocity=77 time=56
note_on channel=0 note=69 velocity=72 time=2
control_change channel=0 control=64 value=123 time=9
control_change channel=0 control=64 value=124 time=16
note_on channel=0 note=69 velocity=0 time=2
note_on channel=0 note=66 velocity=0 time=3
control_change channel=0 control=64 value=127 time=9
note_on channel=0 note=86 velocity=0 time=12
note_on channel=0 note=85 velocity=90 time=63
note_on channel=0 note=73 velocity=84 time=4
note_on channel=0 note=69 velocity=61 time=4
note_on channel=0 note=66 velocity=61 time=3
note_on channel=0 note=66 velocity=0 time=22
note_on channel=0 note=69 velocity=0 time=1
note_on channel=0 note=73 velocity=0 time=3
note_on channel=0 note=85 velocity=0 time=27
note_on channel=0 note=66 velocity=60 time=57
note_on channel=0 note=69 velocity=57 time=1
control_change channel=0 control=64 value=109 time=2
note_on channel=0 note=85 velocity=89 time=14
control_change channel=0 control=64 value=97 time=2
note_on channel=0 note=73 velocity=81 time=5
control_change channel=0 control=64 value=94 time=10
note_on channel=0 note=69 velocity=0 time=1
note_on channel=0 note=66 velocity=0 time=20
control_change channel=0 control=64 value=97 time=25
control_change channel=0 control=64 value=101 time=23
control_change channel=0 control=64 value=106 time=14
control_change channel=0 control=64 value=112 time=15
control_change channel=0 control=64 value=115 time=16
control_change channel=0 control=64 value=116 time=15
control_change channel=0 control=64 value=117 time=14
note_on channel=0 note=85 velocity=0 time=39
note_on channel=0 note=73 velocity=0 time=25
control_change channel=0 control=64 value=116 time=43
note_on channel=0 note=83 velocity=80 time=42
control_change channel=0 control=64 value=115 time=4
note_on channel=0 note=71 velocity=66 time=6
control_change channel=0 control=64 value=112 time=10
control_change channel=0 control=64 value=110 time=15
note_on channel=0 note=71 velocity=0 time=5
control_change channel=0 control=64 value=107 time=9
note_on channel=0 note=83 velocity=0 time=8
control_change channel=0 control=64 value=104 time=8
control_change channel=0 control=64 value=103 time=15
control_change channel=0 control=64 value=102 time=16
control_change channel=0 control=64 value=101 time=15
control_change channel=0 control=64 value=99 time=14
note_on channel=0 note=56 velocity=57 time=6
note_on channel=0 note=83 velocity=65 time=7
control_change channel=0 control=64 value=97 time=3
note_on channel=0 note=44 velocity=50 time=1
note_on channel=0 note=80 velocity=59 time=0
note_on channel=0 note=71 velocity=61 time=1
control_change channel=0 control=64 value=95 time=13
note_on channel=0 note=78 velocity=40 time=0
note_on channel=0 note=56 velocity=0 time=6
note_on channel=0 note=71 velocity=0 time=4
control_change channel=0 control=64 value=93 time=4
note_on channel=0 note=80 velocity=0 time=0
note_on channel=0 note=44 velocity=0 time=8
note_on channel=0 note=83 velocity=0 time=1
note_on channel=0 note=78 velocity=0 time=6
control_change channel=0 control=64 value=90 time=1
control_change channel=0 control=64 value=88 time=15
control_change channel=0 control=64 value=85 time=16
control_change channel=0 control=64 value=83 time=15
control_change channel=0 control=64 value=80 time=14
note_on channel=0 note=71 velocity=68 time=2
note_on channel=0 note=80 velocity=66 time=7
note_on channel=0 note=78 velocity=64 time=2
note_on channel=0 note=59 velocity=68 time=2
note_on channel=0 note=83 velocity=71 time=0
note_on channel=0 note=47 velocity=64 time=2
control_change channel=0 control=64 value=78 time=1
note_on channel=0 note=71 velocity=0 time=12
control_change channel=0 control=64 value=75 time=3
note_on channel=0 note=47 velocity=0 time=7
note_on channel=0 note=78 velocity=0 time=1
note_on channel=0 note=59 velocity=0 time=1
note_on channel=0 note=80 velocity=0 time=2
note_on channel=0 note=83 velocity=0 time=0
control_change channel=0 control=64 value=72 time=5
control_change channel=0 control=64 value=70 time=15
control_change channel=0 control=64 value=68 time=14
control_change channel=0 control=64 value=66 time=16
control_change channel=0 control=64 value=64 time=15
note_on channel=0 note=71 velocity=84 time=12
control_change channel=0 control=64 value=64 time=3
note_on channel=0 note=61 velocity=84 time=2
note_on channel=0 note=49 velocity=74 time=1
note_on channel=0 note=83 velocity=74 time=0
note_on channel=0 note=80 velocity=73 time=3
note_on channel=0 note=78 velocity=70 time=2
control_change channel=0 control=64 value=63 time=8
note_on channel=0 note=71 velocity=0 time=0
control_change channel=0 control=64 value=62 time=14
note_on channel=0 note=78 velocity=0 time=1
note_on channel=0 note=83 velocity=0 time=2
note_on channel=0 note=61 velocity=0 time=1
note_on channel=0 note=80 velocity=0 time=0
control_change channel=0 control=64 value=57 time=12
control_change channel=0 control=64 value=49 time=15
note_on channel=0 note=49 velocity=0 time=9
control_change channel=0 control=64 value=51 time=6
control_change channel=0 control=64 value=58 time=15
note_on channel=0 note=71 velocity=88 time=13
control_change channel=0 control=64 value=61 time=2
note_on channel=0 note=62 velocity=85 time=2
note_on channel=0 note=83 velocity=76 time=2
note_on channel=0 note=50 velocity=78 time=4
note_on channel=0 note=78 velocity=75 time=1
note_on channel=0 note=80 velocity=75 time=1
control_change channel=0 control=64 value=64 time=5
note_on channel=0 note=62 velocity=0 time=14
control_change channel=0 control=64 value=64 time=3
note_on channel=0 note=71 velocity=0 time=1
note_on channel=0 note=78 velocity=0 time=3
note_on channel=0 note=50 velocity=0 time=2
note_on channel=0 note=80 velocity=0 time=2
note_on channel=0 note=83 velocity=0 time=1
control_change channel=0 control=64 value=62 time=6
control_change channel=0 control=64 value=45 time=23
control_change channel=0 control=64 value=0 time=14
note_on channel=0 note=56 velocity=94 time=35
note_on channel=0 note=44 velocity=86 time=3
note_on channel=0 note=71 velocity=90 time=1
note_on channel=0 note=83 velocity=79 time=5
note_on channel=0 note=80 velocity=76 time=3
note_on channel=0 note=78 velocity=81 time=1
control_change channel=0 control=64 value=11 time=13
note_on channel=0 note=71 velocity=0 time=3
control_change channel=0 control=64 value=62 time=12
note_on channel=0 note=78 velocity=0 time=1
note_on channel=0 note=56 velocity=0 time=2
note_on channel=0 note=80 velocity=0 time=1
note_on channel=0 note=83 velocity=0 time=5
control_change channel=0 control=64 value=66 time=6
note_on channel=0 note=44 velocity=0 time=0
control_change channel=0 control=64 value=64 time=16
control_change channel=0 control=64 value=36 time=15
control_change channel=0 control=64 value=0 time=16
note_on channel=0 note=71 velocity=95 time=9
note_on channel=0 note=59 velocity=90 time=1
note_on channel=0 note=47 velocity=83 time=2
note_on channel=0 note=83 velocity=83 time=3
note_on channel=0 note=78 velocity=83 time=5
note_on channel=0 note=80 velocity=75 time=0
note_on channel=0 note=57 velocity=63 time=1
note_on channel=0 note=59 velocity=0 time=22
note_on channel=0 note=57 velocity=0 time=2
note_on channel=0 note=71 velocity=0 time=1
note_on channel=0 note=47 velocity=0 time=4
note_on channel=0 note=78 velocity=0 time=5
note_on channel=0 note=80 velocity=0 time=0
note_on channel=0 note=83 velocity=0 time=2
control_change channel=0 control=64 value=55 time=3
control_change channel=0 control=64 value=66 time=15
control_change channel=0 control=64 value=65 time=16
control_change channel=0 control=64 value=36 time=15
note_on channel=0 note=61 velocity=101 time=13
control_change channel=0 control=64 value=0 time=2
note_on channel=0 note=49 velocity=88 time=1
note_on channel=0 note=71 velocity=100 time=0
note_on channel=0 note=83 velocity=84 time=5
note_on channel=0 note=78 velocity=79 time=3
note_on channel=0 note=80 velocity=75 time=4
note_on channel=0 note=71 velocity=0 time=18
note_on channel=0 note=80 velocity=0 time=12
note_on channel=0 note=83 velocity=0 time=3
note_on channel=0 note=61 velocity=0 time=1
note_on channel=0 note=78 velocity=0 time=0
control_change channel=0 control=64 value=53 time=14
note_on channel=0 note=49 velocity=0 time=12
control_change channel=0 control=64 value=64 time=3
control_change channel=0 control=64 value=65 time=15
control_change channel=0 control=64 value=64 time=15
note_on channel=0 note=62 velocity=93 time=5
note_on channel=0 note=71 velocity=99 time=2
note_on channel=0 note=83 velocity=82 time=4
note_on channel=0 note=50 velocity=81 time=3
note_on channel=0 note=78 velocity=77 time=0
note_on channel=0 note=80 velocity=80 time=1
control_change channel=0 control=64 value=64 time=1
control_change channel=0 control=64 value=63 time=15
note_on channel=0 note=62 velocity=0 time=9
note_on channel=0 note=71 velocity=0 time=1
control_change channel=0 control=64 value=64 time=4
note_on channel=0 note=50 velocity=0 time=2
note_on channel=0 note=78 velocity=0 time=4
note_on channel=0 note=83 velocity=0 time=3
note_on channel=0 note=80 velocity=0 time=5
control_change channel=0 control=64 value=64 time=2
control_change channel=0 control=64 value=65 time=15
control_change channel=0 control=64 value=65 time=30
note_on channel=0 note=56 velocity=95 time=9
note_on channel=0 note=44 velocity=89 time=3
note_on channel=0 note=71 velocity=102 time=0
note_on channel=0 note=83 velocity=89 time=4
note_on channel=0 note=80 velocity=70 time=1
note_on channel=0 note=78 velocity=81 time=1
note_on channel=0 note=71 velocity=0 time=30
note_on channel=0 note=46 velocity=23 time=8
control_change channel=0 control=64 value=64 time=4
note_on channel=0 note=56 velocity=0 time=2
note_on channel=0 note=83 velocity=0 time=5
note_on channel=0 note=78 velocity=0 time=3
note_on channel=0 note=80 velocity=0 time=1
note_on channel=0 note=44 velocity=0 time=3
control_change channel=0 control=64 value=57 time=2
control_change channel=0 control=64 value=0 time=15
note_on channel=0 note=46 velocity=0 time=11
note_on channel=0 note=59 velocity=90 time=24
note_on channel=0 note=71 velocity=96 time=3
note_on channel=0 note=47 velocity=80 time=2
note_on channel=0 note=83 velocity=89 time=0
note_on channel=0 note=78 velocity=70 time=3
note_on channel=0 note=80 velocity=52 time=13
note_on channel=0 note=59 velocity=0 time=9
note_on channel=0 note=47 velocity=0 time=1
note_on channel=0 note=71 velocity=0 time=5
note_on channel=0 note=80 velocity=0 time=7
note_on channel=0 note=78 velocity=0 time=1
note_on channel=0 note=83 velocity=0 time=9
note_on channel=0 note=61 velocity=96 time=60
note_on channel=0 note=49 velocity=85 time=5
note_on channel=0 note=73 velocity=95 time=3
note_on channel=0 note=85 velocity=97 time=3
note_on channel=0 note=61 velocity=0 time=43
note_on channel=0 note=73 velocity=0 time=6
note_on channel=0 note=49 velocity=0 time=11
control_change channel=0 control=64 value=58 time=3
note_on channel=0 note=85 velocity=0 time=1
control_change channel=0 control=64 value=66 time=14
control_change channel=0 control=64 value=70 time=16
control_change channel=0 control=64 value=73 time=15
control_change channel=0 control=64 value=78 time=14
note_on channel=0 note=62 velocity=95 time=8
note_on channel=0 note=86 velocity=106 time=6
note_on channel=0 note=74 velocity=103 time=1
control_change channel=0 control=64 value=86 time=1
note_on channel=0 note=50 velocity=80 time=2
control_change channel=0 control=64 value=97 time=13
note_on channel=0 note=50 velocity=0 time=6
note_on channel=0 note=74 velocity=0 time=5
control_change channel=0 control=64 value=107 time=4
note_on channel=0 note=62 velocity=0 time=6
note_on channel=0 note=86 velocity=0 time=0
control_change channel=0 control=64 value=111 time=9
control_change channel=0 control=64 value=127 time=15
note_on channel=0 note=92 velocity=106 time=157
note_on channel=0 note=68 velocity=98 time=2
note_on channel=0 note=80 velocity=101 time=0
note_on channel=0 note=56 velocity=94 time=3
control_change channel=0 control=64 value=88 time=6
control_change channel=0 control=64 value=62 time=15
control_change channel=0 control=64 value=0 time=15
control_change channel=0 control=64 value=17 time=107
control_change channel=0 control=64 value=55 time=15
control_change channel=0 control=64 value=64 time=15
control_change channel=0 control=64 value=67 time=15
control_change channel=0 control=64 value=69 time=15
control_change channel=0 control=64 value=72 time=15
control_change channel=0 control=64 value=75 time=15
control_change channel=0 control=64 value=79 time=15
control_change channel=0 control=64 value=83 time=16
control_change channel=0 control=64 value=86 time=15
control_change channel=0 control=64 value=90 time=16
control_change channel=0 control=64 value=95 time=15
control_change channel=0 control=64 value=101 time=15
control_change channel=0 control=64 value=106 time=16
control_change channel=0 control=64 value=113 time=14
control_change channel=0 control=64 value=127 time=15
note_on channel=0 note=80 velocity=0 time=30
note_on channel=0 note=68 velocity=0 time=11
note_on channel=0 note=56 velocity=0 time=193
note_on channel=0 note=92 velocity=0 time=123
note_on channel=0 note=90 velocity=97 time=81
note_on channel=0 note=78 velocity=82 time=6
note_on channel=0 note=78 velocity=0 time=167
note_on channel=0 note=90 velocity=0 time=14
control_change channel=0 control=64 value=123 time=38
control_change channel=0 control=64 value=85 time=15
control_change channel=0 control=64 value=66 time=16
note_on channel=0 note=90 velocity=72 time=3
note_on channel=0 note=49 velocity=47 time=6
note_on channel=0 note=37 velocity=47 time=2
control_change channel=0 control=64 value=56 time=3
control_change channel=0 control=64 value=64 time=16
control_change channel=0 control=64 value=66 time=15
note_on channel=0 note=78 velocity=51 time=3
control_change channel=0 control=64 value=67 time=12
control_change channel=0 control=64 value=71 time=16
control_change channel=0 control=64 value=75 time=14
note_on channel=0 note=37 velocity=0 time=2
control_change channel=0 control=64 value=80 time=13
note_on channel=0 note=49 velocity=0 time=0
note_on channel=0 note=78 velocity=0 time=5
control_change channel=0 control=64 value=84 time=11
control_change channel=0 control=64 value=87 time=22
control_change channel=0 control=64 value=91 time=16
control_change channel=0 control=64 value=94 time=15
control_change channel=0 control=64 value=98 time=16
control_change channel=0 control=64 value=101 time=15
control_change channel=0 control=64 value=105 time=14
control_change channel=0 control=64 value=111 time=16
control_change channel=0 control=64 value=116 time=15
control_change channel=0 control=64 value=122 time=15
control_change channel=0 control=64 value=127 time=16
note_on channel=0 note=71 velocity=52 time=39
note_on channel=0 note=68 velocity=48 time=8
note_on channel=0 note=90 velocity=0 time=15
note_on channel=0 note=71 velocity=0 time=18
note_on channel=0 note=68 velocity=0 time=1
note_on channel=0 note=89 velocity=81 time=81
note_on channel=0 note=77 velocity=54 time=10
note_on channel=0 note=68 velocity=53 time=14
note_on channel=0 note=71 velocity=50 time=13
note_on channel=0 note=77 velocity=0 time=0
note_on channel=0 note=68 velocity=0 time=21
note_on channel=0 note=71 velocity=0 time=1
note_on channel=0 note=89 velocity=0 time=2
note_on channel=0 note=89 velocity=86 time=58
note_on channel=0 note=77 velocity=65 time=10
note_on channel=0 note=71 velocity=66 time=1
note_on channel=0 note=68 velocity=68 time=3
note_on channel=0 note=71 velocity=0 time=27
note_on channel=0 note=68 velocity=0 time=8
note_on channel=0 note=71 velocity=77 time=67
note_on channel=0 note=68 velocity=81 time=3
note_on channel=0 note=77 velocity=0 time=17
note_on channel=0 note=89 velocity=0 time=2
note_on channel=0 note=71 velocity=0 time=16
note_on channel=0 note=68 velocity=0 time=17
note_on channel=0 note=86 velocity=96 time=61
note_on channel=0 note=68 velocity=66 time=1
note_on channel=0 note=74 velocity=84 time=4
note_on channel=0 note=71 velocity=61 time=7
note_on channel=0 note=74 velocity=0 time=13
note_on channel=0 note=71 velocity=0 time=6
note_on channel=0 note=68 velocity=0 time=13
note_on channel=0 note=86 velocity=0 time=64
note_on channel=0 note=85 velocity=96 time=15
note_on channel=0 note=71 velocity=63 time=2
note_on channel=0 note=73 velocity=98 time=2
note_on channel=0 note=68 velocity=70 time=14
note_on channel=0 note=71 velocity=0 time=6
note_on channel=0 note=68 velocity=0 time=17
control_change channel=0 control=64 value=104 time=14
control_change channel=0 control=64 value=100 time=15
control_change channel=0 control=64 value=102 time=31
control_change channel=0 control=64 value=108 time=16
control_change channel=0 control=64 value=120 time=15
control_change channel=0 control=64 value=127 time=14
note_on channel=0 note=85 velocity=0 time=27
note_on channel=0 note=73 velocity=0 time=22
note_on channel=0 note=83 velocity=84 time=81
note_on channel=0 note=71 velocity=74 time=9
note_on channel=0 note=83 velocity=0 time=30
note_on channel=0 note=71 velocity=0 time=18
note_on channel=0 note=54 velocity=65 time=72
control_change channel=0 control=64 value=115 time=1
note_on channel=0 note=42 velocity=50 time=8
note_on channel=0 note=69 velocity=61 time=6
control_change channel=0 control=64 value=108 time=1
note_on channel=0 note=81 velocity=58 time=1
note_on channel=0 note=73 velocity=60 time=5
note_on channel=0 note=83 velocity=55 time=5
note_on channel=0 note=78 velocity=50 time=3
control_change channel=0 control=64 value=99 time=2
note_on channel=0 note=54 velocity=0 time=4
control_change channel=0 control=64 value=89 time=10
note_on channel=0 note=42 velocity=0 time=0
note_on channel=0 note=73 velocity=0 time=0
note_on channel=0 note=83 velocity=0 time=0
note_on channel=0 note=69 velocity=0 time=2
note_on channel=0 note=78 velocity=0 time=6
note_on channel=0 note=81 velocity=0 time=2
control_change channel=0 control=64 value=79 time=5
control_change channel=0 control=64 value=70 time=16
control_change channel=0 control=64 value=64 time=14
control_change channel=0 control=64 value=65 time=31
note_on channel=0 note=57 velocity=67 time=2
note_on channel=0 note=45 velocity=66 time=2
note_on channel=0 note=69 velocity=60 time=4
note_on channel=0 note=78 velocity=63 time=3
note_on channel=0 note=73 velocity=62 time=2
control_change channel=0 control=64 value=66 time=2
note_on channel=0 note=81 velocity=73 time=0
control_change channel=0 control=64 value=68 time=16
note_on channel=0 note=57 velocity=0 time=5
note_on channel=0 note=69 velocity=0 time=2
note_on channel=0 note=45 velocity=0 time=1
note_on channel=0 note=78 velocity=0 time=3
note_on channel=0 note=73 velocity=0 time=2
note_on channel=0 note=81 velocity=0 time=0
control_change channel=0 control=64 value=70 time=1
control_change channel=0 control=64 value=72 time=15
control_change channel=0 control=64 value=74 time=16
control_change channel=0 control=64 value=74 time=14
control_change channel=0 control=64 value=73 time=16
note_on channel=0 note=48 velocity=79 time=12
note_on channel=0 note=69 velocity=73 time=0
control_change channel=0 control=64 value=69 time=3
note_on channel=0 note=60 velocity=76 time=0
note_on channel=0 note=73 velocity=72 time=0
note_on channel=0 note=81 velocity=75 time=3
control_change channel=0 control=64 value=58 time=12
note_on channel=0 note=78 velocity=61 time=2
note_on channel=0 note=69 velocity=0 time=10
control_change channel=0 control=64 value=0 time=4
note_on channel=0 note=60 velocity=0 time=0
note_on channel=0 note=73 velocity=0 time=0
note_on channel=0 note=48 velocity=0 time=6
note_on channel=0 note=78 velocity=0 time=6
note_on channel=0 note=81 velocity=0 time=0
control_change channel=0 control=64 value=19 time=2
control_change channel=0 control=64 value=56 time=15
control_change channel=0 control=64 value=65 time=16
control_change channel=0 control=64 value=68 time=15
control_change channel=0 control=64 value=69 time=23
note_on channel=0 note=61 velocity=81 time=0
note_on channel=0 note=81 velocity=72 time=2
note_on channel=0 note=49 velocity=79 time=1
note_on channel=0 note=69 velocity=79 time=3
note_on channel=0 note=78 velocity=73 time=0
note_on channel=0 note=73 velocity=78 time=6
control_change channel=0 control=64 value=67 time=3
note_on channel=0 note=61 velocity=0 time=8
control_change channel=0 control=64 value=60 time=7
note_on channel=0 note=49 velocity=0 time=1
note_on channel=0 note=69 velocity=0 time=1
note_on channel=0 note=73 velocity=0 time=4
control_change channel=0 control=64 value=49 time=9
note_on channel=0 note=81 velocity=0 time=2
note_on channel=0 note=78 velocity=0 time=3
control_change channel=0 control=64 value=57 time=10
control_change channel=0 control=64 value=63 time=16
control_change channel=0 control=64 value=67 time=15
control_change channel=0 control=64 value=68 time=15
note_on channel=0 note=42 velocity=81 time=9
note_on channel=0 note=54 velocity=90 time=0
note_on channel=0 note=69 velocity=87 time=0
note_on channel=0 note=81 velocity=72 time=4
control_change channel=0 control=64 value=65 time=3
note_on channel=0 note=73 velocity=81 time=0
note_on channel=0 note=78 velocity=68 time=3
control_change channel=0 control=64 value=53 time=12
note_on channel=0 note=69 velocity=0 time=9
note_on channel=0 note=73 velocity=0 time=2
control_change channel=0 control=64 value=14 time=4
note_on channel=0 note=78 velocity=0 time=4
note_on channel=0 note=54 velocity=0 time=3
note_on channel=0 note=81 velocity=0 time=0
control_change channel=0 control=64 value=52 time=8
note_on channel=0 note=42 velocity=0 time=0
control_change channel=0 control=64 value=64 time=15
control_change channel=0 control=64 value=68 time=13
control_change channel=0 control=64 value=65 time=16
note_on channel=0 note=57 velocity=90 time=14
note_on channel=0 note=69 velocity=93 time=0
control_change channel=0 control=64 value=61 time=1
note_on channel=0 note=81 velocity=79 time=3
note_on channel=0 note=45 velocity=84 time=1
note_on channel=0 note=73 velocity=85 time=5
note_on channel=0 note=78 velocity=73 time=5
control_change channel=0 control=64 value=55 time=2
control_change channel=0 control=64 value=63 time=15
note_on channel=0 note=73 velocity=0 time=3
note_on channel=0 note=69 velocity=0 time=1
note_on channel=0 note=57 velocity=0 time=3
note_on channel=0 note=78 velocity=0 time=0
note_on channel=0 note=45 velocity=0 time=5
note_on channel=0 note=81 velocity=0 time=0
control_change channel=0 control=64 value=66 time=3
control_change channel=0 control=64 value=67 time=16
control_change channel=0 control=64 value=65 time=15
control_change channel=0 control=64 value=55 time=16
control_change channel=0 control=64 value=11 time=14
note_on channel=0 note=69 velocity=94 time=5
note_on channel=0 note=60 velocity=93 time=2
note_on channel=0 note=81 velocity=80 time=4
note_on channel=0 note=48 velocity=80 time=1
control_change channel=0 control=64 value=35 time=3
note_on channel=0 note=73 velocity=87 time=0
note_on channel=0 note=78 velocity=76 time=5
note_on channel=0 note=47 velocity=58 time=6
control_change channel=0 control=64 value=55 time=5
note_on channel=0 note=73 velocity=0 time=11
control_change channel=0 control=64 value=57 time=3
note_on channel=0 note=78 velocity=0 time=1
note_on channel=0 note=69 velocity=0 time=1
note_on channel=0 note=48 velocity=0 time=2
note_on channel=0 note=60 velocity=0 time=0
note_on channel=0 note=47 velocity=0 time=2
note_on channel=0 note=81 velocity=0 time=4
control_change channel=0 control=64 value=53 time=5
control_change channel=0 control=64 value=29 time=16
control_change channel=0 control=64 value=0 time=15
note_on channel=0 note=69 velocity=94 time=30
note_on channel=0 note=61 velocity=89 time=2
note_on channel=0 note=81 velocity=81 time=3
note_on channel=0 note=49 velocity=83 time=3
note_on channel=0 note=73 velocity=85 time=2
note_on channel=0 note=78 velocity=77 time=4
note_on channel=0 note=61 velocity=0 time=9
note_on channel=0 note=49 velocity=0 time=11
note_on channel=0 note=69 velocity=0 time=6
note_on channel=0 note=73 velocity=0 time=3
note_on channel=0 note=78 velocity=0 time=5
note_on channel=0 note=81 velocity=0 time=2
note_on channel=0 note=42 velocity=86 time=69
note_on channel=0 note=54 velocity=93 time=2
note_on channel=0 note=69 velocity=96 time=0
note_on channel=0 note=81 velocity=86 time=4
note_on channel=0 note=73 velocity=81 time=7
note_on channel=0 note=78 velocity=75 time=1
control_change channel=0 control=64 value=14 time=19
note_on channel=0 note=73 velocity=0 time=10
note_on channel=0 note=69 velocity=0 time=4
control_change channel=0 control=64 value=28 time=2
note_on channel=0 note=54 velocity=0 time=0
note_on channel=0 note=78 velocity=0 time=5
note_on channel=0 note=42 velocity=0 time=4
note_on channel=0 note=81 velocity=0 time=2
control_change channel=0 control=64 value=31 time=5
control_change channel=0 control=64 value=32 time=14
control_change channel=0 control=64 value=31 time=31
control_change channel=0 control=64 value=30 time=14
note_on channel=0 note=69 velocity=100 time=3
note_on channel=0 note=81 velocity=88 time=1
note_on channel=0 note=57 velocity=86 time=2
note_on channel=0 note=45 velocity=82 time=3
note_on channel=0 note=73 velocity=84 time=3
control_change channel=0 control=64 value=29 time=3
note_on channel=0 note=78 velocity=78 time=6
control_change channel=0 control=64 value=21 time=10
note_on channel=0 note=57 velocity=0 time=13
control_change channel=0 control=64 value=0 time=2
note_on channel=0 note=69 velocity=0 time=1
note_on channel=0 note=45 velocity=0 time=4
note_on channel=0 note=78 velocity=0 time=10
note_on channel=0 note=81 velocity=0 time=8
note_on channel=0 note=73 velocity=0 time=2
note_on channel=0 note=60 velocity=88 time=78
note_on channel=0 note=72 velocity=97 time=1
note_on channel=0 note=84 velocity=98 time=0
note_on channel=0 note=48 velocity=84 time=1
note_on channel=0 note=72 velocity=0 time=29
note_on channel=0 note=48 velocity=0 time=5
note_on channel=0 note=60 velocity=0 time=5
note_on channel=0 note=84 velocity=0 time=9
note_on channel=0 note=61 velocity=104 time=106
note_on channel=0 note=49 velocity=81 time=4
note_on channel=0 note=73 velocity=99 time=0
note_on channel=0 note=85 velocity=106 time=0
control_change channel=0 control=64 value=63 time=3
control_change channel=0 control=64 value=74 time=15
note_on channel=0 note=49 velocity=0 time=4
note_on channel=0 note=61 velocity=0 time=0
note_on channel=0 note=73 velocity=0 time=2
control_change channel=0 control=64 value=86 time=11
note_on channel=0 note=85 velocity=0 time=0
control_change channel=0 control=64 value=102 time=15
control_change channel=0 control=64 value=127 time=15
note_on channel=0 note=97 velocity=103 time=274
note_on channel=0 note=73 velocity=100 time=2
note_on channel=0 note=85 velocity=103 time=0
note_on channel=0 note=61 velocity=92 time=2
control_change channel=0 control=64 value=84 time=41
control_change channel=0 control=64 value=52 time=16
control_change channel=0 control=64 value=0 time=14
control_change channel=0 control=64 value=52 time=115
control_change channel=0 control=64 value=62 time=14
control_change channel=0 control=64 value=65 time=16
control_change channel=0 control=64 value=69 time=15
control_change channel=0 control=64 value=71 time=15
control_change channel=0 control=64 value=74 time=16
control_change channel=0 control=64 value=77 time=14
control_change channel=0 control=64 value=80 time=16
control_change channel=0 control=64 value=83 time=15
control_change channel=0 control=64 value=87 time=15
control_change channel=0 control=64 value=92 time=15
control_change channel=0 control=64 value=97 time=15
control_change channel=0 control=64 value=102 time=16
control_change channel=0 control=64 value=107 time=15
control_change channel=0 control=64 value=114 time=15
control_change channel=0 control=64 value=127 time=15
note_on channel=0 note=73 velocity=0 time=81
note_on channel=0 note=85 velocity=0 time=111
note_on channel=0 note=61 velocity=0 time=29
note_on channel=0 note=97 velocity=0 time=223
note_on channel=0 note=85 velocity=93 time=90
note_on channel=0 note=97 velocity=103 time=3
note_on channel=0 note=85 velocity=0 time=129
note_on channel=0 note=97 velocity=0 time=10
control_change channel=0 control=64 value=99 time=49
note_on channel=0 note=97 velocity=98 time=4
note_on channel=0 note=44 velocity=88 time=1
note_on channel=0 note=32 velocity=75 time=3
note_on channel=0 note=85 velocity=92 time=5
control_change channel=0 control=64 value=74 time=2
control_change channel=0 control=64 value=57 time=16
control_change channel=0 control=64 value=63 time=14
note_on channel=0 note=44 velocity=0 time=8
note_on channel=0 note=32 velocity=0 time=1
control_change channel=0 control=64 value=67 time=6
control_change channel=0 control=64 value=72 time=16
control_change channel=0 control=64 value=78 time=15
control_change channel=0 control=64 value=86 time=16
control_change channel=0 control=64 value=94 time=14
control_change channel=0 control=64 value=100 time=15
control_change channel=0 control=64 value=104 time=16
control_change channel=0 control=64 value=110 time=15
control_change channel=0 control=64 value=118 time=16
note_on channel=0 note=85 velocity=0 time=8
control_change channel=0 control=64 value=127 time=8
note_on channel=0 note=72 velocity=75 time=144
note_on channel=0 note=63 velocity=65 time=3
note_on channel=0 note=66 velocity=67 time=0
note_on channel=0 note=63 velocity=0 time=32
note_on channel=0 note=66 velocity=0 time=1
note_on channel=0 note=72 velocity=0 time=5
note_on channel=0 note=97 velocity=0 time=14
note_on channel=0 note=96 velocity=95 time=68
note_on channel=0 note=84 velocity=93 time=1
note_on channel=0 note=63 velocity=61 time=6
note_on channel=0 note=66 velocity=64 time=3
note_on channel=0 note=72 velocity=71 time=0
note_on channel=0 note=72 velocity=0 time=27
note_on channel=0 note=66 velocity=0 time=2
note_on channel=0 note=63 velocity=0 time=1
note_on channel=0 note=84 velocity=0 time=0
note_on channel=0 note=96 velocity=0 time=15
note_on channel=0 note=72 velocity=67 time=73
note_on channel=0 note=96 velocity=94 time=4
note_on channel=0 note=63 velocity=63 time=1
note_on channel=0 note=66 velocity=66 time=0
note_on channel=0 note=84 velocity=91 time=2
note_on channel=0 note=95 velocity=63 time=18
note_on channel=0 note=95 velocity=0 time=1
note_on channel=0 note=72 velocity=0 time=1
note_on channel=0 note=66 velocity=0 time=7
note_on channel=0 note=63 velocity=0 time=2
note_on channel=0 note=72 velocity=77 time=78
note_on channel=0 note=63 velocity=69 time=2
note_on channel=0 note=66 velocity=70 time=7
note_on channel=0 note=84 velocity=0 time=16
note_on channel=0 note=96 velocity=0 time=7
note_on channel=0 note=66 velocity=0 time=1
note_on channel=0 note=63 velocity=0 time=2
note_on channel=0 note=72 velocity=0 time=0
note_on channel=0 note=93 velocity=100 time=86
note_on channel=0 note=63 velocity=58 time=7
note_on channel=0 note=81 velocity=75 time=0
note_on channel=0 note=66 velocity=60 time=3
note_on channel=0 note=72 velocity=58 time=2
note_on channel=0 note=81 velocity=0 time=14
note_on channel=0 note=72 velocity=0 time=5
note_on channel=0 note=66 velocity=0 time=4
note_on channel=0 note=63 velocity=0 time=5
note_on channel=0 note=72 velocity=69 time=77
note_on channel=0 note=92 velocity=94 time=5
note_on channel=0 note=63 velocity=61 time=3
note_on channel=0 note=80 velocity=86 time=5
note_on channel=0 note=93 velocity=0 time=3
note_on channel=0 note=66 velocity=63 time=1
control_change channel=0 control=64 value=113 time=16
note_on channel=0 note=72 velocity=0 time=10
control_change channel=0 control=64 value=107 time=6
note_on channel=0 note=66 velocity=0 time=3
control_change channel=0 control=64 value=108 time=12
control_change channel=0 control=64 value=111 time=16
note_on channel=0 note=63 velocity=0 time=0
control_change channel=0 control=64 value=127 time=15
note_on channel=0 note=80 velocity=0 time=78
note_on channel=0 note=92 velocity=0 time=12
note_on channel=0 note=90 velocity=81 time=96
note_on channel=0 note=78 velocity=74 time=2
note_on channel=0 note=78 velocity=0 time=25
note_on channel=0 note=90 velocity=0 time=28
control_change channel=0 control=64 value=114 time=86
note_on channel=0 note=49 velocity=63 time=0
note_on channel=0 note=89 velocity=78 time=1
note_on channel=0 note=77 velocity=69 time=5
note_on channel=0 note=37 velocity=50 time=3
control_change channel=0 control=64 value=97 time=7
note_on channel=0 note=85 velocity=53 time=8
note_on channel=0 note=49 velocity=0 time=3
note_on channel=0 note=80 velocity=46 time=1
control_change channel=0 control=64 value=86 time=2
note_on channel=0 note=37 velocity=0 time=10
control_change channel=0 control=64 value=79 time=5
note_on channel=0 note=77 velocity=0 time=1
note_on channel=0 note=85 velocity=0 time=0
note_on channel=0 note=80 velocity=0 time=6
note_on channel=0 note=89 velocity=0 time=8
control_change channel=0 control=64 value=77 time=1
control_change channel=0 control=64 value=78 time=46
control_change channel=0 control=64 value=79 time=15
note_on channel=0 note=41 velocity=72 time=3
note_on channel=0 note=89 velocity=72 time=0
note_on channel=0 note=53 velocity=76 time=1
note_on channel=0 note=80 velocity=62 time=5
note_on channel=0 note=77 velocity=73 time=1
note_on channel=0 note=85 velocity=64 time=1
control_change channel=0 control=64 value=80 time=5
note_on channel=0 note=53 velocity=0 time=15
note_on channel=0 note=41 velocity=0 time=6
note_on channel=0 note=77 velocity=0 time=2
note_on channel=0 note=80 velocity=0 time=1
note_on channel=0 note=85 velocity=0 time=4
control_change channel=0 control=64 value=78 time=1
note_on channel=0 note=89 velocity=0 time=9
control_change channel=0 control=64 value=73 time=7
control_change channel=0 control=64 value=66 time=15
control_change channel=0 control=64 value=60 time=15
control_change channel=0 control=64 value=63 time=16
note_on channel=0 note=55 velocity=80 time=12
note_on channel=0 note=89 velocity=79 time=1
control_change channel=0 control=64 value=66 time=1
note_on channel=0 note=43 velocity=72 time=3
note_on channel=0 note=77 velocity=78 time=4
control_change channel=0 control=64 value=70 time=9
note_on channel=0 note=85 velocity=64 time=6
note_on channel=0 note=80 velocity=61 time=1
control_change channel=0 control=64 value=73 time=8
note_on channel=0 note=55 velocity=0 time=1
note_on channel=0 note=43 velocity=0 time=9
note_on channel=0 note=80 velocity=0 time=0
note_on channel=0 note=77 velocity=0 time=3
control_change channel=0 control=64 value=74 time=1
note_on channel=0 note=85 velocity=0 time=4
note_on channel=0 note=89 velocity=0 time=7
control_change channel=0 control=64 value=71 time=5
control_change channel=0 control=64 value=66 time=15
control_change channel=0 control=64 value=55 time=16
control_change channel=0 control=64 value=59 time=15
note_on channel=0 note=56 velocity=87 time=5
note_on channel=0 note=89 velocity=79 time=5
control_change channel=0 control=64 value=64 time=4
note_on channel=0 note=77 velocity=82 time=3
note_on channel=0 note=44 velocity=71 time=2
note_on channel=0 note=80 velocity=65 time=2
note_on channel=0 note=85 velocity=70 time=1
control_change channel=0 control=64 value=67 time=8
note_on channel=0 note=56 velocity=0 time=2
control_change channel=0 control=64 value=69 time=13
note_on channel=0 note=44 velocity=0 time=2
note_on channel=0 note=80 velocity=0 time=3
note_on channel=0 note=85 velocity=0 time=4
note_on channel=0 note=77 velocity=0 time=6
note_on channel=0 note=89 velocity=0 time=5
control_change channel=0 control=64 value=66 time=11
control_change channel=0 control=64 value=57 time=14
control_change channel=0 control=64 value=47 time=17
control_change channel=0 control=64 value=61 time=15
note_on channel=0 note=37 velocity=81 time=8
note_on channel=0 note=49 velocity=88 time=0
note_on channel=0 note=89 velocity=83 time=1
note_on channel=0 note=77 velocity=78 time=5
control_change channel=0 control=64 value=66 time=1
note_on channel=0 note=85 velocity=70 time=11
control_change channel=0 control=64 value=68 time=5
note_on channel=0 note=80 velocity=65 time=0
control_change channel=0 control=64 value=68 time=15
note_on channel=0 note=85 velocity=0 time=4
note_on channel=0 note=80 velocity=0 time=2
note_on channel=0 note=49 velocity=0 time=1
note_on channel=0 note=37 velocity=0 time=3
note_on channel=0 note=77 velocity=0 time=1
control_change channel=0 control=64 value=66 time=3
note_on channel=0 note=89 velocity=0 time=1
control_change channel=0 control=64 value=63 time=15
control_change channel=0 control=64 value=64 time=15
control_change channel=0 control=64 value=65 time=16
control_change channel=0 control=64 value=64 time=14
note_on channel=0 note=89 velocity=88 time=1
note_on channel=0 note=77 velocity=83 time=2
note_on channel=0 note=41 velocity=88 time=3
note_on channel=0 note=53 velocity=84 time=1
note_on channel=0 note=80 velocity=74 time=0
note_on channel=0 note=85 velocity=77 time=5
control_change channel=0 control=64 value=62 time=3
control_change channel=0 control=64 value=62 time=16
note_on channel=0 note=53 velocity=0 time=8
note_on channel=0 note=85 velocity=0 time=3
note_on channel=0 note=80 velocity=0 time=1
control_change channel=0 control=64 value=65 time=3
note_on channel=0 note=77 velocity=0 time=0
note_on channel=0 note=89 velocity=0 time=4
note_on channel=0 note=41 velocity=0 time=3
control_change channel=0 control=64 value=68 time=9
control_change channel=0 control=64 value=64 time=29
control_change channel=0 control=64 value=47 time=16
note_on channel=0 note=77 velocity=92 time=12
note_on channel=0 note=89 velocity=93 time=0
control_change channel=0 control=64 value=0 time=3
note_on channel=0 note=55 velocity=87 time=0
note_on channel=0 note=43 velocity=86 time=2
note_on channel=0 note=80 velocity=76 time=5
note_on channel=0 note=85 velocity=82 time=2
control_change channel=0 control=64 value=56 time=29
note_on channel=0 note=80 velocity=0 time=2
note_on channel=0 note=55 velocity=0 time=4
note_on channel=0 note=85 velocity=0 time=1
note_on channel=0 note=77 velocity=0 time=1
note_on channel=0 note=43 velocity=0 time=3
note_on channel=0 note=89 velocity=0 time=3
control_change channel=0 control=64 value=65 time=1
control_change channel=0 control=64 value=69 time=16
control_change channel=0 control=64 value=68 time=14
control_change channel=0 control=64 value=52 time=15
control_change channel=0 control=64 value=0 time=16
note_on channel=0 note=56 velocity=95 time=11
note_on channel=0 note=77 velocity=99 time=0
note_on channel=0 note=89 velocity=99 time=0
note_on channel=0 note=44 velocity=81 time=6
note_on channel=0 note=80 velocity=84 time=0
note_on channel=0 note=85 velocity=80 time=4
note_on channel=0 note=56 velocity=0 time=18
note_on channel=0 note=44 velocity=0 time=9
note_on channel=0 note=77 velocity=0 time=6
note_on channel=0 note=80 velocity=0 time=0
note_on channel=0 note=85 velocity=0 time=3
note_on channel=0 note=89 velocity=0 time=3
control_change channel=0 control=64 value=54 time=16
control_change channel=0 control=64 value=65 time=15
control_change channel=0 control=64 value=42 time=31
control_change channel=0 control=64 value=0 time=15
note_on channel=0 note=77 velocity=98 time=0
note_on channel=0 note=89 velocity=100 time=0
note_on channel=0 note=37 velocity=84 time=3
note_on channel=0 note=49 velocity=97 time=0
note_on channel=0 note=80 velocity=81 time=6
note_on channel=0 note=85 velocity=81 time=1
note_on channel=0 note=80 velocity=0 time=36
note_on channel=0 note=49 velocity=0 time=1
note_on channel=0 note=77 velocity=0 time=0
note_on channel=0 note=89 velocity=0 time=5
note_on channel=0 note=37 velocity=0 time=3
note_on channel=0 note=85 velocity=0 time=0
control_change channel=0 control=64 value=59 time=21
control_change channel=0 control=64 value=65 time=16
control_change channel=0 control=64 value=64 time=15
control_change channel=0 control=64 value=36 time=14
note_on channel=0 note=77 velocity=101 time=11
note_on channel=0 note=53 velocity=88 time=3
note_on channel=0 note=89 velocity=98 time=0
control_change channel=0 control=64 value=0 time=2
note_on channel=0 note=41 velocity=85 time=1
note_on channel=0 note=80 velocity=89 time=3
note_on channel=0 note=85 velocity=81 time=2
note_on channel=0 note=53 velocity=0 time=22
note_on channel=0 note=77 velocity=0 time=2
note_on channel=0 note=52 velocity=40 time=4
note_on channel=0 note=52 velocity=0 time=1
note_on channel=0 note=41 velocity=0 time=1
note_on channel=0 note=85 velocity=0 time=8
note_on channel=0 note=89 velocity=0 time=6
note_on channel=0 note=80 velocity=0 time=2
note_on channel=0 note=55 velocity=91 time=77
note_on channel=0 note=43 velocity=86 time=6
note_on channel=0 note=79 velocity=101 time=4
note_on channel=0 note=91 velocity=105 time=0
note_on channel=0 note=55 velocity=0 time=24
note_on channel=0 note=43 velocity=0 time=2
note_on channel=0 note=79 velocity=0 time=7
note_on channel=0 note=91 velocity=0 time=23
control_change channel=0 control=64 value=31 time=94
note_on channel=0 note=56 velocity=102 time=5
note_on channel=0 note=44 velocity=82 time=3
note_on channel=0 note=92 velocity=98 time=2
note_on channel=0 note=80 velocity=93 time=1
control_change channel=0 control=64 value=65 time=4
note_on channel=0 note=94 velocity=77 time=6
note_on channel=0 note=80 velocity=0 time=6
control_change channel=0 control=64 value=78 time=4
note_on channel=0 note=44 velocity=0 time=5
note_on channel=0 note=94 velocity=0 time=0
note_on channel=0 note=82 velocity=46 time=3
note_on channel=0 note=93 velocity=51 time=5
control_change channel=0 control=64 value=92 time=1
note_on channel=0 note=93 velocity=0 time=0
note_on channel=0 note=56 velocity=0 time=1
note_on channel=0 note=92 velocity=0 time=11
control_change channel=0 control=64 value=117 time=3
note_on channel=0 note=82 velocity=0 time=7
control_change channel=0 control=64 value=127 time=9
note_on channel=0 note=100 velocity=102 time=299
note_on channel=0 note=64 velocity=92 time=2
note_on channel=0 note=52 velocity=86 time=1
note_on channel=0 note=88 velocity=98 time=0
control_change channel=0 control=64 value=115 time=9
control_change channel=0 control=64 value=84 time=15
control_change channel=0 control=64 value=14 time=15
control_change channel=0 control=64 value=0 time=16
control_change channel=0 control=64 value=27 time=411
control_change channel=0 control=64 value=44 time=15
control_change channel=0 control=64 value=54 time=16
control_change channel=0 control=64 value=61 time=22
control_change channel=0 control=64 value=63 time=16
control_change channel=0 control=64 value=64 time=15
control_change channel=0 control=64 value=65 time=16
control_change channel=0 control=64 value=67 time=15
control_change channel=0 control=64 value=69 time=14
control_change channel=0 control=64 value=71 time=16
control_change channel=0 control=64 value=72 time=15
control_change channel=0 control=64 value=74 time=14
control_change channel=0 control=64 value=76 time=16
control_change channel=0 control=64 value=78 time=15
control_change channel=0 control=64 value=80 time=16
control_change channel=0 control=64 value=83 time=15
control_change channel=0 control=64 value=85 time=14
control_change channel=0 control=64 value=88 time=16
control_change channel=0 control=64 value=90 time=15
control_change channel=0 control=64 value=93 time=14
control_change channel=0 control=64 value=96 time=16
control_change channel=0 control=64 value=99 time=15
control_change channel=0 control=64 value=103 time=16
control_change channel=0 control=64 value=108 time=15
control_change channel=0 control=64 value=116 time=14
control_change channel=0 control=64 value=127 time=16
note_on channel=0 note=100 velocity=0 time=48
note_on channel=0 note=64 velocity=0 time=32
note_on channel=0 note=88 velocity=0 time=125
note_on channel=0 note=52 velocity=0 time=187
control_change channel=0 control=67 value=8 time=194
control_change channel=0 control=67 value=11 time=16
control_change channel=0 control=67 value=14 time=15
note_on channel=0 note=88 velocity=88 time=10
control_change channel=0 control=67 value=17 time=5
control_change channel=0 control=67 value=19 time=15
note_on channel=0 note=76 velocity=61 time=7
control_change channel=0 control=67 value=21 time=8
control_change channel=0 control=67 value=23 time=16
control_change channel=0 control=67 value=25 time=15
control_change channel=0 control=67 value=27 time=14
control_change channel=0 control=67 value=30 time=16
control_change channel=0 control=67 value=33 time=15
control_change channel=0 control=67 value=36 time=15
control_change channel=0 control=67 value=39 time=15
control_change channel=0 control=67 value=40 time=15
control_change channel=0 control=67 value=42 time=16
control_change channel=0 control=67 value=44 time=15
note_on channel=0 note=76 velocity=0 time=4
control_change channel=0 control=67 value=47 time=10
note_on channel=0 note=88 velocity=0 time=10
control_change channel=0 control=67 value=50 time=6
control_change channel=0 control=67 value=53 time=15
control_change channel=0 control=67 value=54 time=16
control_change channel=0 control=67 value=56 time=15
control_change channel=0 control=67 value=60 time=15
control_change channel=0 control=67 value=64 time=15
control_change channel=0 control=64 value=126 time=15
control_change channel=0 control=67 value=69 time=0
note_on channel=0 note=88 velocity=73 time=11
control_change channel=0 control=64 value=90 time=4
control_change channel=0 control=67 value=74 time=0
note_on channel=0 note=76 velocity=51 time=7
control_change channel=0 control=64 value=72 time=9
control_change channel=0 control=67 value=80 time=0
note_on channel=0 note=33 velocity=39 time=3
note_on channel=0 note=81 velocity=45 time=0
note_on channel=0 note=45 velocity=38 time=5
control_change channel=0 control=64 value=44 time=7
control_change channel=0 control=67 value=85 time=0
control_change channel=0 control=64 value=0 time=16
control_change channel=0 control=67 value=90 time=0
control_change channel=0 control=64 value=29 time=15
control_change channel=0 control=67 value=95 time=0
control_change channel=0 control=64 value=42 time=15
control_change channel=0 control=67 value=100 time=0
control_change channel=0 control=64 value=53 time=15
control_change channel=0 control=67 value=102 time=0
control_change channel=0 control=64 value=62 time=15
control_change channel=0 control=67 value=105 time=0
note_on channel=0 note=33 velocity=0 time=8
control_change channel=0 control=64 value=67 time=8
control_change channel=0 control=67 value=106 time=0
note_on channel=0 note=45 velocity=0 time=3
control_change channel=0 control=64 value=72 time=12
control_change channel=0 control=64 value=76 time=15
control_change channel=0 control=64 value=81 time=16
control_change channel=0 control=64 value=84 time=15
control_change channel=0 control=64 value=88 time=15
control_change channel=0 control=64 value=91 time=16
control_change channel=0 control=64 value=94 time=15
control_change channel=0 control=64 value=97 time=22
control_change channel=0 control=64 value=99 time=15
control_change channel=0 control=64 value=101 time=16
control_change channel=0 control=64 value=103 time=15
control_change channel=0 control=64 value=104 time=15
control_change channel=0 control=64 value=106 time=15
control_change channel=0 control=64 value=107 time=15
control_change channel=0 control=64 value=108 time=15
control_change channel=0 control=64 value=109 time=16
control_change channel=0 control=64 value=109 time=15
control_change channel=0 control=67 value=105 time=16
note_on channel=0 note=64 velocity=46 time=9
control_change channel=0 control=64 value=110 time=6
control_change channel=0 control=67 value=105 time=0
control_change channel=0 control=64 value=113 time=15
note_on channel=0 note=57 velocity=21 time=0
note_on channel=0 note=61 velocity=20 time=2
note_on channel=0 note=64 velocity=0 time=4
control_change channel=0 control=64 value=115 time=9
control_change channel=0 control=64 value=116 time=15
control_change channel=0 control=67 value=104 time=0
note_on channel=0 note=57 velocity=0 time=11
control_change channel=0 control=67 value=103 time=4
note_on channel=0 note=61 velocity=0 time=4
control_change channel=0 control=64 value=117 time=12
control_change channel=0 control=67 value=103 time=0
note_on channel=0 note=76 velocity=0 time=33
control_change channel=0 control=67 value=102 time=12
note_on channel=0 note=64 velocity=44 time=0
control_change channel=0 control=67 value=101 time=15
note_on channel=0 note=64 velocity=0 time=11
control_change channel=0 control=67 value=101 time=5
note_on channel=0 note=88 velocity=0 time=31
control_change channel=0 control=67 value=100 time=14
control_change channel=0 control=67 value=100 time=15
control_change channel=0 control=67 value=99 time=15
note_on channel=0 note=64 velocity=61 time=10
note_on channel=0 note=61 velocity=40 time=1
control_change channel=0 control=67 value=98 time=4
note_on channel=0 note=57 velocity=33 time=7
note_on channel=0 note=64 velocity=0 time=20
control_change channel=0 control=67 value=97 time=4
note_on channel=0 note=61 velocity=0 time=0
note_on channel=0 note=57 velocity=0 time=11
control_change channel=0 control=67 value=97 time=34
control_change channel=0 control=67 value=96 time=15
note_on channel=0 note=64 velocity=66 time=13
control_change channel=0 control=67 value=95 time=3
note_on channel=0 note=61 velocity=61 time=8
control_change channel=0 control=67 value=94 time=7
note_on channel=0 note=64 velocity=0 time=11
note_on channel=0 note=61 velocity=0 time=6
control_change channel=0 control=67 value=94 time=13
note_on channel=0 note=57 velocity=5 time=1
control_change channel=0 control=67 value=93 time=14
control_change channel=0 control=67 value=91 time=16
control_change channel=0 control=67 value=89 time=15
note_on channel=0 note=81 velocity=0 time=14
control_change channel=0 control=64 value=117 time=1
control_change channel=0 control=67 value=88 time=0
note_on channel=0 note=61 velocity=70 time=0
note_on channel=0 note=85 velocity=86 time=2
note_on channel=0 note=64 velocity=52 time=12
control_change channel=0 control=67 value=86 time=2
note_on channel=0 note=73 velocity=69 time=0
control_change channel=0 control=67 value=85 time=15
note_on channel=0 note=61 velocity=0 time=0
note_on channel=0 note=73 velocity=0 time=11
note_on channel=0 note=64 velocity=0 time=1
note_on channel=0 note=85 velocity=0 time=2
control_change channel=0 control=67 value=85 time=1
control_change channel=0 control=67 value=84 time=15
note_on channel=0 note=57 velocity=0 time=5
control_change channel=0 control=64 value=118 time=10
control_change channel=0 control=67 value=84 time=0
control_change channel=0 control=64 value=117 time=16
control_change channel=0 control=67 value=83 time=0
control_change channel=0 control=64 value=117 time=15
control_change channel=0 control=67 value=82 time=0
note_on channel=0 note=83 velocity=86 time=9
control_change channel=0 control=64 value=110 time=6
note_on channel=0 note=64 velocity=64 time=0
note_on channel=0 note=61 velocity=60 time=2
note_on channel=0 note=71 velocity=72 time=4
control_change channel=0 control=64 value=101 time=18
control_change channel=0 control=67 value=82 time=0
note_on channel=0 note=57 velocity=27 time=7
note_on channel=0 note=64 velocity=0 time=3
control_change channel=0 control=64 value=93 time=4
control_change channel=0 control=67 value=81 time=0
note_on channel=0 note=61 velocity=0 time=5
control_change channel=0 control=64 value=91 time=11
control_change channel=0 control=64 value=92 time=15
control_change channel=0 control=67 value=81 time=0
note_on channel=0 note=57 velocity=0 time=0
control_change channel=0 control=64 value=94 time=15
control_change channel=0 control=67 value=80 time=0
control_change channel=0 control=64 value=100 time=15
control_change channel=0 control=67 value=80 time=0
control_change channel=0 control=64 value=109 time=15
control_change channel=0 control=67 value=79 time=0
note_on channel=0 note=61 velocity=68 time=12
control_change channel=0 control=64 value=127 time=4
control_change channel=0 control=67 value=78 time=0
note_on channel=0 note=64 velocity=60 time=2
note_on channel=0 note=71 velocity=0 time=1
note_on channel=0 note=57 velocity=44 time=8
control_change channel=0 control=67 value=76 time=4
note_on channel=0 note=83 velocity=0 time=2
note_on channel=0 note=64 velocity=0 time=4
note_on channel=0 note=61 velocity=0 time=2
control_change channel=0 control=67 value=73 time=6
note_on channel=0 note=57 velocity=0 time=12
control_change channel=0 control=67 value=70 time=4
control_change channel=0 control=67 value=67 time=15
control_change channel=0 control=67 value=64 time=16
control_change channel=0 control=67 value=62 time=15
control_change channel=0 control=67 value=61 time=15
note_on channel=0 note=64 velocity=52 time=0
note_on channel=0 note=69 velocity=78 time=3
note_on channel=0 note=81 velocity=85 time=0
note_on channel=0 note=61 velocity=62 time=3
control_change channel=0 control=67 value=61 time=9
note_on channel=0 note=57 velocity=36 time=12
note_on channel=0 note=64 velocity=0 time=0
control_change channel=0 control=67 value=60 time=3
note_on channel=0 note=61 velocity=0 time=5
note_on channel=0 note=69 velocity=0 time=2
control_change channel=0 control=67 value=59 time=8
note_on channel=0 note=81 velocity=0 time=3
note_on channel=0 note=57 velocity=0 time=11
control_change channel=0 control=64 value=106 time=2
control_change channel=0 control=67 value=59 time=0
control_change channel=0 control=64 value=86 time=15
control_change channel=0 control=64 value=67 time=16
control_change channel=0 control=64 value=0 time=15
control_change channel=0 control=67 value=58 time=0
note_on channel=0 note=81 velocity=77 time=9
note_on channel=0 note=65 velocity=65 time=8
note_on channel=0 note=62 velocity=51 time=4
note_on channel=0 note=59 velocity=45 time=6
control_change channel=0 control=64 value=24 time=3
control_change channel=0 control=67 value=58 time=0
note_on channel=0 note=74 velocity=56 time=4
note_on channel=0 note=69 velocity=52 time=6
note_on channel=0 note=77 velocity=54 time=1
control_change channel=0 control=64 value=49 time=4
note_on channel=0 note=59 velocity=0 time=10
note_on channel=0 note=62 velocity=0 time=2
control_change channel=0 control=64 value=59 time=3
control_change channel=0 control=64 value=63 time=16
control_change channel=0 control=64 value=65 time=14
control_change channel=0 control=67 value=57 time=0
control_change channel=0 control=64 value=68 time=16
control_change channel=0 control=67 value=57 time=0
control_change channel=0 control=64 value=71 time=15
control_change channel=0 control=67 value=56 time=0
note_on channel=0 note=59 velocity=56 time=8
note_on channel=0 note=62 velocity=64 time=5
control_change channel=0 control=64 value=72 time=2
control_change channel=0 control=67 value=54 time=0
control_change channel=0 control=64 value=74 time=16
control_change channel=0 control=67 value=53 time=0
note_on channel=0 note=59 velocity=0 time=11
note_on channel=0 note=62 velocity=0 time=2
control_change channel=0 control=64 value=76 time=1
control_change channel=0 control=67 value=53 time=0
control_change channel=0 control=64 value=77 time=15
control_change channel=0 control=64 value=79 time=16
control_change channel=0 control=64 value=82 time=15
control_change channel=0 control=67 value=52 time=0
control_change channel=0 control=64 value=84 time=15
note_on channel=0 note=69 velocity=0 time=12
note_on channel=0 note=62 velocity=64 time=1
control_change channel=0 control=64 value=85 time=2
control_change channel=0 control=67 value=52 time=0
note_on channel=0 note=59 velocity=58 time=0
control_change channel=0 control=64 value=86 time=15
control_change channel=0 control=64 value=87 time=16
note_on channel=0 note=59 velocity=0 time=1
note_on channel=0 note=62 velocity=0 time=1
control_change channel=0 control=64 value=87 time=12
control_change channel=0 control=64 value=88 time=16
control_change channel=0 control=67 value=53 time=15
note_on channel=0 note=81 velocity=0 time=9
control_change channel=0 control=67 value=53 time=6
control_change channel=0 control=67 value=54 time=16
note_on channel=0 note=59 velocity=47 time=12
control_change channel=0 control=64 value=84 time=3
control_change channel=0 control=67 value=54 time=0
note_on channel=0 note=62 velocity=47 time=12
control_change channel=0 control=64 value=76 time=3
control_change channel=0 control=67 value=55 time=0
note_on channel=0 note=80 velocity=58 time=11
control_change channel=0 control=64 value=64 time=4
control_change channel=0 control=67 value=56 time=0
note_on channel=0 note=59 velocity=0 time=4
note_on channel=0 note=62 velocity=0 time=0
note_on channel=0 note=68 velocity=43 time=1
control_change channel=0 control=64 value=0 time=10
control_change channel=0 control=64 value=44 time=16
note_on channel=0 note=74 velocity=0 time=14
control_change channel=0 control=64 value=55 time=8
control_change channel=0 control=64 value=60 time=17
note_on channel=0 note=77 velocity=0 time=14
control_change channel=0 control=64 value=64 time=1
note_on channel=0 note=62 velocity=53 time=11
note_on channel=0 note=59 velocity=50 time=3
control_change channel=0 control=64 value=67 time=1
control_change channel=0 control=67 value=57 time=0
control_change channel=0 control=64 value=70 time=16
control_change channel=0 control=64 value=74 time=14
control_change channel=0 control=67 value=57 time=0
note_on channel=0 note=59 velocity=0 time=5
note_on channel=0 note=62 velocity=0 time=1
control_change channel=0 control=64 value=76 time=9
control_change channel=0 control=64 value=78 time=16
control_change channel=0 control=67 value=58 time=0
note_on channel=0 note=68 velocity=0 time=0
control_change channel=0 control=64 value=80 time=15
control_change channel=0 control=67 value=59 time=0
control_change channel=0 control=64 value=83 time=16
control_change channel=0 control=64 value=84 time=14
control_change channel=0 control=67 value=60 time=0
control_change channel=0 control=64 value=85 time=15
control_change channel=0 control=67 value=60 time=0
note_on channel=0 note=59 velocity=39 time=15
control_change channel=0 control=67 value=61 time=1
note_on channel=0 note=62 velocity=39 time=5
control_change channel=0 control=67 value=61 time=10
note_on channel=0 note=59 velocity=0 time=11
control_change channel=0 control=67 value=62 time=4
note_on channel=0 note=62 velocity=0 time=3
control_change channel=0 control=67 value=62 time=12
control_change channel=0 control=64 value=85 time=15
control_change channel=0 control=64 value=82 time=16
control_change channel=0 control=64 value=77 time=14
note_on channel=0 note=80 velocity=0 time=11
control_change channel=0 control=64 value=72 time=4
control_change channel=0 control=64 value=71 time=16
note_on channel=0 note=59 velocity=27 time=9
control_change channel=0 control=64 value=72 time=6
note_on channel=0 note=62 velocity=33 time=0
control_change channel=0 control=64 value=74 time=16
note_on channel=0 note=57 velocity=26 time=6
control_change channel=0 control=64 value=75 time=9
control_change channel=0 control=64 value=77 time=15
control_change channel=0 control=64 value=81 time=16
control_change channel=0 control=64 value=84 time=15
control_change channel=0 control=67 value=62 time=0
control_change channel=0 control=64 value=87 time=15
note_on channel=0 note=65 velocity=0 time=4
control_change channel=0 control=64 value=89 time=11
control_change channel=0 control=67 value=61 time=0
control_change channel=0 control=64 value=90 time=15
control_change channel=0 control=67 value=61 time=0
control_change channel=0 control=64 value=93 time=16
control_change channel=0 control=67 value=60 time=0
control_change channel=0 control=64 value=97 time=14
control_change channel=0 control=67 value=60 time=0
note_on channel=0 note=62 velocity=0 time=4
control_change channel=0 control=64 value=100 time=11
control_change channel=0 control=64 value=104 time=16
control_change channel=0 control=67 value=59 time=0
note_on channel=0 note=59 velocity=0 time=1
control_change channel=0 control=64 value=109 time=14
control_change channel=0 control=67 value=58 time=0
control_change channel=0 control=64 value=117 time=15
control_change channel=0 control=67 value=57 time=0
note_on channel=0 note=57 velocity=0 time=9
control_change channel=0 control=64 value=127 time=7
control_change channel=0 control=67 value=57 time=0
control_change channel=0 control=67 value=56 time=14
control_change channel=0 control=67 value=56 time=16
note_on channel=0 note=83 velocity=83 time=28
note_on channel=0 note=71 velocity=67 time=12
note_on channel=0 note=71 velocity=0 time=53
control_change channel=0 control=64 value=102 time=58
note_on channel=0 note=83 velocity=0 time=3
control_change channel=0 control=64 value=74 time=13
control_change channel=0 control=64 value=27 time=22
note_on channel=0 note=33 velocity=57 time=1
note_on channel=0 note=45 velocity=49 time=11
note_on channel=0 note=88 velocity=79 time=17
control_change channel=0 control=64 value=60 time=2
note_on channel=0 note=81 velocity=53 time=2
note_on channel=0 note=33 velocity=0 time=2
control_change channel=0 control=64 value=65 time=11
note_on channel=0 note=76 velocity=42 time=11
note_on channel=0 note=45 velocity=0 time=1
control_change channel=0 control=64 value=69 time=4
control_change channel=0 control=64 value=75 time=16
control_change channel=0 control=64 value=81 time=15
control_change channel=0 control=64 value=86 time=15
control_change channel=0 control=67 value=55 time=0
control_change channel=0 control=64 value=89 time=15
control_change channel=0 control=64 value=90 time=16
control_change channel=0 control=67 value=55 time=0
control_change channel=0 control=64 value=92 time=14
control_change channel=0 control=64 value=94 time=16
control_change channel=0 control=64 value=97 time=15
control_change channel=0 control=64 value=99 time=15
note_on channel=0 note=64 velocity=54 time=6
note_on channel=0 note=61 velocity=55 time=3
note_on channel=0 note=57 velocity=38 time=5
control_change channel=0 control=64 value=101 time=2
note_on channel=0 note=64 velocity=0 time=13
control_change channel=0 control=64 value=103 time=1
note_on channel=0 note=61 velocity=0 time=4
note_on channel=0 note=76 velocity=0 time=4
control_change channel=0 control=64 value=103 time=7
note_on channel=0 note=57 velocity=0 time=2
control_change channel=0 control=64 value=104 time=29
note_on channel=0 note=64 velocity=61 time=32
note_on channel=0 note=61 velocity=62 time=6
note_on channel=0 note=57 velocity=41 time=18
note_on channel=0 note=64 velocity=0 time=4
note_on channel=0 note=61 velocity=0 time=7
note_on channel=0 note=57 velocity=0 time=21
note_on channel=0 note=88 velocity=0 time=17
control_change channel=0 control=64 value=104 time=1
control_change channel=0 control=67 value=55 time=15
note_on channel=0 note=61 velocity=67 time=25
note_on channel=0 note=64 velocity=61 time=2
note_on channel=0 note=64 velocity=0 time=28
note_on channel=0 note=61 velocity=0 time=1
control_change channel=0 control=64 value=105 time=5
control_change channel=0 control=64 value=106 time=15
control_change channel=0 control=64 value=108 time=16
control_change channel=0 control=64 value=109 time=15
control_change channel=0 control=64 value=110 time=15
note_on channel=0 note=64 velocity=67 time=10
note_on channel=0 note=57 velocity=6 time=2
note_on channel=0 note=61 velocity=72 time=1
control_change channel=0 control=64 value=110 time=17
control_change channel=0 control=67 value=55 time=0
note_on channel=0 note=64 velocity=0 time=5
note_on channel=0 note=61 velocity=0 time=9
control_change channel=0 control=64 value=111 time=1
note_on channel=0 note=57 velocity=0 time=8
control_change channel=0 control=64 value=111 time=8
control_change channel=0 control=67 value=54 time=0
control_change channel=0 control=64 value=112 time=15
control_change channel=0 control=64 value=112 time=16
control_change channel=0 control=64 value=113 time=14
note_on channel=0 note=85 velocity=91 time=6
note_on channel=0 note=81 velocity=0 time=3
control_change channel=0 control=64 value=117 time=6
note_on channel=0 note=73 velocity=76 time=3
note_on channel=0 note=61 velocity=61 time=6
note_on channel=0 note=57 velocity=57 time=1
note_on channel=0 note=64 velocity=59 time=4
control_change channel=0 control=64 value=123 time=2
note_on channel=0 note=73 velocity=0 time=11
control_change channel=0 control=64 value=127 time=4
note_on channel=0 note=85 velocity=0 time=4
note_on channel=0 note=64 velocity=0 time=2
note_on channel=0 note=57 velocity=0 time=3
note_on channel=0 note=61 velocity=0 time=1
note_on channel=0 note=83 velocity=93 time=65
note_on channel=0 note=64 velocity=63 time=13
note_on channel=0 note=71 velocity=81 time=0
note_on channel=0 note=57 velocity=57 time=3
control_change channel=0 control=64 value=126 time=8
note_on channel=0 note=61 velocity=66 time=0
control_change channel=0 control=64 value=104 time=15
note_on channel=0 note=64 velocity=0 time=10
note_on channel=0 note=57 velocity=0 time=2
note_on channel=0 note=61 velocity=0 time=0
control_change channel=0 control=64 value=89 time=3
control_change channel=0 control=64 value=84 time=16
control_change channel=0 control=64 value=84 time=15
control_change channel=0 control=64 value=87 time=14
control_change channel=0 control=64 value=93 time=16
control_change channel=0 control=64 value=101 time=15
note_on channel=0 note=57 velocity=62 time=2
note_on channel=0 note=61 velocity=72 time=2
note_on channel=0 note=71 velocity=0 time=1
note_on channel=0 note=64 velocity=68 time=1
control_change channel=0 control=64 value=113 time=11
note_on channel=0 note=83 velocity=0 time=6
control_change channel=0 control=64 value=127 time=9
note_on channel=0 note=64 velocity=0 time=5
note_on channel=0 note=57 velocity=0 time=2
note_on channel=0 note=61 velocity=0 time=6
control_change channel=0 control=67 value=55 time=17
control_change channel=0 control=67 value=55 time=46
note_on channel=0 note=81 velocity=98 time=6
note_on channel=0 note=69 velocity=88 time=2
note_on channel=0 note=64 velocity=71 time=4
note_on channel=0 note=61 velocity=58 time=9
note_on channel=0 note=57 velocity=37 time=22
control_change channel=0 control=67 value=56 time=2
note_on channel=0 note=64 velocity=0 time=4
note_on channel=0 note=61 velocity=0 time=1
note_on channel=0 note=69 velocity=0 time=2
note_on channel=0 note=81 velocity=0 time=0
control_change channel=0 control=67 value=56 time=24
note_on channel=0 note=57 velocity=0 time=7
control_change channel=0 control=67 value=58 time=7
control_change channel=0 control=64 value=114 time=16
control_change channel=0 control=67 value=58 time=0
control_change channel=0 control=64 value=85 time=15
control_change channel=0 control=67 value=59 time=0
note_on channel=0 note=81 velocity=93 time=8
control_change channel=0 control=64 value=64 time=6
control_change channel=0 control=67 value=59 time=0
note_on channel=0 note=65 velocity=75 time=0
note_on channel=0 note=62 velocity=60 time=4
note_on channel=0 note=69 velocity=59 time=9
note_on channel=0 note=77 velocity=64 time=0
note_on channel=0 note=74 velocity=57 time=2
control_change channel=0 control=64 value=0 time=1
control_change channel=0 control=67 value=60 time=0
note_on channel=0 note=59 velocity=47 time=3
control_change channel=0 control=67 value=61 time=12
control_change channel=0 control=67 value=62 time=15
note_on channel=0 note=59 velocity=0 time=0
note_on channel=0 note=62 velocity=0 time=0
control_change channel=0 control=64 value=54 time=30
control_change channel=0 control=64 value=65 time=16
control_change channel=0 control=67 value=63 time=0
control_change channel=0 control=64 value=70 time=15
control_change channel=0 control=67 value=64 time=0
control_change channel=0 control=64 value=73 time=15
note_on channel=0 note=59 velocity=61 time=1
note_on channel=0 note=62 velocity=64 time=1
control_change channel=0 control=64 value=76 time=14
control_change channel=0 control=64 value=79 time=14
control_change channel=0 control=67 value=64 time=0
note_on channel=0 note=59 velocity=0 time=6
note_on channel=0 note=62 velocity=0 time=7
control_change channel=0 control=64 value=83 time=2
control_change channel=0 control=64 value=88 time=16
control_change channel=0 control=67 value=65 time=0
control_change channel=0 control=64 value=92 time=15
control_change channel=0 control=64 value=94 time=16
control_change channel=0 control=67 value=66 time=0
note_on channel=0 note=69 velocity=0 time=11
control_change channel=0 control=64 value=96 time=4
control_change channel=0 control=67 value=68 time=0
control_change channel=0 control=64 value=97 time=15
control_change channel=0 control=67 value=70 time=0
note_on channel=0 note=62 velocity=56 time=8
note_on channel=0 note=59 velocity=54 time=7
control_change channel=0 control=67 value=70 time=1
control_change channel=0 control=67 value=71 time=14
note_on channel=0 note=59 velocity=0 time=10
note_on channel=0 note=62 velocity=0 time=0
control_change channel=0 control=67 value=72 time=6
note_on channel=0 note=81 velocity=0 time=12
control_change channel=0 control=67 value=74 time=3
control_change channel=0 control=67 value=76 time=15
control_change channel=0 control=64 value=96 time=16
control_change channel=0 control=67 value=78 time=0
control_change channel=0 control=64 value=91 time=14
control_change channel=0 control=67 value=81 time=0
control_change channel=0 control=64 value=81 time=15
control_change channel=0 control=67 value=83 time=0
note_on channel=0 note=59 velocity=46 time=7
control_change channel=0 control=64 value=66 time=9
control_change channel=0 control=67 value=85 time=0
note_on channel=0 note=74 velocity=0 time=3
note_on channel=0 note=62 velocity=47 time=1
note_on channel=0 note=80 velocity=60 time=2
note_on channel=0 note=68 velocity=39 time=3
control_change channel=0 control=64 value=0 time=6
note_on channel=0 note=59 velocity=0 time=23
note_on channel=0 note=62 velocity=0 time=6
control_change channel=0 control=64 value=40 time=9
control_change channel=0 control=64 value=56 time=16
control_change channel=0 control=64 value=63 time=14
control_change channel=0 control=67 value=84 time=0
note_on channel=0 note=77 velocity=0 time=3
control_change channel=0 control=64 value=67 time=12
control_change channel=0 control=64 value=70 time=16
control_change channel=0 control=67 value=84 time=0
control_change channel=0 control=64 value=73 time=17
note_on channel=0 note=59 velocity=49 time=0
note_on channel=0 note=62 velocity=54 time=9
control_change channel=0 control=64 value=76 time=7
control_change channel=0 control=67 value=83 time=0
note_on channel=0 note=68 velocity=0 time=12
control_change channel=0 control=64 value=78 time=3
note_on channel=0 note=59 velocity=0 time=4
note_on channel=0 note=62 velocity=0 time=8
control_change channel=0 control=64 value=80 time=3
control_change channel=0 control=64 value=82 time=15
control_change channel=0 control=64 value=84 time=15
control_change channel=0 control=67 value=82 time=0
control_change channel=0 control=64 value=86 time=17
control_change channel=0 control=67 value=82 time=0
control_change channel=0 control=64 value=86 time=14
control_change channel=0 control=67 value=81 time=0
note_on channel=0 note=59 velocity=52 time=18
note_on channel=0 note=62 velocity=48 time=4
control_change channel=0 control=64 value=87 time=9
control_change channel=0 control=64 value=87 time=15
note_on channel=0 note=59 velocity=0 time=0
note_on channel=0 note=62 velocity=0 time=3
control_change channel=0 control=64 value=88 time=12
control_change channel=0 control=67 value=81 time=0
control_change channel=0 control=67 value=81 time=16
note_on channel=0 note=80 velocity=0 time=9
control_change channel=0 control=64 value=87 time=21
control_change channel=0 control=64 value=84 time=15
control_change channel=0 control=64 value=79 time=15
control_change channel=0 control=64 value=71 time=16
control_change channel=0 control=64 value=65 time=15
note_on channel=0 note=59 velocity=31 time=1
note_on channel=0 note=62 velocity=45 time=6
control_change channel=0 control=64 value=67 time=7
note_on channel=0 note=57 velocity=31 time=3
control_change channel=0 control=64 value=70 time=13
control_change channel=0 control=67 value=81 time=0
control_change channel=0 control=64 value=74 time=15
control_change channel=0 control=67 value=80 time=0
control_change channel=0 control=64 value=76 time=15
control_change channel=0 control=67 value=80 time=0
control_change channel=0 control=64 value=80 time=15
control_change channel=0 control=67 value=79 time=0
note_on channel=0 note=65 velocity=0 time=14
control_change channel=0 control=64 value=84 time=1
control_change channel=0 control=67 value=78 time=0
control_change channel=0 control=64 value=88 time=16
control_change channel=0 control=67 value=78 time=0
control_change channel=0 control=64 value=92 time=15
control_change channel=0 control=67 value=77 time=0
control_change channel=0 control=64 value=95 time=15
control_change channel=0 control=67 value=76 time=0
note_on channel=0 note=62 velocity=0 time=11
control_change channel=0 control=64 value=96 time=4
control_change channel=0 control=67 value=75 time=0
note_on channel=0 note=57 velocity=0 time=5
control_change channel=0 control=64 value=99 time=10
control_change channel=0 control=67 value=74 time=0
note_on channel=0 note=59 velocity=0 time=12
control_change channel=0 control=64 value=103 time=4
control_change channel=0 control=67 value=74 time=0
control_change channel=0 control=64 value=110 time=15
control_change channel=0 control=67 value=73 time=0
control_change channel=0 control=64 value=118 time=14
control_change channel=0 control=67 value=73 time=0
control_change channel=0 control=64 value=127 time=16
control_change channel=0 control=67 value=71 time=0
control_change channel=0 control=67 value=68 time=15
control_change channel=0 control=67 value=65 time=16
control_change channel=0 control=67 value=62 time=15
control_change channel=0 control=67 value=61 time=15
control_change channel=0 control=67 value=58 time=16
note_on channel=0 note=83 velocity=85 time=12
control_change channel=0 control=67 value=54 time=2
note_on channel=0 note=71 velocity=63 time=9
control_change channel=0 control=67 value=50 time=6
control_change channel=0 control=67 value=49 time=16
control_change channel=0 control=67 value=48 time=15
control_change channel=0 control=67 value=46 time=16
control_change channel=0 control=67 value=45 time=22
note_on channel=0 note=71 velocity=0 time=3
control_change channel=0 control=67 value=45 time=12
control_change channel=0 control=67 value=44 time=15
control_change channel=0 control=67 value=42 time=15
control_change channel=0 control=67 value=41 time=16
control_change channel=0 control=67 value=41 time=14
note_on channel=0 note=83 velocity=0 time=21
control_change channel=0 control=64 value=114 time=25
note_on channel=0 note=33 velocity=54 time=11
control_change channel=0 control=64 value=91 time=5
note_on channel=0 note=45 velocity=45 time=0
control_change channel=0 control=64 value=69 time=15
note_on channel=0 note=88 velocity=82 time=8
control_change channel=0 control=64 value=0 time=7
note_on channel=0 note=81 velocity=47 time=7
note_on channel=0 note=76 velocity=41 time=18
control_change channel=0 control=64 value=14 time=5
control_change channel=0 control=64 value=52 time=15
control_change channel=0 control=64 value=62 time=17
control_change channel=0 control=64 value=67 time=14
note_on channel=0 note=33 velocity=0 time=15
control_change channel=0 control=64 value=73 time=1
control_change channel=0 control=64 value=79 time=15
control_change channel=0 control=64 value=85 time=15
note_on channel=0 note=45 velocity=0 time=12
control_change channel=0 control=64 value=91 time=4
control_change channel=0 control=64 value=94 time=15
control_change channel=0 control=64 value=97 time=16
control_change channel=0 control=64 value=100 time=15
control_change channel=0 control=64 value=103 time=15
control_change channel=0 control=64 value=107 time=15
control_change channel=0 control=64 value=110 time=15
control_change channel=0 control=64 value=112 time=15
control_change channel=0 control=64 value=112 time=16
control_change channel=0 control=64 value=113 time=15
control_change channel=0 control=64 value=115 time=15
control_change channel=0 control=64 value=116 time=15
control_change channel=0 control=64 value=118 time=15
control_change channel=0 control=64 value=118 time=15
control_change channel=0 control=64 value=119 time=15
control_change channel=0 control=64 value=122 time=15
control_change channel=0 control=64 value=124 time=16
note_on channel=0 note=64 velocity=36 time=12
note_on channel=0 note=61 velocity=36 time=1
control_change channel=0 control=64 value=127 time=2
note_on channel=0 note=57 velocity=14 time=17
note_on channel=0 note=76 velocity=0 time=12
note_on channel=0 note=64 velocity=0 time=3
note_on channel=0 note=61 velocity=0 time=1
note_on channel=0 note=57 velocity=0 time=27
note_on channel=0 note=61 velocity=40 time=74
note_on channel=0 note=64 velocity=25 time=15
note_on channel=0 note=61 velocity=0 time=20
note_on channel=0 note=88 velocity=0 time=0
note_on channel=0 note=64 velocity=0 time=26
note_on channel=0 note=57 velocity=19 time=54
note_on channel=0 note=61 velocity=56 time=12
note_on channel=0 note=61 velocity=0 time=35
note_on channel=0 note=57 velocity=0 time=8
note_on channel=0 note=64 velocity=32 time=82
note_on channel=0 note=61 velocity=49 time=9
note_on channel=0 note=57 velocity=40 time=21
note_on channel=0 note=64 velocity=0 time=4
note_on channel=0 note=61 velocity=0 time=2
note_on channel=0 note=57 velocity=0 time=25
note_on channel=0 note=81 velocity=0 time=28
note_on channel=0 note=85 velocity=88 time=7
note_on channel=0 note=73 velocity=73 time=9
note_on channel=0 note=64 velocity=47 time=18
control_change channel=0 control=67 value=41 time=1
note_on channel=0 note=61 velocity=39 time=5
note_on channel=0 note=64 velocity=0 time=24
note_on channel=0 note=61 velocity=0 time=7
note_on channel=0 note=73 velocity=0 time=0
note_on channel=0 note=85 velocity=0 time=0
control_change channel=0 control=67 value=42 time=40
control_change channel=0 control=64 value=109 time=15
control_change channel=0 control=64 value=84 time=16
note_on channel=0 note=83 velocity=84 time=6
control_change channel=0 control=64 value=69 time=8
note_on channel=0 note=49 velocity=66 time=6
control_change channel=0 control=64 value=66 time=9
note_on channel=0 note=71 velocity=57 time=1
note_on channel=0 note=76 velocity=40 time=14
control_change channel=0 control=64 value=70 time=1
control_change channel=0 control=64 value=74 time=15
control_change channel=0 control=64 value=77 time=16
control_change channel=0 control=64 value=82 time=14
control_change channel=0 control=64 value=90 time=15
note_on channel=0 note=49 velocity=0 time=1
control_change channel=0 control=64 value=96 time=15
control_change channel=0 control=64 value=100 time=15
control_change channel=0 control=67 value=41 time=0
note_on channel=0 note=57 velocity=61 time=10
note_on channel=0 note=64 velocity=66 time=0
control_change channel=0 control=64 value=105 time=5
note_on channel=0 note=71 velocity=0 time=0
note_on channel=0 note=83 velocity=0 time=11
control_change channel=0 control=64 value=114 time=4
note_on channel=0 note=64 velocity=0 time=11
control_change channel=0 control=64 value=127 time=4
control_change channel=0 control=67 value=41 time=0
note_on channel=0 note=57 velocity=0 time=6
note_on channel=0 note=81 velocity=90 time=79
note_on channel=0 note=57 velocity=52 time=9
note_on channel=0 note=64 velocity=56 time=0
note_on channel=0 note=69 velocity=70 time=2
note_on channel=0 note=76 velocity=0 time=13
note_on channel=0 note=64 velocity=0 time=6
note_on channel=0 note=57 velocity=0 time=9
note_on channel=0 note=69 velocity=0 time=1
control_change channel=0 control=67 value=41 time=81
control_change channel=0 control=64 value=91 time=31
control_change channel=0 control=64 value=69 time=16
note_on channel=0 note=81 velocity=0 time=6
note_on channel=0 note=80 velocity=78 time=4
control_change channel=0 control=64 value=0 time=4
note_on channel=0 note=47 velocity=54 time=4
note_on channel=0 note=68 velocity=66 time=3
note_on channel=0 note=76 velocity=39 time=16
control_change channel=0 control=64 value=50 time=8
control_change channel=0 control=64 value=64 time=15
note_on channel=0 note=47 velocity=0 time=5
control_change channel=0 control=64 value=68 time=9
control_change channel=0 control=64 value=73 time=16
control_change channel=0 control=64 value=77 time=15
control_change channel=0 control=64 value=82 time=16
control_change channel=0 control=64 value=85 time=15
control_change channel=0 control=64 value=89 time=14
control_change channel=0 control=64 value=92 time=16
control_change channel=0 control=64 value=96 time=15
note_on channel=0 note=64 velocity=55 time=11
control_change channel=0 control=64 value=99 time=4
note_on channel=0 note=56 velocity=56 time=2
note_on channel=0 note=59 velocity=52 time=0
control_change channel=0 control=64 value=102 time=14
note_on channel=0 note=64 velocity=0 time=7
note_on channel=0 note=80 velocity=0 time=3
note_on channel=0 note=68 velocity=0 time=1
control_change channel=0 control=64 value=105 time=3
note_on channel=0 note=56 velocity=0 time=7
note_on channel=0 note=59 velocity=0 time=4
control_change channel=0 control=64 value=108 time=6
control_change channel=0 control=64 value=112 time=15
control_change channel=0 control=64 value=112 time=15
control_change channel=0 control=64 value=113 time=16
note_on channel=0 note=81 velocity=86 time=13
control_change channel=0 control=64 value=117 time=1
note_on channel=0 note=69 velocity=72 time=7
note_on channel=0 note=56 velocity=62 time=7
note_on channel=0 note=64 velocity=59 time=0
control_change channel=0 control=64 value=127 time=1
control_change channel=0 control=67 value=41 time=0
note_on channel=0 note=59 velocity=57 time=9
note_on channel=0 note=69 velocity=0 time=11
note_on channel=0 note=56 velocity=0 time=13
note_on channel=0 note=64 velocity=0 time=0
note_on channel=0 note=59 velocity=0 time=5
note_on channel=0 note=81 velocity=0 time=9
note_on channel=0 note=83 velocity=93 time=62
note_on channel=0 note=64 velocity=67 time=6
note_on channel=0 note=56 velocity=63 time=4
control_change channel=0 control=64 value=109 time=4
control_change channel=0 control=67 value=40 time=0
note_on channel=0 note=71 velocity=72 time=1
note_on channel=0 note=59 velocity=58 time=2
control_change channel=0 control=64 value=96 time=11
note_on channel=0 note=76 velocity=0 time=6
note_on channel=0 note=64 velocity=0 time=4
control_change channel=0 control=64 value=91 time=5
control_change channel=0 control=67 value=40 time=0
note_on channel=0 note=56 velocity=0 time=2
note_on channel=0 note=59 velocity=0 time=3
control_change channel=0 control=64 value=92 time=26
control_change channel=0 control=64 value=96 time=15
control_change channel=0 control=64 value=100 time=16
control_change channel=0 control=67 value=39 time=0
control_change channel=0 control=64 value=106 time=14
control_change channel=0 control=67 value=39 time=0
note_on channel=0 note=64 velocity=67 time=11
control_change channel=0 control=64 value=110 time=5
control_change channel=0 control=67 value=38 time=0
note_on channel=0 note=56 velocity=60 time=6
control_change channel=0 control=64 value=113 time=9
control_change channel=0 control=67 value=35 time=0
note_on channel=0 note=59 velocity=56 time=2
note_on channel=0 note=64 velocity=0 time=8
control_change channel=0 control=64 value=117 time=5
control_change channel=0 control=67 value=32 time=0
note_on channel=0 note=56 velocity=0 time=4
note_on channel=0 note=59 velocity=0 time=10
control_change channel=0 control=64 value=120 time=2
control_change channel=0 control=67 value=30 time=0
note_on channel=0 note=83 velocity=0 time=2
control_change channel=0 control=64 value=124 time=13
control_change channel=0 control=67 value=28 time=0
control_change channel=0 control=64 value=127 time=15
control_change channel=0 control=67 value=26 time=0
control_change channel=0 control=67 value=24 time=15
note_on channel=0 note=71 velocity=0 time=13
control_change channel=0 control=67 value=23 time=2
note_on channel=0 note=64 velocity=70 time=13
note_on channel=0 note=56 velocity=68 time=1
note_on channel=0 note=59 velocity=63 time=0
control_change channel=0 control=67 value=22 time=9
control_change channel=0 control=67 value=21 time=15
control_change channel=0 control=67 value=19 time=15
note_on channel=0 note=64 velocity=0 time=6
control_change channel=0 control=67 value=18 time=9
control_change channel=0 control=67 value=17 time=15
note_on channel=0 note=56 velocity=0 time=2
control_change channel=0 control=67 value=17 time=14
note_on channel=0 note=59 velocity=0 time=0
control_change channel=0 control=64 value=124 time=15
control_change channel=0 control=67 value=16 time=0
control_change channel=0 control=64 value=103 time=15
note_on channel=0 note=78 velocity=87 time=4
note_on channel=0 note=66 velocity=73 time=9
control_change channel=0 control=64 value=84 time=3
note_on channel=0 note=59 velocity=35 time=7
note_on channel=0 note=57 velocity=59 time=6
note_on channel=0 note=63 velocity=67 time=1
control_change channel=0 control=64 value=68 time=1
note_on channel=0 note=75 velocity=55 time=0
control_change channel=0 control=64 value=62 time=15
control_change channel=0 control=64 value=67 time=15
control_change channel=0 control=67 value=16 time=0
note_on channel=0 note=63 velocity=0 time=11
control_change channel=0 control=64 value=72 time=4
control_change channel=0 control=67 value=15 time=0
note_on channel=0 note=57 velocity=0 time=7
note_on channel=0 note=59 velocity=0 time=1
control_change channel=0 control=64 value=76 time=8
control_change channel=0 control=67 value=13 time=0
control_change channel=0 control=64 value=80 time=15
control_change channel=0 control=67 value=11 time=0
control_change channel=0 control=64 value=85 time=14
control_change channel=0 control=67 value=8 time=0
control_change channel=0 control=64 value=92 time=16
control_change channel=0 control=67 value=0 time=0
note_on channel=0 note=66 velocity=0 time=4
note_on channel=0 note=63 velocity=79 time=9
control_change channel=0 control=64 value=97 time=2
note_on channel=0 note=59 velocity=59 time=0
note_on channel=0 note=57 velocity=52 time=11
control_change channel=0 control=64 value=101 time=5
control_change channel=0 control=64 value=104 time=15
note_on channel=0 note=63 velocity=0 time=10
control_change channel=0 control=64 value=109 time=4
note_on channel=0 note=57 velocity=0 time=2
control_change channel=0 control=64 value=116 time=14
note_on channel=0 note=59 velocity=0 time=2
control_change channel=0 control=64 value=127 time=13
note_on channel=0 note=75 velocity=0 time=50
note_on channel=0 note=78 velocity=0 time=0
note_on channel=0 note=80 velocity=87 time=7
note_on channel=0 note=63 velocity=77 time=6
note_on channel=0 note=68 velocity=86 time=2
note_on channel=0 note=57 velocity=45 time=24
note_on channel=0 note=63 velocity=0 time=4
note_on channel=0 note=80 velocity=0 time=11
note_on channel=0 note=78 velocity=7 time=2
note_on channel=0 note=68 velocity=0 time=12
note_on channel=0 note=57 velocity=0 time=3
note_on channel=0 note=78 velocity=0 time=34
control_change channel=0 control=64 value=113 time=74
note_on channel=0 note=65 velocity=64 time=7
note_on channel=0 note=68 velocity=60 time=5
control_change channel=0 control=64 value=87 time=3
note_on channel=0 note=59 velocity=62 time=8
note_on channel=0 note=74 velocity=65 time=7
control_change channel=0 control=64 value=66 time=1
note_on channel=0 note=47 velocity=56 time=12
control_change channel=0 control=64 value=0 time=2
note_on channel=0 note=77 velocity=82 time=0
note_on channel=0 note=68 velocity=0 time=7
note_on channel=0 note=65 velocity=0 time=23
note_on channel=0 note=74 velocity=0 time=6
control_change channel=0 control=64 value=43 time=9
control_change channel=0 control=64 value=59 time=16
control_change channel=0 control=64 value=64 time=15
control_change channel=0 control=64 value=67 time=15
control_change channel=0 control=64 value=70 time=16
control_change channel=0 control=64 value=73 time=14
control_change channel=0 control=64 value=75 time=15
note_on channel=0 note=65 velocity=63 time=18
control_change channel=0 control=64 value=79 time=5
note_on channel=0 note=74 velocity=61 time=12
control_change channel=0 control=64 value=83 time=3
note_on channel=0 note=68 velocity=55 time=0
note_on channel=0 note=65 velocity=0 time=13
control_change channel=0 control=64 value=85 time=3
note_on channel=0 note=68 velocity=0 time=5
control_change channel=0 control=64 value=87 time=9
note_on channel=0 note=74 velocity=0 time=2
control_change channel=0 control=64 value=90 time=13
control_change channel=0 control=64 value=92 time=16
control_change channel=0 control=64 value=94 time=15
control_change channel=0 control=64 value=95 time=16
control_change channel=0 control=64 value=96 time=15
note_on channel=0 note=65 velocity=63 time=2
note_on channel=0 note=68 velocity=58 time=2
control_change channel=0 control=64 value=97 time=11
note_on channel=0 note=74 velocity=62 time=5
note_on channel=0 note=65 velocity=0 time=4
control_change channel=0 control=64 value=98 time=7
note_on channel=0 note=68 velocity=0 time=4
control_change channel=0 control=64 value=100 time=11
control_change channel=0 control=67 value=8 time=0
note_on channel=0 note=74 velocity=0 time=1
control_change channel=0 control=64 value=100 time=14
control_change channel=0 control=67 value=11 time=0
control_change channel=0 control=67 value=13 time=15
control_change channel=0 control=67 value=15 time=15
note_on channel=0 note=59 velocity=0 time=0
control_change channel=0 control=67 value=20 time=15
note_on channel=0 note=65 velocity=59 time=10
control_change channel=0 control=67 value=27 time=5
note_on channel=0 note=68 velocity=67 time=3
control_change channel=0 control=64 value=101 time=12
control_change channel=0 control=67 value=36 time=0
note_on channel=0 note=74 velocity=65 time=1
note_on channel=0 note=65 velocity=0 time=13
control_change channel=0 control=67 value=42 time=2
note_on channel=0 note=68 velocity=0 time=1
control_change channel=0 control=67 value=49 time=14
note_on channel=0 note=74 velocity=0 time=2
control_change channel=0 control=67 value=56 time=13
note_on channel=0 note=47 velocity=0 time=5
control_change channel=0 control=67 value=63 time=10
control_change channel=0 control=67 value=70 time=15
control_change channel=0 control=67 value=75 time=16
note_on channel=0 note=65 velocity=60 time=13
control_change channel=0 control=67 value=81 time=2
note_on channel=0 note=68 velocity=66 time=4
control_change channel=0 control=67 value=87 time=10
note_on channel=0 note=74 velocity=60 time=6
control_change channel=0 control=67 value=93 time=10
note_on channel=0 note=65 velocity=0 time=8
note_on channel=0 note=68 velocity=0 time=2
control_change channel=0 control=64 value=100 time=5
control_change channel=0 control=67 value=98 time=0
note_on channel=0 note=74 velocity=0 time=10
control_change channel=0 control=67 value=103 time=7
control_change channel=0 control=67 value=107 time=15
control_change channel=0 control=67 value=112 time=14
control_change channel=0 control=67 value=117 time=16
control_change channel=0 control=67 value=121 time=15
note_on channel=0 note=65 velocity=66 time=15
control_change channel=0 control=67 value=124 time=1
note_on channel=0 note=56 velocity=81 time=5
note_on channel=0 note=77 velocity=0 time=1
note_on channel=0 note=44 velocity=75 time=2
control_change channel=0 control=67 value=127 time=7
note_on channel=0 note=68 velocity=58 time=1
note_on channel=0 note=74 velocity=50 time=7
note_on channel=0 note=44 velocity=0 time=26
note_on channel=0 note=56 velocity=0 time=9
note_on channel=0 note=65 velocity=0 time=7
note_on channel=0 note=68 velocity=0 time=3
control_change channel=0 control=64 value=100 time=53
control_change channel=0 control=64 value=92 time=15
control_change channel=0 control=64 value=81 time=14
note_on channel=0 note=74 velocity=0 time=11
note_on channel=0 note=56 velocity=75 time=4
control_change channel=0 control=64 value=67 time=1
note_on channel=0 note=44 velocity=62 time=3
note_on channel=0 note=76 velocity=64 time=1
control_change channel=0 control=64 value=35 time=11
note_on channel=0 note=64 velocity=36 time=12
control_change channel=0 control=64 value=52 time=3
control_change channel=0 control=64 value=61 time=16
control_change channel=0 control=64 value=64 time=14
note_on channel=0 note=64 velocity=0 time=1
control_change channel=0 control=64 value=67 time=15
note_on channel=0 note=56 velocity=0 time=0
control_change channel=0 control=64 value=72 time=22
note_on channel=0 note=44 velocity=0 time=6
control_change channel=0 control=64 value=78 time=10
control_change channel=0 control=64 value=82 time=15
control_change channel=0 control=64 value=78 time=31
control_change channel=0 control=64 value=70 time=14
note_on channel=0 note=42 velocity=67 time=0
note_on channel=0 note=54 velocity=71 time=0
note_on channel=0 note=64 velocity=41 time=0
note_on channel=0 note=74 velocity=55 time=14
control_change channel=0 control=64 value=61 time=1
note_on channel=0 note=68 velocity=42 time=0
control_change channel=0 control=64 value=58 time=16
control_change channel=0 control=64 value=64 time=15
note_on channel=0 note=64 velocity=0 time=5
note_on channel=0 note=68 velocity=0 time=9
note_on channel=0 note=74 velocity=0 time=0
control_change channel=0 control=64 value=66 time=2
note_on channel=0 note=54 velocity=0 time=13
control_change channel=0 control=64 value=70 time=2
control_change channel=0 control=64 value=75 time=14
control_change channel=0 control=64 value=79 time=16
control_change channel=0 control=64 value=83 time=15
control_change channel=0 control=64 value=85 time=15
control_change channel=0 control=64 value=85 time=16
control_change channel=0 control=64 value=83 time=45
note_on channel=0 note=42 velocity=0 time=10
control_change channel=0 control=64 value=79 time=5
control_change channel=0 control=64 value=70 time=15
note_on channel=0 note=40 velocity=53 time=5
note_on channel=0 note=52 velocity=55 time=0
control_change channel=0 control=64 value=42 time=10
control_change channel=0 control=64 value=0 time=16
note_on channel=0 note=74 velocity=56 time=4
note_on channel=0 note=68 velocity=38 time=6
control_change channel=0 control=64 value=46 time=35
control_change channel=0 control=64 value=63 time=15
control_change channel=0 control=64 value=67 time=15
control_change channel=0 control=64 value=71 time=16
note_on channel=0 note=52 velocity=0 time=0
note_on channel=0 note=40 velocity=0 time=14
control_change channel=0 control=64 value=75 time=1
control_change channel=0 control=64 value=82 time=15
note_on channel=0 note=76 velocity=0 time=4
control_change channel=0 control=64 value=89 time=12
control_change channel=0 control=64 value=94 time=15
control_change channel=0 control=64 value=96 time=16
control_change channel=0 control=64 value=98 time=15
control_change channel=0 control=64 value=101 time=14
control_change channel=0 control=64 value=104 time=16
control_change channel=0 control=64 value=106 time=15
control_change channel=0 control=64 value=106 time=16
control_change channel=0 control=64 value=106 time=61
control_change channel=0 control=64 value=104 time=61
note_on channel=0 note=74 velocity=0 time=14
control_change channel=0 control=64 value=102 time=1
note_on channel=0 note=68 velocity=0 time=1
control_change channel=0 control=64 value=99 time=13
note_on channel=0 note=33 velocity=49 time=12
control_change channel=0 control=64 value=94 time=4
note_on channel=0 note=76 velocity=59 time=1
control_change channel=0 control=64 value=84 time=22
note_on channel=0 note=64 velocity=41 time=1
control_change channel=0 control=64 value=72 time=15
control_change channel=0 control=64 value=53 time=15
control_change channel=0 control=64 value=0 time=15
control_change channel=0 control=64 value=19 time=30
control_change channel=0 control=64 value=48 time=16
control_change channel=0 control=64 value=57 time=15
control_change channel=0 control=64 value=61 time=14
control_change channel=0 control=64 value=63 time=16
control_change channel=0 control=64 value=65 time=15
control_change channel=0 control=64 value=67 time=15
control_change channel=0 control=64 value=69 time=15
control_change channel=0 control=64 value=71 time=15
control_change channel=0 control=64 value=73 time=16
control_change channel=0 control=64 value=75 time=15
note_on channel=0 note=73 velocity=52 time=6
note_on channel=0 note=69 velocity=35 time=1
control_change channel=0 control=64 value=78 time=8
control_change channel=0 control=64 value=80 time=16
note_on channel=0 note=69 velocity=0 time=6
note_on channel=0 note=73 velocity=0 time=3
control_change channel=0 control=64 value=83 time=5
control_change channel=0 control=64 value=85 time=16
control_change channel=0 control=64 value=87 time=15
control_change channel=0 control=64 value=89 time=15
control_change channel=0 control=64 value=92 time=16
control_change channel=0 control=64 value=94 time=15
note_on channel=0 note=69 velocity=52 time=3
note_on channel=0 note=73 velocity=66 time=1
control_change channel=0 control=64 value=96 time=12
control_change channel=0 control=64 value=98 time=14
note_on channel=0 note=73 velocity=0 time=5
note_on channel=0 note=69 velocity=0 time=5
control_change channel=0 control=64 value=99 time=5
note_on channel=0 note=76 velocity=0 time=11
control_change channel=0 control=64 value=102 time=5
control_change channel=0 control=64 value=105 time=15
control_change channel=0 control=64 value=108 time=15
note_on channel=0 note=37 velocity=53 time=5
control_change channel=0 control=64 value=109 time=10
note_on channel=0 note=73 velocity=68 time=12
control_change channel=0 control=64 value=110 time=3
note_on channel=0 note=64 velocity=0 time=5
control_change channel=0 control=64 value=114 time=11
note_on channel=0 note=73 velocity=0 time=9
control_change channel=0 control=64 value=119 time=5
note_on channel=0 note=69 velocity=16 time=6
control_change channel=0 control=64 value=127 time=9
note_on channel=0 note=33 velocity=0 time=21
note_on channel=0 note=69 velocity=0 time=8
note_on channel=0 note=69 velocity=40 time=29
note_on channel=0 note=73 velocity=69 time=8
note_on channel=0 note=69 velocity=0 time=28
note_on channel=0 note=73 velocity=0 time=2
note_on channel=0 note=73 velocity=92 time=69
note_on channel=0 note=61 velocity=69 time=9
note_on channel=0 note=61 velocity=0 time=30
note_on channel=0 note=73 velocity=0 time=14
note_on channel=0 note=71 velocity=88 time=74
control_change channel=0 control=64 value=115 time=6
note_on channel=0 note=59 velocity=73 time=4
control_change channel=0 control=64 value=92 time=10
note_on channel=0 note=39 velocity=56 time=4
control_change channel=0 control=64 value=73 time=11
control_change channel=0 control=64 value=54 time=16
control_change channel=0 control=64 value=59 time=15
control_change channel=0 control=64 value=63 time=15
control_change channel=0 control=64 value=64 time=15
control_change channel=0 control=64 value=66 time=15
control_change channel=0 control=67 value=126 time=0
note_on channel=0 note=71 velocity=0 time=4
note_on channel=0 note=64 velocity=70 time=8
control_change channel=0 control=64 value=70 time=3
control_change channel=0 control=67 value=122 time=0
note_on channel=0 note=61 velocity=69 time=9
control_change channel=0 control=64 value=74 time=6
control_change channel=0 control=67 value=118 time=0
control_change channel=0 control=64 value=80 time=15
control_change channel=0 control=67 value=115 time=0
note_on channel=0 note=59 velocity=0 time=2
control_change channel=0 control=64 value=85 time=14
control_change channel=0 control=67 value=110 time=0
control_change channel=0 control=64 value=89 time=15
control_change channel=0 control=67 value=105 time=0
control_change channel=0 control=64 value=94 time=16
control_change channel=0 control=67 value=97 time=0
control_change channel=0 control=64 value=100 time=15
control_change channel=0 control=67 value=89 time=0
control_change channel=0 control=64 value=107 time=15
control_change channel=0 control=67 value=82 time=0
note_on channel=0 note=40 velocity=70 time=2
note_on channel=0 note=69 velocity=87 time=4
note_on channel=0 note=57 velocity=72 time=9
control_change channel=0 control=64 value=110 time=1
control_change channel=0 control=67 value=74 time=0
note_on channel=0 note=61 velocity=0 time=3
note_on channel=0 note=64 velocity=0 time=5
control_change channel=0 control=67 value=68 time=6
note_on channel=0 note=37 velocity=0 time=3
control_change channel=0 control=67 value=58 time=13
note_on channel=0 note=57 velocity=0 time=5
control_change channel=0 control=64 value=109 time=10
control_change channel=0 control=67 value=51 time=0
note_on channel=0 note=69 velocity=0 time=10
control_change channel=0 control=64 value=107 time=5
control_change channel=0 control=67 value=45 time=0
control_change channel=0 control=64 value=101 time=16
control_change channel=0 control=67 value=42 time=0
control_change channel=0 control=64 value=91 time=14
control_change channel=0 control=67 value=39 time=0
note_on channel=0 note=39 velocity=0 time=11
control_change channel=0 control=64 value=75 time=4
control_change channel=0 control=67 value=36 time=0
control_change channel=0 control=64 value=57 time=16
control_change channel=0 control=67 value=31 time=0
note_on channel=0 note=69 velocity=70 time=7
control_change channel=0 control=64 value=0 time=8
control_change channel=0 control=67 value=27 time=0
note_on channel=0 note=57 velocity=59 time=1
note_on channel=0 note=41 velocity=62 time=6
note_on channel=0 note=40 velocity=0 time=3
control_change channel=0 control=67 value=23 time=6
control_change channel=0 control=67 value=19 time=14
control_change channel=0 control=67 value=14 time=15
control_change channel=0 control=64 value=42 time=16
control_change channel=0 control=67 value=8 time=0
control_change channel=0 control=64 value=54 time=15
control_change channel=0 control=67 value=0 time=0
control_change channel=0 control=64 value=61 time=15
control_change channel=0 control=64 value=64 time=15
control_change channel=0 control=64 value=66 time=15
control_change channel=0 control=64 value=68 time=16
control_change channel=0 control=64 value=71 time=16
note_on channel=0 note=59 velocity=42 time=8
control_change channel=0 control=64 value=73 time=7
note_on channel=0 note=62 velocity=24 time=8
control_change channel=0 control=64 value=77 time=7
note_on channel=0 note=59 velocity=0 time=8
control_change channel=0 control=64 value=80 time=7
control_change channel=0 control=64 value=84 time=16
note_on channel=0 note=62 velocity=0 time=2
control_change channel=0 control=64 value=88 time=13
control_change channel=0 control=64 value=91 time=15
control_change channel=0 control=64 value=93 time=15
note_on channel=0 note=57 velocity=0 time=2
note_on channel=0 note=69 velocity=0 time=0
note_on channel=0 note=62 velocity=51 time=12
control_change channel=0 control=64 value=93 time=1
note_on channel=0 note=59 velocity=57 time=5
control_change channel=0 control=64 value=93 time=95
control_change channel=0 control=64 value=91 time=14
control_change channel=0 control=64 value=87 time=15
control_change channel=0 control=64 value=78 time=16
note_on channel=0 note=62 velocity=0 time=5
note_on channel=0 note=59 velocity=0 time=4
control_change channel=0 control=64 value=66 time=6
note_on channel=0 note=68 velocity=62 time=4
note_on channel=0 note=56 velocity=46 time=9
control_change channel=0 control=64 value=0 time=2
control_change channel=0 control=64 value=24 time=61
control_change channel=0 control=64 value=46 time=15
control_change channel=0 control=64 value=59 time=15
note_on channel=0 note=62 velocity=59 time=11
control_change channel=0 control=64 value=66 time=4
note_on channel=0 note=59 velocity=50 time=2
note_on channel=0 note=56 velocity=0 time=11
control_change channel=0 control=64 value=69 time=2
control_change channel=0 control=64 value=72 time=15
note_on channel=0 note=59 velocity=0 time=5
control_change channel=0 control=64 value=75 time=10
note_on channel=0 note=62 velocity=0 time=4
control_change channel=0 control=64 value=78 time=12
control_change channel=0 control=67 value=8 time=0
control_change channel=0 control=64 value=81 time=15
control_change channel=0 control=67 value=9 time=0
control_change channel=0 control=64 value=83 time=15
control_change channel=0 control=67 value=10 time=0
control_change channel=0 control=64 value=85 time=16
control_change channel=0 control=67 value=12 time=0
note_on channel=0 note=59 velocity=60 time=12
control_change channel=0 control=64 value=87 time=2
control_change channel=0 control=67 value=14 time=0
note_on channel=0 note=62 velocity=49 time=7
control_change channel=0 control=64 value=88 time=8
control_change channel=0 control=67 value=17 time=0
control_change channel=0 control=64 value=88 time=16
control_change channel=0 control=67 value=19 time=0
note_on channel=0 note=59 velocity=0 time=1
note_on channel=0 note=62 velocity=0 time=9
control_change channel=0 control=67 value=20 time=5
control_change channel=0 control=67 value=22 time=16
control_change channel=0 control=64 value=88 time=15
control_change channel=0 control=67 value=23 time=0
control_change channel=0 control=64 value=85 time=15
control_change channel=0 control=67 value=25 time=0
control_change channel=0 control=64 value=77 time=16
control_change channel=0 control=67 value=26 time=0
control_change channel=0 control=64 value=66 time=14
control_change channel=0 control=67 value=28 time=0
note_on channel=0 note=40 velocity=42 time=9
note_on channel=0 note=59 velocity=40 time=2
note_on channel=0 note=62 velocity=47 time=4
control_change channel=0 control=64 value=21 time=1
control_change channel=0 control=67 value=32 time=0
note_on channel=0 note=41 velocity=0 time=8
control_change channel=0 control=64 value=46 time=7
control_change channel=0 control=67 value=36 time=0
note_on channel=0 note=59 velocity=0 time=6
control_change channel=0 control=64 value=62 time=9
control_change channel=0 control=67 value=38 time=0
note_on channel=0 note=62 velocity=0 time=4
control_change channel=0 control=64 value=65 time=12
control_change channel=0 control=67 value=38 time=0
control_change channel=0 control=64 value=67 time=14
control_change channel=0 control=67 value=40 time=0
note_on channel=0 note=68 velocity=0 time=9
control_change channel=0 control=64 value=70 time=6
control_change channel=0 control=67 value=41 time=0
control_change channel=0 control=64 value=73 time=16
control_change channel=0 control=67 value=42 time=0
control_change channel=0 control=64 value=75 time=14
note_on channel=0 note=59 velocity=40 time=15
control_change channel=0 control=64 value=78 time=1
control_change channel=0 control=64 value=80 time=15
note_on channel=0 note=62 velocity=51 time=2
note_on channel=0 note=59 velocity=0 time=11
control_change channel=0 control=64 value=81 time=3
control_change channel=0 control=64 value=83 time=16
control_change channel=0 control=67 value=41 time=0
note_on channel=0 note=62 velocity=0 time=1
control_change channel=0 control=64 value=85 time=14
control_change channel=0 control=67 value=41 time=0
control_change channel=0 control=64 value=88 time=16
control_change channel=0 control=64 value=91 time=14
control_change channel=0 control=67 value=40 time=0
control_change channel=0 control=64 value=94 time=15
control_change channel=0 control=67 value=40 time=0
control_change channel=0 control=64 value=97 time=16
control_change channel=0 control=67 value=39 time=0
control_change channel=0 control=64 value=100 time=15
control_change channel=0 control=67 value=38 time=0
control_change channel=0 control=64 value=103 time=15
control_change channel=0 control=67 value=38 time=0
control_change channel=0 control=64 value=106 time=23
control_change channel=0 control=67 value=37 time=0
note_on channel=0 note=71 velocity=70 time=7
control_change channel=0 control=64 value=108 time=8
control_change channel=0 control=67 value=37 time=0
note_on channel=0 note=59 velocity=47 time=10
control_change channel=0 control=64 value=110 time=6
control_change channel=0 control=67 value=36 time=0
control_change channel=0 control=64 value=113 time=14
control_change channel=0 control=67 value=36 time=0
control_change channel=0 control=64 value=118 time=15
control_change channel=0 control=67 value=35 time=0
control_change channel=0 control=64 value=122 time=16
control_change channel=0 control=64 value=124 time=15
control_change channel=0 control=67 value=35 time=16
control_change channel=0 control=67 value=34 time=14
note_on channel=0 note=59 velocity=0 time=1
note_on channel=0 note=71 velocity=0 time=53
control_change channel=0 control=67 value=35 time=53
control_change channel=0 control=67 value=35 time=15
control_change channel=0 control=67 value=36 time=45
control_change channel=0 control=64 value=123 time=16
control_change channel=0 control=67 value=36 time=0
control_change channel=0 control=64 value=122 time=14
control_change channel=0 control=64 value=117 time=15
control_change channel=0 control=67 value=37 time=0
control_change channel=0 control=64 value=114 time=16
control_change channel=0 control=67 value=37 time=0
control_change channel=0 control=64 value=112 time=15
control_change channel=0 control=67 value=38 time=0
control_change channel=0 control=64 value=109 time=15
control_change channel=0 control=67 value=38 time=0
control_change channel=0 control=64 value=103 time=15
control_change channel=0 control=67 value=39 time=0
note_on channel=0 note=76 velocity=54 time=9
control_change channel=0 control=64 value=93 time=6
control_change channel=0 control=67 value=39 time=0
note_on channel=0 note=33 velocity=39 time=6
note_on channel=0 note=64 velocity=38 time=8
control_change channel=0 control=64 value=81 time=2
control_change channel=0 control=67 value=40 time=0
note_on channel=0 note=40 velocity=0 time=4
control_change channel=0 control=64 value=69 time=11
control_change channel=0 control=67 value=41 time=0
control_change channel=0 control=64 value=38 time=15
control_change channel=0 control=67 value=42 time=0
control_change channel=0 control=64 value=0 time=16
control_change channel=0 control=67 value=43 time=15
control_change channel=0 control=67 value=44 time=16
control_change channel=0 control=67 value=47 time=15
control_change channel=0 control=67 value=51 time=14
control_change channel=0 control=67 value=54 time=16
control_change channel=0 control=67 value=59 time=15
control_change channel=0 control=67 value=64 time=15
control_change channel=0 control=64 value=27 time=16
control_change channel=0 control=67 value=68 time=0
control_change channel=0 control=64 value=45 time=14
control_change channel=0 control=67 value=71 time=0
control_change channel=0 control=64 value=55 time=17
control_change channel=0 control=67 value=76 time=0
control_change channel=0 control=64 value=61 time=15
control_change channel=0 control=67 value=80 time=0
control_change channel=0 control=64 value=64 time=14
control_change channel=0 control=67 value=84 time=0
control_change channel=0 control=64 value=66 time=16
control_change channel=0 control=67 value=87 time=0
control_change channel=0 control=64 value=68 time=16
control_change channel=0 control=67 value=90 time=0
note_on channel=0 note=64 velocity=0 time=8
control_change channel=0 control=64 value=71 time=6
control_change channel=0 control=67 value=93 time=0
note_on channel=0 note=72 velocity=35 time=10
note_on channel=0 note=69 velocity=38 time=1
control_change channel=0 control=64 value=73 time=5
control_change channel=0 control=67 value=97 time=0
control_change channel=0 control=64 value=76 time=15
control_change channel=0 control=67 value=100 time=0
control_change channel=0 control=64 value=78 time=16
control_change channel=0 control=67 value=102 time=0
note_on channel=0 note=69 velocity=0 time=13
control_change channel=0 control=64 value=81 time=9
control_change channel=0 control=67 value=104 time=0
note_on channel=0 note=72 velocity=0 time=1
control_change channel=0 control=64 value=84 time=15
control_change channel=0 control=67 value=105 time=0
control_change channel=0 control=64 value=87 time=15
control_change channel=0 control=67 value=106 time=0
control_change channel=0 control=64 value=90 time=15
control_change channel=0 control=67 value=107 time=0
control_change channel=0 control=64 value=92 time=16
control_change channel=0 control=67 value=108 time=0
control_change channel=0 control=64 value=94 time=14
control_change channel=0 control=67 value=108 time=0
control_change channel=0 control=64 value=96 time=15
control_change channel=0 control=64 value=97 time=16
note_on channel=0 note=69 velocity=45 time=0
control_change channel=0 control=64 value=98 time=14
note_on channel=0 note=72 velocity=40 time=8
control_change channel=0 control=64 value=99 time=8
control_change channel=0 control=67 value=109 time=0
note_on channel=0 note=69 velocity=0 time=10
control_change channel=0 control=64 value=100 time=5
note_on channel=0 note=72 velocity=0 time=4
control_change channel=0 control=64 value=102 time=11
control_change channel=0 control=64 value=104 time=16
control_change channel=0 control=64 value=105 time=15
note_on channel=0 note=36 velocity=46 time=9
control_change channel=0 control=64 value=106 time=7
control_change channel=0 control=64 value=106 time=15
control_change channel=0 control=67 value=109 time=0
note_on channel=0 note=72 velocity=55 time=11
control_change channel=0 control=64 value=107 time=3
note_on channel=0 note=69 velocity=44 time=7
control_change channel=0 control=64 value=109 time=9
control_change channel=0 control=64 value=110 time=15
note_on channel=0 note=72 velocity=0 time=0
note_on channel=0 note=69 velocity=0 time=1
control_change channel=0 control=64 value=112 time=14
note_on channel=0 note=33 velocity=0 time=15
note_on channel=0 note=76 velocity=0 time=35
control_change channel=0 control=64 value=112 time=11
note_on channel=0 note=69 velocity=62 time=5
control_change channel=0 control=64 value=113 time=10
note_on channel=0 note=72 velocity=53 time=10
control_change channel=0 control=64 value=113 time=21
note_on channel=0 note=72 velocity=0 time=0
note_on channel=0 note=69 velocity=0 time=1
control_change channel=0 control=67 value=109 time=60
note_on channel=0 note=72 velocity=73 time=14
note_on channel=0 note=60 velocity=51 time=14
note_on channel=0 note=60 velocity=0 time=26
note_on channel=0 note=72 velocity=0 time=3
control_change channel=0 control=64 value=113 time=48
control_change channel=0 control=64 value=112 time=16
control_change channel=0 control=64 value=103 time=15
note_on channel=0 note=71 velocity=85 time=1
note_on channel=0 note=59 velocity=62 time=10
control_change channel=0 control=64 value=88 time=3
note_on channel=0 note=39 velocity=48 time=3
control_change channel=0 control=64 value=68 time=13
control_change channel=0 control=64 value=36 time=15
control_change channel=0 control=64 value=50 time=16
note_on channel=0 note=36 velocity=0 time=6
note_on channel=0 note=71 velocity=0 time=3
control_change channel=0 control=64 value=60 time=6
control_change channel=0 control=67 value=108 time=0
control_change channel=0 control=64 value=63 time=15
control_change channel=0 control=67 value=108 time=0
control_change channel=0 control=64 value=65 time=16
control_change channel=0 control=67 value=107 time=0
control_change channel=0 control=64 value=69 time=14
control_change channel=0 control=67 value=107 time=0
note_on channel=0 note=60 velocity=68 time=8
note_on channel=0 note=64 velocity=69 time=1
control_change channel=0 control=64 value=73 time=7
note_on channel=0 note=59 velocity=0 time=2
control_change channel=0 control=64 value=78 time=14
control_change channel=0 control=67 value=106 time=0
control_change channel=0 control=64 value=82 time=22
control_change channel=0 control=64 value=86 time=16
control_change channel=0 control=67 value=105 time=0
control_change channel=0 control=64 value=90 time=15
control_change channel=0 control=67 value=105 time=0
control_change channel=0 control=64 value=97 time=16
note_on channel=0 note=60 velocity=0 time=1
control_change channel=0 control=64 value=102 time=14
note_on channel=0 note=69 velocity=80 time=4
control_change channel=0 control=64 value=106 time=10
control_change channel=0 control=67 value=104 time=0
note_on channel=0 note=64 velocity=0 time=1
note_on channel=0 note=57 velocity=66 time=2
note_on channel=0 note=40 velocity=65 time=11
control_change channel=0 control=64 value=106 time=2
control_change channel=0 control=67 value=104 time=0
control_change channel=0 control=67 value=103 time=15
note_on channel=0 note=57 velocity=0 time=4
note_on channel=0 note=69 velocity=0 time=16
control_change channel=0 control=64 value=105 time=25
control_change channel=0 control=64 value=98 time=16
control_change channel=0 control=64 value=86 time=15
note_on channel=0 note=39 velocity=0 time=3
control_change channel=0 control=64 value=71 time=11
note_on channel=0 note=40 velocity=0 time=0
note_on channel=0 note=69 velocity=71 time=0
control_change channel=0 control=64 value=17 time=16
note_on channel=0 note=57 velocity=52 time=3
note_on channel=0 note=41 velocity=53 time=9
control_change channel=0 control=64 value=0 time=3
control_change channel=0 control=67 value=103 time=31
control_change channel=0 control=64 value=38 time=14
control_change channel=0 control=67 value=102 time=0
control_change channel=0 control=64 value=54 time=16
control_change channel=0 control=64 value=62 time=15
control_change channel=0 control=64 value=65 time=15
control_change channel=0 control=67 value=102 time=0
control_change channel=0 control=64 value=69 time=16
control_change channel=0 control=67 value=101 time=0
note_on channel=0 note=62 velocity=60 time=6
control_change channel=0 control=64 value=72 time=9
note_on channel=0 note=59 velocity=44 time=4
control_change channel=0 control=64 value=74 time=12
control_change channel=0 control=64 value=77 time=15
note_on channel=0 note=59 velocity=0 time=1
note_on channel=0 note=62 velocity=0 time=3
control_change channel=0 control=64 value=81 time=10
control_change channel=0 control=64 value=85 time=16
control_change channel=0 control=67 value=101 time=0
control_change channel=0 control=64 value=88 time=15
control_change channel=0 control=64 value=90 time=15
note_on channel=0 note=69 velocity=0 time=0
note_on channel=0 note=57 velocity=0 time=5
control_change channel=0 control=64 value=91 time=11
note_on channel=0 note=62 velocity=48 time=1
note_on channel=0 note=59 velocity=51 time=5
control_change channel=0 control=67 value=101 time=70
control_change channel=0 control=67 value=102 time=15
note_on channel=0 note=59 velocity=0 time=2
note_on channel=0 note=62 velocity=0 time=11
control_change channel=0 control=64 value=90 time=1
control_change channel=0 control=64 value=85 time=16
note_on channel=0 note=68 velocity=63 time=7
control_change channel=0 control=64 value=76 time=8
note_on channel=0 note=56 velocity=41 time=9
control_change channel=0 control=64 value=64 time=6
control_change channel=0 control=64 value=0 time=15
control_change channel=0 control=64 value=38 time=45
control_change channel=0 control=64 value=57 time=15
control_change channel=0 control=64 value=63 time=16
note_on channel=0 note=62 velocity=54 time=4
note_on channel=0 note=56 velocity=0 time=3
control_change channel=0 control=64 value=65 time=8
control_change channel=0 control=67 value=101 time=0
control_change channel=0 control=64 value=68 time=15
control_change channel=0 control=67 value=100 time=0
note_on channel=0 note=59 velocity=30 time=1
control_change channel=0 control=64 value=70 time=14
note_on channel=0 note=62 velocity=0 time=11
control_change channel=0 control=64 value=73 time=12
note_on channel=0 note=59 velocity=0 time=8
control_change channel=0 control=64 value=74 time=8
control_change channel=0 control=67 value=100 time=0
control_change channel=0 control=64 value=75 time=15
control_change channel=0 control=67 value=99 time=0
control_change channel=0 control=64 value=76 time=16
control_change channel=0 control=67 value=98 time=0
control_change channel=0 control=64 value=78 time=15
control_change channel=0 control=67 value=98 time=0
control_change channel=0 control=64 value=79 time=14
control_change channel=0 control=67 value=97 time=0
note_on channel=0 note=62 velocity=46 time=6
control_change channel=0 control=64 value=81 time=10
control_change channel=0 control=67 value=97 time=0
control_change channel=0 control=64 value=81 time=15
control_change channel=0 control=67 value=96 time=0
note_on channel=0 note=62 velocity=0 time=10
control_change channel=0 control=64 value=82 time=6
control_change channel=0 control=67 value=94 time=0
control_change channel=0 control=67 value=91 time=15
control_change channel=0 control=64 value=83 time=14
control_change channel=0 control=67 value=90 time=0
control_change channel=0 control=64 value=84 time=16
control_change channel=0 control=67 value=88 time=0
control_change channel=0 control=67 value=87 time=15
control_change channel=0 control=64 value=83 time=16
control_change channel=0 control=67 value=87 time=0
note_on channel=0 note=62 velocity=48 time=7
note_on channel=0 note=59 velocity=11 time=7
control_change channel=0 control=64 value=81 time=1
control_change channel=0 control=67 value=86 time=0
control_change channel=0 control=64 value=76 time=14
note_on channel=0 note=40 velocity=46 time=0
note_on channel=0 note=41 velocity=0 time=12
note_on channel=0 note=62 velocity=0 time=1
control_change channel=0 control=64 value=68 time=3
control_change channel=0 control=67 value=86 time=0
note_on channel=0 note=59 velocity=0 time=14
control_change channel=0 control=64 value=64 time=1
control_change channel=0 control=67 value=85 time=0
control_change channel=0 control=64 value=66 time=15
control_change channel=0 control=67 value=84 time=0
note_on channel=0 note=68 velocity=0 time=9
control_change channel=0 control=64 value=67 time=7
control_change channel=0 control=67 value=83 time=0
control_change channel=0 control=64 value=69 time=14
control_change channel=0 control=67 value=81 time=0
control_change channel=0 control=64 value=71 time=16
control_change channel=0 control=67 value=80 time=0
control_change channel=0 control=64 value=74 time=15
control_change channel=0 control=67 value=78 time=0
note_on channel=0 note=62 velocity=54 time=8
note_on channel=0 note=59 velocity=42 time=6
control_change channel=0 control=64 value=79 time=1
control_change channel=0 control=67 value=76 time=0
control_change channel=0 control=64 value=83 time=16
control_change channel=0 control=67 value=74 time=0
note_on channel=0 note=62 velocity=0 time=9
note_on channel=0 note=59 velocity=0 time=5
control_change channel=0 control=64 value=86 time=1
control_change channel=0 control=67 value=72 time=0
control_change channel=0 control=64 value=88 time=14
control_change channel=0 control=67 value=70 time=0
control_change channel=0 control=64 value=90 time=16
control_change channel=0 control=67 value=68 time=0
control_change channel=0 control=64 value=93 time=15
control_change channel=0 control=67 value=66 time=0
control_change channel=0 control=64 value=96 time=16
control_change channel=0 control=67 value=64 time=0
control_change channel=0 control=64 value=99 time=15
control_change channel=0 control=67 value=63 time=0
control_change channel=0 control=64 value=101 time=14
control_change channel=0 control=67 value=60 time=0
control_change channel=0 control=64 value=101 time=16
control_change channel=0 control=67 value=57 time=0
control_change channel=0 control=64 value=102 time=15
control_change channel=0 control=67 value=55 time=0
note_on channel=0 note=76 velocity=67 time=7
control_change channel=0 control=64 value=104 time=8
control_change channel=0 control=67 value=53 time=0
note_on channel=0 note=64 velocity=49 time=10
control_change channel=0 control=64 value=107 time=6
control_change channel=0 control=67 value=51 time=0
control_change channel=0 control=64 value=109 time=14
control_change channel=0 control=67 value=48 time=0
control_change channel=0 control=67 value=43 time=16
note_on channel=0 note=64 velocity=0 time=2
control_change channel=0 control=67 value=37 time=13
control_change channel=0 control=67 value=32 time=15
control_change channel=0 control=67 value=27 time=15
control_change channel=0 control=67 value=22 time=15
control_change channel=0 control=67 value=16 time=16
note_on channel=0 note=76 velocity=0 time=11
control_change channel=0 control=67 value=11 time=4
control_change channel=0 control=67 value=0 time=15
control_change channel=0 control=64 value=107 time=61
control_change channel=0 control=64 value=103 time=15
control_change channel=0 control=64 value=97 time=23
note_on channel=0 note=77 velocity=64 time=14
control_change channel=0 control=64 value=87 time=1
control_change channel=0 control=64 value=74 time=16
note_on channel=0 note=40 velocity=0 time=1
note_on channel=0 note=33 velocity=38 time=1
note_on channel=0 note=65 velocity=42 time=3
control_change channel=0 control=64 value=61 time=9
control_change channel=0 control=64 value=0 time=17
control_change channel=0 control=64 value=41 time=33
control_change channel=0 control=64 value=53 time=15
control_change channel=0 control=64 value=59 time=15
control_change channel=0 control=64 value=63 time=15
control_change channel=0 control=64 value=65 time=15
control_change channel=0 control=64 value=67 time=15
control_change channel=0 control=64 value=69 time=16
control_change channel=0 control=64 value=71 time=15
control_change channel=0 control=64 value=72 time=15
note_on channel=0 note=65 velocity=0 time=4
control_change channel=0 control=64 value=74 time=11
note_on channel=0 note=69 velocity=39 time=12
control_change channel=0 control=64 value=76 time=3
note_on channel=0 note=72 velocity=46 time=2
control_change channel=0 control=64 value=79 time=13
note_on channel=0 note=69 velocity=0 time=14
control_change channel=0 control=64 value=81 time=1
note_on channel=0 note=72 velocity=0 time=6
control_change channel=0 control=64 value=82 time=9
control_change channel=0 control=64 value=83 time=16
control_change channel=0 control=64 value=85 time=15
control_change channel=0 control=64 value=87 time=15
control_change channel=0 control=64 value=89 time=15
control_change channel=0 control=64 value=90 time=15
note_on channel=0 note=72 velocity=57 time=6
note_on channel=0 note=69 velocity=43 time=6
control_change channel=0 control=64 value=90 time=19
control_change channel=0 control=64 value=91 time=15
note_on channel=0 note=72 velocity=0 time=0
note_on channel=0 note=69 velocity=0 time=2
control_change channel=0 control=64 value=93 time=14
control_change channel=0 control=64 value=94 time=15
control_change channel=0 control=64 value=95 time=15
note_on channel=0 note=69 velocity=52 time=43
control_change channel=0 control=64 value=95 time=3
note_on channel=0 note=36 velocity=39 time=3
note_on channel=0 note=72 velocity=50 time=5
control_change channel=0 control=64 value=96 time=7
note_on channel=0 note=69 velocity=0 time=8
note_on channel=0 note=72 velocity=0 time=4
control_change channel=0 control=64 value=97 time=3
note_on channel=0 note=33 velocity=0 time=3
control_change channel=0 control=64 value=98 time=12
control_change channel=0 control=64 value=98 time=30
control_change channel=0 control=67 value=9 time=0
control_change channel=0 control=67 value=13 time=16
note_on channel=0 note=77 velocity=0 time=3
note_on channel=0 note=72 velocity=63 time=7
control_change channel=0 control=64 value=99 time=5
control_change channel=0 control=67 value=20 time=0
note_on channel=0 note=69 velocity=51 time=8
control_change channel=0 control=64 value=99 time=7
control_change channel=0 control=67 value=25 time=0
note_on channel=0 note=72 velocity=0 time=11
control_change channel=0 control=64 value=100 time=4
control_change channel=0 control=67 value=28 time=0
note_on channel=0 note=69 velocity=0 time=13
control_change channel=0 control=67 value=30 time=2
control_change channel=0 control=64 value=100 time=16
control_change channel=0 control=67 value=30 time=0
control_change channel=0 control=67 value=32 time=14
control_change channel=0 control=64 value=101 time=15
control_change channel=0 control=67 value=33 time=0
control_change channel=0 control=64 value=101 time=16
control_change channel=0 control=67 value=34 time=0
note_on channel=0 note=72 velocity=81 time=10
control_change channel=0 control=64 value=102 time=5
control_change channel=0 control=67 value=35 time=0
note_on channel=0 note=60 velocity=66 time=1
control_change channel=0 control=67 value=35 time=15
note_on channel=0 note=72 velocity=0 time=6
note_on channel=0 note=60 velocity=0 time=1
control_change channel=0 control=67 value=36 time=15
control_change channel=0 control=67 value=37 time=16
control_change channel=0 control=67 value=39 time=15
control_change channel=0 control=67 value=41 time=15
control_change channel=0 control=67 value=43 time=16
control_change channel=0 control=64 value=98 time=14
control_change channel=0 control=67 value=46 time=0
note_on channel=0 note=70 velocity=79 time=11
control_change channel=0 control=64 value=86 time=4
control_change channel=0 control=67 value=49 time=0
note_on channel=0 note=40 velocity=52 time=13
control_change channel=0 control=64 value=71 time=3
control_change channel=0 control=67 value=52 time=0
note_on channel=0 note=36 velocity=0 time=11
note_on channel=0 note=58 velocity=55 time=0
control_change channel=0 control=64 value=33 time=5
control_change channel=0 control=67 value=53 time=0
control_change channel=0 control=64 value=0 time=16
control_change channel=0 control=67 value=53 time=0
control_change channel=0 control=64 value=42 time=14
control_change channel=0 control=64 value=58 time=15
control_change channel=0 control=64 value=65 time=16
control_change channel=0 control=64 value=68 time=15
control_change channel=0 control=64 value=71 time=16
control_change channel=0 control=64 value=75 time=14
note_on channel=0 note=65 velocity=57 time=9
control_change channel=0 control=64 value=79 time=6
control_change channel=0 control=64 value=83 time=16
control_change channel=0 control=67 value=53 time=0
note_on channel=0 note=70 velocity=0 time=4
control_change channel=0 control=64 value=87 time=11
control_change channel=0 control=67 value=52 time=0
control_change channel=0 control=64 value=91 time=15
control_change channel=0 control=67 value=52 time=0
control_change channel=0 control=64 value=95 time=15
control_change channel=0 control=64 value=98 time=15
note_on channel=0 note=58 velocity=0 time=1
control_change channel=0 control=64 value=100 time=15
control_change channel=0 control=64 value=102 time=14
note_on channel=0 note=69 velocity=83 time=9
control_change channel=0 control=64 value=105 time=6
control_change channel=0 control=67 value=51 time=0
note_on channel=0 note=40 velocity=0 time=5
note_on channel=0 note=57 velocity=58 time=7
note_on channel=0 note=65 velocity=0 time=0
note_on channel=0 note=41 velocity=46 time=3
control_change channel=0 control=64 value=107 time=1
control_change channel=0 control=67 value=51 time=0
control_change channel=0 control=64 value=108 time=15
control_change channel=0 control=67 value=50 time=0
note_on channel=0 note=57 velocity=0 time=18
note_on channel=0 note=69 velocity=0 time=25
control_change channel=0 control=64 value=107 time=2
control_change channel=0 control=67 value=50 time=16
control_change channel=0 control=64 value=107 time=46
control_change channel=0 control=67 value=50 time=0
control_change channel=0 control=64 value=105 time=15
control_change channel=0 control=64 value=100 time=14
note_on channel=0 note=57 velocity=52 time=10
note_on channel=0 note=69 velocity=69 time=0
control_change channel=0 control=64 value=90 time=6
note_on channel=0 note=41 velocity=0 time=6
control_change channel=0 control=64 value=76 time=9
note_on channel=0 note=34 velocity=44 time=9
control_change channel=0 control=64 value=53 time=7
control_change channel=0 control=64 value=0 time=15
control_change channel=0 control=64 value=21 time=62
control_change channel=0 control=64 value=47 time=15
control_change channel=0 control=64 value=57 time=14
control_change channel=0 control=64 value=62 time=16
note_on channel=0 note=65 velocity=50 time=1
control_change channel=0 control=64 value=64 time=14
control_change channel=0 control=67 value=50 time=0
control_change channel=0 control=64 value=66 time=15
control_change channel=0 control=64 value=68 time=16
control_change channel=0 control=67 value=49 time=0
note_on channel=0 note=65 velocity=0 time=0
control_change channel=0 control=64 value=71 time=21
control_change channel=0 control=64 value=73 time=16
control_change channel=0 control=64 value=75 time=15
control_change channel=0 control=64 value=79 time=16
control_change channel=0 control=67 value=49 time=0
control_change channel=0 control=64 value=81 time=15
control_change channel=0 control=64 value=84 time=14
control_change channel=0 control=64 value=86 time=16
note_on channel=0 note=65 velocity=40 time=0
control_change channel=0 control=64 value=87 time=15
note_on channel=0 note=65 velocity=0 time=12
control_change channel=0 control=64 value=88 time=3
control_change channel=0 control=67 value=48 time=0
control_change channel=0 control=64 value=90 time=16
control_change channel=0 control=64 value=92 time=15
control_change channel=0 control=64 value=94 time=16
control_change channel=0 control=64 value=94 time=15
note_on channel=0 note=65 velocity=55 time=27
control_change channel=0 control=64 value=95 time=4
control_change channel=0 control=67 value=48 time=0
note_on channel=0 note=38 velocity=51 time=0
control_change channel=0 control=64 value=98 time=15
note_on channel=0 note=34 velocity=0 time=8
note_on channel=0 note=65 velocity=0 time=0
control_change channel=0 control=64 value=100 time=6
control_change channel=0 control=64 value=101 time=16
control_change channel=0 control=67 value=47 time=0
control_change channel=0 control=64 value=101 time=15
control_change channel=0 control=67 value=46 time=0
control_change channel=0 control=67 value=46 time=16
control_change channel=0 control=64 value=102 time=15
note_on channel=0 note=57 velocity=0 time=11
control_change channel=0 control=64 value=104 time=4
control_change channel=0 control=67 value=45 time=0
note_on channel=0 note=65 velocity=55 time=13
control_change channel=0 control=64 value=106 time=3
note_on channel=0 note=69 velocity=0 time=5
control_change channel=0 control=64 value=107 time=9
control_change channel=0 control=67 value=45 time=0
control_change channel=0 control=67 value=44 time=16
note_on channel=0 note=65 velocity=0 time=3
control_change channel=0 control=64 value=107 time=12
control_change channel=0 control=67 value=44 time=0
control_change channel=0 control=64 value=109 time=15
control_change channel=0 control=64 value=111 time=16
control_change channel=0 control=67 value=43 time=0
control_change channel=0 control=64 value=113 time=14
note_on channel=0 note=67 velocity=74 time=5
note_on channel=0 note=55 velocity=62 time=9
control_change channel=0 control=64 value=114 time=1
control_change channel=0 control=67 value=43 time=0
control_change channel=0 control=67 value=42 time=16
note_on channel=0 note=55 velocity=0 time=14
note_on channel=0 note=67 velocity=0 time=4
control_change channel=0 control=67 value=42 time=13
control_change channel=0 control=64 value=114 time=14
control_change channel=0 control=67 value=42 time=15
control_change channel=0 control=64 value=114 time=16
control_change channel=0 control=64 value=110 time=14
note_on channel=0 note=40 velocity=56 time=5
note_on channel=0 note=69 velocity=77 time=2
control_change channel=0 control=64 value=100 time=8
note_on channel=0 note=57 velocity=49 time=6
control_change channel=0 control=64 value=82 time=10
control_change channel=0 control=64 value=66 time=15
control_change channel=0 control=64 value=40 time=16
control_change channel=0 control=64 value=60 time=14
control_change channel=0 control=67 value=42 time=0
note_on channel=0 note=38 velocity=0 time=3
control_change channel=0 control=64 value=66 time=12
control_change channel=0 control=67 value=41 time=0
control_change channel=0 control=64 value=69 time=16
control_change channel=0 control=64 value=72 time=15
note_on channel=0 note=69 velocity=0 time=3
note_on channel=0 note=65 velocity=66 time=1
note_on channel=0 note=62 velocity=56 time=8
control_change channel=0 control=64 value=77 time=4
note_on channel=0 note=57 velocity=0 time=7
control_change channel=0 control=64 value=84 time=8
control_change channel=0 control=67 value=41 time=0
control_change channel=0 control=64 value=89 time=14
control_change channel=0 control=67 value=40 time=0
control_change channel=0 control=64 value=93 time=16
control_change channel=0 control=67 value=39 time=0
control_change channel=0 control=64 value=96 time=15
control_change channel=0 control=67 value=38 time=0
control_change channel=0 control=64 value=100 time=23
control_change channel=0 control=67 value=37 time=0
note_on channel=0 note=40 velocity=0 time=9
control_change channel=0 control=64 value=108 time=6
control_change channel=0 control=67 value=36 time=0
note_on channel=0 note=41 velocity=56 time=5
note_on channel=0 note=55 velocity=77 time=0
note_on channel=0 note=62 velocity=0 time=0
note_on channel=0 note=67 velocity=71 time=7
control_change channel=0 control=64 value=119 time=3
control_change channel=0 control=67 value=33 time=0
control_change channel=0 control=64 value=127 time=16
control_change channel=0 control=67 value=28 time=0
note_on channel=0 note=55 velocity=0 time=2
note_on channel=0 note=67 velocity=0 time=9
control_change channel=0 control=67 value=23 time=4
control_change channel=0 control=67 value=20 time=14
note_on channel=0 note=65 velocity=0 time=13
control_change channel=0 control=67 value=18 time=3
control_change channel=0 control=67 value=15 time=15
control_change channel=0 control=67 value=12 time=16
control_change channel=0 control=67 value=10 time=15
control_change channel=0 control=64 value=118 time=14
control_change channel=0 control=67 value=8 time=0
note_on channel=0 note=70 velocity=76 time=0
note_on channel=0 note=58 velocity=65 time=7
note_on channel=0 note=41 velocity=0 time=6
control_change channel=0 control=64 value=95 time=3
control_change channel=0 control=67 value=0 time=0
note_on channel=0 note=36 velocity=55 time=12
control_change channel=0 control=64 value=76 time=3
control_change channel=0 control=64 value=59 time=16
control_change channel=0 control=64 value=0 time=15
control_change channel=0 control=64 value=50 time=31
control_change channel=0 control=64 value=62 time=15
control_change channel=0 control=64 value=65 time=15
note_on channel=0 note=65 velocity=64 time=11
control_change channel=0 control=64 value=68 time=5
note_on channel=0 note=63 velocity=47 time=6
control_change channel=0 control=64 value=71 time=8
control_change channel=0 control=64 value=74 time=16
note_on channel=0 note=63 velocity=0 time=4
note_on channel=0 note=65 velocity=0 time=2
control_change channel=0 control=64 value=77 time=9
control_change channel=0 control=64 value=79 time=15
control_change channel=0 control=64 value=81 time=16
note_on channel=0 note=58 velocity=0 time=7
note_on channel=0 note=58 velocity=11 time=0
control_change channel=0 control=64 value=82 time=8
control_change channel=0 control=64 value=86 time=16
note_on channel=0 note=63 velocity=57 time=4
note_on channel=0 note=65 velocity=50 time=7
control_change channel=0 control=64 value=88 time=4
control_change channel=0 control=64 value=89 time=14
note_on channel=0 note=63 velocity=0 time=7
note_on channel=0 note=65 velocity=0 time=10
control_change channel=0 control=64 value=89 time=29
control_change channel=0 control=64 value=90 time=16
control_change channel=0 control=64 value=91 time=14
note_on channel=0 note=39 velocity=66 time=13
note_on channel=0 note=63 velocity=51 time=7
note_on channel=0 note=65 velocity=50 time=5
note_on channel=0 note=63 velocity=0 time=17
control_change channel=0 control=64 value=92 time=4
note_on channel=0 note=65 velocity=0 time=4
control_change channel=0 control=64 value=94 time=12
note_on channel=0 note=58 velocity=0 time=12
control_change channel=0 control=64 value=97 time=3
control_change channel=0 control=64 value=100 time=14
note_on channel=0 note=58 velocity=28 time=7
control_change channel=0 control=64 value=101 time=9
control_change channel=0 control=64 value=101 time=15
note_on channel=0 note=63 velocity=47 time=4
note_on channel=0 note=65 velocity=66 time=3
control_change channel=0 control=64 value=103 time=8
note_on channel=0 note=70 velocity=0 time=8
control_change channel=0 control=64 value=107 time=7
control_change channel=0 control=64 value=114 time=15
control_change channel=0 control=64 value=123 time=16
control_change channel=0 control=64 value=127 time=14
note_on channel=0 note=58 velocity=0 time=1
note_on channel=0 note=65 velocity=0 time=8
note_on channel=0 note=69 velocity=87 time=30
note_on channel=0 note=57 velocity=73 time=22
note_on channel=0 note=63 velocity=0 time=12
note_on channel=0 note=57 velocity=0 time=16
note_on channel=0 note=69 velocity=0 time=13
note_on channel=0 note=70 velocity=90 time=72
note_on channel=0 note=40 velocity=61 time=8
note_on channel=0 note=58 velocity=76 time=8
control_change channel=0 control=64 value=83 time=1
control_change channel=0 control=64 value=64 time=15
control_change channel=0 control=64 value=59 time=15
note_on channel=0 note=39 velocity=0 time=1
control_change channel=0 control=64 value=65 time=14
control_change channel=0 control=64 value=69 time=15
control_change channel=0 control=64 value=74 time=15
control_change channel=0 control=64 value=82 time=15
control_change channel=0 control=64 value=91 time=15
note_on channel=0 note=65 velocity=71 time=3
note_on channel=0 note=63 velocity=69 time=4
control_change channel=0 control=64 value=102 time=9
control_change channel=0 control=64 value=112 time=15
note_on channel=0 note=58 velocity=0 time=1
note_on channel=0 note=70 velocity=0 time=1
control_change channel=0 control=64 value=121 time=15
control_change channel=0 control=64 value=127 time=15
note_on channel=0 note=57 velocity=78 time=59
note_on channel=0 note=69 velocity=88 time=3
note_on channel=0 note=40 velocity=0 time=1
note_on channel=0 note=41 velocity=61 time=0
note_on channel=0 note=65 velocity=0 time=10
note_on channel=0 note=63 velocity=0 time=5
note_on channel=0 note=57 velocity=0 time=12
note_on channel=0 note=69 velocity=0 time=38
control_change channel=0 control=64 value=96 time=54
note_on channel=0 note=41 velocity=0 time=13
control_change channel=0 control=64 value=71 time=2
note_on channel=0 note=72 velocity=89 time=12
control_change channel=0 control=64 value=0 time=3
note_on channel=0 note=38 velocity=56 time=7
note_on channel=0 note=60 velocity=68 time=2
note_on channel=0 note=36 velocity=0 time=17
control_change channel=0 control=64 value=46 time=21
control_change channel=0 control=64 value=64 time=15
control_change channel=0 control=64 value=70 time=14
note_on channel=0 note=72 velocity=0 time=12
control_change channel=0 control=64 value=74 time=4
control_change channel=0 control=64 value=78 time=15
control_change channel=0 control=64 value=80 time=13
note_on channel=0 note=60 velocity=0 time=8
control_change channel=0 control=64 value=82 time=8
control_change channel=0 control=64 value=85 time=15
control_change channel=0 control=64 value=88 time=16
note_on channel=0 note=65 velocity=57 time=10
note_on channel=0 note=62 velocity=52 time=4
control_change channel=0 control=64 value=90 time=1
control_change channel=0 control=64 value=91 time=15
control_change channel=0 control=64 value=92 time=15
note_on channel=0 note=65 velocity=0 time=0
note_on channel=0 note=62 velocity=0 time=3
control_change channel=0 control=64 value=93 time=12
control_change channel=0 control=64 value=95 time=15
control_change channel=0 control=64 value=98 time=24
control_change channel=0 control=64 value=99 time=15
note_on channel=0 note=65 velocity=30 time=58
control_change channel=0 control=64 value=100 time=2
control_change channel=0 control=64 value=100 time=15
control_change channel=0 control=64 value=101 time=16
note_on channel=0 note=65 velocity=0 time=7
note_on channel=0 note=62 velocity=48 time=41
control_change channel=0 control=64 value=102 time=12
note_on channel=0 note=41 velocity=57 time=1
note_on channel=0 note=65 velocity=56 time=1
control_change channel=0 control=64 value=103 time=11
note_on channel=0 note=62 velocity=0 time=15
control_change channel=0 control=64 value=105 time=1
note_on channel=0 note=65 velocity=0 time=5
control_change channel=0 control=64 value=105 time=10
control_change channel=0 control=64 value=106 time=14
note_on channel=0 note=38 velocity=0 time=8
control_change channel=0 control=64 value=110 time=8
control_change channel=0 control=64 value=119 time=15
control_change channel=0 control=64 value=127 time=16
note_on channel=0 note=65 velocity=69 time=12
note_on channel=0 note=62 velocity=44 time=6
note_on channel=0 note=62 velocity=0 time=53
note_on channel=0 note=70 velocity=83 time=48
note_on channel=0 note=58 velocity=76 time=3
note_on channel=0 note=65 velocity=0 time=15
note_on channel=0 note=58 velocity=0 time=22
note_on channel=0 note=70 velocity=0 time=18
note_on channel=0 note=72 velocity=88 time=81
control_change channel=0 control=64 value=107 time=1
note_on channel=0 note=41 velocity=0 time=4
note_on channel=0 note=60 velocity=65 time=7
note_on channel=0 note=45 velocity=58 time=1
control_change channel=0 control=64 value=88 time=3
control_change channel=0 control=64 value=85 time=16
control_change channel=0 control=64 value=87 time=14
control_change channel=0 control=64 value=91 time=16
control_change channel=0 control=64 value=100 time=15
control_change channel=0 control=64 value=127 time=16
note_on channel=0 note=72 velocity=0 time=7
note_on channel=0 note=65 velocity=80 time=37
note_on channel=0 note=62 velocity=79 time=2
note_on channel=0 note=60 velocity=0 time=11
note_on channel=0 note=62 velocity=0 time=127
note_on channel=0 note=58 velocity=82 time=19
note_on channel=0 note=70 velocity=92 time=2
note_on channel=0 note=45 velocity=0 time=3
note_on channel=0 note=65 velocity=0 time=8
note_on channel=0 note=46 velocity=65 time=4
note_on channel=0 note=58 velocity=0 time=7
note_on channel=0 note=70 velocity=0 time=41
control_change channel=0 control=64 value=101 time=148
note_on channel=0 note=46 velocity=0 time=3
control_change channel=0 control=64 value=74 time=12
note_on channel=0 note=84 velocity=87 time=13
control_change channel=0 control=64 value=0 time=1
note_on channel=0 note=50 velocity=64 time=6
note_on channel=0 note=72 velocity=81 time=3
note_on channel=0 note=38 velocity=59 time=1
control_change channel=0 control=64 value=49 time=21
control_change channel=0 control=64 value=63 time=14
control_change channel=0 control=64 value=67 time=16
control_change channel=0 control=64 value=72 time=16
control_change channel=0 control=64 value=78 time=16
control_change channel=0 control=64 value=85 time=15
control_change channel=0 control=64 value=91 time=15
note_on channel=0 note=38 velocity=0 time=8
note_on channel=0 note=84 velocity=0 time=7
control_change channel=0 control=64 value=94 time=1
note_on channel=0 note=83 velocity=18 time=4
note_on channel=0 note=50 velocity=0 time=5
control_change channel=0 control=64 value=97 time=5
control_change channel=0 control=64 value=101 time=16
note_on channel=0 note=83 velocity=0 time=14
control_change channel=0 control=64 value=106 time=1
control_change channel=0 control=64 value=112 time=15
control_change channel=0 control=64 value=119 time=16
note_on channel=0 note=78 velocity=53 time=10
control_change channel=0 control=64 value=124 time=4
note_on channel=0 note=74 velocity=55 time=2
control_change channel=0 control=64 value=127 time=13
note_on channel=0 note=78 velocity=0 time=30
note_on channel=0 note=74 velocity=0 time=11
note_on channel=0 note=72 velocity=0 time=39
note_on channel=0 note=54 velocity=70 time=33
note_on channel=0 note=42 velocity=55 time=8
note_on channel=0 note=78 velocity=55 time=28
note_on channel=0 note=54 velocity=0 time=10
note_on channel=0 note=74 velocity=45 time=15
note_on channel=0 note=42 velocity=0 time=5
note_on channel=0 note=78 velocity=0 time=19
note_on channel=0 note=74 velocity=0 time=3
control_change channel=0 control=64 value=116 time=50
control_change channel=0 control=64 value=114 time=15
note_on channel=0 note=74 velocity=61 time=29
note_on channel=0 note=78 velocity=71 time=0
note_on channel=0 note=57 velocity=70 time=1
note_on channel=0 note=45 velocity=71 time=1
control_change channel=0 control=64 value=115 time=14
control_change channel=0 control=64 value=118 time=16
note_on channel=0 note=74 velocity=0 time=3
control_change channel=0 control=64 value=122 time=12
note_on channel=0 note=78 velocity=0 time=8
control_change channel=0 control=64 value=126 time=7
note_on channel=0 note=45 velocity=0 time=13
control_change channel=0 control=64 value=127 time=3
note_on channel=0 note=57 velocity=0 time=15
note_on channel=0 note=78 velocity=69 time=19
note_on channel=0 note=74 velocity=70 time=15
note_on channel=0 note=74 velocity=0 time=58
note_on channel=0 note=82 velocity=94 time=37
note_on channel=0 note=58 velocity=80 time=1
note_on channel=0 note=70 velocity=85 time=2
note_on channel=0 note=46 velocity=76 time=6
note_on channel=0 note=58 velocity=0 time=16
note_on channel=0 note=46 velocity=0 time=18
note_on channel=0 note=70 velocity=0 time=19
note_on channel=0 note=82 velocity=0 time=14
note_on channel=0 note=78 velocity=0 time=23
control_change channel=0 control=64 value=108 time=29
note_on channel=0 note=50 velocity=80 time=7
note_on channel=0 note=81 velocity=95 time=0
note_on channel=0 note=38 velocity=80 time=3
note_on channel=0 note=69 velocity=90 time=0
control_change channel=0 control=64 value=72 time=6
control_change channel=0 control=64 value=57 time=14
note_on channel=0 note=48 velocity=65 time=0
control_change channel=0 control=64 value=65 time=16
note_on channel=0 note=48 velocity=0 time=12
control_change channel=0 control=64 value=70 time=3
control_change channel=0 control=64 value=75 time=15
control_change channel=0 control=64 value=84 time=16
note_on channel=0 note=38 velocity=0 time=11
control_change channel=0 control=64 value=97 time=3
note_on channel=0 note=50 velocity=0 time=6
control_change channel=0 control=64 value=113 time=9
note_on channel=0 note=74 velocity=85 time=6
note_on channel=0 note=78 velocity=81 time=2
note_on channel=0 note=81 velocity=0 time=0
control_change channel=0 control=64 value=127 time=8
note_on channel=0 note=69 velocity=0 time=4
note_on channel=0 note=74 velocity=0 time=56
note_on channel=0 note=54 velocity=93 time=33
note_on channel=0 note=78 velocity=0 time=0
note_on channel=0 note=70 velocity=95 time=5
note_on channel=0 note=82 velocity=91 time=1
note_on channel=0 note=42 velocity=78 time=3
note_on channel=0 note=54 velocity=0 time=35
note_on channel=0 note=70 velocity=0 time=0
note_on channel=0 note=42 velocity=0 time=3
note_on channel=0 note=80 velocity=28 time=0
note_on channel=0 note=82 velocity=0 time=21
note_on channel=0 note=80 velocity=0 time=14
control_change channel=0 control=64 value=113 time=44
note_on channel=0 note=57 velocity=96 time=1
note_on channel=0 note=45 velocity=91 time=3
note_on channel=0 note=84 velocity=98 time=2
note_on channel=0 note=72 velocity=94 time=6
control_change channel=0 control=64 value=92 time=4
control_change channel=0 control=64 value=88 time=15
control_change channel=0 control=64 value=92 time=15
control_change channel=0 control=64 value=101 time=16
note_on channel=0 note=45 velocity=0 time=2
note_on channel=0 note=84 velocity=0 time=0
control_change channel=0 control=64 value=118 time=12
note_on channel=0 note=57 velocity=0 time=7
control_change channel=0 control=64 value=127 time=9
note_on channel=0 note=74 velocity=87 time=25
note_on channel=0 note=78 velocity=88 time=1
note_on channel=0 note=72 velocity=0 time=1
note_on channel=0 note=74 velocity=0 time=69
note_on channel=0 note=78 velocity=0 time=30
note_on channel=0 note=58 velocity=90 time=10
note_on channel=0 note=46 velocity=81 time=6
note_on channel=0 note=70 velocity=99 time=1
note_on channel=0 note=82 velocity=96 time=2
note_on channel=0 note=58 velocity=0 time=16
note_on channel=0 note=46 velocity=0 time=15
note_on channel=0 note=80 velocity=43 time=2
note_on channel=0 note=70 velocity=0 time=22
note_on channel=0 note=80 velocity=0 time=3
note_on channel=0 note=82 velocity=0 time=4
control_change channel=0 control=64 value=114 time=37
control_change channel=0 control=64 value=71 time=15
note_on channel=0 note=50 velocity=88 time=9
note_on channel=0 note=38 velocity=83 time=3
note_on channel=0 note=69 velocity=101 time=0
note_on channel=0 note=81 velocity=94 time=0
control_change channel=0 control=64 value=0 time=2
control_change channel=0 control=64 value=46 time=16
control_change channel=0 control=64 value=64 time=15
note_on channel=0 note=38 velocity=0 time=14
control_change channel=0 control=64 value=71 time=1
note_on channel=0 note=50 velocity=0 time=11
control_change channel=0 control=64 value=79 time=4
control_change channel=0 control=64 value=91 time=15
control_change channel=0 control=64 value=100 time=16
control_change channel=0 control=64 value=104 time=16
note_on channel=0 note=74 velocity=89 time=6
note_on channel=0 note=78 velocity=85 time=2
note_on channel=0 note=81 velocity=0 time=3
control_change channel=0 control=64 value=107 time=4
note_on channel=0 note=69 velocity=0 time=10
control_change channel=0 control=64 value=111 time=6
control_change channel=0 control=64 value=116 time=14
control_change channel=0 control=64 value=124 time=16
control_change channel=0 control=64 value=127 time=15
note_on channel=0 note=74 velocity=0 time=7
note_on channel=0 note=78 velocity=0 time=32
note_on channel=0 note=54 velocity=90 time=16
note_on channel=0 note=42 velocity=80 time=3
note_on channel=0 note=70 velocity=99 time=0
note_on channel=0 note=82 velocity=92 time=5
note_on channel=0 note=80 velocity=66 time=13
note_on channel=0 note=54 velocity=0 time=3
note_on channel=0 note=42 velocity=0 time=6
note_on channel=0 note=80 velocity=0 time=9
note_on channel=0 note=70 velocity=0 time=15
note_on channel=0 note=82 velocity=0 time=10
control_change channel=0 control=64 value=110 time=34
control_change channel=0 control=64 value=95 time=14
note_on channel=0 note=62 velocity=98 time=14
note_on channel=0 note=69 velocity=98 time=4
note_on channel=0 note=50 velocity=81 time=10
note_on channel=0 note=81 velocity=99 time=0
control_change channel=0 control=64 value=103 time=10
note_on channel=0 note=52 velocity=79 time=1
note_on channel=0 note=62 velocity=0 time=2
note_on channel=0 note=50 velocity=0 time=12
control_change channel=0 control=64 value=115 time=1
control_change channel=0 control=64 value=127 time=15
note_on channel=0 note=52 velocity=0 time=1
note_on channel=0 note=81 velocity=0 time=77
note_on channel=0 note=74 velocity=87 time=5
note_on channel=0 note=78 velocity=86 time=6
note_on channel=0 note=69 velocity=0 time=5
note_on channel=0 note=74 velocity=0 time=52
note_on channel=0 note=78 velocity=0 time=38
note_on channel=0 note=70 velocity=93 time=31
note_on channel=0 note=82 velocity=98 time=1
note_on channel=0 note=70 velocity=0 time=34
note_on channel=0 note=82 velocity=0 time=33
note_on channel=0 note=84 velocity=101 time=82
note_on channel=0 note=72 velocity=93 time=3
note_on channel=0 note=78 velocity=81 time=4
control_change channel=0 control=64 value=126 time=8
control_change channel=0 control=64 value=85 time=15
control_change channel=0 control=64 value=61 time=15
control_change channel=0 control=64 value=0 time=15
control_change channel=0 control=64 value=28 time=30
control_change channel=0 control=64 value=61 time=15
control_change channel=0 control=64 value=67 time=15
note_on channel=0 note=50 velocity=93 time=16
control_change channel=0 control=64 value=71 time=1
note_on channel=0 note=38 velocity=78 time=6
note_on channel=0 note=42 velocity=76 time=2
control_change channel=0 control=64 value=76 time=7
note_on channel=0 note=72 velocity=0 time=11
control_change channel=0 control=64 value=82 time=4
note_on channel=0 note=84 velocity=0 time=9
note_on channel=0 note=38 velocity=0 time=3
note_on channel=0 note=42 velocity=0 time=3
note_on channel=0 note=50 velocity=0 time=0
control_change channel=0 control=64 value=86 time=1
control_change channel=0 control=64 value=89 time=15
control_change channel=0 control=64 value=93 time=15
note_on channel=0 note=78 velocity=0 time=9
control_change channel=0 control=64 value=98 time=6
control_change channel=0 control=64 value=101 time=16
control_change channel=0 control=64 value=104 time=16
control_change channel=0 control=64 value=106 time=15
note_on channel=0 note=42 velocity=79 time=2
note_on channel=0 note=50 velocity=91 time=2
note_on channel=0 note=70 velocity=97 time=0
note_on channel=0 note=82 velocity=104 time=3
note_on channel=0 note=38 velocity=76 time=5
control_change channel=0 control=64 value=107 time=2
note_on channel=0 note=78 velocity=57 time=19
control_change channel=0 control=64 value=108 time=12
note_on channel=0 note=50 velocity=0 time=0
note_on channel=0 note=38 velocity=0 time=8
note_on channel=0 note=70 velocity=0 time=0
note_on channel=0 note=42 velocity=0 time=5
control_change channel=0 control=64 value=112 time=2
note_on channel=0 note=78 velocity=0 time=3
control_change channel=0 control=64 value=123 time=12
control_change channel=0 control=64 value=127 time=24
note_on channel=0 note=82 velocity=0 time=7
control_change channel=0 control=64 value=109 time=23
control_change channel=0 control=64 value=79 time=15
note_on channel=0 note=50 velocity=94 time=10
note_on channel=0 note=38 velocity=78 time=3
note_on channel=0 note=42 velocity=85 time=0
control_change channel=0 control=64 value=0 time=2
note_on channel=0 note=69 velocity=98 time=3
note_on channel=0 note=81 velocity=106 time=0
note_on channel=0 note=78 velocity=85 time=4
control_change channel=0 control=64 value=52 time=54
note_on channel=0 note=50 velocity=0 time=11
control_change channel=0 control=64 value=67 time=4
note_on channel=0 note=38 velocity=0 time=6
control_change channel=0 control=64 value=73 time=9
control_change channel=0 control=64 value=79 time=15
control_change channel=0 control=64 value=84 time=15
control_change channel=0 control=64 value=87 time=15
note_on channel=0 note=42 velocity=0 time=6
note_on channel=0 note=52 velocity=102 time=7
control_change channel=0 control=64 value=88 time=3
note_on channel=0 note=69 velocity=0 time=5
note_on channel=0 note=40 velocity=85 time=2
note_on channel=0 note=42 velocity=44 time=3
control_change channel=0 control=64 value=87 time=5
control_change channel=0 control=64 value=77 time=15
note_on channel=0 note=81 velocity=0 time=7
control_change channel=0 control=64 value=59 time=8
note_on channel=0 note=42 velocity=0 time=3
note_on channel=0 note=52 velocity=0 time=9
control_change channel=0 control=64 value=0 time=3
note_on channel=0 note=78 velocity=0 time=0
control_change channel=0 control=64 value=50 time=16
note_on channel=0 note=40 velocity=0 time=11
control_change channel=0 control=64 value=61 time=4
control_change channel=0 control=64 value=66 time=16
control_change channel=0 control=64 value=71 time=14
control_change channel=0 control=64 value=69 time=15
control_change channel=0 control=64 value=24 time=16
note_on channel=0 note=82 velocity=103 time=6
note_on channel=0 note=70 velocity=99 time=3
control_change channel=0 control=64 value=0 time=6
note_on channel=0 note=50 velocity=101 time=3
note_on channel=0 note=42 velocity=81 time=3
note_on channel=0 note=38 velocity=73 time=8
control_change channel=0 control=64 value=17 time=48
note_on channel=0 note=40 velocity=9 time=5
note_on channel=0 note=40 velocity=0 time=1
control_change channel=0 control=64 value=64 time=8
note_on channel=0 note=50 velocity=0 time=8
note_on channel=0 note=38 velocity=0 time=1
note_on channel=0 note=70 velocity=0 time=2
control_change channel=0 control=64 value=75 time=4
control_change channel=0 control=64 value=83 time=16
note_on channel=0 note=42 velocity=0 time=0
note_on channel=0 note=82 velocity=0 time=13
control_change channel=0 control=64 value=81 time=1
control_change channel=0 control=64 value=68 time=15
control_change channel=0 control=64 value=0 time=16
note_on channel=0 note=50 velocity=97 time=19
note_on channel=0 note=42 velocity=81 time=4
note_on channel=0 note=71 velocity=101 time=2
note_on channel=0 note=78 velocity=87 time=1
note_on channel=0 note=83 velocity=99 time=2
note_on channel=0 note=38 velocity=82 time=1
control_change channel=0 control=64 value=64 time=33
control_change channel=0 control=64 value=72 time=15
control_change channel=0 control=64 value=79 time=15
note_on channel=0 note=38 velocity=0 time=5
control_change channel=0 control=64 value=87 time=11
note_on channel=0 note=50 velocity=0 time=1
control_change channel=0 control=64 value=94 time=14
control_change channel=0 control=64 value=100 time=15
control_change channel=0 control=64 value=107 time=15
note_on channel=0 note=42 velocity=0 time=10
control_change channel=0 control=64 value=124 time=5
control_change channel=0 control=64 value=127 time=15
note_on channel=0 note=52 velocity=95 time=29
control_change channel=0 control=64 value=98 time=2
note_on channel=0 note=40 velocity=86 time=1
control_change channel=0 control=64 value=71 time=22
control_change channel=0 control=64 value=0 time=15
control_change channel=0 control=64 value=49 time=16
note_on channel=0 note=43 velocity=14 time=7
note_on channel=0 note=71 velocity=0 time=5
control_change channel=0 control=64 value=65 time=2
control_change channel=0 control=64 value=71 time=15
note_on channel=0 note=83 velocity=0 time=3
note_on channel=0 note=52 velocity=0 time=1
control_change channel=0 control=64 value=78 time=12
control_change channel=0 control=64 value=91 time=15
note_on channel=0 note=43 velocity=0 time=3
control_change channel=0 control=64 value=113 time=12
control_change channel=0 control=64 value=127 time=15
note_on channel=0 note=78 velocity=0 time=13
note_on channel=0 note=40 velocity=0 time=9
control_change channel=0 control=64 value=96 time=9
control_change channel=0 control=64 value=69 time=15
control_change channel=0 control=64 value=0 time=14
note_on channel=0 note=50 velocity=98 time=15
note_on channel=0 note=72 velocity=100 time=0
note_on channel=0 note=84 velocity=104 time=0
note_on channel=0 note=78 velocity=96 time=5
note_on channel=0 note=38 velocity=82 time=1
control_change channel=0 control=64 value=60 time=10
note_on channel=0 note=43 velocity=59 time=11
note_on channel=0 note=50 velocity=0 time=0
note_on channel=0 note=42 velocity=35 time=2
control_change channel=0 control=64 value=68 time=2
note_on channel=0 note=38 velocity=0 time=1
control_change channel=0 control=64 value=75 time=15
note_on channel=0 note=43 velocity=0 time=7
control_change channel=0 control=64 value=82 time=7
note_on channel=0 note=42 velocity=0 time=8
control_change channel=0 control=64 value=87 time=8
control_change channel=0 control=64 value=91 time=15
control_change channel=0 control=64 value=93 time=15
control_change channel=0 control=64 value=95 time=15
control_change channel=0 control=64 value=96 time=15
note_on channel=0 note=84 velocity=0 time=3
note_on channel=0 note=72 velocity=0 time=6
control_change channel=0 control=64 value=100 time=6
control_change channel=0 control=64 value=107 time=16
control_change channel=0 control=64 value=116 time=14
control_change channel=0 control=64 value=118 time=16
note_on channel=0 note=78 velocity=0 time=6
control_change channel=0 control=64 value=117 time=9
control_change channel=0 control=64 value=98 time=15
control_change channel=0 control=64 value=73 time=16
control_change channel=0 control=64 value=0 time=15
note_on channel=0 note=73 velocity=103 time=23
note_on channel=0 note=85 velocity=103 time=2
note_on channel=0 note=81 velocity=85 time=1
note_on channel=0 note=49 velocity=95 time=2
note_on channel=0 note=37 velocity=89 time=3
note_on channel=0 note=78 velocity=77 time=9
control_change channel=0 control=64 value=57 time=6
note_on channel=0 note=49 velocity=0 time=3
note_on channel=0 note=37 velocity=0 time=7
control_change channel=0 control=64 value=67 time=6
control_change channel=0 control=64 value=72 time=14
control_change channel=0 control=64 value=76 time=15
control_change channel=0 control=64 value=79 time=16
control_change channel=0 control=64 value=81 time=14
control_change channel=0 control=64 value=84 time=16
note_on channel=0 note=73 velocity=0 time=10
note_on channel=0 note=85 velocity=0 time=2
control_change channel=0 control=64 value=86 time=3
note_on channel=0 note=78 velocity=0 time=9
control_change channel=0 control=64 value=88 time=7
note_on channel=0 note=81 velocity=0 time=4
control_change channel=0 control=64 value=89 time=12
control_change channel=0 control=64 value=88 time=15
control_change channel=0 control=64 value=83 time=15
control_change channel=0 control=64 value=70 time=15
control_change channel=0 control=64 value=61 time=15
note_on channel=0 note=54 velocity=93 time=0
note_on channel=0 note=42 velocity=89 time=1
note_on channel=0 note=73 velocity=98 time=3
note_on channel=0 note=85 velocity=96 time=2
note_on channel=0 note=81 velocity=87 time=7
note_on channel=0 note=78 velocity=82 time=2
control_change channel=0 control=64 value=67 time=1
note_on channel=0 note=54 velocity=0 time=10
control_change channel=0 control=64 value=72 time=5
note_on channel=0 note=42 velocity=0 time=6
control_change channel=0 control=64 value=77 time=9
control_change channel=0 control=64 value=80 time=22
note_on channel=0 note=73 velocity=0 time=2
note_on channel=0 note=78 velocity=0 time=7
note_on channel=0 note=81 velocity=0 time=1
control_change channel=0 control=64 value=79 time=5
note_on channel=0 note=85 velocity=0 time=9
control_change channel=0 control=64 value=73 time=7
control_change channel=0 control=64 value=65 time=15
control_change channel=0 control=64 value=64 time=15
control_change channel=0 control=64 value=70 time=16
note_on channel=0 note=56 velocity=99 time=2
note_on channel=0 note=44 velocity=85 time=6
note_on channel=0 note=73 velocity=96 time=3
control_change channel=0 control=64 value=75 time=3
note_on channel=0 note=78 velocity=83 time=6
note_on channel=0 note=85 velocity=83 time=0
note_on channel=0 note=81 velocity=83 time=1
control_change channel=0 control=64 value=81 time=9
control_change channel=0 control=64 value=90 time=15
note_on channel=0 note=56 velocity=0 time=3
note_on channel=0 note=73 velocity=0 time=8
control_change channel=0 control=64 value=100 time=4
note_on channel=0 note=78 velocity=0 time=11
note_on channel=0 note=81 velocity=0 time=4
control_change channel=0 control=64 value=103 time=1
note_on channel=0 note=85 velocity=0 time=5
control_change channel=0 control=64 value=99 time=10
control_change channel=0 control=64 value=89 time=16
note_on channel=0 note=44 velocity=0 time=0
control_change channel=0 control=64 value=77 time=14
note_on channel=0 note=57 velocity=84 time=10
control_change channel=0 control=64 value=71 time=5
note_on channel=0 note=45 velocity=81 time=1
note_on channel=0 note=73 velocity=94 time=5
note_on channel=0 note=78 velocity=81 time=7
note_on channel=0 note=85 velocity=76 time=1
note_on channel=0 note=81 velocity=77 time=1
control_change channel=0 control=64 value=79 time=1
note_on channel=0 note=57 velocity=0 time=2
control_change channel=0 control=64 value=93 time=13
note_on channel=0 note=45 velocity=0 time=1
note_on channel=0 note=73 velocity=0 time=2
note_on channel=0 note=78 velocity=0 time=10
control_change channel=0 control=64 value=109 time=1
note_on channel=0 note=81 velocity=0 time=6
control_change channel=0 control=64 value=112 time=10
note_on channel=0 note=85 velocity=0 time=3
control_change channel=0 control=64 value=103 time=12
control_change channel=0 control=64 value=81 time=16
control_change channel=0 control=64 value=65 time=15
control_change channel=0 control=64 value=67 time=14
note_on channel=0 note=49 velocity=93 time=2
note_on channel=0 note=73 velocity=95 time=1
note_on channel=0 note=37 velocity=79 time=2
note_on channel=0 note=85 velocity=77 time=3
note_on channel=0 note=78 velocity=84 time=6
control_change channel=0 control=64 value=82 time=2
note_on channel=0 note=81 velocity=77 time=0
note_on channel=0 note=73 velocity=0 time=10
note_on channel=0 note=49 velocity=0 time=1
control_change channel=0 control=64 value=99 time=4
note_on channel=0 note=78 velocity=0 time=2
note_on channel=0 note=37 velocity=0 time=2
note_on channel=0 note=81 velocity=0 time=3
control_change channel=0 control=64 value=116 time=8
note_on channel=0 note=85 velocity=0 time=7
control_change channel=0 control=64 value=115 time=9
control_change channel=0 control=64 value=101 time=14
control_change channel=0 control=64 value=87 time=16
control_change channel=0 control=64 value=82 time=15
note_on channel=0 note=73 velocity=99 time=6
note_on channel=0 note=42 velocity=94 time=2
note_on channel=0 note=54 velocity=99 time=2
note_on channel=0 note=85 velocity=82 time=1
control_change channel=0 control=64 value=84 time=3
note_on channel=0 note=78 velocity=82 time=0
note_on channel=0 note=81 velocity=79 time=1
control_change channel=0 control=64 value=90 time=15
note_on channel=0 note=73 velocity=0 time=4
note_on channel=0 note=78 velocity=0 time=2
note_on channel=0 note=81 velocity=0 time=6
control_change channel=0 control=64 value=94 time=3
note_on channel=0 note=54 velocity=0 time=3
note_on channel=0 note=42 velocity=0 time=7
note_on channel=0 note=85 velocity=0 time=3
control_change channel=0 control=64 value=97 time=2
control_change channel=0 control=64 value=98 time=16
control_change channel=0 control=64 value=99 time=15
control_change channel=0 control=64 value=102 time=16
note_on channel=0 note=56 velocity=99 time=8
note_on channel=0 note=73 velocity=98 time=2
control_change channel=0 control=64 value=106 time=4
note_on channel=0 note=85 velocity=79 time=1
note_on channel=0 note=44 velocity=82 time=1
note_on channel=0 note=78 velocity=86 time=1
note_on channel=0 note=81 velocity=81 time=4
control_change channel=0 control=64 value=109 time=8
note_on channel=0 note=73 velocity=0 time=8
note_on channel=0 note=78 velocity=0 time=2
note_on channel=0 note=81 velocity=0 time=3
control_change channel=0 control=64 value=110 time=3
note_on channel=0 note=56 velocity=0 time=6
note_on channel=0 note=85 velocity=0 time=2
note_on channel=0 note=46 velocity=23 time=4
note_on channel=0 note=44 velocity=0 time=26
note_on channel=0 note=46 velocity=0 time=17
note_on channel=0 note=57 velocity=90 time=13
note_on channel=0 note=45 velocity=89 time=6
note_on channel=0 note=73 velocity=100 time=4
note_on channel=0 note=78 velocity=88 time=5
note_on channel=0 note=81 velocity=82 time=3
note_on channel=0 note=85 velocity=79 time=1
note_on channel=0 note=57 velocity=0 time=5
note_on channel=0 note=73 velocity=0 time=9
note_on channel=0 note=78 velocity=0 time=10
note_on channel=0 note=81 velocity=0 time=1
note_on channel=0 note=45 velocity=0 time=1
note_on channel=0 note=85 velocity=0 time=6
control_change channel=0 control=64 value=110 time=34
note_on channel=0 note=49 velocity=101 time=44
note_on channel=0 note=37 velocity=90 time=2
note_on channel=0 note=73 velocity=97 time=1
note_on channel=0 note=78 velocity=87 time=5
note_on channel=0 note=85 velocity=81 time=3
note_on channel=0 note=81 velocity=78 time=3
note_on channel=0 note=73 velocity=0 time=9
note_on channel=0 note=37 velocity=0 time=6
note_on channel=0 note=49 velocity=0 time=0
note_on channel=0 note=78 velocity=0 time=3
note_on channel=0 note=81 velocity=0 time=4
note_on channel=0 note=85 velocity=0 time=11
control_change channel=0 control=64 value=110 time=22
control_change channel=0 control=64 value=102 time=16
control_change channel=0 control=64 value=79 time=14
note_on channel=0 note=73 velocity=93 time=9
note_on channel=0 note=42 velocity=91 time=3
control_change channel=0 control=64 value=0 time=4
note_on channel=0 note=54 velocity=94 time=0
note_on channel=0 note=85 velocity=75 time=1
note_on channel=0 note=78 velocity=81 time=1
note_on channel=0 note=81 velocity=76 time=2
note_on channel=0 note=73 velocity=0 time=14
note_on channel=0 note=54 velocity=0 time=3
note_on channel=0 note=78 velocity=0 time=3
note_on channel=0 note=81 velocity=0 time=3
note_on channel=0 note=85 velocity=0 time=5
note_on channel=0 note=42 velocity=0 time=8
note_on channel=0 note=56 velocity=100 time=57
note_on channel=0 note=44 velocity=83 time=4
note_on channel=0 note=73 velocity=97 time=2
note_on channel=0 note=78 velocity=87 time=7
note_on channel=0 note=81 velocity=75 time=3
note_on channel=0 note=85 velocity=75 time=0
note_on channel=0 note=73 velocity=0 time=14
note_on channel=0 note=78 velocity=0 time=9
note_on channel=0 note=56 velocity=0 time=2
note_on channel=0 note=81 velocity=0 time=0
note_on channel=0 note=85 velocity=0 time=4
note_on channel=0 note=44 velocity=0 time=11
note_on channel=0 note=57 velocity=87 time=55
note_on channel=0 note=73 velocity=104 time=2
note_on channel=0 note=45 velocity=76 time=7
note_on channel=0 note=78 velocity=89 time=2
note_on channel=0 note=85 velocity=79 time=1
note_on channel=0 note=81 velocity=79 time=4
note_on channel=0 note=57 velocity=0 time=17
note_on channel=0 note=45 velocity=0 time=1
note_on channel=0 note=73 velocity=0 time=12
note_on channel=0 note=78 velocity=0 time=5
note_on channel=0 note=81 velocity=0 time=7
note_on channel=0 note=85 velocity=0 time=6
note_on channel=0 note=73 velocity=111 time=59
note_on channel=0 note=61 velocity=95 time=2
note_on channel=0 note=85 velocity=87 time=0
note_on channel=0 note=81 velocity=86 time=1
note_on channel=0 note=49 velocity=97 time=1
note_on channel=0 note=78 velocity=90 time=4
control_change channel=0 control=64 value=70 time=9
note_on channel=0 note=61 velocity=0 time=6
control_change channel=0 control=64 value=97 time=10
note_on channel=0 note=49 velocity=0 time=0
note_on channel=0 note=73 velocity=0 time=2
note_on channel=0 note=85 velocity=0 time=12
control_change channel=0 control=64 value=127 time=1
note_on channel=0 note=81 velocity=0 time=2
note_on channel=0 note=78 velocity=0 time=1
control_change channel=0 control=64 value=114 time=249
control_change channel=0 control=64 value=82 time=16
control_change channel=0 control=64 value=0 time=15
note_on channel=0 note=78 velocity=91 time=64
note_on channel=0 note=66 velocity=80 time=2
note_on channel=0 note=42 velocity=62 time=9
note_on channel=0 note=54 velocity=67 time=0
note_on channel=0 note=78 velocity=0 time=7
note_on channel=0 note=66 velocity=0 time=4
note_on channel=0 note=42 velocity=0 time=15
note_on channel=0 note=54 velocity=0 time=1
note_on channel=0 note=56 velocity=87 time=66
note_on channel=0 note=68 velocity=94 time=1
note_on channel=0 note=80 velocity=95 time=2
note_on channel=0 note=44 velocity=75 time=2
note_on channel=0 note=56 velocity=0 time=21
note_on channel=0 note=68 velocity=0 time=2
note_on channel=0 note=80 velocity=0 time=10
note_on channel=0 note=44 velocity=0 time=3
note_on channel=0 note=57 velocity=86 time=76
note_on channel=0 note=69 velocity=98 time=0
note_on channel=0 note=81 velocity=108 time=0
note_on channel=0 note=45 velocity=70 time=9
note_on channel=0 note=57 velocity=0 time=16
note_on channel=0 note=69 velocity=0 time=3
note_on channel=0 note=81 velocity=0 time=5
note_on channel=0 note=45 velocity=0 time=2
note_on channel=0 note=62 velocity=95 time=99
note_on channel=0 note=50 velocity=96 time=2
note_on channel=0 note=86 velocity=107 time=0
note_on channel=0 note=74 velocity=101 time=1
note_on channel=0 note=62 velocity=0 time=16
note_on channel=0 note=50 velocity=0 time=3
note_on channel=0 note=74 velocity=0 time=0
note_on channel=0 note=86 velocity=0 time=4
control_change channel=0 control=64 value=70 time=10
control_change channel=0 control=64 value=92 time=16
control_change channel=0 control=64 value=127 time=15
control_change channel=0 control=64 value=120 time=106
control_change channel=0 control=64 value=80 time=15
control_change channel=0 control=64 value=0 time=16
note_on channel=0 note=54 velocity=79 time=217
note_on channel=0 note=42 velocity=67 time=2
note_on channel=0 note=78 velocity=92 time=1
note_on channel=0 note=66 velocity=86 time=2
note_on channel=0 note=66 velocity=0 time=19
note_on channel=0 note=54 velocity=0 time=2
note_on channel=0 note=42 velocity=0 time=8
note_on channel=0 note=78 velocity=0 time=0
note_on channel=0 note=56 velocity=93 time=81
note_on channel=0 note=44 velocity=78 time=3
note_on channel=0 note=80 velocity=99 time=4
note_on channel=0 note=68 velocity=92 time=1
note_on channel=0 note=56 velocity=0 time=20
note_on channel=0 note=68 velocity=0 time=10
note_on channel=0 note=44 velocity=0 time=5
note_on channel=0 note=80 velocity=0 time=4
note_on channel=0 note=57 velocity=91 time=80
note_on channel=0 note=69 velocity=102 time=7
note_on channel=0 note=45 velocity=78 time=1
note_on channel=0 note=81 velocity=105 time=0
note_on channel=0 note=45 velocity=0 time=23
note_on channel=0 note=69 velocity=0 time=0
note_on channel=0 note=57 velocity=0 time=1
note_on channel=0 note=81 velocity=0 time=6
note_on channel=0 note=75 velocity=99 time=150
note_on channel=0 note=87 velocity=111 time=0
note_on channel=0 note=63 velocity=104 time=2
note_on channel=0 note=51 velocity=82 time=2
control_change channel=0 control=64 value=77 time=10
control_change channel=0 control=64 value=127 time=16
note_on channel=0 note=51 velocity=0 time=1
note_on channel=0 note=75 velocity=0 time=0
note_on channel=0 note=87 velocity=0 time=7
note_on channel=0 note=63 velocity=0 time=2
control_change channel=0 control=64 value=108 time=255
control_change channel=0 control=64 value=88 time=17
control_change channel=0 control=64 value=73 time=15
control_change channel=0 control=64 value=53 time=15
control_change channel=0 control=64 value=0 time=16
note_on channel=0 note=52 velocity=99 time=316
note_on channel=0 note=76 velocity=100 time=2
note_on channel=0 note=81 velocity=86 time=3
note_on channel=0 note=85 velocity=96 time=0
note_on channel=0 note=88 velocity=97 time=0
note_on channel=0 note=40 velocity=92 time=2
control_change channel=0 control=64 value=63 time=10
control_change channel=0 control=64 value=77 time=15
control_change channel=0 control=64 value=90 time=16
control_change channel=0 control=64 value=112 time=15
note_on channel=0 note=40 velocity=0 time=3
note_on channel=0 note=52 velocity=0 time=1
control_change channel=0 control=64 value=127 time=12
note_on channel=0 note=88 velocity=0 time=31
note_on channel=0 note=76 velocity=0 time=1
note_on channel=0 note=81 velocity=0 time=14
note_on channel=0 note=85 velocity=0 time=16
note_on channel=0 note=57 velocity=86 time=67
note_on channel=0 note=76 velocity=93 time=1
note_on channel=0 note=45 velocity=78 time=1
note_on channel=0 note=88 velocity=96 time=0
note_on channel=0 note=85 velocity=87 time=6
note_on channel=0 note=81 velocity=83 time=4
note_on channel=0 note=45 velocity=0 time=24
note_on channel=0 note=57 velocity=0 time=1
note_on channel=0 note=76 velocity=0 time=8
note_on channel=0 note=81 velocity=0 time=2
note_on channel=0 note=88 velocity=0 time=9
note_on channel=0 note=85 velocity=0 time=6
control_change channel=0 control=64 value=118 time=36
control_change channel=0 control=64 value=119 time=23
control_change channel=0 control=64 value=127 time=15
note_on channel=0 note=76 velocity=102 time=0
note_on channel=0 note=59 velocity=98 time=1
note_on channel=0 note=47 velocity=86 time=1
note_on channel=0 note=88 velocity=94 time=1
note_on channel=0 note=85 velocity=81 time=3
note_on channel=0 note=81 velocity=82 time=4
note_on channel=0 note=47 velocity=0 time=15
note_on channel=0 note=59 velocity=0 time=14
note_on channel=0 note=81 velocity=0 time=3
note_on channel=0 note=76 velocity=0 time=2
note_on channel=0 note=88 velocity=0 time=6
note_on channel=0 note=85 velocity=0 time=5
control_change channel=0 control=64 value=106 time=21
control_change channel=0 control=64 value=95 time=16
control_change channel=0 control=64 value=96 time=15
note_on channel=0 note=61 velocity=92 time=4
note_on channel=0 note=49 velocity=88 time=7
note_on channel=0 note=76 velocity=103 time=2
control_change channel=0 control=64 value=100 time=2
note_on channel=0 note=88 velocity=92 time=2
note_on channel=0 note=81 velocity=84 time=4
note_on channel=0 note=61 velocity=0 time=2
note_on channel=0 note=85 velocity=83 time=2
control_change channel=0 control=64 value=106 time=6
note_on channel=0 note=49 velocity=0 time=4
note_on channel=0 note=81 velocity=0 time=8
control_change channel=0 control=64 value=111 time=3
note_on channel=0 note=76 velocity=0 time=6
note_on channel=0 note=85 velocity=0 time=7
control_change channel=0 control=64 value=115 time=2
note_on channel=0 note=88 velocity=0 time=4
control_change channel=0 control=64 value=122 time=12
control_change channel=0 control=64 value=127 time=15
note_on channel=0 note=52 velocity=90 time=31
note_on channel=0 note=40 velocity=87 time=5
note_on channel=0 note=76 velocity=97 time=0
note_on channel=0 note=88 velocity=90 time=2
note_on channel=0 note=81 velocity=86 time=2
control_change channel=0 control=64 value=118 time=5
note_on channel=0 note=85 velocity=83 time=0
control_change channel=0 control=64 value=93 time=15
note_on channel=0 note=52 velocity=0 time=0
note_on channel=0 note=40 velocity=0 time=1
note_on channel=0 note=81 velocity=0 time=0
note_on channel=0 note=76 velocity=0 time=1
note_on channel=0 note=85 velocity=0 time=5
note_on channel=0 note=88 velocity=0 time=5
control_change channel=0 control=64 value=83 time=3
control_change channel=0 control=64 value=86 time=16
control_change channel=0 control=64 value=94 time=15
control_change channel=0 control=64 value=103 time=15
control_change channel=0 control=64 value=111 time=15
note_on channel=0 note=57 velocity=96 time=3
note_on channel=0 note=45 velocity=97 time=1
note_on channel=0 note=76 velocity=102 time=0
note_on channel=0 note=88 velocity=87 time=5
note_on channel=0 note=81 velocity=88 time=1
note_on channel=0 note=85 velocity=85 time=0
control_change channel=0 control=64 value=114 time=5
control_change channel=0 control=64 value=104 time=15
note_on channel=0 note=81 velocity=0 time=2
note_on channel=0 note=76 velocity=0 time=3
note_on channel=0 note=57 velocity=0 time=4
note_on channel=0 note=45 velocity=0 time=3
note_on channel=0 note=85 velocity=0 time=0
note_on channel=0 note=88 velocity=0 time=3
control_change channel=0 control=64 value=82 time=1
control_change channel=0 control=64 value=68 time=15
control_change channel=0 control=64 value=71 time=15
control_change channel=0 control=64 value=81 time=15
control_change channel=0 control=64 value=90 time=15
note_on channel=0 note=76 velocity=95 time=5
note_on channel=0 note=88 velocity=88 time=4
note_on channel=0 note=59 velocity=96 time=1
note_on channel=0 note=81 velocity=89 time=2
note_on channel=0 note=47 velocity=92 time=1
note_on channel=0 note=85 velocity=88 time=0
control_change channel=0 control=64 value=98 time=2
control_change channel=0 control=64 value=106 time=15
note_on channel=0 note=47 velocity=0 time=6
note_on channel=0 note=76 velocity=0 time=1
note_on channel=0 note=81 velocity=0 time=3
control_change channel=0 control=64 value=117 time=5
note_on channel=0 note=59 velocity=0 time=0
note_on channel=0 note=88 velocity=0 time=5
note_on channel=0 note=85 velocity=0 time=9
control_change channel=0 control=64 value=120 time=2
control_change channel=0 control=64 value=127 time=45
note_on channel=0 note=61 velocity=91 time=1
note_on channel=0 note=49 velocity=76 time=6
note_on channel=0 note=76 velocity=97 time=0
note_on channel=0 note=85 velocity=77 time=5
note_on channel=0 note=88 velocity=86 time=1
note_on channel=0 note=81 velocity=81 time=5
note_on channel=0 note=61 velocity=0 time=14
note_on channel=0 note=49 velocity=0 time=3
note_on channel=0 note=81 velocity=0 time=2
note_on channel=0 note=76 velocity=0 time=8
note_on channel=0 note=88 velocity=0 time=7
note_on channel=0 note=85 velocity=0 time=11
note_on channel=0 note=76 velocity=99 time=58
note_on channel=0 note=52 velocity=90 time=2
note_on channel=0 note=88 velocity=89 time=0
note_on channel=0 note=81 velocity=91 time=1
note_on channel=0 note=40 velocity=90 time=2
note_on channel=0 note=85 velocity=73 time=1
note_on channel=0 note=52 velocity=0 time=21
note_on channel=0 note=76 velocity=0 time=0
note_on channel=0 note=40 velocity=0 time=1
note_on channel=0 note=81 velocity=0 time=0
note_on channel=0 note=85 velocity=0 time=6
note_on channel=0 note=88 velocity=0 time=7
note_on channel=0 note=76 velocity=98 time=74
note_on channel=0 note=81 velocity=91 time=6
note_on channel=0 note=88 velocity=88 time=0
note_on channel=0 note=45 velocity=89 time=3
note_on channel=0 note=57 velocity=94 time=0
note_on channel=0 note=85 velocity=82 time=0
note_on channel=0 note=76 velocity=0 time=15
note_on channel=0 note=81 velocity=0 time=0
note_on channel=0 note=85 velocity=0 time=7
note_on channel=0 note=45 velocity=0 time=2
note_on channel=0 note=57 velocity=0 time=0
note_on channel=0 note=88 velocity=0 time=9
control_change channel=0 control=64 value=93 time=4
control_change channel=0 control=64 value=0 time=15
note_on channel=0 note=76 velocity=102 time=44
note_on channel=0 note=59 velocity=94 time=7
note_on channel=0 note=47 velocity=88 time=1
note_on channel=0 note=81 velocity=84 time=0
note_on channel=0 note=85 velocity=77 time=0
note_on channel=0 note=88 velocity=83 time=0
note_on channel=0 note=85 velocity=0 time=15
note_on channel=0 note=47 velocity=0 time=9
note_on channel=0 note=59 velocity=0 time=1
note_on channel=0 note=76 velocity=0 time=3
note_on channel=0 note=81 velocity=0 time=2
note_on channel=0 note=84 velocity=33 time=12
note_on channel=0 note=88 velocity=0 time=1
note_on channel=0 note=84 velocity=0 time=22
note_on channel=0 note=85 velocity=70 time=36
note_on channel=0 note=76 velocity=96 time=1
note_on channel=0 note=61 velocity=103 time=3
note_on channel=0 note=49 velocity=82 time=3
note_on channel=0 note=88 velocity=80 time=0
note_on channel=0 note=81 velocity=84 time=6
note_on channel=0 note=81 velocity=0 time=23
note_on channel=0 note=76 velocity=0 time=1
note_on channel=0 note=61 velocity=0 time=11
note_on channel=0 note=88 velocity=0 time=0
note_on channel=0 note=85 velocity=0 time=9
note_on channel=0 note=49 velocity=0 time=4
note_on channel=0 note=76 velocity=103 time=60
note_on channel=0 note=64 velocity=99 time=1
note_on channel=0 note=88 velocity=95 time=2
note_on channel=0 note=52 velocity=96 time=3
note_on channel=0 note=85 velocity=85 time=1
note_on channel=0 note=82 velocity=56 time=3
note_on channel=0 note=82 velocity=0 time=2
note_on channel=0 note=81 velocity=79 time=6
note_on channel=0 note=76 velocity=0 time=12
control_change channel=0 control=64 value=66 time=1
note_on channel=0 note=64 velocity=0 time=4
note_on channel=0 note=81 velocity=0 time=3
note_on channel=0 note=88 velocity=0 time=6
control_change channel=0 control=64 value=89 time=2
note_on channel=0 note=87 velocity=30 time=1
note_on channel=0 note=52 velocity=0 time=2
note_on channel=0 note=85 velocity=0 time=10
control_change channel=0 control=64 value=127 time=2
note_on channel=0 note=87 velocity=0 time=19
note_on channel=0 note=46 velocity=15 time=145
control_change channel=0 control=64 value=114 time=18
control_change channel=0 control=64 value=90 time=16
control_change channel=0 control=64 value=69 time=14
note_on channel=0 note=46 velocity=0 time=3
control_change channel=0 control=64 value=0 time=12
note_on channel=0 note=69 velocity=92 time=82
note_on channel=0 note=81 velocity=94 time=0
note_on channel=0 note=57 velocity=73 time=2
note_on channel=0 note=45 velocity=54 time=12
note_on channel=0 note=57 velocity=0 time=19
note_on channel=0 note=69 velocity=0 time=0
note_on channel=0 note=81 velocity=0 time=7
note_on channel=0 note=45 velocity=0 time=10
note_on channel=0 note=59 velocity=87 time=67
note_on channel=0 note=83 velocity=100 time=3
note_on channel=0 note=71 velocity=91 time=3
note_on channel=0 note=47 velocity=81 time=1
note_on channel=0 note=59 velocity=0 time=21
note_on channel=0 note=71 velocity=0 time=3
note_on channel=0 note=47 velocity=0 time=3
note_on channel=0 note=83 velocity=0 time=0
note_on channel=0 note=61 velocity=92 time=82
note_on channel=0 note=49 velocity=87 time=2
note_on channel=0 note=73 velocity=99 time=4
note_on channel=0 note=85 velocity=102 time=0
note_on channel=0 note=49 velocity=0 time=24
note_on channel=0 note=61 velocity=0 time=2
note_on channel=0 note=73 velocity=0 time=6
note_on channel=0 note=85 velocity=0 time=13
note_on channel=0 note=66 velocity=96 time=90
note_on channel=0 note=54 velocity=97 time=1
note_on channel=0 note=90 velocity=110 time=2
note_on channel=0 note=78 velocity=102 time=1
note_on channel=0 note=66 velocity=0 time=16
control_change channel=0 control=64 value=73 time=4
note_on channel=0 note=78 velocity=0 time=7
note_on channel=0 note=90 velocity=0 time=2
note_on channel=0 note=54 velocity=0 time=1
control_change channel=0 control=64 value=110 time=6
control_change channel=0 control=64 value=127 time=15
control_change channel=0 control=64 value=116 time=137
control_change channel=0 control=64 value=85 time=14
control_change channel=0 control=64 value=64 time=15
control_change channel=0 control=64 value=0 time=16
note_on channel=0 note=57 velocity=84 time=164
note_on channel=0 note=69 velocity=94 time=1
note_on channel=0 note=81 velocity=100 time=2
note_on channel=0 note=45 velocity=76 time=1
note_on channel=0 note=57 velocity=0 time=30
note_on channel=0 note=69 velocity=0 time=6
note_on channel=0 note=45 velocity=0 time=3
note_on channel=0 note=81 velocity=0 time=0
note_on channel=0 note=59 velocity=94 time=93
note_on channel=0 note=47 velocity=88 time=3
note_on channel=0 note=71 velocity=99 time=1
note_on channel=0 note=83 velocity=100 time=0
note_on channel=0 note=71 velocity=0 time=26
note_on channel=0 note=47 velocity=0 time=1
note_on channel=0 note=83 velocity=0 time=4
note_on channel=0 note=59 velocity=0 time=2
note_on channel=0 note=61 velocity=103 time=105
note_on channel=0 note=49 velocity=86 time=5
note_on channel=0 note=85 velocity=100 time=0
note_on channel=0 note=73 velocity=101 time=1
note_on channel=0 note=49 velocity=0 time=25
note_on channel=0 note=73 velocity=0 time=4
note_on channel=0 note=61 velocity=0 time=5
note_on channel=0 note=85 velocity=0 time=4
note_on channel=0 note=67 velocity=104 time=167
note_on channel=0 note=79 velocity=104 time=0
note_on channel=0 note=91 velocity=108 time=0
note_on channel=0 note=55 velocity=93 time=1
note_on channel=0 note=79 velocity=0 time=23
control_change channel=0 control=64 value=66 time=1
note_on channel=0 note=67 velocity=0 time=7
note_on channel=0 note=91 velocity=0 time=0
note_on channel=0 note=55 velocity=0 time=4
control_change channel=0 control=64 value=102 time=3
control_change channel=0 control=64 value=127 time=15
control_change channel=0 control=64 value=126 time=342
control_change channel=0 control=64 value=109 time=15
control_change channel=0 control=64 value=100 time=16
control_change channel=0 control=64 value=95 time=15
control_change channel=0 control=64 value=92 time=14
control_change channel=0 control=64 value=89 time=16
control_change channel=0 control=64 value=84 time=15
control_change channel=0 control=64 value=80 time=15
control_change channel=0 control=64 value=78 time=15
control_change channel=0 control=64 value=75 time=15
control_change channel=0 control=64 value=71 time=16
control_change channel=0 control=64 value=68 time=15
control_change channel=0 control=64 value=66 time=15
control_change channel=0 control=64 value=64 time=15
control_change channel=0 control=64 value=58 time=15
control_change channel=0 control=64 value=0 time=17
note_on channel=0 note=32 velocity=81 time=539
note_on channel=0 note=44 velocity=99 time=0
note_on channel=0 note=92 velocity=105 time=2
note_on channel=0 note=89 velocity=92 time=6
note_on channel=0 note=85 velocity=89 time=2
control_change channel=0 control=64 value=59 time=6
control_change channel=0 control=64 value=90 time=15
note_on channel=0 note=32 velocity=0 time=0
note_on channel=0 note=44 velocity=0 time=11
control_change channel=0 control=64 value=127 time=4
note_on channel=0 note=92 velocity=0 time=431
note_on channel=0 note=89 velocity=0 time=4
note_on channel=0 note=80 velocity=91 time=18
note_on channel=0 note=85 velocity=0 time=5
note_on channel=0 note=49 velocity=77 time=26
note_on channel=0 note=85 velocity=83 time=158
note_on channel=0 note=89 velocity=85 time=0
note_on channel=0 note=92 velocity=88 time=0
note_on channel=0 note=51 velocity=85 time=3
note_on channel=0 note=80 velocity=0 time=19
note_on channel=0 note=85 velocity=0 time=36
note_on channel=0 note=89 velocity=0 time=20
note_on channel=0 note=92 velocity=0 time=5
note_on channel=0 note=92 velocity=84 time=49
note_on channel=0 note=53 velocity=84 time=6
note_on channel=0 note=89 velocity=82 time=3
note_on channel=0 note=85 velocity=90 time=5
note_on channel=0 note=88 velocity=35 time=27
note_on channel=0 note=88 velocity=0 time=1
note_on channel=0 note=53 velocity=0 time=72
note_on channel=0 note=80 velocity=96 time=10
note_on channel=0 note=44 velocity=84 time=8
note_on channel=0 note=49 velocity=0 time=14
note_on channel=0 note=51 velocity=0 time=13
note_on channel=0 note=85 velocity=0 time=0
note_on channel=0 note=92 velocity=0 time=16
note_on channel=0 note=89 velocity=0 time=29
note_on channel=0 note=89 velocity=66 time=32
note_on channel=0 note=49 velocity=95 time=3
note_on channel=0 note=92 velocity=89 time=0
note_on channel=0 note=85 velocity=83 time=8
note_on channel=0 note=80 velocity=0 time=19
note_on channel=0 note=85 velocity=0 time=27
note_on channel=0 note=44 velocity=0 time=5
note_on channel=0 note=89 velocity=0 time=1
note_on channel=0 note=92 velocity=0 time=5
note_on channel=0 note=92 velocity=91 time=48
note_on channel=0 note=51 velocity=89 time=5
note_on channel=0 note=88 velocity=93 time=1
note_on channel=0 note=85 velocity=97 time=3
control_change channel=0 control=64 value=85 time=15
control_change channel=0 control=64 value=59 time=14
control_change channel=0 control=64 value=61 time=16
control_change channel=0 control=64 value=68 time=15
control_change channel=0 control=64 value=73 time=15
control_change channel=0 control=64 value=80 time=15
control_change channel=0 control=64 value=91 time=15
note_on channel=0 note=52 velocity=81 time=10
control_change channel=0 control=64 value=107 time=6
note_on channel=0 note=80 velocity=102 time=0
control_change channel=0 control=64 value=127 time=14
note_on channel=0 note=85 velocity=0 time=7
note_on channel=0 note=92 velocity=0 time=28
note_on channel=0 note=88 velocity=0 time=11
note_on channel=0 note=44 velocity=81 time=57
note_on channel=0 note=88 velocity=87 time=0
note_on channel=0 note=92 velocity=91 time=1
note_on channel=0 note=52 velocity=0 time=15
note_on channel=0 note=49 velocity=0 time=2
note_on channel=0 note=85 velocity=82 time=2
note_on channel=0 note=51 velocity=0 time=1
note_on channel=0 note=80 velocity=0 time=18
note_on channel=0 note=44 velocity=0 time=21
note_on channel=0 note=85 velocity=0 time=24
note_on channel=0 note=88 velocity=0 time=7
note_on channel=0 note=92 velocity=0 time=7
control_change channel=0 control=64 value=87 time=65
note_on channel=0 note=88 velocity=96 time=7
note_on channel=0 note=91 velocity=99 time=0
note_on channel=0 note=85 velocity=89 time=3
control_change channel=0 control=64 value=38 time=4
note_on channel=0 note=47 velocity=76 time=0
note_on channel=0 note=45 velocity=72 time=1
note_on channel=0 note=33 velocity=63 time=6
note_on channel=0 note=35 velocity=64 time=2
control_change channel=0 control=64 value=0 time=6
note_on channel=0 note=47 velocity=0 time=18
note_on channel=0 note=33 velocity=0 time=17
control_change channel=0 control=64 value=48 time=12
control_change channel=0 control=64 value=66 time=15
note_on channel=0 note=35 velocity=0 time=14
control_change channel=0 control=64 value=73 time=1
control_change channel=0 control=64 value=79 time=16
note_on channel=0 note=45 velocity=0 time=10
control_change channel=0 control=64 value=83 time=5
control_change channel=0 control=64 value=85 time=16
control_change channel=0 control=64 value=86 time=14
control_change channel=0 control=64 value=89 time=15
note_on channel=0 note=79 velocity=92 time=10
control_change channel=0 control=64 value=97 time=6
note_on channel=0 note=49 velocity=83 time=12
control_change channel=0 control=64 value=108 time=2
note_on channel=0 note=85 velocity=0 time=7
control_change channel=0 control=64 value=111 time=8
note_on channel=0 note=91 velocity=0 time=5
note_on channel=0 note=88 velocity=0 time=4
control_change channel=0 control=64 value=111 time=7
control_change channel=0 control=64 value=112 time=15
control_change channel=0 control=64 value=119 time=16
control_change channel=0 control=64 value=127 time=14
note_on channel=0 note=88 velocity=90 time=30
note_on channel=0 note=51 velocity=85 time=1
note_on channel=0 note=91 velocity=97 time=0
note_on channel=0 note=85 velocity=81 time=2
note_on channel=0 note=79 velocity=0 time=20
control_change channel=0 control=64 value=100 time=9
control_change channel=0 control=64 value=79 time=16
note_on channel=0 note=85 velocity=0 time=8
note_on channel=0 note=88 velocity=0 time=1
note_on channel=0 note=91 velocity=0 time=2
control_change channel=0 control=64 value=69 time=4
control_change channel=0 control=64 value=72 time=15
control_change channel=0 control=64 value=82 time=15
control_change channel=0 control=64 value=89 time=15
note_on channel=0 note=52 velocity=85 time=3
note_on channel=0 note=49 velocity=0 time=3
note_on channel=0 note=91 velocity=96 time=3
note_on channel=0 note=88 velocity=89 time=6
control_change channel=0 control=64 value=95 time=1
note_on channel=0 note=85 velocity=87 time=1
note_on channel=0 note=51 velocity=0 time=9
control_change channel=0 control=64 value=102 time=5
control_change channel=0 control=64 value=111 time=15
note_on channel=0 note=90 velocity=30 time=9
control_change channel=0 control=64 value=127 time=6
note_on channel=0 note=90 velocity=0 time=39
note_on channel=0 note=45 velocity=87 time=9
note_on channel=0 note=79 velocity=96 time=13
note_on channel=0 note=52 velocity=0 time=3
note_on channel=0 note=85 velocity=0 time=19
note_on channel=0 note=91 velocity=0 time=12
note_on channel=0 note=88 velocity=0 time=7
note_on channel=0 note=49 velocity=90 time=59
note_on channel=0 note=79 velocity=0 time=0
note_on channel=0 note=88 velocity=87 time=16
note_on channel=0 note=91 velocity=90 time=3
note_on channel=0 note=85 velocity=89 time=1
note_on channel=0 note=45 velocity=0 time=26
control_change channel=0 control=64 value=88 time=18
note_on channel=0 note=91 velocity=0 time=0
note_on channel=0 note=85 velocity=0 time=1
note_on channel=0 note=88 velocity=0 time=2
control_change channel=0 control=64 value=66 time=11
control_change channel=0 control=64 value=64 time=16
control_change channel=0 control=64 value=73 time=15
note_on channel=0 note=51 velocity=86 time=5
note_on channel=0 note=91 velocity=97 time=6
control_change channel=0 control=64 value=79 time=4
note_on channel=0 note=88 velocity=89 time=0
note_on channel=0 note=85 velocity=91 time=4
note_on channel=0 note=49 velocity=0 time=7
control_change channel=0 control=64 value=89 time=5
control_change channel=0 control=64 value=103 time=15
control_change channel=0 control=64 value=127 time=15
note_on channel=0 note=52 velocity=76 time=40
note_on channel=0 note=79 velocity=96 time=17
note_on channel=0 note=51 velocity=0 time=3
note_on channel=0 note=85 velocity=0 time=9
note_on channel=0 note=91 velocity=0 time=11
note_on channel=0 note=88 velocity=0 time=14
note_on channel=0 note=46 velocity=82 time=37
note_on channel=0 note=52 velocity=0 time=10
note_on channel=0 note=85 velocity=89 time=25
note_on channel=0 note=88 velocity=83 time=0
note_on channel=0 note=91 velocity=91 time=1
note_on channel=0 note=79 velocity=0 time=8
note_on channel=0 note=46 velocity=0 time=7
note_on channel=0 note=91 velocity=0 time=28
note_on channel=0 note=88 velocity=0 time=3
note_on channel=0 note=85 velocity=0 time=14
control_change channel=0 control=64 value=88 time=16
control_change channel=0 control=64 value=26 time=15
note_on channel=0 note=47 velocity=90 time=9
note_on channel=0 note=45 velocity=85 time=2
control_change channel=0 control=64 value=0 time=4
note_on channel=0 note=35 velocity=73 time=1
note_on channel=0 note=90 velocity=103 time=7
note_on channel=0 note=86 velocity=90 time=16
note_on channel=0 note=35 velocity=0 time=5
note_on channel=0 note=87 velocity=34 time=7
note_on channel=0 note=45 velocity=0 time=1
note_on channel=0 note=87 velocity=0 time=0
control_change channel=0 control=64 value=56 time=8
note_on channel=0 note=47 velocity=0 time=2
control_change channel=0 control=64 value=69 time=14
control_change channel=0 control=64 value=76 time=16
note_on channel=0 note=86 velocity=0 time=14
control_change channel=0 control=64 value=83 time=2
note_on channel=0 note=90 velocity=0 time=9
control_change channel=0 control=64 value=88 time=6
control_change channel=0 control=64 value=89 time=15
note_on channel=0 note=78 velocity=89 time=9
note_on channel=0 note=51 velocity=86 time=5
control_change channel=0 control=64 value=90 time=2
control_change channel=0 control=64 value=91 time=14
control_change channel=0 control=64 value=91 time=16
control_change channel=0 control=64 value=93 time=14
control_change channel=0 control=64 value=97 time=14
control_change channel=0 control=64 value=100 time=16
control_change channel=0 control=64 value=102 time=15
note_on channel=0 note=52 velocity=82 time=4
note_on channel=0 note=87 velocity=97 time=4
note_on channel=0 note=90 velocity=87 time=0
control_change channel=0 control=64 value=103 time=7
note_on channel=0 note=78 velocity=0 time=14
control_change channel=0 control=64 value=107 time=2
control_change channel=0 control=64 value=115 time=14
note_on channel=0 note=87 velocity=0 time=14
note_on channel=0 note=90 velocity=0 time=0
control_change channel=0 control=64 value=127 time=2
control_change channel=0 control=64 value=105 time=39
note_on channel=0 note=54 velocity=89 time=14
control_change channel=0 control=64 value=75 time=1
note_on channel=0 note=90 velocity=92 time=9
note_on channel=0 note=87 velocity=95 time=3
control_change channel=0 control=64 value=0 time=2
note_on channel=0 note=51 velocity=0 time=5
note_on channel=0 note=52 velocity=0 time=26
control_change channel=0 control=64 value=21 time=30
control_change channel=0 control=64 value=64 time=15
control_change channel=0 control=64 value=72 time=16
note_on channel=0 note=54 velocity=0 time=3
note_on channel=0 note=47 velocity=77 time=7
note_on channel=0 note=78 velocity=91 time=3
control_change channel=0 control=64 value=79 time=2
control_change channel=0 control=64 value=86 time=15
note_on channel=0 note=87 velocity=0 time=12
control_change channel=0 control=64 value=91 time=3
note_on channel=0 note=90 velocity=0 time=2
control_change channel=0 control=64 value=94 time=13
control_change channel=0 control=64 value=97 time=15
control_change channel=0 control=64 value=104 time=16
control_change channel=0 control=64 value=112 time=15
note_on channel=0 note=51 velocity=83 time=9
control_change channel=0 control=64 value=120 time=6
note_on channel=0 note=90 velocity=93 time=3
note_on channel=0 note=87 velocity=88 time=4
control_change channel=0 control=64 value=126 time=8
note_on channel=0 note=47 velocity=0 time=3
note_on channel=0 note=78 velocity=0 time=1
control_change channel=0 control=64 value=127 time=11
note_on channel=0 note=87 velocity=0 time=25
note_on channel=0 note=90 velocity=0 time=2
control_change channel=0 control=64 value=110 time=4
control_change channel=0 control=64 value=85 time=16
control_change channel=0 control=64 value=58 time=15
note_on channel=0 note=52 velocity=86 time=5
note_on channel=0 note=51 velocity=0 time=2
control_change channel=0 control=64 value=0 time=8
note_on channel=0 note=86 velocity=102 time=3
note_on channel=0 note=90 velocity=94 time=1
control_change channel=0 control=64 value=47 time=11
control_change channel=0 control=64 value=64 time=15
control_change channel=0 control=64 value=71 time=15
control_change channel=0 control=64 value=80 time=16
note_on channel=0 note=52 velocity=0 time=8
control_change channel=0 control=64 value=90 time=7
note_on channel=0 note=54 velocity=84 time=12
control_change channel=0 control=64 value=99 time=3
control_change channel=0 control=64 value=103 time=15
note_on channel=0 note=78 velocity=93 time=7
control_change channel=0 control=64 value=106 time=8
note_on channel=0 note=86 velocity=0 time=1
note_on channel=0 note=90 velocity=0 time=9
control_change channel=0 control=64 value=108 time=5
note_on channel=0 note=54 velocity=0 time=5
control_change channel=0 control=64 value=110 time=10
control_change channel=0 control=64 value=116 time=15
control_change channel=0 control=64 value=127 time=16
note_on channel=0 note=86 velocity=84 time=36
note_on channel=0 note=36 velocity=84 time=1
note_on channel=0 note=90 velocity=84 time=6
note_on channel=0 note=78 velocity=0 time=13
note_on channel=0 note=86 velocity=0 time=35
note_on channel=0 note=90 velocity=0 time=2
control_change channel=0 control=64 value=119 time=12
note_on channel=0 note=36 velocity=0 time=1
control_change channel=0 control=64 value=81 time=15
control_change channel=0 control=64 value=0 time=14
note_on channel=0 note=82 velocity=76 time=15
note_on channel=0 note=78 velocity=101 time=5
note_on channel=0 note=90 velocity=99 time=2
note_on channel=0 note=85 velocity=95 time=2
note_on channel=0 note=49 velocity=99 time=1
note_on channel=0 note=81 velocity=90 time=0
note_on channel=0 note=37 velocity=94 time=1
control_change channel=0 control=64 value=61 time=35
control_change channel=0 control=64 value=75 time=23
note_on channel=0 note=49 velocity=0 time=1
note_on channel=0 note=37 velocity=0 time=2
control_change channel=0 control=64 value=87 time=13
note_on channel=0 note=82 velocity=0 time=14
control_change channel=0 control=64 value=100 time=1
note_on channel=0 note=81 velocity=0 time=12
control_change channel=0 control=64 value=107 time=2
control_change channel=0 control=64 value=108 time=16
note_on channel=0 note=78 velocity=0 time=0
note_on channel=0 note=85 velocity=0 time=16
note_on channel=0 note=90 velocity=0 time=6
control_change channel=0 control=64 value=107 time=99
control_change channel=0 control=64 value=106 time=30
control_change channel=0 control=64 value=100 time=16
control_change channel=0 control=64 value=82 time=15
note_on channel=0 note=57 velocity=88 time=1
note_on channel=0 note=69 velocity=93 time=0
control_change channel=0 control=64 value=28 time=14
control_change channel=0 control=64 value=0 time=15
note_on channel=0 note=57 velocity=0 time=6
note_on channel=0 note=69 velocity=0 time=0
note_on channel=0 note=84 velocity=101 time=53
note_on channel=0 note=60 velocity=87 time=11
note_on channel=0 note=60 velocity=0 time=60
note_on channel=0 note=61 velocity=88 time=39
note_on channel=0 note=85 velocity=97 time=3
note_on channel=0 note=84 velocity=0 time=2
control_change channel=0 control=64 value=28 time=24
control_change channel=0 control=64 value=54 time=15
note_on channel=0 note=85 velocity=0 time=0
note_on channel=0 note=61 velocity=0 time=3
control_change channel=0 control=64 value=61 time=12
control_change channel=0 control=64 value=62 time=15
note_on channel=0 note=66 velocity=92 time=35
note_on channel=0 note=54 velocity=89 time=5
control_change channel=0 control=64 value=62 time=6
control_change channel=0 control=64 value=59 time=15
control_change channel=0 control=64 value=0 time=15
note_on channel=0 note=66 velocity=0 time=4
note_on channel=0 note=54 velocity=0 time=6
note_on channel=0 note=56 velocity=82 time=49
note_on channel=0 note=80 velocity=95 time=3
note_on channel=0 note=56 velocity=0 time=105
note_on channel=0 note=81 velocity=90 time=0
note_on channel=0 note=57 velocity=76 time=2
note_on channel=0 note=80 velocity=0 time=9
control_change channel=0 control=64 value=17 time=13
note_on channel=0 note=81 velocity=0 time=11
control_change channel=0 control=64 value=29 time=4
note_on channel=0 note=57 velocity=0 time=5
control_change channel=0 control=64 value=32 time=10
control_change channel=0 control=64 value=29 time=62
note_on channel=0 note=61 velocity=91 time=0
note_on channel=0 note=49 velocity=89 time=6
control_change channel=0 control=64 value=0 time=8
note_on channel=0 note=61 velocity=0 time=77
note_on channel=0 note=53 velocity=76 time=6
note_on channel=0 note=77 velocity=99 time=0
control_change channel=0 control=64 value=42 time=38
note_on channel=0 note=49 velocity=0 time=9
control_change channel=0 control=64 value=63 time=7
control_change channel=0 control=64 value=67 time=15
control_change channel=0 control=64 value=69 time=16
note_on channel=0 note=53 velocity=0 time=1
note_on channel=0 note=54 velocity=80 time=3
control_change channel=0 control=64 value=69 time=11
note_on channel=0 note=78 velocity=92 time=6
note_on channel=0 note=77 velocity=0 time=4
control_change channel=0 control=64 value=69 time=5
control_change channel=0 control=64 value=68 time=15
note_on channel=0 note=78 velocity=0 time=5
note_on channel=0 note=54 velocity=0 time=1
control_change channel=0 control=64 value=67 time=9
control_change channel=0 control=64 value=65 time=15
control_change channel=0 control=64 value=56 time=15
control_change channel=0 control=64 value=0 time=15
note_on channel=0 note=57 velocity=89 time=10
note_on channel=0 note=45 velocity=87 time=6
note_on channel=0 note=57 velocity=0 time=59
note_on channel=0 note=72 velocity=100 time=45
note_on channel=0 note=48 velocity=73 time=5
note_on channel=0 note=45 velocity=0 time=10
control_change channel=0 control=64 value=57 time=3
control_change channel=0 control=64 value=64 time=15
control_change channel=0 control=64 value=66 time=15
control_change channel=0 control=64 value=69 time=15
control_change channel=0 control=64 value=67 time=13
control_change channel=0 control=64 value=35 time=15
note_on channel=0 note=48 velocity=0 time=4
note_on channel=0 note=49 velocity=79 time=3
note_on channel=0 note=73 velocity=99 time=6
control_change channel=0 control=64 value=0 time=3
note_on channel=0 note=72 velocity=0 time=4
note_on channel=0 note=73 velocity=0 time=33
note_on channel=0 note=49 velocity=0 time=5
control_change channel=0 control=64 value=57 time=50
note_on channel=0 note=54 velocity=79 time=11
control_change channel=0 control=64 value=68 time=4
note_on channel=0 note=42 velocity=85 time=0
control_change channel=0 control=64 value=74 time=16
control_change channel=0 control=64 value=78 time=21
note_on channel=0 note=54 velocity=0 time=8
control_change channel=0 control=64 value=80 time=8
control_change channel=0 control=64 value=76 time=15
control_change channel=0 control=64 value=59 time=14
note_on channel=0 note=42 velocity=0 time=1
control_change channel=0 control=64 value=0 time=15
note_on channel=0 note=68 velocity=88 time=4
note_on channel=0 note=44 velocity=54 time=23
note_on channel=0 note=43 velocity=29 time=29
control_change channel=0 control=64 value=55 time=5
control_change channel=0 control=64 value=69 time=16
control_change channel=0 control=64 value=78 time=14
note_on channel=0 note=44 velocity=0 time=0
note_on channel=0 note=43 velocity=0 time=2
note_on channel=0 note=69 velocity=86 time=4
control_change channel=0 control=64 value=86 time=9
note_on channel=0 note=45 velocity=37 time=10
control_change channel=0 control=64 value=92 time=6
note_on channel=0 note=68 velocity=0 time=2
control_change channel=0 control=64 value=93 time=13
note_on channel=0 note=45 velocity=0 time=17
note_on channel=0 note=69 velocity=0 time=14
note_on channel=0 note=60 velocity=86 time=29
note_on channel=0 note=36 velocity=64 time=5
note_on channel=0 note=35 velocity=49 time=13
note_on channel=0 note=59 velocity=38 time=5
note_on channel=0 note=59 velocity=0 time=1
control_change channel=0 control=64 value=90 time=8
control_change channel=0 control=64 value=74 time=15
note_on channel=0 note=35 velocity=0 time=3
note_on channel=0 note=36 velocity=0 time=1
control_change channel=0 control=64 value=0 time=10
note_on channel=0 note=60 velocity=0 time=0
note_on channel=0 note=49 velocity=101 time=51
note_on channel=0 note=61 velocity=102 time=1
note_on channel=0 note=37 velocity=88 time=2
control_change channel=0 control=64 value=61 time=22
note_on channel=0 note=61 velocity=0 time=9
control_change channel=0 control=64 value=81 time=7
note_on channel=0 note=49 velocity=0 time=1
note_on channel=0 note=37 velocity=0 time=8
control_change channel=0 control=64 value=103 time=6
control_change channel=0 control=64 value=127 time=15
control_change channel=0 control=64 value=104 time=183
control_change channel=0 control=64 value=79 time=14
control_change channel=0 control=64 value=0 time=16
note_on channel=0 note=49 velocity=94 time=385
note_on channel=0 note=37 velocity=82 time=2
note_on channel=0 note=44 velocity=89 time=4
note_on channel=0 note=89 velocity=102 time=0
note_on channel=0 note=77 velocity=101 time=1
control_change channel=0 control=64 value=76 time=27
note_on channel=0 note=44 velocity=0 time=0
note_on channel=0 note=37 velocity=0 time=2
note_on channel=0 note=77 velocity=0 time=1
note_on channel=0 note=49 velocity=0 time=5
note_on channel=0 note=89 velocity=0 time=0
control_change channel=0 control=64 value=119 time=6
control_change channel=0 control=64 value=127 time=16
control_change channel=0 control=64 value=90 time=76
control_change channel=0 control=64 value=48 time=15
control_change channel=0 control=64 value=0 time=16
note_on channel=0 note=90 velocity=99 time=255
note_on channel=0 note=50 velocity=99 time=1
note_on channel=0 note=42 velocity=88 time=2
note_on channel=0 note=78 velocity=101 time=0
note_on channel=0 note=81 velocity=70 time=2
note_on channel=0 note=38 velocity=77 time=5
control_change channel=0 control=64 value=64 time=7
note_on channel=0 note=81 velocity=0 time=9
control_change channel=0 control=64 value=93 time=7
note_on channel=0 note=38 velocity=0 time=3
note_on channel=0 note=78 velocity=0 time=5
note_on channel=0 note=50 velocity=0 time=1
note_on channel=0 note=42 velocity=0 time=5
note_on channel=0 note=90 velocity=0 time=0
control_change channel=0 control=64 value=127 time=1
note_on channel=0 note=44 velocity=18 time=0
note_on channel=0 note=44 velocity=0 time=50
control_change channel=0 control=64 value=106 time=171
control_change channel=0 control=64 value=77 time=15
control_change channel=0 control=64 value=0 time=15
note_on channel=0 note=69 velocity=90 time=50
note_on channel=0 note=57 velocity=77 time=5
note_on channel=0 note=69 velocity=0 time=29
note_on channel=0 note=57 velocity=0 time=8
note_on channel=0 note=61 velocity=87 time=65
note_on channel=0 note=85 velocity=93 time=0
control_change channel=0 control=64 value=24 time=41
control_change channel=0 control=64 value=64 time=16
control_change channel=0 control=64 value=66 time=15
control_change channel=0 control=64 value=69 time=14
note_on channel=0 note=61 velocity=0 time=6
note_on channel=0 note=62 velocity=80 time=4
control_change channel=0 control=64 value=72 time=6
note_on channel=0 note=86 velocity=78 time=0
note_on channel=0 note=85 velocity=0 time=13
control_change channel=0 control=64 value=74 time=2
control_change channel=0 control=64 value=76 time=16
note_on channel=0 note=62 velocity=0 time=4
note_on channel=0 note=86 velocity=0 time=2
control_change channel=0 control=64 value=76 time=8
note_on channel=0 note=66 velocity=85 time=63
note_on channel=0 note=54 velocity=89 time=6
control_change channel=0 control=64 value=72 time=7
control_change channel=0 control=64 value=56 time=15
control_change channel=0 control=64 value=0 time=17
note_on channel=0 note=66 velocity=0 time=21
note_on channel=0 note=54 velocity=0 time=19
note_on channel=0 note=56 velocity=67 time=7
note_on channel=0 note=80 velocity=94 time=2
control_change channel=0 control=64 value=29 time=41
control_change channel=0 control=64 value=59 time=15
control_change channel=0 control=64 value=62 time=24
control_change channel=0 control=64 value=63 time=15
note_on channel=0 note=57 velocity=74 time=2
note_on channel=0 note=81 velocity=90 time=5
control_change channel=0 control=64 value=63 time=9
note_on channel=0 note=56 velocity=0 time=6
note_on channel=0 note=80 velocity=0 time=0
control_change channel=0 control=64 value=63 time=8
control_change channel=0 control=64 value=62 time=15
note_on channel=0 note=81 velocity=0 time=5
note_on channel=0 note=57 velocity=0 time=6
control_change channel=0 control=64 value=61 time=6
control_change channel=0 control=64 value=53 time=14
control_change channel=0 control=64 value=0 time=16
note_on channel=0 note=62 velocity=90 time=23
note_on channel=0 note=50 velocity=90 time=5
note_on channel=0 note=60 velocity=27 time=34
note_on channel=0 note=60 velocity=0 time=1
note_on channel=0 note=77 velocity=96 time=60
note_on channel=0 note=62 velocity=0 time=2
note_on channel=0 note=53 velocity=76 time=3
note_on channel=0 note=50 velocity=0 time=17
control_change channel=0 control=64 value=59 time=7
control_change channel=0 control=64 value=64 time=15
control_change channel=0 control=64 value=66 time=15
control_change channel=0 control=64 value=69 time=16
control_change channel=0 control=64 value=71 time=15
note_on channel=0 note=54 velocity=81 time=0
note_on channel=0 note=53 velocity=0 time=1
note_on channel=0 note=78 velocity=96 time=9
note_on channel=0 note=77 velocity=0 time=4
note_on channel=0 note=54 velocity=0 time=29
control_change channel=0 control=64 value=70 time=2
note_on channel=0 note=78 velocity=0 time=6
control_change channel=0 control=64 value=69 time=9
control_change channel=0 control=64 value=64 time=16
control_change channel=0 control=64 value=0 time=14
note_on channel=0 note=57 velocity=94 time=13
note_on channel=0 note=45 velocity=92 time=2
note_on channel=0 note=57 velocity=0 time=52
note_on channel=0 note=49 velocity=85 time=52
note_on channel=0 note=45 velocity=0 time=9
note_on channel=0 note=73 velocity=104 time=3
control_change channel=0 control=64 value=45 time=22
control_change channel=0 control=64 value=59 time=14
control_change channel=0 control=64 value=64 time=16
control_change channel=0 control=64 value=68 time=15
control_change channel=0 control=64 value=69 time=15
note_on channel=0 note=50 velocity=82 time=5
note_on channel=0 note=74 velocity=93 time=7
note_on channel=0 note=73 velocity=0 time=1
control_change channel=0 control=64 value=70 time=2
note_on channel=0 note=49 velocity=0 time=6
note_on channel=0 note=50 velocity=0 time=26
note_on channel=0 note=74 velocity=0 time=1
control_change channel=0 control=64 value=68 time=27
control_change channel=0 control=64 value=42 time=16
control_change channel=0 control=64 value=0 time=14
note_on channel=0 note=54 velocity=88 time=7
note_on channel=0 note=42 velocity=92 time=1
note_on channel=0 note=54 velocity=0 time=62
control_change channel=0 control=64 value=23 time=30
control_change channel=0 control=64 value=67 time=15
note_on channel=0 note=44 velocity=74 time=14
control_change channel=0 control=64 value=71 time=1
note_on channel=0 note=67 velocity=84 time=4
control_change channel=0 control=64 value=66 time=12
note_on channel=0 note=42 velocity=0 time=4
control_change channel=0 control=64 value=0 time=11
note_on channel=0 note=69 velocity=77 time=59
note_on channel=0 note=67 velocity=0 time=1
control_change channel=0 control=64 value=47 time=2
note_on channel=0 note=44 velocity=0 time=3
control_change channel=0 control=64 value=67 time=12
control_change channel=0 control=64 value=74 time=15
control_change channel=0 control=64 value=81 time=15
control_change channel=0 control=64 value=90 time=15
control_change channel=0 control=64 value=98 time=16
note_on channel=0 note=37 velocity=82 time=13
control_change channel=0 control=64 value=104 time=1
note_on channel=0 note=61 velocity=94 time=10
control_change channel=0 control=64 value=106 time=5
control_change channel=0 control=64 value=107 time=16
control_change channel=0 control=64 value=108 time=15
note_on channel=0 note=37 velocity=0 time=1
note_on channel=0 note=61 velocity=0 time=15
control_change channel=0 control=64 value=101 time=14
control_change channel=0 control=64 value=72 time=15
control_change channel=0 control=64 value=0 time=16
note_on channel=0 note=62 velocity=98 time=14
note_on channel=0 note=50 velocity=101 time=3
note_on channel=0 note=38 velocity=92 time=4
control_change channel=0 control=64 value=54 time=24
control_change channel=0 control=64 value=71 time=15
note_on channel=0 note=50 velocity=0 time=2
note_on channel=0 note=38 velocity=0 time=9
note_on channel=0 note=70 velocity=6 time=3
control_change channel=0 control=64 value=86 time=1
note_on channel=0 note=70 velocity=0 time=0
note_on channel=0 note=69 velocity=0 time=10
control_change channel=0 control=64 value=102 time=6
note_on channel=0 note=62 velocity=0 time=2
control_change channel=0 control=64 value=119 time=12
control_change channel=0 control=64 value=127 time=16
control_change channel=0 control=64 value=109 time=168
control_change channel=0 control=64 value=88 time=14
control_change channel=0 control=64 value=63 time=16
control_change channel=0 control=64 value=0 time=15
note_on channel=0 note=49 velocity=97 time=372
note_on channel=0 note=37 velocity=85 time=1
note_on channel=0 note=44 velocity=91 time=2
note_on channel=0 note=85 velocity=92 time=0
note_on channel=0 note=89 velocity=98 time=1
note_on channel=0 note=77 velocity=97 time=2
control_change channel=0 control=64 value=67 time=25
note_on channel=0 note=77 velocity=0 time=4
note_on channel=0 note=49 velocity=0 time=4
control_change channel=0 control=64 value=105 time=7
note_on channel=0 note=89 velocity=0 time=0
note_on channel=0 note=44 velocity=0 time=1
note_on channel=0 note=37 velocity=0 time=2
note_on channel=0 note=85 velocity=0 time=2
control_change channel=0 control=64 value=127 time=11
control_change channel=0 control=64 value=87 time=121
control_change channel=0 control=64 value=55 time=15
control_change channel=0 control=64 value=0 time=16
control_change channel=0 control=64 value=67 time=263
note_on channel=0 note=90 velocity=98 time=2
note_on channel=0 note=47 velocity=101 time=2
note_on channel=0 note=78 velocity=103 time=0
note_on channel=0 note=38 velocity=87 time=2
note_on channel=0 note=35 velocity=84 time=1
control_change channel=0 control=64 value=113 time=8
control_change channel=0 control=64 value=127 time=16
note_on channel=0 note=86 velocity=50 time=0
note_on channel=0 note=35 velocity=0 time=3
note_on channel=0 note=47 velocity=0 time=8
note_on channel=0 note=78 velocity=0 time=0
note_on channel=0 note=38 velocity=0 time=4
note_on channel=0 note=86 velocity=0 time=5
note_on channel=0 note=90 velocity=0 time=4
note_on channel=0 note=40 velocity=3 time=24
note_on channel=0 note=40 velocity=0 time=38
control_change channel=0 control=64 value=124 time=234
control_change channel=0 control=64 value=95 time=15
control_change channel=0 control=64 value=71 time=16
control_change channel=0 control=64 value=0 time=14
note_on channel=0 note=71 velocity=94 time=67
note_on channel=0 note=59 velocity=76 time=4
note_on channel=0 note=71 velocity=0 time=46
note_on channel=0 note=59 velocity=0 time=14
note_on channel=0 note=61 velocity=91 time=50
note_on channel=0 note=85 velocity=100 time=20
control_change channel=0 control=64 value=54 time=28
control_change channel=0 control=64 value=70 time=15
control_change channel=0 control=64 value=77 time=14
control_change channel=0 control=64 value=83 time=16
control_change channel=0 control=64 value=87 time=15
control_change channel=0 control=64 value=92 time=16
note_on channel=0 note=61 velocity=0 time=0
note_on channel=0 note=62 velocity=88 time=3
note_on channel=0 note=86 velocity=88 time=11
control_change channel=0 control=64 value=97 time=1
note_on channel=0 note=85 velocity=0 time=3
control_change channel=0 control=64 value=101 time=19
control_change channel=0 control=64 value=105 time=16
note_on channel=0 note=62 velocity=0 time=5
note_on channel=0 note=86 velocity=0 time=0
control_change channel=0 control=64 value=107 time=10
control_change channel=0 control=64 value=108 time=16
control_change channel=0 control=64 value=109 time=15
control_change channel=0 control=64 value=111 time=14
note_on channel=0 note=66 velocity=91 time=8
control_change channel=0 control=64 value=112 time=8
note_on channel=0 note=54 velocity=85 time=3
control_change channel=0 control=64 value=111 time=12
control_change channel=0 control=64 value=105 time=14
control_change channel=0 control=64 value=88 time=16
note_on channel=0 note=66 velocity=0 time=13
control_change channel=0 control=64 value=69 time=2
control_change channel=0 control=64 value=31 time=16
note_on channel=0 note=82 velocity=99 time=0
note_on channel=0 note=58 velocity=73 time=11
control_change channel=0 control=64 value=60 time=4
note_on channel=0 note=54 velocity=0 time=5
control_change channel=0 control=64 value=66 time=9
control_change channel=0 control=64 value=69 time=16
control_change channel=0 control=64 value=71 time=15
control_change channel=0 control=64 value=75 time=16
control_change channel=0 control=64 value=79 time=15
note_on channel=0 note=83 velocity=92 time=5
note_on channel=0 note=59 velocity=73 time=13
control_change channel=0 control=64 value=82 time=5
note_on channel=0 note=82 velocity=0 time=7
control_change channel=0 control=64 value=85 time=8
control_change channel=0 control=64 value=87 time=15
note_on channel=0 note=58 velocity=0 time=0
note_on channel=0 note=83 velocity=0 time=8
note_on channel=0 note=59 velocity=0 time=4
control_change channel=0 control=64 value=88 time=3
control_change channel=0 control=64 value=87 time=46
note_on channel=0 note=62 velocity=93 time=14
control_change channel=0 control=64 value=78 time=1
note_on channel=0 note=50 velocity=93 time=3
control_change channel=0 control=64 value=0 time=12
note_on channel=0 note=77 velocity=100 time=79
note_on channel=0 note=53 velocity=77 time=5
note_on channel=0 note=62 velocity=0 time=16
control_change channel=0 control=64 value=59 time=7
control_change channel=0 control=64 value=69 time=15
note_on channel=0 note=50 velocity=0 time=0
control_change channel=0 control=64 value=74 time=15
control_change channel=0 control=64 value=78 time=15
control_change channel=0 control=64 value=80 time=15
note_on channel=0 note=78 velocity=97 time=6
note_on channel=0 note=54 velocity=84 time=8
note_on channel=0 note=53 velocity=0 time=2
note_on channel=0 note=77 velocity=0 time=3
note_on channel=0 note=78 velocity=0 time=26
note_on channel=0 note=54 velocity=0 time=19
control_change channel=0 control=64 value=79 time=28
note_on channel=0 note=59 velocity=95 time=12
control_change channel=0 control=64 value=79 time=3
note_on channel=0 note=47 velocity=84 time=3
control_change channel=0 control=64 value=74 time=12
control_change channel=0 control=64 value=59 time=15
control_change channel=0 control=64 value=0 time=15
note_on channel=0 note=59 velocity=0 time=9
note_on channel=0 note=73 velocity=103 time=63
note_on channel=0 note=49 velocity=84 time=6
note_on channel=0 note=47 velocity=0 time=25
control_change channel=0 control=64 value=63 time=12
control_change channel=0 control=64 value=69 time=14
control_change channel=0 control=64 value=74 time=16
control_change channel=0 control=64 value=78 time=15
note_on channel=0 note=74 velocity=89 time=6
note_on channel=0 note=49 velocity=0 time=6
control_change channel=0 control=64 value=80 time=3
note_on channel=0 note=50 velocity=82 time=0
note_on channel=0 note=73 velocity=0 time=8
control_change channel=0 control=64 value=80 time=8
control_change channel=0 control=64 value=82 time=14
note_on channel=0 note=74 velocity=0 time=4
control_change channel=0 control=64 value=84 time=12
control_change channel=0 control=64 value=86 time=15
note_on channel=0 note=50 velocity=0 time=6
note_on channel=0 note=42 velocity=80 time=19
control_change channel=0 control=64 value=85 time=20
control_change channel=0 control=64 value=80 time=15
control_change channel=0 control=64 value=65 time=16
control_change channel=0 control=64 value=0 time=14
note_on channel=0 note=46 velocity=81 time=34
note_on channel=0 note=70 velocity=90 time=5
note_on channel=0 note=42 velocity=0 time=33
control_change channel=0 control=64 value=54 time=4
control_change channel=0 control=64 value=70 time=15
note_on channel=0 note=46 velocity=0 time=10
control_change channel=0 control=64 value=81 time=5
control_change channel=0 control=64 value=94 time=15
control_change channel=0 control=64 value=106 time=15
note_on channel=0 note=47 velocity=79 time=5
note_on channel=0 note=71 velocity=88 time=0
control_change channel=0 control=64 value=108 time=10
note_on channel=0 note=70 velocity=0 time=2
control_change channel=0 control=64 value=111 time=13
control_change channel=0 control=64 value=118 time=16
note_on channel=0 note=71 velocity=0 time=8
control_change channel=0 control=64 value=127 time=7
note_on channel=0 note=35 velocity=79 time=32
note_on channel=0 note=59 velocity=98 time=1
note_on channel=0 note=47 velocity=0 time=5
note_on channel=0 note=35 velocity=0 time=61
note_on channel=0 note=59 velocity=0 time=1
control_change channel=0 control=64 value=107 time=6
control_change channel=0 control=64 value=81 time=15
control_change channel=0 control=64 value=0 time=15
note_on channel=0 note=60 velocity=103 time=28
note_on channel=0 note=48 velocity=98 time=3
note_on channel=0 note=36 velocity=90 time=1
control_change channel=0 control=64 value=59 time=27
control_change channel=0 control=64 value=81 time=15
control_change channel=0 control=64 value=127 time=14
note_on channel=0 note=48 velocity=0 time=4
note_on channel=0 note=60 velocity=0 time=1
note_on channel=0 note=36 velocity=0 time=5
control_change channel=0 control=64 value=95 time=440
control_change channel=0 control=64 value=24 time=15
control_change channel=0 control=64 value=0 time=15
note_on channel=0 note=37 velocity=75 time=304
note_on channel=0 note=41 velocity=74 time=6
note_on channel=0 note=44 velocity=81 time=25
note_on channel=0 note=49 velocity=98 time=28
note_on channel=0 note=77 velocity=101 time=2
note_on channel=0 note=85 velocity=98 time=0
note_on channel=0 note=89 velocity=102 time=0
note_on channel=0 note=83 velocity=67 time=4
control_change channel=0 control=64 value=64 time=1
control_change channel=0 control=64 value=100 time=16
note_on channel=0 note=83 velocity=0 time=7
control_change channel=0 control=64 value=127 time=8
note_on channel=0 note=77 velocity=0 time=5
note_on channel=0 note=37 velocity=0 time=15
note_on channel=0 note=89 velocity=0 time=0
note_on channel=0 note=85 velocity=0 time=9
note_on channel=0 note=49 velocity=0 time=11
note_on channel=0 note=41 velocity=0 time=8
note_on channel=0 note=44 velocity=0 time=20
note_on channel=0 note=82 velocity=15 time=162
note_on channel=0 note=82 velocity=0 time=48
control_change channel=0 control=64 value=84 time=252
note_on channel=0 note=42 velocity=79 time=2
note_on channel=0 note=86 velocity=76 time=0
note_on channel=0 note=78 velocity=76 time=5
note_on channel=0 note=90 velocity=78 time=0
note_on channel=0 note=30 velocity=73 time=1
note_on channel=0 note=81 velocity=66 time=4
control_change channel=0 control=64 value=0 time=4
note_on channel=0 note=78 velocity=0 time=8
note_on channel=0 note=81 velocity=0 time=4
note_on channel=0 note=42 velocity=0 time=1
note_on channel=0 note=90 velocity=0 time=3
note_on channel=0 note=86 velocity=0 time=10
note_on channel=0 note=30 velocity=0 time=1
note_on channel=0 note=78 velocity=84 time=60
note_on channel=0 note=81 velocity=77 time=3
note_on channel=0 note=45 velocity=80 time=1
note_on channel=0 note=33 velocity=70 time=5
note_on channel=0 note=86 velocity=71 time=3
note_on channel=0 note=90 velocity=74 time=6
note_on channel=0 note=78 velocity=0 time=4
note_on channel=0 note=45 velocity=0 time=6
note_on channel=0 note=81 velocity=0 time=1
note_on channel=0 note=33 velocity=0 time=10
note_on channel=0 note=86 velocity=0 time=0
note_on channel=0 note=90 velocity=0 time=3
note_on channel=0 note=78 velocity=95 time=69
note_on channel=0 note=90 velocity=84 time=2
note_on channel=0 note=47 velocity=90 time=1
note_on channel=0 note=81 velocity=90 time=0
note_on channel=0 note=35 velocity=80 time=4
note_on channel=0 note=86 velocity=83 time=0
note_on channel=0 note=47 velocity=0 time=22
note_on channel=0 note=78 velocity=0 time=3
note_on channel=0 note=35 velocity=0 time=7
note_on channel=0 note=81 velocity=0 time=5
note_on channel=0 note=90 velocity=0 time=6
note_on channel=0 note=86 velocity=0 time=6
note_on channel=0 note=86 velocity=91 time=55
note_on channel=0 note=48 velocity=101 time=1
note_on channel=0 note=78 velocity=100 time=0
note_on channel=0 note=81 velocity=94 time=0
note_on channel=0 note=90 velocity=99 time=0
note_on channel=0 note=36 velocity=94 time=1
control_change channel=0 control=64 value=62 time=213
control_change channel=0 control=64 value=70 time=15
control_change channel=0 control=64 value=76 time=16
control_change channel=0 control=64 value=83 time=15
control_change channel=0 control=64 value=90 time=15
control_change channel=0 control=64 value=96 time=16
control_change channel=0 control=64 value=103 time=15
control_change channel=0 control=64 value=108 time=15
control_change channel=0 control=64 value=127 time=16
note_on channel=0 note=48 velocity=0 time=89
note_on channel=0 note=36 velocity=0 time=42
note_on channel=0 note=90 velocity=0 time=24
note_on channel=0 note=81 velocity=0 time=61
note_on channel=0 note=86 velocity=0 time=97
note_on channel=0 note=78 velocity=0 time=2
note_on channel=0 note=89 velocity=99 time=83
note_on channel=0 note=77 velocity=91 time=2
note_on channel=0 note=49 velocity=93 time=3
note_on channel=0 note=85 velocity=83 time=2
note_on channel=0 note=80 velocity=78 time=1
note_on channel=0 note=37 velocity=78 time=1
note_on channel=0 note=49 velocity=0 time=23
note_on channel=0 note=80 velocity=0 time=2
note_on channel=0 note=77 velocity=0 time=9
note_on channel=0 note=37 velocity=0 time=2
note_on channel=0 note=89 velocity=0 time=15
note_on channel=0 note=85 velocity=0 time=1
note_on channel=0 note=86 velocity=88 time=129
note_on channel=0 note=81 velocity=80 time=3
note_on channel=0 note=90 velocity=96 time=4
note_on channel=0 note=78 velocity=86 time=1
note_on channel=0 note=30 velocity=84 time=1
note_on channel=0 note=42 velocity=82 time=0
note_on channel=0 note=78 velocity=0 time=19
control_change channel=0 control=64 value=80 time=5
note_on channel=0 note=42 velocity=0 time=0
note_on channel=0 note=81 velocity=0 time=5
note_on channel=0 note=30 velocity=0 time=2
note_on channel=0 note=86 velocity=0 time=6
control_change channel=0 control=64 value=0 time=2
note_on channel=0 note=90 velocity=0 time=0
note_on channel=0 note=78 velocity=90 time=66
note_on channel=0 note=45 velocity=88 time=2
note_on channel=0 note=90 velocity=82 time=1
note_on channel=0 note=81 velocity=82 time=3
note_on channel=0 note=33 velocity=81 time=1
note_on channel=0 note=86 velocity=84 time=1
note_on channel=0 note=78 velocity=0 time=19
note_on channel=0 note=45 velocity=0 time=4
note_on channel=0 note=81 velocity=0 time=2
note_on channel=0 note=33 velocity=0 time=6
note_on channel=0 note=90 velocity=0 time=0
note_on channel=0 note=86 velocity=0 time=8
note_on channel=0 note=78 velocity=100 time=58
note_on channel=0 note=47 velocity=91 time=4
note_on channel=0 note=90 velocity=89 time=0
note_on channel=0 note=81 velocity=90 time=3
note_on channel=0 note=35 velocity=80 time=1
note_on channel=0 note=86 velocity=82 time=0
note_on channel=0 note=47 velocity=0 time=24
note_on channel=0 note=78 velocity=0 time=5
note_on channel=0 note=35 velocity=0 time=3
note_on channel=0 note=81 velocity=0 time=10
note_on channel=0 note=90 velocity=0 time=0
note_on channel=0 note=86 velocity=0 time=9
note_on channel=0 note=48 velocity=100 time=55
note_on channel=0 note=81 velocity=96 time=0
note_on channel=0 note=86 velocity=89 time=0
note_on channel=0 note=78 velocity=101 time=1
note_on channel=0 note=90 velocity=98 time=0
note_on channel=0 note=36 velocity=94 time=2
control_change channel=0 control=64 value=35 time=222
control_change channel=0 control=64 value=64 time=15
control_change channel=0 control=64 value=68 time=15
control_change channel=0 control=64 value=70 time=15
control_change channel=0 control=64 value=71 time=15
control_change channel=0 control=64 value=74 time=16
control_change channel=0 control=64 value=77 time=15
control_change channel=0 control=64 value=81 time=14
control_change channel=0 control=64 value=84 time=16
control_change channel=0 control=64 value=88 time=15
control_change channel=0 control=64 value=91 time=16
control_change channel=0 control=64 value=93 time=15
control_change channel=0 control=64 value=93 time=14
note_on channel=0 note=48 velocity=0 time=11
control_change channel=0 control=64 value=94 time=5
note_on channel=0 note=36 velocity=0 time=9
control_change channel=0 control=64 value=96 time=6
note_on channel=0 note=90 velocity=0 time=6
control_change channel=0 control=64 value=99 time=10
control_change channel=0 control=64 value=103 time=15
control_change channel=0 control=64 value=106 time=15
control_change channel=0 control=64 value=108 time=16
control_change channel=0 control=64 value=110 time=15
control_change channel=0 control=64 value=114 time=14
control_change channel=0 control=64 value=122 time=16
control_change channel=0 control=64 value=127 time=15
note_on channel=0 note=81 velocity=0 time=9
note_on channel=0 note=78 velocity=0 time=96
note_on channel=0 note=86 velocity=0 time=70
note_on channel=0 note=89 velocity=102 time=64
note_on channel=0 note=49 velocity=99 time=2
note_on channel=0 note=37 velocity=92 time=4
note_on channel=0 note=77 velocity=88 time=3
note_on channel=0 note=49 velocity=0 time=13
note_on channel=0 note=37 velocity=0 time=15
note_on channel=0 note=89 velocity=0 time=174
note_on channel=0 note=77 velocity=0 time=46
control_change channel=0 control=64 value=116 time=89
control_change channel=0 control=64 value=68 time=15
control_change channel=0 control=64 value=0 time=15
note_on channel=0 note=42 velocity=101 time=1
note_on channel=0 note=81 velocity=79 time=0
note_on channel=0 note=30 velocity=94 time=2
note_on channel=0 note=78 velocity=97 time=1
note_on channel=0 note=85 velocity=83 time=1
note_on channel=0 note=90 velocity=102 time=0
control_change channel=0 control=64 value=62 time=86
control_change channel=0 control=64 value=71 time=15
note_on channel=0 note=30 velocity=0 time=10
control_change channel=0 control=64 value=78 time=5
note_on channel=0 note=42 velocity=0 time=12
control_change channel=0 control=64 value=83 time=3
control_change channel=0 control=64 value=85 time=15
control_change channel=0 control=64 value=89 time=16
control_change channel=0 control=64 value=93 time=15
control_change channel=0 control=64 value=97 time=14
control_change channel=0 control=64 value=98 time=16
note_on channel=0 note=81 velocity=0 time=2
control_change channel=0 control=64 value=98 time=13
note_on channel=0 note=78 velocity=0 time=17
control_change channel=0 control=64 value=101 time=13
control_change channel=0 control=64 value=105 time=15
control_change channel=0 control=64 value=112 time=16
control_change channel=0 control=64 value=119 time=15
control_change channel=0 control=64 value=127 time=16
note_on channel=0 note=90 velocity=0 time=11
note_on channel=0 note=85 velocity=0 time=15
note_on channel=0 note=73 velocity=72 time=176
note_on channel=0 note=81 velocity=67 time=5
note_on channel=0 note=93 velocity=87 time=0
note_on channel=0 note=85 velocity=74 time=11
note_on channel=0 note=81 velocity=0 time=39
note_on channel=0 note=85 velocity=0 time=3
note_on channel=0 note=73 velocity=0 time=2
note_on channel=0 note=93 velocity=0 time=27
note_on channel=0 note=73 velocity=83 time=110
note_on channel=0 note=81 velocity=78 time=0
note_on channel=0 note=93 velocity=94 time=7
note_on channel=0 note=85 velocity=80 time=9
note_on channel=0 note=85 velocity=0 time=30
note_on channel=0 note=81 velocity=0 time=1
note_on channel=0 note=73 velocity=0 time=12
note_on channel=0 note=93 velocity=0 time=6
note_on channel=0 note=81 velocity=91 time=85
note_on channel=0 note=93 velocity=92 time=10
note_on channel=0 note=85 velocity=88 time=4
note_on channel=0 note=73 velocity=76 time=1
note_on channel=0 note=81 velocity=0 time=38
note_on channel=0 note=85 velocity=0 time=6
note_on channel=0 note=93 velocity=0 time=6
note_on channel=0 note=73 velocity=0 time=34
note_on channel=0 note=81 velocity=90 time=54
note_on channel=0 note=78 velocity=83 time=1
note_on channel=0 note=90 velocity=93 time=2
note_on channel=0 note=69 velocity=77 time=6
note_on channel=0 note=69 velocity=0 time=26
note_on channel=0 note=81 velocity=0 time=5
note_on channel=0 note=90 velocity=0 time=3
note_on channel=0 note=78 velocity=0 time=4
note_on channel=0 note=81 velocity=95 time=67
note_on channel=0 note=90 velocity=97 time=0
note_on channel=0 note=78 velocity=91 time=7
note_on channel=0 note=69 velocity=83 time=2
note_on channel=0 note=81 velocity=0 time=25
note_on channel=0 note=90 velocity=0 time=4
note_on channel=0 note=78 velocity=0 time=1
note_on channel=0 note=69 velocity=0 time=3
note_on channel=0 note=90 velocity=104 time=67
note_on channel=0 note=81 velocity=98 time=1
note_on channel=0 note=78 velocity=91 time=3
note_on channel=0 note=69 velocity=74 time=7
note_on channel=0 note=69 velocity=0 time=29
note_on channel=0 note=81 velocity=0 time=0
note_on channel=0 note=90 velocity=0 time=8
note_on channel=0 note=78 velocity=0 time=3
note_on channel=0 note=81 velocity=94 time=65
note_on channel=0 note=73 velocity=86 time=1
note_on channel=0 note=85 velocity=98 time=0
note_on channel=0 note=69 velocity=78 time=6
note_on channel=0 note=69 velocity=0 time=24
note_on channel=0 note=81 velocity=0 time=4
note_on channel=0 note=85 velocity=0 time=6
note_on channel=0 note=73 velocity=0 time=5
note_on channel=0 note=81 velocity=89 time=56
note_on channel=0 note=85 velocity=92 time=2
note_on channel=0 note=73 velocity=79 time=7
note_on channel=0 note=69 velocity=69 time=4
note_on channel=0 note=81 velocity=0 time=17
note_on channel=0 note=73 velocity=0 time=8
note_on channel=0 note=69 velocity=0 time=3
note_on channel=0 note=85 velocity=0 time=1
note_on channel=0 note=81 velocity=90 time=62
note_on channel=0 note=73 velocity=80 time=2
note_on channel=0 note=85 velocity=85 time=2
note_on channel=0 note=69 velocity=51 time=11
note_on channel=0 note=73 velocity=0 time=8
note_on channel=0 note=85 velocity=0 time=11
note_on channel=0 note=81 velocity=0 time=2
note_on channel=0 note=69 velocity=0 time=4
note_on channel=0 note=69 velocity=84 time=62
note_on channel=0 note=81 velocity=103 time=11
note_on channel=0 note=69 velocity=0 time=36
note_on channel=0 note=81 velocity=0 time=4
note_on channel=0 note=66 velocity=84 time=55
note_on channel=0 note=78 velocity=90 time=4
note_on channel=0 note=66 velocity=0 time=42
note_on channel=0 note=78 velocity=0 time=4
note_on channel=0 note=61 velocity=79 time=56
note_on channel=0 note=69 velocity=93 time=1
note_on channel=0 note=73 velocity=94 time=1
note_on channel=0 note=61 velocity=0 time=22
note_on channel=0 note=73 velocity=0 time=14
note_on channel=0 note=69 velocity=0 time=2
note_on channel=0 note=57 velocity=51 time=58
note_on channel=0 note=69 velocity=98 time=14
note_on channel=0 note=57 velocity=0 time=51
note_on channel=0 note=69 velocity=0 time=3
note_on channel=0 note=66 velocity=89 time=53
note_on channel=0 note=54 velocity=80 time=1
note_on channel=0 note=66 velocity=0 time=47
note_on channel=0 note=54 velocity=0 time=18
note_on channel=0 note=49 velocity=84 time=29
note_on channel=0 note=57 velocity=88 time=1
note_on channel=0 note=61 velocity=83 time=4
note_on channel=0 note=45 velocity=63 time=10
note_on channel=0 note=49 velocity=0 time=14
note_on channel=0 note=61 velocity=0 time=8
note_on channel=0 note=57 velocity=0 time=4
note_on channel=0 note=45 velocity=0 time=1
note_on channel=0 note=57 velocity=87 time=71
note_on channel=0 note=45 velocity=76 time=2
note_on channel=0 note=59 velocity=78 time=6
note_on channel=0 note=59 velocity=0 time=18
note_on channel=0 note=57 velocity=0 time=14
note_on channel=0 note=45 velocity=0 time=17
note_on channel=0 note=42 velocity=77 time=25
note_on channel=0 note=37 velocity=68 time=11
note_on channel=0 note=54 velocity=94 time=5
note_on channel=0 note=49 velocity=88 time=5
note_on channel=0 note=42 velocity=0 time=4
note_on channel=0 note=37 velocity=0 time=15
note_on channel=0 note=42 velocity=90 time=119
note_on channel=0 note=30 velocity=99 time=8
control_change channel=0 control=64 value=110 time=7
control_change channel=0 control=64 value=70 time=15
note_on channel=0 note=49 velocity=0 time=12
control_change channel=0 control=64 value=0 time=2
note_on channel=0 note=54 velocity=0 time=33
control_change channel=0 control=64 value=35 time=234
control_change channel=0 control=64 value=62 time=15
control_change channel=0 control=64 value=66 time=16
control_change channel=0 control=64 value=70 time=15
control_change channel=0 control=64 value=74 time=15
control_change channel=0 control=64 value=79 time=15
control_change channel=0 control=64 value=85 time=15
control_change channel=0 control=64 value=90 time=16
control_change channel=0 control=64 value=98 time=15
control_change channel=0 control=64 value=109 time=15
control_change channel=0 control=64 value=127 time=15
note_on channel=0 note=30 velocity=0 time=56
note_on channel=0 note=32 velocity=26 time=6
note_on channel=0 note=32 velocity=0 time=49
note_on channel=0 note=42 velocity=0 time=28
note_on channel=0 note=54 velocity=68 time=310
note_on channel=0 note=60 velocity=76 time=23
control_change channel=0 control=64 value=103 time=14
control_change channel=0 control=64 value=69 time=15
note_on channel=0 note=63 velocity=83 time=14
control_change channel=0 control=64 value=0 time=2
note_on channel=0 note=57 velocity=49 time=3
control_change channel=0 control=64 value=38 time=11
note_on channel=0 note=84 velocity=90 time=3
note_on channel=0 note=90 velocity=103 time=0
note_on channel=0 note=78 velocity=101 time=2
note_on channel=0 note=81 velocity=83 time=2
note_on channel=0 note=54 velocity=0 time=6
note_on channel=0 note=69 velocity=99 time=1
control_change channel=0 control=64 value=67 time=1
note_on channel=0 note=57 velocity=0 time=6
control_change channel=0 control=64 value=82 time=17
note_on channel=0 note=87 velocity=38 time=11
note_on channel=0 note=87 velocity=0 time=1
control_change channel=0 control=64 value=122 time=3
note_on channel=0 note=81 velocity=0 time=7
note_on channel=0 note=69 velocity=0 time=4
note_on channel=0 note=78 velocity=0 time=1
control_change channel=0 control=64 value=127 time=4
note_on channel=0 note=84 velocity=0 time=6
note_on channel=0 note=60 velocity=0 time=7
note_on channel=0 note=90 velocity=0 time=2
note_on channel=0 note=63 velocity=0 time=1
control_change channel=0 control=64 value=110 time=228
control_change channel=0 control=64 value=75 time=15
control_change channel=0 control=64 value=0 time=16
note_on channel=0 note=54 velocity=77 time=21
note_on channel=0 note=57 velocity=77 time=26
note_on channel=0 note=61 velocity=84 time=32
note_on channel=0 note=54 velocity=0 time=65
note_on channel=0 note=57 velocity=0 time=18
note_on channel=0 note=78 velocity=98 time=7
note_on channel=0 note=85 velocity=90 time=0
note_on channel=0 note=90 velocity=102 time=0
note_on channel=0 note=69 velocity=95 time=2
note_on channel=0 note=81 velocity=79 time=4
control_change channel=0 control=64 value=68 time=6
control_change channel=0 control=64 value=91 time=16
note_on channel=0 note=81 velocity=0 time=2
note_on channel=0 note=78 velocity=0 time=9
control_change channel=0 control=64 value=127 time=4
note_on channel=0 note=69 velocity=0 time=6
note_on channel=0 note=61 velocity=0 time=2
note_on channel=0 note=85 velocity=0 time=4
note_on channel=0 note=90 velocity=0 time=10
control_change channel=0 control=64 value=122 time=503
control_change channel=0 control=64 value=110 time=16
control_change channel=0 control=64 value=104 time=15
control_change channel=0 control=64 value=101 time=15
control_change channel=0 control=64 value=96 time=16
control_change channel=0 control=64 value=90 time=14
control_change channel=0 control=64 value=84 time=15
control_change channel=0 control=64 value=80 time=16
control_change channel=0 control=64 value=78 time=15
control_change channel=0 control=64 value=74 time=16
control_change channel=0 control=64 value=70 time=15
control_change channel=0 control=64 value=66 time=15
control_change channel=0 control=64 value=65 time=16
control_change channel=0 control=64 value=65 time=15
control_change channel=0 control=64 value=61 time=14
control_change channel=0 control=64 value=28 time=16
control_change channel=0 control=64 value=0 time=15
control_change channel=0 control=67 value=9 time=16
control_change channel=0 control=67 value=12 time=15
control_change channel=0 control=67 value=15 time=14
control_change channel=0 control=67 value=17 time=16
control_change channel=0 control=67 value=19 time=15
control_change channel=0 control=67 value=22 time=14
control_change channel=0 control=67 value=27 time=16
control_change channel=0 control=67 value=33 time=15
control_change channel=0 control=67 value=36 time=16
control_change channel=0 control=67 value=40 time=15
control_change channel=0 control=67 value=44 time=14
control_change channel=0 control=67 value=48 time=16
control_change channel=0 control=67 value=53 time=15
control_change channel=0 control=67 value=57 time=15
control_change channel=0 control=67 value=61 time=15
control_change channel=0 control=67 value=64 time=23
control_change channel=0 control=67 value=66 time=16
control_change channel=0 control=67 value=68 time=15
control_change channel=0 control=67 value=71 time=15
control_change channel=0 control=67 value=73 time=15
control_change channel=0 control=67 value=76 time=15
control_change channel=0 control=67 value=78 time=16
control_change channel=0 control=67 value=81 time=15
control_change channel=0 control=67 value=84 time=15
control_change channel=0 control=67 value=86 time=15
control_change channel=0 control=67 value=88 time=15
control_change channel=0 control=67 value=90 time=17
control_change channel=0 control=67 value=93 time=15
control_change channel=0 control=67 value=96 time=15
control_change channel=0 control=67 value=98 time=16
control_change channel=0 control=67 value=100 time=14
control_change channel=0 control=67 value=101 time=16
control_change channel=0 control=67 value=103 time=15
control_change channel=0 control=67 value=105 time=14
control_change channel=0 control=67 value=107 time=16
control_change channel=0 control=67 value=108 time=15
control_change channel=0 control=67 value=109 time=15
control_change channel=0 control=67 value=110 time=16
control_change channel=0 control=67 value=111 time=14
control_change channel=0 control=67 value=112 time=16
control_change channel=0 control=67 value=113 time=15
control_change channel=0 control=67 value=113 time=30
control_change channel=0 control=67 value=114 time=15
control_change channel=0 control=67 value=115 time=16
control_change channel=0 control=67 value=116 time=15
control_change channel=0 control=67 value=117 time=15
control_change channel=0 control=67 value=119 time=16
control_change channel=0 control=67 value=121 time=15
control_change channel=0 control=67 value=122 time=14
control_change channel=0 control=67 value=123 time=16
control_change channel=0 control=67 value=124 time=15
control_change channel=0 control=67 value=125 time=16
control_change channel=0 control=67 value=125 time=15
control_change channel=0 control=64 value=27 time=30
control_change channel=0 control=64 value=51 time=15
control_change channel=0 control=67 value=126 time=0
control_change channel=0 control=64 value=59 time=15
control_change channel=0 control=64 value=62 time=16
control_change channel=0 control=64 value=63 time=15
control_change channel=0 control=64 value=64 time=15
control_change channel=0 control=64 value=65 time=15
control_change channel=0 control=64 value=66 time=15
control_change channel=0 control=64 value=67 time=16
control_change channel=0 control=64 value=68 time=15
control_change channel=0 control=64 value=69 time=23
control_change channel=0 control=64 value=70 time=15
control_change channel=0 control=64 value=71 time=15
control_change channel=0 control=64 value=72 time=15
control_change channel=0 control=64 value=74 time=15
note_on channel=0 note=54 velocity=60 time=2
note_on channel=0 note=42 velocity=44 time=1
note_on channel=0 note=30 velocity=43 time=12
note_on channel=0 note=39 velocity=45 time=0
control_change channel=0 control=64 value=77 time=1
note_on channel=0 note=45 velocity=37 time=1
note_on channel=0 note=36 velocity=48 time=1
note_on channel=0 note=51 velocity=48 time=2
control_change channel=0 control=64 value=81 time=11
note_on channel=0 note=48 velocity=23 time=7
control_change channel=0 control=64 value=84 time=8
note_on channel=0 note=45 velocity=0 time=4
note_on channel=0 note=51 velocity=0 time=4
note_on channel=0 note=54 velocity=0 time=1
note_on channel=0 note=30 velocity=0 time=2
note_on channel=0 note=36 velocity=0 time=0
note_on channel=0 note=39 velocity=0 time=2
note_on channel=0 note=42 velocity=0 time=0
control_change channel=0 control=64 value=86 time=2
note_on channel=0 note=48 velocity=0 time=20
control_change channel=0 control=67 value=126 time=41
control_change channel=0 control=64 value=85 time=15
control_change channel=0 control=67 value=127 time=0
control_change channel=0 control=64 value=84 time=15
control_change channel=0 control=64 value=83 time=16
control_change channel=0 control=67 value=127 time=0
control_change channel=0 control=64 value=81 time=16
control_change channel=0 control=64 value=75 time=15
control_change channel=0 control=64 value=67 time=15
control_change channel=0 control=64 value=0 time=15
control_change channel=0 control=64 value=28 time=1475
control_change channel=0 control=64 value=38 time=15
control_change channel=0 control=64 value=42 time=16
control_change channel=0 control=64 value=45 time=14
control_change channel=0 control=64 value=49 time=15
control_change channel=0 control=64 value=53 time=16
control_change channel=0 control=64 value=56 time=15
control_change channel=0 control=64 value=57 time=15
control_change channel=0 control=64 value=58 time=16
control_change channel=0 control=64 value=59 time=15
control_change channel=0 control=64 value=60 time=16
control_change channel=0 control=64 value=61 time=15
control_change channel=0 control=64 value=62 time=15
control_change channel=0 control=64 value=63 time=15
control_change channel=0 control=64 value=63 time=15
control_change channel=0 control=64 value=64 time=16
control_change channel=0 control=64 value=64 time=15
control_change channel=0 control=64 value=65 time=15
control_change channel=0 control=64 value=66 time=15
control_change channel=0 control=64 value=67 time=15
control_change channel=0 control=64 value=68 time=15
control_change channel=0 control=64 value=69 time=16
control_change channel=0 control=64 value=70 time=14
control_change channel=0 control=64 value=71 time=16
note_on channel=0 note=54 velocity=43 time=5
note_on channel=0 note=49 velocity=40 time=5
note_on channel=0 note=30 velocity=38 time=3
control_change channel=0 control=64 value=75 time=2
note_on channel=0 note=37 velocity=40 time=10
note_on channel=0 note=42 velocity=26 time=4
control_change channel=0 control=64 value=78 time=1
control_change channel=0 control=64 value=81 time=16
note_on channel=0 note=49 velocity=0 time=10
control_change channel=0 control=64 value=84 time=4
note_on channel=0 note=54 velocity=0 time=2
note_on channel=0 note=37 velocity=0 time=3
note_on channel=0 note=42 velocity=0 time=6
control_change channel=0 control=64 value=86 time=4
note_on channel=0 note=30 velocity=0 time=5
control_change channel=0 control=64 value=87 time=11
control_change channel=0 control=64 value=86 time=129
control_change channel=0 control=64 value=86 time=91
control_change channel=0 control=64 value=84 time=16
control_change channel=0 control=64 value=81 time=14
control_change channel=0 control=64 value=76 time=15
control_change channel=0 control=64 value=69 time=16
control_change channel=0 control=64 value=56 time=14
control_change channel=0 control=64 value=0 time=16
control_change channel=0 control=67 value=126 time=3901
control_change channel=0 control=67 value=125 time=16
control_change channel=0 control=67 value=124 time=15
control_change channel=0 control=67 value=123 time=15
control_change channel=0 control=67 value=122 time=15
control_change channel=0 control=67 value=122 time=15
control_change channel=0 control=67 value=121 time=15
control_change channel=0 control=67 value=119 time=16
control_change channel=0 control=67 value=117 time=15
control_change channel=0 control=67 value=117 time=16
control_change channel=0 control=67 value=115 time=14
control_change channel=0 control=67 value=115 time=15
control_change channel=0 control=67 value=113 time=16
control_change channel=0 control=67 value=112 time=15
control_change channel=0 control=67 value=110 time=15
control_change channel=0 control=67 value=106 time=15
control_change channel=0 control=67 value=102 time=15
control_change channel=0 control=67 value=94 time=16
control_change channel=0 control=67 value=89 time=15
control_change channel=0 control=67 value=86 time=15
control_change channel=0 control=67 value=84 time=15
control_change channel=0 control=67 value=80 time=15
control_change channel=0 control=67 value=76 time=15
control_change channel=0 control=67 value=72 time=16
control_change channel=0 control=67 value=68 time=15
control_change channel=0 control=67 value=65 time=15
control_change channel=0 control=67 value=62 time=15
control_change channel=0 control=67 value=59 time=15
control_change channel=0 control=67 value=54 time=16
control_change channel=0 control=67 value=51 time=15
control_change channel=0 control=67 value=49 time=15
control_change channel=0 control=67 value=47 time=15
control_change channel=0 control=67 value=45 time=23
control_change channel=0 control=67 value=42 time=16
control_change channel=0 control=67 value=38 time=15
control_change channel=0 control=67 value=34 time=15
control_change channel=0 control=67 value=28 time=15
control_change channel=0 control=67 value=23 time=15
control_change channel=0 control=67 value=18 time=16
control_change channel=0 control=67 value=13 time=14
control_change channel=0 control=67 value=8 time=16
control_change channel=0 control=67 value=0 time=15
control_change channel=0 control=67 value=9 time=3702
control_change channel=0 control=67 value=11 time=16
control_change channel=0 control=67 value=13 time=15
control_change channel=0 control=67 value=16 time=15
control_change channel=0 control=67 value=20 time=15
control_change channel=0 control=67 value=27 time=15
control_change channel=0 control=67 value=32 time=16
control_change channel=0 control=67 value=34 time=14
control_change channel=0 control=67 value=36 time=17
control_change channel=0 control=67 value=36 time=15
control_change channel=0 control=67 value=37 time=15
control_change channel=0 control=67 value=37 time=16
control_change channel=0 control=67 value=38 time=15
control_change channel=0 control=67 value=37 time=90
control_change channel=0 control=67 value=37 time=16
control_change channel=0 control=67 value=36 time=15
control_change channel=0 control=67 value=36 time=15
control_change channel=0 control=67 value=35 time=61
control_change channel=0 control=67 value=35 time=15
control_change channel=0 control=67 value=34 time=16
control_change channel=0 control=67 value=34 time=46
control_change channel=0 control=67 value=33 time=30
control_change channel=0 control=67 value=33 time=15
control_change channel=0 control=67 value=32 time=30
control_change channel=0 control=67 value=32 time=46
control_change channel=0 control=67 value=31 time=15
control_change channel=0 control=67 value=31 time=15
control_change channel=0 control=67 value=30 time=15
control_change channel=0 control=67 value=30 time=46
control_change channel=0 control=67 value=29 time=15
control_change channel=0 control=67 value=29 time=114
control_change channel=0 control=67 value=28 time=46
control_change channel=0 control=67 value=28 time=45
control_change channel=0 control=67 value=27 time=62
control_change channel=0 control=67 value=27 time=61
control_change channel=0 control=67 value=26 time=105
control_change channel=0 control=67 value=26 time=92
control_change channel=0 control=64 value=17 time=1011
control_change channel=0 control=64 value=27 time=15
control_change channel=0 control=64 value=31 time=16
control_change channel=0 control=64 value=35 time=15
control_change channel=0 control=64 value=37 time=16
control_change channel=0 control=64 value=39 time=21
control_change channel=0 control=64 value=42 time=15
control_change channel=0 control=64 value=45 time=16
control_change channel=0 control=64 value=48 time=15
control_change channel=0 control=64 value=50 time=16
control_change channel=0 control=64 value=51 time=15
control_change channel=0 control=64 value=52 time=15
control_change channel=0 control=64 value=53 time=16
control_change channel=0 control=64 value=54 time=14
control_change channel=0 control=64 value=56 time=15
control_change channel=0 control=64 value=57 time=16
control_change channel=0 control=64 value=58 time=15
control_change channel=0 control=64 value=59 time=16
control_change channel=0 control=64 value=60 time=14
control_change channel=0 control=64 value=61 time=15
control_change channel=0 control=64 value=62 time=16
control_change channel=0 control=64 value=63 time=15
control_change channel=0 control=64 value=64 time=15
control_change channel=0 control=64 value=64 time=16
control_change channel=0 control=64 value=65 time=15
control_change channel=0 control=64 value=65 time=16
control_change channel=0 control=64 value=66 time=15
control_change channel=0 control=64 value=66 time=15
control_change channel=0 control=64 value=67 time=30
control_change channel=0 control=64 value=68 time=16
control_change channel=0 control=64 value=68 time=15
control_change channel=0 control=64 value=69 time=30
control_change channel=0 control=64 value=69 time=15
control_change channel=0 control=64 value=70 time=15
control_change channel=0 control=64 value=70 time=16
control_change channel=0 control=67 value=25 time=0
control_change channel=0 control=64 value=71 time=14
control_change channel=0 control=64 value=72 time=16
control_change channel=0 control=67 value=25 time=0
control_change channel=0 control=64 value=72 time=15
control_change channel=0 control=64 value=73 time=15
control_change channel=0 control=67 value=24 time=0
control_change channel=0 control=64 value=74 time=16
control_change channel=0 control=67 value=24 time=0
control_change channel=0 control=64 value=74 time=14
control_change channel=0 control=67 value=23 time=0
control_change channel=0 control=64 value=75 time=16
control_change channel=0 control=67 value=19 time=0
control_change channel=0 control=64 value=76 time=15
control_change channel=0 control=67 value=13 time=0
control_change channel=0 control=64 value=77 time=15
control_change channel=0 control=67 value=0 time=0
control_change channel=0 control=64 value=78 time=16
control_change channel=0 control=64 value=79 time=14
control_change channel=0 control=64 value=80 time=15
control_change channel=0 control=64 value=81 time=16
control_change channel=0 control=64 value=82 time=15
control_change channel=0 control=64 value=83 time=16
control_change channel=0 control=64 value=83 time=15
control_change channel=0 control=64 value=84 time=15
control_change channel=0 control=64 value=85 time=16
control_change channel=0 control=64 value=86 time=21
control_change channel=0 control=64 value=86 time=16
control_change channel=0 control=64 value=87 time=15
control_change channel=0 control=64 value=87 time=31
control_change channel=0 control=64 value=88 time=14
note_on channel=0 note=59 velocity=34 time=29
control_change channel=0 control=64 value=88 time=2
control_change channel=0 control=64 value=89 time=31
control_change channel=0 control=64 value=89 time=15
control_change channel=0 control=64 value=90 time=15
control_change channel=0 control=64 value=90 time=15
control_change channel=0 control=64 value=91 time=31
control_change channel=0 control=64 value=91 time=29
control_change channel=0 control=64 value=92 time=16
control_change channel=0 control=64 value=92 time=15
control_change channel=0 control=64 value=93 time=15
control_change channel=0 control=64 value=94 time=16
control_change channel=0 control=64 value=95 time=15
control_change channel=0 control=64 value=96 time=16
control_change channel=0 control=64 value=98 time=15
control_change channel=0 control=64 value=99 time=15
control_change channel=0 control=64 value=100 time=16
control_change channel=0 control=64 value=102 time=15
control_change channel=0 control=64 value=103 time=16
control_change channel=0 control=64 value=103 time=14
control_change channel=0 control=64 value=104 time=15
control_change channel=0 control=64 value=104 time=31
note_on channel=0 note=59 velocity=0 time=178
control_change channel=0 control=64 value=104 time=5
note_on channel=0 note=61 velocity=61 time=13
control_change channel=0 control=64 value=102 time=2
control_change channel=0 control=64 value=97 time=14
control_change channel=0 control=64 value=90 time=16
control_change channel=0 control=64 value=81 time=15
control_change channel=0 control=64 value=72 time=16
control_change channel=0 control=64 value=67 time=15
control_change channel=0 control=64 value=68 time=22
control_change channel=0 control=64 value=68 time=16
control_change channel=0 control=64 value=69 time=15
control_change channel=0 control=64 value=70 time=16
control_change channel=0 control=64 value=71 time=15
control_change channel=0 control=64 value=73 time=14
control_change channel=0 control=64 value=75 time=16
control_change channel=0 control=64 value=76 time=15
control_change channel=0 control=64 value=79 time=15
control_change channel=0 control=64 value=81 time=15
control_change channel=0 control=64 value=84 time=15
control_change channel=0 control=64 value=87 time=16
control_change channel=0 control=64 value=90 time=15
control_change channel=0 control=64 value=92 time=14
control_change channel=0 control=64 value=94 time=16
control_change channel=0 control=64 value=95 time=15
note_on channel=0 note=61 velocity=0 time=9
control_change channel=0 control=64 value=96 time=7
control_change channel=0 control=64 value=95 time=91
control_change channel=0 control=64 value=92 time=15
note_on channel=0 note=62 velocity=59 time=13
control_change channel=0 control=64 value=88 time=2
control_change channel=0 control=64 value=81 time=16
control_change channel=0 control=64 value=72 time=15
control_change channel=0 control=64 value=58 time=16
control_change channel=0 control=64 value=38 time=14
control_change channel=0 control=64 value=44 time=16
control_change channel=0 control=64 value=48 time=15
control_change channel=0 control=64 value=50 time=15
control_change channel=0 control=64 value=53 time=16
control_change channel=0 control=64 value=58 time=15
control_change channel=0 control=64 value=61 time=15
control_change channel=0 control=64 value=64 time=15
control_change channel=0 control=64 value=65 time=15
control_change channel=0 control=64 value=67 time=16
control_change channel=0 control=64 value=70 time=15
control_change channel=0 control=64 value=73 time=15
control_change channel=0 control=64 value=76 time=16
control_change channel=0 control=64 value=79 time=15
control_change channel=0 control=64 value=82 time=14
control_change channel=0 control=64 value=85 time=16
control_change channel=0 control=64 value=88 time=15
control_change channel=0 control=64 value=90 time=16
control_change channel=0 control=64 value=92 time=15
control_change channel=0 control=64 value=93 time=14
control_change channel=0 control=67 value=8 time=0
control_change channel=0 control=64 value=95 time=16
control_change channel=0 control=67 value=10 time=0
control_change channel=0 control=64 value=95 time=15
control_change channel=0 control=67 value=12 time=0
control_change channel=0 control=67 value=13 time=23
note_on channel=0 note=62 velocity=0 time=0
control_change channel=0 control=67 value=16 time=15
control_change channel=0 control=67 value=18 time=15
control_change channel=0 control=67 value=20 time=16
control_change channel=0 control=67 value=23 time=15
control_change channel=0 control=67 value=25 time=15
control_change channel=0 control=67 value=28 time=15
control_change channel=0 control=67 value=31 time=15
control_change channel=0 control=67 value=34 time=16
control_change channel=0 control=64 value=95 time=15
control_change channel=0 control=67 value=37 time=0
control_change channel=0 control=64 value=94 time=14
control_change channel=0 control=67 value=39 time=0
control_change channel=0 control=64 value=93 time=16
control_change channel=0 control=67 value=41 time=0
control_change channel=0 control=64 value=92 time=15
control_change channel=0 control=67 value=43 time=0
control_change channel=0 control=64 value=90 time=15
control_change channel=0 control=67 value=46 time=0
note_on channel=0 note=58 velocity=53 time=12
control_change channel=0 control=64 value=88 time=3
control_change channel=0 control=67 value=49 time=0
control_change channel=0 control=64 value=85 time=15
control_change channel=0 control=67 value=51 time=0
control_change channel=0 control=64 value=83 time=16
control_change channel=0 control=67 value=54 time=0
control_change channel=0 control=64 value=79 time=15
control_change channel=0 control=67 value=57 time=0
control_change channel=0 control=64 value=74 time=15
control_change channel=0 control=67 value=61 time=0
control_change channel=0 control=64 value=67 time=15
control_change channel=0 control=67 value=65 time=0
control_change channel=0 control=64 value=50 time=15
control_change channel=0 control=67 value=69 time=0
control_change channel=0 control=64 value=0 time=16
control_change channel=0 control=67 value=74 time=0
control_change channel=0 control=67 value=79 time=15
control_change channel=0 control=67 value=84 time=14
control_change channel=0 control=67 value=89 time=16
control_change channel=0 control=67 value=93 time=15
control_change channel=0 control=67 value=98 time=16
control_change channel=0 control=67 value=106 time=12
control_change channel=0 control=67 value=113 time=16
control_change channel=0 control=67 value=119 time=15
control_change channel=0 control=67 value=123 time=16
control_change channel=0 control=67 value=126 time=15
control_change channel=0 control=67 value=127 time=16
control_change channel=0 control=64 value=32 time=105
control_change channel=0 control=64 value=48 time=16
control_change channel=0 control=64 value=58 time=15
control_change channel=0 control=64 value=62 time=14
control_change channel=0 control=64 value=64 time=16
control_change channel=0 control=64 value=66 time=15
control_change channel=0 control=64 value=68 time=16
control_change channel=0 control=64 value=70 time=15
control_change channel=0 control=64 value=71 time=14
control_change channel=0 control=64 value=73 time=16
control_change channel=0 control=64 value=75 time=15
control_change channel=0 control=64 value=77 time=23
control_change channel=0 control=64 value=79 time=15
control_change channel=0 control=64 value=80 time=15
control_change channel=0 control=64 value=81 time=16
control_change channel=0 control=64 value=82 time=15
control_change channel=0 control=64 value=84 time=15
control_change channel=0 control=64 value=85 time=15
control_change channel=0 control=64 value=86 time=15
control_change channel=0 control=64 value=87 time=16
control_change channel=0 control=64 value=88 time=15
control_change channel=0 control=64 value=88 time=14
control_change channel=0 control=64 value=89 time=31
control_change channel=0 control=64 value=89 time=90
note_on channel=0 note=79 velocity=45 time=36
control_change channel=0 control=64 value=90 time=26
note_on channel=0 note=61 velocity=19 time=11
note_on channel=0 note=76 velocity=20 time=0
control_change channel=0 control=64 value=90 time=3
control_change channel=0 control=64 value=91 time=31
control_change channel=0 control=64 value=91 time=138
note_on channel=0 note=79 velocity=0 time=119
note_on channel=0 note=76 velocity=0 time=91
control_change channel=0 control=64 value=91 time=71
control_change channel=0 control=64 value=90 time=15
control_change channel=0 control=64 value=90 time=15
control_change channel=0 control=64 value=89 time=16
control_change channel=0 control=64 value=88 time=15
control_change channel=0 control=64 value=86 time=16
note_on channel=0 note=78 velocity=54 time=11
control_change channel=0 control=64 value=81 time=4
note_on channel=0 note=62 velocity=36 time=12
note_on channel=0 note=74 velocity=37 time=2
control_change channel=0 control=64 value=75 time=1
control_change channel=0 control=64 value=69 time=15
control_change channel=0 control=64 value=68 time=15
note_on channel=0 note=61 velocity=0 time=0
control_change channel=0 control=64 value=70 time=15
control_change channel=0 control=64 value=70 time=16
control_change channel=0 control=64 value=71 time=15
control_change channel=0 control=64 value=73 time=15
control_change channel=0 control=64 value=75 time=15
control_change channel=0 control=64 value=77 time=15
control_change channel=0 control=64 value=79 time=15
control_change channel=0 control=64 value=80 time=15
control_change channel=0 control=64 value=82 time=15
control_change channel=0 control=64 value=83 time=16
control_change channel=0 control=64 value=84 time=15
control_change channel=0 control=64 value=86 time=15
control_change channel=0 control=64 value=88 time=15
control_change channel=0 control=64 value=89 time=15
control_change channel=0 control=64 value=89 time=16
note_on channel=0 note=78 velocity=0 time=54
note_on channel=0 note=74 velocity=0 time=33
control_change channel=0 control=64 value=89 time=18
control_change channel=0 control=64 value=88 time=16
control_change channel=0 control=64 value=88 time=16
control_change channel=0 control=64 value=87 time=16
control_change channel=0 control=64 value=85 time=15
control_change channel=0 control=64 value=83 time=14
control_change channel=0 control=64 value=78 time=16
note_on channel=0 note=73 velocity=43 time=3
note_on channel=0 note=76 velocity=46 time=4
control_change channel=0 control=64 value=72 time=8
note_on channel=0 note=64 velocity=34 time=14
control_change channel=0 control=64 value=63 time=1
note_on channel=0 note=62 velocity=0 time=7
control_change channel=0 control=64 value=47 time=10
control_change channel=0 control=64 value=53 time=14
control_change channel=0 control=64 value=57 time=16
control_change channel=0 control=64 value=59 time=15
control_change channel=0 control=64 value=61 time=14
control_change channel=0 control=64 value=62 time=16
control_change channel=0 control=64 value=63 time=15
control_change channel=0 control=64 value=65 time=15
control_change channel=0 control=64 value=66 time=24
control_change channel=0 control=64 value=67 time=14
control_change channel=0 control=64 value=68 time=16
control_change channel=0 control=67 value=127 time=0
control_change channel=0 control=64 value=69 time=15
control_change channel=0 control=64 value=70 time=16
control_change channel=0 control=64 value=71 time=15
control_change channel=0 control=67 value=126 time=0
control_change channel=0 control=64 value=72 time=14
control_change channel=0 control=64 value=73 time=16
control_change channel=0 control=67 value=126 time=0
control_change channel=0 control=64 value=75 time=15
control_change channel=0 control=67 value=125 time=0
note_on channel=0 note=73 velocity=0 time=3
control_change channel=0 control=64 value=77 time=12
control_change channel=0 control=67 value=125 time=0
control_change channel=0 control=64 value=78 time=15
control_change channel=0 control=64 value=79 time=15
control_change channel=0 control=67 value=124 time=0
control_change channel=0 control=67 value=124 time=16
control_change channel=0 control=64 value=80 time=15
control_change channel=0 control=67 value=123 time=0
control_change channel=0 control=64 value=80 time=15
control_change channel=0 control=67 value=123 time=0
control_change channel=0 control=64 value=81 time=15
note_on channel=0 note=76 velocity=0 time=7
control_change channel=0 control=67 value=122 time=54
control_change channel=0 control=67 value=122 time=61
control_change channel=0 control=64 value=81 time=46
control_change channel=0 control=67 value=121 time=0
control_change channel=0 control=64 value=82 time=15
note_on channel=0 note=73 velocity=47 time=3
control_change channel=0 control=64 value=84 time=12
control_change channel=0 control=67 value=121 time=0
note_on channel=0 note=70 velocity=31 time=2
control_change channel=0 control=64 value=85 time=13
control_change channel=0 control=67 value=120 time=0
note_on channel=0 note=67 velocity=21 time=1
control_change channel=0 control=64 value=87 time=14
control_change channel=0 control=64 value=88 time=16
control_change channel=0 control=64 value=89 time=15
control_change channel=0 control=64 value=89 time=15
control_change channel=0 control=64 value=90 time=15
control_change channel=0 control=64 value=91 time=15
control_change channel=0 control=64 value=92 time=16
control_change channel=0 control=64 value=92 time=31
control_change channel=0 control=67 value=120 time=0
control_change channel=0 control=64 value=93 time=30
note_on channel=0 note=64 velocity=0 time=7
control_change channel=0 control=67 value=119 time=9
note_on channel=0 note=70 velocity=0 time=187
note_on channel=0 note=58 velocity=0 time=2
note_on channel=0 note=67 velocity=0 time=26
note_on channel=0 note=73 velocity=0 time=82
control_change channel=0 control=64 value=92 time=150
control_change channel=0 control=64 value=92 time=46
control_change channel=0 control=64 value=91 time=45
control_change channel=0 control=64 value=91 time=16
control_change channel=0 control=64 value=90 time=15
control_change channel=0 control=64 value=89 time=15
control_change channel=0 control=64 value=89 time=16
control_change channel=0 control=64 value=88 time=15
note_on channel=0 note=61 velocity=50 time=3
control_change channel=0 control=64 value=86 time=12
control_change channel=0 control=64 value=84 time=15
control_change channel=0 control=64 value=82 time=15
control_change channel=0 control=64 value=80 time=16
control_change channel=0 control=67 value=120 time=0
control_change channel=0 control=64 value=78 time=15
control_change channel=0 control=64 value=73 time=14
control_change channel=0 control=64 value=66 time=16
control_change channel=0 control=64 value=54 time=15
control_change channel=0 control=64 value=35 time=15
control_change channel=0 control=64 value=34 time=16
control_change channel=0 control=64 value=42 time=16
control_change channel=0 control=64 value=49 time=15
control_change channel=0 control=64 value=54 time=15
control_change channel=0 control=64 value=56 time=15
control_change channel=0 control=64 value=60 time=16
control_change channel=0 control=67 value=119 time=0
control_change channel=0 control=64 value=63 time=15
control_change channel=0 control=67 value=119 time=0
control_change channel=0 control=64 value=66 time=15
control_change channel=0 control=67 value=118 time=0
control_change channel=0 control=64 value=68 time=15
control_change channel=0 control=67 value=118 time=0
control_change channel=0 control=64 value=70 time=22
control_change channel=0 control=67 value=116 time=0
control_change channel=0 control=64 value=72 time=16
control_change channel=0 control=67 value=113 time=0
control_change channel=0 control=64 value=74 time=15
control_change channel=0 control=67 value=107 time=0
control_change channel=0 control=64 value=77 time=16
control_change channel=0 control=67 value=100 time=0
control_change channel=0 control=64 value=80 time=15
control_change channel=0 control=67 value=90 time=0
control_change channel=0 control=64 value=83 time=14
control_change channel=0 control=67 value=80 time=0
control_change channel=0 control=64 value=86 time=16
control_change channel=0 control=67 value=70 time=0
control_change channel=0 control=64 value=88 time=15
control_change channel=0 control=67 value=59 time=0
control_change channel=0 control=64 value=89 time=16
control_change channel=0 control=67 value=50 time=0
control_change channel=0 control=67 value=45 time=15
control_change channel=0 control=67 value=41 time=15
control_change channel=0 control=67 value=39 time=16
control_change channel=0 control=67 value=37 time=14
note_on channel=0 note=61 velocity=0 time=3
control_change channel=0 control=67 value=35 time=12
control_change channel=0 control=64 value=88 time=16
control_change channel=0 control=67 value=34 time=0
note_on channel=0 note=62 velocity=62 time=12
control_change channel=0 control=64 value=87 time=2
control_change channel=0 control=67 value=33 time=0
control_change channel=0 control=64 value=84 time=16
control_change channel=0 control=64 value=80 time=15
control_change channel=0 control=64 value=74 time=15
control_change channel=0 control=67 value=33 time=0
control_change channel=0 control=64 value=65 time=16
control_change channel=0 control=64 value=61 time=14
control_change channel=0 control=64 value=62 time=15
control_change channel=0 control=67 value=32 time=0
control_change channel=0 control=64 value=63 time=16
control_change channel=0 control=67 value=32 time=0
control_change channel=0 control=64 value=64 time=15
control_change channel=0 control=67 value=30 time=0
control_change channel=0 control=64 value=65 time=16
control_change channel=0 control=67 value=27 time=0
control_change channel=0 control=64 value=67 time=14
control_change channel=0 control=67 value=24 time=0
control_change channel=0 control=64 value=68 time=15
control_change channel=0 control=67 value=20 time=0
control_change channel=0 control=64 value=71 time=16
control_change channel=0 control=67 value=15 time=0
control_change channel=0 control=64 value=73 time=14
control_change channel=0 control=67 value=8 time=0
control_change channel=0 control=64 value=76 time=15
control_change channel=0 control=67 value=0 time=0
control_change channel=0 control=64 value=78 time=16
control_change channel=0 control=64 value=81 time=15
control_change channel=0 control=64 value=85 time=16
control_change channel=0 control=64 value=89 time=15
control_change channel=0 control=64 value=93 time=15
control_change channel=0 control=64 value=96 time=16
control_change channel=0 control=64 value=99 time=15
control_change channel=0 control=64 value=102 time=15
control_change channel=0 control=64 value=104 time=15
note_on channel=0 note=62 velocity=0 time=9
control_change channel=0 control=64 value=106 time=6
control_change channel=0 control=64 value=106 time=16
control_change channel=0 control=64 value=106 time=75
control_change channel=0 control=64 value=103 time=30
control_change channel=0 control=64 value=98 time=15
note_on channel=0 note=64 velocity=67 time=8
control_change channel=0 control=64 value=92 time=7
control_change channel=0 control=64 value=82 time=24
control_change channel=0 control=64 value=69 time=15
control_change channel=0 control=64 value=43 time=15
control_change channel=0 control=64 value=0 time=15
control_change channel=0 control=64 value=40 time=31
control_change channel=0 control=64 value=53 time=15
control_change channel=0 control=64 value=61 time=14
control_change channel=0 control=64 value=64 time=16
control_change channel=0 control=64 value=67 time=15
control_change channel=0 control=64 value=70 time=15
control_change channel=0 control=64 value=73 time=16
control_change channel=0 control=64 value=75 time=14
control_change channel=0 control=64 value=78 time=16
control_change channel=0 control=64 value=81 time=15
control_change channel=0 control=64 value=84 time=15
control_change channel=0 control=64 value=87 time=16
control_change channel=0 control=64 value=90 time=14
control_change channel=0 control=64 value=92 time=15
control_change channel=0 control=64 value=94 time=16
control_change channel=0 control=64 value=97 time=14
control_change channel=0 control=64 value=99 time=16
control_change channel=0 control=64 value=100 time=15
control_change channel=0 control=64 value=100 time=15
note_on channel=0 note=64 velocity=0 time=80
control_change channel=0 control=64 value=100 time=88
control_change channel=0 control=64 value=99 time=15
control_change channel=0 control=64 value=97 time=15
control_change channel=0 control=64 value=96 time=16
control_change channel=0 control=64 value=94 time=14
control_change channel=0 control=64 value=91 time=15
note_on channel=0 note=59 velocity=52 time=2
control_change channel=0 control=64 value=88 time=14
control_change channel=0 control=64 value=85 time=14
control_change channel=0 control=64 value=81 time=17
control_change channel=0 control=64 value=75 time=15
control_change channel=0 control=64 value=66 time=15
control_change channel=0 control=64 value=27 time=16
control_change channel=0 control=67 value=8 time=0
control_change channel=0 control=64 value=0 time=14
control_change channel=0 control=67 value=10 time=0
control_change channel=0 control=67 value=13 time=15
control_change channel=0 control=67 value=18 time=17
control_change channel=0 control=67 value=26 time=15
control_change channel=0 control=67 value=33 time=23
control_change channel=0 control=67 value=38 time=15
control_change channel=0 control=67 value=43 time=16
control_change channel=0 control=67 value=49 time=14
control_change channel=0 control=67 value=56 time=15
control_change channel=0 control=64 value=17 time=16
control_change channel=0 control=67 value=62 time=0
control_change channel=0 control=64 value=34 time=15
control_change channel=0 control=67 value=67 time=0
control_change channel=0 control=64 value=47 time=16
control_change channel=0 control=67 value=72 time=0
control_change channel=0 control=64 value=57 time=15
control_change channel=0 control=67 value=79 time=0
control_change channel=0 control=64 value=62 time=15
control_change channel=0 control=67 value=84 time=0
control_change channel=0 control=64 value=64 time=15
control_change channel=0 control=67 value=89 time=0
control_change channel=0 control=64 value=66 time=15
control_change channel=0 control=67 value=92 time=0
control_change channel=0 control=64 value=68 time=15
control_change channel=0 control=67 value=96 time=0
control_change channel=0 control=64 value=70 time=16
control_change channel=0 control=67 value=98 time=0
control_change channel=0 control=64 value=72 time=15
control_change channel=0 control=67 value=100 time=0
control_change channel=0 control=64 value=75 time=16
control_change channel=0 control=67 value=101 time=0
control_change channel=0 control=64 value=77 time=15
control_change channel=0 control=67 value=103 time=0
control_change channel=0 control=64 value=79 time=14
control_change channel=0 control=67 value=104 time=0
control_change channel=0 control=64 value=81 time=16
control_change channel=0 control=64 value=83 time=15
control_change channel=0 control=64 value=85 time=14
control_change channel=0 control=64 value=88 time=16
control_change channel=0 control=64 value=90 time=15
control_change channel=0 control=64 value=92 time=16
control_change channel=0 control=64 value=93 time=15
control_change channel=0 control=64 value=94 time=14
control_change channel=0 control=64 value=95 time=16
control_change channel=0 control=64 value=96 time=15
control_change channel=0 control=64 value=97 time=15
control_change channel=0 control=64 value=97 time=46
note_on channel=0 note=83 velocity=52 time=184
note_on channel=0 note=79 velocity=44 time=13
note_on channel=0 note=64 velocity=37 time=22
note_on channel=0 note=79 velocity=0 time=173
control_change channel=0 control=64 value=98 time=87
note_on channel=0 note=64 velocity=0 time=18
note_on channel=0 note=83 velocity=0 time=38
control_change channel=0 control=64 value=98 time=36
note_on channel=0 note=81 velocity=61 time=162
note_on channel=0 note=66 velocity=40 time=17
note_on channel=0 note=78 velocity=40 time=0
control_change channel=0 control=64 value=98 time=2
control_change channel=0 control=67 value=105 time=16
control_change channel=0 control=67 value=105 time=31
control_change channel=0 control=67 value=106 time=15
control_change channel=0 control=67 value=107 time=14
control_change channel=0 control=67 value=112 time=16
control_change channel=0 control=67 value=117 time=15
control_change channel=0 control=67 value=121 time=14
control_change channel=0 control=67 value=125 time=16
note_on channel=0 note=81 velocity=0 time=5
note_on channel=0 note=78 velocity=0 time=9
control_change channel=0 control=67 value=127 time=1
note_on channel=0 note=66 velocity=0 time=3
control_change channel=0 control=64 value=97 time=217
control_change channel=0 control=64 value=97 time=16
control_change channel=0 control=64 value=96 time=16
control_change channel=0 control=64 value=95 time=15
control_change channel=0 control=64 value=94 time=14
control_change channel=0 control=64 value=90 time=16
note_on channel=0 note=79 velocity=53 time=10
control_change channel=0 control=64 value=83 time=5
control_change channel=0 control=64 value=74 time=15
note_on channel=0 note=76 velocity=37 time=0
note_on channel=0 note=67 velocity=32 time=3
control_change channel=0 control=64 value=65 time=13
control_change channel=0 control=64 value=55 time=15
control_change channel=0 control=64 value=59 time=15
control_change channel=0 control=64 value=62 time=15
control_change channel=0 control=64 value=63 time=15
control_change channel=0 control=64 value=64 time=16
control_change channel=0 control=64 value=65 time=15
control_change channel=0 control=64 value=67 time=15
control_change channel=0 control=64 value=69 time=16
control_change channel=0 control=64 value=71 time=14
control_change channel=0 control=64 value=72 time=16
control_change channel=0 control=64 value=73 time=15
control_change channel=0 control=64 value=74 time=15
control_change channel=0 control=64 value=76 time=16
control_change channel=0 control=64 value=78 time=14
control_change channel=0 control=64 value=79 time=15
control_change channel=0 control=64 value=81 time=16
control_change channel=0 control=64 value=82 time=15
note_on channel=0 note=67 velocity=0 time=4
control_change channel=0 control=64 value=84 time=11
note_on channel=0 note=79 velocity=0 time=11
control_change channel=0 control=64 value=85 time=4
control_change channel=0 control=64 value=87 time=15
control_change channel=0 control=64 value=88 time=16
control_change channel=0 control=64 value=88 time=15
note_on channel=0 note=76 velocity=0 time=8
control_change channel=0 control=64 value=89 time=7
control_change channel=0 control=64 value=90 time=15
control_change channel=0 control=64 value=91 time=15
control_change channel=0 control=64 value=92 time=16
control_change channel=0 control=64 value=93 time=15
control_change channel=0 control=64 value=93 time=14
control_change channel=0 control=64 value=94 time=16
control_change channel=0 control=64 value=94 time=31
control_change channel=0 control=64 value=95 time=15
control_change channel=0 control=64 value=95 time=15
note_on channel=0 note=71 velocity=29 time=95
note_on channel=0 note=76 velocity=39 time=2
control_change channel=0 control=64 value=96 time=2
note_on channel=0 note=67 velocity=28 time=6
control_change channel=0 control=64 value=96 time=147
note_on channel=0 note=71 velocity=0 time=148
note_on channel=0 note=76 velocity=0 time=118
note_on channel=0 note=59 velocity=0 time=81
note_on channel=0 note=67 velocity=0 time=59
control_change channel=0 control=64 value=96 time=140
control_change channel=0 control=64 value=95 time=15
control_change channel=0 control=64 value=94 time=15
control_change channel=0 control=64 value=94 time=24
control_change channel=0 control=64 value=93 time=15
control_change channel=0 control=64 value=93 time=15
note_on channel=0 note=60 velocity=52 time=7
control_change channel=0 control=64 value=92 time=8
control_change channel=0 control=64 value=91 time=15
control_change channel=0 control=64 value=87 time=16
control_change channel=0 control=64 value=82 time=15
control_change channel=0 control=64 value=74 time=14
control_change channel=0 control=64 value=64 time=16
control_change channel=0 control=64 value=0 time=15
control_change channel=0 control=64 value=36 time=123
control_change channel=0 control=64 value=49 time=14
control_change channel=0 control=64 value=56 time=16
control_change channel=0 control=64 value=61 time=15
control_change channel=0 control=64 value=63 time=16
control_change channel=0 control=64 value=65 time=14
control_change channel=0 control=64 value=66 time=15
control_change channel=0 control=64 value=67 time=16
control_change channel=0 control=64 value=68 time=15
control_change channel=0 control=67 value=127 time=0
control_change channel=0 control=64 value=70 time=16
control_change channel=0 control=64 value=71 time=15
control_change channel=0 control=64 value=71 time=15
control_change channel=0 control=67 value=126 time=0
control_change channel=0 control=64 value=72 time=15
control_change channel=0 control=64 value=73 time=15
control_change channel=0 control=64 value=75 time=15
control_change channel=0 control=64 value=76 time=16
control_change channel=0 control=67 value=126 time=0
control_change channel=0 control=64 value=77 time=15
control_change channel=0 control=64 value=78 time=16
control_change channel=0 control=64 value=78 time=14
control_change channel=0 control=64 value=79 time=15
control_change channel=0 control=64 value=80 time=16
control_change channel=0 control=64 value=81 time=15
control_change channel=0 control=64 value=80 time=122
control_change channel=0 control=64 value=79 time=45
note_on channel=0 note=55 velocity=43 time=7
control_change channel=0 control=64 value=79 time=31
control_change channel=0 control=64 value=78 time=16
note_on channel=0 note=60 velocity=0 time=12
control_change channel=0 control=64 value=77 time=3
control_change channel=0 control=64 value=75 time=15
control_change channel=0 control=64 value=71 time=16
control_change channel=0 control=64 value=67 time=15
control_change channel=0 control=64 value=63 time=15
control_change channel=0 control=64 value=59 time=15
control_change channel=0 control=64 value=58 time=15
control_change channel=0 control=64 value=59 time=16
control_change channel=0 control=64 value=61 time=15
control_change channel=0 control=64 value=61 time=14
control_change channel=0 control=64 value=62 time=16
control_change channel=0 control=64 value=62 time=15
control_change channel=0 control=64 value=63 time=17
control_change channel=0 control=64 value=64 time=15
control_change channel=0 control=64 value=64 time=15
control_change channel=0 control=67 value=125 time=0
control_change channel=0 control=64 value=65 time=15
control_change channel=0 control=64 value=66 time=15
control_change channel=0 control=64 value=67 time=15
control_change channel=0 control=64 value=68 time=16
control_change channel=0 control=67 value=125 time=0
control_change channel=0 control=64 value=69 time=15
control_change channel=0 control=64 value=70 time=15
control_change channel=0 control=67 value=124 time=0
control_change channel=0 control=64 value=71 time=15
control_change channel=0 control=64 value=72 time=15
control_change channel=0 control=64 value=73 time=16
control_change channel=0 control=64 value=74 time=14
control_change channel=0 control=67 value=123 time=0
control_change channel=0 control=64 value=76 time=15
control_change channel=0 control=64 value=77 time=16
control_change channel=0 control=67 value=123 time=0
control_change channel=0 control=64 value=79 time=15
control_change channel=0 control=64 value=80 time=16
note_on channel=0 note=76 velocity=40 time=5
control_change channel=0 control=64 value=82 time=9
control_change channel=0 control=67 value=122 time=0
note_on channel=0 note=72 velocity=22 time=6
control_change channel=0 control=64 value=83 time=9
control_change channel=0 control=64 value=85 time=16
control_change channel=0 control=64 value=86 time=15
control_change channel=0 control=64 value=88 time=16
control_change channel=0 control=67 value=122 time=0
control_change channel=0 control=64 value=90 time=14
control_change channel=0 control=64 value=91 time=15
control_change channel=0 control=67 value=121 time=0
control_change channel=0 control=64 value=92 time=16
control_change channel=0 control=67 value=120 time=0
control_change channel=0 control=64 value=93 time=15
control_change channel=0 control=67 value=119 time=0
control_change channel=0 control=64 value=95 time=15
control_change channel=0 control=67 value=118 time=0
control_change channel=0 control=64 value=96 time=15
control_change channel=0 control=67 value=117 time=0
control_change channel=0 control=64 value=98 time=15
control_change channel=0 control=67 value=116 time=0
control_change channel=0 control=64 value=99 time=16
control_change channel=0 control=67 value=115 time=0
control_change channel=0 control=64 value=100 time=15
control_change channel=0 control=67 value=114 time=0
control_change channel=0 control=64 value=101 time=15
control_change channel=0 control=67 value=114 time=0
control_change channel=0 control=64 value=101 time=16
control_change channel=0 control=67 value=113 time=0
control_change channel=0 control=64 value=102 time=14
control_change channel=0 control=67 value=112 time=0
control_change channel=0 control=64 value=102 time=15
control_change channel=0 control=67 value=111 time=0
control_change channel=0 control=64 value=103 time=23
control_change channel=0 control=67 value=110 time=0
note_on channel=0 note=55 velocity=0 time=3
control_change channel=0 control=67 value=110 time=12
note_on channel=0 note=76 velocity=0 time=0
control_change channel=0 control=67 value=109 time=16
control_change channel=0 control=64 value=103 time=14
control_change channel=0 control=67 value=107 time=0
control_change channel=0 control=67 value=106 time=16
control_change channel=0 control=67 value=105 time=15
control_change channel=0 control=67 value=103 time=15
control_change channel=0 control=67 value=101 time=16
control_change channel=0 control=67 value=100 time=15
control_change channel=0 control=67 value=99 time=15
note_on channel=0 note=72 velocity=0 time=6
control_change channel=0 control=67 value=99 time=10
control_change channel=0 control=67 value=98 time=14
control_change channel=0 control=67 value=97 time=16
control_change channel=0 control=67 value=97 time=15
note_on channel=0 note=67 velocity=42 time=13
control_change channel=0 control=67 value=96 time=2
note_on channel=0 note=64 velocity=32 time=12
control_change channel=0 control=67 value=95 time=4
control_change channel=0 control=67 value=94 time=15
control_change channel=0 control=67 value=93 time=14
control_change channel=0 control=67 value=92 time=17
control_change channel=0 control=67 value=90 time=15
control_change channel=0 control=67 value=89 time=16
control_change channel=0 control=67 value=88 time=15
control_change channel=0 control=67 value=87 time=15
control_change channel=0 control=67 value=85 time=15
control_change channel=0 control=67 value=84 time=15
control_change channel=0 control=67 value=82 time=16
control_change channel=0 control=67 value=80 time=15
control_change channel=0 control=67 value=79 time=15
control_change channel=0 control=67 value=77 time=15
control_change channel=0 control=67 value=75 time=15
control_change channel=0 control=67 value=72 time=15
control_change channel=0 control=67 value=70 time=16
control_change channel=0 control=67 value=68 time=14
control_change channel=0 control=67 value=66 time=16
control_change channel=0 control=67 value=65 time=15
control_change channel=0 control=64 value=103 time=15
control_change channel=0 control=67 value=63 time=0
note_on channel=0 note=64 velocity=0 time=4
note_on channel=0 note=67 velocity=0 time=1
control_change channel=0 control=67 value=61 time=11
control_change channel=0 control=67 value=58 time=14
control_change channel=0 control=67 value=56 time=15
control_change channel=0 control=67 value=53 time=16
control_change channel=0 control=67 value=50 time=14
control_change channel=0 control=64 value=102 time=16
control_change channel=0 control=67 value=47 time=0
control_change channel=0 control=64 value=102 time=15
control_change channel=0 control=67 value=43 time=0
control_change channel=0 control=64 value=101 time=15
control_change channel=0 control=67 value=38 time=0
control_change channel=0 control=67 value=34 time=16
control_change channel=0 control=64 value=101 time=14
control_change channel=0 control=67 value=32 time=0
control_change channel=0 control=64 value=100 time=15
control_change channel=0 control=67 value=29 time=0
note_on channel=0 note=59 velocity=59 time=13
control_change channel=0 control=64 value=97 time=3
control_change channel=0 control=67 value=27 time=0
control_change channel=0 control=64 value=89 time=15
control_change channel=0 control=67 value=27 time=0
control_change channel=0 control=64 value=75 time=16
control_change channel=0 control=64 value=58 time=22
control_change channel=0 control=64 value=0 time=16
control_change channel=0 control=67 value=27 time=45
control_change channel=0 control=67 value=28 time=15
control_change channel=0 control=64 value=37 time=15
control_change channel=0 control=67 value=28 time=0
control_change channel=0 control=64 value=56 time=16
control_change channel=0 control=67 value=29 time=0
control_change channel=0 control=64 value=62 time=14
control_change channel=0 control=67 value=29 time=0
control_change channel=0 control=64 value=64 time=16
control_change channel=0 control=67 value=30 time=0
control_change channel=0 control=64 value=66 time=15
control_change channel=0 control=67 value=30 time=0
control_change channel=0 control=64 value=68 time=15
control_change channel=0 control=67 value=31 time=0
control_change channel=0 control=64 value=70 time=16
control_change channel=0 control=67 value=32 time=0
control_change channel=0 control=64 value=71 time=15
control_change channel=0 control=67 value=33 time=0
control_change channel=0 control=64 value=73 time=15
control_change channel=0 control=67 value=34 time=0
control_change channel=0 control=64 value=75 time=15
control_change channel=0 control=67 value=35 time=0
control_change channel=0 control=64 value=77 time=15
control_change channel=0 control=67 value=36 time=0
control_change channel=0 control=64 value=78 time=16
control_change channel=0 control=67 value=37 time=0
control_change channel=0 control=64 value=79 time=15
control_change channel=0 control=67 value=37 time=0
control_change channel=0 control=64 value=80 time=15
control_change channel=0 control=67 value=38 time=0
control_change channel=0 control=64 value=81 time=16
control_change channel=0 control=67 value=40 time=0
control_change channel=0 control=67 value=43 time=15
control_change channel=0 control=67 value=48 time=16
control_change channel=0 control=67 value=53 time=15
control_change channel=0 control=67 value=59 time=15
control_change channel=0 control=67 value=66 time=15
control_change channel=0 control=67 value=73 time=15
control_change channel=0 control=67 value=79 time=15
control_change channel=0 control=67 value=83 time=16
control_change channel=0 control=64 value=80 time=15
control_change channel=0 control=67 value=87 time=0
control_change channel=0 control=64 value=80 time=16
control_change channel=0 control=67 value=91 time=0
control_change channel=0 control=67 value=96 time=15
control_change channel=0 control=64 value=79 time=14
control_change channel=0 control=67 value=99 time=0
control_change channel=0 control=67 value=102 time=16
control_change channel=0 control=64 value=79 time=15
control_change channel=0 control=67 value=106 time=0
control_change channel=0 control=64 value=77 time=16
control_change channel=0 control=67 value=109 time=0
control_change channel=0 control=64 value=76 time=15
control_change channel=0 control=67 value=111 time=0
control_change channel=0 control=64 value=73 time=14
control_change channel=0 control=67 value=113 time=0
note_on channel=0 note=59 velocity=0 time=1
control_change channel=0 control=64 value=67 time=15
control_change channel=0 control=67 value=114 time=0
note_on channel=0 note=55 velocity=41 time=10
control_change channel=0 control=64 value=55 time=5
control_change channel=0 control=67 value=115 time=0
control_change channel=0 control=64 value=11 time=15
control_change channel=0 control=67 value=117 time=0
control_change channel=0 control=64 value=14 time=16
control_change channel=0 control=67 value=118 time=0
control_change channel=0 control=64 value=34 time=13
control_change channel=0 control=64 value=44 time=16
control_change channel=0 control=64 value=49 time=15
control_change channel=0 control=64 value=53 time=15
control_change channel=0 control=64 value=56 time=15
control_change channel=0 control=64 value=60 time=15
control_change channel=0 control=64 value=63 time=15
control_change channel=0 control=64 value=65 time=16
control_change channel=0 control=64 value=66 time=22
control_change channel=0 control=64 value=67 time=16
control_change channel=0 control=64 value=68 time=15
control_change channel=0 control=64 value=70 time=16
control_change channel=0 control=64 value=71 time=15
control_change channel=0 control=64 value=72 time=14
control_change channel=0 control=67 value=118 time=0
control_change channel=0 control=64 value=74 time=16
control_change channel=0 control=64 value=75 time=15
control_change channel=0 control=64 value=77 time=14
control_change channel=0 control=67 value=117 time=0
control_change channel=0 control=64 value=79 time=16
control_change channel=0 control=64 value=80 time=15
control_change channel=0 control=67 value=117 time=0
control_change channel=0 control=64 value=82 time=16
control_change channel=0 control=64 value=83 time=15
control_change channel=0 control=64 value=85 time=15
control_change channel=0 control=67 value=116 time=0
control_change channel=0 control=64 value=86 time=16
control_change channel=0 control=64 value=88 time=15
control_change channel=0 control=64 value=89 time=14
control_change channel=0 control=64 value=90 time=16
control_change channel=0 control=64 value=92 time=15
note_on channel=0 note=55 velocity=0 time=5
control_change channel=0 control=64 value=92 time=11
control_change channel=0 control=64 value=93 time=15
control_change channel=0 control=64 value=94 time=15
note_on channel=0 note=76 velocity=48 time=14
control_change channel=0 control=64 value=94 time=1
note_on channel=0 note=71 velocity=40 time=3
control_change channel=0 control=64 value=95 time=12
control_change channel=0 control=67 value=116 time=0
control_change channel=0 control=64 value=95 time=16
control_change channel=0 control=64 value=96 time=16
control_change channel=0 control=64 value=96 time=15
control_change channel=0 control=64 value=97 time=15
control_change channel=0 control=64 value=97 time=15
control_change channel=0 control=64 value=98 time=15
control_change channel=0 control=67 value=115 time=0
control_change channel=0 control=64 value=98 time=31
control_change channel=0 control=64 value=99 time=16
control_change channel=0 control=64 value=99 time=14
control_change channel=0 control=64 value=100 time=15
control_change channel=0 control=64 value=100 time=16
control_change channel=0 control=67 value=115 time=0
control_change channel=0 control=64 value=101 time=29
control_change channel=0 control=64 value=101 time=16
control_change channel=0 control=64 value=102 time=31
note_on channel=0 note=71 velocity=0 time=12
control_change channel=0 control=64 value=102 time=3
control_change channel=0 control=64 value=103 time=15
note_on channel=0 note=76 velocity=0 time=51
control_change channel=0 control=64 value=103 time=41
control_change channel=0 control=67 value=114 time=53
note_on channel=0 note=67 velocity=42 time=142
note_on channel=0 note=64 velocity=30 time=4
control_change channel=0 control=67 value=114 time=21
control_change channel=0 control=67 value=113 time=90
control_change channel=0 control=67 value=113 time=76
note_on channel=0 note=64 velocity=0 time=129
note_on channel=0 note=67 velocity=0 time=3
control_change channel=0 control=67 value=112 time=174
control_change channel=0 control=64 value=103 time=159
control_change channel=0 control=67 value=112 time=46
control_change channel=0 control=67 value=111 time=61
control_change channel=0 control=64 value=102 time=30
control_change channel=0 control=64 value=102 time=15
control_change channel=0 control=64 value=101 time=15
control_change channel=0 control=64 value=101 time=16
control_change channel=0 control=64 value=100 time=15
control_change channel=0 control=67 value=111 time=0
control_change channel=0 control=64 value=99 time=15
control_change channel=0 control=64 value=98 time=15
note_on channel=0 note=76 velocity=64 time=11
control_change channel=0 control=64 value=97 time=4
note_on channel=0 note=73 velocity=52 time=2
note_on channel=0 note=64 velocity=47 time=1
note_on channel=0 note=58 velocity=53 time=10
control_change channel=0 control=64 value=95 time=2
control_change channel=0 control=64 value=92 time=16
control_change channel=0 control=64 value=87 time=15
control_change channel=0 control=64 value=83 time=15
control_change channel=0 control=64 value=77 time=15
control_change channel=0 control=64 value=69 time=15
control_change channel=0 control=64 value=56 time=16
control_change channel=0 control=64 value=0 time=14
control_change channel=0 control=64 value=26 time=108
control_change channel=0 control=64 value=42 time=15
control_change channel=0 control=67 value=110 time=0
control_change channel=0 control=64 value=49 time=16
control_change channel=0 control=67 value=110 time=0
control_change channel=0 control=64 value=55 time=15
control_change channel=0 control=67 value=109 time=0
control_change channel=0 control=64 value=59 time=14
control_change channel=0 control=67 value=109 time=0
control_change channel=0 control=64 value=61 time=16
control_change channel=0 control=67 value=108 time=0
control_change channel=0 control=64 value=63 time=15
control_change channel=0 control=67 value=107 time=0
control_change channel=0 control=64 value=64 time=15
control_change channel=0 control=67 value=107 time=0
control_change channel=0 control=64 value=65 time=15
control_change channel=0 control=64 value=67 time=15
control_change channel=0 control=67 value=106 time=0
control_change channel=0 control=64 value=68 time=16
control_change channel=0 control=67 value=105 time=0
control_change channel=0 control=64 value=69 time=15
control_change channel=0 control=67 value=104 time=0
control_change channel=0 control=64 value=70 time=15
control_change channel=0 control=67 value=101 time=0
control_change channel=0 control=64 value=71 time=16
control_change channel=0 control=67 value=98 time=0
control_change channel=0 control=64 value=73 time=15
control_change channel=0 control=67 value=93 time=0
control_change channel=0 control=64 value=75 time=15
control_change channel=0 control=67 value=88 time=0
control_change channel=0 control=64 value=76 time=23
control_change channel=0 control=67 value=81 time=0
control_change channel=0 control=64 value=78 time=14
control_change channel=0 control=67 value=76 time=0
control_change channel=0 control=64 value=78 time=16
control_change channel=0 control=67 value=70 time=0
control_change channel=0 control=64 value=79 time=15
control_change channel=0 control=67 value=64 time=0
control_change channel=0 control=64 value=80 time=16
control_change channel=0 control=67 value=59 time=0
control_change channel=0 control=64 value=81 time=14
control_change channel=0 control=67 value=54 time=0
control_change channel=0 control=64 value=82 time=15
control_change channel=0 control=67 value=52 time=0
control_change channel=0 control=67 value=50 time=16
control_change channel=0 control=67 value=48 time=15
control_change channel=0 control=67 value=46 time=15
control_change channel=0 control=67 value=44 time=16
control_change channel=0 control=67 value=42 time=15
control_change channel=0 control=67 value=40 time=15
control_change channel=0 control=67 value=37 time=15
control_change channel=0 control=67 value=34 time=15
note_on channel=0 note=55 velocity=59 time=10
control_change channel=0 control=67 value=30 time=6
control_change channel=0 control=64 value=81 time=15
control_change channel=0 control=67 value=27 time=0
control_change channel=0 control=67 value=24 time=15
control_change channel=0 control=64 value=81 time=15
control_change channel=0 control=67 value=21 time=0
control_change channel=0 control=67 value=17 time=15
control_change channel=0 control=64 value=80 time=16
control_change channel=0 control=67 value=13 time=0
control_change channel=0 control=64 value=80 time=15
control_change channel=0 control=67 value=9 time=0
note_on channel=0 note=58 velocity=0 time=11
control_change channel=0 control=67 value=0 time=4
control_change channel=0 control=64 value=79 time=46
control_change channel=0 control=64 value=79 time=45
control_change channel=0 control=64 value=78 time=15
control_change channel=0 control=64 value=77 time=15
control_change channel=0 control=64 value=77 time=30
control_change channel=0 control=64 value=76 time=47
control_change channel=0 control=64 value=76 time=31
control_change channel=0 control=64 value=75 time=14
control_change channel=0 control=64 value=75 time=16
control_change channel=0 control=64 value=74 time=15
control_change channel=0 control=64 value=73 time=16
control_change channel=0 control=64 value=72 time=15
note_on channel=0 note=54 velocity=60 time=2
control_change channel=0 control=64 value=70 time=12
control_change channel=0 control=64 value=69 time=16
note_on channel=0 note=55 velocity=0 time=5
control_change channel=0 control=64 value=68 time=10
control_change channel=0 control=64 value=67 time=16
control_change channel=0 control=64 value=67 time=14
control_change channel=0 control=64 value=66 time=15
control_change channel=0 control=64 value=66 time=16
note_on channel=0 note=57 velocity=60 time=2
control_change channel=0 control=64 value=65 time=21
control_change channel=0 control=64 value=64 time=16
control_change channel=0 control=64 value=64 time=14
control_change channel=0 control=64 value=63 time=15
note_on channel=0 note=54 velocity=0 time=11
control_change channel=0 control=64 value=60 time=5
control_change channel=0 control=64 value=57 time=14
control_change channel=0 control=64 value=52 time=15
control_change channel=0 control=64 value=46 time=16
note_on channel=0 note=57 velocity=0 time=1
note_on channel=0 note=55 velocity=60 time=6
control_change channel=0 control=64 value=36 time=8
control_change channel=0 control=64 value=0 time=16
control_change channel=0 control=67 value=8 time=348
control_change channel=0 control=67 value=10 time=16
control_change channel=0 control=67 value=13 time=15
control_change channel=0 control=67 value=15 time=16
control_change channel=0 control=67 value=19 time=15
control_change channel=0 control=67 value=21 time=14
control_change channel=0 control=67 value=24 time=17
control_change channel=0 control=67 value=28 time=15
control_change channel=0 control=67 value=31 time=15
control_change channel=0 control=67 value=34 time=16
control_change channel=0 control=67 value=36 time=15
control_change channel=0 control=67 value=38 time=15
control_change channel=0 control=67 value=40 time=15
control_change channel=0 control=67 value=43 time=15
control_change channel=0 control=67 value=46 time=16
control_change channel=0 control=67 value=49 time=14
control_change channel=0 control=67 value=51 time=15
control_change channel=0 control=67 value=53 time=16
control_change channel=0 control=67 value=55 time=23
control_change channel=0 control=64 value=30 time=16
control_change channel=0 control=67 value=58 time=0
control_change channel=0 control=64 value=41 time=14
control_change channel=0 control=67 value=61 time=0
control_change channel=0 control=64 value=49 time=16
control_change channel=0 control=67 value=62 time=0
control_change channel=0 control=64 value=54 time=15
control_change channel=0 control=67 value=65 time=0
control_change channel=0 control=64 value=59 time=15
control_change channel=0 control=67 value=66 time=0
control_change channel=0 control=64 value=61 time=16
control_change channel=0 control=67 value=69 time=0
control_change channel=0 control=64 value=62 time=14
control_change channel=0 control=67 value=71 time=0
control_change channel=0 control=64 value=63 time=15
control_change channel=0 control=67 value=73 time=0
control_change channel=0 control=64 value=64 time=16
control_change channel=0 control=67 value=74 time=0
control_change channel=0 control=64 value=65 time=14
control_change channel=0 control=67 value=76 time=0
control_change channel=0 control=64 value=66 time=16
control_change channel=0 control=67 value=77 time=0
control_change channel=0 control=64 value=67 time=15
control_change channel=0 control=67 value=78 time=0
control_change channel=0 control=64 value=68 time=15
control_change channel=0 control=67 value=80 time=0
control_change channel=0 control=64 value=68 time=16
control_change channel=0 control=67 value=82 time=0
control_change channel=0 control=64 value=69 time=14
control_change channel=0 control=67 value=84 time=0
control_change channel=0 control=64 value=70 time=15
control_change channel=0 control=67 value=85 time=0
control_change channel=0 control=64 value=71 time=16
control_change channel=0 control=67 value=87 time=0
control_change channel=0 control=64 value=72 time=15
control_change channel=0 control=67 value=89 time=0
control_change channel=0 control=64 value=73 time=16
control_change channel=0 control=67 value=90 time=0
control_change channel=0 control=64 value=74 time=14
control_change channel=0 control=67 value=92 time=0
control_change channel=0 control=64 value=75 time=15
control_change channel=0 control=67 value=94 time=0
control_change channel=0 control=64 value=76 time=16
control_change channel=0 control=67 value=96 time=0
control_change channel=0 control=64 value=76 time=15
control_change channel=0 control=67 value=98 time=0
control_change channel=0 control=67 value=100 time=16
control_change channel=0 control=67 value=102 time=15
control_change channel=0 control=64 value=77 time=15
control_change channel=0 control=67 value=105 time=0
control_change channel=0 control=67 value=108 time=15
control_change channel=0 control=67 value=110 time=15
control_change channel=0 control=67 value=112 time=15
control_change channel=0 control=67 value=114 time=16
control_change channel=0 control=67 value=117 time=15
control_change channel=0 control=67 value=119 time=16
control_change channel=0 control=67 value=123 time=14
control_change channel=0 control=67 value=125 time=15
control_change channel=0 control=67 value=127 time=16
control_change channel=0 control=67 value=127 time=14
control_change channel=0 control=64 value=77 time=46
control_change channel=0 control=64 value=78 time=16
note_on channel=0 note=55 velocity=0 time=4
note_on channel=0 note=54 velocity=53 time=3
control_change channel=0 control=64 value=79 time=8
control_change channel=0 control=64 value=81 time=16
control_change channel=0 control=64 value=83 time=15
control_change channel=0 control=64 value=86 time=15
note_on channel=0 note=76 velocity=0 time=11
control_change channel=0 control=64 value=88 time=5
control_change channel=0 control=64 value=90 time=15
note_on channel=0 note=73 velocity=0 time=3
control_change channel=0 control=64 value=91 time=12
control_change channel=0 control=64 value=93 time=15
control_change channel=0 control=64 value=93 time=15
control_change channel=0 control=64 value=94 time=23
note_on channel=0 note=54 velocity=0 time=6
control_change channel=0 control=64 value=93 time=86
note_on channel=0 note=64 velocity=0 time=31
control_change channel=0 control=64 value=93 time=14
control_change channel=0 control=64 value=92 time=15
control_change channel=0 control=64 value=91 time=16
control_change channel=0 control=64 value=89 time=14
note_on channel=0 note=54 velocity=36 time=8
control_change channel=0 control=64 value=86 time=8
note_on channel=0 note=47 velocity=39 time=4
control_change channel=0 control=64 value=80 time=11
control_change channel=0 control=64 value=71 time=14
control_change channel=0 control=64 value=58 time=16
control_change channel=0 control=64 value=0 time=15
control_change channel=0 control=64 value=36 time=167
control_change channel=0 control=64 value=49 time=15
control_change channel=0 control=64 value=57 time=15
control_change channel=0 control=64 value=61 time=15
control_change channel=0 control=64 value=63 time=16
control_change channel=0 control=64 value=64 time=15
control_change channel=0 control=64 value=66 time=16
control_change channel=0 control=64 value=67 time=15
control_change channel=0 control=64 value=69 time=15
control_change channel=0 control=64 value=70 time=15
control_change channel=0 control=64 value=71 time=15
control_change channel=0 control=64 value=73 time=15
control_change channel=0 control=64 value=74 time=16
control_change channel=0 control=64 value=76 time=14
control_change channel=0 control=64 value=77 time=16
control_change channel=0 control=64 value=78 time=15
control_change channel=0 control=64 value=79 time=15
control_change channel=0 control=64 value=81 time=17
control_change channel=0 control=64 value=82 time=15
control_change channel=0 control=64 value=84 time=16
control_change channel=0 control=64 value=85 time=14
control_change channel=0 control=64 value=86 time=15
control_change channel=0 control=64 value=88 time=23
control_change channel=0 control=64 value=89 time=14
control_change channel=0 control=64 value=91 time=16
control_change channel=0 control=64 value=92 time=15
control_change channel=0 control=64 value=93 time=15
control_change channel=0 control=64 value=94 time=16
control_change channel=0 control=64 value=95 time=15
control_change channel=0 control=64 value=95 time=15
control_change channel=0 control=64 value=96 time=16
control_change channel=0 control=64 value=97 time=15
control_change channel=0 control=64 value=98 time=15
control_change channel=0 control=64 value=98 time=30
note_on channel=0 note=66 velocity=39 time=48
note_on channel=0 note=62 velocity=30 time=13
control_change channel=0 control=64 value=99 time=2
control_change channel=0 control=64 value=99 time=46
control_change channel=0 control=64 value=100 time=15
control_change channel=0 control=64 value=100 time=15
control_change channel=0 control=64 value=101 time=15
control_change channel=0 control=64 value=101 time=31
note_on channel=0 note=66 velocity=0 time=125
note_on channel=0 note=62 velocity=0 time=213
note_on channel=0 note=74 velocity=43 time=348
note_on channel=0 note=71 velocity=37 time=5
control_change channel=0 control=64 value=102 time=1071
control_change channel=0 control=64 value=102 time=16
control_change channel=0 control=64 value=104 time=15
control_change channel=0 control=64 value=106 time=15
control_change channel=0 control=64 value=108 time=16
control_change channel=0 control=64 value=110 time=15
control_change channel=0 control=64 value=113 time=16
control_change channel=0 control=64 value=117 time=14
control_change channel=0 control=64 value=121 time=15
control_change channel=0 control=64 value=123 time=16
note_on channel=0 note=71 velocity=0 time=4
control_change channel=0 control=64 value=124 time=11
control_change channel=0 control=64 value=126 time=15
control_change channel=0 control=64 value=127 time=23
note_on channel=0 note=47 velocity=0 time=106
note_on channel=0 note=54 velocity=0 time=49
note_on channel=0 note=74 velocity=0 time=78
control_change channel=0 control=67 value=126 time=25
control_change channel=0 control=67 value=125 time=16
control_change channel=0 control=67 value=122 time=15
control_change channel=0 control=67 value=117 time=16
control_change channel=0 control=67 value=112 time=15
control_change channel=0 control=67 value=104 time=15
control_change channel=0 control=67 value=96 time=16
control_change channel=0 control=67 value=89 time=14
control_change channel=0 control=67 value=83 time=16
control_change channel=0 control=67 value=78 time=15
control_change channel=0 control=67 value=74 time=15
control_change channel=0 control=67 value=71 time=16
control_change channel=0 control=67 value=68 time=14
control_change channel=0 control=67 value=66 time=15
control_change channel=0 control=67 value=64 time=16
control_change channel=0 control=67 value=61 time=15
control_change channel=0 control=64 value=123 time=16
control_change channel=0 control=67 value=60 time=0
control_change channel=0 control=64 value=118 time=14
control_change channel=0 control=67 value=58 time=0
note_on channel=0 note=62 velocity=65 time=13
control_change channel=0 control=64 value=113 time=2
control_change channel=0 control=67 value=56 time=0
control_change channel=0 control=64 value=111 time=16
control_change channel=0 control=67 value=54 time=0
control_change channel=0 control=64 value=108 time=14
control_change channel=0 control=67 value=52 time=0
control_change channel=0 control=64 value=104 time=15
control_change channel=0 control=67 value=50 time=0
control_change channel=0 control=64 value=99 time=16
control_change channel=0 control=67 value=49 time=0
control_change channel=0 control=64 value=91 time=15
control_change channel=0 control=67 value=47 time=0
control_change channel=0 control=64 value=82 time=16
control_change channel=0 control=67 value=46 time=0
control_change channel=0 control=64 value=73 time=14
control_change channel=0 control=67 value=44 time=0
control_change channel=0 control=64 value=62 time=15
control_change channel=0 control=67 value=43 time=0
control_change channel=0 control=64 value=44 time=16
control_change channel=0 control=67 value=42 time=0
control_change channel=0 control=64 value=50 time=15
control_change channel=0 control=67 value=41 time=0
control_change channel=0 control=64 value=54 time=15
control_change channel=0 control=67 value=40 time=0
control_change channel=0 control=64 value=55 time=15
control_change channel=0 control=67 value=39 time=0
control_change channel=0 control=64 value=57 time=15
control_change channel=0 control=67 value=37 time=0
control_change channel=0 control=64 value=59 time=24
control_change channel=0 control=67 value=36 time=0
control_change channel=0 control=64 value=61 time=15
control_change channel=0 control=67 value=35 time=0
control_change channel=0 control=64 value=62 time=15
control_change channel=0 control=67 value=33 time=0
control_change channel=0 control=64 value=64 time=15
control_change channel=0 control=67 value=32 time=0
control_change channel=0 control=64 value=65 time=15
control_change channel=0 control=67 value=30 time=0
control_change channel=0 control=64 value=66 time=16
control_change channel=0 control=67 value=28 time=0
control_change channel=0 control=64 value=68 time=15
control_change channel=0 control=67 value=27 time=0
control_change channel=0 control=64 value=70 time=14
control_change channel=0 control=67 value=25 time=0
control_change channel=0 control=64 value=72 time=17
control_change channel=0 control=67 value=24 time=0
control_change channel=0 control=64 value=74 time=15
control_change channel=0 control=67 value=22 time=0
control_change channel=0 control=64 value=77 time=16
control_change channel=0 control=67 value=20 time=0
control_change channel=0 control=64 value=79 time=15
control_change channel=0 control=67 value=18 time=0
control_change channel=0 control=64 value=82 time=15
control_change channel=0 control=67 value=16 time=0
control_change channel=0 control=64 value=84 time=15
control_change channel=0 control=67 value=14 time=0
control_change channel=0 control=64 value=86 time=15
control_change channel=0 control=67 value=11 time=0
control_change channel=0 control=64 value=87 time=16
control_change channel=0 control=67 value=9 time=0
control_change channel=0 control=64 value=89 time=15
control_change channel=0 control=67 value=0 time=0
control_change channel=0 control=64 value=91 time=14
control_change channel=0 control=64 value=92 time=16
control_change channel=0 control=64 value=93 time=15
control_change channel=0 control=64 value=94 time=15
control_change channel=0 control=64 value=94 time=30
control_change channel=0 control=64 value=94 time=31
note_on channel=0 note=62 velocity=0 time=49
control_change channel=0 control=64 value=93 time=27
control_change channel=0 control=64 value=92 time=15
control_change channel=0 control=64 value=91 time=16
note_on channel=0 note=64 velocity=63 time=0
control_change channel=0 control=64 value=90 time=15
control_change channel=0 control=64 value=88 time=15
control_change channel=0 control=64 value=84 time=16
control_change channel=0 control=64 value=76 time=14
control_change channel=0 control=64 value=68 time=16
control_change channel=0 control=64 value=65 time=15
control_change channel=0 control=64 value=65 time=15
control_change channel=0 control=64 value=66 time=16
control_change channel=0 control=64 value=67 time=29
control_change channel=0 control=64 value=68 time=16
control_change channel=0 control=64 value=69 time=14
control_change channel=0 control=64 value=71 time=16
control_change channel=0 control=64 value=73 time=15
control_change channel=0 control=64 value=75 time=15
control_change channel=0 control=64 value=77 time=16
control_change channel=0 control=64 value=80 time=14
control_change channel=0 control=64 value=83 time=15
control_change channel=0 control=64 value=86 time=24
control_change channel=0 control=64 value=89 time=15
control_change channel=0 control=64 value=92 time=15
control_change channel=0 control=64 value=93 time=15
note_on channel=0 note=64 velocity=0 time=13
control_change channel=0 control=64 value=94 time=3
control_change channel=0 control=64 value=95 time=30
control_change channel=0 control=64 value=94 time=15
note_on channel=0 note=66 velocity=66 time=59
control_change channel=0 control=64 value=93 time=2
control_change channel=0 control=64 value=91 time=17
control_change channel=0 control=64 value=87 time=14
control_change channel=0 control=64 value=82 time=15
control_change channel=0 control=64 value=74 time=16
control_change channel=0 control=64 value=65 time=15
control_change channel=0 control=64 value=56 time=16
control_change channel=0 control=64 value=58 time=14
control_change channel=0 control=64 value=60 time=15
control_change channel=0 control=64 value=62 time=16
control_change channel=0 control=64 value=63 time=15
control_change channel=0 control=64 value=64 time=14
control_change channel=0 control=64 value=66 time=16
control_change channel=0 control=64 value=68 time=15
control_change channel=0 control=64 value=70 time=16
control_change channel=0 control=64 value=72 time=15
control_change channel=0 control=64 value=74 time=14
control_change channel=0 control=64 value=77 time=16
control_change channel=0 control=64 value=81 time=15
control_change channel=0 control=64 value=85 time=15
control_change channel=0 control=64 value=89 time=16
control_change channel=0 control=64 value=93 time=14
control_change channel=0 control=64 value=98 time=16
control_change channel=0 control=64 value=103 time=15
control_change channel=0 control=64 value=106 time=15
control_change channel=0 control=64 value=108 time=16
control_change channel=0 control=64 value=109 time=15
note_on channel=0 note=66 velocity=0 time=24
control_change channel=0 control=64 value=108 time=7
control_change channel=0 control=64 value=107 time=75
control_change channel=0 control=64 value=105 time=15
control_change channel=0 control=64 value=102 time=16
control_change channel=0 control=64 value=99 time=15
control_change channel=0 control=64 value=97 time=14
note_on channel=0 note=61 velocity=58 time=13
control_change channel=0 control=64 value=94 time=3
control_change channel=0 control=64 value=91 time=23
control_change channel=0 control=64 value=88 time=16
control_change channel=0 control=64 value=84 time=14
control_change channel=0 control=67 value=8 time=0
control_change channel=0 control=64 value=78 time=15
control_change channel=0 control=67 value=12 time=0
control_change channel=0 control=64 value=70 time=16
control_change channel=0 control=67 value=16 time=0
control_change channel=0 control=64 value=56 time=15
control_change channel=0 control=67 value=21 time=0
control_change channel=0 control=64 value=0 time=16
control_change channel=0 control=67 value=27 time=0
control_change channel=0 control=67 value=31 time=14
control_change channel=0 control=67 value=35 time=15
control_change channel=0 control=67 value=40 time=16
control_change channel=0 control=67 value=44 time=15
control_change channel=0 control=67 value=48 time=14
control_change channel=0 control=67 value=54 time=16
control_change channel=0 control=67 value=60 time=15
control_change channel=0 control=64 value=14 time=16
control_change channel=0 control=67 value=64 time=0
control_change channel=0 control=64 value=31 time=16
control_change channel=0 control=67 value=66 time=0
control_change channel=0 control=64 value=41 time=15
control_change channel=0 control=67 value=68 time=0
control_change channel=0 control=64 value=47 time=16
control_change channel=0 control=67 value=71 time=0
control_change channel=0 control=64 value=55 time=14
control_change channel=0 control=67 value=73 time=0
control_change channel=0 control=64 value=60 time=15
control_change channel=0 control=67 value=75 time=0
control_change channel=0 control=64 value=62 time=16
control_change channel=0 control=67 value=75 time=0
control_change channel=0 control=64 value=64 time=15
control_change channel=0 control=64 value=65 time=15
control_change channel=0 control=67 value=76 time=0
control_change channel=0 control=64 value=67 time=15
control_change channel=0 control=64 value=69 time=15
control_change channel=0 control=64 value=70 time=16
control_change channel=0 control=64 value=71 time=15
control_change channel=0 control=64 value=73 time=14
control_change channel=0 control=64 value=75 time=16
control_change channel=0 control=64 value=76 time=15
control_change channel=0 control=64 value=78 time=16
control_change channel=0 control=64 value=80 time=15
control_change channel=0 control=64 value=81 time=14
control_change channel=0 control=64 value=83 time=16
control_change channel=0 control=64 value=84 time=15
control_change channel=0 control=64 value=86 time=15
control_change channel=0 control=64 value=87 time=15
control_change channel=0 control=64 value=87 time=15
control_change channel=0 control=64 value=88 time=16
control_change channel=0 control=67 value=75 time=0
control_change channel=0 control=64 value=89 time=15
control_change channel=0 control=64 value=90 time=15
control_change channel=0 control=64 value=90 time=16
control_change channel=0 control=67 value=75 time=0
control_change channel=0 control=64 value=91 time=60
note_on channel=0 note=82 velocity=50 time=2
note_on channel=0 note=79 velocity=36 time=14
control_change channel=0 control=64 value=91 time=15
control_change channel=0 control=64 value=92 time=14
control_change channel=0 control=64 value=92 time=16
control_change channel=0 control=67 value=74 time=53
control_change channel=0 control=64 value=93 time=30
control_change channel=0 control=64 value=93 time=122
control_change channel=0 control=67 value=74 time=15
note_on channel=0 note=82 velocity=0 time=58
note_on channel=0 note=79 velocity=0 time=40
note_on channel=0 note=81 velocity=48 time=206
note_on channel=0 note=78 velocity=43 time=5
control_change channel=0 control=67 value=73 time=42
control_change channel=0 control=67 value=73 time=151
note_on channel=0 note=81 velocity=0 time=45
control_change channel=0 control=67 value=72 time=39
control_change channel=0 control=67 value=72 time=30
note_on channel=0 note=78 velocity=0 time=0
control_change channel=0 control=64 value=93 time=61
control_change channel=0 control=64 value=92 time=15
control_change channel=0 control=64 value=91 time=15
control_change channel=0 control=64 value=88 time=15
control_change channel=0 control=64 value=83 time=16
control_change channel=0 control=64 value=75 time=15
note_on channel=0 note=79 velocity=54 time=7
note_on channel=0 note=64 velocity=51 time=1
control_change channel=0 control=64 value=66 time=8
note_on channel=0 note=76 velocity=41 time=5
control_change channel=0 control=64 value=65 time=10
control_change channel=0 control=64 value=67 time=15
control_change channel=0 control=64 value=67 time=16
control_change channel=0 control=64 value=68 time=14
control_change channel=0 control=64 value=69 time=15
control_change channel=0 control=67 value=71 time=0
control_change channel=0 control=64 value=71 time=16
control_change channel=0 control=67 value=71 time=0
control_change channel=0 control=64 value=74 time=15
control_change channel=0 control=67 value=70 time=0
control_change channel=0 control=64 value=76 time=16
control_change channel=0 control=67 value=70 time=0
control_change channel=0 control=64 value=78 time=15
control_change channel=0 control=67 value=69 time=0
control_change channel=0 control=64 value=80 time=15
control_change channel=0 control=67 value=68 time=0
control_change channel=0 control=64 value=82 time=16
control_change channel=0 control=67 value=68 time=0
note_on channel=0 note=76 velocity=0 time=3
control_change channel=0 control=64 value=85 time=12
control_change channel=0 control=67 value=67 time=0
control_change channel=0 control=64 value=88 time=16
control_change channel=0 control=67 value=66 time=0
control_change channel=0 control=64 value=90 time=14
control_change channel=0 control=67 value=65 time=0
control_change channel=0 control=64 value=93 time=15
control_change channel=0 control=64 value=96 time=16
control_change channel=0 control=67 value=64 time=0
control_change channel=0 control=64 value=99 time=15
control_change channel=0 control=67 value=64 time=0
control_change channel=0 control=64 value=102 time=14
control_change channel=0 control=64 value=105 time=16
control_change channel=0 control=67 value=63 time=0
control_change channel=0 control=64 value=106 time=15
control_change channel=0 control=67 value=62 time=0
control_change channel=0 control=64 value=107 time=16
control_change channel=0 control=67 value=62 time=0
control_change channel=0 control=67 value=61 time=15
control_change channel=0 control=67 value=59 time=15
note_on channel=0 note=61 velocity=0 time=3
control_change channel=0 control=67 value=58 time=12
control_change channel=0 control=67 value=57 time=15
control_change channel=0 control=64 value=106 time=15
control_change channel=0 control=67 value=56 time=0
note_on channel=0 note=79 velocity=0 time=29
control_change channel=0 control=64 value=104 time=1
control_change channel=0 control=64 value=98 time=16
note_on channel=0 note=66 velocity=74 time=12
control_change channel=0 control=64 value=88 time=3
control_change channel=0 control=67 value=56 time=0
note_on channel=0 note=76 velocity=59 time=13
note_on channel=0 note=73 velocity=54 time=1
control_change channel=0 control=64 value=74 time=1
control_change channel=0 control=64 value=66 time=15
control_change channel=0 control=67 value=55 time=0
control_change channel=0 control=64 value=66 time=15
control_change channel=0 control=67 value=55 time=0
control_change channel=0 control=64 value=68 time=15
control_change channel=0 control=67 value=54 time=0
control_change channel=0 control=64 value=68 time=16
control_change channel=0 control=67 value=54 time=0
control_change channel=0 control=64 value=70 time=15
control_change channel=0 control=67 value=53 time=0
control_change channel=0 control=64 value=72 time=23
control_change channel=0 control=67 value=51 time=0
control_change channel=0 control=64 value=77 time=15
control_change channel=0 control=67 value=49 time=0
control_change channel=0 control=64 value=82 time=16
control_change channel=0 control=67 value=46 time=0
control_change channel=0 control=64 value=86 time=14
control_change channel=0 control=67 value=42 time=0
control_change channel=0 control=64 value=90 time=15
control_change channel=0 control=67 value=38 time=0
note_on channel=0 note=64 velocity=0 time=9
control_change channel=0 control=64 value=93 time=7
control_change channel=0 control=67 value=33 time=0
control_change channel=0 control=64 value=96 time=15
control_change channel=0 control=67 value=28 time=0
control_change channel=0 control=64 value=101 time=15
control_change channel=0 control=67 value=23 time=0
control_change channel=0 control=64 value=106 time=15
control_change channel=0 control=67 value=15 time=0
control_change channel=0 control=64 value=112 time=15
control_change channel=0 control=67 value=0 time=0
control_change channel=0 control=64 value=117 time=16
control_change channel=0 control=64 value=124 time=15
control_change channel=0 control=64 value=127 time=15
note_on channel=0 note=66 velocity=0 time=18
note_on channel=0 note=67 velocity=74 time=90
control_change channel=0 control=64 value=122 time=13
control_change channel=0 control=64 value=112 time=16
note_on channel=0 note=73 velocity=0 time=9
control_change channel=0 control=64 value=102 time=6
control_change channel=0 control=64 value=90 time=16
note_on channel=0 note=76 velocity=0 time=7
control_change channel=0 control=64 value=76 time=8
control_change channel=0 control=64 value=64 time=15
control_change channel=0 control=64 value=53 time=16
control_change channel=0 control=64 value=61 time=15
control_change channel=0 control=64 value=63 time=15
control_change channel=0 control=64 value=65 time=16
control_change channel=0 control=64 value=66 time=14
control_change channel=0 control=64 value=68 time=16
control_change channel=0 control=64 value=71 time=15
control_change channel=0 control=64 value=75 time=15
control_change channel=0 control=64 value=78 time=16
control_change channel=0 control=64 value=81 time=15
control_change channel=0 control=64 value=85 time=15
control_change channel=0 control=64 value=89 time=15
control_change channel=0 control=64 value=92 time=15
control_change channel=0 control=64 value=96 time=16
control_change channel=0 control=64 value=98 time=15
control_change channel=0 control=64 value=101 time=14
control_change channel=0 control=64 value=102 time=16
note_on channel=0 note=69 velocity=73 time=63
note_on channel=0 note=67 velocity=0 time=15
control_change channel=0 control=64 value=99 time=13
control_change channel=0 control=64 value=93 time=15
control_change channel=0 control=64 value=84 time=23
control_change channel=0 control=64 value=73 time=15
control_change channel=0 control=64 value=68 time=16
control_change channel=0 control=64 value=70 time=15
control_change channel=0 control=64 value=72 time=16
control_change channel=0 control=64 value=73 time=14
control_change channel=0 control=64 value=74 time=15
control_change channel=0 control=64 value=78 time=16
control_change channel=0 control=64 value=83 time=14
control_change channel=0 control=64 value=87 time=15
control_change channel=0 control=64 value=90 time=16
control_change channel=0 control=64 value=92 time=15
control_change channel=0 control=64 value=95 time=16
control_change channel=0 control=64 value=98 time=14
control_change channel=0 control=64 value=102 time=15
control_change channel=0 control=64 value=104 time=16
control_change channel=0 control=64 value=107 time=15
note_on channel=0 note=69 velocity=0 time=8
control_change channel=0 control=64 value=108 time=6
control_change channel=0 control=64 value=109 time=16
note_on channel=0 note=69 velocity=77 time=46
control_change channel=0 control=64 value=108 time=45
control_change channel=0 control=64 value=107 time=16
control_change channel=0 control=64 value=104 time=15
control_change channel=0 control=64 value=101 time=15
control_change channel=0 control=64 value=98 time=16
control_change channel=0 control=64 value=94 time=15
control_change channel=0 control=64 value=88 time=15
note_on channel=0 note=70 velocity=66 time=13
control_change channel=0 control=64 value=81 time=3
control_change channel=0 control=64 value=73 time=15
note_on channel=0 note=69 velocity=0 time=11
control_change channel=0 control=64 value=65 time=4
control_change channel=0 control=64 value=36 time=15
control_change channel=0 control=64 value=0 time=15
control_change channel=0 control=64 value=21 time=107
control_change channel=0 control=64 value=40 time=15
control_change channel=0 control=64 value=50 time=16
control_change channel=0 control=64 value=59 time=15
control_change channel=0 control=64 value=63 time=16
control_change channel=0 control=64 value=65 time=15
control_change channel=0 control=67 value=8 time=0
control_change channel=0 control=64 value=67 time=15
control_change channel=0 control=67 value=9 time=0
control_change channel=0 control=64 value=70 time=16
control_change channel=0 control=67 value=10 time=0
control_change channel=0 control=64 value=72 time=21
control_change channel=0 control=67 value=12 time=0
control_change channel=0 control=64 value=74 time=16
control_change channel=0 control=67 value=14 time=0
control_change channel=0 control=64 value=77 time=15
control_change channel=0 control=67 value=17 time=0
control_change channel=0 control=64 value=81 time=15
control_change channel=0 control=67 value=20 time=0
control_change channel=0 control=64 value=84 time=16
control_change channel=0 control=67 value=23 time=0
control_change channel=0 control=64 value=87 time=14
control_change channel=0 control=67 value=26 time=0
control_change channel=0 control=64 value=90 time=16
control_change channel=0 control=67 value=30 time=0
control_change channel=0 control=64 value=92 time=15
control_change channel=0 control=67 value=33 time=0
control_change channel=0 control=64 value=93 time=15
control_change channel=0 control=67 value=36 time=0
control_change channel=0 control=64 value=95 time=16
control_change channel=0 control=67 value=37 time=0
control_change channel=0 control=64 value=96 time=15
control_change channel=0 control=67 value=39 time=0
control_change channel=0 control=64 value=96 time=15
control_change channel=0 control=67 value=40 time=0
control_change channel=0 control=64 value=97 time=16
control_change channel=0 control=67 value=42 time=0
control_change channel=0 control=67 value=43 time=14
control_change channel=0 control=67 value=44 time=16
note_on channel=0 note=70 velocity=0 time=6
control_change channel=0 control=67 value=45 time=9
control_change channel=0 control=67 value=49 time=15
control_change channel=0 control=67 value=52 time=16
control_change channel=0 control=67 value=54 time=14
control_change channel=0 control=67 value=57 time=15
control_change channel=0 control=64 value=96 time=16
control_change channel=0 control=67 value=59 time=0
control_change channel=0 control=67 value=62 time=15
control_change channel=0 control=67 value=65 time=15
control_change channel=0 control=64 value=96 time=15
control_change channel=0 control=67 value=66 time=0
control_change channel=0 control=64 value=95 time=15
control_change channel=0 control=67 value=68 time=0
control_change channel=0 control=67 value=70 time=16
control_change channel=0 control=64 value=95 time=15
control_change channel=0 control=67 value=73 time=0
control_change channel=0 control=64 value=94 time=14
control_change channel=0 control=67 value=75 time=0
control_change channel=0 control=64 value=93 time=16
control_change channel=0 control=67 value=77 time=0
control_change channel=0 control=64 value=92 time=15
control_change channel=0 control=67 value=79 time=0
control_change channel=0 control=64 value=91 time=16
control_change channel=0 control=67 value=82 time=0
control_change channel=0 control=64 value=89 time=15
control_change channel=0 control=67 value=85 time=0
note_on channel=0 note=62 velocity=43 time=12
control_change channel=0 control=64 value=88 time=4
control_change channel=0 control=67 value=88 time=0
control_change channel=0 control=64 value=85 time=15
control_change channel=0 control=67 value=90 time=0
control_change channel=0 control=64 value=81 time=15
control_change channel=0 control=67 value=93 time=0
control_change channel=0 control=64 value=75 time=16
control_change channel=0 control=67 value=97 time=0
control_change channel=0 control=64 value=67 time=15
control_change channel=0 control=67 value=101 time=0
control_change channel=0 control=64 value=50 time=14
control_change channel=0 control=67 value=104 time=0
control_change channel=0 control=64 value=0 time=16
control_change channel=0 control=67 value=107 time=0
control_change channel=0 control=67 value=109 time=15
control_change channel=0 control=67 value=111 time=15
control_change channel=0 control=67 value=115 time=16
control_change channel=0 control=67 value=118 time=14
control_change channel=0 control=67 value=120 time=16
control_change channel=0 control=67 value=121 time=14
control_change channel=0 control=64 value=33 time=15
control_change channel=0 control=67 value=122 time=0
control_change channel=0 control=64 value=44 time=16
control_change channel=0 control=67 value=122 time=0
control_change channel=0 control=64 value=50 time=15
control_change channel=0 control=67 value=123 time=0
control_change channel=0 control=64 value=55 time=15
control_change channel=0 control=67 value=123 time=0
control_change channel=0 control=64 value=59 time=16
control_change channel=0 control=64 value=63 time=21
control_change channel=0 control=64 value=65 time=16
control_change channel=0 control=64 value=66 time=15
control_change channel=0 control=64 value=68 time=16
control_change channel=0 control=64 value=69 time=15
control_change channel=0 control=64 value=71 time=14
control_change channel=0 control=64 value=73 time=16
control_change channel=0 control=64 value=74 time=15
control_change channel=0 control=64 value=76 time=15
control_change channel=0 control=64 value=78 time=16
control_change channel=0 control=64 value=80 time=15
control_change channel=0 control=64 value=81 time=16
control_change channel=0 control=64 value=83 time=15
control_change channel=0 control=64 value=84 time=14
control_change channel=0 control=64 value=86 time=16
control_change channel=0 control=64 value=87 time=15
control_change channel=0 control=64 value=89 time=16
control_change channel=0 control=64 value=90 time=15
control_change channel=0 control=67 value=123 time=0
control_change channel=0 control=64 value=91 time=14
control_change channel=0 control=64 value=92 time=16
control_change channel=0 control=64 value=93 time=15
control_change channel=0 control=64 value=93 time=15
control_change channel=0 control=67 value=122 time=0
control_change channel=0 control=64 value=94 time=16
control_change channel=0 control=64 value=95 time=14
control_change channel=0 control=67 value=122 time=0
control_change channel=0 control=64 value=95 time=16
control_change channel=0 control=64 value=96 time=75
control_change channel=0 control=64 value=96 time=61
control_change channel=0 control=67 value=121 time=15
control_change channel=0 control=64 value=97 time=17
control_change channel=0 control=64 value=97 time=31
note_on channel=0 note=86 velocity=56 time=0
note_on channel=0 note=82 velocity=42 time=19
note_on channel=0 note=67 velocity=32 time=11
control_change channel=0 control=64 value=98 time=30
control_change channel=0 control=67 value=121 time=0
control_change channel=0 control=67 value=120 time=121
note_on channel=0 note=82 velocity=0 time=23
note_on channel=0 note=86 velocity=0 time=3
control_change channel=0 control=64 value=98 time=13
control_change channel=0 control=64 value=99 time=45
control_change channel=0 control=67 value=120 time=0
note_on channel=0 note=67 velocity=0 time=1
control_change channel=0 control=64 value=99 time=14
control_change channel=0 control=64 value=100 time=15
control_change channel=0 control=67 value=119 time=0
control_change channel=0 control=67 value=119 time=46
control_change channel=0 control=67 value=118 time=76
control_change channel=0 control=64 value=98 time=45
control_change channel=0 control=67 value=118 time=0
control_change channel=0 control=64 value=93 time=15
control_change channel=0 control=67 value=117 time=0
control_change channel=0 control=64 value=88 time=16
control_change channel=0 control=67 value=115 time=0
note_on channel=0 note=84 velocity=71 time=13
control_change channel=0 control=64 value=86 time=2
control_change channel=0 control=67 value=114 time=0
control_change channel=0 control=67 value=112 time=16
note_on channel=0 note=69 velocity=44 time=4
control_change channel=0 control=64 value=86 time=11
control_change channel=0 control=67 value=109 time=0
note_on channel=0 note=81 velocity=39 time=0
control_change channel=0 control=64 value=88 time=14
control_change channel=0 control=67 value=105 time=0
control_change channel=0 control=64 value=91 time=16
control_change channel=0 control=67 value=102 time=0
control_change channel=0 control=64 value=95 time=15
control_change channel=0 control=67 value=100 time=0
note_on channel=0 note=81 velocity=0 time=10
control_change channel=0 control=64 value=98 time=6
control_change channel=0 control=67 value=97 time=0
control_change channel=0 control=64 value=100 time=14
control_change channel=0 control=67 value=93 time=0
control_change channel=0 control=64 value=102 time=15
control_change channel=0 control=67 value=87 time=0
control_change channel=0 control=64 value=104 time=16
control_change channel=0 control=67 value=78 time=0
control_change channel=0 control=64 value=106 time=15
control_change channel=0 control=67 value=68 time=0
note_on channel=0 note=69 velocity=0 time=14
control_change channel=0 control=64 value=108 time=1
control_change channel=0 control=67 value=56 time=0
note_on channel=0 note=84 velocity=0 time=10
control_change channel=0 control=64 value=110 time=5
control_change channel=0 control=67 value=41 time=0
control_change channel=0 control=64 value=111 time=15
control_change channel=0 control=67 value=27 time=0
control_change channel=0 control=64 value=112 time=16
control_change channel=0 control=67 value=20 time=0
control_change channel=0 control=67 value=19 time=15
control_change channel=0 control=67 value=17 time=15
control_change channel=0 control=67 value=16 time=15
control_change channel=0 control=67 value=14 time=16
control_change channel=0 control=67 value=14 time=15
control_change channel=0 control=67 value=13 time=16
control_change channel=0 control=67 value=13 time=15
control_change channel=0 control=67 value=12 time=16
control_change channel=0 control=67 value=11 time=14
control_change channel=0 control=64 value=111 time=15
control_change channel=0 control=67 value=10 time=0
control_change channel=0 control=64 value=110 time=16
control_change channel=0 control=67 value=9 time=0
control_change channel=0 control=64 value=108 time=15
control_change channel=0 control=67 value=9 time=0
control_change channel=0 control=64 value=107 time=14
control_change channel=0 control=64 value=106 time=16
control_change channel=0 control=64 value=103 time=15
control_change channel=0 control=64 value=97 time=24
control_change channel=0 control=64 value=88 time=15
note_on channel=0 note=82 velocity=54 time=7
control_change channel=0 control=64 value=77 time=8
note_on channel=0 note=70 velocity=33 time=6
note_on channel=0 note=79 velocity=41 time=0
control_change channel=0 control=64 value=66 time=9
control_change channel=0 control=64 value=54 time=15
control_change channel=0 control=64 value=59 time=15
control_change channel=0 control=64 value=61 time=15
control_change channel=0 control=64 value=63 time=15
control_change channel=0 control=64 value=64 time=16
control_change channel=0 control=64 value=65 time=15
control_change channel=0 control=64 value=66 time=15
control_change channel=0 control=64 value=69 time=15
control_change channel=0 control=64 value=71 time=15
control_change channel=0 control=64 value=72 time=16
note_on channel=0 note=79 velocity=0 time=1
control_change channel=0 control=64 value=73 time=14
control_change channel=0 control=64 value=74 time=15
control_change channel=0 control=64 value=76 time=15
control_change channel=0 control=64 value=78 time=15
control_change channel=0 control=64 value=80 time=16
control_change channel=0 control=64 value=81 time=14
control_change channel=0 control=64 value=83 time=15
control_change channel=0 control=64 value=85 time=16
control_change channel=0 control=64 value=87 time=15
control_change channel=0 control=64 value=88 time=16
control_change channel=0 control=67 value=9 time=0
note_on channel=0 note=82 velocity=0 time=0
note_on channel=0 note=70 velocity=0 time=10
control_change channel=0 control=64 value=89 time=5
control_change channel=0 control=67 value=10 time=0
control_change channel=0 control=64 value=89 time=15
control_change channel=0 control=67 value=11 time=0
control_change channel=0 control=64 value=90 time=16
control_change channel=0 control=67 value=11 time=0
control_change channel=0 control=64 value=90 time=15
control_change channel=0 control=64 value=91 time=14
control_change channel=0 control=67 value=12 time=0
control_change channel=0 control=64 value=91 time=16
control_change channel=0 control=67 value=12 time=0
control_change channel=0 control=64 value=92 time=15
control_change channel=0 control=67 value=13 time=0
control_change channel=0 control=67 value=13 time=16
control_change channel=0 control=64 value=92 time=14
control_change channel=0 control=64 value=93 time=15
control_change channel=0 control=64 value=94 time=16
control_change channel=0 control=67 value=14 time=0
control_change channel=0 control=64 value=95 time=15
control_change channel=0 control=67 value=14 time=16
control_change channel=0 control=64 value=95 time=14
control_change channel=0 control=64 value=96 time=31
control_change channel=0 control=64 value=97 time=15
control_change channel=0 control=64 value=97 time=16
control_change channel=0 control=67 value=15 time=0
note_on channel=0 note=79 velocity=44 time=14
note_on channel=0 note=70 velocity=33 time=10
control_change channel=0 control=64 value=98 time=7
control_change channel=0 control=67 value=15 time=0
note_on channel=0 note=74 velocity=33 time=13
control_change channel=0 control=64 value=98 time=3
control_change channel=0 control=64 value=100 time=15
control_change channel=0 control=67 value=16 time=0
control_change channel=0 control=64 value=100 time=15
control_change channel=0 control=67 value=16 time=0
control_change channel=0 control=64 value=101 time=15
control_change channel=0 control=64 value=101 time=15
control_change channel=0 control=67 value=17 time=0
control_change channel=0 control=67 value=17 time=15
control_change channel=0 control=64 value=102 time=23
control_change channel=0 control=67 value=18 time=0
control_change channel=0 control=64 value=102 time=15
control_change channel=0 control=67 value=18 time=0
control_change channel=0 control=64 value=103 time=15
control_change channel=0 control=67 value=19 time=0
control_change channel=0 control=67 value=19 time=15
control_change channel=0 control=64 value=103 time=16
control_change channel=0 control=67 value=20 time=15
note_on channel=0 note=70 velocity=0 time=7
control_change channel=0 control=67 value=20 time=24
note_on channel=0 note=79 velocity=0 time=12
control_change channel=0 control=67 value=21 time=3
control_change channel=0 control=67 value=21 time=15
control_change channel=0 control=67 value=23 time=15
note_on channel=0 note=74 velocity=0 time=10
control_change channel=0 control=67 value=24 time=5
control_change channel=0 control=67 value=26 time=16
control_change channel=0 control=67 value=28 time=15
control_change channel=0 control=67 value=31 time=15
control_change channel=0 control=67 value=33 time=15
control_change channel=0 control=67 value=35 time=15
control_change channel=0 control=67 value=37 time=16
control_change channel=0 control=67 value=39 time=15
control_change channel=0 control=67 value=41 time=15
control_change channel=0 control=67 value=42 time=15
control_change channel=0 control=67 value=44 time=15
control_change channel=0 control=67 value=45 time=15
control_change channel=0 control=67 value=47 time=15
control_change channel=0 control=67 value=48 time=15
control_change channel=0 control=67 value=49 time=16
control_change channel=0 control=67 value=50 time=15
control_change channel=0 control=67 value=51 time=15
control_change channel=0 control=67 value=53 time=15
control_change channel=0 control=67 value=54 time=15
control_change channel=0 control=67 value=56 time=15
control_change channel=0 control=67 value=57 time=16
control_change channel=0 control=67 value=58 time=15
control_change channel=0 control=67 value=60 time=15
control_change channel=0 control=67 value=62 time=15
control_change channel=0 control=67 value=63 time=15
control_change channel=0 control=67 value=65 time=16
control_change channel=0 control=67 value=66 time=15
control_change channel=0 control=67 value=69 time=15
control_change channel=0 control=67 value=71 time=16
control_change channel=0 control=67 value=73 time=15
control_change channel=0 control=67 value=74 time=16
control_change channel=0 control=67 value=75 time=14
control_change channel=0 control=67 value=77 time=15
control_change channel=0 control=67 value=78 time=16
control_change channel=0 control=67 value=80 time=15
control_change channel=0 control=67 value=80 time=31
control_change channel=0 control=64 value=103 time=15
control_change channel=0 control=67 value=81 time=0
control_change channel=0 control=67 value=81 time=16
control_change channel=0 control=64 value=102 time=37
control_change channel=0 control=64 value=102 time=15
control_change channel=0 control=64 value=101 time=31
control_change channel=0 control=64 value=100 time=15
control_change channel=0 control=67 value=82 time=0
control_change channel=0 control=64 value=99 time=15
control_change channel=0 control=64 value=98 time=15
control_change channel=0 control=64 value=98 time=15
control_change channel=0 control=64 value=97 time=16
note_on channel=0 note=63 velocity=42 time=9
control_change channel=0 control=64 value=97 time=6
control_change channel=0 control=64 value=96 time=15
note_on channel=0 note=62 velocity=0 time=5
control_change channel=0 control=64 value=95 time=11
control_change channel=0 control=64 value=92 time=14
control_change channel=0 control=64 value=89 time=16
control_change channel=0 control=64 value=85 time=15
control_change channel=0 control=64 value=77 time=15
control_change channel=0 control=64 value=68 time=16
control_change channel=0 control=64 value=51 time=15
control_change channel=0 control=64 value=0 time=15
control_change channel=0 control=64 value=24 time=30
control_change channel=0 control=64 value=45 time=16
control_change channel=0 control=64 value=53 time=15
control_change channel=0 control=64 value=58 time=15
control_change channel=0 control=67 value=81 time=0
control_change channel=0 control=64 value=63 time=15
control_change channel=0 control=64 value=66 time=15
control_change channel=0 control=67 value=81 time=0
control_change channel=0 control=64 value=69 time=16
control_change channel=0 control=64 value=71 time=14
control_change channel=0 control=67 value=80 time=0
control_change channel=0 control=64 value=73 time=15
control_change channel=0 control=67 value=80 time=0
control_change channel=0 control=64 value=75 time=16
control_change channel=0 control=64 value=77 time=15
control_change channel=0 control=64 value=81 time=15
control_change channel=0 control=64 value=84 time=15
control_change channel=0 control=67 value=79 time=0
control_change channel=0 control=64 value=86 time=15
control_change channel=0 control=67 value=79 time=0
control_change channel=0 control=64 value=88 time=16
control_change channel=0 control=64 value=89 time=15
control_change channel=0 control=67 value=78 time=0
control_change channel=0 control=64 value=90 time=14
control_change channel=0 control=64 value=92 time=16
control_change channel=0 control=64 value=94 time=15
control_change channel=0 control=67 value=78 time=15
control_change channel=0 control=64 value=94 time=31
control_change channel=0 control=64 value=95 time=16
note_on channel=0 note=79 velocity=50 time=1
control_change channel=0 control=64 value=95 time=13
control_change channel=0 control=67 value=77 time=0
note_on channel=0 note=70 velocity=26 time=9
note_on channel=0 note=67 velocity=23 time=3
note_on channel=0 note=75 velocity=29 time=11
control_change channel=0 control=67 value=77 time=8
note_on channel=0 note=79 velocity=0 time=18
note_on channel=0 note=79 velocity=4 time=0
control_change channel=0 control=64 value=96 time=28
note_on channel=0 note=70 velocity=0 time=143
note_on channel=0 note=79 velocity=0 time=34
note_on channel=0 note=75 velocity=0 time=9
note_on channel=0 note=63 velocity=0 time=10
note_on channel=0 note=67 velocity=0 time=16
note_on channel=0 note=65 velocity=45 time=27
note_on channel=0 note=65 velocity=0 time=38
note_on channel=0 note=63 velocity=57 time=22
control_change channel=0 control=67 value=76 time=149
control_change channel=0 control=64 value=95 time=15
control_change channel=0 control=64 value=94 time=16
control_change channel=0 control=64 value=94 time=15
control_change channel=0 control=64 value=93 time=16
control_change channel=0 control=64 value=92 time=14
control_change channel=0 control=64 value=88 time=15
note_on channel=0 note=62 velocity=47 time=10
note_on channel=0 note=79 velocity=54 time=1
control_change channel=0 control=64 value=82 time=5
note_on channel=0 note=70 velocity=27 time=10
note_on channel=0 note=75 velocity=36 time=0
note_on channel=0 note=63 velocity=0 time=3
control_change channel=0 control=64 value=73 time=2
note_on channel=0 note=67 velocity=27 time=0
control_change channel=0 control=64 value=62 time=16
control_change channel=0 control=64 value=43 time=14
control_change channel=0 control=64 value=52 time=15
control_change channel=0 control=64 value=56 time=16
control_change channel=0 control=64 value=58 time=15
control_change channel=0 control=64 value=60 time=13
control_change channel=0 control=67 value=76 time=0
control_change channel=0 control=64 value=62 time=16
control_change channel=0 control=64 value=64 time=15
control_change channel=0 control=67 value=75 time=0
control_change channel=0 control=64 value=66 time=16
control_change channel=0 control=67 value=75 time=0
control_change channel=0 control=64 value=68 time=15
control_change channel=0 control=64 value=69 time=14
control_change channel=0 control=67 value=74 time=0
control_change channel=0 control=64 value=71 time=16
control_change channel=0 control=64 value=72 time=15
control_change channel=0 control=67 value=74 time=0
control_change channel=0 control=64 value=74 time=23
control_change channel=0 control=67 value=73 time=0
note_on channel=0 note=67 velocity=0 time=3
note_on channel=0 note=63 velocity=70 time=4
control_change channel=0 control=64 value=76 time=8
control_change channel=0 control=64 value=78 time=16
control_change channel=0 control=67 value=73 time=0
note_on channel=0 note=79 velocity=0 time=3
note_on channel=0 note=70 velocity=0 time=6
control_change channel=0 control=64 value=80 time=6
note_on channel=0 note=75 velocity=0 time=5
control_change channel=0 control=64 value=81 time=10
control_change channel=0 control=64 value=83 time=16
control_change channel=0 control=67 value=72 time=0
control_change channel=0 control=64 value=83 time=15
control_change channel=0 control=64 value=84 time=30
note_on channel=0 note=62 velocity=0 time=19
control_change channel=0 control=64 value=83 time=27
control_change channel=0 control=64 value=82 time=31
control_change channel=0 control=67 value=73 time=0
control_change channel=0 control=64 value=78 time=15
control_change channel=0 control=64 value=70 time=15
note_on channel=0 note=67 velocity=67 time=0
note_on channel=0 note=79 velocity=59 time=13
control_change channel=0 control=64 value=58 time=2
control_change channel=0 control=67 value=73 time=0
control_change channel=0 control=64 value=0 time=15
note_on channel=0 note=75 velocity=37 time=5
note_on channel=0 note=63 velocity=0 time=5
control_change channel=0 control=64 value=23 time=35
control_change channel=0 control=64 value=41 time=16
control_change channel=0 control=64 value=50 time=15
control_change channel=0 control=67 value=73 time=0
control_change channel=0 control=64 value=59 time=15
control_change channel=0 control=64 value=64 time=16
control_change channel=0 control=64 value=66 time=14
control_change channel=0 control=64 value=68 time=15
control_change channel=0 control=64 value=70 time=16
control_change channel=0 control=64 value=72 time=15
control_change channel=0 control=64 value=74 time=16
control_change channel=0 control=64 value=77 time=14
note_on channel=0 note=63 velocity=65 time=7
control_change channel=0 control=64 value=79 time=8
note_on channel=0 note=75 velocity=0 time=4
control_change channel=0 control=64 value=82 time=12
control_change channel=0 control=64 value=84 time=14
note_on channel=0 note=67 velocity=0 time=9
control_change channel=0 control=64 value=86 time=7
control_change channel=0 control=64 value=87 time=15
control_change channel=0 control=64 value=89 time=15
note_on channel=0 note=63 velocity=0 time=6
control_change channel=0 control=64 value=89 time=10
note_on channel=0 note=79 velocity=0 time=46
control_change channel=0 control=64 value=88 time=91
control_change channel=0 control=64 value=87 time=15
control_change channel=0 control=67 value=73 time=0
note_on channel=0 note=63 velocity=52 time=9
control_change channel=0 control=64 value=85 time=7
control_change channel=0 control=64 value=83 time=14
control_change channel=0 control=67 value=74 time=0
control_change channel=0 control=64 value=81 time=24
control_change channel=0 control=64 value=77 time=15
control_change channel=0 control=64 value=70 time=15
control_change channel=0 control=64 value=59 time=15
control_change channel=0 control=67 value=74 time=0
control_change channel=0 control=64 value=39 time=15
control_change channel=0 control=64 value=47 time=17
control_change channel=0 control=64 value=52 time=15
control_change channel=0 control=64 value=55 time=16
control_change channel=0 control=64 value=58 time=14
control_change channel=0 control=64 value=62 time=15
control_change channel=0 control=64 value=65 time=16
control_change channel=0 control=64 value=68 time=15
control_change channel=0 control=64 value=70 time=14
control_change channel=0 control=64 value=72 time=16
control_change channel=0 control=64 value=74 time=15
control_change channel=0 control=64 value=78 time=16
control_change channel=0 control=67 value=73 time=0
control_change channel=0 control=64 value=80 time=15
control_change channel=0 control=67 value=72 time=0
control_change channel=0 control=64 value=82 time=14
control_change channel=0 control=67 value=71 time=0
control_change channel=0 control=64 value=82 time=16
control_change channel=0 control=67 value=69 time=0
control_change channel=0 control=67 value=66 time=15
control_change channel=0 control=67 value=60 time=15
control_change channel=0 control=67 value=52 time=16
control_change channel=0 control=67 value=40 time=14
control_change channel=0 control=67 value=32 time=16
control_change channel=0 control=64 value=82 time=15
control_change channel=0 control=67 value=27 time=0
control_change channel=0 control=64 value=81 time=15
control_change channel=0 control=67 value=24 time=0
control_change channel=0 control=64 value=79 time=16
control_change channel=0 control=67 value=23 time=0
control_change channel=0 control=64 value=76 time=15
control_change channel=0 control=67 value=23 time=0
control_change channel=0 control=64 value=69 time=15
control_change channel=0 control=67 value=22 time=0
note_on channel=0 note=79 velocity=57 time=8
note_on channel=0 note=73 velocity=45 time=5
control_change channel=0 control=64 value=57 time=3
control_change channel=0 control=67 value=22 time=0
note_on channel=0 note=67 velocity=24 time=10
control_change channel=0 control=64 value=45 time=4
control_change channel=0 control=64 value=54 time=16
control_change channel=0 control=67 value=21 time=0
control_change channel=0 control=64 value=58 time=15
control_change channel=0 control=67 value=21 time=0
control_change channel=0 control=64 value=59 time=14
control_change channel=0 control=67 value=20 time=0
control_change channel=0 control=64 value=62 time=16
control_change channel=0 control=67 value=20 time=0
control_change channel=0 control=64 value=64 time=15
control_change channel=0 control=67 value=19 time=0
control_change channel=0 control=64 value=67 time=16
control_change channel=0 control=67 value=19 time=0
control_change channel=0 control=64 value=70 time=15
control_change channel=0 control=67 value=17 time=0
control_change channel=0 control=64 value=72 time=14
control_change channel=0 control=67 value=15 time=0
control_change channel=0 control=64 value=74 time=16
control_change channel=0 control=67 value=13 time=0
control_change channel=0 control=64 value=76 time=15
control_change channel=0 control=67 value=10 time=0
control_change channel=0 control=64 value=79 time=15
control_change channel=0 control=67 value=8 time=0
note_on channel=0 note=73 velocity=0 time=9
control_change channel=0 control=64 value=82 time=7
control_change channel=0 control=67 value=0 time=0
control_change channel=0 control=64 value=84 time=14
control_change channel=0 control=64 value=86 time=16
note_on channel=0 note=62 velocity=59 time=3
control_change channel=0 control=64 value=87 time=12
note_on channel=0 note=63 velocity=0 time=8
control_change channel=0 control=64 value=88 time=7
control_change channel=0 control=64 value=90 time=15
control_change channel=0 control=64 value=91 time=15
note_on channel=0 note=79 velocity=0 time=9
note_on channel=0 note=67 velocity=0 time=14
note_on channel=0 note=62 velocity=0 time=1
control_change channel=0 control=64 value=90 time=91
control_change channel=0 control=64 value=89 time=15
control_change channel=0 control=64 value=87 time=15
control_change channel=0 control=64 value=84 time=16
control_change channel=0 control=64 value=77 time=15
control_change channel=0 control=64 value=68 time=16
control_change channel=0 control=64 value=47 time=15
note_on channel=0 note=79 velocity=57 time=13
control_change channel=0 control=64 value=0 time=3
note_on channel=0 note=62 velocity=37 time=4
note_on channel=0 note=74 velocity=41 time=10
note_on channel=0 note=67 velocity=12 time=11
note_on channel=0 note=70 velocity=18 time=4
control_change channel=0 control=64 value=19 time=76
control_change channel=0 control=64 value=40 time=16
control_change channel=0 control=64 value=53 time=15
control_change channel=0 control=64 value=60 time=14
control_change channel=0 control=64 value=63 time=16
control_change channel=0 control=64 value=64 time=15
control_change channel=0 control=67 value=8 time=0
control_change channel=0 control=64 value=66 time=15
control_change channel=0 control=67 value=9 time=0
control_change channel=0 control=64 value=68 time=15
control_change channel=0 control=67 value=10 time=0
control_change channel=0 control=64 value=70 time=15
control_change channel=0 control=67 value=12 time=0
control_change channel=0 control=64 value=72 time=16
control_change channel=0 control=67 value=13 time=0
control_change channel=0 control=64 value=74 time=15
control_change channel=0 control=67 value=17 time=0
control_change channel=0 control=64 value=76 time=15
control_change channel=0 control=67 value=22 time=0
control_change channel=0 control=64 value=78 time=16
control_change channel=0 control=67 value=27 time=0
control_change channel=0 control=64 value=79 time=14
control_change channel=0 control=67 value=33 time=0
control_change channel=0 control=64 value=81 time=16
control_change channel=0 control=67 value=38 time=0
note_on channel=0 note=70 velocity=0 time=3
note_on channel=0 note=74 velocity=0 time=1
note_on channel=0 note=79 velocity=0 time=10
control_change channel=0 control=64 value=83 time=1
control_change channel=0 control=67 value=45 time=0
note_on channel=0 note=67 velocity=0 time=3
control_change channel=0 control=64 value=85 time=12
control_change channel=0 control=67 value=50 time=0
control_change channel=0 control=64 value=87 time=16
control_change channel=0 control=67 value=54 time=0
control_change channel=0 control=64 value=87 time=15
control_change channel=0 control=67 value=57 time=0
control_change channel=0 control=64 value=88 time=14
control_change channel=0 control=67 value=60 time=0
control_change channel=0 control=64 value=90 time=16
control_change channel=0 control=67 value=64 time=0
control_change channel=0 control=64 value=91 time=15
control_change channel=0 control=67 value=68 time=0
control_change channel=0 control=64 value=92 time=16
control_change channel=0 control=67 value=73 time=0
control_change channel=0 control=64 value=92 time=14
control_change channel=0 control=67 value=76 time=0
control_change channel=0 control=67 value=80 time=14
control_change channel=0 control=67 value=84 time=16
control_change channel=0 control=64 value=93 time=15
control_change channel=0 control=67 value=87 time=0
control_change channel=0 control=67 value=90 time=15
control_change channel=0 control=67 value=92 time=16
control_change channel=0 control=67 value=95 time=14
control_change channel=0 control=67 value=97 time=16
control_change channel=0 control=67 value=99 time=23
control_change channel=0 control=67 value=101 time=15
control_change channel=0 control=67 value=102 time=15
control_change channel=0 control=67 value=104 time=15
note_on channel=0 note=79 velocity=51 time=11
control_change channel=0 control=67 value=105 time=5
note_on channel=0 note=74 velocity=39 time=13
control_change channel=0 control=67 value=106 time=2
note_on channel=0 note=70 velocity=29 time=3
note_on channel=0 note=67 velocity=33 time=5
control_change channel=0 control=67 value=107 time=7
control_change channel=0 control=67 value=108 time=15
control_change channel=0 control=67 value=109 time=15
control_change channel=0 control=67 value=110 time=16
control_change channel=0 control=67 value=110 time=15
control_change channel=0 control=67 value=111 time=15
control_change channel=0 control=67 value=112 time=17
control_change channel=0 control=67 value=113 time=14
control_change channel=0 control=67 value=114 time=16
note_on channel=0 note=62 velocity=0 time=9
control_change channel=0 control=67 value=115 time=6
control_change channel=0 control=67 value=115 time=30
control_change channel=0 control=67 value=116 time=15
control_change channel=0 control=67 value=117 time=15
control_change channel=0 control=67 value=118 time=16
control_change channel=0 control=67 value=119 time=30
note_on channel=0 note=79 velocity=0 time=0
control_change channel=0 control=67 value=119 time=46
note_on channel=0 note=70 velocity=0 time=54
control_change channel=0 control=67 value=120 time=52
note_on channel=0 note=67 velocity=0 time=7
note_on channel=0 note=74 velocity=0 time=0
control_change channel=0 control=64 value=92 time=366
control_change channel=0 control=64 value=92 time=29
control_change channel=0 control=64 value=91 time=16
control_change channel=0 control=64 value=91 time=45
control_change channel=0 control=64 value=90 time=15
control_change channel=0 control=64 value=90 time=16
control_change channel=0 control=64 value=89 time=16
control_change channel=0 control=64 value=88 time=15
note_on channel=0 note=62 velocity=32 time=7
control_change channel=0 control=64 value=86 time=9
control_change channel=0 control=64 value=84 time=14
control_change channel=0 control=64 value=81 time=16
control_change channel=0 control=64 value=79 time=15
control_change channel=0 control=64 value=75 time=15
control_change channel=0 control=64 value=70 time=15
control_change channel=0 control=64 value=64 time=15
control_change channel=0 control=64 value=47 time=16
control_change channel=0 control=64 value=0 time=15
control_change channel=0 control=64 value=31 time=91
control_change channel=0 control=67 value=119 time=0
control_change channel=0 control=64 value=49 time=15
control_change channel=0 control=64 value=58 time=15
control_change channel=0 control=64 value=63 time=15
control_change channel=0 control=64 value=65 time=16
control_change channel=0 control=67 value=119 time=0
control_change channel=0 control=64 value=67 time=14
control_change channel=0 control=67 value=118 time=0
control_change channel=0 control=64 value=68 time=15
control_change channel=0 control=67 value=118 time=0
control_change channel=0 control=64 value=70 time=16
control_change channel=0 control=64 value=72 time=15
control_change channel=0 control=64 value=73 time=16
control_change channel=0 control=64 value=74 time=15
control_change channel=0 control=64 value=76 time=15
control_change channel=0 control=64 value=77 time=15
control_change channel=0 control=64 value=79 time=15
control_change channel=0 control=67 value=117 time=0
control_change channel=0 control=64 value=81 time=15
control_change channel=0 control=64 value=83 time=16
control_change channel=0 control=64 value=84 time=15
control_change channel=0 control=64 value=85 time=15
control_change channel=0 control=64 value=87 time=15
note_on channel=0 note=77 velocity=41 time=18
control_change channel=0 control=64 value=88 time=5
note_on channel=0 note=68 velocity=32 time=3
note_on channel=0 note=70 velocity=28 time=9
note_on channel=0 note=80 velocity=39 time=0
control_change channel=0 control=64 value=90 time=3
control_change channel=0 control=64 value=91 time=15
control_change channel=0 control=64 value=92 time=16
control_change channel=0 control=64 value=92 time=15
control_change channel=0 control=67 value=117 time=0
control_change channel=0 control=64 value=93 time=31
note_on channel=0 note=62 velocity=0 time=122
note_on channel=0 note=80 velocity=0 time=11
note_on channel=0 note=68 velocity=0 time=14
note_on channel=0 note=63 velocity=47 time=3
note_on channel=0 note=70 velocity=0 time=14
note_on channel=0 note=63 velocity=0 time=22
note_on channel=0 note=77 velocity=0 time=5
note_on channel=0 note=62 velocity=46 time=15
control_change channel=0 control=64 value=92 time=174
control_change channel=0 control=64 value=92 time=15
control_change channel=0 control=64 value=91 time=15
control_change channel=0 control=64 value=91 time=16
control_change channel=0 control=64 value=90 time=14
control_change channel=0 control=64 value=88 time=15
control_change channel=0 control=64 value=82 time=16
note_on channel=0 note=80 velocity=49 time=0
note_on channel=0 note=61 velocity=45 time=10
note_on channel=0 note=70 velocity=33 time=3
note_on channel=0 note=77 velocity=40 time=0
control_change channel=0 control=64 value=74 time=2
note_on channel=0 note=68 velocity=31 time=0
note_on channel=0 note=62 velocity=0 time=14
control_change channel=0 control=64 value=64 time=1
control_change channel=0 control=64 value=0 time=15
control_change channel=0 control=64 value=37 time=47
control_change channel=0 control=64 value=50 time=15
control_change channel=0 control=64 value=57 time=15
control_change channel=0 control=64 value=61 time=15
control_change channel=0 control=64 value=63 time=15
control_change channel=0 control=64 value=65 time=16
control_change channel=0 control=64 value=67 time=14
control_change channel=0 control=64 value=69 time=24
control_change channel=0 control=67 value=116 time=0
control_change channel=0 control=64 value=71 time=15
control_change channel=0 control=64 value=72 time=16
note_on channel=0 note=62 velocity=62 time=10
control_change channel=0 control=64 value=74 time=4
control_change channel=0 control=64 value=77 time=15
control_change channel=0 control=67 value=116 time=0
control_change channel=0 control=64 value=79 time=16
control_change channel=0 control=64 value=81 time=15
control_change channel=0 control=64 value=82 time=15
note_on channel=0 note=80 velocity=0 time=6
control_change channel=0 control=64 value=84 time=9
note_on channel=0 note=68 velocity=0 time=10
control_change channel=0 control=64 value=84 time=5
control_change channel=0 control=67 value=115 time=0
note_on channel=0 note=70 velocity=0 time=16
note_on channel=0 note=77 velocity=0 time=12
control_change channel=0 control=64 value=83 time=63
control_change channel=0 control=64 value=79 time=16
control_change channel=0 control=64 value=73 time=15
note_on channel=0 note=65 velocity=57 time=6
note_on channel=0 note=62 velocity=0 time=2
control_change channel=0 control=64 value=62 time=8
note_on channel=0 note=70 velocity=34 time=3
note_on channel=0 note=80 velocity=53 time=0
control_change channel=0 control=64 value=19 time=12
note_on channel=0 note=68 velocity=27 time=1
note_on channel=0 note=77 velocity=49 time=1
control_change channel=0 control=64 value=45 time=12
control_change channel=0 control=64 value=55 time=16
control_change channel=0 control=64 value=60 time=16
control_change channel=0 control=64 value=63 time=15
control_change channel=0 control=64 value=65 time=15
control_change channel=0 control=64 value=67 time=15
control_change channel=0 control=67 value=115 time=0
control_change channel=0 control=64 value=71 time=16
note_on channel=0 note=70 velocity=0 time=6
control_change channel=0 control=64 value=72 time=9
control_change channel=0 control=64 value=74 time=15
control_change channel=0 control=67 value=114 time=0
control_change channel=0 control=64 value=75 time=16
control_change channel=0 control=67 value=114 time=0
control_change channel=0 control=64 value=77 time=14
control_change channel=0 control=67 value=113 time=0
control_change channel=0 control=64 value=80 time=16
note_on channel=0 note=65 velocity=0 time=9
control_change channel=0 control=64 value=81 time=6
note_on channel=0 note=62 velocity=63 time=4
control_change channel=0 control=64 value=83 time=11
control_change channel=0 control=67 value=113 time=0
control_change channel=0 control=64 value=85 time=16
control_change channel=0 control=64 value=86 time=15
control_change channel=0 control=67 value=112 time=0
control_change channel=0 control=64 value=87 time=14
note_on channel=0 note=61 velocity=0 time=2
note_on channel=0 note=80 velocity=0 time=9
note_on channel=0 note=62 velocity=0 time=3
control_change channel=0 control=64 value=87 time=123
control_change channel=0 control=64 value=86 time=15
note_on channel=0 note=68 velocity=0 time=24
note_on channel=0 note=77 velocity=0 time=3
control_change channel=0 control=64 value=85 time=4
note_on channel=0 note=62 velocity=46 time=6
control_change channel=0 control=64 value=84 time=9
control_change channel=0 control=64 value=83 time=23
control_change channel=0 control=64 value=80 time=15
control_change channel=0 control=64 value=76 time=16
control_change channel=0 control=64 value=69 time=14
control_change channel=0 control=64 value=53 time=16
control_change channel=0 control=64 value=0 time=15
control_change channel=0 control=67 value=112 time=106
control_change channel=0 control=64 value=36 time=15
control_change channel=0 control=67 value=111 time=0
control_change channel=0 control=64 value=54 time=15
control_change channel=0 control=67 value=111 time=0
control_change channel=0 control=64 value=61 time=16
control_change channel=0 control=67 value=110 time=0
control_change channel=0 control=64 value=63 time=15
control_change channel=0 control=67 value=110 time=0
control_change channel=0 control=64 value=65 time=14
control_change channel=0 control=67 value=109 time=0
control_change channel=0 control=64 value=66 time=16
control_change channel=0 control=64 value=68 time=15
control_change channel=0 control=64 value=70 time=16
control_change channel=0 control=67 value=109 time=0
control_change channel=0 control=64 value=71 time=15
control_change channel=0 control=67 value=108 time=0
control_change channel=0 control=64 value=73 time=14
control_change channel=0 control=64 value=74 time=16
control_change channel=0 control=64 value=76 time=15
control_change channel=0 control=64 value=77 time=17
control_change channel=0 control=67 value=107 time=0
control_change channel=0 control=64 value=78 time=15
control_change channel=0 control=64 value=80 time=15
control_change channel=0 control=67 value=107 time=0
control_change channel=0 control=64 value=82 time=15
control_change channel=0 control=64 value=84 time=15
control_change channel=0 control=67 value=106 time=0
control_change channel=0 control=64 value=85 time=15
control_change channel=0 control=67 value=106 time=0
control_change channel=0 control=64 value=86 time=16
control_change channel=0 control=67 value=105 time=0
control_change channel=0 control=64 value=87 time=14
control_change channel=0 control=67 value=104 time=0
note_on channel=0 note=79 velocity=56 time=6
control_change channel=0 control=64 value=89 time=10
control_change channel=0 control=67 value=102 time=0
note_on channel=0 note=67 velocity=42 time=0
note_on channel=0 note=76 velocity=46 time=6
control_change channel=0 control=64 value=91 time=9
control_change channel=0 control=67 value=101 time=0
control_change channel=0 control=64 value=93 time=15
control_change channel=0 control=67 value=99 time=0
control_change channel=0 control=64 value=93 time=16
control_change channel=0 control=67 value=97 time=0
control_change channel=0 control=64 value=94 time=15
control_change channel=0 control=67 value=96 time=0
control_change channel=0 control=64 value=95 time=15
control_change channel=0 control=67 value=94 time=0
control_change channel=0 control=64 value=96 time=16
control_change channel=0 control=67 value=91 time=0
control_change channel=0 control=64 value=96 time=14
control_change channel=0 control=67 value=88 time=0
control_change channel=0 control=64 value=97 time=16
control_change channel=0 control=67 value=85 time=0
control_change channel=0 control=67 value=83 time=14
control_change channel=0 control=67 value=81 time=15
note_on channel=0 note=76 velocity=0 time=10
control_change channel=0 control=64 value=97 time=6
control_change channel=0 control=67 value=80 time=0
control_change channel=0 control=67 value=78 time=14
control_change channel=0 control=64 value=98 time=15
control_change channel=0 control=67 value=76 time=0
control_change channel=0 control=67 value=73 time=16
control_change channel=0 control=67 value=68 time=15
note_on channel=0 note=62 velocity=0 time=8
note_on channel=0 note=61 velocity=61 time=6
control_change channel=0 control=67 value=62 time=2
control_change channel=0 control=67 value=57 time=22
note_on channel=0 note=67 velocity=0 time=1
control_change channel=0 control=67 value=54 time=15
control_change channel=0 control=67 value=52 time=15
note_on channel=0 note=79 velocity=0 time=7
control_change channel=0 control=67 value=49 time=7
note_on channel=0 note=61 velocity=0 time=11
control_change channel=0 control=67 value=46 time=5
control_change channel=0 control=67 value=45 time=15
control_change channel=0 control=67 value=43 time=15
control_change channel=0 control=67 value=42 time=16
control_change channel=0 control=67 value=40 time=14
control_change channel=0 control=67 value=39 time=16
control_change channel=0 control=67 value=38 time=15
control_change channel=0 control=64 value=96 time=46
control_change channel=0 control=64 value=95 time=14
control_change channel=0 control=64 value=92 time=16
control_change channel=0 control=67 value=37 time=0
note_on channel=0 note=81 velocity=67 time=11
control_change channel=0 control=64 value=86 time=4
note_on channel=0 note=76 velocity=54 time=2
note_on channel=0 note=61 velocity=47 time=3
note_on channel=0 note=69 velocity=44 time=4
control_change channel=0 control=64 value=76 time=6
control_change channel=0 control=64 value=65 time=15
control_change channel=0 control=64 value=0 time=15
control_change channel=0 control=64 value=31 time=31
control_change channel=0 control=67 value=37 time=0
control_change channel=0 control=64 value=44 time=16
control_change channel=0 control=64 value=52 time=15
control_change channel=0 control=67 value=36 time=0
control_change channel=0 control=64 value=58 time=14
control_change channel=0 control=64 value=62 time=16
control_change channel=0 control=67 value=36 time=0
control_change channel=0 control=64 value=65 time=15
control_change channel=0 control=67 value=34 time=0
control_change channel=0 control=64 value=67 time=15
control_change channel=0 control=67 value=32 time=0
control_change channel=0 control=64 value=69 time=16
control_change channel=0 control=67 value=30 time=0
control_change channel=0 control=64 value=71 time=15
control_change channel=0 control=67 value=28 time=0
control_change channel=0 control=64 value=73 time=16
control_change channel=0 control=67 value=27 time=0
control_change channel=0 control=64 value=75 time=15
control_change channel=0 control=67 value=25 time=0
control_change channel=0 control=64 value=77 time=15
control_change channel=0 control=67 value=23 time=0
control_change channel=0 control=64 value=79 time=16
control_change channel=0 control=67 value=21 time=0
control_change channel=0 control=64 value=81 time=14
control_change channel=0 control=67 value=20 time=0
control_change channel=0 control=64 value=83 time=15
control_change channel=0 control=67 value=18 time=0
control_change channel=0 control=64 value=85 time=16
control_change channel=0 control=67 value=16 time=0
control_change channel=0 control=64 value=87 time=15
control_change channel=0 control=67 value=14 time=0
note_on channel=0 note=81 velocity=0 time=7
control_change channel=0 control=64 value=88 time=9
control_change channel=0 control=67 value=12 time=0
control_change channel=0 control=64 value=91 time=15
control_change channel=0 control=67 value=10 time=0
control_change channel=0 control=64 value=93 time=15
control_change channel=0 control=67 value=8 time=0
note_on channel=0 note=69 velocity=0 time=6
note_on channel=0 note=76 velocity=0 time=4
control_change channel=0 control=64 value=96 time=6
control_change channel=0 control=67 value=0 time=0
control_change channel=0 control=64 value=97 time=14
control_change channel=0 control=64 value=98 time=16
control_change channel=0 control=64 value=99 time=15
control_change channel=0 control=64 value=100 time=14
control_change channel=0 control=64 value=103 time=16
control_change channel=0 control=64 value=106 time=15
control_change channel=0 control=64 value=107 time=15
control_change channel=0 control=64 value=108 time=16
control_change channel=0 control=64 value=108 time=22
note_on channel=0 note=82 velocity=75 time=13
control_change channel=0 control=64 value=110 time=3
note_on channel=0 note=76 velocity=55 time=10
note_on channel=0 note=70 velocity=56 time=2
control_change channel=0 control=64 value=112 time=3
control_change channel=0 control=64 value=113 time=16
control_change channel=0 control=64 value=114 time=15
control_change channel=0 control=64 value=115 time=14
note_on channel=0 note=70 velocity=0 time=13
control_change channel=0 control=64 value=118 time=3
note_on channel=0 note=76 velocity=0 time=9
control_change channel=0 control=64 value=122 time=6
control_change channel=0 control=64 value=127 time=14
note_on channel=0 note=82 velocity=0 time=23
control_change channel=0 control=64 value=117 time=327
control_change channel=0 control=64 value=102 time=17
control_change channel=0 control=64 value=88 time=14
note_on channel=0 note=82 velocity=75 time=3
note_on channel=0 note=70 velocity=58 time=3
note_on channel=0 note=76 velocity=61 time=1
note_on channel=0 note=73 velocity=58 time=2
control_change channel=0 control=64 value=73 time=6
control_change channel=0 control=64 value=65 time=16
control_change channel=0 control=64 value=66 time=15
control_change channel=0 control=64 value=66 time=14
control_change channel=0 control=64 value=67 time=16
control_change channel=0 control=64 value=69 time=15
control_change channel=0 control=64 value=72 time=16
control_change channel=0 control=64 value=74 time=15
control_change channel=0 control=64 value=77 time=15
control_change channel=0 control=64 value=79 time=16
control_change channel=0 control=64 value=82 time=15
control_change channel=0 control=64 value=85 time=16
control_change channel=0 control=64 value=87 time=15
control_change channel=0 control=64 value=90 time=14
control_change channel=0 control=64 value=93 time=16
control_change channel=0 control=64 value=95 time=15
control_change channel=0 control=64 value=99 time=23
control_change channel=0 control=64 value=103 time=15
control_change channel=0 control=64 value=108 time=15
control_change channel=0 control=64 value=114 time=16
control_change channel=0 control=64 value=127 time=15
note_on channel=0 note=61 velocity=0 time=43
note_on channel=0 note=58 velocity=70 time=131
control_change channel=0 control=64 value=98 time=38
control_change channel=0 control=64 value=77 time=16
control_change channel=0 control=64 value=67 time=15
control_change channel=0 control=64 value=66 time=16
control_change channel=0 control=64 value=67 time=45
control_change channel=0 control=64 value=69 time=15
control_change channel=0 control=64 value=71 time=15
control_change channel=0 control=64 value=74 time=15
control_change channel=0 control=64 value=77 time=15
control_change channel=0 control=64 value=80 time=16
control_change channel=0 control=64 value=84 time=15
control_change channel=0 control=64 value=88 time=15
control_change channel=0 control=64 value=93 time=15
control_change channel=0 control=64 value=97 time=15
control_change channel=0 control=64 value=102 time=16
control_change channel=0 control=64 value=106 time=16
control_change channel=0 control=64 value=109 time=15
control_change channel=0 control=64 value=111 time=16
control_change channel=0 control=64 value=112 time=14
control_change channel=0 control=64 value=112 time=15
note_on channel=0 note=58 velocity=0 time=103
control_change channel=0 control=64 value=112 time=34
control_change channel=0 control=64 value=111 time=15
control_change channel=0 control=64 value=110 time=23
control_change channel=0 control=64 value=108 time=15
control_change channel=0 control=64 value=105 time=16
note_on channel=0 note=57 velocity=66 time=1
control_change channel=0 control=64 value=98 time=14
control_change channel=0 control=64 value=88 time=15
control_change channel=0 control=64 value=77 time=15
control_change channel=0 control=64 value=67 time=15
control_change channel=0 control=64 value=65 time=15
control_change channel=0 control=64 value=67 time=16
control_change channel=0 control=64 value=67 time=15
control_change channel=0 control=64 value=68 time=15
control_change channel=0 control=64 value=70 time=15
control_change channel=0 control=64 value=72 time=15
control_change channel=0 control=64 value=75 time=15
control_change channel=0 control=64 value=77 time=15
control_change channel=0 control=64 value=79 time=15
control_change channel=0 control=64 value=81 time=16
control_change channel=0 control=64 value=83 time=15
control_change channel=0 control=64 value=85 time=16
control_change channel=0 control=64 value=88 time=15
control_change channel=0 control=64 value=91 time=14
control_change channel=0 control=64 value=94 time=16
control_change channel=0 control=64 value=96 time=15
control_change channel=0 control=64 value=99 time=16
control_change channel=0 control=64 value=100 time=15
control_change channel=0 control=64 value=102 time=15
control_change channel=0 control=64 value=103 time=16
control_change channel=0 control=64 value=103 time=14
note_on channel=0 note=57 velocity=0 time=43
control_change channel=0 control=64 value=103 time=109
control_change channel=0 control=64 value=100 time=16
control_change channel=0 control=64 value=97 time=16
control_change channel=0 control=64 value=91 time=15
note_on channel=0 note=55 velocity=69 time=14
control_change channel=0 control=64 value=84 time=1
control_change channel=0 control=64 value=73 time=15
control_change channel=0 control=64 value=63 time=15
control_change channel=0 control=64 value=52 time=16
control_change channel=0 control=64 value=59 time=15
control_change channel=0 control=64 value=63 time=15
control_change channel=0 control=64 value=64 time=15
control_change channel=0 control=64 value=65 time=15
control_change channel=0 control=64 value=67 time=15
control_change channel=0 control=64 value=69 time=24
control_change channel=0 control=64 value=72 time=14
control_change channel=0 control=64 value=75 time=16
control_change channel=0 control=64 value=77 time=15
control_change channel=0 control=64 value=79 time=16
control_change channel=0 control=64 value=82 time=14
control_change channel=0 control=64 value=85 time=15
control_change channel=0 control=64 value=88 time=16
control_change channel=0 control=64 value=90 time=15
control_change channel=0 control=64 value=91 time=15
control_change channel=0 control=64 value=92 time=15
control_change channel=0 control=64 value=95 time=15
control_change channel=0 control=64 value=98 time=16
control_change channel=0 control=64 value=101 time=15
control_change channel=0 control=64 value=104 time=15
control_change channel=0 control=64 value=107 time=15
control_change channel=0 control=64 value=109 time=15
note_on channel=0 note=55 velocity=0 time=7
control_change channel=0 control=64 value=110 time=8
control_change channel=0 control=64 value=111 time=15
control_change channel=0 control=64 value=113 time=15
control_change channel=0 control=64 value=114 time=16
control_change channel=0 control=64 value=115 time=45
note_on channel=0 note=73 velocity=0 time=27
control_change channel=0 control=64 value=114 time=65
note_on channel=0 note=70 velocity=0 time=90
note_on channel=0 note=76 velocity=0 time=1
control_change channel=0 control=64 value=114 time=45
control_change channel=0 control=64 value=113 time=16
control_change channel=0 control=64 value=111 time=14
control_change channel=0 control=64 value=110 time=18
control_change channel=0 control=64 value=107 time=15
control_change channel=0 control=64 value=104 time=14
control_change channel=0 control=64 value=102 time=16
note_on channel=0 note=54 velocity=59 time=0
note_on channel=0 note=42 velocity=50 time=12
control_change channel=0 control=64 value=100 time=3
control_change channel=0 control=64 value=97 time=14
control_change channel=0 control=64 value=95 time=16
control_change channel=0 control=64 value=91 time=15
control_change channel=0 control=64 value=86 time=16
control_change channel=0 control=64 value=80 time=22
control_change channel=0 control=64 value=72 time=16
control_change channel=0 control=64 value=62 time=15
control_change channel=0 control=64 value=0 time=14
control_change channel=0 control=64 value=14 time=93
control_change channel=0 control=64 value=28 time=14
control_change channel=0 control=64 value=40 time=15
control_change channel=0 control=64 value=49 time=16
control_change channel=0 control=64 value=54 time=15
control_change channel=0 control=64 value=58 time=16
control_change channel=0 control=64 value=61 time=14
control_change channel=0 control=64 value=63 time=15
control_change channel=0 control=64 value=65 time=16
control_change channel=0 control=64 value=67 time=14
control_change channel=0 control=64 value=68 time=15
control_change channel=0 control=64 value=70 time=16
control_change channel=0 control=64 value=71 time=15
control_change channel=0 control=64 value=74 time=16
control_change channel=0 control=64 value=76 time=14
control_change channel=0 control=64 value=78 time=15
control_change channel=0 control=64 value=80 time=16
control_change channel=0 control=64 value=82 time=15
control_change channel=0 control=64 value=84 time=15
control_change channel=0 control=64 value=86 time=15
control_change channel=0 control=64 value=88 time=15
control_change channel=0 control=64 value=89 time=16
control_change channel=0 control=64 value=92 time=15
control_change channel=0 control=64 value=94 time=15
control_change channel=0 control=64 value=96 time=16
control_change channel=0 control=64 value=98 time=14
control_change channel=0 control=64 value=100 time=15
control_change channel=0 control=64 value=101 time=16
control_change channel=0 control=64 value=102 time=15
control_change channel=0 control=64 value=103 time=16
note_on channel=0 note=42 velocity=0 time=1
control_change channel=0 control=64 value=104 time=14
control_change channel=0 control=64 value=105 time=15
note_on channel=0 note=76 velocity=47 time=3
note_on channel=0 note=70 velocity=38 time=15
control_change channel=0 control=64 value=106 time=12
control_change channel=0 control=64 value=107 time=16
note_on channel=0 note=82 velocity=0 time=12
control_change channel=0 control=64 value=108 time=3
control_change channel=0 control=64 value=109 time=15
control_change channel=0 control=64 value=109 time=16
control_change channel=0 control=64 value=110 time=15
control_change channel=0 control=64 value=110 time=15
control_change channel=0 control=64 value=111 time=38
control_change channel=0 control=64 value=111 time=16
control_change channel=0 control=64 value=112 time=45
control_change channel=0 control=64 value=113 time=60
control_change channel=0 control=64 value=113 time=31
control_change channel=0 control=64 value=114 time=16
note_on channel=0 note=54 velocity=0 time=11
note_on channel=0 note=70 velocity=0 time=13
note_on channel=0 note=58 velocity=54 time=13
control_change channel=0 control=64 value=114 time=9
control_change channel=0 control=64 value=115 time=14
control_change channel=0 control=64 value=115 time=15
note_on channel=0 note=58 velocity=0 time=10
control_change channel=0 control=64 value=116 time=6
control_change channel=0 control=64 value=116 time=15
control_change channel=0 control=64 value=117 time=75
control_change channel=0 control=64 value=117 time=62
control_change channel=0 control=64 value=118 time=29
control_change channel=0 control=64 value=118 time=47
note_on channel=0 note=85 velocity=60 time=205
note_on channel=0 note=79 velocity=42 time=11
note_on channel=0 note=73 velocity=36 time=9
note_on channel=0 note=58 velocity=38 time=4
control_change channel=0 control=64 value=119 time=463
control_change channel=0 control=64 value=119 time=418
control_change channel=0 control=64 value=120 time=152
control_change channel=0 control=64 value=121 time=90
control_change channel=0 control=64 value=122 time=16
control_change channel=0 control=64 value=123 time=15
control_change channel=0 control=64 value=124 time=31
control_change channel=0 control=64 value=126 time=91
control_change channel=0 control=64 value=127 time=167
control_change channel=0 control=67 value=8 time=433
control_change channel=0 control=67 value=12 time=15
control_change channel=0 control=67 value=15 time=15
control_change channel=0 control=67 value=16 time=15
control_change channel=0 control=67 value=18 time=16
control_change channel=0 control=67 value=20 time=15
control_change channel=0 control=67 value=22 time=14
control_change channel=0 control=67 value=24 time=16
control_change channel=0 control=67 value=26 time=15
control_change channel=0 control=67 value=30 time=16
control_change channel=0 control=67 value=34 time=15
control_change channel=0 control=67 value=39 time=14
control_change channel=0 control=67 value=42 time=16
control_change channel=0 control=67 value=45 time=15
control_change channel=0 control=67 value=48 time=14
control_change channel=0 control=67 value=51 time=16
control_change channel=0 control=67 value=55 time=15
control_change channel=0 control=67 value=58 time=16
note_on channel=0 note=73 velocity=0 time=2
control_change channel=0 control=67 value=61 time=13
control_change channel=0 control=67 value=64 time=14
control_change channel=0 control=67 value=68 time=16
note_on channel=0 note=58 velocity=0 time=10
control_change channel=0 control=67 value=72 time=5
note_on channel=0 note=76 velocity=0 time=11
control_change channel=0 control=67 value=76 time=5
control_change channel=0 control=67 value=80 time=16
control_change channel=0 control=67 value=84 time=14
control_change channel=0 control=67 value=88 time=16
control_change channel=0 control=67 value=92 time=15
control_change channel=0 control=67 value=96 time=15
note_on channel=0 note=79 velocity=0 time=10
control_change channel=0 control=67 value=100 time=5
control_change channel=0 control=67 value=104 time=15
control_change channel=0 control=67 value=107 time=16
control_change channel=0 control=67 value=110 time=23
note_on channel=0 note=85 velocity=0 time=10
control_change channel=0 control=67 value=113 time=6
control_change channel=0 control=67 value=115 time=14
control_change channel=0 control=67 value=117 time=15
control_change channel=0 control=67 value=118 time=16
control_change channel=0 control=67 value=119 time=14
control_change channel=0 control=67 value=120 time=15
control_change channel=0 control=67 value=121 time=16
control_change channel=0 control=67 value=121 time=16
control_change channel=0 control=67 value=122 time=16
control_change channel=0 control=67 value=123 time=15
control_change channel=0 control=67 value=123 time=15
control_change channel=0 control=67 value=124 time=30
control_change channel=0 control=67 value=125 time=16
control_change channel=0 control=67 value=126 time=15
control_change channel=0 control=67 value=127 time=15
control_change channel=0 control=64 value=126 time=197
control_change channel=0 control=64 value=124 time=16
control_change channel=0 control=64 value=122 time=15
control_change channel=0 control=64 value=120 time=15
control_change channel=0 control=64 value=119 time=15
control_change channel=0 control=64 value=117 time=15
control_change channel=0 control=64 value=116 time=15
control_change channel=0 control=64 value=114 time=16
control_change channel=0 control=64 value=113 time=15
control_change channel=0 control=64 value=111 time=15
control_change channel=0 control=64 value=109 time=15
control_change channel=0 control=64 value=108 time=15
control_change channel=0 control=64 value=106 time=16
control_change channel=0 control=64 value=103 time=15
control_change channel=0 control=64 value=101 time=15
control_change channel=0 control=64 value=97 time=15
control_change channel=0 control=64 value=95 time=15
note_on channel=0 note=59 velocity=31 time=7
control_change channel=0 control=64 value=91 time=9
note_on channel=0 note=47 velocity=31 time=0
control_change channel=0 control=64 value=84 time=14
control_change channel=0 control=64 value=74 time=15
control_change channel=0 control=64 value=62 time=16
control_change channel=0 control=64 value=0 time=23
control_change channel=0 control=64 value=23 time=46
control_change channel=0 control=64 value=41 time=15
control_change channel=0 control=64 value=48 time=15
control_change channel=0 control=67 value=127 time=0
control_change channel=0 control=64 value=53 time=16
control_change channel=0 control=64 value=59 time=14
control_change channel=0 control=67 value=126 time=0
control_change channel=0 control=64 value=63 time=15
control_change channel=0 control=64 value=65 time=16
control_change channel=0 control=64 value=67 time=14
control_change channel=0 control=67 value=126 time=0
control_change channel=0 control=64 value=68 time=17
control_change channel=0 control=64 value=70 time=15
control_change channel=0 control=67 value=125 time=0
control_change channel=0 control=64 value=72 time=15
control_change channel=0 control=67 value=124 time=0
control_change channel=0 control=64 value=74 time=16
control_change channel=0 control=67 value=123 time=0
control_change channel=0 control=64 value=76 time=15
control_change channel=0 control=67 value=122 time=0
control_change channel=0 control=64 value=78 time=15
control_change channel=0 control=67 value=122 time=0
control_change channel=0 control=64 value=81 time=15
control_change channel=0 control=67 value=121 time=0
control_change channel=0 control=64 value=83 time=15
control_change channel=0 control=67 value=120 time=0
control_change channel=0 control=64 value=86 time=16
control_change channel=0 control=67 value=119 time=0
control_change channel=0 control=64 value=89 time=15
control_change channel=0 control=67 value=117 time=0
control_change channel=0 control=64 value=91 time=15
control_change channel=0 control=67 value=114 time=0
note_on channel=0 note=59 velocity=0 time=4
control_change channel=0 control=64 value=93 time=11
control_change channel=0 control=67 value=113 time=0
control_change channel=0 control=64 value=95 time=15
control_change channel=0 control=67 value=112 time=0
control_change channel=0 control=64 value=97 time=16
control_change channel=0 control=67 value=111 time=0
note_on channel=0 note=79 velocity=49 time=11
control_change channel=0 control=64 value=99 time=3
control_change channel=0 control=67 value=110 time=0
control_change channel=0 control=64 value=101 time=15
control_change channel=0 control=67 value=107 time=0
control_change channel=0 control=64 value=102 time=16
control_change channel=0 control=67 value=105 time=0
control_change channel=0 control=67 value=101 time=15
control_change channel=0 control=67 value=98 time=15
control_change channel=0 control=67 value=94 time=15
control_change channel=0 control=67 value=91 time=15
control_change channel=0 control=67 value=88 time=16
control_change channel=0 control=67 value=87 time=15
control_change channel=0 control=67 value=86 time=15
control_change channel=0 control=67 value=85 time=16
control_change channel=0 control=64 value=101 time=15
note_on channel=0 note=47 velocity=0 time=0
control_change channel=0 control=64 value=99 time=14
control_change channel=0 control=64 value=98 time=16
control_change channel=0 control=64 value=97 time=15
control_change channel=0 control=64 value=95 time=16
note_on channel=0 note=61 velocity=56 time=0
note_on channel=0 note=49 velocity=55 time=3
control_change channel=0 control=64 value=91 time=12
control_change channel=0 control=64 value=82 time=15
control_change channel=0 control=64 value=72 time=15
control_change channel=0 control=64 value=64 time=15
control_change channel=0 control=64 value=62 time=15
control_change channel=0 control=64 value=64 time=16
control_change channel=0 control=67 value=85 time=0
control_change channel=0 control=64 value=65 time=15
control_change channel=0 control=64 value=66 time=15
control_change channel=0 control=67 value=84 time=0
note_on channel=0 note=79 velocity=0 time=8
control_change channel=0 control=64 value=67 time=7
control_change channel=0 control=67 value=83 time=0
control_change channel=0 control=64 value=70 time=23
control_change channel=0 control=67 value=81 time=0
control_change channel=0 control=64 value=74 time=15
control_change channel=0 control=67 value=78 time=0
control_change channel=0 control=64 value=77 time=15
control_change channel=0 control=67 value=74 time=0
control_change channel=0 control=64 value=80 time=16
control_change channel=0 control=67 value=68 time=0
control_change channel=0 control=64 value=84 time=15
control_change channel=0 control=67 value=62 time=0
control_change channel=0 control=64 value=87 time=15
control_change channel=0 control=67 value=57 time=0
note_on channel=0 note=79 velocity=76 time=0
control_change channel=0 control=64 value=91 time=16
control_change channel=0 control=67 value=53 time=0
control_change channel=0 control=64 value=94 time=14
control_change channel=0 control=67 value=49 time=0
control_change channel=0 control=64 value=96 time=16
control_change channel=0 control=67 value=45 time=0
control_change channel=0 control=64 value=99 time=15
control_change channel=0 control=67 value=39 time=0
control_change channel=0 control=64 value=101 time=15
control_change channel=0 control=67 value=34 time=0
note_on channel=0 note=61 velocity=0 time=1
control_change channel=0 control=64 value=103 time=15
control_change channel=0 control=67 value=29 time=0
control_change channel=0 control=64 value=104 time=14
control_change channel=0 control=67 value=24 time=0
control_change channel=0 control=67 value=18 time=16
control_change channel=0 control=67 value=10 time=15
note_on channel=0 note=49 velocity=0 time=5
control_change channel=0 control=67 value=0 time=11
control_change channel=0 control=64 value=104 time=45
control_change channel=0 control=64 value=99 time=16
note_on channel=0 note=50 velocity=67 time=4
note_on channel=0 note=62 velocity=63 time=7
control_change channel=0 control=64 value=91 time=4
control_change channel=0 control=64 value=79 time=15
control_change channel=0 control=64 value=67 time=15
control_change channel=0 control=64 value=28 time=15
control_change channel=0 control=64 value=45 time=16
control_change channel=0 control=64 value=56 time=15
control_change channel=0 control=64 value=60 time=15
control_change channel=0 control=64 value=62 time=15
control_change channel=0 control=64 value=64 time=15
control_change channel=0 control=64 value=67 time=16
control_change channel=0 control=64 value=71 time=14
control_change channel=0 control=64 value=74 time=15
control_change channel=0 control=64 value=76 time=16
note_on channel=0 note=79 velocity=0 time=4
control_change channel=0 control=64 value=79 time=11
control_change channel=0 control=64 value=82 time=16
control_change channel=0 control=64 value=86 time=14
control_change channel=0 control=64 value=90 time=15
note_on channel=0 note=79 velocity=67 time=1
note_on channel=0 note=62 velocity=0 time=6
control_change channel=0 control=64 value=93 time=9
control_change channel=0 control=64 value=96 time=15
control_change channel=0 control=64 value=100 time=15
note_on channel=0 note=50 velocity=0 time=6
control_change channel=0 control=64 value=103 time=9
control_change channel=0 control=64 value=106 time=15
control_change channel=0 control=64 value=108 time=16
control_change channel=0 control=64 value=108 time=15
control_change channel=0 control=64 value=108 time=91
control_change channel=0 control=64 value=104 time=23
control_change channel=0 control=64 value=97 time=15
note_on channel=0 note=58 velocity=56 time=4
note_on channel=0 note=46 velocity=56 time=3
control_change channel=0 control=64 value=84 time=8
control_change channel=0 control=64 value=67 time=15
control_change channel=0 control=64 value=0 time=15
control_change channel=0 control=64 value=43 time=107
control_change channel=0 control=64 value=59 time=15
control_change channel=0 control=64 value=63 time=16
control_change channel=0 control=64 value=64 time=15
control_change channel=0 control=67 value=9 time=0
note_on channel=0 note=79 velocity=0 time=6
control_change channel=0 control=64 value=65 time=8
control_change channel=0 control=67 value=11 time=0
control_change channel=0 control=64 value=68 time=16
control_change channel=0 control=67 value=14 time=0
control_change channel=0 control=64 value=71 time=15
control_change channel=0 control=67 value=19 time=0
note_on channel=0 note=46 velocity=0 time=5
control_change channel=0 control=64 value=74 time=12
control_change channel=0 control=67 value=24 time=0
control_change channel=0 control=64 value=75 time=15
control_change channel=0 control=67 value=28 time=0
control_change channel=0 control=64 value=77 time=14
control_change channel=0 control=67 value=30 time=0
control_change channel=0 control=64 value=78 time=16
control_change channel=0 control=67 value=34 time=0
note_on channel=0 note=58 velocity=0 time=0
control_change channel=0 control=64 value=80 time=15
control_change channel=0 control=67 value=38 time=0
note_on channel=0 note=79 velocity=57 time=5
control_change channel=0 control=64 value=83 time=11
control_change channel=0 control=67 value=42 time=0
control_change channel=0 control=64 value=85 time=15
control_change channel=0 control=67 value=46 time=0
control_change channel=0 control=64 value=87 time=15
control_change channel=0 control=67 value=48 time=0
control_change channel=0 control=64 value=89 time=16
control_change channel=0 control=67 value=50 time=0
control_change channel=0 control=64 value=90 time=14
control_change channel=0 control=67 value=52 time=0
control_change channel=0 control=64 value=92 time=15
control_change channel=0 control=67 value=54 time=0
control_change channel=0 control=64 value=92 time=16
control_change channel=0 control=67 value=55 time=0
control_change channel=0 control=64 value=93 time=15
control_change channel=0 control=64 value=94 time=15
control_change channel=0 control=64 value=95 time=15
control_change channel=0 control=64 value=96 time=15
control_change channel=0 control=64 value=97 time=16
control_change channel=0 control=67 value=55 time=29
control_change channel=0 control=64 value=98 time=16
control_change channel=0 control=67 value=54 time=0
control_change channel=0 control=64 value=99 time=15
control_change channel=0 control=67 value=54 time=0
control_change channel=0 control=64 value=100 time=16
control_change channel=0 control=67 value=53 time=14
control_change channel=0 control=67 value=53 time=15
control_change channel=0 control=67 value=52 time=15
control_change channel=0 control=64 value=100 time=15
control_change channel=0 control=67 value=52 time=0
control_change channel=0 control=64 value=101 time=15
control_change channel=0 control=67 value=51 time=31
control_change channel=0 control=67 value=50 time=16
control_change channel=0 control=64 value=102 time=14
control_change channel=0 control=67 value=49 time=0
control_change channel=0 control=64 value=102 time=15
control_change channel=0 control=67 value=48 time=0
control_change channel=0 control=64 value=103 time=23
note_on channel=0 note=61 velocity=33 time=21
note_on channel=0 note=79 velocity=0 time=6
control_change channel=0 control=64 value=104 time=4
control_change channel=0 control=67 value=48 time=0
control_change channel=0 control=64 value=105 time=14
control_change channel=0 control=67 value=47 time=0
note_on channel=0 note=91 velocity=68 time=5
control_change channel=0 control=64 value=106 time=10
control_change channel=0 control=67 value=46 time=0
control_change channel=0 control=64 value=106 time=16
control_change channel=0 control=67 value=44 time=0
note_on channel=0 note=88 velocity=32 time=9
control_change channel=0 control=64 value=108 time=6
control_change channel=0 control=67 value=44 time=0
control_change channel=0 control=64 value=108 time=16
control_change channel=0 control=67 value=43 time=0
control_change channel=0 control=64 value=109 time=15
control_change channel=0 control=67 value=42 time=0
control_change channel=0 control=64 value=109 time=15
control_change channel=0 control=67 value=40 time=0
control_change channel=0 control=64 value=110 time=16
control_change channel=0 control=67 value=38 time=0
control_change channel=0 control=64 value=110 time=15
control_change channel=0 control=67 value=34 time=0
control_change channel=0 control=64 value=111 time=15
control_change channel=0 control=67 value=31 time=0
control_change channel=0 control=64 value=112 time=15
control_change channel=0 control=67 value=28 time=0
control_change channel=0 control=64 value=113 time=15
control_change channel=0 control=67 value=25 time=0
control_change channel=0 control=64 value=114 time=16
control_change channel=0 control=67 value=22 time=0
control_change channel=0 control=64 value=115 time=15
control_change channel=0 control=67 value=19 time=0
control_change channel=0 control=64 value=116 time=14
control_change channel=0 control=67 value=16 time=0
control_change channel=0 control=64 value=118 time=16
control_change channel=0 control=67 value=14 time=0
control_change channel=0 control=64 value=119 time=15
control_change channel=0 control=67 value=12 time=0
control_change channel=0 control=64 value=122 time=15
control_change channel=0 control=67 value=11 time=0
control_change channel=0 control=64 value=126 time=15
control_change channel=0 control=64 value=127 time=16
control_change channel=0 control=67 value=11 time=0
note_on channel=0 note=61 velocity=0 time=3
control_change channel=0 control=67 value=10 time=13
note_on channel=0 note=88 velocity=0 time=3
control_change channel=0 control=67 value=10 time=12
control_change channel=0 control=67 value=9 time=31
control_change channel=0 control=67 value=9 time=14
control_change channel=0 control=67 value=8 time=16
control_change channel=0 control=67 value=8 time=15
note_on channel=0 note=79 velocity=47 time=0
note_on channel=0 note=91 velocity=0 time=1
control_change channel=0 control=67 value=0 time=14
note_on channel=0 note=79 velocity=0 time=197
note_on channel=0 note=90 velocity=71 time=25
note_on channel=0 note=86 velocity=42 time=21
note_on channel=0 note=62 velocity=32 time=21
note_on channel=0 note=86 velocity=0 time=58
note_on channel=0 note=90 velocity=0 time=107
note_on channel=0 note=79 velocity=46 time=46
note_on channel=0 note=62 velocity=0 time=8
note_on channel=0 note=79 velocity=0 time=185
note_on channel=0 note=88 velocity=64 time=9
note_on channel=0 note=64 velocity=43 time=15
note_on channel=0 note=85 velocity=42 time=9
note_on channel=0 note=85 velocity=0 time=119
note_on channel=0 note=64 velocity=0 time=59
note_on channel=0 note=88 velocity=0 time=16
note_on channel=0 note=79 velocity=49 time=29
note_on channel=0 note=79 velocity=0 time=186
note_on channel=0 note=85 velocity=50 time=29
note_on channel=0 note=67 velocity=36 time=11
note_on channel=0 note=82 velocity=32 time=25
note_on channel=0 note=67 velocity=0 time=34
note_on channel=0 note=85 velocity=0 time=149
note_on channel=0 note=82 velocity=0 time=3
note_on channel=0 note=79 velocity=46 time=30
note_on channel=0 note=79 velocity=0 time=71
control_change channel=0 control=64 value=118 time=166
note_on channel=0 note=49 velocity=51 time=3
note_on channel=0 note=61 velocity=54 time=0
control_change channel=0 control=64 value=104 time=11
control_change channel=0 control=64 value=93 time=16
control_change channel=0 control=64 value=78 time=15
control_change channel=0 control=64 value=67 time=16
control_change channel=0 control=64 value=64 time=15
control_change channel=0 control=64 value=65 time=15
control_change channel=0 control=64 value=66 time=16
control_change channel=0 control=64 value=67 time=15
control_change channel=0 control=64 value=68 time=14
control_change channel=0 control=64 value=70 time=16
control_change channel=0 control=64 value=73 time=15
control_change channel=0 control=64 value=77 time=16
control_change channel=0 control=64 value=80 time=15
control_change channel=0 control=64 value=82 time=22
control_change channel=0 control=64 value=86 time=15
note_on channel=0 note=79 velocity=63 time=13
control_change channel=0 control=64 value=90 time=2
control_change channel=0 control=64 value=94 time=16
control_change channel=0 control=64 value=98 time=15
control_change channel=0 control=64 value=101 time=15
note_on channel=0 note=61 velocity=0 time=0
control_change channel=0 control=64 value=104 time=16
control_change channel=0 control=64 value=108 time=14
control_change channel=0 control=64 value=111 time=16
control_change channel=0 control=64 value=113 time=15
note_on channel=0 note=49 velocity=0 time=3
control_change channel=0 control=64 value=112 time=28
control_change channel=0 control=64 value=108 time=60
note_on channel=0 note=50 velocity=74 time=6
note_on channel=0 note=62 velocity=74 time=2
control_change channel=0 control=64 value=99 time=7
control_change channel=0 control=64 value=88 time=15
note_on channel=0 note=79 velocity=0 time=10
control_change channel=0 control=64 value=77 time=5
control_change channel=0 control=64 value=67 time=16
control_change channel=0 control=64 value=65 time=15
control_change channel=0 control=64 value=67 time=16
control_change channel=0 control=64 value=69 time=14
control_change channel=0 control=64 value=71 time=15
control_change channel=0 control=64 value=73 time=16
control_change channel=0 control=64 value=77 time=15
control_change channel=0 control=64 value=82 time=15
control_change channel=0 control=64 value=87 time=15
control_change channel=0 control=64 value=90 time=15
control_change channel=0 control=64 value=94 time=16
control_change channel=0 control=64 value=98 time=14
note_on channel=0 note=79 velocity=77 time=13
control_change channel=0 control=64 value=103 time=2
control_change channel=0 control=64 value=108 time=17
control_change channel=0 control=64 value=113 time=15
control_change channel=0 control=64 value=121 time=16
control_change channel=0 control=64 value=127 time=15
note_on channel=0 note=62 velocity=0 time=1
note_on channel=0 note=50 velocity=0 time=17
control_change channel=0 control=64 value=114 time=103
control_change channel=0 control=64 value=101 time=15
control_change channel=0 control=64 value=86 time=16
note_on channel=0 note=64 velocity=70 time=10
note_on channel=0 note=52 velocity=66 time=4
control_change channel=0 control=64 value=68 time=1
control_change channel=0 control=64 value=46 time=15
control_change channel=0 control=64 value=52 time=16
control_change channel=0 control=64 value=60 time=15
control_change channel=0 control=64 value=63 time=22
control_change channel=0 control=64 value=65 time=15
control_change channel=0 control=64 value=69 time=16
control_change channel=0 control=64 value=73 time=15
control_change channel=0 control=64 value=77 time=15
control_change channel=0 control=64 value=81 time=15
note_on channel=0 note=79 velocity=0 time=6
control_change channel=0 control=64 value=86 time=9
note_on channel=0 note=64 velocity=0 time=6
control_change channel=0 control=64 value=92 time=9
control_change channel=0 control=64 value=97 time=16
control_change channel=0 control=64 value=103 time=15
note_on channel=0 note=52 velocity=0 time=8
control_change channel=0 control=64 value=107 time=7
control_change channel=0 control=64 value=112 time=15
control_change channel=0 control=64 value=118 time=15
note_on channel=0 note=79 velocity=75 time=3
control_change channel=0 control=64 value=127 time=13
control_change channel=0 control=64 value=124 time=198
control_change channel=0 control=64 value=107 time=14
control_change channel=0 control=64 value=89 time=15
control_change channel=0 control=64 value=73 time=16
note_on channel=0 note=47 velocity=40 time=7
note_on channel=0 note=59 velocity=50 time=1
control_change channel=0 control=64 value=50 time=6
control_change channel=0 control=64 value=0 time=16
control_change channel=0 control=64 value=52 time=46
control_change channel=0 control=64 value=62 time=16
control_change channel=0 control=64 value=65 time=14
control_change channel=0 control=64 value=67 time=16
control_change channel=0 control=64 value=70 time=15
control_change channel=0 control=64 value=73 time=16
control_change channel=0 control=67 value=10 time=0
control_change channel=0 control=64 value=76 time=15
control_change channel=0 control=67 value=14 time=0
note_on channel=0 note=79 velocity=0 time=0
control_change channel=0 control=64 value=80 time=15
control_change channel=0 control=67 value=17 time=0
control_change channel=0 control=64 value=84 time=16
control_change channel=0 control=67 value=19 time=0
control_change channel=0 control=64 value=87 time=15
control_change channel=0 control=67 value=20 time=0
control_change channel=0 control=64 value=90 time=16
control_change channel=0 control=67 value=20 time=0
note_on channel=0 note=47 velocity=0 time=7
control_change channel=0 control=64 value=93 time=8
control_change channel=0 control=64 value=95 time=15
control_change channel=0 control=64 value=99 time=15
control_change channel=0 control=67 value=20 time=0
note_on channel=0 note=59 velocity=0 time=3
control_change channel=0 control=64 value=103 time=12
control_change channel=0 control=64 value=107 time=15
control_change channel=0 control=64 value=112 time=23
control_change channel=0 control=64 value=116 time=15
note_on channel=0 note=79 velocity=60 time=0
control_change channel=0 control=64 value=120 time=16
control_change channel=0 control=67 value=19 time=0
control_change channel=0 control=64 value=121 time=15
control_change channel=0 control=67 value=19 time=75
control_change channel=0 control=64 value=122 time=46
note_on channel=0 note=79 velocity=0 time=34
control_change channel=0 control=64 value=123 time=42
control_change channel=0 control=67 value=18 time=0
control_change channel=0 control=64 value=124 time=15
control_change channel=0 control=67 value=18 time=15
note_on channel=0 note=64 velocity=42 time=104
note_on channel=0 note=95 velocity=73 time=1
control_change channel=0 control=64 value=126 time=48
control_change channel=0 control=64 value=127 time=46
note_on channel=0 note=95 velocity=0 time=64
note_on channel=0 note=64 velocity=0 time=98
note_on channel=0 note=79 velocity=50 time=102
control_change channel=0 control=67 value=18 time=183
note_on channel=0 note=79 velocity=0 time=44
note_on channel=0 note=66 velocity=46 time=21
note_on channel=0 note=93 velocity=73 time=7
note_on channel=0 note=90 velocity=44 time=24
note_on channel=0 note=90 velocity=0 time=53
control_change channel=0 control=67 value=18 time=49
control_change channel=0 control=67 value=17 time=14
note_on channel=0 note=93 velocity=0 time=18
note_on channel=0 note=66 velocity=0 time=2
control_change channel=0 control=67 value=16 time=11
control_change channel=0 control=67 value=16 time=15
control_change channel=0 control=67 value=15 time=16
control_change channel=0 control=67 value=14 time=15
note_on channel=0 note=79 velocity=48 time=15
control_change channel=0 control=67 value=13 time=1
control_change channel=0 control=67 value=12 time=15
control_change channel=0 control=67 value=12 time=30
control_change channel=0 control=67 value=12 time=91
control_change channel=0 control=67 value=13 time=14
control_change channel=0 control=64 value=124 time=16
control_change channel=0 control=64 value=110 time=16
control_change channel=0 control=64 value=99 time=16
note_on channel=0 note=79 velocity=0 time=4
note_on channel=0 note=91 velocity=62 time=9
control_change channel=0 control=64 value=92 time=2
note_on channel=0 note=88 velocity=56 time=6
note_on channel=0 note=67 velocity=44 time=5
control_change channel=0 control=64 value=91 time=4
control_change channel=0 control=67 value=13 time=0
control_change channel=0 control=64 value=92 time=16
control_change channel=0 control=64 value=93 time=45
control_change channel=0 control=64 value=95 time=22
control_change channel=0 control=64 value=98 time=16
control_change channel=0 control=64 value=99 time=15
control_change channel=0 control=64 value=100 time=16
control_change channel=0 control=64 value=100 time=15
note_on channel=0 note=88 velocity=0 time=24
control_change channel=0 control=64 value=101 time=6
control_change channel=0 control=67 value=13 time=0
note_on channel=0 note=91 velocity=0 time=10
note_on channel=0 note=67 velocity=0 time=8
note_on channel=0 note=79 velocity=49 time=26
control_change channel=0 control=64 value=100 time=123
control_change channel=0 control=64 value=98 time=14
note_on channel=0 note=79 velocity=0 time=66
note_on channel=0 note=88 velocity=56 time=19
control_change channel=0 control=64 value=99 time=6
control_change channel=0 control=64 value=100 time=16
note_on channel=0 note=71 velocity=47 time=4
note_on channel=0 note=83 velocity=32 time=2
control_change channel=0 control=64 value=101 time=9
note_on channel=0 note=83 velocity=0 time=40
control_change channel=0 control=67 value=12 time=5
control_change channel=0 control=64 value=101 time=16
note_on channel=0 note=71 velocity=0 time=9
control_change channel=0 control=67 value=12 time=6
control_change channel=0 control=67 value=11 time=77
control_change channel=0 control=67 value=11 time=14
note_on channel=0 note=88 velocity=0 time=9
control_change channel=0 control=67 value=10 time=22
note_on channel=0 note=79 velocity=46 time=14
control_change channel=0 control=67 value=10 time=16
control_change channel=0 control=67 value=9 time=31
note_on channel=0 note=79 velocity=0 time=7
control_change channel=0 control=64 value=100 time=123
control_change channel=0 control=64 value=99 time=14
control_change channel=0 control=64 value=97 time=16
control_change channel=0 control=67 value=10 time=0
control_change channel=0 control=64 value=93 time=15
control_change channel=0 control=64 value=87 time=15
control_change channel=0 control=67 value=10 time=0
control_change channel=0 control=64 value=77 time=16
note_on channel=0 note=60 velocity=56 time=1
note_on channel=0 note=52 velocity=54 time=5
control_change channel=0 control=64 value=66 time=9
control_change channel=0 control=67 value=11 time=0
control_change channel=0 control=64 value=59 time=15
control_change channel=0 control=64 value=62 time=15
control_change channel=0 control=64 value=64 time=15
control_change channel=0 control=64 value=66 time=16
control_change channel=0 control=64 value=69 time=15
control_change channel=0 control=67 value=10 time=0
control_change channel=0 control=64 value=72 time=16
control_change channel=0 control=64 value=76 time=15
control_change channel=0 control=67 value=10 time=0
control_change channel=0 control=64 value=80 time=14
control_change channel=0 control=64 value=84 time=16
control_change channel=0 control=64 value=87 time=15
control_change channel=0 control=67 value=9 time=0
control_change channel=0 control=64 value=90 time=14
control_change channel=0 control=64 value=92 time=16
control_change channel=0 control=64 value=95 time=15
note_on channel=0 note=60 velocity=0 time=14
control_change channel=0 control=64 value=97 time=2
control_change channel=0 control=64 value=99 time=15
note_on channel=0 note=79 velocity=62 time=1
control_change channel=0 control=64 value=101 time=13
note_on channel=0 note=52 velocity=0 time=15
control_change channel=0 control=64 value=103 time=1
control_change channel=0 control=64 value=104 time=15
control_change channel=0 control=64 value=104 time=15
control_change channel=0 control=67 value=10 time=0
control_change channel=0 control=67 value=11 time=30
control_change channel=0 control=67 value=11 time=16
control_change channel=0 control=67 value=12 time=15
control_change channel=0 control=64 value=104 time=15
control_change channel=0 control=67 value=12 time=0
control_change channel=0 control=67 value=13 time=15
control_change channel=0 control=64 value=103 time=30
control_change channel=0 control=67 value=14 time=0
control_change channel=0 control=64 value=99 time=16
control_change channel=0 control=67 value=14 time=0
control_change channel=0 control=64 value=92 time=15
control_change channel=0 control=67 value=15 time=0
note_on channel=0 note=55 velocity=57 time=2
note_on channel=0 note=50 velocity=49 time=6
note_on channel=0 note=79 velocity=0 time=1
control_change channel=0 control=64 value=78 time=7
control_change channel=0 control=67 value=15 time=0
note_on channel=0 note=47 velocity=41 time=11
control_change channel=0 control=64 value=66 time=4
control_change channel=0 control=64 value=64 time=14
control_change channel=0 control=64 value=67 time=16
control_change channel=0 control=67 value=16 time=0
control_change channel=0 control=64 value=69 time=15
control_change channel=0 control=64 value=71 time=16
control_change channel=0 control=67 value=16 time=0
control_change channel=0 control=64 value=74 time=15
control_change channel=0 control=64 value=80 time=15
control_change channel=0 control=64 value=86 time=16
control_change channel=0 control=64 value=89 time=15
control_change channel=0 control=67 value=16 time=0
note_on channel=0 note=47 velocity=0 time=3
note_on channel=0 note=50 velocity=0 time=6
control_change channel=0 control=64 value=91 time=6
note_on channel=0 note=55 velocity=0 time=10
control_change channel=0 control=64 value=92 time=6
control_change channel=0 control=64 value=94 time=15
control_change channel=0 control=67 value=15 time=0
control_change channel=0 control=64 value=96 time=24
control_change channel=0 control=64 value=96 time=15
control_change channel=0 control=67 value=16 time=0
note_on channel=0 note=79 velocity=50 time=10
control_change channel=0 control=67 value=16 time=156
control_change channel=0 control=64 value=95 time=16
control_change channel=0 control=64 value=94 time=15
control_change channel=0 control=64 value=92 time=14
note_on channel=0 note=79 velocity=0 time=11
control_change channel=0 control=64 value=87 time=5
control_change channel=0 control=64 value=79 time=15
note_on channel=0 note=88 velocity=51 time=2
note_on channel=0 note=72 velocity=38 time=6
control_change channel=0 control=64 value=68 time=8
note_on channel=0 note=76 velocity=38 time=6
control_change channel=0 control=64 value=59 time=9
control_change channel=0 control=64 value=62 time=14
control_change channel=0 control=64 value=64 time=16
control_change channel=0 control=64 value=64 time=15
control_change channel=0 control=64 value=65 time=16
control_change channel=0 control=64 value=65 time=15
control_change channel=0 control=64 value=68 time=15
control_change channel=0 control=64 value=71 time=16
control_change channel=0 control=67 value=16 time=0
control_change channel=0 control=64 value=74 time=15
control_change channel=0 control=64 value=75 time=14
control_change channel=0 control=64 value=76 time=16
control_change channel=0 control=67 value=15 time=0
control_change channel=0 control=64 value=78 time=15
control_change channel=0 control=64 value=81 time=16
control_change channel=0 control=64 value=85 time=15
control_change channel=0 control=64 value=87 time=14
control_change channel=0 control=67 value=15 time=0
control_change channel=0 control=64 value=87 time=16
control_change channel=0 control=67 value=14 time=0
note_on channel=0 note=79 velocity=42 time=3
note_on channel=0 note=76 velocity=0 time=6
control_change channel=0 control=64 value=88 time=6
control_change channel=0 control=67 value=14 time=0
control_change channel=0 control=64 value=90 time=15
control_change channel=0 control=67 value=13 time=0
control_change channel=0 control=64 value=92 time=15
control_change channel=0 control=67 value=13 time=0
note_on channel=0 note=88 velocity=0 time=32
control_change channel=0 control=64 value=92 time=29
control_change channel=0 control=67 value=12 time=15
control_change channel=0 control=64 value=92 time=15
control_change channel=0 control=64 value=90 time=16
note_on channel=0 note=72 velocity=0 time=1
control_change channel=0 control=64 value=87 time=13
control_change channel=0 control=64 value=85 time=15
control_change channel=0 control=67 value=12 time=0
note_on channel=0 note=79 velocity=0 time=3
note_on channel=0 note=74 velocity=40 time=25
control_change channel=0 control=67 value=11 time=3
note_on channel=0 note=83 velocity=36 time=4
note_on channel=0 note=86 velocity=44 time=2
control_change channel=0 control=64 value=85 time=9
note_on channel=0 note=67 velocity=29 time=0
control_change channel=0 control=64 value=87 time=23
control_change channel=0 control=67 value=11 time=0
control_change channel=0 control=64 value=90 time=15
control_change channel=0 control=67 value=9 time=0
control_change channel=0 control=64 value=92 time=17
control_change channel=0 control=67 value=9 time=0
control_change channel=0 control=64 value=94 time=15
control_change channel=0 control=67 value=8 time=0
note_on channel=0 note=74 velocity=0 time=9
control_change channel=0 control=64 value=96 time=7
control_change channel=0 control=67 value=0 time=0
control_change channel=0 control=64 value=98 time=15
control_change channel=0 control=64 value=99 time=15
note_on channel=0 note=67 velocity=0 time=4
control_change channel=0 control=64 value=101 time=11
control_change channel=0 control=64 value=102 time=15
control_change channel=0 control=64 value=103 time=15
note_on channel=0 note=83 velocity=0 time=11
note_on channel=0 note=86 velocity=0 time=1
control_change channel=0 control=64 value=103 time=19
note_on channel=0 note=79 velocity=64 time=13
control_change channel=0 control=64 value=105 time=3
control_change channel=0 control=64 value=106 time=15
control_change channel=0 control=64 value=106 time=15
note_on channel=0 note=79 velocity=0 time=16
control_change channel=0 control=64 value=105 time=105
control_change channel=0 control=64 value=103 time=16
control_change channel=0 control=64 value=100 time=15
control_change channel=0 control=64 value=95 time=15
control_change channel=0 control=64 value=85 time=15
note_on channel=0 note=59 velocity=64 time=6
note_on channel=0 note=55 velocity=59 time=7
control_change channel=0 control=64 value=74 time=2
note_on channel=0 note=52 velocity=56 time=0
control_change channel=0 control=64 value=63 time=15
control_change channel=0 control=64 value=55 time=15
control_change channel=0 control=64 value=60 time=15
control_change channel=0 control=64 value=62 time=16
control_change channel=0 control=64 value=64 time=15
control_change channel=0 control=64 value=66 time=15
control_change channel=0 control=64 value=68 time=15
control_change channel=0 control=64 value=72 time=15
control_change channel=0 control=64 value=76 time=16
control_change channel=0 control=64 value=79 time=15
control_change channel=0 control=64 value=81 time=15
control_change channel=0 control=64 value=84 time=16
control_change channel=0 control=64 value=88 time=15
control_change channel=0 control=64 value=92 time=16
control_change channel=0 control=64 value=94 time=13
control_change channel=0 control=64 value=96 time=15
note_on channel=0 note=55 velocity=0 time=0
note_on channel=0 note=59 velocity=0 time=2
note_on channel=0 note=79 velocity=65 time=9
control_change channel=0 control=64 value=97 time=5
control_change channel=0 control=64 value=99 time=15
control_change channel=0 control=64 value=100 time=15
note_on channel=0 note=52 velocity=0 time=5
control_change channel=0 control=64 value=97 time=125
control_change channel=0 control=64 value=91 time=15
control_change channel=0 control=64 value=80 time=15
note_on channel=0 note=79 velocity=0 time=14
note_on channel=0 note=50 velocity=50 time=1
note_on channel=0 note=55 velocity=56 time=0
control_change channel=0 control=64 value=66 time=1
control_change channel=0 control=64 value=0 time=15
note_on channel=0 note=47 velocity=39 time=13
control_change channel=0 control=64 value=41 time=3
control_change channel=0 control=64 value=54 time=15
control_change channel=0 control=64 value=60 time=15
control_change channel=0 control=64 value=64 time=15
control_change channel=0 control=64 value=67 time=15
control_change channel=0 control=64 value=73 time=16
control_change channel=0 control=64 value=77 time=14
note_on channel=0 note=47 velocity=0 time=0
control_change channel=0 control=64 value=81 time=15
note_on channel=0 note=50 velocity=0 time=0
note_on channel=0 note=55 velocity=0 time=15
control_change channel=0 control=64 value=83 time=1
control_change channel=0 control=64 value=86 time=15
control_change channel=0 control=64 value=90 time=15
control_change channel=0 control=64 value=93 time=15
control_change channel=0 control=64 value=94 time=15
control_change channel=0 control=64 value=95 time=16
note_on channel=0 note=79 velocity=66 time=8
control_change channel=0 control=64 value=96 time=7
control_change channel=0 control=64 value=96 time=15
control_change channel=0 control=64 value=96 time=152
control_change channel=0 control=64 value=95 time=30
control_change channel=0 control=64 value=93 time=15
note_on channel=0 note=79 velocity=0 time=3
control_change channel=0 control=64 value=91 time=13
control_change channel=0 control=64 value=88 time=15
note_on channel=0 note=71 velocity=39 time=6
note_on channel=0 note=88 velocity=66 time=0
note_on channel=0 note=76 velocity=38 time=4
control_change channel=0 control=64 value=81 time=5
control_change channel=0 control=64 value=72 time=16
control_change channel=0 control=64 value=63 time=13
note_on channel=0 note=83 velocity=11 time=14
control_change channel=0 control=64 value=59 time=2
control_change channel=0 control=64 value=62 time=15
control_change channel=0 control=64 value=62 time=15
control_change channel=0 control=64 value=63 time=16
control_change channel=0 control=64 value=64 time=14
control_change channel=0 control=64 value=66 time=15
control_change channel=0 control=64 value=68 time=16
control_change channel=0 control=64 value=70 time=23
control_change channel=0 control=64 value=71 time=16
control_change channel=0 control=64 value=73 time=14
control_change channel=0 control=64 value=73 time=16
control_change channel=0 control=64 value=74 time=15
control_change channel=0 control=64 value=76 time=14
control_change channel=0 control=64 value=78 time=16
control_change channel=0 control=64 value=80 time=15
note_on channel=0 note=83 velocity=0 time=6
control_change channel=0 control=64 value=81 time=10
note_on channel=0 note=79 velocity=42 time=4
control_change channel=0 control=64 value=83 time=12
note_on channel=0 note=76 velocity=0 time=5
control_change channel=0 control=64 value=85 time=10
control_change channel=0 control=64 value=87 time=16
control_change channel=0 control=64 value=89 time=14
control_change channel=0 control=64 value=91 time=15
control_change channel=0 control=64 value=92 time=16
note_on channel=0 note=88 velocity=0 time=6
control_change channel=0 control=64 value=94 time=9
control_change channel=0 control=64 value=95 time=15
control_change channel=0 control=64 value=96 time=15
control_change channel=0 control=64 value=97 time=15
control_change channel=0 control=64 value=98 time=16
control_change channel=0 control=64 value=99 time=14
note_on channel=0 note=71 velocity=0 time=4
note_on channel=0 note=79 velocity=0 time=1
control_change channel=0 control=64 value=100 time=10
control_change channel=0 control=64 value=102 time=16
note_on channel=0 note=74 velocity=41 time=5
note_on channel=0 note=86 velocity=51 time=3
control_change channel=0 control=64 value=103 time=7
note_on channel=0 note=83 velocity=28 time=2
note_on channel=0 note=67 velocity=36 time=10
control_change channel=0 control=64 value=104 time=4
control_change channel=0 control=64 value=104 time=14
control_change channel=0 control=64 value=105 time=15
control_change channel=0 control=64 value=106 time=16
control_change channel=0 control=64 value=107 time=15
note_on channel=0 note=74 velocity=0 time=4
control_change channel=0 control=64 value=107 time=11
control_change channel=0 control=64 value=108 time=15
note_on channel=0 note=83 velocity=0 time=0
note_on channel=0 note=67 velocity=0 time=9
note_on channel=0 note=86 velocity=0 time=115
note_on channel=0 note=79 velocity=41 time=39
note_on channel=0 note=79 velocity=0 time=129
control_change channel=0 control=64 value=107 time=53
control_change channel=0 control=64 value=106 time=15
control_change channel=0 control=64 value=105 time=15
control_change channel=0 control=64 value=104 time=15
control_change channel=0 control=64 value=102 time=15
control_change channel=0 control=64 value=101 time=15
control_change channel=0 control=64 value=101 time=16
control_change channel=0 control=64 value=99 time=15
control_change channel=0 control=64 value=97 time=15
control_change channel=0 control=64 value=94 time=15
note_on channel=0 note=49 velocity=45 time=13
control_change channel=0 control=64 value=88 time=3
note_on channel=0 note=46 velocity=39 time=1
note_on channel=0 note=52 velocity=43 time=0
note_on channel=0 note=58 velocity=41 time=0
control_change channel=0 control=64 value=80 time=15
control_change channel=0 control=64 value=71 time=15
control_change channel=0 control=64 value=64 time=16
control_change channel=0 control=64 value=65 time=14
control_change channel=0 control=64 value=66 time=15
control_change channel=0 control=64 value=67 time=16
control_change channel=0 control=64 value=67 time=15
control_change channel=0 control=64 value=69 time=15
control_change channel=0 control=64 value=70 time=16
control_change channel=0 control=64 value=73 time=14
control_change channel=0 control=64 value=75 time=16
control_change channel=0 control=64 value=77 time=15
control_change channel=0 control=64 value=78 time=14
control_change channel=0 control=64 value=80 time=16
control_change channel=0 control=64 value=81 time=15
control_change channel=0 control=64 value=84 time=15
control_change channel=0 control=64 value=86 time=16
control_change channel=0 control=64 value=87 time=14
control_change channel=0 control=64 value=89 time=16
control_change channel=0 control=64 value=90 time=15
control_change channel=0 control=64 value=91 time=14
control_change channel=0 control=64 value=93 time=16
control_change channel=0 control=64 value=94 time=15
control_change channel=0 control=64 value=96 time=15
control_change channel=0 control=64 value=98 time=16
control_change channel=0 control=64 value=99 time=15
control_change channel=0 control=64 value=100 time=15
note_on channel=0 note=58 velocity=0 time=10
control_change channel=0 control=64 value=101 time=5
control_change channel=0 control=64 value=103 time=15
note_on channel=0 note=79 velocity=43 time=4
control_change channel=0 control=64 value=103 time=12
control_change channel=0 control=64 value=104 time=15
note_on channel=0 note=46 velocity=0 time=22
control_change channel=0 control=64 value=104 time=9
note_on channel=0 note=79 velocity=0 time=124
control_change channel=0 control=64 value=104 time=50
note_on channel=0 note=55 velocity=63 time=3
note_on channel=0 note=43 velocity=56 time=4
control_change channel=0 control=64 value=102 time=9
control_change channel=0 control=64 value=98 time=15
control_change channel=0 control=64 value=92 time=15
control_change channel=0 control=64 value=83 time=15
control_change channel=0 control=64 value=80 time=15
control_change channel=0 control=64 value=81 time=31
control_change channel=0 control=64 value=82 time=15
control_change channel=0 control=64 value=84 time=16
control_change channel=0 control=64 value=87 time=15
control_change channel=0 control=64 value=91 time=15
control_change channel=0 control=64 value=94 time=16
control_change channel=0 control=64 value=96 time=15
control_change channel=0 control=64 value=99 time=15
control_change channel=0 control=64 value=102 time=15
note_on channel=0 note=79 velocity=74 time=14
control_change channel=0 control=64 value=105 time=1
note_on channel=0 note=43 velocity=0 time=13
control_change channel=0 control=64 value=108 time=3
note_on channel=0 note=55 velocity=0 time=10
control_change channel=0 control=64 value=109 time=5
note_on channel=0 note=52 velocity=0 time=0
note_on channel=0 note=49 velocity=0 time=12
control_change channel=0 control=64 value=109 time=2
control_change channel=0 control=64 value=110 time=16
control_change channel=0 control=64 value=110 time=15
note_on channel=0 note=79 velocity=0 time=70
control_change channel=0 control=64 value=108 time=37
control_change channel=0 control=64 value=101 time=14
control_change channel=0 control=64 value=88 time=16
note_on channel=0 note=55 velocity=64 time=12
note_on channel=0 note=52 velocity=59 time=2
control_change channel=0 control=64 value=74 time=1
note_on channel=0 note=43 velocity=54 time=10
note_on channel=0 note=49 velocity=50 time=0
control_change channel=0 control=64 value=61 time=4
control_change channel=0 control=64 value=60 time=16
control_change channel=0 control=64 value=64 time=15
control_change channel=0 control=64 value=65 time=16
control_change channel=0 control=64 value=67 time=15
control_change channel=0 control=64 value=70 time=15
control_change channel=0 control=64 value=74 time=15
control_change channel=0 control=64 value=78 time=15
note_on channel=0 note=43 velocity=0 time=14
control_change channel=0 control=64 value=80 time=1
control_change channel=0 control=64 value=82 time=16
control_change channel=0 control=64 value=84 time=15
control_change channel=0 control=64 value=87 time=16
control_change channel=0 control=64 value=90 time=22
control_change channel=0 control=64 value=92 time=16
note_on channel=0 note=52 velocity=0 time=12
control_change channel=0 control=64 value=94 time=2
control_change channel=0 control=64 value=96 time=15
note_on channel=0 note=55 velocity=0 time=4
note_on channel=0 note=81 velocity=75 time=8
control_change channel=0 control=64 value=98 time=4
control_change channel=0 control=64 value=101 time=15
control_change channel=0 control=64 value=103 time=15
control_change channel=0 control=64 value=104 time=15
control_change channel=0 control=64 value=104 time=15
control_change channel=0 control=64 value=105 time=16
control_change channel=0 control=64 value=105 time=15
note_on channel=0 note=81 velocity=0 time=54
control_change channel=0 control=64 value=104 time=53
control_change channel=0 control=64 value=102 time=15
note_on channel=0 note=49 velocity=0 time=4
control_change channel=0 control=64 value=97 time=11
control_change channel=0 control=64 value=88 time=16
note_on channel=0 note=54 velocity=54 time=4
note_on channel=0 note=42 velocity=53 time=2
control_change channel=0 control=64 value=76 time=9
control_change channel=0 control=64 value=64 time=16
control_change channel=0 control=64 value=58 time=14
control_change channel=0 control=64 value=63 time=15
control_change channel=0 control=64 value=64 time=16
control_change channel=0 control=64 value=65 time=30
control_change channel=0 control=64 value=66 time=16
control_change channel=0 control=64 value=68 time=15
control_change channel=0 control=64 value=71 time=15
control_change channel=0 control=64 value=73 time=15
control_change channel=0 control=64 value=74 time=15
control_change channel=0 control=64 value=76 time=16
control_change channel=0 control=64 value=77 time=15
control_change channel=0 control=64 value=80 time=14
control_change channel=0 control=64 value=83 time=16
control_change channel=0 control=64 value=85 time=15
control_change channel=0 control=64 value=87 time=16
note_on channel=0 note=54 velocity=0 time=10
control_change channel=0 control=64 value=88 time=5
note_on channel=0 note=42 velocity=0 time=7
note_on channel=0 note=82 velocity=67 time=4
control_change channel=0 control=64 value=90 time=3
control_change channel=0 control=64 value=93 time=16
control_change channel=0 control=64 value=95 time=15
control_change channel=0 control=64 value=97 time=15
control_change channel=0 control=64 value=99 time=15
control_change channel=0 control=64 value=100 time=15
note_on channel=0 note=82 velocity=0 time=2
control_change channel=0 control=64 value=100 time=14
control_change channel=0 control=64 value=101 time=15
control_change channel=0 control=64 value=102 time=30
control_change channel=0 control=64 value=103 time=23
control_change channel=0 control=64 value=102 time=121
control_change channel=0 control=64 value=101 time=16
control_change channel=0 control=64 value=100 time=15
control_change channel=0 control=64 value=99 time=16
control_change channel=0 control=64 value=97 time=14
control_change channel=0 control=64 value=95 time=15
control_change channel=0 control=64 value=92 time=16
control_change channel=0 control=64 value=88 time=14
note_on channel=0 note=54 velocity=38 time=3
note_on channel=0 note=47 velocity=34 time=3
note_on channel=0 note=50 velocity=39 time=4
control_change channel=0 control=64 value=83 time=5
control_change channel=0 control=64 value=75 time=16
control_change channel=0 control=64 value=63 time=15
control_change channel=0 control=64 value=0 time=16
control_change channel=0 control=64 value=43 time=168
control_change channel=0 control=64 value=58 time=15
control_change channel=0 control=64 value=62 time=16
control_change channel=0 control=64 value=65 time=15
control_change channel=0 control=64 value=66 time=15
control_change channel=0 control=64 value=68 time=15
control_change channel=0 control=64 value=70 time=15
control_change channel=0 control=64 value=72 time=15
control_change channel=0 control=64 value=73 time=16
control_change channel=0 control=64 value=75 time=15
control_change channel=0 control=64 value=77 time=15
control_change channel=0 control=64 value=79 time=15
control_change channel=0 control=64 value=81 time=15
control_change channel=0 control=64 value=84 time=15
control_change channel=0 control=64 value=86 time=15
note_on channel=0 note=83 velocity=42 time=14
control_change channel=0 control=64 value=87 time=1
control_change channel=0 control=64 value=89 time=16
note_on channel=0 note=71 velocity=25 time=0
control_change channel=0 control=64 value=91 time=15
control_change channel=0 control=64 value=93 time=15
control_change channel=0 control=64 value=95 time=15
control_change channel=0 control=64 value=97 time=24
control_change channel=0 control=64 value=98 time=15
control_change channel=0 control=64 value=100 time=15
note_on channel=0 note=83 velocity=0 time=14
control_change channel=0 control=64 value=103 time=1
note_on channel=0 note=71 velocity=0 time=0
control_change channel=0 control=64 value=107 time=15
control_change channel=0 control=64 value=109 time=15
control_change channel=0 control=64 value=112 time=16
control_change channel=0 control=64 value=116 time=14
control_change channel=0 control=64 value=127 time=16
note_on channel=0 note=83 velocity=62 time=290
note_on channel=0 note=71 velocity=47 time=10
note_on channel=0 note=71 velocity=0 time=82
note_on channel=0 note=83 velocity=0 time=19
note_on channel=0 note=83 velocity=75 time=387
note_on channel=0 note=71 velocity=57 time=17
note_on channel=0 note=71 velocity=0 time=98
note_on channel=0 note=83 velocity=0 time=28
note_on channel=0 note=54 velocity=0 time=266
note_on channel=0 note=47 velocity=0 time=33
note_on channel=0 note=50 velocity=0 time=70
control_change channel=0 control=67 value=8 time=191
control_change channel=0 control=67 value=9 time=15
control_change channel=0 control=67 value=11 time=16
control_change channel=0 control=67 value=12 time=14
control_change channel=0 control=67 value=13 time=15
control_change channel=0 control=67 value=15 time=16
note_on channel=0 note=83 velocity=48 time=3
note_on channel=0 note=71 velocity=39 time=5
control_change channel=0 control=67 value=16 time=7
control_change channel=0 control=67 value=18 time=15
control_change channel=0 control=67 value=21 time=15
control_change channel=0 control=67 value=23 time=15
control_change channel=0 control=67 value=25 time=16
control_change channel=0 control=67 value=27 time=15
control_change channel=0 control=67 value=30 time=15
control_change channel=0 control=67 value=33 time=16
control_change channel=0 control=67 value=36 time=15
note_on channel=0 note=71 velocity=0 time=5
control_change channel=0 control=67 value=39 time=11
control_change channel=0 control=67 value=41 time=14
control_change channel=0 control=67 value=43 time=15
note_on channel=0 note=83 velocity=0 time=9
control_change channel=0 control=67 value=45 time=7
control_change channel=0 control=67 value=48 time=15
control_change channel=0 control=67 value=49 time=14
control_change channel=0 control=67 value=52 time=16
control_change channel=0 control=67 value=55 time=15
control_change channel=0 control=67 value=58 time=16
control_change channel=0 control=67 value=61 time=15
control_change channel=0 control=67 value=64 time=14
control_change channel=0 control=67 value=67 time=16
control_change channel=0 control=67 value=70 time=16
control_change channel=0 control=67 value=74 time=16
control_change channel=0 control=67 value=78 time=15
control_change channel=0 control=67 value=82 time=15
control_change channel=0 control=67 value=86 time=16
control_change channel=0 control=67 value=90 time=14
control_change channel=0 control=67 value=94 time=15
control_change channel=0 control=67 value=98 time=16
control_change channel=0 control=67 value=103 time=15
control_change channel=0 control=67 value=106 time=16
control_change channel=0 control=67 value=109 time=13
control_change channel=0 control=67 value=111 time=15
control_change channel=0 control=67 value=113 time=16
control_change channel=0 control=67 value=114 time=14
control_change channel=0 control=67 value=116 time=15
control_change channel=0 control=67 value=117 time=16
control_change channel=0 control=67 value=117 time=15
control_change channel=0 control=67 value=118 time=16
control_change channel=0 control=67 value=118 time=22
control_change channel=0 control=64 value=126 time=31
control_change channel=0 control=67 value=119 time=0
control_change channel=0 control=64 value=112 time=14
control_change channel=0 control=67 value=119 time=0
control_change channel=0 control=64 value=105 time=16
control_change channel=0 control=67 value=120 time=0
note_on channel=0 note=50 velocity=36 time=14
note_on channel=0 note=62 velocity=32 time=0
control_change channel=0 control=64 value=99 time=1
control_change channel=0 control=67 value=120 time=0
control_change channel=0 control=64 value=91 time=15
control_change channel=0 control=64 value=80 time=16
control_change channel=0 control=64 value=69 time=14
control_change channel=0 control=64 value=56 time=16
control_change channel=0 control=64 value=53 time=15
control_change channel=0 control=64 value=59 time=15
control_change channel=0 control=64 value=62 time=16
control_change channel=0 control=64 value=63 time=14
control_change channel=0 control=64 value=64 time=15
control_change channel=0 control=64 value=66 time=16
control_change channel=0 control=64 value=67 time=15
control_change channel=0 control=64 value=70 time=16
control_change channel=0 control=64 value=72 time=15
control_change channel=0 control=64 value=74 time=15
control_change channel=0 control=64 value=75 time=16
control_change channel=0 control=67 value=119 time=0
control_change channel=0 control=64 value=78 time=15
control_change channel=0 control=67 value=119 time=0
control_change channel=0 control=64 value=80 time=15
control_change channel=0 control=67 value=118 time=0
control_change channel=0 control=64 value=83 time=15
control_change channel=0 control=64 value=86 time=15
control_change channel=0 control=67 value=118 time=0
control_change channel=0 control=64 value=88 time=16
control_change channel=0 control=67 value=117 time=0
control_change channel=0 control=64 value=89 time=15
control_change channel=0 control=67 value=117 time=0
control_change channel=0 control=64 value=91 time=14
control_change channel=0 control=67 value=116 time=0
control_change channel=0 control=64 value=93 time=16
control_change channel=0 control=67 value=115 time=0
note_on channel=0 note=83 velocity=45 time=6
note_on channel=0 note=50 velocity=0 time=8
control_change channel=0 control=64 value=95 time=1
note_on channel=0 note=71 velocity=33 time=0
control_change channel=0 control=64 value=96 time=15
control_change channel=0 control=64 value=97 time=15
control_change channel=0 control=67 value=114 time=0
control_change channel=0 control=64 value=97 time=15
control_change channel=0 control=67 value=114 time=0
note_on channel=0 note=62 velocity=0 time=2
control_change channel=0 control=64 value=98 time=14
control_change channel=0 control=67 value=113 time=0
control_change channel=0 control=64 value=99 time=15
control_change channel=0 control=64 value=100 time=17
control_change channel=0 control=64 value=101 time=15
control_change channel=0 control=64 value=102 time=14
control_change channel=0 control=67 value=112 time=0
control_change channel=0 control=67 value=112 time=31
note_on channel=0 note=71 velocity=0 time=10
control_change channel=0 control=67 value=111 time=5
note_on channel=0 note=83 velocity=0 time=21
note_on channel=0 note=52 velocity=54 time=52
note_on channel=0 note=64 velocity=53 time=1
control_change channel=0 control=64 value=101 time=1
control_change channel=0 control=64 value=98 time=16
control_change channel=0 control=64 value=90 time=15
control_change channel=0 control=64 value=83 time=15
control_change channel=0 control=67 value=111 time=0
control_change channel=0 control=64 value=81 time=16
control_change channel=0 control=67 value=110 time=0
control_change channel=0 control=64 value=81 time=22
control_change channel=0 control=67 value=110 time=0
control_change channel=0 control=64 value=82 time=16
control_change channel=0 control=67 value=109 time=0
control_change channel=0 control=64 value=84 time=15
control_change channel=0 control=67 value=109 time=0
control_change channel=0 control=64 value=86 time=16
control_change channel=0 control=67 value=107 time=0
control_change channel=0 control=64 value=90 time=15
control_change channel=0 control=67 value=106 time=0
control_change channel=0 control=64 value=94 time=14
control_change channel=0 control=67 value=104 time=0
control_change channel=0 control=64 value=97 time=16
control_change channel=0 control=67 value=100 time=0
control_change channel=0 control=64 value=100 time=15
control_change channel=0 control=67 value=95 time=0
control_change channel=0 control=64 value=103 time=14
control_change channel=0 control=67 value=89 time=0
control_change channel=0 control=64 value=107 time=16
control_change channel=0 control=67 value=80 time=0
note_on channel=0 note=83 velocity=74 time=1
note_on channel=0 note=71 velocity=59 time=10
control_change channel=0 control=64 value=111 time=4
control_change channel=0 control=67 value=70 time=0
control_change channel=0 control=64 value=116 time=16
control_change channel=0 control=67 value=60 time=0
note_on channel=0 note=64 velocity=0 time=14
control_change channel=0 control=64 value=119 time=1
control_change channel=0 control=67 value=52 time=0
control_change channel=0 control=64 value=122 time=14
control_change channel=0 control=67 value=42 time=0
control_change channel=0 control=64 value=124 time=16
control_change channel=0 control=67 value=33 time=0
control_change channel=0 control=64 value=126 time=15
control_change channel=0 control=67 value=24 time=0
control_change channel=0 control=67 value=16 time=15
note_on channel=0 note=71 velocity=0 time=12
control_change channel=0 control=67 value=9 time=4
control_change channel=0 control=67 value=0 time=14
control_change channel=0 control=64 value=123 time=46
control_change channel=0 control=64 value=110 time=16
note_on channel=0 note=52 velocity=0 time=9
control_change channel=0 control=64 value=99 time=6
note_on channel=0 note=54 velocity=71 time=3
note_on channel=0 note=66 velocity=69 time=3
control_change channel=0 control=64 value=85 time=10
control_change channel=0 control=64 value=71 time=14
control_change channel=0 control=64 value=61 time=15
control_change channel=0 control=64 value=63 time=16
control_change channel=0 control=64 value=66 time=15
note_on channel=0 note=83 velocity=0 time=9
control_change channel=0 control=64 value=67 time=6
control_change channel=0 control=64 value=69 time=15
control_change channel=0 control=64 value=72 time=15
control_change channel=0 control=64 value=75 time=16
control_change channel=0 control=64 value=79 time=15
control_change channel=0 control=64 value=84 time=15
control_change channel=0 control=64 value=87 time=15
control_change channel=0 control=64 value=90 time=15
control_change channel=0 control=64 value=94 time=15
note_on channel=0 note=66 velocity=0 time=8
control_change channel=0 control=64 value=98 time=9
control_change channel=0 control=64 value=103 time=15
note_on channel=0 note=82 velocity=76 time=12
control_change channel=0 control=64 value=107 time=4
note_on channel=0 note=70 velocity=47 time=10
control_change channel=0 control=64 value=110 time=5
control_change channel=0 control=64 value=115 time=15
control_change channel=0 control=64 value=122 time=16
control_change channel=0 control=64 value=127 time=15
note_on channel=0 note=70 velocity=0 time=4
note_on channel=0 note=54 velocity=0 time=33
control_change channel=0 control=64 value=120 time=122
control_change channel=0 control=64 value=112 time=16
control_change channel=0 control=64 value=102 time=14
note_on channel=0 note=61 velocity=63 time=9
note_on channel=0 note=49 velocity=66 time=1
control_change channel=0 control=64 value=90 time=5
control_change channel=0 control=64 value=76 time=16
control_change channel=0 control=64 value=63 time=15
control_change channel=0 control=64 value=0 time=15
control_change channel=0 control=67 value=8 time=61
control_change channel=0 control=67 value=8 time=15
control_change channel=0 control=64 value=42 time=16
control_change channel=0 control=67 value=9 time=0
note_on channel=0 note=82 velocity=0 time=14
control_change channel=0 control=64 value=57 time=1
control_change channel=0 control=67 value=10 time=0
control_change channel=0 control=64 value=63 time=15
control_change channel=0 control=67 value=11 time=0
control_change channel=0 control=64 value=65 time=15
control_change channel=0 control=67 value=13 time=0
control_change channel=0 control=64 value=68 time=15
control_change channel=0 control=67 value=15 time=0
control_change channel=0 control=64 value=70 time=16
control_change channel=0 control=67 value=17 time=0
control_change channel=0 control=64 value=72 time=14
control_change channel=0 control=67 value=19 time=0
control_change channel=0 control=64 value=74 time=15
control_change channel=0 control=67 value=23 time=0
control_change channel=0 control=64 value=77 time=16
control_change channel=0 control=67 value=26 time=0
control_change channel=0 control=64 value=80 time=15
control_change channel=0 control=67 value=28 time=0
control_change channel=0 control=64 value=83 time=15
control_change channel=0 control=67 value=29 time=0
control_change channel=0 control=64 value=85 time=15
control_change channel=0 control=67 value=30 time=0
control_change channel=0 control=64 value=87 time=15
control_change channel=0 control=67 value=31 time=0
note_on channel=0 note=82 velocity=60 time=5
control_change channel=0 control=64 value=90 time=11
control_change channel=0 control=67 value=32 time=0
note_on channel=0 note=70 velocity=41 time=0
control_change channel=0 control=64 value=93 time=15
note_on channel=0 note=70 velocity=0 time=13
control_change channel=0 control=64 value=96 time=2
control_change channel=0 control=64 value=98 time=15
note_on channel=0 note=82 velocity=0 time=12
control_change channel=0 control=64 value=101 time=3
control_change channel=0 control=64 value=103 time=16
control_change channel=0 control=64 value=106 time=15
control_change channel=0 control=67 value=31 time=0
control_change channel=0 control=64 value=109 time=15
control_change channel=0 control=64 value=111 time=16
control_change channel=0 control=67 value=30 time=0
control_change channel=0 control=64 value=113 time=14
control_change channel=0 control=64 value=115 time=15
note_on channel=0 note=49 velocity=0 time=10
control_change channel=0 control=64 value=118 time=6
control_change channel=0 control=64 value=123 time=15
note_on channel=0 note=61 velocity=0 time=10
control_change channel=0 control=64 value=127 time=6
control_change channel=0 control=67 value=30 time=0
control_change channel=0 control=67 value=29 time=15
control_change channel=0 control=67 value=29 time=76
control_change channel=0 control=67 value=28 time=38
control_change channel=0 control=67 value=28 time=31
control_change channel=0 control=67 value=27 time=30
control_change channel=0 control=67 value=27 time=15
control_change channel=0 control=67 value=26 time=30
control_change channel=0 control=67 value=25 time=46
note_on channel=0 note=94 velocity=77 time=3
control_change channel=0 control=67 value=25 time=12
control_change channel=0 control=67 value=24 time=15
note_on channel=0 note=91 velocity=48 time=7
control_change channel=0 control=67 value=23 time=9
control_change channel=0 control=67 value=22 time=15
control_change channel=0 control=67 value=22 time=16
note_on channel=0 note=91 velocity=0 time=8
control_change channel=0 control=67 value=21 time=7
control_change channel=0 control=67 value=20 time=15
control_change channel=0 control=67 value=20 time=15
control_change channel=0 control=67 value=18 time=15
control_change channel=0 control=67 value=16 time=15
control_change channel=0 control=67 value=15 time=16
control_change channel=0 control=67 value=13 time=15
control_change channel=0 control=67 value=12 time=15
control_change channel=0 control=67 value=11 time=15
control_change channel=0 control=67 value=9 time=15
note_on channel=0 note=94 velocity=0 time=4
control_change channel=0 control=67 value=9 time=12
control_change channel=0 control=67 value=8 time=14
control_change channel=0 control=67 value=0 time=15
note_on channel=0 note=70 velocity=47 time=131
note_on channel=0 note=82 velocity=43 time=25
note_on channel=0 note=70 velocity=0 time=29
note_on channel=0 note=82 velocity=0 time=176
note_on channel=0 note=93 velocity=78 time=23
note_on channel=0 note=90 velocity=59 time=15
note_on channel=0 note=90 velocity=0 time=150
note_on channel=0 note=93 velocity=0 time=16
note_on channel=0 note=82 velocity=53 time=50
note_on channel=0 note=91 velocity=72 time=255
control_change channel=0 control=64 value=103 time=5
note_on channel=0 note=82 velocity=0 time=0
note_on channel=0 note=52 velocity=47 time=6
note_on channel=0 note=64 velocity=38 time=7
control_change channel=0 control=64 value=86 time=3
control_change channel=0 control=64 value=76 time=14
control_change channel=0 control=64 value=77 time=15
control_change channel=0 control=64 value=79 time=16
control_change channel=0 control=64 value=81 time=14
control_change channel=0 control=64 value=83 time=16
note_on channel=0 note=91 velocity=0 time=4
control_change channel=0 control=64 value=87 time=10
control_change channel=0 control=64 value=93 time=15
control_change channel=0 control=64 value=98 time=16
control_change channel=0 control=64 value=101 time=15
control_change channel=0 control=64 value=104 time=15
control_change channel=0 control=64 value=108 time=16
control_change channel=0 control=64 value=115 time=15
control_change channel=0 control=64 value=127 time=16
note_on channel=0 note=64 velocity=0 time=69
note_on channel=0 note=82 velocity=55 time=71
note_on channel=0 note=70 velocity=16 time=41
note_on channel=0 note=82 velocity=0 time=38
note_on channel=0 note=70 velocity=0 time=8
note_on channel=0 note=66 velocity=69 time=124
note_on channel=0 note=88 velocity=74 time=1
note_on channel=0 note=54 velocity=66 time=6
note_on channel=0 note=52 velocity=0 time=10
control_change channel=0 control=64 value=105 time=19
note_on channel=0 note=88 velocity=0 time=13
control_change channel=0 control=64 value=98 time=3
control_change channel=0 control=64 value=100 time=45
control_change channel=0 control=64 value=106 time=15
control_change channel=0 control=64 value=118 time=16
control_change channel=0 control=64 value=127 time=15
note_on channel=0 note=82 velocity=79 time=72
note_on channel=0 note=70 velocity=66 time=3
note_on channel=0 note=70 velocity=0 time=41
note_on channel=0 note=66 velocity=0 time=19
note_on channel=0 note=82 velocity=0 time=10
note_on channel=0 note=55 velocity=78 time=124
control_change channel=0 control=64 value=104 time=5
note_on channel=0 note=67 velocity=84 time=0
note_on channel=0 note=54 velocity=0 time=2
control_change channel=0 control=64 value=77 time=20
control_change channel=0 control=64 value=60 time=16
control_change channel=0 control=64 value=65 time=32
control_change channel=0 control=64 value=67 time=14
control_change channel=0 control=64 value=71 time=15
control_change channel=0 control=64 value=76 time=16
control_change channel=0 control=64 value=84 time=15
control_change channel=0 control=64 value=91 time=15
control_change channel=0 control=64 value=96 time=16
control_change channel=0 control=64 value=99 time=14
control_change channel=0 control=64 value=104 time=16
control_change channel=0 control=64 value=114 time=15
note_on channel=0 note=82 velocity=81 time=6
note_on channel=0 note=70 velocity=65 time=1
note_on channel=0 note=55 velocity=0 time=7
control_change channel=0 control=64 value=127 time=1
note_on channel=0 note=70 velocity=0 time=30
note_on channel=0 note=67 velocity=0 time=11
note_on channel=0 note=82 velocity=0 time=9
note_on channel=0 note=69 velocity=87 time=130
note_on channel=0 note=57 velocity=80 time=1
control_change channel=0 control=64 value=109 time=16
control_change channel=0 control=64 value=83 time=16
control_change channel=0 control=64 value=65 time=14
control_change channel=0 control=64 value=60 time=15
control_change channel=0 control=64 value=66 time=16
control_change channel=0 control=64 value=71 time=15
control_change channel=0 control=64 value=76 time=16
control_change channel=0 control=64 value=83 time=15
control_change channel=0 control=64 value=93 time=15
control_change channel=0 control=64 value=103 time=16
control_change channel=0 control=64 value=112 time=14
control_change channel=0 control=64 value=117 time=15
note_on channel=0 note=69 velocity=0 time=1
note_on channel=0 note=57 velocity=0 time=3
note_on channel=0 note=82 velocity=76 time=3
note_on channel=0 note=70 velocity=63 time=1
control_change channel=0 control=64 value=127 time=8
note_on channel=0 note=70 velocity=0 time=21
note_on channel=0 note=82 velocity=0 time=17
note_on channel=0 note=69 velocity=86 time=45
note_on channel=0 note=57 velocity=78 time=4
note_on channel=0 note=69 velocity=0 time=70
control_change channel=0 control=64 value=113 time=110
control_change channel=0 control=64 value=101 time=15
control_change channel=0 control=64 value=87 time=14
control_change channel=0 control=64 value=71 time=16
note_on channel=0 note=57 velocity=0 time=9
control_change channel=0 control=64 value=45 time=6
note_on channel=0 note=70 velocity=75 time=4
note_on channel=0 note=58 velocity=69 time=5
control_change channel=0 control=64 value=0 time=6
control_change channel=0 control=64 value=36 time=79
control_change channel=0 control=64 value=58 time=15
control_change channel=0 control=64 value=64 time=15
control_change channel=0 control=64 value=67 time=16
control_change channel=0 control=64 value=70 time=15
control_change channel=0 control=64 value=74 time=14
control_change channel=0 control=64 value=78 time=16
control_change channel=0 control=64 value=82 time=15
note_on channel=0 note=70 velocity=0 time=0
control_change channel=0 control=64 value=86 time=16
control_change channel=0 control=64 value=91 time=15
control_change channel=0 control=64 value=95 time=14
control_change channel=0 control=64 value=100 time=16
control_change channel=0 control=64 value=103 time=15
control_change channel=0 control=64 value=106 time=14
control_change channel=0 control=64 value=110 time=16
note_on channel=0 note=82 velocity=66 time=7
note_on channel=0 note=70 velocity=51 time=7
control_change channel=0 control=64 value=115 time=1
control_change channel=0 control=64 value=124 time=16
control_change channel=0 control=64 value=127 time=15
note_on channel=0 note=58 velocity=0 time=14
note_on channel=0 note=70 velocity=0 time=2
control_change channel=0 control=64 value=126 time=151
control_change channel=0 control=64 value=119 time=16
note_on channel=0 note=82 velocity=0 time=7
control_change channel=0 control=64 value=114 time=8
control_change channel=0 control=64 value=108 time=15
control_change channel=0 control=67 value=8 time=0
control_change channel=0 control=64 value=101 time=15
control_change channel=0 control=67 value=10 time=0
control_change channel=0 control=64 value=92 time=15
control_change channel=0 control=67 value=11 time=0
note_on channel=0 note=62 velocity=51 time=6
note_on channel=0 note=50 velocity=52 time=5
control_change channel=0 control=64 value=80 time=4
control_change channel=0 control=67 value=13 time=0
control_change channel=0 control=64 value=67 time=22
control_change channel=0 control=67 value=14 time=0
control_change channel=0 control=64 value=30 time=15
control_change channel=0 control=67 value=15 time=0
control_change channel=0 control=64 value=0 time=16
control_change channel=0 control=67 value=17 time=0
control_change channel=0 control=67 value=20 time=15
control_change channel=0 control=64 value=31 time=16
control_change channel=0 control=67 value=23 time=0
control_change channel=0 control=64 value=49 time=15
control_change channel=0 control=67 value=26 time=0
control_change channel=0 control=64 value=59 time=15
control_change channel=0 control=67 value=29 time=0
control_change channel=0 control=64 value=64 time=16
control_change channel=0 control=67 value=32 time=0
control_change channel=0 control=64 value=67 time=14
control_change channel=0 control=67 value=35 time=0
control_change channel=0 control=64 value=69 time=16
control_change channel=0 control=67 value=39 time=0
control_change channel=0 control=64 value=71 time=16
control_change channel=0 control=67 value=44 time=0
control_change channel=0 control=64 value=74 time=15
control_change channel=0 control=67 value=48 time=0
control_change channel=0 control=64 value=76 time=15
control_change channel=0 control=67 value=51 time=0
control_change channel=0 control=64 value=78 time=15
control_change channel=0 control=67 value=53 time=0
note_on channel=0 note=50 velocity=0 time=0
control_change channel=0 control=64 value=80 time=15
control_change channel=0 control=67 value=56 time=0
control_change channel=0 control=64 value=82 time=16
control_change channel=0 control=67 value=60 time=0
control_change channel=0 control=64 value=85 time=15
control_change channel=0 control=67 value=63 time=0
control_change channel=0 control=64 value=87 time=16
control_change channel=0 control=67 value=66 time=0
note_on channel=0 note=62 velocity=0 time=7
control_change channel=0 control=64 value=89 time=8
control_change channel=0 control=67 value=69 time=0
control_change channel=0 control=64 value=92 time=14
control_change channel=0 control=67 value=72 time=0
control_change channel=0 control=64 value=94 time=16
control_change channel=0 control=67 value=74 time=0
control_change channel=0 control=64 value=96 time=15
control_change channel=0 control=67 value=74 time=0
note_on channel=0 note=82 velocity=60 time=7
control_change channel=0 control=64 value=98 time=8
control_change channel=0 control=67 value=75 time=0
note_on channel=0 note=70 velocity=43 time=6
control_change channel=0 control=64 value=100 time=10
control_change channel=0 control=67 value=76 time=0
control_change channel=0 control=64 value=103 time=15
control_change channel=0 control=67 value=76 time=0
note_on channel=0 note=70 velocity=0 time=3
control_change channel=0 control=64 value=104 time=12
control_change channel=0 control=67 value=77 time=0
control_change channel=0 control=64 value=106 time=15
note_on channel=0 note=82 velocity=0 time=2
control_change channel=0 control=64 value=107 time=13
control_change channel=0 control=64 value=108 time=16
control_change channel=0 control=64 value=110 time=14
control_change channel=0 control=64 value=112 time=15
control_change channel=0 control=64 value=113 time=16
control_change channel=0 control=64 value=115 time=15
control_change channel=0 control=64 value=117 time=15
control_change channel=0 control=64 value=123 time=15
control_change channel=0 control=64 value=127 time=15
control_change channel=0 control=67 value=76 time=120
control_change channel=0 control=67 value=76 time=46
control_change channel=0 control=67 value=75 time=46
control_change channel=0 control=67 value=75 time=22
control_change channel=0 control=67 value=74 time=62
note_on channel=0 note=98 velocity=71 time=29
note_on channel=0 note=94 velocity=50 time=26
note_on channel=0 note=67 velocity=34 time=12
control_change channel=0 control=67 value=74 time=9
note_on channel=0 note=94 velocity=0 time=21
note_on channel=0 note=98 velocity=0 time=37
control_change channel=0 control=67 value=73 time=19
note_on channel=0 note=82 velocity=46 time=296
note_on channel=0 note=70 velocity=37 time=6
note_on channel=0 note=67 velocity=0 time=134
note_on channel=0 note=82 velocity=0 time=9
note_on channel=0 note=96 velocity=70 time=87
note_on channel=0 note=70 velocity=0 time=3
note_on channel=0 note=66 velocity=40 time=29
note_on channel=0 note=93 velocity=46 time=4
note_on channel=0 note=96 velocity=0 time=116
control_change channel=0 control=67 value=73 time=21
note_on channel=0 note=93 velocity=0 time=27
note_on channel=0 note=82 velocity=44 time=44
note_on channel=0 note=70 velocity=31 time=24
control_change channel=0 control=67 value=72 time=134
control_change channel=0 control=67 value=72 time=61
note_on channel=0 note=70 velocity=0 time=7
note_on channel=0 note=82 velocity=0 time=4
note_on channel=0 note=94 velocity=64 time=3
note_on channel=0 note=66 velocity=0 time=15
note_on channel=0 note=67 velocity=36 time=4
note_on channel=0 note=91 velocity=43 time=2
control_change channel=0 control=67 value=71 time=11
control_change channel=0 control=67 value=70 time=30
control_change channel=0 control=67 value=70 time=30
control_change channel=0 control=67 value=69 time=30
control_change channel=0 control=67 value=69 time=15
note_on channel=0 note=91 velocity=0 time=25
control_change channel=0 control=67 value=68 time=6
note_on channel=0 note=94 velocity=0 time=36
control_change channel=0 control=67 value=68 time=41
note_on channel=0 note=82 velocity=41 time=39
note_on channel=0 note=70 velocity=34 time=15
note_on channel=0 note=70 velocity=0 time=68
control_change channel=0 control=67 value=67 time=52
note_on channel=0 note=82 velocity=0 time=121
note_on channel=0 note=86 velocity=42 time=22
note_on channel=0 note=91 velocity=48 time=6
control_change channel=0 control=67 value=67 time=95
note_on channel=0 note=67 velocity=0 time=218
note_on channel=0 note=91 velocity=0 time=3
control_change channel=0 control=67 value=66 time=7
note_on channel=0 note=86 velocity=0 time=14
note_on channel=0 note=82 velocity=35 time=24
note_on channel=0 note=70 velocity=37 time=6
note_on channel=0 note=70 velocity=0 time=43
note_on channel=0 note=82 velocity=0 time=13
control_change channel=0 control=67 value=66 time=37
control_change channel=0 control=67 value=65 time=280
control_change channel=0 control=67 value=65 time=139
note_on channel=0 note=63 velocity=54 time=179
control_change channel=0 control=64 value=116 time=4
note_on channel=0 note=58 velocity=51 time=3
note_on channel=0 note=51 velocity=50 time=6
note_on channel=0 note=55 velocity=48 time=0
control_change channel=0 control=64 value=107 time=6
control_change channel=0 control=64 value=101 time=14
control_change channel=0 control=64 value=93 time=16
control_change channel=0 control=64 value=83 time=15
control_change channel=0 control=64 value=71 time=15
control_change channel=0 control=64 value=53 time=16
control_change channel=0 control=64 value=0 time=14
control_change channel=0 control=64 value=41 time=76
control_change channel=0 control=64 value=54 time=15
control_change channel=0 control=64 value=61 time=23
control_change channel=0 control=67 value=64 time=0
control_change channel=0 control=64 value=64 time=15
control_change channel=0 control=64 value=67 time=16
control_change channel=0 control=64 value=68 time=15
control_change channel=0 control=64 value=70 time=16
control_change channel=0 control=64 value=72 time=15
control_change channel=0 control=64 value=75 time=15
control_change channel=0 control=67 value=64 time=0
control_change channel=0 control=64 value=77 time=15
control_change channel=0 control=64 value=79 time=15
control_change channel=0 control=64 value=80 time=15
control_change channel=0 control=64 value=82 time=16
note_on channel=0 note=79 velocity=39 time=8
note_on channel=0 note=82 velocity=46 time=0
note_on channel=0 note=70 velocity=23 time=4
control_change channel=0 control=64 value=84 time=3
control_change channel=0 control=64 value=87 time=15
control_change channel=0 control=64 value=89 time=15
control_change channel=0 control=67 value=63 time=0
control_change channel=0 control=64 value=91 time=15
control_change channel=0 control=64 value=93 time=15
control_change channel=0 control=64 value=96 time=15
control_change channel=0 control=67 value=63 time=0
control_change channel=0 control=64 value=99 time=15
control_change channel=0 control=67 value=62 time=0
control_change channel=0 control=64 value=105 time=16
control_change channel=0 control=67 value=60 time=0
control_change channel=0 control=64 value=110 time=15
control_change channel=0 control=67 value=58 time=0
note_on channel=0 note=70 velocity=0 time=13
control_change channel=0 control=64 value=117 time=2
control_change channel=0 control=67 value=57 time=0
control_change channel=0 control=64 value=127 time=15
control_change channel=0 control=67 value=55 time=0
control_change channel=0 control=67 value=53 time=15
note_on channel=0 note=51 velocity=0 time=12
control_change channel=0 control=67 value=51 time=4
control_change channel=0 control=67 value=49 time=15
control_change channel=0 control=67 value=47 time=17
note_on channel=0 note=79 velocity=0 time=4
control_change channel=0 control=67 value=45 time=11
control_change channel=0 control=67 value=42 time=14
control_change channel=0 control=67 value=39 time=16
note_on channel=0 note=82 velocity=0 time=9
control_change channel=0 control=67 value=35 time=6
note_on channel=0 note=55 velocity=0 time=7
control_change channel=0 control=67 value=31 time=8
note_on channel=0 note=63 velocity=0 time=11
control_change channel=0 control=67 value=28 time=5
control_change channel=0 control=67 value=24 time=14
control_change channel=0 control=67 value=19 time=16
control_change channel=0 control=67 value=16 time=15
control_change channel=0 control=67 value=14 time=14
control_change channel=0 control=67 value=13 time=16
control_change channel=0 control=67 value=12 time=15
control_change channel=0 control=67 value=11 time=15
control_change channel=0 control=67 value=10 time=16
control_change channel=0 control=67 value=10 time=14
control_change channel=0 control=67 value=9 time=16
note_on channel=0 note=58 velocity=0 time=18
note_on channel=0 note=53 velocity=51 time=4
control_change channel=0 control=67 value=8 time=7
note_on channel=0 note=65 velocity=52 time=5
control_change channel=0 control=67 value=8 time=11
note_on channel=0 note=82 velocity=43 time=4
note_on channel=0 note=53 velocity=0 time=6
note_on channel=0 note=65 velocity=0 time=4
control_change channel=0 control=67 value=0 time=1
note_on channel=0 note=79 velocity=30 time=10
note_on channel=0 note=51 velocity=61 time=77
note_on channel=0 note=63 velocity=61 time=5
control_change channel=0 control=67 value=8 time=98
note_on channel=0 note=79 velocity=0 time=0
control_change channel=0 control=67 value=8 time=31
note_on channel=0 note=63 velocity=0 time=7
note_on channel=0 note=82 velocity=0 time=6
control_change channel=0 control=67 value=9 time=32
control_change channel=0 control=64 value=99 time=61
control_change channel=0 control=64 value=80 time=15
note_on channel=0 note=62 velocity=60 time=0
note_on channel=0 note=50 velocity=64 time=2
note_on channel=0 note=51 velocity=0 time=3
control_change channel=0 control=64 value=63 time=10
control_change channel=0 control=64 value=0 time=15
control_change channel=0 control=64 value=28 time=30
control_change channel=0 control=64 value=41 time=16
control_change channel=0 control=64 value=54 time=15
control_change channel=0 control=64 value=64 time=15
control_change channel=0 control=64 value=68 time=15
control_change channel=0 control=64 value=71 time=15
control_change channel=0 control=64 value=75 time=15
note_on channel=0 note=62 velocity=0 time=14
control_change channel=0 control=64 value=80 time=2
control_change channel=0 control=64 value=87 time=16
control_change channel=0 control=64 value=92 time=16
control_change channel=0 control=64 value=87 time=29
control_change channel=0 control=64 value=79 time=16
note_on channel=0 note=51 velocity=70 time=8
control_change channel=0 control=64 value=70 time=7
note_on channel=0 note=63 velocity=73 time=5
note_on channel=0 note=82 velocity=52 time=5
control_change channel=0 control=64 value=67 time=4
note_on channel=0 note=79 velocity=39 time=14
control_change channel=0 control=64 value=68 time=2
note_on channel=0 note=70 velocity=9 time=10
control_change channel=0 control=64 value=70 time=5
control_change channel=0 control=67 value=9 time=0
note_on channel=0 note=50 velocity=0 time=6
control_change channel=0 control=64 value=73 time=10
control_change channel=0 control=64 value=76 time=15
control_change channel=0 control=67 value=10 time=0
control_change channel=0 control=64 value=80 time=15
control_change channel=0 control=64 value=84 time=16
control_change channel=0 control=64 value=87 time=15
note_on channel=0 note=51 velocity=0 time=7
note_on channel=0 note=63 velocity=0 time=7
control_change channel=0 control=64 value=90 time=2
control_change channel=0 control=64 value=93 time=15
control_change channel=0 control=64 value=96 time=14
control_change channel=0 control=64 value=97 time=16
control_change channel=0 control=64 value=95 time=30
note_on channel=0 note=67 velocity=77 time=10
control_change channel=0 control=64 value=88 time=6
note_on channel=0 note=55 velocity=66 time=3
control_change channel=0 control=64 value=78 time=19
control_change channel=0 control=64 value=73 time=16
control_change channel=0 control=64 value=76 time=15
control_change channel=0 control=64 value=79 time=15
note_on channel=0 note=82 velocity=0 time=7
control_change channel=0 control=64 value=82 time=8
note_on channel=0 note=70 velocity=0 time=5
control_change channel=0 control=64 value=87 time=10
note_on channel=0 note=79 velocity=0 time=1
note_on channel=0 note=55 velocity=0 time=11
note_on channel=0 note=67 velocity=0 time=2
control_change channel=0 control=64 value=93 time=2
control_change channel=0 control=64 value=98 time=15
control_change channel=0 control=64 value=101 time=14
control_change channel=0 control=64 value=103 time=16
control_change channel=0 control=64 value=104 time=15
control_change channel=0 control=64 value=105 time=16
control_change channel=0 control=64 value=106 time=15
control_change channel=0 control=64 value=108 time=14
note_on channel=0 note=63 velocity=75 time=12
control_change channel=0 control=64 value=110 time=4
note_on channel=0 note=51 velocity=70 time=0
control_change channel=0 control=64 value=112 time=15
note_on channel=0 note=70 velocity=46 time=0
note_on channel=0 note=82 velocity=59 time=0
control_change channel=0 control=64 value=113 time=15
note_on channel=0 note=79 velocity=5 time=6
note_on channel=0 note=51 velocity=0 time=1
control_change channel=0 control=64 value=114 time=9
note_on channel=0 note=63 velocity=0 time=9
note_on channel=0 note=79 velocity=0 time=40
control_change channel=0 control=64 value=113 time=11
note_on channel=0 note=82 velocity=0 time=6
control_change channel=0 control=64 value=113 time=25
control_change channel=0 control=64 value=111 time=16
control_change channel=0 control=67 value=10 time=0
control_change channel=0 control=64 value=108 time=14
control_change channel=0 control=67 value=11 time=0
control_change channel=0 control=64 value=104 time=15
control_change channel=0 control=67 value=11 time=0
note_on channel=0 note=70 velocity=0 time=7
control_change channel=0 control=64 value=94 time=9
control_change channel=0 control=64 value=81 time=15
control_change channel=0 control=67 value=12 time=0
control_change channel=0 control=64 value=67 time=15
note_on channel=0 note=63 velocity=60 time=2
note_on channel=0 note=51 velocity=53 time=6
note_on channel=0 note=55 velocity=54 time=1
note_on channel=0 note=58 velocity=54 time=2
control_change channel=0 control=64 value=0 time=4
control_change channel=0 control=67 value=12 time=0
control_change channel=0 control=64 value=38 time=78
control_change channel=0 control=67 value=13 time=0
control_change channel=0 control=64 value=54 time=15
control_change channel=0 control=64 value=60 time=14
control_change channel=0 control=64 value=63 time=16
control_change channel=0 control=64 value=66 time=15
control_change channel=0 control=64 value=68 time=15
control_change channel=0 control=67 value=13 time=0
control_change channel=0 control=64 value=70 time=15
control_change channel=0 control=64 value=73 time=15
control_change channel=0 control=67 value=14 time=0
control_change channel=0 control=64 value=75 time=16
control_change channel=0 control=64 value=78 time=15
control_change channel=0 control=67 value=15 time=0
control_change channel=0 control=64 value=81 time=15
control_change channel=0 control=67 value=15 time=0
note_on channel=0 note=82 velocity=56 time=2
note_on channel=0 note=79 velocity=50 time=5
note_on channel=0 note=70 velocity=42 time=1
control_change channel=0 control=64 value=85 time=7
control_change channel=0 control=67 value=16 time=0
note_on channel=0 note=73 velocity=34 time=2
control_change channel=0 control=64 value=88 time=13
control_change channel=0 control=67 value=16 time=0
note_on channel=0 note=63 velocity=0 time=5
control_change channel=0 control=64 value=91 time=11
control_change channel=0 control=67 value=17 time=0
note_on channel=0 note=51 velocity=0 time=8
control_change channel=0 control=64 value=92 time=7
control_change channel=0 control=64 value=93 time=23
control_change channel=0 control=67 value=17 time=30
control_change channel=0 control=64 value=91 time=76
control_change channel=0 control=67 value=18 time=0
note_on channel=0 note=82 velocity=0 time=11
control_change channel=0 control=64 value=87 time=4
note_on channel=0 note=62 velocity=55 time=7
control_change channel=0 control=64 value=78 time=8
control_change channel=0 control=67 value=18 time=0
note_on channel=0 note=73 velocity=0 time=5
note_on channel=0 note=79 velocity=0 time=0
note_on channel=0 note=50 velocity=50 time=9
control_change channel=0 control=64 value=67 time=1
control_change channel=0 control=67 value=19 time=0
note_on channel=0 note=70 velocity=0 time=6
control_change channel=0 control=64 value=0 time=10
control_change channel=0 control=67 value=19 time=14
control_change channel=0 control=64 value=21 time=62
control_change channel=0 control=67 value=20 time=0
control_change channel=0 control=64 value=41 time=14
control_change channel=0 control=64 value=52 time=15
control_change channel=0 control=64 value=60 time=16
control_change channel=0 control=64 value=65 time=15
control_change channel=0 control=67 value=20 time=0
control_change channel=0 control=64 value=68 time=16
control_change channel=0 control=64 value=70 time=15
control_change channel=0 control=64 value=72 time=15
control_change channel=0 control=64 value=75 time=16
note_on channel=0 note=70 velocity=44 time=11
control_change channel=0 control=64 value=79 time=3
control_change channel=0 control=67 value=21 time=0
note_on channel=0 note=82 velocity=45 time=9
note_on channel=0 note=74 velocity=39 time=1
note_on channel=0 note=62 velocity=0 time=4
control_change channel=0 control=64 value=83 time=1
note_on channel=0 note=55 velocity=0 time=0
note_on channel=0 note=79 velocity=42 time=2
note_on channel=0 note=50 velocity=0 time=7
note_on channel=0 note=58 velocity=0 time=0
control_change channel=0 control=64 value=86 time=7
control_change channel=0 control=67 value=21 time=0
control_change channel=0 control=64 value=88 time=15
control_change channel=0 control=67 value=22 time=0
control_change channel=0 control=64 value=90 time=16
control_change channel=0 control=67 value=23 time=0
control_change channel=0 control=64 value=92 time=14
control_change channel=0 control=67 value=24 time=0
control_change channel=0 control=64 value=93 time=15
control_change channel=0 control=67 value=24 time=0
control_change channel=0 control=67 value=25 time=16
control_change channel=0 control=67 value=26 time=15
control_change channel=0 control=67 value=27 time=32
note_on channel=0 note=82 velocity=0 time=27
control_change channel=0 control=67 value=27 time=3
note_on channel=0 note=70 velocity=0 time=3
control_change channel=0 control=67 value=28 time=12
note_on channel=0 note=74 velocity=0 time=2
note_on channel=0 note=79 velocity=0 time=0
control_change channel=0 control=64 value=93 time=13
control_change channel=0 control=67 value=28 time=0
control_change channel=0 control=64 value=92 time=15
control_change channel=0 control=67 value=29 time=0
control_change channel=0 control=64 value=89 time=15
control_change channel=0 control=67 value=29 time=0
note_on channel=0 note=62 velocity=49 time=9
note_on channel=0 note=55 velocity=51 time=4
control_change channel=0 control=64 value=84 time=3
control_change channel=0 control=67 value=30 time=0
note_on channel=0 note=58 velocity=48 time=0
note_on channel=0 note=50 velocity=40 time=13
control_change channel=0 control=64 value=76 time=2
control_change channel=0 control=67 value=30 time=0
control_change channel=0 control=64 value=65 time=15
control_change channel=0 control=67 value=31 time=0
control_change channel=0 control=64 value=0 time=15
control_change channel=0 control=67 value=32 time=0
control_change channel=0 control=64 value=24 time=115
control_change channel=0 control=64 value=36 time=14
control_change channel=0 control=64 value=46 time=15
control_change channel=0 control=64 value=53 time=16
control_change channel=0 control=64 value=59 time=15
control_change channel=0 control=64 value=62 time=15
control_change channel=0 control=64 value=64 time=15
control_change channel=0 control=64 value=66 time=15
note_on channel=0 note=82 velocity=52 time=12
control_change channel=0 control=64 value=68 time=4
note_on channel=0 note=70 velocity=38 time=2
note_on channel=0 note=74 velocity=37 time=3
note_on channel=0 note=79 velocity=44 time=5
control_change channel=0 control=64 value=70 time=5
control_change channel=0 control=67 value=32 time=0
control_change channel=0 control=64 value=73 time=15
control_change channel=0 control=64 value=75 time=16
control_change channel=0 control=67 value=33 time=0
control_change channel=0 control=64 value=76 time=14
control_change channel=0 control=64 value=78 time=16
control_change channel=0 control=64 value=80 time=15
control_change channel=0 control=67 value=34 time=0
control_change channel=0 control=64 value=82 time=14
control_change channel=0 control=67 value=36 time=0
control_change channel=0 control=64 value=85 time=16
control_change channel=0 control=67 value=39 time=0
control_change channel=0 control=64 value=88 time=15
control_change channel=0 control=67 value=42 time=0
control_change channel=0 control=64 value=89 time=15
control_change channel=0 control=67 value=44 time=0
control_change channel=0 control=64 value=92 time=16
control_change channel=0 control=67 value=47 time=0
control_change channel=0 control=64 value=94 time=14
control_change channel=0 control=67 value=50 time=0
control_change channel=0 control=64 value=96 time=16
control_change channel=0 control=67 value=52 time=0
control_change channel=0 control=64 value=99 time=15
control_change channel=0 control=67 value=54 time=0
note_on channel=0 note=82 velocity=0 time=1
note_on channel=0 note=70 velocity=0 time=10
control_change channel=0 control=64 value=101 time=4
control_change channel=0 control=67 value=56 time=0
note_on channel=0 note=79 velocity=0 time=11
note_on channel=0 note=74 velocity=0 time=2
control_change channel=0 control=64 value=104 time=3
control_change channel=0 control=67 value=60 time=0
control_change channel=0 control=64 value=105 time=15
control_change channel=0 control=67 value=63 time=0
control_change channel=0 control=64 value=107 time=14
control_change channel=0 control=67 value=65 time=0
control_change channel=0 control=64 value=109 time=16
control_change channel=0 control=67 value=68 time=0
control_change channel=0 control=64 value=110 time=15
control_change channel=0 control=67 value=71 time=0
control_change channel=0 control=64 value=110 time=16
control_change channel=0 control=67 value=74 time=0
note_on channel=0 note=55 velocity=0 time=7
control_change channel=0 control=67 value=76 time=8
note_on channel=0 note=50 velocity=0 time=5
control_change channel=0 control=67 value=79 time=10
control_change channel=0 control=67 value=82 time=16
control_change channel=0 control=67 value=85 time=14
note_on channel=0 note=62 velocity=0 time=1
control_change channel=0 control=64 value=111 time=14
control_change channel=0 control=67 value=88 time=0
control_change channel=0 control=67 value=91 time=16
control_change channel=0 control=67 value=94 time=15
control_change channel=0 control=67 value=97 time=16
note_on channel=0 note=58 velocity=0 time=0
control_change channel=0 control=67 value=100 time=15
control_change channel=0 control=67 value=103 time=15
control_change channel=0 control=67 value=105 time=16
control_change channel=0 control=67 value=107 time=15
control_change channel=0 control=67 value=110 time=16
control_change channel=0 control=67 value=113 time=14
control_change channel=0 control=67 value=115 time=15
control_change channel=0 control=67 value=118 time=16
control_change channel=0 control=67 value=119 time=15
control_change channel=0 control=67 value=121 time=15
control_change channel=0 control=67 value=122 time=22
control_change channel=0 control=67 value=123 time=15
control_change channel=0 control=67 value=124 time=16
control_change channel=0 control=64 value=110 time=15
control_change channel=0 control=67 value=125 time=0
control_change channel=0 control=67 value=126 time=16
note_on channel=0 note=82 velocity=47 time=3
note_on channel=0 note=70 velocity=31 time=11
control_change channel=0 control=67 value=127 time=1
note_on channel=0 note=74 velocity=29 time=3
note_on channel=0 note=79 velocity=40 time=1
note_on channel=0 note=70 velocity=0 time=189
note_on channel=0 note=74 velocity=0 time=0
note_on channel=0 note=82 velocity=0 time=26
note_on channel=0 note=79 velocity=0 time=7
control_change channel=0 control=64 value=110 time=138
control_change channel=0 control=64 value=109 time=14
control_change channel=0 control=64 value=109 time=16
control_change channel=0 control=64 value=108 time=15
control_change channel=0 control=64 value=108 time=16
control_change channel=0 control=64 value=107 time=15
control_change channel=0 control=64 value=107 time=31
control_change channel=0 control=64 value=106 time=15
control_change channel=0 control=64 value=104 time=15
control_change channel=0 control=64 value=103 time=16
control_change channel=0 control=64 value=101 time=14
control_change channel=0 control=64 value=99 time=16
note_on channel=0 note=62 velocity=41 time=9
control_change channel=0 control=64 value=95 time=6
note_on channel=0 note=53 velocity=41 time=13
control_change channel=0 control=64 value=91 time=2
note_on channel=0 note=50 velocity=38 time=0
note_on channel=0 note=58 velocity=36 time=7
control_change channel=0 control=64 value=86 time=9
note_on channel=0 note=56 velocity=38 time=11
control_change channel=0 control=64 value=79 time=4
control_change channel=0 control=64 value=70 time=16
control_change channel=0 control=64 value=54 time=15
control_change channel=0 control=64 value=0 time=15
control_change channel=0 control=64 value=34 time=235
control_change channel=0 control=64 value=52 time=16
control_change channel=0 control=64 value=60 time=15
control_change channel=0 control=64 value=63 time=15
control_change channel=0 control=64 value=65 time=16
control_change channel=0 control=64 value=66 time=14
control_change channel=0 control=64 value=68 time=15
control_change channel=0 control=64 value=70 time=16
control_change channel=0 control=64 value=73 time=15
note_on channel=0 note=82 velocity=39 time=3
note_on channel=0 note=70 velocity=26 time=3
note_on channel=0 note=77 velocity=32 time=5
note_on channel=0 note=80 velocity=37 time=3
control_change channel=0 control=64 value=74 time=1
control_change channel=0 control=64 value=76 time=15
control_change channel=0 control=64 value=78 time=15
control_change channel=0 control=64 value=80 time=16
control_change channel=0 control=64 value=82 time=15
control_change channel=0 control=64 value=84 time=14
control_change channel=0 control=64 value=85 time=16
control_change channel=0 control=64 value=87 time=15
control_change channel=0 control=64 value=89 time=16
control_change channel=0 control=64 value=92 time=15
note_on channel=0 note=62 velocity=0 time=6
note_on channel=0 note=56 velocity=0 time=6
control_change channel=0 control=64 value=93 time=2
control_change channel=0 control=64 value=95 time=16
note_on channel=0 note=53 velocity=0 time=7
note_on channel=0 note=58 velocity=0 time=0
control_change channel=0 control=64 value=97 time=8
note_on channel=0 note=70 velocity=0 time=10
control_change channel=0 control=64 value=99 time=4
note_on channel=0 note=80 velocity=0 time=7
note_on channel=0 note=77 velocity=0 time=4
control_change channel=0 control=64 value=101 time=5
note_on channel=0 note=82 velocity=0 time=5
control_change channel=0 control=64 value=103 time=10
control_change channel=0 control=64 value=104 time=16
control_change channel=0 control=64 value=105 time=15
control_change channel=0 control=64 value=106 time=15
control_change channel=0 control=64 value=107 time=16
control_change channel=0 control=64 value=108 time=14
control_change channel=0 control=67 value=127 time=0
control_change channel=0 control=64 value=108 time=31
control_change channel=0 control=67 value=126 time=16
note_on channel=0 note=50 velocity=0 time=55
note_on channel=0 note=63 velocity=48 time=37
note_on channel=0 note=51 velocity=53 time=3
note_on channel=0 note=82 velocity=32 time=20
note_on channel=0 note=80 velocity=33 time=2
note_on channel=0 note=63 velocity=0 time=3
control_change channel=0 control=67 value=126 time=25
note_on channel=0 note=51 velocity=0 time=38
note_on channel=0 note=50 velocity=61 time=1
note_on channel=0 note=62 velocity=54 time=24
control_change channel=0 control=64 value=108 time=13
note_on channel=0 note=62 velocity=0 time=40
control_change channel=0 control=64 value=107 time=19
control_change channel=0 control=64 value=106 time=16
control_change channel=0 control=64 value=106 time=15
control_change channel=0 control=64 value=105 time=15
control_change channel=0 control=64 value=105 time=16
note_on channel=0 note=82 velocity=0 time=0
control_change channel=0 control=64 value=104 time=15
control_change channel=0 control=64 value=103 time=16
control_change channel=0 control=64 value=99 time=15
control_change channel=0 control=64 value=90 time=15
note_on channel=0 note=49 velocity=63 time=1
note_on channel=0 note=61 velocity=60 time=2
control_change channel=0 control=64 value=76 time=13
note_on channel=0 note=50 velocity=0 time=3
note_on channel=0 note=80 velocity=0 time=2
control_change channel=0 control=64 value=56 time=9
control_change channel=0 control=64 value=0 time=16
control_change channel=0 control=64 value=41 time=45
control_change channel=0 control=64 value=60 time=15
control_change channel=0 control=64 value=66 time=15
control_change channel=0 control=64 value=72 time=16
control_change channel=0 control=64 value=76 time=15
control_change channel=0 control=64 value=79 time=15
note_on channel=0 note=61 velocity=0 time=8
control_change channel=0 control=64 value=79 time=7
control_change channel=0 control=64 value=76 time=15
control_change channel=0 control=64 value=72 time=16
control_change channel=0 control=64 value=67 time=15
control_change channel=0 control=67 value=125 time=0
note_on channel=0 note=50 velocity=72 time=0
note_on channel=0 note=62 velocity=69 time=5
control_change channel=0 control=64 value=68 time=9
control_change channel=0 control=67 value=125 time=0
note_on channel=0 note=80 velocity=43 time=9
note_on channel=0 note=82 velocity=42 time=0
control_change channel=0 control=64 value=69 time=7
control_change channel=0 control=67 value=124 time=0
note_on channel=0 note=70 velocity=31 time=2
control_change channel=0 control=64 value=70 time=13
control_change channel=0 control=67 value=123 time=0
note_on channel=0 note=49 velocity=0 time=4
note_on channel=0 note=77 velocity=19 time=0
control_change channel=0 control=64 value=72 time=11
control_change channel=0 control=67 value=123 time=0
control_change channel=0 control=64 value=75 time=15
control_change channel=0 control=67 value=122 time=0
control_change channel=0 control=64 value=79 time=15
note_on channel=0 note=50 velocity=0 time=10
control_change channel=0 control=64 value=83 time=6
control_change channel=0 control=67 value=122 time=0
control_change channel=0 control=64 value=86 time=15
control_change channel=0 control=64 value=89 time=14
note_on channel=0 note=62 velocity=0 time=6
control_change channel=0 control=64 value=92 time=10
note_on channel=0 note=77 velocity=0 time=0
control_change channel=0 control=64 value=94 time=15
control_change channel=0 control=64 value=91 time=32
control_change channel=0 control=64 value=83 time=24
control_change channel=0 control=64 value=71 time=15
note_on channel=0 note=65 velocity=75 time=2
note_on channel=0 note=53 velocity=68 time=8
control_change channel=0 control=64 value=63 time=4
control_change channel=0 control=64 value=66 time=16
control_change channel=0 control=64 value=70 time=15
control_change channel=0 control=64 value=74 time=15
control_change channel=0 control=64 value=79 time=15
control_change channel=0 control=64 value=84 time=15
note_on channel=0 note=82 velocity=0 time=0
control_change channel=0 control=64 value=91 time=16
note_on channel=0 note=65 velocity=0 time=11
control_change channel=0 control=64 value=96 time=4
note_on channel=0 note=53 velocity=0 time=15
note_on channel=0 note=70 velocity=0 time=5
control_change channel=0 control=64 value=95 time=10
note_on channel=0 note=80 velocity=0 time=9
control_change channel=0 control=64 value=88 time=6
control_change channel=0 control=64 value=79 time=16
control_change channel=0 control=64 value=72 time=15
control_change channel=0 control=67 value=121 time=0
control_change channel=0 control=64 value=73 time=14
control_change channel=0 control=67 value=121 time=0
note_on channel=0 note=62 velocity=72 time=12
note_on channel=0 note=50 velocity=70 time=3
control_change channel=0 control=64 value=78 time=1
note_on channel=0 note=82 velocity=55 time=2
control_change channel=0 control=64 value=84 time=13
note_on channel=0 note=70 velocity=39 time=8
control_change channel=0 control=64 value=91 time=6
control_change channel=0 control=67 value=120 time=0
note_on channel=0 note=80 velocity=45 time=10
control_change channel=0 control=64 value=98 time=6
note_on channel=0 note=50 velocity=0 time=5
note_on channel=0 note=77 velocity=28 time=4
control_change channel=0 control=64 value=103 time=6
control_change channel=0 control=67 value=120 time=0
control_change channel=0 control=64 value=106 time=16
note_on channel=0 note=62 velocity=0 time=8
control_change channel=0 control=64 value=109 time=7
control_change channel=0 control=64 value=109 time=15
note_on channel=0 note=77 velocity=0 time=0
control_change channel=0 control=64 value=109 time=45
note_on channel=0 note=82 velocity=0 time=30
control_change channel=0 control=64 value=108 time=1
control_change channel=0 control=64 value=104 time=16
control_change channel=0 control=64 value=98 time=15
note_on channel=0 note=80 velocity=0 time=6
control_change channel=0 control=64 value=88 time=9
note_on channel=0 note=62 velocity=54 time=7
control_change channel=0 control=64 value=76 time=8
note_on channel=0 note=58 velocity=54 time=1
note_on channel=0 note=70 velocity=0 time=0
note_on channel=0 note=55 velocity=52 time=4
note_on channel=0 note=50 velocity=55 time=1
control_change channel=0 control=64 value=62 time=9
control_change channel=0 control=64 value=0 time=16
control_change channel=0 control=67 value=119 time=75
control_change channel=0 control=67 value=119 time=30
control_change channel=0 control=64 value=43 time=31
control_change channel=0 control=67 value=118 time=0
control_change channel=0 control=64 value=61 time=15
control_change channel=0 control=64 value=65 time=15
control_change channel=0 control=67 value=118 time=0
note_on channel=0 note=50 velocity=0 time=1
control_change channel=0 control=64 value=67 time=14
control_change channel=0 control=67 value=117 time=0
control_change channel=0 control=64 value=69 time=15
control_change channel=0 control=67 value=114 time=0
control_change channel=0 control=64 value=72 time=16
control_change channel=0 control=67 value=112 time=0
note_on channel=0 note=70 velocity=39 time=0
note_on channel=0 note=82 velocity=46 time=5
note_on channel=0 note=79 velocity=46 time=1
control_change channel=0 control=64 value=75 time=9
control_change channel=0 control=67 value=110 time=0
note_on channel=0 note=76 velocity=37 time=5
control_change channel=0 control=64 value=79 time=16
control_change channel=0 control=67 value=108 time=0
note_on channel=0 note=62 velocity=0 time=2
control_change channel=0 control=64 value=82 time=13
control_change channel=0 control=67 value=106 time=0
control_change channel=0 control=64 value=85 time=16
control_change channel=0 control=67 value=104 time=0
control_change channel=0 control=64 value=87 time=16
control_change channel=0 control=67 value=102 time=0
control_change channel=0 control=64 value=90 time=15
control_change channel=0 control=67 value=100 time=0
control_change channel=0 control=64 value=93 time=16
control_change channel=0 control=67 value=98 time=0
control_change channel=0 control=64 value=95 time=15
control_change channel=0 control=67 value=96 time=0
control_change channel=0 control=64 value=95 time=14
control_change channel=0 control=67 value=93 time=0
control_change channel=0 control=67 value=90 time=16
control_change channel=0 control=67 value=86 time=15
note_on channel=0 note=82 velocity=0 time=10
control_change channel=0 control=67 value=84 time=5
control_change channel=0 control=67 value=82 time=15
note_on channel=0 note=79 velocity=0 time=10
note_on channel=0 note=70 velocity=0 time=2
control_change channel=0 control=64 value=95 time=3
control_change channel=0 control=67 value=81 time=0
note_on channel=0 note=76 velocity=0 time=1
control_change channel=0 control=64 value=93 time=15
control_change channel=0 control=67 value=80 time=0
note_on channel=0 note=61 velocity=53 time=10
note_on channel=0 note=49 velocity=54 time=4
control_change channel=0 control=64 value=90 time=1
control_change channel=0 control=67 value=78 time=0
control_change channel=0 control=64 value=83 time=14
control_change channel=0 control=67 value=77 time=0
control_change channel=0 control=64 value=73 time=16
control_change channel=0 control=67 value=76 time=0
control_change channel=0 control=64 value=62 time=15
control_change channel=0 control=67 value=75 time=0
control_change channel=0 control=64 value=42 time=14
control_change channel=0 control=67 value=74 time=0
control_change channel=0 control=64 value=57 time=16
control_change channel=0 control=67 value=73 time=0
control_change channel=0 control=64 value=61 time=15
control_change channel=0 control=67 value=71 time=0
control_change channel=0 control=64 value=63 time=16
control_change channel=0 control=67 value=69 time=0
control_change channel=0 control=64 value=64 time=15
control_change channel=0 control=67 value=67 time=0
control_change channel=0 control=64 value=66 time=14
control_change channel=0 control=67 value=65 time=0
control_change channel=0 control=64 value=68 time=16
control_change channel=0 control=67 value=63 time=0
control_change channel=0 control=64 value=72 time=15
control_change channel=0 control=67 value=61 time=0
control_change channel=0 control=64 value=75 time=15
control_change channel=0 control=67 value=58 time=0
control_change channel=0 control=64 value=78 time=16
control_change channel=0 control=67 value=56 time=0
note_on channel=0 note=49 velocity=0 time=11
note_on channel=0 note=61 velocity=0 time=1
control_change channel=0 control=64 value=81 time=2
control_change channel=0 control=67 value=55 time=0
control_change channel=0 control=64 value=83 time=16
control_change channel=0 control=67 value=53 time=0
note_on channel=0 note=55 velocity=0 time=0
note_on channel=0 note=58 velocity=0 time=1
note_on channel=0 note=82 velocity=46 time=2
note_on channel=0 note=70 velocity=33 time=4
note_on channel=0 note=79 velocity=41 time=3
control_change channel=0 control=64 value=86 time=5
control_change channel=0 control=67 value=50 time=0
note_on channel=0 note=76 velocity=37 time=2
control_change channel=0 control=64 value=89 time=13
control_change channel=0 control=67 value=48 time=0
control_change channel=0 control=64 value=92 time=16
control_change channel=0 control=67 value=45 time=0
control_change channel=0 control=64 value=96 time=15
control_change channel=0 control=67 value=41 time=0
control_change channel=0 control=64 value=99 time=16
control_change channel=0 control=67 value=36 time=0
control_change channel=0 control=64 value=102 time=15
control_change channel=0 control=67 value=28 time=0
control_change channel=0 control=64 value=104 time=15
control_change channel=0 control=67 value=20 time=0
control_change channel=0 control=64 value=105 time=15
control_change channel=0 control=67 value=13 time=0
control_change channel=0 control=67 value=0 time=15
note_on channel=0 note=70 velocity=0 time=36
note_on channel=0 note=82 velocity=0 time=4
note_on channel=0 note=76 velocity=0 time=11
note_on channel=0 note=79 velocity=0 time=7
control_change channel=0 control=64 value=103 time=19
control_change channel=0 control=64 value=100 time=15
note_on channel=0 note=49 velocity=48 time=9
control_change channel=0 control=64 value=94 time=6
note_on channel=0 note=58 velocity=44 time=1
note_on channel=0 note=55 velocity=48 time=1
note_on channel=0 note=61 velocity=42 time=5
control_change channel=0 control=64 value=86 time=8
control_change channel=0 control=64 value=75 time=13
control_change channel=0 control=64 value=64 time=16
control_change channel=0 control=64 value=60 time=15
control_change channel=0 control=64 value=63 time=22
control_change channel=0 control=64 value=63 time=15
control_change channel=0 control=64 value=64 time=15
control_change channel=0 control=64 value=65 time=16
control_change channel=0 control=64 value=66 time=15
control_change channel=0 control=64 value=68 time=16
control_change channel=0 control=64 value=70 time=16
control_change channel=0 control=64 value=72 time=14
control_change channel=0 control=64 value=73 time=16
control_change channel=0 control=64 value=74 time=15
control_change channel=0 control=64 value=75 time=14
control_change channel=0 control=64 value=77 time=16
control_change channel=0 control=64 value=79 time=15
note_on channel=0 note=82 velocity=53 time=1
note_on channel=0 note=70 velocity=34 time=5
note_on channel=0 note=76 velocity=44 time=0
note_on channel=0 note=79 velocity=48 time=2
control_change channel=0 control=64 value=82 time=8
control_change channel=0 control=64 value=83 time=15
control_change channel=0 control=64 value=84 time=15
control_change channel=0 control=64 value=86 time=16
control_change channel=0 control=64 value=88 time=15
note_on channel=0 note=49 velocity=0 time=14
control_change channel=0 control=64 value=90 time=1
control_change channel=0 control=64 value=91 time=15
control_change channel=0 control=64 value=93 time=15
note_on channel=0 note=61 velocity=0 time=4
control_change channel=0 control=64 value=95 time=12
control_change channel=0 control=64 value=97 time=15
control_change channel=0 control=64 value=99 time=15
note_on channel=0 note=70 velocity=0 time=9
control_change channel=0 control=64 value=102 time=6
control_change channel=0 control=64 value=105 time=15
control_change channel=0 control=64 value=109 time=15
control_change channel=0 control=64 value=113 time=16
note_on channel=0 note=76 velocity=0 time=12
control_change channel=0 control=64 value=117 time=3
control_change channel=0 control=64 value=127 time=15
note_on channel=0 note=79 velocity=0 time=7
note_on channel=0 note=82 velocity=0 time=26
note_on channel=0 note=49 velocity=56 time=190
note_on channel=0 note=55 velocity=0 time=0
note_on channel=0 note=70 velocity=47 time=1
note_on channel=0 note=82 velocity=55 time=6
note_on channel=0 note=61 velocity=45 time=2
note_on channel=0 note=79 velocity=44 time=18
note_on channel=0 note=76 velocity=41 time=2
note_on channel=0 note=58 velocity=0 time=9
note_on channel=0 note=49 velocity=0 time=23
note_on channel=0 note=61 velocity=0 time=0
note_on channel=0 note=76 velocity=0 time=108
note_on channel=0 note=79 velocity=0 time=36
control_change channel=0 control=64 value=126 time=4
note_on channel=0 note=82 velocity=0 time=13
control_change channel=0 control=64 value=111 time=4
control_change channel=0 control=64 value=101 time=15
note_on channel=0 note=49 velocity=54 time=14
note_on channel=0 note=61 velocity=50 time=1
control_change channel=0 control=64 value=88 time=1
note_on channel=0 note=70 velocity=0 time=0
control_change channel=0 control=64 value=73 time=15
control_change channel=0 control=64 value=61 time=14
control_change channel=0 control=64 value=59 time=16
control_change channel=0 control=64 value=64 time=15
control_change channel=0 control=64 value=64 time=14
control_change channel=0 control=64 value=65 time=16
control_change channel=0 control=64 value=66 time=15
control_change channel=0 control=64 value=69 time=16
control_change channel=0 control=64 value=72 time=15
control_change channel=0 control=64 value=74 time=15
control_change channel=0 control=64 value=76 time=15
control_change channel=0 control=64 value=78 time=15
control_change channel=0 control=64 value=81 time=16
control_change channel=0 control=64 value=84 time=15
control_change channel=0 control=64 value=87 time=15
control_change channel=0 control=64 value=89 time=16
control_change channel=0 control=64 value=91 time=15
control_change channel=0 control=64 value=94 time=14
control_change channel=0 control=64 value=97 time=16
control_change channel=0 control=64 value=100 time=15
control_change channel=0 control=64 value=101 time=16
note_on channel=0 note=61 velocity=0 time=6
control_change channel=0 control=64 value=101 time=9
note_on channel=0 note=73 velocity=45 time=13
control_change channel=0 control=64 value=102 time=2
note_on channel=0 note=70 velocity=44 time=0
note_on channel=0 note=82 velocity=61 time=0
note_on channel=0 note=49 velocity=0 time=1
note_on channel=0 note=76 velocity=48 time=2
control_change channel=0 control=64 value=104 time=12
control_change channel=0 control=64 value=107 time=15
control_change channel=0 control=64 value=108 time=15
control_change channel=0 control=64 value=109 time=15
control_change channel=0 control=64 value=108 time=105
control_change channel=0 control=64 value=107 time=47
control_change channel=0 control=64 value=103 time=15
control_change channel=0 control=64 value=97 time=15
note_on channel=0 note=58 velocity=61 time=8
note_on channel=0 note=46 velocity=55 time=13
control_change channel=0 control=64 value=88 time=1
control_change channel=0 control=64 value=76 time=15
control_change channel=0 control=64 value=66 time=16
control_change channel=0 control=64 value=67 time=15
note_on channel=0 note=82 velocity=0 time=8
control_change channel=0 control=64 value=71 time=7
note_on channel=0 note=70 velocity=0 time=10
control_change channel=0 control=64 value=73 time=5
note_on channel=0 note=76 velocity=0 time=3
note_on channel=0 note=73 velocity=0 time=6
control_change channel=0 control=64 value=74 time=6
control_change channel=0 control=64 value=77 time=16
control_change channel=0 control=64 value=81 time=15
control_change channel=0 control=64 value=87 time=15
control_change channel=0 control=64 value=91 time=16
control_change channel=0 control=64 value=93 time=15
control_change channel=0 control=64 value=94 time=16
control_change channel=0 control=64 value=96 time=15
control_change channel=0 control=64 value=100 time=15
control_change channel=0 control=64 value=104 time=15
note_on channel=0 note=82 velocity=74 time=9
note_on channel=0 note=76 velocity=57 time=1
control_change channel=0 control=64 value=107 time=5
note_on channel=0 note=73 velocity=53 time=1
note_on channel=0 note=70 velocity=52 time=2
control_change channel=0 control=64 value=108 time=12
control_change channel=0 control=64 value=109 time=16
note_on channel=0 note=58 velocity=0 time=8
control_change channel=0 control=64 value=110 time=7
control_change channel=0 control=64 value=110 time=31
note_on channel=0 note=46 velocity=0 time=87
control_change channel=0 control=64 value=106 time=19
control_change channel=0 control=64 value=98 time=15
control_change channel=0 control=64 value=86 time=15
note_on channel=0 note=57 velocity=70 time=12
control_change channel=0 control=64 value=73 time=4
note_on channel=0 note=45 velocity=64 time=7
control_change channel=0 control=64 value=67 time=8
control_change channel=0 control=64 value=69 time=14
control_change channel=0 control=64 value=72 time=16
control_change channel=0 control=64 value=73 time=15
control_change channel=0 control=64 value=74 time=16
control_change channel=0 control=64 value=78 time=15
note_on channel=0 note=82 velocity=0 time=4
control_change channel=0 control=64 value=83 time=10
note_on channel=0 note=70 velocity=0 time=3
note_on channel=0 note=73 velocity=0 time=7
control_change channel=0 control=64 value=87 time=6
control_change channel=0 control=64 value=90 time=15
note_on channel=0 note=76 velocity=0 time=1
control_change channel=0 control=64 value=92 time=15
control_change channel=0 control=64 value=95 time=14
control_change channel=0 control=64 value=99 time=15
control_change channel=0 control=64 value=103 time=16
control_change channel=0 control=64 value=107 time=14
control_change channel=0 control=64 value=108 time=15
control_change channel=0 control=64 value=109 time=16
note_on channel=0 note=76 velocity=72 time=7
note_on channel=0 note=82 velocity=82 time=1
note_on channel=0 note=70 velocity=72 time=1
note_on channel=0 note=73 velocity=65 time=1
note_on channel=0 note=45 velocity=0 time=4
control_change channel=0 control=64 value=112 time=1
control_change channel=0 control=64 value=118 time=16
control_change channel=0 control=64 value=127 time=22
note_on channel=0 note=57 velocity=0 time=11
control_change channel=0 control=64 value=118 time=172
control_change channel=0 control=64 value=104 time=15
control_change channel=0 control=64 value=89 time=15
note_on channel=0 note=55 velocity=83 time=7
control_change channel=0 control=64 value=73 time=9
note_on channel=0 note=43 velocity=70 time=0
control_change channel=0 control=64 value=37 time=15
control_change channel=0 control=64 value=0 time=17
control_change channel=0 control=64 value=50 time=15
control_change channel=0 control=64 value=59 time=16
control_change channel=0 control=64 value=63 time=15
control_change channel=0 control=64 value=66 time=15
control_change channel=0 control=64 value=70 time=16
note_on channel=0 note=82 velocity=0 time=8
control_change channel=0 control=64 value=74 time=7
note_on channel=0 note=70 velocity=0 time=1
control_change channel=0 control=64 value=77 time=14
control_change channel=0 control=64 value=79 time=15
note_on channel=0 note=73 velocity=0 time=4
note_on channel=0 note=76 velocity=0 time=0
control_change channel=0 control=64 value=82 time=11
control_change channel=0 control=64 value=86 time=16
note_on channel=0 note=43 velocity=0 time=0
control_change channel=0 control=64 value=91 time=15
control_change channel=0 control=64 value=95 time=15
control_change channel=0 control=64 value=97 time=15
note_on channel=0 note=55 velocity=0 time=10
control_change channel=0 control=64 value=100 time=5
control_change channel=0 control=64 value=104 time=16
control_change channel=0 control=64 value=110 time=14
note_on channel=0 note=76 velocity=71 time=4
note_on channel=0 note=82 velocity=80 time=4
note_on channel=0 note=73 velocity=65 time=1
note_on channel=0 note=70 velocity=70 time=2
control_change channel=0 control=64 value=115 time=4
control_change channel=0 control=64 value=123 time=16
control_change channel=0 control=64 value=127 time=15
control_change channel=0 control=64 value=117 time=182
control_change channel=0 control=64 value=111 time=15
control_change channel=0 control=64 value=105 time=24
control_change channel=0 control=64 value=98 time=15
control_change channel=0 control=64 value=89 time=14
control_change channel=0 control=64 value=77 time=16
note_on channel=0 note=49 velocity=70 time=6
note_on channel=0 note=52 velocity=67 time=1
note_on channel=0 note=54 velocity=75 time=1
note_on channel=0 note=42 velocity=65 time=3
control_change channel=0 control=64 value=58 time=4
control_change channel=0 control=64 value=0 time=14
note_on channel=0 note=70 velocity=0 time=161
note_on channel=0 note=82 velocity=0 time=5
control_change channel=0 control=64 value=21 time=3
control_change channel=0 control=64 value=58 time=14
note_on channel=0 note=73 velocity=0 time=6
control_change channel=0 control=64 value=64 time=10
note_on channel=0 note=76 velocity=0 time=1
control_change channel=0 control=64 value=66 time=15
control_change channel=0 control=64 value=68 time=15
control_change channel=0 control=64 value=71 time=16
control_change channel=0 control=64 value=73 time=14
control_change channel=0 control=64 value=77 time=15
control_change channel=0 control=64 value=79 time=16
control_change channel=0 control=64 value=81 time=15
control_change channel=0 control=64 value=83 time=15
note_on channel=0 note=76 velocity=67 time=11
note_on channel=0 note=82 velocity=80 time=2
control_change channel=0 control=64 value=86 time=3
note_on channel=0 note=73 velocity=60 time=1
note_on channel=0 note=70 velocity=65 time=5
control_change channel=0 control=64 value=88 time=8
note_on channel=0 note=42 velocity=0 time=8
control_change channel=0 control=64 value=90 time=8
control_change channel=0 control=64 value=91 time=15
note_on channel=0 note=54 velocity=0 time=1
control_change channel=0 control=64 value=92 time=14
control_change channel=0 control=64 value=92 time=16
control_change channel=0 control=64 value=94 time=15
control_change channel=0 control=64 value=96 time=15
control_change channel=0 control=64 value=97 time=15
control_change channel=0 control=64 value=97 time=107
control_change channel=0 control=64 value=97 time=45
control_change channel=0 control=64 value=93 time=15
control_change channel=0 control=64 value=86 time=14
control_change channel=0 control=64 value=79 time=16
note_on channel=0 note=58 velocity=75 time=8
control_change channel=0 control=64 value=79 time=7
note_on channel=0 note=76 velocity=0 time=16
control_change channel=0 control=64 value=80 time=8
control_change channel=0 control=64 value=82 time=15
note_on channel=0 note=73 velocity=0 time=3
control_change channel=0 control=64 value=84 time=11
control_change channel=0 control=64 value=87 time=16
note_on channel=0 note=70 velocity=0 time=14
control_change channel=0 control=64 value=90 time=1
control_change channel=0 control=64 value=93 time=16
control_change channel=0 control=64 value=96 time=15
control_change channel=0 control=64 value=97 time=14
control_change channel=0 control=64 value=98 time=16
control_change channel=0 control=64 value=99 time=15
control_change channel=0 control=64 value=101 time=15
control_change channel=0 control=64 value=104 time=15
control_change channel=0 control=64 value=107 time=15
control_change channel=0 control=64 value=109 time=16
note_on channel=0 note=82 velocity=0 time=3
control_change channel=0 control=64 value=112 time=12
control_change channel=0 control=64 value=114 time=14
control_change channel=0 control=64 value=115 time=16
control_change channel=0 control=64 value=119 time=15
control_change channel=0 control=64 value=122 time=16
note_on channel=0 note=85 velocity=81 time=110
note_on channel=0 note=73 velocity=63 time=9
note_on channel=0 note=79 velocity=64 time=0
note_on channel=0 note=76 velocity=55 time=8
note_on channel=0 note=58 velocity=0 time=38
control_change channel=0 control=64 value=121 time=79
control_change channel=0 control=64 value=119 time=46
control_change channel=0 control=64 value=117 time=14
control_change channel=0 control=64 value=115 time=16
control_change channel=0 control=64 value=114 time=15
control_change channel=0 control=64 value=113 time=15
control_change channel=0 control=64 value=112 time=16
control_change channel=0 control=64 value=110 time=14
control_change channel=0 control=64 value=109 time=15
control_change channel=0 control=64 value=107 time=16
control_change channel=0 control=64 value=106 time=15
control_change channel=0 control=64 value=106 time=16
control_change channel=0 control=64 value=105 time=29
control_change channel=0 control=64 value=104 time=24
control_change channel=0 control=64 value=104 time=14
control_change channel=0 control=64 value=103 time=46
control_change channel=0 control=64 value=101 time=31
control_change channel=0 control=64 value=96 time=12
control_change channel=0 control=64 value=87 time=16
note_on channel=0 note=58 velocity=45 time=13
control_change channel=0 control=64 value=78 time=2
control_change channel=0 control=64 value=74 time=16
control_change channel=0 control=64 value=75 time=15
control_change channel=0 control=64 value=75 time=14
note_on channel=0 note=79 velocity=0 time=3
control_change channel=0 control=64 value=76 time=13
control_change channel=0 control=64 value=78 time=15
control_change channel=0 control=64 value=80 time=14
note_on channel=0 note=76 velocity=0 time=9
control_change channel=0 control=64 value=82 time=7
control_change channel=0 control=64 value=84 time=15
control_change channel=0 control=64 value=87 time=16
control_change channel=0 control=64 value=91 time=15
control_change channel=0 control=64 value=94 time=14
control_change channel=0 control=64 value=97 time=16
control_change channel=0 control=64 value=100 time=15
control_change channel=0 control=64 value=104 time=14
note_on channel=0 note=73 velocity=0 time=13
control_change channel=0 control=64 value=108 time=3
control_change channel=0 control=64 value=111 time=17
control_change channel=0 control=64 value=115 time=16
control_change channel=0 control=64 value=127 time=14
note_on channel=0 note=85 velocity=0 time=7
note_on channel=0 note=88 velocity=57 time=761
note_on channel=0 note=76 velocity=36 time=16
note_on channel=0 note=85 velocity=45 time=5
note_on channel=0 note=79 velocity=32 time=2
control_change channel=0 control=67 value=8 time=1757
note_on channel=0 note=58 velocity=0 time=10
control_change channel=0 control=67 value=8 time=5
control_change channel=0 control=67 value=9 time=14
control_change channel=0 control=67 value=9 time=16
control_change channel=0 control=67 value=10 time=15
control_change channel=0 control=67 value=11 time=16
control_change channel=0 control=67 value=13 time=15
control_change channel=0 control=67 value=15 time=23
control_change channel=0 control=67 value=16 time=15
control_change channel=0 control=67 value=18 time=15
control_change channel=0 control=67 value=20 time=15
control_change channel=0 control=67 value=22 time=15
control_change channel=0 control=67 value=24 time=15
control_change channel=0 control=67 value=26 time=16
control_change channel=0 control=67 value=28 time=15
control_change channel=0 control=67 value=31 time=15
control_change channel=0 control=67 value=33 time=15
note_on channel=0 note=76 velocity=0 time=2
control_change channel=0 control=67 value=36 time=13
note_on channel=0 note=49 velocity=0 time=3
control_change channel=0 control=67 value=38 time=13
note_on channel=0 note=88 velocity=0 time=10
control_change channel=0 control=67 value=42 time=4
control_change channel=0 control=67 value=44 time=15
control_change channel=0 control=67 value=46 time=16
control_change channel=0 control=67 value=48 time=15
note_on channel=0 note=52 velocity=0 time=5
control_change channel=0 control=67 value=50 time=11
control_change channel=0 control=67 value=52 time=14
note_on channel=0 note=79 velocity=0 time=0
control_change channel=0 control=67 value=54 time=15
note_on channel=0 note=85 velocity=0 time=8
control_change channel=0 control=67 value=57 time=8
control_change channel=0 control=67 value=58 time=15
control_change channel=0 control=67 value=60 time=15
control_change channel=0 control=67 value=63 time=15
control_change channel=0 control=67 value=65 time=15
control_change channel=0 control=67 value=68 time=16
control_change channel=0 control=67 value=71 time=15
control_change channel=0 control=67 value=73 time=15
control_change channel=0 control=67 value=76 time=16
control_change channel=0 control=67 value=79 time=15
control_change channel=0 control=67 value=82 time=16
control_change channel=0 control=67 value=84 time=14
control_change channel=0 control=67 value=87 time=15
control_change channel=0 control=67 value=91 time=16
control_change channel=0 control=67 value=95 time=15
control_change channel=0 control=67 value=98 time=15
control_change channel=0 control=67 value=102 time=15
control_change channel=0 control=67 value=105 time=15
control_change channel=0 control=67 value=109 time=16
control_change channel=0 control=67 value=113 time=16
control_change channel=0 control=67 value=117 time=15
control_change channel=0 control=64 value=124 time=16
control_change channel=0 control=67 value=120 time=0
control_change channel=0 control=64 value=120 time=14
control_change channel=0 control=67 value=123 time=0
control_change channel=0 control=64 value=117 time=15
control_change channel=0 control=67 value=126 time=0
control_change channel=0 control=64 value=115 time=16
control_change channel=0 control=67 value=127 time=0
control_change channel=0 control=64 value=112 time=15
control_change channel=0 control=64 value=110 time=15
control_change channel=0 control=64 value=108 time=15
control_change channel=0 control=64 value=106 time=15
control_change channel=0 control=64 value=104 time=16
control_change channel=0 control=64 value=103 time=15
control_change channel=0 control=64 value=101 time=23
control_change channel=0 control=64 value=100 time=14
control_change channel=0 control=64 value=99 time=15
control_change channel=0 control=64 value=97 time=16
control_change channel=0 control=64 value=96 time=15
control_change channel=0 control=64 value=95 time=16
control_change channel=0 control=64 value=94 time=15
control_change channel=0 control=64 value=93 time=15
control_change channel=0 control=64 value=92 time=15
control_change channel=0 control=64 value=90 time=15
control_change channel=0 control=64 value=89 time=16
control_change channel=0 control=64 value=88 time=15
control_change channel=0 control=64 value=87 time=15
control_change channel=0 control=64 value=86 time=15
control_change channel=0 control=64 value=84 time=15
control_change channel=0 control=64 value=83 time=15
control_change channel=0 control=64 value=81 time=16
control_change channel=0 control=64 value=80 time=14
control_change channel=0 control=64 value=78 time=16
control_change channel=0 control=64 value=77 time=15
control_change channel=0 control=64 value=76 time=15
control_change channel=0 control=64 value=75 time=16
control_change channel=0 control=64 value=75 time=14
control_change channel=0 control=64 value=74 time=15
control_change channel=0 control=64 value=73 time=16
control_change channel=0 control=64 value=73 time=15
control_change channel=0 control=64 value=72 time=16
control_change channel=0 control=64 value=72 time=14
control_change channel=0 control=64 value=71 time=15
control_change channel=0 control=64 value=70 time=16
control_change channel=0 control=64 value=70 time=15
control_change channel=0 control=64 value=69 time=61
control_change channel=0 control=64 value=69 time=30
control_change channel=0 control=64 value=68 time=31
control_change channel=0 control=64 value=68 time=16
control_change channel=0 control=64 value=67 time=14
note_on channel=0 note=50 velocity=40 time=3
note_on channel=0 note=43 velocity=31 time=18
control_change channel=0 control=64 value=67 time=11
control_change channel=0 control=64 value=65 time=14
control_change channel=0 control=64 value=62 time=15
control_change channel=0 control=64 value=49 time=16
control_change channel=0 control=64 value=0 time=15
control_change channel=0 control=64 value=23 time=327
control_change channel=0 control=64 value=37 time=15
control_change channel=0 control=64 value=45 time=15
control_change channel=0 control=64 value=50 time=16
control_change channel=0 control=64 value=55 time=15
control_change channel=0 control=64 value=59 time=14
note_on channel=0 note=59 velocity=40 time=15
control_change channel=0 control=64 value=62 time=1
control_change channel=0 control=64 value=64 time=15
control_change channel=0 control=64 value=65 time=15
control_change channel=0 control=64 value=66 time=16
control_change channel=0 control=64 value=67 time=14
control_change channel=0 control=64 value=69 time=16
control_change channel=0 control=64 value=70 time=15
control_change channel=0 control=64 value=72 time=14
control_change channel=0 control=64 value=73 time=16
control_change channel=0 control=64 value=74 time=15
control_change channel=0 control=64 value=76 time=15
control_change channel=0 control=64 value=78 time=16
control_change channel=0 control=64 value=79 time=14
control_change channel=0 control=64 value=80 time=16
control_change channel=0 control=64 value=80 time=15
control_change channel=0 control=64 value=81 time=31
note_on channel=0 note=52 velocity=56 time=1
note_on channel=0 note=60 velocity=46 time=5
control_change channel=0 control=64 value=82 time=9
control_change channel=0 control=64 value=83 time=15
note_on channel=0 note=59 velocity=0 time=28
control_change channel=0 control=64 value=81 time=19
control_change channel=0 control=64 value=79 time=16
control_change channel=0 control=64 value=77 time=15
note_on channel=0 note=50 velocity=0 time=41
control_change channel=0 control=64 value=77 time=5
control_change channel=0 control=67 value=126 time=0
control_change channel=0 control=64 value=78 time=22
control_change channel=0 control=67 value=125 time=0
control_change channel=0 control=64 value=79 time=16
control_change channel=0 control=67 value=124 time=0
control_change channel=0 control=64 value=80 time=15
control_change channel=0 control=67 value=122 time=0
control_change channel=0 control=64 value=81 time=15
control_change channel=0 control=67 value=121 time=0
note_on channel=0 note=61 velocity=65 time=13
control_change channel=0 control=64 value=83 time=3
control_change channel=0 control=67 value=119 time=0
control_change channel=0 control=64 value=84 time=14
control_change channel=0 control=67 value=117 time=0
control_change channel=0 control=64 value=85 time=15
control_change channel=0 control=67 value=113 time=0
note_on channel=0 note=60 velocity=0 time=1
note_on channel=0 note=43 velocity=0 time=7
control_change channel=0 control=64 value=87 time=8
control_change channel=0 control=67 value=111 time=0
control_change channel=0 control=64 value=90 time=15
control_change channel=0 control=67 value=109 time=0
control_change channel=0 control=64 value=94 time=16
control_change channel=0 control=67 value=108 time=0
control_change channel=0 control=64 value=97 time=14
control_change channel=0 control=67 value=107 time=0
control_change channel=0 control=64 value=100 time=15
control_change channel=0 control=67 value=106 time=0
control_change channel=0 control=64 value=103 time=16
control_change channel=0 control=67 value=104 time=0
control_change channel=0 control=64 value=105 time=14
control_change channel=0 control=67 value=101 time=0
control_change channel=0 control=64 value=106 time=15
control_change channel=0 control=67 value=98 time=0
control_change channel=0 control=67 value=92 time=16
control_change channel=0 control=67 value=85 time=15
control_change channel=0 control=67 value=80 time=16
control_change channel=0 control=67 value=77 time=14
control_change channel=0 control=64 value=105 time=15
control_change channel=0 control=67 value=74 time=0
note_on channel=0 note=52 velocity=0 time=9
control_change channel=0 control=64 value=101 time=7
control_change channel=0 control=67 value=73 time=0
note_on channel=0 note=53 velocity=66 time=3
note_on channel=0 note=64 velocity=57 time=1
note_on channel=0 note=61 velocity=0 time=5
note_on channel=0 note=43 velocity=40 time=4
control_change channel=0 control=64 value=95 time=2
control_change channel=0 control=67 value=71 time=0
control_change channel=0 control=64 value=86 time=15
control_change channel=0 control=67 value=70 time=0
control_change channel=0 control=64 value=74 time=16
control_change channel=0 control=67 value=69 time=0
control_change channel=0 control=64 value=62 time=15
control_change channel=0 control=67 value=68 time=0
control_change channel=0 control=64 value=61 time=16
control_change channel=0 control=67 value=67 time=0
control_change channel=0 control=64 value=64 time=14
control_change channel=0 control=67 value=66 time=0
control_change channel=0 control=64 value=65 time=15
control_change channel=0 control=67 value=64 time=0
control_change channel=0 control=64 value=66 time=16
control_change channel=0 control=67 value=63 time=0
control_change channel=0 control=64 value=67 time=15
control_change channel=0 control=67 value=61 time=0
control_change channel=0 control=64 value=68 time=16
control_change channel=0 control=67 value=60 time=0
control_change channel=0 control=64 value=70 time=15
control_change channel=0 control=67 value=58 time=0
control_change channel=0 control=64 value=72 time=14
control_change channel=0 control=67 value=56 time=0
control_change channel=0 control=64 value=74 time=16
control_change channel=0 control=67 value=53 time=0
control_change channel=0 control=64 value=76 time=15
control_change channel=0 control=67 value=51 time=0
note_on channel=0 note=64 velocity=0 time=7
control_change channel=0 control=64 value=77 time=7
control_change channel=0 control=67 value=49 time=0
note_on channel=0 note=62 velocity=52 time=9
control_change channel=0 control=64 value=80 time=7
control_change channel=0 control=67 value=47 time=0
control_change channel=0 control=64 value=82 time=15
control_change channel=0 control=67 value=45 time=0
control_change channel=0 control=64 value=84 time=16
control_change channel=0 control=67 value=43 time=0
control_change channel=0 control=64 value=87 time=15
control_change channel=0 control=67 value=40 time=0
control_change channel=0 control=64 value=90 time=14
control_change channel=0 control=67 value=37 time=0
control_change channel=0 control=64 value=92 time=16
control_change channel=0 control=67 value=34 time=0
control_change channel=0 control=64 value=94 time=15
control_change channel=0 control=67 value=30 time=0
control_change channel=0 control=64 value=96 time=15
control_change channel=0 control=67 value=25 time=0
control_change channel=0 control=64 value=97 time=16
control_change channel=0 control=67 value=21 time=0
control_change channel=0 control=64 value=97 time=14
control_change channel=0 control=67 value=17 time=0
control_change channel=0 control=67 value=14 time=16
control_change channel=0 control=64 value=97 time=15
control_change channel=0 control=67 value=11 time=0
control_change channel=0 control=67 value=0 time=15
control_change channel=0 control=64 value=96 time=70
control_change channel=0 control=64 value=94 time=15
control_change channel=0 control=64 value=90 time=16
note_on channel=0 note=62 velocity=0 time=6
control_change channel=0 control=64 value=81 time=8
control_change channel=0 control=64 value=69 time=16
note_on channel=0 note=49 velocity=36 time=7
note_on channel=0 note=53 velocity=0 time=1
control_change channel=0 control=64 value=0 time=7
note_on channel=0 note=58 velocity=39 time=1
control_change channel=0 control=64 value=45 time=105
control_change channel=0 control=64 value=62 time=15
control_change channel=0 control=64 value=66 time=15
control_change channel=0 control=64 value=69 time=16
note_on channel=0 note=43 velocity=0 time=13
control_change channel=0 control=64 value=73 time=1
control_change channel=0 control=64 value=76 time=16
control_change channel=0 control=64 value=80 time=15
note_on channel=0 note=58 velocity=0 time=4
control_change channel=0 control=64 value=83 time=11
control_change channel=0 control=64 value=86 time=16
note_on channel=0 note=49 velocity=0 time=11
control_change channel=0 control=64 value=88 time=4
control_change channel=0 control=64 value=90 time=14
control_change channel=0 control=64 value=92 time=16
control_change channel=0 control=64 value=95 time=15
control_change channel=0 control=64 value=96 time=16
control_change channel=0 control=64 value=97 time=14
control_change channel=0 control=64 value=99 time=15
control_change channel=0 control=64 value=102 time=16
control_change channel=0 control=64 value=106 time=15
control_change channel=0 control=64 value=109 time=15
control_change channel=0 control=64 value=111 time=16
control_change channel=0 control=64 value=112 time=15
control_change channel=0 control=64 value=115 time=16
control_change channel=0 control=64 value=118 time=15
control_change channel=0 control=64 value=121 time=14
note_on channel=0 note=76 velocity=41 time=266
note_on channel=0 note=79 velocity=48 time=4
note_on channel=0 note=79 velocity=0 time=62
control_change channel=0 control=64 value=122 time=88
note_on channel=0 note=76 velocity=0 time=21
note_on channel=0 note=88 velocity=54 time=166
note_on channel=0 note=90 velocity=70 time=246
note_on channel=0 note=74 velocity=41 time=10
note_on channel=0 note=78 velocity=33 time=3
note_on channel=0 note=88 velocity=0 time=8
note_on channel=0 note=74 velocity=0 time=60
note_on channel=0 note=78 velocity=0 time=46
note_on channel=0 note=93 velocity=67 time=100
note_on channel=0 note=90 velocity=0 time=11
control_change channel=0 control=64 value=121 time=126
note_on channel=0 note=91 velocity=63 time=94
note_on channel=0 note=73 velocity=40 time=1
note_on channel=0 note=93 velocity=0 time=17
note_on channel=0 note=76 velocity=34 time=2
note_on channel=0 note=76 velocity=0 time=58
note_on channel=0 note=73 velocity=0 time=61
note_on channel=0 note=88 velocity=50 time=109
note_on channel=0 note=91 velocity=0 time=53
note_on channel=0 note=67 velocity=27 time=227
note_on channel=0 note=70 velocity=40 time=13
note_on channel=0 note=70 velocity=0 time=49
note_on channel=0 note=67 velocity=0 time=39
note_on channel=0 note=88 velocity=0 time=163
note_on channel=0 note=85 velocity=40 time=49
note_on channel=0 note=85 velocity=0 time=76
control_change channel=0 control=64 value=120 time=183
control_change channel=0 control=64 value=119 time=15
control_change channel=0 control=64 value=117 time=15
control_change channel=0 control=64 value=115 time=15
control_change channel=0 control=64 value=113 time=15
control_change channel=0 control=64 value=111 time=16
control_change channel=0 control=64 value=107 time=22
control_change channel=0 control=64 value=105 time=15
control_change channel=0 control=64 value=103 time=16
control_change channel=0 control=64 value=100 time=15
control_change channel=0 control=64 value=96 time=16
note_on channel=0 note=43 velocity=40 time=2
note_on channel=0 note=52 velocity=48 time=2
control_change channel=0 control=64 value=90 time=10
control_change channel=0 control=64 value=83 time=15
control_change channel=0 control=64 value=75 time=16
control_change channel=0 control=64 value=65 time=15
control_change channel=0 control=64 value=63 time=15
control_change channel=0 control=64 value=65 time=15
control_change channel=0 control=64 value=66 time=15
control_change channel=0 control=64 value=67 time=17
control_change channel=0 control=64 value=68 time=15
control_change channel=0 control=64 value=69 time=15
control_change channel=0 control=64 value=71 time=15
control_change channel=0 control=64 value=74 time=15
control_change channel=0 control=64 value=76 time=16
control_change channel=0 control=64 value=78 time=15
control_change channel=0 control=64 value=79 time=15
control_change channel=0 control=64 value=81 time=15
control_change channel=0 control=64 value=84 time=15
note_on channel=0 note=61 velocity=66 time=10
control_change channel=0 control=64 value=86 time=5
control_change channel=0 control=64 value=89 time=16
control_change channel=0 control=64 value=91 time=15
control_change channel=0 control=64 value=92 time=16
control_change channel=0 control=64 value=92 time=14
control_change channel=0 control=64 value=92 time=122
control_change channel=0 control=64 value=89 time=15
note_on channel=0 note=54 velocity=74 time=15
control_change channel=0 control=64 value=85 time=1
note_on channel=0 note=62 velocity=60 time=9
control_change channel=0 control=64 value=77 time=5
note_on channel=0 note=61 velocity=0 time=6
control_change channel=0 control=64 value=68 time=10
control_change channel=0 control=64 value=63 time=15
control_change channel=0 control=64 value=64 time=15
control_change channel=0 control=64 value=65 time=16
control_change channel=0 control=64 value=65 time=14
control_change channel=0 control=64 value=67 time=15
control_change channel=0 control=64 value=69 time=16
control_change channel=0 control=64 value=72 time=15
control_change channel=0 control=64 value=75 time=16
control_change channel=0 control=64 value=77 time=14
control_change channel=0 control=64 value=80 time=15
control_change channel=0 control=64 value=83 time=16
note_on channel=0 note=52 velocity=0 time=0
control_change channel=0 control=64 value=87 time=22
note_on channel=0 note=63 velocity=64 time=11
control_change channel=0 control=64 value=90 time=5
control_change channel=0 control=64 value=92 time=15
control_change channel=0 control=64 value=95 time=15
note_on channel=0 note=43 velocity=0 time=4
control_change channel=0 control=64 value=98 time=12
note_on channel=0 note=62 velocity=0 time=10
control_change channel=0 control=64 value=100 time=4
control_change channel=0 control=64 value=101 time=16
note_on channel=0 note=54 velocity=0 time=2
control_change channel=0 control=64 value=101 time=73
control_change channel=0 control=64 value=100 time=31
control_change channel=0 control=64 value=97 time=15
control_change channel=0 control=64 value=91 time=17
control_change channel=0 control=64 value=83 time=15
note_on channel=0 note=66 velocity=56 time=1
note_on channel=0 note=55 velocity=64 time=10
control_change channel=0 control=64 value=71 time=4
note_on channel=0 note=43 velocity=56 time=2
note_on channel=0 note=63 velocity=0 time=4
control_change channel=0 control=64 value=53 time=9
control_change channel=0 control=64 value=0 time=16
control_change channel=0 control=64 value=19 time=75
control_change channel=0 control=64 value=36 time=15
control_change channel=0 control=64 value=47 time=15
control_change channel=0 control=64 value=58 time=16
control_change channel=0 control=64 value=64 time=14
control_change channel=0 control=64 value=65 time=15
control_change channel=0 control=64 value=66 time=16
control_change channel=0 control=64 value=68 time=15
control_change channel=0 control=64 value=70 time=15
note_on channel=0 note=66 velocity=0 time=9
control_change channel=0 control=64 value=74 time=7
note_on channel=0 note=64 velocity=50 time=2
control_change channel=0 control=64 value=76 time=13
control_change channel=0 control=64 value=78 time=16
control_change channel=0 control=64 value=80 time=15
control_change channel=0 control=64 value=82 time=15
control_change channel=0 control=64 value=84 time=15
control_change channel=0 control=64 value=84 time=15
control_change channel=0 control=64 value=84 time=105
control_change channel=0 control=64 value=82 time=15
control_change channel=0 control=64 value=81 time=16
control_change channel=0 control=64 value=78 time=14
control_change channel=0 control=64 value=73 time=23
control_change channel=0 control=67 value=8 time=0
control_change channel=0 control=64 value=62 time=16
control_change channel=0 control=67 value=9 time=0
control_change channel=0 control=64 value=0 time=14
control_change channel=0 control=67 value=10 time=0
note_on channel=0 note=64 velocity=0 time=0
control_change channel=0 control=67 value=12 time=16
note_on channel=0 note=55 velocity=0 time=11
control_change channel=0 control=67 value=13 time=4
note_on channel=0 note=52 velocity=50 time=5
note_on channel=0 note=59 velocity=38 time=0
control_change channel=0 control=67 value=15 time=9
control_change channel=0 control=64 value=11 time=92
control_change channel=0 control=64 value=55 time=15
control_change channel=0 control=64 value=64 time=15
control_change channel=0 control=67 value=14 time=0
control_change channel=0 control=64 value=67 time=16
control_change channel=0 control=67 value=14 time=0
control_change channel=0 control=64 value=70 time=15
control_change channel=0 control=64 value=73 time=16
control_change channel=0 control=67 value=13 time=0
note_on channel=0 note=59 velocity=0 time=14
control_change channel=0 control=64 value=76 time=1
control_change channel=0 control=67 value=13 time=0
note_on channel=0 note=43 velocity=0 time=0
control_change channel=0 control=64 value=78 time=15
control_change channel=0 control=64 value=80 time=16
control_change channel=0 control=67 value=12 time=0
control_change channel=0 control=64 value=83 time=14
control_change channel=0 control=64 value=86 time=15
control_change channel=0 control=67 value=12 time=0
control_change channel=0 control=64 value=87 time=16
control_change channel=0 control=64 value=88 time=15
control_change channel=0 control=67 value=11 time=0
note_on channel=0 note=52 velocity=0 time=6
control_change channel=0 control=64 value=89 time=10
control_change channel=0 control=67 value=11 time=0
control_change channel=0 control=64 value=90 time=15
control_change channel=0 control=64 value=91 time=15
control_change channel=0 control=64 value=92 time=16
control_change channel=0 control=67 value=10 time=0
control_change channel=0 control=64 value=93 time=15
control_change channel=0 control=67 value=10 time=0
control_change channel=0 control=64 value=94 time=61
control_change channel=0 control=64 value=95 time=14
control_change channel=0 control=64 value=95 time=15
control_change channel=0 control=64 value=96 time=47
control_change channel=0 control=64 value=97 time=14
control_change channel=0 control=64 value=98 time=15
control_change channel=0 control=64 value=98 time=16
control_change channel=0 control=64 value=99 time=45
control_change channel=0 control=64 value=99 time=31
control_change channel=0 control=67 value=9 time=60
control_change channel=0 control=64 value=100 time=39
control_change channel=0 control=67 value=9 time=45
control_change channel=0 control=67 value=8 time=30
note_on channel=0 note=83 velocity=33 time=57
note_on channel=0 note=79 velocity=32 time=3
control_change channel=0 control=64 value=100 time=47
control_change channel=0 control=64 value=101 time=15
control_change channel=0 control=67 value=8 time=0
control_change channel=0 control=64 value=102 time=14
control_change channel=0 control=67 value=0 time=31
note_on channel=0 note=83 velocity=0 time=3
control_change channel=0 control=64 value=102 time=13
control_change channel=0 control=64 value=103 time=15
note_on channel=0 note=79 velocity=0 time=2
control_change channel=0 control=64 value=103 time=29
control_change channel=0 control=64 value=104 time=30
control_change channel=0 control=64 value=104 time=46
note_on channel=0 note=85 velocity=55 time=30
control_change channel=0 control=64 value=105 time=183
control_change channel=0 control=64 value=105 time=15
note_on channel=0 note=87 velocity=63 time=16
control_change channel=0 control=64 value=106 time=1
note_on channel=0 note=78 velocity=43 time=4
control_change channel=0 control=64 value=108 time=10
note_on channel=0 note=81 velocity=36 time=3
note_on channel=0 note=85 velocity=0 time=5
control_change channel=0 control=64 value=110 time=7
control_change channel=0 control=64 value=114 time=16
control_change channel=0 control=64 value=118 time=15
control_change channel=0 control=64 value=124 time=15
control_change channel=0 control=64 value=127 time=15
note_on channel=0 note=81 velocity=0 time=63
note_on channel=0 note=78 velocity=0 time=16
note_on channel=0 note=87 velocity=0 time=54
note_on channel=0 note=90 velocity=71 time=15
note_on channel=0 note=90 velocity=0 time=208
note_on channel=0 note=88 velocity=62 time=31
note_on channel=0 note=76 velocity=39 time=9
note_on channel=0 note=79 velocity=44 time=5
note_on channel=0 note=79 velocity=0 time=45
note_on channel=0 note=76 velocity=0 time=24
note_on channel=0 note=88 velocity=0 time=164
note_on channel=0 note=95 velocity=58 time=1
note_on channel=0 note=76 velocity=42 time=294
note_on channel=0 note=67 velocity=35 time=3
note_on channel=0 note=76 velocity=0 time=38
note_on channel=0 note=67 velocity=0 time=42
note_on channel=0 note=95 velocity=0 time=258
note_on channel=0 note=100 velocity=39 time=1
note_on channel=0 note=100 velocity=0 time=58
control_change channel=0 control=64 value=116 time=442
control_change channel=0 control=64 value=107 time=16
control_change channel=0 control=64 value=98 time=14
control_change channel=0 control=64 value=89 time=15
note_on channel=0 note=52 velocity=51 time=0
note_on channel=0 note=43 velocity=45 time=8
control_change channel=0 control=64 value=80 time=8
control_change channel=0 control=64 value=71 time=15
control_change channel=0 control=64 value=60 time=16
control_change channel=0 control=64 value=0 time=14
control_change channel=0 control=66 value=127 time=136
note_on channel=0 note=58 velocity=39 time=98
note_on channel=0 note=60 velocity=50 time=9
control_change channel=0 control=64 value=44 time=77
control_change channel=0 control=64 value=64 time=15
control_change channel=0 control=64 value=69 time=15
control_change channel=0 control=64 value=71 time=15
control_change channel=0 control=64 value=75 time=15
control_change channel=0 control=64 value=79 time=16
control_change channel=0 control=64 value=84 time=15
control_change channel=0 control=64 value=89 time=16
control_change channel=0 control=64 value=94 time=15
control_change channel=0 control=64 value=98 time=22
control_change channel=0 control=64 value=105 time=16
control_change channel=0 control=64 value=110 time=15
control_change channel=0 control=64 value=117 time=15
note_on channel=0 note=58 velocity=0 time=5
control_change channel=0 control=64 value=127 time=10
note_on channel=0 note=43 velocity=0 time=27
note_on channel=0 note=52 velocity=0 time=22
note_on channel=0 note=64 velocity=53 time=220
note_on channel=0 note=60 velocity=0 time=28
note_on channel=0 note=64 velocity=0 time=10
note_on channel=0 note=62 velocity=62 time=10
note_on channel=0 note=62 velocity=0 time=33
control_change channel=0 control=64 value=120 time=275
control_change channel=0 control=64 value=100 time=15
control_change channel=0 control=64 value=87 time=15
control_change channel=0 control=64 value=72 time=15
control_change channel=0 control=64 value=14 time=15
control_change channel=0 control=64 value=0 time=24
note_on channel=0 note=74 velocity=33 time=18
note_on channel=0 note=70 velocity=37 time=9
control_change channel=0 control=64 value=36 time=246
control_change channel=0 control=64 value=60 time=15
control_change channel=0 control=64 value=64 time=15
control_change channel=0 control=64 value=67 time=16
control_change channel=0 control=64 value=69 time=14
control_change channel=0 control=64 value=72 time=15
note_on channel=0 note=86 velocity=46 time=9
note_on channel=0 note=82 velocity=35 time=6
control_change channel=0 control=64 value=75 time=1
control_change channel=0 control=64 value=78 time=14
control_change channel=0 control=64 value=82 time=16
control_change channel=0 control=64 value=88 time=15
control_change channel=0 control=64 value=91 time=15
control_change channel=0 control=64 value=94 time=16
control_change channel=0 control=64 value=99 time=15
control_change channel=0 control=64 value=107 time=15
control_change channel=0 control=64 value=119 time=16
control_change channel=0 control=64 value=127 time=14
note_on channel=0 note=74 velocity=0 time=103
note_on channel=0 note=70 velocity=0 time=24
note_on channel=0 note=67 velocity=44 time=2
note_on channel=0 note=64 velocity=25 time=7
note_on channel=0 note=67 velocity=0 time=72
note_on channel=0 note=64 velocity=0 time=41
note_on channel=0 note=86 velocity=0 time=77
note_on channel=0 note=82 velocity=0 time=23
note_on channel=0 note=79 velocity=51 time=6
note_on channel=0 note=76 velocity=45 time=10
note_on channel=0 note=79 velocity=0 time=27
control_change channel=0 control=66 value=0 time=12
note_on channel=0 note=76 velocity=0 time=0
note_on channel=0 note=41 velocity=63 time=214
note_on channel=0 note=53 velocity=65 time=4
control_change channel=0 control=64 value=104 time=40
control_change channel=0 control=64 value=83 time=15
control_change channel=0 control=64 value=60 time=16
control_change channel=0 control=64 value=0 time=15
note_on channel=0 note=60 velocity=61 time=155
note_on channel=0 note=58 velocity=46 time=6
control_change channel=0 control=66 value=127 time=6
control_change channel=0 control=64 value=49 time=175
control_change channel=0 control=64 value=65 time=16
note_on channel=0 note=58 velocity=0 time=9
control_change channel=0 control=64 value=74 time=5
control_change channel=0 control=64 value=82 time=16
control_change channel=0 control=64 value=90 time=15
control_change channel=0 control=64 value=95 time=15
control_change channel=0 control=64 value=101 time=16
note_on channel=0 note=41 velocity=0 time=5
note_on channel=0 note=53 velocity=0 time=6
control_change channel=0 control=64 value=108 time=3
control_change channel=0 control=64 value=116 time=16
control_change channel=0 control=64 value=127 time=15
note_on channel=0 note=64 velocity=58 time=187
note_on channel=0 note=60 velocity=0 time=7
note_on channel=0 note=64 velocity=0 time=22
note_on channel=0 note=62 velocity=63 time=10
note_on channel=0 note=62 velocity=0 time=27
control_change channel=0 control=64 value=111 time=264
control_change channel=0 control=64 value=99 time=15
control_change channel=0 control=64 value=88 time=16
control_change channel=0 control=64 value=75 time=15
control_change channel=0 control=64 value=56 time=15
control_change channel=0 control=64 value=0 time=16
note_on channel=0 note=74 velocity=41 time=25
note_on channel=0 note=70 velocity=43 time=4
control_change channel=0 control=64 value=48 time=282
control_change channel=0 control=64 value=62 time=15
control_change channel=0 control=64 value=65 time=15
control_change channel=0 control=64 value=68 time=16
control_change channel=0 control=64 value=70 time=15
note_on channel=0 note=86 velocity=44 time=12
control_change channel=0 control=64 value=73 time=3
note_on channel=0 note=82 velocity=40 time=5
control_change channel=0 control=64 value=76 time=11
control_change channel=0 control=64 value=79 time=15
control_change channel=0 control=64 value=83 time=15
control_change channel=0 control=64 value=87 time=15
control_change channel=0 control=64 value=90 time=15
control_change channel=0 control=64 value=94 time=16
control_change channel=0 control=64 value=98 time=15
control_change channel=0 control=64 value=104 time=14
control_change channel=0 control=64 value=109 time=16
control_change channel=0 control=64 value=113 time=15
control_change channel=0 control=64 value=123 time=15
control_change channel=0 control=64 value=127 time=15
note_on channel=0 note=74 velocity=0 time=20
note_on channel=0 note=65 velocity=44 time=54
note_on channel=0 note=70 velocity=0 time=13
note_on channel=0 note=62 velocity=46 time=11
note_on channel=0 note=65 velocity=0 time=101
note_on channel=0 note=62 velocity=0 time=16
control_change channel=0 control=66 value=0 time=113
note_on channel=0 note=86 velocity=0 time=9
note_on channel=0 note=77 velocity=57 time=10
note_on channel=0 note=74 velocity=50 time=10
note_on channel=0 note=82 velocity=0 time=14
note_on channel=0 note=74 velocity=0 time=34
note_on channel=0 note=77 velocity=0 time=3
control_change channel=0 control=64 value=122 time=315
control_change channel=0 control=64 value=100 time=15
note_on channel=0 note=52 velocity=76 time=9
note_on channel=0 note=40 velocity=71 time=4
control_change channel=0 control=64 value=82 time=2
control_change channel=0 control=64 value=64 time=15
control_change channel=0 control=64 value=0 time=16
control_change channel=0 control=64 value=44 time=60
control_change channel=0 control=64 value=63 time=15
control_change channel=0 control=64 value=68 time=16
control_change channel=0 control=64 value=72 time=15
control_change channel=0 control=64 value=75 time=15
control_change channel=0 control=64 value=79 time=15
control_change channel=0 control=64 value=83 time=15
control_change channel=0 control=64 value=89 time=15
control_change channel=0 control=64 value=94 time=15
control_change channel=0 control=64 value=98 time=24
control_change channel=0 control=64 value=101 time=15
note_on channel=0 note=40 velocity=0 time=5
control_change channel=0 control=64 value=105 time=10
control_change channel=0 control=64 value=110 time=16
control_change channel=0 control=64 value=115 time=15
control_change channel=0 control=64 value=121 time=16
note_on channel=0 note=52 velocity=0 time=9
control_change channel=0 control=64 value=127 time=6
note_on channel=0 note=61 velocity=78 time=50
note_on channel=0 note=55 velocity=49 time=13
note_on channel=0 note=58 velocity=52 time=0
note_on channel=0 note=58 velocity=0 time=25
note_on channel=0 note=55 velocity=0 time=2
note_on channel=0 note=61 velocity=0 time=11
note_on channel=0 note=64 velocity=79 time=235
control_change channel=0 control=64 value=103 time=43
control_change channel=0 control=64 value=101 time=16
control_change channel=0 control=64 value=102 time=60
control_change channel=0 control=64 value=104 time=16
control_change channel=0 control=64 value=105 time=15
control_change channel=0 control=64 value=106 time=16
control_change channel=0 control=64 value=106 time=14
control_change channel=0 control=64 value=107 time=15
control_change channel=0 control=64 value=108 time=16
control_change channel=0 control=64 value=109 time=15
control_change channel=0 control=64 value=109 time=30
control_change channel=0 control=64 value=110 time=15
control_change channel=0 control=64 value=110 time=16
note_on channel=0 note=88 velocity=57 time=162
note_on channel=0 note=76 velocity=43 time=13
note_on channel=0 note=76 velocity=0 time=49
control_change channel=0 control=64 value=107 time=30
control_change channel=0 control=64 value=102 time=14
note_on channel=0 note=66 velocity=64 time=6
note_on channel=0 note=64 velocity=0 time=5
control_change channel=0 control=64 value=98 time=5
control_change channel=0 control=64 value=97 time=15
control_change channel=0 control=64 value=98 time=16
note_on channel=0 note=69 velocity=73 time=18
control_change channel=0 control=64 value=100 time=11
control_change channel=0 control=64 value=103 time=16
note_on channel=0 note=88 velocity=0 time=12
control_change channel=0 control=64 value=104 time=3
control_change channel=0 control=64 value=105 time=16
note_on channel=0 note=69 velocity=0 time=5
control_change channel=0 control=64 value=105 time=9
control_change channel=0 control=64 value=106 time=15
note_on channel=0 note=67 velocity=78 time=4
control_change channel=0 control=64 value=107 time=12
note_on channel=0 note=66 velocity=0 time=12
control_change channel=0 control=64 value=108 time=3
control_change channel=0 control=64 value=108 time=15
control_change channel=0 control=64 value=109 time=15
note_on channel=0 note=67 velocity=0 time=24
control_change channel=0 control=64 value=109 time=7
note_on channel=0 note=90 velocity=74 time=22
control_change channel=0 control=64 value=110 time=23
note_on channel=0 note=93 velocity=82 time=31
note_on channel=0 note=90 velocity=0 time=11
control_change channel=0 control=64 value=110 time=18
note_on channel=0 note=91 velocity=86 time=44
note_on channel=0 note=79 velocity=73 time=10
note_on channel=0 note=93 velocity=0 time=13
note_on channel=0 note=42 velocity=65 time=82
control_change channel=0 control=64 value=110 time=4
control_change channel=0 control=64 value=106 time=15
control_change channel=0 control=64 value=93 time=16
control_change channel=0 control=64 value=76 time=21
note_on channel=0 note=52 velocity=66 time=10
control_change channel=0 control=64 value=35 time=6
note_on channel=0 note=42 velocity=0 time=12
control_change channel=0 control=64 value=0 time=3
control_change channel=0 control=64 value=42 time=15
control_change channel=0 control=64 value=54 time=16
control_change channel=0 control=64 value=62 time=15
control_change channel=0 control=64 value=66 time=15
control_change channel=0 control=64 value=72 time=15
control_change channel=0 control=64 value=76 time=16
control_change channel=0 control=64 value=80 time=16
note_on channel=0 note=58 velocity=59 time=4
control_change channel=0 control=64 value=83 time=10
control_change channel=0 control=64 value=87 time=16
control_change channel=0 control=64 value=92 time=15
control_change channel=0 control=64 value=95 time=15
control_change channel=0 control=64 value=99 time=16
control_change channel=0 control=64 value=101 time=15
control_change channel=0 control=64 value=104 time=14
control_change channel=0 control=64 value=107 time=16
control_change channel=0 control=64 value=110 time=15
control_change channel=0 control=64 value=113 time=16
note_on channel=0 note=52 velocity=0 time=3
control_change channel=0 control=64 value=119 time=12
note_on channel=0 note=58 velocity=0 time=9
control_change channel=0 control=64 value=127 time=6
note_on channel=0 note=79 velocity=0 time=20
note_on channel=0 note=66 velocity=63 time=358
note_on channel=0 note=66 velocity=0 time=30
note_on channel=0 note=91 velocity=0 time=97
note_on channel=0 note=90 velocity=62 time=15
note_on channel=0 note=78 velocity=46 time=16
note_on channel=0 note=47 velocity=44 time=103
control_change channel=0 control=64 value=91 time=23
control_change channel=0 control=64 value=64 time=14
control_change channel=0 control=64 value=0 time=16
control_change channel=0 control=64 value=56 time=76
control_change channel=0 control=64 value=67 time=15
note_on channel=0 note=54 velocity=47 time=10
control_change channel=0 control=64 value=72 time=5
note_on channel=0 note=47 velocity=0 time=14
control_change channel=0 control=64 value=75 time=2
control_change channel=0 control=64 value=77 time=15
control_change channel=0 control=64 value=80 time=15
control_change channel=0 control=64 value=84 time=16
control_change channel=0 control=64 value=87 time=14
control_change channel=0 control=64 value=90 time=16
note_on channel=0 note=54 velocity=0 time=9
control_change channel=0 control=64 value=92 time=6
control_change channel=0 control=64 value=95 time=15
note_on channel=0 note=62 velocity=40 time=15
control_change channel=0 control=64 value=97 time=1
control_change channel=0 control=64 value=99 time=14
control_change channel=0 control=64 value=101 time=15
control_change channel=0 control=64 value=102 time=16
control_change channel=0 control=64 value=103 time=15
control_change channel=0 control=67 value=9 time=0
control_change channel=0 control=64 value=104 time=15
control_change channel=0 control=67 value=11 time=0
control_change channel=0 control=64 value=106 time=15
control_change channel=0 control=67 value=14 time=0
control_change channel=0 control=64 value=108 time=15
control_change channel=0 control=67 value=17 time=0
control_change channel=0 control=64 value=109 time=16
control_change channel=0 control=67 value=22 time=0
control_change channel=0 control=67 value=26 time=15
control_change channel=0 control=67 value=30 time=14
note_on channel=0 note=78 velocity=0 time=2
control_change channel=0 control=64 value=110 time=14
control_change channel=0 control=67 value=33 time=0
control_change channel=0 control=64 value=112 time=15
control_change channel=0 control=67 value=38 time=0
control_change channel=0 control=64 value=115 time=16
control_change channel=0 control=67 value=43 time=0
control_change channel=0 control=64 value=117 time=15
control_change channel=0 control=67 value=46 time=0
control_change channel=0 control=67 value=49 time=14
control_change channel=0 control=67 value=52 time=16
note_on channel=0 note=62 velocity=0 time=0
control_change channel=0 control=67 value=55 time=15
control_change channel=0 control=64 value=118 time=23
control_change channel=0 control=67 value=59 time=0
note_on channel=0 note=66 velocity=45 time=1
control_change channel=0 control=64 value=119 time=14
control_change channel=0 control=67 value=62 time=0
control_change channel=0 control=64 value=121 time=15
control_change channel=0 control=67 value=64 time=0
control_change channel=0 control=67 value=65 time=16
control_change channel=0 control=67 value=68 time=15
control_change channel=0 control=67 value=72 time=15
control_change channel=0 control=64 value=122 time=15
control_change channel=0 control=67 value=76 time=0
note_on channel=0 note=90 velocity=0 time=5
control_change channel=0 control=64 value=123 time=10
control_change channel=0 control=67 value=79 time=0
control_change channel=0 control=64 value=124 time=16
control_change channel=0 control=67 value=82 time=0
control_change channel=0 control=64 value=126 time=14
control_change channel=0 control=67 value=83 time=0
control_change channel=0 control=67 value=85 time=16
control_change channel=0 control=67 value=87 time=15
note_on channel=0 note=66 velocity=0 time=8
control_change channel=0 control=64 value=127 time=7
control_change channel=0 control=67 value=90 time=0
control_change channel=0 control=67 value=93 time=16
control_change channel=0 control=67 value=96 time=14
control_change channel=0 control=67 value=98 time=16
control_change channel=0 control=67 value=101 time=16
control_change channel=0 control=67 value=104 time=15
control_change channel=0 control=67 value=107 time=16
control_change channel=0 control=67 value=109 time=15
control_change channel=0 control=67 value=111 time=14
control_change channel=0 control=67 value=114 time=16
control_change channel=0 control=67 value=117 time=15
control_change channel=0 control=67 value=119 time=15
control_change channel=0 control=67 value=121 time=16
control_change channel=0 control=67 value=122 time=14
control_change channel=0 control=67 value=122 time=16
control_change channel=0 control=67 value=123 time=15
control_change channel=0 control=67 value=124 time=15
control_change channel=0 control=67 value=124 time=16
note_on channel=0 note=91 velocity=54 time=100
note_on channel=0 note=79 velocity=44 time=20
note_on channel=0 note=79 velocity=0 time=39
note_on channel=0 note=91 velocity=0 time=119
note_on channel=0 note=90 velocity=58 time=30
note_on channel=0 note=78 velocity=49 time=21
note_on channel=0 note=90 velocity=0 time=194
note_on channel=0 note=86 velocity=40 time=407
note_on channel=0 note=74 velocity=32 time=17
note_on channel=0 note=78 velocity=0 time=16
note_on channel=0 note=74 velocity=0 time=112
note_on channel=0 note=86 velocity=0 time=5
note_on channel=0 note=83 velocity=48 time=18
note_on channel=0 note=71 velocity=39 time=4
note_on channel=0 note=83 velocity=0 time=307
control_change channel=0 control=67 value=125 time=35
control_change channel=0 control=67 value=126 time=15
control_change channel=0 control=67 value=126 time=30
control_change channel=0 control=67 value=127 time=15
note_on channel=0 note=71 velocity=0 time=113
note_on channel=0 note=79 velocity=46 time=47
note_on channel=0 note=67 velocity=36 time=9
note_on channel=0 note=79 velocity=0 time=119
note_on channel=0 note=66 velocity=48 time=18
note_on channel=0 note=78 velocity=51 time=7
note_on channel=0 note=67 velocity=0 time=40
note_on channel=0 note=66 velocity=0 time=141
note_on channel=0 note=74 velocity=49 time=413
note_on channel=0 note=62 velocity=28 time=20
note_on channel=0 note=78 velocity=0 time=14
note_on channel=0 note=74 velocity=0 time=108
note_on channel=0 note=71 velocity=45 time=21
note_on channel=0 note=59 velocity=35 time=15
note_on channel=0 note=62 velocity=0 time=0
note_on channel=0 note=71 velocity=0 time=285
note_on channel=0 note=67 velocity=43 time=462
note_on channel=0 note=55 velocity=34 time=33
note_on channel=0 note=66 velocity=53 time=326
note_on channel=0 note=59 velocity=0 time=10
note_on channel=0 note=54 velocity=39 time=3
note_on channel=0 note=55 velocity=0 time=72
note_on channel=0 note=54 velocity=0 time=3
note_on channel=0 note=62 velocity=58 time=189
note_on channel=0 note=50 velocity=44 time=12
note_on channel=0 note=67 velocity=0 time=122
note_on channel=0 note=66 velocity=0 time=114
note_on channel=0 note=59 velocity=62 time=9
control_change channel=0 control=64 value=105 time=11
note_on channel=0 note=47 velocity=53 time=4
control_change channel=0 control=64 value=101 time=11
note_on channel=0 note=62 velocity=0 time=1
note_on channel=0 note=50 velocity=0 time=2
control_change channel=0 control=64 value=103 time=42
control_change channel=0 control=64 value=106 time=15
control_change channel=0 control=64 value=109 time=16
control_change channel=0 control=64 value=111 time=14
control_change channel=0 control=64 value=113 time=16
control_change channel=0 control=64 value=114 time=15
control_change channel=0 control=64 value=116 time=14
control_change channel=0 control=64 value=120 time=16
control_change channel=0 control=64 value=124 time=15
control_change channel=0 control=67 value=127 time=15
control_change channel=0 control=64 value=123 time=16
control_change channel=0 control=67 value=126 time=0
note_on channel=0 note=59 velocity=0 time=9
control_change channel=0 control=64 value=112 time=6
control_change channel=0 control=67 value=126 time=0
control_change channel=0 control=64 value=101 time=16
note_on channel=0 note=55 velocity=72 time=12
control_change channel=0 control=64 value=94 time=3
control_change channel=0 control=64 value=93 time=14
control_change channel=0 control=67 value=125 time=0
note_on channel=0 note=43 velocity=54 time=7
control_change channel=0 control=67 value=125 time=9
control_change channel=0 control=67 value=124 time=15
control_change channel=0 control=64 value=94 time=16
control_change channel=0 control=67 value=123 time=0
control_change channel=0 control=64 value=96 time=15
control_change channel=0 control=67 value=122 time=0
control_change channel=0 control=64 value=97 time=15
control_change channel=0 control=67 value=120 time=0
control_change channel=0 control=64 value=98 time=15
control_change channel=0 control=67 value=118 time=0
control_change channel=0 control=64 value=99 time=15
control_change channel=0 control=67 value=116 time=0
control_change channel=0 control=64 value=101 time=15
control_change channel=0 control=67 value=114 time=0
control_change channel=0 control=64 value=103 time=16
control_change channel=0 control=67 value=113 time=0
control_change channel=0 control=64 value=105 time=15
control_change channel=0 control=67 value=111 time=0
control_change channel=0 control=64 value=106 time=15
control_change channel=0 control=67 value=110 time=0
control_change channel=0 control=64 value=105 time=31
control_change channel=0 control=64 value=99 time=16
control_change channel=0 control=64 value=88 time=15
control_change channel=0 control=67 value=109 time=0
control_change channel=0 control=64 value=73 time=16
control_change channel=0 control=64 value=69 time=14
note_on channel=0 note=54 velocity=74 time=0
note_on channel=0 note=47 velocity=0 time=5
control_change channel=0 control=64 value=70 time=10
note_on channel=0 note=42 velocity=60 time=1
control_change channel=0 control=64 value=72 time=15
control_change channel=0 control=67 value=109 time=0
note_on channel=0 note=55 velocity=0 time=11
control_change channel=0 control=64 value=73 time=3
control_change channel=0 control=67 value=108 time=0
control_change channel=0 control=64 value=74 time=15
control_change channel=0 control=67 value=107 time=0
control_change channel=0 control=64 value=78 time=16
control_change channel=0 control=67 value=105 time=0
control_change channel=0 control=64 value=81 time=15
control_change channel=0 control=67 value=102 time=0
control_change channel=0 control=64 value=84 time=16
control_change channel=0 control=67 value=98 time=0
control_change channel=0 control=64 value=88 time=14
control_change channel=0 control=67 value=93 time=0
control_change channel=0 control=64 value=91 time=15
control_change channel=0 control=67 value=90 time=0
control_change channel=0 control=64 value=95 time=24
control_change channel=0 control=67 value=87 time=0
control_change channel=0 control=64 value=98 time=15
control_change channel=0 control=67 value=85 time=0
control_change channel=0 control=64 value=100 time=16
control_change channel=0 control=67 value=81 time=0
control_change channel=0 control=64 value=102 time=14
control_change channel=0 control=67 value=77 time=0
control_change channel=0 control=67 value=72 time=15
control_change channel=0 control=67 value=68 time=16
control_change channel=0 control=67 value=64 time=15
control_change channel=0 control=67 value=59 time=15
control_change channel=0 control=67 value=54 time=15
control_change channel=0 control=67 value=50 time=15
note_on channel=0 note=43 velocity=0 time=14
control_change channel=0 control=67 value=46 time=2
control_change channel=0 control=64 value=99 time=15
control_change channel=0 control=67 value=42 time=0
note_on channel=0 note=42 velocity=0 time=9
control_change channel=0 control=64 value=93 time=5
control_change channel=0 control=67 value=38 time=0
note_on channel=0 note=38 velocity=54 time=0
note_on channel=0 note=50 velocity=70 time=6
control_change channel=0 control=64 value=83 time=10
control_change channel=0 control=67 value=35 time=0
control_change channel=0 control=64 value=67 time=15
control_change channel=0 control=67 value=32 time=0
note_on channel=0 note=54 velocity=0 time=15
control_change channel=0 control=64 value=52 time=1
control_change channel=0 control=67 value=29 time=0
control_change channel=0 control=64 value=61 time=15
control_change channel=0 control=67 value=27 time=0
control_change channel=0 control=64 value=64 time=14
control_change channel=0 control=67 value=24 time=0
control_change channel=0 control=64 value=65 time=16
control_change channel=0 control=67 value=21 time=0
control_change channel=0 control=64 value=67 time=15
control_change channel=0 control=67 value=17 time=0
control_change channel=0 control=64 value=71 time=14
control_change channel=0 control=67 value=14 time=0
control_change channel=0 control=64 value=75 time=16
control_change channel=0 control=67 value=11 time=0
control_change channel=0 control=64 value=79 time=15
control_change channel=0 control=67 value=8 time=0
control_change channel=0 control=64 value=81 time=16
control_change channel=0 control=67 value=0 time=0
control_change channel=0 control=64 value=84 time=15
control_change channel=0 control=64 value=88 time=14
control_change channel=0 control=64 value=92 time=16
note_on channel=0 note=38 velocity=0 time=0
control_change channel=0 control=64 value=97 time=15
control_change channel=0 control=64 value=100 time=15
control_change channel=0 control=64 value=103 time=16
control_change channel=0 control=64 value=106 time=15
control_change channel=0 control=64 value=111 time=16
control_change channel=0 control=64 value=116 time=15
note_on channel=0 note=50 velocity=0 time=5
control_change channel=0 control=64 value=120 time=10
control_change channel=0 control=64 value=121 time=76
control_change channel=0 control=64 value=120 time=31
control_change channel=0 control=64 value=119 time=91
control_change channel=0 control=64 value=116 time=16
control_change channel=0 control=64 value=113 time=15
control_change channel=0 control=64 value=110 time=16
control_change channel=0 control=64 value=106 time=24
control_change channel=0 control=64 value=102 time=16
control_change channel=0 control=64 value=97 time=15
control_change channel=0 control=64 value=92 time=15
control_change channel=0 control=64 value=86 time=15
note_on channel=0 note=34 velocity=39 time=13
control_change channel=0 control=64 value=80 time=2
note_on channel=0 note=46 velocity=37 time=3
control_change channel=0 control=64 value=72 time=13
control_change channel=0 control=64 value=63 time=15
control_change channel=0 control=64 value=0 time=15
control_change channel=0 control=64 value=14 time=243
control_change channel=0 control=64 value=45 time=15
control_change channel=0 control=64 value=56 time=15
control_change channel=0 control=64 value=61 time=16
control_change channel=0 control=64 value=63 time=15
control_change channel=0 control=64 value=65 time=15
control_change channel=0 control=64 value=66 time=15
control_change channel=0 control=64 value=68 time=15
control_change channel=0 control=67 value=9 time=0
control_change channel=0 control=64 value=70 time=15
control_change channel=0 control=67 value=14 time=0
control_change channel=0 control=64 value=71 time=15
control_change channel=0 control=67 value=22 time=0
control_change channel=0 control=64 value=73 time=15
control_change channel=0 control=67 value=27 time=0
control_change channel=0 control=64 value=74 time=16
control_change channel=0 control=67 value=32 time=0
control_change channel=0 control=64 value=76 time=15
control_change channel=0 control=67 value=37 time=0
control_change channel=0 control=64 value=78 time=15
control_change channel=0 control=67 value=40 time=0
control_change channel=0 control=64 value=79 time=15
control_change channel=0 control=67 value=42 time=0
control_change channel=0 control=64 value=81 time=15
control_change channel=0 control=67 value=45 time=0
control_change channel=0 control=64 value=82 time=15
control_change channel=0 control=67 value=48 time=0
control_change channel=0 control=64 value=84 time=16
control_change channel=0 control=67 value=51 time=0
control_change channel=0 control=64 value=86 time=15
control_change channel=0 control=67 value=53 time=0
control_change channel=0 control=64 value=87 time=16
control_change channel=0 control=67 value=54 time=0
control_change channel=0 control=64 value=88 time=15
control_change channel=0 control=67 value=55 time=0
control_change channel=0 control=64 value=89 time=15
control_change channel=0 control=67 value=55 time=0
control_change channel=0 control=64 value=91 time=16
control_change channel=0 control=67 value=56 time=0
control_change channel=0 control=64 value=92 time=15
control_change channel=0 control=64 value=94 time=15
control_change channel=0 control=64 value=96 time=15
control_change channel=0 control=64 value=97 time=22
control_change channel=0 control=64 value=98 time=16
control_change channel=0 control=64 value=99 time=15
control_change channel=0 control=64 value=102 time=16
note_on channel=0 note=61 velocity=36 time=3
control_change channel=0 control=64 value=104 time=11
control_change channel=0 control=64 value=107 time=15
control_change channel=0 control=64 value=108 time=16
control_change channel=0 control=64 value=109 time=15
control_change channel=0 control=64 value=111 time=16
control_change channel=0 control=64 value=114 time=14
control_change channel=0 control=64 value=120 time=15
control_change channel=0 control=64 value=127 time=16
control_change channel=0 control=67 value=55 time=137
control_change channel=0 control=67 value=55 time=45
note_on channel=0 note=64 velocity=44 time=1
control_change channel=0 control=67 value=54 time=15
control_change channel=0 control=67 value=54 time=45
control_change channel=0 control=67 value=53 time=45
control_change channel=0 control=67 value=53 time=46
note_on channel=0 note=66 velocity=54 time=85
control_change channel=0 control=67 value=52 time=6
control_change channel=0 control=67 value=52 time=76
control_change channel=0 control=67 value=51 time=62
control_change channel=0 control=67 value=51 time=38
control_change channel=0 control=67 value=50 time=30
note_on channel=0 note=64 velocity=0 time=1
control_change channel=0 control=67 value=50 time=29
note_on channel=0 note=69 velocity=51 time=6
control_change channel=0 control=67 value=49 time=56
note_on channel=0 note=66 velocity=0 time=2
control_change channel=0 control=67 value=49 time=74
control_change channel=0 control=67 value=49 time=76
note_on channel=0 note=61 velocity=0 time=5
note_on channel=0 note=46 velocity=0 time=2
note_on channel=0 note=34 velocity=0 time=5
control_change channel=0 control=67 value=50 time=3
control_change channel=0 control=67 value=50 time=15
control_change channel=0 control=67 value=51 time=15
note_on channel=0 note=67 velocity=50 time=7
control_change channel=0 control=67 value=52 time=8
control_change channel=0 control=67 value=53 time=31
note_on channel=0 note=69 velocity=0 time=69
control_change channel=0 control=67 value=52 time=36
control_change channel=0 control=67 value=52 time=31
control_change channel=0 control=67 value=51 time=45
note_on channel=0 note=64 velocity=46 time=8
control_change channel=0 control=67 value=51 time=23
control_change channel=0 control=67 value=50 time=16
control_change channel=0 control=67 value=50 time=29
control_change channel=0 control=67 value=49 time=16
control_change channel=0 control=67 value=49 time=29
control_change channel=0 control=67 value=48 time=16
control_change channel=0 control=67 value=48 time=15
control_change channel=0 control=67 value=46 time=16
control_change channel=0 control=67 value=45 time=16
control_change channel=0 control=67 value=44 time=15
note_on channel=0 note=64 velocity=0 time=5
control_change channel=0 control=67 value=44 time=18
control_change channel=0 control=67 value=41 time=15
note_on channel=0 note=61 velocity=44 time=6
control_change channel=0 control=67 value=39 time=10
note_on channel=0 note=67 velocity=0 time=3
control_change channel=0 control=67 value=35 time=12
note_on channel=0 note=61 velocity=0 time=6
control_change channel=0 control=67 value=31 time=9
control_change channel=0 control=67 value=28 time=15
control_change channel=0 control=67 value=25 time=15
control_change channel=0 control=67 value=23 time=16
control_change channel=0 control=67 value=20 time=14
control_change channel=0 control=67 value=18 time=15
control_change channel=0 control=67 value=15 time=16
control_change channel=0 control=67 value=13 time=15
control_change channel=0 control=67 value=12 time=15
control_change channel=0 control=67 value=10 time=15
control_change channel=0 control=67 value=9 time=15
control_change channel=0 control=67 value=8 time=16
control_change channel=0 control=67 value=8 time=15
control_change channel=0 control=67 value=0 time=15
note_on channel=0 note=82 velocity=66 time=19
note_on channel=0 note=79 velocity=48 time=21
note_on channel=0 note=79 velocity=0 time=25
note_on channel=0 note=82 velocity=0 time=4
note_on channel=0 note=88 velocity=62 time=187
note_on channel=0 note=78 velocity=47 time=220
note_on channel=0 note=81 velocity=54 time=0
note_on channel=0 note=90 velocity=66 time=3
note_on channel=0 note=88 velocity=0 time=66
note_on channel=0 note=78 velocity=0 time=6
note_on channel=0 note=81 velocity=0 time=72
note_on channel=0 note=93 velocity=69 time=107
note_on channel=0 note=90 velocity=0 time=24
note_on channel=0 note=79 velocity=58 time=233
note_on channel=0 note=76 velocity=46 time=1
note_on channel=0 note=91 velocity=59 time=2
note_on channel=0 note=79 velocity=0 time=34
note_on channel=0 note=76 velocity=0 time=13
note_on channel=0 note=93 velocity=0 time=152
note_on channel=0 note=61 velocity=63 time=147
note_on channel=0 note=88 velocity=55 time=47
note_on channel=0 note=91 velocity=0 time=7
note_on channel=0 note=88 velocity=0 time=69
note_on channel=0 note=64 velocity=77 time=273
note_on channel=0 note=85 velocity=58 time=18
note_on channel=0 note=76 velocity=43 time=13
note_on channel=0 note=79 velocity=39 time=4
note_on channel=0 note=61 velocity=0 time=47
note_on channel=0 note=76 velocity=0 time=106
note_on channel=0 note=79 velocity=0 time=15
note_on channel=0 note=85 velocity=0 time=61
note_on channel=0 note=82 velocity=50 time=17
note_on channel=0 note=66 velocity=80 time=4
note_on channel=0 note=82 velocity=0 time=25
note_on channel=0 note=66 velocity=0 time=86
note_on channel=0 note=64 velocity=0 time=46
note_on channel=0 note=58 velocity=67 time=33
note_on channel=0 note=62 velocity=62 time=49
note_on channel=0 note=58 velocity=0 time=10
note_on channel=0 note=67 velocity=80 time=55
note_on channel=0 note=62 velocity=0 time=9
note_on channel=0 note=67 velocity=0 time=109
note_on channel=0 note=69 velocity=77 time=62
note_on channel=0 note=67 velocity=74 time=63
note_on channel=0 note=69 velocity=0 time=23
note_on channel=0 note=66 velocity=81 time=53
note_on channel=0 note=67 velocity=0 time=13
control_change channel=0 control=64 value=109 time=61
control_change channel=0 control=64 value=81 time=16
note_on channel=0 note=34 velocity=54 time=2
note_on channel=0 note=66 velocity=0 time=1
note_on channel=0 note=67 velocity=79 time=4
note_on channel=0 note=46 velocity=49 time=2
control_change channel=0 control=64 value=55 time=6
control_change channel=0 control=64 value=0 time=15
control_change channel=0 control=64 value=47 time=68
control_change channel=0 control=64 value=63 time=15
control_change channel=0 control=64 value=66 time=16
control_change channel=0 control=64 value=68 time=14
control_change channel=0 control=64 value=71 time=16
control_change channel=0 control=64 value=75 time=15
control_change channel=0 control=64 value=79 time=15
note_on channel=0 note=34 velocity=0 time=4
control_change channel=0 control=64 value=80 time=12
control_change channel=0 control=64 value=81 time=15
control_change channel=0 control=64 value=83 time=15
note_on channel=0 note=46 velocity=0 time=6
control_change channel=0 control=64 value=86 time=9
control_change channel=0 control=64 value=90 time=16
control_change channel=0 control=64 value=93 time=16
control_change channel=0 control=64 value=95 time=15
control_change channel=0 control=64 value=96 time=14
control_change channel=0 control=64 value=97 time=16
note_on channel=0 note=69 velocity=75 time=3
note_on channel=0 note=67 velocity=0 time=9
control_change channel=0 control=64 value=100 time=3
control_change channel=0 control=64 value=101 time=16
control_change channel=0 control=64 value=102 time=15
control_change channel=0 control=64 value=102 time=45
control_change channel=0 control=64 value=103 time=15
control_change channel=0 control=64 value=103 time=62
note_on channel=0 note=69 velocity=0 time=14
control_change channel=0 control=64 value=104 time=1
control_change channel=0 control=64 value=104 time=15
control_change channel=0 control=64 value=104 time=30
control_change channel=0 control=64 value=102 time=15
control_change channel=0 control=64 value=102 time=15
note_on channel=0 note=72 velocity=66 time=69
control_change channel=0 control=64 value=102 time=212
control_change channel=0 control=64 value=103 time=16
control_change channel=0 control=64 value=103 time=45
control_change channel=0 control=64 value=104 time=15
control_change channel=0 control=64 value=103 time=61
note_on channel=0 note=86 velocity=66 time=35
note_on channel=0 note=70 velocity=54 time=9
note_on channel=0 note=74 velocity=50 time=2
control_change channel=0 control=64 value=104 time=46
control_change channel=0 control=64 value=105 time=15
control_change channel=0 control=64 value=109 time=16
control_change channel=0 control=64 value=114 time=15
control_change channel=0 control=64 value=127 time=14
note_on channel=0 note=74 velocity=0 time=13
note_on channel=0 note=86 velocity=0 time=74
note_on channel=0 note=67 velocity=70 time=85
note_on channel=0 note=91 velocity=90 time=3
note_on channel=0 note=79 velocity=72 time=9
note_on channel=0 note=72 velocity=0 time=39
note_on channel=0 note=70 velocity=0 time=19
note_on channel=0 note=79 velocity=0 time=45
note_on channel=0 note=91 velocity=0 time=57
note_on channel=0 note=62 velocity=75 time=55
note_on channel=0 note=67 velocity=0 time=10
note_on channel=0 note=62 velocity=0 time=17
note_on channel=0 note=93 velocity=93 time=12
note_on channel=0 note=81 velocity=76 time=2
note_on channel=0 note=81 velocity=0 time=66
control_change channel=0 control=64 value=113 time=139
control_change channel=0 control=64 value=76 time=15
note_on channel=0 note=34 velocity=75 time=5
control_change channel=0 control=64 value=0 time=10
note_on channel=0 note=46 velocity=76 time=2
note_on channel=0 note=94 velocity=90 time=0
note_on channel=0 note=82 velocity=81 time=5
note_on channel=0 note=91 velocity=50 time=18
note_on channel=0 note=93 velocity=0 time=0
control_change channel=0 control=64 value=46 time=6
control_change channel=0 control=64 value=63 time=15
control_change channel=0 control=64 value=70 time=17
note_on channel=0 note=82 velocity=0 time=12
control_change channel=0 control=64 value=80 time=3
note_on channel=0 note=91 velocity=0 time=5
control_change channel=0 control=64 value=91 time=9
control_change channel=0 control=64 value=102 time=16
control_change channel=0 control=64 value=109 time=15
note_on channel=0 note=94 velocity=0 time=13
control_change channel=0 control=64 value=112 time=3
note_on channel=0 note=34 velocity=0 time=13
control_change channel=0 control=64 value=114 time=2
control_change channel=0 control=64 value=116 time=14
note_on channel=0 note=46 velocity=0 time=0
control_change channel=0 control=64 value=119 time=16
control_change channel=0 control=64 value=123 time=15
control_change channel=0 control=64 value=127 time=15
note_on channel=0 note=96 velocity=88 time=18
note_on channel=0 note=94 velocity=79 time=72
note_on channel=0 note=96 velocity=0 time=6
note_on channel=0 note=93 velocity=84 time=28
note_on channel=0 note=94 velocity=0 time=13
note_on channel=0 note=94 velocity=76 time=41
note_on channel=0 note=93 velocity=0 time=26
control_change channel=0 control=64 value=120 time=53
note_on channel=0 note=84 velocity=83 time=15
note_on channel=0 note=94 velocity=0 time=3
note_on channel=0 note=75 velocity=64 time=1
note_on channel=0 note=81 velocity=68 time=5
note_on channel=0 note=96 velocity=93 time=2
note_on channel=0 note=87 velocity=87 time=1
control_change channel=0 control=64 value=121 time=18
note_on channel=0 note=84 velocity=0 time=12
control_change channel=0 control=64 value=127 time=3
note_on channel=0 note=81 velocity=0 time=1
note_on channel=0 note=75 velocity=0 time=26
note_on channel=0 note=99 velocity=96 time=272
note_on channel=0 note=96 velocity=0 time=41
note_on channel=0 note=74 velocity=72 time=79
note_on channel=0 note=87 velocity=0 time=14
note_on channel=0 note=99 velocity=0 time=23
note_on channel=0 note=79 velocity=65 time=32
control_change channel=0 control=64 value=108 time=38
note_on channel=0 note=82 velocity=67 time=12
control_change channel=0 control=64 value=89 time=3
note_on channel=0 note=98 velocity=96 time=12
control_change channel=0 control=64 value=81 time=3
note_on channel=0 note=91 velocity=52 time=9
note_on channel=0 note=86 velocity=75 time=2
control_change channel=0 control=64 value=82 time=5
control_change channel=0 control=64 value=84 time=15
note_on channel=0 note=82 velocity=0 time=11
control_change channel=0 control=64 value=88 time=3
note_on channel=0 note=79 velocity=0 time=0
note_on channel=0 note=74 velocity=0 time=4
control_change channel=0 control=64 value=94 time=12
control_change channel=0 control=64 value=102 time=15
control_change channel=0 control=64 value=109 time=16
control_change channel=0 control=64 value=114 time=14
control_change channel=0 control=64 value=116 time=15
control_change channel=0 control=64 value=117 time=16
control_change channel=0 control=64 value=117 time=15
control_change channel=0 control=64 value=122 time=16
control_change channel=0 control=64 value=127 time=14
note_on channel=0 note=94 velocity=86 time=92
note_on channel=0 note=86 velocity=0 time=35
note_on channel=0 note=98 velocity=0 time=4
note_on channel=0 note=91 velocity=0 time=82
note_on channel=0 note=94 velocity=0 time=13
note_on channel=0 note=70 velocity=56 time=13
note_on channel=0 note=74 velocity=67 time=18
note_on channel=0 note=79 velocity=66 time=80
note_on channel=0 note=91 velocity=74 time=0
note_on channel=0 note=82 velocity=65 time=19
note_on channel=0 note=79 velocity=0 time=31
note_on channel=0 note=74 velocity=0 time=51
note_on channel=0 note=70 velocity=0 time=35
note_on channel=0 note=86 velocity=71 time=165
note_on channel=0 note=91 velocity=0 time=55
control_change channel=0 control=64 value=103 time=61
note_on channel=0 note=46 velocity=75 time=0
control_change channel=0 control=64 value=72 time=14
control_change channel=0 control=64 value=0 time=15
control_change channel=0 control=64 value=33 time=38
control_change channel=0 control=64 value=54 time=16
note_on channel=0 note=86 velocity=0 time=13
control_change channel=0 control=64 value=65 time=1
control_change channel=0 control=64 value=72 time=16
note_on channel=0 note=55 velocity=69 time=9
control_change channel=0 control=64 value=78 time=6
note_on channel=0 note=82 velocity=0 time=12
control_change channel=0 control=64 value=84 time=3
control_change channel=0 control=64 value=87 time=16
note_on channel=0 note=46 velocity=0 time=3
control_change channel=0 control=64 value=88 time=12
control_change channel=0 control=64 value=89 time=15
control_change channel=0 control=64 value=92 time=16
control_change channel=0 control=64 value=97 time=14
control_change channel=0 control=64 value=102 time=16
control_change channel=0 control=64 value=104 time=15
control_change channel=0 control=64 value=105 time=15
control_change channel=0 control=64 value=106 time=16
note_on channel=0 note=90 velocity=94 time=6
note_on channel=0 note=55 velocity=0 time=4
control_change channel=0 control=64 value=108 time=4
note_on channel=0 note=62 velocity=55 time=0
note_on channel=0 note=78 velocity=66 time=8
note_on channel=0 note=82 velocity=59 time=5
control_change channel=0 control=64 value=112 time=3
control_change channel=0 control=64 value=117 time=15
control_change channel=0 control=64 value=127 time=15
note_on channel=0 note=78 velocity=0 time=185
note_on channel=0 note=90 velocity=0 time=27
note_on channel=0 note=82 velocity=0 time=109
note_on channel=0 note=91 velocity=98 time=13
note_on channel=0 note=63 velocity=67 time=3
note_on channel=0 note=79 velocity=84 time=9
note_on channel=0 note=62 velocity=0 time=7
note_on channel=0 note=79 velocity=0 time=93
note_on channel=0 note=91 velocity=0 time=65
note_on channel=0 note=63 velocity=0 time=91
note_on channel=0 note=94 velocity=95 time=1
note_on channel=0 note=82 velocity=78 time=11
note_on channel=0 note=87 velocity=66 time=2
note_on channel=0 note=67 velocity=56 time=1
note_on channel=0 note=58 velocity=49 time=16
note_on channel=0 note=87 velocity=0 time=68
note_on channel=0 note=87 velocity=29 time=0
note_on channel=0 note=82 velocity=0 time=33
note_on channel=0 note=94 velocity=0 time=7
note_on channel=0 note=67 velocity=0 time=40
note_on channel=0 note=63 velocity=70 time=31
note_on channel=0 note=63 velocity=0 time=25
note_on channel=0 note=58 velocity=0 time=2
note_on channel=0 note=91 velocity=95 time=24
note_on channel=0 note=79 velocity=80 time=12
note_on channel=0 note=87 velocity=0 time=7
note_on channel=0 note=79 velocity=0 time=60
note_on channel=0 note=89 velocity=45 time=13
note_on channel=0 note=46 velocity=54 time=24
note_on channel=0 note=91 velocity=0 time=10
note_on channel=0 note=89 velocity=0 time=9
note_on channel=0 note=53 velocity=69 time=22
note_on channel=0 note=46 velocity=0 time=4
note_on channel=0 note=79 velocity=57 time=10
note_on channel=0 note=80 velocity=70 time=33
note_on channel=0 note=56 velocity=67 time=4
control_change channel=0 control=64 value=94 time=64
note_on channel=0 note=91 velocity=87 time=7
control_change channel=0 control=64 value=67 time=7
note_on channel=0 note=63 velocity=67 time=14
control_change channel=0 control=64 value=0 time=1
control_change channel=0 control=64 value=27 time=16
note_on channel=0 note=89 velocity=25 time=5
note_on channel=0 note=89 velocity=0 time=1
control_change channel=0 control=64 value=56 time=9
control_change channel=0 control=64 value=64 time=16
control_change channel=0 control=64 value=71 time=14
control_change channel=0 control=64 value=79 time=15
note_on channel=0 note=63 velocity=0 time=5
control_change channel=0 control=64 value=90 time=19
control_change channel=0 control=64 value=95 time=15
note_on channel=0 note=56 velocity=0 time=2
note_on channel=0 note=53 velocity=0 time=4
control_change channel=0 control=64 value=97 time=9
control_change channel=0 control=64 value=98 time=15
control_change channel=0 control=64 value=101 time=15
control_change channel=0 control=64 value=106 time=16
control_change channel=0 control=64 value=112 time=15
control_change channel=0 control=64 value=119 time=15
note_on channel=0 note=79 velocity=0 time=12
control_change channel=0 control=64 value=127 time=3
note_on channel=0 note=91 velocity=0 time=11
note_on channel=0 note=34 velocity=68 time=78
note_on channel=0 note=34 velocity=0 time=33
note_on channel=0 note=89 velocity=93 time=113
note_on channel=0 note=77 velocity=75 time=12
note_on channel=0 note=80 velocity=0 time=6
note_on channel=0 note=77 velocity=0 time=84
note_on channel=0 note=89 velocity=0 time=19
control_change channel=0 control=64 value=119 time=70
note_on channel=0 note=89 velocity=84 time=12
control_change channel=0 control=64 value=95 time=3
note_on channel=0 note=46 velocity=51 time=9
note_on channel=0 note=80 velocity=59 time=5
control_change channel=0 control=64 value=72 time=1
note_on channel=0 note=56 velocity=45 time=0
note_on channel=0 note=77 velocity=60 time=0
note_on channel=0 note=53 velocity=39 time=5
control_change channel=0 control=64 value=0 time=8
control_change channel=0 control=64 value=19 time=31
control_change channel=0 control=64 value=41 time=15
control_change channel=0 control=64 value=54 time=15
control_change channel=0 control=64 value=62 time=14
control_change channel=0 control=64 value=67 time=16
control_change channel=0 control=64 value=71 time=15
control_change channel=0 control=64 value=74 time=15
control_change channel=0 control=64 value=77 time=16
control_change channel=0 control=64 value=79 time=14
note_on channel=0 note=46 velocity=0 time=5
control_change channel=0 control=64 value=82 time=19
control_change channel=0 control=64 value=86 time=15
control_change channel=0 control=64 value=89 time=16
control_change channel=0 control=64 value=91 time=15
control_change channel=0 control=64 value=93 time=14
control_change channel=0 control=64 value=95 time=16
control_change channel=0 control=64 value=98 time=15
control_change channel=0 control=64 value=103 time=14
control_change channel=0 control=64 value=106 time=16
note_on channel=0 note=77 velocity=0 time=14
control_change channel=0 control=64 value=110 time=1
control_change channel=0 control=64 value=113 time=16
control_change channel=0 control=64 value=117 time=15
control_change channel=0 control=64 value=127 time=14
note_on channel=0 note=89 velocity=0 time=68
note_on channel=0 note=53 velocity=0 time=44
note_on channel=0 note=62 velocity=47 time=17
note_on channel=0 note=62 velocity=0 time=88
note_on channel=0 note=56 velocity=0 time=78
note_on channel=0 note=46 velocity=58 time=68
note_on channel=0 note=80 velocity=0 time=21
note_on channel=0 note=53 velocity=68 time=7
note_on channel=0 note=56 velocity=63 time=23
control_change channel=0 control=64 value=88 time=13
control_change channel=0 control=64 value=62 time=15
note_on channel=0 note=46 velocity=0 time=0
control_change channel=0 control=64 value=0 time=16
control_change channel=0 control=64 value=42 time=15
note_on channel=0 note=80 velocity=59 time=1
note_on channel=0 note=88 velocity=90 time=1
note_on channel=0 note=76 velocity=73 time=7
control_change channel=0 control=64 value=58 time=7
control_change channel=0 control=64 value=64 time=14
control_change channel=0 control=64 value=71 time=15
note_on channel=0 note=61 velocity=64 time=0
control_change channel=0 control=64 value=77 time=16
control_change channel=0 control=64 value=83 time=15
control_change channel=0 control=64 value=87 time=14
control_change channel=0 control=64 value=90 time=23
note_on channel=0 note=53 velocity=0 time=6
note_on channel=0 note=56 velocity=0 time=6
control_change channel=0 control=64 value=92 time=3
control_change channel=0 control=64 value=93 time=16
control_change channel=0 control=64 value=93 time=15
control_change channel=0 control=64 value=95 time=16
control_change channel=0 control=64 value=96 time=15
note_on channel=0 note=76 velocity=0 time=12
control_change channel=0 control=64 value=99 time=3
note_on channel=0 note=88 velocity=0 time=4
control_change channel=0 control=64 value=101 time=11
control_change channel=0 control=64 value=105 time=15
control_change channel=0 control=64 value=109 time=15
control_change channel=0 control=64 value=110 time=16
control_change channel=0 control=64 value=109 time=15
control_change channel=0 control=64 value=104 time=15
note_on channel=0 note=89 velocity=95 time=4
control_change channel=0 control=64 value=101 time=11
note_on channel=0 note=62 velocity=72 time=0
note_on channel=0 note=77 velocity=83 time=1
note_on channel=0 note=61 velocity=0 time=1
note_on channel=0 note=80 velocity=0 time=2
control_change channel=0 control=64 value=102 time=42
control_change channel=0 control=64 value=105 time=14
control_change channel=0 control=64 value=110 time=16
control_change channel=0 control=64 value=127 time=15
note_on channel=0 note=77 velocity=0 time=29
note_on channel=0 note=89 velocity=0 time=18
note_on channel=0 note=82 velocity=37 time=23
note_on channel=0 note=82 velocity=0 time=29
note_on channel=0 note=92 velocity=100 time=53
note_on channel=0 note=80 velocity=87 time=5
note_on channel=0 note=65 velocity=71 time=3
note_on channel=0 note=56 velocity=64 time=6
note_on channel=0 note=58 velocity=63 time=2
note_on channel=0 note=62 velocity=0 time=5
note_on channel=0 note=92 velocity=0 time=120
note_on channel=0 note=80 velocity=0 time=14
note_on channel=0 note=62 velocity=75 time=38
note_on channel=0 note=65 velocity=0 time=12
note_on channel=0 note=62 velocity=0 time=33
note_on channel=0 note=58 velocity=0 time=5
note_on channel=0 note=56 velocity=0 time=1
note_on channel=0 note=89 velocity=100 time=8
note_on channel=0 note=77 velocity=87 time=2
note_on channel=0 note=46 velocity=55 time=118
note_on channel=0 note=51 velocity=69 time=37
note_on channel=0 note=55 velocity=68 time=41
note_on channel=0 note=89 velocity=0 time=6
note_on channel=0 note=46 velocity=0 time=15
note_on channel=0 note=77 velocity=0 time=0
control_change channel=0 control=64 value=82 time=54
control_change channel=0 control=64 value=21 time=16
note_on channel=0 note=89 velocity=102 time=7
note_on channel=0 note=85 velocity=84 time=5
control_change channel=0 control=64 value=0 time=3
note_on channel=0 note=82 velocity=81 time=1
note_on channel=0 note=77 velocity=77 time=2
control_change channel=0 control=64 value=26 time=12
note_on channel=0 note=61 velocity=80 time=5
control_change channel=0 control=64 value=54 time=11
control_change channel=0 control=64 value=65 time=15
control_change channel=0 control=64 value=73 time=15
control_change channel=0 control=64 value=82 time=16
control_change channel=0 control=64 value=93 time=14
control_change channel=0 control=64 value=105 time=16
control_change channel=0 control=64 value=118 time=15
note_on channel=0 note=61 velocity=0 time=5
note_on channel=0 note=55 velocity=0 time=7
control_change channel=0 control=64 value=127 time=3
note_on channel=0 note=51 velocity=0 time=33
note_on channel=0 note=77 velocity=0 time=20
note_on channel=0 note=89 velocity=0 time=29
note_on channel=0 note=34 velocity=77 time=85
note_on channel=0 note=34 velocity=0 time=32
note_on channel=0 note=85 velocity=0 time=89
note_on channel=0 note=82 velocity=0 time=26
note_on channel=0 note=87 velocity=95 time=0
note_on channel=0 note=75 velocity=81 time=7
note_on channel=0 note=87 velocity=0 time=112
note_on channel=0 note=75 velocity=0 time=7
note_on channel=0 note=87 velocity=84 time=74
note_on channel=0 note=85 velocity=73 time=5
note_on channel=0 note=58 velocity=53 time=1
control_change channel=0 control=64 value=123 time=5
note_on channel=0 note=67 velocity=58 time=5
note_on channel=0 note=75 velocity=62 time=1
note_on channel=0 note=79 velocity=51 time=0
note_on channel=0 note=82 velocity=58 time=4
control_change channel=0 control=64 value=90 time=5
note_on channel=0 note=63 velocity=52 time=7
control_change channel=0 control=64 value=66 time=8
control_change channel=0 control=64 value=0 time=16
note_on channel=0 note=61 velocity=29 time=22
control_change channel=0 control=64 value=36 time=68
control_change channel=0 control=64 value=61 time=15
control_change channel=0 control=64 value=65 time=16
control_change channel=0 control=64 value=68 time=15
control_change channel=0 control=64 value=70 time=15
control_change channel=0 control=64 value=74 time=16
control_change channel=0 control=64 value=78 time=14
control_change channel=0 control=64 value=82 time=16
control_change channel=0 control=64 value=86 time=15
note_on channel=0 note=58 velocity=0 time=4
control_change channel=0 control=64 value=89 time=11
control_change channel=0 control=64 value=93 time=16
control_change channel=0 control=64 value=97 time=15
control_change channel=0 control=64 value=102 time=15
control_change channel=0 control=64 value=106 time=15
control_change channel=0 control=64 value=108 time=15
control_change channel=0 control=64 value=112 time=16
control_change channel=0 control=64 value=119 time=15
control_change channel=0 control=64 value=127 time=15
note_on channel=0 note=75 velocity=0 time=0
note_on channel=0 note=73 velocity=61 time=184
note_on channel=0 note=61 velocity=0 time=110
note_on channel=0 note=63 velocity=0 time=11
note_on channel=0 note=67 velocity=0 time=34
note_on channel=0 note=73 velocity=0 time=9
note_on channel=0 note=79 velocity=0 time=62
note_on channel=0 note=58 velocity=56 time=100
note_on channel=0 note=82 velocity=0 time=76
note_on channel=0 note=63 velocity=54 time=11
note_on channel=0 note=85 velocity=0 time=45
note_on channel=0 note=68 velocity=59 time=2
note_on channel=0 note=87 velocity=0 time=51
note_on channel=0 note=75 velocity=44 time=49
note_on channel=0 note=71 velocity=69 time=3
control_change channel=0 control=64 value=126 time=22
control_change channel=0 control=64 value=112 time=14
control_change channel=0 control=64 value=98 time=15
note_on channel=0 note=80 velocity=49 time=3
control_change channel=0 control=64 value=81 time=13
control_change channel=0 control=64 value=63 time=15
control_change channel=0 control=64 value=0 time=15
note_on channel=0 note=87 velocity=69 time=25
control_change channel=0 control=64 value=23 time=35
control_change channel=0 control=64 value=60 time=14
control_change channel=0 control=64 value=67 time=16
control_change channel=0 control=64 value=71 time=15
control_change channel=0 control=64 value=74 time=15
control_change channel=0 control=64 value=77 time=16
control_change channel=0 control=64 value=79 time=14
note_on channel=0 note=58 velocity=0 time=1
note_on channel=0 note=63 velocity=0 time=8
note_on channel=0 note=68 velocity=0 time=14
control_change channel=0 control=64 value=82 time=1
control_change channel=0 control=64 value=84 time=15
control_change channel=0 control=64 value=87 time=17
control_change channel=0 control=64 value=89 time=15
control_change channel=0 control=64 value=92 time=15
control_change channel=0 control=64 value=93 time=15
control_change channel=0 control=64 value=94 time=15
control_change channel=0 control=64 value=95 time=15
control_change channel=0 control=64 value=96 time=15
control_change channel=0 control=64 value=98 time=15
control_change channel=0 control=64 value=98 time=16
control_change channel=0 control=64 value=99 time=15
control_change channel=0 control=64 value=99 time=45
control_change channel=0 control=64 value=100 time=16
note_on channel=0 note=75 velocity=0 time=10
control_change channel=0 control=64 value=101 time=5
note_on channel=0 note=72 velocity=70 time=13
note_on channel=0 note=71 velocity=0 time=21
control_change channel=0 control=64 value=102 time=11
control_change channel=0 control=64 value=103 time=15
control_change channel=0 control=64 value=104 time=16
control_change channel=0 control=64 value=105 time=14
control_change channel=0 control=64 value=106 time=16
control_change channel=0 control=64 value=107 time=30
control_change channel=0 control=64 value=108 time=16
control_change channel=0 control=64 value=110 time=15
control_change channel=0 control=64 value=111 time=14
control_change channel=0 control=64 value=111 time=16
control_change channel=0 control=64 value=112 time=15
control_change channel=0 control=64 value=113 time=16
control_change channel=0 control=64 value=114 time=15
control_change channel=0 control=64 value=117 time=15
control_change channel=0 control=64 value=120 time=16
control_change channel=0 control=64 value=123 time=14
control_change channel=0 control=64 value=126 time=15
note_on channel=0 note=75 velocity=77 time=15
control_change channel=0 control=64 value=127 time=1
note_on channel=0 note=72 velocity=0 time=4
note_on channel=0 note=87 velocity=0 time=25
note_on channel=0 note=75 velocity=0 time=218
note_on channel=0 note=72 velocity=71 time=4
note_on channel=0 note=72 velocity=0 time=46
note_on channel=0 note=87 velocity=85 time=3
note_on channel=0 note=75 velocity=57 time=12
note_on channel=0 note=80 velocity=0 time=1
note_on channel=0 note=58 velocity=58 time=97
note_on channel=0 note=63 velocity=61 time=40
note_on channel=0 note=75 velocity=0 time=17
note_on channel=0 note=67 velocity=64 time=13
note_on channel=0 note=87 velocity=0 time=12
note_on channel=0 note=58 velocity=0 time=29
control_change channel=0 control=64 value=97 time=19
control_change channel=0 control=64 value=73 time=16
note_on channel=0 note=72 velocity=72 time=10
note_on channel=0 note=86 velocity=71 time=4
control_change channel=0 control=64 value=0 time=1
note_on channel=0 note=74 velocity=61 time=10
control_change channel=0 control=64 value=45 time=21
control_change channel=0 control=64 value=59 time=14
control_change channel=0 control=64 value=64 time=16
control_change channel=0 control=64 value=68 time=15
control_change channel=0 control=64 value=72 time=15
control_change channel=0 control=64 value=77 time=16
control_change channel=0 control=64 value=81 time=14
control_change channel=0 control=64 value=84 time=16
control_change channel=0 control=64 value=87 time=15
control_change channel=0 control=64 value=89 time=14
control_change channel=0 control=64 value=92 time=16
note_on channel=0 note=74 velocity=0 time=8
control_change channel=0 control=64 value=95 time=7
control_change channel=0 control=64 value=97 time=15
control_change channel=0 control=64 value=98 time=16
control_change channel=0 control=64 value=100 time=14
control_change channel=0 control=64 value=104 time=16
control_change channel=0 control=64 value=108 time=15
control_change channel=0 control=64 value=112 time=15
note_on channel=0 note=72 velocity=0 time=0
control_change channel=0 control=64 value=116 time=16
control_change channel=0 control=64 value=119 time=15
control_change channel=0 control=64 value=127 time=16
note_on channel=0 note=87 velocity=83 time=29
note_on channel=0 note=75 velocity=65 time=6
note_on channel=0 note=86 velocity=0 time=1
note_on channel=0 note=75 velocity=0 time=98
note_on channel=0 note=70 velocity=82 time=15
note_on channel=0 note=63 velocity=0 time=52
note_on channel=0 note=67 velocity=0 time=6
note_on channel=0 note=70 velocity=0 time=10
note_on channel=0 note=87 velocity=0 time=12
control_change channel=0 control=64 value=113 time=39
control_change channel=0 control=64 value=88 time=15
control_change channel=0 control=64 value=79 time=15
note_on channel=0 note=91 velocity=88 time=0
note_on channel=0 note=79 velocity=69 time=11
control_change channel=0 control=64 value=79 time=5
note_on channel=0 note=70 velocity=61 time=7
control_change channel=0 control=64 value=83 time=8
note_on channel=0 note=63 velocity=50 time=2
note_on channel=0 note=67 velocity=52 time=5
control_change channel=0 control=64 value=89 time=8
note_on channel=0 note=58 velocity=49 time=9
control_change channel=0 control=64 value=97 time=7
note_on channel=0 note=70 velocity=0 time=2
control_change channel=0 control=64 value=107 time=13
note_on channel=0 note=67 velocity=0 time=2
note_on channel=0 note=79 velocity=0 time=5
control_change channel=0 control=64 value=123 time=7
control_change channel=0 control=64 value=127 time=16
note_on channel=0 note=63 velocity=0 time=12
note_on channel=0 note=58 velocity=0 time=19
note_on channel=0 note=91 velocity=0 time=34
note_on channel=0 note=34 velocity=74 time=115
note_on channel=0 note=87 velocity=91 time=3
note_on channel=0 note=75 velocity=75 time=10
note_on channel=0 note=34 velocity=0 time=27
note_on channel=0 note=87 velocity=0 time=89
note_on channel=0 note=75 velocity=0 time=77
control_change channel=0 control=64 value=118 time=93
note_on channel=0 note=87 velocity=88 time=1
note_on channel=0 note=82 velocity=72 time=9
control_change channel=0 control=64 value=86 time=4
note_on channel=0 note=67 velocity=58 time=0
note_on channel=0 note=58 velocity=55 time=2
note_on channel=0 note=75 velocity=72 time=3
control_change channel=0 control=64 value=65 time=11
note_on channel=0 note=80 velocity=51 time=0
control_change channel=0 control=64 value=0 time=15
control_change channel=0 control=64 value=35 time=31
control_change channel=0 control=64 value=61 time=14
control_change channel=0 control=64 value=66 time=15
control_change channel=0 control=64 value=71 time=16
control_change channel=0 control=64 value=76 time=16
control_change channel=0 control=64 value=82 time=16
control_change channel=0 control=64 value=87 time=15
control_change channel=0 control=64 value=89 time=14
control_change channel=0 control=64 value=93 time=16
control_change channel=0 control=64 value=97 time=15
control_change channel=0 control=64 value=102 time=16
control_change channel=0 control=64 value=108 time=14
control_change channel=0 control=64 value=117 time=15
control_change channel=0 control=64 value=127 time=16
note_on channel=0 note=87 velocity=0 time=9
note_on channel=0 note=68 velocity=80 time=29
note_on channel=0 note=58 velocity=0 time=30
note_on channel=0 note=75 velocity=0 time=15
note_on channel=0 note=67 velocity=0 time=8
note_on channel=0 note=68 velocity=0 time=42
note_on channel=0 note=86 velocity=87 time=25
note_on channel=0 note=74 velocity=70 time=10
note_on channel=0 note=80 velocity=0 time=0
note_on channel=0 note=82 velocity=0 time=2
note_on channel=0 note=74 velocity=0 time=40
note_on channel=0 note=86 velocity=0 time=21
control_change channel=0 control=64 value=95 time=73
note_on channel=0 note=86 velocity=83 time=5
note_on channel=0 note=58 velocity=58 time=8
control_change channel=0 control=64 value=74 time=2
note_on channel=0 note=74 velocity=65 time=2
note_on channel=0 note=82 velocity=59 time=1
note_on channel=0 note=72 velocity=65 time=2
note_on channel=0 note=80 velocity=43 time=3
control_change channel=0 control=64 value=60 time=7
control_change channel=0 control=64 value=64 time=15
control_change channel=0 control=64 value=68 time=15
control_change channel=0 control=64 value=71 time=15
control_change channel=0 control=64 value=74 time=16
control_change channel=0 control=64 value=79 time=15
control_change channel=0 control=64 value=84 time=15
control_change channel=0 control=64 value=89 time=23
control_change channel=0 control=64 value=92 time=15
control_change channel=0 control=64 value=93 time=16
control_change channel=0 control=64 value=95 time=14
control_change channel=0 control=64 value=99 time=15
control_change channel=0 control=64 value=105 time=16
control_change channel=0 control=64 value=110 time=15
note_on channel=0 note=72 velocity=0 time=11
control_change channel=0 control=64 value=114 time=5
control_change channel=0 control=64 value=127 time=14
note_on channel=0 note=68 velocity=65 time=23
note_on channel=0 note=74 velocity=0 time=20
note_on channel=0 note=58 velocity=0 time=48
note_on channel=0 note=86 velocity=0 time=58
note_on channel=0 note=68 velocity=0 time=11
note_on channel=0 note=82 velocity=0 time=70
note_on channel=0 note=80 velocity=0 time=17
note_on channel=0 note=67 velocity=60 time=71
note_on channel=0 note=85 velocity=80 time=0
control_change channel=0 control=64 value=104 time=2
control_change channel=0 control=64 value=85 time=15
note_on channel=0 note=56 velocity=49 time=1
note_on channel=0 note=73 velocity=54 time=1
note_on channel=0 note=82 velocity=62 time=5
control_change channel=0 control=64 value=68 time=9
note_on channel=0 note=58 velocity=43 time=4
note_on channel=0 note=80 velocity=39 time=2
control_change channel=0 control=64 value=42 time=9
control_change channel=0 control=64 value=54 time=15
control_change channel=0 control=64 value=61 time=16
control_change channel=0 control=64 value=63 time=15
control_change channel=0 control=64 value=65 time=16
control_change channel=0 control=64 value=68 time=14
control_change channel=0 control=64 value=71 time=15
control_change channel=0 control=64 value=75 time=16
control_change channel=0 control=64 value=78 time=15
control_change channel=0 control=64 value=81 time=15
control_change channel=0 control=64 value=83 time=16
control_change channel=0 control=64 value=86 time=15
control_change channel=0 control=64 value=90 time=16
note_on channel=0 note=85 velocity=0 time=13
control_change channel=0 control=64 value=94 time=1
note_on channel=0 note=73 velocity=0 time=7
control_change channel=0 control=64 value=97 time=8
control_change channel=0 control=64 value=99 time=16
control_change channel=0 control=64 value=100 time=15
control_change channel=0 control=64 value=102 time=16
control_change channel=0 control=64 value=104 time=21
control_change channel=0 control=64 value=108 time=15
control_change channel=0 control=64 value=113 time=16
note_on channel=0 note=86 velocity=84 time=3
note_on channel=0 note=74 velocity=77 time=10
control_change channel=0 control=64 value=117 time=2
note_on channel=0 note=80 velocity=0 time=0
note_on channel=0 note=82 velocity=0 time=0
control_change channel=0 control=64 value=124 time=16
control_change channel=0 control=64 value=127 time=15
note_on channel=0 note=67 velocity=0 time=64
note_on channel=0 note=65 velocity=76 time=13
note_on channel=0 note=74 velocity=0 time=20
note_on channel=0 note=56 velocity=0 time=10
note_on channel=0 note=58 velocity=0 time=2
note_on channel=0 note=86 velocity=0 time=31
note_on channel=0 note=65 velocity=0 time=4
control_change channel=0 control=64 value=103 time=54
control_change channel=0 control=64 value=98 time=15
note_on channel=0 note=89 velocity=92 time=25
note_on channel=0 note=58 velocity=52 time=10
note_on channel=0 note=65 velocity=62 time=4
note_on channel=0 note=77 velocity=64 time=0
control_change channel=0 control=64 value=100 time=7
note_on channel=0 note=56 velocity=46 time=4
note_on channel=0 note=80 velocity=43 time=4
control_change channel=0 control=64 value=105 time=7
note_on channel=0 note=65 velocity=0 time=5
control_change channel=0 control=64 value=114 time=10
control_change channel=0 control=64 value=127 time=16
note_on channel=0 note=80 velocity=0 time=13
note_on channel=0 note=80 velocity=17 time=0
note_on channel=0 note=56 velocity=0 time=28
note_on channel=0 note=58 velocity=0 time=2
note_on channel=0 note=89 velocity=0 time=61
note_on channel=0 note=77 velocity=0 time=24
note_on channel=0 note=86 velocity=84 time=155
note_on channel=0 note=46 velocity=47 time=8
note_on channel=0 note=74 velocity=79 time=2
note_on channel=0 note=34 velocity=51 time=4
note_on channel=0 note=80 velocity=0 time=9
note_on channel=0 note=34 velocity=0 time=87
note_on channel=0 note=46 velocity=0 time=48
note_on channel=0 note=74 velocity=0 time=14
note_on channel=0 note=86 velocity=0 time=62
note_on channel=0 note=85 velocity=78 time=171
note_on channel=0 note=82 velocity=61 time=10
note_on channel=0 note=63 velocity=54 time=3
note_on channel=0 note=73 velocity=61 time=1
note_on channel=0 note=51 velocity=52 time=3
control_change channel=0 control=64 value=96 time=1
note_on channel=0 note=79 velocity=49 time=0
control_change channel=0 control=64 value=70 time=16
control_change channel=0 control=64 value=0 time=15
control_change channel=0 control=64 value=29 time=31
control_change channel=0 control=64 value=54 time=15
control_change channel=0 control=64 value=63 time=16
note_on channel=0 note=79 velocity=0 time=2
control_change channel=0 control=64 value=68 time=12
control_change channel=0 control=64 value=73 time=15
control_change channel=0 control=64 value=77 time=16
control_change channel=0 control=64 value=82 time=15
control_change channel=0 control=64 value=85 time=15
control_change channel=0 control=64 value=87 time=15
control_change channel=0 control=64 value=90 time=15
control_change channel=0 control=64 value=95 time=16
control_change channel=0 control=64 value=98 time=15
note_on channel=0 note=63 velocity=0 time=1
control_change channel=0 control=64 value=101 time=14
control_change channel=0 control=64 value=103 time=15
control_change channel=0 control=64 value=106 time=15
note_on channel=0 note=85 velocity=0 time=2
control_change channel=0 control=64 value=108 time=13
control_change channel=0 control=64 value=113 time=16
control_change channel=0 control=64 value=119 time=13
control_change channel=0 control=64 value=127 time=16
note_on channel=0 note=82 velocity=0 time=12
note_on channel=0 note=64 velocity=48 time=55
note_on channel=0 note=52 velocity=51 time=16
note_on channel=0 note=51 velocity=0 time=79
note_on channel=0 note=52 velocity=0 time=5
note_on channel=0 note=64 velocity=0 time=85
note_on channel=0 note=73 velocity=0 time=6
control_change channel=0 control=64 value=112 time=84
note_on channel=0 note=82 velocity=83 time=12
note_on channel=0 note=70 velocity=65 time=12
note_on channel=0 note=76 velocity=63 time=1
note_on channel=0 note=67 velocity=66 time=3
note_on channel=0 note=73 velocity=57 time=7
control_change channel=0 control=64 value=112 time=11
note_on channel=0 note=55 velocity=52 time=0
control_change channel=0 control=64 value=116 time=15
control_change channel=0 control=64 value=127 time=15
note_on channel=0 note=67 velocity=0 time=55
note_on channel=0 note=55 velocity=0 time=22
note_on channel=0 note=73 velocity=0 time=55
note_on channel=0 note=76 velocity=0 time=16
note_on channel=0 note=64 velocity=72 time=79
note_on channel=0 note=52 velocity=63 time=12
note_on channel=0 note=82 velocity=0 time=62
note_on channel=0 note=64 velocity=0 time=2
note_on channel=0 note=52 velocity=0 time=27
note_on channel=0 note=70 velocity=0 time=18
control_change channel=0 control=64 value=101 time=117
note_on channel=0 note=81 velocity=88 time=10
note_on channel=0 note=60 velocity=69 time=1
note_on channel=0 note=69 velocity=80 time=0
note_on channel=0 note=79 velocity=71 time=2
control_change channel=0 control=64 value=76 time=2
note_on channel=0 note=48 velocity=63 time=4
control_change channel=0 control=64 value=56 time=10
note_on channel=0 note=76 velocity=42 time=5
control_change channel=0 control=64 value=59 time=11
control_change channel=0 control=64 value=65 time=15
control_change channel=0 control=64 value=70 time=15
control_change channel=0 control=64 value=74 time=15
control_change channel=0 control=64 value=80 time=15
control_change channel=0 control=64 value=87 time=16
note_on channel=0 note=60 velocity=0 time=3
control_change channel=0 control=64 value=93 time=12
control_change channel=0 control=64 value=96 time=14
control_change channel=0 control=64 value=99 time=16
control_change channel=0 control=64 value=103 time=15
control_change channel=0 control=64 value=109 time=16
control_change channel=0 control=64 value=115 time=15
control_change channel=0 control=64 value=127 time=14
note_on channel=0 note=76 velocity=0 time=6
note_on channel=0 note=81 velocity=0 time=29
note_on channel=0 note=79 velocity=0 time=5
note_on channel=0 note=61 velocity=81 time=5
note_on channel=0 note=49 velocity=73 time=1
note_on channel=0 note=48 velocity=0 time=45
note_on channel=0 note=69 velocity=0 time=89
note_on channel=0 note=49 velocity=0 time=7
note_on channel=0 note=61 velocity=0 time=1
control_change channel=0 control=64 value=117 time=73
control_change channel=0 control=64 value=98 time=15
note_on channel=0 note=70 velocity=60 time=3
note_on channel=0 note=79 velocity=95 time=0
note_on channel=0 note=73 velocity=81 time=1
note_on channel=0 note=67 velocity=82 time=1
note_on channel=0 note=64 velocity=78 time=1
note_on channel=0 note=52 velocity=69 time=3
control_change channel=0 control=64 value=97 time=6
control_change channel=0 control=64 value=98 time=15
control_change channel=0 control=64 value=105 time=15
control_change channel=0 control=64 value=118 time=16
control_change channel=0 control=64 value=127 time=15
note_on channel=0 note=64 velocity=0 time=8
note_on channel=0 note=52 velocity=0 time=14
note_on channel=0 note=67 velocity=0 time=14
note_on channel=0 note=70 velocity=0 time=38
note_on channel=0 note=73 velocity=0 time=30
note_on channel=0 note=79 velocity=0 time=35
note_on channel=0 note=61 velocity=89 time=37
note_on channel=0 note=49 velocity=74 time=6
note_on channel=0 note=61 velocity=0 time=101
note_on channel=0 note=49 velocity=0 time=21
control_change channel=0 control=64 value=108 time=116
note_on channel=0 note=57 velocity=73 time=10
note_on channel=0 note=88 velocity=99 time=2
control_change channel=0 control=64 value=76 time=3
note_on channel=0 note=45 velocity=73 time=0
note_on channel=0 note=76 velocity=89 time=0
note_on channel=0 note=85 velocity=86 time=0
note_on channel=0 note=79 velocity=59 time=3
control_change channel=0 control=64 value=0 time=13
control_change channel=0 control=64 value=49 time=46
control_change channel=0 control=64 value=64 time=15
note_on channel=0 note=79 velocity=0 time=13
control_change channel=0 control=64 value=71 time=3
control_change channel=0 control=64 value=78 time=15
control_change channel=0 control=64 value=85 time=14
note_on channel=0 note=57 velocity=0 time=8
control_change channel=0 control=64 value=90 time=8
control_change channel=0 control=64 value=94 time=15
control_change channel=0 control=64 value=98 time=16
control_change channel=0 control=64 value=104 time=15
control_change channel=0 control=64 value=110 time=14
control_change channel=0 control=64 value=114 time=16
control_change channel=0 control=64 value=119 time=15
control_change channel=0 control=64 value=127 time=16
note_on channel=0 note=46 velocity=81 time=34
note_on channel=0 note=58 velocity=94 time=2
note_on channel=0 note=45 velocity=0 time=1
note_on channel=0 note=88 velocity=0 time=31
note_on channel=0 note=76 velocity=0 time=11
note_on channel=0 note=46 velocity=0 time=129
note_on channel=0 note=58 velocity=0 time=9
note_on channel=0 note=85 velocity=0 time=9
note_on channel=0 note=85 velocity=99 time=95
note_on channel=0 note=73 velocity=103 time=2
note_on channel=0 note=82 velocity=82 time=1
note_on channel=0 note=61 velocity=88 time=4
note_on channel=0 note=49 velocity=81 time=4
note_on channel=0 note=61 velocity=0 time=109
note_on channel=0 note=49 velocity=0 time=12
note_on channel=0 note=85 velocity=0 time=127
note_on channel=0 note=82 velocity=0 time=28
note_on channel=0 note=58 velocity=96 time=3
note_on channel=0 note=46 velocity=82 time=6
note_on channel=0 note=58 velocity=0 time=78
note_on channel=0 note=46 velocity=0 time=14
note_on channel=0 note=73 velocity=0 time=58
control_change channel=0 control=64 value=86 time=153
note_on channel=0 note=73 velocity=82 time=7
note_on channel=0 note=70 velocity=94 time=1
note_on channel=0 note=76 velocity=82 time=0
note_on channel=0 note=82 velocity=96 time=1
note_on channel=0 note=54 velocity=93 time=4
control_change channel=0 control=64 value=23 time=3
note_on channel=0 note=42 velocity=79 time=3
control_change channel=0 control=64 value=0 time=12
control_change channel=0 control=64 value=60 time=62
control_change channel=0 control=64 value=70 time=14
control_change channel=0 control=64 value=78 time=23
control_change channel=0 control=64 value=85 time=15
control_change channel=0 control=64 value=90 time=14
control_change channel=0 control=64 value=96 time=16
control_change channel=0 control=64 value=103 time=15
control_change channel=0 control=64 value=111 time=16
note_on channel=0 note=54 velocity=0 time=11
control_change channel=0 control=64 value=119 time=4
control_change channel=0 control=64 value=127 time=15
note_on channel=0 note=42 velocity=0 time=57
note_on channel=0 note=55 velocity=94 time=62
control_change channel=0 control=64 value=110 time=2
note_on channel=0 note=43 velocity=87 time=0
control_change channel=0 control=64 value=98 time=16
control_change channel=0 control=64 value=101 time=31
control_change channel=0 control=64 value=108 time=15
control_change channel=0 control=64 value=127 time=14
note_on channel=0 note=82 velocity=0 time=41
note_on channel=0 note=76 velocity=0 time=51
note_on channel=0 note=73 velocity=0 time=32
note_on channel=0 note=43 velocity=0 time=22
note_on channel=0 note=70 velocity=0 time=18
note_on channel=0 note=55 velocity=0 time=15
control_change channel=0 control=64 value=100 time=112
control_change channel=0 control=64 value=67 time=14
control_change channel=0 control=64 value=0 time=13
note_on channel=0 note=58 velocity=99 time=2
note_on channel=0 note=73 velocity=70 time=2
note_on channel=0 note=76 velocity=77 time=1
note_on channel=0 note=69 velocity=97 time=1
note_on channel=0 note=81 velocity=97 time=0
note_on channel=0 note=46 velocity=78 time=10
control_change channel=0 control=64 value=62 time=15
control_change channel=0 control=64 value=70 time=14
note_on channel=0 note=73 velocity=0 time=2
note_on channel=0 note=58 velocity=0 time=4
control_change channel=0 control=64 value=84 time=10
control_change channel=0 control=64 value=103 time=15
note_on channel=0 note=46 velocity=0 time=0
control_change channel=0 control=64 value=127 time=15
note_on channel=0 note=76 velocity=0 time=37
note_on channel=0 note=81 velocity=0 time=60
note_on channel=0 note=69 velocity=0 time=189
control_change channel=0 control=64 value=119 time=57
control_change channel=0 control=64 value=65 time=14
control_change channel=0 control=64 value=0 time=16
note_on channel=0 note=37 velocity=97 time=2
note_on channel=0 note=25 velocity=89 time=1
note_on channel=0 note=67 velocity=93 time=24
note_on channel=0 note=70 velocity=82 time=1
note_on channel=0 note=76 velocity=82 time=0
note_on channel=0 note=79 velocity=91 time=2
control_change channel=0 control=64 value=62 time=46
control_change channel=0 control=64 value=73 time=15
control_change channel=0 control=64 value=81 time=15
control_change channel=0 control=64 value=91 time=15
control_change channel=0 control=64 value=98 time=15
control_change channel=0 control=64 value=105 time=15
control_change channel=0 control=64 value=114 time=16
note_on channel=0 note=37 velocity=0 time=11
control_change channel=0 control=64 value=127 time=4
note_on channel=0 note=67 velocity=0 time=7
note_on channel=0 note=25 velocity=0 time=44
control_change channel=0 control=64 value=83 time=25
note_on channel=0 note=70 velocity=0 time=8
control_change channel=0 control=64 value=0 time=6
note_on channel=0 note=38 velocity=104 time=25
note_on channel=0 note=26 velocity=83 time=10
note_on channel=0 note=76 velocity=0 time=6
note_on channel=0 note=79 velocity=0 time=23
note_on channel=0 note=25 velocity=33 time=7
note_on channel=0 note=26 velocity=0 time=21
control_change channel=0 control=64 value=59 time=16
note_on channel=0 note=25 velocity=0 time=5
control_change channel=0 control=64 value=68 time=11
note_on channel=0 note=38 velocity=0 time=3
control_change channel=0 control=64 value=74 time=11
control_change channel=0 control=64 value=79 time=15
control_change channel=0 control=64 value=86 time=24
control_change channel=0 control=64 value=93 time=15
control_change channel=0 control=64 value=98 time=16
control_change channel=0 control=64 value=101 time=14
control_change channel=0 control=64 value=103 time=15
control_change channel=0 control=64 value=108 time=16
control_change channel=0 control=64 value=118 time=15
control_change channel=0 control=64 value=127 time=15
note_on channel=0 note=62 velocity=92 time=68
note_on channel=0 note=74 velocity=103 time=3
note_on channel=0 note=57 velocity=77 time=2
note_on channel=0 note=81 velocity=90 time=0
note_on channel=0 note=86 velocity=96 time=0
note_on channel=0 note=54 velocity=79 time=2
note_on channel=0 note=50 velocity=79 time=1
note_on channel=0 note=78 velocity=86 time=0
note_on channel=0 note=86 velocity=0 time=350
note_on channel=0 note=74 velocity=0 time=10
note_on channel=0 note=78 velocity=0 time=22
note_on channel=0 note=81 velocity=0 time=3
note_on channel=0 note=81 velocity=85 time=50
note_on channel=0 note=86 velocity=98 time=5
note_on channel=0 note=78 velocity=79 time=2
note_on channel=0 note=74 velocity=100 time=1
note_on channel=0 note=62 velocity=0 time=142
note_on channel=0 note=74 velocity=0 time=119
note_on channel=0 note=57 velocity=0 time=69
note_on channel=0 note=86 velocity=0 time=64
note_on channel=0 note=50 velocity=0 time=59
note_on channel=0 note=54 velocity=0 time=3
note_on channel=0 note=78 velocity=0 time=173
note_on channel=0 note=50 velocity=70 time=54
note_on channel=0 note=62 velocity=92 time=2
note_on channel=0 note=57 velocity=72 time=3
note_on channel=0 note=54 velocity=78 time=1
note_on channel=0 note=57 velocity=0 time=33
note_on channel=0 note=62 velocity=0 time=1
note_on channel=0 note=54 velocity=0 time=14
note_on channel=0 note=50 velocity=0 time=15
note_on channel=0 note=81 velocity=0 time=9
note_on channel=0 note=81 velocity=72 time=40
note_on channel=0 note=86 velocity=92 time=3
note_on channel=0 note=78 velocity=73 time=1
note_on channel=0 note=74 velocity=97 time=1
note_on channel=0 note=45 velocity=67 time=77
note_on channel=0 note=50 velocity=78 time=55
note_on channel=0 note=45 velocity=0 time=23
control_change channel=0 control=64 value=100 time=9
note_on channel=0 note=54 velocity=85 time=2
control_change channel=0 control=64 value=62 time=13
control_change channel=0 control=64 value=0 time=15
note_on channel=0 note=62 velocity=96 time=31
control_change channel=0 control=64 value=42 time=14
control_change channel=0 control=64 value=70 time=16
control_change channel=0 control=64 value=83 time=15
control_change channel=0 control=64 value=98 time=16
control_change channel=0 control=64 value=121 time=15
control_change channel=0 control=64 value=127 time=15
note_on channel=0 note=86 velocity=0 time=88
note_on channel=0 note=74 velocity=0 time=24
note_on channel=0 note=78 velocity=0 time=32
note_on channel=0 note=81 velocity=0 time=0
note_on channel=0 note=81 velocity=84 time=57
note_on channel=0 note=74 velocity=103 time=1
note_on channel=0 note=86 velocity=97 time=0
note_on channel=0 note=78 velocity=80 time=4
note_on channel=0 note=62 velocity=0 time=26
note_on channel=0 note=50 velocity=0 time=3
note_on channel=0 note=74 velocity=0 time=111
note_on channel=0 note=54 velocity=0 time=57
note_on channel=0 note=86 velocity=0 time=80
note_on channel=0 note=45 velocity=73 time=178
note_on channel=0 note=50 velocity=73 time=42
note_on channel=0 note=78 velocity=0 time=11
note_on channel=0 note=45 velocity=0 time=12
note_on channel=0 note=54 velocity=84 time=3
note_on channel=0 note=81 velocity=0 time=10
note_on channel=0 note=50 velocity=0 time=56
note_on channel=0 note=62 velocity=92 time=3
note_on channel=0 note=62 velocity=0 time=39
note_on channel=0 note=74 velocity=100 time=21
note_on channel=0 note=81 velocity=88 time=0
note_on channel=0 note=86 velocity=96 time=1
note_on channel=0 note=78 velocity=85 time=1
note_on channel=0 note=54 velocity=0 time=16
note_on channel=0 note=42 velocity=79 time=78
note_on channel=0 note=50 velocity=80 time=57
note_on channel=0 note=42 velocity=0 time=3
note_on channel=0 note=54 velocity=81 time=44
control_change channel=0 control=64 value=79 time=7
control_change channel=0 control=64 value=0 time=15
note_on channel=0 note=62 velocity=97 time=33
note_on channel=0 note=50 velocity=0 time=12
control_change channel=0 control=64 value=53 time=1
control_change channel=0 control=64 value=67 time=15
control_change channel=0 control=64 value=78 time=15
control_change channel=0 control=64 value=91 time=15
control_change channel=0 control=64 value=111 time=16
control_change channel=0 control=64 value=127 time=15
note_on channel=0 note=86 velocity=0 time=90
note_on channel=0 note=74 velocity=0 time=39
note_on channel=0 note=81 velocity=0 time=32
note_on channel=0 note=78 velocity=0 time=12
note_on channel=0 note=81 velocity=94 time=59
note_on channel=0 note=74 velocity=95 time=2
note_on channel=0 note=78 velocity=80 time=1
note_on channel=0 note=86 velocity=97 time=0
note_on channel=0 note=62 velocity=0 time=42
note_on channel=0 note=74 velocity=0 time=83
note_on channel=0 note=54 velocity=0 time=40
note_on channel=0 note=86 velocity=0 time=89
note_on channel=0 note=42 velocity=53 time=216
note_on channel=0 note=42 velocity=0 time=29
note_on channel=0 note=78 velocity=0 time=6
note_on channel=0 note=50 velocity=73 time=15
note_on channel=0 note=54 velocity=84 time=38
note_on channel=0 note=81 velocity=0 time=40
note_on channel=0 note=50 velocity=0 time=24
note_on channel=0 note=62 velocity=93 time=10
note_on channel=0 note=62 velocity=0 time=56
note_on channel=0 note=74 velocity=94 time=14
note_on channel=0 note=86 velocity=94 time=0
note_on channel=0 note=78 velocity=83 time=3
note_on channel=0 note=81 velocity=85 time=1
note_on channel=0 note=49 velocity=16 time=30
note_on channel=0 note=54 velocity=0 time=19
note_on channel=0 note=49 velocity=0 time=38
note_on channel=0 note=45 velocity=77 time=43
note_on channel=0 note=50 velocity=79 time=53
control_change channel=0 control=64 value=116 time=18
note_on channel=0 note=45 velocity=0 time=7
note_on channel=0 note=54 velocity=87 time=6
control_change channel=0 control=64 value=70 time=3
control_change channel=0 control=64 value=0 time=14
note_on channel=0 note=62 velocity=98 time=48
control_change channel=0 control=64 value=21 time=13
note_on channel=0 note=50 velocity=0 time=11
control_change channel=0 control=64 value=65 time=4
control_change channel=0 control=64 value=77 time=15
control_change channel=0 control=64 value=88 time=16
control_change channel=0 control=64 value=100 time=14
control_change channel=0 control=64 value=113 time=16
control_change channel=0 control=64 value=127 time=15
note_on channel=0 note=86 velocity=0 time=174
note_on channel=0 note=74 velocity=0 time=38
note_on channel=0 note=81 velocity=0 time=26
note_on channel=0 note=78 velocity=0 time=16
note_on channel=0 note=74 velocity=98 time=78
note_on channel=0 note=81 velocity=96 time=0
note_on channel=0 note=86 velocity=96 time=0
note_on channel=0 note=78 velocity=83 time=3
note_on channel=0 note=62 velocity=0 time=86
note_on channel=0 note=74 velocity=0 time=40
note_on channel=0 note=86 velocity=0 time=86
note_on channel=0 note=54 velocity=0 time=90
note_on channel=0 note=78 velocity=0 time=377
note_on channel=0 note=45 velocity=76 time=72
note_on channel=0 note=50 velocity=77 time=61
note_on channel=0 note=45 velocity=0 time=42
note_on channel=0 note=54 velocity=86 time=3
note_on channel=0 note=81 velocity=0 time=25
note_on channel=0 note=50 velocity=0 time=66
note_on channel=0 note=62 velocity=98 time=2
note_on channel=0 note=74 velocity=98 time=30
note_on channel=0 note=86 velocity=99 time=1
note_on channel=0 note=81 velocity=91 time=5
note_on channel=0 note=78 velocity=86 time=1
note_on channel=0 note=62 velocity=0 time=8
note_on channel=0 note=54 velocity=0 time=24
note_on channel=0 note=38 velocity=86 time=251
control_change channel=0 control=64 value=80 time=13
control_change channel=0 control=64 value=0 time=15
control_change channel=0 control=64 value=44 time=59
control_change channel=0 control=64 value=68 time=14
note_on channel=0 note=45 velocity=83 time=3
control_change channel=0 control=64 value=79 time=12
note_on channel=0 note=38 velocity=0 time=0
control_change channel=0 control=64 value=93 time=16
control_change channel=0 control=64 value=109 time=15
control_change channel=0 control=64 value=127 time=16
note_on channel=0 note=54 velocity=95 time=76
note_on channel=0 note=45 velocity=0 time=9
note_on channel=0 note=86 velocity=0 time=29
note_on channel=0 note=54 velocity=0 time=18
note_on channel=0 note=81 velocity=0 time=48
note_on channel=0 note=74 velocity=0 time=40
note_on channel=0 note=78 velocity=0 time=28
note_on channel=0 note=62 velocity=94 time=63
note_on channel=0 note=74 velocity=101 time=0
note_on channel=0 note=86 velocity=97 time=1
note_on channel=0 note=81 velocity=92 time=4
note_on channel=0 note=78 velocity=86 time=5
note_on channel=0 note=62 velocity=0 time=14
note_on channel=0 note=86 velocity=0 time=301
note_on channel=0 note=81 velocity=0 time=44
note_on channel=0 note=78 velocity=0 time=66
note_on channel=0 note=74 velocity=0 time=238
control_change channel=0 control=64 value=82 time=34
control_change channel=0 control=64 value=46 time=15
note_on channel=0 note=76 velocity=99 time=2
note_on channel=0 note=64 velocity=100 time=7
control_change channel=0 control=64 value=51 time=7
control_change channel=0 control=64 value=66 time=15
control_change channel=0 control=64 value=71 time=15
note_on channel=0 note=64 velocity=0 time=2
control_change channel=0 control=64 value=77 time=13
control_change channel=0 control=64 value=89 time=15
control_change channel=0 control=64 value=101 time=16
control_change channel=0 control=64 value=106 time=15
control_change channel=0 control=64 value=109 time=15
control_change channel=0 control=64 value=111 time=16
control_change channel=0 control=64 value=113 time=15
control_change channel=0 control=64 value=119 time=16
control_change channel=0 control=64 value=127 time=15
note_on channel=0 note=76 velocity=0 time=274
control_change channel=0 control=64 value=92 time=46
note_on channel=0 note=65 velocity=94 time=9
note_on channel=0 note=77 velocity=99 time=0
control_change channel=0 control=64 value=64 time=6
control_change channel=0 control=64 value=0 time=16
control_change channel=0 control=64 value=36 time=67
control_change channel=0 control=64 value=64 time=16
control_change channel=0 control=64 value=71 time=15
control_change channel=0 control=64 value=77 time=15
control_change channel=0 control=64 value=83 time=15
control_change channel=0 control=64 value=88 time=15
control_change channel=0 control=64 value=93 time=16
control_change channel=0 control=64 value=99 time=15
control_change channel=0 control=64 value=104 time=15
control_change channel=0 control=64 value=108 time=16
control_change channel=0 control=64 value=110 time=14
control_change channel=0 control=64 value=111 time=16
control_change channel=0 control=64 value=111 time=15
control_change channel=0 control=64 value=113 time=15
control_change channel=0 control=64 value=115 time=15
control_change channel=0 control=64 value=115 time=15
control_change channel=0 control=64 value=116 time=46
control_change channel=0 control=64 value=116 time=15
control_change channel=0 control=64 value=117 time=15
control_change channel=0 control=64 value=118 time=45
note_on channel=0 note=77 velocity=0 time=11
note_on channel=0 note=65 velocity=0 time=96
control_change channel=0 control=64 value=117 time=153
control_change channel=0 control=64 value=112 time=15
note_on channel=0 note=61 velocity=87 time=6
note_on channel=0 note=73 velocity=103 time=3
control_change channel=0 control=64 value=86 time=4
control_change channel=0 control=64 value=60 time=16
control_change channel=0 control=64 value=0 time=15
control_change channel=0 control=64 value=52 time=76
control_change channel=0 control=64 value=70 time=23
control_change channel=0 control=64 value=81 time=15
control_change channel=0 control=64 value=92 time=15
control_change channel=0 control=64 value=99 time=16
control_change channel=0 control=64 value=103 time=15
control_change channel=0 control=64 value=107 time=14
control_change channel=0 control=64 value=112 time=16
control_change channel=0 control=64 value=114 time=15
control_change channel=0 control=64 value=115 time=16
note_on channel=0 note=61 velocity=0 time=26
control_change channel=0 control=64 value=116 time=3
note_on channel=0 note=73 velocity=0 time=46
control_change channel=0 control=64 value=117 time=30
control_change channel=0 control=64 value=118 time=16
control_change channel=0 control=64 value=119 time=15
control_change channel=0 control=64 value=112 time=381
control_change channel=0 control=64 value=82 time=15
control_change channel=0 control=64 value=0 time=15
note_on channel=0 note=44 velocity=78 time=196
note_on channel=0 note=50 velocity=80 time=29
note_on channel=0 note=53 velocity=87 time=2
note_on channel=0 note=95 velocity=103 time=19
note_on channel=0 note=83 velocity=103 time=3
note_on channel=0 note=86 velocity=87 time=1
note_on channel=0 note=89 velocity=91 time=0
control_change channel=0 control=64 value=70 time=1
note_on channel=0 note=44 velocity=0 time=5
note_on channel=0 note=59 velocity=95 time=3
control_change channel=0 control=64 value=96 time=7
control_change channel=0 control=64 value=127 time=15
note_on channel=0 note=59 velocity=0 time=271
note_on channel=0 note=53 velocity=0 time=70
note_on channel=0 note=50 velocity=0 time=19
note_on channel=0 note=95 velocity=0 time=0
note_on channel=0 note=44 velocity=82 time=37
note_on channel=0 note=83 velocity=0 time=6
note_on channel=0 note=86 velocity=0 time=13
note_on channel=0 note=89 velocity=0 time=1
note_on channel=0 note=50 velocity=76 time=37
control_change channel=0 control=64 value=93 time=18
control_change channel=0 control=64 value=90 time=16
note_on channel=0 note=53 velocity=76 time=0
control_change channel=0 control=64 value=97 time=15
note_on channel=0 note=44 velocity=0 time=8
note_on channel=0 note=83 velocity=98 time=5
control_change channel=0 control=64 value=113 time=2
note_on channel=0 note=59 velocity=99 time=1
note_on channel=0 note=95 velocity=102 time=2
note_on channel=0 note=86 velocity=75 time=7
note_on channel=0 note=89 velocity=86 time=0
control_change channel=0 control=64 value=127 time=5
note_on channel=0 note=50 velocity=0 time=7
note_on channel=0 note=86 velocity=0 time=6
note_on channel=0 note=83 velocity=0 time=3
note_on channel=0 note=89 velocity=0 time=0
note_on channel=0 note=53 velocity=0 time=1
note_on channel=0 note=59 velocity=0 time=11
note_on channel=0 note=95 velocity=0 time=0
control_change channel=0 control=64 value=105 time=299
control_change channel=0 control=64 value=65 time=14
note_on channel=0 note=62 velocity=87 time=2
note_on channel=0 note=74 velocity=97 time=3
control_change channel=0 control=64 value=0 time=11
control_change channel=0 control=64 value=54 time=106
control_change channel=0 control=64 value=66 time=15
control_change channel=0 control=64 value=70 time=15
control_change channel=0 control=64 value=73 time=15
control_change channel=0 control=64 value=77 time=16
control_change channel=0 control=64 value=82 time=14
control_change channel=0 control=64 value=88 time=16
control_change channel=0 control=64 value=92 time=15
control_change channel=0 control=64 value=95 time=16
control_change channel=0 control=64 value=98 time=16
control_change channel=0 control=64 value=103 time=15
control_change channel=0 control=64 value=108 time=14
control_change channel=0 control=64 value=112 time=16
control_change channel=0 control=64 value=113 time=15
control_change channel=0 control=64 value=114 time=16
control_change channel=0 control=64 value=113 time=122
note_on channel=0 note=74 velocity=0 time=7
control_change channel=0 control=64 value=98 time=16
note_on channel=0 note=62 velocity=0 time=4
control_change channel=0 control=64 value=76 time=12
control_change channel=0 control=64 value=0 time=14
note_on channel=0 note=76 velocity=98 time=5
note_on channel=0 note=64 velocity=91 time=1
control_change channel=0 control=64 value=45 time=25
control_change channel=0 control=64 value=62 time=15
control_change channel=0 control=64 value=68 time=16
control_change channel=0 control=64 value=75 time=14
note_on channel=0 note=64 velocity=0 time=0
control_change channel=0 control=64 value=83 time=15
control_change channel=0 control=64 value=91 time=16
control_change channel=0 control=64 value=95 time=14
control_change channel=0 control=64 value=99 time=15
control_change channel=0 control=64 value=104 time=16
control_change channel=0 control=64 value=113 time=15
control_change channel=0 control=64 value=127 time=16
note_on channel=0 note=76 velocity=0 time=302
control_change channel=0 control=64 value=101 time=32
control_change channel=0 control=64 value=71 time=14
note_on channel=0 note=77 velocity=96 time=15
control_change channel=0 control=64 value=0 time=2
note_on channel=0 note=65 velocity=95 time=4
control_change channel=0 control=64 value=57 time=86
control_change channel=0 control=64 value=68 time=15
control_change channel=0 control=64 value=73 time=16
control_change channel=0 control=64 value=78 time=15
control_change channel=0 control=64 value=84 time=15
control_change channel=0 control=64 value=90 time=15
control_change channel=0 control=64 value=96 time=23
control_change channel=0 control=64 value=100 time=16
control_change channel=0 control=64 value=103 time=14
control_change channel=0 control=64 value=105 time=16
control_change channel=0 control=64 value=107 time=15
control_change channel=0 control=64 value=109 time=15
control_change channel=0 control=64 value=110 time=16
note_on channel=0 note=77 velocity=0 time=170
note_on channel=0 note=65 velocity=0 time=79
control_change channel=0 control=64 value=109 time=115
control_change channel=0 control=64 value=109 time=15
control_change channel=0 control=64 value=108 time=16
control_change channel=0 control=64 value=108 time=15
control_change channel=0 control=64 value=107 time=14
control_change channel=0 control=64 value=107 time=16
control_change channel=0 control=64 value=106 time=15
control_change channel=0 control=64 value=103 time=14
control_change channel=0 control=64 value=89 time=16
note_on channel=0 note=61 velocity=83 time=11
note_on channel=0 note=73 velocity=91 time=0
control_change channel=0 control=64 value=65 time=4
control_change channel=0 control=64 value=0 time=16
control_change channel=0 control=64 value=17 time=61
control_change channel=0 control=64 value=62 time=16
control_change channel=0 control=64 value=71 time=15
control_change channel=0 control=64 value=78 time=15
control_change channel=0 control=64 value=84 time=15
control_change channel=0 control=64 value=90 time=15
control_change channel=0 control=64 value=96 time=24
control_change channel=0 control=64 value=101 time=15
control_change channel=0 control=64 value=107 time=15
control_change channel=0 control=64 value=110 time=15
control_change channel=0 control=64 value=111 time=15
note_on channel=0 note=61 velocity=0 time=19
note_on channel=0 note=73 velocity=0 time=49
control_change channel=0 control=64 value=110 time=114
control_change channel=0 control=64 value=111 time=152
control_change channel=0 control=64 value=111 time=15
control_change channel=0 control=64 value=115 time=15
control_change channel=0 control=64 value=127 time=16
control_change channel=0 control=64 value=91 time=227
control_change channel=0 control=64 value=59 time=17
control_change channel=0 control=64 value=0 time=15
note_on channel=0 note=44 velocity=75 time=5
note_on channel=0 note=50 velocity=77 time=22
note_on channel=0 note=53 velocity=85 time=22
note_on channel=0 note=44 velocity=0 time=33
note_on channel=0 note=95 velocity=105 time=1
note_on channel=0 note=59 velocity=91 time=1
note_on channel=0 note=89 velocity=91 time=1
note_on channel=0 note=86 velocity=86 time=1
note_on channel=0 note=83 velocity=97 time=3
control_change channel=0 control=64 value=58 time=25
control_change channel=0 control=64 value=67 time=15
control_change channel=0 control=64 value=73 time=16
control_change channel=0 control=64 value=79 time=15
control_change channel=0 control=64 value=87 time=14
control_change channel=0 control=64 value=93 time=16
control_change channel=0 control=64 value=100 time=15
control_change channel=0 control=64 value=105 time=16
control_change channel=0 control=64 value=115 time=15
control_change channel=0 control=64 value=127 time=14
note_on channel=0 note=59 velocity=0 time=266
note_on channel=0 note=53 velocity=0 time=95
note_on channel=0 note=50 velocity=0 time=7
note_on channel=0 note=95 velocity=0 time=7
note_on channel=0 note=44 velocity=84 time=15
note_on channel=0 note=83 velocity=0 time=0
note_on channel=0 note=86 velocity=0 time=0
note_on channel=0 note=89 velocity=0 time=20
note_on channel=0 note=50 velocity=77 time=38
note_on channel=0 note=53 velocity=81 time=26
note_on channel=0 note=44 velocity=0 time=20
note_on channel=0 note=83 velocity=95 time=12
note_on channel=0 note=59 velocity=99 time=2
note_on channel=0 note=95 velocity=99 time=1
note_on channel=0 note=86 velocity=72 time=6
note_on channel=0 note=89 velocity=76 time=6
note_on channel=0 note=50 velocity=0 time=7
note_on channel=0 note=53 velocity=0 time=7
note_on channel=0 note=86 velocity=0 time=1
note_on channel=0 note=83 velocity=0 time=4
note_on channel=0 note=89 velocity=0 time=4
note_on channel=0 note=59 velocity=0 time=5
note_on channel=0 note=95 velocity=0 time=8
note_on channel=0 note=62 velocity=68 time=605
control_change channel=0 control=64 value=115 time=21
control_change channel=0 control=64 value=110 time=16
control_change channel=0 control=64 value=106 time=15
control_change channel=0 control=64 value=101 time=15
control_change channel=0 control=64 value=98 time=16
control_change channel=0 control=64 value=94 time=14
control_change channel=0 control=64 value=91 time=16
control_change channel=0 control=64 value=88 time=15
control_change channel=0 control=64 value=83 time=15
control_change channel=0 control=64 value=78 time=16
control_change channel=0 control=64 value=73 time=11
control_change channel=0 control=64 value=67 time=22
control_change channel=0 control=64 value=0 time=16
control_change channel=0 control=64 value=26 time=137
control_change channel=0 control=64 value=62 time=15
control_change channel=0 control=64 value=68 time=16
control_change channel=0 control=64 value=73 time=15
control_change channel=0 control=64 value=78 time=15
control_change channel=0 control=64 value=83 time=15
control_change channel=0 control=64 value=87 time=15
note_on channel=0 note=74 velocity=57 time=11
control_change channel=0 control=64 value=92 time=4
control_change channel=0 control=64 value=95 time=15
control_change channel=0 control=64 value=97 time=15
control_change channel=0 control=64 value=100 time=16
control_change channel=0 control=64 value=104 time=15
control_change channel=0 control=64 value=108 time=15
control_change channel=0 control=64 value=112 time=15
control_change channel=0 control=64 value=115 time=15
control_change channel=0 control=64 value=118 time=16
control_change channel=0 control=64 value=120 time=15
control_change channel=0 control=64 value=121 time=15
control_change channel=0 control=64 value=122 time=16
note_on channel=0 note=86 velocity=64 time=11
control_change channel=0 control=64 value=127 time=4
note_on channel=0 note=74 velocity=0 time=88
note_on channel=0 note=64 velocity=77 time=62
control_change channel=0 control=64 value=120 time=1
control_change channel=0 control=64 value=104 time=15
note_on channel=0 note=86 velocity=0 time=9
control_change channel=0 control=64 value=95 time=7
control_change channel=0 control=64 value=95 time=15
control_change channel=0 control=64 value=96 time=30
control_change channel=0 control=64 value=98 time=15
control_change channel=0 control=64 value=102 time=16
control_change channel=0 control=64 value=105 time=15
control_change channel=0 control=64 value=108 time=14
note_on channel=0 note=76 velocity=76 time=13
control_change channel=0 control=64 value=112 time=3
control_change channel=0 control=64 value=117 time=23
control_change channel=0 control=64 value=124 time=16
note_on channel=0 note=62 velocity=0 time=0
control_change channel=0 control=64 value=127 time=14
note_on channel=0 note=88 velocity=83 time=116
note_on channel=0 note=76 velocity=0 time=132
note_on channel=0 note=65 velocity=85 time=54
note_on channel=0 note=64 velocity=0 time=44
control_change channel=0 control=64 value=101 time=20
control_change channel=0 control=64 value=82 time=15
control_change channel=0 control=64 value=65 time=15
control_change channel=0 control=64 value=0 time=15
control_change channel=0 control=64 value=36 time=31
control_change channel=0 control=64 value=54 time=16
control_change channel=0 control=64 value=62 time=15
control_change channel=0 control=64 value=65 time=15
control_change channel=0 control=64 value=68 time=15
control_change channel=0 control=64 value=71 time=15
control_change channel=0 control=64 value=74 time=15
note_on channel=0 note=88 velocity=0 time=0
note_on channel=0 note=77 velocity=80 time=7
control_change channel=0 control=64 value=76 time=9
control_change channel=0 control=64 value=79 time=15
control_change channel=0 control=64 value=82 time=15
control_change channel=0 control=64 value=84 time=15
control_change channel=0 control=64 value=86 time=14
control_change channel=0 control=64 value=89 time=16
control_change channel=0 control=64 value=92 time=14
control_change channel=0 control=64 value=95 time=15
control_change channel=0 control=64 value=98 time=16
control_change channel=0 control=64 value=100 time=15
control_change channel=0 control=64 value=102 time=16
note_on channel=0 note=89 velocity=88 time=10
control_change channel=0 control=64 value=103 time=4
control_change channel=0 control=64 value=106 time=24
control_change channel=0 control=64 value=109 time=15
control_change channel=0 control=64 value=112 time=15
control_change channel=0 control=64 value=114 time=15
control_change channel=0 control=64 value=118 time=15
note_on channel=0 note=77 velocity=0 time=5
control_change channel=0 control=64 value=127 time=10
note_on channel=0 note=89 velocity=0 time=3
note_on channel=0 note=61 velocity=81 time=54
note_on channel=0 note=73 velocity=84 time=156
note_on channel=0 note=65 velocity=0 time=3
note_on channel=0 note=61 velocity=0 time=151
note_on channel=0 note=85 velocity=84 time=0
note_on channel=0 note=73 velocity=0 time=139
note_on channel=0 note=59 velocity=74 time=23
note_on channel=0 note=85 velocity=0 time=7
note_on channel=0 note=71 velocity=74 time=181
control_change channel=0 control=64 value=106 time=22
control_change channel=0 control=64 value=85 time=15
control_change channel=0 control=64 value=68 time=16
control_change channel=0 control=64 value=55 time=15
control_change channel=0 control=64 value=65 time=14
control_change channel=0 control=64 value=68 time=16
control_change channel=0 control=64 value=70 time=15
control_change channel=0 control=64 value=73 time=16
control_change channel=0 control=64 value=77 time=15
control_change channel=0 control=64 value=83 time=15
control_change channel=0 control=64 value=89 time=16
note_on channel=0 note=83 velocity=77 time=12
control_change channel=0 control=64 value=93 time=3
control_change channel=0 control=64 value=95 time=16
control_change channel=0 control=64 value=97 time=15
control_change channel=0 control=64 value=100 time=15
control_change channel=0 control=64 value=103 time=15
control_change channel=0 control=64 value=106 time=15
control_change channel=0 control=64 value=106 time=31
control_change channel=0 control=64 value=107 time=15
note_on channel=0 note=71 velocity=0 time=10
control_change channel=0 control=64 value=109 time=6
note_on channel=0 note=83 velocity=0 time=10
control_change channel=0 control=64 value=112 time=4
note_on channel=0 note=56 velocity=77 time=4
control_change channel=0 control=64 value=115 time=11
control_change channel=0 control=64 value=114 time=45
control_change channel=0 control=64 value=113 time=16
control_change channel=0 control=64 value=113 time=60
note_on channel=0 note=68 velocity=77 time=29
control_change channel=0 control=64 value=114 time=16
control_change channel=0 control=64 value=114 time=16
control_change channel=0 control=64 value=115 time=45
control_change channel=0 control=64 value=117 time=15
control_change channel=0 control=64 value=120 time=16
control_change channel=0 control=64 value=127 time=15
note_on channel=0 note=80 velocity=84 time=37
note_on channel=0 note=59 velocity=0 time=22
note_on channel=0 note=68 velocity=0 time=123
note_on channel=0 note=53 velocity=87 time=10
note_on channel=0 note=56 velocity=0 time=23
note_on channel=0 note=80 velocity=0 time=7
control_change channel=0 control=64 value=119 time=75
control_change channel=0 control=64 value=119 time=15
note_on channel=0 note=65 velocity=85 time=37
control_change channel=0 control=64 value=121 time=9
control_change channel=0 control=64 value=127 time=15
note_on channel=0 note=77 velocity=83 time=156
note_on channel=0 note=65 velocity=0 time=131
note_on channel=0 note=77 velocity=0 time=9
note_on channel=0 note=53 velocity=0 time=22
note_on channel=0 note=49 velocity=89 time=9
note_on channel=0 note=61 velocity=84 time=179
note_on channel=0 note=49 velocity=0 time=130
note_on channel=0 note=73 velocity=91 time=73
note_on channel=0 note=47 velocity=91 time=192
note_on channel=0 note=61 velocity=0 time=31
note_on channel=0 note=73 velocity=0 time=30
control_change channel=0 control=64 value=89 time=78
control_change channel=0 control=64 value=69 time=16
control_change channel=0 control=64 value=0 time=14
control_change channel=0 control=64 value=36 time=15
control_change channel=0 control=64 value=62 time=16
control_change channel=0 control=64 value=66 time=15
control_change channel=0 control=64 value=68 time=16
control_change channel=0 control=64 value=71 time=14
note_on channel=0 note=59 velocity=86 time=5
control_change channel=0 control=64 value=74 time=10
control_change channel=0 control=64 value=78 time=16
control_change channel=0 control=64 value=80 time=14
control_change channel=0 control=64 value=82 time=15
control_change channel=0 control=64 value=84 time=16
control_change channel=0 control=64 value=87 time=15
control_change channel=0 control=64 value=92 time=16
control_change channel=0 control=64 value=96 time=22
control_change channel=0 control=64 value=100 time=16
control_change channel=0 control=64 value=102 time=15
control_change channel=0 control=64 value=103 time=15
control_change channel=0 control=64 value=107 time=15
control_change channel=0 control=64 value=114 time=15
note_on channel=0 note=71 velocity=92 time=14
control_change channel=0 control=64 value=127 time=1
note_on channel=0 note=44 velocity=93 time=218
note_on channel=0 note=71 velocity=0 time=49
control_change channel=0 control=64 value=106 time=23
control_change channel=0 control=64 value=88 time=15
note_on channel=0 note=59 velocity=0 time=4
control_change channel=0 control=64 value=77 time=11
control_change channel=0 control=64 value=75 time=16
control_change channel=0 control=64 value=77 time=14
control_change channel=0 control=64 value=78 time=16
control_change channel=0 control=64 value=81 time=15
control_change channel=0 control=64 value=84 time=15
control_change channel=0 control=64 value=89 time=16
control_change channel=0 control=64 value=94 time=15
note_on channel=0 note=56 velocity=92 time=11
control_change channel=0 control=64 value=97 time=3
control_change channel=0 control=64 value=101 time=16
control_change channel=0 control=64 value=106 time=15
control_change channel=0 control=64 value=112 time=16
control_change channel=0 control=64 value=127 time=15
note_on channel=0 note=68 velocity=91 time=144
note_on channel=0 note=47 velocity=0 time=67
note_on channel=0 note=44 velocity=0 time=28
note_on channel=0 note=41 velocity=99 time=142
control_change channel=0 control=64 value=84 time=20
control_change channel=0 control=64 value=0 time=15
control_change channel=0 control=64 value=49 time=61
control_change channel=0 control=64 value=64 time=15
note_on channel=0 note=68 velocity=0 time=8
control_change channel=0 control=64 value=72 time=8
note_on channel=0 note=56 velocity=0 time=3
control_change channel=0 control=64 value=78 time=12
control_change channel=0 control=64 value=85 time=15
control_change channel=0 control=64 value=89 time=16
control_change channel=0 control=64 value=93 time=15
control_change channel=0 control=64 value=99 time=16
control_change channel=0 control=64 value=106 time=15
control_change channel=0 control=64 value=123 time=14
note_on channel=0 note=53 velocity=88 time=9
control_change channel=0 control=64 value=127 time=7
note_on channel=0 note=41 velocity=0 time=104
note_on channel=0 note=65 velocity=90 time=144
note_on channel=0 note=65 velocity=0 time=224
note_on channel=0 note=37 velocity=95 time=13
note_on channel=0 note=53 velocity=0 time=41
control_change channel=0 control=64 value=89 time=45
control_change channel=0 control=64 value=64 time=15
control_change channel=0 control=64 value=0 time=15
control_change channel=0 control=64 value=60 time=91
control_change channel=0 control=64 value=68 time=15
control_change channel=0 control=64 value=74 time=15
control_change channel=0 control=64 value=80 time=15
note_on channel=0 note=49 velocity=94 time=7
control_change channel=0 control=64 value=87 time=10
control_change channel=0 control=64 value=94 time=15
control_change channel=0 control=64 value=106 time=15
control_change channel=0 control=64 value=127 time=16
note_on channel=0 note=37 velocity=0 time=192
note_on channel=0 note=61 velocity=93 time=21
note_on channel=0 note=49 velocity=0 time=218
note_on channel=0 note=35 velocity=90 time=62
control_change channel=0 control=64 value=89 time=17
control_change channel=0 control=64 value=48 time=15
control_change channel=0 control=64 value=0 time=15
note_on channel=0 note=61 velocity=0 time=85
control_change channel=0 control=64 value=44 time=21
control_change channel=0 control=64 value=61 time=15
control_change channel=0 control=64 value=65 time=16
control_change channel=0 control=64 value=68 time=14
control_change channel=0 control=64 value=72 time=16
control_change channel=0 control=64 value=78 time=15
control_change channel=0 control=64 value=86 time=15
control_change channel=0 control=64 value=92 time=16
control_change channel=0 control=64 value=97 time=16
note_on channel=0 note=47 velocity=93 time=15
control_change channel=0 control=64 value=105 time=1
control_change channel=0 control=64 value=127 time=14
note_on channel=0 note=35 velocity=0 time=200
note_on channel=0 note=59 velocity=92 time=130
note_on channel=0 note=31 velocity=94 time=377
note_on channel=0 note=59 velocity=0 time=13
control_change channel=0 control=64 value=103 time=19
control_change channel=0 control=64 value=71 time=14
note_on channel=0 note=47 velocity=0 time=7
control_change channel=0 control=64 value=0 time=8
control_change channel=0 control=64 value=19 time=282
control_change channel=0 control=64 value=26 time=16
control_change channel=0 control=64 value=46 time=15
control_change channel=0 control=64 value=61 time=15
control_change channel=0 control=64 value=66 time=16
control_change channel=0 control=64 value=69 time=14
control_change channel=0 control=64 value=73 time=16
control_change channel=0 control=64 value=78 time=15
note_on channel=0 note=43 velocity=96 time=10
control_change channel=0 control=64 value=84 time=5
control_change channel=0 control=64 value=89 time=16
control_change channel=0 control=64 value=92 time=15
control_change channel=0 control=64 value=94 time=16
control_change channel=0 control=64 value=99 time=14
note_on channel=0 note=31 velocity=0 time=1
control_change channel=0 control=64 value=107 time=14
control_change channel=0 control=64 value=121 time=16
control_change channel=0 control=64 value=127 time=15
note_on channel=0 note=43 velocity=0 time=276
note_on channel=0 note=55 velocity=93 time=152
note_on channel=0 note=55 velocity=0 time=538
control_change channel=0 control=64 value=102 time=184
control_change channel=0 control=64 value=56 time=15
note_on channel=0 note=30 velocity=80 time=9
note_on channel=0 note=42 velocity=96 time=0
note_on channel=0 note=54 velocity=96 time=3
control_change channel=0 control=64 value=0 time=3
control_change channel=0 control=64 value=64 time=61
control_change channel=0 control=64 value=79 time=14
note_on channel=0 note=30 velocity=0 time=0
note_on channel=0 note=42 velocity=0 time=17
control_change channel=0 control=64 value=103 time=2
note_on channel=0 note=54 velocity=0 time=3
control_change channel=0 control=64 value=127 time=12
note_on channel=0 note=78 velocity=99 time=458
note_on channel=0 note=66 velocity=102 time=1
note_on channel=0 note=74 velocity=89 time=2
note_on channel=0 note=62 velocity=81 time=2
note_on channel=0 note=71 velocity=92 time=0
note_on channel=0 note=59 velocity=79 time=4
note_on channel=0 note=54 velocity=76 time=1
note_on channel=0 note=66 velocity=0 time=803
note_on channel=0 note=71 velocity=0 time=75
note_on channel=0 note=54 velocity=0 time=67
note_on channel=0 note=74 velocity=0 time=67
note_on channel=0 note=62 velocity=0 time=116
note_on channel=0 note=59 velocity=0 time=48
note_on channel=0 note=78 velocity=0 time=134
note_on channel=0 note=66 velocity=103 time=100
note_on channel=0 note=78 velocity=100 time=3
note_on channel=0 note=62 velocity=80 time=2
note_on channel=0 note=71 velocity=85 time=2
note_on channel=0 note=54 velocity=69 time=2
note_on channel=0 note=59 velocity=73 time=3
note_on channel=0 note=74 velocity=41 time=15
note_on channel=0 note=71 velocity=0 time=10
note_on channel=0 note=66 velocity=0 time=17
note_on channel=0 note=74 velocity=0 time=3
note_on channel=0 note=78 velocity=0 time=3
note_on channel=0 note=62 velocity=0 time=24
note_on channel=0 note=59 velocity=0 time=13
note_on channel=0 note=54 velocity=0 time=34
control_change channel=0 control=64 value=103 time=295
control_change channel=0 control=64 value=66 time=16
control_change channel=0 control=64 value=0 time=15
note_on channel=0 note=42 velocity=94 time=24
note_on channel=0 note=54 velocity=96 time=1
note_on channel=0 note=30 velocity=90 time=1
control_change channel=0 control=64 value=58 time=35
control_change channel=0 control=64 value=72 time=15
note_on channel=0 note=30 velocity=0 time=1
note_on channel=0 note=54 velocity=0 time=6
note_on channel=0 note=42 velocity=0 time=2
control_change channel=0 control=64 value=84 time=6
control_change channel=0 control=64 value=105 time=15
control_change channel=0 control=64 value=127 time=15
note_on channel=0 note=78 velocity=99 time=431
note_on channel=0 note=71 velocity=89 time=3
note_on channel=0 note=66 velocity=99 time=2
note_on channel=0 note=68 velocity=90 time=0
note_on channel=0 note=59 velocity=79 time=6
note_on channel=0 note=54 velocity=76 time=2
note_on channel=0 note=56 velocity=77 time=2
note_on channel=0 note=66 velocity=0 time=669
note_on channel=0 note=54 velocity=0 time=92
note_on channel=0 note=59 velocity=0 time=228
note_on channel=0 note=68 velocity=0 time=52
note_on channel=0 note=56 velocity=0 time=120
note_on channel=0 note=71 velocity=0 time=0
note_on channel=0 note=78 velocity=0 time=215
note_on channel=0 note=66 velocity=91 time=179
note_on channel=0 note=59 velocity=71 time=4
note_on channel=0 note=68 velocity=89 time=1
note_on channel=0 note=78 velocity=94 time=1
note_on channel=0 note=54 velocity=69 time=1
note_on channel=0 note=56 velocity=62 time=22
note_on channel=0 note=68 velocity=0 time=11
note_on channel=0 note=66 velocity=0 time=20
note_on channel=0 note=78 velocity=0 time=2
note_on channel=0 note=59 velocity=0 time=60
note_on channel=0 note=54 velocity=0 time=40
note_on channel=0 note=56 velocity=0 time=0
control_change channel=0 control=64 value=74 time=450
control_change channel=0 control=64 value=0 time=14
note_on channel=0 note=54 velocity=96 time=5
note_on channel=0 note=42 velocity=95 time=3
note_on channel=0 note=30 velocity=85 time=1
control_change channel=0 control=64 value=64 time=83
control_change channel=0 control=64 value=73 time=15
control_change channel=0 control=64 value=81 time=15
control_change channel=0 control=64 value=89 time=16
note_on channel=0 note=30 velocity=0 time=8
control_change channel=0 control=64 value=97 time=6
note_on channel=0 note=42 velocity=0 time=12
control_change channel=0 control=64 value=105 time=4
note_on channel=0 note=54 velocity=0 time=2
control_change channel=0 control=64 value=121 time=13
control_change channel=0 control=64 value=127 time=15
note_on channel=0 note=78 velocity=100 time=668
note_on channel=0 note=66 velocity=86 time=5
note_on channel=0 note=70 velocity=86 time=0
note_on channel=0 note=73 velocity=88 time=1
note_on channel=0 note=61 velocity=79 time=3
note_on channel=0 note=58 velocity=73 time=4
note_on channel=0 note=54 velocity=71 time=1
note_on channel=0 note=66 velocity=0 time=454
note_on channel=0 note=61 velocity=0 time=289
note_on channel=0 note=70 velocity=0 time=16
note_on channel=0 note=58 velocity=0 time=63
note_on channel=0 note=54 velocity=0 time=252
note_on channel=0 note=73 velocity=0 time=35
note_on channel=0 note=78 velocity=0 time=607
note_on channel=0 note=61 velocity=61 time=164
note_on channel=0 note=78 velocity=89 time=1
note_on channel=0 note=54 velocity=63 time=1
note_on channel=0 note=73 velocity=78 time=1
note_on channel=0 note=66 velocity=73 time=4
control_change channel=0 control=64 value=101 time=2
note_on channel=0 note=70 velocity=68 time=0
note_on channel=0 note=49 velocity=56 time=5
control_change channel=0 control=64 value=81 time=10
note_on channel=0 note=46 velocity=47 time=3
control_change channel=0 control=64 value=69 time=11
control_change channel=0 control=64 value=69 time=16
control_change channel=0 control=64 value=73 time=15
control_change channel=0 control=64 value=75 time=14
control_change channel=0 control=64 value=77 time=16
control_change channel=0 control=64 value=82 time=15
control_change channel=0 control=64 value=88 time=16
note_on channel=0 note=61 velocity=0 time=11
control_change channel=0 control=64 value=93 time=4
control_change channel=0 control=64 value=97 time=14
control_change channel=0 control=64 value=100 time=16
control_change channel=0 control=64 value=104 time=15
control_change channel=0 control=64 value=108 time=17
control_change channel=0 control=64 value=113 time=15
control_change channel=0 control=64 value=120 time=15
control_change channel=0 control=64 value=127 time=16
note_on channel=0 note=54 velocity=0 time=42
note_on channel=0 note=49 velocity=0 time=70
note_on channel=0 note=46 velocity=0 time=70
control_change channel=0 control=64 value=117 time=418
control_change channel=0 control=64 value=95 time=15
control_change channel=0 control=64 value=75 time=14
note_on channel=0 note=42 velocity=57 time=2
control_change channel=0 control=64 value=51 time=14
control_change channel=0 control=64 value=23 time=15
control_change channel=0 control=64 value=56 time=15
control_change channel=0 control=64 value=64 time=15
control_change channel=0 control=64 value=68 time=15
control_change channel=0 control=64 value=73 time=16
control_change channel=0 control=64 value=79 time=15
control_change channel=0 control=64 value=85 time=14
note_on channel=0 note=49 velocity=66 time=8
note_on channel=0 note=42 velocity=0 time=3
control_change channel=0 control=64 value=90 time=5
control_change channel=0 control=64 value=95 time=16
control_change channel=0 control=64 value=98 time=16
control_change channel=0 control=64 value=102 time=15
control_change channel=0 control=64 value=106 time=15
control_change channel=0 control=64 value=113 time=16
control_change channel=0 control=64 value=127 time=14
note_on channel=0 note=78 velocity=0 time=52
note_on channel=0 note=54 velocity=72 time=2
note_on channel=0 note=66 velocity=0 time=66
note_on channel=0 note=73 velocity=0 time=44
note_on channel=0 note=70 velocity=0 time=13
note_on channel=0 note=78 velocity=87 time=131
note_on channel=0 note=70 velocity=63 time=5
note_on channel=0 note=66 velocity=68 time=1
note_on channel=0 note=73 velocity=72 time=0
note_on channel=0 note=58 velocity=65 time=3
control_change channel=0 control=67 value=8 time=3128
control_change channel=0 control=67 value=9 time=16
control_change channel=0 control=67 value=11 time=14
control_change channel=0 control=67 value=13 time=15
control_change channel=0 control=67 value=15 time=16
control_change channel=0 control=67 value=19 time=15
control_change channel=0 control=67 value=22 time=16
control_change channel=0 control=67 value=25 time=14
control_change channel=0 control=67 value=29 time=15
control_change channel=0 control=67 value=33 time=16
control_change channel=0 control=67 value=36 time=15
control_change channel=0 control=67 value=39 time=15
control_change channel=0 control=67 value=42 time=15
control_change channel=0 control=67 value=44 time=15
control_change channel=0 control=67 value=47 time=16
control_change channel=0 control=67 value=51 time=15
note_on channel=0 note=66 velocity=0 time=10
control_change channel=0 control=67 value=54 time=4
note_on channel=0 note=78 velocity=0 time=11
control_change channel=0 control=67 value=57 time=5
control_change channel=0 control=67 value=61 time=15
note_on channel=0 note=58 velocity=0 time=2
control_change channel=0 control=67 value=64 time=13
control_change channel=0 control=67 value=67 time=16
control_change channel=0 control=67 value=71 time=14
control_change channel=0 control=67 value=74 time=16
control_change channel=0 control=67 value=77 time=15
note_on channel=0 note=54 velocity=0 time=6
control_change channel=0 control=67 value=80 time=9
note_on channel=0 note=49 velocity=0 time=9
control_change channel=0 control=67 value=82 time=7
note_on channel=0 note=70 velocity=0 time=2
note_on channel=0 note=73 velocity=0 time=10
control_change channel=0 control=67 value=85 time=2
control_change channel=0 control=67 value=88 time=15
control_change channel=0 control=67 value=90 time=16
control_change channel=0 control=67 value=93 time=15
control_change channel=0 control=67 value=97 time=16
control_change channel=0 control=67 value=101 time=15
control_change channel=0 control=67 value=105 time=15
control_change channel=0 control=67 value=110 time=16
control_change channel=0 control=67 value=114 time=13
control_change channel=0 control=67 value=117 time=16
control_change channel=0 control=67 value=121 time=15
control_change channel=0 control=67 value=125 time=16
control_change channel=0 control=67 value=127 time=16
control_change channel=0 control=64 value=122 time=265
control_change channel=0 control=64 value=117 time=16
control_change channel=0 control=64 value=113 time=14
control_change channel=0 control=64 value=111 time=15
control_change channel=0 control=64 value=109 time=16
control_change channel=0 control=64 value=107 time=15
control_change channel=0 control=64 value=105 time=16
control_change channel=0 control=64 value=103 time=14
control_change channel=0 control=64 value=102 time=15
control_change channel=0 control=64 value=101 time=16
control_change channel=0 control=64 value=99 time=15
control_change channel=0 control=64 value=98 time=16
control_change channel=0 control=64 value=97 time=14
control_change channel=0 control=64 value=95 time=15
control_change channel=0 control=64 value=94 time=16
control_change channel=0 control=64 value=93 time=15
control_change channel=0 control=64 value=92 time=14
control_change channel=0 control=64 value=90 time=16
control_change channel=0 control=64 value=89 time=15
control_change channel=0 control=64 value=88 time=16
control_change channel=0 control=64 value=87 time=15
control_change channel=0 control=64 value=85 time=14
control_change channel=0 control=64 value=85 time=16
control_change channel=0 control=64 value=84 time=15
control_change channel=0 control=64 value=83 time=15
control_change channel=0 control=64 value=83 time=16
control_change channel=0 control=64 value=82 time=15
control_change channel=0 control=64 value=82 time=16
control_change channel=0 control=64 value=81 time=15
control_change channel=0 control=64 value=81 time=14
control_change channel=0 control=64 value=80 time=16
control_change channel=0 control=64 value=79 time=15
control_change channel=0 control=64 value=78 time=15
control_change channel=0 control=64 value=77 time=16
control_change channel=0 control=64 value=77 time=14
control_change channel=0 control=64 value=76 time=16
control_change channel=0 control=64 value=75 time=16
control_change channel=0 control=64 value=74 time=23
control_change channel=0 control=64 value=73 time=15
control_change channel=0 control=64 value=73 time=15
control_change channel=0 control=64 value=72 time=30
control_change channel=0 control=64 value=71 time=15
control_change channel=0 control=64 value=70 time=16
control_change channel=0 control=64 value=70 time=30
control_change channel=0 control=64 value=69 time=15
control_change channel=0 control=64 value=68 time=15
control_change channel=0 control=64 value=67 time=16
control_change channel=0 control=64 value=67 time=31
control_change channel=0 control=64 value=66 time=15
control_change channel=0 control=64 value=65 time=14
control_change channel=0 control=64 value=64 time=46
control_change channel=0 control=67 value=127 time=0
control_change channel=0 control=64 value=63 time=16
control_change channel=0 control=67 value=125 time=0
control_change channel=0 control=64 value=60 time=14
control_change channel=0 control=67 value=124 time=0
control_change channel=0 control=64 value=57 time=16
control_change channel=0 control=67 value=121 time=0
control_change channel=0 control=67 value=118 time=15
control_change channel=0 control=64 value=56 time=15
control_change channel=0 control=67 value=114 time=0
control_change channel=0 control=64 value=54 time=16
control_change channel=0 control=67 value=109 time=0
control_change channel=0 control=64 value=45 time=14
control_change channel=0 control=67 value=103 time=0
control_change channel=0 control=64 value=38 time=15
control_change channel=0 control=67 value=96 time=0
control_change channel=0 control=64 value=37 time=16
control_change channel=0 control=67 value=90 time=0
control_change channel=0 control=64 value=33 time=15
control_change channel=0 control=67 value=85 time=0
control_change channel=0 control=64 value=0 time=15
control_change channel=0 control=67 value=80 time=0
control_change channel=0 control=67 value=74 time=15
control_change channel=0 control=67 value=69 time=15
control_change channel=0 control=67 value=64 time=16
control_change channel=0 control=67 value=60 time=15
control_change channel=0 control=67 value=57 time=14
note_on channel=0 note=47 velocity=28 time=10
control_change channel=0 control=67 value=52 time=6
note_on channel=0 note=35 velocity=26 time=9
control_change channel=0 control=67 value=47 time=6
control_change channel=0 control=67 value=43 time=16
control_change channel=0 control=67 value=39 time=15
note_on channel=0 note=51 velocity=38 time=3
control_change channel=0 control=67 value=36 time=11
control_change channel=0 control=67 value=33 time=16
control_change channel=0 control=67 value=29 time=15
control_change channel=0 control=64 value=21 time=16
control_change channel=0 control=67 value=25 time=0
control_change channel=0 control=64 value=52 time=15
control_change channel=0 control=67 value=21 time=0
control_change channel=0 control=64 value=61 time=15
control_change channel=0 control=67 value=16 time=0
control_change channel=0 control=64 value=63 time=16
control_change channel=0 control=67 value=12 time=0
control_change channel=0 control=64 value=65 time=15
control_change channel=0 control=67 value=0 time=0
control_change channel=0 control=64 value=66 time=14
control_change channel=0 control=64 value=67 time=16
control_change channel=0 control=64 value=68 time=15
control_change channel=0 control=64 value=70 time=23
control_change channel=0 control=64 value=72 time=15
control_change channel=0 control=64 value=73 time=17
control_change channel=0 control=64 value=74 time=15
control_change channel=0 control=64 value=76 time=14
control_change channel=0 control=64 value=78 time=16
note_on channel=0 note=54 velocity=51 time=5
control_change channel=0 control=64 value=81 time=10
control_change channel=0 control=64 value=84 time=14
control_change channel=0 control=64 value=86 time=16
control_change channel=0 control=64 value=88 time=15
note_on channel=0 note=47 velocity=0 time=8
control_change channel=0 control=64 value=91 time=8
control_change channel=0 control=64 value=94 time=15
control_change channel=0 control=64 value=98 time=14
control_change channel=0 control=64 value=102 time=16
control_change channel=0 control=64 value=106 time=15
control_change channel=0 control=64 value=111 time=15
control_change channel=0 control=64 value=122 time=16
control_change channel=0 control=64 value=127 time=14
note_on channel=0 note=54 velocity=0 time=3
note_on channel=0 note=63 velocity=73 time=6
note_on channel=0 note=51 velocity=0 time=1
note_on channel=0 note=35 velocity=0 time=82
note_on channel=0 note=63 velocity=0 time=31
control_change channel=0 control=64 value=116 time=61
control_change channel=0 control=64 value=99 time=14
note_on channel=0 note=49 velocity=52 time=4
note_on channel=0 note=63 velocity=68 time=4
control_change channel=0 control=64 value=83 time=8
note_on channel=0 note=37 velocity=46 time=4
control_change channel=0 control=64 value=68 time=11
note_on channel=0 note=52 velocity=42 time=1
control_change channel=0 control=64 value=0 time=14
control_change channel=0 control=64 value=36 time=61
control_change channel=0 control=64 value=57 time=15
control_change channel=0 control=64 value=63 time=15
control_change channel=0 control=64 value=65 time=15
control_change channel=0 control=64 value=66 time=15
control_change channel=0 control=64 value=68 time=17
control_change channel=0 control=64 value=71 time=15
control_change channel=0 control=64 value=75 time=15
control_change channel=0 control=64 value=79 time=15
control_change channel=0 control=64 value=83 time=15
control_change channel=0 control=64 value=86 time=15
control_change channel=0 control=64 value=89 time=15
control_change channel=0 control=64 value=93 time=15
note_on channel=0 note=61 velocity=74 time=7
control_change channel=0 control=64 value=97 time=17
control_change channel=0 control=64 value=100 time=15
note_on channel=0 note=52 velocity=0 time=9
control_change channel=0 control=64 value=102 time=6
control_change channel=0 control=64 value=104 time=15
note_on channel=0 note=63 velocity=0 time=1
control_change channel=0 control=64 value=107 time=15
note_on channel=0 note=37 velocity=0 time=5
control_change channel=0 control=64 value=109 time=11
note_on channel=0 note=49 velocity=0 time=9
control_change channel=0 control=64 value=110 time=6
control_change channel=0 control=64 value=111 time=16
control_change channel=0 control=64 value=110 time=45
note_on channel=0 note=61 velocity=0 time=24
control_change channel=0 control=64 value=108 time=36
control_change channel=0 control=64 value=105 time=16
control_change channel=0 control=64 value=100 time=15
control_change channel=0 control=64 value=91 time=14
control_change channel=0 control=64 value=79 time=16
note_on channel=0 note=51 velocity=45 time=13
note_on channel=0 note=39 velocity=45 time=1
control_change channel=0 control=64 value=65 time=1
note_on channel=0 note=61 velocity=60 time=4
note_on channel=0 note=54 velocity=44 time=4
control_change channel=0 control=64 value=0 time=8
control_change channel=0 control=64 value=37 time=105
control_change channel=0 control=64 value=54 time=16
control_change channel=0 control=64 value=62 time=15
control_change channel=0 control=64 value=65 time=14
control_change channel=0 control=64 value=67 time=16
control_change channel=0 control=64 value=70 time=15
control_change channel=0 control=67 value=8 time=0
control_change channel=0 control=64 value=72 time=16
control_change channel=0 control=67 value=10 time=0
control_change channel=0 control=64 value=75 time=15
control_change channel=0 control=67 value=12 time=0
control_change channel=0 control=64 value=77 time=15
control_change channel=0 control=67 value=15 time=0
control_change channel=0 control=64 value=81 time=16
control_change channel=0 control=67 value=19 time=0
note_on channel=0 note=51 velocity=0 time=6
control_change channel=0 control=64 value=84 time=9
control_change channel=0 control=67 value=24 time=0
control_change channel=0 control=64 value=87 time=15
control_change channel=0 control=67 value=29 time=0
control_change channel=0 control=64 value=89 time=15
control_change channel=0 control=67 value=34 time=0
note_on channel=0 note=59 velocity=58 time=8
note_on channel=0 note=61 velocity=0 time=4
control_change channel=0 control=64 value=92 time=3
control_change channel=0 control=67 value=38 time=0
control_change channel=0 control=64 value=95 time=16
control_change channel=0 control=67 value=43 time=0
note_on channel=0 note=39 velocity=0 time=6
control_change channel=0 control=64 value=97 time=9
control_change channel=0 control=67 value=49 time=0
control_change channel=0 control=64 value=97 time=15
control_change channel=0 control=67 value=54 time=0
note_on channel=0 note=59 velocity=0 time=8
control_change channel=0 control=67 value=59 time=7
control_change channel=0 control=67 value=64 time=15
note_on channel=0 note=54 velocity=0 time=10
control_change channel=0 control=67 value=69 time=5
control_change channel=0 control=67 value=73 time=15
control_change channel=0 control=67 value=75 time=15
control_change channel=0 control=67 value=76 time=16
control_change channel=0 control=67 value=77 time=22
control_change channel=0 control=67 value=80 time=16
control_change channel=0 control=67 value=83 time=15
control_change channel=0 control=67 value=86 time=15
control_change channel=0 control=67 value=87 time=16
control_change channel=0 control=67 value=88 time=15
control_change channel=0 control=64 value=97 time=15
control_change channel=0 control=67 value=89 time=0
control_change channel=0 control=64 value=96 time=15
control_change channel=0 control=67 value=90 time=0
control_change channel=0 control=64 value=96 time=15
control_change channel=0 control=67 value=91 time=0
control_change channel=0 control=64 value=95 time=17
control_change channel=0 control=67 value=92 time=0
control_change channel=0 control=64 value=94 time=15
control_change channel=0 control=67 value=93 time=0
control_change channel=0 control=64 value=92 time=14
control_change channel=0 control=67 value=93 time=0
control_change channel=0 control=64 value=90 time=16
control_change channel=0 control=67 value=94 time=0
control_change channel=0 control=64 value=86 time=15
control_change channel=0 control=67 value=94 time=0
note_on channel=0 note=57 velocity=47 time=1
control_change channel=0 control=64 value=80 time=15
control_change channel=0 control=67 value=95 time=0
note_on channel=0 note=34 velocity=35 time=1
note_on channel=0 note=52 velocity=31 time=5
note_on channel=0 note=46 velocity=27 time=7
control_change channel=0 control=64 value=71 time=2
control_change channel=0 control=67 value=96 time=0
control_change channel=0 control=64 value=60 time=15
control_change channel=0 control=67 value=96 time=0
control_change channel=0 control=64 value=0 time=15
control_change channel=0 control=64 value=21 time=61
control_change channel=0 control=64 value=35 time=15
control_change channel=0 control=64 value=45 time=15
control_change channel=0 control=64 value=54 time=15
control_change channel=0 control=64 value=59 time=16
control_change channel=0 control=64 value=62 time=15
control_change channel=0 control=64 value=64 time=14
control_change channel=0 control=64 value=65 time=16
control_change channel=0 control=64 value=66 time=15
control_change channel=0 control=64 value=68 time=15
control_change channel=0 control=67 value=96 time=0
control_change channel=0 control=64 value=70 time=15
control_change channel=0 control=67 value=95 time=0
control_change channel=0 control=64 value=72 time=15
control_change channel=0 control=67 value=95 time=0
control_change channel=0 control=64 value=74 time=16
control_change channel=0 control=64 value=76 time=15
control_change channel=0 control=64 value=78 time=14
control_change channel=0 control=67 value=94 time=0
control_change channel=0 control=64 value=80 time=16
control_change channel=0 control=67 value=93 time=0
note_on channel=0 note=34 velocity=0 time=3
control_change channel=0 control=64 value=83 time=12
control_change channel=0 control=64 value=86 time=16
control_change channel=0 control=64 value=88 time=15
control_change channel=0 control=67 value=93 time=0
control_change channel=0 control=64 value=90 time=15
control_change channel=0 control=67 value=92 time=0
control_change channel=0 control=64 value=92 time=16
control_change channel=0 control=64 value=95 time=14
control_change channel=0 control=64 value=97 time=16
note_on channel=0 note=57 velocity=0 time=2
control_change channel=0 control=64 value=99 time=12
note_on channel=0 note=55 velocity=44 time=6
control_change channel=0 control=64 value=101 time=9
control_change channel=0 control=67 value=91 time=0
control_change channel=0 control=64 value=104 time=16
note_on channel=0 note=52 velocity=0 time=10
control_change channel=0 control=64 value=108 time=5
note_on channel=0 note=46 velocity=0 time=10
control_change channel=0 control=64 value=111 time=5
control_change channel=0 control=67 value=90 time=0
control_change channel=0 control=64 value=113 time=15
control_change channel=0 control=67 value=89 time=0
note_on channel=0 note=55 velocity=0 time=11
control_change channel=0 control=64 value=116 time=12
control_change channel=0 control=64 value=118 time=16
control_change channel=0 control=64 value=122 time=14
control_change channel=0 control=67 value=89 time=0
control_change channel=0 control=64 value=126 time=16
control_change channel=0 control=67 value=88 time=0
control_change channel=0 control=64 value=127 time=15
control_change channel=0 control=67 value=88 time=0
control_change channel=0 control=67 value=87 time=31
control_change channel=0 control=67 value=86 time=14
control_change channel=0 control=67 value=86 time=15
control_change channel=0 control=67 value=85 time=16
control_change channel=0 control=67 value=84 time=15
control_change channel=0 control=67 value=84 time=16
control_change channel=0 control=67 value=83 time=16
control_change channel=0 control=67 value=82 time=14
control_change channel=0 control=67 value=80 time=16
control_change channel=0 control=67 value=78 time=15
control_change channel=0 control=67 value=74 time=15
control_change channel=0 control=67 value=69 time=15
control_change channel=0 control=67 value=65 time=15
control_change channel=0 control=67 value=61 time=16
control_change channel=0 control=67 value=57 time=15
control_change channel=0 control=67 value=51 time=15
control_change channel=0 control=67 value=44 time=15
control_change channel=0 control=67 value=37 time=15
control_change channel=0 control=67 value=31 time=16
control_change channel=0 control=67 value=26 time=15
control_change channel=0 control=67 value=18 time=15
control_change channel=0 control=67 value=11 time=15
control_change channel=0 control=67 value=0 time=15
control_change channel=0 control=64 value=102 time=15
control_change channel=0 control=64 value=81 time=15
control_change channel=0 control=64 value=67 time=15
note_on channel=0 note=46 velocity=86 time=1
note_on channel=0 note=55 velocity=91 time=5
control_change channel=0 control=64 value=69 time=10
note_on channel=0 note=79 velocity=85 time=12
control_change channel=0 control=64 value=75 time=3
note_on channel=0 note=67 velocity=68 time=4
control_change channel=0 control=64 value=83 time=11
control_change channel=0 control=64 value=96 time=15
control_change channel=0 control=64 value=127 time=15
note_on channel=0 note=67 velocity=0 time=28
note_on channel=0 note=79 velocity=0 time=66
note_on channel=0 note=54 velocity=91 time=65
note_on channel=0 note=66 velocity=83 time=0
note_on channel=0 note=78 velocity=95 time=4
note_on channel=0 note=55 velocity=0 time=5
note_on channel=0 note=66 velocity=0 time=13
note_on channel=0 note=46 velocity=0 time=7
note_on channel=0 note=51 velocity=45 time=2
note_on channel=0 note=54 velocity=0 time=18
note_on channel=0 note=78 velocity=0 time=3
note_on channel=0 note=51 velocity=0 time=21
note_on channel=0 note=63 velocity=16 time=154
note_on channel=0 note=66 velocity=85 time=27
note_on channel=0 note=92 velocity=101 time=2
note_on channel=0 note=62 velocity=65 time=2
note_on channel=0 note=80 velocity=92 time=3
note_on channel=0 note=88 velocity=83 time=0
note_on channel=0 note=62 velocity=0 time=55
note_on channel=0 note=67 velocity=5 time=0
note_on channel=0 note=63 velocity=0 time=31
note_on channel=0 note=66 velocity=0 time=12
note_on channel=0 note=67 velocity=0 time=8
note_on channel=0 note=80 velocity=0 time=33
note_on channel=0 note=92 velocity=0 time=17
note_on channel=0 note=88 velocity=0 time=22
note_on channel=0 note=64 velocity=54 time=43
note_on channel=0 note=88 velocity=72 time=4
note_on channel=0 note=92 velocity=102 time=0
control_change channel=0 control=64 value=79 time=2
note_on channel=0 note=80 velocity=97 time=0
note_on channel=0 note=68 velocity=89 time=1
note_on channel=0 note=54 velocity=71 time=13
control_change channel=0 control=64 value=0 time=2
note_on channel=0 note=56 velocity=40 time=12
note_on channel=0 note=56 velocity=0 time=40
control_change channel=0 control=64 value=44 time=8
control_change channel=0 control=64 value=67 time=16
control_change channel=0 control=64 value=76 time=14
control_change channel=0 control=64 value=86 time=15
control_change channel=0 control=64 value=96 time=16
note_on channel=0 note=68 velocity=0 time=4
control_change channel=0 control=64 value=103 time=11
note_on channel=0 note=64 velocity=0 time=10
control_change channel=0 control=64 value=107 time=5
control_change channel=0 control=64 value=110 time=15
control_change channel=0 control=64 value=123 time=15
note_on channel=0 note=80 velocity=0 time=3
control_change channel=0 control=64 value=127 time=14
note_on channel=0 note=88 velocity=0 time=20
note_on channel=0 note=92 velocity=0 time=13
note_on channel=0 note=63 velocity=80 time=51
note_on channel=0 note=90 velocity=104 time=5
note_on channel=0 note=66 velocity=83 time=1
note_on channel=0 note=78 velocity=93 time=0
note_on channel=0 note=87 velocity=48 time=26
note_on channel=0 note=87 velocity=0 time=35
note_on channel=0 note=54 velocity=0 time=67
note_on channel=0 note=66 velocity=0 time=15
note_on channel=0 note=78 velocity=0 time=28
note_on channel=0 note=63 velocity=0 time=3
note_on channel=0 note=90 velocity=0 time=42
control_change channel=0 control=64 value=102 time=35
control_change channel=0 control=64 value=72 time=15
note_on channel=0 note=63 velocity=76 time=15
note_on channel=0 note=66 velocity=84 time=0
control_change channel=0 control=64 value=0 time=1
note_on channel=0 note=54 velocity=66 time=2
note_on channel=0 note=90 velocity=104 time=3
note_on channel=0 note=78 velocity=91 time=6
control_change channel=0 control=64 value=27 time=3
control_change channel=0 control=64 value=57 time=16
control_change channel=0 control=64 value=64 time=16
control_change channel=0 control=64 value=72 time=15
control_change channel=0 control=64 value=82 time=16
control_change channel=0 control=64 value=97 time=15
control_change channel=0 control=64 value=114 time=16
control_change channel=0 control=64 value=127 time=14
note_on channel=0 note=66 velocity=0 time=27
note_on channel=0 note=63 velocity=0 time=1
note_on channel=0 note=90 velocity=0 time=18
note_on channel=0 note=78 velocity=0 time=53
note_on channel=0 note=88 velocity=104 time=68
note_on channel=0 note=76 velocity=94 time=3
note_on channel=0 note=64 velocity=75 time=4
note_on channel=0 note=61 velocity=78 time=1
note_on channel=0 note=85 velocity=85 time=2
note_on channel=0 note=76 velocity=0 time=31
note_on channel=0 note=88 velocity=0 time=30
note_on channel=0 note=85 velocity=0 time=3
note_on channel=0 note=64 velocity=0 time=98
note_on channel=0 note=54 velocity=0 time=3
note_on channel=0 note=61 velocity=0 time=9
note_on channel=0 note=64 velocity=69 time=139
note_on channel=0 note=61 velocity=68 time=2
control_change channel=0 control=64 value=117 time=2
note_on channel=0 note=54 velocity=64 time=1
note_on channel=0 note=88 velocity=90 time=3
note_on channel=0 note=85 velocity=84 time=1
note_on channel=0 note=76 velocity=86 time=2
control_change channel=0 control=64 value=85 time=9
control_change channel=0 control=64 value=59 time=15
control_change channel=0 control=64 value=0 time=14
control_change channel=0 control=64 value=51 time=61
control_change channel=0 control=64 value=64 time=15
control_change channel=0 control=64 value=69 time=16
control_change channel=0 control=64 value=75 time=15
note_on channel=0 note=61 velocity=0 time=13
control_change channel=0 control=64 value=80 time=1
control_change channel=0 control=64 value=85 time=16
control_change channel=0 control=64 value=91 time=15
control_change channel=0 control=64 value=97 time=16
control_change channel=0 control=64 value=104 time=15
note_on channel=0 note=76 velocity=0 time=10
control_change channel=0 control=64 value=112 time=6
control_change channel=0 control=64 value=127 time=16
note_on channel=0 note=88 velocity=0 time=16
note_on channel=0 note=85 velocity=0 time=10
note_on channel=0 note=85 velocity=85 time=127
note_on channel=0 note=73 velocity=71 time=10
note_on channel=0 note=64 velocity=0 time=4
note_on channel=0 note=58 velocity=52 time=8
note_on channel=0 note=61 velocity=63 time=3
note_on channel=0 note=73 velocity=0 time=5
note_on channel=0 note=85 velocity=0 time=39
note_on channel=0 note=61 velocity=0 time=12
note_on channel=0 note=58 velocity=0 time=28
note_on channel=0 note=54 velocity=0 time=1
control_change channel=0 control=64 value=118 time=442
control_change channel=0 control=64 value=104 time=16
control_change channel=0 control=64 value=92 time=15
note_on channel=0 note=37 velocity=37 time=4
note_on channel=0 note=49 velocity=36 time=4
control_change channel=0 control=64 value=81 time=8
control_change channel=0 control=64 value=69 time=15
control_change channel=0 control=64 value=0 time=15
note_on channel=0 note=52 velocity=39 time=30
control_change channel=0 control=64 value=47 time=139
control_change channel=0 control=64 value=65 time=15
control_change channel=0 control=64 value=71 time=14
control_change channel=0 control=64 value=74 time=16
note_on channel=0 note=58 velocity=60 time=11
control_change channel=0 control=64 value=77 time=4
control_change channel=0 control=64 value=81 time=15
control_change channel=0 control=64 value=86 time=16
control_change channel=0 control=64 value=92 time=14
control_change channel=0 control=64 value=97 time=16
control_change channel=0 control=64 value=101 time=15
note_on channel=0 note=37 velocity=0 time=7
control_change channel=0 control=64 value=104 time=7
control_change channel=0 control=64 value=106 time=16
control_change channel=0 control=64 value=109 time=15
control_change channel=0 control=64 value=111 time=15
note_on channel=0 note=52 velocity=0 time=11
control_change channel=0 control=64 value=113 time=5
note_on channel=0 note=49 velocity=0 time=4
note_on channel=0 note=64 velocity=75 time=0
note_on channel=0 note=58 velocity=0 time=16
note_on channel=0 note=64 velocity=0 time=78
control_change channel=0 control=64 value=111 time=31
control_change channel=0 control=64 value=109 time=15
control_change channel=0 control=64 value=106 time=15
control_change channel=0 control=64 value=98 time=15
control_change channel=0 control=64 value=87 time=16
note_on channel=0 note=51 velocity=59 time=13
control_change channel=0 control=64 value=73 time=2
note_on channel=0 note=39 velocity=49 time=9
note_on channel=0 note=64 velocity=60 time=0
control_change channel=0 control=64 value=24 time=6
note_on channel=0 note=54 velocity=44 time=1
note_on channel=0 note=59 velocity=31 time=6
control_change channel=0 control=64 value=0 time=8
control_change channel=0 control=64 value=46 time=198
control_change channel=0 control=64 value=63 time=16
control_change channel=0 control=64 value=68 time=15
note_on channel=0 note=64 velocity=0 time=4
control_change channel=0 control=64 value=72 time=12
control_change channel=0 control=64 value=74 time=15
note_on channel=0 note=63 velocity=72 time=1
note_on channel=0 note=54 velocity=0 time=1
control_change channel=0 control=64 value=78 time=13
note_on channel=0 note=59 velocity=0 time=11
control_change channel=0 control=64 value=84 time=4
control_change channel=0 control=64 value=92 time=15
control_change channel=0 control=64 value=97 time=16
control_change channel=0 control=64 value=98 time=15
note_on channel=0 note=51 velocity=0 time=13
control_change channel=0 control=64 value=99 time=1
control_change channel=0 control=64 value=100 time=16
note_on channel=0 note=39 velocity=0 time=29
note_on channel=0 note=63 velocity=0 time=28
control_change channel=0 control=64 value=99 time=18
control_change channel=0 control=64 value=97 time=15
control_change channel=0 control=64 value=94 time=14
control_change channel=0 control=64 value=88 time=16
control_change channel=0 control=64 value=79 time=15
control_change channel=0 control=64 value=66 time=16
control_change channel=0 control=64 value=0 time=15
note_on channel=0 note=52 velocity=44 time=9
note_on channel=0 note=63 velocity=63 time=0
note_on channel=0 note=55 velocity=48 time=16
note_on channel=0 note=40 velocity=36 time=3
control_change channel=0 control=64 value=44 time=162
control_change channel=0 control=64 value=58 time=15
control_change channel=0 control=64 value=65 time=16
note_on channel=0 note=52 velocity=0 time=11
control_change channel=0 control=64 value=70 time=4
control_change channel=0 control=64 value=76 time=14
control_change channel=0 control=64 value=81 time=16
control_change channel=0 control=64 value=85 time=15
note_on channel=0 note=40 velocity=0 time=10
control_change channel=0 control=64 value=88 time=5
control_change channel=0 control=64 value=93 time=16
control_change channel=0 control=64 value=98 time=15
control_change channel=0 control=64 value=100 time=16
note_on channel=0 note=63 velocity=0 time=3
note_on channel=0 note=61 velocity=61 time=7
control_change channel=0 control=64 value=101 time=4
control_change channel=0 control=64 value=105 time=15
note_on channel=0 note=55 velocity=0 time=13
control_change channel=0 control=64 value=109 time=3
control_change channel=0 control=64 value=113 time=15
control_change channel=0 control=64 value=116 time=15
note_on channel=0 note=61 velocity=0 time=12
control_change channel=0 control=64 value=117 time=3
control_change channel=0 control=64 value=116 time=108
control_change channel=0 control=64 value=116 time=45
control_change channel=0 control=64 value=114 time=15
control_change channel=0 control=64 value=112 time=15
control_change channel=0 control=64 value=110 time=16
control_change channel=0 control=64 value=107 time=15
control_change channel=0 control=64 value=101 time=16
control_change channel=0 control=64 value=93 time=15
control_change channel=0 control=64 value=83 time=15
note_on channel=0 note=59 velocity=40 time=5
control_change channel=0 control=64 value=70 time=11
note_on channel=0 note=55 velocity=18 time=1
note_on channel=0 note=47 velocity=30 time=2
note_on channel=0 note=35 velocity=31 time=5
control_change channel=0 control=64 value=46 time=7
control_change channel=0 control=64 value=0 time=14
control_change channel=0 control=64 value=29 time=31
note_on channel=0 note=55 velocity=0 time=9
control_change channel=0 control=64 value=52 time=14
control_change channel=0 control=64 value=60 time=15
control_change channel=0 control=64 value=63 time=16
control_change channel=0 control=64 value=64 time=15
control_change channel=0 control=64 value=66 time=15
control_change channel=0 control=64 value=69 time=15
control_change channel=0 control=64 value=71 time=15
control_change channel=0 control=64 value=74 time=15
control_change channel=0 control=64 value=76 time=16
control_change channel=0 control=64 value=79 time=15
control_change channel=0 control=64 value=82 time=15
note_on channel=0 note=35 velocity=0 time=6
control_change channel=0 control=64 value=86 time=9
control_change channel=0 control=64 value=89 time=15
control_change channel=0 control=64 value=91 time=16
control_change channel=0 control=64 value=93 time=14
control_change channel=0 control=64 value=95 time=16
note_on channel=0 note=47 velocity=0 time=4
control_change channel=0 control=64 value=98 time=11
control_change channel=0 control=64 value=102 time=15
control_change channel=0 control=64 value=107 time=16
control_change channel=0 control=64 value=112 time=14
note_on channel=0 note=59 velocity=0 time=12
control_change channel=0 control=64 value=118 time=3
control_change channel=0 control=64 value=127 time=16
note_on channel=0 note=55 velocity=47 time=11
note_on channel=0 note=52 velocity=32 time=12
note_on channel=0 note=52 velocity=0 time=44
note_on channel=0 note=55 velocity=0 time=3
control_change channel=0 control=64 value=119 time=325
control_change channel=0 control=64 value=84 time=15
note_on channel=0 note=55 velocity=93 time=8
note_on channel=0 note=47 velocity=80 time=1
control_change channel=0 control=64 value=68 time=6
control_change channel=0 control=64 value=71 time=23
note_on channel=0 note=79 velocity=94 time=3
note_on channel=0 note=67 velocity=81 time=5
control_change channel=0 control=64 value=79 time=7
control_change channel=0 control=64 value=89 time=16
control_change channel=0 control=64 value=108 time=15
control_change channel=0 control=64 value=127 time=16
note_on channel=0 note=67 velocity=0 time=9
note_on channel=0 note=79 velocity=0 time=85
note_on channel=0 note=56 velocity=93 time=40
note_on channel=0 note=47 velocity=0 time=3
note_on channel=0 note=68 velocity=95 time=0
note_on channel=0 note=80 velocity=98 time=0
note_on channel=0 note=55 velocity=0 time=22
note_on channel=0 note=68 velocity=0 time=0
note_on channel=0 note=56 velocity=0 time=18
note_on channel=0 note=80 velocity=0 time=10
note_on channel=0 note=68 velocity=69 time=182
note_on channel=0 note=71 velocity=85 time=0
note_on channel=0 note=95 velocity=103 time=0
note_on channel=0 note=83 velocity=106 time=1
note_on channel=0 note=92 velocity=88 time=7
note_on channel=0 note=94 velocity=55 time=23
note_on channel=0 note=94 velocity=0 time=24
note_on channel=0 note=83 velocity=0 time=10
note_on channel=0 note=92 velocity=0 time=20
note_on channel=0 note=71 velocity=0 time=2
note_on channel=0 note=95 velocity=0 time=5
note_on channel=0 note=68 velocity=0 time=19
control_change channel=0 control=64 value=88 time=96
note_on channel=0 note=68 velocity=88 time=7
note_on channel=0 note=71 velocity=92 time=4
note_on channel=0 note=95 velocity=101 time=2
note_on channel=0 note=83 velocity=97 time=1
control_change channel=0 control=64 value=56 time=1
note_on channel=0 note=92 velocity=91 time=0
note_on channel=0 note=59 velocity=71 time=5
control_change channel=0 control=64 value=0 time=11
control_change channel=0 control=64 value=31 time=15
control_change channel=0 control=64 value=61 time=15
control_change channel=0 control=64 value=67 time=15
control_change channel=0 control=64 value=73 time=15
control_change channel=0 control=64 value=83 time=16
control_change channel=0 control=64 value=99 time=23
control_change channel=0 control=64 value=115 time=15
note_on channel=0 note=92 velocity=0 time=5
note_on channel=0 note=68 velocity=0 time=1
control_change channel=0 control=64 value=127 time=9
note_on channel=0 note=83 velocity=0 time=34
note_on channel=0 note=95 velocity=0 time=32
note_on channel=0 note=92 velocity=95 time=98
note_on channel=0 note=68 velocity=90 time=2
note_on channel=0 note=80 velocity=103 time=1
note_on channel=0 note=64 velocity=71 time=20
note_on channel=0 note=71 velocity=0 time=2
note_on channel=0 note=59 velocity=0 time=31
note_on channel=0 note=64 velocity=0 time=1
note_on channel=0 note=68 velocity=0 time=1
note_on channel=0 note=92 velocity=0 time=12
note_on channel=0 note=80 velocity=0 time=33
control_change channel=0 control=64 value=86 time=128
control_change channel=0 control=64 value=75 time=15
note_on channel=0 note=68 velocity=87 time=4
note_on channel=0 note=64 velocity=69 time=1
note_on channel=0 note=59 velocity=66 time=7
control_change channel=0 control=64 value=78 time=4
note_on channel=0 note=80 velocity=99 time=6
note_on channel=0 note=92 velocity=98 time=2
control_change channel=0 control=64 value=89 time=7
note_on channel=0 note=88 velocity=49 time=2
control_change channel=0 control=64 value=110 time=12
note_on channel=0 note=88 velocity=0 time=13
control_change channel=0 control=64 value=127 time=3
note_on channel=0 note=92 velocity=0 time=33
note_on channel=0 note=68 velocity=0 time=123
note_on channel=0 note=56 velocity=82 time=18
note_on channel=0 note=64 velocity=0 time=3
note_on channel=0 note=80 velocity=0 time=3
note_on channel=0 note=59 velocity=0 time=9
note_on channel=0 note=56 velocity=0 time=22
note_on channel=0 note=88 velocity=104 time=41
note_on channel=0 note=76 velocity=91 time=1
note_on channel=0 note=80 velocity=78 time=12
note_on channel=0 note=47 velocity=79 time=111
note_on channel=0 note=56 velocity=89 time=58
note_on channel=0 note=88 velocity=0 time=10
note_on channel=0 note=76 velocity=0 time=7
note_on channel=0 note=47 velocity=0 time=2
note_on channel=0 note=80 velocity=0 time=12
control_change channel=0 control=64 value=92 time=60
control_change channel=0 control=64 value=64 time=15
note_on channel=0 note=88 velocity=101 time=9
note_on channel=0 note=64 velocity=80 time=5
note_on channel=0 note=76 velocity=93 time=1
control_change channel=0 control=64 value=0 time=1
note_on channel=0 note=80 velocity=84 time=4
control_change channel=0 control=64 value=54 time=10
control_change channel=0 control=64 value=65 time=15
control_change channel=0 control=64 value=72 time=16
control_change channel=0 control=64 value=83 time=15
control_change channel=0 control=64 value=102 time=14
control_change channel=0 control=64 value=127 time=16
note_on channel=0 note=88 velocity=0 time=32
note_on channel=0 note=64 velocity=0 time=9
note_on channel=0 note=80 velocity=0 time=7
note_on channel=0 note=76 velocity=0 time=88
note_on channel=0 note=59 velocity=57 time=165
note_on channel=0 note=56 velocity=0 time=9
note_on channel=0 note=52 velocity=55 time=1
note_on channel=0 note=83 velocity=86 time=12
note_on channel=0 note=71 velocity=73 time=5
note_on channel=0 note=80 velocity=50 time=11
note_on channel=0 note=71 velocity=0 time=13
note_on channel=0 note=80 velocity=0 time=10
note_on channel=0 note=59 velocity=0 time=1
note_on channel=0 note=83 velocity=0 time=13
note_on channel=0 note=52 velocity=0 time=22
control_change channel=0 control=64 value=114 time=295
control_change channel=0 control=64 value=81 time=16
control_change channel=0 control=64 value=0 time=15
note_on channel=0 note=48 velocity=39 time=20
note_on channel=0 note=36 velocity=41 time=1
control_change channel=0 control=64 value=54 time=85
control_change channel=0 control=64 value=66 time=15
control_change channel=0 control=64 value=73 time=15
note_on channel=0 note=48 velocity=0 time=14
control_change channel=0 control=64 value=79 time=2
note_on channel=0 note=36 velocity=0 time=13
control_change channel=0 control=64 value=88 time=2
control_change channel=0 control=64 value=94 time=14
control_change channel=0 control=64 value=98 time=16
note_on channel=0 note=55 velocity=55 time=11
control_change channel=0 control=64 value=103 time=6
control_change channel=0 control=64 value=114 time=15
control_change channel=0 control=64 value=127 time=15
note_on channel=0 note=55 velocity=0 time=134
note_on channel=0 note=64 velocity=67 time=1
note_on channel=0 note=60 velocity=53 time=14
note_on channel=0 note=60 velocity=0 time=51
note_on channel=0 note=64 velocity=0 time=17
control_change channel=0 control=64 value=98 time=127
note_on channel=0 note=31 velocity=49 time=7
note_on channel=0 note=64 velocity=60 time=0
note_on channel=0 note=43 velocity=42 time=5
control_change channel=0 control=64 value=76 time=3
control_change channel=0 control=64 value=43 time=15
note_on channel=0 note=59 velocity=36 time=2
note_on channel=0 note=53 velocity=41 time=1
control_change channel=0 control=64 value=0 time=12
control_change channel=0 control=64 value=35 time=30
note_on channel=0 note=59 velocity=0 time=10
control_change channel=0 control=64 value=63 time=5
control_change channel=0 control=64 value=69 time=15
control_change channel=0 control=64 value=73 time=16
control_change channel=0 control=64 value=78 time=15
note_on channel=0 note=53 velocity=0 time=5
control_change channel=0 control=64 value=82 time=10
note_on channel=0 note=31 velocity=0 time=0
control_change channel=0 control=64 value=88 time=15
control_change channel=0 control=64 value=94 time=15
control_change channel=0 control=64 value=100 time=16
note_on channel=0 note=43 velocity=0 time=6
control_change channel=0 control=64 value=104 time=9
control_change channel=0 control=64 value=108 time=16
control_change channel=0 control=64 value=116 time=15
control_change channel=0 control=64 value=127 time=15
note_on channel=0 note=64 velocity=0 time=16
note_on channel=0 note=62 velocity=64 time=32
note_on channel=0 note=62 velocity=0 time=31
note_on channel=0 note=54 velocity=79 time=199
control_change channel=0 control=64 value=101 time=10
control_change channel=0 control=64 value=86 time=15
control_change channel=0 control=64 value=84 time=15
note_on channel=0 note=78 velocity=90 time=6
note_on channel=0 note=66 velocity=87 time=3
control_change channel=0 control=64 value=90 time=7
control_change channel=0 control=64 value=99 time=22
control_change channel=0 control=64 value=115 time=16
control_change channel=0 control=64 value=127 time=16
note_on channel=0 note=66 velocity=0 time=11
note_on channel=0 note=54 velocity=0 time=14
note_on channel=0 note=78 velocity=0 time=35
note_on channel=0 note=67 velocity=94 time=44
note_on channel=0 note=55 velocity=80 time=3
note_on channel=0 note=79 velocity=101 time=1
note_on channel=0 note=67 velocity=0 time=26
note_on channel=0 note=55 velocity=0 time=15
note_on channel=0 note=79 velocity=0 time=7
note_on channel=0 note=69 velocity=83 time=117
note_on channel=0 note=65 velocity=59 time=1
note_on channel=0 note=93 velocity=105 time=22
note_on channel=0 note=81 velocity=96 time=2
note_on channel=0 note=89 velocity=92 time=0
note_on channel=0 note=69 velocity=0 time=26
note_on channel=0 note=65 velocity=0 time=34
note_on channel=0 note=81 velocity=0 time=3
note_on channel=0 note=55 velocity=75 time=10
note_on channel=0 note=89 velocity=0 time=17
note_on channel=0 note=93 velocity=0 time=4
note_on channel=0 note=65 velocity=83 time=44
control_change channel=0 control=64 value=86 time=19
control_change channel=0 control=64 value=36 time=16
note_on channel=0 note=81 velocity=99 time=12
note_on channel=0 note=93 velocity=104 time=0
note_on channel=0 note=89 velocity=80 time=1
control_change channel=0 control=64 value=0 time=2
note_on channel=0 note=69 velocity=92 time=6
control_change channel=0 control=64 value=62 time=40
control_change channel=0 control=64 value=77 time=16
control_change channel=0 control=64 value=97 time=14
control_change channel=0 control=64 value=127 time=15
note_on channel=0 note=89 velocity=0 time=8
note_on channel=0 note=65 velocity=0 time=28
note_on channel=0 note=93 velocity=0 time=1
note_on channel=0 note=69 velocity=0 time=43
note_on channel=0 note=81 velocity=0 time=23
note_on channel=0 note=65 velocity=73 time=117
note_on channel=0 note=59 velocity=63 time=12
note_on channel=0 note=65 velocity=0 time=14
note_on channel=0 note=89 velocity=99 time=11
note_on channel=0 note=77 velocity=84 time=5
note_on channel=0 note=55 velocity=0 time=14
note_on channel=0 note=59 velocity=0 time=6
note_on channel=0 note=77 velocity=0 time=4
note_on channel=0 note=89 velocity=0 time=15
control_change channel=0 control=64 value=89 time=299
control_change channel=0 control=64 value=57 time=16
control_change channel=0 control=64 value=0 time=15
note_on channel=0 note=48 velocity=41 time=0
note_on channel=0 note=36 velocity=42 time=1
control_change channel=0 control=64 value=37 time=120
note_on channel=0 note=48 velocity=0 time=11
note_on channel=0 note=48 velocity=5 time=0
note_on channel=0 note=48 velocity=0 time=3
control_change channel=0 control=64 value=63 time=2
control_change channel=0 control=64 value=70 time=15
note_on channel=0 note=36 velocity=0 time=6
control_change channel=0 control=64 value=76 time=10
control_change channel=0 control=64 value=81 time=15
control_change channel=0 control=64 value=86 time=15
note_on channel=0 note=55 velocity=53 time=0
control_change channel=0 control=64 value=91 time=16
control_change channel=0 control=64 value=97 time=15
control_change channel=0 control=64 value=103 time=14
control_change channel=0 control=64 value=111 time=16
control_change channel=0 control=64 value=127 time=15
note_on channel=0 note=55 velocity=0 time=80
note_on channel=0 note=64 velocity=67 time=28
note_on channel=0 note=60 velocity=45 time=24
note_on channel=0 note=60 velocity=0 time=50
note_on channel=0 note=64 velocity=0 time=19
note_on channel=0 note=44 velocity=58 time=118
note_on channel=0 note=32 velocity=56 time=4
note_on channel=0 note=64 velocity=64 time=14
control_change channel=0 control=64 value=102 time=7
control_change channel=0 control=64 value=80 time=14
note_on channel=0 note=53 velocity=50 time=3
note_on channel=0 note=59 velocity=40 time=8
control_change channel=0 control=64 value=60 time=4
control_change channel=0 control=64 value=0 time=16
control_change channel=0 control=64 value=28 time=29
control_change channel=0 control=64 value=61 time=16
control_change channel=0 control=64 value=67 time=15
control_change channel=0 control=64 value=72 time=16
control_change channel=0 control=64 value=78 time=14
note_on channel=0 note=59 velocity=0 time=11
control_change channel=0 control=64 value=84 time=4
control_change channel=0 control=64 value=92 time=11
note_on channel=0 note=32 velocity=0 time=2
control_change channel=0 control=64 value=100 time=14
note_on channel=0 note=53 velocity=0 time=8
control_change channel=0 control=64 value=108 time=7
control_change channel=0 control=64 value=121 time=12
note_on channel=0 note=44 velocity=0 time=3
control_change channel=0 control=64 value=127 time=13
note_on channel=0 note=62 velocity=71 time=80
note_on channel=0 note=64 velocity=0 time=2
note_on channel=0 note=62 velocity=0 time=24
note_on channel=0 note=55 velocity=84 time=165
control_change channel=0 control=64 value=88 time=10
control_change channel=0 control=64 value=62 time=15
control_change channel=0 control=64 value=54 time=15
note_on channel=0 note=79 velocity=97 time=6
note_on channel=0 note=67 velocity=88 time=6
control_change channel=0 control=64 value=67 time=3
control_change channel=0 control=64 value=75 time=15
control_change channel=0 control=64 value=84 time=16
control_change channel=0 control=64 value=100 time=15
note_on channel=0 note=67 velocity=0 time=11
control_change channel=0 control=64 value=127 time=4
note_on channel=0 note=79 velocity=0 time=59
note_on channel=0 note=68 velocity=96 time=68
note_on channel=0 note=80 velocity=99 time=1
note_on channel=0 note=56 velocity=78 time=3
note_on channel=0 note=68 velocity=0 time=30
note_on channel=0 note=55 velocity=0 time=28
note_on channel=0 note=80 velocity=0 time=4
note_on channel=0 note=56 velocity=0 time=99
note_on channel=0 note=65 velocity=63 time=33
note_on channel=0 note=95 velocity=105 time=25
note_on channel=0 note=71 velocity=89 time=1
note_on channel=0 note=83 velocity=94 time=4
note_on channel=0 note=71 velocity=0 time=44
note_on channel=0 note=83 velocity=0 time=48
note_on channel=0 note=56 velocity=90 time=15
note_on channel=0 note=65 velocity=0 time=3
note_on channel=0 note=95 velocity=0 time=23
control_change channel=0 control=64 value=102 time=29
control_change channel=0 control=64 value=75 time=16
note_on channel=0 note=65 velocity=80 time=0
control_change channel=0 control=64 value=69 time=15
control_change channel=0 control=64 value=77 time=15
note_on channel=0 note=83 velocity=100 time=10
note_on channel=0 note=95 velocity=107 time=2
note_on channel=0 note=56 velocity=0 time=2
control_change channel=0 control=64 value=87 time=1
note_on channel=0 note=71 velocity=97 time=8
control_change channel=0 control=64 value=102 time=15
control_change channel=0 control=64 value=127 time=16
note_on channel=0 note=95 velocity=0 time=44
note_on channel=0 note=71 velocity=0 time=49
note_on channel=0 note=83 velocity=0 time=41
note_on channel=0 note=68 velocity=83 time=118
note_on channel=0 note=62 velocity=76 time=11
note_on channel=0 note=65 velocity=0 time=0
note_on channel=0 note=68 velocity=0 time=12
note_on channel=0 note=62 velocity=0 time=22
note_on channel=0 note=89 velocity=107 time=43
note_on channel=0 note=77 velocity=93 time=2
note_on channel=0 note=77 velocity=0 time=18
note_on channel=0 note=89 velocity=0 time=25
note_on channel=0 note=42 velocity=67 time=130
note_on channel=0 note=47 velocity=76 time=41
note_on channel=0 note=44 velocity=36 time=24
note_on channel=0 note=51 velocity=85 time=60
control_change channel=0 control=64 value=84 time=13
note_on channel=0 note=42 velocity=0 time=0
note_on channel=0 note=44 velocity=0 time=12
control_change channel=0 control=64 value=0 time=3
control_change channel=0 control=64 value=65 time=85
control_change channel=0 control=64 value=77 time=15
note_on channel=0 note=54 velocity=90 time=2
note_on channel=0 note=83 velocity=66 time=4
note_on channel=0 note=92 velocity=99 time=3
note_on channel=0 note=80 velocity=94 time=1
note_on channel=0 note=47 velocity=0 time=2
control_change channel=0 control=64 value=93 time=3
note_on channel=0 note=87 velocity=43 time=11
control_change channel=0 control=64 value=127 time=5
note_on channel=0 note=51 velocity=0 time=2
note_on channel=0 note=83 velocity=0 time=8
note_on channel=0 note=54 velocity=0 time=3
note_on channel=0 note=87 velocity=0 time=15
note_on channel=0 note=80 velocity=0 time=39
note_on channel=0 note=92 velocity=0 time=75
note_on channel=0 note=54 velocity=90 time=87
note_on channel=0 note=54 velocity=0 time=78
note_on channel=0 note=78 velocity=14 time=23
note_on channel=0 note=78 velocity=0 time=47
note_on channel=0 note=90 velocity=102 time=60
note_on channel=0 note=78 velocity=91 time=6
note_on channel=0 note=71 velocity=88 time=2
note_on channel=0 note=87 velocity=82 time=1
note_on channel=0 note=83 velocity=62 time=5
note_on channel=0 note=63 velocity=72 time=1
note_on channel=0 note=71 velocity=0 time=86
note_on channel=0 note=63 velocity=0 time=3
note_on channel=0 note=71 velocity=90 time=202
note_on channel=0 note=63 velocity=77 time=14
note_on channel=0 note=78 velocity=0 time=8
note_on channel=0 note=90 velocity=0 time=30
note_on channel=0 note=83 velocity=0 time=15
note_on channel=0 note=71 velocity=0 time=54
note_on channel=0 note=87 velocity=0 time=0
note_on channel=0 note=75 velocity=93 time=101
note_on channel=0 note=87 velocity=100 time=0
note_on channel=0 note=75 velocity=0 time=53
note_on channel=0 note=66 velocity=95 time=5
note_on channel=0 note=87 velocity=0 time=5
note_on channel=0 note=63 velocity=0 time=12
note_on channel=0 note=59 velocity=68 time=1
note_on channel=0 note=66 velocity=0 time=19
note_on channel=0 note=59 velocity=0 time=12
note_on channel=0 note=54 velocity=72 time=2
note_on channel=0 note=54 velocity=0 time=23
note_on channel=0 note=71 velocity=88 time=65
note_on channel=0 note=83 velocity=97 time=0
note_on channel=0 note=71 velocity=0 time=29
note_on channel=0 note=83 velocity=0 time=21
note_on channel=0 note=42 velocity=82 time=47
note_on channel=0 note=49 velocity=86 time=52
note_on channel=0 note=42 velocity=0 time=63
control_change channel=0 control=64 value=91 time=1
note_on channel=0 note=46 velocity=41 time=6
control_change channel=0 control=64 value=44 time=9
control_change channel=0 control=64 value=0 time=16
note_on channel=0 note=90 velocity=94 time=12
note_on channel=0 note=78 velocity=91 time=6
note_on channel=0 note=58 velocity=86 time=13
control_change channel=0 control=64 value=48 time=15
control_change channel=0 control=64 value=68 time=14
note_on channel=0 note=49 velocity=0 time=5
control_change channel=0 control=64 value=80 time=18
note_on channel=0 note=58 velocity=0 time=3
note_on channel=0 note=46 velocity=0 time=4
note_on channel=0 note=78 velocity=0 time=5
control_change channel=0 control=64 value=94 time=3
control_change channel=0 control=64 value=122 time=16
control_change channel=0 control=64 value=127 time=15
note_on channel=0 note=90 velocity=0 time=11
note_on channel=0 note=54 velocity=87 time=111
note_on channel=0 note=54 velocity=0 time=91
note_on channel=0 note=70 velocity=91 time=98
note_on channel=0 note=88 velocity=100 time=3
note_on channel=0 note=76 velocity=98 time=3
note_on channel=0 note=85 velocity=89 time=3
note_on channel=0 note=82 velocity=81 time=1
note_on channel=0 note=61 velocity=70 time=3
note_on channel=0 note=70 velocity=0 time=39
note_on channel=0 note=61 velocity=0 time=10
note_on channel=0 note=70 velocity=85 time=226
note_on channel=0 note=76 velocity=0 time=13
note_on channel=0 note=61 velocity=77 time=1
note_on channel=0 note=88 velocity=0 time=23
note_on channel=0 note=82 velocity=0 time=43
note_on channel=0 note=85 velocity=0 time=35
note_on channel=0 note=70 velocity=0 time=25
note_on channel=0 note=85 velocity=90 time=103
note_on channel=0 note=73 velocity=84 time=6
note_on channel=0 note=73 velocity=0 time=71
note_on channel=0 note=54 velocity=73 time=20
note_on channel=0 note=61 velocity=0 time=1
note_on channel=0 note=64 velocity=76 time=1
note_on channel=0 note=54 velocity=0 time=22
note_on channel=0 note=64 velocity=0 time=3
note_on channel=0 note=85 velocity=0 time=1
note_on channel=0 note=82 velocity=86 time=112
note_on channel=0 note=70 velocity=69 time=9
note_on channel=0 note=47 velocity=75 time=60
control_change channel=0 control=64 value=108 time=18
control_change channel=0 control=64 value=64 time=16
control_change channel=0 control=64 value=0 time=15
note_on channel=0 note=54 velocity=67 time=62
control_change channel=0 control=64 value=45 time=28
note_on channel=0 note=70 velocity=0 time=1
control_change channel=0 control=64 value=58 time=15
note_on channel=0 note=47 velocity=0 time=7
control_change channel=0 control=64 value=62 time=8
control_change channel=0 control=64 value=65 time=16
control_change channel=0 control=64 value=68 time=15
note_on channel=0 note=82 velocity=0 time=2
control_change channel=0 control=64 value=71 time=12
control_change channel=0 control=64 value=72 time=16
control_change channel=0 control=64 value=74 time=15
note_on channel=0 note=71 velocity=76 time=11
control_change channel=0 control=64 value=76 time=3
note_on channel=0 note=63 velocity=60 time=9
control_change channel=0 control=64 value=79 time=7
control_change channel=0 control=64 value=81 time=15
control_change channel=0 control=64 value=82 time=54
control_change channel=0 control=64 value=84 time=15
control_change channel=0 control=64 value=88 time=15
control_change channel=0 control=64 value=91 time=16
control_change channel=0 control=64 value=91 time=14
control_change channel=0 control=64 value=92 time=31
control_change channel=0 control=64 value=95 time=15
control_change channel=0 control=64 value=98 time=16
control_change channel=0 control=64 value=101 time=14
control_change channel=0 control=64 value=103 time=15
control_change channel=0 control=64 value=105 time=16
control_change channel=0 control=64 value=106 time=15
control_change channel=0 control=64 value=107 time=15
control_change channel=0 control=64 value=110 time=15
control_change channel=0 control=64 value=116 time=15
control_change channel=0 control=64 value=122 time=16
control_change channel=0 control=64 value=123 time=15
control_change channel=0 control=64 value=122 time=14
note_on channel=0 note=83 velocity=94 time=37
note_on channel=0 note=63 velocity=0 time=3
control_change channel=0 control=64 value=123 time=7
note_on channel=0 note=54 velocity=0 time=7
control_change channel=0 control=64 value=124 time=23
note_on channel=0 note=83 velocity=0 time=133
control_change channel=0 control=64 value=127 time=20
control_change channel=0 control=64 value=126 time=31
control_change channel=0 control=64 value=118 time=15
control_change channel=0 control=64 value=104 time=15
control_change channel=0 control=64 value=95 time=15
control_change channel=0 control=64 value=94 time=15
note_on channel=0 note=78 velocity=85 time=11
control_change channel=0 control=64 value=95 time=5
control_change channel=0 control=64 value=98 time=15
control_change channel=0 control=64 value=103 time=15
control_change channel=0 control=64 value=107 time=15
control_change channel=0 control=64 value=109 time=15
control_change channel=0 control=64 value=110 time=15
control_change channel=0 control=64 value=114 time=15
control_change channel=0 control=64 value=127 time=15
note_on channel=0 note=71 velocity=0 time=12
control_change channel=0 control=64 value=116 time=73
control_change channel=0 control=64 value=94 time=15
control_change channel=0 control=64 value=83 time=15
note_on channel=0 note=75 velocity=81 time=3
control_change channel=0 control=64 value=83 time=12
control_change channel=0 control=64 value=84 time=15
control_change channel=0 control=64 value=87 time=15
control_change channel=0 control=64 value=91 time=16
note_on channel=0 note=78 velocity=0 time=13
control_change channel=0 control=64 value=95 time=1
control_change channel=0 control=64 value=101 time=16
control_change channel=0 control=64 value=104 time=15
control_change channel=0 control=64 value=104 time=31
control_change channel=0 control=64 value=98 time=14
note_on channel=0 note=75 velocity=0 time=12
control_change channel=0 control=64 value=89 time=3
control_change channel=0 control=64 value=82 time=16
control_change channel=0 control=64 value=81 time=15
note_on channel=0 note=71 velocity=75 time=10
control_change channel=0 control=64 value=83 time=6
control_change channel=0 control=64 value=86 time=14
control_change channel=0 control=64 value=90 time=15
control_change channel=0 control=64 value=95 time=16
control_change channel=0 control=64 value=97 time=14
note_on channel=0 note=71 velocity=0 time=3
control_change channel=0 control=64 value=98 time=12
control_change channel=0 control=64 value=98 time=16
control_change channel=0 control=64 value=101 time=15
control_change channel=0 control=64 value=102 time=16
control_change channel=0 control=64 value=101 time=15
control_change channel=0 control=64 value=99 time=15
control_change channel=0 control=64 value=95 time=16
control_change channel=0 control=64 value=88 time=15
note_on channel=0 note=66 velocity=77 time=0
control_change channel=0 control=64 value=85 time=15
control_change channel=0 control=64 value=86 time=30
control_change channel=0 control=64 value=89 time=16
control_change channel=0 control=64 value=94 time=15
control_change channel=0 control=64 value=99 time=15
control_change channel=0 control=64 value=101 time=16
control_change channel=0 control=64 value=99 time=31
control_change channel=0 control=64 value=94 time=15
note_on channel=0 note=66 velocity=0 time=13
control_change channel=0 control=64 value=85 time=1
control_change channel=0 control=64 value=76 time=16
control_change channel=0 control=64 value=74 time=15
note_on channel=0 note=63 velocity=72 time=5
control_change channel=0 control=64 value=76 time=10
control_change channel=0 control=64 value=78 time=16
control_change channel=0 control=64 value=80 time=15
control_change channel=0 control=64 value=83 time=16
control_change channel=0 control=64 value=86 time=15
control_change channel=0 control=64 value=88 time=15
control_change channel=0 control=64 value=89 time=22
control_change channel=0 control=64 value=88 time=31
control_change channel=0 control=64 value=83 time=15
control_change channel=0 control=64 value=76 time=15
control_change channel=0 control=64 value=71 time=15
control_change channel=0 control=64 value=72 time=15
control_change channel=0 control=64 value=74 time=16
note_on channel=0 note=59 velocity=66 time=1
note_on channel=0 note=63 velocity=0 time=5
control_change channel=0 control=64 value=75 time=9
control_change channel=0 control=64 value=77 time=15
control_change channel=0 control=64 value=80 time=16
control_change channel=0 control=64 value=83 time=15
control_change channel=0 control=64 value=86 time=15
control_change channel=0 control=64 value=88 time=15
control_change channel=0 control=64 value=89 time=15
control_change channel=0 control=64 value=90 time=16
control_change channel=0 control=64 value=90 time=15
control_change channel=0 control=64 value=86 time=15
control_change channel=0 control=64 value=77 time=16
note_on channel=0 note=59 velocity=0 time=5
control_change channel=0 control=64 value=68 time=9
control_change channel=0 control=64 value=64 time=16
control_change channel=0 control=64 value=66 time=15
note_on channel=0 note=56 velocity=60 time=1
control_change channel=0 control=64 value=67 time=13
control_change channel=0 control=64 value=69 time=16
control_change channel=0 control=64 value=73 time=15
control_change channel=0 control=64 value=75 time=15
control_change channel=0 control=64 value=77 time=16
control_change channel=0 control=64 value=78 time=14
control_change channel=0 control=64 value=80 time=16
control_change channel=0 control=64 value=81 time=15
control_change channel=0 control=64 value=81 time=15
control_change channel=0 control=64 value=78 time=16
control_change channel=0 control=64 value=73 time=14
control_change channel=0 control=64 value=64 time=15
note_on channel=0 note=56 velocity=0 time=3
control_change channel=0 control=64 value=61 time=13
control_change channel=0 control=67 value=8 time=0
control_change channel=0 control=64 value=64 time=15
control_change channel=0 control=67 value=9 time=0
control_change channel=0 control=64 value=66 time=15
control_change channel=0 control=67 value=10 time=0
note_on channel=0 note=54 velocity=52 time=6
control_change channel=0 control=64 value=68 time=9
control_change channel=0 control=67 value=10 time=0
control_change channel=0 control=64 value=70 time=15
control_change channel=0 control=67 value=11 time=0
control_change channel=0 control=64 value=72 time=17
control_change channel=0 control=67 value=13 time=0
control_change channel=0 control=64 value=74 time=15
control_change channel=0 control=67 value=15 time=0
control_change channel=0 control=64 value=76 time=16
control_change channel=0 control=67 value=16 time=0
control_change channel=0 control=64 value=78 time=13
control_change channel=0 control=67 value=18 time=0
control_change channel=0 control=67 value=20 time=15
control_change channel=0 control=67 value=24 time=16
control_change channel=0 control=64 value=77 time=15
control_change channel=0 control=67 value=29 time=0
control_change channel=0 control=64 value=74 time=15
control_change channel=0 control=67 value=34 time=0
control_change channel=0 control=64 value=69 time=15
control_change channel=0 control=67 value=38 time=0
note_on channel=0 note=54 velocity=0 time=4
control_change channel=0 control=64 value=62 time=11
control_change channel=0 control=67 value=41 time=0
control_change channel=0 control=64 value=60 time=16
control_change channel=0 control=67 value=44 time=0
control_change channel=0 control=64 value=64 time=22
control_change channel=0 control=67 value=46 time=0
control_change channel=0 control=64 value=66 time=16
control_change channel=0 control=67 value=49 time=0
control_change channel=0 control=64 value=68 time=15
control_change channel=0 control=67 value=52 time=0
control_change channel=0 control=64 value=71 time=14
control_change channel=0 control=67 value=56 time=0
note_on channel=0 note=51 velocity=50 time=3
control_change channel=0 control=64 value=74 time=13
control_change channel=0 control=67 value=59 time=0
control_change channel=0 control=64 value=77 time=15
control_change channel=0 control=67 value=62 time=0
control_change channel=0 control=64 value=79 time=15
control_change channel=0 control=67 value=65 time=0
control_change channel=0 control=64 value=81 time=16
control_change channel=0 control=67 value=68 time=0
control_change channel=0 control=64 value=83 time=15
control_change channel=0 control=67 value=73 time=0
control_change channel=0 control=64 value=84 time=16
control_change channel=0 control=67 value=75 time=0
control_change channel=0 control=64 value=85 time=14
control_change channel=0 control=67 value=77 time=0
control_change channel=0 control=67 value=78 time=15
control_change channel=0 control=67 value=78 time=16
control_change channel=0 control=67 value=80 time=15
control_change channel=0 control=64 value=85 time=14
control_change channel=0 control=67 value=80 time=0
note_on channel=0 note=51 velocity=0 time=20
control_change channel=0 control=64 value=85 time=11
control_change channel=0 control=64 value=83 time=16
control_change channel=0 control=64 value=79 time=15
control_change channel=0 control=64 value=72 time=14
control_change channel=0 control=64 value=66 time=16
control_change channel=0 control=64 value=65 time=15
control_change channel=0 control=64 value=67 time=15
note_on channel=0 note=47 velocity=43 time=12
control_change channel=0 control=64 value=68 time=4
control_change channel=0 control=64 value=70 time=14
control_change channel=0 control=64 value=72 time=16
control_change channel=0 control=67 value=80 time=0
control_change channel=0 control=64 value=74 time=15
control_change channel=0 control=67 value=79 time=0
control_change channel=0 control=64 value=76 time=14
control_change channel=0 control=67 value=79 time=0
control_change channel=0 control=64 value=78 time=16
control_change channel=0 control=64 value=79 time=15
note_on channel=0 note=47 velocity=0 time=14
control_change channel=0 control=64 value=81 time=2
control_change channel=0 control=67 value=78 time=0
control_change channel=0 control=64 value=84 time=15
control_change channel=0 control=64 value=87 time=15
control_change channel=0 control=64 value=89 time=16
control_change channel=0 control=64 value=91 time=15
control_change channel=0 control=67 value=78 time=0
control_change channel=0 control=64 value=93 time=14
control_change channel=0 control=64 value=95 time=16
control_change channel=0 control=67 value=77 time=0
control_change channel=0 control=64 value=96 time=15
control_change channel=0 control=64 value=97 time=46
control_change channel=0 control=64 value=97 time=15
control_change channel=0 control=64 value=98 time=16
control_change channel=0 control=64 value=98 time=15
control_change channel=0 control=64 value=98 time=92
control_change channel=0 control=64 value=97 time=52
control_change channel=0 control=64 value=96 time=15
control_change channel=0 control=64 value=95 time=16
control_change channel=0 control=64 value=94 time=14
note_on channel=0 note=39 velocity=34 time=8
control_change channel=0 control=64 value=93 time=8
control_change channel=0 control=64 value=91 time=15
note_on channel=0 note=46 velocity=38 time=1
note_on channel=0 note=51 velocity=32 time=4
control_change channel=0 control=64 value=88 time=10
control_change channel=0 control=64 value=85 time=16
control_change channel=0 control=64 value=78 time=15
control_change channel=0 control=64 value=69 time=16
control_change channel=0 control=64 value=53 time=15
note_on channel=0 note=54 velocity=36 time=2
control_change channel=0 control=64 value=11 time=13
control_change channel=0 control=64 value=40 time=16
control_change channel=0 control=64 value=55 time=14
control_change channel=0 control=64 value=61 time=15
control_change channel=0 control=64 value=63 time=16
control_change channel=0 control=64 value=64 time=15
control_change channel=0 control=67 value=77 time=0
control_change channel=0 control=64 value=66 time=15
control_change channel=0 control=67 value=76 time=0
control_change channel=0 control=64 value=69 time=15
control_change channel=0 control=67 value=76 time=0
control_change channel=0 control=64 value=72 time=15
control_change channel=0 control=67 value=75 time=0
control_change channel=0 control=64 value=74 time=16
control_change channel=0 control=67 value=74 time=0
control_change channel=0 control=64 value=77 time=15
control_change channel=0 control=67 value=73 time=0
control_change channel=0 control=64 value=80 time=14
control_change channel=0 control=67 value=73 time=0
control_change channel=0 control=64 value=84 time=16
control_change channel=0 control=67 value=72 time=0
control_change channel=0 control=64 value=90 time=15
control_change channel=0 control=67 value=71 time=0
note_on channel=0 note=58 velocity=57 time=14
control_change channel=0 control=64 value=97 time=2
control_change channel=0 control=67 value=70 time=0
control_change channel=0 control=64 value=103 time=15
control_change channel=0 control=67 value=70 time=0
control_change channel=0 control=64 value=110 time=14
control_change channel=0 control=67 value=69 time=0
control_change channel=0 control=64 value=117 time=16
control_change channel=0 control=67 value=68 time=0
control_change channel=0 control=64 value=127 time=15
control_change channel=0 control=67 value=64 time=0
control_change channel=0 control=67 value=59 time=14
control_change channel=0 control=67 value=56 time=16
note_on channel=0 note=39 velocity=0 time=12
control_change channel=0 control=67 value=54 time=3
control_change channel=0 control=67 value=50 time=16
note_on channel=0 note=51 velocity=0 time=11
control_change channel=0 control=67 value=44 time=4
control_change channel=0 control=67 value=38 time=14
control_change channel=0 control=67 value=33 time=16
note_on channel=0 note=58 velocity=0 time=6
control_change channel=0 control=67 value=30 time=9
note_on channel=0 note=66 velocity=73 time=1
control_change channel=0 control=67 value=25 time=15
control_change channel=0 control=67 value=18 time=15
note_on channel=0 note=54 velocity=0 time=6
control_change channel=0 control=67 value=12 time=9
control_change channel=0 control=67 value=0 time=16
note_on channel=0 note=66 velocity=0 time=49
note_on channel=0 note=53 velocity=50 time=109
control_change channel=0 control=64 value=113 time=2
note_on channel=0 note=66 velocity=57 time=3
note_on channel=0 note=41 velocity=53 time=5
control_change channel=0 control=64 value=92 time=7
note_on channel=0 note=62 velocity=33 time=11
note_on channel=0 note=46 velocity=0 time=3
control_change channel=0 control=64 value=75 time=1
note_on channel=0 note=56 velocity=37 time=2
control_change channel=0 control=64 value=59 time=14
control_change channel=0 control=64 value=0 time=14
control_change channel=0 control=64 value=43 time=107
control_change channel=0 control=64 value=59 time=15
control_change channel=0 control=64 value=64 time=16
control_change channel=0 control=64 value=65 time=15
control_change channel=0 control=64 value=68 time=14
control_change channel=0 control=64 value=71 time=16
control_change channel=0 control=64 value=74 time=15
control_change channel=0 control=64 value=78 time=16
control_change channel=0 control=64 value=82 time=15
control_change channel=0 control=64 value=88 time=15
control_change channel=0 control=64 value=94 time=15
note_on channel=0 note=65 velocity=68 time=1
control_change channel=0 control=64 value=100 time=14
note_on channel=0 note=53 velocity=0 time=0
note_on channel=0 note=66 velocity=0 time=1
control_change channel=0 control=64 value=105 time=14
control_change channel=0 control=64 value=111 time=16
note_on channel=0 note=62 velocity=0 time=5
control_change channel=0 control=64 value=127 time=10
note_on channel=0 note=41 velocity=0 time=29
note_on channel=0 note=56 velocity=0 time=60
note_on channel=0 note=65 velocity=0 time=2
control_change channel=0 control=64 value=110 time=120
note_on channel=0 note=65 velocity=60 time=10
control_change channel=0 control=64 value=93 time=6
note_on channel=0 note=54 velocity=53 time=0
note_on channel=0 note=42 velocity=47 time=6
note_on channel=0 note=58 velocity=43 time=6
control_change channel=0 control=64 value=77 time=3
control_change channel=0 control=64 value=63 time=16
control_change channel=0 control=64 value=0 time=15
control_change channel=0 control=64 value=40 time=70
control_change channel=0 control=64 value=49 time=15
control_change channel=0 control=64 value=55 time=14
control_change channel=0 control=64 value=61 time=16
control_change channel=0 control=67 value=9 time=0
control_change channel=0 control=64 value=64 time=15
control_change channel=0 control=67 value=11 time=0
control_change channel=0 control=64 value=67 time=16
control_change channel=0 control=67 value=15 time=0
control_change channel=0 control=64 value=70 time=15
control_change channel=0 control=67 value=18 time=0
control_change channel=0 control=64 value=72 time=14
control_change channel=0 control=67 value=20 time=0
control_change channel=0 control=64 value=76 time=16
control_change channel=0 control=67 value=22 time=0
control_change channel=0 control=64 value=80 time=15
control_change channel=0 control=67 value=23 time=0
control_change channel=0 control=64 value=85 time=16
control_change channel=0 control=67 value=24 time=0
control_change channel=0 control=64 value=89 time=15
control_change channel=0 control=67 value=27 time=0
note_on channel=0 note=54 velocity=0 time=3
control_change channel=0 control=64 value=92 time=11
control_change channel=0 control=67 value=31 time=0
control_change channel=0 control=64 value=95 time=16
control_change channel=0 control=67 value=33 time=0
note_on channel=0 note=65 velocity=0 time=5
control_change channel=0 control=64 value=98 time=10
control_change channel=0 control=67 value=35 time=0
note_on channel=0 note=63 velocity=60 time=9
control_change channel=0 control=64 value=102 time=6
control_change channel=0 control=67 value=38 time=0
control_change channel=0 control=64 value=105 time=15
control_change channel=0 control=67 value=41 time=0
note_on channel=0 note=42 velocity=0 time=8
control_change channel=0 control=64 value=108 time=7
control_change channel=0 control=67 value=46 time=0
control_change channel=0 control=64 value=109 time=16
control_change channel=0 control=67 value=51 time=0
control_change channel=0 control=67 value=54 time=15
note_on channel=0 note=58 velocity=0 time=6
control_change channel=0 control=67 value=57 time=8
note_on channel=0 note=63 velocity=0 time=3
control_change channel=0 control=67 value=61 time=13
control_change channel=0 control=67 value=64 time=15
control_change channel=0 control=67 value=66 time=15
control_change channel=0 control=67 value=67 time=16
control_change channel=0 control=67 value=68 time=15
control_change channel=0 control=67 value=69 time=16
control_change channel=0 control=67 value=70 time=15
control_change channel=0 control=64 value=108 time=30
control_change channel=0 control=67 value=70 time=0
control_change channel=0 control=64 value=107 time=15
control_change channel=0 control=64 value=105 time=16
control_change channel=0 control=67 value=71 time=0
control_change channel=0 control=64 value=104 time=15
control_change channel=0 control=67 value=71 time=0
control_change channel=0 control=64 value=102 time=15
control_change channel=0 control=67 value=72 time=0
control_change channel=0 control=64 value=99 time=15
control_change channel=0 control=64 value=97 time=15
control_change channel=0 control=67 value=72 time=0
control_change channel=0 control=64 value=92 time=15
control_change channel=0 control=64 value=85 time=15
note_on channel=0 note=50 velocity=38 time=10
control_change channel=0 control=64 value=75 time=5
note_on channel=0 note=61 velocity=38 time=8
note_on channel=0 note=53 velocity=31 time=3
note_on channel=0 note=38 velocity=32 time=2
control_change channel=0 control=64 value=65 time=3
note_on channel=0 note=56 velocity=21 time=12
control_change channel=0 control=64 value=29 time=3
control_change channel=0 control=64 value=35 time=15
control_change channel=0 control=64 value=49 time=15
control_change channel=0 control=64 value=55 time=15
control_change channel=0 control=64 value=57 time=15
control_change channel=0 control=64 value=59 time=16
control_change channel=0 control=64 value=61 time=15
control_change channel=0 control=64 value=63 time=15
control_change channel=0 control=67 value=72 time=0
control_change channel=0 control=64 value=64 time=15
control_change channel=0 control=67 value=71 time=0
control_change channel=0 control=64 value=65 time=15
control_change channel=0 control=64 value=66 time=23
control_change channel=0 control=67 value=70 time=0
control_change channel=0 control=64 value=67 time=15
control_change channel=0 control=67 value=70 time=0
control_change channel=0 control=64 value=69 time=17
control_change channel=0 control=67 value=69 time=0
control_change channel=0 control=64 value=70 time=15
control_change channel=0 control=67 value=68 time=0
control_change channel=0 control=64 value=71 time=15
control_change channel=0 control=67 value=68 time=0
control_change channel=0 control=64 value=73 time=16
control_change channel=0 control=67 value=67 time=0
control_change channel=0 control=64 value=75 time=15
control_change channel=0 control=67 value=66 time=0
control_change channel=0 control=64 value=77 time=15
control_change channel=0 control=67 value=65 time=0
control_change channel=0 control=64 value=79 time=15
control_change channel=0 control=67 value=64 time=0
control_change channel=0 control=64 value=81 time=15
control_change channel=0 control=67 value=63 time=0
control_change channel=0 control=64 value=83 time=16
control_change channel=0 control=67 value=62 time=0
control_change channel=0 control=64 value=85 time=15
control_change channel=0 control=67 value=61 time=0
control_change channel=0 control=64 value=87 time=14
control_change channel=0 control=67 value=60 time=0
control_change channel=0 control=64 value=90 time=16
control_change channel=0 control=67 value=59 time=0
control_change channel=0 control=64 value=93 time=15
control_change channel=0 control=67 value=57 time=0
control_change channel=0 control=64 value=96 time=15
control_change channel=0 control=67 value=54 time=0
control_change channel=0 control=64 value=98 time=15
control_change channel=0 control=67 value=50 time=0
control_change channel=0 control=64 value=101 time=15
control_change channel=0 control=67 value=47 time=0
note_on channel=0 note=59 velocity=44 time=3
note_on channel=0 note=61 velocity=0 time=4
control_change channel=0 control=64 value=104 time=9
control_change channel=0 control=67 value=44 time=0
control_change channel=0 control=64 value=108 time=15
control_change channel=0 control=67 value=41 time=0
control_change channel=0 control=64 value=111 time=15
control_change channel=0 control=67 value=36 time=0
note_on channel=0 note=56 velocity=0 time=10
control_change channel=0 control=64 value=114 time=5
control_change channel=0 control=67 value=29 time=0
control_change channel=0 control=64 value=118 time=15
control_change channel=0 control=67 value=26 time=0
note_on channel=0 note=53 velocity=0 time=6
control_change channel=0 control=64 value=127 time=10
control_change channel=0 control=67 value=24 time=0
control_change channel=0 control=67 value=21 time=15
control_change channel=0 control=67 value=17 time=14
note_on channel=0 note=59 velocity=0 time=2
control_change channel=0 control=67 value=13 time=14
control_change channel=0 control=67 value=10 time=15
control_change channel=0 control=67 value=8 time=16
control_change channel=0 control=67 value=0 time=15
note_on channel=0 note=38 velocity=0 time=23
note_on channel=0 note=50 velocity=0 time=2
note_on channel=0 note=50 velocity=98 time=249
note_on channel=0 note=38 velocity=88 time=1
note_on channel=0 note=74 velocity=86 time=18
note_on channel=0 note=62 velocity=79 time=3
note_on channel=0 note=62 velocity=0 time=92
note_on channel=0 note=50 velocity=0 time=25
note_on channel=0 note=38 velocity=0 time=17
note_on channel=0 note=74 velocity=0 time=13
note_on channel=0 note=49 velocity=99 time=75
note_on channel=0 note=37 velocity=88 time=1
note_on channel=0 note=61 velocity=79 time=2
note_on channel=0 note=73 velocity=93 time=1
note_on channel=0 note=61 velocity=0 time=21
note_on channel=0 note=37 velocity=0 time=4
note_on channel=0 note=49 velocity=0 time=10
note_on channel=0 note=73 velocity=0 time=12
note_on channel=0 note=71 velocity=72 time=216
note_on channel=0 note=75 velocity=92 time=17
note_on channel=0 note=99 velocity=100 time=2
note_on channel=0 note=87 velocity=95 time=5
note_on channel=0 note=95 velocity=71 time=10
note_on channel=0 note=75 velocity=0 time=79
note_on channel=0 note=71 velocity=0 time=14
note_on channel=0 note=87 velocity=0 time=16
note_on channel=0 note=99 velocity=0 time=30
note_on channel=0 note=95 velocity=0 time=9
control_change channel=0 control=64 value=86 time=57
note_on channel=0 note=71 velocity=82 time=3
note_on channel=0 note=75 velocity=89 time=7
note_on channel=0 note=87 velocity=96 time=3
note_on channel=0 note=99 velocity=112 time=0
note_on channel=0 note=95 velocity=83 time=1
control_change channel=0 control=64 value=45 time=1
note_on channel=0 note=61 velocity=73 time=4
control_change channel=0 control=64 value=0 time=11
note_on channel=0 note=63 velocity=33 time=12
note_on channel=0 note=63 velocity=0 time=51
control_change channel=0 control=64 value=64 time=6
control_change channel=0 control=64 value=75 time=15
control_change channel=0 control=64 value=90 time=16
control_change channel=0 control=64 value=108 time=14
control_change channel=0 control=64 value=127 time=15
note_on channel=0 note=75 velocity=0 time=10
note_on channel=0 note=71 velocity=0 time=23
note_on channel=0 note=87 velocity=0 time=38
note_on channel=0 note=99 velocity=0 time=8
note_on channel=0 note=95 velocity=0 time=30
note_on channel=0 note=97 velocity=97 time=72
note_on channel=0 note=70 velocity=78 time=5
note_on channel=0 note=85 velocity=92 time=1
note_on channel=0 note=73 velocity=98 time=6
note_on channel=0 note=61 velocity=0 time=91
note_on channel=0 note=73 velocity=0 time=41
note_on channel=0 note=85 velocity=0 time=5
note_on channel=0 note=67 velocity=32 time=1
note_on channel=0 note=70 velocity=0 time=4
note_on channel=0 note=97 velocity=0 time=48
control_change channel=0 control=64 value=91 time=43
control_change channel=0 control=64 value=67 time=15
note_on channel=0 note=70 velocity=83 time=6
note_on channel=0 note=61 velocity=72 time=3
note_on channel=0 note=73 velocity=90 time=1
note_on channel=0 note=97 velocity=101 time=3
note_on channel=0 note=85 velocity=87 time=2
control_change channel=0 control=64 value=54 time=1
control_change channel=0 control=64 value=67 time=15
control_change channel=0 control=64 value=73 time=16
control_change channel=0 control=64 value=79 time=14
control_change channel=0 control=64 value=88 time=15
note_on channel=0 note=67 velocity=0 time=14
control_change channel=0 control=64 value=100 time=2
control_change channel=0 control=64 value=127 time=16
note_on channel=0 note=97 velocity=0 time=47
note_on channel=0 note=73 velocity=0 time=3
note_on channel=0 note=70 velocity=0 time=1
note_on channel=0 note=85 velocity=0 time=41
note_on channel=0 note=68 velocity=79 time=115
note_on channel=0 note=71 velocity=81 time=0
note_on channel=0 note=95 velocity=101 time=2
note_on channel=0 note=83 velocity=94 time=1
note_on channel=0 note=92 velocity=90 time=8
note_on channel=0 note=83 velocity=0 time=27
note_on channel=0 note=95 velocity=0 time=55
note_on channel=0 note=92 velocity=0 time=16
note_on channel=0 note=68 velocity=0 time=59
note_on channel=0 note=71 velocity=0 time=0
note_on channel=0 note=61 velocity=0 time=9
control_change channel=0 control=64 value=81 time=110
note_on channel=0 note=61 velocity=73 time=7
note_on channel=0 note=68 velocity=78 time=0
note_on channel=0 note=95 velocity=94 time=0
note_on channel=0 note=92 velocity=88 time=1
note_on channel=0 note=71 velocity=79 time=2
note_on channel=0 note=83 velocity=91 time=0
control_change channel=0 control=64 value=63 time=6
control_change channel=0 control=64 value=64 time=15
control_change channel=0 control=64 value=71 time=16
control_change channel=0 control=64 value=76 time=15
control_change channel=0 control=64 value=82 time=14
control_change channel=0 control=64 value=91 time=16
control_change channel=0 control=64 value=104 time=15
control_change channel=0 control=64 value=127 time=15
note_on channel=0 note=68 velocity=0 time=40
note_on channel=0 note=83 velocity=0 time=58
note_on channel=0 note=95 velocity=0 time=56
note_on channel=0 note=92 velocity=0 time=29
note_on channel=0 note=92 velocity=93 time=118
note_on channel=0 note=80 velocity=86 time=5
note_on channel=0 note=65 velocity=59 time=2
note_on channel=0 note=68 velocity=75 time=14
note_on channel=0 note=71 velocity=0 time=3
note_on channel=0 note=80 velocity=0 time=11
note_on channel=0 note=92 velocity=0 time=29
note_on channel=0 note=68 velocity=0 time=26
note_on channel=0 note=65 velocity=0 time=20
note_on channel=0 note=61 velocity=0 time=3
note_on channel=0 note=41 velocity=49 time=415
note_on channel=0 note=53 velocity=40 time=16
note_on channel=0 note=59 velocity=53 time=24
control_change channel=0 control=64 value=113 time=21
control_change channel=0 control=64 value=89 time=15
control_change channel=0 control=64 value=67 time=14
control_change channel=0 control=64 value=0 time=16
note_on channel=0 note=62 velocity=77 time=126
control_change channel=0 control=64 value=36 time=15
control_change channel=0 control=64 value=64 time=16
control_change channel=0 control=64 value=70 time=15
control_change channel=0 control=64 value=75 time=15
control_change channel=0 control=64 value=81 time=16
control_change channel=0 control=64 value=89 time=14
control_change channel=0 control=64 value=99 time=15
note_on channel=0 note=41 velocity=0 time=12
note_on channel=0 note=53 velocity=0 time=3
control_change channel=0 control=64 value=110 time=1
control_change channel=0 control=64 value=120 time=15
control_change channel=0 control=64 value=127 time=16
note_on channel=0 note=68 velocity=86 time=14
note_on channel=0 note=62 velocity=0 time=56
note_on channel=0 note=59 velocity=0 time=3
note_on channel=0 note=68 velocity=0 time=57
control_change channel=0 control=64 value=103 time=52
control_change channel=0 control=64 value=87 time=16
note_on channel=0 note=54 velocity=62 time=11
control_change channel=0 control=64 value=70 time=4
note_on channel=0 note=68 velocity=69 time=0
note_on channel=0 note=42 velocity=67 time=3
control_change channel=0 control=64 value=0 time=12
note_on channel=0 note=57 velocity=49 time=9
note_on channel=0 note=63 velocity=42 time=4
control_change channel=0 control=64 value=49 time=170
control_change channel=0 control=64 value=63 time=15
control_change channel=0 control=64 value=65 time=15
control_change channel=0 control=64 value=66 time=15
control_change channel=0 control=64 value=70 time=15
control_change channel=0 control=64 value=75 time=16
control_change channel=0 control=64 value=81 time=14
note_on channel=0 note=66 velocity=72 time=12
control_change channel=0 control=64 value=88 time=4
note_on channel=0 note=63 velocity=0 time=10
note_on channel=0 note=42 velocity=0 time=3
control_change channel=0 control=64 value=92 time=2
note_on channel=0 note=68 velocity=0 time=10
control_change channel=0 control=64 value=95 time=5
control_change channel=0 control=64 value=100 time=16
control_change channel=0 control=64 value=104 time=14
control_change channel=0 control=64 value=107 time=24
control_change channel=0 control=64 value=109 time=15
control_change channel=0 control=64 value=111 time=15
note_on channel=0 note=54 velocity=0 time=28
note_on channel=0 note=57 velocity=0 time=2
note_on channel=0 note=66 velocity=0 time=28
control_change channel=0 control=64 value=110 time=48
control_change channel=0 control=64 value=107 time=15
control_change channel=0 control=64 value=103 time=16
control_change channel=0 control=64 value=96 time=14
note_on channel=0 note=56 velocity=64 time=15
control_change channel=0 control=64 value=86 time=1
note_on channel=0 note=44 velocity=61 time=7
note_on channel=0 note=66 velocity=61 time=6
control_change channel=0 control=64 value=69 time=2
control_change channel=0 control=64 value=0 time=15
note_on channel=0 note=59 velocity=39 time=4
note_on channel=0 note=62 velocity=35 time=1
control_change channel=0 control=64 value=38 time=209
control_change channel=0 control=64 value=56 time=15
control_change channel=0 control=64 value=63 time=15
control_change channel=0 control=64 value=67 time=15
control_change channel=0 control=64 value=71 time=15
control_change channel=0 control=64 value=74 time=16
note_on channel=0 note=66 velocity=0 time=6
control_change channel=0 control=64 value=76 time=9
control_change channel=0 control=64 value=79 time=14
control_change channel=0 control=64 value=83 time=16
note_on channel=0 note=65 velocity=58 time=3
control_change channel=0 control=64 value=88 time=12
control_change channel=0 control=64 value=95 time=15
control_change channel=0 control=64 value=100 time=18
note_on channel=0 note=56 velocity=0 time=2
control_change channel=0 control=64 value=104 time=13
note_on channel=0 note=62 velocity=0 time=0
control_change channel=0 control=64 value=109 time=16
control_change channel=0 control=64 value=113 time=15
control_change channel=0 control=64 value=117 time=15
control_change channel=0 control=64 value=118 time=15
note_on channel=0 note=65 velocity=0 time=2
note_on channel=0 note=44 velocity=0 time=5
note_on channel=0 note=59 velocity=0 time=102
control_change channel=0 control=64 value=117 time=20
control_change channel=0 control=64 value=113 time=31
control_change channel=0 control=64 value=109 time=14
control_change channel=0 control=64 value=102 time=16
control_change channel=0 control=64 value=90 time=15
note_on channel=0 note=51 velocity=52 time=0
note_on channel=0 note=39 velocity=43 time=10
note_on channel=0 note=59 velocity=47 time=1
control_change channel=0 control=64 value=77 time=5
note_on channel=0 note=63 velocity=49 time=8
control_change channel=0 control=64 value=64 time=7
control_change channel=0 control=64 value=0 time=15
control_change channel=0 control=64 value=14 time=61
control_change channel=0 control=64 value=34 time=15
control_change channel=0 control=64 value=47 time=15
control_change channel=0 control=64 value=57 time=15
control_change channel=0 control=64 value=63 time=15
control_change channel=0 control=64 value=65 time=15
control_change channel=0 control=64 value=67 time=15
control_change channel=0 control=64 value=70 time=15
control_change channel=0 control=64 value=72 time=16
control_change channel=0 control=64 value=75 time=15
note_on channel=0 note=59 velocity=0 time=0
control_change channel=0 control=64 value=78 time=17
control_change channel=0 control=64 value=80 time=15
control_change channel=0 control=64 value=83 time=14
control_change channel=0 control=64 value=86 time=16
control_change channel=0 control=64 value=89 time=15
control_change channel=0 control=64 value=92 time=16
control_change channel=0 control=64 value=94 time=15
control_change channel=0 control=64 value=97 time=14
control_change channel=0 control=64 value=100 time=16
note_on channel=0 note=63 velocity=0 time=8
control_change channel=0 control=64 value=104 time=7
control_change channel=0 control=64 value=109 time=14
control_change channel=0 control=64 value=118 time=16
note_on channel=0 note=59 velocity=42 time=10
control_change channel=0 control=64 value=127 time=5
note_on channel=0 note=56 velocity=39 time=2
note_on channel=0 note=56 velocity=0 time=86
note_on channel=0 note=59 velocity=0 time=28
note_on channel=0 note=51 velocity=0 time=91
note_on channel=0 note=39 velocity=0 time=134
note_on channel=0 note=50 velocity=97 time=43
note_on channel=0 note=38 velocity=94 time=2
control_change channel=0 control=64 value=89 time=2
note_on channel=0 note=74 velocity=86 time=9
note_on channel=0 note=62 velocity=73 time=3
control_change channel=0 control=64 value=73 time=3
control_change channel=0 control=64 value=71 time=16
control_change channel=0 control=64 value=78 time=15
control_change channel=0 control=64 value=85 time=15
control_change channel=0 control=64 value=99 time=16
note_on channel=0 note=62 velocity=0 time=0
control_change channel=0 control=64 value=127 time=14
note_on channel=0 note=50 velocity=0 time=25
note_on channel=0 note=38 velocity=0 time=27
note_on channel=0 note=43 velocity=18 time=8
note_on channel=0 note=74 velocity=0 time=31
note_on channel=0 note=43 velocity=0 time=10
note_on channel=0 note=51 velocity=102 time=20
note_on channel=0 note=39 velocity=81 time=5
note_on channel=0 note=75 velocity=94 time=2
note_on channel=0 note=76 velocity=68 time=30
note_on channel=0 note=39 velocity=0 time=1
note_on channel=0 note=51 velocity=0 time=3
note_on channel=0 note=75 velocity=0 time=7
note_on channel=0 note=76 velocity=0 time=8
note_on channel=0 note=71 velocity=66 time=200
note_on channel=0 note=99 velocity=104 time=9
note_on channel=0 note=87 velocity=103 time=2
note_on channel=0 note=75 velocity=100 time=1
note_on channel=0 note=95 velocity=65 time=11
note_on channel=0 note=95 velocity=0 time=83
note_on channel=0 note=95 velocity=11 time=0
note_on channel=0 note=75 velocity=0 time=24
note_on channel=0 note=87 velocity=0 time=13
note_on channel=0 note=71 velocity=0 time=5
note_on channel=0 note=99 velocity=0 time=13
control_change channel=0 control=64 value=113 time=64
note_on channel=0 note=95 velocity=0 time=2
control_change channel=0 control=64 value=72 time=14
note_on channel=0 note=71 velocity=76 time=10
note_on channel=0 note=75 velocity=92 time=3
control_change channel=0 control=64 value=0 time=1
note_on channel=0 note=99 velocity=98 time=2
note_on channel=0 note=63 velocity=79 time=3
note_on channel=0 note=87 velocity=100 time=2
control_change channel=0 control=64 value=31 time=54
control_change channel=0 control=64 value=65 time=15
control_change channel=0 control=64 value=78 time=15
control_change channel=0 control=64 value=93 time=16
note_on channel=0 note=99 velocity=0 time=12
control_change channel=0 control=64 value=108 time=2
control_change channel=0 control=64 value=127 time=15
note_on channel=0 note=71 velocity=0 time=38
note_on channel=0 note=75 velocity=0 time=13
note_on channel=0 note=87 velocity=0 time=15
note_on channel=0 note=68 velocity=76 time=138
note_on channel=0 note=71 velocity=81 time=9
note_on channel=0 note=95 velocity=101 time=3
note_on channel=0 note=92 velocity=88 time=2
note_on channel=0 note=83 velocity=98 time=1
note_on channel=0 note=63 velocity=0 time=68
note_on channel=0 note=68 velocity=0 time=2
note_on channel=0 note=71 velocity=0 time=72
note_on channel=0 note=83 velocity=0 time=23
note_on channel=0 note=95 velocity=0 time=20
note_on channel=0 note=92 velocity=0 time=14
control_change channel=0 control=64 value=93 time=41
control_change channel=0 control=64 value=74 time=15
note_on channel=0 note=68 velocity=84 time=12
note_on channel=0 note=71 velocity=83 time=1
control_change channel=0 control=64 value=72 time=10
note_on channel=0 note=95 velocity=100 time=1
note_on channel=0 note=83 velocity=89 time=1
note_on channel=0 note=92 velocity=92 time=5
note_on channel=0 note=63 velocity=68 time=2
control_change channel=0 control=64 value=80 time=6
control_change channel=0 control=64 value=88 time=16
control_change channel=0 control=64 value=98 time=15
control_change channel=0 control=64 value=119 time=14
control_change channel=0 control=64 value=127 time=16
note_on channel=0 note=68 velocity=0 time=8
note_on channel=0 note=71 velocity=0 time=13
note_on channel=0 note=83 velocity=0 time=18
note_on channel=0 note=95 velocity=0 time=23
note_on channel=0 note=92 velocity=0 time=93
note_on channel=0 note=63 velocity=0 time=50
note_on channel=0 note=59 velocity=60 time=16
note_on channel=0 note=68 velocity=90 time=7
note_on channel=0 note=80 velocity=93 time=3
note_on channel=0 note=92 velocity=98 time=0
note_on channel=0 note=68 velocity=0 time=35
note_on channel=0 note=59 velocity=0 time=4
note_on channel=0 note=80 velocity=0 time=27
note_on channel=0 note=92 velocity=0 time=9
note_on channel=0 note=51 velocity=79 time=131
note_on channel=0 note=59 velocity=60 time=40
note_on channel=0 note=51 velocity=0 time=25
control_change channel=0 control=64 value=89 time=31
control_change channel=0 control=64 value=66 time=16
control_change channel=0 control=64 value=65 time=14
note_on channel=0 note=80 velocity=96 time=0
note_on channel=0 note=92 velocity=101 time=0
note_on channel=0 note=83 velocity=59 time=1
note_on channel=0 note=68 velocity=89 time=9
control_change channel=0 control=64 value=72 time=5
control_change channel=0 control=64 value=79 time=16
note_on channel=0 note=83 velocity=0 time=3
control_change channel=0 control=64 value=92 time=11
control_change channel=0 control=64 value=115 time=15
control_change channel=0 control=64 value=127 time=16
note_on channel=0 note=92 velocity=0 time=90
note_on channel=0 note=68 velocity=0 time=44
note_on channel=0 note=80 velocity=0 time=117
note_on channel=0 note=87 velocity=92 time=190
note_on channel=0 note=56 velocity=59 time=2
note_on channel=0 note=75 velocity=80 time=6
note_on channel=0 note=63 velocity=54 time=7
note_on channel=0 note=75 velocity=0 time=54
note_on channel=0 note=87 velocity=0 time=9
note_on channel=0 note=63 velocity=0 time=56
note_on channel=0 note=59 velocity=0 time=34
note_on channel=0 note=56 velocity=0 time=97
note_on channel=0 note=40 velocity=47 time=590
note_on channel=0 note=74 velocity=80 time=67
control_change channel=0 control=64 value=104 time=5
note_on channel=0 note=68 velocity=46 time=12
control_change channel=0 control=64 value=83 time=3
note_on channel=0 note=64 velocity=52 time=0
control_change channel=0 control=64 value=67 time=16
control_change channel=0 control=64 value=0 time=15
control_change channel=0 control=64 value=41 time=91
control_change channel=0 control=64 value=60 time=16
control_change channel=0 control=64 value=65 time=14
control_change channel=0 control=64 value=69 time=16
control_change channel=0 control=64 value=73 time=15
control_change channel=0 control=64 value=76 time=15
control_change channel=0 control=64 value=79 time=22
control_change channel=0 control=64 value=83 time=15
note_on channel=0 note=64 velocity=0 time=6
control_change channel=0 control=64 value=86 time=10
control_change channel=0 control=64 value=90 time=15
note_on channel=0 note=68 velocity=0 time=0
control_change channel=0 control=64 value=94 time=15
control_change channel=0 control=64 value=98 time=16
control_change channel=0 control=64 value=103 time=15
control_change channel=0 control=64 value=107 time=15
control_change channel=0 control=64 value=113 time=15
control_change channel=0 control=64 value=121 time=15
note_on channel=0 note=47 velocity=43 time=13
control_change channel=0 control=64 value=127 time=3
note_on channel=0 note=40 velocity=0 time=92
note_on channel=0 note=64 velocity=43 time=9
note_on channel=0 note=68 velocity=51 time=3
note_on channel=0 note=64 velocity=0 time=40
note_on channel=0 note=68 velocity=0 time=59
note_on channel=0 note=47 velocity=0 time=20
note_on channel=0 note=50 velocity=45 time=17
note_on channel=0 note=68 velocity=53 time=118
note_on channel=0 note=50 velocity=0 time=1
note_on channel=0 note=64 velocity=44 time=10
note_on channel=0 note=52 velocity=55 time=18
note_on channel=0 note=64 velocity=0 time=20
note_on channel=0 note=68 velocity=0 time=20
note_on channel=0 note=52 velocity=0 time=82
note_on channel=0 note=47 velocity=67 time=15
note_on channel=0 note=68 velocity=55 time=23
note_on channel=0 note=64 velocity=46 time=7
control_change channel=0 control=64 value=93 time=9
control_change channel=0 control=64 value=75 time=15
note_on channel=0 note=64 velocity=0 time=4
note_on channel=0 note=68 velocity=0 time=7
control_change channel=0 control=64 value=65 time=4
control_change channel=0 control=64 value=68 time=23
control_change channel=0 control=64 value=70 time=14
control_change channel=0 control=64 value=72 time=16
control_change channel=0 control=64 value=74 time=15
note_on channel=0 note=50 velocity=64 time=3
control_change channel=0 control=64 value=78 time=12
control_change channel=0 control=64 value=84 time=15
note_on channel=0 note=64 velocity=56 time=5
control_change channel=0 control=64 value=91 time=10
note_on channel=0 note=68 velocity=56 time=2
control_change channel=0 control=64 value=96 time=14
note_on channel=0 note=74 velocity=0 time=8
control_change channel=0 control=64 value=99 time=7
control_change channel=0 control=64 value=103 time=16
control_change channel=0 control=64 value=107 time=14
note_on channel=0 note=64 velocity=0 time=10
control_change channel=0 control=64 value=112 time=5
control_change channel=0 control=64 value=119 time=16
control_change channel=0 control=64 value=127 time=15
note_on channel=0 note=52 velocity=60 time=5
note_on channel=0 note=68 velocity=0 time=0
note_on channel=0 note=74 velocity=90 time=0
note_on channel=0 note=47 velocity=0 time=69
note_on channel=0 note=50 velocity=0 time=11
note_on channel=0 note=52 velocity=0 time=33
note_on channel=0 note=68 velocity=57 time=16
note_on channel=0 note=64 velocity=59 time=3
note_on channel=0 note=59 velocity=58 time=7
note_on channel=0 note=64 velocity=0 time=42
note_on channel=0 note=59 velocity=0 time=9
note_on channel=0 note=68 velocity=0 time=22
note_on channel=0 note=73 velocity=81 time=84
note_on channel=0 note=52 velocity=51 time=9
note_on channel=0 note=64 velocity=53 time=8
control_change channel=0 control=64 value=108 time=16
control_change channel=0 control=64 value=90 time=15
control_change channel=0 control=64 value=71 time=15
control_change channel=0 control=64 value=0 time=16
note_on channel=0 note=74 velocity=0 time=5
note_on channel=0 note=56 velocity=63 time=66
control_change channel=0 control=64 value=49 time=20
control_change channel=0 control=64 value=63 time=15
control_change channel=0 control=64 value=65 time=16
control_change channel=0 control=64 value=68 time=15
control_change channel=0 control=64 value=70 time=15
control_change channel=0 control=64 value=74 time=24
control_change channel=0 control=64 value=78 time=15
control_change channel=0 control=64 value=84 time=15
control_change channel=0 control=64 value=88 time=15
control_change channel=0 control=64 value=92 time=15
note_on channel=0 note=74 velocity=75 time=1
note_on channel=0 note=59 velocity=54 time=10
control_change channel=0 control=64 value=97 time=5
note_on channel=0 note=64 velocity=0 time=2
note_on channel=0 note=73 velocity=0 time=11
control_change channel=0 control=64 value=102 time=2
control_change channel=0 control=64 value=106 time=15
control_change channel=0 control=64 value=114 time=15
control_change channel=0 control=64 value=127 time=15
note_on channel=0 note=52 velocity=0 time=5
note_on channel=0 note=56 velocity=0 time=35
note_on channel=0 note=59 velocity=0 time=4
note_on channel=0 note=62 velocity=63 time=30
note_on channel=0 note=62 velocity=0 time=26
note_on channel=0 note=78 velocity=58 time=113
note_on channel=0 note=74 velocity=0 time=18
note_on channel=0 note=76 velocity=65 time=22
control_change channel=0 control=64 value=107 time=6
note_on channel=0 note=44 velocity=54 time=0
control_change channel=0 control=64 value=83 time=15
note_on channel=0 note=78 velocity=0 time=12
control_change channel=0 control=64 value=66 time=4
control_change channel=0 control=64 value=14 time=14
control_change channel=0 control=64 value=50 time=15
control_change channel=0 control=64 value=59 time=16
control_change channel=0 control=64 value=61 time=14
control_change channel=0 control=64 value=64 time=15
control_change channel=0 control=64 value=66 time=16
control_change channel=0 control=64 value=69 time=15
control_change channel=0 control=64 value=73 time=16
control_change channel=0 control=64 value=76 time=14
control_change channel=0 control=64 value=78 time=15
note_on channel=0 note=50 velocity=39 time=5
control_change channel=0 control=64 value=80 time=11
control_change channel=0 control=64 value=83 time=15
control_change channel=0 control=64 value=87 time=15
control_change channel=0 control=64 value=90 time=16
control_change channel=0 control=64 value=93 time=15
control_change channel=0 control=64 value=95 time=16
control_change channel=0 control=64 value=98 time=14
control_change channel=0 control=64 value=104 time=15
control_change channel=0 control=64 value=109 time=16
control_change channel=0 control=64 value=115 time=15
control_change channel=0 control=64 value=126 time=16
control_change channel=0 control=64 value=127 time=22
note_on channel=0 note=74 velocity=57 time=16
note_on channel=0 note=52 velocity=43 time=4
note_on channel=0 note=76 velocity=0 time=45
note_on channel=0 note=44 velocity=0 time=37
note_on channel=0 note=74 velocity=0 time=10
note_on channel=0 note=52 velocity=0 time=92
note_on channel=0 note=56 velocity=58 time=0
note_on channel=0 note=50 velocity=0 time=2
note_on channel=0 note=56 velocity=0 time=68
control_change channel=0 control=64 value=90 time=120
control_change channel=0 control=64 value=63 time=15
control_change channel=0 control=64 value=58 time=16
note_on channel=0 note=47 velocity=82 time=8
note_on channel=0 note=52 velocity=92 time=1
note_on channel=0 note=40 velocity=82 time=2
control_change channel=0 control=64 value=69 time=3
note_on channel=0 note=50 velocity=83 time=2
note_on channel=0 note=73 velocity=94 time=2
note_on channel=0 note=61 velocity=94 time=3
control_change channel=0 control=64 value=78 time=8
control_change channel=0 control=64 value=96 time=16
control_change channel=0 control=64 value=127 time=15
note_on channel=0 note=61 velocity=0 time=125
note_on channel=0 note=73 velocity=0 time=33
note_on channel=0 note=40 velocity=0 time=6
note_on channel=0 note=50 velocity=0 time=18
note_on channel=0 note=47 velocity=0 time=9
note_on channel=0 note=52 velocity=0 time=19
note_on channel=0 note=62 velocity=95 time=12
note_on channel=0 note=74 velocity=100 time=2
note_on channel=0 note=62 velocity=0 time=16
note_on channel=0 note=74 velocity=0 time=29
note_on channel=0 note=98 velocity=102 time=213
note_on channel=0 note=71 velocity=72 time=1
note_on channel=0 note=86 velocity=91 time=3
note_on channel=0 note=74 velocity=86 time=5
note_on channel=0 note=64 velocity=73 time=1
note_on channel=0 note=96 velocity=69 time=0
note_on channel=0 note=95 velocity=80 time=10
note_on channel=0 note=86 velocity=0 time=51
note_on channel=0 note=96 velocity=0 time=15
note_on channel=0 note=74 velocity=0 time=3
note_on channel=0 note=95 velocity=0 time=0
note_on channel=0 note=98 velocity=0 time=4
note_on channel=0 note=71 velocity=0 time=21
note_on channel=0 note=64 velocity=0 time=5
control_change channel=0 control=64 value=109 time=76
control_change channel=0 control=64 value=76 time=15
note_on channel=0 note=98 velocity=98 time=1
note_on channel=0 note=86 velocity=94 time=1
note_on channel=0 note=95 velocity=87 time=6
note_on channel=0 note=71 velocity=81 time=4
note_on channel=0 note=74 velocity=93 time=2
control_change channel=0 control=64 value=36 time=2
note_on channel=0 note=64 velocity=80 time=0
note_on channel=0 note=94 velocity=40 time=2
note_on channel=0 note=94 velocity=0 time=3
control_change channel=0 control=64 value=56 time=9
control_change channel=0 control=64 value=66 time=15
control_change channel=0 control=64 value=71 time=16
control_change channel=0 control=64 value=77 time=15
control_change channel=0 control=64 value=87 time=16
control_change channel=0 control=64 value=99 time=14
note_on channel=0 note=86 velocity=0 time=6
note_on channel=0 note=74 velocity=0 time=6
control_change channel=0 control=64 value=108 time=3
control_change channel=0 control=64 value=118 time=16
note_on channel=0 note=95 velocity=0 time=0
control_change channel=0 control=64 value=127 time=15
note_on channel=0 note=98 velocity=0 time=75
note_on channel=0 note=97 velocity=96 time=42
note_on channel=0 note=85 velocity=101 time=2
note_on channel=0 note=73 velocity=91 time=3
note_on channel=0 note=69 velocity=77 time=12
note_on channel=0 note=71 velocity=0 time=3
note_on channel=0 note=93 velocity=48 time=8
note_on channel=0 note=93 velocity=0 time=23
note_on channel=0 note=85 velocity=0 time=16
note_on channel=0 note=69 velocity=0 time=7
note_on channel=0 note=73 velocity=0 time=1
note_on channel=0 note=64 velocity=0 time=17
note_on channel=0 note=97 velocity=0 time=1
note_on channel=0 note=68 velocity=78 time=110
note_on channel=0 note=83 velocity=98 time=0
note_on channel=0 note=95 velocity=93 time=1
note_on channel=0 note=71 velocity=88 time=1
note_on channel=0 note=92 velocity=92 time=1
note_on channel=0 note=64 velocity=70 time=7
note_on channel=0 note=94 velocity=35 time=38
note_on channel=0 note=94 velocity=0 time=29
note_on channel=0 note=71 velocity=0 time=11
note_on channel=0 note=83 velocity=0 time=0
note_on channel=0 note=64 velocity=0 time=6
note_on channel=0 note=68 velocity=0 time=3
note_on channel=0 note=92 velocity=0 time=14
note_on channel=0 note=95 velocity=0 time=5
note_on channel=0 note=71 velocity=92 time=73
note_on channel=0 note=86 velocity=80 time=0
note_on channel=0 note=68 velocity=84 time=5
note_on channel=0 note=83 velocity=92 time=1
note_on channel=0 note=95 velocity=96 time=1
note_on channel=0 note=64 velocity=79 time=4
control_change channel=0 control=64 value=87 time=7
control_change channel=0 control=64 value=67 time=16
control_change channel=0 control=64 value=65 time=15
control_change channel=0 control=64 value=72 time=16
control_change channel=0 control=64 value=77 time=14
control_change channel=0 control=64 value=85 time=15
control_change channel=0 control=64 value=95 time=16
note_on channel=0 note=83 velocity=0 time=2
note_on channel=0 note=95 velocity=0 time=2
control_change channel=0 control=64 value=108 time=11
control_change channel=0 control=64 value=127 time=16
note_on channel=0 note=66 velocity=68 time=56
note_on channel=0 note=68 velocity=0 time=4
note_on channel=0 note=64 velocity=0 time=2
note_on channel=0 note=93 velocity=103 time=1
note_on channel=0 note=81 velocity=95 time=2
note_on channel=0 note=69 velocity=79 time=1
note_on channel=0 note=71 velocity=0 time=2
note_on channel=0 note=86 velocity=0 time=9
note_on channel=0 note=81 velocity=0 time=35
note_on channel=0 note=93 velocity=0 time=32
note_on channel=0 note=68 velocity=78 time=24
note_on channel=0 note=69 velocity=0 time=18
note_on channel=0 note=68 velocity=0 time=25
note_on channel=0 note=66 velocity=0 time=11
note_on channel=0 note=92 velocity=97 time=35
note_on channel=0 note=80 velocity=91 time=2
note_on channel=0 note=86 velocity=34 time=11
note_on channel=0 note=86 velocity=0 time=30
note_on channel=0 note=52 velocity=70 time=48
note_on channel=0 note=50 velocity=51 time=8
note_on channel=0 note=59 velocity=73 time=8
note_on channel=0 note=80 velocity=0 time=12
note_on channel=0 note=50 velocity=0 time=10
note_on channel=0 note=92 velocity=0 time=5
note_on channel=0 note=52 velocity=0 time=36
control_change channel=0 control=64 value=96 time=4
control_change channel=0 control=64 value=65 time=16
control_change channel=0 control=64 value=0 time=15
note_on channel=0 note=80 velocity=92 time=20
note_on channel=0 note=68 velocity=86 time=2
note_on channel=0 note=92 velocity=100 time=1
control_change channel=0 control=64 value=59 time=38
control_change channel=0 control=64 value=69 time=15
control_change channel=0 control=64 value=77 time=15
control_change channel=0 control=64 value=84 time=16
control_change channel=0 control=64 value=91 time=15
note_on channel=0 note=68 velocity=0 time=10
control_change channel=0 control=64 value=102 time=6
control_change channel=0 control=64 value=116 time=15
note_on channel=0 note=80 velocity=0 time=3
control_change channel=0 control=64 value=127 time=11
note_on channel=0 note=92 velocity=0 time=37
note_on channel=0 note=57 velocity=64 time=32
note_on channel=0 note=90 velocity=86 time=6
note_on channel=0 note=78 velocity=93 time=7
note_on channel=0 note=66 velocity=80 time=3
note_on channel=0 note=57 velocity=0 time=35
note_on channel=0 note=90 velocity=0 time=22
note_on channel=0 note=66 velocity=0 time=33
note_on channel=0 note=78 velocity=0 time=9
note_on channel=0 note=85 velocity=37 time=58
note_on channel=0 note=85 velocity=0 time=40
note_on channel=0 note=56 velocity=59 time=82
note_on channel=0 note=88 velocity=92 time=0
note_on channel=0 note=76 velocity=82 time=3
note_on channel=0 note=64 velocity=63 time=10
note_on channel=0 note=86 velocity=63 time=3
note_on channel=0 note=76 velocity=0 time=3
note_on channel=0 note=59 velocity=0 time=12
note_on channel=0 note=52 velocity=60 time=3
note_on channel=0 note=64 velocity=0 time=7
note_on channel=0 note=86 velocity=0 time=5
note_on channel=0 note=88 velocity=0 time=1
note_on channel=0 note=56 velocity=0 time=24
note_on channel=0 note=52 velocity=0 time=42
note_on channel=0 note=41 velocity=78 time=304
control_change channel=0 control=64 value=93 time=79
note_on channel=0 note=74 velocity=82 time=3
control_change channel=0 control=64 value=70 time=12
note_on channel=0 note=62 velocity=55 time=3
control_change channel=0 control=64 value=0 time=13
note_on channel=0 note=68 velocity=43 time=1
control_change channel=0 control=64 value=51 time=121
control_change channel=0 control=64 value=63 time=15
note_on channel=0 note=68 velocity=0 time=12
control_change channel=0 control=64 value=68 time=3
control_change channel=0 control=64 value=72 time=15
control_change channel=0 control=64 value=75 time=15
note_on channel=0 note=62 velocity=0 time=13
control_change channel=0 control=64 value=78 time=2
control_change channel=0 control=64 value=82 time=16
control_change channel=0 control=64 value=86 time=15
control_change channel=0 control=64 value=91 time=15
note_on channel=0 note=47 velocity=54 time=8
control_change channel=0 control=64 value=95 time=7
control_change channel=0 control=64 value=98 time=15
control_change channel=0 control=64 value=101 time=16
control_change channel=0 control=64 value=106 time=15
control_change channel=0 control=64 value=112 time=15
control_change channel=0 control=64 value=119 time=23
note_on channel=0 note=62 velocity=48 time=2
note_on channel=0 note=68 velocity=46 time=11
control_change channel=0 control=64 value=127 time=2
note_on channel=0 note=62 velocity=0 time=28
note_on channel=0 note=68 velocity=0 time=18
note_on channel=0 note=41 velocity=0 time=32
note_on channel=0 note=50 velocity=62 time=0
note_on channel=0 note=50 velocity=0 time=129
note_on channel=0 note=47 velocity=0 time=6
note_on channel=0 note=68 velocity=32 time=4
note_on channel=0 note=62 velocity=13 time=2
note_on channel=0 note=53 velocity=61 time=6
note_on channel=0 note=68 velocity=0 time=33
note_on channel=0 note=53 velocity=0 time=4
note_on channel=0 note=62 velocity=0 time=2
note_on channel=0 note=47 velocity=77 time=88
note_on channel=0 note=62 velocity=41 time=27
control_change channel=0 control=64 value=111 time=2
note_on channel=0 note=68 velocity=42 time=5
control_change channel=0 control=64 value=85 time=9
control_change channel=0 control=64 value=67 time=16
note_on channel=0 note=62 velocity=0 time=7
note_on channel=0 note=68 velocity=0 time=6
control_change channel=0 control=64 value=59 time=2
control_change channel=0 control=64 value=66 time=14
control_change channel=0 control=64 value=69 time=16
control_change channel=0 control=64 value=71 time=15
note_on channel=0 note=50 velocity=65 time=14
control_change channel=0 control=64 value=75 time=2
control_change channel=0 control=64 value=81 time=15
control_change channel=0 control=64 value=88 time=15
note_on channel=0 note=68 velocity=43 time=11
control_change channel=0 control=64 value=95 time=4
note_on channel=0 note=62 velocity=37 time=6
control_change channel=0 control=64 value=99 time=9
control_change channel=0 control=64 value=103 time=16
note_on channel=0 note=74 velocity=0 time=1
control_change channel=0 control=64 value=108 time=14
control_change channel=0 control=64 value=119 time=15
note_on channel=0 note=62 velocity=0 time=10
control_change channel=0 control=64 value=127 time=6
note_on channel=0 note=74 velocity=84 time=34
note_on channel=0 note=68 velocity=0 time=2
note_on channel=0 note=53 velocity=63 time=2
note_on channel=0 note=47 velocity=0 time=113
note_on channel=0 note=68 velocity=56 time=12
note_on channel=0 note=62 velocity=56 time=4
note_on channel=0 note=53 velocity=0 time=4
note_on channel=0 note=59 velocity=72 time=9
note_on channel=0 note=50 velocity=0 time=3
note_on channel=0 note=62 velocity=0 time=21
note_on channel=0 note=59 velocity=0 time=24
note_on channel=0 note=68 velocity=0 time=50
note_on channel=0 note=53 velocity=69 time=42
note_on channel=0 note=73 velocity=79 time=2
note_on channel=0 note=62 velocity=46 time=15
control_change channel=0 control=64 value=98 time=35
control_change channel=0 control=64 value=79 time=15
control_change channel=0 control=64 value=64 time=16
control_change channel=0 control=64 value=0 time=15
note_on channel=0 note=74 velocity=0 time=6
control_change channel=0 control=64 value=55 time=24
control_change channel=0 control=64 value=63 time=15
control_change channel=0 control=64 value=67 time=17
control_change channel=0 control=64 value=70 time=15
control_change channel=0 control=64 value=72 time=15
note_on channel=0 note=56 velocity=66 time=6
control_change channel=0 control=64 value=75 time=10
control_change channel=0 control=64 value=78 time=15
control_change channel=0 control=64 value=82 time=15
control_change channel=0 control=64 value=86 time=15
control_change channel=0 control=64 value=89 time=15
control_change channel=0 control=64 value=92 time=15
note_on channel=0 note=62 velocity=0 time=4
control_change channel=0 control=64 value=95 time=11
control_change channel=0 control=64 value=99 time=15
control_change channel=0 control=64 value=106 time=16
control_change channel=0 control=64 value=112 time=15
note_on channel=0 note=74 velocity=82 time=7
control_change channel=0 control=64 value=117 time=8
note_on channel=0 note=59 velocity=58 time=1
note_on channel=0 note=73 velocity=0 time=10
control_change channel=0 control=64 value=126 time=4
control_change channel=0 control=64 value=127 time=15
note_on channel=0 note=53 velocity=0 time=54
note_on channel=0 note=56 velocity=0 time=38
note_on channel=0 note=59 velocity=0 time=2
note_on channel=0 note=62 velocity=73 time=18
note_on channel=0 note=62 velocity=0 time=25
note_on channel=0 note=77 velocity=68 time=157
note_on channel=0 note=74 velocity=0 time=2
note_on channel=0 note=44 velocity=54 time=28
control_change channel=0 control=64 value=123 time=18
note_on channel=0 note=76 velocity=69 time=10
control_change channel=0 control=64 value=108 time=5
control_change channel=0 control=64 value=97 time=16
control_change channel=0 control=64 value=85 time=14
control_change channel=0 control=64 value=72 time=15
control_change channel=0 control=64 value=56 time=16
control_change channel=0 control=64 value=0 time=15
note_on channel=0 note=77 velocity=0 time=15
note_on channel=0 note=50 velocity=55 time=132
control_change channel=0 control=64 value=21 time=6
control_change channel=0 control=64 value=41 time=15
control_change channel=0 control=64 value=54 time=16
control_change channel=0 control=64 value=62 time=15
control_change channel=0 control=64 value=64 time=15
control_change channel=0 control=64 value=66 time=15
control_change channel=0 control=64 value=68 time=15
control_change channel=0 control=64 value=70 time=16
control_change channel=0 control=64 value=73 time=15
control_change channel=0 control=64 value=76 time=15
control_change channel=0 control=64 value=79 time=15
control_change channel=0 control=64 value=81 time=15
control_change channel=0 control=64 value=84 time=16
note_on channel=0 note=53 velocity=47 time=10
note_on channel=0 note=74 velocity=64 time=3
control_change channel=0 control=64 value=86 time=2
control_change channel=0 control=64 value=89 time=15
control_change channel=0 control=64 value=92 time=15
control_change channel=0 control=64 value=95 time=15
note_on channel=0 note=76 velocity=0 time=4
control_change channel=0 control=64 value=98 time=10
control_change channel=0 control=64 value=101 time=16
control_change channel=0 control=64 value=105 time=15
control_change channel=0 control=64 value=111 time=15
control_change channel=0 control=64 value=122 time=15
note_on channel=0 note=74 velocity=0 time=9
control_change channel=0 control=64 value=127 time=6
note_on channel=0 note=50 velocity=0 time=66
note_on channel=0 note=53 velocity=0 time=5
note_on channel=0 note=44 velocity=0 time=12
note_on channel=0 note=56 velocity=54 time=2
note_on channel=0 note=56 velocity=0 time=77
control_change channel=0 control=64 value=101 time=196
note_on channel=0 note=53 velocity=95 time=1
note_on channel=0 note=41 velocity=79 time=2
note_on channel=0 note=47 velocity=77 time=1
note_on channel=0 note=50 velocity=85 time=1
note_on channel=0 note=73 velocity=93 time=6
note_on channel=0 note=61 velocity=87 time=1
control_change channel=0 control=64 value=66 time=3
control_change channel=0 control=64 value=0 time=15
control_change channel=0 control=64 value=11 time=15
control_change channel=0 control=64 value=60 time=16
control_change channel=0 control=64 value=67 time=14
control_change channel=0 control=64 value=77 time=16
control_change channel=0 control=64 value=91 time=15
control_change channel=0 control=64 value=118 time=15
control_change channel=0 control=64 value=127 time=17
note_on channel=0 note=61 velocity=0 time=48
note_on channel=0 note=41 velocity=0 time=17
note_on channel=0 note=73 velocity=0 time=11
note_on channel=0 note=47 velocity=0 time=33
note_on channel=0 note=50 velocity=0 time=6
note_on channel=0 note=53 velocity=0 time=13
note_on channel=0 note=62 velocity=88 time=19
note_on channel=0 note=74 velocity=103 time=0
note_on channel=0 note=62 velocity=0 time=19
note_on channel=0 note=74 velocity=0 time=29
note_on channel=0 note=71 velocity=74 time=203
note_on channel=0 note=65 velocity=68 time=4
note_on channel=0 note=74 velocity=87 time=1
note_on channel=0 note=98 velocity=90 time=0
note_on channel=0 note=86 velocity=93 time=3
note_on channel=0 note=96 velocity=88 time=1
note_on channel=0 note=95 velocity=71 time=7
note_on channel=0 note=93 velocity=53 time=26
note_on channel=0 note=93 velocity=0 time=1
note_on channel=0 note=95 velocity=0 time=8
note_on channel=0 note=95 velocity=36 time=0
note_on channel=0 note=97 velocity=23 time=3
note_on channel=0 note=86 velocity=0 time=17
note_on channel=0 note=74 velocity=0 time=14
note_on channel=0 note=95 velocity=0 time=0
note_on channel=0 note=96 velocity=0 time=6
note_on channel=0 note=97 velocity=0 time=1
note_on channel=0 note=98 velocity=0 time=4
note_on channel=0 note=71 velocity=0 time=7
note_on channel=0 note=65 velocity=0 time=11
control_change channel=0 control=64 value=93 time=103
note_on channel=0 note=98 velocity=98 time=2
note_on channel=0 note=71 velocity=88 time=3
note_on channel=0 note=95 velocity=91 time=0
note_on channel=0 note=86 velocity=94 time=1
note_on channel=0 note=65 velocity=79 time=2
note_on channel=0 note=74 velocity=98 time=3
control_change channel=0 control=64 value=68 time=5
control_change channel=0 control=64 value=56 time=15
control_change channel=0 control=64 value=67 time=14
control_change channel=0 control=64 value=74 time=16
control_change channel=0 control=64 value=82 time=15
control_change channel=0 control=64 value=94 time=15
control_change channel=0 control=64 value=110 time=15
note_on channel=0 note=86 velocity=0 time=10
note_on channel=0 note=95 velocity=0 time=2
control_change channel=0 control=64 value=127 time=3
note_on channel=0 note=74 velocity=0 time=6
note_on channel=0 note=85 velocity=97 time=147
note_on channel=0 note=97 velocity=98 time=0
note_on channel=0 note=70 velocity=79 time=7
note_on channel=0 note=73 velocity=94 time=0
note_on channel=0 note=94 velocity=77 time=0
note_on channel=0 note=98 velocity=0 time=10
note_on channel=0 note=71 velocity=0 time=14
note_on channel=0 note=94 velocity=0 time=6
note_on channel=0 note=85 velocity=0 time=12
note_on channel=0 note=73 velocity=0 time=24
note_on channel=0 note=97 velocity=0 time=0
note_on channel=0 note=65 velocity=0 time=6
note_on channel=0 note=70 velocity=0 time=1
note_on channel=0 note=68 velocity=81 time=123
note_on channel=0 note=83 velocity=100 time=7
note_on channel=0 note=71 velocity=83 time=1
note_on channel=0 note=95 velocity=98 time=0
note_on channel=0 note=65 velocity=69 time=3
note_on channel=0 note=92 velocity=91 time=0
note_on channel=0 note=71 velocity=0 time=46
note_on channel=0 note=68 velocity=0 time=3
note_on channel=0 note=65 velocity=0 time=10
note_on channel=0 note=83 velocity=0 time=5
note_on channel=0 note=95 velocity=0 time=28
note_on channel=0 note=92 velocity=0 time=4
control_change channel=0 control=64 value=81 time=63
control_change channel=0 control=64 value=62 time=16
note_on channel=0 note=65 velocity=69 time=7
note_on channel=0 note=86 velocity=74 time=0
note_on channel=0 note=71 velocity=82 time=6
control_change channel=0 control=64 value=63 time=2
note_on channel=0 note=95 velocity=110 time=0
note_on channel=0 note=83 velocity=93 time=2
note_on channel=0 note=68 velocity=74 time=1
control_change channel=0 control=64 value=70 time=11
control_change channel=0 control=64 value=77 time=16
control_change channel=0 control=64 value=83 time=15
control_change channel=0 control=64 value=93 time=15
control_change channel=0 control=64 value=103 time=15
control_change channel=0 control=64 value=113 time=15
note_on channel=0 note=83 velocity=0 time=2
control_change channel=0 control=64 value=127 time=14
note_on channel=0 note=95 velocity=0 time=11
note_on channel=0 note=66 velocity=66 time=76
note_on channel=0 note=70 velocity=82 time=5
note_on channel=0 note=94 velocity=98 time=0
note_on channel=0 note=82 velocity=95 time=2
note_on channel=0 note=68 velocity=0 time=10
note_on channel=0 note=65 velocity=0 time=2
note_on channel=0 note=71 velocity=0 time=6
note_on channel=0 note=86 velocity=0 time=3
note_on channel=0 note=82 velocity=0 time=37
note_on channel=0 note=94 velocity=0 time=8
note_on channel=0 note=68 velocity=71 time=72
note_on channel=0 note=70 velocity=0 time=18
note_on channel=0 note=65 velocity=70 time=4
note_on channel=0 note=66 velocity=0 time=13
note_on channel=0 note=65 velocity=0 time=9
note_on channel=0 note=68 velocity=0 time=3
note_on channel=0 note=80 velocity=85 time=9
note_on channel=0 note=92 velocity=95 time=0
note_on channel=0 note=86 velocity=42 time=9
note_on channel=0 note=93 velocity=71 time=16
note_on channel=0 note=82 velocity=61 time=5
note_on channel=0 note=86 velocity=0 time=25
note_on channel=0 note=82 velocity=0 time=1
note_on channel=0 note=93 velocity=0 time=12
note_on channel=0 note=53 velocity=77 time=27
note_on channel=0 note=80 velocity=0 time=10
note_on channel=0 note=59 velocity=75 time=10
note_on channel=0 note=92 velocity=0 time=10
control_change channel=0 control=64 value=83 time=50
note_on channel=0 note=53 velocity=0 time=15
control_change channel=0 control=64 value=0 time=1
note_on channel=0 note=92 velocity=106 time=35
note_on channel=0 note=80 velocity=92 time=1
control_change channel=0 control=64 value=55 time=9
note_on channel=0 note=68 velocity=88 time=3
control_change channel=0 control=64 value=68 time=12
control_change channel=0 control=64 value=77 time=16
control_change channel=0 control=64 value=87 time=15
control_change channel=0 control=64 value=97 time=15
control_change channel=0 control=64 value=103 time=15
control_change channel=0 control=64 value=115 time=15
control_change channel=0 control=64 value=127 time=15
note_on channel=0 note=80 velocity=0 time=9
note_on channel=0 note=68 velocity=0 time=15
note_on channel=0 note=92 velocity=0 time=51
note_on channel=0 note=58 velocity=65 time=79
note_on channel=0 note=90 velocity=97 time=8
note_on channel=0 note=78 velocity=93 time=1
note_on channel=0 note=66 velocity=76 time=11
note_on channel=0 note=58 velocity=0 time=40
note_on channel=0 note=66 velocity=0 time=42
note_on channel=0 note=78 velocity=0 time=42
note_on channel=0 note=90 velocity=0 time=4
note_on channel=0 note=65 velocity=81 time=107
note_on channel=0 note=56 velocity=69 time=12
note_on channel=0 note=53 velocity=76 time=7
note_on channel=0 note=65 velocity=0 time=3
note_on channel=0 note=59 velocity=0 time=13
note_on channel=0 note=77 velocity=87 time=12
note_on channel=0 note=53 velocity=0 time=3
note_on channel=0 note=89 velocity=106 time=0
note_on channel=0 note=56 velocity=0 time=6
note_on channel=0 note=77 velocity=0 time=15
note_on channel=0 note=89 velocity=0 time=18
note_on channel=0 note=42 velocity=76 time=168
note_on channel=0 note=47 velocity=65 time=18
control_change channel=0 control=64 value=80 time=69
control_change channel=0 control=64 value=0 time=16
note_on channel=0 note=51 velocity=82 time=0
note_on channel=0 note=82 velocity=44 time=57
note_on channel=0 note=42 velocity=0 time=7
note_on channel=0 note=82 velocity=0 time=18
control_change channel=0 control=64 value=63 time=9
note_on channel=0 note=54 velocity=89 time=9
note_on channel=0 note=92 velocity=99 time=1
note_on channel=0 note=47 velocity=0 time=4
control_change channel=0 control=64 value=76 time=1
note_on channel=0 note=80 velocity=90 time=0
control_change channel=0 control=64 value=92 time=15
note_on channel=0 note=51 velocity=0 time=9
note_on channel=0 note=83 velocity=10 time=1
control_change channel=0 control=64 value=123 time=5
note_on channel=0 note=54 velocity=0 time=1
note_on channel=0 note=80 velocity=0 time=5
control_change channel=0 control=64 value=127 time=9
note_on channel=0 note=92 velocity=0 time=10
note_on channel=0 note=83 velocity=0 time=23
note_on channel=0 note=54 velocity=84 time=231
note_on channel=0 note=90 velocity=100 time=242
note_on channel=0 note=87 velocity=90 time=2
note_on channel=0 note=78 velocity=95 time=2
note_on channel=0 note=83 velocity=78 time=1
note_on channel=0 note=59 velocity=75 time=15
note_on channel=0 note=54 velocity=0 time=81
note_on channel=0 note=63 velocity=81 time=121
note_on channel=0 note=78 velocity=0 time=120
note_on channel=0 note=90 velocity=0 time=30
note_on channel=0 note=59 velocity=0 time=56
note_on channel=0 note=83 velocity=0 time=1
note_on channel=0 note=71 velocity=85 time=46
note_on channel=0 note=87 velocity=0 time=27
note_on channel=0 note=63 velocity=0 time=112
note_on channel=0 note=87 velocity=94 time=146
note_on channel=0 note=75 velocity=85 time=5
note_on channel=0 note=71 velocity=0 time=9
note_on channel=0 note=75 velocity=0 time=68
note_on channel=0 note=87 velocity=0 time=23
note_on channel=0 note=63 velocity=79 time=78
note_on channel=0 note=54 velocity=75 time=11
note_on channel=0 note=75 velocity=88 time=5
note_on channel=0 note=87 velocity=98 time=1
note_on channel=0 note=63 velocity=0 time=8
note_on channel=0 note=54 velocity=0 time=20
note_on channel=0 note=75 velocity=0 time=44
note_on channel=0 note=87 velocity=0 time=16
note_on channel=0 note=83 velocity=96 time=101
note_on channel=0 note=71 velocity=88 time=3
note_on channel=0 note=71 velocity=0 time=24
note_on channel=0 note=42 velocity=70 time=25
note_on channel=0 note=83 velocity=0 time=6
note_on channel=0 note=49 velocity=87 time=57
control_change channel=0 control=64 value=72 time=55
note_on channel=0 note=42 velocity=0 time=2
control_change channel=0 control=64 value=0 time=12
note_on channel=0 note=58 velocity=84 time=60
control_change channel=0 control=64 value=51 time=1
note_on channel=0 note=90 velocity=100 time=8
note_on channel=0 note=78 velocity=95 time=4
control_change channel=0 control=64 value=71 time=3
note_on channel=0 note=85 velocity=42 time=0
note_on channel=0 note=49 velocity=0 time=13
control_change channel=0 control=64 value=83 time=3
note_on channel=0 note=78 velocity=0 time=11
note_on channel=0 note=85 velocity=0 time=1
note_on channel=0 note=58 velocity=0 time=2
control_change channel=0 control=64 value=98 time=1
note_on channel=0 note=90 velocity=0 time=16
control_change channel=0 control=64 value=121 time=1
control_change channel=0 control=64 value=127 time=22
note_on channel=0 note=54 velocity=87 time=205
note_on channel=0 note=58 velocity=70 time=260
note_on channel=0 note=76 velocity=99 time=8
note_on channel=0 note=85 velocity=88 time=2
note_on channel=0 note=88 velocity=96 time=1
note_on channel=0 note=82 velocity=80 time=1
note_on channel=0 note=61 velocity=79 time=238
note_on channel=0 note=54 velocity=0 time=9
note_on channel=0 note=58 velocity=0 time=164
note_on channel=0 note=76 velocity=0 time=104
note_on channel=0 note=70 velocity=84 time=18
note_on channel=0 note=88 velocity=0 time=17
note_on channel=0 note=82 velocity=0 time=104
note_on channel=0 note=85 velocity=0 time=47
note_on channel=0 note=61 velocity=0 time=97
note_on channel=0 note=70 velocity=0 time=43
note_on channel=0 note=85 velocity=92 time=57
note_on channel=0 note=73 velocity=82 time=11
note_on channel=0 note=73 velocity=0 time=88
note_on channel=0 note=85 velocity=0 time=47
note_on channel=0 note=64 velocity=67 time=85
note_on channel=0 note=54 velocity=69 time=11
note_on channel=0 note=85 velocity=95 time=11
note_on channel=0 note=73 velocity=79 time=4
note_on channel=0 note=64 velocity=0 time=3
note_on channel=0 note=54 velocity=0 time=19
note_on channel=0 note=73 velocity=0 time=61
note_on channel=0 note=82 velocity=78 time=144
note_on channel=0 note=70 velocity=74 time=3
note_on channel=0 note=85 velocity=0 time=8
note_on channel=0 note=83 velocity=40 time=30
control_change channel=0 control=64 value=105 time=1
note_on channel=0 note=42 velocity=73 time=10
control_change channel=0 control=64 value=65 time=5
note_on channel=0 note=83 velocity=0 time=10
control_change channel=0 control=64 value=0 time=5
note_on channel=0 note=82 velocity=0 time=51
control_change channel=0 control=64 value=59 time=25
control_change channel=0 control=64 value=67 time=16
note_on channel=0 note=49 velocity=76 time=7
control_change channel=0 control=64 value=71 time=8
control_change channel=0 control=64 value=74 time=14
control_change channel=0 control=64 value=79 time=16
control_change channel=0 control=64 value=82 time=15
note_on channel=0 note=42 velocity=0 time=5
control_change channel=0 control=64 value=83 time=10
control_change channel=0 control=64 value=85 time=15
control_change channel=0 control=64 value=87 time=15
control_change channel=0 control=64 value=88 time=16
control_change channel=0 control=64 value=89 time=15
control_change channel=0 control=64 value=90 time=14
note_on channel=0 note=78 velocity=84 time=10
control_change channel=0 control=64 value=90 time=6
note_on channel=0 note=58 velocity=64 time=9
note_on channel=0 note=70 velocity=0 time=0
control_change channel=0 control=64 value=90 time=22
control_change channel=0 control=64 value=87 time=15
control_change channel=0 control=64 value=83 time=15
control_change channel=0 control=64 value=80 time=16
control_change channel=0 control=64 value=81 time=31
control_change channel=0 control=64 value=82 time=21
control_change channel=0 control=64 value=83 time=15
control_change channel=0 control=64 value=84 time=16
control_change channel=0 control=64 value=87 time=15
control_change channel=0 control=64 value=88 time=16
control_change channel=0 control=64 value=89 time=14
control_change channel=0 control=64 value=90 time=15
control_change channel=0 control=64 value=91 time=16
control_change channel=0 control=64 value=94 time=16
control_change channel=0 control=64 value=97 time=16
control_change channel=0 control=64 value=100 time=15
control_change channel=0 control=64 value=97 time=45
control_change channel=0 control=64 value=93 time=14
control_change channel=0 control=64 value=91 time=16
note_on channel=0 note=76 velocity=81 time=36
control_change channel=0 control=64 value=93 time=25
control_change channel=0 control=64 value=96 time=15
control_change channel=0 control=64 value=99 time=15
control_change channel=0 control=64 value=100 time=15
control_change channel=0 control=64 value=101 time=16
note_on channel=0 note=78 velocity=0 time=6
control_change channel=0 control=64 value=101 time=9
note_on channel=0 note=58 velocity=0 time=13
control_change channel=0 control=64 value=103 time=3
note_on channel=0 note=49 velocity=0 time=14
control_change channel=0 control=64 value=104 time=1
note_on channel=0 note=76 velocity=0 time=12
control_change channel=0 control=64 value=105 time=3
control_change channel=0 control=64 value=102 time=45
control_change channel=0 control=64 value=99 time=16
control_change channel=0 control=64 value=97 time=15
note_on channel=0 note=73 velocity=86 time=37
control_change channel=0 control=64 value=98 time=24
control_change channel=0 control=64 value=99 time=15
control_change channel=0 control=64 value=99 time=15
control_change channel=0 control=64 value=100 time=15
control_change channel=0 control=64 value=100 time=15
control_change channel=0 control=64 value=101 time=30
control_change channel=0 control=64 value=101 time=15
control_change channel=0 control=64 value=102 time=16
note_on channel=0 note=73 velocity=0 time=2
control_change channel=0 control=64 value=100 time=43
control_change channel=0 control=64 value=94 time=15
control_change channel=0 control=64 value=88 time=23
note_on channel=0 note=70 velocity=79 time=5
control_change channel=0 control=64 value=86 time=10
control_change channel=0 control=64 value=87 time=31
control_change channel=0 control=64 value=89 time=15
control_change channel=0 control=64 value=91 time=15
control_change channel=0 control=64 value=93 time=15
control_change channel=0 control=64 value=95 time=16
control_change channel=0 control=64 value=96 time=15
note_on channel=0 note=70 velocity=0 time=13
control_change channel=0 control=64 value=98 time=2
control_change channel=0 control=64 value=99 time=16
control_change channel=0 control=64 value=100 time=14
control_change channel=0 control=64 value=98 time=32
control_change channel=0 control=64 value=93 time=15
note_on channel=0 note=66 velocity=73 time=3
control_change channel=0 control=64 value=86 time=13
control_change channel=0 control=64 value=84 time=15
control_change channel=0 control=64 value=85 time=30
control_change channel=0 control=64 value=87 time=15
control_change channel=0 control=64 value=89 time=16
control_change channel=0 control=64 value=90 time=14
control_change channel=0 control=64 value=92 time=15
control_change channel=0 control=64 value=94 time=16
control_change channel=0 control=64 value=97 time=15
control_change channel=0 control=64 value=99 time=15
control_change channel=0 control=64 value=96 time=46
note_on channel=0 note=64 velocity=70 time=6
control_change channel=0 control=64 value=91 time=9
note_on channel=0 note=66 velocity=0 time=8
control_change channel=0 control=64 value=85 time=7
control_change channel=0 control=64 value=85 time=16
control_change channel=0 control=64 value=85 time=15
control_change channel=0 control=64 value=86 time=15
control_change channel=0 control=64 value=88 time=15
control_change channel=0 control=64 value=90 time=15
control_change channel=0 control=64 value=91 time=16
control_change channel=0 control=64 value=91 time=15
note_on channel=0 note=64 velocity=0 time=7
control_change channel=0 control=64 value=92 time=8
control_change channel=0 control=64 value=92 time=15
control_change channel=0 control=64 value=90 time=30
control_change channel=0 control=64 value=86 time=15
note_on channel=0 note=61 velocity=65 time=14
control_change channel=0 control=64 value=79 time=1
control_change channel=0 control=64 value=75 time=16
control_change channel=0 control=64 value=77 time=30
control_change channel=0 control=64 value=78 time=15
control_change channel=0 control=64 value=80 time=15
control_change channel=0 control=64 value=83 time=16
control_change channel=0 control=64 value=86 time=23
control_change channel=0 control=64 value=89 time=15
control_change channel=0 control=64 value=91 time=15
control_change channel=0 control=64 value=91 time=15
note_on channel=0 note=61 velocity=0 time=1
control_change channel=0 control=64 value=90 time=15
control_change channel=0 control=64 value=86 time=14
control_change channel=0 control=64 value=80 time=15
control_change channel=0 control=64 value=76 time=16
note_on channel=0 note=58 velocity=64 time=1
control_change channel=0 control=64 value=77 time=30
control_change channel=0 control=64 value=79 time=14
control_change channel=0 control=64 value=81 time=15
control_change channel=0 control=64 value=84 time=16
control_change channel=0 control=64 value=86 time=15
control_change channel=0 control=64 value=86 time=32
control_change channel=0 control=64 value=87 time=15
control_change channel=0 control=64 value=88 time=15
control_change channel=0 control=64 value=89 time=15
control_change channel=0 control=64 value=88 time=15
control_change channel=0 control=64 value=86 time=15
control_change channel=0 control=64 value=80 time=15
control_change channel=0 control=64 value=71 time=15
note_on channel=0 note=54 velocity=60 time=5
control_change channel=0 control=64 value=68 time=11
note_on channel=0 note=58 velocity=0 time=3
control_change channel=0 control=64 value=70 time=12
control_change channel=0 control=64 value=72 time=16
control_change channel=0 control=64 value=74 time=14
control_change channel=0 control=64 value=76 time=15
control_change channel=0 control=64 value=77 time=16
control_change channel=0 control=64 value=78 time=15
control_change channel=0 control=64 value=80 time=16
control_change channel=0 control=64 value=81 time=14
control_change channel=0 control=64 value=83 time=15
control_change channel=0 control=64 value=84 time=16
control_change channel=0 control=64 value=85 time=15
control_change channel=0 control=64 value=86 time=15
control_change channel=0 control=64 value=84 time=30
control_change channel=0 control=64 value=79 time=16
note_on channel=0 note=52 velocity=61 time=7
control_change channel=0 control=64 value=72 time=8
control_change channel=0 control=67 value=9 time=0
control_change channel=0 control=64 value=67 time=15
control_change channel=0 control=67 value=9 time=0
note_on channel=0 note=54 velocity=0 time=7
control_change channel=0 control=64 value=68 time=9
control_change channel=0 control=67 value=10 time=0
control_change channel=0 control=64 value=70 time=15
control_change channel=0 control=67 value=10 time=0
control_change channel=0 control=64 value=71 time=15
control_change channel=0 control=64 value=73 time=16
control_change channel=0 control=64 value=75 time=15
control_change channel=0 control=64 value=76 time=16
control_change channel=0 control=64 value=77 time=14
control_change channel=0 control=64 value=79 time=15
control_change channel=0 control=64 value=80 time=14
note_on channel=0 note=52 velocity=0 time=0
control_change channel=0 control=64 value=80 time=15
control_change channel=0 control=64 value=79 time=22
control_change channel=0 control=64 value=75 time=15
control_change channel=0 control=64 value=69 time=15
control_change channel=0 control=64 value=64 time=16
note_on channel=0 note=49 velocity=54 time=14
control_change channel=0 control=64 value=65 time=1
control_change channel=0 control=67 value=11 time=0
control_change channel=0 control=64 value=67 time=15
control_change channel=0 control=64 value=69 time=15
control_change channel=0 control=64 value=70 time=15
control_change channel=0 control=64 value=72 time=15
control_change channel=0 control=67 value=11 time=0
control_change channel=0 control=64 value=74 time=16
control_change channel=0 control=64 value=76 time=15
control_change channel=0 control=67 value=12 time=0
control_change channel=0 control=64 value=77 time=16
control_change channel=0 control=67 value=12 time=0
control_change channel=0 control=64 value=78 time=15
control_change channel=0 control=67 value=15 time=0
control_change channel=0 control=64 value=77 time=15
control_change channel=0 control=67 value=18 time=0
control_change channel=0 control=64 value=75 time=15
control_change channel=0 control=67 value=20 time=0
note_on channel=0 note=49 velocity=0 time=12
control_change channel=0 control=64 value=71 time=3
control_change channel=0 control=67 value=22 time=0
control_change channel=0 control=64 value=65 time=16
control_change channel=0 control=67 value=23 time=0
control_change channel=0 control=67 value=23 time=15
control_change channel=0 control=64 value=67 time=15
control_change channel=0 control=64 value=69 time=16
control_change channel=0 control=64 value=71 time=15
control_change channel=0 control=64 value=73 time=15
control_change channel=0 control=64 value=76 time=16
note_on channel=0 note=46 velocity=49 time=2
control_change channel=0 control=64 value=77 time=13
control_change channel=0 control=64 value=79 time=15
control_change channel=0 control=64 value=81 time=15
control_change channel=0 control=64 value=83 time=15
control_change channel=0 control=64 value=85 time=16
control_change channel=0 control=67 value=23 time=0
control_change channel=0 control=64 value=87 time=15
control_change channel=0 control=64 value=88 time=14
control_change channel=0 control=64 value=88 time=16
note_on channel=0 note=46 velocity=0 time=15
control_change channel=0 control=64 value=88 time=151
control_change channel=0 control=64 value=86 time=15
control_change channel=0 control=64 value=84 time=16
control_change channel=0 control=64 value=79 time=15
note_on channel=0 note=42 velocity=46 time=5
control_change channel=0 control=64 value=72 time=11
control_change channel=0 control=64 value=66 time=14
control_change channel=0 control=64 value=66 time=15
control_change channel=0 control=64 value=67 time=16
control_change channel=0 control=64 value=68 time=15
control_change channel=0 control=64 value=69 time=23
control_change channel=0 control=64 value=70 time=14
control_change channel=0 control=64 value=72 time=15
control_change channel=0 control=64 value=74 time=16
control_change channel=0 control=64 value=76 time=15
control_change channel=0 control=64 value=77 time=16
control_change channel=0 control=64 value=78 time=15
control_change channel=0 control=64 value=79 time=15
control_change channel=0 control=64 value=81 time=15
control_change channel=0 control=64 value=83 time=15
control_change channel=0 control=67 value=23 time=0
control_change channel=0 control=64 value=85 time=15
control_change channel=0 control=64 value=86 time=16
control_change channel=0 control=64 value=87 time=15
control_change channel=0 control=64 value=88 time=16
note_on channel=0 note=42 velocity=0 time=23
control_change channel=0 control=64 value=87 time=67
control_change channel=0 control=67 value=24 time=0
control_change channel=0 control=64 value=86 time=15
control_change channel=0 control=64 value=83 time=17
control_change channel=0 control=64 value=77 time=15
note_on channel=0 note=40 velocity=49 time=0
control_change channel=0 control=64 value=68 time=15
control_change channel=0 control=67 value=24 time=0
control_change channel=0 control=64 value=59 time=16
control_change channel=0 control=64 value=60 time=15
control_change channel=0 control=64 value=63 time=15
control_change channel=0 control=64 value=63 time=15
control_change channel=0 control=64 value=64 time=15
control_change channel=0 control=67 value=24 time=0
control_change channel=0 control=64 value=66 time=15
control_change channel=0 control=64 value=67 time=15
control_change channel=0 control=64 value=69 time=15
control_change channel=0 control=64 value=71 time=16
control_change channel=0 control=64 value=72 time=15
control_change channel=0 control=64 value=73 time=15
control_change channel=0 control=64 value=75 time=15
control_change channel=0 control=64 value=77 time=15
control_change channel=0 control=64 value=81 time=16
control_change channel=0 control=64 value=84 time=14
control_change channel=0 control=64 value=85 time=15
control_change channel=0 control=64 value=86 time=16
note_on channel=0 note=40 velocity=0 time=14
control_change channel=0 control=64 value=87 time=1
control_change channel=0 control=64 value=87 time=16
control_change channel=0 control=64 value=87 time=113
control_change channel=0 control=67 value=24 time=0
control_change channel=0 control=64 value=86 time=16
control_change channel=0 control=64 value=84 time=14
control_change channel=0 control=64 value=81 time=16
control_change channel=0 control=67 value=25 time=0
control_change channel=0 control=64 value=75 time=15
control_change channel=0 control=64 value=67 time=15
control_change channel=0 control=64 value=50 time=16
note_on channel=0 note=37 velocity=44 time=11
control_change channel=0 control=64 value=40 time=3
control_change channel=0 control=64 value=52 time=15
control_change channel=0 control=64 value=58 time=16
control_change channel=0 control=64 value=62 time=15
control_change channel=0 control=64 value=64 time=16
control_change channel=0 control=64 value=66 time=14
control_change channel=0 control=64 value=68 time=15
control_change channel=0 control=64 value=70 time=16
control_change channel=0 control=64 value=73 time=15
control_change channel=0 control=64 value=75 time=16
control_change channel=0 control=67 value=25 time=0
control_change channel=0 control=64 value=76 time=15
control_change channel=0 control=67 value=28 time=0
control_change channel=0 control=64 value=78 time=15
control_change channel=0 control=67 value=32 time=0
control_change channel=0 control=64 value=79 time=16
control_change channel=0 control=67 value=35 time=0
control_change channel=0 control=64 value=81 time=15
control_change channel=0 control=67 value=38 time=0
control_change channel=0 control=64 value=84 time=14
control_change channel=0 control=67 value=41 time=0
control_change channel=0 control=64 value=87 time=16
control_change channel=0 control=67 value=43 time=0
control_change channel=0 control=64 value=88 time=15
control_change channel=0 control=67 value=44 time=0
control_change channel=0 control=64 value=88 time=16
control_change channel=0 control=67 value=45 time=0
note_on channel=0 note=37 velocity=0 time=3
control_change channel=0 control=64 value=89 time=12
control_change channel=0 control=67 value=45 time=0
control_change channel=0 control=64 value=90 time=15
control_change channel=0 control=67 value=46 time=0
control_change channel=0 control=64 value=90 time=16
control_change channel=0 control=67 value=46 time=0
control_change channel=0 control=67 value=47 time=15
control_change channel=0 control=67 value=47 time=30
control_change channel=0 control=67 value=48 time=122
control_change channel=0 control=67 value=48 time=166
control_change channel=0 control=64 value=90 time=100
control_change channel=0 control=64 value=89 time=15
control_change channel=0 control=64 value=89 time=14
control_change channel=0 control=67 value=49 time=16
control_change channel=0 control=64 value=88 time=15
control_change channel=0 control=64 value=87 time=15
note_on channel=0 note=34 velocity=38 time=0
control_change channel=0 control=64 value=85 time=16
control_change channel=0 control=64 value=82 time=14
control_change channel=0 control=67 value=49 time=0
control_change channel=0 control=64 value=78 time=16
control_change channel=0 control=67 value=52 time=0
control_change channel=0 control=64 value=73 time=15
control_change channel=0 control=67 value=53 time=0
control_change channel=0 control=64 value=65 time=15
control_change channel=0 control=67 value=54 time=0
control_change channel=0 control=64 value=55 time=15
control_change channel=0 control=67 value=56 time=0
control_change channel=0 control=64 value=40 time=15
control_change channel=0 control=67 value=57 time=0
control_change channel=0 control=64 value=39 time=15
control_change channel=0 control=67 value=57 time=0
control_change channel=0 control=67 value=58 time=16
control_change channel=0 control=64 value=40 time=15
control_change channel=0 control=67 value=59 time=0
control_change channel=0 control=64 value=40 time=16
control_change channel=0 control=67 value=60 time=0
control_change channel=0 control=64 value=42 time=15
control_change channel=0 control=67 value=61 time=0
control_change channel=0 control=64 value=44 time=15
control_change channel=0 control=67 value=63 time=0
control_change channel=0 control=64 value=47 time=15
control_change channel=0 control=67 value=65 time=0
control_change channel=0 control=64 value=51 time=15
control_change channel=0 control=67 value=65 time=0
control_change channel=0 control=64 value=53 time=16
control_change channel=0 control=67 value=66 time=0
control_change channel=0 control=64 value=55 time=15
control_change channel=0 control=67 value=68 time=0
control_change channel=0 control=64 value=57 time=15
control_change channel=0 control=67 value=69 time=0
control_change channel=0 control=64 value=59 time=16
control_change channel=0 control=67 value=70 time=0
control_change channel=0 control=64 value=61 time=15
control_change channel=0 control=67 value=71 time=0
control_change channel=0 control=64 value=63 time=15
control_change channel=0 control=67 value=72 time=0
control_change channel=0 control=64 value=64 time=16
control_change channel=0 control=67 value=73 time=0
control_change channel=0 control=64 value=65 time=15
control_change channel=0 control=67 value=75 time=0
control_change channel=0 control=64 value=67 time=15
control_change channel=0 control=67 value=76 time=0
control_change channel=0 control=64 value=68 time=15
control_change channel=0 control=67 value=77 time=0
control_change channel=0 control=64 value=69 time=15
control_change channel=0 control=67 value=78 time=0
control_change channel=0 control=64 value=71 time=16
control_change channel=0 control=67 value=80 time=0
control_change channel=0 control=64 value=73 time=15
control_change channel=0 control=67 value=81 time=0
control_change channel=0 control=64 value=75 time=16
control_change channel=0 control=67 value=81 time=0
control_change channel=0 control=64 value=77 time=14
control_change channel=0 control=67 value=82 time=0
control_change channel=0 control=64 value=79 time=15
control_change channel=0 control=67 value=82 time=0
control_change channel=0 control=64 value=80 time=16
control_change channel=0 control=67 value=83 time=0
control_change channel=0 control=64 value=83 time=15
control_change channel=0 control=64 value=85 time=15
control_change channel=0 control=67 value=83 time=0
control_change channel=0 control=64 value=87 time=15
control_change channel=0 control=64 value=90 time=15
control_change channel=0 control=64 value=92 time=16
control_change channel=0 control=64 value=94 time=15
control_change channel=0 control=64 value=95 time=14
control_change channel=0 control=64 value=97 time=24
control_change channel=0 control=64 value=98 time=15
control_change channel=0 control=64 value=99 time=16
control_change channel=0 control=64 value=101 time=15
control_change channel=0 control=64 value=101 time=14
control_change channel=0 control=64 value=102 time=31
control_change channel=0 control=67 value=84 time=30
note_on channel=0 note=34 velocity=0 time=54
control_change channel=0 control=67 value=84 time=22
control_change channel=0 control=67 value=85 time=46
control_change channel=0 control=64 value=102 time=14
control_change channel=0 control=67 value=85 time=16
control_change channel=0 control=67 value=88 time=15
control_change channel=0 control=67 value=89 time=15
control_change channel=0 control=67 value=90 time=15
control_change channel=0 control=67 value=91 time=15
control_change channel=0 control=67 value=91 time=16
control_change channel=0 control=67 value=92 time=45
control_change channel=0 control=64 value=102 time=374
control_change channel=0 control=67 value=92 time=46
control_change channel=0 control=64 value=101 time=76
control_change channel=0 control=64 value=101 time=14
control_change channel=0 control=64 value=100 time=16
control_change channel=0 control=64 value=100 time=15
control_change channel=0 control=64 value=99 time=16
control_change channel=0 control=64 value=98 time=15
control_change channel=0 control=64 value=98 time=15
control_change channel=0 control=67 value=93 time=0
control_change channel=0 control=64 value=96 time=16
note_on channel=0 note=31 velocity=36 time=2
control_change channel=0 control=64 value=95 time=13
control_change channel=0 control=64 value=92 time=15
control_change channel=0 control=64 value=89 time=15
control_change channel=0 control=64 value=86 time=15
control_change channel=0 control=64 value=82 time=16
control_change channel=0 control=67 value=93 time=0
control_change channel=0 control=64 value=77 time=15
control_change channel=0 control=64 value=70 time=14
control_change channel=0 control=67 value=95 time=0
control_change channel=0 control=64 value=59 time=16
control_change channel=0 control=67 value=97 time=0
control_change channel=0 control=64 value=34 time=15
control_change channel=0 control=67 value=99 time=0
control_change channel=0 control=64 value=28 time=15
control_change channel=0 control=67 value=101 time=0
control_change channel=0 control=67 value=102 time=15
control_change channel=0 control=67 value=103 time=15
control_change channel=0 control=67 value=104 time=16
control_change channel=0 control=64 value=29 time=15
control_change channel=0 control=67 value=105 time=0
control_change channel=0 control=64 value=34 time=14
control_change channel=0 control=67 value=106 time=0
control_change channel=0 control=64 value=41 time=16
control_change channel=0 control=67 value=107 time=0
control_change channel=0 control=64 value=47 time=15
control_change channel=0 control=67 value=109 time=0
control_change channel=0 control=64 value=51 time=16
control_change channel=0 control=67 value=110 time=0
control_change channel=0 control=64 value=55 time=15
control_change channel=0 control=67 value=111 time=0
control_change channel=0 control=64 value=58 time=15
control_change channel=0 control=67 value=112 time=0
control_change channel=0 control=64 value=61 time=17
control_change channel=0 control=67 value=113 time=0
control_change channel=0 control=64 value=64 time=14
control_change channel=0 control=67 value=115 time=0
control_change channel=0 control=64 value=65 time=16
control_change channel=0 control=67 value=116 time=0
control_change channel=0 control=64 value=67 time=15
control_change channel=0 control=67 value=118 time=0
control_change channel=0 control=64 value=68 time=15
control_change channel=0 control=67 value=120 time=0
control_change channel=0 control=64 value=70 time=15
control_change channel=0 control=67 value=122 time=0
control_change channel=0 control=64 value=73 time=15
control_change channel=0 control=67 value=124 time=0
control_change channel=0 control=64 value=75 time=15
control_change channel=0 control=67 value=125 time=0
control_change channel=0 control=64 value=77 time=16
control_change channel=0 control=67 value=127 time=0
control_change channel=0 control=64 value=79 time=15
control_change channel=0 control=67 value=127 time=0
control_change channel=0 control=64 value=81 time=15
control_change channel=0 control=64 value=84 time=15
control_change channel=0 control=64 value=87 time=15
control_change channel=0 control=64 value=89 time=16
control_change channel=0 control=64 value=91 time=15
control_change channel=0 control=64 value=93 time=23
control_change channel=0 control=64 value=95 time=15
control_change channel=0 control=64 value=97 time=15
control_change channel=0 control=64 value=98 time=15
control_change channel=0 control=64 value=99 time=15
control_change channel=0 control=64 value=99 time=16
control_change channel=0 control=64 value=100 time=33
control_change channel=0 control=64 value=100 time=29
note_on channel=0 note=31 velocity=0 time=190
control_change channel=0 control=64 value=100 time=1361
control_change channel=0 control=64 value=99 time=45
control_change channel=0 control=64 value=99 time=16
control_change channel=0 control=64 value=98 time=15
note_on channel=0 note=30 velocity=32 time=8
control_change channel=0 control=64 value=98 time=7
control_change channel=0 control=64 value=97 time=16
control_change channel=0 control=64 value=96 time=14
control_change channel=0 control=64 value=95 time=15
control_change channel=0 control=64 value=93 time=16
control_change channel=0 control=64 value=90 time=15
control_change channel=0 control=64 value=87 time=16
control_change channel=0 control=64 value=83 time=14
control_change channel=0 control=64 value=77 time=15
control_change channel=0 control=64 value=69 time=16
control_change channel=0 control=64 value=58 time=15
control_change channel=0 control=64 value=0 time=16
control_change channel=0 control=64 value=26 time=274
control_change channel=0 control=64 value=40 time=16
control_change channel=0 control=64 value=51 time=15
control_change channel=0 control=64 value=58 time=16
control_change channel=0 control=64 value=62 time=21
control_change channel=0 control=64 value=64 time=15
control_change channel=0 control=64 value=66 time=16
control_change channel=0 control=64 value=67 time=15
control_change channel=0 control=64 value=69 time=16
control_change channel=0 control=64 value=71 time=14
control_change channel=0 control=64 value=73 time=15
control_change channel=0 control=64 value=75 time=16
control_change channel=0 control=64 value=76 time=15
control_change channel=0 control=64 value=78 time=16
control_change channel=0 control=64 value=80 time=15
control_change channel=0 control=64 value=82 time=15
control_change channel=0 control=64 value=84 time=16
control_change channel=0 control=64 value=86 time=15
control_change channel=0 control=64 value=88 time=14
control_change channel=0 control=64 value=89 time=16
control_change channel=0 control=64 value=91 time=15
control_change channel=0 control=64 value=92 time=16
control_change channel=0 control=64 value=93 time=15
control_change channel=0 control=64 value=95 time=14
control_change channel=0 control=64 value=96 time=16
control_change channel=0 control=64 value=97 time=15
control_change channel=0 control=64 value=97 time=14
control_change channel=0 control=64 value=98 time=31
control_change channel=0 control=64 value=99 time=16
control_change channel=0 control=64 value=99 time=15
control_change channel=0 control=64 value=100 time=12
control_change channel=0 control=64 value=99 time=2364
control_change channel=0 control=64 value=99 time=61
control_change channel=0 control=64 value=98 time=106
control_change channel=0 control=64 value=98 time=145
control_change channel=0 control=64 value=97 time=76
note_on channel=0 note=30 velocity=0 time=81
control_change channel=0 control=64 value=97 time=42
control_change channel=0 control=64 value=96 time=121
control_change channel=0 control=64 value=96 time=30
control_change channel=0 control=64 value=95 time=46
control_change channel=0 control=64 value=95 time=31
control_change channel=0 control=64 value=94 time=46
control_change channel=0 control=64 value=94 time=15
control_change channel=0 control=64 value=93 time=15
control_change channel=0 control=64 value=93 time=30
control_change channel=0 control=64 value=92 time=30
control_change channel=0 control=64 value=92 time=31
control_change channel=0 control=64 value=91 time=15
control_change channel=0 control=64 value=91 time=15
control_change channel=0 control=64 value=90 time=15
control_change channel=0 control=64 value=90 time=46
control_change channel=0 control=64 value=89 time=14
control_change channel=0 control=64 value=89 time=31
control_change channel=0 control=64 value=88 time=38
control_change channel=0 control=64 value=88 time=31
control_change channel=0 control=64 value=87 time=15
control_change channel=0 control=64 value=87 time=30
control_change channel=0 control=64 value=86 time=31
control_change channel=0 control=64 value=86 time=15
control_change channel=0 control=64 value=85 time=15
control_change channel=0 control=64 value=85 time=15
control_change channel=0 control=64 value=84 time=16
control_change channel=0 control=64 value=84 time=31
control_change channel=0 control=64 value=83 time=15
control_change channel=0 control=64 value=83 time=15
control_change channel=0 control=64 value=82 time=15
control_change channel=0 control=64 value=81 time=16
control_change channel=0 control=64 value=81 time=30
control_change channel=0 control=64 value=80 time=15
control_change channel=0 control=64 value=79 time=15
control_change channel=0 control=64 value=79 time=16
control_change channel=0 control=64 value=78 time=45
control_change channel=0 control=64 value=78 time=30
control_change channel=0 control=64 value=77 time=30
control_change channel=0 control=64 value=77 time=16
control_change channel=0 control=64 value=76 time=15
control_change channel=0 control=64 value=75 time=15
control_change channel=0 control=64 value=74 time=16
control_change channel=0 control=64 value=73 time=15
control_change channel=0 control=64 value=72 time=16
control_change channel=0 control=64 value=70 time=14
control_change channel=0 control=64 value=69 time=15
control_change channel=0 control=64 value=69 time=16
control_change channel=0 control=64 value=68 time=44
control_change channel=0 control=64 value=68 time=46
control_change channel=0 control=64 value=67 time=30
control_change channel=0 control=64 value=67 time=15
control_change channel=0 control=64 value=66 time=15
control_change channel=0 control=64 value=66 time=16
control_change channel=0 control=64 value=65 time=22
control_change channel=0 control=64 value=65 time=16
control_change channel=0 control=64 value=64 time=15
control_change channel=0 control=64 value=64 time=16
control_change channel=0 control=64 value=63 time=29
control_change channel=0 control=64 value=62 time=31
control_change channel=0 control=64 value=61 time=15
control_change channel=0 control=64 value=61 time=15
control_change channel=0 control=64 value=60 time=31
control_change channel=0 control=64 value=60 time=15
control_change channel=0 control=64 value=58 time=14
control_change channel=0 control=64 value=57 time=18
control_change channel=0 control=64 value=57 time=29
control_change channel=0 control=64 value=56 time=16
control_change channel=0 control=64 value=53 time=15
control_change channel=0 control=64 value=47 time=15
control_change channel=0 control=64 value=40 time=15
control_change channel=0 control=64 value=30 time=15
control_change channel=0 control=64 value=0 time=16
control_change channel=0 control=67 value=127 time=136
control_change channel=0 control=67 value=126 time=31
control_change channel=0 control=67 value=126 time=31
note_on channel=0 note=47 velocity=42 time=7
note_on channel=0 note=35 velocity=31 time=6
note_on channel=0 note=59 velocity=44 time=1
control_change channel=0 control=67 value=125 time=1
control_change channel=0 control=67 value=125 time=15
note_on channel=0 note=47 velocity=0 time=7
note_on channel=0 note=59 velocity=0 time=5
note_on channel=0 note=35 velocity=0 time=10
control_change channel=0 control=67 value=124 time=69
note_on channel=0 note=49 velocity=56 time=13
control_change channel=0 control=67 value=121 time=2
note_on channel=0 note=37 velocity=45 time=1
note_on channel=0 note=61 velocity=50 time=8
control_change channel=0 control=67 value=119 time=7
note_on channel=0 note=49 velocity=0 time=9
control_change channel=0 control=67 value=119 time=5
note_on channel=0 note=37 velocity=0 time=2
note_on channel=0 note=61 velocity=0 time=4
control_change channel=0 control=67 value=118 time=9
control_change channel=0 control=67 value=117 time=16
control_change channel=0 control=67 value=115 time=15
control_change channel=0 control=67 value=112 time=23
control_change channel=0 control=67 value=109 time=15
control_change channel=0 control=67 value=104 time=15
note_on channel=0 note=50 velocity=36 time=7
note_on channel=0 note=62 velocity=51 time=0
note_on channel=0 note=38 velocity=48 time=2
control_change channel=0 control=67 value=98 time=7
control_change channel=0 control=67 value=90 time=15
note_on channel=0 note=62 velocity=0 time=0
note_on channel=0 note=38 velocity=0 time=6
note_on channel=0 note=50 velocity=0 time=6
control_change channel=0 control=67 value=80 time=2
control_change channel=0 control=67 value=70 time=16
control_change channel=0 control=67 value=62 time=15
control_change channel=0 control=67 value=58 time=16
control_change channel=0 control=67 value=56 time=15
control_change channel=0 control=67 value=54 time=14
control_change channel=0 control=67 value=51 time=16
note_on channel=0 note=34 velocity=57 time=2
note_on channel=0 note=46 velocity=58 time=1
note_on channel=0 note=58 velocity=55 time=10
control_change channel=0 control=67 value=48 time=2
note_on channel=0 note=46 velocity=0 time=15
control_change channel=0 control=67 value=46 time=1
note_on channel=0 note=34 velocity=0 time=6
note_on channel=0 note=58 velocity=0 time=2
control_change channel=0 control=67 value=46 time=6
control_change channel=0 control=67 value=45 time=15
control_change channel=0 control=67 value=45 time=31
control_change channel=0 control=67 value=44 time=16
control_change channel=0 control=67 value=43 time=15
control_change channel=0 control=67 value=41 time=15
control_change channel=0 control=67 value=39 time=16
control_change channel=0 control=67 value=38 time=15
control_change channel=0 control=67 value=37 time=15
control_change channel=0 control=67 value=36 time=15
control_change channel=0 control=67 value=35 time=15
control_change channel=0 control=67 value=34 time=15
control_change channel=0 control=67 value=33 time=16
control_change channel=0 control=67 value=31 time=15
control_change channel=0 control=67 value=30 time=15
control_change channel=0 control=67 value=28 time=15
control_change channel=0 control=67 value=27 time=15
control_change channel=0 control=67 value=25 time=16
control_change channel=0 control=67 value=24 time=14
control_change channel=0 control=67 value=23 time=16
control_change channel=0 control=67 value=22 time=15
control_change channel=0 control=67 value=21 time=15
control_change channel=0 control=67 value=20 time=16
control_change channel=0 control=67 value=20 time=15
control_change channel=0 control=67 value=19 time=30
control_change channel=0 control=67 value=19 time=16
note_on channel=0 note=79 velocity=60 time=8
note_on channel=0 note=76 velocity=48 time=3
note_on channel=0 note=61 velocity=53 time=3
control_change channel=0 control=67 value=18 time=2
control_change channel=0 control=67 value=17 time=14
note_on channel=0 note=76 velocity=0 time=6
note_on channel=0 note=61 velocity=0 time=3
note_on channel=0 note=79 velocity=0 time=2
control_change channel=0 control=67 value=16 time=4
control_change channel=0 control=67 value=15 time=16
control_change channel=0 control=67 value=14 time=15
control_change channel=0 control=67 value=13 time=15
control_change channel=0 control=67 value=13 time=16
note_on channel=0 note=78 velocity=65 time=32
note_on channel=0 note=62 velocity=55 time=2
note_on channel=0 note=74 velocity=49 time=16
note_on channel=0 note=62 velocity=0 time=20
note_on channel=0 note=78 velocity=0 time=1
note_on channel=0 note=74 velocity=0 time=4
control_change channel=0 control=67 value=12 time=23
note_on channel=0 note=76 velocity=73 time=54
note_on channel=0 note=64 velocity=50 time=16
note_on channel=0 note=76 velocity=0 time=21
note_on channel=0 note=64 velocity=0 time=3
control_change channel=0 control=67 value=12 time=12
control_change channel=0 control=67 value=11 time=62
note_on channel=0 note=85 velocity=78 time=24
control_change channel=0 control=67 value=11 time=6
note_on channel=0 note=58 velocity=50 time=3
note_on channel=0 note=76 velocity=51 time=8
control_change channel=0 control=67 value=9 time=4
control_change channel=0 control=67 value=0 time=15
note_on channel=0 note=58 velocity=0 time=7
note_on channel=0 note=76 velocity=0 time=0
note_on channel=0 note=85 velocity=0 time=6
note_on channel=0 note=49 velocity=65 time=400
note_on channel=0 note=61 velocity=65 time=8
note_on channel=0 note=37 velocity=46 time=6
note_on channel=0 note=49 velocity=0 time=17
note_on channel=0 note=61 velocity=0 time=2
note_on channel=0 note=37 velocity=0 time=24
note_on channel=0 note=62 velocity=76 time=76
note_on channel=0 note=50 velocity=57 time=9
note_on channel=0 note=38 velocity=56 time=2
note_on channel=0 note=62 velocity=0 time=15
note_on channel=0 note=38 velocity=0 time=13
note_on channel=0 note=50 velocity=0 time=0
note_on channel=0 note=52 velocity=66 time=84
note_on channel=0 note=40 velocity=57 time=10
note_on channel=0 note=64 velocity=60 time=1
note_on channel=0 note=52 velocity=0 time=15
note_on channel=0 note=64 velocity=0 time=6
note_on channel=0 note=40 velocity=0 time=6
note_on channel=0 note=59 velocity=59 time=115
note_on channel=0 note=47 velocity=57 time=2
note_on channel=0 note=35 velocity=52 time=3
note_on channel=0 note=47 velocity=0 time=24
note_on channel=0 note=59 velocity=0 time=0
note_on channel=0 note=35 velocity=0 time=9
note_on channel=0 note=83 velocity=66 time=441
note_on channel=0 note=79 velocity=55 time=8
note_on channel=0 note=64 velocity=42 time=9
note_on channel=0 note=79 velocity=0 time=12
note_on channel=0 note=83 velocity=0 time=13
note_on channel=0 note=64 velocity=0 time=5
note_on channel=0 note=81 velocity=76 time=81
note_on channel=0 note=66 velocity=62 time=8
note_on channel=0 note=78 velocity=53 time=11
note_on channel=0 note=81 velocity=0 time=13
note_on channel=0 note=66 velocity=0 time=5
note_on channel=0 note=78 velocity=0 time=3
note_on channel=0 note=67 velocity=63 time=86
note_on channel=0 note=79 velocity=78 time=11
note_on channel=0 note=67 velocity=0 time=19
note_on channel=0 note=76 velocity=42 time=3
note_on channel=0 note=79 velocity=0 time=6
note_on channel=0 note=76 velocity=0 time=24
note_on channel=0 note=88 velocity=72 time=101
note_on channel=0 note=59 velocity=42 time=14
note_on channel=0 note=88 velocity=0 time=18
note_on channel=0 note=59 velocity=0 time=12
note_on channel=0 note=60 velocity=101 time=407
note_on channel=0 note=36 velocity=88 time=2
note_on channel=0 note=43 velocity=89 time=3
control_change channel=0 control=64 value=65 time=21
note_on channel=0 note=60 velocity=0 time=5
control_change channel=0 control=64 value=83 time=10
control_change channel=0 control=64 value=101 time=14
note_on channel=0 note=43 velocity=0 time=8
control_change channel=0 control=64 value=112 time=8
control_change channel=0 control=64 value=113 time=15
note_on channel=0 note=36 velocity=0 time=7
control_change channel=0 control=64 value=112 time=54
note_on channel=0 note=31 velocity=74 time=5
note_on channel=0 note=55 velocity=83 time=5
control_change channel=0 control=64 value=108 time=5
control_change channel=0 control=64 value=103 time=16
control_change channel=0 control=64 value=95 time=15
note_on channel=0 note=60 velocity=81 time=4
note_on channel=0 note=55 velocity=0 time=6
control_change channel=0 control=64 value=84 time=5
note_on channel=0 note=31 velocity=0 time=0
note_on channel=0 note=36 velocity=70 time=4
note_on channel=0 note=43 velocity=74 time=5
control_change channel=0 control=64 value=69 time=6
control_change channel=0 control=64 value=0 time=15
note_on channel=0 note=55 velocity=88 time=30
note_on channel=0 note=31 velocity=68 time=3
note_on channel=0 note=60 velocity=0 time=3
note_on channel=0 note=43 velocity=0 time=1
note_on channel=0 note=36 velocity=0 time=5
note_on channel=0 note=55 velocity=0 time=17
note_on channel=0 note=31 velocity=0 time=17
note_on channel=0 note=60 velocity=90 time=89
note_on channel=0 note=36 velocity=71 time=3
note_on channel=0 note=43 velocity=75 time=1
note_on channel=0 note=60 velocity=0 time=29
note_on channel=0 note=43 velocity=0 time=3
note_on channel=0 note=36 velocity=0 time=7
note_on channel=0 note=31 velocity=71 time=92
note_on channel=0 note=55 velocity=92 time=2
note_on channel=0 note=55 velocity=0 time=43
note_on channel=0 note=31 velocity=0 time=66
note_on channel=0 note=36 velocity=66 time=12
note_on channel=0 note=43 velocity=71 time=6
note_on channel=0 note=60 velocity=90 time=4
note_on channel=0 note=36 velocity=0 time=22
note_on channel=0 note=60 velocity=0 time=4
note_on channel=0 note=43 velocity=0 time=2
note_on channel=0 note=49 velocity=70 time=97
note_on channel=0 note=55 velocity=83 time=4
note_on channel=0 note=76 velocity=100 time=6
note_on channel=0 note=72 velocity=90 time=6
note_on channel=0 note=48 velocity=57 time=8
control_change channel=0 control=64 value=45 time=4
note_on channel=0 note=55 velocity=0 time=4
note_on channel=0 note=72 velocity=0 time=1
control_change channel=0 control=64 value=63 time=10
note_on channel=0 note=76 velocity=0 time=1
note_on channel=0 note=48 velocity=0 time=4
note_on channel=0 note=49 velocity=0 time=2
control_change channel=0 control=64 value=66 time=7
control_change channel=0 control=64 value=66 time=16
control_change channel=0 control=64 value=67 time=15
control_change channel=0 control=64 value=66 time=30
control_change channel=0 control=64 value=66 time=15
note_on channel=0 note=43 velocity=80 time=18
note_on channel=0 note=74 velocity=79 time=4
control_change channel=0 control=64 value=65 time=9
note_on channel=0 note=72 velocity=57 time=4
control_change channel=0 control=64 value=65 time=10
note_on channel=0 note=77 velocity=66 time=4
note_on channel=0 note=76 velocity=66 time=1
control_change channel=0 control=64 value=63 time=11
note_on channel=0 note=43 velocity=0 time=7
note_on channel=0 note=48 velocity=71 time=2
note_on channel=0 note=55 velocity=90 time=1
control_change channel=0 control=64 value=41 time=5
control_change channel=0 control=64 value=0 time=16
note_on channel=0 note=71 velocity=82 time=26
note_on channel=0 note=55 velocity=0 time=3
note_on channel=0 note=72 velocity=0 time=1
note_on channel=0 note=77 velocity=0 time=6
note_on channel=0 note=43 velocity=78 time=4
note_on channel=0 note=76 velocity=0 time=5
note_on channel=0 note=48 velocity=0 time=2
note_on channel=0 note=74 velocity=0 time=7
note_on channel=0 note=71 velocity=0 time=9
note_on channel=0 note=43 velocity=0 time=13
note_on channel=0 note=76 velocity=96 time=84
note_on channel=0 note=72 velocity=91 time=1
note_on channel=0 note=55 velocity=89 time=3
note_on channel=0 note=48 velocity=83 time=4
note_on channel=0 note=72 velocity=0 time=12
note_on channel=0 note=55 velocity=0 time=13
note_on channel=0 note=76 velocity=0 time=1
note_on channel=0 note=48 velocity=0 time=10
note_on channel=0 note=43 velocity=83 time=86
note_on channel=0 note=74 velocity=99 time=1
note_on channel=0 note=71 velocity=90 time=3
note_on channel=0 note=71 velocity=0 time=28
note_on channel=0 note=74 velocity=0 time=4
note_on channel=0 note=43 velocity=0 time=42
note_on channel=0 note=48 velocity=86 time=43
note_on channel=0 note=55 velocity=85 time=4
note_on channel=0 note=76 velocity=97 time=6
note_on channel=0 note=72 velocity=89 time=3
note_on channel=0 note=55 velocity=0 time=21
note_on channel=0 note=48 velocity=0 time=4
note_on channel=0 note=72 velocity=0 time=11
note_on channel=0 note=76 velocity=0 time=11
control_change channel=0 control=64 value=51 time=54
control_change channel=0 control=64 value=64 time=15
note_on channel=0 note=60 velocity=88 time=3
note_on channel=0 note=48 velocity=87 time=2
note_on channel=0 note=67 velocity=100 time=4
note_on channel=0 note=79 velocity=96 time=2
control_change channel=0 control=64 value=69 time=5
note_on channel=0 note=76 velocity=89 time=0
control_change channel=0 control=64 value=75 time=15
note_on channel=0 note=60 velocity=0 time=2
note_on channel=0 note=67 velocity=0 time=4
note_on channel=0 note=48 velocity=0 time=8
control_change channel=0 control=64 value=81 time=1
note_on channel=0 note=76 velocity=0 time=0
control_change channel=0 control=64 value=85 time=16
note_on channel=0 note=79 velocity=0 time=3
control_change channel=0 control=64 value=87 time=12
control_change channel=0 control=64 value=89 time=15
control_change channel=0 control=64 value=92 time=18
control_change channel=0 control=64 value=95 time=15
note_on channel=0 note=79 velocity=95 time=7
note_on channel=0 note=59 velocity=94 time=5
note_on channel=0 note=47 velocity=87 time=1
control_change channel=0 control=64 value=96 time=2
note_on channel=0 note=76 velocity=89 time=6
note_on channel=0 note=59 velocity=0 time=24
note_on channel=0 note=67 velocity=89 time=1
note_on channel=0 note=47 velocity=0 time=2
note_on channel=0 note=79 velocity=0 time=26
note_on channel=0 note=76 velocity=0 time=13
note_on channel=0 note=67 velocity=0 time=17
note_on channel=0 note=58 velocity=97 time=24
note_on channel=0 note=46 velocity=87 time=6
note_on channel=0 note=79 velocity=102 time=6
note_on channel=0 note=58 velocity=0 time=27
note_on channel=0 note=79 velocity=0 time=25
note_on channel=0 note=46 velocity=0 time=13
control_change channel=0 control=64 value=93 time=39
note_on channel=0 note=59 velocity=92 time=12
control_change channel=0 control=64 value=76 time=3
note_on channel=0 note=47 velocity=82 time=3
note_on channel=0 note=67 velocity=89 time=6
note_on channel=0 note=79 velocity=98 time=1
control_change channel=0 control=64 value=0 time=6
note_on channel=0 note=59 velocity=0 time=4
note_on channel=0 note=47 velocity=0 time=9
note_on channel=0 note=67 velocity=0 time=7
note_on channel=0 note=79 velocity=0 time=3
note_on channel=0 note=66 velocity=90 time=89
note_on channel=0 note=78 velocity=90 time=0
note_on channel=0 note=74 velocity=76 time=6
note_on channel=0 note=74 velocity=0 time=26
note_on channel=0 note=66 velocity=0 time=3
note_on channel=0 note=78 velocity=0 time=20
note_on channel=0 note=40 velocity=78 time=68
note_on channel=0 note=52 velocity=71 time=4
note_on channel=0 note=64 velocity=96 time=6
note_on channel=0 note=76 velocity=94 time=1
note_on channel=0 note=73 velocity=79 time=5
note_on channel=0 note=40 velocity=0 time=14
note_on channel=0 note=52 velocity=0 time=3
note_on channel=0 note=64 velocity=0 time=5
note_on channel=0 note=76 velocity=0 time=18
note_on channel=0 note=73 velocity=0 time=3
note_on channel=0 note=54 velocity=91 time=73
note_on channel=0 note=42 velocity=88 time=3
note_on channel=0 note=62 velocity=90 time=3
note_on channel=0 note=74 velocity=90 time=1
note_on channel=0 note=71 velocity=82 time=2
note_on channel=0 note=54 velocity=0 time=11
note_on channel=0 note=62 velocity=0 time=4
note_on channel=0 note=42 velocity=0 time=5
note_on channel=0 note=71 velocity=0 time=1
note_on channel=0 note=74 velocity=0 time=7
note_on channel=0 note=61 velocity=87 time=258
note_on channel=0 note=73 velocity=87 time=2
note_on channel=0 note=42 velocity=72 time=4
note_on channel=0 note=30 velocity=64 time=2
note_on channel=0 note=61 velocity=0 time=23
note_on channel=0 note=42 velocity=0 time=3
note_on channel=0 note=30 velocity=0 time=7
note_on channel=0 note=73 velocity=0 time=7
note_on channel=0 note=71 velocity=97 time=89
note_on channel=0 note=47 velocity=79 time=3
note_on channel=0 note=59 velocity=83 time=0
note_on channel=0 note=35 velocity=75 time=2
note_on channel=0 note=59 velocity=0 time=18
note_on channel=0 note=47 velocity=0 time=5
note_on channel=0 note=35 velocity=0 time=5
note_on channel=0 note=71 velocity=0 time=0
note_on channel=0 note=47 velocity=58 time=470
note_on channel=0 note=35 velocity=53 time=2
note_on channel=0 note=59 velocity=43 time=20
note_on channel=0 note=47 velocity=0 time=7
note_on channel=0 note=35 velocity=0 time=4
note_on channel=0 note=59 velocity=0 time=18
note_on channel=0 note=49 velocity=67 time=75
note_on channel=0 note=37 velocity=50 time=6
note_on channel=0 note=61 velocity=62 time=11
note_on channel=0 note=49 velocity=0 time=11
note_on channel=0 note=37 velocity=0 time=12
note_on channel=0 note=61 velocity=0 time=0
note_on channel=0 note=50 velocity=46 time=89
note_on channel=0 note=38 velocity=50 time=4
note_on channel=0 note=62 velocity=55 time=1
note_on channel=0 note=62 velocity=0 time=26
note_on channel=0 note=50 velocity=0 time=2
note_on channel=0 note=38 velocity=0 time=1
control_change channel=0 control=67 value=8 time=96
control_change channel=0 control=67 value=11 time=23
note_on channel=0 note=58 velocity=59 time=4
note_on channel=0 note=46 velocity=53 time=4
note_on channel=0 note=34 velocity=46 time=3
control_change channel=0 control=67 value=15 time=4
control_change channel=0 control=67 value=17 time=16
note_on channel=0 note=58 velocity=0 time=2
note_on channel=0 note=46 velocity=0 time=3
note_on channel=0 note=34 velocity=0 time=9
control_change channel=0 control=67 value=16 time=17
control_change channel=0 control=67 value=16 time=90
control_change channel=0 control=67 value=15 time=15
control_change channel=0 control=67 value=14 time=16
control_change channel=0 control=67 value=13 time=15
control_change channel=0 control=67 value=12 time=15
control_change channel=0 control=67 value=11 time=16
control_change channel=0 control=67 value=11 time=15
control_change channel=0 control=67 value=10 time=16
control_change channel=0 control=67 value=9 time=14
control_change channel=0 control=67 value=8 time=15
control_change channel=0 control=67 value=8 time=137
note_on channel=0 note=76 velocity=52 time=47
note_on channel=0 note=79 velocity=56 time=2
note_on channel=0 note=61 velocity=25 time=24
note_on channel=0 note=76 velocity=0 time=9
note_on channel=0 note=79 velocity=0 time=1
note_on channel=0 note=61 velocity=0 time=32
control_change channel=0 control=67 value=0 time=36
note_on channel=0 note=78 velocity=53 time=31
note_on channel=0 note=74 velocity=49 time=5
note_on channel=0 note=62 velocity=41 time=7
note_on channel=0 note=74 velocity=0 time=21
note_on channel=0 note=62 velocity=0 time=7
note_on channel=0 note=78 velocity=0 time=3
control_change channel=0 control=67 value=8 time=95
note_on channel=0 note=76 velocity=54 time=5
note_on channel=0 note=64 velocity=38 time=21
note_on channel=0 note=76 velocity=0 time=17
control_change channel=0 control=67 value=8 time=10
note_on channel=0 note=64 velocity=0 time=6
control_change channel=0 control=67 value=9 time=40
control_change channel=0 control=67 value=9 time=15
control_change channel=0 control=67 value=10 time=15
control_change channel=0 control=67 value=11 time=15
note_on channel=0 note=85 velocity=66 time=12
control_change channel=0 control=67 value=11 time=4
note_on channel=0 note=58 velocity=41 time=5
control_change channel=0 control=67 value=12 time=9
note_on channel=0 note=85 velocity=0 time=12
control_change channel=0 control=67 value=13 time=3
note_on channel=0 note=58 velocity=0 time=6
control_change channel=0 control=67 value=13 time=116
control_change channel=0 control=67 value=12 time=30
control_change channel=0 control=67 value=12 time=31
control_change channel=0 control=67 value=11 time=15
control_change channel=0 control=67 value=11 time=31
control_change channel=0 control=67 value=10 time=15
control_change channel=0 control=67 value=10 time=15
control_change channel=0 control=67 value=9 time=15
control_change channel=0 control=67 value=8 time=16
control_change channel=0 control=67 value=8 time=15
control_change channel=0 control=67 value=0 time=14
note_on channel=0 note=49 velocity=66 time=109
note_on channel=0 note=37 velocity=52 time=3
note_on channel=0 note=61 velocity=70 time=1
note_on channel=0 note=49 velocity=0 time=23
note_on channel=0 note=61 velocity=0 time=1
note_on channel=0 note=37 velocity=0 time=17
note_on channel=0 note=62 velocity=70 time=80
note_on channel=0 note=50 velocity=57 time=8
note_on channel=0 note=38 velocity=49 time=4
note_on channel=0 note=62 velocity=0 time=13
note_on channel=0 note=50 velocity=0 time=15
note_on channel=0 note=38 velocity=0 time=1
note_on channel=0 note=52 velocity=64 time=97
note_on channel=0 note=64 velocity=70 time=7
note_on channel=0 note=40 velocity=57 time=2
note_on channel=0 note=52 velocity=0 time=21
note_on channel=0 note=64 velocity=0 time=2
note_on channel=0 note=40 velocity=0 time=9
note_on channel=0 note=59 velocity=62 time=109
note_on channel=0 note=47 velocity=59 time=5
note_on channel=0 note=35 velocity=47 time=6
note_on channel=0 note=59 velocity=0 time=21
note_on channel=0 note=35 velocity=0 time=9
note_on channel=0 note=47 velocity=0 time=5
control_change channel=0 control=67 value=11 time=92
control_change channel=0 control=67 value=19 time=15
control_change channel=0 control=67 value=26 time=14
control_change channel=0 control=67 value=29 time=16
control_change channel=0 control=67 value=31 time=15
control_change channel=0 control=67 value=31 time=16
control_change channel=0 control=67 value=30 time=45
control_change channel=0 control=67 value=29 time=15
control_change channel=0 control=67 value=28 time=16
control_change channel=0 control=67 value=28 time=15
control_change channel=0 control=67 value=26 time=14
control_change channel=0 control=67 value=25 time=16
control_change channel=0 control=67 value=24 time=15
control_change channel=0 control=67 value=23 time=14
control_change channel=0 control=67 value=22 time=16
control_change channel=0 control=67 value=21 time=15
control_change channel=0 control=67 value=20 time=16
control_change channel=0 control=67 value=19 time=15
control_change channel=0 control=67 value=17 time=15
control_change channel=0 control=67 value=16 time=15
control_change channel=0 control=67 value=15 time=15
control_change channel=0 control=67 value=13 time=15
note_on channel=0 note=64 velocity=52 time=7
note_on channel=0 note=83 velocity=70 time=7
control_change channel=0 control=67 value=0 time=2
note_on channel=0 note=79 velocity=63 time=3
note_on channel=0 note=64 velocity=0 time=28
note_on channel=0 note=79 velocity=0 time=6
note_on channel=0 note=83 velocity=0 time=6
note_on channel=0 note=66 velocity=59 time=84
note_on channel=0 note=81 velocity=74 time=4
note_on channel=0 note=66 velocity=0 time=27
note_on channel=0 note=81 velocity=0 time=7
note_on channel=0 note=78 velocity=25 time=6
note_on channel=0 note=78 velocity=0 time=37
note_on channel=0 note=67 velocity=50 time=63
note_on channel=0 note=79 velocity=68 time=9
note_on channel=0 note=76 velocity=48 time=12
note_on channel=0 note=67 velocity=0 time=3
note_on channel=0 note=79 velocity=0 time=18
note_on channel=0 note=76 velocity=0 time=6
note_on channel=0 note=59 velocity=51 time=105
note_on channel=0 note=88 velocity=71 time=5
note_on channel=0 note=79 velocity=24 time=26
note_on channel=0 note=59 velocity=0 time=9
note_on channel=0 note=88 velocity=0 time=2
note_on channel=0 note=79 velocity=0 time=27
note_on channel=0 note=60 velocity=104 time=461
note_on channel=0 note=36 velocity=89 time=3
note_on channel=0 note=43 velocity=89 time=3
note_on channel=0 note=60 velocity=0 time=28
control_change channel=0 control=64 value=63 time=1
control_change channel=0 control=64 value=74 time=15
note_on channel=0 note=43 velocity=0 time=6
control_change channel=0 control=64 value=80 time=8
control_change channel=0 control=64 value=86 time=16
note_on channel=0 note=36 velocity=0 time=8
control_change channel=0 control=64 value=88 time=7
control_change channel=0 control=64 value=89 time=15
note_on channel=0 note=31 velocity=70 time=41
note_on channel=0 note=55 velocity=90 time=8
control_change channel=0 control=64 value=88 time=27
note_on channel=0 note=36 velocity=78 time=13
note_on channel=0 note=60 velocity=83 time=0
control_change channel=0 control=64 value=88 time=3
note_on channel=0 note=43 velocity=81 time=1
note_on channel=0 note=31 velocity=0 time=4
note_on channel=0 note=55 velocity=0 time=1
control_change channel=0 control=64 value=86 time=9
control_change channel=0 control=64 value=83 time=15
control_change channel=0 control=64 value=73 time=15
control_change channel=0 control=64 value=0 time=15
note_on channel=0 note=43 velocity=0 time=6
note_on channel=0 note=55 velocity=94 time=2
note_on channel=0 note=31 velocity=74 time=1
note_on channel=0 note=36 velocity=0 time=5
note_on channel=0 note=60 velocity=0 time=5
note_on channel=0 note=31 velocity=0 time=33
note_on channel=0 note=55 velocity=0 time=4
note_on channel=0 note=36 velocity=79 time=79
note_on channel=0 note=60 velocity=96 time=1
note_on channel=0 note=43 velocity=83 time=1
note_on channel=0 note=60 velocity=0 time=32
note_on channel=0 note=43 velocity=0 time=3
note_on channel=0 note=36 velocity=0 time=6
note_on channel=0 note=31 velocity=77 time=93
note_on channel=0 note=55 velocity=96 time=0
note_on channel=0 note=55 velocity=0 time=46
note_on channel=0 note=31 velocity=0 time=44
note_on channel=0 note=36 velocity=73 time=41
note_on channel=0 note=43 velocity=81 time=2
note_on channel=0 note=60 velocity=81 time=11
note_on channel=0 note=59 velocity=73 time=11
note_on channel=0 note=36 velocity=0 time=3
note_on channel=0 note=43 velocity=0 time=6
note_on channel=0 note=59 velocity=0 time=9
note_on channel=0 note=60 velocity=0 time=0
note_on channel=0 note=48 velocity=82 time=98
note_on channel=0 note=55 velocity=85 time=0
control_change channel=0 control=64 value=61 time=15
note_on channel=0 note=72 velocity=80 time=5
note_on channel=0 note=76 velocity=83 time=1
note_on channel=0 note=77 velocity=75 time=0
note_on channel=0 note=74 velocity=77 time=4
control_change channel=0 control=64 value=67 time=5
note_on channel=0 note=55 velocity=0 time=1
note_on channel=0 note=48 velocity=0 time=6
note_on channel=0 note=72 velocity=0 time=2
note_on channel=0 note=77 velocity=0 time=3
control_change channel=0 control=64 value=70 time=3
note_on channel=0 note=74 velocity=0 time=1
note_on channel=0 note=76 velocity=0 time=6
control_change channel=0 control=64 value=73 time=8
control_change channel=0 control=64 value=75 time=16
control_change channel=0 control=64 value=77 time=15
control_change channel=0 control=64 value=78 time=14
control_change channel=0 control=64 value=79 time=16
control_change channel=0 control=64 value=80 time=15
note_on channel=0 note=43 velocity=80 time=10
note_on channel=0 note=74 velocity=86 time=10
note_on channel=0 note=71 velocity=71 time=5
note_on channel=0 note=76 velocity=77 time=10
control_change channel=0 control=64 value=79 time=10
note_on channel=0 note=71 velocity=0 time=3
note_on channel=0 note=43 velocity=0 time=8
note_on channel=0 note=55 velocity=89 time=0
note_on channel=0 note=48 velocity=68 time=1
control_change channel=0 control=64 value=78 time=4
note_on channel=0 note=74 velocity=0 time=4
note_on channel=0 note=72 velocity=56 time=5
control_change channel=0 control=64 value=73 time=6
control_change channel=0 control=64 value=63 time=15
control_change channel=0 control=64 value=0 time=15
note_on channel=0 note=71 velocity=94 time=3
note_on channel=0 note=74 velocity=84 time=1
note_on channel=0 note=43 velocity=79 time=1
note_on channel=0 note=55 velocity=0 time=1
note_on channel=0 note=48 velocity=0 time=4
note_on channel=0 note=72 velocity=0 time=7
note_on channel=0 note=76 velocity=0 time=13
note_on channel=0 note=71 velocity=0 time=9
note_on channel=0 note=74 velocity=0 time=0
note_on channel=0 note=43 velocity=0 time=13
note_on channel=0 note=72 velocity=93 time=88
note_on channel=0 note=76 velocity=93 time=2
note_on channel=0 note=55 velocity=83 time=4
note_on channel=0 note=48 velocity=78 time=6
note_on channel=0 note=72 velocity=0 time=14
note_on channel=0 note=55 velocity=0 time=6
note_on channel=0 note=76 velocity=0 time=5
note_on channel=0 note=48 velocity=0 time=6
note_on channel=0 note=43 velocity=86 time=86
note_on channel=0 note=74 velocity=95 time=5
note_on channel=0 note=71 velocity=96 time=1
note_on channel=0 note=74 velocity=0 time=34
note_on channel=0 note=71 velocity=0 time=2
note_on channel=0 note=43 velocity=0 time=30
note_on channel=0 note=48 velocity=84 time=57
note_on channel=0 note=55 velocity=85 time=3
note_on channel=0 note=76 velocity=96 time=2
note_on channel=0 note=72 velocity=89 time=4
note_on channel=0 note=55 velocity=0 time=27
note_on channel=0 note=48 velocity=0 time=1
note_on channel=0 note=72 velocity=0 time=10
note_on channel=0 note=76 velocity=0 time=11
control_change channel=0 control=64 value=17 time=54
control_change channel=0 control=64 value=56 time=15
note_on channel=0 note=60 velocity=92 time=5
note_on channel=0 note=48 velocity=90 time=4
note_on channel=0 note=67 velocity=99 time=0
note_on channel=0 note=79 velocity=100 time=0
control_change channel=0 control=64 value=63 time=5
note_on channel=0 note=76 velocity=90 time=1
control_change channel=0 control=64 value=67 time=16
note_on channel=0 note=67 velocity=0 time=4
note_on channel=0 note=77 velocity=47 time=5
note_on channel=0 note=77 velocity=0 time=1
note_on channel=0 note=60 velocity=0 time=4
control_change channel=0 control=64 value=70 time=1
note_on channel=0 note=48 velocity=0 time=3
note_on channel=0 note=76 velocity=0 time=6
control_change channel=0 control=64 value=73 time=6
note_on channel=0 note=79 velocity=0 time=17
control_change channel=0 control=64 value=75 time=3
control_change channel=0 control=64 value=77 time=16
control_change channel=0 control=64 value=78 time=14
control_change channel=0 control=64 value=79 time=15
note_on channel=0 note=59 velocity=93 time=14
control_change channel=0 control=64 value=79 time=2
note_on channel=0 note=79 velocity=85 time=1
note_on channel=0 note=47 velocity=84 time=3
note_on channel=0 note=76 velocity=84 time=8
control_change channel=0 control=64 value=80 time=3
note_on channel=0 note=67 velocity=89 time=9
control_change channel=0 control=64 value=80 time=7
note_on channel=0 note=47 velocity=0 time=1
note_on channel=0 note=59 velocity=0 time=7
note_on channel=0 note=79 velocity=0 time=18
note_on channel=0 note=76 velocity=0 time=15
note_on channel=0 note=67 velocity=0 time=21
note_on channel=0 note=58 velocity=96 time=28
note_on channel=0 note=79 velocity=95 time=2
note_on channel=0 note=46 velocity=88 time=3
note_on channel=0 note=58 velocity=0 time=45
note_on channel=0 note=79 velocity=0 time=2
note_on channel=0 note=46 velocity=0 time=17
control_change channel=0 control=64 value=76 time=53
note_on channel=0 note=59 velocity=93 time=5
note_on channel=0 note=79 velocity=106 time=2
note_on channel=0 note=67 velocity=93 time=2
note_on channel=0 note=47 velocity=86 time=2
control_change channel=0 control=64 value=59 time=3
note_on channel=0 note=59 velocity=0 time=12
control_change channel=0 control=64 value=0 time=4
note_on channel=0 note=67 velocity=0 time=5
note_on channel=0 note=47 velocity=0 time=1
note_on channel=0 note=79 velocity=0 time=2
note_on channel=0 note=66 velocity=93 time=92
note_on channel=0 note=74 velocity=84 time=0
note_on channel=0 note=78 velocity=88 time=2
note_on channel=0 note=66 velocity=0 time=35
note_on channel=0 note=74 velocity=0 time=7
note_on channel=0 note=78 velocity=0 time=22
note_on channel=0 note=52 velocity=78 time=66
note_on channel=0 note=40 velocity=78 time=3
note_on channel=0 note=76 velocity=96 time=2
note_on channel=0 note=64 velocity=90 time=1
note_on channel=0 note=73 velocity=67 time=13
note_on channel=0 note=40 velocity=0 time=11
note_on channel=0 note=52 velocity=0 time=2
note_on channel=0 note=64 velocity=0 time=2
note_on channel=0 note=76 velocity=0 time=22
note_on channel=0 note=73 velocity=0 time=1
note_on channel=0 note=54 velocity=97 time=73
note_on channel=0 note=42 velocity=87 time=5
note_on channel=0 note=74 velocity=98 time=0
note_on channel=0 note=62 velocity=95 time=2
note_on channel=0 note=71 velocity=78 time=6
note_on channel=0 note=54 velocity=0 time=9
note_on channel=0 note=62 velocity=0 time=5
note_on channel=0 note=71 velocity=0 time=7
note_on channel=0 note=42 velocity=0 time=4
note_on channel=0 note=73 velocity=36 time=3
note_on channel=0 note=74 velocity=0 time=6
note_on channel=0 note=73 velocity=0 time=28
note_on channel=0 note=73 velocity=92 time=226
note_on channel=0 note=42 velocity=75 time=4
note_on channel=0 note=61 velocity=87 time=0
note_on channel=0 note=30 velocity=62 time=4
note_on channel=0 note=42 velocity=0 time=20
note_on channel=0 note=61 velocity=0 time=2
note_on channel=0 note=30 velocity=0 time=9
note_on channel=0 note=73 velocity=0 time=6
note_on channel=0 note=71 velocity=102 time=101
note_on channel=0 note=59 velocity=86 time=2
note_on channel=0 note=47 velocity=82 time=2
note_on channel=0 note=35 velocity=74 time=3
note_on channel=0 note=59 velocity=0 time=14
note_on channel=0 note=47 velocity=0 time=7
note_on channel=0 note=71 velocity=0 time=5
note_on channel=0 note=35 velocity=0 time=2
note_on channel=0 note=38 velocity=50 time=497
note_on channel=0 note=62 velocity=57 time=0
note_on channel=0 note=50 velocity=39 time=9
note_on channel=0 note=62 velocity=0 time=15
note_on channel=0 note=38 velocity=0 time=7
note_on channel=0 note=50 velocity=0 time=13
note_on channel=0 note=64 velocity=74 time=84
note_on channel=0 note=52 velocity=53 time=3
note_on channel=0 note=40 velocity=49 time=3
note_on channel=0 note=64 velocity=0 time=19
note_on channel=0 note=52 velocity=0 time=6
note_on channel=0 note=40 velocity=0 time=3
note_on channel=0 note=66 velocity=69 time=102
note_on channel=0 note=42 velocity=57 time=9
note_on channel=0 note=66 velocity=0 time=14
note_on channel=0 note=42 velocity=0 time=15
control_change channel=0 control=67 value=13 time=114
note_on channel=0 note=49 velocity=58 time=5
note_on channel=0 note=61 velocity=49 time=4
note_on channel=0 note=37 velocity=41 time=1
control_change channel=0 control=67 value=16 time=5
control_change channel=0 control=67 value=17 time=15
note_on channel=0 note=49 velocity=0 time=1
note_on channel=0 note=61 velocity=0 time=6
note_on channel=0 note=37 velocity=0 time=6
control_change channel=0 control=67 value=16 time=17
control_change channel=0 control=67 value=15 time=15
control_change channel=0 control=67 value=14 time=16
control_change channel=0 control=67 value=13 time=14
control_change channel=0 control=67 value=12 time=16
control_change channel=0 control=67 value=11 time=15
control_change channel=0 control=67 value=11 time=15
control_change channel=0 control=67 value=10 time=16
control_change channel=0 control=67 value=9 time=14
control_change channel=0 control=67 value=9 time=16
control_change channel=0 control=67 value=8 time=15
control_change channel=0 control=67 value=8 time=45
control_change channel=0 control=67 value=0 time=15
note_on channel=0 note=82 velocity=80 time=169
note_on channel=0 note=64 velocity=38 time=19
note_on channel=0 note=79 velocity=44 time=8
note_on channel=0 note=82 velocity=0 time=10
note_on channel=0 note=64 velocity=0 time=13
note_on channel=0 note=79 velocity=0 time=3
note_on channel=0 note=66 velocity=62 time=81
note_on channel=0 note=81 velocity=67 time=1
note_on channel=0 note=78 velocity=36 time=22
note_on channel=0 note=66 velocity=0 time=7
note_on channel=0 note=81 velocity=0 time=19
note_on channel=0 note=78 velocity=0 time=6
note_on channel=0 note=67 velocity=55 time=87
note_on channel=0 note=79 velocity=73 time=8
note_on channel=0 note=67 velocity=0 time=15
note_on channel=0 note=76 velocity=43 time=5
note_on channel=0 note=79 velocity=0 time=4
note_on channel=0 note=76 velocity=0 time=27
note_on channel=0 note=61 velocity=53 time=86
note_on channel=0 note=88 velocity=68 time=3
note_on channel=0 note=79 velocity=43 time=16
note_on channel=0 note=61 velocity=0 time=18
note_on channel=0 note=88 velocity=0 time=0
note_on channel=0 note=79 velocity=0 time=11
note_on channel=0 note=52 velocity=58 time=432
note_on channel=0 note=64 velocity=71 time=0
note_on channel=0 note=40 velocity=54 time=2
note_on channel=0 note=64 velocity=0 time=24
note_on channel=0 note=40 velocity=0 time=5
note_on channel=0 note=52 velocity=0 time=2
note_on channel=0 note=54 velocity=66 time=92
note_on channel=0 note=66 velocity=71 time=12
note_on channel=0 note=42 velocity=44 time=10
note_on channel=0 note=66 velocity=0 time=12
note_on channel=0 note=54 velocity=0 time=3
note_on channel=0 note=42 velocity=0 time=18
note_on channel=0 note=55 velocity=60 time=75
note_on channel=0 note=67 velocity=71 time=6
note_on channel=0 note=43 velocity=55 time=6
note_on channel=0 note=55 velocity=0 time=18
note_on channel=0 note=67 velocity=0 time=0
note_on channel=0 note=43 velocity=0 time=15
note_on channel=0 note=62 velocity=62 time=104
note_on channel=0 note=50 velocity=60 time=3
note_on channel=0 note=38 velocity=61 time=1
note_on channel=0 note=38 velocity=0 time=27
note_on channel=0 note=62 velocity=0 time=2
note_on channel=0 note=50 velocity=0 time=11
note_on channel=0 note=86 velocity=62 time=455
note_on channel=0 note=67 velocity=49 time=4
note_on channel=0 note=82 velocity=32 time=14
note_on channel=0 note=86 velocity=0 time=12
note_on channel=0 note=67 velocity=0 time=14
note_on channel=0 note=82 velocity=0 time=8
note_on channel=0 note=84 velocity=74 time=81
note_on channel=0 note=69 velocity=49 time=11
note_on channel=0 note=81 velocity=41 time=9
note_on channel=0 note=84 velocity=0 time=15
note_on channel=0 note=81 velocity=0 time=11
note_on channel=0 note=69 velocity=0 time=2
note_on channel=0 note=70 velocity=50 time=88
note_on channel=0 note=82 velocity=75 time=4
note_on channel=0 note=70 velocity=0 time=21
note_on channel=0 note=82 velocity=0 time=21
note_on channel=0 note=91 velocity=77 time=107
note_on channel=0 note=62 velocity=47 time=19
note_on channel=0 note=82 velocity=34 time=9
note_on channel=0 note=91 velocity=0 time=8
note_on channel=0 note=62 velocity=0 time=19
note_on channel=0 note=82 velocity=0 time=7
note_on channel=0 note=63 velocity=97 time=428
note_on channel=0 note=46 velocity=97 time=3
note_on channel=0 note=39 velocity=91 time=1
control_change channel=0 control=64 value=40 time=15
control_change channel=0 control=64 value=74 time=14
note_on channel=0 note=63 velocity=0 time=9
control_change channel=0 control=64 value=87 time=7
control_change channel=0 control=64 value=104 time=15
note_on channel=0 note=46 velocity=0 time=5
control_change channel=0 control=64 value=110 time=10
control_change channel=0 control=64 value=111 time=16
control_change channel=0 control=64 value=111 time=14
note_on channel=0 note=39 velocity=0 time=7
control_change channel=0 control=64 value=111 time=8
note_on channel=0 note=34 velocity=77 time=22
note_on channel=0 note=58 velocity=89 time=1
note_on channel=0 note=63 velocity=82 time=47
note_on channel=0 note=58 velocity=0 time=5
note_on channel=0 note=39 velocity=81 time=5
note_on channel=0 note=46 velocity=85 time=5
note_on channel=0 note=34 velocity=0 time=17
note_on channel=0 note=58 velocity=96 time=33
note_on channel=0 note=46 velocity=0 time=4
note_on channel=0 note=34 velocity=66 time=11
control_change channel=0 control=64 value=109 time=3
note_on channel=0 note=63 velocity=0 time=1
note_on channel=0 note=39 velocity=0 time=4
control_change channel=0 control=64 value=96 time=11
note_on channel=0 note=58 velocity=0 time=9
control_change channel=0 control=64 value=77 time=6
control_change channel=0 control=64 value=0 time=14
note_on channel=0 note=34 velocity=0 time=5
note_on channel=0 note=63 velocity=94 time=60
note_on channel=0 note=39 velocity=83 time=4
note_on channel=0 note=46 velocity=86 time=2
note_on channel=0 note=64 velocity=76 time=15
note_on channel=0 note=46 velocity=0 time=16
note_on channel=0 note=64 velocity=0 time=6
note_on channel=0 note=63 velocity=0 time=6
note_on channel=0 note=39 velocity=0 time=13
note_on channel=0 note=58 velocity=95 time=70
note_on channel=0 note=34 velocity=80 time=10
note_on channel=0 note=58 velocity=0 time=34
note_on channel=0 note=34 velocity=0 time=82
note_on channel=0 note=39 velocity=78 time=11
note_on channel=0 note=63 velocity=93 time=3
note_on channel=0 note=46 velocity=82 time=1
note_on channel=0 note=39 velocity=0 time=25
note_on channel=0 note=46 velocity=0 time=0
note_on channel=0 note=63 velocity=0 time=14
control_change channel=0 control=64 value=19 time=87
note_on channel=0 note=79 velocity=102 time=4
note_on channel=0 note=51 velocity=80 time=2
note_on channel=0 note=58 velocity=86 time=0
note_on channel=0 note=75 velocity=95 time=5
control_change channel=0 control=64 value=54 time=3
note_on channel=0 note=58 velocity=0 time=14
note_on channel=0 note=75 velocity=0 time=1
control_change channel=0 control=64 value=64 time=1
note_on channel=0 note=51 velocity=0 time=11
note_on channel=0 note=79 velocity=0 time=1
control_change channel=0 control=64 value=68 time=3
control_change channel=0 control=64 value=71 time=15
control_change channel=0 control=64 value=73 time=16
control_change channel=0 control=64 value=74 time=14
note_on channel=0 note=46 velocity=78 time=60
note_on channel=0 note=77 velocity=89 time=0
control_change channel=0 control=64 value=73 time=2
note_on channel=0 note=74 velocity=70 time=5
control_change channel=0 control=64 value=72 time=9
note_on channel=0 note=75 velocity=66 time=5
note_on channel=0 note=74 velocity=0 time=3
note_on channel=0 note=79 velocity=71 time=6
control_change channel=0 control=64 value=68 time=1
note_on channel=0 note=58 velocity=88 time=8
note_on channel=0 note=51 velocity=75 time=1
note_on channel=0 note=77 velocity=0 time=3
note_on channel=0 note=46 velocity=0 time=3
control_change channel=0 control=64 value=0 time=1
note_on channel=0 note=74 velocity=91 time=38
note_on channel=0 note=77 velocity=83 time=0
note_on channel=0 note=58 velocity=0 time=4
note_on channel=0 note=75 velocity=0 time=8
note_on channel=0 note=46 velocity=73 time=7
note_on channel=0 note=51 velocity=0 time=11
note_on channel=0 note=79 velocity=0 time=1
note_on channel=0 note=74 velocity=0 time=7
note_on channel=0 note=77 velocity=0 time=6
note_on channel=0 note=46 velocity=0 time=8
note_on channel=0 note=75 velocity=89 time=92
note_on channel=0 note=79 velocity=89 time=1
note_on channel=0 note=51 velocity=80 time=5
note_on channel=0 note=58 velocity=84 time=0
note_on channel=0 note=75 velocity=0 time=16
note_on channel=0 note=58 velocity=0 time=5
note_on channel=0 note=79 velocity=0 time=9
note_on channel=0 note=51 velocity=0 time=17
note_on channel=0 note=77 velocity=94 time=77
note_on channel=0 note=74 velocity=92 time=2
note_on channel=0 note=46 velocity=81 time=3
note_on channel=0 note=77 velocity=0 time=34
note_on channel=0 note=74 velocity=0 time=2
note_on channel=0 note=51 velocity=76 time=86
note_on channel=0 note=46 velocity=0 time=1
note_on channel=0 note=79 velocity=93 time=5
note_on channel=0 note=58 velocity=76 time=2
note_on channel=0 note=75 velocity=90 time=1
note_on channel=0 note=58 velocity=0 time=24
note_on channel=0 note=51 velocity=0 time=8
note_on channel=0 note=75 velocity=0 time=7
note_on channel=0 note=79 velocity=0 time=2
note_on channel=0 note=70 velocity=94 time=84
note_on channel=0 note=63 velocity=91 time=3
note_on channel=0 note=82 velocity=107 time=0
note_on channel=0 note=51 velocity=81 time=6
control_change channel=0 control=64 value=68 time=19
note_on channel=0 note=63 velocity=0 time=1
note_on channel=0 note=70 velocity=0 time=5
note_on channel=0 note=51 velocity=0 time=3
control_change channel=0 control=64 value=82 time=5
note_on channel=0 note=82 velocity=0 time=11
control_change channel=0 control=64 value=91 time=5
control_change channel=0 control=64 value=96 time=15
control_change channel=0 control=64 value=97 time=14
control_change channel=0 control=64 value=97 time=31
note_on channel=0 note=82 velocity=98 time=9
note_on channel=0 note=62 velocity=79 time=7
note_on channel=0 note=50 velocity=74 time=2
note_on channel=0 note=79 velocity=90 time=0
note_on channel=0 note=62 velocity=0 time=24
note_on channel=0 note=50 velocity=0 time=5
note_on channel=0 note=70 velocity=92 time=0
control_change channel=0 control=64 value=98 time=14
note_on channel=0 note=82 velocity=0 time=1
note_on channel=0 note=79 velocity=0 time=14
control_change channel=0 control=64 value=97 time=15
note_on channel=0 note=70 velocity=0 time=9
note_on channel=0 note=82 velocity=97 time=28
note_on channel=0 note=79 velocity=78 time=1
note_on channel=0 note=61 velocity=92 time=5
note_on channel=0 note=49 velocity=88 time=1
note_on channel=0 note=79 velocity=0 time=40
note_on channel=0 note=61 velocity=0 time=3
control_change channel=0 control=64 value=98 time=4
note_on channel=0 note=82 velocity=0 time=5
note_on channel=0 note=49 velocity=0 time=1
control_change channel=0 control=64 value=95 time=55
control_change channel=0 control=64 value=73 time=15
note_on channel=0 note=62 velocity=91 time=3
note_on channel=0 note=70 velocity=93 time=3
note_on channel=0 note=82 velocity=98 time=0
note_on channel=0 note=50 velocity=79 time=4
note_on channel=0 note=79 velocity=77 time=3
control_change channel=0 control=64 value=0 time=3
note_on channel=0 note=70 velocity=0 time=16
note_on channel=0 note=79 velocity=0 time=0
note_on channel=0 note=62 velocity=0 time=1
note_on channel=0 note=50 velocity=0 time=3
note_on channel=0 note=82 velocity=0 time=20
note_on channel=0 note=83 velocity=95 time=71
note_on channel=0 note=71 velocity=94 time=2
note_on channel=0 note=78 velocity=68 time=17
note_on channel=0 note=81 velocity=61 time=4
note_on channel=0 note=81 velocity=0 time=1
note_on channel=0 note=71 velocity=0 time=6
note_on channel=0 note=83 velocity=0 time=6
note_on channel=0 note=78 velocity=0 time=2
note_on channel=0 note=79 velocity=93 time=96
note_on channel=0 note=71 velocity=93 time=1
note_on channel=0 note=52 velocity=77 time=2
note_on channel=0 note=64 velocity=75 time=4
note_on channel=0 note=73 velocity=90 time=1
note_on channel=0 note=52 velocity=0 time=22
note_on channel=0 note=71 velocity=0 time=1
note_on channel=0 note=64 velocity=0 time=2
note_on channel=0 note=73 velocity=0 time=13
note_on channel=0 note=79 velocity=0 time=0
note_on channel=0 note=54 velocity=85 time=84
note_on channel=0 note=66 velocity=93 time=0
note_on channel=0 note=71 velocity=90 time=2
note_on channel=0 note=78 velocity=95 time=1
control_change channel=0 control=64 value=49 time=10
note_on channel=0 note=66 velocity=0 time=6
note_on channel=0 note=71 velocity=0 time=0
note_on channel=0 note=78 velocity=0 time=4
control_change channel=0 control=64 value=68 time=5
note_on channel=0 note=54 velocity=0 time=3
control_change channel=0 control=64 value=75 time=12
control_change channel=0 control=64 value=83 time=16
control_change channel=0 control=64 value=89 time=15
control_change channel=0 control=64 value=91 time=14
control_change channel=0 control=64 value=90 time=62
control_change channel=0 control=64 value=89 time=14
control_change channel=0 control=64 value=87 time=16
control_change channel=0 control=64 value=84 time=15
control_change channel=0 control=64 value=81 time=16
control_change channel=0 control=64 value=79 time=15
control_change channel=0 control=64 value=78 time=14
control_change channel=0 control=64 value=78 time=16
control_change channel=0 control=64 value=76 time=15
control_change channel=0 control=64 value=72 time=15
note_on channel=0 note=54 velocity=86 time=3
note_on channel=0 note=70 velocity=88 time=3
note_on channel=0 note=42 velocity=73 time=5
note_on channel=0 note=64 velocity=74 time=2
control_change channel=0 control=64 value=67 time=2
note_on channel=0 note=54 velocity=0 time=11
control_change channel=0 control=64 value=55 time=4
note_on channel=0 note=64 velocity=0 time=6
note_on channel=0 note=42 velocity=0 time=7
control_change channel=0 control=64 value=0 time=3
note_on channel=0 note=70 velocity=0 time=11
note_on channel=0 note=55 velocity=92 time=74
note_on channel=0 note=43 velocity=88 time=1
note_on channel=0 note=62 velocity=86 time=3
note_on channel=0 note=71 velocity=95 time=0
note_on channel=0 note=55 velocity=0 time=18
note_on channel=0 note=62 velocity=0 time=3
note_on channel=0 note=43 velocity=0 time=2
note_on channel=0 note=71 velocity=0 time=8
note_on channel=0 note=54 velocity=95 time=100
note_on channel=0 note=42 velocity=89 time=5
note_on channel=0 note=54 velocity=0 time=29
note_on channel=0 note=42 velocity=0 time=3
note_on channel=0 note=53 velocity=93 time=104
note_on channel=0 note=41 velocity=92 time=2
note_on channel=0 note=53 velocity=0 time=25
note_on channel=0 note=41 velocity=0 time=10
note_on channel=0 note=58 velocity=91 time=89
note_on channel=0 note=67 velocity=95 time=5
note_on channel=0 note=52 velocity=82 time=8
note_on channel=0 note=40 velocity=78 time=7
note_on channel=0 note=58 velocity=0 time=3
note_on channel=0 note=52 velocity=0 time=16
note_on channel=0 note=67 velocity=0 time=0
note_on channel=0 note=40 velocity=0 time=11
note_on channel=0 note=50 velocity=84 time=92
note_on channel=0 note=67 velocity=87 time=2
note_on channel=0 note=38 velocity=75 time=8
note_on channel=0 note=58 velocity=89 time=9
note_on channel=0 note=50 velocity=0 time=6
note_on channel=0 note=67 velocity=0 time=9
note_on channel=0 note=38 velocity=0 time=6
note_on channel=0 note=58 velocity=0 time=34
note_on channel=0 note=67 velocity=88 time=37
note_on channel=0 note=49 velocity=87 time=7
note_on channel=0 note=37 velocity=73 time=7
note_on channel=0 note=49 velocity=0 time=22
note_on channel=0 note=67 velocity=0 time=5
note_on channel=0 note=37 velocity=0 time=10
note_on channel=0 note=67 velocity=95 time=83
note_on channel=0 note=50 velocity=81 time=5
note_on channel=0 note=58 velocity=84 time=1
note_on channel=0 note=38 velocity=74 time=7
note_on channel=0 note=58 velocity=0 time=18
note_on channel=0 note=50 velocity=0 time=1
note_on channel=0 note=67 velocity=0 time=9
note_on channel=0 note=38 velocity=0 time=3
note_on channel=0 note=66 velocity=87 time=86
note_on channel=0 note=59 velocity=79 time=6
note_on channel=0 note=66 velocity=0 time=14
note_on channel=0 note=59 velocity=0 time=17
note_on channel=0 note=40 velocity=76 time=96
note_on channel=0 note=64 velocity=81 time=3
note_on channel=0 note=52 velocity=76 time=1
note_on channel=0 note=61 velocity=71 time=14
note_on channel=0 note=40 velocity=0 time=16
note_on channel=0 note=52 velocity=0 time=2
note_on channel=0 note=64 velocity=0 time=4
note_on channel=0 note=61 velocity=0 time=10
note_on channel=0 note=54 velocity=84 time=84
note_on channel=0 note=62 velocity=84 time=0
note_on channel=0 note=42 velocity=80 time=4
note_on channel=0 note=59 velocity=72 time=2
note_on channel=0 note=54 velocity=0 time=17
note_on channel=0 note=59 velocity=0 time=6
note_on channel=0 note=42 velocity=0 time=3
note_on channel=0 note=62 velocity=0 time=2
note_on channel=0 note=42 velocity=82 time=237
note_on channel=0 note=30 velocity=77 time=4
note_on channel=0 note=61 velocity=68 time=1
note_on channel=0 note=58 velocity=54 time=4
note_on channel=0 note=42 velocity=0 time=17
note_on channel=0 note=58 velocity=0 time=8
note_on channel=0 note=30 velocity=0 time=4
note_on channel=0 note=61 velocity=0 time=12
note_on channel=0 note=43 velocity=84 time=72
note_on channel=0 note=31 velocity=81 time=2
note_on channel=0 note=59 velocity=80 time=0
note_on channel=0 note=59 velocity=0 time=18
note_on channel=0 note=43 velocity=0 time=6
note_on channel=0 note=31 velocity=0 time=7
note_on channel=0 note=42 velocity=81 time=106
note_on channel=0 note=30 velocity=74 time=5
note_on channel=0 note=42 velocity=0 time=22
note_on channel=0 note=30 velocity=0 time=7
note_on channel=0 note=41 velocity=81 time=96
note_on channel=0 note=29 velocity=79 time=1
note_on channel=0 note=41 velocity=0 time=26
note_on channel=0 note=29 velocity=0 time=10
note_on channel=0 note=55 velocity=79 time=96
note_on channel=0 note=46 velocity=78 time=1
note_on channel=0 note=40 velocity=76 time=6
note_on channel=0 note=28 velocity=74 time=2
note_on channel=0 note=46 velocity=0 time=17
note_on channel=0 note=55 velocity=0 time=0
note_on channel=0 note=40 velocity=0 time=6
note_on channel=0 note=28 velocity=0 time=1
note_on channel=0 note=55 velocity=71 time=102
note_on channel=0 note=26 velocity=63 time=13
note_on channel=0 note=38 velocity=60 time=0
note_on channel=0 note=46 velocity=70 time=16
note_on channel=0 note=38 velocity=0 time=12
note_on channel=0 note=55 velocity=0 time=0
note_on channel=0 note=26 velocity=0 time=5
note_on channel=0 note=46 velocity=0 time=58
note_on channel=0 note=37 velocity=75 time=11
note_on channel=0 note=55 velocity=76 time=3
note_on channel=0 note=25 velocity=69 time=6
note_on channel=0 note=37 velocity=0 time=22
note_on channel=0 note=55 velocity=0 time=18
note_on channel=0 note=25 velocity=0 time=3
note_on channel=0 note=46 velocity=78 time=80
note_on channel=0 note=55 velocity=77 time=4
note_on channel=0 note=38 velocity=74 time=1
note_on channel=0 note=26 velocity=59 time=12
note_on channel=0 note=38 velocity=0 time=15
note_on channel=0 note=46 velocity=0 time=1
note_on channel=0 note=55 velocity=0 time=3
note_on channel=0 note=26 velocity=0 time=14
note_on channel=0 note=47 velocity=75 time=89
note_on channel=0 note=54 velocity=68 time=5
note_on channel=0 note=47 velocity=0 time=23
note_on channel=0 note=54 velocity=0 time=6
note_on channel=0 note=52 velocity=75 time=94
note_on channel=0 note=40 velocity=64 time=16
note_on channel=0 note=28 velocity=61 time=3
note_on channel=0 note=49 velocity=50 time=9
note_on channel=0 note=52 velocity=0 time=19
note_on channel=0 note=40 velocity=0 time=2
note_on channel=0 note=28 velocity=0 time=3
note_on channel=0 note=49 velocity=0 time=5
note_on channel=0 note=50 velocity=75 time=83
note_on channel=0 note=42 velocity=73 time=5
note_on channel=0 note=50 velocity=0 time=23
note_on channel=0 note=42 velocity=0 time=3
note_on channel=0 note=30 velocity=44 time=403
note_on channel=0 note=46 velocity=50 time=5
note_on channel=0 note=49 velocity=62 time=0
note_on channel=0 note=49 velocity=0 time=30
note_on channel=0 note=30 velocity=0 time=1
note_on channel=0 note=46 velocity=0 time=0
control_change channel=0 control=67 value=8 time=319
control_change channel=0 control=67 value=9 time=46
note_on channel=0 note=47 velocity=38 time=138
control_change channel=0 control=67 value=9 time=13
note_on channel=0 note=35 velocity=26 time=5
control_change channel=0 control=67 value=10 time=10
control_change channel=0 control=64 value=58 time=16
control_change channel=0 control=67 value=10 time=0
control_change channel=0 control=64 value=67 time=15
control_change channel=0 control=67 value=12 time=0
note_on channel=0 note=47 velocity=0 time=12
control_change channel=0 control=64 value=70 time=3
control_change channel=0 control=67 value=15 time=0
control_change channel=0 control=64 value=71 time=16
control_change channel=0 control=67 value=17 time=0
note_on channel=0 note=35 velocity=0 time=8
control_change channel=0 control=64 value=73 time=7
control_change channel=0 control=67 value=18 time=0
control_change channel=0 control=64 value=74 time=15
control_change channel=0 control=67 value=19 time=0
control_change channel=0 control=64 value=75 time=16
control_change channel=0 control=67 value=20 time=0
control_change channel=0 control=64 value=75 time=15
control_change channel=0 control=67 value=23 time=0
control_change channel=0 control=67 value=27 time=15
control_change channel=0 control=67 value=30 time=15
control_change channel=0 control=67 value=32 time=15
control_change channel=0 control=64 value=75 time=16
control_change channel=0 control=67 value=32 time=0
control_change channel=0 control=64 value=74 time=15
control_change channel=0 control=64 value=73 time=15
control_change channel=0 control=64 value=71 time=16
control_change channel=0 control=64 value=69 time=15
control_change channel=0 control=64 value=66 time=22
control_change channel=0 control=64 value=64 time=15
control_change channel=0 control=64 value=63 time=16
control_change channel=0 control=64 value=61 time=15
control_change channel=0 control=64 value=59 time=15
control_change channel=0 control=64 value=54 time=15
control_change channel=0 control=64 value=47 time=15
control_change channel=0 control=64 value=38 time=15
control_change channel=0 control=64 value=26 time=16
control_change channel=0 control=64 value=19 time=15
control_change channel=0 control=64 value=11 time=16
control_change channel=0 control=64 value=0 time=14
control_change channel=0 control=67 value=33 time=214
control_change channel=0 control=67 value=33 time=45
control_change channel=0 control=67 value=34 time=31
control_change channel=0 control=67 value=34 time=45
control_change channel=0 control=67 value=36 time=16
control_change channel=0 control=67 value=40 time=15
control_change channel=0 control=67 value=41 time=14
control_change channel=0 control=67 value=42 time=16
control_change channel=0 control=67 value=43 time=15
control_change channel=0 control=67 value=44 time=16
control_change channel=0 control=67 value=45 time=15
control_change channel=0 control=67 value=46 time=14
control_change channel=0 control=67 value=47 time=16
control_change channel=0 control=67 value=50 time=15
control_change channel=0 control=67 value=52 time=16
control_change channel=0 control=67 value=53 time=15
control_change channel=0 control=67 value=53 time=98
control_change channel=0 control=67 value=52 time=16
control_change channel=0 control=67 value=52 time=15
control_change channel=0 control=67 value=51 time=16
control_change channel=0 control=67 value=50 time=14
control_change channel=0 control=67 value=50 time=15
control_change channel=0 control=67 value=49 time=31
control_change channel=0 control=67 value=49 time=15
control_change channel=0 control=67 value=48 time=15
control_change channel=0 control=67 value=47 time=31
control_change channel=0 control=67 value=47 time=15
control_change channel=0 control=67 value=46 time=14
control_change channel=0 control=67 value=46 time=16
control_change channel=0 control=67 value=45 time=15
control_change channel=0 control=67 value=45 time=32
control_change channel=0 control=67 value=44 time=15
control_change channel=0 control=64 value=30 time=15
control_change channel=0 control=64 value=47 time=15
control_change channel=0 control=64 value=54 time=15
control_change channel=0 control=67 value=44 time=0
control_change channel=0 control=64 value=58 time=16
control_change channel=0 control=64 value=61 time=15
control_change channel=0 control=64 value=62 time=14
control_change channel=0 control=67 value=43 time=0
control_change channel=0 control=64 value=64 time=16
control_change channel=0 control=64 value=64 time=15
control_change channel=0 control=64 value=65 time=16
control_change channel=0 control=64 value=66 time=15
control_change channel=0 control=64 value=67 time=15
control_change channel=0 control=64 value=68 time=16
control_change channel=0 control=67 value=43 time=0
control_change channel=0 control=64 value=69 time=15
control_change channel=0 control=64 value=70 time=15
control_change channel=0 control=67 value=42 time=0
note_on channel=0 note=69 velocity=39 time=5
control_change channel=0 control=64 value=71 time=10
note_on channel=0 note=57 velocity=23 time=11
control_change channel=0 control=64 value=73 time=4
control_change channel=0 control=64 value=75 time=16
control_change channel=0 control=64 value=76 time=15
control_change channel=0 control=67 value=42 time=0
control_change channel=0 control=64 value=78 time=14
control_change channel=0 control=67 value=41 time=0
note_on channel=0 note=69 velocity=0 time=11
control_change channel=0 control=64 value=79 time=5
control_change channel=0 control=64 value=81 time=15
control_change channel=0 control=64 value=83 time=14
control_change channel=0 control=67 value=41 time=0
control_change channel=0 control=64 value=85 time=15
control_change channel=0 control=67 value=40 time=0
control_change channel=0 control=64 value=86 time=15
control_change channel=0 control=64 value=87 time=16
control_change channel=0 control=67 value=40 time=0
control_change channel=0 control=67 value=39 time=15
note_on channel=0 note=74 velocity=75 time=6
note_on channel=0 note=57 velocity=0 time=5
control_change channel=0 control=67 value=38 time=3
control_change channel=0 control=67 value=37 time=16
control_change channel=0 control=67 value=37 time=15
note_on channel=0 note=54 velocity=39 time=0
note_on channel=0 note=62 velocity=28 time=9
control_change channel=0 control=67 value=36 time=14
control_change channel=0 control=64 value=89 time=15
control_change channel=0 control=64 value=92 time=16
control_change channel=0 control=67 value=35 time=0
control_change channel=0 control=64 value=97 time=15
control_change channel=0 control=67 value=34 time=0
control_change channel=0 control=64 value=101 time=15
control_change channel=0 control=67 value=34 time=0
control_change channel=0 control=64 value=102 time=16
control_change channel=0 control=67 value=33 time=0
note_on channel=0 note=74 velocity=0 time=0
control_change channel=0 control=64 value=102 time=14
control_change channel=0 control=67 value=32 time=0
control_change channel=0 control=64 value=99 time=15
control_change channel=0 control=67 value=32 time=0
control_change channel=0 control=64 value=94 time=16
control_change channel=0 control=67 value=31 time=0
note_on channel=0 note=62 velocity=0 time=6
control_change channel=0 control=64 value=90 time=9
control_change channel=0 control=67 value=30 time=0
note_on channel=0 note=76 velocity=84 time=7
note_on channel=0 note=64 velocity=52 time=8
control_change channel=0 control=64 value=90 time=1
control_change channel=0 control=67 value=29 time=0
note_on channel=0 note=54 velocity=0 time=9
note_on channel=0 note=69 velocity=51 time=3
control_change channel=0 control=67 value=28 time=2
note_on channel=0 note=57 velocity=43 time=0
control_change channel=0 control=64 value=90 time=15
control_change channel=0 control=67 value=26 time=0
control_change channel=0 control=64 value=92 time=16
control_change channel=0 control=67 value=25 time=0
note_on channel=0 note=64 velocity=0 time=6
control_change channel=0 control=64 value=96 time=9
control_change channel=0 control=67 value=23 time=0
control_change channel=0 control=64 value=100 time=15
control_change channel=0 control=67 value=22 time=0
control_change channel=0 control=64 value=104 time=16
control_change channel=0 control=67 value=22 time=0
control_change channel=0 control=64 value=107 time=14
control_change channel=0 control=67 value=21 time=0
control_change channel=0 control=64 value=109 time=16
note_on channel=0 note=69 velocity=0 time=17
control_change channel=0 control=67 value=22 time=29
control_change channel=0 control=64 value=108 time=15
control_change channel=0 control=67 value=22 time=0
control_change channel=0 control=64 value=105 time=16
control_change channel=0 control=67 value=23 time=0
note_on channel=0 note=76 velocity=0 time=0
control_change channel=0 control=64 value=99 time=15
control_change channel=0 control=67 value=23 time=0
control_change channel=0 control=64 value=86 time=15
control_change channel=0 control=64 value=72 time=16
control_change channel=0 control=67 value=24 time=0
note_on channel=0 note=78 velocity=73 time=10
note_on channel=0 note=57 velocity=0 time=1
control_change channel=0 control=64 value=44 time=3
control_change channel=0 control=67 value=24 time=0
note_on channel=0 note=69 velocity=38 time=10
control_change channel=0 control=64 value=0 time=5
note_on channel=0 note=66 velocity=42 time=1
note_on channel=0 note=74 velocity=49 time=3
note_on channel=0 note=62 velocity=40 time=8
control_change channel=0 control=67 value=25 time=4
control_change channel=0 control=64 value=21 time=15
control_change channel=0 control=64 value=50 time=16
control_change channel=0 control=67 value=25 time=0
control_change channel=0 control=64 value=61 time=15
control_change channel=0 control=67 value=26 time=0
control_change channel=0 control=64 value=64 time=15
control_change channel=0 control=67 value=27 time=0
control_change channel=0 control=64 value=66 time=15
control_change channel=0 control=67 value=29 time=0
control_change channel=0 control=64 value=69 time=15
control_change channel=0 control=67 value=32 time=0
control_change channel=0 control=64 value=72 time=15
control_change channel=0 control=67 value=33 time=0
note_on channel=0 note=66 velocity=0 time=11
control_change channel=0 control=64 value=75 time=5
control_change channel=0 control=67 value=36 time=0
note_on channel=0 note=62 velocity=0 time=15
control_change channel=0 control=64 value=78 time=2
control_change channel=0 control=67 value=41 time=0
control_change channel=0 control=64 value=81 time=15
control_change channel=0 control=67 value=46 time=0
control_change channel=0 control=64 value=83 time=15
control_change channel=0 control=67 value=49 time=0
control_change channel=0 control=64 value=84 time=16
control_change channel=0 control=67 value=50 time=0
control_change channel=0 control=64 value=85 time=17
control_change channel=0 control=67 value=51 time=0
control_change channel=0 control=64 value=86 time=15
control_change channel=0 control=67 value=51 time=0
control_change channel=0 control=64 value=88 time=15
control_change channel=0 control=64 value=90 time=15
control_change channel=0 control=64 value=92 time=16
control_change channel=0 control=64 value=93 time=14
control_change channel=0 control=67 value=51 time=0
control_change channel=0 control=64 value=93 time=15
control_change channel=0 control=67 value=50 time=0
control_change channel=0 control=67 value=50 time=16
control_change channel=0 control=67 value=49 time=23
control_change channel=0 control=64 value=94 time=16
control_change channel=0 control=67 value=48 time=0
control_change channel=0 control=67 value=47 time=14
control_change channel=0 control=67 value=47 time=16
note_on channel=0 note=38 velocity=47 time=5
control_change channel=0 control=67 value=46 time=10
control_change channel=0 control=67 value=46 time=14
note_on channel=0 note=38 velocity=0 time=15
control_change channel=0 control=64 value=94 time=1
control_change channel=0 control=67 value=45 time=0
note_on channel=0 note=45 velocity=61 time=4
control_change channel=0 control=64 value=95 time=11
control_change channel=0 control=67 value=44 time=0
control_change channel=0 control=64 value=96 time=15
control_change channel=0 control=67 value=44 time=0
note_on channel=0 note=45 velocity=0 time=2
control_change channel=0 control=64 value=97 time=14
control_change channel=0 control=67 value=43 time=0
control_change channel=0 control=64 value=98 time=14
control_change channel=0 control=67 value=42 time=0
control_change channel=0 control=64 value=98 time=16
control_change channel=0 control=67 value=42 time=0
control_change channel=0 control=64 value=99 time=30
control_change channel=0 control=67 value=41 time=0
control_change channel=0 control=64 value=100 time=16
control_change channel=0 control=64 value=101 time=14
note_on channel=0 note=78 velocity=0 time=1
note_on channel=0 note=69 velocity=0 time=12
control_change channel=0 control=67 value=42 time=18
control_change channel=0 control=64 value=98 time=15
note_on channel=0 note=74 velocity=0 time=7
control_change channel=0 control=64 value=92 time=8
control_change channel=0 control=64 value=89 time=15
note_on channel=0 note=78 velocity=89 time=16
control_change channel=0 control=64 value=90 time=15
control_change channel=0 control=67 value=41 time=0
note_on channel=0 note=66 velocity=54 time=2
note_on channel=0 note=62 velocity=48 time=4
note_on channel=0 note=69 velocity=50 time=0
note_on channel=0 note=74 velocity=35 time=6
control_change channel=0 control=64 value=92 time=3
control_change channel=0 control=67 value=41 time=0
control_change channel=0 control=64 value=96 time=16
control_change channel=0 control=64 value=101 time=15
control_change channel=0 control=67 value=40 time=0
control_change channel=0 control=64 value=110 time=15
note_on channel=0 note=66 velocity=0 time=6
control_change channel=0 control=64 value=120 time=10
note_on channel=0 note=62 velocity=0 time=6
control_change channel=0 control=64 value=127 time=9
control_change channel=0 control=67 value=40 time=0
control_change channel=0 control=67 value=39 time=31
note_on channel=0 note=69 velocity=0 time=2
control_change channel=0 control=67 value=39 time=43
control_change channel=0 control=67 value=38 time=15
control_change channel=0 control=67 value=38 time=16
note_on channel=0 note=74 velocity=0 time=10
control_change channel=0 control=67 value=37 time=5
control_change channel=0 control=67 value=36 time=16
control_change channel=0 control=67 value=35 time=15
control_change channel=0 control=67 value=35 time=14
control_change channel=0 control=67 value=34 time=16
control_change channel=0 control=67 value=33 time=15
control_change channel=0 control=67 value=32 time=15
control_change channel=0 control=67 value=31 time=16
control_change channel=0 control=67 value=29 time=14
note_on channel=0 note=38 velocity=57 time=8
control_change channel=0 control=67 value=27 time=8
control_change channel=0 control=67 value=24 time=15
control_change channel=0 control=67 value=21 time=14
note_on channel=0 note=78 velocity=0 time=0
note_on channel=0 note=38 velocity=0 time=9
note_on channel=0 note=45 velocity=67 time=6
control_change channel=0 control=67 value=18 time=1
control_change channel=0 control=67 value=14 time=15
note_on channel=0 note=45 velocity=0 time=8
control_change channel=0 control=67 value=9 time=7
control_change channel=0 control=67 value=0 time=23
note_on channel=0 note=78 velocity=71 time=109
note_on channel=0 note=78 velocity=0 time=23
note_on channel=0 note=79 velocity=72 time=8
control_change channel=0 control=64 value=117 time=12
control_change channel=0 control=64 value=100 time=15
note_on channel=0 note=76 velocity=50 time=13
control_change channel=0 control=64 value=83 time=3
control_change channel=0 control=64 value=66 time=15
note_on channel=0 note=76 velocity=0 time=7
note_on channel=0 note=78 velocity=72 time=3
control_change channel=0 control=64 value=60 time=4
note_on channel=0 note=66 velocity=41 time=9
note_on channel=0 note=62 velocity=42 time=6
control_change channel=0 control=64 value=66 time=1
note_on channel=0 note=74 velocity=47 time=3
note_on channel=0 note=79 velocity=0 time=1
control_change channel=0 control=64 value=70 time=11
control_change channel=0 control=64 value=73 time=15
control_change channel=0 control=64 value=76 time=16
control_change channel=0 control=64 value=80 time=14
note_on channel=0 note=74 velocity=0 time=12
control_change channel=0 control=64 value=85 time=4
control_change channel=0 control=64 value=90 time=15
control_change channel=0 control=64 value=94 time=15
note_on channel=0 note=78 velocity=0 time=4
control_change channel=0 control=64 value=96 time=11
note_on channel=0 note=66 velocity=0 time=9
control_change channel=0 control=64 value=97 time=6
note_on channel=0 note=62 velocity=0 time=4
control_change channel=0 control=64 value=98 time=12
control_change channel=0 control=64 value=100 time=15
control_change channel=0 control=64 value=101 time=15
control_change channel=0 control=64 value=103 time=17
control_change channel=0 control=64 value=103 time=15
control_change channel=0 control=64 value=104 time=30
control_change channel=0 control=64 value=104 time=15
control_change channel=0 control=64 value=105 time=16
note_on channel=0 note=76 velocity=78 time=13
control_change channel=0 control=64 value=104 time=2
note_on channel=0 note=61 velocity=49 time=2
note_on channel=0 note=64 velocity=50 time=4
control_change channel=0 control=64 value=101 time=8
note_on channel=0 note=73 velocity=65 time=1
control_change channel=0 control=64 value=94 time=15
note_on channel=0 note=73 velocity=0 time=5
control_change channel=0 control=64 value=85 time=10
note_on channel=0 note=64 velocity=0 time=4
note_on channel=0 note=78 velocity=82 time=2
note_on channel=0 note=61 velocity=0 time=8
control_change channel=0 control=64 value=81 time=1
note_on channel=0 note=62 velocity=57 time=7
note_on channel=0 note=66 velocity=57 time=6
note_on channel=0 note=76 velocity=0 time=1
control_change channel=0 control=64 value=83 time=2
note_on channel=0 note=74 velocity=61 time=0
control_change channel=0 control=64 value=86 time=15
note_on channel=0 note=74 velocity=0 time=15
control_change channel=0 control=64 value=93 time=1
note_on channel=0 note=78 velocity=0 time=11
control_change channel=0 control=64 value=100 time=4
note_on channel=0 note=66 velocity=0 time=5
control_change channel=0 control=64 value=108 time=9
note_on channel=0 note=62 velocity=0 time=6
control_change channel=0 control=64 value=116 time=10
control_change channel=0 control=64 value=127 time=15
note_on channel=0 note=78 velocity=72 time=30
note_on channel=0 note=78 velocity=0 time=51
note_on channel=0 note=79 velocity=73 time=11
control_change channel=0 control=64 value=111 time=7
note_on channel=0 note=76 velocity=64 time=8
control_change channel=0 control=64 value=95 time=7
note_on channel=0 note=62 velocity=53 time=13
control_change channel=0 control=64 value=77 time=2
note_on channel=0 note=66 velocity=47 time=8
note_on channel=0 note=78 velocity=74 time=0
note_on channel=0 note=76 velocity=0 time=2
control_change channel=0 control=64 value=59 time=6
note_on channel=0 note=74 velocity=43 time=7
control_change channel=0 control=64 value=47 time=8
note_on channel=0 note=79 velocity=0 time=13
control_change channel=0 control=64 value=62 time=2
control_change channel=0 control=64 value=68 time=15
control_change channel=0 control=64 value=71 time=15
note_on channel=0 note=74 velocity=0 time=15
control_change channel=0 control=64 value=75 time=1
control_change channel=0 control=64 value=79 time=15
control_change channel=0 control=64 value=82 time=15
note_on channel=0 note=78 velocity=0 time=2
control_change channel=0 control=64 value=85 time=13
note_on channel=0 note=66 velocity=0 time=4
control_change channel=0 control=64 value=88 time=11
note_on channel=0 note=62 velocity=0 time=2
control_change channel=0 control=64 value=90 time=14
control_change channel=0 control=64 value=92 time=15
control_change channel=0 control=64 value=95 time=15
control_change channel=0 control=64 value=97 time=16
control_change channel=0 control=64 value=99 time=15
control_change channel=0 control=64 value=100 time=15
control_change channel=0 control=64 value=100 time=30
control_change channel=0 control=64 value=96 time=16
control_change channel=0 control=64 value=88 time=14
note_on channel=0 note=61 velocity=50 time=4
note_on channel=0 note=76 velocity=69 time=4
control_change channel=0 control=64 value=81 time=7
note_on channel=0 note=64 velocity=53 time=1
note_on channel=0 note=73 velocity=65 time=9
control_change channel=0 control=64 value=80 time=6
control_change channel=0 control=64 value=82 time=15
note_on channel=0 note=73 velocity=0 time=7
control_change channel=0 control=64 value=85 time=9
note_on channel=0 note=64 velocity=0 time=1
note_on channel=0 note=61 velocity=0 time=2
note_on channel=0 note=66 velocity=61 time=3
note_on channel=0 note=78 velocity=88 time=6
control_change channel=0 control=64 value=90 time=2
note_on channel=0 note=62 velocity=52 time=12
control_change channel=0 control=64 value=97 time=3
note_on channel=0 note=66 velocity=0 time=8
note_on channel=0 note=76 velocity=0 time=0
note_on channel=0 note=74 velocity=54 time=7
control_change channel=0 control=64 value=102 time=1
control_change channel=0 control=64 value=106 time=16
control_change channel=0 control=64 value=107 time=15
control_change channel=0 control=64 value=107 time=92
note_on channel=0 note=78 velocity=0 time=7
control_change channel=0 control=64 value=104 time=7
control_change channel=0 control=64 value=99 time=15
control_change channel=0 control=64 value=90 time=16
control_change channel=0 control=64 value=77 time=15
control_change channel=0 control=64 value=63 time=15
note_on channel=0 note=81 velocity=76 time=7
note_on channel=0 note=62 velocity=0 time=1
note_on channel=0 note=74 velocity=0 time=2
control_change channel=0 control=64 value=0 time=5
note_on channel=0 note=69 velocity=46 time=2
note_on channel=0 note=57 velocity=38 time=9
note_on channel=0 note=66 velocity=45 time=0
note_on channel=0 note=78 velocity=45 time=13
control_change channel=0 control=64 value=56 time=22
control_change channel=0 control=64 value=64 time=14
control_change channel=0 control=64 value=67 time=16
control_change channel=0 control=64 value=69 time=23
note_on channel=0 note=78 velocity=0 time=8
control_change channel=0 control=64 value=72 time=7
control_change channel=0 control=64 value=76 time=15
note_on channel=0 note=78 velocity=11 time=7
control_change channel=0 control=64 value=79 time=9
note_on channel=0 note=69 velocity=0 time=9
control_change channel=0 control=64 value=81 time=6
note_on channel=0 note=66 velocity=0 time=0
control_change channel=0 control=64 value=83 time=15
control_change channel=0 control=64 value=86 time=15
note_on channel=0 note=78 velocity=0 time=8
control_change channel=0 control=64 value=88 time=7
control_change channel=0 control=64 value=91 time=15
control_change channel=0 control=64 value=93 time=16
control_change channel=0 control=64 value=95 time=15
control_change channel=0 control=64 value=97 time=15
control_change channel=0 control=64 value=99 time=15
control_change channel=0 control=64 value=101 time=15
control_change channel=0 control=64 value=102 time=16
control_change channel=0 control=64 value=102 time=30
control_change channel=0 control=64 value=103 time=30
note_on channel=0 note=66 velocity=40 time=153
note_on channel=0 note=78 velocity=66 time=5
note_on channel=0 note=57 velocity=0 time=19
note_on channel=0 note=62 velocity=34 time=6
note_on channel=0 note=74 velocity=20 time=27
control_change channel=0 control=67 value=8 time=4
control_change channel=0 control=67 value=8 time=14
note_on channel=0 note=81 velocity=0 time=11
control_change channel=0 control=67 value=9 time=5
note_on channel=0 note=66 velocity=0 time=1
control_change channel=0 control=67 value=9 time=15
control_change channel=0 control=67 value=10 time=15
control_change channel=0 control=67 value=11 time=16
control_change channel=0 control=67 value=12 time=15
control_change channel=0 control=67 value=13 time=14
control_change channel=0 control=64 value=99 time=16
control_change channel=0 control=67 value=15 time=0
control_change channel=0 control=64 value=93 time=14
control_change channel=0 control=67 value=18 time=0
control_change channel=0 control=64 value=82 time=15
control_change channel=0 control=67 value=22 time=0
control_change channel=0 control=64 value=68 time=15
control_change channel=0 control=67 value=26 time=0
note_on channel=0 note=74 velocity=0 time=0
note_on channel=0 note=62 velocity=0 time=1
control_change channel=0 control=64 value=55 time=14
control_change channel=0 control=67 value=30 time=0
note_on channel=0 note=78 velocity=0 time=2
note_on channel=0 note=76 velocity=54 time=6
note_on channel=0 note=57 velocity=46 time=1
control_change channel=0 control=64 value=61 time=7
control_change channel=0 control=67 value=33 time=0
note_on channel=0 note=69 velocity=37 time=8
note_on channel=0 note=64 velocity=37 time=5
control_change channel=0 control=64 value=66 time=2
control_change channel=0 control=67 value=36 time=0
control_change channel=0 control=64 value=69 time=15
control_change channel=0 control=67 value=39 time=0
control_change channel=0 control=64 value=72 time=15
control_change channel=0 control=67 value=41 time=0
control_change channel=0 control=64 value=76 time=23
control_change channel=0 control=67 value=43 time=0
note_on channel=0 note=64 velocity=0 time=14
control_change channel=0 control=64 value=80 time=2
control_change channel=0 control=67 value=43 time=0
control_change channel=0 control=64 value=84 time=15
control_change channel=0 control=67 value=44 time=0
note_on channel=0 note=57 velocity=0 time=7
control_change channel=0 control=64 value=87 time=8
control_change channel=0 control=64 value=90 time=15
control_change channel=0 control=64 value=92 time=15
control_change channel=0 control=64 value=94 time=16
control_change channel=0 control=64 value=96 time=14
control_change channel=0 control=64 value=98 time=15
control_change channel=0 control=64 value=100 time=16
control_change channel=0 control=67 value=43 time=0
control_change channel=0 control=64 value=103 time=15
control_change channel=0 control=67 value=43 time=0
control_change channel=0 control=64 value=104 time=15
control_change channel=0 control=67 value=42 time=0
control_change channel=0 control=64 value=105 time=30
control_change channel=0 control=64 value=107 time=16
control_change channel=0 control=64 value=110 time=15
control_change channel=0 control=64 value=114 time=15
control_change channel=0 control=64 value=116 time=15
control_change channel=0 control=64 value=116 time=15
note_on channel=0 note=33 velocity=42 time=9
control_change channel=0 control=64 value=117 time=6
control_change channel=0 control=64 value=120 time=16
control_change channel=0 control=64 value=127 time=15
control_change channel=0 control=67 value=42 time=0
note_on channel=0 note=33 velocity=0 time=3
note_on channel=0 note=45 velocity=62 time=26
control_change channel=0 control=67 value=41 time=2
control_change channel=0 control=67 value=41 time=31
note_on channel=0 note=45 velocity=0 time=2
control_change channel=0 control=67 value=40 time=28
control_change channel=0 control=67 value=40 time=60
note_on channel=0 note=69 velocity=0 time=40
note_on channel=0 note=76 velocity=0 time=26
control_change channel=0 control=67 value=40 time=10
control_change channel=0 control=64 value=112 time=108
control_change channel=0 control=64 value=97 time=15
control_change channel=0 control=64 value=80 time=14
note_on channel=0 note=76 velocity=63 time=12
control_change channel=0 control=64 value=64 time=4
note_on channel=0 note=57 velocity=39 time=11
note_on channel=0 note=64 velocity=41 time=0
note_on channel=0 note=60 velocity=39 time=1
control_change channel=0 control=64 value=0 time=3
note_on channel=0 note=69 velocity=41 time=1
note_on channel=0 note=72 velocity=41 time=4
control_change channel=0 control=67 value=40 time=11
control_change channel=0 control=64 value=38 time=14
control_change channel=0 control=67 value=39 time=0
control_change channel=0 control=64 value=57 time=23
control_change channel=0 control=67 value=38 time=0
control_change channel=0 control=64 value=64 time=16
control_change channel=0 control=67 value=38 time=0
control_change channel=0 control=64 value=68 time=15
control_change channel=0 control=64 value=72 time=16
control_change channel=0 control=67 value=37 time=0
control_change channel=0 control=64 value=77 time=14
control_change channel=0 control=67 value=36 time=0
note_on channel=0 note=64 velocity=0 time=7
control_change channel=0 control=64 value=83 time=8
control_change channel=0 control=67 value=36 time=0
note_on channel=0 note=60 velocity=0 time=11
control_change channel=0 control=64 value=88 time=5
note_on channel=0 note=57 velocity=0 time=6
control_change channel=0 control=64 value=91 time=8
control_change channel=0 control=64 value=94 time=15
control_change channel=0 control=64 value=97 time=16
control_change channel=0 control=64 value=102 time=15
control_change channel=0 control=67 value=36 time=0
control_change channel=0 control=64 value=108 time=16
control_change channel=0 control=64 value=113 time=14
control_change channel=0 control=64 value=117 time=15
control_change channel=0 control=64 value=127 time=16
control_change channel=0 control=67 value=36 time=31
note_on channel=0 note=33 velocity=54 time=99
note_on channel=0 note=33 velocity=0 time=49
control_change channel=0 control=67 value=35 time=3
note_on channel=0 note=40 velocity=61 time=1
note_on channel=0 note=40 velocity=0 time=30
control_change channel=0 control=67 value=34 time=15
control_change channel=0 control=67 value=34 time=15
control_change channel=0 control=67 value=33 time=15
control_change channel=0 control=67 value=32 time=16
control_change channel=0 control=67 value=32 time=15
control_change channel=0 control=67 value=31 time=14
control_change channel=0 control=67 value=30 time=16
note_on channel=0 note=76 velocity=0 time=1
note_on channel=0 note=69 velocity=0 time=3
note_on channel=0 note=72 velocity=0 time=7
control_change channel=0 control=67 value=30 time=4
control_change channel=0 control=67 value=29 time=45
control_change channel=0 control=67 value=29 time=16
control_change channel=0 control=67 value=28 time=15
note_on channel=0 note=76 velocity=87 time=6
control_change channel=0 control=67 value=26 time=10
note_on channel=0 note=69 velocity=51 time=4
note_on channel=0 note=64 velocity=53 time=8
control_change channel=0 control=67 value=24 time=4
note_on channel=0 note=60 velocity=33 time=0
note_on channel=0 note=72 velocity=58 time=1
note_on channel=0 note=57 velocity=48 time=8
control_change channel=0 control=67 value=22 time=6
control_change channel=0 control=67 value=19 time=16
note_on channel=0 note=64 velocity=0 time=6
control_change channel=0 control=67 value=16 time=9
control_change channel=0 control=67 value=12 time=15
note_on channel=0 note=60 velocity=0 time=3
control_change channel=0 control=67 value=0 time=13
note_on channel=0 note=57 velocity=0 time=6
note_on channel=0 note=76 velocity=0 time=152
note_on channel=0 note=72 velocity=0 time=61
note_on channel=0 note=33 velocity=60 time=16
note_on channel=0 note=40 velocity=66 time=60
note_on channel=0 note=33 velocity=0 time=7
note_on channel=0 note=40 velocity=0 time=22
note_on channel=0 note=69 velocity=0 time=3
note_on channel=0 note=76 velocity=75 time=123
note_on channel=0 note=72 velocity=48 time=27
note_on channel=0 note=76 velocity=0 time=4
control_change channel=0 control=64 value=96 time=12
note_on channel=0 note=78 velocity=66 time=3
control_change channel=0 control=64 value=73 time=11
note_on channel=0 note=72 velocity=0 time=12
control_change channel=0 control=64 value=56 time=4
note_on channel=0 note=76 velocity=74 time=7
note_on channel=0 note=72 velocity=52 time=4
control_change channel=0 control=64 value=62 time=4
note_on channel=0 note=60 velocity=49 time=3
note_on channel=0 note=64 velocity=48 time=1
control_change channel=0 control=64 value=66 time=12
control_change channel=0 control=64 value=70 time=15
note_on channel=0 note=78 velocity=0 time=1
control_change channel=0 control=64 value=74 time=13
control_change channel=0 control=64 value=82 time=16
note_on channel=0 note=72 velocity=0 time=9
control_change channel=0 control=64 value=89 time=6
note_on channel=0 note=76 velocity=0 time=12
control_change channel=0 control=64 value=95 time=3
control_change channel=0 control=64 value=99 time=16
note_on channel=0 note=64 velocity=0 time=3
note_on channel=0 note=60 velocity=0 time=7
control_change channel=0 control=64 value=103 time=5
control_change channel=0 control=64 value=107 time=15
control_change channel=0 control=64 value=110 time=15
control_change channel=0 control=64 value=115 time=15
control_change channel=0 control=64 value=127 time=16
note_on channel=0 note=74 velocity=79 time=108
note_on channel=0 note=59 velocity=43 time=14
note_on channel=0 note=71 velocity=57 time=1
note_on channel=0 note=62 velocity=43 time=4
control_change channel=0 control=64 value=108 time=3
note_on channel=0 note=71 velocity=0 time=13
control_change channel=0 control=64 value=87 time=1
control_change channel=0 control=64 value=70 time=16
note_on channel=0 note=76 velocity=84 time=12
control_change channel=0 control=64 value=67 time=3
note_on channel=0 note=59 velocity=0 time=12
note_on channel=0 note=72 velocity=69 time=1
control_change channel=0 control=64 value=73 time=3
note_on channel=0 note=74 velocity=0 time=0
note_on channel=0 note=62 velocity=0 time=5
note_on channel=0 note=60 velocity=56 time=6
note_on channel=0 note=64 velocity=64 time=0
control_change channel=0 control=64 value=78 time=4
control_change channel=0 control=64 value=86 time=14
note_on channel=0 note=72 velocity=0 time=6
control_change channel=0 control=64 value=94 time=10
control_change channel=0 control=64 value=103 time=15
note_on channel=0 note=76 velocity=0 time=2
control_change channel=0 control=64 value=115 time=13
note_on channel=0 note=64 velocity=0 time=10
control_change channel=0 control=64 value=127 time=6
note_on channel=0 note=60 velocity=0 time=9
note_on channel=0 note=76 velocity=73 time=45
note_on channel=0 note=72 velocity=60 time=8
note_on channel=0 note=76 velocity=0 time=18
note_on channel=0 note=72 velocity=0 time=4
note_on channel=0 note=78 velocity=79 time=4
control_change channel=0 control=64 value=109 time=3
control_change channel=0 control=64 value=85 time=15
control_change channel=0 control=64 value=65 time=16
note_on channel=0 note=60 velocity=62 time=8
control_change channel=0 control=64 value=0 time=6
note_on channel=0 note=64 velocity=56 time=2
note_on channel=0 note=72 velocity=67 time=5
note_on channel=0 note=76 velocity=90 time=1
control_change channel=0 control=64 value=53 time=8
control_change channel=0 control=64 value=64 time=15
control_change channel=0 control=64 value=70 time=15
note_on channel=0 note=78 velocity=0 time=4
note_on channel=0 note=72 velocity=0 time=6
control_change channel=0 control=64 value=75 time=6
control_change channel=0 control=64 value=80 time=14
note_on channel=0 note=76 velocity=0 time=12
control_change channel=0 control=64 value=86 time=4
control_change channel=0 control=64 value=91 time=15
note_on channel=0 note=64 velocity=0 time=13
control_change channel=0 control=64 value=95 time=2
note_on channel=0 note=60 velocity=0 time=7
control_change channel=0 control=64 value=97 time=8
control_change channel=0 control=64 value=99 time=15
control_change channel=0 control=64 value=102 time=15
control_change channel=0 control=64 value=104 time=16
control_change channel=0 control=64 value=106 time=14
control_change channel=0 control=64 value=107 time=16
control_change channel=0 control=64 value=101 time=75
note_on channel=0 note=74 velocity=82 time=6
note_on channel=0 note=62 velocity=53 time=1
note_on channel=0 note=59 velocity=54 time=6
control_change channel=0 control=64 value=91 time=3
note_on channel=0 note=71 velocity=57 time=4
control_change channel=0 control=64 value=78 time=11
note_on channel=0 note=71 velocity=0 time=8
control_change channel=0 control=64 value=72 time=7
control_change channel=0 control=64 value=75 time=15
note_on channel=0 note=62 velocity=0 time=9
control_change channel=0 control=64 value=81 time=6
note_on channel=0 note=76 velocity=83 time=5
note_on channel=0 note=59 velocity=0 time=8
note_on channel=0 note=64 velocity=53 time=0
control_change channel=0 control=64 value=88 time=3
note_on channel=0 note=60 velocity=51 time=3
note_on channel=0 note=72 velocity=63 time=6
note_on channel=0 note=74 velocity=0 time=0
control_change channel=0 control=64 value=95 time=6
note_on channel=0 note=64 velocity=0 time=15
control_change channel=0 control=64 value=102 time=2
note_on channel=0 note=60 velocity=0 time=8
control_change channel=0 control=64 value=106 time=7
control_change channel=0 control=64 value=110 time=22
control_change channel=0 control=64 value=112 time=16
note_on channel=0 note=76 velocity=0 time=58
control_change channel=0 control=64 value=110 time=33
control_change channel=0 control=64 value=103 time=14
control_change channel=0 control=64 value=92 time=16
control_change channel=0 control=64 value=77 time=15
note_on channel=0 note=79 velocity=77 time=14
control_change channel=0 control=64 value=60 time=2
note_on channel=0 note=72 velocity=0 time=2
note_on channel=0 note=55 velocity=47 time=11
control_change channel=0 control=64 value=0 time=2
note_on channel=0 note=64 velocity=42 time=1
note_on channel=0 note=67 velocity=43 time=4
note_on channel=0 note=76 velocity=49 time=17
control_change channel=0 control=64 value=54 time=23
control_change channel=0 control=64 value=65 time=15
control_change channel=0 control=64 value=68 time=15
control_change channel=0 control=64 value=72 time=15
control_change channel=0 control=64 value=75 time=16
control_change channel=0 control=64 value=78 time=15
control_change channel=0 control=67 value=8 time=0
control_change channel=0 control=64 value=80 time=15
control_change channel=0 control=67 value=10 time=0
note_on channel=0 note=67 velocity=0 time=0
control_change channel=0 control=64 value=82 time=16
control_change channel=0 control=67 value=12 time=0
note_on channel=0 note=64 velocity=0 time=14
control_change channel=0 control=64 value=84 time=1
control_change channel=0 control=67 value=13 time=0
control_change channel=0 control=64 value=86 time=15
control_change channel=0 control=67 value=15 time=0
note_on channel=0 note=76 velocity=0 time=7
control_change channel=0 control=64 value=89 time=8
control_change channel=0 control=67 value=16 time=0
control_change channel=0 control=64 value=91 time=15
control_change channel=0 control=67 value=17 time=0
control_change channel=0 control=64 value=93 time=16
control_change channel=0 control=67 value=18 time=0
control_change channel=0 control=64 value=95 time=15
control_change channel=0 control=67 value=18 time=0
control_change channel=0 control=64 value=96 time=15
control_change channel=0 control=67 value=19 time=0
control_change channel=0 control=64 value=97 time=15
control_change channel=0 control=67 value=20 time=0
control_change channel=0 control=67 value=22 time=15
control_change channel=0 control=64 value=97 time=16
control_change channel=0 control=67 value=26 time=0
control_change channel=0 control=67 value=28 time=15
control_change channel=0 control=67 value=30 time=15
control_change channel=0 control=67 value=33 time=15
control_change channel=0 control=67 value=34 time=15
control_change channel=0 control=67 value=35 time=16
control_change channel=0 control=67 value=36 time=15
control_change channel=0 control=67 value=36 time=14
control_change channel=0 control=67 value=37 time=16
control_change channel=0 control=67 value=38 time=15
control_change channel=0 control=67 value=40 time=15
note_on channel=0 note=55 velocity=0 time=1
control_change channel=0 control=67 value=42 time=14
note_on channel=0 note=76 velocity=67 time=7
control_change channel=0 control=67 value=43 time=8
note_on channel=0 note=64 velocity=41 time=1
control_change channel=0 control=67 value=44 time=15
note_on channel=0 note=60 velocity=35 time=0
note_on channel=0 note=72 velocity=25 time=13
control_change channel=0 control=67 value=45 time=2
control_change channel=0 control=67 value=46 time=15
control_change channel=0 control=67 value=47 time=15
control_change channel=0 control=67 value=48 time=23
note_on channel=0 note=79 velocity=0 time=4
control_change channel=0 control=67 value=49 time=12
note_on channel=0 note=72 velocity=0 time=7
control_change channel=0 control=64 value=97 time=9
control_change channel=0 control=67 value=50 time=0
control_change channel=0 control=64 value=96 time=15
control_change channel=0 control=67 value=51 time=0
control_change channel=0 control=64 value=96 time=16
control_change channel=0 control=67 value=52 time=0
control_change channel=0 control=64 value=95 time=15
control_change channel=0 control=67 value=52 time=0
control_change channel=0 control=64 value=94 time=15
control_change channel=0 control=67 value=53 time=0
control_change channel=0 control=64 value=94 time=15
control_change channel=0 control=67 value=54 time=0
control_change channel=0 control=64 value=92 time=15
control_change channel=0 control=64 value=91 time=15
control_change channel=0 control=67 value=55 time=0
control_change channel=0 control=64 value=87 time=15
control_change channel=0 control=67 value=56 time=0
control_change channel=0 control=64 value=80 time=15
control_change channel=0 control=67 value=56 time=0
note_on channel=0 note=60 velocity=0 time=11
control_change channel=0 control=64 value=70 time=5
control_change channel=0 control=67 value=57 time=0
control_change channel=0 control=64 value=45 time=15
control_change channel=0 control=67 value=57 time=0
note_on channel=0 note=64 velocity=0 time=7
control_change channel=0 control=64 value=0 time=8
note_on channel=0 note=76 velocity=0 time=1
note_on channel=0 note=74 velocity=58 time=9
note_on channel=0 note=55 velocity=32 time=4
control_change channel=0 control=64 value=27 time=1
note_on channel=0 note=67 velocity=38 time=7
note_on channel=0 note=62 velocity=36 time=7
control_change channel=0 control=64 value=56 time=1
control_change channel=0 control=64 value=64 time=16
control_change channel=0 control=64 value=68 time=15
control_change channel=0 control=64 value=72 time=14
control_change channel=0 control=67 value=57 time=0
control_change channel=0 control=64 value=78 time=16
control_change channel=0 control=67 value=56 time=0
control_change channel=0 control=64 value=82 time=15
control_change channel=0 control=67 value=55 time=0
note_on channel=0 note=62 velocity=0 time=11
control_change channel=0 control=64 value=85 time=4
control_change channel=0 control=67 value=55 time=0
control_change channel=0 control=64 value=87 time=15
control_change channel=0 control=67 value=54 time=0
note_on channel=0 note=55 velocity=0 time=6
control_change channel=0 control=64 value=89 time=9
control_change channel=0 control=64 value=91 time=16
control_change channel=0 control=64 value=94 time=15
control_change channel=0 control=67 value=53 time=0
control_change channel=0 control=64 value=96 time=16
control_change channel=0 control=64 value=97 time=14
control_change channel=0 control=67 value=53 time=0
control_change channel=0 control=64 value=98 time=15
control_change channel=0 control=67 value=52 time=0
control_change channel=0 control=64 value=98 time=16
control_change channel=0 control=64 value=99 time=30
control_change channel=0 control=64 value=98 time=107
control_change channel=0 control=64 value=92 time=15
note_on channel=0 note=31 velocity=43 time=0
control_change channel=0 control=64 value=83 time=15
control_change channel=0 control=64 value=72 time=14
control_change channel=0 control=64 value=67 time=16
control_change channel=0 control=64 value=69 time=14
control_change channel=0 control=64 value=72 time=15
note_on channel=0 note=43 velocity=43 time=12
control_change channel=0 control=64 value=75 time=4
control_change channel=0 control=67 value=52 time=0
note_on channel=0 note=31 velocity=0 time=0
control_change channel=0 control=64 value=78 time=15
control_change channel=0 control=67 value=51 time=0
control_change channel=0 control=64 value=82 time=15
note_on channel=0 note=43 velocity=0 time=5
control_change channel=0 control=64 value=86 time=10
control_change channel=0 control=64 value=90 time=15
control_change channel=0 control=67 value=51 time=0
control_change channel=0 control=64 value=93 time=24
control_change channel=0 control=67 value=50 time=0
control_change channel=0 control=64 value=94 time=15
control_change channel=0 control=67 value=50 time=0
control_change channel=0 control=64 value=95 time=16
control_change channel=0 control=64 value=97 time=14
control_change channel=0 control=67 value=50 time=0
control_change channel=0 control=64 value=99 time=16
control_change channel=0 control=64 value=100 time=16
control_change channel=0 control=67 value=51 time=60
note_on channel=0 note=67 velocity=0 time=12
note_on channel=0 note=74 velocity=0 time=54
control_change channel=0 control=67 value=51 time=41
control_change channel=0 control=64 value=99 time=45
control_change channel=0 control=64 value=94 time=15
control_change channel=0 control=64 value=87 time=16
note_on channel=0 note=74 velocity=59 time=2
control_change channel=0 control=64 value=75 time=13
note_on channel=0 note=70 velocity=50 time=2
note_on channel=0 note=67 velocity=40 time=2
note_on channel=0 note=62 velocity=37 time=2
note_on channel=0 note=55 velocity=37 time=7
control_change channel=0 control=64 value=64 time=2
note_on channel=0 note=58 velocity=34 time=6
control_change channel=0 control=64 value=48 time=9
control_change channel=0 control=64 value=56 time=15
control_change channel=0 control=64 value=61 time=16
control_change channel=0 control=67 value=51 time=0
control_change channel=0 control=64 value=64 time=15
control_change channel=0 control=64 value=67 time=15
control_change channel=0 control=64 value=71 time=15
control_change channel=0 control=67 value=50 time=0
control_change channel=0 control=64 value=75 time=15
control_change channel=0 control=64 value=79 time=16
note_on channel=0 note=62 velocity=0 time=3
control_change channel=0 control=64 value=82 time=12
control_change channel=0 control=67 value=50 time=0
note_on channel=0 note=55 velocity=0 time=8
control_change channel=0 control=64 value=85 time=7
note_on channel=0 note=58 velocity=0 time=0
control_change channel=0 control=64 value=89 time=16
control_change channel=0 control=64 value=92 time=14
control_change channel=0 control=64 value=96 time=16
control_change channel=0 control=64 value=98 time=15
control_change channel=0 control=64 value=100 time=15
control_change channel=0 control=67 value=50 time=0
control_change channel=0 control=64 value=102 time=16
control_change channel=0 control=64 value=103 time=14
control_change channel=0 control=64 value=104 time=15
control_change channel=0 control=67 value=50 time=0
control_change channel=0 control=64 value=105 time=16
control_change channel=0 control=64 value=106 time=15
control_change channel=0 control=64 value=108 time=16
control_change channel=0 control=67 value=49 time=0
control_change channel=0 control=64 value=103 time=45
control_change channel=0 control=64 value=99 time=14
control_change channel=0 control=67 value=49 time=0
note_on channel=0 note=31 velocity=56 time=1
control_change channel=0 control=67 value=48 time=53
note_on channel=0 note=31 velocity=0 time=10
note_on channel=0 note=38 velocity=62 time=3
control_change channel=0 control=64 value=100 time=3
control_change channel=0 control=67 value=48 time=0
control_change channel=0 control=64 value=103 time=14
control_change channel=0 control=67 value=47 time=0
note_on channel=0 note=38 velocity=0 time=13
control_change channel=0 control=64 value=108 time=3
control_change channel=0 control=67 value=47 time=0
control_change channel=0 control=64 value=112 time=15
control_change channel=0 control=67 value=46 time=0
control_change channel=0 control=64 value=114 time=15
control_change channel=0 control=67 value=46 time=0
control_change channel=0 control=64 value=115 time=16
control_change channel=0 control=67 value=45 time=0
note_on channel=0 note=67 velocity=0 time=13
control_change channel=0 control=64 value=121 time=3
control_change channel=0 control=64 value=127 time=14
control_change channel=0 control=67 value=44 time=0
note_on channel=0 note=74 velocity=0 time=0
control_change channel=0 control=67 value=44 time=16
note_on channel=0 note=70 velocity=0 time=0
control_change channel=0 control=64 value=114 time=45
control_change channel=0 control=64 value=109 time=15
control_change channel=0 control=67 value=43 time=0
control_change channel=0 control=64 value=108 time=16
control_change channel=0 control=67 value=42 time=15
note_on channel=0 note=74 velocity=81 time=6
control_change channel=0 control=64 value=109 time=10
note_on channel=0 note=70 velocity=66 time=4
note_on channel=0 note=67 velocity=52 time=5
control_change channel=0 control=67 value=41 time=5
note_on channel=0 note=58 velocity=51 time=0
note_on channel=0 note=62 velocity=48 time=1
note_on channel=0 note=55 velocity=47 time=1
control_change channel=0 control=64 value=111 time=13
control_change channel=0 control=67 value=40 time=0
control_change channel=0 control=64 value=118 time=16
control_change channel=0 control=67 value=38 time=0
note_on channel=0 note=62 velocity=0 time=13
control_change channel=0 control=64 value=127 time=2
control_change channel=0 control=67 value=36 time=0
control_change channel=0 control=67 value=34 time=15
note_on channel=0 note=58 velocity=0 time=8
control_change channel=0 control=67 value=32 time=7
note_on channel=0 note=55 velocity=0 time=10
control_change channel=0 control=67 value=29 time=5
control_change channel=0 control=67 value=25 time=16
control_change channel=0 control=67 value=22 time=14
control_change channel=0 control=67 value=20 time=15
control_change channel=0 control=67 value=18 time=16
note_on channel=0 note=67 velocity=0 time=12
control_change channel=0 control=67 value=17 time=3
control_change channel=0 control=67 value=15 time=15
control_change channel=0 control=67 value=13 time=15
control_change channel=0 control=67 value=10 time=15
control_change channel=0 control=67 value=8 time=16
note_on channel=0 note=70 velocity=0 time=10
control_change channel=0 control=67 value=0 time=5
note_on channel=0 note=74 velocity=0 time=16
note_on channel=0 note=31 velocity=69 time=38
note_on channel=0 note=31 velocity=0 time=54
note_on channel=0 note=38 velocity=63 time=4
note_on channel=0 note=38 velocity=0 time=34
note_on channel=0 note=74 velocity=64 time=118
note_on channel=0 note=70 velocity=59 time=1
note_on channel=0 note=74 velocity=0 time=19
note_on channel=0 note=70 velocity=0 time=6
note_on channel=0 note=76 velocity=72 time=2
control_change channel=0 control=64 value=96 time=20
control_change channel=0 control=64 value=75 time=15
control_change channel=0 control=64 value=55 time=16
note_on channel=0 note=74 velocity=78 time=4
control_change channel=0 control=64 value=53 time=11
note_on channel=0 note=58 velocity=52 time=3
note_on channel=0 note=62 velocity=49 time=6
control_change channel=0 control=64 value=63 time=5
note_on channel=0 note=76 velocity=0 time=4
note_on channel=0 note=70 velocity=45 time=1
control_change channel=0 control=64 value=66 time=11
control_change channel=0 control=64 value=70 time=15
control_change channel=0 control=64 value=75 time=16
control_change channel=0 control=64 value=80 time=15
note_on channel=0 note=70 velocity=0 time=12
control_change channel=0 control=64 value=85 time=3
note_on channel=0 note=74 velocity=0 time=0
note_on channel=0 note=62 velocity=0 time=11
control_change channel=0 control=64 value=89 time=5
note_on channel=0 note=58 velocity=0 time=6
control_change channel=0 control=64 value=92 time=9
control_change channel=0 control=64 value=93 time=15
control_change channel=0 control=64 value=95 time=16
control_change channel=0 control=64 value=97 time=14
control_change channel=0 control=64 value=99 time=15
control_change channel=0 control=64 value=100 time=16
control_change channel=0 control=64 value=102 time=15
control_change channel=0 control=64 value=103 time=16
control_change channel=0 control=64 value=103 time=14
control_change channel=0 control=64 value=104 time=15
control_change channel=0 control=64 value=105 time=16
note_on channel=0 note=57 velocity=54 time=11
control_change channel=0 control=64 value=104 time=4
note_on channel=0 note=61 velocity=65 time=1
note_on channel=0 note=73 velocity=76 time=0
note_on channel=0 note=69 velocity=72 time=3
control_change channel=0 control=64 value=97 time=12
note_on channel=0 note=69 velocity=0 time=13
control_change channel=0 control=64 value=82 time=1
note_on channel=0 note=73 velocity=0 time=1
control_change channel=0 control=64 value=67 time=14
control_change channel=0 control=64 value=65 time=16
note_on channel=0 note=74 velocity=86 time=13
control_change channel=0 control=64 value=70 time=1
note_on channel=0 note=61 velocity=0 time=2
note_on channel=0 note=58 velocity=62 time=4
note_on channel=0 note=70 velocity=73 time=2
note_on channel=0 note=62 velocity=61 time=2
control_change channel=0 control=64 value=75 time=5
note_on channel=0 note=57 velocity=0 time=2
control_change channel=0 control=64 value=81 time=14
control_change channel=0 control=64 value=88 time=15
note_on channel=0 note=70 velocity=0 time=5
note_on channel=0 note=62 velocity=0 time=3
control_change channel=0 control=64 value=95 time=8
note_on channel=0 note=74 velocity=0 time=0
control_change channel=0 control=64 value=100 time=14
note_on channel=0 note=58 velocity=0 time=0
control_change channel=0 control=64 value=104 time=15
control_change channel=0 control=64 value=107 time=16
control_change channel=0 control=64 value=108 time=15
note_on channel=0 note=70 velocity=75 time=31
note_on channel=0 note=74 velocity=75 time=2
note_on channel=0 note=70 velocity=0 time=22
note_on channel=0 note=74 velocity=0 time=0
control_change channel=0 control=64 value=106 time=6
note_on channel=0 note=76 velocity=73 time=4
control_change channel=0 control=64 value=96 time=11
control_change channel=0 control=64 value=82 time=14
control_change channel=0 control=64 value=66 time=16
note_on channel=0 note=72 velocity=42 time=2
note_on channel=0 note=58 velocity=51 time=3
note_on channel=0 note=62 velocity=53 time=0
note_on channel=0 note=74 velocity=82 time=7
control_change channel=0 control=64 value=59 time=3
note_on channel=0 note=72 velocity=0 time=13
control_change channel=0 control=64 value=64 time=2
note_on channel=0 note=70 velocity=68 time=1
note_on channel=0 note=76 velocity=0 time=6
control_change channel=0 control=64 value=68 time=9
control_change channel=0 control=64 value=71 time=22
control_change channel=0 control=64 value=76 time=16
control_change channel=0 control=64 value=83 time=15
note_on channel=0 note=62 velocity=0 time=6
note_on channel=0 note=70 velocity=0 time=3
note_on channel=0 note=74 velocity=0 time=3
control_change channel=0 control=64 value=91 time=3
control_change channel=0 control=64 value=95 time=15
note_on channel=0 note=58 velocity=0 time=12
control_change channel=0 control=64 value=98 time=3
control_change channel=0 control=64 value=101 time=16
control_change channel=0 control=64 value=105 time=15
control_change channel=0 control=64 value=109 time=14
control_change channel=0 control=64 value=112 time=16
control_change channel=0 control=64 value=115 time=15
control_change channel=0 control=64 value=115 time=16
control_change channel=0 control=64 value=115 time=61
note_on channel=0 note=57 velocity=49 time=13
control_change channel=0 control=64 value=114 time=3
note_on channel=0 note=61 velocity=59 time=8
control_change channel=0 control=64 value=103 time=7
note_on channel=0 note=73 velocity=80 time=3
note_on channel=0 note=69 velocity=68 time=6
control_change channel=0 control=64 value=88 time=6
control_change channel=0 control=64 value=71 time=16
note_on channel=0 note=69 velocity=0 time=5
note_on channel=0 note=73 velocity=0 time=8
control_change channel=0 control=64 value=53 time=1
control_change channel=0 control=64 value=60 time=15
control_change channel=0 control=64 value=66 time=16
note_on channel=0 note=57 velocity=0 time=1
note_on channel=0 note=62 velocity=56 time=4
note_on channel=0 note=70 velocity=71 time=0
note_on channel=0 note=61 velocity=0 time=1
note_on channel=0 note=74 velocity=85 time=3
control_change channel=0 control=64 value=71 time=5
note_on channel=0 note=58 velocity=48 time=1
control_change channel=0 control=64 value=76 time=15
control_change channel=0 control=64 value=82 time=15
note_on channel=0 note=70 velocity=0 time=0
note_on channel=0 note=62 velocity=0 time=3
note_on channel=0 note=58 velocity=0 time=7
control_change channel=0 control=64 value=89 time=5
control_change channel=0 control=64 value=95 time=16
control_change channel=0 control=64 value=100 time=14
control_change channel=0 control=64 value=102 time=15
control_change channel=0 control=64 value=104 time=16
control_change channel=0 control=64 value=106 time=15
note_on channel=0 note=74 velocity=0 time=45
control_change channel=0 control=64 value=105 time=61
control_change channel=0 control=64 value=101 time=15
control_change channel=0 control=64 value=94 time=16
control_change channel=0 control=64 value=81 time=15
note_on channel=0 note=81 velocity=78 time=6
control_change channel=0 control=64 value=68 time=9
note_on channel=0 note=77 velocity=58 time=11
control_change channel=0 control=64 value=27 time=5
note_on channel=0 note=57 velocity=38 time=6
note_on channel=0 note=65 velocity=41 time=0
note_on channel=0 note=69 velocity=35 time=0
control_change channel=0 control=64 value=0 time=9
control_change channel=0 control=64 value=37 time=30
control_change channel=0 control=64 value=49 time=15
control_change channel=0 control=64 value=58 time=16
control_change channel=0 control=64 value=63 time=15
control_change channel=0 control=64 value=67 time=23
control_change channel=0 control=64 value=70 time=15
control_change channel=0 control=64 value=72 time=15
control_change channel=0 control=64 value=75 time=16
control_change channel=0 control=64 value=78 time=15
control_change channel=0 control=64 value=80 time=15
note_on channel=0 note=69 velocity=0 time=11
note_on channel=0 note=77 velocity=0 time=1
control_change channel=0 control=64 value=83 time=3
control_change channel=0 control=67 value=8 time=0
note_on channel=0 note=65 velocity=0 time=6
control_change channel=0 control=64 value=85 time=9
control_change channel=0 control=67 value=9 time=0
control_change channel=0 control=64 value=87 time=15
control_change channel=0 control=67 value=11 time=0
control_change channel=0 control=64 value=89 time=15
control_change channel=0 control=67 value=12 time=0
control_change channel=0 control=64 value=91 time=15
control_change channel=0 control=67 value=13 time=0
control_change channel=0 control=64 value=93 time=16
control_change channel=0 control=67 value=15 time=0
control_change channel=0 control=64 value=95 time=15
control_change channel=0 control=67 value=18 time=0
control_change channel=0 control=64 value=97 time=16
control_change channel=0 control=67 value=21 time=0
control_change channel=0 control=64 value=98 time=15
control_change channel=0 control=67 value=23 time=0
control_change channel=0 control=67 value=25 time=15
control_change channel=0 control=64 value=98 time=15
control_change channel=0 control=67 value=27 time=0
control_change channel=0 control=64 value=99 time=15
control_change channel=0 control=67 value=30 time=0
control_change channel=0 control=64 value=100 time=16
control_change channel=0 control=67 value=32 time=0
control_change channel=0 control=64 value=101 time=16
control_change channel=0 control=67 value=34 time=0
control_change channel=0 control=67 value=35 time=14
control_change channel=0 control=67 value=36 time=16
control_change channel=0 control=67 value=37 time=15
control_change channel=0 control=67 value=38 time=15
control_change channel=0 control=64 value=101 time=16
control_change channel=0 control=67 value=38 time=15
control_change channel=0 control=67 value=39 time=16
note_on channel=0 note=65 velocity=38 time=11
note_on channel=0 note=77 velocity=60 time=3
note_on channel=0 note=57 velocity=0 time=14
note_on channel=0 note=62 velocity=36 time=5
note_on channel=0 note=74 velocity=42 time=6
control_change channel=0 control=67 value=39 time=21
note_on channel=0 note=81 velocity=0 time=6
control_change channel=0 control=67 value=39 time=39
note_on channel=0 note=74 velocity=0 time=15
control_change channel=0 control=67 value=38 time=16
control_change channel=0 control=67 value=38 time=45
control_change channel=0 control=64 value=100 time=45
control_change channel=0 control=64 value=93 time=16
control_change channel=0 control=67 value=37 time=0
note_on channel=0 note=62 velocity=0 time=6
control_change channel=0 control=64 value=81 time=9
control_change channel=0 control=67 value=37 time=0
note_on channel=0 note=77 velocity=0 time=1
control_change channel=0 control=64 value=66 time=14
control_change channel=0 control=67 value=36 time=0
note_on channel=0 note=65 velocity=0 time=0
note_on channel=0 note=76 velocity=55 time=1
note_on channel=0 note=64 velocity=47 time=8
control_change channel=0 control=64 value=0 time=7
control_change channel=0 control=67 value=36 time=0
note_on channel=0 note=57 velocity=33 time=8
note_on channel=0 note=69 velocity=30 time=3
control_change channel=0 control=67 value=35 time=3
control_change channel=0 control=64 value=47 time=15
control_change channel=0 control=67 value=34 time=0
control_change channel=0 control=64 value=58 time=16
control_change channel=0 control=67 value=34 time=0
control_change channel=0 control=64 value=65 time=22
control_change channel=0 control=67 value=33 time=0
control_change channel=0 control=64 value=70 time=16
control_change channel=0 control=67 value=33 time=0
note_on channel=0 note=64 velocity=0 time=4
control_change channel=0 control=64 value=75 time=11
control_change channel=0 control=67 value=32 time=0
control_change channel=0 control=64 value=81 time=16
control_change channel=0 control=67 value=30 time=0
note_on channel=0 note=57 velocity=0 time=5
control_change channel=0 control=64 value=86 time=10
control_change channel=0 control=64 value=92 time=14
control_change channel=0 control=67 value=30 time=0
control_change channel=0 control=64 value=99 time=16
control_change channel=0 control=64 value=105 time=15
control_change channel=0 control=67 value=29 time=0
control_change channel=0 control=64 value=112 time=15
control_change channel=0 control=67 value=29 time=0
control_change channel=0 control=64 value=126 time=16
control_change channel=0 control=67 value=28 time=0
control_change channel=0 control=64 value=127 time=14
note_on channel=0 note=76 velocity=0 time=1
control_change channel=0 control=67 value=28 time=15
control_change channel=0 control=67 value=27 time=15
control_change channel=0 control=67 value=27 time=15
control_change channel=0 control=67 value=26 time=15
control_change channel=0 control=67 value=24 time=15
control_change channel=0 control=67 value=21 time=16
control_change channel=0 control=67 value=16 time=11
note_on channel=0 note=33 velocity=62 time=1
control_change channel=0 control=67 value=9 time=14
control_change channel=0 control=67 value=0 time=14
note_on channel=0 note=33 velocity=0 time=6
note_on channel=0 note=45 velocity=68 time=10
note_on channel=0 note=45 velocity=0 time=27
note_on channel=0 note=69 velocity=0 time=59
note_on channel=0 note=81 velocity=81 time=174
control_change channel=0 control=64 value=92 time=15
note_on channel=0 note=77 velocity=64 time=4
note_on channel=0 note=65 velocity=56 time=5
note_on channel=0 note=69 velocity=54 time=3
note_on channel=0 note=57 velocity=43 time=1
control_change channel=0 control=64 value=71 time=2
control_change channel=0 control=64 value=31 time=15
control_change channel=0 control=64 value=28 time=16
control_change channel=0 control=64 value=56 time=14
control_change channel=0 control=64 value=63 time=15
control_change channel=0 control=64 value=66 time=16
control_change channel=0 control=64 value=70 time=15
control_change channel=0 control=64 value=75 time=15
control_change channel=0 control=64 value=79 time=15
control_change channel=0 control=64 value=83 time=15
control_change channel=0 control=64 value=88 time=16
control_change channel=0 control=64 value=92 time=15
control_change channel=0 control=64 value=95 time=23
note_on channel=0 note=69 velocity=0 time=14
control_change channel=0 control=64 value=98 time=1
note_on channel=0 note=77 velocity=0 time=3
note_on channel=0 note=65 velocity=0 time=10
control_change channel=0 control=64 value=102 time=2
control_change channel=0 control=64 value=107 time=16
control_change channel=0 control=64 value=112 time=15
control_change channel=0 control=64 value=120 time=14
control_change channel=0 control=64 value=127 time=16
note_on channel=0 note=77 velocity=71 time=199
note_on channel=0 note=57 velocity=0 time=4
note_on channel=0 note=81 velocity=0 time=0
note_on channel=0 note=65 velocity=41 time=4
note_on channel=0 note=74 velocity=46 time=18
note_on channel=0 note=62 velocity=40 time=4
note_on channel=0 note=74 velocity=0 time=144
control_change channel=0 control=64 value=115 time=37
control_change channel=0 control=64 value=103 time=15
note_on channel=0 note=62 velocity=0 time=5
control_change channel=0 control=64 value=88 time=11
note_on channel=0 note=65 velocity=0 time=12
control_change channel=0 control=64 value=71 time=3
note_on channel=0 note=77 velocity=0 time=1
note_on channel=0 note=76 velocity=62 time=5
control_change channel=0 control=64 value=0 time=10
note_on channel=0 note=57 velocity=41 time=4
note_on channel=0 note=64 velocity=48 time=2
note_on channel=0 note=69 velocity=37 time=15
control_change channel=0 control=64 value=48 time=9
control_change channel=0 control=64 value=61 time=16
control_change channel=0 control=64 value=66 time=14
control_change channel=0 control=64 value=72 time=16
note_on channel=0 note=64 velocity=0 time=13
control_change channel=0 control=64 value=79 time=2
control_change channel=0 control=64 value=89 time=15
note_on channel=0 note=57 velocity=0 time=10
control_change channel=0 control=64 value=98 time=6
control_change channel=0 control=64 value=106 time=14
control_change channel=0 control=64 value=115 time=15
control_change channel=0 control=64 value=127 time=16
note_on channel=0 note=69 velocity=0 time=54
note_on channel=0 note=76 velocity=0 time=58
note_on channel=0 note=33 velocity=78 time=70
note_on channel=0 note=45 velocity=90 time=50
note_on channel=0 note=33 velocity=0 time=7
note_on channel=0 note=45 velocity=0 time=21
control_change channel=0 control=64 value=104 time=188
control_change channel=0 control=64 value=81 time=16
control_change channel=0 control=64 value=74 time=16
note_on channel=0 note=89 velocity=99 time=2
note_on channel=0 note=77 velocity=84 time=5
control_change channel=0 control=64 value=78 time=7
note_on channel=0 note=57 velocity=49 time=4
note_on channel=0 note=86 velocity=60 time=0
note_on channel=0 note=62 velocity=62 time=1
note_on channel=0 note=65 velocity=63 time=1
control_change channel=0 control=64 value=86 time=10
note_on channel=0 note=86 velocity=0 time=7
control_change channel=0 control=64 value=98 time=8
note_on channel=0 note=59 velocity=33 time=7
note_on channel=0 note=77 velocity=0 time=1
control_change channel=0 control=64 value=113 time=6
control_change channel=0 control=64 value=127 time=16
note_on channel=0 note=89 velocity=0 time=3
note_on channel=0 note=59 velocity=0 time=17
note_on channel=0 note=65 velocity=0 time=13
note_on channel=0 note=62 velocity=0 time=165
note_on channel=0 note=93 velocity=104 time=78
note_on channel=0 note=81 velocity=89 time=6
note_on channel=0 note=65 velocity=70 time=2
note_on channel=0 note=69 velocity=70 time=2
note_on channel=0 note=81 velocity=0 time=21
note_on channel=0 note=69 velocity=0 time=2
note_on channel=0 note=93 velocity=0 time=20
note_on channel=0 note=65 velocity=0 time=6
note_on channel=0 note=89 velocity=98 time=42
note_on channel=0 note=77 velocity=95 time=7
note_on channel=0 note=86 velocity=79 time=6
note_on channel=0 note=65 velocity=74 time=4
note_on channel=0 note=62 velocity=73 time=3
note_on channel=0 note=57 velocity=0 time=57
note_on channel=0 note=65 velocity=0 time=35
note_on channel=0 note=77 velocity=0 time=20
note_on channel=0 note=62 velocity=0 time=15
note_on channel=0 note=89 velocity=0 time=13
note_on channel=0 note=86 velocity=0 time=4
control_change channel=0 control=64 value=110 time=58
control_change channel=0 control=64 value=79 time=15
note_on channel=0 note=89 velocity=103 time=0
note_on channel=0 note=77 velocity=92 time=3
note_on channel=0 note=65 velocity=73 time=8
note_on channel=0 note=62 velocity=74 time=2
control_change channel=0 control=64 value=65 time=2
note_on channel=0 note=86 velocity=75 time=1
note_on channel=0 note=57 velocity=64 time=11
control_change channel=0 control=64 value=69 time=4
control_change channel=0 control=64 value=74 time=15
note_on channel=0 note=86 velocity=0 time=2
control_change channel=0 control=64 value=82 time=13
note_on channel=0 note=77 velocity=0 time=0
control_change channel=0 control=64 value=93 time=15
note_on channel=0 note=89 velocity=0 time=5
control_change channel=0 control=64 value=106 time=10
control_change channel=0 control=64 value=121 time=17
note_on channel=0 note=65 velocity=0 time=2
control_change channel=0 control=64 value=127 time=13
note_on channel=0 note=62 velocity=0 time=19
note_on channel=0 note=69 velocity=66 time=184
note_on channel=0 note=65 velocity=66 time=3
note_on channel=0 note=93 velocity=100 time=3
note_on channel=0 note=81 velocity=89 time=5
note_on channel=0 note=69 velocity=0 time=15
note_on channel=0 note=81 velocity=0 time=5
note_on channel=0 note=93 velocity=0 time=18
note_on channel=0 note=65 velocity=0 time=20
note_on channel=0 note=89 velocity=101 time=39
note_on channel=0 note=77 velocity=96 time=8
note_on channel=0 note=62 velocity=76 time=5
note_on channel=0 note=65 velocity=75 time=2
note_on channel=0 note=57 velocity=0 time=5
note_on channel=0 note=89 velocity=0 time=55
note_on channel=0 note=77 velocity=0 time=89
control_change channel=0 control=64 value=100 time=65
control_change channel=0 control=64 value=70 time=15
note_on channel=0 note=62 velocity=0 time=11
control_change channel=0 control=64 value=0 time=4
note_on channel=0 note=88 velocity=100 time=1
note_on channel=0 note=81 velocity=74 time=2
note_on channel=0 note=76 velocity=89 time=1
note_on channel=0 note=85 velocity=83 time=2
note_on channel=0 note=64 velocity=78 time=1
note_on channel=0 note=65 velocity=0 time=3
note_on channel=0 note=57 velocity=65 time=1
control_change channel=0 control=64 value=55 time=50
control_change channel=0 control=64 value=68 time=15
note_on channel=0 note=64 velocity=0 time=1
control_change channel=0 control=64 value=74 time=15
note_on channel=0 note=57 velocity=0 time=4
control_change channel=0 control=64 value=81 time=11
control_change channel=0 control=64 value=88 time=15
control_change channel=0 control=64 value=94 time=15
control_change channel=0 control=64 value=100 time=15
control_change channel=0 control=64 value=105 time=16
control_change channel=0 control=64 value=110 time=15
control_change channel=0 control=64 value=115 time=15
control_change channel=0 control=64 value=118 time=15
control_change channel=0 control=64 value=119 time=15
control_change channel=0 control=64 value=121 time=16
control_change channel=0 control=64 value=123 time=16
control_change channel=0 control=64 value=124 time=15
control_change channel=0 control=64 value=123 time=16
control_change channel=0 control=64 value=121 time=15
control_change channel=0 control=64 value=103 time=14
control_change channel=0 control=64 value=88 time=16
note_on channel=0 note=33 velocity=72 time=6
control_change channel=0 control=64 value=77 time=9
control_change channel=0 control=64 value=75 time=15
control_change channel=0 control=64 value=79 time=15
note_on channel=0 note=33 velocity=0 time=10
note_on channel=0 note=45 velocity=75 time=1
control_change channel=0 control=64 value=85 time=4
control_change channel=0 control=64 value=93 time=16
note_on channel=0 note=45 velocity=0 time=7
control_change channel=0 control=64 value=101 time=8
control_change channel=0 control=64 value=108 time=14
control_change channel=0 control=64 value=113 time=24
control_change channel=0 control=64 value=116 time=15
control_change channel=0 control=64 value=117 time=30
control_change channel=0 control=64 value=119 time=16
control_change channel=0 control=64 value=122 time=15
control_change channel=0 control=64 value=124 time=15
note_on channel=0 note=76 velocity=0 time=7
note_on channel=0 note=88 velocity=0 time=5
note_on channel=0 note=81 velocity=0 time=19
note_on channel=0 note=85 velocity=0 time=1
control_change channel=0 control=64 value=117 time=13
control_change channel=0 control=64 value=97 time=16
control_change channel=0 control=64 value=78 time=15
note_on channel=0 note=64 velocity=81 time=10
note_on channel=0 note=57 velocity=76 time=4
control_change channel=0 control=64 value=66 time=1
note_on channel=0 note=81 velocity=68 time=2
note_on channel=0 note=85 velocity=77 time=0
note_on channel=0 note=88 velocity=95 time=0
note_on channel=0 note=76 velocity=88 time=4
control_change channel=0 control=64 value=67 time=9
note_on channel=0 note=64 velocity=0 time=8
control_change channel=0 control=64 value=73 time=7
note_on channel=0 note=57 velocity=0 time=2
control_change channel=0 control=64 value=78 time=14
control_change channel=0 control=64 value=85 time=14
control_change channel=0 control=64 value=92 time=15
control_change channel=0 control=64 value=99 time=16
control_change channel=0 control=64 value=102 time=15
control_change channel=0 control=64 value=103 time=16
control_change channel=0 control=64 value=104 time=29
control_change channel=0 control=64 value=106 time=16
control_change channel=0 control=64 value=109 time=15
control_change channel=0 control=64 value=111 time=15
control_change channel=0 control=64 value=112 time=16
control_change channel=0 control=64 value=111 time=60
control_change channel=0 control=64 value=108 time=61
control_change channel=0 control=64 value=95 time=15
note_on channel=0 note=33 velocity=70 time=11
control_change channel=0 control=64 value=81 time=5
control_change channel=0 control=64 value=70 time=15
control_change channel=0 control=64 value=68 time=15
note_on channel=0 note=45 velocity=79 time=11
control_change channel=0 control=64 value=73 time=6
note_on channel=0 note=33 velocity=0 time=6
control_change channel=0 control=64 value=78 time=9
control_change channel=0 control=64 value=85 time=15
note_on channel=0 note=45 velocity=0 time=5
control_change channel=0 control=64 value=91 time=10
control_change channel=0 control=64 value=97 time=15
control_change channel=0 control=64 value=101 time=15
control_change channel=0 control=64 value=103 time=15
control_change channel=0 control=64 value=105 time=15
control_change channel=0 control=64 value=106 time=16
control_change channel=0 control=64 value=107 time=15
control_change channel=0 control=64 value=108 time=15
note_on channel=0 note=76 velocity=0 time=47
note_on channel=0 note=88 velocity=0 time=3
note_on channel=0 note=81 velocity=0 time=24
note_on channel=0 note=85 velocity=0 time=3
control_change channel=0 control=64 value=107 time=7
control_change channel=0 control=64 value=103 time=15
control_change channel=0 control=64 value=92 time=15
control_change channel=0 control=64 value=77 time=15
note_on channel=0 note=64 velocity=64 time=2
note_on channel=0 note=88 velocity=88 time=6
note_on channel=0 note=57 velocity=61 time=1
note_on channel=0 note=85 velocity=70 time=5
control_change channel=0 control=64 value=67 time=1
note_on channel=0 note=76 velocity=72 time=3
note_on channel=0 note=81 velocity=53 time=6
control_change channel=0 control=64 value=68 time=7
control_change channel=0 control=67 value=8 time=0
control_change channel=0 control=64 value=73 time=15
control_change channel=0 control=67 value=8 time=0
note_on channel=0 note=64 velocity=0 time=4
control_change channel=0 control=64 value=77 time=11
note_on channel=0 note=57 velocity=0 time=1
control_change channel=0 control=64 value=81 time=14
control_change channel=0 control=67 value=9 time=0
control_change channel=0 control=64 value=86 time=15
control_change channel=0 control=67 value=10 time=0
control_change channel=0 control=64 value=91 time=16
control_change channel=0 control=67 value=11 time=0
control_change channel=0 control=64 value=95 time=15
control_change channel=0 control=67 value=12 time=0
control_change channel=0 control=64 value=96 time=15
control_change channel=0 control=67 value=13 time=0
control_change channel=0 control=67 value=14 time=15
control_change channel=0 control=67 value=16 time=15
control_change channel=0 control=64 value=96 time=15
control_change channel=0 control=67 value=17 time=0
control_change channel=0 control=64 value=97 time=15
control_change channel=0 control=67 value=19 time=0
control_change channel=0 control=64 value=98 time=15
control_change channel=0 control=67 value=20 time=0
control_change channel=0 control=67 value=21 time=16
control_change channel=0 control=67 value=22 time=15
control_change channel=0 control=67 value=22 time=15
control_change channel=0 control=67 value=23 time=16
control_change channel=0 control=67 value=23 time=14
control_change channel=0 control=67 value=24 time=15
control_change channel=0 control=67 value=26 time=16
control_change channel=0 control=67 value=29 time=15
control_change channel=0 control=64 value=97 time=16
control_change channel=0 control=67 value=30 time=0
control_change channel=0 control=64 value=96 time=15
control_change channel=0 control=67 value=32 time=0
control_change channel=0 control=64 value=94 time=14
control_change channel=0 control=67 value=34 time=0
control_change channel=0 control=64 value=89 time=16
control_change channel=0 control=67 value=35 time=0
control_change channel=0 control=64 value=82 time=15
control_change channel=0 control=67 value=36 time=0
note_on channel=0 note=33 velocity=57 time=2
control_change channel=0 control=64 value=72 time=13
control_change channel=0 control=67 value=37 time=0
control_change channel=0 control=64 value=57 time=16
control_change channel=0 control=67 value=39 time=0
note_on channel=0 note=45 velocity=58 time=12
control_change channel=0 control=64 value=56 time=3
control_change channel=0 control=67 value=40 time=0
control_change channel=0 control=64 value=62 time=16
control_change channel=0 control=67 value=41 time=0
control_change channel=0 control=64 value=64 time=14
control_change channel=0 control=67 value=43 time=0
control_change channel=0 control=64 value=65 time=15
control_change channel=0 control=67 value=44 time=0
control_change channel=0 control=64 value=67 time=16
control_change channel=0 control=67 value=45 time=0
control_change channel=0 control=64 value=70 time=16
control_change channel=0 control=67 value=46 time=0
control_change channel=0 control=64 value=73 time=15
control_change channel=0 control=67 value=46 time=0
control_change channel=0 control=64 value=75 time=15
control_change channel=0 control=67 value=47 time=0
note_on channel=0 note=45 velocity=0 time=6
control_change channel=0 control=64 value=77 time=9
control_change channel=0 control=67 value=48 time=0
note_on channel=0 note=33 velocity=0 time=1
control_change channel=0 control=64 value=79 time=15
control_change channel=0 control=67 value=48 time=0
control_change channel=0 control=64 value=81 time=15
control_change channel=0 control=67 value=50 time=0
control_change channel=0 control=64 value=83 time=15
control_change channel=0 control=67 value=51 time=0
control_change channel=0 control=64 value=87 time=15
control_change channel=0 control=67 value=52 time=0
control_change channel=0 control=64 value=89 time=15
control_change channel=0 control=67 value=54 time=0
control_change channel=0 control=64 value=90 time=23
control_change channel=0 control=67 value=56 time=0
control_change channel=0 control=64 value=91 time=15
control_change channel=0 control=67 value=57 time=0
control_change channel=0 control=64 value=92 time=16
control_change channel=0 control=67 value=58 time=0
control_change channel=0 control=64 value=92 time=14
control_change channel=0 control=67 value=59 time=0
control_change channel=0 control=64 value=93 time=18
control_change channel=0 control=67 value=60 time=0
control_change channel=0 control=67 value=63 time=15
control_change channel=0 control=67 value=66 time=15
control_change channel=0 control=67 value=68 time=16
control_change channel=0 control=67 value=69 time=15
control_change channel=0 control=67 value=71 time=15
control_change channel=0 control=67 value=72 time=16
control_change channel=0 control=67 value=74 time=14
control_change channel=0 control=67 value=76 time=16
control_change channel=0 control=67 value=77 time=15
control_change channel=0 control=67 value=78 time=15
control_change channel=0 control=67 value=80 time=16
control_change channel=0 control=67 value=82 time=14
control_change channel=0 control=67 value=84 time=15
control_change channel=0 control=67 value=86 time=16
control_change channel=0 control=67 value=88 time=15
control_change channel=0 control=67 value=90 time=15
control_change channel=0 control=67 value=92 time=15
control_change channel=0 control=67 value=93 time=15
control_change channel=0 control=67 value=95 time=16
control_change channel=0 control=64 value=92 time=14
control_change channel=0 control=67 value=97 time=0
control_change channel=0 control=64 value=92 time=15
control_change channel=0 control=67 value=100 time=0
control_change channel=0 control=64 value=91 time=16
control_change channel=0 control=67 value=102 time=0
control_change channel=0 control=64 value=91 time=15
control_change channel=0 control=67 value=103 time=0
control_change channel=0 control=67 value=105 time=16
control_change channel=0 control=64 value=90 time=15
control_change channel=0 control=67 value=106 time=0
control_change channel=0 control=64 value=88 time=14
control_change channel=0 control=67 value=107 time=0
control_change channel=0 control=64 value=83 time=16
control_change channel=0 control=67 value=108 time=0
control_change channel=0 control=64 value=74 time=15
control_change channel=0 control=67 value=110 time=0
control_change channel=0 control=64 value=63 time=15
control_change channel=0 control=67 value=111 time=0
note_on channel=0 note=33 velocity=45 time=7
control_change channel=0 control=64 value=0 time=8
control_change channel=0 control=67 value=112 time=0
control_change channel=0 control=67 value=113 time=15
control_change channel=0 control=67 value=113 time=16
control_change channel=0 control=64 value=32 time=15
note_on channel=0 note=45 velocity=49 time=3
control_change channel=0 control=64 value=53 time=12
control_change channel=0 control=64 value=62 time=16
control_change channel=0 control=67 value=114 time=0
control_change channel=0 control=64 value=64 time=15
control_change channel=0 control=64 value=67 time=16
control_change channel=0 control=64 value=69 time=15
control_change channel=0 control=64 value=72 time=15
note_on channel=0 note=45 velocity=0 time=12
control_change channel=0 control=64 value=74 time=3
control_change channel=0 control=64 value=76 time=16
control_change channel=0 control=64 value=78 time=16
control_change channel=0 control=64 value=80 time=15
note_on channel=0 note=33 velocity=0 time=4
control_change channel=0 control=64 value=83 time=10
control_change channel=0 control=64 value=85 time=16
control_change channel=0 control=64 value=87 time=23
control_change channel=0 control=64 value=89 time=16
control_change channel=0 control=64 value=90 time=15
control_change channel=0 control=64 value=91 time=14
control_change channel=0 control=64 value=93 time=16
control_change channel=0 control=64 value=94 time=15
control_change channel=0 control=64 value=95 time=16
control_change channel=0 control=64 value=95 time=29
control_change channel=0 control=64 value=96 time=16
control_change channel=0 control=64 value=97 time=15
note_on channel=0 note=76 velocity=0 time=234
note_on channel=0 note=81 velocity=0 time=100
note_on channel=0 note=88 velocity=0 time=53
note_on channel=0 note=85 velocity=0 time=9
control_change channel=0 control=67 value=113 time=135
control_change channel=0 control=64 value=96 time=176
control_change channel=0 control=64 value=96 time=15
control_change channel=0 control=64 value=95 time=45
control_change channel=0 control=64 value=94 time=16
control_change channel=0 control=64 value=91 time=15
note_on channel=0 note=33 velocity=40 time=8
control_change channel=0 control=64 value=83 time=6
control_change channel=0 control=64 value=72 time=16
control_change channel=0 control=64 value=58 time=15
control_change channel=0 control=64 value=14 time=15
control_change channel=0 control=64 value=40 time=15
control_change channel=0 control=64 value=53 time=15
note_on channel=0 note=45 velocity=37 time=3
control_change channel=0 control=64 value=58 time=13
control_change channel=0 control=67 value=113 time=0
control_change channel=0 control=64 value=62 time=15
control_change channel=0 control=67 value=112 time=0
control_change channel=0 control=64 value=64 time=15
control_change channel=0 control=64 value=67 time=16
control_change channel=0 control=67 value=112 time=0
control_change channel=0 control=64 value=69 time=15
control_change channel=0 control=67 value=111 time=0
note_on channel=0 note=33 velocity=0 time=6
control_change channel=0 control=64 value=71 time=10
control_change channel=0 control=67 value=111 time=0
control_change channel=0 control=64 value=73 time=15
control_change channel=0 control=67 value=110 time=0
control_change channel=0 control=64 value=74 time=14
control_change channel=0 control=64 value=76 time=16
control_change channel=0 control=67 value=109 time=0
control_change channel=0 control=64 value=77 time=15
control_change channel=0 control=67 value=109 time=0
note_on channel=0 note=45 velocity=0 time=9
control_change channel=0 control=64 value=79 time=6
control_change channel=0 control=67 value=108 time=0
control_change channel=0 control=64 value=81 time=15
control_change channel=0 control=67 value=107 time=0
control_change channel=0 control=64 value=83 time=15
control_change channel=0 control=67 value=107 time=0
control_change channel=0 control=64 value=85 time=16
control_change channel=0 control=64 value=86 time=15
control_change channel=0 control=67 value=106 time=0
control_change channel=0 control=64 value=88 time=15
control_change channel=0 control=64 value=88 time=15
control_change channel=0 control=64 value=89 time=15
control_change channel=0 control=67 value=106 time=0
control_change channel=0 control=67 value=105 time=15
control_change channel=0 control=67 value=105 time=15
control_change channel=0 control=64 value=90 time=15
control_change channel=0 control=64 value=90 time=16
control_change channel=0 control=67 value=104 time=0
control_change channel=0 control=67 value=104 time=30
control_change channel=0 control=67 value=102 time=15
control_change channel=0 control=67 value=102 time=15
control_change channel=0 control=67 value=100 time=15
control_change channel=0 control=67 value=99 time=16
control_change channel=0 control=67 value=97 time=15
control_change channel=0 control=67 value=95 time=15
control_change channel=0 control=67 value=94 time=15
control_change channel=0 control=67 value=92 time=24
control_change channel=0 control=67 value=91 time=16
control_change channel=0 control=67 value=89 time=15
control_change channel=0 control=67 value=88 time=16
control_change channel=0 control=67 value=88 time=14
control_change channel=0 control=64 value=89 time=16
control_change channel=0 control=67 value=87 time=0
control_change channel=0 control=64 value=87 time=15
control_change channel=0 control=64 value=84 time=15
control_change channel=0 control=67 value=87 time=0
control_change channel=0 control=64 value=79 time=15
control_change channel=0 control=64 value=75 time=15
note_on channel=0 note=69 velocity=40 time=7
control_change channel=0 control=64 value=74 time=8
control_change channel=0 control=67 value=86 time=0
note_on channel=0 note=57 velocity=37 time=9
control_change channel=0 control=64 value=75 time=7
control_change channel=0 control=64 value=76 time=15
control_change channel=0 control=64 value=77 time=15
control_change channel=0 control=67 value=86 time=0
control_change channel=0 control=64 value=79 time=15
control_change channel=0 control=67 value=85 time=0
control_change channel=0 control=64 value=81 time=15
control_change channel=0 control=67 value=83 time=0
note_on channel=0 note=69 velocity=0 time=10
note_on channel=0 note=57 velocity=0 time=1
control_change channel=0 control=64 value=83 time=4
control_change channel=0 control=67 value=81 time=0
control_change channel=0 control=64 value=84 time=15
control_change channel=0 control=67 value=79 time=0
control_change channel=0 control=64 value=86 time=15
control_change channel=0 control=67 value=77 time=0
control_change channel=0 control=64 value=88 time=16
control_change channel=0 control=67 value=75 time=0
control_change channel=0 control=64 value=91 time=15
control_change channel=0 control=67 value=73 time=0
control_change channel=0 control=64 value=93 time=15
control_change channel=0 control=67 value=71 time=0
control_change channel=0 control=67 value=69 time=15
control_change channel=0 control=64 value=92 time=15
control_change channel=0 control=67 value=67 time=0
control_change channel=0 control=64 value=91 time=16
control_change channel=0 control=67 value=65 time=0
note_on channel=0 note=74 velocity=76 time=6
control_change channel=0 control=64 value=91 time=9
control_change channel=0 control=67 value=63 time=0
note_on channel=0 note=66 velocity=49 time=12
control_change channel=0 control=67 value=61 time=3
note_on channel=0 note=62 velocity=44 time=0
note_on channel=0 note=54 velocity=48 time=7
control_change channel=0 control=67 value=59 time=9
control_change channel=0 control=67 value=57 time=15
note_on channel=0 note=66 velocity=0 time=4
control_change channel=0 control=64 value=92 time=11
control_change channel=0 control=67 value=55 time=0
control_change channel=0 control=64 value=94 time=15
control_change channel=0 control=67 value=53 time=0
control_change channel=0 control=64 value=96 time=15
control_change channel=0 control=67 value=50 time=0
control_change channel=0 control=64 value=98 time=16
control_change channel=0 control=67 value=46 time=0
control_change channel=0 control=64 value=99 time=15
control_change channel=0 control=67 value=42 time=0
note_on channel=0 note=74 velocity=0 time=10
control_change channel=0 control=67 value=39 time=6
note_on channel=0 note=62 velocity=0 time=9
control_change channel=0 control=67 value=35 time=5
control_change channel=0 control=67 value=32 time=15
note_on channel=0 note=54 velocity=0 time=1
control_change channel=0 control=64 value=96 time=15
control_change channel=0 control=67 value=30 time=0
control_change channel=0 control=64 value=90 time=15
control_change channel=0 control=67 value=28 time=0
control_change channel=0 control=64 value=84 time=15
control_change channel=0 control=67 value=27 time=0
note_on channel=0 note=76 velocity=80 time=13
control_change channel=0 control=64 value=82 time=2
control_change channel=0 control=67 value=25 time=0
control_change channel=0 control=67 value=23 time=15
note_on channel=0 note=69 velocity=55 time=2
note_on channel=0 note=64 velocity=43 time=2
note_on channel=0 note=57 velocity=41 time=4
control_change channel=0 control=64 value=83 time=8
control_change channel=0 control=67 value=21 time=0
control_change channel=0 control=64 value=86 time=14
control_change channel=0 control=67 value=18 time=0
control_change channel=0 control=64 value=90 time=15
control_change channel=0 control=67 value=14 time=0
note_on channel=0 note=64 velocity=0 time=9
control_change channel=0 control=64 value=93 time=7
control_change channel=0 control=67 value=10 time=0
control_change channel=0 control=64 value=97 time=15
control_change channel=0 control=67 value=0 time=0
control_change channel=0 control=64 value=100 time=15
control_change channel=0 control=64 value=102 time=15
control_change channel=0 control=64 value=104 time=15
control_change channel=0 control=64 value=105 time=24
control_change channel=0 control=64 value=106 time=15
note_on channel=0 note=76 velocity=0 time=42
note_on channel=0 note=69 velocity=0 time=4
note_on channel=0 note=57 velocity=0 time=3
control_change channel=0 control=64 value=105 time=28
control_change channel=0 control=64 value=104 time=15
control_change channel=0 control=64 value=101 time=15
control_change channel=0 control=64 value=93 time=15
control_change channel=0 control=64 value=82 time=16
control_change channel=0 control=64 value=68 time=15
note_on channel=0 note=78 velocity=70 time=3
control_change channel=0 control=64 value=26 time=12
note_on channel=0 note=69 velocity=42 time=13
control_change channel=0 control=64 value=0 time=2
note_on channel=0 note=74 velocity=49 time=1
note_on channel=0 note=62 velocity=33 time=5
note_on channel=0 note=66 velocity=37 time=3
control_change channel=0 control=64 value=43 time=6
control_change channel=0 control=64 value=55 time=16
control_change channel=0 control=64 value=62 time=15
control_change channel=0 control=64 value=65 time=15
control_change channel=0 control=64 value=69 time=15
control_change channel=0 control=64 value=73 time=15
control_change channel=0 control=64 value=77 time=15
control_change channel=0 control=64 value=80 time=15
note_on channel=0 note=66 velocity=0 time=9
control_change channel=0 control=64 value=82 time=6
note_on channel=0 note=62 velocity=0 time=11
control_change channel=0 control=64 value=84 time=5
control_change channel=0 control=64 value=88 time=15
control_change channel=0 control=67 value=8 time=0
control_change channel=0 control=64 value=91 time=15
control_change channel=0 control=67 value=9 time=0
control_change channel=0 control=64 value=94 time=15
control_change channel=0 control=67 value=11 time=0
control_change channel=0 control=64 value=95 time=15
control_change channel=0 control=67 value=13 time=0
control_change channel=0 control=64 value=96 time=15
control_change channel=0 control=67 value=15 time=0
control_change channel=0 control=64 value=98 time=16
control_change channel=0 control=67 value=16 time=0
control_change channel=0 control=64 value=99 time=15
control_change channel=0 control=67 value=16 time=0
control_change channel=0 control=64 value=101 time=15
control_change channel=0 control=64 value=102 time=15
control_change channel=0 control=64 value=102 time=15
control_change channel=0 control=64 value=103 time=18
control_change channel=0 control=64 value=104 time=15
control_change channel=0 control=64 value=106 time=16
control_change channel=0 control=67 value=16 time=0
control_change channel=0 control=64 value=107 time=15
control_change channel=0 control=64 value=108 time=15
control_change channel=0 control=67 value=15 time=0
control_change channel=0 control=67 value=15 time=16
control_change channel=0 control=64 value=108 time=14
control_change channel=0 control=67 value=14 time=0
note_on channel=0 note=38 velocity=46 time=2
control_change channel=0 control=64 value=110 time=15
control_change channel=0 control=67 value=14 time=0
control_change channel=0 control=64 value=114 time=14
control_change channel=0 control=64 value=117 time=15
note_on channel=0 note=38 velocity=0 time=15
control_change channel=0 control=64 value=120 time=1
note_on channel=0 note=45 velocity=50 time=2
control_change channel=0 control=64 value=127 time=13
control_change channel=0 control=67 value=13 time=16
note_on channel=0 note=45 velocity=0 time=0
control_change channel=0 control=67 value=14 time=29
control_change channel=0 control=67 value=14 time=38
control_change channel=0 control=67 value=15 time=16
control_change channel=0 control=67 value=15 time=15
control_change channel=0 control=67 value=16 time=14
note_on channel=0 note=78 velocity=0 time=6
note_on channel=0 note=69 velocity=0 time=7
control_change channel=0 control=67 value=16 time=3
note_on channel=0 note=74 velocity=0 time=2
control_change channel=0 control=67 value=17 time=13
control_change channel=0 control=67 value=17 time=15
control_change channel=0 control=67 value=19 time=16
control_change channel=0 control=67 value=21 time=16
control_change channel=0 control=67 value=22 time=16
control_change channel=0 control=67 value=22 time=29
note_on channel=0 note=78 velocity=78 time=3
control_change channel=0 control=67 value=22 time=13
note_on channel=0 note=74 velocity=57 time=6
control_change channel=0 control=67 value=21 time=8
note_on channel=0 note=66 velocity=49 time=15
note_on channel=0 note=69 velocity=20 time=5
note_on channel=0 note=62 velocity=42 time=2
note_on channel=0 note=66 velocity=0 time=53
control_change channel=0 control=67 value=21 time=2
note_on channel=0 note=62 velocity=0 time=1
control_change channel=0 control=67 value=20 time=61
note_on channel=0 note=69 velocity=0 time=86
control_change channel=0 control=67 value=20 time=80
note_on channel=0 note=74 velocity=0 time=8
control_change channel=0 control=67 value=19 time=22
control_change channel=0 control=67 value=19 time=30
note_on channel=0 note=38 velocity=63 time=8
control_change channel=0 control=67 value=18 time=8
note_on channel=0 note=78 velocity=0 time=11
control_change channel=0 control=67 value=17 time=4
control_change channel=0 control=67 value=17 time=14
note_on channel=0 note=38 velocity=0 time=7
control_change channel=0 control=67 value=16 time=8
note_on channel=0 note=45 velocity=57 time=3
control_change channel=0 control=67 value=15 time=12
note_on channel=0 note=45 velocity=0 time=11
control_change channel=0 control=67 value=14 time=5
control_change channel=0 control=67 value=13 time=15
control_change channel=0 control=67 value=13 time=14
control_change channel=0 control=67 value=12 time=16
control_change channel=0 control=67 value=12 time=15
control_change channel=0 control=67 value=11 time=14
control_change channel=0 control=67 value=12 time=70
note_on channel=0 note=78 velocity=71 time=8
control_change channel=0 control=67 value=12 time=7
control_change channel=0 control=67 value=13 time=15
note_on channel=0 note=78 velocity=0 time=3
note_on channel=0 note=79 velocity=70 time=13
control_change channel=0 control=64 value=98 time=30
control_change channel=0 control=64 value=78 time=14
note_on channel=0 note=76 velocity=32 time=7
control_change channel=0 control=64 value=64 time=9
note_on channel=0 note=66 velocity=44 time=8
note_on channel=0 note=78 velocity=71 time=0
note_on channel=0 note=62 velocity=42 time=2
control_change channel=0 control=64 value=65 time=5
control_change channel=0 control=67 value=12 time=0
note_on channel=0 note=74 velocity=54 time=5
note_on channel=0 note=76 velocity=0 time=7
control_change channel=0 control=64 value=66 time=5
control_change channel=0 control=67 value=12 time=0
control_change channel=0 control=64 value=68 time=15
note_on channel=0 note=79 velocity=0 time=6
control_change channel=0 control=64 value=69 time=9
control_change channel=0 control=64 value=73 time=16
control_change channel=0 control=67 value=11 time=0
control_change channel=0 control=64 value=77 time=14
control_change channel=0 control=67 value=11 time=0
note_on channel=0 note=74 velocity=0 time=10
control_change channel=0 control=64 value=81 time=5
control_change channel=0 control=67 value=10 time=0
control_change channel=0 control=64 value=85 time=16
control_change channel=0 control=67 value=9 time=0
note_on channel=0 note=78 velocity=0 time=6
control_change channel=0 control=64 value=88 time=8
control_change channel=0 control=67 value=0 time=0
note_on channel=0 note=66 velocity=0 time=0
note_on channel=0 note=62 velocity=0 time=7
control_change channel=0 control=64 value=91 time=9
control_change channel=0 control=64 value=95 time=15
control_change channel=0 control=64 value=99 time=15
control_change channel=0 control=64 value=103 time=16
control_change channel=0 control=64 value=106 time=14
control_change channel=0 control=64 value=110 time=16
control_change channel=0 control=64 value=115 time=15
control_change channel=0 control=64 value=122 time=14
control_change channel=0 control=64 value=127 time=16
note_on channel=0 note=76 velocity=86 time=51
note_on channel=0 note=61 velocity=49 time=3
control_change channel=0 control=64 value=103 time=6
note_on channel=0 note=64 velocity=52 time=0
note_on channel=0 note=73 velocity=70 time=6
control_change channel=0 control=64 value=89 time=10
control_change channel=0 control=64 value=83 time=15
note_on channel=0 note=73 velocity=0 time=1
control_change channel=0 control=64 value=86 time=14
note_on channel=0 note=64 velocity=0 time=1
note_on channel=0 note=61 velocity=0 time=6
note_on channel=0 note=78 velocity=86 time=2
control_change channel=0 control=64 value=91 time=7
note_on channel=0 note=66 velocity=59 time=3
note_on channel=0 note=62 velocity=56 time=2
note_on channel=0 note=74 velocity=70 time=6
note_on channel=0 note=76 velocity=0 time=2
control_change channel=0 control=64 value=100 time=1
control_change channel=0 control=64 value=118 time=15
note_on channel=0 note=74 velocity=0 time=7
note_on channel=0 note=66 velocity=0 time=5
control_change channel=0 control=64 value=127 time=4
note_on channel=0 note=62 velocity=0 time=8
note_on channel=0 note=78 velocity=0 time=1
note_on channel=0 note=74 velocity=38 time=88
note_on channel=0 note=78 velocity=73 time=1
note_on channel=0 note=74 velocity=0 time=34
note_on channel=0 note=78 velocity=0 time=4
note_on channel=0 note=76 velocity=61 time=9
note_on channel=0 note=79 velocity=68 time=0
control_change channel=0 control=64 value=99 time=23
control_change channel=0 control=64 value=76 time=22
note_on channel=0 note=66 velocity=57 time=5
note_on channel=0 note=62 velocity=56 time=1
note_on channel=0 note=78 velocity=74 time=0
note_on channel=0 note=76 velocity=0 time=4
control_change channel=0 control=64 value=55 time=5
note_on channel=0 note=74 velocity=70 time=2
control_change channel=0 control=64 value=58 time=13
note_on channel=0 note=79 velocity=0 time=9
control_change channel=0 control=64 value=68 time=7
note_on channel=0 note=74 velocity=0 time=12
control_change channel=0 control=64 value=73 time=3
control_change channel=0 control=64 value=79 time=15
control_change channel=0 control=64 value=86 time=15
note_on channel=0 note=78 velocity=0 time=3
control_change channel=0 control=64 value=93 time=12
control_change channel=0 control=64 value=97 time=16
note_on channel=0 note=66 velocity=0 time=7
control_change channel=0 control=64 value=100 time=8
note_on channel=0 note=62 velocity=0 time=1
control_change channel=0 control=64 value=103 time=14
control_change channel=0 control=64 value=106 time=16
control_change channel=0 control=64 value=110 time=15
control_change channel=0 control=64 value=111 time=15
control_change channel=0 control=64 value=112 time=31
control_change channel=0 control=64 value=116 time=16
control_change channel=0 control=64 value=119 time=14
control_change channel=0 control=64 value=119 time=15
control_change channel=0 control=64 value=119 time=16
control_change channel=0 control=64 value=109 time=15
note_on channel=0 note=76 velocity=84 time=3
note_on channel=0 note=61 velocity=52 time=10
control_change channel=0 control=64 value=90 time=3
note_on channel=0 note=73 velocity=72 time=0
note_on channel=0 note=64 velocity=51 time=6
control_change channel=0 control=64 value=73 time=9
control_change channel=0 control=64 value=64 time=14
control_change channel=0 control=64 value=67 time=16
note_on channel=0 note=73 velocity=0 time=5
control_change channel=0 control=64 value=71 time=10
note_on channel=0 note=61 velocity=0 time=7
note_on channel=0 note=78 velocity=89 time=3
note_on channel=0 note=64 velocity=0 time=4
control_change channel=0 control=64 value=76 time=1
note_on channel=0 note=66 velocity=59 time=10
note_on channel=0 note=62 velocity=54 time=1
control_change channel=0 control=64 value=82 time=5
note_on channel=0 note=76 velocity=0 time=6
note_on channel=0 note=74 velocity=59 time=6
control_change channel=0 control=64 value=91 time=2
control_change channel=0 control=64 value=98 time=16
note_on channel=0 note=66 velocity=0 time=13
control_change channel=0 control=64 value=102 time=2
control_change channel=0 control=64 value=103 time=14
control_change channel=0 control=64 value=104 time=16
control_change channel=0 control=64 value=105 time=15
control_change channel=0 control=64 value=105 time=16
note_on channel=0 note=78 velocity=0 time=44
note_on channel=0 note=62 velocity=0 time=17
control_change channel=0 control=64 value=104 time=30
control_change channel=0 control=64 value=97 time=14
control_change channel=0 control=64 value=86 time=16
control_change channel=0 control=64 value=71 time=15
note_on channel=0 note=81 velocity=79 time=2
note_on channel=0 note=74 velocity=0 time=8
note_on channel=0 note=66 velocity=41 time=1
control_change channel=0 control=64 value=33 time=4
note_on channel=0 note=69 velocity=41 time=0
note_on channel=0 note=57 velocity=43 time=2
note_on channel=0 note=78 velocity=59 time=0
control_change channel=0 control=64 value=0 time=14
control_change channel=0 control=64 value=35 time=15
control_change channel=0 control=64 value=57 time=15
control_change channel=0 control=64 value=65 time=15
control_change channel=0 control=64 value=70 time=22
note_on channel=0 note=78 velocity=0 time=10
note_on channel=0 note=78 velocity=18 time=0
control_change channel=0 control=64 value=76 time=6
control_change channel=0 control=64 value=81 time=15
control_change channel=0 control=64 value=87 time=16
control_change channel=0 control=64 value=91 time=14
control_change channel=0 control=64 value=97 time=15
control_change channel=0 control=64 value=103 time=16
note_on channel=0 note=69 velocity=0 time=0
control_change channel=0 control=64 value=108 time=15
note_on channel=0 note=66 velocity=0 time=0
control_change channel=0 control=64 value=114 time=15
note_on channel=0 note=78 velocity=0 time=12
control_change channel=0 control=64 value=127 time=3
note_on channel=0 note=78 velocity=65 time=302
note_on channel=0 note=66 velocity=42 time=19
note_on channel=0 note=62 velocity=38 time=14
note_on channel=0 note=57 velocity=0 time=10
note_on channel=0 note=74 velocity=24 time=7
note_on channel=0 note=81 velocity=0 time=12
note_on channel=0 note=66 velocity=0 time=55
control_change channel=0 control=67 value=8 time=115
control_change channel=0 control=64 value=111 time=16
control_change channel=0 control=67 value=9 time=0
note_on channel=0 note=74 velocity=0 time=7
control_change channel=0 control=64 value=94 time=7
control_change channel=0 control=67 value=9 time=0
note_on channel=0 note=78 velocity=0 time=1
note_on channel=0 note=62 velocity=0 time=5
note_on channel=0 note=76 velocity=54 time=6
control_change channel=0 control=64 value=79 time=3
control_change channel=0 control=67 value=11 time=0
note_on channel=0 note=69 velocity=45 time=7
control_change channel=0 control=64 value=64 time=9
control_change channel=0 control=67 value=14 time=0
note_on channel=0 note=57 velocity=36 time=3
note_on channel=0 note=64 velocity=34 time=11
control_change channel=0 control=64 value=49 time=1
control_change channel=0 control=67 value=18 time=0
control_change channel=0 control=64 value=61 time=15
control_change channel=0 control=67 value=22 time=0
control_change channel=0 control=64 value=65 time=23
control_change channel=0 control=67 value=27 time=0
control_change channel=0 control=64 value=69 time=15
control_change channel=0 control=67 value=33 time=0
control_change channel=0 control=64 value=73 time=16
control_change channel=0 control=67 value=40 time=0
control_change channel=0 control=64 value=77 time=15
control_change channel=0 control=67 value=46 time=0
note_on channel=0 note=64 velocity=0 time=9
control_change channel=0 control=64 value=82 time=7
control_change channel=0 control=67 value=50 time=0
note_on channel=0 note=57 velocity=0 time=13
control_change channel=0 control=64 value=87 time=1
control_change channel=0 control=67 value=52 time=0
control_change channel=0 control=64 value=90 time=15
control_change channel=0 control=67 value=54 time=0
control_change channel=0 control=64 value=93 time=16
control_change channel=0 control=67 value=57 time=0
control_change channel=0 control=64 value=93 time=14
control_change channel=0 control=67 value=59 time=0
control_change channel=0 control=64 value=94 time=15
control_change channel=0 control=64 value=95 time=16
control_change channel=0 control=67 value=60 time=0
control_change channel=0 control=64 value=97 time=15
control_change channel=0 control=64 value=98 time=16
control_change channel=0 control=64 value=99 time=45
control_change channel=0 control=64 value=99 time=15
control_change channel=0 control=64 value=98 time=45
control_change channel=0 control=64 value=93 time=16
control_change channel=0 control=64 value=86 time=16
control_change channel=0 control=67 value=59 time=0
note_on channel=0 note=33 velocity=45 time=6
control_change channel=0 control=64 value=82 time=9
control_change channel=0 control=64 value=84 time=30
control_change channel=0 control=67 value=58 time=0
control_change channel=0 control=64 value=86 time=16
control_change channel=0 control=67 value=58 time=0
note_on channel=0 note=33 velocity=0 time=3
control_change channel=0 control=64 value=88 time=12
control_change channel=0 control=67 value=57 time=0
note_on channel=0 note=45 velocity=50 time=7
control_change channel=0 control=64 value=93 time=8
control_change channel=0 control=67 value=57 time=0
control_change channel=0 control=64 value=98 time=15
note_on channel=0 note=45 velocity=0 time=9
control_change channel=0 control=64 value=103 time=6
control_change channel=0 control=67 value=56 time=0
control_change channel=0 control=64 value=105 time=15
control_change channel=0 control=64 value=106 time=16
control_change channel=0 control=64 value=107 time=15
control_change channel=0 control=67 value=56 time=0
note_on channel=0 note=69 velocity=0 time=192
control_change channel=0 control=67 value=55 time=19
note_on channel=0 note=76 velocity=0 time=12
control_change channel=0 control=67 value=55 time=57
control_change channel=0 control=67 value=54 time=31
control_change channel=0 control=64 value=107 time=31
control_change channel=0 control=64 value=105 time=14
control_change channel=0 control=64 value=104 time=15
control_change channel=0 control=64 value=101 time=16
control_change channel=0 control=64 value=94 time=15
control_change channel=0 control=67 value=55 time=0
control_change channel=0 control=64 value=83 time=16
note_on channel=0 note=76 velocity=52 time=12
control_change channel=0 control=64 value=71 time=2
note_on channel=0 note=69 velocity=31 time=0
note_on channel=0 note=57 velocity=30 time=3
note_on channel=0 note=72 velocity=35 time=2
note_on channel=0 note=60 velocity=27 time=9
note_on channel=0 note=64 velocity=29 time=0
control_change channel=0 control=64 value=43 time=1
control_change channel=0 control=64 value=0 time=16
control_change channel=0 control=67 value=54 time=0
control_change channel=0 control=64 value=28 time=14
control_change channel=0 control=64 value=47 time=15
control_change channel=0 control=64 value=56 time=16
control_change channel=0 control=67 value=54 time=0
control_change channel=0 control=64 value=62 time=15
control_change channel=0 control=67 value=53 time=0
control_change channel=0 control=64 value=65 time=16
control_change channel=0 control=64 value=69 time=14
control_change channel=0 control=67 value=53 time=0
control_change channel=0 control=64 value=73 time=15
control_change channel=0 control=64 value=76 time=16
control_change channel=0 control=67 value=52 time=0
note_on channel=0 note=64 velocity=0 time=8
control_change channel=0 control=64 value=80 time=7
control_change channel=0 control=67 value=52 time=0
note_on channel=0 note=57 velocity=0 time=15
control_change channel=0 control=64 value=83 time=1
control_change channel=0 control=67 value=51 time=0
note_on channel=0 note=60 velocity=0 time=1
control_change channel=0 control=64 value=86 time=13
control_change channel=0 control=67 value=50 time=0
control_change channel=0 control=64 value=90 time=16
control_change channel=0 control=67 value=50 time=0
control_change channel=0 control=64 value=92 time=16
control_change channel=0 control=64 value=95 time=15
control_change channel=0 control=67 value=49 time=0
control_change channel=0 control=64 value=96 time=15
control_change channel=0 control=67 value=48 time=0
control_change channel=0 control=64 value=98 time=15
control_change channel=0 control=67 value=48 time=0
control_change channel=0 control=64 value=100 time=15
control_change channel=0 control=67 value=47 time=0
control_change channel=0 control=64 value=103 time=16
control_change channel=0 control=67 value=46 time=0
control_change channel=0 control=64 value=105 time=15
control_change channel=0 control=67 value=45 time=0
control_change channel=0 control=64 value=106 time=15
control_change channel=0 control=67 value=44 time=0
control_change channel=0 control=64 value=108 time=16
control_change channel=0 control=67 value=44 time=0
control_change channel=0 control=64 value=108 time=14
control_change channel=0 control=67 value=43 time=0
control_change channel=0 control=64 value=109 time=15
control_change channel=0 control=67 value=42 time=0
control_change channel=0 control=64 value=110 time=16
control_change channel=0 control=67 value=41 time=0
control_change channel=0 control=64 value=111 time=15
control_change channel=0 control=67 value=40 time=0
note_on channel=0 note=33 velocity=49 time=8
control_change channel=0 control=64 value=112 time=8
control_change channel=0 control=67 value=40 time=0
control_change channel=0 control=67 value=39 time=15
control_change channel=0 control=64 value=112 time=13
control_change channel=0 control=67 value=39 time=0
control_change channel=0 control=67 value=38 time=15
note_on channel=0 note=33 velocity=0 time=1
note_on channel=0 note=40 velocity=55 time=12
control_change channel=0 control=64 value=113 time=2
control_change channel=0 control=64 value=115 time=15
control_change channel=0 control=67 value=38 time=0
note_on channel=0 note=40 velocity=0 time=13
control_change channel=0 control=64 value=117 time=3
control_change channel=0 control=67 value=37 time=15
control_change channel=0 control=64 value=118 time=14
control_change channel=0 control=67 value=37 time=0
control_change channel=0 control=67 value=36 time=16
control_change channel=0 control=67 value=35 time=15
control_change channel=0 control=64 value=118 time=16
control_change channel=0 control=67 value=34 time=0
control_change channel=0 control=64 value=119 time=22
control_change channel=0 control=67 value=33 time=0
note_on channel=0 note=76 velocity=0 time=7
control_change channel=0 control=67 value=32 time=9
note_on channel=0 note=69 velocity=0 time=3
note_on channel=0 note=72 velocity=0 time=12
control_change channel=0 control=67 value=32 time=15
control_change channel=0 control=64 value=117 time=15
control_change channel=0 control=64 value=108 time=15
control_change channel=0 control=64 value=96 time=15
control_change channel=0 control=64 value=89 time=9
note_on channel=0 note=76 velocity=77 time=3
note_on channel=0 note=69 velocity=51 time=7
note_on channel=0 note=60 velocity=40 time=2
control_change channel=0 control=64 value=88 time=4
note_on channel=0 note=64 velocity=46 time=3
note_on channel=0 note=72 velocity=58 time=0
control_change channel=0 control=64 value=89 time=12
control_change channel=0 control=67 value=31 time=0
note_on channel=0 note=57 velocity=38 time=0
control_change channel=0 control=64 value=89 time=14
control_change channel=0 control=64 value=91 time=16
control_change channel=0 control=67 value=31 time=0
note_on channel=0 note=64 velocity=0 time=7
control_change channel=0 control=64 value=95 time=8
control_change channel=0 control=67 value=30 time=0
control_change channel=0 control=64 value=99 time=14
note_on channel=0 note=60 velocity=0 time=8
control_change channel=0 control=64 value=104 time=8
control_change channel=0 control=67 value=30 time=0
control_change channel=0 control=64 value=108 time=15
control_change channel=0 control=67 value=29 time=0
note_on channel=0 note=57 velocity=0 time=2
control_change channel=0 control=64 value=111 time=14
control_change channel=0 control=67 value=28 time=0
control_change channel=0 control=64 value=115 time=15
control_change channel=0 control=67 value=27 time=0
control_change channel=0 control=64 value=121 time=14
control_change channel=0 control=67 value=27 time=0
control_change channel=0 control=64 value=127 time=16
control_change channel=0 control=67 value=26 time=0
control_change channel=0 control=67 value=25 time=30
control_change channel=0 control=67 value=25 time=16
note_on channel=0 note=76 velocity=0 time=10
control_change channel=0 control=67 value=24 time=4
control_change channel=0 control=67 value=24 time=16
note_on channel=0 note=72 velocity=0 time=3
control_change channel=0 control=67 value=23 time=12
control_change channel=0 control=67 value=23 time=14
control_change channel=0 control=67 value=22 time=16
control_change channel=0 control=67 value=21 time=17
note_on channel=0 note=33 velocity=65 time=5
control_change channel=0 control=67 value=20 time=10
control_change channel=0 control=67 value=19 time=15
control_change channel=0 control=67 value=17 time=15
note_on channel=0 note=33 velocity=0 time=11
control_change channel=0 control=67 value=13 time=5
note_on channel=0 note=40 velocity=66 time=1
control_change channel=0 control=67 value=9 time=13
note_on channel=0 note=40 velocity=0 time=14
control_change channel=0 control=67 value=0 time=1
note_on channel=0 note=69 velocity=0 time=6
note_on channel=0 note=76 velocity=72 time=106
note_on channel=0 note=72 velocity=59 time=8
note_on channel=0 note=76 velocity=0 time=17
note_on channel=0 note=78 velocity=69 time=6
note_on channel=0 note=72 velocity=0 time=10
control_change channel=0 control=64 value=96 time=16
control_change channel=0 control=64 value=75 time=14
control_change channel=0 control=64 value=58 time=15
note_on channel=0 note=76 velocity=88 time=3
note_on channel=0 note=60 velocity=58 time=10
control_change channel=0 control=64 value=60 time=3
note_on channel=0 note=64 velocity=53 time=12
note_on channel=0 note=78 velocity=0 time=1
control_change channel=0 control=64 value=66 time=2
control_change channel=0 control=64 value=71 time=23
control_change channel=0 control=64 value=77 time=14
control_change channel=0 control=64 value=85 time=15
note_on channel=0 note=76 velocity=0 time=1
control_change channel=0 control=64 value=94 time=15
control_change channel=0 control=64 value=100 time=15
note_on channel=0 note=64 velocity=0 time=7
control_change channel=0 control=64 value=103 time=9
note_on channel=0 note=60 velocity=0 time=0
control_change channel=0 control=64 value=105 time=14
control_change channel=0 control=64 value=111 time=15
control_change channel=0 control=64 value=118 time=16
control_change channel=0 control=64 value=127 time=15
note_on channel=0 note=74 velocity=88 time=129
note_on channel=0 note=71 velocity=65 time=6
note_on channel=0 note=62 velocity=54 time=12
note_on channel=0 note=59 velocity=49 time=3
control_change channel=0 control=64 value=108 time=2
note_on channel=0 note=71 velocity=0 time=10
control_change channel=0 control=64 value=84 time=5
note_on channel=0 note=74 velocity=0 time=12
control_change channel=0 control=64 value=68 time=4
control_change channel=0 control=64 value=67 time=15
note_on channel=0 note=76 velocity=87 time=11
control_change channel=0 control=64 value=72 time=3
note_on channel=0 note=59 velocity=0 time=6
note_on channel=0 note=60 velocity=67 time=2
note_on channel=0 note=62 velocity=0 time=1
note_on channel=0 note=72 velocity=74 time=0
note_on channel=0 note=64 velocity=68 time=5
control_change channel=0 control=64 value=78 time=2
control_change channel=0 control=64 value=83 time=15
control_change channel=0 control=64 value=90 time=16
note_on channel=0 note=72 velocity=0 time=2
control_change channel=0 control=64 value=97 time=13
note_on channel=0 note=76 velocity=0 time=3
control_change channel=0 control=64 value=101 time=11
control_change channel=0 control=64 value=104 time=16
note_on channel=0 note=64 velocity=0 time=13
control_change channel=0 control=64 value=106 time=2
note_on channel=0 note=60 velocity=0 time=11
control_change channel=0 control=64 value=107 time=5
control_change channel=0 control=64 value=111 time=16
control_change channel=0 control=64 value=117 time=14
note_on channel=0 note=76 velocity=86 time=2
note_on channel=0 note=72 velocity=66 time=9
control_change channel=0 control=64 value=124 time=5
control_change channel=0 control=64 value=122 time=15
note_on channel=0 note=72 velocity=0 time=5
note_on channel=0 note=78 velocity=80 time=0
control_change channel=0 control=64 value=104 time=10
note_on channel=0 note=76 velocity=0 time=2
control_change channel=0 control=64 value=82 time=14
control_change channel=0 control=64 value=56 time=14
note_on channel=0 note=72 velocity=66 time=14
control_change channel=0 control=64 value=47 time=1
note_on channel=0 note=60 velocity=50 time=3
note_on channel=0 note=76 velocity=74 time=0
note_on channel=0 note=64 velocity=57 time=3
control_change channel=0 control=64 value=64 time=10
control_change channel=0 control=64 value=70 time=15
note_on channel=0 note=78 velocity=0 time=5
note_on channel=0 note=72 velocity=0 time=7
control_change channel=0 control=64 value=78 time=4
control_change channel=0 control=64 value=89 time=14
note_on channel=0 note=76 velocity=0 time=8
control_change channel=0 control=64 value=104 time=7
control_change channel=0 control=64 value=127 time=16
note_on channel=0 note=64 velocity=0 time=13
note_on channel=0 note=60 velocity=0 time=5
note_on channel=0 note=74 velocity=81 time=178
note_on channel=0 note=59 velocity=52 time=5
note_on channel=0 note=62 velocity=52 time=9
note_on channel=0 note=71 velocity=57 time=0
note_on channel=0 note=71 velocity=0 time=20
note_on channel=0 note=74 velocity=0 time=0
control_change channel=0 control=64 value=117 time=5
control_change channel=0 control=64 value=83 time=15
control_change channel=0 control=64 value=67 time=15
note_on channel=0 note=76 velocity=86 time=7
note_on channel=0 note=62 velocity=0 time=4
control_change channel=0 control=64 value=68 time=5
note_on channel=0 note=64 velocity=57 time=3
note_on channel=0 note=72 velocity=69 time=3
note_on channel=0 note=59 velocity=0 time=3
control_change channel=0 control=64 value=74 time=11
note_on channel=0 note=60 velocity=40 time=11
control_change channel=0 control=64 value=81 time=4
control_change channel=0 control=64 value=93 time=15
note_on channel=0 note=64 velocity=0 time=14
control_change channel=0 control=64 value=115 time=2
note_on channel=0 note=60 velocity=0 time=3
control_change channel=0 control=64 value=127 time=12
note_on channel=0 note=76 velocity=0 time=75
control_change channel=0 control=64 value=105 time=91
note_on channel=0 note=79 velocity=79 time=8
note_on channel=0 note=72 velocity=0 time=1
control_change channel=0 control=64 value=80 time=7
note_on channel=0 note=55 velocity=49 time=1
note_on channel=0 note=67 velocity=49 time=6
note_on channel=0 note=76 velocity=58 time=4
control_change channel=0 control=64 value=53 time=3
note_on channel=0 note=64 velocity=38 time=4
control_change channel=0 control=64 value=0 time=11
control_change channel=0 control=64 value=47 time=48
control_change channel=0 control=64 value=59 time=15
control_change channel=0 control=64 value=63 time=15
control_change channel=0 control=64 value=66 time=15
control_change channel=0 control=64 value=70 time=15
control_change channel=0 control=64 value=72 time=16
control_change channel=0 control=64 value=73 time=16
control_change channel=0 control=64 value=74 time=15
note_on channel=0 note=64 velocity=0 time=8
note_on channel=0 note=67 velocity=0 time=6
control_change channel=0 control=64 value=76 time=1
control_change channel=0 control=64 value=78 time=15
control_change channel=0 control=64 value=82 time=15
note_on channel=0 note=76 velocity=0 time=8
control_change channel=0 control=64 value=84 time=8
control_change channel=0 control=64 value=86 time=15
control_change channel=0 control=64 value=87 time=15
control_change channel=0 control=64 value=88 time=15
control_change channel=0 control=64 value=90 time=23
control_change channel=0 control=64 value=92 time=15
control_change channel=0 control=64 value=93 time=15
control_change channel=0 control=64 value=92 time=106
control_change channel=0 control=64 value=89 time=15
control_change channel=0 control=64 value=85 time=16
control_change channel=0 control=64 value=83 time=15
note_on channel=0 note=55 velocity=0 time=35
control_change channel=0 control=64 value=84 time=10
note_on channel=0 note=76 velocity=63 time=6
control_change channel=0 control=64 value=85 time=10
note_on channel=0 note=64 velocity=34 time=6
control_change channel=0 control=64 value=87 time=9
note_on channel=0 note=60 velocity=30 time=7
note_on channel=0 note=79 velocity=0 time=6
control_change channel=0 control=64 value=89 time=2
control_change channel=0 control=64 value=92 time=16
control_change channel=0 control=64 value=93 time=14
control_change channel=0 control=64 value=93 time=16
control_change channel=0 control=64 value=93 time=91
control_change channel=0 control=64 value=92 time=31
control_change channel=0 control=64 value=90 time=15
control_change channel=0 control=64 value=85 time=15
control_change channel=0 control=67 value=8 time=0
control_change channel=0 control=64 value=75 time=15
control_change channel=0 control=67 value=9 time=0
note_on channel=0 note=60 velocity=0 time=6
control_change channel=0 control=64 value=64 time=9
control_change channel=0 control=67 value=9 time=0
note_on channel=0 note=64 velocity=0 time=7
note_on channel=0 note=76 velocity=0 time=1
control_change channel=0 control=64 value=0 time=7
control_change channel=0 control=67 value=10 time=0
note_on channel=0 note=74 velocity=53 time=7
note_on channel=0 note=62 velocity=39 time=3
control_change channel=0 control=64 value=24 time=6
control_change channel=0 control=67 value=12 time=0
note_on channel=0 note=67 velocity=33 time=6
note_on channel=0 note=55 velocity=35 time=5
control_change channel=0 control=64 value=50 time=3
control_change channel=0 control=67 value=15 time=0
control_change channel=0 control=64 value=60 time=16
control_change channel=0 control=67 value=19 time=0
control_change channel=0 control=64 value=64 time=16
control_change channel=0 control=67 value=23 time=0
control_change channel=0 control=64 value=67 time=15
control_change channel=0 control=67 value=26 time=0
control_change channel=0 control=64 value=71 time=16
control_change channel=0 control=67 value=29 time=0
control_change channel=0 control=64 value=74 time=15
control_change channel=0 control=67 value=33 time=0
control_change channel=0 control=64 value=78 time=15
control_change channel=0 control=67 value=37 time=0
note_on channel=0 note=62 velocity=0 time=0
control_change channel=0 control=64 value=81 time=15
control_change channel=0 control=67 value=41 time=0
note_on channel=0 note=55 velocity=0 time=14
control_change channel=0 control=64 value=84 time=1
control_change channel=0 control=67 value=44 time=0
control_change channel=0 control=64 value=86 time=16
control_change channel=0 control=67 value=47 time=0
control_change channel=0 control=64 value=89 time=15
control_change channel=0 control=67 value=50 time=0
control_change channel=0 control=64 value=91 time=15
control_change channel=0 control=67 value=53 time=0
control_change channel=0 control=64 value=94 time=15
control_change channel=0 control=67 value=56 time=0
control_change channel=0 control=64 value=95 time=15
control_change channel=0 control=67 value=57 time=0
control_change channel=0 control=64 value=96 time=23
control_change channel=0 control=67 value=58 time=0
control_change channel=0 control=67 value=59 time=15
control_change channel=0 control=67 value=60 time=14
control_change channel=0 control=67 value=62 time=16
control_change channel=0 control=64 value=96 time=15
control_change channel=0 control=67 value=63 time=0
control_change channel=0 control=64 value=97 time=16
control_change channel=0 control=67 value=64 time=0
control_change channel=0 control=67 value=65 time=15
control_change channel=0 control=64 value=96 time=15
control_change channel=0 control=67 value=66 time=0
control_change channel=0 control=64 value=95 time=16
control_change channel=0 control=67 value=66 time=0
control_change channel=0 control=64 value=91 time=15
control_change channel=0 control=67 value=67 time=0
control_change channel=0 control=64 value=85 time=16
control_change channel=0 control=64 value=81 time=14
note_on channel=0 note=31 velocity=42 time=7
control_change channel=0 control=64 value=81 time=8
control_change channel=0 control=64 value=82 time=16
control_change channel=0 control=64 value=83 time=15
note_on channel=0 note=31 velocity=0 time=6
control_change channel=0 control=64 value=85 time=8
note_on channel=0 note=43 velocity=47 time=15
control_change channel=0 control=64 value=88 time=1
control_change channel=0 control=64 value=93 time=15
control_change channel=0 control=64 value=96 time=16
control_change channel=0 control=64 value=98 time=15
note_on channel=0 note=43 velocity=0 time=1
control_change channel=0 control=64 value=100 time=13
control_change channel=0 control=64 value=101 time=16
note_on channel=0 note=74 velocity=0 time=92
note_on channel=0 note=67 velocity=0 time=38
control_change channel=0 control=67 value=67 time=174
control_change channel=0 control=64 value=101 time=16
control_change channel=0 control=64 value=100 time=14
control_change channel=0 control=64 value=100 time=15
control_change channel=0 control=64 value=98 time=16
control_change channel=0 control=64 value=95 time=15
control_change channel=0 control=64 value=86 time=16
note_on channel=0 note=70 velocity=47 time=8
control_change channel=0 control=64 value=76 time=6
note_on channel=0 note=74 velocity=49 time=7
control_change channel=0 control=64 value=64 time=8
note_on channel=0 note=55 velocity=32 time=12
note_on channel=0 note=67 velocity=32 time=0
note_on channel=0 note=62 velocity=28 time=3
note_on channel=0 note=58 velocity=32 time=3
control_change channel=0 control=64 value=40 time=5
control_change channel=0 control=64 value=47 time=15
control_change channel=0 control=67 value=66 time=0
control_change channel=0 control=64 value=56 time=16
control_change channel=0 control=64 value=61 time=15
control_change channel=0 control=64 value=64 time=14
control_change channel=0 control=64 value=67 time=16
control_change channel=0 control=67 value=66 time=0
control_change channel=0 control=64 value=69 time=15
control_change channel=0 control=64 value=72 time=16
control_change channel=0 control=64 value=75 time=15
control_change channel=0 control=67 value=65 time=0
control_change channel=0 control=64 value=78 time=15
control_change channel=0 control=64 value=82 time=16
control_change channel=0 control=67 value=65 time=0
note_on channel=0 note=62 velocity=0 time=3
control_change channel=0 control=64 value=84 time=11
control_change channel=0 control=67 value=64 time=0
note_on channel=0 note=55 velocity=0 time=1
note_on channel=0 note=58 velocity=0 time=9
control_change channel=0 control=64 value=86 time=5
control_change channel=0 control=64 value=88 time=16
control_change channel=0 control=64 value=91 time=15
control_change channel=0 control=67 value=64 time=0
control_change channel=0 control=64 value=93 time=16
control_change channel=0 control=64 value=96 time=14
control_change channel=0 control=67 value=63 time=0
control_change channel=0 control=64 value=98 time=15
control_change channel=0 control=67 value=62 time=0
control_change channel=0 control=64 value=99 time=16
control_change channel=0 control=67 value=62 time=0
control_change channel=0 control=64 value=99 time=15
control_change channel=0 control=64 value=100 time=15
control_change channel=0 control=67 value=61 time=0
control_change channel=0 control=64 value=101 time=15
control_change channel=0 control=67 value=61 time=0
control_change channel=0 control=67 value=60 time=15
control_change channel=0 control=67 value=60 time=16
control_change channel=0 control=64 value=101 time=15
control_change channel=0 control=64 value=102 time=30
control_change channel=0 control=67 value=59 time=0
note_on channel=0 note=31 velocity=51 time=9
control_change channel=0 control=64 value=102 time=6
control_change channel=0 control=64 value=103 time=15
control_change channel=0 control=67 value=58 time=0
control_change channel=0 control=64 value=105 time=15
control_change channel=0 control=64 value=107 time=15
control_change channel=0 control=67 value=58 time=0
note_on channel=0 note=31 velocity=0 time=3
note_on channel=0 note=38 velocity=59 time=10
control_change channel=0 control=64 value=109 time=3
control_change channel=0 control=64 value=112 time=15
note_on channel=0 note=38 velocity=0 time=9
control_change channel=0 control=64 value=114 time=6
control_change channel=0 control=67 value=57 time=0
control_change channel=0 control=64 value=114 time=16
control_change channel=0 control=64 value=115 time=30
control_change channel=0 control=67 value=57 time=0
control_change channel=0 control=64 value=115 time=15
control_change channel=0 control=67 value=56 time=15
control_change channel=0 control=64 value=116 time=16
note_on channel=0 note=74 velocity=0 time=28
note_on channel=0 note=67 velocity=0 time=5
control_change channel=0 control=64 value=117 time=12
note_on channel=0 note=70 velocity=0 time=10
control_change channel=0 control=64 value=118 time=5
control_change channel=0 control=64 value=118 time=32
control_change channel=0 control=64 value=113 time=12
control_change channel=0 control=67 value=57 time=0
control_change channel=0 control=64 value=102 time=16
note_on channel=0 note=74 velocity=75 time=11
control_change channel=0 control=64 value=88 time=4
note_on channel=0 note=67 velocity=54 time=3
note_on channel=0 note=70 velocity=62 time=4
note_on channel=0 note=55 velocity=48 time=2
note_on channel=0 note=58 velocity=40 time=3
control_change channel=0 control=64 value=80 time=3
control_change channel=0 control=67 value=56 time=0
note_on channel=0 note=62 velocity=35 time=11
control_change channel=0 control=64 value=79 time=12
control_change channel=0 control=64 value=79 time=15
control_change channel=0 control=64 value=81 time=16
note_on channel=0 note=62 velocity=0 time=0
control_change channel=0 control=64 value=83 time=14
control_change channel=0 control=67 value=56 time=0
note_on channel=0 note=58 velocity=0 time=3
control_change channel=0 control=64 value=87 time=12
control_change channel=0 control=64 value=90 time=16
control_change channel=0 control=67 value=55 time=0
note_on channel=0 note=55 velocity=0 time=3
control_change channel=0 control=64 value=93 time=12
control_change channel=0 control=64 value=97 time=16
control_change channel=0 control=67 value=54 time=0
control_change channel=0 control=64 value=100 time=14
control_change channel=0 control=64 value=103 time=15
control_change channel=0 control=67 value=54 time=0
control_change channel=0 control=64 value=106 time=16
control_change channel=0 control=67 value=52 time=0
control_change channel=0 control=64 value=108 time=15
control_change channel=0 control=67 value=51 time=0
control_change channel=0 control=64 value=111 time=15
control_change channel=0 control=67 value=50 time=0
note_on channel=0 note=67 velocity=0 time=10
control_change channel=0 control=64 value=115 time=6
control_change channel=0 control=67 value=48 time=0
control_change channel=0 control=64 value=123 time=15
control_change channel=0 control=67 value=47 time=0
control_change channel=0 control=64 value=127 time=16
control_change channel=0 control=67 value=45 time=0
control_change channel=0 control=67 value=44 time=14
control_change channel=0 control=67 value=42 time=15
note_on channel=0 note=70 velocity=0 time=0
control_change channel=0 control=67 value=41 time=16
note_on channel=0 note=74 velocity=0 time=4
control_change channel=0 control=67 value=40 time=11
note_on channel=0 note=31 velocity=60 time=9
control_change channel=0 control=67 value=38 time=5
control_change channel=0 control=67 value=37 time=16
control_change channel=0 control=67 value=35 time=15
control_change channel=0 control=67 value=32 time=16
note_on channel=0 note=31 velocity=0 time=1
note_on channel=0 note=38 velocity=63 time=3
control_change channel=0 control=67 value=30 time=11
control_change channel=0 control=67 value=27 time=14
note_on channel=0 note=38 velocity=0 time=6
control_change channel=0 control=67 value=24 time=10
control_change channel=0 control=67 value=20 time=15
control_change channel=0 control=67 value=16 time=16
control_change channel=0 control=67 value=13 time=15
control_change channel=0 control=67 value=10 time=14
control_change channel=0 control=67 value=8 time=16
control_change channel=0 control=67 value=0 time=15
note_on channel=0 note=74 velocity=70 time=20
control_change channel=0 control=64 value=112 time=25
note_on channel=0 note=74 velocity=0 time=0
note_on channel=0 note=76 velocity=69 time=9
control_change channel=0 control=64 value=92 time=7
control_change channel=0 control=64 value=75 time=15
control_change channel=0 control=64 value=60 time=14
control_change channel=0 control=64 value=56 time=16
note_on channel=0 note=74 velocity=81 time=9
control_change channel=0 control=64 value=63 time=6
note_on channel=0 note=58 velocity=47 time=2
note_on channel=0 note=62 velocity=52 time=1
note_on channel=0 note=70 velocity=64 time=0
control_change channel=0 control=64 value=65 time=13
note_on channel=0 note=76 velocity=0 time=6
control_change channel=0 control=64 value=68 time=10
control_change channel=0 control=64 value=72 time=14
control_change channel=0 control=64 value=77 time=16
control_change channel=0 control=64 value=83 time=15
note_on channel=0 note=74 velocity=0 time=2
note_on channel=0 note=70 velocity=0 time=1
control_change channel=0 control=64 value=87 time=12
note_on channel=0 note=62 velocity=0 time=1
control_change channel=0 control=64 value=90 time=15
note_on channel=0 note=58 velocity=0 time=0
control_change channel=0 control=64 value=92 time=15
control_change channel=0 control=64 value=95 time=24
control_change channel=0 control=64 value=98 time=15
control_change channel=0 control=64 value=102 time=16
control_change channel=0 control=64 value=106 time=15
control_change channel=0 control=64 value=107 time=14
control_change channel=0 control=64 value=108 time=31
control_change channel=0 control=64 value=111 time=15
control_change channel=0 control=64 value=117 time=16
control_change channel=0 control=64 value=127 time=14
note_on channel=0 note=57 velocity=50 time=37
note_on channel=0 note=73 velocity=75 time=1
note_on channel=0 note=69 velocity=61 time=6
control_change channel=0 control=64 value=114 time=1
note_on channel=0 note=61 velocity=63 time=2
control_change channel=0 control=64 value=99 time=14
note_on channel=0 note=69 velocity=0 time=9
control_change channel=0 control=64 value=85 time=6
note_on channel=0 note=73 velocity=0 time=1
control_change channel=0 control=64 value=79 time=14
note_on channel=0 note=57 velocity=0 time=6
control_change channel=0 control=64 value=81 time=10
note_on channel=0 note=61 velocity=0 time=9
note_on channel=0 note=74 velocity=87 time=2
control_change channel=0 control=64 value=86 time=3
note_on channel=0 note=70 velocity=79 time=0
note_on channel=0 note=58 velocity=60 time=4
note_on channel=0 note=62 velocity=53 time=2
control_change channel=0 control=64 value=93 time=10
control_change channel=0 control=64 value=102 time=15
control_change channel=0 control=64 value=112 time=15
note_on channel=0 note=62 velocity=0 time=0
note_on channel=0 note=70 velocity=0 time=4
note_on channel=0 note=58 velocity=0 time=5
note_on channel=0 note=74 velocity=0 time=1
control_change channel=0 control=64 value=126 time=6
control_change channel=0 control=64 value=127 time=14
note_on channel=0 note=74 velocity=76 time=61
note_on channel=0 note=74 velocity=0 time=23
note_on channel=0 note=70 velocity=36 time=9
note_on channel=0 note=76 velocity=68 time=9
note_on channel=0 note=70 velocity=0 time=20
control_change channel=0 control=64 value=111 time=1
control_change channel=0 control=64 value=85 time=15
note_on channel=0 note=74 velocity=80 time=11
control_change channel=0 control=64 value=66 time=4
note_on channel=0 note=62 velocity=46 time=10
note_on channel=0 note=70 velocity=60 time=3
note_on channel=0 note=58 velocity=49 time=1
control_change channel=0 control=64 value=46 time=1
note_on channel=0 note=76 velocity=0 time=10
control_change channel=0 control=64 value=62 time=6
control_change channel=0 control=64 value=67 time=15
control_change channel=0 control=64 value=71 time=14
control_change channel=0 control=64 value=75 time=16
note_on channel=0 note=70 velocity=0 time=12
control_change channel=0 control=64 value=81 time=3
note_on channel=0 note=74 velocity=0 time=2
control_change channel=0 control=64 value=86 time=13
note_on channel=0 note=62 velocity=0 time=4
note_on channel=0 note=58 velocity=0 time=9
control_change channel=0 control=64 value=89 time=2
control_change channel=0 control=64 value=91 time=15
control_change channel=0 control=64 value=93 time=16
control_change channel=0 control=64 value=97 time=15
control_change channel=0 control=64 value=101 time=14
control_change channel=0 control=64 value=104 time=16
control_change channel=0 control=64 value=106 time=15
control_change channel=0 control=64 value=107 time=16
control_change channel=0 control=64 value=108 time=14
note_on channel=0 note=57 velocity=42 time=88
note_on channel=0 note=73 velocity=82 time=9
control_change channel=0 control=64 value=106 time=3
note_on channel=0 note=61 velocity=53 time=7
control_change channel=0 control=64 value=99 time=9
control_change channel=0 control=64 value=89 time=15
control_change channel=0 control=64 value=74 time=16
control_change channel=0 control=64 value=63 time=15
note_on channel=0 note=73 velocity=0 time=2
control_change channel=0 control=64 value=64 time=12
note_on channel=0 note=61 velocity=0 time=10
note_on channel=0 note=70 velocity=64 time=4
control_change channel=0 control=64 value=67 time=2
note_on channel=0 note=74 velocity=82 time=1
note_on channel=0 note=57 velocity=0 time=5
note_on channel=0 note=62 velocity=49 time=5
control_change channel=0 control=64 value=70 time=4
note_on channel=0 note=58 velocity=48 time=5
note_on channel=0 note=70 velocity=0 time=5
control_change channel=0 control=64 value=73 time=6
control_change channel=0 control=64 value=79 time=15
control_change channel=0 control=64 value=85 time=14
note_on channel=0 note=58 velocity=0 time=3
note_on channel=0 note=62 velocity=0 time=9
control_change channel=0 control=64 value=91 time=4
control_change channel=0 control=64 value=95 time=15
control_change channel=0 control=64 value=98 time=14
control_change channel=0 control=64 value=101 time=16
control_change channel=0 control=64 value=105 time=15
control_change channel=0 control=64 value=109 time=16
control_change channel=0 control=64 value=113 time=15
control_change channel=0 control=64 value=114 time=14
note_on channel=0 note=74 velocity=0 time=27
control_change channel=0 control=64 value=115 time=19
control_change channel=0 control=64 value=114 time=30
control_change channel=0 control=64 value=114 time=62
note_on channel=0 note=81 velocity=69 time=13
control_change channel=0 control=64 value=107 time=2
control_change channel=0 control=64 value=99 time=14
note_on channel=0 note=65 velocity=40 time=7
note_on channel=0 note=69 velocity=40 time=7
note_on channel=0 note=77 velocity=54 time=0
control_change channel=0 control=64 value=88 time=2
note_on channel=0 note=57 velocity=41 time=3
control_change channel=0 control=64 value=74 time=12
control_change channel=0 control=64 value=62 time=16
control_change channel=0 control=64 value=56 time=15
control_change channel=0 control=64 value=63 time=15
control_change channel=0 control=64 value=65 time=15
control_change channel=0 control=64 value=66 time=15
control_change channel=0 control=64 value=68 time=16
control_change channel=0 control=64 value=70 time=15
control_change channel=0 control=64 value=73 time=15
control_change channel=0 control=64 value=76 time=15
control_change channel=0 control=64 value=78 time=15
control_change channel=0 control=64 value=81 time=15
control_change channel=0 control=64 value=83 time=16
control_change channel=0 control=64 value=87 time=15
note_on channel=0 note=69 velocity=0 time=7
control_change channel=0 control=64 value=91 time=8
note_on channel=0 note=77 velocity=0 time=3
control_change channel=0 control=64 value=94 time=12
note_on channel=0 note=65 velocity=0 time=17
control_change channel=0 control=64 value=98 time=7
control_change channel=0 control=64 value=102 time=14
control_change channel=0 control=64 value=107 time=15
control_change channel=0 control=64 value=111 time=16
control_change channel=0 control=64 value=116 time=15
control_change channel=0 control=64 value=124 time=15
control_change channel=0 control=64 value=127 time=16
note_on channel=0 note=57 velocity=0 time=100
note_on channel=0 note=77 velocity=62 time=24
note_on channel=0 note=65 velocity=38 time=10
note_on channel=0 note=62 velocity=37 time=8
note_on channel=0 note=81 velocity=0 time=20
control_change channel=0 control=64 value=118 time=141
control_change channel=0 control=64 value=103 time=16
control_change channel=0 control=64 value=88 time=15
note_on channel=0 note=77 velocity=0 time=15
control_change channel=0 control=64 value=73 time=1
note_on channel=0 note=62 velocity=0 time=0
note_on channel=0 note=65 velocity=0 time=10
control_change channel=0 control=64 value=53 time=4
note_on channel=0 note=76 velocity=55 time=9
control_change channel=0 control=64 value=37 time=6
note_on channel=0 note=64 velocity=38 time=7
note_on channel=0 note=69 velocity=34 time=6
note_on channel=0 note=57 velocity=33 time=2
control_change channel=0 control=64 value=58 time=1
control_change channel=0 control=64 value=64 time=15
control_change channel=0 control=64 value=66 time=15
control_change channel=0 control=64 value=70 time=15
control_change channel=0 control=64 value=75 time=15
note_on channel=0 note=64 velocity=0 time=5
control_change channel=0 control=64 value=81 time=11
control_change channel=0 control=64 value=89 time=15
note_on channel=0 note=57 velocity=0 time=11
control_change channel=0 control=64 value=95 time=4
control_change channel=0 control=64 value=101 time=16
control_change channel=0 control=64 value=109 time=14
control_change channel=0 control=64 value=126 time=15
control_change channel=0 control=64 value=127 time=15
note_on channel=0 note=76 velocity=0 time=53
note_on channel=0 note=33 velocity=56 time=102
note_on channel=0 note=33 velocity=0 time=40
note_on channel=0 note=45 velocity=63 time=9
note_on channel=0 note=45 velocity=0 time=28
note_on channel=0 note=69 velocity=0 time=66
control_change channel=0 control=64 value=91 time=166
note_on channel=0 note=81 velocity=87 time=7
control_change channel=0 control=64 value=68 time=11
note_on channel=0 note=77 velocity=70 time=7
note_on channel=0 note=69 velocity=55 time=1
note_on channel=0 note=65 velocity=52 time=2
control_change channel=0 control=64 value=55 time=8
note_on channel=0 note=57 velocity=44 time=6
control_change channel=0 control=64 value=65 time=8
control_change channel=0 control=64 value=70 time=15
control_change channel=0 control=64 value=76 time=16
control_change channel=0 control=64 value=84 time=15
control_change channel=0 control=64 value=96 time=16
control_change channel=0 control=64 value=107 time=14
control_change channel=0 control=64 value=122 time=15
control_change channel=0 control=64 value=127 time=16
note_on channel=0 note=69 velocity=0 time=55
note_on channel=0 note=65 velocity=0 time=19
note_on channel=0 note=77 velocity=0 time=15
note_on channel=0 note=57 velocity=0 time=213
note_on channel=0 note=77 velocity=88 time=13
note_on channel=0 note=62 velocity=56 time=4
note_on channel=0 note=65 velocity=57 time=5
note_on channel=0 note=74 velocity=52 time=17
note_on channel=0 note=81 velocity=0 time=14
note_on channel=0 note=74 velocity=0 time=20
control_change channel=0 control=64 value=85 time=135
control_change channel=0 control=64 value=51 time=16
control_change channel=0 control=64 value=0 time=14
control_change channel=0 control=64 value=43 time=16
note_on channel=0 note=76 velocity=88 time=3
note_on channel=0 note=62 velocity=0 time=2
note_on channel=0 note=64 velocity=69 time=1
note_on channel=0 note=65 velocity=0 time=0
control_change channel=0 control=64 value=62 time=9
note_on channel=0 note=69 velocity=63 time=0
note_on channel=0 note=57 velocity=64 time=9
note_on channel=0 note=77 velocity=0 time=2
control_change channel=0 control=64 value=69 time=4
control_change channel=0 control=64 value=78 time=16
note_on channel=0 note=64 velocity=0 time=14
control_change channel=0 control=64 value=88 time=1
control_change channel=0 control=64 value=101 time=16
note_on channel=0 note=57 velocity=0 time=4
control_change channel=0 control=64 value=116 time=11
control_change channel=0 control=64 value=127 time=14
note_on channel=0 note=69 velocity=0 time=66
note_on channel=0 note=76 velocity=0 time=45
note_on channel=0 note=33 velocity=77 time=134
note_on channel=0 note=45 velocity=86 time=48
note_on channel=0 note=33 velocity=0 time=6
note_on channel=0 note=43 velocity=40 time=14
note_on channel=0 note=45 velocity=0 time=4
note_on channel=0 note=43 velocity=0 time=31
control_change channel=0 control=64 value=119 time=175
control_change channel=0 control=64 value=87 time=16
control_change channel=0 control=64 value=72 time=15
note_on channel=0 note=89 velocity=100 time=2
note_on channel=0 note=77 velocity=85 time=5
note_on channel=0 note=57 velocity=64 time=4
note_on channel=0 note=62 velocity=67 time=1
note_on channel=0 note=65 velocity=77 time=0
note_on channel=0 note=86 velocity=71 time=0
control_change channel=0 control=64 value=71 time=3
control_change channel=0 control=64 value=77 time=16
note_on channel=0 note=86 velocity=0 time=11
control_change channel=0 control=64 value=84 time=4
control_change channel=0 control=64 value=93 time=16
control_change channel=0 control=64 value=104 time=15
note_on channel=0 note=77 velocity=0 time=4
control_change channel=0 control=64 value=118 time=11
control_change channel=0 control=64 value=127 time=15
note_on channel=0 note=89 velocity=0 time=9
note_on channel=0 note=65 velocity=0 time=17
note_on channel=0 note=62 velocity=0 time=34
note_on channel=0 note=69 velocity=78 time=224
note_on channel=0 note=93 velocity=106 time=0
note_on channel=0 note=81 velocity=90 time=4
note_on channel=0 note=65 velocity=66 time=8
note_on channel=0 note=69 velocity=0 time=15
note_on channel=0 note=81 velocity=0 time=3
note_on channel=0 note=93 velocity=0 time=12
note_on channel=0 note=65 velocity=0 time=1
note_on channel=0 note=89 velocity=106 time=51
note_on channel=0 note=77 velocity=97 time=7
note_on channel=0 note=86 velocity=78 time=7
note_on channel=0 note=62 velocity=76 time=6
note_on channel=0 note=65 velocity=79 time=5
note_on channel=0 note=57 velocity=0 time=75
note_on channel=0 note=65 velocity=0 time=48
note_on channel=0 note=77 velocity=0 time=8
note_on channel=0 note=62 velocity=0 time=9
note_on channel=0 note=89 velocity=0 time=13
note_on channel=0 note=86 velocity=0 time=3
control_change channel=0 control=64 value=95 time=56
note_on channel=0 note=89 velocity=100 time=15
control_change channel=0 control=64 value=74 time=1
note_on channel=0 note=77 velocity=96 time=0
note_on channel=0 note=62 velocity=73 time=3
note_on channel=0 note=65 velocity=79 time=0
note_on channel=0 note=57 velocity=65 time=5
note_on channel=0 note=86 velocity=72 time=5
control_change channel=0 control=64 value=73 time=2
control_change channel=0 control=64 value=80 time=15
note_on channel=0 note=86 velocity=0 time=4
control_change channel=0 control=64 value=88 time=11
note_on channel=0 note=77 velocity=0 time=6
control_change channel=0 control=64 value=101 time=9
note_on channel=0 note=89 velocity=0 time=13
control_change channel=0 control=64 value=127 time=2
note_on channel=0 note=65 velocity=0 time=24
note_on channel=0 note=62 velocity=0 time=32
note_on channel=0 note=69 velocity=71 time=177
note_on channel=0 note=93 velocity=100 time=7
note_on channel=0 note=81 velocity=91 time=1
note_on channel=0 note=65 velocity=68 time=3
note_on channel=0 note=69 velocity=0 time=22
note_on channel=0 note=81 velocity=0 time=5
note_on channel=0 note=93 velocity=0 time=16
note_on channel=0 note=65 velocity=0 time=21
note_on channel=0 note=89 velocity=95 time=28
note_on channel=0 note=77 velocity=93 time=6
note_on channel=0 note=62 velocity=74 time=8
note_on channel=0 note=65 velocity=70 time=4
note_on channel=0 note=57 velocity=0 time=4
note_on channel=0 note=89 velocity=0 time=57
note_on channel=0 note=77 velocity=0 time=100
control_change channel=0 control=64 value=106 time=44
control_change channel=0 control=64 value=72 time=15
control_change channel=0 control=64 value=0 time=15
note_on channel=0 note=62 velocity=0 time=12
note_on channel=0 note=88 velocity=99 time=0
note_on channel=0 note=81 velocity=86 time=1
note_on channel=0 note=76 velocity=93 time=2
note_on channel=0 note=64 velocity=80 time=1
note_on channel=0 note=85 velocity=86 time=0
note_on channel=0 note=65 velocity=0 time=2
note_on channel=0 note=57 velocity=70 time=6
control_change channel=0 control=64 value=49 time=37
control_change channel=0 control=64 value=67 time=16
note_on channel=0 note=64 velocity=0 time=9
control_change channel=0 control=64 value=76 time=7
note_on channel=0 note=57 velocity=0 time=14
control_change channel=0 control=64 value=86 time=1
control_change channel=0 control=64 value=96 time=16
control_change channel=0 control=64 value=103 time=15
control_change channel=0 control=64 value=109 time=14
control_change channel=0 control=64 value=115 time=16
control_change channel=0 control=64 value=127 time=15
note_on channel=0 note=33 velocity=74 time=179
note_on channel=0 note=33 velocity=0 time=38
note_on channel=0 note=45 velocity=77 time=1
note_on channel=0 note=45 velocity=0 time=30
note_on channel=0 note=88 velocity=0 time=161
note_on channel=0 note=76 velocity=0 time=6
note_on channel=0 note=81 velocity=0 time=12
note_on channel=0 note=85 velocity=0 time=2
control_change channel=0 control=64 value=110 time=29
control_change channel=0 control=64 value=88 time=15
note_on channel=0 note=64 velocity=79 time=6
note_on channel=0 note=88 velocity=100 time=3
note_on channel=0 note=57 velocity=73 time=2
note_on channel=0 note=85 velocity=78 time=1
note_on channel=0 note=76 velocity=85 time=1
note_on channel=0 note=81 velocity=68 time=0
control_change channel=0 control=64 value=79 time=2
control_change channel=0 control=64 value=81 time=16
note_on channel=0 note=64 velocity=0 time=2
note_on channel=0 note=57 velocity=0 time=8
control_change channel=0 control=64 value=87 time=5
control_change channel=0 control=64 value=94 time=22
control_change channel=0 control=64 value=102 time=15
control_change channel=0 control=64 value=113 time=15
control_change channel=0 control=64 value=127 time=16
control_change channel=0 control=64 value=122 time=258
control_change channel=0 control=64 value=98 time=15
control_change channel=0 control=64 value=80 time=15
control_change channel=0 control=64 value=72 time=15
note_on channel=0 note=33 velocity=68 time=4
control_change channel=0 control=64 value=75 time=13
control_change channel=0 control=64 value=81 time=15
note_on channel=0 note=45 velocity=77 time=8
control_change channel=0 control=64 value=86 time=8
note_on channel=0 note=33 velocity=0 time=3
control_change channel=0 control=64 value=92 time=12
note_on channel=0 note=45 velocity=0 time=13
control_change channel=0 control=64 value=100 time=1
control_change channel=0 control=64 value=109 time=16
control_change channel=0 control=64 value=121 time=15
control_change channel=0 control=64 value=127 time=15
note_on channel=0 note=88 velocity=0 time=96
note_on channel=0 note=76 velocity=0 time=4
note_on channel=0 note=81 velocity=0 time=29
note_on channel=0 note=85 velocity=0 time=6
control_change channel=0 control=64 value=126 time=32
control_change channel=0 control=64 value=102 time=15
control_change channel=0 control=64 value=84 time=15
note_on channel=0 note=88 velocity=87 time=8
note_on channel=0 note=76 velocity=75 time=7
control_change channel=0 control=64 value=72 time=1
note_on channel=0 note=85 velocity=73 time=3
note_on channel=0 note=64 velocity=72 time=4
note_on channel=0 note=81 velocity=66 time=2
note_on channel=0 note=57 velocity=65 time=2
control_change channel=0 control=64 value=71 time=4
control_change channel=0 control=64 value=77 time=14
control_change channel=0 control=64 value=82 time=16
note_on channel=0 note=64 velocity=0 time=8
control_change channel=0 control=64 value=88 time=7
note_on channel=0 note=57 velocity=0 time=12
control_change channel=0 control=64 value=93 time=11
control_change channel=0 control=64 value=100 time=15
control_change channel=0 control=64 value=106 time=16
control_change channel=0 control=64 value=108 time=15
control_change channel=0 control=64 value=108 time=45
control_change channel=0 control=64 value=109 time=15
control_change channel=0 control=64 value=110 time=16
control_change channel=0 control=64 value=110 time=15
control_change channel=0 control=64 value=110 time=61
control_change channel=0 control=64 value=108 time=106
control_change channel=0 control=64 value=104 time=16
control_change channel=0 control=64 value=97 time=15
control_change channel=0 control=64 value=88 time=15
note_on channel=0 note=33 velocity=60 time=10
control_change channel=0 control=64 value=74 time=5
control_change channel=0 control=64 value=65 time=15
control_change channel=0 control=64 value=66 time=15
note_on channel=0 note=45 velocity=69 time=10
control_change channel=0 control=64 value=69 time=5
control_change channel=0 control=67 value=8 time=0
control_change channel=0 control=64 value=71 time=16
control_change channel=0 control=67 value=8 time=0
control_change channel=0 control=64 value=73 time=16
control_change channel=0 control=67 value=9 time=0
control_change channel=0 control=64 value=75 time=15
control_change channel=0 control=67 value=9 time=0
control_change channel=0 control=64 value=79 time=16
control_change channel=0 control=67 value=10 time=0
control_change channel=0 control=64 value=82 time=15
note_on channel=0 note=45 velocity=0 time=3
control_change channel=0 control=64 value=85 time=11
note_on channel=0 note=33 velocity=0 time=4
control_change channel=0 control=64 value=87 time=12
control_change channel=0 control=67 value=11 time=0
control_change channel=0 control=64 value=89 time=15
control_change channel=0 control=64 value=91 time=16
control_change channel=0 control=67 value=11 time=0
control_change channel=0 control=64 value=94 time=15
control_change channel=0 control=67 value=12 time=0
control_change channel=0 control=64 value=97 time=14
control_change channel=0 control=67 value=13 time=0
control_change channel=0 control=64 value=98 time=16
control_change channel=0 control=67 value=15 time=0
control_change channel=0 control=64 value=99 time=15
control_change channel=0 control=67 value=16 time=0
control_change channel=0 control=64 value=99 time=14
control_change channel=0 control=67 value=17 time=0
control_change channel=0 control=64 value=101 time=16
control_change channel=0 control=67 value=18 time=0
control_change channel=0 control=64 value=103 time=15
control_change channel=0 control=67 value=20 time=0
control_change channel=0 control=64 value=104 time=16
control_change channel=0 control=67 value=22 time=0
control_change channel=0 control=67 value=24 time=15
control_change channel=0 control=67 value=26 time=14
control_change channel=0 control=67 value=27 time=16
control_change channel=0 control=67 value=28 time=15
control_change channel=0 control=67 value=29 time=24
control_change channel=0 control=67 value=30 time=15
control_change channel=0 control=67 value=31 time=14
control_change channel=0 control=67 value=32 time=16
control_change channel=0 control=67 value=33 time=15
control_change channel=0 control=67 value=35 time=16
control_change channel=0 control=67 value=36 time=14
control_change channel=0 control=67 value=37 time=15
control_change channel=0 control=67 value=37 time=16
control_change channel=0 control=67 value=38 time=15
control_change channel=0 control=67 value=39 time=15
control_change channel=0 control=67 value=40 time=15
control_change channel=0 control=67 value=41 time=15
control_change channel=0 control=67 value=42 time=16
control_change channel=0 control=67 value=43 time=14
note_on channel=0 note=76 velocity=0 time=10
control_change channel=0 control=67 value=44 time=5
control_change channel=0 control=67 value=44 time=16
control_change channel=0 control=67 value=45 time=15
control_change channel=0 control=67 value=46 time=15
control_change channel=0 control=67 value=47 time=16
control_change channel=0 control=67 value=48 time=15
control_change channel=0 control=67 value=48 time=15
control_change channel=0 control=64 value=104 time=15
control_change channel=0 control=67 value=49 time=0
control_change channel=0 control=67 value=50 time=13
control_change channel=0 control=64 value=103 time=16
control_change channel=0 control=67 value=52 time=0
note_on channel=0 note=81 velocity=0 time=12
control_change channel=0 control=64 value=103 time=3
control_change channel=0 control=67 value=53 time=0
control_change channel=0 control=64 value=102 time=15
control_change channel=0 control=67 value=54 time=0
control_change channel=0 control=64 value=100 time=15
control_change channel=0 control=67 value=55 time=0
control_change channel=0 control=64 value=98 time=15
control_change channel=0 control=67 value=57 time=0
control_change channel=0 control=64 value=93 time=15
control_change channel=0 control=67 value=58 time=0
note_on channel=0 note=33 velocity=48 time=1
control_change channel=0 control=64 value=86 time=15
control_change channel=0 control=67 value=60 time=0
control_change channel=0 control=64 value=76 time=15
control_change channel=0 control=67 value=63 time=0
control_change channel=0 control=64 value=66 time=16
control_change channel=0 control=67 value=65 time=0
control_change channel=0 control=64 value=61 time=11
control_change channel=0 control=67 value=67 time=0
note_on channel=0 note=45 velocity=52 time=1
control_change channel=0 control=64 value=63 time=14
control_change channel=0 control=67 value=69 time=0
control_change channel=0 control=64 value=64 time=15
control_change channel=0 control=67 value=71 time=0
control_change channel=0 control=64 value=64 time=16
control_change channel=0 control=67 value=74 time=0
control_change channel=0 control=64 value=65 time=15
control_change channel=0 control=67 value=76 time=0
control_change channel=0 control=64 value=66 time=15
control_change channel=0 control=67 value=78 time=0
control_change channel=0 control=64 value=69 time=15
control_change channel=0 control=67 value=80 time=0
control_change channel=0 control=64 value=71 time=15
control_change channel=0 control=67 value=82 time=0
note_on channel=0 note=85 velocity=0 time=0
control_change channel=0 control=64 value=74 time=16
control_change channel=0 control=67 value=84 time=0
control_change channel=0 control=64 value=76 time=14
control_change channel=0 control=67 value=86 time=0
control_change channel=0 control=64 value=78 time=15
control_change channel=0 control=67 value=88 time=0
control_change channel=0 control=64 value=80 time=16
control_change channel=0 control=67 value=90 time=0
control_change channel=0 control=64 value=83 time=15
control_change channel=0 control=67 value=92 time=0
note_on channel=0 note=45 velocity=0 time=4
control_change channel=0 control=64 value=85 time=11
control_change channel=0 control=67 value=93 time=0
control_change channel=0 control=64 value=88 time=15
control_change channel=0 control=67 value=94 time=0
control_change channel=0 control=64 value=89 time=15
control_change channel=0 control=67 value=96 time=0
note_on channel=0 note=88 velocity=0 time=8
note_on channel=0 note=33 velocity=0 time=1
control_change channel=0 control=64 value=91 time=7
control_change channel=0 control=67 value=96 time=0
control_change channel=0 control=64 value=93 time=15
control_change channel=0 control=67 value=97 time=0
control_change channel=0 control=64 value=95 time=24
control_change channel=0 control=67 value=97 time=0
control_change channel=0 control=64 value=96 time=14
control_change channel=0 control=67 value=98 time=0
control_change channel=0 control=67 value=98 time=15
control_change channel=0 control=67 value=99 time=16
control_change channel=0 control=64 value=96 time=15
control_change channel=0 control=64 value=97 time=14
control_change channel=0 control=64 value=96 time=441
control_change channel=0 control=64 value=96 time=93
control_change channel=0 control=64 value=95 time=30
control_change channel=0 control=64 value=95 time=45
control_change channel=0 control=64 value=94 time=60
control_change channel=0 control=64 value=94 time=53
control_change channel=0 control=67 value=98 time=31
control_change channel=0 control=64 value=93 time=16
control_change channel=0 control=64 value=93 time=29
control_change channel=0 control=64 value=92 time=31
control_change channel=0 control=64 value=92 time=15
control_change channel=0 control=67 value=98 time=15
control_change channel=0 control=64 value=91 time=15
control_change channel=0 control=64 value=91 time=31
control_change channel=0 control=64 value=90 time=14
control_change channel=0 control=64 value=89 time=16
control_change channel=0 control=64 value=88 time=15
control_change channel=0 control=67 value=97 time=0
control_change channel=0 control=64 value=88 time=16
control_change channel=0 control=64 value=87 time=15
control_change channel=0 control=64 value=87 time=14
control_change channel=0 control=64 value=84 time=16
note_on channel=0 note=33 velocity=31 time=0
control_change channel=0 control=64 value=80 time=15
control_change channel=0 control=64 value=72 time=15
control_change channel=0 control=64 value=63 time=15
control_change channel=0 control=64 value=39 time=15
control_change channel=0 control=64 value=35 time=16
control_change channel=0 control=64 value=46 time=15
note_on channel=0 note=45 velocity=37 time=0
control_change channel=0 control=64 value=53 time=15
control_change channel=0 control=64 value=57 time=16
control_change channel=0 control=67 value=97 time=0
control_change channel=0 control=64 value=61 time=15
control_change channel=0 control=64 value=63 time=14
control_change channel=0 control=64 value=65 time=16
control_change channel=0 control=64 value=66 time=15
control_change channel=0 control=67 value=96 time=0
control_change channel=0 control=64 value=68 time=16
note_on channel=0 note=33 velocity=0 time=5
control_change channel=0 control=64 value=70 time=10
control_change channel=0 control=67 value=96 time=0
control_change channel=0 control=64 value=72 time=15
control_change channel=0 control=64 value=73 time=15
control_change channel=0 control=64 value=75 time=16
control_change channel=0 control=64 value=77 time=16
control_change channel=0 control=67 value=95 time=0
control_change channel=0 control=64 value=79 time=15
control_change channel=0 control=67 value=95 time=0
control_change channel=0 control=64 value=81 time=15
note_on channel=0 note=45 velocity=0 time=13
control_change channel=0 control=64 value=82 time=3
control_change channel=0 control=67 value=94 time=0
control_change channel=0 control=64 value=84 time=15
control_change channel=0 control=64 value=85 time=15
control_change channel=0 control=67 value=94 time=0
control_change channel=0 control=64 value=87 time=15
control_change channel=0 control=67 value=93 time=0
control_change channel=0 control=64 value=88 time=15
control_change channel=0 control=64 value=89 time=16
control_change channel=0 control=67 value=93 time=0
control_change channel=0 control=64 value=89 time=15
control_change channel=0 control=64 value=90 time=15
control_change channel=0 control=64 value=91 time=23
control_change channel=0 control=67 value=92 time=0
control_change channel=0 control=64 value=92 time=14
control_change channel=0 control=67 value=92 time=0
control_change channel=0 control=67 value=91 time=16
control_change channel=0 control=67 value=90 time=15
control_change channel=0 control=67 value=90 time=15
control_change channel=0 control=67 value=89 time=16
control_change channel=0 control=67 value=89 time=30
control_change channel=0 control=67 value=88 time=15
control_change channel=0 control=67 value=88 time=15
control_change channel=0 control=67 value=87 time=16
control_change channel=0 control=67 value=86 time=15
control_change channel=0 control=67 value=85 time=31
control_change channel=0 control=67 value=85 time=15
control_change channel=0 control=67 value=84 time=15
control_change channel=0 control=67 value=84 time=15
control_change channel=0 control=67 value=83 time=15
control_change channel=0 control=67 value=82 time=16
control_change channel=0 control=67 value=82 time=15
control_change channel=0 control=67 value=81 time=15
control_change channel=0 control=67 value=80 time=15
control_change channel=0 control=64 value=91 time=15
control_change channel=0 control=67 value=79 time=0
control_change channel=0 control=64 value=91 time=15
control_change channel=0 control=67 value=79 time=0
control_change channel=0 control=64 value=90 time=30
control_change channel=0 control=67 value=78 time=0
control_change channel=0 control=64 value=89 time=31
control_change channel=0 control=64 value=87 time=15
control_change channel=0 control=64 value=83 time=15
control_change channel=0 control=64 value=78 time=15
control_change channel=0 control=64 value=70 time=16
control_change channel=0 control=64 value=66 time=15
note_on channel=0 note=69 velocity=38 time=1
control_change channel=0 control=64 value=67 time=13
note_on channel=0 note=57 velocity=34 time=4
control_change channel=0 control=64 value=68 time=12
control_change channel=0 control=64 value=68 time=15
control_change channel=0 control=64 value=69 time=15
control_change channel=0 control=64 value=70 time=15
control_change channel=0 control=64 value=71 time=15
control_change channel=0 control=64 value=74 time=16
control_change channel=0 control=67 value=78 time=0
note_on channel=0 note=57 velocity=0 time=7
control_change channel=0 control=64 value=76 time=8
note_on channel=0 note=69 velocity=0 time=5
control_change channel=0 control=64 value=77 time=12
control_change channel=0 control=64 value=78 time=15
control_change channel=0 control=64 value=81 time=14
control_change channel=0 control=67 value=77 time=0
control_change channel=0 control=64 value=84 time=16
control_change channel=0 control=64 value=87 time=15
control_change channel=0 control=64 value=88 time=15
control_change channel=0 control=64 value=89 time=16
control_change channel=0 control=64 value=88 time=14
control_change channel=0 control=67 value=77 time=0
control_change channel=0 control=64 value=86 time=16
control_change channel=0 control=67 value=76 time=0
control_change channel=0 control=64 value=84 time=23
control_change channel=0 control=67 value=76 time=0
note_on channel=0 note=74 velocity=65 time=7
control_change channel=0 control=64 value=84 time=8
control_change channel=0 control=67 value=74 time=0
note_on channel=0 note=66 velocity=43 time=10
note_on channel=0 note=54 velocity=43 time=3
note_on channel=0 note=62 velocity=46 time=1
control_change channel=0 control=67 value=73 time=1
control_change channel=0 control=64 value=84 time=15
control_change channel=0 control=67 value=73 time=0
control_change channel=0 control=64 value=85 time=16
control_change channel=0 control=67 value=72 time=0
control_change channel=0 control=64 value=87 time=15
control_change channel=0 control=67 value=71 time=0
note_on channel=0 note=66 velocity=0 time=6
control_change channel=0 control=64 value=89 time=8
control_change channel=0 control=67 value=70 time=0
control_change channel=0 control=64 value=92 time=16
control_change channel=0 control=67 value=68 time=0
control_change channel=0 control=64 value=94 time=15
control_change channel=0 control=67 value=66 time=0
control_change channel=0 control=64 value=95 time=16
control_change channel=0 control=67 value=64 time=0
note_on channel=0 note=54 velocity=0 time=8
control_change channel=0 control=64 value=96 time=7
control_change channel=0 control=67 value=61 time=0
note_on channel=0 note=74 velocity=0 time=1
control_change channel=0 control=67 value=59 time=13
control_change channel=0 control=67 value=58 time=16
control_change channel=0 control=64 value=94 time=15
control_change channel=0 control=67 value=56 time=0
note_on channel=0 note=62 velocity=0 time=5
control_change channel=0 control=64 value=90 time=10
control_change channel=0 control=67 value=54 time=0
control_change channel=0 control=64 value=83 time=16
control_change channel=0 control=67 value=53 time=0
control_change channel=0 control=64 value=76 time=15
control_change channel=0 control=67 value=52 time=0
control_change channel=0 control=64 value=75 time=16
control_change channel=0 control=67 value=51 time=0
note_on channel=0 note=78 velocity=74 time=8
control_change channel=0 control=64 value=76 time=6
control_change channel=0 control=67 value=50 time=0
control_change channel=0 control=64 value=78 time=15
control_change channel=0 control=67 value=48 time=0
note_on channel=0 note=66 velocity=38 time=1
note_on channel=0 note=69 velocity=50 time=2
note_on channel=0 note=57 velocity=42 time=4
control_change channel=0 control=64 value=80 time=9
control_change channel=0 control=67 value=47 time=0
control_change channel=0 control=64 value=83 time=15
control_change channel=0 control=67 value=46 time=0
control_change channel=0 control=64 value=88 time=16
control_change channel=0 control=67 value=45 time=0
control_change channel=0 control=64 value=92 time=15
control_change channel=0 control=67 value=44 time=0
control_change channel=0 control=64 value=95 time=15
control_change channel=0 control=67 value=44 time=0
control_change channel=0 control=64 value=97 time=15
control_change channel=0 control=67 value=43 time=0
control_change channel=0 control=64 value=98 time=15
control_change channel=0 control=67 value=42 time=0
control_change channel=0 control=64 value=100 time=15
control_change channel=0 control=67 value=41 time=0
note_on channel=0 note=66 velocity=0 time=3
control_change channel=0 control=64 value=101 time=12
control_change channel=0 control=67 value=40 time=0
note_on channel=0 note=78 velocity=0 time=5
control_change channel=0 control=67 value=39 time=10
note_on channel=0 note=69 velocity=0 time=11
control_change channel=0 control=64 value=102 time=5
control_change channel=0 control=67 value=38 time=0
control_change channel=0 control=67 value=37 time=15
control_change channel=0 control=67 value=36 time=15
control_change channel=0 control=67 value=36 time=30
control_change channel=0 control=64 value=101 time=15
control_change channel=0 control=64 value=101 time=31
control_change channel=0 control=64 value=100 time=15
control_change channel=0 control=64 value=99 time=15
control_change channel=0 control=64 value=97 time=15
control_change channel=0 control=64 value=93 time=15
control_change channel=0 control=64 value=87 time=15
note_on channel=0 note=57 velocity=0 time=12
control_change channel=0 control=64 value=79 time=3
control_change channel=0 control=64 value=68 time=17
note_on channel=0 note=78 velocity=56 time=2
control_change channel=0 control=64 value=50 time=13
note_on channel=0 note=71 velocity=36 time=0
note_on channel=0 note=75 velocity=32 time=4
note_on channel=0 note=63 velocity=38 time=4
note_on channel=0 note=66 velocity=36 time=0
control_change channel=0 control=64 value=0 time=8
note_on channel=0 note=59 velocity=28 time=2
control_change channel=0 control=64 value=26 time=13
control_change channel=0 control=64 value=48 time=14
control_change channel=0 control=64 value=58 time=24
control_change channel=0 control=64 value=63 time=15
control_change channel=0 control=64 value=65 time=16
control_change channel=0 control=64 value=68 time=15
control_change channel=0 control=64 value=72 time=14
control_change channel=0 control=64 value=76 time=16
note_on channel=0 note=66 velocity=0 time=13
control_change channel=0 control=64 value=80 time=2
control_change channel=0 control=67 value=36 time=0
control_change channel=0 control=64 value=82 time=15
control_change channel=0 control=67 value=38 time=0
note_on channel=0 note=63 velocity=0 time=1
control_change channel=0 control=64 value=85 time=14
control_change channel=0 control=67 value=40 time=0
note_on channel=0 note=59 velocity=0 time=3
control_change channel=0 control=64 value=88 time=12
control_change channel=0 control=67 value=41 time=0
control_change channel=0 control=64 value=91 time=16
control_change channel=0 control=67 value=43 time=0
control_change channel=0 control=64 value=94 time=15
control_change channel=0 control=67 value=44 time=0
control_change channel=0 control=64 value=96 time=15
control_change channel=0 control=67 value=45 time=0
control_change channel=0 control=64 value=98 time=15
control_change channel=0 control=67 value=46 time=0
control_change channel=0 control=64 value=101 time=15
control_change channel=0 control=67 value=47 time=0
control_change channel=0 control=64 value=103 time=16
control_change channel=0 control=67 value=48 time=0
control_change channel=0 control=64 value=106 time=15
control_change channel=0 control=64 value=109 time=14
control_change channel=0 control=64 value=110 time=16
control_change channel=0 control=64 value=110 time=15
control_change channel=0 control=64 value=111 time=30
control_change channel=0 control=67 value=47 time=0
control_change channel=0 control=64 value=111 time=15
control_change channel=0 control=67 value=47 time=0
control_change channel=0 control=64 value=112 time=16
control_change channel=0 control=67 value=46 time=0
control_change channel=0 control=67 value=46 time=30
control_change channel=0 control=67 value=45 time=31
note_on channel=0 note=35 velocity=38 time=3
control_change channel=0 control=64 value=112 time=28
control_change channel=0 control=67 value=45 time=0
note_on channel=0 note=35 velocity=0 time=9
note_on channel=0 note=47 velocity=53 time=4
control_change channel=0 control=64 value=114 time=2
control_change channel=0 control=67 value=44 time=0
control_change channel=0 control=64 value=117 time=15
note_on channel=0 note=47 velocity=0 time=9
control_change channel=0 control=64 value=119 time=6
control_change channel=0 control=64 value=123 time=16
control_change channel=0 control=64 value=124 time=14
control_change channel=0 control=67 value=43 time=0
control_change channel=0 control=64 value=126 time=46
control_change channel=0 control=64 value=127 time=15
note_on channel=0 note=71 velocity=0 time=53
note_on channel=0 note=78 velocity=0 time=0
note_on channel=0 note=75 velocity=0 time=8
note_on channel=0 note=78 velocity=66 time=106
control_change channel=0 control=67 value=43 time=1
note_on channel=0 note=75 velocity=48 time=14
control_change channel=0 control=67 value=42 time=9
note_on channel=0 note=71 velocity=40 time=3
note_on channel=0 note=59 velocity=41 time=1
note_on channel=0 note=66 velocity=45 time=2
note_on channel=0 note=63 velocity=44 time=12
control_change channel=0 control=67 value=42 time=12
control_change channel=0 control=67 value=41 time=15
note_on channel=0 note=66 velocity=0 time=31
note_on channel=0 note=63 velocity=0 time=3
control_change channel=0 control=67 value=41 time=12
note_on channel=0 note=59 velocity=0 time=16
control_change channel=0 control=67 value=40 time=30
control_change channel=0 control=67 value=39 time=30
control_change channel=0 control=67 value=39 time=15
control_change channel=0 control=67 value=38 time=15
control_change channel=0 control=67 value=38 time=15
control_change channel=0 control=67 value=37 time=31
control_change channel=0 control=67 value=37 time=15
control_change channel=0 control=67 value=36 time=46
note_on channel=0 note=75 velocity=0 time=30
control_change channel=0 control=67 value=36 time=15
note_on channel=0 note=35 velocity=52 time=1
note_on channel=0 note=35 velocity=0 time=34
note_on channel=0 note=47 velocity=72 time=7
note_on channel=0 note=78 velocity=0 time=15
note_on channel=0 note=47 velocity=0 time=10
note_on channel=0 note=71 velocity=0 time=47
control_change channel=0 control=67 value=35 time=8
note_on channel=0 note=78 velocity=69 time=88
note_on channel=0 note=78 velocity=0 time=25
control_change channel=0 control=64 value=122 time=8
note_on channel=0 note=79 velocity=63 time=4
control_change channel=0 control=64 value=94 time=11
note_on channel=0 note=75 velocity=30 time=4
control_change channel=0 control=64 value=75 time=12
control_change channel=0 control=64 value=57 time=15
control_change channel=0 control=67 value=35 time=0
note_on channel=0 note=78 velocity=78 time=11
control_change channel=0 control=64 value=42 time=5
control_change channel=0 control=67 value=34 time=0
note_on channel=0 note=66 velocity=47 time=8
note_on channel=0 note=63 velocity=52 time=2
control_change channel=0 control=64 value=61 time=4
control_change channel=0 control=67 value=33 time=0
note_on channel=0 note=79 velocity=0 time=9
control_change channel=0 control=64 value=65 time=6
control_change channel=0 control=67 value=31 time=0
control_change channel=0 control=64 value=69 time=16
control_change channel=0 control=67 value=30 time=0
control_change channel=0 control=64 value=73 time=14
control_change channel=0 control=67 value=28 time=0
control_change channel=0 control=64 value=78 time=15
control_change channel=0 control=67 value=27 time=0
control_change channel=0 control=64 value=83 time=16
control_change channel=0 control=67 value=26 time=0
note_on channel=0 note=78 velocity=0 time=14
control_change channel=0 control=64 value=87 time=1
control_change channel=0 control=67 value=25 time=0
note_on channel=0 note=75 velocity=0 time=4
control_change channel=0 control=64 value=89 time=20
control_change channel=0 control=67 value=23 time=0
note_on channel=0 note=66 velocity=0 time=5
control_change channel=0 control=64 value=91 time=10
control_change channel=0 control=67 value=22 time=0
note_on channel=0 note=63 velocity=0 time=2
control_change channel=0 control=64 value=93 time=14
control_change channel=0 control=67 value=21 time=0
control_change channel=0 control=64 value=95 time=14
control_change channel=0 control=67 value=20 time=0
control_change channel=0 control=64 value=96 time=15
control_change channel=0 control=67 value=19 time=0
control_change channel=0 control=64 value=99 time=16
control_change channel=0 control=67 value=19 time=0
control_change channel=0 control=64 value=101 time=15
control_change channel=0 control=67 value=18 time=0
control_change channel=0 control=64 value=103 time=15
control_change channel=0 control=67 value=17 time=0
control_change channel=0 control=64 value=104 time=16
control_change channel=0 control=67 value=16 time=0
control_change channel=0 control=64 value=106 time=15
control_change channel=0 control=67 value=16 time=0
control_change channel=0 control=64 value=110 time=16
control_change channel=0 control=67 value=15 time=0
control_change channel=0 control=64 value=112 time=14
control_change channel=0 control=67 value=15 time=0
note_on channel=0 note=76 velocity=85 time=29
control_change channel=0 control=64 value=110 time=2
note_on channel=0 note=61 velocity=51 time=4
note_on channel=0 note=73 velocity=67 time=1
control_change channel=0 control=64 value=102 time=10
control_change channel=0 control=67 value=14 time=0
note_on channel=0 note=64 velocity=50 time=1
note_on channel=0 note=73 velocity=0 time=12
control_change channel=0 control=64 value=92 time=2
control_change channel=0 control=67 value=13 time=0
note_on channel=0 note=76 velocity=0 time=0
control_change channel=0 control=64 value=88 time=15
control_change channel=0 control=67 value=12 time=0
control_change channel=0 control=64 value=88 time=15
control_change channel=0 control=67 value=11 time=0
control_change channel=0 control=64 value=91 time=16
control_change channel=0 control=67 value=9 time=0
note_on channel=0 note=78 velocity=85 time=0
note_on channel=0 note=61 velocity=0 time=7
note_on channel=0 note=66 velocity=56 time=1
control_change channel=0 control=64 value=96 time=7
control_change channel=0 control=67 value=0 time=0
note_on channel=0 note=63 velocity=58 time=3
note_on channel=0 note=64 velocity=0 time=4
note_on channel=0 note=75 velocity=52 time=7
control_change channel=0 control=64 value=102 time=1
control_change channel=0 control=64 value=110 time=15
note_on channel=0 note=75 velocity=0 time=8
control_change channel=0 control=64 value=122 time=7
note_on channel=0 note=63 velocity=0 time=5
note_on channel=0 note=66 velocity=0 time=2
note_on channel=0 note=78 velocity=0 time=0
control_change channel=0 control=64 value=127 time=8
note_on channel=0 note=78 velocity=77 time=71
note_on channel=0 note=75 velocity=54 time=13
note_on channel=0 note=78 velocity=0 time=21
control_change channel=0 control=64 value=112 time=1
note_on channel=0 note=79 velocity=77 time=10
control_change channel=0 control=64 value=90 time=6
control_change channel=0 control=64 value=71 time=15
control_change channel=0 control=64 value=52 time=15
note_on channel=0 note=66 velocity=48 time=5
note_on channel=0 note=78 velocity=83 time=1
note_on channel=0 note=63 velocity=47 time=7
control_change channel=0 control=64 value=59 time=3
control_change channel=0 control=64 value=65 time=14
note_on channel=0 note=79 velocity=0 time=3
control_change channel=0 control=64 value=68 time=12
control_change channel=0 control=64 value=72 time=16
note_on channel=0 note=75 velocity=0 time=9
control_change channel=0 control=64 value=77 time=6
control_change channel=0 control=64 value=84 time=16
note_on channel=0 note=78 velocity=0 time=0
control_change channel=0 control=64 value=89 time=15
note_on channel=0 note=66 velocity=0 time=11
control_change channel=0 control=64 value=91 time=4
note_on channel=0 note=63 velocity=0 time=3
control_change channel=0 control=64 value=93 time=13
control_change channel=0 control=64 value=95 time=14
control_change channel=0 control=64 value=98 time=15
control_change channel=0 control=64 value=102 time=16
control_change channel=0 control=64 value=105 time=15
control_change channel=0 control=64 value=105 time=16
control_change channel=0 control=64 value=105 time=83
control_change channel=0 control=64 value=100 time=15
note_on channel=0 note=76 velocity=81 time=2
note_on channel=0 note=61 velocity=47 time=11
control_change channel=0 control=64 value=90 time=2
note_on channel=0 note=64 velocity=58 time=8
note_on channel=0 note=73 velocity=52 time=0
control_change channel=0 control=64 value=77 time=8
note_on channel=0 note=76 velocity=0 time=8
control_change channel=0 control=64 value=69 time=7
note_on channel=0 note=73 velocity=0 time=2
control_change channel=0 control=64 value=72 time=14
control_change channel=0 control=64 value=76 time=14
note_on channel=0 note=78 velocity=81 time=4
control_change channel=0 control=64 value=80 time=11
note_on channel=0 note=64 velocity=0 time=4
note_on channel=0 note=75 velocity=64 time=9
note_on channel=0 note=66 velocity=52 time=1
control_change channel=0 control=64 value=84 time=2
note_on channel=0 note=61 velocity=0 time=9
control_change channel=0 control=64 value=90 time=6
note_on channel=0 note=63 velocity=48 time=0
control_change channel=0 control=64 value=98 time=16
note_on channel=0 note=66 velocity=0 time=6
control_change channel=0 control=64 value=104 time=9
control_change channel=0 control=64 value=106 time=15
control_change channel=0 control=64 value=108 time=15
control_change channel=0 control=64 value=110 time=15
control_change channel=0 control=64 value=113 time=15
control_change channel=0 control=64 value=115 time=16
note_on channel=0 note=78 velocity=0 time=11
control_change channel=0 control=64 value=115 time=49
control_change channel=0 control=64 value=112 time=16
control_change channel=0 control=64 value=106 time=15
control_change channel=0 control=64 value=96 time=15
control_change channel=0 control=64 value=84 time=15
note_on channel=0 note=83 velocity=76 time=10
note_on channel=0 note=75 velocity=0 time=4
control_change channel=0 control=64 value=70 time=1
note_on channel=0 note=63 velocity=0 time=5
control_change channel=0 control=64 value=39 time=11
note_on channel=0 note=59 velocity=39 time=4
note_on channel=0 note=71 velocity=40 time=6
note_on channel=0 note=67 velocity=37 time=3
control_change channel=0 control=64 value=0 time=2
note_on channel=0 note=79 velocity=33 time=18
control_change channel=0 control=64 value=36 time=12
control_change channel=0 control=64 value=52 time=15
control_change channel=0 control=64 value=60 time=15
control_change channel=0 control=64 value=65 time=16
control_change channel=0 control=64 value=68 time=14
control_change channel=0 control=64 value=71 time=16
control_change channel=0 control=64 value=74 time=15
control_change channel=0 control=64 value=76 time=14
control_change channel=0 control=67 value=9 time=0
control_change channel=0 control=64 value=78 time=16
control_change channel=0 control=67 value=10 time=0
note_on channel=0 note=79 velocity=0 time=7
control_change channel=0 control=64 value=80 time=8
control_change channel=0 control=67 value=12 time=0
note_on channel=0 note=67 velocity=0 time=12
control_change channel=0 control=64 value=83 time=4
control_change channel=0 control=67 value=14 time=0
note_on channel=0 note=71 velocity=0 time=1
control_change channel=0 control=64 value=86 time=14
control_change channel=0 control=67 value=16 time=0
control_change channel=0 control=64 value=89 time=15
control_change channel=0 control=67 value=21 time=0
control_change channel=0 control=64 value=92 time=16
control_change channel=0 control=67 value=25 time=0
control_change channel=0 control=64 value=93 time=15
control_change channel=0 control=67 value=29 time=0
control_change channel=0 control=64 value=95 time=15
control_change channel=0 control=67 value=32 time=0
control_change channel=0 control=64 value=97 time=15
control_change channel=0 control=67 value=34 time=0
control_change channel=0 control=64 value=99 time=15
control_change channel=0 control=67 value=38 time=0
control_change channel=0 control=64 value=102 time=16
control_change channel=0 control=67 value=41 time=0
control_change channel=0 control=64 value=104 time=22
control_change channel=0 control=67 value=43 time=0
control_change channel=0 control=64 value=106 time=14
control_change channel=0 control=67 value=44 time=0
control_change channel=0 control=67 value=45 time=16
control_change channel=0 control=64 value=106 time=15
control_change channel=0 control=67 value=46 time=0
control_change channel=0 control=64 value=109 time=16
control_change channel=0 control=67 value=47 time=0
control_change channel=0 control=64 value=112 time=15
control_change channel=0 control=67 value=48 time=0
control_change channel=0 control=64 value=113 time=15
control_change channel=0 control=67 value=49 time=15
control_change channel=0 control=67 value=49 time=78
note_on channel=0 note=63 velocity=40 time=57
note_on channel=0 note=78 velocity=53 time=4
note_on channel=0 note=75 velocity=39 time=6
note_on channel=0 note=59 velocity=0 time=8
note_on channel=0 note=66 velocity=36 time=0
note_on channel=0 note=66 velocity=0 time=90
note_on channel=0 note=75 velocity=0 time=39
control_change channel=0 control=67 value=49 time=8
note_on channel=0 note=83 velocity=0 time=43
control_change channel=0 control=64 value=112 time=3
control_change channel=0 control=64 value=108 time=15
control_change channel=0 control=64 value=101 time=15
note_on channel=0 note=63 velocity=0 time=5
note_on channel=0 note=78 velocity=0 time=7
control_change channel=0 control=64 value=87 time=3
control_change channel=0 control=64 value=71 time=16
note_on channel=0 note=79 velocity=55 time=0
control_change channel=0 control=64 value=31 time=15
control_change channel=0 control=67 value=48 time=0
note_on channel=0 note=67 velocity=34 time=1
note_on channel=0 note=64 velocity=38 time=6
note_on channel=0 note=76 velocity=33 time=5
note_on channel=0 note=59 velocity=26 time=1
control_change channel=0 control=64 value=0 time=1
control_change channel=0 control=64 value=35 time=16
control_change channel=0 control=67 value=48 time=0
control_change channel=0 control=64 value=57 time=15
control_change channel=0 control=64 value=64 time=16
control_change channel=0 control=67 value=47 time=0
control_change channel=0 control=64 value=69 time=15
control_change channel=0 control=67 value=47 time=0
control_change channel=0 control=64 value=73 time=14
control_change channel=0 control=67 value=46 time=0
note_on channel=0 note=67 velocity=0 time=2
note_on channel=0 note=64 velocity=0 time=9
control_change channel=0 control=64 value=78 time=5
control_change channel=0 control=67 value=46 time=0
control_change channel=0 control=64 value=83 time=15
note_on channel=0 note=59 velocity=0 time=9
control_change channel=0 control=64 value=86 time=5
control_change channel=0 control=67 value=45 time=0
control_change channel=0 control=64 value=89 time=16
control_change channel=0 control=67 value=45 time=0
control_change channel=0 control=64 value=92 time=15
control_change channel=0 control=67 value=44 time=0
control_change channel=0 control=64 value=95 time=16
control_change channel=0 control=67 value=44 time=0
control_change channel=0 control=64 value=98 time=15
control_change channel=0 control=64 value=102 time=15
control_change channel=0 control=67 value=43 time=0
control_change channel=0 control=64 value=106 time=15
control_change channel=0 control=67 value=43 time=0
control_change channel=0 control=64 value=107 time=23
control_change channel=0 control=67 value=42 time=0
control_change channel=0 control=64 value=108 time=16
control_change channel=0 control=67 value=41 time=0
control_change channel=0 control=64 value=110 time=15
control_change channel=0 control=64 value=112 time=14
control_change channel=0 control=64 value=115 time=16
control_change channel=0 control=67 value=41 time=0
control_change channel=0 control=64 value=118 time=15
control_change channel=0 control=64 value=118 time=16
note_on channel=0 note=76 velocity=0 time=2
control_change channel=0 control=64 value=121 time=27
note_on channel=0 note=35 velocity=26 time=0
control_change channel=0 control=64 value=127 time=16
note_on channel=0 note=47 velocity=62 time=23
note_on channel=0 note=35 velocity=0 time=6
note_on channel=0 note=47 velocity=0 time=24
control_change channel=0 control=67 value=40 time=24
control_change channel=0 control=67 value=41 time=136
note_on channel=0 note=79 velocity=0 time=106
control_change channel=0 control=64 value=117 time=62
note_on channel=0 note=65 velocity=46 time=6
note_on channel=0 note=80 velocity=69 time=2
note_on channel=0 note=68 velocity=49 time=5
control_change channel=0 control=64 value=100 time=2
control_change channel=0 control=67 value=41 time=0
note_on channel=0 note=59 velocity=45 time=6
note_on channel=0 note=61 velocity=46 time=1
note_on channel=0 note=73 velocity=56 time=3
note_on channel=0 note=77 velocity=51 time=1
control_change channel=0 control=64 value=81 time=4
control_change channel=0 control=64 value=63 time=15
control_change channel=0 control=64 value=0 time=16
control_change channel=0 control=64 value=31 time=44
control_change channel=0 control=64 value=59 time=15
control_change channel=0 control=67 value=41 time=0
control_change channel=0 control=64 value=66 time=16
control_change channel=0 control=67 value=40 time=0
note_on channel=0 note=68 velocity=0 time=14
control_change channel=0 control=64 value=71 time=1
control_change channel=0 control=67 value=40 time=0
control_change channel=0 control=64 value=77 time=14
control_change channel=0 control=67 value=39 time=0
control_change channel=0 control=64 value=85 time=16
note_on channel=0 note=65 velocity=0 time=0
control_change channel=0 control=64 value=92 time=15
control_change channel=0 control=67 value=39 time=0
note_on channel=0 note=59 velocity=0 time=8
note_on channel=0 note=61 velocity=0 time=4
control_change channel=0 control=64 value=98 time=4
control_change channel=0 control=64 value=104 time=15
control_change channel=0 control=67 value=38 time=0
control_change channel=0 control=64 value=112 time=23
control_change channel=0 control=64 value=127 time=15
control_change channel=0 control=67 value=38 time=0
control_change channel=0 control=67 value=37 time=30
control_change channel=0 control=67 value=37 time=30
control_change channel=0 control=67 value=36 time=15
control_change channel=0 control=67 value=33 time=15
control_change channel=0 control=67 value=29 time=16
control_change channel=0 control=67 value=25 time=15
control_change channel=0 control=67 value=22 time=15
note_on channel=0 note=35 velocity=63 time=13
control_change channel=0 control=67 value=18 time=3
control_change channel=0 control=67 value=13 time=14
control_change channel=0 control=67 value=0 time=15
note_on channel=0 note=35 velocity=0 time=0
note_on channel=0 note=47 velocity=75 time=4
note_on channel=0 note=47 velocity=0 time=27
note_on channel=0 note=77 velocity=0 time=116
note_on channel=0 note=73 velocity=0 time=6
note_on channel=0 note=80 velocity=0 time=14
note_on channel=0 note=80 velocity=96 time=86
note_on channel=0 note=65 velocity=58 time=4
note_on channel=0 note=73 velocity=75 time=4
note_on channel=0 note=77 velocity=72 time=3
note_on channel=0 note=68 velocity=63 time=6
note_on channel=0 note=61 velocity=51 time=8
note_on channel=0 note=59 velocity=42 time=31
note_on channel=0 note=68 velocity=0 time=12
note_on channel=0 note=65 velocity=0 time=19
note_on channel=0 note=59 velocity=0 time=21
note_on channel=0 note=61 velocity=0 time=11
note_on channel=0 note=77 velocity=0 time=227
note_on channel=0 note=35 velocity=71 time=5
note_on channel=0 note=35 velocity=0 time=31
note_on channel=0 note=73 velocity=0 time=3
note_on channel=0 note=47 velocity=78 time=1
note_on channel=0 note=80 velocity=0 time=23
note_on channel=0 note=47 velocity=0 time=4
note_on channel=0 note=80 velocity=77 time=114
note_on channel=0 note=77 velocity=57 time=20
note_on channel=0 note=80 velocity=0 time=12
note_on channel=0 note=77 velocity=0 time=9
note_on channel=0 note=81 velocity=68 time=0
control_change channel=0 control=64 value=98 time=25
control_change channel=0 control=64 value=73 time=15
note_on channel=0 note=80 velocity=83 time=10
note_on channel=0 note=77 velocity=66 time=3
control_change channel=0 control=64 value=42 time=2
note_on channel=0 note=68 velocity=58 time=5
control_change channel=0 control=64 value=54 time=11
note_on channel=0 note=65 velocity=54 time=0
note_on channel=0 note=81 velocity=0 time=5
control_change channel=0 control=64 value=65 time=10
note_on channel=0 note=77 velocity=0 time=13
control_change channel=0 control=64 value=69 time=1
control_change channel=0 control=64 value=74 time=16
control_change channel=0 control=64 value=81 time=15
note_on channel=0 note=80 velocity=0 time=14
control_change channel=0 control=64 value=90 time=2
control_change channel=0 control=64 value=98 time=14
control_change channel=0 control=64 value=104 time=15
note_on channel=0 note=68 velocity=0 time=2
control_change channel=0 control=64 value=109 time=14
note_on channel=0 note=65 velocity=0 time=6
control_change channel=0 control=64 value=114 time=9
control_change channel=0 control=64 value=122 time=16
control_change channel=0 control=64 value=127 time=15
control_change channel=0 control=64 value=103 time=121
note_on channel=0 note=78 velocity=83 time=1
note_on channel=0 note=63 velocity=52 time=1
note_on channel=0 note=66 velocity=57 time=1
note_on channel=0 note=75 velocity=63 time=9
control_change channel=0 control=64 value=86 time=3
control_change channel=0 control=64 value=82 time=16
note_on channel=0 note=75 velocity=0 time=1
note_on channel=0 note=78 velocity=0 time=0
control_change channel=0 control=64 value=84 time=14
control_change channel=0 control=64 value=88 time=15
control_change channel=0 control=64 value=92 time=15
note_on channel=0 note=80 velocity=92 time=4
note_on channel=0 note=77 velocity=81 time=8
control_change channel=0 control=64 value=98 time=3
note_on channel=0 note=65 velocity=64 time=1
note_on channel=0 note=68 velocity=65 time=3
note_on channel=0 note=66 velocity=0 time=3
control_change channel=0 control=64 value=108 time=9
note_on channel=0 note=63 velocity=0 time=12
control_change channel=0 control=64 value=127 time=3
note_on channel=0 note=77 velocity=0 time=3
note_on channel=0 note=80 velocity=0 time=36
note_on channel=0 note=68 velocity=0 time=9
note_on channel=0 note=65 velocity=0 time=21
note_on channel=0 note=80 velocity=82 time=54
note_on channel=0 note=77 velocity=72 time=7
note_on channel=0 note=80 velocity=0 time=15
note_on channel=0 note=77 velocity=0 time=10
note_on channel=0 note=81 velocity=75 time=6
control_change channel=0 control=64 value=95 time=13
control_change channel=0 control=64 value=69 time=16
control_change channel=0 control=64 value=0 time=15
note_on channel=0 note=65 velocity=55 time=4
note_on channel=0 note=77 velocity=72 time=2
note_on channel=0 note=80 velocity=91 time=0
note_on channel=0 note=68 velocity=54 time=6
control_change channel=0 control=64 value=23 time=3
note_on channel=0 note=81 velocity=0 time=13
control_change channel=0 control=64 value=59 time=2
note_on channel=0 note=77 velocity=0 time=14
control_change channel=0 control=64 value=65 time=1
control_change channel=0 control=64 value=69 time=16
control_change channel=0 control=64 value=76 time=14
note_on channel=0 note=80 velocity=0 time=5
control_change channel=0 control=64 value=82 time=10
control_change channel=0 control=64 value=86 time=16
note_on channel=0 note=68 velocity=0 time=14
control_change channel=0 control=64 value=89 time=1
control_change channel=0 control=64 value=92 time=16
note_on channel=0 note=65 velocity=0 time=9
control_change channel=0 control=64 value=95 time=7
control_change channel=0 control=64 value=98 time=15
control_change channel=0 control=64 value=103 time=15
control_change channel=0 control=64 value=107 time=15
control_change channel=0 control=64 value=108 time=15
control_change channel=0 control=64 value=109 time=31
control_change channel=0 control=64 value=110 time=15
control_change channel=0 control=64 value=111 time=15
control_change channel=0 control=64 value=110 time=15
control_change channel=0 control=64 value=107 time=15
note_on channel=0 note=78 velocity=77 time=12
control_change channel=0 control=64 value=96 time=3
note_on channel=0 note=63 velocity=45 time=2
note_on channel=0 note=66 velocity=61 time=4
note_on channel=0 note=75 velocity=61 time=0
control_change channel=0 control=64 value=81 time=9
note_on channel=0 note=75 velocity=0 time=12
note_on channel=0 note=78 velocity=0 time=1
control_change channel=0 control=64 value=68 time=3
control_change channel=0 control=64 value=68 time=15
control_change channel=0 control=64 value=73 time=16
note_on channel=0 note=80 velocity=87 time=8
note_on channel=0 note=66 velocity=0 time=4
note_on channel=0 note=68 velocity=52 time=0
control_change channel=0 control=64 value=79 time=2
note_on channel=0 note=77 velocity=77 time=3
note_on channel=0 note=63 velocity=0 time=1
control_change channel=0 control=64 value=85 time=11
note_on channel=0 note=65 velocity=54 time=5
control_change channel=0 control=64 value=91 time=11
note_on channel=0 note=68 velocity=0 time=9
control_change channel=0 control=64 value=97 time=6
control_change channel=0 control=64 value=101 time=15
control_change channel=0 control=64 value=106 time=16
control_change channel=0 control=64 value=109 time=15
control_change channel=0 control=64 value=111 time=16
control_change channel=0 control=64 value=113 time=14
control_change channel=0 control=64 value=115 time=15
note_on channel=0 note=80 velocity=0 time=11
control_change channel=0 control=64 value=116 time=5
control_change channel=0 control=64 value=115 time=52
control_change channel=0 control=64 value=114 time=46
control_change channel=0 control=64 value=111 time=16
control_change channel=0 control=64 value=110 time=15
control_change channel=0 control=64 value=106 time=15
control_change channel=0 control=64 value=100 time=15
note_on channel=0 note=85 velocity=84 time=14
control_change channel=0 control=64 value=90 time=1
note_on channel=0 note=77 velocity=0 time=6
control_change channel=0 control=64 value=76 time=10
note_on channel=0 note=73 velocity=42 time=11
control_change channel=0 control=64 value=57 time=4
note_on channel=0 note=61 velocity=35 time=0
note_on channel=0 note=69 velocity=44 time=0
note_on channel=0 note=81 velocity=35 time=3
note_on channel=0 note=65 velocity=0 time=3
control_change channel=0 control=64 value=0 time=9
control_change channel=0 control=64 value=31 time=45
control_change channel=0 control=64 value=49 time=16
control_change channel=0 control=64 value=58 time=14
note_on channel=0 note=81 velocity=0 time=13
control_change channel=0 control=64 value=64 time=3
control_change channel=0 control=64 value=67 time=15
control_change channel=0 control=64 value=71 time=15
control_change channel=0 control=64 value=74 time=16
control_change channel=0 control=64 value=77 time=14
control_change channel=0 control=64 value=80 time=15
control_change channel=0 control=64 value=83 time=16
control_change channel=0 control=64 value=88 time=15
note_on channel=0 note=69 velocity=0 time=8
control_change channel=0 control=64 value=91 time=9
control_change channel=0 control=64 value=93 time=15
control_change channel=0 control=64 value=95 time=15
control_change channel=0 control=64 value=97 time=15
control_change channel=0 control=64 value=99 time=15
control_change channel=0 control=64 value=103 time=16
control_change channel=0 control=64 value=105 time=15
control_change channel=0 control=64 value=107 time=15
control_change channel=0 control=64 value=109 time=15
control_change channel=0 control=64 value=110 time=15
control_change channel=0 control=64 value=111 time=45
control_change channel=0 control=64 value=111 time=16
control_change channel=0 control=64 value=112 time=60
note_on channel=0 note=80 velocity=55 time=88
note_on channel=0 note=73 velocity=0 time=1
note_on channel=0 note=77 velocity=45 time=10
note_on channel=0 note=68 velocity=46 time=7
note_on channel=0 note=65 velocity=37 time=19
note_on channel=0 note=77 velocity=0 time=22
note_on channel=0 note=85 velocity=0 time=21
note_on channel=0 note=68 velocity=0 time=42
note_on channel=0 note=65 velocity=0 time=108
control_change channel=0 control=64 value=111 time=9
control_change channel=0 control=64 value=100 time=16
note_on channel=0 note=80 velocity=0 time=7
control_change channel=0 control=64 value=82 time=8
control_change channel=0 control=64 value=63 time=15
note_on channel=0 note=81 velocity=52 time=0
note_on channel=0 note=66 velocity=38 time=2
note_on channel=0 note=78 velocity=36 time=12
control_change channel=0 control=64 value=0 time=2
note_on channel=0 note=69 velocity=38 time=8
control_change channel=0 control=64 value=53 time=6
control_change channel=0 control=64 value=64 time=16
control_change channel=0 control=64 value=68 time=15
control_change channel=0 control=64 value=75 time=14
note_on channel=0 note=69 velocity=0 time=11
control_change channel=0 control=64 value=86 time=5
control_change channel=0 control=64 value=99 time=15
note_on channel=0 note=66 velocity=0 time=4
control_change channel=0 control=64 value=112 time=11
note_on channel=0 note=61 velocity=0 time=12
control_change channel=0 control=64 value=121 time=4
control_change channel=0 control=64 value=127 time=14
note_on channel=0 note=78 velocity=0 time=146
note_on channel=0 note=33 velocity=57 time=60
note_on channel=0 note=33 velocity=0 time=42
note_on channel=0 note=45 velocity=65 time=12
note_on channel=0 note=45 velocity=0 time=25
note_on channel=0 note=81 velocity=0 time=85
note_on channel=0 note=86 velocity=77 time=237
note_on channel=0 note=77 velocity=51 time=13
note_on channel=0 note=57 velocity=43 time=6
note_on channel=0 note=65 velocity=38 time=4
control_change channel=0 control=64 value=104 time=2
note_on channel=0 note=74 velocity=44 time=0
control_change channel=0 control=64 value=84 time=15
control_change channel=0 control=64 value=64 time=16
control_change channel=0 control=64 value=0 time=15
control_change channel=0 control=64 value=26 time=45
control_change channel=0 control=64 value=54 time=16
control_change channel=0 control=64 value=65 time=15
control_change channel=0 control=64 value=69 time=14
control_change channel=0 control=64 value=75 time=16
control_change channel=0 control=64 value=80 time=15
control_change channel=0 control=64 value=84 time=16
control_change channel=0 control=64 value=88 time=15
control_change channel=0 control=64 value=93 time=16
control_change channel=0 control=64 value=100 time=16
control_change channel=0 control=64 value=108 time=14
note_on channel=0 note=74 velocity=0 time=8
control_change channel=0 control=64 value=121 time=7
control_change channel=0 control=64 value=127 time=16
note_on channel=0 note=77 velocity=0 time=60
note_on channel=0 note=65 velocity=0 time=9
note_on channel=0 note=86 velocity=0 time=190
note_on channel=0 note=77 velocity=56 time=31
note_on channel=0 note=74 velocity=44 time=15
note_on channel=0 note=65 velocity=37 time=7
note_on channel=0 note=62 velocity=35 time=2
note_on channel=0 note=57 velocity=0 time=5
note_on channel=0 note=65 velocity=0 time=52
note_on channel=0 note=74 velocity=0 time=0
control_change channel=0 control=64 value=103 time=167
control_change channel=0 control=64 value=79 time=16
note_on channel=0 note=77 velocity=0 time=4
note_on channel=0 note=62 velocity=0 time=3
note_on channel=0 note=57 velocity=41 time=5
note_on channel=0 note=81 velocity=60 time=2
control_change channel=0 control=64 value=60 time=1
note_on channel=0 note=73 velocity=53 time=3
control_change channel=0 control=64 value=38 time=12
note_on channel=0 note=64 velocity=45 time=0
note_on channel=0 note=69 velocity=40 time=0
control_change channel=0 control=64 value=60 time=15
control_change channel=0 control=64 value=65 time=15
control_change channel=0 control=64 value=69 time=16
control_change channel=0 control=64 value=74 time=15
note_on channel=0 note=69 velocity=0 time=12
control_change channel=0 control=64 value=80 time=3
control_change channel=0 control=64 value=88 time=16
note_on channel=0 note=64 velocity=0 time=12
control_change channel=0 control=64 value=96 time=3
control_change channel=0 control=64 value=104 time=15
note_on channel=0 note=57 velocity=0 time=12
control_change channel=0 control=64 value=115 time=3
control_change channel=0 control=64 value=127 time=15
note_on channel=0 note=33 velocity=73 time=184
note_on channel=0 note=33 velocity=0 time=39
note_on channel=0 note=45 velocity=79 time=7
note_on channel=0 note=45 velocity=0 time=34
note_on channel=0 note=73 velocity=0 time=18
note_on channel=0 note=81 velocity=0 time=106
control_change channel=0 control=64 value=86 time=107
note_on channel=0 note=77 velocity=73 time=5
note_on channel=0 note=86 velocity=93 time=0
note_on channel=0 note=57 velocity=54 time=5
note_on channel=0 note=74 velocity=72 time=2
note_on channel=0 note=65 velocity=61 time=1
control_change channel=0 control=64 value=63 time=2
control_change channel=0 control=64 value=0 time=15
control_change channel=0 control=64 value=53 time=30
control_change channel=0 control=64 value=65 time=15
control_change channel=0 control=64 value=70 time=16
control_change channel=0 control=64 value=75 time=15
control_change channel=0 control=64 value=82 time=15
control_change channel=0 control=64 value=88 time=15
control_change channel=0 control=64 value=93 time=15
control_change channel=0 control=64 value=97 time=16
control_change channel=0 control=64 value=101 time=15
control_change channel=0 control=64 value=105 time=15
control_change channel=0 control=64 value=112 time=15
note_on channel=0 note=74 velocity=0 time=6
control_change channel=0 control=64 value=127 time=9
note_on channel=0 note=65 velocity=0 time=18
note_on channel=0 note=77 velocity=0 time=7
note_on channel=0 note=77 velocity=83 time=259
note_on channel=0 note=74 velocity=75 time=12
note_on channel=0 note=62 velocity=47 time=11
note_on channel=0 note=65 velocity=55 time=7
note_on channel=0 note=86 velocity=0 time=56
note_on channel=0 note=57 velocity=0 time=3
note_on channel=0 note=65 velocity=0 time=1
note_on channel=0 note=74 velocity=0 time=20
note_on channel=0 note=62 velocity=0 time=202
control_change channel=0 control=64 value=101 time=21
note_on channel=0 note=81 velocity=72 time=0
note_on channel=0 note=69 velocity=47 time=7
note_on channel=0 note=73 velocity=54 time=1
note_on channel=0 note=57 velocity=43 time=1
control_change channel=0 control=64 value=76 time=6
note_on channel=0 note=64 velocity=44 time=4
note_on channel=0 note=77 velocity=0 time=8
control_change channel=0 control=64 value=52 time=3
control_change channel=0 control=64 value=0 time=15
control_change channel=0 control=64 value=50 time=31
control_change channel=0 control=64 value=63 time=15
control_change channel=0 control=64 value=68 time=15
note_on channel=0 note=69 velocity=0 time=9
control_change channel=0 control=64 value=73 time=6
control_change channel=0 control=64 value=79 time=15
note_on channel=0 note=64 velocity=0 time=13
control_change channel=0 control=64 value=87 time=2
control_change channel=0 control=64 value=93 time=15
control_change channel=0 control=64 value=98 time=15
note_on channel=0 note=57 velocity=0 time=6
control_change channel=0 control=64 value=104 time=10
control_change channel=0 control=64 value=116 time=15
control_change channel=0 control=64 value=127 time=15
note_on channel=0 note=33 velocity=58 time=199
note_on channel=0 note=33 velocity=0 time=47
note_on channel=0 note=45 velocity=63 time=11
note_on channel=0 note=45 velocity=0 time=31
note_on channel=0 note=73 velocity=0 time=89
note_on channel=0 note=81 velocity=0 time=312
note_on channel=0 note=86 velocity=76 time=80
note_on channel=0 note=77 velocity=49 time=12
control_change channel=0 control=64 value=121 time=1
note_on channel=0 note=57 velocity=41 time=5
note_on channel=0 note=74 velocity=53 time=2
note_on channel=0 note=65 velocity=43 time=7
control_change channel=0 control=64 value=99 time=1
control_change channel=0 control=64 value=83 time=16
control_change channel=0 control=64 value=67 time=15
control_change channel=0 control=64 value=0 time=15
control_change channel=0 control=64 value=43 time=92
control_change channel=0 control=64 value=61 time=15
control_change channel=0 control=64 value=65 time=14
control_change channel=0 control=64 value=68 time=16
control_change channel=0 control=64 value=71 time=23
control_change channel=0 control=64 value=73 time=15
control_change channel=0 control=64 value=75 time=15
control_change channel=0 control=64 value=80 time=15
control_change channel=0 control=64 value=84 time=16
control_change channel=0 control=64 value=88 time=15
note_on channel=0 note=77 velocity=0 time=8
note_on channel=0 note=65 velocity=0 time=6
control_change channel=0 control=64 value=91 time=1
control_change channel=0 control=64 value=94 time=15
control_change channel=0 control=64 value=99 time=15
note_on channel=0 note=86 velocity=0 time=1
control_change channel=0 control=64 value=105 time=15
control_change channel=0 control=64 value=114 time=15
control_change channel=0 control=64 value=126 time=14
control_change channel=0 control=64 value=127 time=16
note_on channel=0 note=74 velocity=0 time=372
note_on channel=0 note=81 velocity=55 time=45
note_on channel=0 note=69 velocity=33 time=8
note_on channel=0 note=65 velocity=36 time=18
note_on channel=0 note=77 velocity=24 time=26
note_on channel=0 note=57 velocity=0 time=50
note_on channel=0 note=69 velocity=0 time=77
note_on channel=0 note=65 velocity=0 time=7
note_on channel=0 note=81 velocity=0 time=30
note_on channel=0 note=77 velocity=0 time=42
note_on channel=0 note=81 velocity=65 time=85
control_change channel=0 control=64 value=110 time=23
note_on channel=0 note=77 velocity=46 time=2
control_change channel=0 control=64 value=90 time=14
note_on channel=0 note=69 velocity=39 time=2
note_on channel=0 note=65 velocity=31 time=2
note_on channel=0 note=57 velocity=25 time=3
control_change channel=0 control=64 value=84 time=8
control_change channel=0 control=64 value=85 time=15
control_change channel=0 control=64 value=88 time=15
control_change channel=0 control=64 value=90 time=15
control_change channel=0 control=64 value=93 time=16
control_change channel=0 control=64 value=98 time=14
control_change channel=0 control=64 value=104 time=15
note_on channel=0 note=65 velocity=0 time=15
note_on channel=0 note=69 velocity=0 time=0
control_change channel=0 control=64 value=111 time=1
control_change channel=0 control=64 value=121 time=15
control_change channel=0 control=64 value=127 time=16
note_on channel=0 note=77 velocity=0 time=1
note_on channel=0 note=79 velocity=74 time=136
note_on channel=0 note=64 velocity=39 time=39
note_on channel=0 note=67 velocity=44 time=3
note_on channel=0 note=67 velocity=0 time=46
note_on channel=0 note=81 velocity=0 time=22
note_on channel=0 note=64 velocity=0 time=130
note_on channel=0 note=77 velocity=78 time=28
note_on channel=0 note=74 velocity=54 time=7
note_on channel=0 note=62 velocity=39 time=9
note_on channel=0 note=79 velocity=0 time=0
note_on channel=0 note=65 velocity=47 time=3
note_on channel=0 note=57 velocity=0 time=6
note_on channel=0 note=62 velocity=0 time=23
note_on channel=0 note=74 velocity=0 time=20
note_on channel=0 note=77 velocity=0 time=80
control_change channel=0 control=64 value=87 time=93
note_on channel=0 note=76 velocity=68 time=14
control_change channel=0 control=64 value=64 time=1
note_on channel=0 note=65 velocity=0 time=4
control_change channel=0 control=64 value=0 time=12
note_on channel=0 note=69 velocity=46 time=4
note_on channel=0 note=57 velocity=36 time=9
note_on channel=0 note=64 velocity=40 time=4
note_on channel=0 note=61 velocity=39 time=11
control_change channel=0 control=64 value=53 time=17
control_change channel=0 control=64 value=65 time=15
control_change channel=0 control=64 value=71 time=15
control_change channel=0 control=64 value=80 time=16
note_on channel=0 note=64 velocity=0 time=5
control_change channel=0 control=64 value=89 time=9
note_on channel=0 note=61 velocity=0 time=11
control_change channel=0 control=64 value=96 time=5
note_on channel=0 note=57 velocity=0 time=1
control_change channel=0 control=64 value=101 time=14
control_change channel=0 control=64 value=105 time=15
control_change channel=0 control=64 value=110 time=16
control_change channel=0 control=64 value=124 time=14
control_change channel=0 control=64 value=127 time=15
note_on channel=0 note=33 velocity=49 time=326
note_on channel=0 note=33 velocity=0 time=38
note_on channel=0 note=45 velocity=46 time=33
note_on channel=0 note=45 velocity=0 time=30
note_on channel=0 note=69 velocity=0 time=75
note_on channel=0 note=76 velocity=0 time=36
note_on channel=0 note=76 velocity=70 time=111
note_on channel=0 note=57 velocity=51 time=9
note_on channel=0 note=64 velocity=53 time=1
note_on channel=0 note=69 velocity=48 time=13
note_on channel=0 note=61 velocity=15 time=10
note_on channel=0 note=64 velocity=0 time=30
note_on channel=0 note=57 velocity=0 time=19
note_on channel=0 note=61 velocity=0 time=9
note_on channel=0 note=33 velocity=55 time=421
note_on channel=0 note=45 velocity=70 time=27
note_on channel=0 note=33 velocity=0 time=5
note_on channel=0 note=45 velocity=0 time=23
note_on channel=0 note=69 velocity=0 time=137
note_on channel=0 note=76 velocity=0 time=13
note_on channel=0 note=76 velocity=83 time=75
note_on channel=0 note=64 velocity=62 time=5
note_on channel=0 note=61 velocity=60 time=1
note_on channel=0 note=69 velocity=62 time=5
note_on channel=0 note=57 velocity=51 time=6
note_on channel=0 note=64 velocity=0 time=23
note_on channel=0 note=61 velocity=0 time=8
note_on channel=0 note=57 velocity=0 time=14
note_on channel=0 note=33 velocity=70 time=587
note_on channel=0 note=45 velocity=73 time=28
note_on channel=0 note=45 velocity=0 time=37
note_on channel=0 note=33 velocity=0 time=3
note_on channel=0 note=33 velocity=86 time=858
note_on channel=0 note=45 velocity=89 time=40
note_on channel=0 note=38 velocity=3 time=56
note_on channel=0 note=33 velocity=0 time=6
note_on channel=0 note=45 velocity=0 time=9
note_on channel=0 note=69 velocity=0 time=6
note_on channel=0 note=76 velocity=0 time=19
note_on channel=0 note=38 velocity=0 time=2
note_on channel=0 note=33 velocity=82 time=1121
note_on channel=0 note=45 velocity=97 time=65
note_on channel=0 note=33 velocity=0 time=37
note_on channel=0 note=45 velocity=0 time=19
note_on channel=0 note=81 velocity=89 time=449
note_on channel=0 note=69 velocity=78 time=3
note_on channel=0 note=57 velocity=63 time=10
note_on channel=0 note=69 velocity=0 time=18
note_on channel=0 note=81 velocity=0 time=44
note_on channel=0 note=54 velocity=74 time=272
note_on channel=0 note=86 velocity=99 time=3
note_on channel=0 note=74 velocity=87 time=3
note_on channel=0 note=62 velocity=81 time=8
note_on channel=0 note=57 velocity=0 time=6
note_on channel=0 note=74 velocity=0 time=58
note_on channel=0 note=86 velocity=0 time=47
note_on channel=0 note=54 velocity=0 time=7
note_on channel=0 note=88 velocity=96 time=120
note_on channel=0 note=76 velocity=94 time=3
note_on channel=0 note=64 velocity=85 time=2
note_on channel=0 note=57 velocity=74 time=10
note_on channel=0 note=62 velocity=0 time=15
note_on channel=0 note=76 velocity=0 time=14
note_on channel=0 note=64 velocity=0 time=22
note_on channel=0 note=88 velocity=0 time=11
note_on channel=0 note=57 velocity=0 time=39
control_change channel=0 control=64 value=100 time=193
note_on channel=0 note=86 velocity=88 time=3
note_on channel=0 note=90 velocity=106 time=0
note_on channel=0 note=81 velocity=83 time=1
note_on channel=0 note=78 velocity=98 time=2
note_on channel=0 note=66 velocity=88 time=3
note_on channel=0 note=62 velocity=72 time=2
control_change channel=0 control=64 value=67 time=4
note_on channel=0 note=54 velocity=63 time=4
note_on channel=0 note=57 velocity=60 time=4
control_change channel=0 control=64 value=0 time=7
control_change channel=0 control=64 value=11 time=76
control_change channel=0 control=64 value=63 time=16
control_change channel=0 control=64 value=71 time=15
note_on channel=0 note=66 velocity=0 time=6
control_change channel=0 control=64 value=80 time=9
control_change channel=0 control=64 value=90 time=16
control_change channel=0 control=64 value=101 time=14
note_on channel=0 note=62 velocity=0 time=11
control_change channel=0 control=64 value=111 time=5
control_change channel=0 control=64 value=127 time=15
note_on channel=0 note=57 velocity=0 time=35
note_on channel=0 note=54 velocity=0 time=38
note_on channel=0 note=38 velocity=75 time=286
note_on channel=0 note=45 velocity=86 time=34
note_on channel=0 note=38 velocity=0 time=28
note_on channel=0 note=45 velocity=0 time=14
note_on channel=0 note=90 velocity=0 time=52
note_on channel=0 note=86 velocity=0 time=19
note_on channel=0 note=78 velocity=0 time=72
note_on channel=0 note=81 velocity=0 time=32
note_on channel=0 note=66 velocity=85 time=81
note_on channel=0 note=86 velocity=92 time=1
note_on channel=0 note=90 velocity=104 time=0
note_on channel=0 note=62 velocity=69 time=4
note_on channel=0 note=78 velocity=92 time=0
note_on channel=0 note=81 velocity=84 time=1
note_on channel=0 note=57 velocity=63 time=2
note_on channel=0 note=54 velocity=65 time=2
note_on channel=0 note=66 velocity=0 time=36
note_on channel=0 note=62 velocity=0 time=19
note_on channel=0 note=54 velocity=0 time=12
note_on channel=0 note=57 velocity=0 time=3
note_on channel=0 note=78 velocity=0 time=85
note_on channel=0 note=81 velocity=0 time=36
note_on channel=0 note=86 velocity=0 time=60
note_on channel=0 note=90 velocity=0 time=73
note_on channel=0 note=38 velocity=75 time=58
note_on channel=0 note=45 velocity=89 time=49
note_on channel=0 note=38 velocity=0 time=25
note_on channel=0 note=45 velocity=0 time=12
note_on channel=0 note=86 velocity=72 time=100
note_on channel=0 note=90 velocity=83 time=6
note_on channel=0 note=78 velocity=69 time=2
note_on channel=0 note=86 velocity=0 time=21
note_on channel=0 note=78 velocity=0 time=7
note_on channel=0 note=91 velocity=85 time=0
note_on channel=0 note=90 velocity=0 time=21
control_change channel=0 control=64 value=98 time=29
control_change channel=0 control=64 value=69 time=15
note_on channel=0 note=90 velocity=88 time=0
note_on channel=0 note=66 velocity=79 time=5
note_on channel=0 note=78 velocity=95 time=3
note_on channel=0 note=62 velocity=71 time=1
control_change channel=0 control=64 value=59 time=7
note_on channel=0 note=91 velocity=0 time=13
control_change channel=0 control=64 value=67 time=1
control_change channel=0 control=64 value=73 time=15
control_change channel=0 control=64 value=80 time=16
control_change channel=0 control=64 value=96 time=14
note_on channel=0 note=78 velocity=0 time=10
control_change channel=0 control=64 value=127 time=5
note_on channel=0 note=90 velocity=0 time=24
note_on channel=0 note=66 velocity=0 time=18
note_on channel=0 note=62 velocity=0 time=21
note_on channel=0 note=87 velocity=61 time=203
note_on channel=0 note=76 velocity=88 time=2
note_on channel=0 note=88 velocity=97 time=0
note_on channel=0 note=64 velocity=65 time=3
note_on channel=0 note=61 velocity=55 time=6
note_on channel=0 note=87 velocity=0 time=13
note_on channel=0 note=76 velocity=0 time=1
note_on channel=0 note=88 velocity=0 time=26
note_on channel=0 note=64 velocity=0 time=36
note_on channel=0 note=90 velocity=103 time=3
note_on channel=0 note=66 velocity=73 time=3
note_on channel=0 note=62 velocity=71 time=1
note_on channel=0 note=78 velocity=89 time=0
note_on channel=0 note=61 velocity=0 time=6
note_on channel=0 note=78 velocity=0 time=39
note_on channel=0 note=66 velocity=0 time=11
note_on channel=0 note=62 velocity=0 time=11
note_on channel=0 note=90 velocity=0 time=0
note_on channel=0 note=87 velocity=88 time=69
note_on channel=0 note=90 velocity=85 time=10
note_on channel=0 note=78 velocity=68 time=3
note_on channel=0 note=78 velocity=0 time=17
note_on channel=0 note=87 velocity=0 time=23
note_on channel=0 note=91 velocity=65 time=11
note_on channel=0 note=90 velocity=0 time=5
control_change channel=0 control=64 value=77 time=7
control_change channel=0 control=64 value=65 time=15
note_on channel=0 note=78 velocity=92 time=10
note_on channel=0 note=90 velocity=90 time=1
control_change channel=0 control=64 value=71 time=4
note_on channel=0 note=66 velocity=81 time=5
note_on channel=0 note=62 velocity=72 time=3
control_change channel=0 control=64 value=80 time=8
note_on channel=0 note=91 velocity=0 time=5
control_change channel=0 control=64 value=89 time=9
control_change channel=0 control=64 value=102 time=16
note_on channel=0 note=78 velocity=0 time=7
control_change channel=0 control=64 value=127 time=8
note_on channel=0 note=90 velocity=0 time=10
note_on channel=0 note=66 velocity=0 time=73
note_on channel=0 note=62 velocity=0 time=7
note_on channel=0 note=88 velocity=99 time=164
note_on channel=0 note=76 velocity=92 time=2
note_on channel=0 note=61 velocity=60 time=3
note_on channel=0 note=64 velocity=66 time=1
note_on channel=0 note=76 velocity=0 time=18
note_on channel=0 note=88 velocity=0 time=17
note_on channel=0 note=78 velocity=97 time=49
note_on channel=0 note=90 velocity=109 time=0
note_on channel=0 note=64 velocity=0 time=2
note_on channel=0 note=61 velocity=0 time=3
note_on channel=0 note=62 velocity=67 time=10
note_on channel=0 note=66 velocity=74 time=3
note_on channel=0 note=78 velocity=0 time=19
note_on channel=0 note=90 velocity=0 time=9
note_on channel=0 note=66 velocity=0 time=32
note_on channel=0 note=62 velocity=0 time=11
note_on channel=0 note=93 velocity=97 time=224
note_on channel=0 note=81 velocity=79 time=8
note_on channel=0 note=90 velocity=75 time=4
note_on channel=0 note=66 velocity=62 time=2
control_change channel=0 control=64 value=95 time=1
note_on channel=0 note=57 velocity=57 time=1
note_on channel=0 note=69 velocity=60 time=0
control_change channel=0 control=64 value=70 time=14
control_change channel=0 control=64 value=0 time=15
note_on channel=0 note=90 velocity=0 time=51
control_change channel=0 control=64 value=32 time=10
control_change channel=0 control=64 value=62 time=15
control_change channel=0 control=64 value=68 time=15
control_change channel=0 control=64 value=73 time=15
control_change channel=0 control=64 value=78 time=15
control_change channel=0 control=64 value=83 time=16
control_change channel=0 control=64 value=87 time=15
control_change channel=0 control=64 value=92 time=15
control_change channel=0 control=64 value=97 time=16
control_change channel=0 control=64 value=102 time=15
note_on channel=0 note=81 velocity=0 time=7
control_change channel=0 control=64 value=107 time=9
control_change channel=0 control=64 value=113 time=14
note_on channel=0 note=69 velocity=0 time=14
control_change channel=0 control=64 value=127 time=1
note_on channel=0 note=66 velocity=0 time=23
note_on channel=0 note=93 velocity=0 time=11
note_on channel=0 note=57 velocity=0 time=231
note_on channel=0 note=90 velocity=86 time=17
note_on channel=0 note=78 velocity=89 time=12
note_on channel=0 note=66 velocity=65 time=4
note_on channel=0 note=62 velocity=60 time=6
note_on channel=0 note=90 velocity=0 time=59
note_on channel=0 note=66 velocity=0 time=34
note_on channel=0 note=78 velocity=0 time=27
control_change channel=0 control=64 value=99 time=101
control_change channel=0 control=64 value=71 time=16
note_on channel=0 note=62 velocity=0 time=9
control_change channel=0 control=64 value=0 time=6
note_on channel=0 note=64 velocity=66 time=3
note_on channel=0 note=88 velocity=97 time=3
note_on channel=0 note=76 velocity=85 time=1
note_on channel=0 note=81 velocity=73 time=3
note_on channel=0 note=57 velocity=60 time=2
control_change channel=0 control=64 value=43 time=33
control_change channel=0 control=64 value=66 time=16
note_on channel=0 note=64 velocity=0 time=5
control_change channel=0 control=64 value=75 time=9
note_on channel=0 note=57 velocity=0 time=6
control_change channel=0 control=64 value=84 time=9
control_change channel=0 control=64 value=95 time=16
control_change channel=0 control=64 value=107 time=15
control_change channel=0 control=64 value=127 time=16
note_on channel=0 note=33 velocity=60 time=284
note_on channel=0 note=33 velocity=0 time=39
note_on channel=0 note=45 velocity=69 time=4
note_on channel=0 note=45 velocity=0 time=25
note_on channel=0 note=81 velocity=0 time=79
note_on channel=0 note=88 velocity=0 time=45
note_on channel=0 note=76 velocity=0 time=12
control_change channel=0 control=64 value=105 time=65
control_change channel=0 control=64 value=83 time=16
note_on channel=0 note=88 velocity=98 time=14
control_change channel=0 control=64 value=80 time=1
note_on channel=0 note=60 velocity=69 time=0
note_on channel=0 note=64 velocity=73 time=0
note_on channel=0 note=76 velocity=92 time=1
note_on channel=0 note=84 velocity=87 time=0
note_on channel=0 note=57 velocity=62 time=5
control_change channel=0 control=64 value=91 time=7
control_change channel=0 control=64 value=107 time=15
note_on channel=0 note=64 velocity=0 time=9
control_change channel=0 control=64 value=127 time=6
note_on channel=0 note=60 velocity=0 time=4
note_on channel=0 note=57 velocity=0 time=14
note_on channel=0 note=33 velocity=67 time=450
note_on channel=0 note=40 velocity=72 time=38
note_on channel=0 note=33 velocity=0 time=14
note_on channel=0 note=40 velocity=0 time=18
note_on channel=0 note=84 velocity=0 time=25
note_on channel=0 note=88 velocity=0 time=5
note_on channel=0 note=76 velocity=0 time=65
note_on channel=0 note=60 velocity=66 time=114
note_on channel=0 note=88 velocity=99 time=0
note_on channel=0 note=76 velocity=94 time=1
note_on channel=0 note=64 velocity=73 time=2
note_on channel=0 note=84 velocity=86 time=1
note_on channel=0 note=57 velocity=64 time=8
note_on channel=0 note=64 velocity=0 time=17
note_on channel=0 note=60 velocity=0 time=17
note_on channel=0 note=57 velocity=0 time=8
note_on channel=0 note=76 velocity=0 time=171
note_on channel=0 note=88 velocity=0 time=66
note_on channel=0 note=84 velocity=0 time=19
note_on channel=0 note=33 velocity=70 time=53
note_on channel=0 note=40 velocity=84 time=49
note_on channel=0 note=33 velocity=0 time=25
note_on channel=0 note=40 velocity=0 time=21
note_on channel=0 note=88 velocity=84 time=101
note_on channel=0 note=76 velocity=67 time=3
note_on channel=0 note=89 velocity=89 time=18
note_on channel=0 note=76 velocity=0 time=6
note_on channel=0 note=88 velocity=0 time=13
control_change channel=0 control=64 value=115 time=15
control_change channel=0 control=64 value=81 time=15
note_on channel=0 note=89 velocity=0 time=4
control_change channel=0 control=64 value=67 time=12
note_on channel=0 note=88 velocity=88 time=1
note_on channel=0 note=76 velocity=96 time=4
note_on channel=0 note=60 velocity=72 time=6
note_on channel=0 note=64 velocity=79 time=1
control_change channel=0 control=64 value=71 time=2
control_change channel=0 control=64 value=80 time=15
control_change channel=0 control=64 value=89 time=16
note_on channel=0 note=85 velocity=20 time=14
note_on channel=0 note=76 velocity=0 time=4
control_change channel=0 control=64 value=102 time=3
control_change channel=0 control=64 value=127 time=18
note_on channel=0 note=88 velocity=0 time=3
note_on channel=0 note=64 velocity=0 time=7
note_on channel=0 note=85 velocity=0 time=8
note_on channel=0 note=60 velocity=0 time=6
note_on channel=0 note=62 velocity=63 time=257
note_on channel=0 note=86 velocity=94 time=1
note_on channel=0 note=74 velocity=92 time=3
note_on channel=0 note=59 velocity=56 time=7
note_on channel=0 note=74 velocity=0 time=21
note_on channel=0 note=86 velocity=0 time=25
note_on channel=0 note=62 velocity=0 time=27
note_on channel=0 note=60 velocity=65 time=8
note_on channel=0 note=59 velocity=0 time=1
note_on channel=0 note=88 velocity=100 time=0
note_on channel=0 note=76 velocity=88 time=7
note_on channel=0 note=64 velocity=66 time=2
note_on channel=0 note=76 velocity=0 time=35
note_on channel=0 note=64 velocity=0 time=26
note_on channel=0 note=88 velocity=0 time=1
note_on channel=0 note=60 velocity=0 time=16
note_on channel=0 note=76 velocity=89 time=61
note_on channel=0 note=88 velocity=84 time=9
note_on channel=0 note=84 velocity=50 time=14
note_on channel=0 note=89 velocity=82 time=10
note_on channel=0 note=76 velocity=0 time=7
note_on channel=0 note=84 velocity=0 time=4
note_on channel=0 note=88 velocity=0 time=7
control_change channel=0 control=64 value=89 time=5
control_change channel=0 control=64 value=63 time=16
note_on channel=0 note=91 velocity=22 time=1
note_on channel=0 note=91 velocity=0 time=1
control_change channel=0 control=64 value=0 time=13
note_on channel=0 note=64 velocity=73 time=10
note_on channel=0 note=60 velocity=66 time=2
note_on channel=0 note=88 velocity=86 time=2
control_change channel=0 control=64 value=14 time=1
note_on channel=0 note=76 velocity=91 time=6
control_change channel=0 control=64 value=59 time=9
note_on channel=0 note=89 velocity=0 time=12
control_change channel=0 control=64 value=67 time=3
control_change channel=0 control=64 value=77 time=16
control_change channel=0 control=64 value=91 time=15
note_on channel=0 note=76 velocity=0 time=0
control_change channel=0 control=64 value=113 time=16
note_on channel=0 note=88 velocity=0 time=8
control_change channel=0 control=64 value=127 time=7
note_on channel=0 note=64 velocity=0 time=30
note_on channel=0 note=60 velocity=0 time=15
note_on channel=0 note=86 velocity=98 time=210
note_on channel=0 note=59 velocity=61 time=3
note_on channel=0 note=74 velocity=88 time=2
note_on channel=0 note=62 velocity=61 time=6
note_on channel=0 note=74 velocity=0 time=15
note_on channel=0 note=86 velocity=0 time=25
note_on channel=0 note=62 velocity=0 time=33
note_on channel=0 note=88 velocity=104 time=0
note_on channel=0 note=76 velocity=101 time=1
note_on channel=0 note=64 velocity=67 time=12
note_on channel=0 note=59 velocity=0 time=2
note_on channel=0 note=60 velocity=55 time=4
note_on channel=0 note=76 velocity=0 time=14
note_on channel=0 note=88 velocity=0 time=9
note_on channel=0 note=64 velocity=0 time=7
note_on channel=0 note=60 velocity=0 time=6
note_on channel=0 note=91 velocity=99 time=248
note_on channel=0 note=79 velocity=93 time=6
note_on channel=0 note=88 velocity=72 time=7
note_on channel=0 note=55 velocity=58 time=2
note_on channel=0 note=64 velocity=59 time=2
control_change channel=0 control=64 value=117 time=2
note_on channel=0 note=67 velocity=55 time=2
control_change channel=0 control=64 value=83 time=14
note_on channel=0 note=89 velocity=39 time=5
note_on channel=0 note=89 velocity=0 time=1
control_change channel=0 control=64 value=54 time=8
control_change channel=0 control=64 value=0 time=16
control_change channel=0 control=64 value=30 time=60
control_change channel=0 control=64 value=62 time=15
control_change channel=0 control=64 value=70 time=24
note_on channel=0 note=88 velocity=0 time=11
control_change channel=0 control=64 value=76 time=4
control_change channel=0 control=64 value=82 time=15
control_change channel=0 control=64 value=88 time=15
control_change channel=0 control=64 value=93 time=16
control_change channel=0 control=64 value=99 time=15
note_on channel=0 note=67 velocity=0 time=13
control_change channel=0 control=64 value=110 time=2
control_change channel=0 control=64 value=127 time=15
note_on channel=0 note=64 velocity=0 time=12
note_on channel=0 note=79 velocity=0 time=27
note_on channel=0 note=91 velocity=0 time=97
note_on channel=0 note=55 velocity=0 time=207
note_on channel=0 note=88 velocity=87 time=11
note_on channel=0 note=76 velocity=79 time=6
note_on channel=0 note=60 velocity=48 time=6
note_on channel=0 note=64 velocity=57 time=15
note_on channel=0 note=88 velocity=0 time=38
note_on channel=0 note=76 velocity=0 time=132
control_change channel=0 control=64 value=102 time=58
note_on channel=0 note=60 velocity=0 time=7
control_change channel=0 control=64 value=76 time=7
control_change channel=0 control=64 value=37 time=16
note_on channel=0 note=86 velocity=88 time=6
note_on channel=0 note=79 velocity=74 time=13
note_on channel=0 note=62 velocity=55 time=1
note_on channel=0 note=74 velocity=76 time=1
note_on channel=0 note=55 velocity=50 time=1
note_on channel=0 note=64 velocity=0 time=0
control_change channel=0 control=64 value=0 time=1
control_change channel=0 control=64 value=56 time=15
control_change channel=0 control=64 value=65 time=15
control_change channel=0 control=64 value=70 time=15
control_change channel=0 control=64 value=76 time=16
control_change channel=0 control=64 value=84 time=15
note_on channel=0 note=62 velocity=0 time=5
control_change channel=0 control=64 value=91 time=10
note_on channel=0 note=55 velocity=0 time=6
control_change channel=0 control=64 value=96 time=9
control_change channel=0 control=64 value=98 time=15
control_change channel=0 control=64 value=102 time=16
control_change channel=0 control=64 value=109 time=14
control_change channel=0 control=64 value=127 time=17
note_on channel=0 note=31 velocity=65 time=228
note_on channel=0 note=31 velocity=0 time=35
note_on channel=0 note=43 velocity=74 time=0
note_on channel=0 note=43 velocity=0 time=33
note_on channel=0 note=86 velocity=0 time=115
note_on channel=0 note=74 velocity=0 time=11
note_on channel=0 note=79 velocity=0 time=49
control_change channel=0 control=64 value=88 time=30
note_on channel=0 note=86 velocity=94 time=12
control_change channel=0 control=64 value=68 time=3
note_on channel=0 note=62 velocity=71 time=1
note_on channel=0 note=82 velocity=91 time=0
note_on channel=0 note=74 velocity=88 time=3
note_on channel=0 note=58 velocity=65 time=3
note_on channel=0 note=55 velocity=60 time=3
control_change channel=0 control=64 value=68 time=6
control_change channel=0 control=64 value=74 time=15
control_change channel=0 control=64 value=80 time=14
control_change channel=0 control=64 value=88 time=16
note_on channel=0 note=62 velocity=0 time=4
note_on channel=0 note=58 velocity=0 time=15
control_change channel=0 control=64 value=98 time=3
note_on channel=0 note=55 velocity=0 time=8
control_change channel=0 control=64 value=111 time=8
control_change channel=0 control=64 value=122 time=15
control_change channel=0 control=64 value=127 time=16
note_on channel=0 note=31 velocity=71 time=414
note_on channel=0 note=38 velocity=72 time=45
note_on channel=0 note=31 velocity=0 time=5
note_on channel=0 note=38 velocity=0 time=24
note_on channel=0 note=86 velocity=0 time=35
note_on channel=0 note=82 velocity=0 time=3
note_on channel=0 note=74 velocity=0 time=67
note_on channel=0 note=86 velocity=104 time=98
note_on channel=0 note=62 velocity=73 time=5
note_on channel=0 note=74 velocity=94 time=0
note_on channel=0 note=82 velocity=94 time=3
note_on channel=0 note=58 velocity=71 time=3
note_on channel=0 note=55 velocity=58 time=10
note_on channel=0 note=62 velocity=0 time=22
note_on channel=0 note=58 velocity=0 time=24
note_on channel=0 note=55 velocity=0 time=3
note_on channel=0 note=74 velocity=0 time=190
note_on channel=0 note=82 velocity=0 time=123
note_on channel=0 note=86 velocity=0 time=38
note_on channel=0 note=31 velocity=76 time=6
note_on channel=0 note=38 velocity=79 time=39
note_on channel=0 note=31 velocity=0 time=16
note_on channel=0 note=38 velocity=0 time=14
note_on channel=0 note=74 velocity=71 time=120
note_on channel=0 note=86 velocity=81 time=5
note_on channel=0 note=74 velocity=0 time=16
note_on channel=0 note=88 velocity=69 time=11
note_on channel=0 note=86 velocity=0 time=1
note_on channel=0 note=89 velocity=73 time=3
note_on channel=0 note=83 velocity=35 time=6
note_on channel=0 note=89 velocity=0 time=10
control_change channel=0 control=64 value=92 time=12
note_on channel=0 note=83 velocity=0 time=10
control_change channel=0 control=64 value=72 time=5
note_on channel=0 note=74 velocity=96 time=11
note_on channel=0 note=86 velocity=92 time=0
control_change channel=0 control=64 value=68 time=4
note_on channel=0 note=62 velocity=68 time=5
note_on channel=0 note=58 velocity=64 time=9
control_change channel=0 control=64 value=75 time=2
note_on channel=0 note=88 velocity=0 time=13
control_change channel=0 control=64 value=84 time=2
control_change channel=0 control=64 value=92 time=14
control_change channel=0 control=64 value=104 time=16
note_on channel=0 note=74 velocity=0 time=14
control_change channel=0 control=64 value=127 time=8
note_on channel=0 note=86 velocity=0 time=24
note_on channel=0 note=62 velocity=0 time=35
note_on channel=0 note=58 velocity=0 time=28
note_on channel=0 note=85 velocity=93 time=211
note_on channel=0 note=73 velocity=84 time=8
note_on channel=0 note=61 velocity=69 time=4
note_on channel=0 note=57 velocity=58 time=2
control_change channel=0 control=64 value=104 time=8
note_on channel=0 note=73 velocity=0 time=7
control_change channel=0 control=64 value=101 time=9
control_change channel=0 control=64 value=102 time=15
note_on channel=0 note=85 velocity=0 time=3
control_change channel=0 control=64 value=109 time=13
control_change channel=0 control=64 value=127 time=15
note_on channel=0 note=86 velocity=101 time=9
note_on channel=0 note=61 velocity=0 time=3
note_on channel=0 note=62 velocity=67 time=1
note_on channel=0 note=74 velocity=88 time=0
note_on channel=0 note=57 velocity=0 time=2
note_on channel=0 note=58 velocity=69 time=4
note_on channel=0 note=74 velocity=0 time=25
note_on channel=0 note=62 velocity=0 time=11
note_on channel=0 note=86 velocity=0 time=20
note_on channel=0 note=58 velocity=0 time=19
note_on channel=0 note=74 velocity=85 time=60
note_on channel=0 note=86 velocity=87 time=9
note_on channel=0 note=82 velocity=74 time=2
note_on channel=0 note=74 velocity=0 time=14
note_on channel=0 note=82 velocity=0 time=11
note_on channel=0 note=88 velocity=81 time=2
note_on channel=0 note=86 velocity=0 time=19
control_change channel=0 control=64 value=102 time=16
control_change channel=0 control=64 value=65 time=15
note_on channel=0 note=88 velocity=0 time=0
note_on channel=0 note=86 velocity=77 time=6
note_on channel=0 note=62 velocity=64 time=7
control_change channel=0 control=64 value=0 time=2
note_on channel=0 note=74 velocity=95 time=1
note_on channel=0 note=58 velocity=58 time=1
note_on channel=0 note=88 velocity=28 time=13
note_on channel=0 note=88 velocity=0 time=20
control_change channel=0 control=64 value=43 time=26
note_on channel=0 note=74 velocity=0 time=13
control_change channel=0 control=64 value=65 time=2
control_change channel=0 control=64 value=73 time=16
control_change channel=0 control=64 value=81 time=15
control_change channel=0 control=64 value=90 time=23
note_on channel=0 note=86 velocity=0 time=11
control_change channel=0 control=64 value=97 time=4
control_change channel=0 control=64 value=101 time=15
note_on channel=0 note=62 velocity=0 time=14
control_change channel=0 control=64 value=103 time=1
control_change channel=0 control=64 value=109 time=15
note_on channel=0 note=58 velocity=0 time=2
control_change channel=0 control=64 value=124 time=13
control_change channel=0 control=64 value=127 time=16
note_on channel=0 note=61 velocity=61 time=268
note_on channel=0 note=85 velocity=85 time=4
note_on channel=0 note=57 velocity=48 time=3
note_on channel=0 note=73 velocity=69 time=5
note_on channel=0 note=73 velocity=0 time=26
control_change channel=0 control=64 value=94 time=3
control_change channel=0 control=64 value=71 time=15
control_change channel=0 control=64 value=48 time=16
control_change channel=0 control=64 value=64 time=15
control_change channel=0 control=64 value=70 time=15
note_on channel=0 note=61 velocity=0 time=0
note_on channel=0 note=62 velocity=61 time=0
note_on channel=0 note=86 velocity=87 time=0
note_on channel=0 note=74 velocity=86 time=1
note_on channel=0 note=85 velocity=0 time=9
control_change channel=0 control=64 value=76 time=5
note_on channel=0 note=58 velocity=61 time=14
control_change channel=0 control=64 value=85 time=1
control_change channel=0 control=64 value=96 time=16
note_on channel=0 note=62 velocity=0 time=5
control_change channel=0 control=64 value=107 time=10
control_change channel=0 control=64 value=127 time=15
note_on channel=0 note=86 velocity=0 time=0
note_on channel=0 note=57 velocity=0 time=10
note_on channel=0 note=58 velocity=0 time=4
note_on channel=0 note=74 velocity=0 time=114
control_change channel=0 control=64 value=107 time=201
control_change channel=0 control=64 value=80 time=17
control_change channel=0 control=64 value=59 time=15
note_on channel=0 note=33 velocity=53 time=13
control_change channel=0 control=64 value=0 time=2
note_on channel=0 note=45 velocity=52 time=5
note_on channel=0 note=81 velocity=74 time=4
note_on channel=0 note=69 velocity=61 time=3
note_on channel=0 note=78 velocity=61 time=0
control_change channel=0 control=64 value=50 time=3
control_change channel=0 control=64 value=64 time=16
control_change channel=0 control=64 value=68 time=15
note_on channel=0 note=69 velocity=0 time=12
control_change channel=0 control=64 value=76 time=3
control_change channel=0 control=64 value=88 time=15
note_on channel=0 note=33 velocity=0 time=3
control_change channel=0 control=64 value=104 time=12
control_change channel=0 control=64 value=127 time=15
note_on channel=0 note=81 velocity=0 time=4
note_on channel=0 note=78 velocity=0 time=7
note_on channel=0 note=45 velocity=0 time=22
note_on channel=0 note=86 velocity=97 time=281
note_on channel=0 note=62 velocity=87 time=1
note_on channel=0 note=54 velocity=75 time=3
note_on channel=0 note=74 velocity=85 time=3
note_on channel=0 note=78 velocity=80 time=3
note_on channel=0 note=74 velocity=0 time=21
note_on channel=0 note=78 velocity=0 time=0
note_on channel=0 note=86 velocity=0 time=19
note_on channel=0 note=90 velocity=102 time=88
note_on channel=0 note=78 velocity=102 time=2
note_on channel=0 note=66 velocity=94 time=1
note_on channel=0 note=86 velocity=90 time=0
note_on channel=0 note=57 velocity=74 time=4
note_on channel=0 note=62 velocity=0 time=5
note_on channel=0 note=54 velocity=0 time=63
note_on channel=0 note=78 velocity=0 time=20
note_on channel=0 note=86 velocity=0 time=18
note_on channel=0 note=90 velocity=0 time=41
note_on channel=0 note=66 velocity=0 time=20
note_on channel=0 note=93 velocity=99 time=129
note_on channel=0 note=90 velocity=91 time=8
note_on channel=0 note=57 velocity=0 time=1
note_on channel=0 note=81 velocity=87 time=1
note_on channel=0 note=69 velocity=87 time=2
note_on channel=0 note=62 velocity=74 time=3
note_on channel=0 note=81 velocity=0 time=11
note_on channel=0 note=93 velocity=0 time=29
note_on channel=0 note=90 velocity=0 time=8
note_on channel=0 note=69 velocity=0 time=68
note_on channel=0 note=90 velocity=97 time=259
note_on channel=0 note=78 velocity=81 time=7
note_on channel=0 note=66 velocity=72 time=1
note_on channel=0 note=62 velocity=0 time=1
note_on channel=0 note=90 velocity=0 time=5
note_on channel=0 note=57 velocity=60 time=10
note_on channel=0 note=78 velocity=0 time=1
note_on channel=0 note=66 velocity=0 time=84
note_on channel=0 note=86 velocity=95 time=3
note_on channel=0 note=74 velocity=87 time=7
note_on channel=0 note=54 velocity=67 time=20
note_on channel=0 note=57 velocity=0 time=5
note_on channel=0 note=62 velocity=67 time=0
note_on channel=0 note=78 velocity=54 time=11
note_on channel=0 note=78 velocity=0 time=25
note_on channel=0 note=54 velocity=0 time=71
note_on channel=0 note=86 velocity=0 time=85
note_on channel=0 note=74 velocity=0 time=26
note_on channel=0 note=88 velocity=96 time=117
control_change channel=0 control=64 value=109 time=2
note_on channel=0 note=76 velocity=85 time=2
note_on channel=0 note=81 velocity=68 time=0
note_on channel=0 note=64 velocity=64 time=4
note_on channel=0 note=85 velocity=76 time=4
note_on channel=0 note=62 velocity=0 time=3
note_on channel=0 note=57 velocity=59 time=2
control_change channel=0 control=64 value=78 time=1
control_change channel=0 control=64 value=14 time=15
note_on channel=0 note=81 velocity=0 time=10
control_change channel=0 control=64 value=0 time=6
control_change channel=0 control=64 value=60 time=75
control_change channel=0 control=64 value=69 time=16
control_change channel=0 control=64 value=73 time=15
control_change channel=0 control=64 value=76 time=16
control_change channel=0 control=64 value=79 time=15
control_change channel=0 control=64 value=83 time=15
control_change channel=0 control=64 value=88 time=16
control_change channel=0 control=64 value=93 time=15
control_change channel=0 control=64 value=98 time=16
control_change channel=0 control=64 value=100 time=15
control_change channel=0 control=64 value=103 time=14
control_change channel=0 control=64 value=107 time=17
note_on channel=0 note=88 velocity=0 time=5
note_on channel=0 note=76 velocity=0 time=6
control_change channel=0 control=64 value=112 time=3
control_change channel=0 control=64 value=117 time=15
control_change channel=0 control=64 value=127 time=16
note_on channel=0 note=85 velocity=0 time=31
note_on channel=0 note=57 velocity=0 time=86
note_on channel=0 note=81 velocity=96 time=168
note_on channel=0 note=57 velocity=63 time=3
note_on channel=0 note=69 velocity=81 time=2
note_on channel=0 note=64 velocity=0 time=12
note_on channel=0 note=69 velocity=0 time=8
note_on channel=0 note=81 velocity=0 time=19
note_on channel=0 note=57 velocity=0 time=43
note_on channel=0 note=90 velocity=91 time=239
note_on channel=0 note=86 velocity=73 time=2
control_change channel=0 control=64 value=97 time=2
note_on channel=0 note=81 velocity=62 time=0
note_on channel=0 note=78 velocity=68 time=9
note_on channel=0 note=66 velocity=59 time=2
control_change channel=0 control=64 value=74 time=4
note_on channel=0 note=57 velocity=38 time=6
note_on channel=0 note=62 velocity=52 time=1
note_on channel=0 note=54 velocity=46 time=2
control_change channel=0 control=64 value=0 time=6
control_change channel=0 control=64 value=21 time=92
control_change channel=0 control=64 value=62 time=16
note_on channel=0 note=66 velocity=0 time=14
control_change channel=0 control=64 value=68 time=1
control_change channel=0 control=64 value=74 time=15
control_change channel=0 control=64 value=78 time=15
control_change channel=0 control=64 value=82 time=15
note_on channel=0 note=62 velocity=0 time=2
control_change channel=0 control=64 value=86 time=14
note_on channel=0 note=57 velocity=0 time=14
control_change channel=0 control=64 value=89 time=1
control_change channel=0 control=64 value=93 time=23
note_on channel=0 note=54 velocity=0 time=8
control_change channel=0 control=64 value=96 time=7
control_change channel=0 control=64 value=99 time=15
control_change channel=0 control=64 value=101 time=16
control_change channel=0 control=64 value=103 time=15
control_change channel=0 control=64 value=105 time=14
control_change channel=0 control=64 value=106 time=16
control_change channel=0 control=64 value=109 time=15
control_change channel=0 control=64 value=110 time=16
control_change channel=0 control=64 value=110 time=60
control_change channel=0 control=64 value=109 time=167
control_change channel=0 control=64 value=100 time=16
note_on channel=0 note=38 velocity=60 time=14
control_change channel=0 control=64 value=87 time=1
control_change channel=0 control=64 value=75 time=15
control_change channel=0 control=64 value=74 time=15
control_change channel=0 control=64 value=79 time=15
note_on channel=0 note=45 velocity=67 time=0
note_on channel=0 note=38 velocity=0 time=7
control_change channel=0 control=64 value=83 time=8
note_on channel=0 note=45 velocity=0 time=15
control_change channel=0 control=64 value=88 time=1
control_change channel=0 control=64 value=95 time=14
control_change channel=0 control=64 value=103 time=16
control_change channel=0 control=64 value=110 time=15
control_change channel=0 control=64 value=112 time=15
note_on channel=0 note=90 velocity=0 time=2
control_change channel=0 control=64 value=113 time=44
control_change channel=0 control=64 value=117 time=15
note_on channel=0 note=78 velocity=0 time=9
note_on channel=0 note=81 velocity=0 time=4
control_change channel=0 control=64 value=123 time=2
note_on channel=0 note=86 velocity=0 time=5
control_change channel=0 control=64 value=126 time=10
control_change channel=0 control=64 value=124 time=123
control_change channel=0 control=64 value=121 time=129
control_change channel=0 control=64 value=117 time=15
control_change channel=0 control=64 value=114 time=16
control_change channel=0 control=64 value=112 time=15
control_change channel=0 control=64 value=110 time=14
control_change channel=0 control=64 value=107 time=16
control_change channel=0 control=64 value=104 time=15
control_change channel=0 control=64 value=101 time=16
control_change channel=0 control=64 value=96 time=15
control_change channel=0 control=64 value=90 time=14
note_on channel=0 note=88 velocity=68 time=5
note_on channel=0 note=64 velocity=41 time=8
note_on channel=0 note=76 velocity=47 time=0
control_change channel=0 control=64 value=83 time=3
note_on channel=0 note=57 velocity=40 time=2
note_on channel=0 note=85 velocity=48 time=10
control_change channel=0 control=64 value=73 time=3
note_on channel=0 note=81 velocity=28 time=7
control_change channel=0 control=64 value=54 time=7
control_change channel=0 control=64 value=0 time=16
control_change channel=0 control=64 value=14 time=91
control_change channel=0 control=64 value=49 time=16
control_change channel=0 control=64 value=60 time=15
control_change channel=0 control=64 value=63 time=15
control_change channel=0 control=64 value=65 time=16
control_change channel=0 control=64 value=68 time=15
control_change channel=0 control=64 value=70 time=15
control_change channel=0 control=64 value=72 time=15
control_change channel=0 control=64 value=75 time=15
control_change channel=0 control=64 value=78 time=16
control_change channel=0 control=64 value=80 time=15
control_change channel=0 control=64 value=83 time=14
control_change channel=0 control=64 value=85 time=16
control_change channel=0 control=64 value=88 time=15
control_change channel=0 control=64 value=91 time=15
note_on channel=0 note=88 velocity=0 time=2
control_change channel=0 control=64 value=94 time=14
control_change channel=0 control=64 value=96 time=14
control_change channel=0 control=64 value=100 time=16
note_on channel=0 note=76 velocity=0 time=14
control_change channel=0 control=64 value=104 time=1
note_on channel=0 note=81 velocity=0 time=2
note_on channel=0 note=57 velocity=0 time=10
note_on channel=0 note=85 velocity=0 time=1
control_change channel=0 control=64 value=108 time=2
control_change channel=0 control=64 value=111 time=17
control_change channel=0 control=64 value=117 time=14
control_change channel=0 control=64 value=127 time=16
note_on channel=0 note=81 velocity=72 time=125
note_on channel=0 note=57 velocity=43 time=2
note_on channel=0 note=69 velocity=52 time=7
note_on channel=0 note=64 velocity=0 time=17
note_on channel=0 note=81 velocity=0 time=3
note_on channel=0 note=69 velocity=0 time=3
note_on channel=0 note=57 velocity=0 time=56
control_change channel=0 control=64 value=103 time=235
control_change channel=0 control=64 value=86 time=15
note_on channel=0 note=90 velocity=68 time=2
control_change channel=0 control=64 value=68 time=12
note_on channel=0 note=78 velocity=42 time=4
note_on channel=0 note=86 velocity=46 time=6
control_change channel=0 control=64 value=46 time=6
note_on channel=0 note=62 velocity=34 time=0
note_on channel=0 note=81 velocity=30 time=2
note_on channel=0 note=66 velocity=34 time=1
note_on channel=0 note=57 velocity=25 time=1
control_change channel=0 control=64 value=51 time=11
note_on channel=0 note=54 velocity=42 time=3
control_change channel=0 control=64 value=60 time=13
control_change channel=0 control=64 value=63 time=15
control_change channel=0 control=64 value=64 time=15
control_change channel=0 control=64 value=67 time=16
control_change channel=0 control=64 value=70 time=15
control_change channel=0 control=64 value=73 time=16
control_change channel=0 control=64 value=76 time=14
note_on channel=0 note=66 velocity=0 time=13
control_change channel=0 control=64 value=79 time=2
control_change channel=0 control=64 value=81 time=16
control_change channel=0 control=64 value=84 time=15
control_change channel=0 control=64 value=87 time=15
note_on channel=0 note=62 velocity=0 time=4
control_change channel=0 control=64 value=89 time=12
control_change channel=0 control=64 value=92 time=15
note_on channel=0 note=57 velocity=0 time=13
control_change channel=0 control=64 value=95 time=3
control_change channel=0 control=64 value=98 time=14
control_change channel=0 control=64 value=100 time=15
note_on channel=0 note=54 velocity=0 time=4
control_change channel=0 control=64 value=104 time=12
control_change channel=0 control=64 value=107 time=16
control_change channel=0 control=64 value=111 time=15
control_change channel=0 control=64 value=114 time=23
control_change channel=0 control=64 value=117 time=14
control_change channel=0 control=64 value=119 time=16
control_change channel=0 control=64 value=120 time=15
control_change channel=0 control=64 value=124 time=16
control_change channel=0 control=64 value=127 time=15
note_on channel=0 note=38 velocity=49 time=201
control_change channel=0 control=64 value=110 time=11
control_change channel=0 control=64 value=103 time=16
control_change channel=0 control=64 value=103 time=15
note_on channel=0 note=90 velocity=0 time=8
note_on channel=0 note=38 velocity=0 time=4
note_on channel=0 note=45 velocity=53 time=14
control_change channel=0 control=64 value=103 time=4
control_change channel=0 control=64 value=105 time=15
note_on channel=0 note=45 velocity=0 time=15
control_change channel=0 control=64 value=110 time=1
note_on channel=0 note=78 velocity=0 time=4
note_on channel=0 note=81 velocity=0 time=2
control_change channel=0 control=64 value=117 time=9
control_change channel=0 control=64 value=127 time=15
note_on channel=0 note=86 velocity=0 time=22
control_change channel=0 control=64 value=94 time=380
control_change channel=0 control=64 value=62 time=16
note_on channel=0 note=64 velocity=73 time=6
note_on channel=0 note=88 velocity=96 time=0
note_on channel=0 note=57 velocity=68 time=3
note_on channel=0 note=76 velocity=86 time=5
control_change channel=0 control=64 value=0 time=1
note_on channel=0 note=85 velocity=73 time=3
control_change channel=0 control=64 value=51 time=12
control_change channel=0 control=64 value=64 time=15
note_on channel=0 note=85 velocity=0 time=6
note_on channel=0 note=76 velocity=0 time=4
control_change channel=0 control=64 value=71 time=5
control_change channel=0 control=64 value=81 time=16
control_change channel=0 control=64 value=96 time=15
note_on channel=0 note=88 velocity=0 time=11
control_change channel=0 control=64 value=121 time=3
control_change channel=0 control=64 value=127 time=16
note_on channel=0 note=64 velocity=0 time=64
note_on channel=0 note=57 velocity=0 time=67
note_on channel=0 note=93 velocity=100 time=190
note_on channel=0 note=69 velocity=79 time=6
note_on channel=0 note=81 velocity=87 time=0
note_on channel=0 note=81 velocity=0 time=22
note_on channel=0 note=93 velocity=0 time=13
note_on channel=0 note=69 velocity=0 time=6
note_on channel=0 note=88 velocity=99 time=55
note_on channel=0 note=64 velocity=71 time=7
note_on channel=0 note=57 velocity=71 time=2
note_on channel=0 note=76 velocity=94 time=1
note_on channel=0 note=85 velocity=78 time=5
note_on channel=0 note=57 velocity=0 time=116
note_on channel=0 note=64 velocity=0 time=3
note_on channel=0 note=76 velocity=0 time=40
note_on channel=0 note=85 velocity=0 time=17
note_on channel=0 note=88 velocity=0 time=6
note_on channel=0 note=64 velocity=78 time=83
note_on channel=0 note=57 velocity=64 time=2
note_on channel=0 note=88 velocity=102 time=1
note_on channel=0 note=76 velocity=90 time=3
note_on channel=0 note=85 velocity=80 time=11
note_on channel=0 note=76 velocity=0 time=20
note_on channel=0 note=85 velocity=0 time=4
note_on channel=0 note=88 velocity=0 time=14
note_on channel=0 note=64 velocity=0 time=7
note_on channel=0 note=57 velocity=0 time=19
note_on channel=0 note=93 velocity=101 time=265
note_on channel=0 note=81 velocity=90 time=3
note_on channel=0 note=69 velocity=85 time=7
note_on channel=0 note=81 velocity=0 time=18
note_on channel=0 note=93 velocity=0 time=13
note_on channel=0 note=69 velocity=0 time=10
note_on channel=0 note=88 velocity=98 time=56
note_on channel=0 note=76 velocity=95 time=3
note_on channel=0 note=57 velocity=68 time=5
note_on channel=0 note=64 velocity=71 time=1
note_on channel=0 note=64 velocity=0 time=28
note_on channel=0 note=57 velocity=0 time=20
note_on channel=0 note=88 velocity=0 time=11
note_on channel=0 note=76 velocity=0 time=84
control_change channel=0 control=64 value=77 time=136
note_on channel=0 note=90 velocity=98 time=2
note_on channel=0 note=86 velocity=82 time=3
note_on channel=0 note=78 velocity=86 time=1
note_on channel=0 note=81 velocity=76 time=1
note_on channel=0 note=66 velocity=75 time=3
control_change channel=0 control=64 value=0 time=5
note_on channel=0 note=62 velocity=60 time=1
note_on channel=0 note=54 velocity=63 time=1
note_on channel=0 note=57 velocity=59 time=5
control_change channel=0 control=64 value=33 time=55
control_change channel=0 control=64 value=67 time=15
note_on channel=0 note=66 velocity=0 time=1
control_change channel=0 control=64 value=75 time=15
note_on channel=0 note=62 velocity=0 time=14
control_change channel=0 control=64 value=83 time=1
note_on channel=0 note=54 velocity=0 time=10
control_change channel=0 control=64 value=91 time=5
note_on channel=0 note=57 velocity=0 time=1
control_change channel=0 control=64 value=96 time=14
control_change channel=0 control=64 value=100 time=15
control_change channel=0 control=64 value=102 time=16
control_change channel=0 control=64 value=106 time=15
control_change channel=0 control=64 value=111 time=15
control_change channel=0 control=64 value=115 time=16
control_change channel=0 control=64 value=116 time=14
control_change channel=0 control=64 value=117 time=15
control_change channel=0 control=64 value=119 time=16
control_change channel=0 control=64 value=127 time=15
control_change channel=0 control=64 value=109 time=139
control_change channel=0 control=64 value=94 time=15
control_change channel=0 control=64 value=88 time=16
note_on channel=0 note=38 velocity=65 time=9
control_change channel=0 control=64 value=89 time=6
control_change channel=0 control=64 value=95 time=14
control_change channel=0 control=64 value=103 time=16
note_on channel=0 note=45 velocity=75 time=4
control_change channel=0 control=64 value=115 time=11
note_on channel=0 note=38 velocity=0 time=6
control_change channel=0 control=64 value=127 time=11
note_on channel=0 note=45 velocity=0 time=2
note_on channel=0 note=90 velocity=0 time=104
note_on channel=0 note=86 velocity=0 time=49
note_on channel=0 note=78 velocity=0 time=1
note_on channel=0 note=81 velocity=0 time=30
control_change channel=0 control=64 value=84 time=48
note_on channel=0 note=90 velocity=99 time=10
note_on channel=0 note=86 velocity=90 time=4
control_change channel=0 control=64 value=68 time=2
note_on channel=0 note=81 velocity=77 time=1
note_on channel=0 note=78 velocity=82 time=1
note_on channel=0 note=62 velocity=63 time=4
note_on channel=0 note=66 velocity=71 time=1
note_on channel=0 note=57 velocity=54 time=9
note_on channel=0 note=54 velocity=54 time=1
control_change channel=0 control=64 value=76 time=14
note_on channel=0 note=66 velocity=0 time=6
control_change channel=0 control=64 value=83 time=8
control_change channel=0 control=64 value=92 time=16
note_on channel=0 note=54 velocity=0 time=10
note_on channel=0 note=62 velocity=0 time=2
control_change channel=0 control=64 value=100 time=4
note_on channel=0 note=57 velocity=0 time=14
control_change channel=0 control=64 value=109 time=1
control_change channel=0 control=64 value=114 time=15
control_change channel=0 control=64 value=119 time=16
control_change channel=0 control=64 value=127 time=14
control_change channel=0 control=64 value=112 time=364
control_change channel=0 control=64 value=94 time=16
note_on channel=0 note=38 velocity=60 time=8
control_change channel=0 control=64 value=81 time=7
control_change channel=0 control=64 value=79 time=15
control_change channel=0 control=64 value=83 time=16
note_on channel=0 note=38 velocity=0 time=0
note_on channel=0 note=45 velocity=68 time=0
control_change channel=0 control=64 value=91 time=15
note_on channel=0 note=45 velocity=0 time=12
control_change channel=0 control=64 value=99 time=4
control_change channel=0 control=64 value=107 time=15
control_change channel=0 control=64 value=116 time=14
control_change channel=0 control=64 value=127 time=16
note_on channel=0 note=81 velocity=0 time=33
note_on channel=0 note=90 velocity=0 time=62
note_on channel=0 note=86 velocity=0 time=56
note_on channel=0 note=78 velocity=0 time=10
control_change channel=0 control=64 value=108 time=75
control_change channel=0 control=64 value=87 time=15
control_change channel=0 control=64 value=70 time=15
note_on channel=0 note=86 velocity=71 time=0
note_on channel=0 note=90 velocity=83 time=0
note_on channel=0 note=78 velocity=66 time=5
note_on channel=0 note=81 velocity=62 time=1
note_on channel=0 note=62 velocity=49 time=3
note_on channel=0 note=66 velocity=53 time=3
control_change channel=0 control=64 value=65 time=4
note_on channel=0 note=57 velocity=38 time=0
note_on channel=0 note=54 velocity=44 time=6
control_change channel=0 control=64 value=71 time=9
control_change channel=0 control=64 value=77 time=15
control_change channel=0 control=64 value=83 time=15
control_change channel=0 control=64 value=88 time=15
note_on channel=0 note=66 velocity=0 time=14
control_change channel=0 control=64 value=94 time=2
control_change channel=0 control=64 value=99 time=15
control_change channel=0 control=64 value=103 time=15
note_on channel=0 note=62 velocity=0 time=15
control_change channel=0 control=64 value=105 time=1
control_change channel=0 control=64 value=107 time=14
control_change channel=0 control=64 value=109 time=16
control_change channel=0 control=64 value=111 time=15
note_on channel=0 note=54 velocity=0 time=2
note_on channel=0 note=57 velocity=0 time=2
control_change channel=0 control=64 value=112 time=11
control_change channel=0 control=64 value=113 time=15
control_change channel=0 control=64 value=114 time=30
control_change channel=0 control=64 value=113 time=310
control_change channel=0 control=64 value=111 time=16
control_change channel=0 control=64 value=106 time=15
control_change channel=0 control=64 value=99 time=15
control_change channel=0 control=64 value=88 time=16
control_change channel=0 control=64 value=77 time=15
control_change channel=0 control=64 value=72 time=16
control_change channel=0 control=64 value=73 time=15
control_change channel=0 control=64 value=74 time=15
note_on channel=0 note=38 velocity=48 time=3
control_change channel=0 control=64 value=74 time=12
control_change channel=0 control=64 value=76 time=15
control_change channel=0 control=64 value=78 time=15
control_change channel=0 control=64 value=80 time=16
control_change channel=0 control=64 value=83 time=14
note_on channel=0 note=45 velocity=47 time=0
control_change channel=0 control=64 value=85 time=16
control_change channel=0 control=64 value=87 time=15
control_change channel=0 control=67 value=8 time=0
control_change channel=0 control=64 value=89 time=16
control_change channel=0 control=67 value=9 time=0
control_change channel=0 control=64 value=91 time=16
control_change channel=0 control=67 value=11 time=0
control_change channel=0 control=64 value=92 time=15
control_change channel=0 control=67 value=13 time=0
note_on channel=0 note=45 velocity=0 time=7
control_change channel=0 control=64 value=93 time=7
control_change channel=0 control=67 value=15 time=0
note_on channel=0 note=38 velocity=0 time=14
control_change channel=0 control=64 value=95 time=2
control_change channel=0 control=67 value=17 time=0
control_change channel=0 control=64 value=97 time=15
control_change channel=0 control=67 value=19 time=0
control_change channel=0 control=64 value=99 time=16
control_change channel=0 control=67 value=21 time=0
control_change channel=0 control=64 value=99 time=15
control_change channel=0 control=67 value=24 time=0
control_change channel=0 control=64 value=100 time=14
control_change channel=0 control=67 value=27 time=0
control_change channel=0 control=67 value=30 time=16
control_change channel=0 control=67 value=32 time=15
control_change channel=0 control=67 value=35 time=16
control_change channel=0 control=67 value=37 time=14
control_change channel=0 control=67 value=38 time=15
control_change channel=0 control=67 value=40 time=16
control_change channel=0 control=67 value=41 time=15
control_change channel=0 control=67 value=44 time=15
control_change channel=0 control=67 value=46 time=15
control_change channel=0 control=67 value=48 time=15
control_change channel=0 control=67 value=51 time=16
control_change channel=0 control=67 value=53 time=15
control_change channel=0 control=67 value=56 time=15
control_change channel=0 control=67 value=59 time=15
control_change channel=0 control=67 value=62 time=15
control_change channel=0 control=67 value=64 time=15
control_change channel=0 control=67 value=68 time=15
control_change channel=0 control=67 value=70 time=15
note_on channel=0 note=78 velocity=0 time=7
control_change channel=0 control=67 value=74 time=9
control_change channel=0 control=67 value=77 time=15
control_change channel=0 control=67 value=80 time=15
control_change channel=0 control=67 value=83 time=16
control_change channel=0 control=67 value=86 time=15
control_change channel=0 control=67 value=88 time=23
control_change channel=0 control=67 value=91 time=15
control_change channel=0 control=67 value=93 time=15
control_change channel=0 control=67 value=95 time=15
control_change channel=0 control=67 value=97 time=15
control_change channel=0 control=67 value=99 time=16
control_change channel=0 control=67 value=101 time=15
control_change channel=0 control=67 value=104 time=14
control_change channel=0 control=67 value=106 time=16
control_change channel=0 control=67 value=108 time=15
control_change channel=0 control=67 value=111 time=15
control_change channel=0 control=67 value=114 time=16
control_change channel=0 control=67 value=116 time=15
control_change channel=0 control=67 value=118 time=15
control_change channel=0 control=67 value=120 time=15
control_change channel=0 control=67 value=122 time=15
control_change channel=0 control=67 value=124 time=16
control_change channel=0 control=67 value=127 time=15
control_change channel=0 control=67 value=127 time=16
note_on channel=0 note=81 velocity=0 time=18
control_change channel=0 control=64 value=99 time=165
control_change channel=0 control=64 value=99 time=30
control_change channel=0 control=64 value=96 time=15
note_on channel=0 note=38 velocity=41 time=0
control_change channel=0 control=64 value=88 time=16
control_change channel=0 control=64 value=77 time=14
control_change channel=0 control=64 value=65 time=15
note_on channel=0 note=86 velocity=0 time=4
control_change channel=0 control=64 value=54 time=12
control_change channel=0 control=64 value=62 time=15
note_on channel=0 note=45 velocity=38 time=4
control_change channel=0 control=64 value=65 time=12
control_change channel=0 control=64 value=67 time=14
control_change channel=0 control=64 value=70 time=15
control_change channel=0 control=64 value=73 time=16
control_change channel=0 control=64 value=75 time=15
control_change channel=0 control=64 value=78 time=15
control_change channel=0 control=64 value=80 time=15
control_change channel=0 control=64 value=81 time=15
control_change channel=0 control=64 value=83 time=16
control_change channel=0 control=64 value=84 time=14
control_change channel=0 control=64 value=86 time=15
control_change channel=0 control=64 value=88 time=24
note_on channel=0 note=45 velocity=0 time=8
control_change channel=0 control=64 value=89 time=7
control_change channel=0 control=64 value=90 time=16
control_change channel=0 control=64 value=92 time=14
control_change channel=0 control=64 value=93 time=15
control_change channel=0 control=64 value=94 time=14
note_on channel=0 note=90 velocity=0 time=4
control_change channel=0 control=64 value=95 time=11
control_change channel=0 control=64 value=96 time=15
control_change channel=0 control=64 value=97 time=15
note_on channel=0 note=38 velocity=0 time=2
control_change channel=0 control=64 value=98 time=13
control_change channel=0 control=64 value=99 time=15
control_change channel=0 control=64 value=99 time=30
control_change channel=0 control=64 value=100 time=46
control_change channel=0 control=64 value=100 time=76
control_change channel=0 control=64 value=100 time=600
control_change channel=0 control=64 value=99 time=61
control_change channel=0 control=64 value=99 time=15
control_change channel=0 control=64 value=98 time=31
control_change channel=0 control=64 value=98 time=14
control_change channel=0 control=64 value=97 time=31
control_change channel=0 control=64 value=97 time=15
control_change channel=0 control=64 value=96 time=16
control_change channel=0 control=64 value=96 time=15
control_change channel=0 control=64 value=95 time=16
control_change channel=0 control=64 value=93 time=15
control_change channel=0 control=64 value=89 time=14
control_change channel=0 control=64 value=82 time=16
control_change channel=0 control=64 value=72 time=15
control_change channel=0 control=64 value=61 time=15
note_on channel=0 note=38 velocity=31 time=0
control_change channel=0 control=64 value=52 time=16
control_change channel=0 control=64 value=58 time=15
control_change channel=0 control=64 value=61 time=16
control_change channel=0 control=64 value=62 time=15
note_on channel=0 note=45 velocity=44 time=6
control_change channel=0 control=64 value=64 time=9
control_change channel=0 control=64 value=66 time=16
control_change channel=0 control=64 value=68 time=15
control_change channel=0 control=64 value=70 time=16
control_change channel=0 control=64 value=72 time=14
control_change channel=0 control=64 value=73 time=15
control_change channel=0 control=64 value=75 time=16
control_change channel=0 control=64 value=77 time=14
control_change channel=0 control=64 value=79 time=15
control_change channel=0 control=64 value=82 time=16
control_change channel=0 control=64 value=84 time=15
control_change channel=0 control=64 value=86 time=16
note_on channel=0 note=45 velocity=0 time=3
note_on channel=0 note=38 velocity=0 time=2
control_change channel=0 control=64 value=87 time=9
control_change channel=0 control=64 value=88 time=15
control_change channel=0 control=64 value=90 time=16
control_change channel=0 control=64 value=91 time=15
control_change channel=0 control=64 value=91 time=15
control_change channel=0 control=64 value=91 time=265
control_change channel=0 control=64 value=90 time=31
control_change channel=0 control=64 value=90 time=45
control_change channel=0 control=64 value=89 time=31
control_change channel=0 control=64 value=89 time=31
control_change channel=0 control=64 value=88 time=15
control_change channel=0 control=67 value=127 time=0
control_change channel=0 control=64 value=88 time=15
control_change channel=0 control=64 value=87 time=31
control_change channel=0 control=64 value=87 time=30
control_change channel=0 control=64 value=86 time=15
control_change channel=0 control=64 value=86 time=16
control_change channel=0 control=64 value=85 time=15
control_change channel=0 control=67 value=126 time=0
control_change channel=0 control=64 value=84 time=15
control_change channel=0 control=64 value=83 time=16
control_change channel=0 control=64 value=82 time=15
control_change channel=0 control=64 value=81 time=16
control_change channel=0 control=64 value=80 time=15
control_change channel=0 control=64 value=79 time=15
control_change channel=0 control=64 value=78 time=15
control_change channel=0 control=64 value=77 time=15
control_change channel=0 control=64 value=75 time=15
note_on channel=0 note=57 velocity=40 time=5
control_change channel=0 control=64 value=73 time=11
control_change channel=0 control=64 value=70 time=14
control_change channel=0 control=64 value=66 time=16
note_on channel=0 note=57 velocity=0 time=10
control_change channel=0 control=64 value=62 time=5
control_change channel=0 control=64 value=43 time=15
control_change channel=0 control=64 value=0 time=16
note_on channel=0 note=62 velocity=57 time=178
note_on channel=0 note=62 velocity=0 time=35
note_on channel=0 note=64 velocity=63 time=193
note_on channel=0 note=64 velocity=0 time=30
note_on channel=0 note=66 velocity=50 time=267
control_change channel=0 control=67 value=126 time=3
control_change channel=0 control=64 value=58 time=83
control_change channel=0 control=64 value=64 time=16
control_change channel=0 control=64 value=66 time=15
control_change channel=0 control=64 value=67 time=16
control_change channel=0 control=64 value=69 time=15
control_change channel=0 control=64 value=71 time=14
control_change channel=0 control=64 value=73 time=16
control_change channel=0 control=64 value=75 time=15
control_change channel=0 control=64 value=76 time=15
control_change channel=0 control=64 value=78 time=16
control_change channel=0 control=64 value=80 time=15
control_change channel=0 control=64 value=82 time=16
control_change channel=0 control=64 value=84 time=15
control_change channel=0 control=64 value=86 time=14
control_change channel=0 control=64 value=88 time=16
control_change channel=0 control=64 value=89 time=15
control_change channel=0 control=64 value=91 time=16
control_change channel=0 control=64 value=92 time=15
control_change channel=0 control=64 value=93 time=14
control_change channel=0 control=64 value=94 time=16
control_change channel=0 control=64 value=95 time=15
control_change channel=0 control=64 value=96 time=14
control_change channel=0 control=64 value=97 time=16
note_on channel=0 note=66 velocity=0 time=234
control_change channel=0 control=67 value=125 time=71
control_change channel=0 control=64 value=96 time=252
control_change channel=0 control=64 value=96 time=15
control_change channel=0 control=64 value=95 time=45
control_change channel=0 control=64 value=95 time=15
control_change channel=0 control=64 value=94 time=30
control_change channel=0 control=64 value=94 time=16
control_change channel=0 control=64 value=93 time=15
control_change channel=0 control=64 value=90 time=14
note_on channel=0 note=66 velocity=44 time=10
control_change channel=0 control=64 value=86 time=6
control_change channel=0 control=64 value=77 time=15
control_change channel=0 control=64 value=69 time=16
control_change channel=0 control=64 value=64 time=15
control_change channel=0 control=64 value=64 time=31
control_change channel=0 control=64 value=65 time=15
control_change channel=0 control=64 value=67 time=15
control_change channel=0 control=64 value=68 time=15
control_change channel=0 control=64 value=70 time=15
control_change channel=0 control=64 value=72 time=16
control_change channel=0 control=64 value=74 time=15
control_change channel=0 control=64 value=75 time=15
control_change channel=0 control=67 value=125 time=0
control_change channel=0 control=64 value=76 time=15
control_change channel=0 control=64 value=77 time=15
control_change channel=0 control=64 value=79 time=16
control_change channel=0 control=64 value=80 time=14
control_change channel=0 control=64 value=82 time=15
control_change channel=0 control=64 value=84 time=16
control_change channel=0 control=64 value=86 time=15
control_change channel=0 control=64 value=87 time=15
control_change channel=0 control=64 value=88 time=15
control_change channel=0 control=64 value=89 time=16
control_change channel=0 control=64 value=91 time=16
control_change channel=0 control=64 value=91 time=15
control_change channel=0 control=64 value=92 time=31
control_change channel=0 control=64 value=90 time=235
control_change channel=0 control=64 value=87 time=15
control_change channel=0 control=64 value=82 time=15
control_change channel=0 control=64 value=72 time=16
control_change channel=0 control=64 value=60 time=15
note_on channel=0 note=34 velocity=40 time=7
control_change channel=0 control=64 value=61 time=8
control_change channel=0 control=64 value=65 time=15
note_on channel=0 note=34 velocity=0 time=11
control_change channel=0 control=64 value=68 time=4
control_change channel=0 control=64 value=70 time=15
control_change channel=0 control=64 value=72 time=15
control_change channel=0 control=67 value=124 time=0
control_change channel=0 control=64 value=75 time=15
control_change channel=0 control=64 value=78 time=16
control_change channel=0 control=64 value=80 time=15
control_change channel=0 control=67 value=124 time=0
control_change channel=0 control=64 value=82 time=15
control_change channel=0 control=64 value=83 time=15
control_change channel=0 control=64 value=84 time=15
control_change channel=0 control=64 value=85 time=16
control_change channel=0 control=64 value=87 time=15
control_change channel=0 control=64 value=88 time=14
control_change channel=0 control=64 value=89 time=16
note_on channel=0 note=34 velocity=52 time=57
note_on channel=0 note=34 velocity=0 time=44
note_on channel=0 note=49 velocity=58 time=19
control_change channel=0 control=64 value=89 time=2
control_change channel=0 control=64 value=88 time=15
note_on channel=0 note=66 velocity=0 time=12
control_change channel=0 control=64 value=87 time=4
control_change channel=0 control=64 value=83 time=14
note_on channel=0 note=49 velocity=0 time=2
control_change channel=0 control=64 value=75 time=12
note_on channel=0 note=34 velocity=59 time=8
control_change channel=0 control=64 value=61 time=8
control_change channel=0 control=64 value=0 time=15
note_on channel=0 note=34 velocity=0 time=21
note_on channel=0 note=49 velocity=54 time=154
note_on channel=0 note=49 velocity=0 time=29
note_on channel=0 note=34 velocity=40 time=164
note_on channel=0 note=34 velocity=0 time=35
note_on channel=0 note=49 velocity=37 time=172
note_on channel=0 note=49 velocity=0 time=34
note_on channel=0 note=66 velocity=27 time=272
note_on channel=0 note=67 velocity=37 time=3
control_change channel=0 control=64 value=46 time=137
control_change channel=0 control=64 value=59 time=14
control_change channel=0 control=64 value=63 time=15
control_change channel=0 control=64 value=65 time=16
control_change channel=0 control=64 value=68 time=15
control_change channel=0 control=64 value=69 time=16
control_change channel=0 control=64 value=71 time=14
control_change channel=0 control=64 value=73 time=15
control_change channel=0 control=64 value=75 time=16
control_change channel=0 control=64 value=77 time=15
control_change channel=0 control=64 value=79 time=15
control_change channel=0 control=64 value=81 time=15
control_change channel=0 control=64 value=82 time=15
control_change channel=0 control=64 value=85 time=16
control_change channel=0 control=64 value=87 time=14
control_change channel=0 control=64 value=89 time=15
control_change channel=0 control=64 value=90 time=16
control_change channel=0 control=64 value=92 time=15
control_change channel=0 control=64 value=92 time=16
control_change channel=0 control=64 value=93 time=14
control_change channel=0 control=64 value=94 time=15
control_change channel=0 control=64 value=95 time=16
control_change channel=0 control=64 value=95 time=60
note_on channel=0 note=66 velocity=0 time=227
note_on channel=0 note=67 velocity=0 time=31
control_change channel=0 control=64 value=95 time=238
control_change channel=0 control=64 value=94 time=76
note_on channel=0 note=66 velocity=38 time=0
note_on channel=0 note=67 velocity=43 time=10
control_change channel=0 control=64 value=93 time=6
control_change channel=0 control=64 value=91 time=14
control_change channel=0 control=64 value=87 time=16
control_change channel=0 control=64 value=81 time=15
control_change channel=0 control=64 value=75 time=15
control_change channel=0 control=64 value=73 time=16
control_change channel=0 control=64 value=73 time=45
control_change channel=0 control=64 value=74 time=15
control_change channel=0 control=64 value=74 time=16
control_change channel=0 control=64 value=75 time=14
control_change channel=0 control=64 value=76 time=15
control_change channel=0 control=64 value=76 time=16
control_change channel=0 control=64 value=77 time=14
control_change channel=0 control=64 value=78 time=16
control_change channel=0 control=64 value=79 time=15
control_change channel=0 control=64 value=81 time=15
control_change channel=0 control=64 value=82 time=16
control_change channel=0 control=64 value=84 time=14
control_change channel=0 control=64 value=86 time=15
control_change channel=0 control=64 value=88 time=16
control_change channel=0 control=64 value=89 time=15
control_change channel=0 control=64 value=89 time=16
control_change channel=0 control=64 value=89 time=161
control_change channel=0 control=64 value=87 time=15
control_change channel=0 control=64 value=84 time=14
control_change channel=0 control=64 value=78 time=16
note_on channel=0 note=34 velocity=55 time=1
control_change channel=0 control=64 value=69 time=14
control_change channel=0 control=64 value=61 time=15
note_on channel=0 note=34 velocity=0 time=6
control_change channel=0 control=64 value=64 time=10
control_change channel=0 control=64 value=66 time=14
control_change channel=0 control=64 value=67 time=16
control_change channel=0 control=64 value=70 time=15
control_change channel=0 control=64 value=72 time=14
control_change channel=0 control=64 value=75 time=16
control_change channel=0 control=64 value=78 time=15
control_change channel=0 control=64 value=80 time=16
control_change channel=0 control=64 value=81 time=15
control_change channel=0 control=64 value=82 time=14
control_change channel=0 control=64 value=82 time=16
control_change channel=0 control=64 value=83 time=15
note_on channel=0 note=34 velocity=53 time=34
note_on channel=0 note=34 velocity=0 time=34
control_change channel=0 control=64 value=82 time=23
note_on channel=0 note=49 velocity=55 time=6
note_on channel=0 note=67 velocity=0 time=5
control_change channel=0 control=64 value=80 time=5
note_on channel=0 note=66 velocity=0 time=14
control_change channel=0 control=64 value=74 time=1
note_on channel=0 note=49 velocity=0 time=13
control_change channel=0 control=64 value=64 time=2
note_on channel=0 note=34 velocity=56 time=13
control_change channel=0 control=64 value=0 time=3
control_change channel=0 control=67 value=124 time=0
note_on channel=0 note=34 velocity=0 time=44
note_on channel=0 note=49 velocity=53 time=152
note_on channel=0 note=49 velocity=0 time=33
note_on channel=0 note=34 velocity=47 time=178
note_on channel=0 note=34 velocity=0 time=34
control_change channel=0 control=67 value=124 time=98
control_change channel=0 control=67 value=123 time=31
control_change channel=0 control=67 value=123 time=14
note_on channel=0 note=49 velocity=51 time=12
control_change channel=0 control=67 value=122 time=4
control_change channel=0 control=67 value=121 time=15
note_on channel=0 note=49 velocity=0 time=10
control_change channel=0 control=67 value=120 time=6
control_change channel=0 control=67 value=118 time=15
control_change channel=0 control=67 value=115 time=14
control_change channel=0 control=67 value=109 time=16
control_change channel=0 control=64 value=48 time=15
control_change channel=0 control=67 value=102 time=0
control_change channel=0 control=64 value=62 time=16
control_change channel=0 control=67 value=96 time=0
control_change channel=0 control=64 value=65 time=15
control_change channel=0 control=67 value=93 time=0
control_change channel=0 control=64 value=66 time=14
control_change channel=0 control=67 value=92 time=0
control_change channel=0 control=64 value=68 time=16
control_change channel=0 control=67 value=91 time=0
control_change channel=0 control=64 value=70 time=15
control_change channel=0 control=67 value=90 time=0
control_change channel=0 control=64 value=72 time=15
control_change channel=0 control=67 value=89 time=0
control_change channel=0 control=64 value=75 time=16
control_change channel=0 control=67 value=88 time=0
note_on channel=0 note=66 velocity=42 time=0
note_on channel=0 note=67 velocity=49 time=1
control_change channel=0 control=64 value=76 time=14
control_change channel=0 control=67 value=87 time=0
control_change channel=0 control=64 value=77 time=16
control_change channel=0 control=67 value=85 time=0
control_change channel=0 control=64 value=78 time=15
control_change channel=0 control=67 value=83 time=0
control_change channel=0 control=67 value=83 time=14
note_on channel=0 note=67 velocity=0 time=108
note_on channel=0 note=66 velocity=0 time=21
control_change channel=0 control=64 value=77 time=7
note_on channel=0 note=34 velocity=54 time=30
control_change channel=0 control=64 value=77 time=24
control_change channel=0 control=64 value=76 time=15
control_change channel=0 control=67 value=83 time=0
control_change channel=0 control=64 value=74 time=15
control_change channel=0 control=67 value=84 time=0
note_on channel=0 note=34 velocity=0 time=0
control_change channel=0 control=64 value=68 time=15
note_on channel=0 note=49 velocity=52 time=3
control_change channel=0 control=64 value=0 time=13
control_change channel=0 control=67 value=84 time=0
note_on channel=0 note=49 velocity=0 time=16
control_change channel=0 control=67 value=85 time=29
note_on channel=0 note=34 velocity=38 time=16
note_on channel=0 note=34 velocity=0 time=40
control_change channel=0 control=67 value=85 time=36
note_on channel=0 note=67 velocity=46 time=120
note_on channel=0 note=66 velocity=39 time=3
control_change channel=0 control=67 value=85 time=13
control_change channel=0 control=64 value=58 time=16
control_change channel=0 control=64 value=66 time=15
control_change channel=0 control=67 value=84 time=0
control_change channel=0 control=64 value=69 time=15
control_change channel=0 control=64 value=71 time=15
control_change channel=0 control=67 value=84 time=0
control_change channel=0 control=64 value=74 time=15
control_change channel=0 control=67 value=83 time=0
control_change channel=0 control=64 value=76 time=16
control_change channel=0 control=67 value=83 time=0
control_change channel=0 control=64 value=81 time=15
control_change channel=0 control=64 value=86 time=14
control_change channel=0 control=64 value=90 time=16
note_on channel=0 note=34 velocity=53 time=7
control_change channel=0 control=64 value=92 time=8
control_change channel=0 control=67 value=83 time=0
note_on channel=0 note=66 velocity=0 time=2
note_on channel=0 note=67 velocity=0 time=1
control_change channel=0 control=67 value=84 time=13
note_on channel=0 note=34 velocity=0 time=12
control_change channel=0 control=67 value=84 time=3
note_on channel=0 note=49 velocity=51 time=9
control_change channel=0 control=67 value=85 time=6
control_change channel=0 control=67 value=85 time=16
note_on channel=0 note=49 velocity=0 time=10
control_change channel=0 control=67 value=86 time=5
control_change channel=0 control=64 value=86 time=14
note_on channel=0 note=34 velocity=47 time=13
control_change channel=0 control=64 value=73 time=3
control_change channel=0 control=67 value=86 time=0
control_change channel=0 control=64 value=0 time=15
note_on channel=0 note=34 velocity=0 time=19
control_change channel=0 control=67 value=86 time=88
note_on channel=0 note=67 velocity=54 time=19
note_on channel=0 note=66 velocity=44 time=6
control_change channel=0 control=67 value=85 time=6
control_change channel=0 control=67 value=85 time=22
control_change channel=0 control=67 value=84 time=30
control_change channel=0 control=64 value=38 time=15
control_change channel=0 control=67 value=83 time=0
control_change channel=0 control=64 value=62 time=16
control_change channel=0 control=64 value=66 time=15
control_change channel=0 control=64 value=69 time=16
note_on channel=0 note=34 velocity=63 time=8
control_change channel=0 control=64 value=71 time=7
note_on channel=0 note=67 velocity=0 time=3
note_on channel=0 note=66 velocity=0 time=3
control_change channel=0 control=64 value=73 time=9
note_on channel=0 note=34 velocity=0 time=6
control_change channel=0 control=64 value=73 time=10
control_change channel=0 control=64 value=71 time=14
note_on channel=0 note=49 velocity=56 time=11
control_change channel=0 control=64 value=69 time=4
control_change channel=0 control=64 value=69 time=16
control_change channel=0 control=67 value=84 time=0
note_on channel=0 note=49 velocity=0 time=10
control_change channel=0 control=64 value=70 time=5
control_change channel=0 control=64 value=71 time=16
control_change channel=0 control=64 value=72 time=15
note_on channel=0 note=67 velocity=66 time=7
note_on channel=0 note=66 velocity=59 time=1
control_change channel=0 control=64 value=74 time=7
control_change channel=0 control=64 value=76 time=16
control_change channel=0 control=64 value=78 time=15
control_change channel=0 control=64 value=77 time=31
control_change channel=0 control=64 value=74 time=14
control_change channel=0 control=64 value=69 time=16
note_on channel=0 note=66 velocity=0 time=3
note_on channel=0 note=67 velocity=0 time=0
note_on channel=0 note=34 velocity=57 time=2
control_change channel=0 control=64 value=66 time=10
control_change channel=0 control=64 value=68 time=15
note_on channel=0 note=34 velocity=0 time=3
control_change channel=0 control=64 value=69 time=12
note_on channel=0 note=49 velocity=67 time=0
control_change channel=0 control=64 value=70 time=15
control_change channel=0 control=64 value=72 time=16
control_change channel=0 control=67 value=83 time=0
note_on channel=0 note=49 velocity=0 time=4
control_change channel=0 control=64 value=74 time=11
control_change channel=0 control=64 value=75 time=15
control_change channel=0 control=64 value=76 time=15
note_on channel=0 note=66 velocity=68 time=1
note_on channel=0 note=67 velocity=71 time=3
control_change channel=0 control=67 value=83 time=11
control_change channel=0 control=67 value=82 time=15
control_change channel=0 control=64 value=75 time=16
control_change channel=0 control=64 value=72 time=15
control_change channel=0 control=67 value=82 time=0
control_change channel=0 control=64 value=69 time=15
control_change channel=0 control=64 value=68 time=15
note_on channel=0 note=34 velocity=57 time=12
control_change channel=0 control=64 value=70 time=3
control_change channel=0 control=67 value=81 time=0
control_change channel=0 control=64 value=71 time=15
note_on channel=0 note=67 velocity=0 time=8
note_on channel=0 note=66 velocity=0 time=4
control_change channel=0 control=64 value=72 time=3
note_on channel=0 note=34 velocity=0 time=2
note_on channel=0 note=49 velocity=71 time=7
control_change channel=0 control=64 value=74 time=6
control_change channel=0 control=67 value=81 time=0
control_change channel=0 control=64 value=76 time=16
control_change channel=0 control=67 value=78 time=0
control_change channel=0 control=64 value=77 time=15
control_change channel=0 control=67 value=75 time=0
control_change channel=0 control=64 value=77 time=15
control_change channel=0 control=67 value=72 time=0
note_on channel=0 note=49 velocity=0 time=9
control_change channel=0 control=64 value=74 time=6
control_change channel=0 control=67 value=69 time=0
control_change channel=0 control=64 value=70 time=15
control_change channel=0 control=67 value=67 time=0
note_on channel=0 note=66 velocity=80 time=5
note_on channel=0 note=67 velocity=80 time=2
control_change channel=0 control=64 value=66 time=9
control_change channel=0 control=67 value=65 time=0
control_change channel=0 control=64 value=67 time=15
control_change channel=0 control=67 value=64 time=0
control_change channel=0 control=64 value=68 time=16
control_change channel=0 control=67 value=62 time=0
control_change channel=0 control=64 value=70 time=15
control_change channel=0 control=67 value=61 time=0
control_change channel=0 control=64 value=71 time=22
control_change channel=0 control=67 value=58 time=0
control_change channel=0 control=64 value=76 time=16
control_change channel=0 control=67 value=56 time=0
control_change channel=0 control=64 value=79 time=14
control_change channel=0 control=67 value=55 time=0
note_on channel=0 note=34 velocity=66 time=8
control_change channel=0 control=64 value=80 time=8
control_change channel=0 control=67 value=54 time=0
control_change channel=0 control=64 value=79 time=15
control_change channel=0 control=67 value=54 time=0
note_on channel=0 note=67 velocity=0 time=2
note_on channel=0 note=66 velocity=0 time=3
note_on channel=0 note=49 velocity=84 time=8
control_change channel=0 control=64 value=76 time=2
control_change channel=0 control=67 value=53 time=0
note_on channel=0 note=34 velocity=0 time=9
control_change channel=0 control=64 value=72 time=7
control_change channel=0 control=67 value=53 time=0
control_change channel=0 control=64 value=68 time=14
control_change channel=0 control=67 value=52 time=0
control_change channel=0 control=64 value=67 time=15
control_change channel=0 control=67 value=50 time=0
control_change channel=0 control=64 value=69 time=16
control_change channel=0 control=67 value=47 time=0
note_on channel=0 note=49 velocity=0 time=11
control_change channel=0 control=64 value=72 time=4
control_change channel=0 control=67 value=43 time=0
note_on channel=0 note=67 velocity=87 time=8
note_on channel=0 note=66 velocity=85 time=1
control_change channel=0 control=64 value=76 time=7
control_change channel=0 control=67 value=37 time=0
control_change channel=0 control=64 value=80 time=15
control_change channel=0 control=67 value=30 time=0
control_change channel=0 control=64 value=81 time=15
control_change channel=0 control=67 value=20 time=0
control_change channel=0 control=64 value=81 time=15
control_change channel=0 control=67 value=0 time=0
control_change channel=0 control=64 value=78 time=15
control_change channel=0 control=64 value=76 time=16
note_on channel=0 note=34 velocity=77 time=7
control_change channel=0 control=64 value=77 time=8
control_change channel=0 control=64 value=81 time=15
control_change channel=0 control=64 value=88 time=16
note_on channel=0 note=67 velocity=0 time=3
note_on channel=0 note=49 velocity=89 time=3
note_on channel=0 note=66 velocity=0 time=4
control_change channel=0 control=64 value=97 time=5
note_on channel=0 note=34 velocity=0 time=3
control_change channel=0 control=64 value=107 time=12
control_change channel=0 control=64 value=112 time=16
note_on channel=0 note=40 velocity=36 time=4
control_change channel=0 control=64 value=111 time=11
control_change channel=0 control=64 value=97 time=15
note_on channel=0 note=49 velocity=0 time=12
control_change channel=0 control=64 value=80 time=3
note_on channel=0 note=66 velocity=85 time=7
note_on channel=0 note=67 velocity=86 time=0
control_change channel=0 control=64 value=69 time=8
control_change channel=0 control=64 value=72 time=16
note_on channel=0 note=34 velocity=74 time=4
control_change channel=0 control=64 value=77 time=11
control_change channel=0 control=64 value=81 time=16
control_change channel=0 control=64 value=88 time=14
note_on channel=0 note=34 velocity=0 time=13
control_change channel=0 control=64 value=97 time=2
note_on channel=0 note=49 velocity=90 time=1
note_on channel=0 note=67 velocity=0 time=3
control_change channel=0 control=64 value=107 time=12
note_on channel=0 note=66 velocity=0 time=10
control_change channel=0 control=64 value=119 time=5
note_on channel=0 note=40 velocity=0 time=12
control_change channel=0 control=64 value=127 time=3
note_on channel=0 note=49 velocity=0 time=0
control_change channel=0 control=64 value=126 time=30
control_change channel=0 control=64 value=106 time=16
note_on channel=0 note=64 velocity=67 time=2
control_change channel=0 control=64 value=81 time=13
note_on channel=0 note=67 velocity=74 time=7
note_on channel=0 note=64 velocity=0 time=7
control_change channel=0 control=64 value=19 time=1
note_on channel=0 note=76 velocity=78 time=1
note_on channel=0 note=67 velocity=0 time=11
control_change channel=0 control=64 value=0 time=3
note_on channel=0 note=76 velocity=0 time=11
note_on channel=0 note=42 velocity=71 time=97
note_on channel=0 note=74 velocity=78 time=4
note_on channel=0 note=66 velocity=69 time=4
note_on channel=0 note=74 velocity=0 time=17
note_on channel=0 note=66 velocity=0 time=4
note_on channel=0 note=42 velocity=0 time=20
note_on channel=0 note=54 velocity=63 time=9
note_on channel=0 note=54 velocity=0 time=32
note_on channel=0 note=73 velocity=81 time=40
note_on channel=0 note=62 velocity=61 time=12
note_on channel=0 note=73 velocity=0 time=13
note_on channel=0 note=42 velocity=54 time=4
note_on channel=0 note=64 velocity=41 time=1
note_on channel=0 note=62 velocity=0 time=3
note_on channel=0 note=64 velocity=0 time=28
note_on channel=0 note=42 velocity=0 time=6
note_on channel=0 note=71 velocity=83 time=52
note_on channel=0 note=62 velocity=67 time=1
note_on channel=0 note=54 velocity=55 time=24
note_on channel=0 note=62 velocity=0 time=4
note_on channel=0 note=71 velocity=0 time=13
note_on channel=0 note=54 velocity=0 time=8
note_on channel=0 note=70 velocity=74 time=69
note_on channel=0 note=42 velocity=62 time=3
note_on channel=0 note=61 velocity=64 time=2
note_on channel=0 note=61 velocity=0 time=28
note_on channel=0 note=70 velocity=0 time=7
note_on channel=0 note=42 velocity=0 time=12
note_on channel=0 note=67 velocity=82 time=68
note_on channel=0 note=59 velocity=73 time=1
note_on channel=0 note=54 velocity=60 time=7
note_on channel=0 note=59 velocity=0 time=17
note_on channel=0 note=54 velocity=0 time=5
note_on channel=0 note=67 velocity=0 time=0
note_on channel=0 note=58 velocity=76 time=85
note_on channel=0 note=66 velocity=75 time=3
note_on channel=0 note=58 velocity=0 time=19
note_on channel=0 note=66 velocity=0 time=14
note_on channel=0 note=30 velocity=77 time=73
note_on channel=0 note=55 velocity=84 time=7
note_on channel=0 note=64 velocity=90 time=3
note_on channel=0 note=55 velocity=0 time=23
note_on channel=0 note=64 velocity=0 time=12
note_on channel=0 note=42 velocity=70 time=5
note_on channel=0 note=30 velocity=0 time=1
note_on channel=0 note=42 velocity=0 time=34
note_on channel=0 note=62 velocity=90 time=50
note_on channel=0 note=30 velocity=87 time=3
note_on channel=0 note=54 velocity=85 time=6
note_on channel=0 note=54 velocity=0 time=24
note_on channel=0 note=62 velocity=0 time=14
note_on channel=0 note=30 velocity=0 time=6
note_on channel=0 note=61 velocity=88 time=67
note_on channel=0 note=52 velocity=91 time=1
note_on channel=0 note=42 velocity=84 time=3
note_on channel=0 note=52 velocity=0 time=25
note_on channel=0 note=61 velocity=0 time=2
note_on channel=0 note=42 velocity=0 time=4
note_on channel=0 note=59 velocity=91 time=82
note_on channel=0 note=30 velocity=72 time=6
note_on channel=0 note=50 velocity=70 time=11
note_on channel=0 note=59 velocity=0 time=20
note_on channel=0 note=50 velocity=0 time=3
note_on channel=0 note=30 velocity=0 time=2
note_on channel=0 note=58 velocity=80 time=100
note_on channel=0 note=42 velocity=60 time=7
note_on channel=0 note=49 velocity=38 time=16
note_on channel=0 note=58 velocity=0 time=9
note_on channel=0 note=42 velocity=0 time=4
note_on channel=0 note=49 velocity=0 time=26
note_on channel=0 note=35 velocity=47 time=321
note_on channel=0 note=47 velocity=51 time=0
note_on channel=0 note=59 velocity=60 time=4
note_on channel=0 note=47 velocity=0 time=23
note_on channel=0 note=59 velocity=0 time=2
note_on channel=0 note=35 velocity=0 time=3
note_on channel=0 note=49 velocity=66 time=85
note_on channel=0 note=37 velocity=49 time=11
note_on channel=0 note=61 velocity=69 time=1
note_on channel=0 note=49 velocity=0 time=16
note_on channel=0 note=61 velocity=0 time=7
note_on channel=0 note=37 velocity=0 time=8
note_on channel=0 note=50 velocity=54 time=84
note_on channel=0 note=38 velocity=58 time=5
note_on channel=0 note=62 velocity=62 time=0
note_on channel=0 note=50 velocity=0 time=23
note_on channel=0 note=62 velocity=0 time=0
note_on channel=0 note=38 velocity=0 time=6
note_on channel=0 note=46 velocity=68 time=111
note_on channel=0 note=34 velocity=58 time=4
note_on channel=0 note=58 velocity=56 time=1
control_change channel=0 control=67 value=10 time=21
note_on channel=0 note=46 velocity=0 time=0
note_on channel=0 note=58 velocity=0 time=3
note_on channel=0 note=34 velocity=0 time=9
control_change channel=0 control=67 value=15 time=3
control_change channel=0 control=67 value=17 time=14
control_change channel=0 control=67 value=17 time=31
control_change channel=0 control=67 value=16 time=16
control_change channel=0 control=67 value=15 time=15
control_change channel=0 control=67 value=14 time=15
control_change channel=0 control=67 value=13 time=16
control_change channel=0 control=67 value=13 time=15
control_change channel=0 control=67 value=12 time=15
control_change channel=0 control=67 value=11 time=15
control_change channel=0 control=67 value=10 time=15
control_change channel=0 control=67 value=9 time=16
control_change channel=0 control=67 value=8 time=15
control_change channel=0 control=67 value=8 time=75
note_on channel=0 note=79 velocity=63 time=157
note_on channel=0 note=61 velocity=50 time=4
note_on channel=0 note=76 velocity=41 time=8
control_change channel=0 control=67 value=0 time=7
note_on channel=0 note=79 velocity=0 time=13
note_on channel=0 note=61 velocity=0 time=1
note_on channel=0 note=76 velocity=0 time=10
note_on channel=0 note=62 velocity=33 time=105
note_on channel=0 note=74 velocity=40 time=6
note_on channel=0 note=74 velocity=0 time=29
note_on channel=0 note=62 velocity=0 time=1
control_change channel=0 control=67 value=8 time=17
control_change channel=0 control=67 value=8 time=31
note_on channel=0 note=76 velocity=63 time=27
note_on channel=0 note=64 velocity=36 time=23
note_on channel=0 note=76 velocity=0 time=8
note_on channel=0 note=64 velocity=0 time=24
note_on channel=0 note=85 velocity=74 time=85
note_on channel=0 note=58 velocity=55 time=4
note_on channel=0 note=76 velocity=53 time=1
note_on channel=0 note=85 velocity=0 time=18
note_on channel=0 note=76 velocity=0 time=6
note_on channel=0 note=58 velocity=0 time=3
control_change channel=0 control=67 value=9 time=74
control_change channel=0 control=67 value=10 time=16
control_change channel=0 control=67 value=11 time=15
control_change channel=0 control=67 value=11 time=16
control_change channel=0 control=67 value=12 time=14
control_change channel=0 control=67 value=13 time=15
control_change channel=0 control=67 value=14 time=16
control_change channel=0 control=67 value=15 time=15
control_change channel=0 control=67 value=15 time=15
control_change channel=0 control=67 value=15 time=68
control_change channel=0 control=67 value=14 time=16
control_change channel=0 control=67 value=14 time=15
control_change channel=0 control=67 value=13 time=76
note_on channel=0 note=49 velocity=62 time=66
note_on channel=0 note=61 velocity=64 time=1
note_on channel=0 note=37 velocity=44 time=10
control_change channel=0 control=67 value=13 time=14
note_on channel=0 note=61 velocity=0 time=2
note_on channel=0 note=49 velocity=0 time=4
note_on channel=0 note=37 velocity=0 time=13
control_change channel=0 control=67 value=12 time=12
note_on channel=0 note=50 velocity=66 time=68
note_on channel=0 note=62 velocity=75 time=0
note_on channel=0 note=38 velocity=45 time=14
control_change channel=0 control=67 value=12 time=9
note_on channel=0 note=62 velocity=0 time=1
note_on channel=0 note=50 velocity=0 time=4
note_on channel=0 note=38 velocity=0 time=17
note_on channel=0 note=52 velocity=69 time=77
note_on channel=0 note=64 velocity=69 time=6
note_on channel=0 note=40 velocity=60 time=3
note_on channel=0 note=52 velocity=0 time=16
note_on channel=0 note=64 velocity=0 time=5
control_change channel=0 control=67 value=11 time=8
note_on channel=0 note=40 velocity=0 time=5
note_on channel=0 note=47 velocity=70 time=101
note_on channel=0 note=59 velocity=63 time=7
note_on channel=0 note=35 velocity=53 time=4
note_on channel=0 note=47 velocity=0 time=22
note_on channel=0 note=59 velocity=0 time=0
note_on channel=0 note=35 velocity=0 time=8
control_change channel=0 control=67 value=11 time=97
control_change channel=0 control=67 value=10 time=38
control_change channel=0 control=67 value=10 time=15
control_change channel=0 control=67 value=9 time=15
control_change channel=0 control=67 value=9 time=30
control_change channel=0 control=67 value=9 time=137
note_on channel=0 note=83 velocity=75 time=114
note_on channel=0 note=79 velocity=67 time=8
note_on channel=0 note=64 velocity=54 time=1
control_change channel=0 control=67 value=8 time=16
note_on channel=0 note=79 velocity=0 time=6
control_change channel=0 control=67 value=0 time=10
note_on channel=0 note=64 velocity=0 time=1
note_on channel=0 note=83 velocity=0 time=1
note_on channel=0 note=81 velocity=77 time=86
note_on channel=0 note=66 velocity=68 time=6
note_on channel=0 note=78 velocity=59 time=7
note_on channel=0 note=81 velocity=0 time=14
note_on channel=0 note=66 velocity=0 time=5
note_on channel=0 note=78 velocity=0 time=2
note_on channel=0 note=67 velocity=69 time=93
note_on channel=0 note=79 velocity=79 time=7
note_on channel=0 note=67 velocity=0 time=18
note_on channel=0 note=76 velocity=38 time=5
note_on channel=0 note=79 velocity=0 time=13
note_on channel=0 note=76 velocity=0 time=18
note_on channel=0 note=88 velocity=82 time=86
note_on channel=0 note=59 velocity=57 time=15
note_on channel=0 note=79 velocity=37 time=17
note_on channel=0 note=88 velocity=0 time=3
note_on channel=0 note=59 velocity=0 time=15
control_change channel=0 control=64 value=45 time=5
note_on channel=0 note=79 velocity=0 time=9
control_change channel=0 control=64 value=0 time=6
note_on channel=0 note=60 velocity=101 time=335
note_on channel=0 note=36 velocity=89 time=7
note_on channel=0 note=43 velocity=94 time=3
control_change channel=0 control=64 value=55 time=20
note_on channel=0 note=60 velocity=0 time=7
control_change channel=0 control=64 value=74 time=8
note_on channel=0 note=37 velocity=20 time=13
note_on channel=0 note=37 velocity=0 time=1
control_change channel=0 control=64 value=82 time=1
note_on channel=0 note=43 velocity=0 time=1
control_change channel=0 control=64 value=88 time=15
control_change channel=0 control=64 value=90 time=15
note_on channel=0 note=36 velocity=0 time=5
control_change channel=0 control=64 value=90 time=10
note_on channel=0 note=31 velocity=77 time=40
note_on channel=0 note=55 velocity=77 time=10
note_on channel=0 note=60 velocity=83 time=30
note_on channel=0 note=55 velocity=0 time=13
note_on channel=0 note=31 velocity=0 time=6
note_on channel=0 note=43 velocity=82 time=0
note_on channel=0 note=36 velocity=71 time=4
note_on channel=0 note=60 velocity=0 time=21
note_on channel=0 note=37 velocity=29 time=14
note_on channel=0 note=55 velocity=96 time=15
note_on channel=0 note=43 velocity=0 time=8
note_on channel=0 note=31 velocity=74 time=18
note_on channel=0 note=37 velocity=0 time=0
note_on channel=0 note=36 velocity=0 time=2
note_on channel=0 note=55 velocity=0 time=14
note_on channel=0 note=31 velocity=0 time=23
control_change channel=0 control=64 value=89 time=57
note_on channel=0 note=36 velocity=82 time=15
note_on channel=0 note=43 velocity=83 time=2
note_on channel=0 note=60 velocity=102 time=1
control_change channel=0 control=64 value=82 time=4
control_change channel=0 control=64 value=60 time=15
note_on channel=0 note=37 velocity=51 time=0
note_on channel=0 note=60 velocity=0 time=14
control_change channel=0 control=64 value=0 time=2
note_on channel=0 note=43 velocity=0 time=1
note_on channel=0 note=36 velocity=0 time=3
note_on channel=0 note=37 velocity=0 time=17
note_on channel=0 note=55 velocity=92 time=77
note_on channel=0 note=31 velocity=66 time=11
note_on channel=0 note=55 velocity=0 time=29
note_on channel=0 note=31 velocity=0 time=67
note_on channel=0 note=36 velocity=73 time=0
note_on channel=0 note=43 velocity=80 time=7
note_on channel=0 note=60 velocity=84 time=2
note_on channel=0 note=36 velocity=0 time=25
note_on channel=0 note=60 velocity=0 time=3
note_on channel=0 note=43 velocity=0 time=2
note_on channel=0 note=76 velocity=107 time=102
note_on channel=0 note=48 velocity=77 time=1
note_on channel=0 note=55 velocity=85 time=1
note_on channel=0 note=72 velocity=91 time=5
note_on channel=0 note=72 velocity=0 time=17
note_on channel=0 note=55 velocity=0 time=6
control_change channel=0 control=64 value=47 time=4
note_on channel=0 note=76 velocity=0 time=4
control_change channel=0 control=64 value=62 time=11
note_on channel=0 note=48 velocity=0 time=5
control_change channel=0 control=64 value=66 time=11
control_change channel=0 control=64 value=69 time=15
control_change channel=0 control=64 value=71 time=15
control_change channel=0 control=64 value=72 time=15
control_change channel=0 control=64 value=73 time=15
note_on channel=0 note=43 velocity=76 time=3
control_change channel=0 control=64 value=74 time=13
note_on channel=0 note=74 velocity=97 time=6
note_on channel=0 note=71 velocity=65 time=14
note_on channel=0 note=76 velocity=74 time=4
note_on channel=0 note=48 velocity=79 time=12
note_on channel=0 note=71 velocity=0 time=2
note_on channel=0 note=55 velocity=87 time=4
note_on channel=0 note=43 velocity=0 time=5
note_on channel=0 note=72 velocity=50 time=0
note_on channel=0 note=74 velocity=0 time=9
note_on channel=0 note=72 velocity=0 time=13
note_on channel=0 note=55 velocity=0 time=25
note_on channel=0 note=71 velocity=85 time=5
note_on channel=0 note=74 velocity=83 time=2
note_on channel=0 note=43 velocity=81 time=1
note_on channel=0 note=48 velocity=0 time=12
note_on channel=0 note=76 velocity=0 time=13
control_change channel=0 control=64 value=73 time=9
note_on channel=0 note=71 velocity=0 time=1
note_on channel=0 note=74 velocity=0 time=4
control_change channel=0 control=64 value=70 time=11
control_change channel=0 control=64 value=62 time=16
control_change channel=0 control=64 value=0 time=15
note_on channel=0 note=43 velocity=0 time=36
note_on channel=0 note=48 velocity=80 time=2
note_on channel=0 note=55 velocity=87 time=5
note_on channel=0 note=76 velocity=98 time=18
note_on channel=0 note=49 velocity=66 time=1
note_on channel=0 note=72 velocity=96 time=0
note_on channel=0 note=55 velocity=0 time=21
control_change channel=0 control=64 value=54 time=1
note_on channel=0 note=72 velocity=0 time=2
note_on channel=0 note=49 velocity=0 time=2
control_change channel=0 control=64 value=64 time=11
note_on channel=0 note=76 velocity=0 time=5
control_change channel=0 control=64 value=60 time=10
note_on channel=0 note=48 velocity=0 time=0
control_change channel=0 control=64 value=0 time=16
note_on channel=0 note=43 velocity=74 time=36
note_on channel=0 note=74 velocity=97 time=21
note_on channel=0 note=71 velocity=97 time=1
note_on channel=0 note=74 velocity=0 time=39
note_on channel=0 note=71 velocity=0 time=3
note_on channel=0 note=48 velocity=86 time=53
note_on channel=0 note=43 velocity=0 time=2
note_on channel=0 note=55 velocity=87 time=1
note_on channel=0 note=76 velocity=98 time=17
note_on channel=0 note=72 velocity=92 time=3
note_on channel=0 note=48 velocity=0 time=17
note_on channel=0 note=55 velocity=0 time=5
note_on channel=0 note=72 velocity=0 time=14
note_on channel=0 note=76 velocity=0 time=10
note_on channel=0 note=60 velocity=95 time=74
note_on channel=0 note=48 velocity=91 time=4
note_on channel=0 note=79 velocity=96 time=1
note_on channel=0 note=67 velocity=93 time=3
note_on channel=0 note=76 velocity=88 time=2
note_on channel=0 note=67 velocity=0 time=19
note_on channel=0 note=60 velocity=0 time=9
note_on channel=0 note=48 velocity=0 time=6
note_on channel=0 note=76 velocity=0 time=6
note_on channel=0 note=79 velocity=0 time=18
control_change channel=0 control=64 value=39 time=30
control_change channel=0 control=64 value=26 time=15
note_on channel=0 note=79 velocity=86 time=8
note_on channel=0 note=59 velocity=94 time=5
control_change channel=0 control=64 value=0 time=2
note_on channel=0 note=47 velocity=94 time=3
note_on channel=0 note=76 velocity=81 time=2
note_on channel=0 note=67 velocity=89 time=18
note_on channel=0 note=47 velocity=0 time=9
note_on channel=0 note=59 velocity=0 time=7
note_on channel=0 note=79 velocity=0 time=20
note_on channel=0 note=76 velocity=0 time=7
note_on channel=0 note=67 velocity=0 time=16
control_change channel=0 control=64 value=49 time=9
control_change channel=0 control=64 value=60 time=16
control_change channel=0 control=64 value=61 time=14
note_on channel=0 note=58 velocity=101 time=2
note_on channel=0 note=79 velocity=91 time=1
note_on channel=0 note=46 velocity=89 time=3
control_change channel=0 control=64 value=46 time=10
control_change channel=0 control=64 value=0 time=15
note_on channel=0 note=67 velocity=52 time=6
note_on channel=0 note=58 velocity=0 time=11
note_on channel=0 note=67 velocity=0 time=12
note_on channel=0 note=79 velocity=0 time=4
note_on channel=0 note=46 velocity=0 time=7
note_on channel=0 note=59 velocity=94 time=57
note_on channel=0 note=47 velocity=88 time=9
note_on channel=0 note=67 velocity=87 time=1
note_on channel=0 note=79 velocity=100 time=3
note_on channel=0 note=59 velocity=0 time=23
note_on channel=0 note=47 velocity=0 time=14
note_on channel=0 note=67 velocity=0 time=0
note_on channel=0 note=79 velocity=0 time=3
note_on channel=0 note=66 velocity=91 time=85
note_on channel=0 note=78 velocity=88 time=1
note_on channel=0 note=74 velocity=86 time=2
note_on channel=0 note=66 velocity=0 time=33
note_on channel=0 note=74 velocity=0 time=5
note_on channel=0 note=78 velocity=0 time=20
note_on channel=0 note=64 velocity=90 time=66
note_on channel=0 note=77 velocity=82 time=3
note_on channel=0 note=40 velocity=81 time=3
note_on channel=0 note=52 velocity=71 time=3
note_on channel=0 note=73 velocity=66 time=1
note_on channel=0 note=76 velocity=71 time=8
note_on channel=0 note=64 velocity=0 time=11
note_on channel=0 note=40 velocity=0 time=6
note_on channel=0 note=73 velocity=0 time=2
note_on channel=0 note=52 velocity=0 time=1
note_on channel=0 note=77 velocity=0 time=6
note_on channel=0 note=76 velocity=0 time=4
note_on channel=0 note=65 velocity=6 time=9
note_on channel=0 note=65 velocity=0 time=1
control_change channel=0 control=64 value=67 time=74
note_on channel=0 note=54 velocity=92 time=2
note_on channel=0 note=62 velocity=96 time=2
note_on channel=0 note=42 velocity=87 time=1
note_on channel=0 note=74 velocity=92 time=1
control_change channel=0 control=64 value=71 time=10
note_on channel=0 note=71 velocity=74 time=3
note_on channel=0 note=54 velocity=0 time=3
note_on channel=0 note=62 velocity=0 time=8
control_change channel=0 control=64 value=67 time=1
note_on channel=0 note=42 velocity=0 time=4
note_on channel=0 note=71 velocity=0 time=8
control_change channel=0 control=64 value=0 time=3
note_on channel=0 note=74 velocity=0 time=4
note_on channel=0 note=42 velocity=88 time=457
note_on channel=0 note=73 velocity=95 time=0
note_on channel=0 note=30 velocity=81 time=2
note_on channel=0 note=61 velocity=87 time=2
note_on channel=0 note=70 velocity=70 time=10
control_change channel=0 control=64 value=52 time=5
note_on channel=0 note=61 velocity=0 time=6
note_on channel=0 note=42 velocity=0 time=4
control_change channel=0 control=64 value=79 time=6
note_on channel=0 note=30 velocity=0 time=2
note_on channel=0 note=73 velocity=0 time=1
note_on channel=0 note=70 velocity=0 time=2
control_change channel=0 control=64 value=93 time=9
control_change channel=0 control=64 value=97 time=16
control_change channel=0 control=64 value=93 time=30
control_change channel=0 control=64 value=78 time=16
control_change channel=0 control=64 value=0 time=14
note_on channel=0 note=35 velocity=64 time=329
note_on channel=0 note=47 velocity=83 time=54
note_on channel=0 note=35 velocity=0 time=12
note_on channel=0 note=47 velocity=0 time=26
note_on channel=0 note=59 velocity=96 time=86
note_on channel=0 note=91 velocity=106 time=7
control_change channel=0 control=64 value=71 time=3
note_on channel=0 note=79 velocity=91 time=2
note_on channel=0 note=59 velocity=0 time=14
control_change channel=0 control=64 value=87 time=7
control_change channel=0 control=64 value=101 time=15
note_on channel=0 note=79 velocity=0 time=0
control_change channel=0 control=64 value=113 time=15
note_on channel=0 note=93 velocity=87 time=15
control_change channel=0 control=64 value=127 time=1
note_on channel=0 note=91 velocity=0 time=6
note_on channel=0 note=93 velocity=0 time=40
note_on channel=0 note=91 velocity=93 time=30
note_on channel=0 note=79 velocity=88 time=3
note_on channel=0 note=61 velocity=80 time=8
note_on channel=0 note=49 velocity=75 time=4
note_on channel=0 note=61 velocity=0 time=19
note_on channel=0 note=79 velocity=0 time=3
note_on channel=0 note=49 velocity=0 time=6
note_on channel=0 note=89 velocity=31 time=1
note_on channel=0 note=89 velocity=0 time=1
note_on channel=0 note=93 velocity=92 time=21
note_on channel=0 note=91 velocity=0 time=1
note_on channel=0 note=93 velocity=0 time=51
note_on channel=0 note=91 velocity=91 time=11
note_on channel=0 note=62 velocity=88 time=1
note_on channel=0 note=50 velocity=81 time=2
note_on channel=0 note=79 velocity=91 time=3
note_on channel=0 note=62 velocity=0 time=20
note_on channel=0 note=50 velocity=0 time=5
note_on channel=0 note=79 velocity=0 time=9
note_on channel=0 note=93 velocity=93 time=34
note_on channel=0 note=91 velocity=0 time=2
note_on channel=0 note=93 velocity=0 time=26
note_on channel=0 note=58 velocity=101 time=26
note_on channel=0 note=46 velocity=79 time=8
note_on channel=0 note=91 velocity=87 time=0
note_on channel=0 note=79 velocity=96 time=3
control_change channel=0 control=64 value=88 time=6
note_on channel=0 note=58 velocity=0 time=5
control_change channel=0 control=64 value=0 time=10
note_on channel=0 note=46 velocity=0 time=1
note_on channel=0 note=79 velocity=0 time=14
note_on channel=0 note=93 velocity=95 time=32
note_on channel=0 note=91 velocity=0 time=3
note_on channel=0 note=93 velocity=0 time=46
note_on channel=0 note=91 velocity=78 time=15
note_on channel=0 note=79 velocity=83 time=4
note_on channel=0 note=79 velocity=0 time=21
note_on channel=0 note=93 velocity=90 time=41
note_on channel=0 note=91 velocity=0 time=1
note_on channel=0 note=93 velocity=0 time=26
note_on channel=0 note=79 velocity=72 time=51
note_on channel=0 note=91 velocity=61 time=3
note_on channel=0 note=79 velocity=0 time=20
note_on channel=0 note=93 velocity=88 time=29
note_on channel=0 note=91 velocity=0 time=16
note_on channel=0 note=93 velocity=0 time=14
note_on channel=0 note=67 velocity=92 time=53
note_on channel=0 note=79 velocity=73 time=4
note_on channel=0 note=64 velocity=82 time=2
note_on channel=0 note=91 velocity=59 time=7
note_on channel=0 note=67 velocity=0 time=9
note_on channel=0 note=79 velocity=0 time=2
note_on channel=0 note=64 velocity=0 time=4
note_on channel=0 note=93 velocity=82 time=29
note_on channel=0 note=91 velocity=0 time=7
note_on channel=0 note=93 velocity=0 time=49
note_on channel=0 note=79 velocity=78 time=13
note_on channel=0 note=66 velocity=87 time=5
note_on channel=0 note=91 velocity=65 time=2
note_on channel=0 note=62 velocity=55 time=16
note_on channel=0 note=79 velocity=0 time=1
note_on channel=0 note=62 velocity=0 time=30
note_on channel=0 note=66 velocity=0 time=2
note_on channel=0 note=91 velocity=0 time=22
note_on channel=0 note=93 velocity=64 time=7
note_on channel=0 note=93 velocity=0 time=20
note_on channel=0 note=64 velocity=74 time=34
note_on channel=0 note=79 velocity=73 time=10
note_on channel=0 note=61 velocity=55 time=2
note_on channel=0 note=64 velocity=0 time=17
note_on channel=0 note=91 velocity=28 time=0
note_on channel=0 note=60 velocity=52 time=1
note_on channel=0 note=79 velocity=0 time=4
note_on channel=0 note=61 velocity=0 time=4
note_on channel=0 note=60 velocity=0 time=18
note_on channel=0 note=93 velocity=69 time=23
note_on channel=0 note=91 velocity=0 time=4
note_on channel=0 note=58 velocity=75 time=25
note_on channel=0 note=93 velocity=0 time=3
note_on channel=0 note=64 velocity=73 time=3
note_on channel=0 note=58 velocity=0 time=22
note_on channel=0 note=73 velocity=95 time=12
control_change channel=0 control=64 value=52 time=10
note_on channel=0 note=79 velocity=72 time=2
note_on channel=0 note=91 velocity=77 time=2
control_change channel=0 control=64 value=68 time=12
note_on channel=0 note=73 velocity=0 time=4
note_on channel=0 note=79 velocity=0 time=6
note_on channel=0 note=64 velocity=0 time=3
control_change channel=0 control=64 value=71 time=2
control_change channel=0 control=64 value=73 time=14
control_change channel=0 control=64 value=74 time=16
note_on channel=0 note=93 velocity=78 time=7
note_on channel=0 note=91 velocity=0 time=4
control_change channel=0 control=64 value=74 time=4
control_change channel=0 control=64 value=72 time=31
note_on channel=0 note=93 velocity=0 time=7
control_change channel=0 control=64 value=68 time=7
control_change channel=0 control=64 value=60 time=16
control_change channel=0 control=64 value=0 time=15
note_on channel=0 note=91 velocity=62 time=1
note_on channel=0 note=79 velocity=69 time=1
note_on channel=0 note=79 velocity=0 time=22
note_on channel=0 note=93 velocity=80 time=37
note_on channel=0 note=91 velocity=0 time=2
note_on channel=0 note=93 velocity=0 time=42
note_on channel=0 note=79 velocity=65 time=32
note_on channel=0 note=91 velocity=63 time=13
note_on channel=0 note=79 velocity=0 time=21
note_on channel=0 note=93 velocity=82 time=38
note_on channel=0 note=91 velocity=0 time=1
note_on channel=0 note=93 velocity=0 time=26
note_on channel=0 note=61 velocity=96 time=30
note_on channel=0 note=49 velocity=84 time=1
note_on channel=0 note=79 velocity=80 time=14
note_on channel=0 note=61 velocity=0 time=4
note_on channel=0 note=91 velocity=65 time=3
note_on channel=0 note=49 velocity=0 time=6
note_on channel=0 note=79 velocity=0 time=10
note_on channel=0 note=93 velocity=84 time=42
note_on channel=0 note=91 velocity=0 time=17
note_on channel=0 note=93 velocity=0 time=15
note_on channel=0 note=50 velocity=82 time=25
note_on channel=0 note=91 velocity=59 time=8
note_on channel=0 note=62 velocity=71 time=2
note_on channel=0 note=79 velocity=79 time=2
note_on channel=0 note=50 velocity=0 time=15
note_on channel=0 note=79 velocity=0 time=6
note_on channel=0 note=62 velocity=0 time=4
note_on channel=0 note=93 velocity=84 time=35
note_on channel=0 note=91 velocity=0 time=7
note_on channel=0 note=93 velocity=0 time=22
note_on channel=0 note=64 velocity=90 time=38
note_on channel=0 note=79 velocity=84 time=3
note_on channel=0 note=91 velocity=73 time=0
note_on channel=0 note=52 velocity=84 time=3
note_on channel=0 note=64 velocity=0 time=20
note_on channel=0 note=79 velocity=0 time=1
note_on channel=0 note=52 velocity=0 time=6
note_on channel=0 note=93 velocity=85 time=36
note_on channel=0 note=91 velocity=0 time=9
note_on channel=0 note=93 velocity=0 time=33
note_on channel=0 note=59 velocity=92 time=23
note_on channel=0 note=47 velocity=78 time=9
note_on channel=0 note=79 velocity=82 time=0
note_on channel=0 note=91 velocity=72 time=2
note_on channel=0 note=59 velocity=0 time=7
note_on channel=0 note=79 velocity=0 time=14
note_on channel=0 note=47 velocity=0 time=7
note_on channel=0 note=91 velocity=0 time=40
note_on channel=0 note=93 velocity=81 time=1
note_on channel=0 note=93 velocity=0 time=16
note_on channel=0 note=91 velocity=69 time=46
note_on channel=0 note=79 velocity=71 time=4
note_on channel=0 note=79 velocity=0 time=23
note_on channel=0 note=93 velocity=76 time=32
note_on channel=0 note=91 velocity=0 time=8
note_on channel=0 note=93 velocity=0 time=24
note_on channel=0 note=91 velocity=74 time=43
note_on channel=0 note=79 velocity=72 time=5
note_on channel=0 note=79 velocity=0 time=21
note_on channel=0 note=93 velocity=86 time=36
note_on channel=0 note=91 velocity=0 time=11
note_on channel=0 note=93 velocity=0 time=32
note_on channel=0 note=91 velocity=71 time=33
note_on channel=0 note=71 velocity=92 time=2
note_on channel=0 note=79 velocity=75 time=2
note_on channel=0 note=67 velocity=84 time=3
note_on channel=0 note=79 velocity=0 time=19
note_on channel=0 note=71 velocity=0 time=6
note_on channel=0 note=67 velocity=0 time=4
note_on channel=0 note=91 velocity=0 time=34
note_on channel=0 note=93 velocity=78 time=3
note_on channel=0 note=93 velocity=0 time=26
note_on channel=0 note=79 velocity=80 time=37
note_on channel=0 note=91 velocity=69 time=2
note_on channel=0 note=69 velocity=78 time=3
note_on channel=0 note=66 velocity=72 time=4
note_on channel=0 note=79 velocity=0 time=13
note_on channel=0 note=69 velocity=0 time=8
note_on channel=0 note=66 velocity=0 time=5
note_on channel=0 note=91 velocity=0 time=40
note_on channel=0 note=93 velocity=71 time=1
note_on channel=0 note=64 velocity=77 time=28
note_on channel=0 note=91 velocity=73 time=30
note_on channel=0 note=93 velocity=0 time=0
note_on channel=0 note=79 velocity=83 time=4
note_on channel=0 note=67 velocity=76 time=2
note_on channel=0 note=64 velocity=0 time=17
note_on channel=0 note=79 velocity=0 time=12
note_on channel=0 note=67 velocity=0 time=35
note_on channel=0 note=93 velocity=84 time=8
note_on channel=0 note=59 velocity=82 time=2
note_on channel=0 note=91 velocity=0 time=0
note_on channel=0 note=67 velocity=66 time=21
note_on channel=0 note=59 velocity=0 time=15
note_on channel=0 note=93 velocity=0 time=15
note_on channel=0 note=91 velocity=79 time=10
note_on channel=0 note=79 velocity=88 time=5
note_on channel=0 note=76 velocity=99 time=7
control_change channel=0 control=64 value=27 time=8
note_on channel=0 note=76 velocity=0 time=13
control_change channel=0 control=64 value=68 time=2
note_on channel=0 note=79 velocity=0 time=6
control_change channel=0 control=64 value=74 time=11
note_on channel=0 note=67 velocity=0 time=2
note_on channel=0 note=68 velocity=9 time=4
note_on channel=0 note=68 velocity=0 time=1
control_change channel=0 control=64 value=78 time=8
note_on channel=0 note=93 velocity=86 time=14
control_change channel=0 control=64 value=81 time=1
note_on channel=0 note=91 velocity=0 time=3
control_change channel=0 control=64 value=83 time=12
note_on channel=0 note=93 velocity=0 time=18
control_change channel=0 control=64 value=82 time=12
control_change channel=0 control=64 value=75 time=15
note_on channel=0 note=91 velocity=74 time=4
note_on channel=0 note=79 velocity=76 time=8
control_change channel=0 control=64 value=49 time=3
control_change channel=0 control=64 value=0 time=16
note_on channel=0 note=79 velocity=0 time=1
note_on channel=0 note=93 velocity=83 time=49
note_on channel=0 note=91 velocity=0 time=3
note_on channel=0 note=93 velocity=0 time=32
note_on channel=0 note=91 velocity=76 time=30
note_on channel=0 note=79 velocity=73 time=6
note_on channel=0 note=79 velocity=0 time=21
note_on channel=0 note=93 velocity=93 time=33
note_on channel=0 note=91 velocity=0 time=7
note_on channel=0 note=93 velocity=0 time=32
note_on channel=0 note=60 velocity=97 time=26
note_on channel=0 note=79 velocity=96 time=3
note_on channel=0 note=91 velocity=94 time=0
note_on channel=0 note=52 velocity=82 time=1
note_on channel=0 note=55 velocity=86 time=2
note_on channel=0 note=48 velocity=78 time=5
note_on channel=0 note=60 velocity=0 time=21
note_on channel=0 note=55 velocity=0 time=1
note_on channel=0 note=79 velocity=0 time=2
control_change channel=0 control=64 value=55 time=6
note_on channel=0 note=52 velocity=0 time=2
note_on channel=0 note=48 velocity=0 time=10
control_change channel=0 control=64 value=76 time=4
control_change channel=0 control=64 value=84 time=16
note_on channel=0 note=93 velocity=90 time=0
note_on channel=0 note=91 velocity=0 time=6
control_change channel=0 control=64 value=95 time=9
control_change channel=0 control=64 value=98 time=15
control_change channel=0 control=64 value=102 time=15
control_change channel=0 control=64 value=104 time=15
note_on channel=0 note=93 velocity=0 time=0
note_on channel=0 note=91 velocity=75 time=10
note_on channel=0 note=79 velocity=82 time=1
control_change channel=0 control=64 value=105 time=5
note_on channel=0 note=43 velocity=82 time=4
note_on channel=0 note=51 velocity=67 time=0
control_change channel=0 control=64 value=106 time=10
note_on channel=0 note=79 velocity=0 time=17
note_on channel=0 note=51 velocity=0 time=6
note_on channel=0 note=48 velocity=62 time=9
note_on channel=0 note=52 velocity=78 time=3
note_on channel=0 note=55 velocity=87 time=5
note_on channel=0 note=43 velocity=0 time=1
control_change channel=0 control=64 value=106 time=5
note_on channel=0 note=93 velocity=90 time=7
note_on channel=0 note=91 velocity=0 time=8
note_on channel=0 note=55 velocity=0 time=22
note_on channel=0 note=93 velocity=0 time=10
note_on channel=0 note=43 velocity=83 time=13
note_on channel=0 note=52 velocity=0 time=0
control_change channel=0 control=64 value=106 time=1
note_on channel=0 note=48 velocity=0 time=9
note_on channel=0 note=91 velocity=80 time=0
note_on channel=0 note=79 velocity=93 time=2
control_change channel=0 control=64 value=105 time=19
note_on channel=0 note=79 velocity=0 time=12
note_on channel=0 note=43 velocity=0 time=2
control_change channel=0 control=64 value=99 time=1
control_change channel=0 control=64 value=86 time=15
control_change channel=0 control=64 value=66 time=16
note_on channel=0 note=93 velocity=86 time=3
note_on channel=0 note=91 velocity=0 time=6
control_change channel=0 control=64 value=0 time=5
note_on channel=0 note=55 velocity=88 time=32
note_on channel=0 note=48 velocity=78 time=2
note_on channel=0 note=52 velocity=82 time=1
note_on channel=0 note=93 velocity=0 time=0
note_on channel=0 note=91 velocity=78 time=11
note_on channel=0 note=79 velocity=93 time=1
note_on channel=0 note=55 velocity=0 time=11
note_on channel=0 note=52 velocity=0 time=9
note_on channel=0 note=79 velocity=0 time=8
note_on channel=0 note=48 velocity=0 time=2
note_on channel=0 note=93 velocity=84 time=43
note_on channel=0 note=91 velocity=0 time=1
note_on channel=0 note=79 velocity=91 time=63
note_on channel=0 note=51 velocity=72 time=4
note_on channel=0 note=43 velocity=70 time=2
note_on channel=0 note=91 velocity=69 time=1
note_on channel=0 note=93 velocity=0 time=0
note_on channel=0 note=79 velocity=0 time=25
note_on channel=0 note=51 velocity=0 time=5
note_on channel=0 note=43 velocity=0 time=22
note_on channel=0 note=93 velocity=73 time=24
note_on channel=0 note=91 velocity=0 time=2
note_on channel=0 note=93 velocity=0 time=33
note_on channel=0 note=48 velocity=68 time=1
note_on channel=0 note=55 velocity=94 time=3
note_on channel=0 note=79 velocity=96 time=7
note_on channel=0 note=48 velocity=0 time=14
note_on channel=0 note=91 velocity=64 time=0
note_on channel=0 note=52 velocity=39 time=2
note_on channel=0 note=52 velocity=0 time=1
note_on channel=0 note=55 velocity=0 time=1
note_on channel=0 note=79 velocity=0 time=12
note_on channel=0 note=91 velocity=0 time=52
note_on channel=0 note=88 velocity=94 time=44
note_on channel=0 note=84 velocity=85 time=3
note_on channel=0 note=76 velocity=81 time=8
note_on channel=0 note=72 velocity=78 time=1
note_on channel=0 note=91 velocity=64 time=3
note_on channel=0 note=72 velocity=0 time=17
note_on channel=0 note=76 velocity=0 time=6
note_on channel=0 note=84 velocity=0 time=3
note_on channel=0 note=88 velocity=0 time=19
note_on channel=0 note=93 velocity=84 time=4
note_on channel=0 note=91 velocity=0 time=18
note_on channel=0 note=83 velocity=91 time=60
note_on channel=0 note=86 velocity=87 time=2
note_on channel=0 note=74 velocity=80 time=2
note_on channel=0 note=67 velocity=76 time=1
note_on channel=0 note=91 velocity=69 time=0
note_on channel=0 note=93 velocity=0 time=5
note_on channel=0 note=83 velocity=0 time=24
note_on channel=0 note=67 velocity=0 time=14
note_on channel=0 note=86 velocity=0 time=2
note_on channel=0 note=74 velocity=0 time=2
note_on channel=0 note=93 velocity=62 time=1
note_on channel=0 note=76 velocity=81 time=18
note_on channel=0 note=91 velocity=0 time=10
note_on channel=0 note=83 velocity=94 time=42
note_on channel=0 note=86 velocity=93 time=0
note_on channel=0 note=91 velocity=68 time=6
note_on channel=0 note=74 velocity=85 time=3
note_on channel=0 note=67 velocity=74 time=2
note_on channel=0 note=76 velocity=0 time=3
note_on channel=0 note=83 velocity=0 time=19
note_on channel=0 note=67 velocity=0 time=4
note_on channel=0 note=86 velocity=0 time=8
note_on channel=0 note=74 velocity=0 time=9
note_on channel=0 note=93 velocity=0 time=2
note_on channel=0 note=93 velocity=35 time=0
note_on channel=0 note=91 velocity=0 time=24
note_on channel=0 note=93 velocity=0 time=12
note_on channel=0 note=88 velocity=90 time=37
note_on channel=0 note=76 velocity=88 time=3
note_on channel=0 note=84 velocity=92 time=0
note_on channel=0 note=91 velocity=67 time=0
note_on channel=0 note=72 velocity=78 time=2
note_on channel=0 note=84 velocity=0 time=28
note_on channel=0 note=76 velocity=0 time=3
note_on channel=0 note=72 velocity=0 time=1
note_on channel=0 note=88 velocity=0 time=14
note_on channel=0 note=91 velocity=0 time=19
note_on channel=0 note=93 velocity=67 time=6
note_on channel=0 note=86 velocity=93 time=62
note_on channel=0 note=83 velocity=87 time=2
note_on channel=0 note=74 velocity=86 time=3
note_on channel=0 note=91 velocity=72 time=7
note_on channel=0 note=67 velocity=68 time=2
note_on channel=0 note=93 velocity=0 time=2
note_on channel=0 note=83 velocity=0 time=14
note_on channel=0 note=67 velocity=0 time=14
note_on channel=0 note=86 velocity=0 time=4
note_on channel=0 note=74 velocity=0 time=6
note_on channel=0 note=93 velocity=57 time=0
note_on channel=0 note=91 velocity=0 time=26
note_on channel=0 note=76 velocity=73 time=48
note_on channel=0 note=84 velocity=84 time=0
note_on channel=0 note=72 velocity=72 time=1
note_on channel=0 note=88 velocity=88 time=2
note_on channel=0 note=91 velocity=64 time=0
note_on channel=0 note=93 velocity=0 time=12
note_on channel=0 note=72 velocity=0 time=8
note_on channel=0 note=76 velocity=0 time=0
note_on channel=0 note=84 velocity=0 time=5
note_on channel=0 note=88 velocity=0 time=27
note_on channel=0 note=93 velocity=75 time=3
control_change channel=0 control=64 value=41 time=12
note_on channel=0 note=91 velocity=0 time=10
control_change channel=0 control=64 value=58 time=5
control_change channel=0 control=64 value=50 time=16
control_change channel=0 control=64 value=42 time=15
note_on channel=0 note=93 velocity=0 time=0
note_on channel=0 note=91 velocity=73 time=12
control_change channel=0 control=64 value=38 time=3
note_on channel=0 note=79 velocity=97 time=0
note_on channel=0 note=88 velocity=83 time=4
note_on channel=0 note=60 velocity=84 time=7
note_on channel=0 note=48 velocity=87 time=2
control_change channel=0 control=64 value=41 time=3
control_change channel=0 control=64 value=51 time=14
note_on channel=0 note=79 velocity=0 time=2
note_on channel=0 note=60 velocity=0 time=1
note_on channel=0 note=48 velocity=0 time=5
control_change channel=0 control=64 value=59 time=8
note_on channel=0 note=88 velocity=0 time=12
control_change channel=0 control=64 value=63 time=3
note_on channel=0 note=93 velocity=83 time=8
control_change channel=0 control=64 value=66 time=7
note_on channel=0 note=91 velocity=0 time=12
control_change channel=0 control=64 value=64 time=19
control_change channel=0 control=64 value=60 time=16
note_on channel=0 note=79 velocity=99 time=10
control_change channel=0 control=64 value=53 time=5
note_on channel=0 note=91 velocity=78 time=0
note_on channel=0 note=88 velocity=79 time=7
note_on channel=0 note=59 velocity=86 time=2
note_on channel=0 note=47 velocity=83 time=1
note_on channel=0 note=93 velocity=0 time=4
control_change channel=0 control=64 value=59 time=1
control_change channel=0 control=64 value=63 time=16
note_on channel=0 note=79 velocity=0 time=1
note_on channel=0 note=47 velocity=0 time=5
note_on channel=0 note=59 velocity=0 time=0
control_change channel=0 control=64 value=66 time=8
note_on channel=0 note=93 velocity=74 time=10
control_change channel=0 control=64 value=68 time=5
note_on channel=0 note=88 velocity=0 time=2
control_change channel=0 control=64 value=70 time=14
note_on channel=0 note=91 velocity=0 time=14
control_change channel=0 control=64 value=71 time=3
control_change channel=0 control=64 value=70 time=16
note_on channel=0 note=91 velocity=61 time=13
control_change channel=0 control=64 value=66 time=1
note_on channel=0 note=79 velocity=97 time=4
note_on channel=0 note=58 velocity=97 time=3
note_on channel=0 note=46 velocity=88 time=5
control_change channel=0 control=64 value=57 time=4
note_on channel=0 note=88 velocity=66 time=2
note_on channel=0 note=89 velocity=59 time=8
note_on channel=0 note=93 velocity=0 time=0
note_on channel=0 note=79 velocity=0 time=4
control_change channel=0 control=64 value=59 time=1
note_on channel=0 note=89 velocity=0 time=14
control_change channel=0 control=64 value=66 time=1
note_on channel=0 note=58 velocity=0 time=9
note_on channel=0 note=88 velocity=0 time=5
control_change channel=0 control=64 value=71 time=2
note_on channel=0 note=46 velocity=0 time=11
note_on channel=0 note=91 velocity=0 time=2
control_change channel=0 control=64 value=75 time=1
control_change channel=0 control=64 value=79 time=15
control_change channel=0 control=64 value=80 time=16
control_change channel=0 control=64 value=79 time=14
note_on channel=0 note=79 velocity=98 time=4
note_on channel=0 note=87 velocity=66 time=1
note_on channel=0 note=90 velocity=84 time=3
control_change channel=0 control=64 value=72 time=8
note_on channel=0 note=59 velocity=91 time=2
note_on channel=0 note=88 velocity=78 time=2
note_on channel=0 note=47 velocity=88 time=4
note_on channel=0 note=87 velocity=0 time=3
note_on channel=0 note=91 velocity=68 time=3
control_change channel=0 control=64 value=42 time=1
note_on channel=0 note=79 velocity=0 time=8
control_change channel=0 control=64 value=0 time=7
note_on channel=0 note=88 velocity=0 time=12
note_on channel=0 note=59 velocity=0 time=5
note_on channel=0 note=90 velocity=0 time=0
note_on channel=0 note=91 velocity=0 time=16
note_on channel=0 note=47 velocity=0 time=1
control_change channel=0 control=64 value=48 time=11
control_change channel=0 control=64 value=63 time=26
control_change channel=0 control=64 value=67 time=16
note_on channel=0 note=78 velocity=93 time=14
control_change channel=0 control=64 value=68 time=1
note_on channel=0 note=90 velocity=64 time=4
note_on channel=0 note=87 velocity=65 time=5
note_on channel=0 note=91 velocity=75 time=1
control_change channel=0 control=64 value=68 time=20
note_on channel=0 note=78 velocity=0 time=12
control_change channel=0 control=64 value=70 time=3
control_change channel=0 control=64 value=73 time=16
note_on channel=0 note=87 velocity=0 time=7
note_on channel=0 note=90 velocity=0 time=4
control_change channel=0 control=64 value=75 time=3
note_on channel=0 note=91 velocity=0 time=2
control_change channel=0 control=64 value=75 time=13
control_change channel=0 control=64 value=74 time=31
note_on channel=0 note=87 velocity=77 time=5
note_on channel=0 note=76 velocity=87 time=6
control_change channel=0 control=64 value=69 time=3
note_on channel=0 note=88 velocity=82 time=7
note_on channel=0 note=52 velocity=86 time=1
note_on channel=0 note=40 velocity=82 time=4
control_change channel=0 control=64 value=0 time=4
note_on channel=0 note=76 velocity=0 time=12
note_on channel=0 note=89 velocity=76 time=1
note_on channel=0 note=40 velocity=0 time=17
note_on channel=0 note=52 velocity=0 time=5
note_on channel=0 note=88 velocity=0 time=14
note_on channel=0 note=87 velocity=0 time=5
note_on channel=0 note=89 velocity=0 time=10
note_on channel=0 note=74 velocity=100 time=46
note_on channel=0 note=54 velocity=93 time=2
note_on channel=0 note=86 velocity=82 time=1
note_on channel=0 note=42 velocity=90 time=3
note_on channel=0 note=54 velocity=0 time=18
note_on channel=0 note=74 velocity=0 time=12
note_on channel=0 note=42 velocity=0 time=9
note_on channel=0 note=88 velocity=77 time=5
note_on channel=0 note=86 velocity=0 time=22
note_on channel=0 note=88 velocity=0 time=18
note_on channel=0 note=74 velocity=96 time=43
note_on channel=0 note=85 velocity=53 time=12
note_on channel=0 note=86 velocity=74 time=2
note_on channel=0 note=74 velocity=0 time=16
note_on channel=0 note=85 velocity=0 time=6
note_on channel=0 note=88 velocity=78 time=11
note_on channel=0 note=88 velocity=0 time=40
note_on channel=0 note=86 velocity=0 time=12
note_on channel=0 note=42 velocity=83 time=20
note_on channel=0 note=73 velocity=95 time=8
note_on channel=0 note=85 velocity=63 time=2
note_on channel=0 note=30 velocity=61 time=3
note_on channel=0 note=84 velocity=79 time=11
note_on channel=0 note=42 velocity=0 time=5
note_on channel=0 note=85 velocity=0 time=2
note_on channel=0 note=30 velocity=0 time=17
note_on channel=0 note=73 velocity=0 time=6
note_on channel=0 note=85 velocity=74 time=33
note_on channel=0 note=84 velocity=0 time=3
note_on channel=0 note=85 velocity=0 time=21
note_on channel=0 note=47 velocity=93 time=23
note_on channel=0 note=35 velocity=82 time=7
note_on channel=0 note=71 velocity=100 time=12
note_on channel=0 note=82 velocity=76 time=7
note_on channel=0 note=35 velocity=0 time=8
note_on channel=0 note=47 velocity=0 time=0
control_change channel=0 control=64 value=62 time=2
note_on channel=0 note=83 velocity=81 time=0
control_change channel=0 control=64 value=70 time=14
note_on channel=0 note=82 velocity=0 time=2
note_on channel=0 note=71 velocity=0 time=2
control_change channel=0 control=64 value=74 time=12
control_change channel=0 control=64 value=78 time=23
note_on channel=0 note=85 velocity=62 time=15
control_change channel=0 control=64 value=84 time=1
note_on channel=0 note=83 velocity=0 time=14
control_change channel=0 control=64 value=89 time=1
control_change channel=0 control=64 value=88 time=15
note_on channel=0 note=85 velocity=0 time=10
control_change channel=0 control=64 value=80 time=5
note_on channel=0 note=71 velocity=99 time=10
control_change channel=0 control=64 value=67 time=5
note_on channel=0 note=82 velocity=73 time=4
note_on channel=0 note=83 velocity=69 time=9
control_change channel=0 control=64 value=38 time=3
note_on channel=0 note=82 velocity=0 time=7
control_change channel=0 control=64 value=61 time=8
note_on channel=0 note=71 velocity=0 time=1
control_change channel=0 control=64 value=67 time=13
control_change channel=0 control=64 value=70 time=16
control_change channel=0 control=64 value=73 time=15
control_change channel=0 control=64 value=77 time=16
control_change channel=0 control=64 value=80 time=14
note_on channel=0 note=71 velocity=87 time=12
note_on channel=0 note=85 velocity=86 time=0
control_change channel=0 control=64 value=82 time=3
control_change channel=0 control=64 value=84 time=16
note_on channel=0 note=71 velocity=0 time=1
control_change channel=0 control=64 value=85 time=14
note_on channel=0 note=83 velocity=0 time=1
control_change channel=0 control=64 value=87 time=15
note_on channel=0 note=85 velocity=0 time=12
control_change channel=0 control=64 value=94 time=2
control_change channel=0 control=64 value=100 time=15
control_change channel=0 control=64 value=101 time=16
control_change channel=0 control=64 value=99 time=15
control_change channel=0 control=64 value=87 time=15
note_on channel=0 note=62 velocity=93 time=15
control_change channel=0 control=64 value=70 time=1
note_on channel=0 note=50 velocity=86 time=1
note_on channel=0 note=83 velocity=96 time=4
note_on channel=0 note=95 velocity=102 time=2
control_change channel=0 control=64 value=0 time=8
note_on channel=0 note=94 velocity=57 time=8
control_change channel=0 control=64 value=62 time=8
note_on channel=0 note=83 velocity=0 time=8
note_on channel=0 note=62 velocity=0 time=3
control_change channel=0 control=64 value=70 time=3
note_on channel=0 note=94 velocity=0 time=0
note_on channel=0 note=50 velocity=0 time=8
control_change channel=0 control=64 value=76 time=7
control_change channel=0 control=64 value=83 time=16
note_on channel=0 note=95 velocity=0 time=2
control_change channel=0 control=64 value=87 time=13
control_change channel=0 control=64 value=86 time=15
control_change channel=0 control=64 value=74 time=15
note_on channel=0 note=83 velocity=100 time=12
note_on channel=0 note=95 velocity=95 time=0
control_change channel=0 control=64 value=59 time=4
note_on channel=0 note=64 velocity=95 time=3
note_on channel=0 note=52 velocity=90 time=3
control_change channel=0 control=64 value=57 time=10
control_change channel=0 control=64 value=68 time=15
note_on channel=0 note=52 velocity=0 time=3
note_on channel=0 note=83 velocity=0 time=0
note_on channel=0 note=64 velocity=0 time=11
control_change channel=0 control=64 value=72 time=1
control_change channel=0 control=64 value=74 time=15
note_on channel=0 note=95 velocity=0 time=8
control_change channel=0 control=64 value=73 time=7
control_change channel=0 control=64 value=69 time=16
control_change channel=0 control=64 value=68 time=15
control_change channel=0 control=64 value=71 time=15
note_on channel=0 note=83 velocity=92 time=2
note_on channel=0 note=95 velocity=91 time=4
note_on channel=0 note=54 velocity=81 time=4
note_on channel=0 note=66 velocity=81 time=1
control_change channel=0 control=64 value=76 time=4
note_on channel=0 note=83 velocity=0 time=11
note_on channel=0 note=94 velocity=45 time=2
control_change channel=0 control=64 value=82 time=2
note_on channel=0 note=54 velocity=0 time=1
note_on channel=0 note=66 velocity=0 time=0
control_change channel=0 control=64 value=87 time=14
note_on channel=0 note=97 velocity=89 time=0
note_on channel=0 note=94 velocity=0 time=8
control_change channel=0 control=64 value=90 time=8
note_on channel=0 note=95 velocity=0 time=8
control_change channel=0 control=64 value=93 time=7
control_change channel=0 control=64 value=94 time=15
note_on channel=0 note=97 velocity=0 time=19
control_change channel=0 control=64 value=92 time=11
note_on channel=0 note=82 velocity=99 time=6
note_on channel=0 note=94 velocity=85 time=3
control_change channel=0 control=64 value=76 time=7
note_on channel=0 note=61 velocity=91 time=1
note_on channel=0 note=49 velocity=83 time=2
control_change channel=0 control=64 value=0 time=12
note_on channel=0 note=49 velocity=0 time=5
note_on channel=0 note=61 velocity=0 time=0
note_on channel=0 note=82 velocity=0 time=20
note_on channel=0 note=96 velocity=85 time=21
note_on channel=0 note=94 velocity=0 time=10
note_on channel=0 note=96 velocity=0 time=30
note_on channel=0 note=82 velocity=99 time=26
note_on channel=0 note=94 velocity=64 time=11
note_on channel=0 note=82 velocity=0 time=12
note_on channel=0 note=94 velocity=0 time=43
note_on channel=0 note=96 velocity=80 time=3
note_on channel=0 note=96 velocity=0 time=38
note_on channel=0 note=82 velocity=86 time=23
note_on channel=0 note=94 velocity=70 time=4
note_on channel=0 note=82 velocity=0 time=14
note_on channel=0 note=94 velocity=0 time=41
note_on channel=0 note=96 velocity=85 time=7
note_on channel=0 note=96 velocity=0 time=40
note_on channel=0 note=82 velocity=95 time=18
note_on channel=0 note=70 velocity=78 time=3
note_on channel=0 note=94 velocity=78 time=0
note_on channel=0 note=67 velocity=69 time=8
note_on channel=0 note=82 velocity=0 time=11
note_on channel=0 note=70 velocity=0 time=1
note_on channel=0 note=67 velocity=0 time=13
note_on channel=0 note=94 velocity=0 time=34
note_on channel=0 note=96 velocity=75 time=4
note_on channel=0 note=96 velocity=0 time=40
note_on channel=0 note=82 velocity=91 time=17
note_on channel=0 note=94 velocity=70 time=3
note_on channel=0 note=69 velocity=80 time=4
note_on channel=0 note=82 velocity=0 time=15
note_on channel=0 note=69 velocity=0 time=25
note_on channel=0 note=94 velocity=0 time=20
note_on channel=0 note=96 velocity=62 time=15
note_on channel=0 note=96 velocity=0 time=23
note_on channel=0 note=67 velocity=81 time=19
note_on channel=0 note=82 velocity=86 time=11
note_on channel=0 note=94 velocity=66 time=0
note_on channel=0 note=64 velocity=73 time=1
note_on channel=0 note=82 velocity=0 time=21
note_on channel=0 note=67 velocity=0 time=6
note_on channel=0 note=64 velocity=0 time=2
note_on channel=0 note=96 velocity=82 time=36
note_on channel=0 note=94 velocity=0 time=1
note_on channel=0 note=67 velocity=86 time=37
note_on channel=0 note=61 velocity=84 time=2
note_on channel=0 note=96 velocity=0 time=15
note_on channel=0 note=61 velocity=0 time=7
note_on channel=0 note=76 velocity=99 time=12
note_on channel=0 note=82 velocity=91 time=6
note_on channel=0 note=94 velocity=64 time=7
control_change channel=0 control=64 value=14 time=18
note_on channel=0 note=76 velocity=0 time=0
note_on channel=0 note=82 velocity=0 time=3
note_on channel=0 note=67 velocity=0 time=1
control_change channel=0 control=64 value=66 time=11
note_on channel=0 note=94 velocity=0 time=0
control_change channel=0 control=64 value=71 time=16
note_on channel=0 note=63 velocity=16 time=1
note_on channel=0 note=63 velocity=0 time=1
control_change channel=0 control=64 value=75 time=13
note_on channel=0 note=96 velocity=87 time=0
control_change channel=0 control=64 value=80 time=16
control_change channel=0 control=64 value=84 time=15
control_change channel=0 control=64 value=84 time=15
note_on channel=0 note=96 velocity=0 time=9
note_on channel=0 note=82 velocity=79 time=15
control_change channel=0 control=64 value=80 time=6
note_on channel=0 note=94 velocity=58 time=4
note_on channel=0 note=82 velocity=0 time=10
control_change channel=0 control=64 value=69 time=1
control_change channel=0 control=64 value=0 time=16
note_on channel=0 note=94 velocity=0 time=19
note_on channel=0 note=96 velocity=78 time=4
note_on channel=0 note=96 velocity=0 time=33
note_on channel=0 note=82 velocity=82 time=39
note_on channel=0 note=94 velocity=60 time=9
note_on channel=0 note=82 velocity=0 time=12
note_on channel=0 note=94 velocity=0 time=40
note_on channel=0 note=96 velocity=83 time=0
note_on channel=0 note=96 velocity=0 time=39
note_on channel=0 note=64 velocity=100 time=28
note_on channel=0 note=52 velocity=91 time=1
note_on channel=0 note=82 velocity=86 time=5
note_on channel=0 note=94 velocity=58 time=8
note_on channel=0 note=52 velocity=0 time=10
note_on channel=0 note=82 velocity=0 time=1
note_on channel=0 note=64 velocity=0 time=3
note_on channel=0 note=94 velocity=0 time=35
note_on channel=0 note=96 velocity=83 time=5
note_on channel=0 note=96 velocity=0 time=49
note_on channel=0 note=66 velocity=93 time=14
note_on channel=0 note=54 velocity=82 time=4
note_on channel=0 note=82 velocity=80 time=3
note_on channel=0 note=94 velocity=55 time=12
note_on channel=0 note=82 velocity=0 time=9
note_on channel=0 note=54 velocity=0 time=6
note_on channel=0 note=66 velocity=0 time=1
note_on channel=0 note=94 velocity=0 time=30
note_on channel=0 note=96 velocity=85 time=7
note_on channel=0 note=96 velocity=0 time=39
note_on channel=0 note=67 velocity=85 time=33
note_on channel=0 note=82 velocity=84 time=0
note_on channel=0 note=55 velocity=87 time=3
note_on channel=0 note=94 velocity=68 time=10
note_on channel=0 note=82 velocity=0 time=7
note_on channel=0 note=67 velocity=0 time=2
note_on channel=0 note=55 velocity=0 time=7
note_on channel=0 note=96 velocity=89 time=30
note_on channel=0 note=94 velocity=0 time=2
note_on channel=0 note=96 velocity=0 time=52
note_on channel=0 note=62 velocity=96 time=22
note_on channel=0 note=82 velocity=87 time=9
note_on channel=0 note=50 velocity=75 time=2
note_on channel=0 note=62 velocity=0 time=7
note_on channel=0 note=94 velocity=67 time=0
note_on channel=0 note=82 velocity=0 time=9
control_change channel=0 control=64 value=61 time=1
note_on channel=0 note=50 velocity=0 time=3
control_change channel=0 control=64 value=64 time=12
note_on channel=0 note=94 velocity=0 time=24
note_on channel=0 note=96 velocity=79 time=6
control_change channel=0 control=64 value=62 time=16
control_change channel=0 control=64 value=19 time=15
note_on channel=0 note=96 velocity=0 time=3
control_change channel=0 control=64 value=0 time=12
note_on channel=0 note=82 velocity=78 time=24
note_on channel=0 note=94 velocity=54 time=13
note_on channel=0 note=82 velocity=0 time=8
note_on channel=0 note=94 velocity=0 time=27
note_on channel=0 note=96 velocity=70 time=20
note_on channel=0 note=96 velocity=0 time=25
note_on channel=0 note=82 velocity=63 time=44
note_on channel=0 note=94 velocity=34 time=11
note_on channel=0 note=82 velocity=0 time=8
note_on channel=0 note=94 velocity=0 time=22
note_on channel=0 note=96 velocity=77 time=6
note_on channel=0 note=96 velocity=0 time=49
note_on channel=0 note=82 velocity=66 time=31
note_on channel=0 note=94 velocity=53 time=4
note_on channel=0 note=74 velocity=95 time=2
note_on channel=0 note=70 velocity=81 time=4
note_on channel=0 note=82 velocity=0 time=14
note_on channel=0 note=94 velocity=0 time=5
note_on channel=0 note=74 velocity=0 time=1
note_on channel=0 note=70 velocity=0 time=3
note_on channel=0 note=96 velocity=80 time=29
note_on channel=0 note=96 velocity=0 time=57
note_on channel=0 note=82 velocity=77 time=13
note_on channel=0 note=72 velocity=85 time=7
note_on channel=0 note=94 velocity=49 time=4
note_on channel=0 note=69 velocity=70 time=6
note_on channel=0 note=82 velocity=0 time=12
note_on channel=0 note=94 velocity=0 time=9
note_on channel=0 note=72 velocity=0 time=5
note_on channel=0 note=69 velocity=0 time=5
note_on channel=0 note=96 velocity=83 time=30
note_on channel=0 note=70 velocity=79 time=46
note_on channel=0 note=96 velocity=0 time=7
note_on channel=0 note=94 velocity=65 time=16
note_on channel=0 note=82 velocity=81 time=2
note_on channel=0 note=82 velocity=0 time=23
note_on channel=0 note=70 velocity=0 time=15
note_on channel=0 note=62 velocity=74 time=6
note_on channel=0 note=94 velocity=0 time=24
note_on channel=0 note=96 velocity=85 time=4
note_on channel=0 note=62 velocity=0 time=23
note_on channel=0 note=70 velocity=72 time=8
note_on channel=0 note=96 velocity=0 time=28
note_on channel=0 note=82 velocity=94 time=11
note_on channel=0 note=79 velocity=99 time=2
note_on channel=0 note=94 velocity=65 time=3
control_change channel=0 control=64 value=50 time=21
note_on channel=0 note=79 velocity=0 time=3
control_change channel=0 control=64 value=75 time=12
note_on channel=0 note=70 velocity=0 time=0
note_on channel=0 note=82 velocity=0 time=6
control_change channel=0 control=64 value=82 time=10
control_change channel=0 control=64 value=91 time=15
note_on channel=0 note=94 velocity=0 time=3
note_on channel=0 note=96 velocity=87 time=2
control_change channel=0 control=64 value=95 time=11
control_change channel=0 control=64 value=99 time=14
control_change channel=0 control=64 value=100 time=15
note_on channel=0 note=96 velocity=0 time=14
control_change channel=0 control=64 value=99 time=17
note_on channel=0 note=82 velocity=80 time=1
control_change channel=0 control=64 value=93 time=14
note_on channel=0 note=94 velocity=36 time=4
note_on channel=0 note=82 velocity=0 time=6
control_change channel=0 control=64 value=76 time=6
control_change channel=0 control=64 value=0 time=15
note_on channel=0 note=94 velocity=0 time=19
note_on channel=0 note=96 velocity=82 time=3
note_on channel=0 note=96 velocity=0 time=51
note_on channel=0 note=82 velocity=77 time=16
note_on channel=0 note=82 velocity=0 time=22
note_on channel=0 note=94 velocity=52 time=4
note_on channel=0 note=94 velocity=0 time=32
note_on channel=0 note=96 velocity=84 time=3
note_on channel=0 note=96 velocity=0 time=46
note_on channel=0 note=63 velocity=98 time=15
note_on channel=0 note=55 velocity=83 time=4
note_on channel=0 note=82 velocity=97 time=1
note_on channel=0 note=58 velocity=91 time=1
note_on channel=0 note=94 velocity=83 time=3
note_on channel=0 note=51 velocity=76 time=7
note_on channel=0 note=63 velocity=0 time=7
note_on channel=0 note=82 velocity=0 time=10
note_on channel=0 note=55 velocity=0 time=3
note_on channel=0 note=58 velocity=0 time=7
control_change channel=0 control=64 value=71 time=4
note_on channel=0 note=51 velocity=0 time=2
control_change channel=0 control=64 value=88 time=13
note_on channel=0 note=94 velocity=0 time=10
note_on channel=0 note=96 velocity=77 time=1
control_change channel=0 control=64 value=99 time=4
control_change channel=0 control=64 value=104 time=16
control_change channel=0 control=64 value=104 time=31
note_on channel=0 note=96 velocity=0 time=11
note_on channel=0 note=82 velocity=77 time=11
note_on channel=0 note=94 velocity=60 time=1
note_on channel=0 note=82 velocity=0 time=15
control_change channel=0 control=64 value=105 time=8
note_on channel=0 note=51 velocity=62 time=13
note_on channel=0 note=46 velocity=42 time=2
control_change channel=0 control=64 value=106 time=1
note_on channel=0 note=55 velocity=73 time=9
control_change channel=0 control=64 value=106 time=7
note_on channel=0 note=58 velocity=82 time=4
note_on channel=0 note=94 velocity=0 time=2
note_on channel=0 note=96 velocity=80 time=3
control_change channel=0 control=64 value=110 time=5
note_on channel=0 note=46 velocity=0 time=0
control_change channel=0 control=64 value=116 time=15
control_change channel=0 control=64 value=127 time=16
note_on channel=0 note=58 velocity=0 time=16
note_on channel=0 note=82 velocity=79 time=12
note_on channel=0 note=96 velocity=0 time=5
note_on channel=0 note=46 velocity=85 time=8
note_on channel=0 note=55 velocity=0 time=3
note_on channel=0 note=51 velocity=0 time=10
note_on channel=0 note=94 velocity=49 time=11
note_on channel=0 note=82 velocity=0 time=5
note_on channel=0 note=46 velocity=0 time=29
note_on channel=0 note=94 velocity=0 time=10
note_on channel=0 note=96 velocity=78 time=6
control_change channel=0 control=64 value=120 time=29
note_on channel=0 note=96 velocity=0 time=15
control_change channel=0 control=64 value=89 time=1
note_on channel=0 note=58 velocity=98 time=1
note_on channel=0 note=55 velocity=86 time=1
note_on channel=0 note=82 velocity=93 time=2
note_on channel=0 note=51 velocity=81 time=1
control_change channel=0 control=64 value=60 time=9
note_on channel=0 note=94 velocity=59 time=3
control_change channel=0 control=64 value=0 time=12
note_on channel=0 note=82 velocity=0 time=2
note_on channel=0 note=55 velocity=0 time=3
note_on channel=0 note=49 velocity=21 time=3
note_on channel=0 note=49 velocity=0 time=1
note_on channel=0 note=58 velocity=0 time=2
note_on channel=0 note=51 velocity=0 time=2
note_on channel=0 note=94 velocity=0 time=45
note_on channel=0 note=96 velocity=66 time=4
note_on channel=0 note=96 velocity=0 time=25
note_on channel=0 note=82 velocity=84 time=21
note_on channel=0 note=46 velocity=90 time=3
note_on channel=0 note=82 velocity=0 time=31
note_on channel=0 note=46 velocity=0 time=73
note_on channel=0 note=58 velocity=83 time=15
note_on channel=0 note=82 velocity=92 time=8
note_on channel=0 note=55 velocity=47 time=1
note_on channel=0 note=51 velocity=39 time=5
note_on channel=0 note=58 velocity=0 time=5
note_on channel=0 note=55 velocity=0 time=21
note_on channel=0 note=82 velocity=0 time=1
note_on channel=0 note=51 velocity=0 time=11
note_on channel=0 note=94 velocity=17 time=6
note_on channel=0 note=94 velocity=0 time=42
note_on channel=0 note=94 velocity=82 time=40
note_on channel=0 note=87 velocity=86 time=3
note_on channel=0 note=91 velocity=65 time=3
note_on channel=0 note=75 velocity=73 time=1
note_on channel=0 note=79 velocity=63 time=10
note_on channel=0 note=91 velocity=0 time=9
note_on channel=0 note=75 velocity=0 time=2
note_on channel=0 note=79 velocity=0 time=9
note_on channel=0 note=96 velocity=79 time=13
note_on channel=0 note=87 velocity=0 time=6
note_on channel=0 note=94 velocity=0 time=6
note_on channel=0 note=96 velocity=0 time=30
note_on channel=0 note=89 velocity=69 time=41
note_on channel=0 note=77 velocity=84 time=3
note_on channel=0 note=70 velocity=77 time=2
note_on channel=0 note=86 velocity=77 time=2
note_on channel=0 note=88 velocity=70 time=6
note_on channel=0 note=70 velocity=0 time=12
note_on channel=0 note=88 velocity=0 time=5
note_on channel=0 note=86 velocity=0 time=11
note_on channel=0 note=89 velocity=0 time=3
note_on channel=0 note=96 velocity=83 time=6
note_on channel=0 note=77 velocity=0 time=2
note_on channel=0 note=79 velocity=84 time=11
note_on channel=0 note=89 velocity=90 time=60
note_on channel=0 note=77 velocity=85 time=10
note_on channel=0 note=96 velocity=0 time=4
note_on channel=0 note=70 velocity=80 time=4
note_on channel=0 note=86 velocity=70 time=0
note_on channel=0 note=94 velocity=76 time=0
note_on channel=0 note=79 velocity=0 time=4
note_on channel=0 note=86 velocity=0 time=11
note_on channel=0 note=89 velocity=0 time=8
note_on channel=0 note=70 velocity=0 time=2
note_on channel=0 note=77 velocity=0 time=5
note_on channel=0 note=96 velocity=53 time=30
note_on channel=0 note=94 velocity=0 time=7
note_on channel=0 note=94 velocity=64 time=40
note_on channel=0 note=87 velocity=90 time=5
note_on channel=0 note=91 velocity=78 time=5
note_on channel=0 note=96 velocity=0 time=4
note_on channel=0 note=75 velocity=86 time=5
note_on channel=0 note=79 velocity=87 time=2
note_on channel=0 note=91 velocity=0 time=30
note_on channel=0 note=79 velocity=0 time=4
note_on channel=0 note=87 velocity=0 time=1
note_on channel=0 note=75 velocity=0 time=11
note_on channel=0 note=96 velocity=79 time=7
note_on channel=0 note=94 velocity=0 time=5
note_on channel=0 note=86 velocity=85 time=61
note_on channel=0 note=89 velocity=91 time=0
note_on channel=0 note=96 velocity=0 time=15
note_on channel=0 note=77 velocity=88 time=1
note_on channel=0 note=70 velocity=83 time=3
note_on channel=0 note=86 velocity=0 time=5
note_on channel=0 note=89 velocity=0 time=24
note_on channel=0 note=70 velocity=0 time=10
note_on channel=0 note=94 velocity=51 time=6
note_on channel=0 note=77 velocity=0 time=6
note_on channel=0 note=96 velocity=55 time=0
note_on channel=0 note=94 velocity=0 time=18
note_on channel=0 note=87 velocity=87 time=40
note_on channel=0 note=96 velocity=0 time=3
note_on channel=0 note=79 velocity=77 time=6
note_on channel=0 note=92 velocity=73 time=0
note_on channel=0 note=75 velocity=86 time=1
note_on channel=0 note=79 velocity=0 time=21
note_on channel=0 note=92 velocity=0 time=14
note_on channel=0 note=87 velocity=0 time=1
note_on channel=0 note=75 velocity=0 time=3
note_on channel=0 note=94 velocity=39 time=0
note_on channel=0 note=95 velocity=87 time=40
note_on channel=0 note=91 velocity=19 time=7
control_change channel=0 control=64 value=52 time=2
note_on channel=0 note=94 velocity=0 time=4
note_on channel=0 note=91 velocity=0 time=3
control_change channel=0 control=64 value=65 time=9
control_change channel=0 control=64 value=70 time=15
control_change channel=0 control=64 value=74 time=14
note_on channel=0 note=63 velocity=94 time=8
note_on channel=0 note=82 velocity=95 time=2
note_on channel=0 note=95 velocity=0 time=4
note_on channel=0 note=51 velocity=79 time=1
control_change channel=0 control=64 value=76 time=1
note_on channel=0 note=94 velocity=66 time=3
control_change channel=0 control=64 value=74 time=12
note_on channel=0 note=91 velocity=41 time=3
control_change channel=0 control=64 value=68 time=12
note_on channel=0 note=90 velocity=16 time=4
note_on channel=0 note=82 velocity=0 time=4
note_on channel=0 note=63 velocity=0 time=3
note_on channel=0 note=51 velocity=0 time=2
control_change channel=0 control=64 value=59 time=2
note_on channel=0 note=90 velocity=0 time=14
control_change channel=0 control=64 value=64 time=1
note_on channel=0 note=91 velocity=0 time=12
note_on channel=0 note=95 velocity=95 time=0
control_change channel=0 control=64 value=70 time=4
note_on channel=0 note=94 velocity=0 time=7
control_change channel=0 control=64 value=74 time=8
control_change channel=0 control=64 value=79 time=15
control_change channel=0 control=64 value=83 time=15
note_on channel=0 note=95 velocity=0 time=8
note_on channel=0 note=62 velocity=89 time=1
note_on channel=0 note=82 velocity=107 time=0
note_on channel=0 note=50 velocity=84 time=2
control_change channel=0 control=64 value=85 time=4
note_on channel=0 note=91 velocity=56 time=1
note_on channel=0 note=94 velocity=60 time=5
note_on channel=0 note=62 velocity=0 time=20
note_on channel=0 note=50 velocity=0 time=9
note_on channel=0 note=82 velocity=0 time=1
note_on channel=0 note=90 velocity=16 time=2
control_change channel=0 control=64 value=84 time=31
note_on channel=0 note=91 velocity=0 time=0
note_on channel=0 note=95 velocity=93 time=11
control_change channel=0 control=64 value=81 time=4
note_on channel=0 note=90 velocity=0 time=0
note_on channel=0 note=94 velocity=0 time=9
control_change channel=0 control=64 value=71 time=7
control_change channel=0 control=64 value=57 time=15
control_change channel=0 control=64 value=59 time=16
note_on channel=0 note=82 velocity=98 time=3
note_on channel=0 note=61 velocity=92 time=6
note_on channel=0 note=49 velocity=84 time=1
control_change channel=0 control=64 value=69 time=5
note_on channel=0 note=95 velocity=0 time=6
control_change channel=0 control=64 value=75 time=9
control_change channel=0 control=64 value=79 time=15
note_on channel=0 note=82 velocity=0 time=3
note_on channel=0 note=61 velocity=0 time=9
control_change channel=0 control=64 value=83 time=3
note_on channel=0 note=49 velocity=0 time=0
control_change channel=0 control=64 value=84 time=15
note_on channel=0 note=95 velocity=88 time=9
control_change channel=0 control=64 value=78 time=7
control_change channel=0 control=64 value=65 time=15
control_change channel=0 control=64 value=39 time=16
note_on channel=0 note=82 velocity=99 time=13
control_change channel=0 control=64 value=65 time=2
note_on channel=0 note=61 velocity=86 time=8
note_on channel=0 note=49 velocity=80 time=3
control_change channel=0 control=64 value=72 time=3
note_on channel=0 note=63 velocity=66 time=10
control_change channel=0 control=64 value=77 time=6
note_on channel=0 note=61 velocity=0 time=10
note_on channel=0 note=95 velocity=0 time=0
note_on channel=0 note=63 velocity=0 time=4
control_change channel=0 control=64 value=83 time=1
note_on channel=0 note=49 velocity=0 time=7
control_change channel=0 control=64 value=92 time=7
note_on channel=0 note=82 velocity=0 time=4
control_change channel=0 control=64 value=100 time=12
control_change channel=0 control=64 value=96 time=31
control_change channel=0 control=64 value=84 time=15
note_on channel=0 note=63 velocity=85 time=7
note_on channel=0 note=93 velocity=94 time=3
note_on channel=0 note=79 velocity=91 time=3
control_change channel=0 control=64 value=74 time=1
note_on channel=0 note=51 velocity=82 time=0
note_on channel=0 note=91 velocity=72 time=15
control_change channel=0 control=64 value=72 time=1
note_on channel=0 note=81 velocity=43 time=14
control_change channel=0 control=64 value=75 time=1
note_on channel=0 note=81 velocity=0 time=0
note_on channel=0 note=91 velocity=0 time=4
note_on channel=0 note=79 velocity=0 time=6
control_change channel=0 control=64 value=80 time=6
note_on channel=0 note=63 velocity=0 time=0
note_on channel=0 note=92 velocity=28 time=3
note_on channel=0 note=93 velocity=0 time=8
control_change channel=0 control=64 value=84 time=4
note_on channel=0 note=51 velocity=0 time=5
control_change channel=0 control=64 value=87 time=9
control_change channel=0 control=64 value=88 time=16
note_on channel=0 note=92 velocity=0 time=4
note_on channel=0 note=64 velocity=95 time=34
note_on channel=0 note=79 velocity=94 time=1
note_on channel=0 note=52 velocity=89 time=3
note_on channel=0 note=91 velocity=94 time=0
control_change channel=0 control=64 value=91 time=3
control_change channel=0 control=64 value=97 time=15
control_change channel=0 control=64 value=102 time=16
note_on channel=0 note=79 velocity=0 time=0
note_on channel=0 note=86 velocity=39 time=4
note_on channel=0 note=52 velocity=0 time=5
note_on channel=0 note=64 velocity=0 time=0
control_change channel=0 control=64 value=103 time=6
control_change channel=0 control=64 value=103 time=15
note_on channel=0 note=86 velocity=0 time=2
note_on channel=0 note=91 velocity=0 time=8
control_change channel=0 control=64 value=102 time=6
control_change channel=0 control=64 value=85 time=15
control_change channel=0 control=64 value=38 time=15
note_on channel=0 note=78 velocity=95 time=6
control_change channel=0 control=64 value=0 time=9
note_on channel=0 note=86 velocity=90 time=0
note_on channel=0 note=66 velocity=97 time=2
note_on channel=0 note=54 velocity=92 time=4
note_on channel=0 note=90 velocity=79 time=3
note_on channel=0 note=66 velocity=0 time=15
note_on channel=0 note=78 velocity=0 time=12
note_on channel=0 note=54 velocity=0 time=20
note_on channel=0 note=86 velocity=0 time=3
note_on channel=0 note=89 velocity=37 time=3
note_on channel=0 note=91 velocity=85 time=2
note_on channel=0 note=90 velocity=0 time=16
note_on channel=0 note=89 velocity=0 time=14
note_on channel=0 note=86 velocity=77 time=32
note_on channel=0 note=91 velocity=0 time=8
note_on channel=0 note=78 velocity=79 time=1
note_on channel=0 note=90 velocity=44 time=28
note_on channel=0 note=78 velocity=0 time=3
note_on channel=0 note=86 velocity=0 time=22
note_on channel=0 note=91 velocity=78 time=17
note_on channel=0 note=90 velocity=0 time=5
note_on channel=0 note=90 velocity=75 time=61
note_on channel=0 note=78 velocity=89 time=6
note_on channel=0 note=85 velocity=85 time=2
note_on channel=0 note=91 velocity=0 time=0
note_on channel=0 note=54 velocity=84 time=3
note_on channel=0 note=42 velocity=84 time=3
note_on channel=0 note=54 velocity=0 time=18
note_on channel=0 note=78 velocity=0 time=0
note_on channel=0 note=42 velocity=0 time=7
note_on channel=0 note=85 velocity=0 time=7
note_on channel=0 note=91 velocity=84 time=32
note_on channel=0 note=90 velocity=0 time=1
note_on channel=0 note=78 velocity=98 time=59
note_on channel=0 note=90 velocity=76 time=1
note_on channel=0 note=91 velocity=0 time=20
note_on channel=0 note=78 velocity=0 time=28
note_on channel=0 note=91 velocity=85 time=42
note_on channel=0 note=90 velocity=0 time=1
note_on channel=0 note=78 velocity=71 time=20
note_on channel=0 note=78 velocity=0 time=51
note_on channel=0 note=42 velocity=83 time=73
note_on channel=0 note=54 velocity=87 time=1
note_on channel=0 note=78 velocity=91 time=5
note_on channel=0 note=89 velocity=54 time=12
note_on channel=0 note=54 velocity=0 time=9
note_on channel=0 note=42 velocity=0 time=4
note_on channel=0 note=91 velocity=0 time=11
note_on channel=0 note=89 velocity=0 time=1
note_on channel=0 note=78 velocity=0 time=12
note_on channel=0 note=88 velocity=91 time=74
note_on channel=0 note=85 velocity=87 time=3
note_on channel=0 note=58 velocity=95 time=4
control_change channel=0 control=64 value=64 time=3
note_on channel=0 note=46 velocity=87 time=2
control_change channel=0 control=64 value=71 time=13
control_change channel=0 control=64 value=74 time=15
note_on channel=0 note=90 velocity=73 time=8
note_on channel=0 note=85 velocity=0 time=1
note_on channel=0 note=58 velocity=0 time=2
control_change channel=0 control=64 value=79 time=5
note_on channel=0 note=88 velocity=0 time=5
note_on channel=0 note=46 velocity=0 time=4
control_change channel=0 control=64 value=85 time=5
note_on channel=0 note=92 velocity=41 time=5
note_on channel=0 note=92 velocity=0 time=1
control_change channel=0 control=64 value=89 time=9
note_on channel=0 note=90 velocity=0 time=3
control_change channel=0 control=64 value=90 time=13
note_on channel=0 note=86 velocity=87 time=30
note_on channel=0 note=59 velocity=94 time=6
note_on channel=0 note=83 velocity=85 time=9
note_on channel=0 note=47 velocity=79 time=3
control_change channel=0 control=64 value=90 time=5
note_on channel=0 note=47 velocity=0 time=18
note_on channel=0 note=83 velocity=0 time=3
note_on channel=0 note=59 velocity=0 time=8
note_on channel=0 note=86 velocity=0 time=29
note_on channel=0 note=88 velocity=83 time=2
note_on channel=0 note=88 velocity=0 time=51
note_on channel=0 note=61 velocity=90 time=9
note_on channel=0 note=82 velocity=91 time=2
control_change channel=0 control=64 value=89 time=1
note_on channel=0 note=49 velocity=79 time=1
control_change channel=0 control=64 value=81 time=14
control_change channel=0 control=64 value=70 time=16
note_on channel=0 note=61 velocity=0 time=8
note_on channel=0 note=49 velocity=0 time=1
control_change channel=0 control=64 value=64 time=5
note_on channel=0 note=82 velocity=0 time=10
control_change channel=0 control=64 value=70 time=6
control_change channel=0 control=64 value=76 time=15
note_on channel=0 note=88 velocity=56 time=7
control_change channel=0 control=64 value=80 time=8
note_on channel=0 note=86 velocity=57 time=1
control_change channel=0 control=64 value=80 time=14
note_on channel=0 note=88 velocity=0 time=3
note_on channel=0 note=88 velocity=36 time=0
control_change channel=0 control=64 value=74 time=12
note_on channel=0 note=79 velocity=83 time=1
note_on channel=0 note=62 velocity=90 time=2
note_on channel=0 note=50 velocity=81 time=7
control_change channel=0 control=64 value=55 time=6
note_on channel=0 note=83 velocity=66 time=8
note_on channel=0 note=86 velocity=0 time=0
control_change channel=0 control=64 value=38 time=7
note_on channel=0 note=79 velocity=0 time=0
note_on channel=0 note=85 velocity=57 time=2
note_on channel=0 note=50 velocity=0 time=2
note_on channel=0 note=88 velocity=0 time=0
control_change channel=0 control=64 value=64 time=11
note_on channel=0 note=62 velocity=0 time=0
control_change channel=0 control=64 value=69 time=15
note_on channel=0 note=85 velocity=0 time=4
note_on channel=0 note=83 velocity=0 time=5
control_change channel=0 control=64 value=72 time=6
control_change channel=0 control=64 value=77 time=15
note_on channel=0 note=81 velocity=68 time=10
control_change channel=0 control=64 value=82 time=5
control_change channel=0 control=64 value=87 time=15
note_on channel=0 note=63 velocity=94 time=9
control_change channel=0 control=64 value=89 time=7
note_on channel=0 note=51 velocity=69 time=3
note_on channel=0 note=85 velocity=71 time=1
note_on channel=0 note=78 velocity=49 time=2
note_on channel=0 note=83 velocity=71 time=4
control_change channel=0 control=64 value=90 time=5
note_on channel=0 note=81 velocity=0 time=3
note_on channel=0 note=78 velocity=0 time=14
note_on channel=0 note=63 velocity=0 time=9
note_on channel=0 note=51 velocity=0 time=3
note_on channel=0 note=85 velocity=0 time=18
note_on channel=0 note=83 velocity=0 time=8
note_on channel=0 note=76 velocity=82 time=18
note_on channel=0 note=64 velocity=91 time=34
note_on channel=0 note=52 velocity=83 time=13
note_on channel=0 note=76 velocity=0 time=1
note_on channel=0 note=52 velocity=0 time=26
note_on channel=0 note=64 velocity=0 time=5
note_on channel=0 note=79 velocity=80 time=13
control_change channel=0 control=64 value=89 time=33
control_change channel=0 control=64 value=81 time=15
note_on channel=0 note=74 velocity=81 time=7
note_on channel=0 note=78 velocity=82 time=1
note_on channel=0 note=79 velocity=0 time=5
control_change channel=0 control=64 value=59 time=3
note_on channel=0 note=66 velocity=96 time=13
control_change channel=0 control=64 value=0 time=1
note_on channel=0 note=54 velocity=89 time=2
note_on channel=0 note=66 velocity=0 time=23
note_on channel=0 note=74 velocity=0 time=12
note_on channel=0 note=54 velocity=0 time=14
note_on channel=0 note=79 velocity=82 time=10
note_on channel=0 note=78 velocity=0 time=4
note_on channel=0 note=79 velocity=0 time=63
note_on channel=0 note=78 velocity=61 time=8
note_on channel=0 note=74 velocity=76 time=8
note_on channel=0 note=74 velocity=0 time=40
note_on channel=0 note=79 velocity=82 time=25
note_on channel=0 note=78 velocity=0 time=3
note_on channel=0 note=66 velocity=95 time=60
note_on channel=0 note=78 velocity=73 time=4
note_on channel=0 note=79 velocity=0 time=0
note_on channel=0 note=54 velocity=88 time=1
note_on channel=0 note=73 velocity=80 time=3
control_change channel=0 control=64 value=42 time=1
note_on channel=0 note=42 velocity=87 time=0
control_change channel=0 control=64 value=69 time=15
note_on channel=0 note=54 velocity=0 time=2
note_on channel=0 note=42 velocity=0 time=10
control_change channel=0 control=64 value=74 time=5
note_on channel=0 note=66 velocity=0 time=1
note_on channel=0 note=73 velocity=0 time=10
control_change channel=0 control=64 value=70 time=20
note_on channel=0 note=79 velocity=81 time=9
note_on channel=0 note=78 velocity=0 time=1
control_change channel=0 control=64 value=51 time=4
control_change channel=0 control=64 value=0 time=15
note_on channel=0 note=66 velocity=88 time=39
note_on channel=0 note=79 velocity=0 time=5
note_on channel=0 note=78 velocity=69 time=4
note_on channel=0 note=66 velocity=0 time=28
note_on channel=0 note=78 velocity=0 time=41
note_on channel=0 note=79 velocity=78 time=4
note_on channel=0 note=66 velocity=84 time=60
note_on channel=0 note=79 velocity=0 time=5
note_on channel=0 note=78 velocity=67 time=5
note_on channel=0 note=66 velocity=0 time=17
note_on channel=0 note=78 velocity=0 time=49
note_on channel=0 note=79 velocity=72 time=1
note_on channel=0 note=54 velocity=72 time=55
note_on channel=0 note=66 velocity=90 time=0
note_on channel=0 note=42 velocity=79 time=3
control_change channel=0 control=64 value=21 time=3
note_on channel=0 note=78 velocity=64 time=1
note_on channel=0 note=79 velocity=0 time=3
note_on channel=0 note=73 velocity=73 time=2
note_on channel=0 note=54 velocity=0 time=8
control_change channel=0 control=64 value=70 time=2
note_on channel=0 note=66 velocity=0 time=8
note_on channel=0 note=42 velocity=0 time=1
control_change channel=0 control=64 value=79 time=6
note_on channel=0 note=73 velocity=0 time=1
control_change channel=0 control=64 value=85 time=14
control_change channel=0 control=64 value=82 time=30
note_on channel=0 note=78 velocity=0 time=1
note_on channel=0 note=79 velocity=77 time=1
control_change channel=0 control=64 value=71 time=14
control_change channel=0 control=64 value=0 time=15
note_on channel=0 note=66 velocity=79 time=27
note_on channel=0 note=79 velocity=0 time=9
note_on channel=0 note=78 velocity=59 time=1
note_on channel=0 note=66 velocity=0 time=19
note_on channel=0 note=78 velocity=0 time=56
note_on channel=0 note=79 velocity=65 time=5
note_on channel=0 note=79 velocity=0 time=47
note_on channel=0 note=66 velocity=77 time=12
note_on channel=0 note=78 velocity=58 time=8
note_on channel=0 note=66 velocity=0 time=21
note_on channel=0 note=78 velocity=0 time=42
note_on channel=0 note=79 velocity=71 time=8
note_on channel=0 note=42 velocity=77 time=38
control_change channel=0 control=64 value=57 time=2
note_on channel=0 note=30 velocity=69 time=4
note_on channel=0 note=79 velocity=0 time=8
control_change channel=0 control=64 value=69 time=4
note_on channel=0 note=66 velocity=78 time=6
note_on channel=0 note=78 velocity=61 time=5
note_on channel=0 note=42 velocity=0 time=1
control_change channel=0 control=64 value=73 time=5
note_on channel=0 note=30 velocity=0 time=9
note_on channel=0 note=66 velocity=0 time=8
control_change channel=0 control=64 value=69 time=13
control_change channel=0 control=64 value=57 time=15
note_on channel=0 note=78 velocity=0 time=13
control_change channel=0 control=64 value=0 time=3
control_change channel=0 control=67 value=8 time=0
note_on channel=0 note=79 velocity=72 time=6
control_change channel=0 control=67 value=8 time=8
control_change channel=0 control=67 value=9 time=15
control_change channel=0 control=67 value=9 time=16
control_change channel=0 control=67 value=11 time=15
note_on channel=0 note=79 velocity=0 time=4
note_on channel=0 note=66 velocity=69 time=6
control_change channel=0 control=67 value=12 time=6
note_on channel=0 note=78 velocity=60 time=0
control_change channel=0 control=67 value=13 time=14
note_on channel=0 note=66 velocity=0 time=13
control_change channel=0 control=67 value=14 time=2
control_change channel=0 control=67 value=15 time=16
control_change channel=0 control=67 value=16 time=15
note_on channel=0 note=78 velocity=0 time=3
note_on channel=0 note=79 velocity=63 time=14
control_change channel=0 control=67 value=17 time=28
note_on channel=0 note=79 velocity=0 time=24
note_on channel=0 note=66 velocity=63 time=16
note_on channel=0 note=78 velocity=55 time=5
note_on channel=0 note=66 velocity=0 time=31
note_on channel=0 note=78 velocity=0 time=29
control_change channel=0 control=67 value=17 time=16
note_on channel=0 note=79 velocity=66 time=0
control_change channel=0 control=67 value=19 time=31
note_on channel=0 note=79 velocity=0 time=4
control_change channel=0 control=67 value=20 time=11
note_on channel=0 note=42 velocity=62 time=7
control_change channel=0 control=64 value=49 time=8
control_change channel=0 control=67 value=23 time=0
note_on channel=0 note=30 velocity=54 time=4
note_on channel=0 note=66 velocity=66 time=0
note_on channel=0 note=78 velocity=55 time=3
control_change channel=0 control=64 value=66 time=8
control_change channel=0 control=67 value=25 time=0
note_on channel=0 note=42 velocity=0 time=5
control_change channel=0 control=64 value=70 time=8
control_change channel=0 control=67 value=27 time=0
note_on channel=0 note=30 velocity=0 time=9
control_change channel=0 control=64 value=74 time=6
control_change channel=0 control=67 value=28 time=0
control_change channel=0 control=64 value=76 time=15
control_change channel=0 control=67 value=29 time=0
note_on channel=0 note=66 velocity=0 time=5
control_change channel=0 control=64 value=79 time=10
note_on channel=0 note=78 velocity=0 time=0
control_change channel=0 control=64 value=81 time=16
control_change channel=0 control=67 value=29 time=0
note_on channel=0 note=79 velocity=65 time=3
control_change channel=0 control=64 value=82 time=19
control_change channel=0 control=64 value=83 time=16
control_change channel=0 control=67 value=30 time=15
control_change channel=0 control=67 value=30 time=16
note_on channel=0 note=79 velocity=0 time=12
control_change channel=0 control=67 value=31 time=3
control_change channel=0 control=67 value=32 time=14
control_change channel=0 control=67 value=34 time=16
note_on channel=0 note=78 velocity=55 time=7
control_change channel=0 control=64 value=82 time=8
control_change channel=0 control=67 value=35 time=0
control_change channel=0 control=64 value=82 time=15
control_change channel=0 control=67 value=36 time=0
control_change channel=0 control=67 value=37 time=16
control_change channel=0 control=64 value=81 time=14
control_change channel=0 control=67 value=38 time=0
control_change channel=0 control=64 value=80 time=16
control_change channel=0 control=67 value=39 time=0
note_on channel=0 note=78 velocity=0 time=5
control_change channel=0 control=64 value=79 time=10
control_change channel=0 control=67 value=39 time=0
note_on channel=0 note=79 velocity=56 time=10
control_change channel=0 control=64 value=78 time=5
control_change channel=0 control=64 value=77 time=16
control_change channel=0 control=64 value=76 time=14
control_change channel=0 control=64 value=74 time=15
control_change channel=0 control=64 value=71 time=16
note_on channel=0 note=79 velocity=0 time=14
control_change channel=0 control=64 value=68 time=2
control_change channel=0 control=64 value=65 time=16
note_on channel=0 note=78 velocity=58 time=5
control_change channel=0 control=64 value=63 time=10
control_change channel=0 control=64 value=63 time=30
note_on channel=0 note=78 velocity=0 time=4
control_change channel=0 control=64 value=59 time=11
control_change channel=0 control=64 value=45 time=16
note_on channel=0 note=79 velocity=54 time=9
control_change channel=0 control=64 value=0 time=5
note_on channel=0 note=79 velocity=0 time=42
note_on channel=0 note=78 velocity=60 time=32
control_change channel=0 control=67 value=39 time=17
note_on channel=0 note=78 velocity=0 time=15
control_change channel=0 control=67 value=38 time=15
note_on channel=0 note=79 velocity=57 time=27
note_on channel=0 note=79 velocity=0 time=32
control_change channel=0 control=67 value=38 time=18
note_on channel=0 note=78 velocity=57 time=6
control_change channel=0 control=64 value=46 time=24
note_on channel=0 note=78 velocity=0 time=4
control_change channel=0 control=64 value=57 time=12
control_change channel=0 control=64 value=61 time=15
note_on channel=0 note=79 velocity=70 time=0
control_change channel=0 control=64 value=62 time=15
control_change channel=0 control=64 value=63 time=15
control_change channel=0 control=67 value=37 time=0
control_change channel=0 control=64 value=64 time=16
control_change channel=0 control=64 value=65 time=15
note_on channel=0 note=79 velocity=0 time=1
note_on channel=0 note=78 velocity=59 time=10
control_change channel=0 control=64 value=66 time=4
control_change channel=0 control=64 value=67 time=16
note_on channel=0 note=78 velocity=0 time=12
control_change channel=0 control=64 value=67 time=3
control_change channel=0 control=64 value=68 time=23
control_change channel=0 control=67 value=37 time=0
note_on channel=0 note=79 velocity=57 time=6
control_change channel=0 control=64 value=69 time=8
control_change channel=0 control=64 value=70 time=15
control_change channel=0 control=64 value=71 time=16
note_on channel=0 note=79 velocity=0 time=8
control_change channel=0 control=64 value=72 time=7
control_change channel=0 control=67 value=36 time=0
note_on channel=0 note=78 velocity=68 time=10
control_change channel=0 control=64 value=72 time=6
control_change channel=0 control=64 value=73 time=14
note_on channel=0 note=78 velocity=0 time=12
control_change channel=0 control=64 value=74 time=3
control_change channel=0 control=64 value=75 time=16
control_change channel=0 control=67 value=36 time=0
note_on channel=0 note=79 velocity=56 time=7
control_change channel=0 control=64 value=75 time=8
control_change channel=0 control=64 value=76 time=14
control_change channel=0 control=64 value=77 time=16
note_on channel=0 note=79 velocity=0 time=3
control_change channel=0 control=64 value=78 time=12
control_change channel=0 control=67 value=35 time=0
note_on channel=0 note=78 velocity=66 time=15
control_change channel=0 control=64 value=79 time=1
control_change channel=0 control=64 value=80 time=15
note_on channel=0 note=78 velocity=0 time=11
control_change channel=0 control=64 value=82 time=4
control_change channel=0 control=67 value=35 time=0
note_on channel=0 note=79 velocity=61 time=13
control_change channel=0 control=64 value=83 time=3
control_change channel=0 control=67 value=34 time=0
control_change channel=0 control=64 value=85 time=15
control_change channel=0 control=64 value=87 time=15
control_change channel=0 control=67 value=34 time=0
control_change channel=0 control=64 value=88 time=16
control_change channel=0 control=67 value=33 time=0
note_on channel=0 note=79 velocity=0 time=6
note_on channel=0 note=78 velocity=73 time=3
control_change channel=0 control=64 value=90 time=5
control_change channel=0 control=64 value=94 time=16
control_change channel=0 control=67 value=33 time=0
control_change channel=0 control=64 value=97 time=15
control_change channel=0 control=67 value=32 time=0
note_on channel=0 note=78 velocity=0 time=6
control_change channel=0 control=64 value=99 time=9
control_change channel=0 control=67 value=32 time=0
note_on channel=0 note=79 velocity=56 time=0
control_change channel=0 control=64 value=102 time=16
control_change channel=0 control=67 value=31 time=0
control_change channel=0 control=64 value=104 time=15
control_change channel=0 control=64 value=106 time=16
control_change channel=0 control=67 value=30 time=0
note_on channel=0 note=79 velocity=0 time=12
note_on channel=0 note=78 velocity=74 time=2
control_change channel=0 control=64 value=108 time=1
control_change channel=0 control=64 value=112 time=15
control_change channel=0 control=67 value=29 time=0
control_change channel=0 control=64 value=120 time=16
control_change channel=0 control=67 value=29 time=0
control_change channel=0 control=64 value=127 time=14
control_change channel=0 control=67 value=28 time=0
note_on channel=0 note=78 velocity=0 time=5
note_on channel=0 note=79 velocity=66 time=3
control_change channel=0 control=67 value=27 time=7
control_change channel=0 control=67 value=27 time=16
control_change channel=0 control=67 value=25 time=15
control_change channel=0 control=67 value=24 time=16
note_on channel=0 note=79 velocity=0 time=1
note_on channel=0 note=78 velocity=68 time=6
control_change channel=0 control=67 value=21 time=7
control_change channel=0 control=67 value=17 time=15
control_change channel=0 control=67 value=12 time=16
note_on channel=0 note=78 velocity=0 time=3
note_on channel=0 note=79 velocity=60 time=6
control_change channel=0 control=67 value=0 time=5
note_on channel=0 note=79 velocity=0 time=55
note_on channel=0 note=78 velocity=78 time=1
note_on channel=0 note=78 velocity=0 time=54
note_on channel=0 note=79 velocity=63 time=11
note_on channel=0 note=79 velocity=0 time=44
note_on channel=0 note=78 velocity=71 time=6
note_on channel=0 note=79 velocity=65 time=56
note_on channel=0 note=78 velocity=0 time=1
note_on channel=0 note=78 velocity=73 time=60
note_on channel=0 note=79 velocity=0 time=0
note_on channel=0 note=79 velocity=63 time=46
note_on channel=0 note=78 velocity=0 time=8
note_on channel=0 note=78 velocity=69 time=53
note_on channel=0 note=79 velocity=0 time=0
note_on channel=0 note=79 velocity=62 time=44
note_on channel=0 note=78 velocity=0 time=5
note_on channel=0 note=78 velocity=84 time=63
note_on channel=0 note=79 velocity=0 time=3
note_on channel=0 note=80 velocity=83 time=113
note_on channel=0 note=78 velocity=0 time=3
control_change channel=0 control=64 value=119 time=37
control_change channel=0 control=64 value=95 time=15
control_change channel=0 control=64 value=77 time=14
control_change channel=0 control=64 value=52 time=16
note_on channel=0 note=80 velocity=0 time=6
note_on channel=0 note=78 velocity=87 time=1
control_change channel=0 control=64 value=35 time=8
control_change channel=0 control=64 value=62 time=16
control_change channel=0 control=64 value=66 time=15
control_change channel=0 control=64 value=68 time=15
control_change channel=0 control=64 value=70 time=16
note_on channel=0 note=80 velocity=83 time=4
note_on channel=0 note=78 velocity=0 time=3
control_change channel=0 control=64 value=73 time=7
control_change channel=0 control=64 value=76 time=15
control_change channel=0 control=64 value=80 time=16
control_change channel=0 control=64 value=82 time=14
control_change channel=0 control=64 value=83 time=16
note_on channel=0 note=80 velocity=0 time=4
note_on channel=0 note=78 velocity=83 time=6
control_change channel=0 control=64 value=85 time=5
control_change channel=0 control=64 value=87 time=15
control_change channel=0 control=64 value=90 time=16
control_change channel=0 control=64 value=93 time=14
note_on channel=0 note=78 velocity=0 time=14
control_change channel=0 control=64 value=96 time=1
note_on channel=0 note=80 velocity=79 time=2
control_change channel=0 control=64 value=98 time=22
control_change channel=0 control=64 value=101 time=15
control_change channel=0 control=64 value=104 time=15
control_change channel=0 control=64 value=110 time=15
note_on channel=0 note=80 velocity=0 time=3
note_on channel=0 note=78 velocity=78 time=5
control_change channel=0 control=64 value=116 time=8
control_change channel=0 control=64 value=127 time=15
note_on channel=0 note=78 velocity=0 time=34
note_on channel=0 note=80 velocity=71 time=2
note_on channel=0 note=78 velocity=72 time=56
note_on channel=0 note=80 velocity=0 time=0
note_on channel=0 note=78 velocity=0 time=55
note_on channel=0 note=80 velocity=69 time=1
note_on channel=0 note=80 velocity=0 time=65
note_on channel=0 note=78 velocity=73 time=4
note_on channel=0 note=78 velocity=0 time=47
note_on channel=0 note=80 velocity=63 time=1
note_on channel=0 note=80 velocity=0 time=59
note_on channel=0 note=78 velocity=69 time=2
note_on channel=0 note=78 velocity=0 time=52
note_on channel=0 note=80 velocity=63 time=1
note_on channel=0 note=78 velocity=66 time=60
note_on channel=0 note=80 velocity=0 time=2
note_on channel=0 note=80 velocity=62 time=48
note_on channel=0 note=78 velocity=0 time=5
note_on channel=0 note=78 velocity=66 time=56
note_on channel=0 note=80 velocity=0 time=0
note_on channel=0 note=78 velocity=0 time=52
note_on channel=0 note=80 velocity=60 time=2
note_on channel=0 note=80 velocity=0 time=57
note_on channel=0 note=78 velocity=62 time=6
note_on channel=0 note=80 velocity=58 time=55
note_on channel=0 note=78 velocity=0 time=1
note_on channel=0 note=80 velocity=0 time=61
note_on channel=0 note=78 velocity=58 time=4
note_on channel=0 note=78 velocity=0 time=43
note_on channel=0 note=80 velocity=52 time=4
control_change channel=0 control=67 value=9 time=9
control_change channel=0 control=67 value=11 time=15
control_change channel=0 control=67 value=13 time=15
control_change channel=0 control=67 value=16 time=15
note_on channel=0 note=80 velocity=0 time=5
control_change channel=0 control=67 value=19 time=11
note_on channel=0 note=78 velocity=58 time=1
control_change channel=0 control=67 value=21 time=14
control_change channel=0 control=67 value=23 time=15
note_on channel=0 note=78 velocity=0 time=10
control_change channel=0 control=67 value=27 time=5
note_on channel=0 note=80 velocity=44 time=13
control_change channel=0 control=67 value=31 time=2
control_change channel=0 control=67 value=33 time=15
control_change channel=0 control=67 value=36 time=17
control_change channel=0 control=67 value=39 time=15
note_on channel=0 note=80 velocity=0 time=0
control_change channel=0 control=67 value=42 time=16
note_on channel=0 note=78 velocity=50 time=1
control_change channel=0 control=67 value=44 time=14
control_change channel=0 control=67 value=46 time=16
note_on channel=0 note=78 velocity=0 time=1
control_change channel=0 control=67 value=49 time=13
note_on channel=0 note=80 velocity=47 time=3
control_change channel=0 control=67 value=50 time=12
control_change channel=0 control=67 value=53 time=16
control_change channel=0 control=67 value=56 time=15
note_on channel=0 note=80 velocity=0 time=7
control_change channel=0 control=67 value=58 time=8
note_on channel=0 note=78 velocity=43 time=13
control_change channel=0 control=67 value=60 time=2
control_change channel=0 control=67 value=62 time=16
control_change channel=0 control=67 value=64 time=16
note_on channel=0 note=78 velocity=0 time=0
note_on channel=0 note=80 velocity=51 time=7
control_change channel=0 control=67 value=66 time=8
control_change channel=0 control=67 value=68 time=15
control_change channel=0 control=67 value=69 time=15
control_change channel=0 control=67 value=72 time=15
note_on channel=0 note=80 velocity=0 time=6
control_change channel=0 control=67 value=74 time=10
note_on channel=0 note=78 velocity=53 time=0
control_change channel=0 control=67 value=77 time=15
control_change channel=0 control=67 value=79 time=15
note_on channel=0 note=78 velocity=0 time=12
control_change channel=0 control=67 value=81 time=3
note_on channel=0 note=80 velocity=45 time=9
control_change channel=0 control=67 value=82 time=6
control_change channel=0 control=67 value=83 time=15
control_change channel=0 control=67 value=84 time=16
control_change channel=0 control=67 value=84 time=15
note_on channel=0 note=80 velocity=0 time=4
control_change channel=0 control=67 value=85 time=11
note_on channel=0 note=78 velocity=42 time=4
note_on channel=0 note=78 velocity=0 time=40
note_on channel=0 note=80 velocity=41 time=8
note_on channel=0 note=80 velocity=0 time=68
note_on channel=0 note=78 velocity=45 time=7
note_on channel=0 note=78 velocity=0 time=53
note_on channel=0 note=80 velocity=40 time=9
note_on channel=0 note=78 velocity=45 time=52
note_on channel=0 note=80 velocity=0 time=8
note_on channel=0 note=80 velocity=34 time=66
note_on channel=0 note=78 velocity=0 time=18
control_change channel=0 control=67 value=84 time=8
note_on channel=0 note=78 velocity=32 time=14
note_on channel=0 note=80 velocity=0 time=58
note_on channel=0 note=80 velocity=37 time=15
note_on channel=0 note=78 velocity=0 time=34
note_on channel=0 note=78 velocity=28 time=22
control_change channel=0 control=67 value=84 time=9
note_on channel=0 note=80 velocity=0 time=3
note_on channel=0 note=78 velocity=0 time=57
note_on channel=0 note=80 velocity=35 time=16
note_on channel=0 note=78 velocity=38 time=55
note_on channel=0 note=80 velocity=0 time=3
note_on channel=0 note=66 velocity=31 time=50
note_on channel=0 note=78 velocity=0 time=2
note_on channel=0 note=54 velocity=30 time=2
control_change channel=0 control=67 value=83 time=41
control_change channel=0 control=67 value=83 time=30
note_on channel=0 note=78 velocity=21 time=22
control_change channel=0 control=67 value=82 time=25
note_on channel=0 note=66 velocity=0 time=17
note_on channel=0 note=54 velocity=0 time=59
control_change channel=0 control=67 value=82 time=21
note_on channel=0 note=78 velocity=0 time=1
note_on channel=0 note=59 velocity=41 time=24
note_on channel=0 note=71 velocity=48 time=3
control_change channel=0 control=67 value=81 time=3
note_on channel=0 note=51 velocity=33 time=21
control_change channel=0 control=67 value=81 time=9
note_on channel=0 note=80 velocity=12 time=13
control_change channel=0 control=67 value=80 time=3
control_change channel=0 control=67 value=80 time=15
note_on channel=0 note=80 velocity=0 time=55
note_on channel=0 note=71 velocity=0 time=2
control_change channel=0 control=67 value=79 time=4
note_on channel=0 note=80 velocity=38 time=9
note_on channel=0 note=80 velocity=0 time=58
note_on channel=0 note=78 velocity=11 time=3
note_on channel=0 note=51 velocity=0 time=50
note_on channel=0 note=73 velocity=73 time=2
note_on channel=0 note=59 velocity=0 time=2
note_on channel=0 note=78 velocity=0 time=1
note_on channel=0 note=61 velocity=44 time=15
note_on channel=0 note=54 velocity=40 time=8
note_on channel=0 note=80 velocity=15 time=75
note_on channel=0 note=78 velocity=49 time=20
note_on channel=0 note=78 velocity=0 time=44
note_on channel=0 note=61 velocity=0 time=3
note_on channel=0 note=80 velocity=0 time=11
note_on channel=0 note=73 velocity=0 time=14
note_on channel=0 note=80 velocity=35 time=1
control_change channel=0 control=67 value=80 time=48
note_on channel=0 note=80 velocity=0 time=3
note_on channel=0 note=78 velocity=41 time=40
control_change channel=0 control=64 value=107 time=34
control_change channel=0 control=67 value=80 time=0
note_on channel=0 note=78 velocity=0 time=2
control_change channel=0 control=64 value=89 time=13
note_on channel=0 note=75 velocity=59 time=14
control_change channel=0 control=64 value=74 time=2
note_on channel=0 note=54 velocity=0 time=6
note_on channel=0 note=63 velocity=36 time=5
control_change channel=0 control=64 value=60 time=3
note_on channel=0 note=59 velocity=40 time=10
control_change channel=0 control=64 value=47 time=5
control_change channel=0 control=64 value=60 time=16
control_change channel=0 control=64 value=63 time=15
control_change channel=0 control=64 value=65 time=15
control_change channel=0 control=64 value=68 time=23
control_change channel=0 control=67 value=80 time=0
note_on channel=0 note=80 velocity=30 time=6
control_change channel=0 control=64 value=72 time=9
control_change channel=0 control=64 value=76 time=16
control_change channel=0 control=67 value=79 time=0
note_on channel=0 note=80 velocity=0 time=13
control_change channel=0 control=64 value=80 time=1
control_change channel=0 control=67 value=79 time=0
control_change channel=0 control=64 value=84 time=16
control_change channel=0 control=67 value=78 time=0
note_on channel=0 note=78 velocity=45 time=8
control_change channel=0 control=64 value=89 time=7
note_on channel=0 note=63 velocity=0 time=8
control_change channel=0 control=64 value=93 time=7
control_change channel=0 control=67 value=78 time=0
note_on channel=0 note=59 velocity=0 time=7
note_on channel=0 note=78 velocity=0 time=2
control_change channel=0 control=64 value=97 time=7
control_change channel=0 control=64 value=102 time=14
control_change channel=0 control=64 value=106 time=15
note_on channel=0 note=80 velocity=48 time=7
control_change channel=0 control=64 value=111 time=9
control_change channel=0 control=64 value=119 time=15
note_on channel=0 note=80 velocity=0 time=14
control_change channel=0 control=64 value=127 time=2
note_on channel=0 note=78 velocity=53 time=11
note_on channel=0 note=78 velocity=0 time=48
note_on channel=0 note=80 velocity=50 time=36
note_on channel=0 note=80 velocity=0 time=42
note_on channel=0 note=78 velocity=40 time=42
note_on channel=0 note=78 velocity=0 time=29
note_on channel=0 note=80 velocity=32 time=49
note_on channel=0 note=35 velocity=39 time=6
note_on channel=0 note=78 velocity=48 time=29
note_on channel=0 note=80 velocity=0 time=1
note_on channel=0 note=35 velocity=0 time=10
note_on channel=0 note=75 velocity=0 time=4
note_on channel=0 note=42 velocity=53 time=11
note_on channel=0 note=78 velocity=0 time=3
note_on channel=0 note=42 velocity=0 time=26
control_change channel=0 control=67 value=77 time=1
control_change channel=0 control=67 value=76 time=16
note_on channel=0 note=80 velocity=43 time=2
control_change channel=0 control=67 value=75 time=13
control_change channel=0 control=67 value=74 time=14
note_on channel=0 note=80 velocity=0 time=12
note_on channel=0 note=78 velocity=54 time=4
note_on channel=0 note=78 velocity=0 time=30
control_change channel=0 control=67 value=74 time=16
note_on channel=0 note=80 velocity=44 time=16
control_change channel=0 control=67 value=75 time=15
note_on channel=0 note=80 velocity=0 time=35
note_on channel=0 note=78 velocity=59 time=5
control_change channel=0 control=67 value=75 time=5
control_change channel=0 control=67 value=76 time=15
control_change channel=0 control=67 value=76 time=16
note_on channel=0 note=78 velocity=0 time=11
note_on channel=0 note=75 velocity=73 time=14
note_on channel=0 note=63 velocity=50 time=6
note_on channel=0 note=59 velocity=44 time=4
control_change channel=0 control=67 value=77 time=3
control_change channel=0 control=67 value=77 time=46
note_on channel=0 note=80 velocity=40 time=23
note_on channel=0 note=59 velocity=0 time=2
control_change channel=0 control=67 value=78 time=4
note_on channel=0 note=63 velocity=0 time=49
note_on channel=0 note=80 velocity=0 time=2
note_on channel=0 note=78 velocity=49 time=17
note_on channel=0 note=78 velocity=0 time=35
control_change channel=0 control=67 value=78 time=4
note_on channel=0 note=80 velocity=31 time=64
note_on channel=0 note=80 velocity=0 time=37
note_on channel=0 note=78 velocity=43 time=6
note_on channel=0 note=78 velocity=0 time=39
note_on channel=0 note=80 velocity=13 time=77
note_on channel=0 note=78 velocity=43 time=29
note_on channel=0 note=78 velocity=0 time=32
note_on channel=0 note=80 velocity=0 time=27
note_on channel=0 note=80 velocity=19 time=19
control_change channel=0 control=67 value=78 time=3
control_change channel=0 control=67 value=77 time=31
note_on channel=0 note=80 velocity=0 time=13
control_change channel=0 control=67 value=77 time=3
note_on channel=0 note=78 velocity=49 time=1
note_on channel=0 note=35 velocity=49 time=4
note_on channel=0 note=78 velocity=0 time=27
note_on channel=0 note=35 velocity=0 time=4
note_on channel=0 note=42 velocity=54 time=9
control_change channel=0 control=67 value=76 time=15
control_change channel=0 control=67 value=76 time=16
note_on channel=0 note=42 velocity=0 time=1
control_change channel=0 control=67 value=75 time=30
note_on channel=0 note=78 velocity=57 time=18
note_on channel=0 note=78 velocity=0 time=34
note_on channel=0 note=80 velocity=17 time=14
note_on channel=0 note=75 velocity=0 time=16
control_change channel=0 control=67 value=75 time=17
control_change channel=0 control=67 value=76 time=31
control_change channel=0 control=67 value=76 time=15
note_on channel=0 note=80 velocity=0 time=2
note_on channel=0 note=78 velocity=44 time=2
control_change channel=0 control=64 value=114 time=26
control_change channel=0 control=67 value=77 time=0
note_on channel=0 note=78 velocity=0 time=4
control_change channel=0 control=64 value=88 time=11
note_on channel=0 note=75 velocity=61 time=9
control_change channel=0 control=64 value=67 time=5
control_change channel=0 control=64 value=61 time=16
note_on channel=0 note=59 velocity=44 time=0
note_on channel=0 note=63 velocity=50 time=3
control_change channel=0 control=64 value=66 time=12
control_change channel=0 control=64 value=68 time=16
control_change channel=0 control=67 value=76 time=0
note_on channel=0 note=80 velocity=52 time=14
control_change channel=0 control=64 value=70 time=1
control_change channel=0 control=67 value=76 time=0
control_change channel=0 control=64 value=74 time=14
control_change channel=0 control=64 value=79 time=16
control_change channel=0 control=67 value=75 time=0
control_change channel=0 control=64 value=84 time=15
control_change channel=0 control=67 value=74 time=0
control_change channel=0 control=64 value=88 time=15
note_on channel=0 note=80 velocity=0 time=3
control_change channel=0 control=64 value=92 time=13
note_on channel=0 note=78 velocity=37 time=2
control_change channel=0 control=64 value=94 time=12
control_change channel=0 control=64 value=96 time=16
control_change channel=0 control=67 value=74 time=0
note_on channel=0 note=78 velocity=0 time=2
note_on channel=0 note=80 velocity=40 time=9
control_change channel=0 control=64 value=98 time=4
control_change channel=0 control=67 value=73 time=0
control_change channel=0 control=64 value=101 time=15
control_change channel=0 control=64 value=104 time=16
control_change channel=0 control=64 value=108 time=15
note_on channel=0 note=80 velocity=0 time=0
note_on channel=0 note=78 velocity=65 time=13
note_on channel=0 note=59 velocity=0 time=1
control_change channel=0 control=64 value=111 time=2
control_change channel=0 control=67 value=73 time=0
note_on channel=0 note=63 velocity=0 time=3
control_change channel=0 control=64 value=114 time=12
control_change channel=0 control=67 value=72 time=0
control_change channel=0 control=64 value=119 time=15
control_change channel=0 control=64 value=127 time=15
note_on channel=0 note=75 velocity=0 time=3
note_on channel=0 note=78 velocity=0 time=6
note_on channel=0 note=80 velocity=62 time=1
control_change channel=0 control=67 value=72 time=5
control_change channel=0 control=67 value=71 time=31
control_change channel=0 control=67 value=70 time=15
note_on channel=0 note=80 velocity=0 time=11
control_change channel=0 control=67 value=69 time=4
control_change channel=0 control=67 value=69 time=15
note_on channel=0 note=61 velocity=55 time=1
note_on channel=0 note=73 velocity=82 time=0
note_on channel=0 note=58 velocity=55 time=3
control_change channel=0 control=67 value=68 time=11
control_change channel=0 control=67 value=68 time=15
note_on channel=0 note=73 velocity=0 time=2
note_on channel=0 note=61 velocity=0 time=18
control_change channel=0 control=67 value=67 time=10
note_on channel=0 note=80 velocity=48 time=11
note_on channel=0 note=59 velocity=56 time=37
note_on channel=0 note=63 velocity=54 time=3
note_on channel=0 note=75 velocity=78 time=2
control_change channel=0 control=67 value=67 time=9
note_on channel=0 note=80 velocity=0 time=0
note_on channel=0 note=58 velocity=0 time=28
note_on channel=0 note=63 velocity=0 time=13
note_on channel=0 note=80 velocity=46 time=4
note_on channel=0 note=75 velocity=0 time=11
note_on channel=0 note=59 velocity=0 time=33
note_on channel=0 note=78 velocity=75 time=19
note_on channel=0 note=80 velocity=0 time=2
control_change channel=0 control=67 value=67 time=35
note_on channel=0 note=80 velocity=62 time=42
control_change channel=0 control=67 value=68 time=4
control_change channel=0 control=67 value=68 time=15
control_change channel=0 control=64 value=110 time=31
note_on channel=0 note=80 velocity=0 time=5
note_on channel=0 note=75 velocity=83 time=9
control_change channel=0 control=64 value=92 time=1
note_on channel=0 note=78 velocity=0 time=2
note_on channel=0 note=59 velocity=49 time=12
note_on channel=0 note=63 velocity=54 time=0
control_change channel=0 control=64 value=71 time=1
control_change channel=0 control=64 value=40 time=15
control_change channel=0 control=64 value=49 time=15
control_change channel=0 control=64 value=62 time=16
control_change channel=0 control=67 value=68 time=0
note_on channel=0 note=80 velocity=67 time=8
control_change channel=0 control=64 value=65 time=7
control_change channel=0 control=64 value=67 time=15
control_change channel=0 control=64 value=70 time=15
control_change channel=0 control=64 value=74 time=15
note_on channel=0 note=80 velocity=0 time=4
note_on channel=0 note=78 velocity=63 time=8
control_change channel=0 control=64 value=77 time=4
control_change channel=0 control=64 value=80 time=15
control_change channel=0 control=67 value=67 time=0
control_change channel=0 control=64 value=83 time=14
note_on channel=0 note=78 velocity=0 time=4
control_change channel=0 control=64 value=85 time=12
note_on channel=0 note=75 velocity=0 time=0
note_on channel=0 note=80 velocity=54 time=7
control_change channel=0 control=64 value=87 time=8
control_change channel=0 control=64 value=90 time=16
note_on channel=0 note=63 velocity=0 time=9
note_on channel=0 note=80 velocity=0 time=5
control_change channel=0 control=64 value=93 time=1
note_on channel=0 note=78 velocity=66 time=13
control_change channel=0 control=64 value=96 time=1
note_on channel=0 note=59 velocity=0 time=6
control_change channel=0 control=64 value=100 time=10
control_change channel=0 control=67 value=67 time=0
control_change channel=0 control=64 value=103 time=15
note_on channel=0 note=78 velocity=0 time=14
control_change channel=0 control=64 value=106 time=1
note_on channel=0 note=80 velocity=66 time=10
control_change channel=0 control=64 value=110 time=5
control_change channel=0 control=67 value=66 time=0
control_change channel=0 control=64 value=114 time=15
control_change channel=0 control=64 value=118 time=16
control_change channel=0 control=67 value=66 time=0
control_change channel=0 control=64 value=121 time=15
note_on channel=0 note=80 velocity=0 time=11
control_change channel=0 control=64 value=127 time=4
note_on channel=0 note=73 velocity=91 time=14
control_change channel=0 control=67 value=65 time=1
control_change channel=0 control=67 value=65 time=15
note_on channel=0 note=58 velocity=55 time=2
note_on channel=0 note=61 velocity=46 time=12
control_change channel=0 control=67 value=64 time=2
note_on channel=0 note=73 velocity=0 time=10
control_change channel=0 control=67 value=61 time=5
control_change channel=0 control=67 value=58 time=15
note_on channel=0 note=80 velocity=59 time=8
control_change channel=0 control=67 value=54 time=8
note_on channel=0 note=61 velocity=0 time=9
control_change channel=0 control=67 value=49 time=6
note_on channel=0 note=58 velocity=0 time=9
control_change channel=0 control=67 value=45 time=6
note_on channel=0 note=75 velocity=81 time=5
note_on channel=0 note=63 velocity=58 time=4
note_on channel=0 note=80 velocity=0 time=0
note_on channel=0 note=59 velocity=51 time=5
control_change channel=0 control=67 value=40 time=1
control_change channel=0 control=67 value=36 time=15
control_change channel=0 control=67 value=33 time=16
control_change channel=0 control=67 value=31 time=15
note_on channel=0 note=63 velocity=0 time=10
control_change channel=0 control=67 value=29 time=5
note_on channel=0 note=75 velocity=0 time=1
control_change channel=0 control=67 value=27 time=14
note_on channel=0 note=80 velocity=59 time=1
control_change channel=0 control=67 value=26 time=14
control_change channel=0 control=67 value=25 time=15
note_on channel=0 note=80 velocity=0 time=7
note_on channel=0 note=78 velocity=71 time=9
control_change channel=0 control=67 value=24 time=14
control_change channel=0 control=67 value=24 time=23
note_on channel=0 note=59 velocity=0 time=3
control_change channel=0 control=67 value=23 time=29
note_on channel=0 note=78 velocity=0 time=1
note_on channel=0 note=80 velocity=65 time=21
note_on channel=0 note=80 velocity=0 time=97
control_change channel=0 control=64 value=110 time=3
control_change channel=0 control=64 value=97 time=14
control_change channel=0 control=64 value=83 time=15
note_on channel=0 note=78 velocity=74 time=9
control_change channel=0 control=64 value=69 time=7
note_on channel=0 note=63 velocity=46 time=0
note_on channel=0 note=54 velocity=37 time=3
note_on channel=0 note=66 velocity=39 time=7
control_change channel=0 control=64 value=38 time=5
control_change channel=0 control=64 value=0 time=16
control_change channel=0 control=64 value=35 time=30
control_change channel=0 control=64 value=47 time=15
control_change channel=0 control=64 value=55 time=15
control_change channel=0 control=64 value=62 time=15
control_change channel=0 control=64 value=65 time=16
control_change channel=0 control=64 value=68 time=15
control_change channel=0 control=64 value=70 time=15
control_change channel=0 control=64 value=72 time=15
control_change channel=0 control=64 value=74 time=15
control_change channel=0 control=64 value=77 time=16
control_change channel=0 control=64 value=80 time=14
control_change channel=0 control=64 value=83 time=15
control_change channel=0 control=64 value=85 time=16
note_on channel=0 note=78 velocity=0 time=8
control_change channel=0 control=64 value=88 time=7
control_change channel=0 control=64 value=90 time=16
note_on channel=0 note=80 velocity=53 time=4
control_change channel=0 control=64 value=93 time=10
control_change channel=0 control=64 value=95 time=15
note_on channel=0 note=80 velocity=0 time=12
control_change channel=0 control=64 value=97 time=4
control_change channel=0 control=64 value=100 time=15
note_on channel=0 note=78 velocity=59 time=2
control_change channel=0 control=64 value=102 time=13
control_change channel=0 control=64 value=105 time=15
note_on channel=0 note=66 velocity=0 time=7
note_on channel=0 note=78 velocity=0 time=1
control_change channel=0 control=64 value=107 time=7
control_change channel=0 control=64 value=110 time=16
note_on channel=0 note=63 velocity=0 time=4
note_on channel=0 note=80 velocity=54 time=8
control_change channel=0 control=64 value=112 time=3
control_change channel=0 control=64 value=117 time=15
note_on channel=0 note=80 velocity=0 time=6
control_change channel=0 control=64 value=123 time=9
note_on channel=0 note=78 velocity=56 time=14
control_change channel=0 control=64 value=127 time=1
note_on channel=0 note=78 velocity=0 time=20
note_on channel=0 note=80 velocity=61 time=34
note_on channel=0 note=80 velocity=0 time=29
note_on channel=0 note=78 velocity=70 time=7
note_on channel=0 note=78 velocity=0 time=53
note_on channel=0 note=80 velocity=63 time=18
note_on channel=0 note=80 velocity=0 time=43
note_on channel=0 note=75 velocity=70 time=2
note_on channel=0 note=63 velocity=40 time=24
note_on channel=0 note=59 velocity=42 time=7
note_on channel=0 note=80 velocity=54 time=43
note_on channel=0 note=59 velocity=0 time=58
note_on channel=0 note=80 velocity=0 time=0
note_on channel=0 note=78 velocity=57 time=11
note_on channel=0 note=78 velocity=0 time=27
note_on channel=0 note=80 velocity=46 time=15
note_on channel=0 note=54 velocity=0 time=2
note_on channel=0 note=78 velocity=67 time=58
note_on channel=0 note=80 velocity=0 time=1
note_on channel=0 note=80 velocity=53 time=69
note_on channel=0 note=75 velocity=0 time=4
note_on channel=0 note=78 velocity=0 time=2
note_on channel=0 note=80 velocity=0 time=64
control_change channel=0 control=64 value=113 time=10
note_on channel=0 note=73 velocity=64 time=11
control_change channel=0 control=64 value=100 time=5
control_change channel=0 control=67 value=24 time=0
note_on channel=0 note=54 velocity=35 time=9
note_on channel=0 note=63 velocity=0 time=5
control_change channel=0 control=64 value=86 time=1
note_on channel=0 note=61 velocity=42 time=2
note_on channel=0 note=58 velocity=38 time=6
control_change channel=0 control=64 value=70 time=7
control_change channel=0 control=67 value=24 time=0
control_change channel=0 control=64 value=53 time=16
control_change channel=0 control=64 value=49 time=14
note_on channel=0 note=80 velocity=45 time=13
control_change channel=0 control=64 value=58 time=2
control_change channel=0 control=64 value=61 time=16
control_change channel=0 control=64 value=63 time=15
note_on channel=0 note=80 velocity=0 time=10
control_change channel=0 control=64 value=64 time=6
control_change channel=0 control=64 value=66 time=14
note_on channel=0 note=78 velocity=51 time=3
control_change channel=0 control=64 value=68 time=12
control_change channel=0 control=64 value=70 time=16
note_on channel=0 note=78 velocity=0 time=2
control_change channel=0 control=64 value=72 time=12
note_on channel=0 note=80 velocity=57 time=14
control_change channel=0 control=64 value=74 time=1
control_change channel=0 control=64 value=77 time=16
control_change channel=0 control=67 value=25 time=0
control_change channel=0 control=64 value=79 time=15
note_on channel=0 note=80 velocity=0 time=13
control_change channel=0 control=64 value=82 time=3
note_on channel=0 note=61 velocity=0 time=12
note_on channel=0 note=78 velocity=59 time=4
control_change channel=0 control=64 value=84 time=6
control_change channel=0 control=64 value=87 time=16
control_change channel=0 control=67 value=25 time=0
note_on channel=0 note=78 velocity=0 time=11
control_change channel=0 control=64 value=89 time=4
control_change channel=0 control=67 value=26 time=0
control_change channel=0 control=64 value=91 time=15
control_change channel=0 control=67 value=27 time=0
note_on channel=0 note=80 velocity=48 time=2
note_on channel=0 note=58 velocity=0 time=9
note_on channel=0 note=54 velocity=0 time=3
control_change channel=0 control=64 value=94 time=2
control_change channel=0 control=64 value=96 time=14
control_change channel=0 control=67 value=27 time=0
note_on channel=0 note=80 velocity=0 time=10
control_change channel=0 control=64 value=98 time=5
control_change channel=0 control=67 value=28 time=0
control_change channel=0 control=64 value=101 time=16
note_on channel=0 note=73 velocity=0 time=7
note_on channel=0 note=78 velocity=43 time=8
control_change channel=0 control=64 value=103 time=1
control_change channel=0 control=67 value=28 time=0
control_change channel=0 control=64 value=106 time=16
control_change channel=0 control=67 value=29 time=0
note_on channel=0 note=78 velocity=0 time=12
control_change channel=0 control=64 value=107 time=2
note_on channel=0 note=80 velocity=61 time=0
control_change channel=0 control=64 value=108 time=15
control_change channel=0 control=67 value=29 time=0
control_change channel=0 control=64 value=109 time=16
note_on channel=0 note=80 velocity=0 time=8
control_change channel=0 control=64 value=110 time=7
control_change channel=0 control=67 value=30 time=0
control_change channel=0 control=64 value=112 time=16
note_on channel=0 note=78 velocity=45 time=3
control_change channel=0 control=64 value=113 time=11
note_on channel=0 note=78 velocity=0 time=13
control_change channel=0 control=64 value=113 time=2
note_on channel=0 note=80 velocity=49 time=14
control_change channel=0 control=64 value=114 time=32
control_change channel=0 control=67 value=30 time=0
note_on channel=0 note=80 velocity=0 time=5
note_on channel=0 note=78 velocity=47 time=33
control_change channel=0 control=67 value=31 time=23
note_on channel=0 note=78 velocity=0 time=3
control_change channel=0 control=67 value=31 time=12
note_on channel=0 note=80 velocity=58 time=6
note_on channel=0 note=80 velocity=0 time=28
control_change channel=0 control=67 value=32 time=27
note_on channel=0 note=78 velocity=49 time=8
control_change channel=0 control=67 value=32 time=7
note_on channel=0 note=78 velocity=0 time=20
control_change channel=0 control=67 value=33 time=11
note_on channel=0 note=80 velocity=60 time=6
note_on channel=0 note=30 velocity=42 time=3
control_change channel=0 control=64 value=114 time=6
control_change channel=0 control=67 value=33 time=15
note_on channel=0 note=80 velocity=0 time=4
control_change channel=0 control=67 value=34 time=11
note_on channel=0 note=78 velocity=50 time=16
control_change channel=0 control=67 value=34 time=14
note_on channel=0 note=78 velocity=0 time=17
note_on channel=0 note=42 velocity=46 time=9
control_change channel=0 control=67 value=35 time=5
note_on channel=0 note=30 velocity=0 time=7
note_on channel=0 note=80 velocity=58 time=2
control_change channel=0 control=67 value=36 time=6
note_on channel=0 note=80 velocity=0 time=23
note_on channel=0 note=42 velocity=0 time=3
control_change channel=0 control=67 value=38 time=4
control_change channel=0 control=67 value=40 time=15
note_on channel=0 note=78 velocity=45 time=6
control_change channel=0 control=67 value=43 time=10
control_change channel=0 control=67 value=46 time=15
note_on channel=0 note=78 velocity=0 time=4
control_change channel=0 control=67 value=50 time=10
note_on channel=0 note=80 velocity=60 time=10
control_change channel=0 control=67 value=53 time=6
control_change channel=0 control=67 value=56 time=15
note_on channel=0 note=80 velocity=0 time=10
control_change channel=0 control=67 value=60 time=5
control_change channel=0 control=67 value=64 time=16
note_on channel=0 note=78 velocity=51 time=17
control_change channel=0 control=67 value=67 time=5
control_change channel=0 control=67 value=70 time=16
note_on channel=0 note=78 velocity=0 time=4
control_change channel=0 control=67 value=72 time=11
control_change channel=0 control=67 value=74 time=16
note_on channel=0 note=80 velocity=39 time=10
control_change channel=0 control=67 value=76 time=5
control_change channel=0 control=67 value=77 time=14
note_on channel=0 note=80 velocity=0 time=12
note_on channel=0 note=78 velocity=51 time=3
control_change channel=0 control=67 value=78 time=1
control_change channel=0 control=67 value=80 time=15
note_on channel=0 note=78 velocity=0 time=10
control_change channel=0 control=67 value=82 time=4
control_change channel=0 control=67 value=84 time=16
note_on channel=0 note=80 velocity=57 time=6
control_change channel=0 control=67 value=85 time=9
control_change channel=0 control=67 value=86 time=16
control_change channel=0 control=67 value=87 time=16
control_change channel=0 control=67 value=88 time=15
note_on channel=0 note=80 velocity=0 time=2
note_on channel=0 note=78 velocity=54 time=12
control_change channel=0 control=67 value=90 time=2
control_change channel=0 control=67 value=91 time=14
control_change channel=0 control=67 value=92 time=15
control_change channel=0 control=67 value=93 time=16
control_change channel=0 control=67 value=95 time=15
control_change channel=0 control=67 value=96 time=16
control_change channel=0 control=67 value=97 time=14
control_change channel=0 control=67 value=98 time=15
control_change channel=0 control=67 value=98 time=16
control_change channel=0 control=64 value=114 time=15
control_change channel=0 control=67 value=100 time=0
control_change channel=0 control=67 value=101 time=16
control_change channel=0 control=67 value=101 time=14
note_on channel=0 note=78 velocity=0 time=25
control_change channel=0 control=64 value=113 time=6
control_change channel=0 control=64 value=112 time=14
control_change channel=0 control=64 value=112 time=15
control_change channel=0 control=64 value=111 time=16
control_change channel=0 control=64 value=110 time=15
control_change channel=0 control=64 value=110 time=16
control_change channel=0 control=64 value=109 time=15
control_change channel=0 control=64 value=108 time=15
control_change channel=0 control=64 value=107 time=16
control_change channel=0 control=64 value=104 time=14
note_on channel=0 note=66 velocity=43 time=7
control_change channel=0 control=64 value=102 time=8
note_on channel=0 note=74 velocity=45 time=15
control_change channel=0 control=64 value=100 time=1
control_change channel=0 control=64 value=97 time=15
note_on channel=0 note=90 velocity=75 time=12
control_change channel=0 control=64 value=93 time=4
control_change channel=0 control=64 value=87 time=14
note_on channel=0 note=78 velocity=43 time=4
control_change channel=0 control=64 value=77 time=11
control_change channel=0 control=64 value=64 time=16
control_change channel=0 control=64 value=49 time=15
control_change channel=0 control=64 value=57 time=16
control_change channel=0 control=64 value=62 time=14
control_change channel=0 control=64 value=63 time=15
control_change channel=0 control=64 value=65 time=16
control_change channel=0 control=64 value=67 time=15
control_change channel=0 control=64 value=70 time=23
control_change channel=0 control=64 value=73 time=15
control_change channel=0 control=64 value=76 time=15
control_change channel=0 control=64 value=79 time=16
control_change channel=0 control=64 value=82 time=15
control_change channel=0 control=67 value=101 time=0
control_change channel=0 control=64 value=85 time=14
note_on channel=0 note=90 velocity=0 time=10
control_change channel=0 control=64 value=89 time=6
control_change channel=0 control=64 value=91 time=15
control_change channel=0 control=64 value=93 time=16
control_change channel=0 control=64 value=95 time=15
control_change channel=0 control=64 value=98 time=14
control_change channel=0 control=64 value=100 time=16
control_change channel=0 control=64 value=103 time=15
note_on channel=0 note=78 velocity=0 time=4
control_change channel=0 control=64 value=106 time=11
control_change channel=0 control=67 value=100 time=0
control_change channel=0 control=64 value=109 time=15
note_on channel=0 note=79 velocity=45 time=9
control_change channel=0 control=64 value=112 time=7
control_change channel=0 control=64 value=115 time=16
note_on channel=0 note=79 velocity=0 time=4
control_change channel=0 control=64 value=118 time=11
control_change channel=0 control=64 value=122 time=15
control_change channel=0 control=64 value=127 time=16
note_on channel=0 note=78 velocity=42 time=1
control_change channel=0 control=67 value=100 time=13
note_on channel=0 note=78 velocity=0 time=18
note_on channel=0 note=79 velocity=60 time=1
note_on channel=0 note=79 velocity=0 time=28
control_change channel=0 control=67 value=99 time=29
note_on channel=0 note=78 velocity=42 time=18
note_on channel=0 note=78 velocity=0 time=27
note_on channel=0 note=79 velocity=35 time=24
control_change channel=0 control=67 value=99 time=38
note_on channel=0 note=79 velocity=0 time=6
note_on channel=0 note=78 velocity=34 time=17
note_on channel=0 note=79 velocity=36 time=27
note_on channel=0 note=78 velocity=0 time=7
control_change channel=0 control=67 value=98 time=19
note_on channel=0 note=79 velocity=0 time=34
note_on channel=0 note=78 velocity=40 time=9
note_on channel=0 note=74 velocity=0 time=82
note_on channel=0 note=78 velocity=0 time=10
note_on channel=0 note=71 velocity=44 time=22
note_on channel=0 note=86 velocity=67 time=1
control_change channel=0 control=67 value=98 time=61
note_on channel=0 note=79 velocity=51 time=88
note_on channel=0 note=79 velocity=0 time=40
note_on channel=0 note=78 velocity=20 time=22
note_on channel=0 note=78 velocity=0 time=43
note_on channel=0 note=66 velocity=0 time=32
note_on channel=0 note=79 velocity=30 time=5
control_change channel=0 control=67 value=97 time=14
note_on channel=0 note=79 velocity=0 time=25
note_on channel=0 note=78 velocity=45 time=5
note_on channel=0 note=86 velocity=0 time=17
note_on channel=0 note=78 velocity=0 time=10
note_on channel=0 note=79 velocity=41 time=18
note_on channel=0 note=78 velocity=58 time=67
control_change channel=0 control=64 value=119 time=56
control_change channel=0 control=64 value=107 time=16
control_change channel=0 control=64 value=93 time=15
note_on channel=0 note=71 velocity=0 time=13
control_change channel=0 control=64 value=81 time=1
note_on channel=0 note=85 velocity=62 time=15
control_change channel=0 control=64 value=70 time=1
note_on channel=0 note=66 velocity=34 time=0
note_on channel=0 note=70 velocity=37 time=8
note_on channel=0 note=78 velocity=0 time=0
control_change channel=0 control=64 value=66 time=7
note_on channel=0 note=79 velocity=0 time=13
control_change channel=0 control=64 value=68 time=2
control_change channel=0 control=64 value=69 time=16
control_change channel=0 control=64 value=70 time=14
control_change channel=0 control=64 value=71 time=16
control_change channel=0 control=64 value=74 time=15
control_change channel=0 control=67 value=97 time=0
control_change channel=0 control=64 value=77 time=15
control_change channel=0 control=64 value=80 time=16
control_change channel=0 control=67 value=96 time=0
control_change channel=0 control=64 value=83 time=14
control_change channel=0 control=64 value=86 time=16
control_change channel=0 control=67 value=96 time=0
control_change channel=0 control=64 value=89 time=15
note_on channel=0 note=85 velocity=0 time=14
control_change channel=0 control=64 value=91 time=1
control_change channel=0 control=67 value=95 time=0
control_change channel=0 control=64 value=94 time=16
control_change channel=0 control=67 value=95 time=0
control_change channel=0 control=64 value=97 time=15
control_change channel=0 control=67 value=94 time=0
note_on channel=0 note=78 velocity=53 time=9
control_change channel=0 control=64 value=100 time=6
control_change channel=0 control=64 value=103 time=23
control_change channel=0 control=67 value=94 time=0
note_on channel=0 note=78 velocity=0 time=8
control_change channel=0 control=64 value=106 time=7
control_change channel=0 control=67 value=93 time=0
control_change channel=0 control=64 value=109 time=15
control_change channel=0 control=67 value=93 time=0
note_on channel=0 note=79 velocity=53 time=4
control_change channel=0 control=64 value=112 time=11
control_change channel=0 control=67 value=92 time=0
control_change channel=0 control=64 value=117 time=16
control_change channel=0 control=67 value=92 time=0
control_change channel=0 control=64 value=127 time=14
note_on channel=0 note=79 velocity=0 time=9
control_change channel=0 control=67 value=91 time=6
note_on channel=0 note=78 velocity=55 time=9
control_change channel=0 control=67 value=91 time=7
note_on channel=0 note=70 velocity=0 time=13
control_change channel=0 control=67 value=90 time=2
note_on channel=0 note=78 velocity=0 time=8
control_change channel=0 control=67 value=90 time=7
note_on channel=0 note=79 velocity=56 time=29
control_change channel=0 control=67 value=89 time=2
control_change channel=0 control=67 value=89 time=16
control_change channel=0 control=67 value=88 time=14
note_on channel=0 note=79 velocity=0 time=11
control_change channel=0 control=67 value=88 time=4
note_on channel=0 note=78 velocity=52 time=10
control_change channel=0 control=67 value=86 time=6
control_change channel=0 control=67 value=84 time=15
note_on channel=0 note=78 velocity=0 time=6
control_change channel=0 control=67 value=82 time=9
note_on channel=0 note=79 velocity=48 time=10
control_change channel=0 control=67 value=80 time=5
control_change channel=0 control=67 value=78 time=15
control_change channel=0 control=67 value=77 time=16
note_on channel=0 note=79 velocity=0 time=12
control_change channel=0 control=67 value=76 time=3
note_on channel=0 note=78 velocity=57 time=9
control_change channel=0 control=67 value=75 time=7
note_on channel=0 note=78 velocity=0 time=14
control_change channel=0 control=67 value=74 time=1
note_on channel=0 note=66 velocity=0 time=6
control_change channel=0 control=67 value=73 time=9
note_on channel=0 note=79 velocity=53 time=9
control_change channel=0 control=67 value=72 time=7
control_change channel=0 control=67 value=71 time=15
control_change channel=0 control=67 value=70 time=15
note_on channel=0 note=79 velocity=0 time=8
control_change channel=0 control=67 value=68 time=8
note_on channel=0 note=78 velocity=59 time=5
control_change channel=0 control=67 value=66 time=10
control_change channel=0 control=67 value=64 time=14
note_on channel=0 note=78 velocity=0 time=2
control_change channel=0 control=67 value=62 time=14
control_change channel=0 control=67 value=60 time=15
note_on channel=0 note=79 velocity=42 time=2
control_change channel=0 control=67 value=58 time=13
control_change channel=0 control=67 value=54 time=15
note_on channel=0 note=79 velocity=0 time=13
control_change channel=0 control=67 value=52 time=2
note_on channel=0 note=78 velocity=65 time=2
control_change channel=0 control=67 value=50 time=14
control_change channel=0 control=67 value=48 time=15
note_on channel=0 note=78 velocity=0 time=7
control_change channel=0 control=67 value=45 time=7
control_change channel=0 control=67 value=43 time=16
note_on channel=0 note=79 velocity=48 time=1
control_change channel=0 control=67 value=42 time=14
control_change channel=0 control=67 value=40 time=17
note_on channel=0 note=79 velocity=0 time=13
control_change channel=0 control=67 value=38 time=2
control_change channel=0 control=67 value=37 time=14
note_on channel=0 note=78 velocity=48 time=5
control_change channel=0 control=67 value=34 time=11
note_on channel=0 note=78 velocity=0 time=13
control_change channel=0 control=67 value=32 time=2
note_on channel=0 note=79 velocity=47 time=7
control_change channel=0 control=67 value=30 time=9
control_change channel=0 control=67 value=28 time=14
control_change channel=0 control=67 value=25 time=15
note_on channel=0 note=79 velocity=0 time=2
control_change channel=0 control=67 value=24 time=14
control_change channel=0 control=67 value=21 time=23
note_on channel=0 note=78 velocity=48 time=2
control_change channel=0 control=67 value=19 time=14
note_on channel=0 note=78 velocity=0 time=11
control_change channel=0 control=67 value=17 time=3
control_change channel=0 control=67 value=15 time=15
note_on channel=0 note=79 velocity=51 time=0
control_change channel=0 control=67 value=12 time=16
control_change channel=0 control=67 value=10 time=15
note_on channel=0 note=79 velocity=0 time=1
control_change channel=0 control=67 value=8 time=15
note_on channel=0 note=78 velocity=54 time=13
control_change channel=0 control=67 value=0 time=1
note_on channel=0 note=78 velocity=0 time=21
note_on channel=0 note=79 velocity=54 time=30
note_on channel=0 note=79 velocity=0 time=33
note_on channel=0 note=78 velocity=69 time=7
note_on channel=0 note=78 velocity=0 time=60
note_on channel=0 note=79 velocity=58 time=24
note_on channel=0 note=78 velocity=64 time=62
note_on channel=0 note=79 velocity=0 time=2
note_on channel=0 note=42 velocity=96 time=2
control_change channel=0 control=64 value=83 time=17
control_change channel=0 control=64 value=36 time=16
control_change channel=0 control=64 value=0 time=15
note_on channel=0 note=78 velocity=0 time=14
control_change channel=0 control=64 value=61 time=1
note_on channel=0 note=79 velocity=54 time=10
control_change channel=0 control=64 value=67 time=6
note_on channel=0 note=54 velocity=87 time=14
control_change channel=0 control=64 value=75 time=1
control_change channel=0 control=64 value=85 time=15
note_on channel=0 note=54 velocity=0 time=9
note_on channel=0 note=42 velocity=0 time=3
control_change channel=0 control=64 value=98 time=3
control_change channel=0 control=64 value=107 time=15
note_on channel=0 note=78 velocity=67 time=1
note_on channel=0 note=79 velocity=0 time=5
control_change channel=0 control=64 value=115 time=10
control_change channel=0 control=64 value=127 time=15
note_on channel=0 note=78 velocity=0 time=42
note_on channel=0 note=79 velocity=59 time=16
note_on channel=0 note=67 velocity=101 time=28
control_change channel=0 control=64 value=103 time=5
note_on channel=0 note=53 velocity=86 time=7
note_on channel=0 note=55 velocity=81 time=0
control_change channel=0 control=64 value=101 time=8
note_on channel=0 note=67 velocity=0 time=9
note_on channel=0 note=65 velocity=43 time=3
note_on channel=0 note=65 velocity=0 time=1
control_change channel=0 control=64 value=106 time=2
note_on channel=0 note=53 velocity=0 time=1
note_on channel=0 note=55 velocity=0 time=0
note_on channel=0 note=78 velocity=69 time=4
note_on channel=0 note=79 velocity=0 time=4
control_change channel=0 control=64 value=118 time=6
control_change channel=0 control=64 value=127 time=15
note_on channel=0 note=78 velocity=0 time=47
note_on channel=0 note=79 velocity=68 time=8
note_on channel=0 note=57 velocity=92 time=4
note_on channel=0 note=69 velocity=98 time=2
note_on channel=0 note=57 velocity=0 time=45
note_on channel=0 note=69 velocity=0 time=4
note_on channel=0 note=79 velocity=0 time=14
note_on channel=0 note=78 velocity=61 time=9
note_on channel=0 note=70 velocity=100 time=56
note_on channel=0 note=78 velocity=0 time=2
note_on channel=0 note=58 velocity=91 time=6
note_on channel=0 note=79 velocity=69 time=6
note_on channel=0 note=70 velocity=0 time=22
note_on channel=0 note=58 velocity=0 time=21
note_on channel=0 note=79 velocity=0 time=25
note_on channel=0 note=78 velocity=74 time=7
control_change channel=0 control=64 value=104 time=18
note_on channel=0 note=64 velocity=102 time=10
note_on channel=0 note=52 velocity=89 time=5
control_change channel=0 control=64 value=61 time=1
control_change channel=0 control=64 value=0 time=12
note_on channel=0 note=52 velocity=0 time=6
note_on channel=0 note=64 velocity=0 time=0
note_on channel=0 note=78 velocity=0 time=0
note_on channel=0 note=79 velocity=69 time=12
note_on channel=0 note=79 velocity=0 time=64
note_on channel=0 note=66 velocity=93 time=8
note_on channel=0 note=54 velocity=83 time=4
note_on channel=0 note=78 velocity=72 time=6
note_on channel=0 note=54 velocity=0 time=28
note_on channel=0 note=66 velocity=0 time=2
note_on channel=0 note=78 velocity=0 time=10
note_on channel=0 note=79 velocity=58 time=29
note_on channel=0 note=67 velocity=88 time=35
note_on channel=0 note=55 velocity=82 time=5
note_on channel=0 note=67 velocity=0 time=16
note_on channel=0 note=79 velocity=0 time=2
note_on channel=0 note=55 velocity=0 time=8
note_on channel=0 note=78 velocity=73 time=6
note_on channel=0 note=78 velocity=0 time=40
note_on channel=0 note=79 velocity=58 time=31
note_on channel=0 note=61 velocity=94 time=5
note_on channel=0 note=49 velocity=89 time=2
note_on channel=0 note=61 velocity=0 time=29
note_on channel=0 note=49 velocity=0 time=5
note_on channel=0 note=79 velocity=0 time=11
note_on channel=0 note=78 velocity=71 time=14
note_on channel=0 note=78 velocity=0 time=41
note_on channel=0 note=62 velocity=91 time=12
note_on channel=0 note=50 velocity=91 time=4
note_on channel=0 note=79 velocity=59 time=11
note_on channel=0 note=62 velocity=0 time=14
note_on channel=0 note=50 velocity=0 time=1
note_on channel=0 note=79 velocity=0 time=31
note_on channel=0 note=78 velocity=65 time=27
note_on channel=0 note=64 velocity=95 time=34
note_on channel=0 note=52 velocity=94 time=2
note_on channel=0 note=78 velocity=0 time=7
note_on channel=0 note=64 velocity=0 time=14
note_on channel=0 note=79 velocity=53 time=2
note_on channel=0 note=52 velocity=0 time=4
note_on channel=0 note=79 velocity=0 time=35
note_on channel=0 note=78 velocity=66 time=36
note_on channel=0 note=58 velocity=96 time=10
note_on channel=0 note=46 velocity=95 time=2
note_on channel=0 note=78 velocity=0 time=13
note_on channel=0 note=58 velocity=0 time=23
note_on channel=0 note=79 velocity=62 time=4
note_on channel=0 note=46 velocity=0 time=7
note_on channel=0 note=79 velocity=0 time=20
note_on channel=0 note=78 velocity=67 time=25
note_on channel=0 note=59 velocity=99 time=21
note_on channel=0 note=47 velocity=88 time=5
note_on channel=0 note=78 velocity=0 time=6
note_on channel=0 note=48 velocity=64 time=13
note_on channel=0 note=79 velocity=69 time=3
note_on channel=0 note=47 velocity=0 time=5
note_on channel=0 note=59 velocity=0 time=3
note_on channel=0 note=48 velocity=0 time=15
note_on channel=0 note=79 velocity=0 time=33
note_on channel=0 note=78 velocity=78 time=7
note_on channel=0 note=61 velocity=102 time=15
note_on channel=0 note=49 velocity=94 time=4
note_on channel=0 note=61 velocity=0 time=27
note_on channel=0 note=78 velocity=0 time=3
note_on channel=0 note=79 velocity=67 time=6
note_on channel=0 note=49 velocity=0 time=6
note_on channel=0 note=42 velocity=95 time=70
note_on channel=0 note=54 velocity=96 time=0
note_on channel=0 note=78 velocity=91 time=0
note_on channel=0 note=79 velocity=0 time=9
control_change channel=0 control=64 value=59 time=3
control_change channel=0 control=64 value=74 time=17
note_on channel=0 note=78 velocity=0 time=4
note_on channel=0 note=54 velocity=0 time=10
control_change channel=0 control=64 value=81 time=1
note_on channel=0 note=42 velocity=0 time=9
control_change channel=0 control=64 value=91 time=6
note_on channel=0 note=44 velocity=2 time=12
control_change channel=0 control=64 value=98 time=3
control_change channel=0 control=64 value=103 time=15
control_change channel=0 control=64 value=105 time=15
note_on channel=0 note=44 velocity=0 time=8
note_on channel=0 note=91 velocity=109 time=2
note_on channel=0 note=55 velocity=95 time=3
note_on channel=0 note=43 velocity=90 time=2
control_change channel=0 control=64 value=109 time=1
note_on channel=0 note=79 velocity=86 time=3
control_change channel=0 control=64 value=116 time=12
note_on channel=0 note=79 velocity=0 time=5
note_on channel=0 note=55 velocity=0 time=4
control_change channel=0 control=64 value=124 time=6
note_on channel=0 note=43 velocity=0 time=0
note_on channel=0 note=91 velocity=0 time=3
control_change channel=0 control=64 value=126 time=12
note_on channel=0 note=54 velocity=96 time=59
control_change channel=0 control=64 value=127 time=2
note_on channel=0 note=42 velocity=89 time=2
note_on channel=0 note=90 velocity=101 time=0
note_on channel=0 note=78 velocity=102 time=1
note_on channel=0 note=91 velocity=72 time=21
note_on channel=0 note=44 velocity=41 time=9
note_on channel=0 note=78 velocity=0 time=4
note_on channel=0 note=54 velocity=0 time=3
note_on channel=0 note=91 velocity=0 time=2
note_on channel=0 note=90 velocity=0 time=5
note_on channel=0 note=42 velocity=0 time=3
note_on channel=0 note=44 velocity=0 time=25
control_change channel=0 control=64 value=124 time=24
control_change channel=0 control=64 value=99 time=15
note_on channel=0 note=88 velocity=111 time=4
note_on channel=0 note=52 velocity=98 time=2
note_on channel=0 note=76 velocity=108 time=2
note_on channel=0 note=40 velocity=90 time=3
control_change channel=0 control=64 value=71 time=4
control_change channel=0 control=64 value=0 time=15
note_on channel=0 note=52 velocity=0 time=2
note_on channel=0 note=76 velocity=0 time=0
note_on channel=0 note=88 velocity=0 time=6
note_on channel=0 note=40 velocity=0 time=4
note_on channel=0 note=50 velocity=96 time=71
note_on channel=0 note=86 velocity=103 time=1
note_on channel=0 note=38 velocity=92 time=1
note_on channel=0 note=74 velocity=104 time=1
note_on channel=0 note=74 velocity=0 time=18
note_on channel=0 note=38 velocity=0 time=6
note_on channel=0 note=50 velocity=0 time=0
note_on channel=0 note=86 velocity=0 time=8
note_on channel=0 note=49 velocity=99 time=70
note_on channel=0 note=73 velocity=109 time=5
note_on channel=0 note=85 velocity=103 time=2
note_on channel=0 note=37 velocity=84 time=3
note_on channel=0 note=73 velocity=0 time=26
note_on channel=0 note=49 velocity=0 time=9
note_on channel=0 note=85 velocity=0 time=11
note_on channel=0 note=37 velocity=0 time=23
note_on channel=0 note=71 velocity=111 time=49
note_on channel=0 note=83 velocity=108 time=0
note_on channel=0 note=47 velocity=104 time=2
note_on channel=0 note=35 velocity=87 time=1
note_on channel=0 note=71 velocity=0 time=22
note_on channel=0 note=83 velocity=0 time=5
control_change channel=0 control=64 value=63 time=4
note_on channel=0 note=35 velocity=0 time=5
note_on channel=0 note=47 velocity=0 time=0
control_change channel=0 control=64 value=87 time=10
control_change channel=0 control=64 value=127 time=16
control_change channel=0 control=64 value=119 time=182
control_change channel=0 control=64 value=99 time=16
control_change channel=0 control=64 value=88 time=14
control_change channel=0 control=64 value=80 time=15
control_change channel=0 control=64 value=73 time=16
control_change channel=0 control=64 value=68 time=15
control_change channel=0 control=64 value=66 time=15
control_change channel=0 control=64 value=65 time=15
control_change channel=0 control=64 value=64 time=15
control_change channel=0 control=64 value=62 time=23
control_change channel=0 control=64 value=55 time=15
control_change channel=0 control=64 value=26 time=16
control_change channel=0 control=64 value=0 time=14
control_change channel=0 control=64 value=56 time=4639
control_change channel=0 control=64 value=62 time=15
control_change channel=0 control=64 value=63 time=16
control_change channel=0 control=64 value=65 time=15
control_change channel=0 control=64 value=66 time=15
control_change channel=0 control=64 value=69 time=15
control_change channel=0 control=64 value=70 time=15
control_change channel=0 control=64 value=72 time=16
control_change channel=0 control=64 value=73 time=15
control_change channel=0 control=64 value=75 time=15
control_change channel=0 control=64 value=77 time=15
control_change channel=0 control=64 value=79 time=15
control_change channel=0 control=64 value=81 time=15
control_change channel=0 control=64 value=83 time=16
control_change channel=0 control=64 value=86 time=15
control_change channel=0 control=64 value=89 time=16
control_change channel=0 control=64 value=92 time=15
control_change channel=0 control=64 value=94 time=15
control_change channel=0 control=64 value=96 time=15
control_change channel=0 control=64 value=99 time=15
control_change channel=0 control=64 value=102 time=15
control_change channel=0 control=64 value=106 time=15
control_change channel=0 control=64 value=109 time=15
control_change channel=0 control=64 value=111 time=16
control_change channel=0 control=64 value=115 time=15
control_change channel=0 control=64 value=127 time=15
note_on channel=0 note=78 velocity=81 time=9
note_on channel=0 note=66 velocity=56 time=18
note_on channel=0 note=54 velocity=48 time=7
note_on channel=0 note=78 velocity=0 time=427
note_on channel=0 note=66 velocity=0 time=110
note_on channel=0 note=54 velocity=0 time=128
note_on channel=0 note=76 velocity=74 time=5
note_on channel=0 note=52 velocity=54 time=1
note_on channel=0 note=64 velocity=49 time=9
control_change channel=0 control=64 value=111 time=55
control_change channel=0 control=64 value=101 time=14
control_change channel=0 control=64 value=94 time=15
control_change channel=0 control=64 value=87 time=16
control_change channel=0 control=64 value=79 time=15
control_change channel=0 control=64 value=69 time=15
control_change channel=0 control=64 value=44 time=15
control_change channel=0 control=64 value=0 time=15
control_change channel=0 control=64 value=17 time=76
control_change channel=0 control=64 value=58 time=15
control_change channel=0 control=64 value=65 time=16
control_change channel=0 control=64 value=68 time=14
control_change channel=0 control=64 value=71 time=16
control_change channel=0 control=64 value=73 time=15
control_change channel=0 control=64 value=77 time=15
control_change channel=0 control=64 value=81 time=16
control_change channel=0 control=64 value=85 time=22
control_change channel=0 control=64 value=90 time=16
control_change channel=0 control=64 value=95 time=15
control_change channel=0 control=64 value=101 time=15
control_change channel=0 control=64 value=107 time=16
control_change channel=0 control=64 value=117 time=14
control_change channel=0 control=64 value=127 time=16
note_on channel=0 note=64 velocity=0 time=110
note_on channel=0 note=76 velocity=0 time=80
note_on channel=0 note=69 velocity=75 time=416
note_on channel=0 note=45 velocity=56 time=21
note_on channel=0 note=57 velocity=48 time=4
control_change channel=0 control=64 value=104 time=11
control_change channel=0 control=64 value=88 time=15
control_change channel=0 control=64 value=76 time=23
note_on channel=0 note=52 velocity=0 time=4
control_change channel=0 control=64 value=69 time=10
control_change channel=0 control=64 value=67 time=16
control_change channel=0 control=64 value=68 time=15
control_change channel=0 control=64 value=69 time=15
control_change channel=0 control=64 value=70 time=16
control_change channel=0 control=64 value=72 time=15
control_change channel=0 control=64 value=74 time=15
control_change channel=0 control=64 value=77 time=15
control_change channel=0 control=64 value=81 time=15
control_change channel=0 control=64 value=87 time=16
control_change channel=0 control=64 value=92 time=15
control_change channel=0 control=64 value=97 time=15
control_change channel=0 control=64 value=102 time=15
control_change channel=0 control=64 value=108 time=15
control_change channel=0 control=64 value=113 time=17
control_change channel=0 control=64 value=120 time=15
control_change channel=0 control=64 value=127 time=15
note_on channel=0 note=57 velocity=0 time=48
control_change channel=0 control=64 value=123 time=134
control_change channel=0 control=64 value=107 time=15
control_change channel=0 control=64 value=93 time=16
note_on channel=0 note=71 velocity=83 time=2
note_on channel=0 note=59 velocity=61 time=10
control_change channel=0 control=64 value=80 time=3
note_on channel=0 note=47 velocity=56 time=3
note_on channel=0 note=69 velocity=0 time=1
note_on channel=0 note=45 velocity=0 time=3
control_change channel=0 control=64 value=68 time=7
control_change channel=0 control=64 value=53 time=16
control_change channel=0 control=64 value=59 time=30
control_change channel=0 control=64 value=63 time=15
control_change channel=0 control=64 value=64 time=15
control_change channel=0 control=64 value=66 time=16
control_change channel=0 control=64 value=69 time=15
control_change channel=0 control=64 value=72 time=15
control_change channel=0 control=64 value=75 time=16
control_change channel=0 control=64 value=79 time=14
control_change channel=0 control=64 value=83 time=16
control_change channel=0 control=64 value=87 time=15
control_change channel=0 control=64 value=91 time=15
control_change channel=0 control=64 value=96 time=16
control_change channel=0 control=64 value=101 time=15
control_change channel=0 control=64 value=106 time=15
control_change channel=0 control=64 value=114 time=22
note_on channel=0 note=59 velocity=0 time=0
control_change channel=0 control=64 value=127 time=15
note_on channel=0 note=71 velocity=0 time=7
note_on channel=0 note=64 velocity=66 time=341
control_change channel=0 control=64 value=121 time=19
note_on channel=0 note=40 velocity=48 time=0
note_on channel=0 note=52 velocity=49 time=10
control_change channel=0 control=64 value=111 time=5
control_change channel=0 control=64 value=104 time=15
control_change channel=0 control=64 value=98 time=15
control_change channel=0 control=64 value=92 time=15
note_on channel=0 note=47 velocity=0 time=3
control_change channel=0 control=64 value=88 time=12
control_change channel=0 control=64 value=83 time=16
control_change channel=0 control=64 value=76 time=15
control_change channel=0 control=64 value=68 time=15
control_change channel=0 control=64 value=54 time=15
control_change channel=0 control=64 value=0 time=15
control_change channel=0 control=67 value=8 time=137
control_change channel=0 control=67 value=8 time=14
control_change channel=0 control=67 value=9 time=15
control_change channel=0 control=67 value=10 time=16
control_change channel=0 control=67 value=11 time=15
control_change channel=0 control=67 value=12 time=16
control_change channel=0 control=67 value=15 time=22
control_change channel=0 control=67 value=17 time=16
control_change channel=0 control=67 value=20 time=14
control_change channel=0 control=67 value=23 time=15
control_change channel=0 control=64 value=14 time=16
control_change channel=0 control=67 value=26 time=0
control_change channel=0 control=64 value=27 time=14
control_change channel=0 control=67 value=30 time=0
control_change channel=0 control=64 value=36 time=15
control_change channel=0 control=67 value=34 time=0
control_change channel=0 control=64 value=42 time=16
control_change channel=0 control=67 value=38 time=0
control_change channel=0 control=64 value=45 time=15
control_change channel=0 control=67 value=41 time=0
control_change channel=0 control=64 value=48 time=16
control_change channel=0 control=67 value=44 time=0
control_change channel=0 control=64 value=52 time=15
control_change channel=0 control=67 value=47 time=0
control_change channel=0 control=64 value=58 time=15
control_change channel=0 control=67 value=50 time=0
control_change channel=0 control=64 value=62 time=16
control_change channel=0 control=67 value=52 time=0
control_change channel=0 control=64 value=64 time=14
control_change channel=0 control=67 value=54 time=0
control_change channel=0 control=64 value=65 time=15
control_change channel=0 control=67 value=57 time=0
control_change channel=0 control=64 value=66 time=16
control_change channel=0 control=67 value=59 time=0
control_change channel=0 control=64 value=67 time=15
control_change channel=0 control=67 value=62 time=0
control_change channel=0 control=64 value=69 time=16
control_change channel=0 control=67 value=66 time=0
control_change channel=0 control=64 value=71 time=14
control_change channel=0 control=67 value=69 time=0
control_change channel=0 control=64 value=72 time=15
control_change channel=0 control=67 value=72 time=0
control_change channel=0 control=64 value=74 time=16
control_change channel=0 control=67 value=77 time=0
control_change channel=0 control=64 value=76 time=16
control_change channel=0 control=67 value=81 time=0
control_change channel=0 control=64 value=78 time=16
control_change channel=0 control=67 value=84 time=0
control_change channel=0 control=64 value=80 time=15
control_change channel=0 control=67 value=87 time=0
control_change channel=0 control=64 value=82 time=15
control_change channel=0 control=67 value=91 time=0
control_change channel=0 control=64 value=84 time=15
control_change channel=0 control=67 value=96 time=0
control_change channel=0 control=64 value=88 time=15
control_change channel=0 control=67 value=100 time=0
control_change channel=0 control=64 value=90 time=15
control_change channel=0 control=67 value=104 time=0
control_change channel=0 control=64 value=92 time=16
control_change channel=0 control=67 value=107 time=0
control_change channel=0 control=64 value=94 time=15
control_change channel=0 control=67 value=110 time=0
control_change channel=0 control=64 value=97 time=15
control_change channel=0 control=67 value=113 time=0
control_change channel=0 control=64 value=100 time=15
control_change channel=0 control=67 value=117 time=0
control_change channel=0 control=64 value=103 time=15
control_change channel=0 control=67 value=121 time=0
control_change channel=0 control=64 value=106 time=15
control_change channel=0 control=67 value=125 time=0
control_change channel=0 control=64 value=109 time=15
control_change channel=0 control=67 value=127 time=0
control_change channel=0 control=64 value=111 time=15
control_change channel=0 control=64 value=115 time=16
control_change channel=0 control=64 value=119 time=15
control_change channel=0 control=64 value=126 time=15
control_change channel=0 control=64 value=127 time=15
note_on channel=0 note=52 velocity=0 time=307
note_on channel=0 note=64 velocity=0 time=216
control_change channel=0 control=64 value=123 time=292
control_change channel=0 control=64 value=121 time=15
control_change channel=0 control=64 value=119 time=15
control_change channel=0 control=64 value=119 time=16
control_change channel=0 control=64 value=118 time=14
control_change channel=0 control=64 value=118 time=15
control_change channel=0 control=64 value=117 time=16
control_change channel=0 control=64 value=117 time=15
control_change channel=0 control=64 value=116 time=23
control_change channel=0 control=64 value=115 time=15
control_change channel=0 control=64 value=113 time=15
control_change channel=0 control=64 value=112 time=16
control_change channel=0 control=64 value=111 time=15
control_change channel=0 control=64 value=111 time=16
control_change channel=0 control=64 value=110 time=15
control_change channel=0 control=64 value=109 time=14
control_change channel=0 control=64 value=108 time=16
control_change channel=0 control=64 value=107 time=15
control_change channel=0 control=64 value=105 time=14
control_change channel=0 control=64 value=103 time=16
control_change channel=0 control=64 value=101 time=15
control_change channel=0 control=64 value=99 time=16
control_change channel=0 control=64 value=97 time=15
control_change channel=0 control=64 value=94 time=14
control_change channel=0 control=64 value=91 time=16
note_on channel=0 note=66 velocity=44 time=11
control_change channel=0 control=64 value=87 time=4
control_change channel=0 control=64 value=82 time=15
note_on channel=0 note=42 velocity=35 time=8
control_change channel=0 control=64 value=76 time=8
control_change channel=0 control=64 value=70 time=14
control_change channel=0 control=64 value=62 time=18
note_on channel=0 note=40 velocity=0 time=14
control_change channel=0 control=64 value=53 time=1
control_change channel=0 control=64 value=50 time=15
control_change channel=0 control=64 value=51 time=77
control_change channel=0 control=64 value=53 time=16
control_change channel=0 control=64 value=55 time=14
control_change channel=0 control=64 value=58 time=16
control_change channel=0 control=64 value=59 time=15
control_change channel=0 control=64 value=61 time=15
control_change channel=0 control=64 value=62 time=16
control_change channel=0 control=64 value=63 time=14
control_change channel=0 control=64 value=65 time=16
control_change channel=0 control=64 value=66 time=15
control_change channel=0 control=64 value=68 time=15
control_change channel=0 control=64 value=70 time=16
control_change channel=0 control=64 value=72 time=15
control_change channel=0 control=64 value=74 time=14
control_change channel=0 control=64 value=76 time=16
control_change channel=0 control=64 value=79 time=15
control_change channel=0 control=64 value=81 time=16
control_change channel=0 control=64 value=83 time=15
control_change channel=0 control=64 value=85 time=15
control_change channel=0 control=64 value=86 time=16
control_change channel=0 control=64 value=86 time=14
control_change channel=0 control=64 value=85 time=145
control_change channel=0 control=64 value=85 time=15
control_change channel=0 control=64 value=84 time=15
control_change channel=0 control=64 value=84 time=16
note_on channel=0 note=64 velocity=46 time=1
control_change channel=0 control=64 value=83 time=13
note_on channel=0 note=40 velocity=32 time=14
control_change channel=0 control=64 value=82 time=2
note_on channel=0 note=42 velocity=0 time=6
note_on channel=0 note=66 velocity=0 time=6
control_change channel=0 control=64 value=81 time=3
control_change channel=0 control=64 value=80 time=15
control_change channel=0 control=64 value=79 time=15
control_change channel=0 control=64 value=76 time=15
control_change channel=0 control=64 value=73 time=15
control_change channel=0 control=64 value=69 time=16
control_change channel=0 control=64 value=64 time=15
control_change channel=0 control=64 value=62 time=15
control_change channel=0 control=64 value=62 time=15
control_change channel=0 control=64 value=61 time=30
control_change channel=0 control=64 value=62 time=46
control_change channel=0 control=64 value=62 time=15
control_change channel=0 control=64 value=63 time=15
control_change channel=0 control=64 value=64 time=15
control_change channel=0 control=64 value=64 time=15
control_change channel=0 control=64 value=65 time=16
control_change channel=0 control=64 value=65 time=16
control_change channel=0 control=64 value=66 time=16
control_change channel=0 control=64 value=68 time=15
control_change channel=0 control=64 value=70 time=14
control_change channel=0 control=64 value=72 time=16
control_change channel=0 control=64 value=74 time=15
control_change channel=0 control=64 value=76 time=15
control_change channel=0 control=64 value=79 time=16
control_change channel=0 control=64 value=81 time=14
control_change channel=0 control=64 value=84 time=16
control_change channel=0 control=64 value=86 time=15
control_change channel=0 control=64 value=88 time=14
control_change channel=0 control=64 value=91 time=16
control_change channel=0 control=64 value=93 time=15
control_change channel=0 control=64 value=95 time=16
control_change channel=0 control=64 value=98 time=15
control_change channel=0 control=64 value=100 time=15
control_change channel=0 control=64 value=103 time=16
control_change channel=0 control=64 value=106 time=22
control_change channel=0 control=64 value=109 time=16
control_change channel=0 control=64 value=112 time=14
control_change channel=0 control=64 value=116 time=15
control_change channel=0 control=64 value=121 time=16
control_change channel=0 control=64 value=124 time=15
control_change channel=0 control=64 value=126 time=16
control_change channel=0 control=64 value=127 time=14
control_change channel=0 control=64 value=124 time=380
control_change channel=0 control=64 value=120 time=15
control_change channel=0 control=64 value=118 time=15
control_change channel=0 control=64 value=116 time=17
control_change channel=0 control=64 value=113 time=15
control_change channel=0 control=64 value=110 time=15
control_change channel=0 control=64 value=108 time=16
control_change channel=0 control=64 value=106 time=15
control_change channel=0 control=64 value=104 time=14
control_change channel=0 control=64 value=101 time=16
note_on channel=0 note=57 velocity=44 time=13
control_change channel=0 control=64 value=97 time=2
note_on channel=0 note=64 velocity=0 time=7
note_on channel=0 note=33 velocity=41 time=6
control_change channel=0 control=64 value=94 time=2
control_change channel=0 control=64 value=89 time=15
control_change channel=0 control=64 value=84 time=15
control_change channel=0 control=64 value=78 time=16
note_on channel=0 note=40 velocity=0 time=14
control_change channel=0 control=64 value=72 time=1
control_change channel=0 control=64 value=67 time=14
control_change channel=0 control=64 value=68 time=39
control_change channel=0 control=64 value=68 time=46
control_change channel=0 control=64 value=69 time=15
control_change channel=0 control=64 value=69 time=15
control_change channel=0 control=64 value=70 time=16
control_change channel=0 control=64 value=71 time=29
control_change channel=0 control=64 value=72 time=16
control_change channel=0 control=64 value=74 time=15
control_change channel=0 control=64 value=75 time=16
control_change channel=0 control=64 value=76 time=14
control_change channel=0 control=64 value=78 time=15
control_change channel=0 control=64 value=80 time=16
control_change channel=0 control=64 value=83 time=15
control_change channel=0 control=64 value=85 time=16
control_change channel=0 control=64 value=89 time=14
control_change channel=0 control=64 value=91 time=15
control_change channel=0 control=64 value=93 time=16
control_change channel=0 control=64 value=95 time=15
control_change channel=0 control=64 value=96 time=15
note_on channel=0 note=57 velocity=0 time=92
control_change channel=0 control=64 value=95 time=45
control_change channel=0 control=64 value=94 time=15
control_change channel=0 control=64 value=93 time=16
control_change channel=0 control=64 value=92 time=14
control_change channel=0 control=64 value=90 time=15
note_on channel=0 note=59 velocity=46 time=12
control_change channel=0 control=64 value=86 time=4
note_on channel=0 note=33 velocity=0 time=7
note_on channel=0 note=35 velocity=33 time=4
control_change channel=0 control=64 value=80 time=4
control_change channel=0 control=64 value=73 time=15
control_change channel=0 control=64 value=65 time=17
control_change channel=0 control=64 value=60 time=15
control_change channel=0 control=64 value=61 time=15
control_change channel=0 control=64 value=61 time=15
control_change channel=0 control=64 value=62 time=13
control_change channel=0 control=64 value=63 time=16
control_change channel=0 control=64 value=63 time=15
control_change channel=0 control=64 value=64 time=16
control_change channel=0 control=64 value=64 time=15
control_change channel=0 control=64 value=65 time=14
control_change channel=0 control=64 value=66 time=16
control_change channel=0 control=64 value=68 time=15
control_change channel=0 control=64 value=69 time=23
control_change channel=0 control=64 value=71 time=15
control_change channel=0 control=64 value=72 time=15
control_change channel=0 control=64 value=74 time=15
control_change channel=0 control=64 value=75 time=15
control_change channel=0 control=64 value=77 time=15
control_change channel=0 control=64 value=79 time=16
control_change channel=0 control=64 value=81 time=15
control_change channel=0 control=64 value=84 time=15
control_change channel=0 control=64 value=86 time=15
control_change channel=0 control=64 value=88 time=15
control_change channel=0 control=64 value=89 time=16
control_change channel=0 control=64 value=92 time=15
control_change channel=0 control=64 value=93 time=16
control_change channel=0 control=64 value=95 time=15
control_change channel=0 control=64 value=96 time=15
note_on channel=0 note=35 velocity=0 time=0
control_change channel=0 control=64 value=97 time=16
control_change channel=0 control=64 value=97 time=29
control_change channel=0 control=64 value=98 time=16
control_change channel=0 control=64 value=98 time=14
note_on channel=0 note=59 velocity=0 time=52
control_change channel=0 control=64 value=98 time=268
control_change channel=0 control=64 value=97 time=17
control_change channel=0 control=64 value=96 time=15
note_on channel=0 note=40 velocity=33 time=12
note_on channel=0 note=52 velocity=45 time=1
control_change channel=0 control=64 value=95 time=2
note_on channel=0 note=28 velocity=37 time=14
control_change channel=0 control=64 value=94 time=1
control_change channel=0 control=64 value=93 time=15
control_change channel=0 control=64 value=92 time=15
control_change channel=0 control=64 value=89 time=16
control_change channel=0 control=64 value=86 time=15
control_change channel=0 control=64 value=82 time=23
control_change channel=0 control=64 value=79 time=15
control_change channel=0 control=64 value=74 time=16
control_change channel=0 control=64 value=68 time=14
control_change channel=0 control=64 value=62 time=15
control_change channel=0 control=64 value=46 time=16
control_change channel=0 control=64 value=0 time=15
control_change channel=0 control=64 value=38 time=288
control_change channel=0 control=64 value=51 time=16
control_change channel=0 control=64 value=58 time=15
control_change channel=0 control=64 value=61 time=15
control_change channel=0 control=64 value=62 time=16
control_change channel=0 control=64 value=64 time=14
control_change channel=0 control=64 value=65 time=16
control_change channel=0 control=64 value=66 time=15
control_change channel=0 control=64 value=67 time=15
control_change channel=0 control=64 value=68 time=16
control_change channel=0 control=64 value=69 time=14
control_change channel=0 control=64 value=70 time=15
control_change channel=0 control=64 value=71 time=16
control_change channel=0 control=64 value=72 time=14
control_change channel=0 control=64 value=73 time=16
control_change channel=0 control=64 value=74 time=15
control_change channel=0 control=64 value=74 time=15
control_change channel=0 control=64 value=75 time=16
control_change channel=0 control=64 value=76 time=14
control_change channel=0 control=64 value=77 time=15
control_change channel=0 control=64 value=79 time=17
control_change channel=0 control=64 value=80 time=15
control_change channel=0 control=64 value=81 time=16
control_change channel=0 control=64 value=82 time=15
control_change channel=0 control=64 value=83 time=15
control_change channel=0 control=64 value=84 time=23
control_change channel=0 control=64 value=84 time=14
control_change channel=0 control=64 value=85 time=16
control_change channel=0 control=64 value=86 time=15
control_change channel=0 control=64 value=87 time=16
control_change channel=0 control=64 value=88 time=15
control_change channel=0 control=64 value=89 time=15
control_change channel=0 control=64 value=90 time=16
control_change channel=0 control=64 value=91 time=14
control_change channel=0 control=64 value=92 time=15
control_change channel=0 control=64 value=93 time=16
control_change channel=0 control=64 value=94 time=15
control_change channel=0 control=64 value=94 time=16
control_change channel=0 control=64 value=95 time=14
control_change channel=0 control=64 value=96 time=15
control_change channel=0 control=64 value=98 time=16
control_change channel=0 control=64 value=99 time=15
control_change channel=0 control=64 value=100 time=14
control_change channel=0 control=64 value=101 time=16
control_change channel=0 control=64 value=101 time=15
control_change channel=0 control=64 value=102 time=16
control_change channel=0 control=64 value=103 time=15
control_change channel=0 control=64 value=105 time=14
control_change channel=0 control=64 value=106 time=16
control_change channel=0 control=64 value=107 time=15
control_change channel=0 control=64 value=108 time=15
control_change channel=0 control=64 value=109 time=16
control_change channel=0 control=64 value=110 time=14
control_change channel=0 control=64 value=111 time=16
control_change channel=0 control=64 value=113 time=15
control_change channel=0 control=64 value=114 time=15
control_change channel=0 control=64 value=117 time=16
control_change channel=0 control=64 value=120 time=15
control_change channel=0 control=64 value=127 time=15
control_change channel=0 control=67 value=127 time=342
control_change channel=0 control=67 value=126 time=31
control_change channel=0 control=67 value=126 time=30
control_change channel=0 control=67 value=125 time=15
note_on channel=0 note=52 velocity=0 time=3
control_change channel=0 control=67 value=125 time=12
control_change channel=0 control=67 value=124 time=16
control_change channel=0 control=67 value=123 time=14
control_change channel=0 control=67 value=121 time=15
control_change channel=0 control=67 value=119 time=16
control_change channel=0 control=67 value=117 time=15
control_change channel=0 control=67 value=115 time=16
control_change channel=0 control=67 value=113 time=14
control_change channel=0 control=67 value=110 time=15
control_change channel=0 control=67 value=107 time=16
control_change channel=0 control=67 value=105 time=14
control_change channel=0 control=67 value=102 time=16
control_change channel=0 control=67 value=99 time=15
control_change channel=0 control=67 value=95 time=15
control_change channel=0 control=67 value=92 time=16
control_change channel=0 control=67 value=89 time=15
control_change channel=0 control=67 value=86 time=14
control_change channel=0 control=67 value=83 time=16
control_change channel=0 control=67 value=79 time=15
control_change channel=0 control=67 value=75 time=16
control_change channel=0 control=67 value=72 time=15
control_change channel=0 control=67 value=70 time=15
control_change channel=0 control=67 value=68 time=16
control_change channel=0 control=67 value=66 time=15
control_change channel=0 control=67 value=65 time=14
control_change channel=0 control=67 value=63 time=16
control_change channel=0 control=67 value=61 time=15
control_change channel=0 control=67 value=60 time=16
note_on channel=0 note=28 velocity=0 time=7
control_change channel=0 control=67 value=58 time=8
control_change channel=0 control=67 value=56 time=14
control_change channel=0 control=67 value=54 time=16
control_change channel=0 control=67 value=53 time=15
control_change channel=0 control=67 value=50 time=14
note_on channel=0 note=40 velocity=0 time=5
control_change channel=0 control=67 value=48 time=11
control_change channel=0 control=67 value=45 time=15
control_change channel=0 control=67 value=43 time=16
control_change channel=0 control=67 value=41 time=15
control_change channel=0 control=67 value=39 time=14
control_change channel=0 control=67 value=37 time=16
control_change channel=0 control=67 value=34 time=23
control_change channel=0 control=67 value=32 time=16
control_change channel=0 control=67 value=29 time=15
control_change channel=0 control=67 value=26 time=16
control_change channel=0 control=67 value=24 time=15
control_change channel=0 control=67 value=21 time=14
note_on channel=0 note=64 velocity=41 time=13
control_change channel=0 control=67 value=17 time=3
control_change channel=0 control=67 value=15 time=15
note_on channel=0 note=61 velocity=28 time=6
control_change channel=0 control=67 value=13 time=9
control_change channel=0 control=67 value=12 time=16
control_change channel=0 control=67 value=10 time=15
control_change channel=0 control=67 value=8 time=16
control_change channel=0 control=67 value=0 time=15
note_on channel=0 note=69 velocity=50 time=246
note_on channel=0 note=64 velocity=0 time=30
note_on channel=0 note=61 velocity=0 time=17
control_change channel=0 control=64 value=113 time=322
control_change channel=0 control=64 value=103 time=15
control_change channel=0 control=64 value=96 time=15
note_on channel=0 note=28 velocity=36 time=2
note_on channel=0 note=40 velocity=31 time=4
control_change channel=0 control=64 value=88 time=10
note_on channel=0 note=62 velocity=37 time=2
note_on channel=0 note=59 velocity=35 time=1
control_change channel=0 control=64 value=80 time=13
control_change channel=0 control=64 value=72 time=15
control_change channel=0 control=64 value=64 time=16
control_change channel=0 control=64 value=57 time=15
control_change channel=0 control=64 value=59 time=14
control_change channel=0 control=64 value=61 time=16
control_change channel=0 control=64 value=62 time=15
control_change channel=0 control=64 value=63 time=15
control_change channel=0 control=64 value=64 time=15
control_change channel=0 control=64 value=64 time=15
control_change channel=0 control=64 value=65 time=16
control_change channel=0 control=64 value=67 time=15
control_change channel=0 control=64 value=68 time=14
control_change channel=0 control=64 value=70 time=16
control_change channel=0 control=64 value=71 time=15
control_change channel=0 control=64 value=73 time=16
control_change channel=0 control=64 value=75 time=15
control_change channel=0 control=64 value=77 time=15
control_change channel=0 control=64 value=79 time=16
control_change channel=0 control=64 value=81 time=15
control_change channel=0 control=64 value=83 time=15
control_change channel=0 control=64 value=85 time=15
control_change channel=0 control=64 value=88 time=15
control_change channel=0 control=64 value=90 time=16
control_change channel=0 control=64 value=91 time=15
control_change channel=0 control=64 value=93 time=15
control_change channel=0 control=64 value=95 time=15
control_change channel=0 control=64 value=97 time=15
control_change channel=0 control=64 value=99 time=16
control_change channel=0 control=64 value=101 time=15
control_change channel=0 control=64 value=103 time=14
control_change channel=0 control=64 value=104 time=16
control_change channel=0 control=64 value=106 time=15
control_change channel=0 control=64 value=108 time=15
control_change channel=0 control=64 value=110 time=15
note_on channel=0 note=62 velocity=0 time=9
control_change channel=0 control=64 value=113 time=6
control_change channel=0 control=64 value=114 time=16
control_change channel=0 control=64 value=116 time=15
control_change channel=0 control=64 value=117 time=15
control_change channel=0 control=64 value=119 time=15
control_change channel=0 control=64 value=121 time=15
control_change channel=0 control=64 value=124 time=15
control_change channel=0 control=64 value=127 time=16
note_on channel=0 note=69 velocity=0 time=192
note_on channel=0 note=40 velocity=0 time=21
note_on channel=0 note=68 velocity=50 time=2
note_on channel=0 note=28 velocity=0 time=26
note_on channel=0 note=59 velocity=0 time=6
note_on channel=0 note=71 velocity=63 time=273
note_on channel=0 note=68 velocity=0 time=36
control_change channel=0 control=64 value=115 time=227
control_change channel=0 control=64 value=102 time=23
control_change channel=0 control=64 value=89 time=15
control_change channel=0 control=64 value=75 time=16
note_on channel=0 note=61 velocity=39 time=2
note_on channel=0 note=40 velocity=34 time=1
note_on channel=0 note=64 velocity=44 time=3
note_on channel=0 note=28 velocity=35 time=7
control_change channel=0 control=64 value=63 time=1
control_change channel=0 control=64 value=0 time=15
control_change channel=0 control=64 value=14 time=47
control_change channel=0 control=64 value=36 time=14
control_change channel=0 control=64 value=47 time=15
control_change channel=0 control=64 value=56 time=16
control_change channel=0 control=64 value=62 time=15
control_change channel=0 control=64 value=64 time=17
control_change channel=0 control=64 value=66 time=15
control_change channel=0 control=64 value=68 time=15
control_change channel=0 control=64 value=70 time=15
control_change channel=0 control=64 value=73 time=15
control_change channel=0 control=64 value=76 time=15
control_change channel=0 control=64 value=77 time=15
control_change channel=0 control=64 value=79 time=15
control_change channel=0 control=64 value=82 time=16
control_change channel=0 control=64 value=85 time=15
control_change channel=0 control=64 value=88 time=15
control_change channel=0 control=64 value=90 time=15
control_change channel=0 control=64 value=93 time=15
control_change channel=0 control=64 value=95 time=15
control_change channel=0 control=64 value=98 time=16
control_change channel=0 control=64 value=101 time=15
note_on channel=0 note=64 velocity=0 time=6
control_change channel=0 control=64 value=106 time=9
control_change channel=0 control=64 value=111 time=15
control_change channel=0 control=64 value=118 time=15
control_change channel=0 control=64 value=127 time=16
note_on channel=0 note=71 velocity=0 time=255
note_on channel=0 note=69 velocity=68 time=13
note_on channel=0 note=28 velocity=0 time=144
note_on channel=0 note=61 velocity=0 time=27
note_on channel=0 note=40 velocity=0 time=77
note_on channel=0 note=73 velocity=80 time=119
note_on channel=0 note=69 velocity=0 time=18
note_on channel=0 note=66 velocity=58 time=466
note_on channel=0 note=40 velocity=38 time=6
note_on channel=0 note=63 velocity=49 time=0
note_on channel=0 note=28 velocity=39 time=3
control_change channel=0 control=64 value=108 time=12
control_change channel=0 control=64 value=92 time=15
control_change channel=0 control=64 value=79 time=15
control_change channel=0 control=64 value=64 time=15
control_change channel=0 control=64 value=0 time=16
control_change channel=0 control=64 value=48 time=106
control_change channel=0 control=64 value=59 time=16
control_change channel=0 control=64 value=63 time=15
control_change channel=0 control=64 value=65 time=16
control_change channel=0 control=64 value=68 time=15
control_change channel=0 control=64 value=71 time=15
control_change channel=0 control=64 value=73 time=16
control_change channel=0 control=64 value=75 time=15
control_change channel=0 control=64 value=76 time=16
control_change channel=0 control=64 value=80 time=14
control_change channel=0 control=64 value=83 time=15
control_change channel=0 control=64 value=86 time=16
control_change channel=0 control=64 value=88 time=14
control_change channel=0 control=64 value=90 time=15
note_on channel=0 note=63 velocity=0 time=3
control_change channel=0 control=64 value=93 time=13
control_change channel=0 control=64 value=98 time=15
control_change channel=0 control=64 value=102 time=16
control_change channel=0 control=64 value=106 time=14
control_change channel=0 control=64 value=109 time=15
control_change channel=0 control=64 value=115 time=16
note_on channel=0 note=66 velocity=0 time=11
control_change channel=0 control=64 value=127 time=4
note_on channel=0 note=73 velocity=0 time=109
note_on channel=0 note=71 velocity=66 time=291
note_on channel=0 note=28 velocity=0 time=169
note_on channel=0 note=81 velocity=75 time=466
note_on channel=0 note=40 velocity=0 time=6
note_on channel=0 note=71 velocity=0 time=18
note_on channel=0 note=28 velocity=43 time=386
control_change channel=0 control=64 value=108 time=45
control_change channel=0 control=64 value=93 time=16
control_change channel=0 control=64 value=78 time=15
note_on channel=0 note=80 velocity=72 time=9
control_change channel=0 control=64 value=65 time=6
control_change channel=0 control=64 value=0 time=16
note_on channel=0 note=81 velocity=0 time=21
control_change channel=0 control=64 value=28 time=9
control_change channel=0 control=64 value=49 time=15
control_change channel=0 control=64 value=58 time=15
control_change channel=0 control=64 value=63 time=16
control_change channel=0 control=64 value=66 time=14
control_change channel=0 control=64 value=68 time=16
control_change channel=0 control=67 value=8 time=0
control_change channel=0 control=64 value=71 time=15
control_change channel=0 control=67 value=9 time=0
control_change channel=0 control=64 value=74 time=14
control_change channel=0 control=67 value=11 time=0
control_change channel=0 control=64 value=77 time=16
control_change channel=0 control=67 value=13 time=0
control_change channel=0 control=64 value=80 time=15
control_change channel=0 control=67 value=14 time=0
control_change channel=0 control=64 value=83 time=15
control_change channel=0 control=67 value=16 time=0
control_change channel=0 control=64 value=86 time=24
control_change channel=0 control=67 value=20 time=0
control_change channel=0 control=64 value=89 time=14
control_change channel=0 control=67 value=24 time=0
note_on channel=0 note=28 velocity=0 time=7
control_change channel=0 control=64 value=92 time=9
control_change channel=0 control=67 value=27 time=0
control_change channel=0 control=64 value=95 time=15
control_change channel=0 control=67 value=28 time=0
note_on channel=0 note=40 velocity=46 time=3
control_change channel=0 control=64 value=97 time=13
control_change channel=0 control=64 value=100 time=14
note_on channel=0 note=40 velocity=0 time=14
control_change channel=0 control=64 value=103 time=1
control_change channel=0 control=64 value=105 time=16
control_change channel=0 control=67 value=27 time=0
control_change channel=0 control=64 value=108 time=15
control_change channel=0 control=64 value=110 time=15
control_change channel=0 control=64 value=112 time=15
control_change channel=0 control=67 value=27 time=0
control_change channel=0 control=64 value=115 time=15
control_change channel=0 control=64 value=118 time=16
control_change channel=0 control=64 value=119 time=15
control_change channel=0 control=64 value=119 time=15
control_change channel=0 control=67 value=26 time=15
note_on channel=0 note=76 velocity=70 time=4
control_change channel=0 control=67 value=26 time=26
note_on channel=0 note=80 velocity=0 time=5
note_on channel=0 note=52 velocity=43 time=61
control_change channel=0 control=67 value=25 time=40
control_change channel=0 control=67 value=25 time=31
note_on channel=0 note=78 velocity=72 time=28
note_on channel=0 note=76 velocity=0 time=5
control_change channel=0 control=67 value=24 time=28
control_change channel=0 control=67 value=24 time=16
control_change channel=0 control=67 value=23 time=31
control_change channel=0 control=67 value=23 time=29
note_on channel=0 note=59 velocity=52 time=13
control_change channel=0 control=67 value=22 time=3
control_change channel=0 control=67 value=22 time=15
control_change channel=0 control=67 value=21 time=15
note_on channel=0 note=78 velocity=0 time=6
note_on channel=0 note=76 velocity=63 time=4
control_change channel=0 control=67 value=21 time=6
control_change channel=0 control=67 value=20 time=46
note_on channel=0 note=52 velocity=0 time=8
control_change channel=0 control=67 value=20 time=6
control_change channel=0 control=67 value=19 time=16
control_change channel=0 control=67 value=19 time=30
note_on channel=0 note=76 velocity=0 time=6
note_on channel=0 note=59 velocity=0 time=4
note_on channel=0 note=78 velocity=65 time=6
note_on channel=0 note=64 velocity=60 time=7
control_change channel=0 control=67 value=18 time=8
control_change channel=0 control=67 value=17 time=38
control_change channel=0 control=67 value=17 time=16
note_on channel=0 note=78 velocity=0 time=42
note_on channel=0 note=76 velocity=70 time=26
control_change channel=0 control=67 value=16 time=6
note_on channel=0 note=76 velocity=0 time=74
note_on channel=0 note=68 velocity=59 time=19
note_on channel=0 note=64 velocity=0 time=1
note_on channel=0 note=78 velocity=66 time=12
control_change channel=0 control=67 value=16 time=2
control_change channel=0 control=67 value=15 time=30
control_change channel=0 control=67 value=15 time=31
note_on channel=0 note=78 velocity=0 time=12
control_change channel=0 control=67 value=13 time=3
control_change channel=0 control=67 value=12 time=15
control_change channel=0 control=64 value=126 time=15
control_change channel=0 control=67 value=11 time=0
note_on channel=0 note=76 velocity=67 time=12
control_change channel=0 control=64 value=127 time=3
control_change channel=0 control=67 value=10 time=0
control_change channel=0 control=67 value=9 time=16
control_change channel=0 control=67 value=0 time=14
note_on channel=0 note=76 velocity=0 time=24
note_on channel=0 note=78 velocity=68 time=33
note_on channel=0 note=78 velocity=0 time=63
note_on channel=0 note=76 velocity=63 time=38
note_on channel=0 note=76 velocity=0 time=36
note_on channel=0 note=78 velocity=74 time=40
note_on channel=0 note=78 velocity=0 time=53
note_on channel=0 note=76 velocity=67 time=31
note_on channel=0 note=76 velocity=0 time=32
note_on channel=0 note=78 velocity=76 time=43
note_on channel=0 note=78 velocity=0 time=43
note_on channel=0 note=68 velocity=0 time=24
note_on channel=0 note=76 velocity=70 time=11
note_on channel=0 note=76 velocity=0 time=27
note_on channel=0 note=78 velocity=78 time=32
note_on channel=0 note=78 velocity=0 time=52
note_on channel=0 note=76 velocity=65 time=22
note_on channel=0 note=76 velocity=0 time=25
note_on channel=0 note=78 velocity=66 time=29
note_on channel=0 note=78 velocity=0 time=34
note_on channel=0 note=76 velocity=67 time=16
note_on channel=0 note=76 velocity=0 time=37
note_on channel=0 note=78 velocity=69 time=16
note_on channel=0 note=78 velocity=0 time=46
note_on channel=0 note=76 velocity=70 time=11
note_on channel=0 note=76 velocity=0 time=30
note_on channel=0 note=78 velocity=66 time=13
note_on channel=0 note=78 velocity=0 time=46
note_on channel=0 note=76 velocity=74 time=13
note_on channel=0 note=76 velocity=0 time=33
note_on channel=0 note=78 velocity=67 time=12
note_on channel=0 note=78 velocity=0 time=52
note_on channel=0 note=76 velocity=76 time=8
note_on channel=0 note=76 velocity=0 time=31
note_on channel=0 note=78 velocity=64 time=17
note_on channel=0 note=78 velocity=0 time=46
note_on channel=0 note=76 velocity=67 time=9
note_on channel=0 note=76 velocity=0 time=27
note_on channel=0 note=78 velocity=59 time=31
note_on channel=0 note=78 velocity=0 time=42
control_change channel=0 control=67 value=8 time=4
note_on channel=0 note=76 velocity=64 time=10
control_change channel=0 control=67 value=9 time=5
control_change channel=0 control=67 value=11 time=15
note_on channel=0 note=76 velocity=0 time=12
control_change channel=0 control=67 value=11 time=4
control_change channel=0 control=67 value=13 time=14
note_on channel=0 note=78 velocity=60 time=3
control_change channel=0 control=67 value=15 time=13
control_change channel=0 control=67 value=18 time=15
note_on channel=0 note=78 velocity=0 time=8
control_change channel=0 control=67 value=20 time=7
note_on channel=0 note=76 velocity=60 time=15
control_change channel=0 control=67 value=23 time=1
control_change channel=0 control=67 value=24 time=14
note_on channel=0 note=76 velocity=0 time=11
control_change channel=0 control=67 value=25 time=5
control_change channel=0 control=67 value=27 time=15
control_change channel=0 control=67 value=29 time=15
note_on channel=0 note=78 velocity=56 time=2
control_change channel=0 control=67 value=30 time=14
note_on channel=0 note=78 velocity=0 time=12
control_change channel=0 control=67 value=32 time=3
control_change channel=0 control=67 value=33 time=14
note_on channel=0 note=76 velocity=61 time=0
control_change channel=0 control=67 value=34 time=16
note_on channel=0 note=76 velocity=0 time=9
control_change channel=0 control=67 value=35 time=6
control_change channel=0 control=67 value=36 time=16
control_change channel=0 control=67 value=38 time=15
note_on channel=0 note=78 velocity=59 time=1
control_change channel=0 control=67 value=39 time=14
note_on channel=0 note=78 velocity=0 time=10
control_change channel=0 control=67 value=40 time=6
control_change channel=0 control=67 value=41 time=14
note_on channel=0 note=76 velocity=56 time=1
control_change channel=0 control=67 value=42 time=14
note_on channel=0 note=76 velocity=0 time=9
control_change channel=0 control=67 value=43 time=7
control_change channel=0 control=67 value=44 time=14
note_on channel=0 note=78 velocity=64 time=8
control_change channel=0 control=67 value=45 time=8
control_change channel=0 control=67 value=46 time=15
note_on channel=0 note=78 velocity=0 time=4
control_change channel=0 control=67 value=48 time=11
note_on channel=0 note=76 velocity=66 time=8
control_change channel=0 control=67 value=49 time=8
control_change channel=0 control=67 value=50 time=14
note_on channel=0 note=76 velocity=0 time=11
control_change channel=0 control=67 value=51 time=4
note_on channel=0 note=78 velocity=64 time=15
control_change channel=0 control=67 value=52 time=1
control_change channel=0 control=67 value=54 time=15
control_change channel=0 control=67 value=55 time=16
control_change channel=0 control=67 value=56 time=16
note_on channel=0 note=78 velocity=0 time=1
control_change channel=0 control=67 value=56 time=14
note_on channel=0 note=76 velocity=59 time=2
control_change channel=0 control=67 value=57 time=13
control_change channel=0 control=67 value=57 time=15
note_on channel=0 note=76 velocity=0 time=29
note_on channel=0 note=75 velocity=53 time=23
note_on channel=0 note=75 velocity=0 time=33
control_change channel=0 control=64 value=122 time=6
control_change channel=0 control=64 value=109 time=15
note_on channel=0 note=76 velocity=56 time=12
control_change channel=0 control=64 value=101 time=3
control_change channel=0 control=64 value=99 time=24
note_on channel=0 note=76 velocity=0 time=23
control_change channel=0 control=67 value=57 time=8
note_on channel=0 note=78 velocity=63 time=20
control_change channel=0 control=67 value=56 time=9
control_change channel=0 control=67 value=56 time=45
note_on channel=0 note=78 velocity=0 time=6
note_on channel=0 note=80 velocity=61 time=5
note_on channel=0 note=80 velocity=0 time=19
control_change channel=0 control=64 value=99 time=1
note_on channel=0 note=81 velocity=69 time=36
control_change channel=0 control=64 value=99 time=25
control_change channel=0 control=64 value=98 time=15
note_on channel=0 note=81 velocity=0 time=6
control_change channel=0 control=64 value=97 time=9
note_on channel=0 note=83 velocity=62 time=18
control_change channel=0 control=67 value=55 time=28
note_on channel=0 note=85 velocity=73 time=12
note_on channel=0 note=83 velocity=0 time=8
control_change channel=0 control=64 value=98 time=25
control_change channel=0 control=64 value=98 time=15
note_on channel=0 note=87 velocity=61 time=5
note_on channel=0 note=85 velocity=0 time=16
note_on channel=0 note=88 velocity=77 time=21
note_on channel=0 note=87 velocity=0 time=1
control_change channel=0 control=64 value=98 time=49
note_on channel=0 note=87 velocity=68 time=10
note_on channel=0 note=88 velocity=0 time=34
note_on channel=0 note=85 velocity=66 time=10
note_on channel=0 note=87 velocity=0 time=35
note_on channel=0 note=85 velocity=0 time=23
note_on channel=0 note=83 velocity=47 time=3
control_change channel=0 control=64 value=97 time=6
control_change channel=0 control=64 value=96 time=16
note_on channel=0 note=81 velocity=65 time=1
note_on channel=0 note=83 velocity=0 time=3
note_on channel=0 note=81 velocity=0 time=34
control_change channel=0 control=67 value=55 time=7
note_on channel=0 note=80 velocity=69 time=16
note_on channel=0 note=80 velocity=0 time=55
note_on channel=0 note=78 velocity=63 time=1
note_on channel=0 note=78 velocity=0 time=30
note_on channel=0 note=76 velocity=70 time=8
control_change channel=0 control=64 value=96 time=11
control_change channel=0 control=67 value=54 time=0
note_on channel=0 note=76 velocity=0 time=40
note_on channel=0 note=75 velocity=66 time=15
control_change channel=0 control=64 value=95 time=14
control_change channel=0 control=64 value=92 time=14
control_change channel=0 control=64 value=87 time=15
note_on channel=0 note=73 velocity=68 time=3
control_change channel=0 control=64 value=83 time=13
control_change channel=0 control=67 value=54 time=0
note_on channel=0 note=75 velocity=0 time=10
control_change channel=0 control=64 value=83 time=5
note_on channel=0 note=71 velocity=66 time=18
note_on channel=0 note=73 velocity=0 time=10
note_on channel=0 note=71 velocity=0 time=16
control_change channel=0 control=64 value=82 time=1
note_on channel=0 note=69 velocity=70 time=21
control_change channel=0 control=64 value=82 time=40
note_on channel=0 note=69 velocity=0 time=0
control_change channel=0 control=64 value=80 time=15
note_on channel=0 note=68 velocity=62 time=7
control_change channel=0 control=64 value=79 time=9
control_change channel=0 control=67 value=54 time=15
note_on channel=0 note=68 velocity=0 time=8
note_on channel=0 note=66 velocity=71 time=17
control_change channel=0 control=64 value=78 time=6
control_change channel=0 control=64 value=75 time=15
note_on channel=0 note=66 velocity=0 time=8
control_change channel=0 control=64 value=72 time=7
note_on channel=0 note=64 velocity=66 time=13
control_change channel=0 control=64 value=70 time=2
control_change channel=0 control=64 value=71 time=15
note_on channel=0 note=64 velocity=0 time=34
note_on channel=0 note=63 velocity=68 time=9
control_change channel=0 control=64 value=70 time=2
control_change channel=0 control=64 value=70 time=16
control_change channel=0 control=64 value=69 time=15
note_on channel=0 note=61 velocity=65 time=13
control_change channel=0 control=64 value=68 time=3
control_change channel=0 control=64 value=65 time=15
control_change channel=0 control=67 value=55 time=0
note_on channel=0 note=63 velocity=0 time=13
control_change channel=0 control=64 value=61 time=1
note_on channel=0 note=59 velocity=64 time=18
note_on channel=0 note=61 velocity=0 time=7
control_change channel=0 control=64 value=62 time=6
control_change channel=0 control=64 value=63 time=14
note_on channel=0 note=59 velocity=0 time=0
note_on channel=0 note=57 velocity=67 time=15
note_on channel=0 note=57 velocity=0 time=58
note_on channel=0 note=56 velocity=65 time=13
control_change channel=0 control=64 value=62 time=6
control_change channel=0 control=64 value=60 time=15
control_change channel=0 control=64 value=59 time=16
control_change channel=0 control=67 value=55 time=0
note_on channel=0 note=56 velocity=0 time=12
note_on channel=0 note=54 velocity=61 time=5
control_change channel=0 control=64 value=60 time=13
control_change channel=0 control=64 value=61 time=16
control_change channel=0 control=67 value=56 time=0
note_on channel=0 note=54 velocity=0 time=12
control_change channel=0 control=64 value=61 time=4
control_change channel=0 control=67 value=56 time=0
note_on channel=0 note=52 velocity=62 time=10
control_change channel=0 control=64 value=59 time=5
control_change channel=0 control=67 value=57 time=0
control_change channel=0 control=67 value=57 time=31
control_change channel=0 control=64 value=60 time=16
control_change channel=0 control=67 value=58 time=0
note_on channel=0 note=52 velocity=0 time=16
control_change channel=0 control=67 value=58 time=6
note_on channel=0 note=51 velocity=58 time=3
control_change channel=0 control=64 value=58 time=13
control_change channel=0 control=67 value=59 time=0
control_change channel=0 control=64 value=55 time=15
control_change channel=0 control=67 value=59 time=0
control_change channel=0 control=64 value=55 time=14
control_change channel=0 control=67 value=60 time=0
note_on channel=0 note=49 velocity=62 time=4
control_change channel=0 control=67 value=63 time=12
control_change channel=0 control=67 value=67 time=15
note_on channel=0 note=51 velocity=0 time=0
control_change channel=0 control=64 value=54 time=15
control_change channel=0 control=67 value=70 time=0
note_on channel=0 note=49 velocity=0 time=13
control_change channel=0 control=64 value=51 time=3
control_change channel=0 control=67 value=72 time=0
note_on channel=0 note=47 velocity=57 time=2
control_change channel=0 control=64 value=49 time=12
control_change channel=0 control=67 value=73 time=0
control_change channel=0 control=64 value=49 time=16
control_change channel=0 control=67 value=75 time=0
note_on channel=0 note=47 velocity=0 time=12
control_change channel=0 control=67 value=77 time=3
control_change channel=0 control=64 value=48 time=14
control_change channel=0 control=67 value=80 time=0
note_on channel=0 note=45 velocity=60 time=2
control_change channel=0 control=64 value=47 time=14
control_change channel=0 control=67 value=82 time=0
control_change channel=0 control=67 value=84 time=15
control_change channel=0 control=64 value=46 time=15
control_change channel=0 control=67 value=85 time=0
control_change channel=0 control=67 value=86 time=16
note_on channel=0 note=45 velocity=0 time=1
control_change channel=0 control=64 value=45 time=13
control_change channel=0 control=67 value=87 time=0
note_on channel=0 note=44 velocity=53 time=5
control_change channel=0 control=64 value=45 time=11
control_change channel=0 control=67 value=88 time=0
control_change channel=0 control=67 value=88 time=15
control_change channel=0 control=64 value=44 time=15
control_change channel=0 control=67 value=89 time=0
control_change channel=0 control=64 value=44 time=16
control_change channel=0 control=67 value=91 time=0
control_change channel=0 control=64 value=43 time=15
control_change channel=0 control=67 value=93 time=0
note_on channel=0 note=44 velocity=0 time=2
control_change channel=0 control=67 value=94 time=13
note_on channel=0 note=42 velocity=47 time=6
control_change channel=0 control=67 value=96 time=9
control_change channel=0 control=67 value=98 time=15
control_change channel=0 control=67 value=100 time=12
control_change channel=0 control=67 value=101 time=16
control_change channel=0 control=64 value=43 time=11
control_change channel=0 control=67 value=102 time=0
control_change channel=0 control=67 value=103 time=15
control_change channel=0 control=64 value=42 time=15
control_change channel=0 control=67 value=104 time=0
control_change channel=0 control=67 value=106 time=16
control_change channel=0 control=64 value=42 time=15
control_change channel=0 control=67 value=107 time=0
note_on channel=0 note=42 velocity=0 time=3
control_change channel=0 control=64 value=41 time=13
control_change channel=0 control=67 value=108 time=0
note_on channel=0 note=40 velocity=32 time=5
control_change channel=0 control=64 value=40 time=10
control_change channel=0 control=67 value=108 time=0
control_change channel=0 control=64 value=32 time=15
control_change channel=0 control=67 value=109 time=0
control_change channel=0 control=64 value=0 time=15
control_change channel=0 control=67 value=109 time=0
control_change channel=0 control=67 value=109 time=236
control_change channel=0 control=67 value=108 time=15
control_change channel=0 control=64 value=36 time=31
control_change channel=0 control=67 value=108 time=0
control_change channel=0 control=64 value=52 time=15
control_change channel=0 control=67 value=107 time=0
control_change channel=0 control=64 value=60 time=16
control_change channel=0 control=64 value=63 time=14
control_change channel=0 control=67 value=107 time=0
control_change channel=0 control=64 value=65 time=15
control_change channel=0 control=64 value=66 time=16
control_change channel=0 control=64 value=68 time=15
control_change channel=0 control=67 value=106 time=0
control_change channel=0 control=64 value=69 time=15
control_change channel=0 control=64 value=70 time=16
control_change channel=0 control=64 value=72 time=15
control_change channel=0 control=64 value=73 time=15
control_change channel=0 control=64 value=74 time=15
control_change channel=0 control=67 value=106 time=0
control_change channel=0 control=64 value=76 time=15
control_change channel=0 control=64 value=78 time=16
control_change channel=0 control=64 value=79 time=14
control_change channel=0 control=64 value=80 time=61
note_on channel=0 note=40 velocity=0 time=84
control_change channel=0 control=64 value=79 time=22
control_change channel=0 control=64 value=79 time=61
control_change channel=0 control=64 value=78 time=31
control_change channel=0 control=64 value=78 time=182
control_change channel=0 control=64 value=77 time=30
control_change channel=0 control=64 value=76 time=70
control_change channel=0 control=64 value=76 time=15
control_change channel=0 control=64 value=75 time=15
control_change channel=0 control=64 value=73 time=15
control_change channel=0 control=64 value=71 time=15
control_change channel=0 control=64 value=68 time=16
control_change channel=0 control=64 value=66 time=14
control_change channel=0 control=64 value=66 time=15
control_change channel=0 control=64 value=65 time=16
control_change channel=0 control=64 value=64 time=15
control_change channel=0 control=64 value=62 time=15
control_change channel=0 control=64 value=60 time=16
control_change channel=0 control=64 value=58 time=15
control_change channel=0 control=64 value=55 time=16
control_change channel=0 control=64 value=49 time=15
control_change channel=0 control=64 value=40 time=15
control_change channel=0 control=64 value=33 time=15
control_change channel=0 control=64 value=24 time=15
control_change channel=0 control=64 value=0 time=15
control_change channel=0 control=67 value=105 time=571
control_change channel=0 control=67 value=105 time=121
control_change channel=0 control=67 value=104 time=46
control_change channel=0 control=67 value=104 time=15
control_change channel=0 control=67 value=103 time=30
control_change channel=0 control=67 value=102 time=15
control_change channel=0 control=67 value=101 time=16
control_change channel=0 control=67 value=101 time=15
control_change channel=0 control=67 value=100 time=31
control_change channel=0 control=67 value=100 time=14
control_change channel=0 control=67 value=99 time=16
control_change channel=0 control=67 value=97 time=15
control_change channel=0 control=67 value=96 time=15
control_change channel=0 control=67 value=93 time=16
control_change channel=0 control=67 value=88 time=14
control_change channel=0 control=64 value=21 time=16
control_change channel=0 control=67 value=81 time=0
control_change channel=0 control=64 value=39 time=15
control_change channel=0 control=67 value=72 time=0
control_change channel=0 control=64 value=50 time=14
control_change channel=0 control=67 value=58 time=0
control_change channel=0 control=64 value=56 time=16
control_change channel=0 control=67 value=45 time=0
control_change channel=0 control=64 value=61 time=15
control_change channel=0 control=67 value=32 time=0
control_change channel=0 control=64 value=64 time=16
control_change channel=0 control=67 value=19 time=0
control_change channel=0 control=64 value=65 time=15
control_change channel=0 control=67 value=0 time=0
control_change channel=0 control=64 value=67 time=14
control_change channel=0 control=64 value=69 time=16
control_change channel=0 control=64 value=71 time=15
control_change channel=0 control=64 value=74 time=15
control_change channel=0 control=64 value=76 time=16
control_change channel=0 control=64 value=80 time=14
control_change channel=0 control=64 value=83 time=16
control_change channel=0 control=64 value=86 time=15
control_change channel=0 control=64 value=90 time=15
control_change channel=0 control=64 value=93 time=16
control_change channel=0 control=64 value=96 time=22
control_change channel=0 control=64 value=100 time=16
control_change channel=0 control=64 value=104 time=15
control_change channel=0 control=64 value=108 time=14
note_on channel=0 note=76 velocity=86 time=9
control_change channel=0 control=64 value=112 time=7
note_on channel=0 note=52 velocity=53 time=5
note_on channel=0 note=64 velocity=69 time=6
control_change channel=0 control=64 value=118 time=4
control_change channel=0 control=64 value=127 time=16
note_on channel=0 note=64 velocity=0 time=361
note_on channel=0 note=74 velocity=87 time=210
note_on channel=0 note=50 velocity=59 time=11
note_on channel=0 note=62 velocity=63 time=6
note_on channel=0 note=52 velocity=0 time=25
note_on channel=0 note=76 velocity=0 time=9
control_change channel=0 control=64 value=109 time=59
control_change channel=0 control=64 value=92 time=15
control_change channel=0 control=64 value=81 time=16
control_change channel=0 control=64 value=72 time=14
control_change channel=0 control=64 value=62 time=15
control_change channel=0 control=64 value=24 time=16
control_change channel=0 control=64 value=21 time=15
control_change channel=0 control=64 value=36 time=16
control_change channel=0 control=64 value=46 time=14
control_change channel=0 control=64 value=53 time=15
control_change channel=0 control=64 value=57 time=16
control_change channel=0 control=64 value=60 time=16
control_change channel=0 control=64 value=64 time=16
control_change channel=0 control=64 value=66 time=15
control_change channel=0 control=64 value=69 time=15
control_change channel=0 control=64 value=71 time=15
control_change channel=0 control=64 value=73 time=15
control_change channel=0 control=64 value=76 time=15
control_change channel=0 control=64 value=80 time=15
control_change channel=0 control=64 value=83 time=15
control_change channel=0 control=64 value=85 time=16
control_change channel=0 control=64 value=89 time=15
control_change channel=0 control=64 value=93 time=15
control_change channel=0 control=64 value=97 time=15
control_change channel=0 control=64 value=102 time=15
control_change channel=0 control=64 value=107 time=15
control_change channel=0 control=64 value=114 time=16
control_change channel=0 control=64 value=127 time=14
note_on channel=0 note=62 velocity=0 time=19
note_on channel=0 note=74 velocity=0 time=45
control_change channel=0 control=64 value=107 time=385
note_on channel=0 note=67 velocity=79 time=1
note_on channel=0 note=55 velocity=66 time=13
control_change channel=0 control=64 value=93 time=2
note_on channel=0 note=43 velocity=58 time=0
control_change channel=0 control=64 value=79 time=14
control_change channel=0 control=64 value=66 time=16
control_change channel=0 control=64 value=59 time=15
control_change channel=0 control=64 value=63 time=15
control_change channel=0 control=64 value=64 time=16
note_on channel=0 note=50 velocity=0 time=13
control_change channel=0 control=64 value=65 time=1
control_change channel=0 control=64 value=67 time=15
control_change channel=0 control=64 value=71 time=17
control_change channel=0 control=64 value=74 time=15
control_change channel=0 control=64 value=77 time=16
control_change channel=0 control=64 value=81 time=14
control_change channel=0 control=64 value=84 time=15
control_change channel=0 control=64 value=88 time=16
control_change channel=0 control=64 value=93 time=15
control_change channel=0 control=64 value=98 time=16
control_change channel=0 control=64 value=103 time=14
control_change channel=0 control=64 value=111 time=15
control_change channel=0 control=64 value=124 time=16
control_change channel=0 control=64 value=127 time=15
note_on channel=0 note=55 velocity=0 time=76
control_change channel=0 control=64 value=106 time=136
note_on channel=0 note=69 velocity=80 time=4
note_on channel=0 note=45 velocity=62 time=11
control_change channel=0 control=64 value=88 time=1
note_on channel=0 note=57 velocity=61 time=1
note_on channel=0 note=43 velocity=0 time=11
control_change channel=0 control=64 value=72 time=3
note_on channel=0 note=67 velocity=0 time=9
control_change channel=0 control=64 value=53 time=6
control_change channel=0 control=64 value=54 time=16
control_change channel=0 control=64 value=60 time=14
control_change channel=0 control=64 value=62 time=16
control_change channel=0 control=64 value=64 time=15
control_change channel=0 control=64 value=66 time=15
control_change channel=0 control=64 value=69 time=16
control_change channel=0 control=64 value=72 time=21
control_change channel=0 control=64 value=75 time=16
control_change channel=0 control=64 value=77 time=15
control_change channel=0 control=64 value=80 time=15
control_change channel=0 control=64 value=84 time=16
control_change channel=0 control=64 value=88 time=15
control_change channel=0 control=64 value=93 time=16
control_change channel=0 control=64 value=95 time=15
control_change channel=0 control=64 value=98 time=14
control_change channel=0 control=64 value=103 time=16
control_change channel=0 control=64 value=110 time=15
control_change channel=0 control=64 value=116 time=16
note_on channel=0 note=57 velocity=0 time=0
note_on channel=0 note=69 velocity=0 time=2
control_change channel=0 control=64 value=127 time=13
control_change channel=0 control=64 value=117 time=305
note_on channel=0 note=62 velocity=70 time=13
control_change channel=0 control=64 value=109 time=1
note_on channel=0 note=38 velocity=50 time=10
control_change channel=0 control=64 value=101 time=5
note_on channel=0 note=50 velocity=49 time=4
control_change channel=0 control=64 value=94 time=12
control_change channel=0 control=64 value=88 time=14
note_on channel=0 note=45 velocity=0 time=7
control_change channel=0 control=64 value=83 time=8
control_change channel=0 control=64 value=78 time=16
control_change channel=0 control=64 value=72 time=15
control_change channel=0 control=64 value=67 time=16
control_change channel=0 control=64 value=64 time=15
control_change channel=0 control=64 value=63 time=15
control_change channel=0 control=64 value=61 time=16
control_change channel=0 control=67 value=8 time=0
control_change channel=0 control=64 value=47 time=15
control_change channel=0 control=67 value=9 time=0
control_change channel=0 control=64 value=0 time=15
control_change channel=0 control=67 value=9 time=0
control_change channel=0 control=67 value=10 time=16
control_change channel=0 control=67 value=11 time=14
control_change channel=0 control=67 value=11 time=16
control_change channel=0 control=67 value=12 time=15
control_change channel=0 control=67 value=13 time=23
control_change channel=0 control=67 value=14 time=15
control_change channel=0 control=67 value=15 time=15
control_change channel=0 control=67 value=16 time=16
control_change channel=0 control=67 value=17 time=15
control_change channel=0 control=67 value=19 time=14
control_change channel=0 control=67 value=20 time=16
control_change channel=0 control=67 value=21 time=15
control_change channel=0 control=67 value=23 time=15
control_change channel=0 control=67 value=24 time=15
control_change channel=0 control=67 value=25 time=15
control_change channel=0 control=67 value=25 time=16
control_change channel=0 control=67 value=26 time=15
control_change channel=0 control=67 value=27 time=14
control_change channel=0 control=67 value=27 time=16
control_change channel=0 control=67 value=28 time=31
control_change channel=0 control=67 value=28 time=15
control_change channel=0 control=67 value=29 time=15
control_change channel=0 control=67 value=29 time=16
control_change channel=0 control=64 value=34 time=15
control_change channel=0 control=67 value=30 time=0
control_change channel=0 control=64 value=49 time=15
control_change channel=0 control=67 value=32 time=0
control_change channel=0 control=64 value=58 time=16
control_change channel=0 control=67 value=33 time=0
control_change channel=0 control=64 value=63 time=15
control_change channel=0 control=67 value=36 time=0
control_change channel=0 control=64 value=64 time=16
control_change channel=0 control=67 value=38 time=0
control_change channel=0 control=64 value=66 time=14
control_change channel=0 control=67 value=41 time=0
control_change channel=0 control=64 value=68 time=15
control_change channel=0 control=67 value=43 time=0
control_change channel=0 control=64 value=69 time=16
control_change channel=0 control=67 value=45 time=0
control_change channel=0 control=64 value=70 time=15
control_change channel=0 control=67 value=47 time=0
control_change channel=0 control=64 value=71 time=16
control_change channel=0 control=67 value=48 time=0
control_change channel=0 control=64 value=73 time=15
control_change channel=0 control=67 value=50 time=0
control_change channel=0 control=64 value=75 time=14
control_change channel=0 control=67 value=51 time=0
control_change channel=0 control=64 value=77 time=16
control_change channel=0 control=67 value=53 time=0
control_change channel=0 control=64 value=79 time=15
control_change channel=0 control=67 value=54 time=0
control_change channel=0 control=64 value=81 time=15
control_change channel=0 control=67 value=56 time=0
control_change channel=0 control=64 value=82 time=16
control_change channel=0 control=67 value=58 time=0
control_change channel=0 control=64 value=84 time=15
control_change channel=0 control=67 value=60 time=0
control_change channel=0 control=64 value=86 time=15
control_change channel=0 control=67 value=63 time=0
control_change channel=0 control=64 value=88 time=15
control_change channel=0 control=67 value=66 time=0
control_change channel=0 control=64 value=90 time=15
control_change channel=0 control=67 value=70 time=0
control_change channel=0 control=64 value=92 time=16
control_change channel=0 control=67 value=73 time=0
control_change channel=0 control=64 value=95 time=15
control_change channel=0 control=67 value=77 time=0
control_change channel=0 control=64 value=97 time=15
control_change channel=0 control=67 value=80 time=0
control_change channel=0 control=64 value=99 time=15
control_change channel=0 control=67 value=84 time=0
control_change channel=0 control=64 value=102 time=15
control_change channel=0 control=67 value=88 time=0
control_change channel=0 control=64 value=105 time=16
control_change channel=0 control=67 value=92 time=0
control_change channel=0 control=64 value=107 time=14
control_change channel=0 control=67 value=96 time=0
control_change channel=0 control=64 value=110 time=15
control_change channel=0 control=67 value=100 time=0
control_change channel=0 control=64 value=113 time=16
control_change channel=0 control=67 value=104 time=0
control_change channel=0 control=64 value=115 time=15
control_change channel=0 control=67 value=109 time=0
control_change channel=0 control=64 value=117 time=23
control_change channel=0 control=67 value=113 time=0
control_change channel=0 control=67 value=118 time=15
control_change channel=0 control=67 value=123 time=16
control_change channel=0 control=67 value=127 time=15
note_on channel=0 note=50 velocity=0 time=96
note_on channel=0 note=62 velocity=0 time=235
control_change channel=0 control=64 value=117 time=201
control_change channel=0 control=64 value=116 time=31
control_change channel=0 control=64 value=116 time=15
control_change channel=0 control=64 value=114 time=14
control_change channel=0 control=64 value=113 time=15
control_change channel=0 control=64 value=113 time=15
control_change channel=0 control=64 value=112 time=16
control_change channel=0 control=64 value=111 time=15
control_change channel=0 control=64 value=111 time=15
control_change channel=0 control=64 value=110 time=15
control_change channel=0 control=64 value=109 time=15
control_change channel=0 control=64 value=108 time=24
control_change channel=0 control=64 value=108 time=15
control_change channel=0 control=64 value=107 time=15
control_change channel=0 control=64 value=106 time=15
control_change channel=0 control=64 value=106 time=15
control_change channel=0 control=64 value=105 time=15
control_change channel=0 control=64 value=103 time=15
control_change channel=0 control=64 value=102 time=16
control_change channel=0 control=64 value=101 time=15
control_change channel=0 control=64 value=100 time=15
control_change channel=0 control=64 value=98 time=15
control_change channel=0 control=64 value=97 time=15
control_change channel=0 control=64 value=95 time=15
control_change channel=0 control=64 value=92 time=16
control_change channel=0 control=64 value=89 time=15
control_change channel=0 control=64 value=86 time=15
control_change channel=0 control=64 value=84 time=15
control_change channel=0 control=64 value=81 time=15
control_change channel=0 control=64 value=77 time=16
note_on channel=0 note=40 velocity=35 time=7
control_change channel=0 control=64 value=73 time=7
note_on channel=0 note=64 velocity=44 time=0
control_change channel=0 control=64 value=66 time=16
control_change channel=0 control=64 value=58 time=15
note_on channel=0 note=38 velocity=0 time=13
control_change channel=0 control=64 value=40 time=2
control_change channel=0 control=64 value=28 time=16
control_change channel=0 control=64 value=30 time=45
control_change channel=0 control=64 value=34 time=15
control_change channel=0 control=64 value=38 time=17
control_change channel=0 control=64 value=43 time=15
control_change channel=0 control=64 value=47 time=14
control_change channel=0 control=64 value=49 time=16
control_change channel=0 control=64 value=51 time=15
control_change channel=0 control=64 value=54 time=15
control_change channel=0 control=64 value=57 time=16
control_change channel=0 control=64 value=61 time=15
control_change channel=0 control=64 value=63 time=15
control_change channel=0 control=64 value=65 time=15
control_change channel=0 control=64 value=66 time=15
control_change channel=0 control=64 value=67 time=16
control_change channel=0 control=64 value=69 time=15
control_change channel=0 control=64 value=70 time=16
control_change channel=0 control=64 value=72 time=15
control_change channel=0 control=64 value=73 time=14
control_change channel=0 control=64 value=75 time=16
control_change channel=0 control=64 value=77 time=15
control_change channel=0 control=64 value=79 time=15
control_change channel=0 control=64 value=80 time=15
control_change channel=0 control=64 value=82 time=15
control_change channel=0 control=64 value=82 time=16
control_change channel=0 control=64 value=83 time=22
control_change channel=0 control=64 value=82 time=76
control_change channel=0 control=64 value=82 time=46
control_change channel=0 control=64 value=81 time=16
control_change channel=0 control=64 value=81 time=14
control_change channel=0 control=64 value=80 time=15
control_change channel=0 control=64 value=79 time=16
note_on channel=0 note=64 velocity=0 time=4
control_change channel=0 control=64 value=78 time=11
note_on channel=0 note=38 velocity=35 time=9
control_change channel=0 control=64 value=76 time=6
note_on channel=0 note=62 velocity=42 time=5
control_change channel=0 control=64 value=74 time=10
note_on channel=0 note=40 velocity=0 time=12
control_change channel=0 control=64 value=72 time=3
control_change channel=0 control=64 value=69 time=16
control_change channel=0 control=64 value=66 time=14
control_change channel=0 control=64 value=63 time=15
control_change channel=0 control=64 value=56 time=16
control_change channel=0 control=64 value=44 time=15
control_change channel=0 control=64 value=32 time=15
control_change channel=0 control=64 value=30 time=15
control_change channel=0 control=64 value=34 time=61
control_change channel=0 control=64 value=41 time=15
control_change channel=0 control=64 value=47 time=15
control_change channel=0 control=64 value=52 time=16
control_change channel=0 control=64 value=56 time=15
control_change channel=0 control=64 value=60 time=16
control_change channel=0 control=64 value=63 time=16
control_change channel=0 control=64 value=66 time=15
control_change channel=0 control=64 value=70 time=14
control_change channel=0 control=64 value=73 time=16
control_change channel=0 control=64 value=76 time=15
control_change channel=0 control=64 value=78 time=15
control_change channel=0 control=64 value=81 time=15
control_change channel=0 control=64 value=86 time=15
control_change channel=0 control=64 value=91 time=16
control_change channel=0 control=64 value=94 time=16
control_change channel=0 control=64 value=96 time=14
control_change channel=0 control=64 value=98 time=16
control_change channel=0 control=64 value=103 time=15
control_change channel=0 control=64 value=105 time=16
control_change channel=0 control=64 value=107 time=15
control_change channel=0 control=64 value=108 time=14
control_change channel=0 control=64 value=110 time=16
control_change channel=0 control=64 value=114 time=23
control_change channel=0 control=64 value=116 time=16
control_change channel=0 control=64 value=118 time=14
control_change channel=0 control=64 value=118 time=46
control_change channel=0 control=64 value=118 time=61
control_change channel=0 control=64 value=117 time=243
control_change channel=0 control=64 value=117 time=15
control_change channel=0 control=64 value=115 time=16
control_change channel=0 control=64 value=113 time=14
control_change channel=0 control=64 value=110 time=15
control_change channel=0 control=64 value=109 time=16
control_change channel=0 control=64 value=107 time=15
control_change channel=0 control=64 value=106 time=16
control_change channel=0 control=64 value=104 time=14
control_change channel=0 control=64 value=102 time=15
control_change channel=0 control=64 value=99 time=17
control_change channel=0 control=64 value=96 time=15
control_change channel=0 control=64 value=92 time=15
control_change channel=0 control=64 value=89 time=15
control_change channel=0 control=64 value=85 time=15
note_on channel=0 note=55 velocity=43 time=10
control_change channel=0 control=64 value=80 time=8
note_on channel=0 note=31 velocity=40 time=13
control_change channel=0 control=64 value=74 time=2
control_change channel=0 control=64 value=68 time=16
control_change channel=0 control=64 value=64 time=14
note_on channel=0 note=38 velocity=0 time=2
note_on channel=0 note=62 velocity=0 time=19
control_change channel=0 control=64 value=64 time=10
control_change channel=0 control=64 value=65 time=30
control_change channel=0 control=64 value=65 time=15
control_change channel=0 control=64 value=66 time=15
control_change channel=0 control=64 value=67 time=24
control_change channel=0 control=64 value=68 time=15
control_change channel=0 control=64 value=70 time=15
control_change channel=0 control=64 value=71 time=15
control_change channel=0 control=64 value=73 time=15
control_change channel=0 control=64 value=75 time=16
control_change channel=0 control=64 value=76 time=15
control_change channel=0 control=64 value=78 time=14
control_change channel=0 control=64 value=80 time=16
control_change channel=0 control=64 value=82 time=15
control_change channel=0 control=64 value=85 time=16
control_change channel=0 control=64 value=87 time=15
control_change channel=0 control=64 value=89 time=14
control_change channel=0 control=64 value=91 time=16
control_change channel=0 control=64 value=92 time=15
note_on channel=0 note=55 velocity=0 time=108
control_change channel=0 control=64 value=91 time=29
control_change channel=0 control=64 value=91 time=15
control_change channel=0 control=64 value=90 time=15
control_change channel=0 control=64 value=90 time=16
control_change channel=0 control=64 value=89 time=15
control_change channel=0 control=64 value=88 time=14
control_change channel=0 control=64 value=87 time=16
control_change channel=0 control=64 value=84 time=15
note_on channel=0 note=31 velocity=0 time=12
control_change channel=0 control=64 value=82 time=4
note_on channel=0 note=57 velocity=42 time=3
note_on channel=0 note=33 velocity=41 time=7
control_change channel=0 control=64 value=78 time=5
control_change channel=0 control=64 value=73 time=14
control_change channel=0 control=64 value=66 time=16
control_change channel=0 control=64 value=61 time=15
control_change channel=0 control=64 value=62 time=30
control_change channel=0 control=64 value=62 time=17
control_change channel=0 control=64 value=63 time=16
control_change channel=0 control=64 value=63 time=14
control_change channel=0 control=64 value=64 time=15
control_change channel=0 control=64 value=64 time=16
control_change channel=0 control=64 value=65 time=14
control_change channel=0 control=64 value=66 time=16
control_change channel=0 control=64 value=67 time=15
control_change channel=0 control=64 value=68 time=15
control_change channel=0 control=64 value=69 time=16
control_change channel=0 control=64 value=71 time=14
control_change channel=0 control=64 value=72 time=15
control_change channel=0 control=64 value=74 time=24
control_change channel=0 control=64 value=75 time=15
control_change channel=0 control=64 value=77 time=15
control_change channel=0 control=64 value=78 time=15
control_change channel=0 control=64 value=79 time=16
control_change channel=0 control=64 value=81 time=15
control_change channel=0 control=64 value=83 time=15
control_change channel=0 control=64 value=85 time=15
control_change channel=0 control=64 value=86 time=15
control_change channel=0 control=64 value=88 time=15
control_change channel=0 control=64 value=89 time=16
control_change channel=0 control=64 value=90 time=15
control_change channel=0 control=64 value=91 time=15
control_change channel=0 control=64 value=91 time=30
note_on channel=0 note=57 velocity=0 time=95
control_change channel=0 control=64 value=91 time=133
note_on channel=0 note=33 velocity=0 time=78
control_change channel=0 control=64 value=90 time=44
control_change channel=0 control=64 value=90 time=14
control_change channel=0 control=64 value=89 time=16
control_change channel=0 control=64 value=89 time=15
control_change channel=0 control=64 value=88 time=16
control_change channel=0 control=64 value=87 time=15
note_on channel=0 note=50 velocity=44 time=2
note_on channel=0 note=38 velocity=30 time=7
note_on channel=0 note=26 velocity=35 time=4
control_change channel=0 control=64 value=86 time=1
control_change channel=0 control=64 value=84 time=16
control_change channel=0 control=64 value=81 time=15
control_change channel=0 control=64 value=78 time=15
control_change channel=0 control=64 value=75 time=16
control_change channel=0 control=64 value=71 time=14
control_change channel=0 control=64 value=66 time=16
control_change channel=0 control=64 value=63 time=23
control_change channel=0 control=64 value=61 time=16
control_change channel=0 control=64 value=57 time=15
control_change channel=0 control=64 value=40 time=14
control_change channel=0 control=64 value=0 time=16
control_change channel=0 control=64 value=21 time=546
control_change channel=0 control=64 value=31 time=16
control_change channel=0 control=64 value=41 time=13
control_change channel=0 control=64 value=48 time=15
control_change channel=0 control=64 value=53 time=16
control_change channel=0 control=64 value=57 time=16
control_change channel=0 control=64 value=59 time=16
control_change channel=0 control=64 value=61 time=15
control_change channel=0 control=64 value=62 time=14
control_change channel=0 control=64 value=63 time=16
control_change channel=0 control=64 value=64 time=23
control_change channel=0 control=64 value=64 time=16
control_change channel=0 control=64 value=65 time=15
control_change channel=0 control=64 value=66 time=14
control_change channel=0 control=64 value=67 time=16
control_change channel=0 control=64 value=68 time=15
control_change channel=0 control=64 value=69 time=16
control_change channel=0 control=64 value=70 time=15
control_change channel=0 control=64 value=71 time=14
control_change channel=0 control=64 value=72 time=16
control_change channel=0 control=64 value=73 time=15
control_change channel=0 control=64 value=74 time=16
control_change channel=0 control=64 value=76 time=14
control_change channel=0 control=64 value=78 time=15
control_change channel=0 control=64 value=81 time=16
control_change channel=0 control=64 value=84 time=15
control_change channel=0 control=64 value=87 time=15
control_change channel=0 control=64 value=90 time=15
control_change channel=0 control=64 value=94 time=15
control_change channel=0 control=64 value=98 time=16
control_change channel=0 control=64 value=100 time=15
control_change channel=0 control=64 value=102 time=14
control_change channel=0 control=64 value=103 time=16
control_change channel=0 control=64 value=106 time=15
control_change channel=0 control=64 value=112 time=15
control_change channel=0 control=64 value=127 time=16
note_on channel=0 note=50 velocity=0 time=322
control_change channel=0 control=67 value=127 time=97
control_change channel=0 control=67 value=125 time=15
control_change channel=0 control=67 value=123 time=15
control_change channel=0 control=67 value=121 time=15
control_change channel=0 control=67 value=119 time=16
control_change channel=0 control=67 value=117 time=15
control_change channel=0 control=67 value=114 time=16
control_change channel=0 control=67 value=112 time=14
control_change channel=0 control=67 value=110 time=15
control_change channel=0 control=67 value=107 time=16
control_change channel=0 control=67 value=105 time=15
control_change channel=0 control=67 value=103 time=15
control_change channel=0 control=67 value=100 time=16
control_change channel=0 control=67 value=97 time=15
control_change channel=0 control=67 value=95 time=16
control_change channel=0 control=67 value=93 time=14
control_change channel=0 control=67 value=90 time=15
control_change channel=0 control=67 value=86 time=16
control_change channel=0 control=67 value=82 time=15
control_change channel=0 control=67 value=79 time=16
control_change channel=0 control=67 value=76 time=14
control_change channel=0 control=67 value=73 time=15
control_change channel=0 control=67 value=70 time=16
control_change channel=0 control=67 value=67 time=14
control_change channel=0 control=67 value=65 time=15
control_change channel=0 control=67 value=63 time=16
control_change channel=0 control=67 value=60 time=15
control_change channel=0 control=67 value=58 time=16
note_on channel=0 note=26 velocity=0 time=9
control_change channel=0 control=67 value=54 time=5
control_change channel=0 control=67 value=51 time=15
control_change channel=0 control=67 value=48 time=16
control_change channel=0 control=67 value=46 time=15
note_on channel=0 note=38 velocity=0 time=9
control_change channel=0 control=67 value=44 time=6
control_change channel=0 control=67 value=41 time=15
control_change channel=0 control=67 value=38 time=15
control_change channel=0 control=67 value=35 time=16
control_change channel=0 control=67 value=33 time=15
control_change channel=0 control=67 value=32 time=15
control_change channel=0 control=67 value=31 time=15
control_change channel=0 control=67 value=30 time=15
control_change channel=0 control=67 value=30 time=15
note_on channel=0 note=62 velocity=28 time=105
note_on channel=0 note=59 velocity=23 time=26
control_change channel=0 control=67 value=32 time=44
control_change channel=0 control=67 value=33 time=15
control_change channel=0 control=67 value=35 time=16
control_change channel=0 control=67 value=36 time=15
control_change channel=0 control=67 value=37 time=15
control_change channel=0 control=67 value=39 time=16
control_change channel=0 control=67 value=40 time=15
control_change channel=0 control=67 value=40 time=16
control_change channel=0 control=67 value=41 time=14
control_change channel=0 control=67 value=42 time=15
control_change channel=0 control=67 value=42 time=16
note_on channel=0 note=67 velocity=46 time=110
control_change channel=0 control=67 value=42 time=26
note_on channel=0 note=62 velocity=0 time=16
control_change channel=0 control=67 value=41 time=15
note_on channel=0 note=59 velocity=0 time=25
control_change channel=0 control=64 value=117 time=187
control_change channel=0 control=64 value=111 time=16
control_change channel=0 control=64 value=105 time=15
control_change channel=0 control=64 value=101 time=15
control_change channel=0 control=64 value=98 time=15
control_change channel=0 control=64 value=95 time=15
control_change channel=0 control=64 value=90 time=15
note_on channel=0 note=60 velocity=39 time=7
control_change channel=0 control=64 value=83 time=9
note_on channel=0 note=26 velocity=28 time=1
note_on channel=0 note=57 velocity=33 time=6
note_on channel=0 note=38 velocity=26 time=1
control_change channel=0 control=64 value=74 time=7
control_change channel=0 control=64 value=65 time=16
control_change channel=0 control=64 value=58 time=14
control_change channel=0 control=64 value=54 time=15
control_change channel=0 control=64 value=56 time=38
control_change channel=0 control=64 value=58 time=15
control_change channel=0 control=64 value=59 time=15
control_change channel=0 control=64 value=60 time=15
control_change channel=0 control=64 value=61 time=17
control_change channel=0 control=64 value=63 time=15
control_change channel=0 control=64 value=63 time=16
control_change channel=0 control=64 value=64 time=14
control_change channel=0 control=64 value=64 time=15
control_change channel=0 control=64 value=65 time=16
control_change channel=0 control=64 value=66 time=15
control_change channel=0 control=64 value=68 time=15
control_change channel=0 control=64 value=70 time=15
control_change channel=0 control=64 value=71 time=15
control_change channel=0 control=64 value=73 time=16
control_change channel=0 control=64 value=74 time=15
control_change channel=0 control=64 value=75 time=15
note_on channel=0 note=60 velocity=0 time=11
control_change channel=0 control=64 value=77 time=5
control_change channel=0 control=64 value=78 time=15
control_change channel=0 control=64 value=80 time=16
control_change channel=0 control=64 value=81 time=15
control_change channel=0 control=64 value=83 time=14
control_change channel=0 control=64 value=86 time=16
control_change channel=0 control=64 value=88 time=15
control_change channel=0 control=64 value=89 time=15
control_change channel=0 control=64 value=90 time=16
control_change channel=0 control=64 value=92 time=14
control_change channel=0 control=64 value=93 time=16
control_change channel=0 control=64 value=95 time=15
control_change channel=0 control=64 value=96 time=14
control_change channel=0 control=64 value=97 time=16
control_change channel=0 control=67 value=41 time=0
control_change channel=0 control=64 value=98 time=15
control_change channel=0 control=64 value=100 time=15
control_change channel=0 control=64 value=102 time=16
control_change channel=0 control=64 value=103 time=14
note_on channel=0 note=67 velocity=0 time=8
note_on channel=0 note=66 velocity=51 time=6
control_change channel=0 control=64 value=105 time=2
control_change channel=0 control=64 value=107 time=15
control_change channel=0 control=64 value=110 time=15
control_change channel=0 control=64 value=113 time=16
control_change channel=0 control=64 value=116 time=14
control_change channel=0 control=64 value=117 time=15
control_change channel=0 control=64 value=119 time=16
control_change channel=0 control=64 value=127 time=15
control_change channel=0 control=67 value=40 time=30
control_change channel=0 control=67 value=40 time=15
note_on channel=0 note=26 velocity=0 time=10
control_change channel=0 control=67 value=39 time=6
control_change channel=0 control=67 value=39 time=15
control_change channel=0 control=67 value=38 time=16
control_change channel=0 control=67 value=37 time=22
control_change channel=0 control=67 value=36 time=15
note_on channel=0 note=57 velocity=0 time=9
control_change channel=0 control=67 value=35 time=7
control_change channel=0 control=67 value=34 time=14
note_on channel=0 note=69 velocity=65 time=14
control_change channel=0 control=67 value=34 time=2
note_on channel=0 note=38 velocity=0 time=3
control_change channel=0 control=67 value=33 time=12
control_change channel=0 control=67 value=33 time=15
note_on channel=0 note=66 velocity=0 time=21
control_change channel=0 control=67 value=32 time=11
control_change channel=0 control=67 value=32 time=16
control_change channel=0 control=67 value=31 time=45
control_change channel=0 control=67 value=32 time=76
control_change channel=0 control=67 value=32 time=14
control_change channel=0 control=64 value=118 time=46
control_change channel=0 control=64 value=109 time=15
control_change channel=0 control=67 value=33 time=0
control_change channel=0 control=64 value=101 time=16
control_change channel=0 control=64 value=91 time=15
control_change channel=0 control=64 value=79 time=15
note_on channel=0 note=62 velocity=46 time=0
note_on channel=0 note=59 velocity=43 time=1
note_on channel=0 note=38 velocity=28 time=8
control_change channel=0 control=64 value=66 time=6
note_on channel=0 note=26 velocity=27 time=5
control_change channel=0 control=64 value=0 time=10
control_change channel=0 control=67 value=33 time=0
control_change channel=0 control=64 value=14 time=89
control_change channel=0 control=64 value=34 time=16
control_change channel=0 control=64 value=42 time=14
control_change channel=0 control=64 value=47 time=16
control_change channel=0 control=64 value=52 time=15
control_change channel=0 control=64 value=57 time=15
control_change channel=0 control=64 value=60 time=16
control_change channel=0 control=67 value=34 time=0
control_change channel=0 control=64 value=62 time=14
control_change channel=0 control=64 value=64 time=15
control_change channel=0 control=64 value=65 time=17
control_change channel=0 control=64 value=66 time=15
control_change channel=0 control=64 value=67 time=16
control_change channel=0 control=64 value=69 time=14
control_change channel=0 control=64 value=70 time=15
control_change channel=0 control=64 value=71 time=16
control_change channel=0 control=64 value=72 time=14
control_change channel=0 control=64 value=73 time=16
control_change channel=0 control=64 value=75 time=23
control_change channel=0 control=64 value=76 time=15
control_change channel=0 control=64 value=78 time=16
note_on channel=0 note=62 velocity=0 time=5
control_change channel=0 control=64 value=79 time=9
control_change channel=0 control=64 value=80 time=16
control_change channel=0 control=64 value=82 time=15
control_change channel=0 control=64 value=83 time=15
control_change channel=0 control=64 value=85 time=16
control_change channel=0 control=64 value=87 time=14
control_change channel=0 control=64 value=88 time=16
control_change channel=0 control=64 value=90 time=15
control_change channel=0 control=64 value=92 time=15
control_change channel=0 control=64 value=94 time=17
control_change channel=0 control=64 value=95 time=14
control_change channel=0 control=67 value=33 time=0
control_change channel=0 control=64 value=97 time=15
control_change channel=0 control=67 value=33 time=0
control_change channel=0 control=64 value=99 time=16
control_change channel=0 control=64 value=103 time=15
control_change channel=0 control=67 value=32 time=0
control_change channel=0 control=64 value=106 time=16
control_change channel=0 control=64 value=109 time=14
control_change channel=0 control=67 value=32 time=0
note_on channel=0 note=67 velocity=64 time=2
control_change channel=0 control=64 value=113 time=13
control_change channel=0 control=67 value=31 time=0
note_on channel=0 note=69 velocity=0 time=5
control_change channel=0 control=64 value=119 time=11
control_change channel=0 control=64 value=127 time=15
control_change channel=0 control=67 value=31 time=0
control_change channel=0 control=67 value=30 time=15
control_change channel=0 control=67 value=30 time=15
control_change channel=0 control=67 value=29 time=15
control_change channel=0 control=67 value=29 time=16
control_change channel=0 control=67 value=27 time=15
note_on channel=0 note=26 velocity=0 time=8
control_change channel=0 control=67 value=22 time=6
control_change channel=0 control=67 value=15 time=16
control_change channel=0 control=67 value=9 time=15
note_on channel=0 note=59 velocity=0 time=2
control_change channel=0 control=67 value=0 time=14
note_on channel=0 note=38 velocity=0 time=20
note_on channel=0 note=71 velocity=74 time=134
note_on channel=0 note=67 velocity=0 time=40
control_change channel=0 control=64 value=112 time=330
control_change channel=0 control=64 value=102 time=16
control_change channel=0 control=64 value=92 time=15
control_change channel=0 control=64 value=81 time=16
note_on channel=0 note=64 velocity=55 time=5
note_on channel=0 note=38 velocity=36 time=6
control_change channel=0 control=64 value=69 time=3
note_on channel=0 note=61 velocity=50 time=2
note_on channel=0 note=26 velocity=34 time=5
control_change channel=0 control=64 value=30 time=9
control_change channel=0 control=64 value=0 time=15
control_change channel=0 control=64 value=14 time=91
control_change channel=0 control=64 value=46 time=16
control_change channel=0 control=64 value=57 time=14
control_change channel=0 control=64 value=62 time=15
control_change channel=0 control=64 value=65 time=16
control_change channel=0 control=64 value=67 time=14
control_change channel=0 control=64 value=70 time=15
control_change channel=0 control=64 value=73 time=16
control_change channel=0 control=64 value=76 time=15
control_change channel=0 control=64 value=78 time=16
control_change channel=0 control=64 value=81 time=15
control_change channel=0 control=64 value=83 time=14
control_change channel=0 control=64 value=87 time=16
control_change channel=0 control=64 value=90 time=15
note_on channel=0 note=61 velocity=0 time=1
control_change channel=0 control=64 value=93 time=13
control_change channel=0 control=64 value=96 time=16
control_change channel=0 control=64 value=98 time=15
control_change channel=0 control=64 value=102 time=16
control_change channel=0 control=64 value=105 time=15
control_change channel=0 control=64 value=108 time=15
control_change channel=0 control=64 value=110 time=16
note_on channel=0 note=64 velocity=0 time=4
control_change channel=0 control=64 value=114 time=11
control_change channel=0 control=64 value=120 time=16
control_change channel=0 control=64 value=127 time=15
note_on channel=0 note=71 velocity=0 time=236
note_on channel=0 note=69 velocity=71 time=102
note_on channel=0 note=26 velocity=0 time=211
note_on channel=0 note=69 velocity=0 time=363
note_on channel=0 note=79 velocity=82 time=1
note_on channel=0 note=38 velocity=0 time=191
note_on channel=0 note=26 velocity=54 time=258
control_change channel=0 control=64 value=114 time=67
note_on channel=0 note=78 velocity=75 time=14
control_change channel=0 control=64 value=96 time=1
control_change channel=0 control=64 value=77 time=15
control_change channel=0 control=64 value=64 time=16
note_on channel=0 note=79 velocity=0 time=13
control_change channel=0 control=64 value=0 time=2
control_change channel=0 control=64 value=31 time=15
control_change channel=0 control=64 value=49 time=15
control_change channel=0 control=64 value=57 time=15
control_change channel=0 control=64 value=62 time=23
control_change channel=0 control=64 value=65 time=15
control_change channel=0 control=64 value=68 time=16
control_change channel=0 control=64 value=71 time=15
control_change channel=0 control=64 value=75 time=15
control_change channel=0 control=64 value=79 time=15
control_change channel=0 control=64 value=82 time=15
control_change channel=0 control=64 value=86 time=16
note_on channel=0 note=26 velocity=0 time=9
control_change channel=0 control=64 value=89 time=5
control_change channel=0 control=64 value=92 time=15
note_on channel=0 note=38 velocity=55 time=12
control_change channel=0 control=64 value=95 time=4
control_change channel=0 control=64 value=100 time=15
control_change channel=0 control=64 value=104 time=15
note_on channel=0 note=38 velocity=0 time=6
control_change channel=0 control=64 value=110 time=9
control_change channel=0 control=64 value=119 time=15
control_change channel=0 control=64 value=127 time=16
note_on channel=0 note=74 velocity=72 time=86
note_on channel=0 note=78 velocity=0 time=39
note_on channel=0 note=50 velocity=49 time=77
note_on channel=0 note=76 velocity=69 time=59
note_on channel=0 note=74 velocity=0 time=1
note_on channel=0 note=57 velocity=55 time=127
note_on channel=0 note=76 velocity=0 time=22
note_on channel=0 note=74 velocity=69 time=2
note_on channel=0 note=74 velocity=0 time=138
note_on channel=0 note=76 velocity=69 time=10
note_on channel=0 note=57 velocity=0 time=25
note_on channel=0 note=62 velocity=66 time=9
note_on channel=0 note=50 velocity=0 time=5
note_on channel=0 note=76 velocity=0 time=79
note_on channel=0 note=74 velocity=69 time=9
note_on channel=0 note=74 velocity=0 time=109
note_on channel=0 note=76 velocity=61 time=22
note_on channel=0 note=66 velocity=56 time=3
note_on channel=0 note=62 velocity=0 time=47
note_on channel=0 note=76 velocity=0 time=52
note_on channel=0 note=74 velocity=65 time=23
note_on channel=0 note=74 velocity=0 time=93
note_on channel=0 note=76 velocity=69 time=16
note_on channel=0 note=76 velocity=0 time=80
note_on channel=0 note=74 velocity=69 time=27
note_on channel=0 note=74 velocity=0 time=70
note_on channel=0 note=76 velocity=74 time=13
note_on channel=0 note=76 velocity=0 time=80
note_on channel=0 note=74 velocity=75 time=26
note_on channel=0 note=66 velocity=0 time=34
note_on channel=0 note=74 velocity=0 time=12
note_on channel=0 note=76 velocity=75 time=30
note_on channel=0 note=76 velocity=0 time=57
note_on channel=0 note=74 velocity=79 time=23
note_on channel=0 note=74 velocity=0 time=51
note_on channel=0 note=76 velocity=70 time=29
note_on channel=0 note=76 velocity=0 time=48
note_on channel=0 note=74 velocity=74 time=20
note_on channel=0 note=74 velocity=0 time=35
note_on channel=0 note=76 velocity=61 time=26
note_on channel=0 note=76 velocity=0 time=37
note_on channel=0 note=74 velocity=78 time=29
note_on channel=0 note=74 velocity=0 time=23
note_on channel=0 note=76 velocity=74 time=35
note_on channel=0 note=76 velocity=0 time=31
note_on channel=0 note=74 velocity=78 time=27
note_on channel=0 note=74 velocity=0 time=26
note_on channel=0 note=76 velocity=74 time=26
note_on channel=0 note=76 velocity=0 time=37
note_on channel=0 note=74 velocity=78 time=22
note_on channel=0 note=74 velocity=0 time=24
note_on channel=0 note=76 velocity=72 time=15
note_on channel=0 note=76 velocity=0 time=55
note_on channel=0 note=74 velocity=82 time=14
note_on channel=0 note=74 velocity=0 time=31
note_on channel=0 note=76 velocity=68 time=7
note_on channel=0 note=76 velocity=0 time=52
note_on channel=0 note=74 velocity=75 time=16
note_on channel=0 note=74 velocity=0 time=22
note_on channel=0 note=76 velocity=68 time=13
note_on channel=0 note=76 velocity=0 time=53
note_on channel=0 note=74 velocity=74 time=6
note_on channel=0 note=76 velocity=64 time=40
note_on channel=0 note=74 velocity=0 time=4
note_on channel=0 note=76 velocity=0 time=49
note_on channel=0 note=74 velocity=67 time=15
note_on channel=0 note=74 velocity=0 time=42
note_on channel=0 note=76 velocity=65 time=3
note_on channel=0 note=76 velocity=0 time=43
note_on channel=0 note=74 velocity=66 time=12
note_on channel=0 note=74 velocity=0 time=33
note_on channel=0 note=76 velocity=63 time=12
note_on channel=0 note=76 velocity=0 time=40
note_on channel=0 note=74 velocity=76 time=19
note_on channel=0 note=76 velocity=59 time=51
note_on channel=0 note=74 velocity=0 time=20
note_on channel=0 note=76 velocity=0 time=16
note_on channel=0 note=74 velocity=39 time=1
note_on channel=0 note=74 velocity=0 time=52
note_on channel=0 note=73 velocity=62 time=13
note_on channel=0 note=73 velocity=0 time=28
note_on channel=0 note=74 velocity=64 time=37
note_on channel=0 note=74 velocity=0 time=63
note_on channel=0 note=76 velocity=65 time=9
control_change channel=0 control=64 value=123 time=29
control_change channel=0 control=64 value=114 time=15
note_on channel=0 note=78 velocity=76 time=15
control_change channel=0 control=64 value=110 time=1
note_on channel=0 note=76 velocity=0 time=0
control_change channel=0 control=64 value=109 time=14
note_on channel=0 note=78 velocity=0 time=38
note_on channel=0 note=79 velocity=78 time=20
control_change channel=0 control=67 value=9 time=33
control_change channel=0 control=67 value=9 time=16
control_change channel=0 control=67 value=11 time=15
note_on channel=0 note=79 velocity=0 time=9
note_on channel=0 note=81 velocity=72 time=3
control_change channel=0 control=67 value=13 time=3
control_change channel=0 control=67 value=14 time=16
control_change channel=0 control=67 value=15 time=15
control_change channel=0 control=67 value=15 time=16
control_change channel=0 control=64 value=108 time=14
control_change channel=0 control=67 value=17 time=0
note_on channel=0 note=83 velocity=70 time=5
control_change channel=0 control=64 value=107 time=10
control_change channel=0 control=67 value=20 time=0
note_on channel=0 note=81 velocity=0 time=14
control_change channel=0 control=64 value=104 time=2
control_change channel=0 control=67 value=23 time=0
control_change channel=0 control=64 value=103 time=15
control_change channel=0 control=67 value=26 time=0
control_change channel=0 control=64 value=101 time=16
control_change channel=0 control=67 value=28 time=0
control_change channel=0 control=64 value=100 time=14
control_change channel=0 control=67 value=30 time=0
note_on channel=0 note=85 velocity=76 time=4
note_on channel=0 note=83 velocity=0 time=9
control_change channel=0 control=64 value=96 time=2
control_change channel=0 control=67 value=33 time=0
control_change channel=0 control=64 value=93 time=16
control_change channel=0 control=67 value=36 time=0
control_change channel=0 control=64 value=92 time=15
control_change channel=0 control=67 value=38 time=0
control_change channel=0 control=67 value=39 time=15
control_change channel=0 control=67 value=41 time=15
note_on channel=0 note=85 velocity=0 time=4
control_change channel=0 control=67 value=43 time=11
control_change channel=0 control=67 value=45 time=16
note_on channel=0 note=86 velocity=65 time=4
control_change channel=0 control=67 value=45 time=11
control_change channel=0 control=67 value=46 time=14
control_change channel=0 control=64 value=90 time=17
control_change channel=0 control=67 value=47 time=0
control_change channel=0 control=64 value=87 time=15
control_change channel=0 control=67 value=48 time=0
control_change channel=0 control=64 value=82 time=15
control_change channel=0 control=67 value=48 time=0
control_change channel=0 control=64 value=78 time=16
control_change channel=0 control=67 value=49 time=0
note_on channel=0 note=86 velocity=0 time=13
control_change channel=0 control=64 value=72 time=2
note_on channel=0 note=90 velocity=76 time=13
control_change channel=0 control=64 value=69 time=2
control_change channel=0 control=67 value=50 time=0
control_change channel=0 control=67 value=50 time=15
control_change channel=0 control=64 value=70 time=15
control_change channel=0 control=67 value=51 time=0
control_change channel=0 control=64 value=70 time=16
control_change channel=0 control=67 value=51 time=0
control_change channel=0 control=64 value=71 time=15
control_change channel=0 control=67 value=52 time=0
control_change channel=0 control=64 value=71 time=14
note_on channel=0 note=90 velocity=0 time=15
control_change channel=0 control=64 value=72 time=1
control_change channel=0 control=67 value=52 time=0
note_on channel=0 note=86 velocity=76 time=0
control_change channel=0 control=67 value=53 time=23
control_change channel=0 control=64 value=73 time=16
note_on channel=0 note=86 velocity=0 time=12
control_change channel=0 control=64 value=74 time=2
control_change channel=0 control=67 value=54 time=0
control_change channel=0 control=64 value=75 time=16
control_change channel=0 control=67 value=54 time=0
note_on channel=0 note=83 velocity=76 time=1
control_change channel=0 control=64 value=78 time=14
control_change channel=0 control=67 value=55 time=0
control_change channel=0 control=64 value=81 time=15
control_change channel=0 control=67 value=56 time=0
control_change channel=0 control=64 value=82 time=15
control_change channel=0 control=67 value=56 time=0
note_on channel=0 note=83 velocity=0 time=16
control_change channel=0 control=67 value=57 time=14
note_on channel=0 note=80 velocity=75 time=2
control_change channel=0 control=64 value=80 time=14
control_change channel=0 control=67 value=57 time=0
control_change channel=0 control=64 value=77 time=15
control_change channel=0 control=67 value=58 time=0
note_on channel=0 note=83 velocity=61 time=14
control_change channel=0 control=64 value=72 time=2
control_change channel=0 control=67 value=58 time=0
note_on channel=0 note=80 velocity=0 time=13
control_change channel=0 control=64 value=70 time=1
control_change channel=0 control=67 value=60 time=0
control_change channel=0 control=64 value=71 time=15
control_change channel=0 control=67 value=61 time=0
control_change channel=0 control=64 value=73 time=16
control_change channel=0 control=67 value=62 time=0
note_on channel=0 note=81 velocity=70 time=1
control_change channel=0 control=64 value=75 time=13
control_change channel=0 control=67 value=64 time=0
note_on channel=0 note=83 velocity=0 time=2
control_change channel=0 control=64 value=76 time=14
control_change channel=0 control=67 value=65 time=0
note_on channel=0 note=81 velocity=0 time=4
control_change channel=0 control=64 value=75 time=11
control_change channel=0 control=67 value=67 time=0
note_on channel=0 note=76 velocity=68 time=4
control_change channel=0 control=64 value=73 time=11
control_change channel=0 control=67 value=69 time=0
control_change channel=0 control=64 value=70 time=16
control_change channel=0 control=67 value=72 time=0
control_change channel=0 control=64 value=70 time=14
control_change channel=0 control=67 value=73 time=0
note_on channel=0 note=76 velocity=0 time=2
control_change channel=0 control=64 value=71 time=13
control_change channel=0 control=67 value=75 time=0
note_on channel=0 note=74 velocity=69 time=3
control_change channel=0 control=64 value=72 time=13
control_change channel=0 control=67 value=77 time=0
note_on channel=0 note=74 velocity=0 time=14
control_change channel=0 control=64 value=74 time=1
control_change channel=0 control=67 value=80 time=0
note_on channel=0 note=78 velocity=74 time=5
control_change channel=0 control=64 value=75 time=11
control_change channel=0 control=67 value=84 time=0
control_change channel=0 control=64 value=76 time=15
control_change channel=0 control=67 value=86 time=0
control_change channel=0 control=64 value=77 time=14
control_change channel=0 control=67 value=89 time=0
control_change channel=0 control=67 value=92 time=16
note_on channel=0 note=78 velocity=0 time=9
control_change channel=0 control=64 value=75 time=6
control_change channel=0 control=67 value=96 time=0
note_on channel=0 note=74 velocity=63 time=2
control_change channel=0 control=64 value=73 time=13
control_change channel=0 control=67 value=100 time=0
note_on channel=0 note=74 velocity=0 time=13
control_change channel=0 control=64 value=72 time=3
control_change channel=0 control=67 value=103 time=0
note_on channel=0 note=71 velocity=76 time=13
control_change channel=0 control=64 value=72 time=2
control_change channel=0 control=67 value=106 time=0
control_change channel=0 control=64 value=74 time=16
control_change channel=0 control=67 value=108 time=0
control_change channel=0 control=64 value=74 time=14
control_change channel=0 control=67 value=110 time=0
control_change channel=0 control=67 value=112 time=15
control_change channel=0 control=64 value=74 time=16
control_change channel=0 control=67 value=113 time=0
note_on channel=0 note=71 velocity=0 time=1
control_change channel=0 control=67 value=114 time=14
note_on channel=0 note=68 velocity=67 time=1
control_change channel=0 control=64 value=74 time=13
control_change channel=0 control=67 value=114 time=16
note_on channel=0 note=71 velocity=55 time=1
note_on channel=0 note=68 velocity=0 time=7
control_change channel=0 control=64 value=74 time=7
control_change channel=0 control=64 value=73 time=16
control_change channel=0 control=64 value=72 time=15
note_on channel=0 note=69 velocity=58 time=9
note_on channel=0 note=71 velocity=0 time=4
control_change channel=0 control=64 value=72 time=3
note_on channel=0 note=69 velocity=0 time=26
note_on channel=0 note=64 velocity=69 time=10
control_change channel=0 control=64 value=71 time=10
control_change channel=0 control=64 value=70 time=15
control_change channel=0 control=64 value=70 time=15
note_on channel=0 note=64 velocity=0 time=2
note_on channel=0 note=62 velocity=47 time=20
control_change channel=0 control=64 value=70 time=8
control_change channel=0 control=64 value=70 time=23
note_on channel=0 note=62 velocity=0 time=3
control_change channel=0 control=64 value=69 time=12
note_on channel=0 note=66 velocity=58 time=2
note_on channel=0 note=66 velocity=0 time=43
note_on channel=0 note=62 velocity=68 time=13
control_change channel=0 control=64 value=69 time=19
note_on channel=0 note=62 velocity=0 time=8
control_change channel=0 control=64 value=68 time=6
control_change channel=0 control=64 value=67 time=16
note_on channel=0 note=59 velocity=67 time=1
note_on channel=0 note=59 velocity=0 time=58
control_change channel=0 control=64 value=67 time=17
note_on channel=0 note=56 velocity=63 time=8
note_on channel=0 note=56 velocity=0 time=38
control_change channel=0 control=64 value=66 time=14
note_on channel=0 note=59 velocity=32 time=7
control_change channel=0 control=64 value=65 time=8
note_on channel=0 note=57 velocity=54 time=30
note_on channel=0 note=59 velocity=0 time=2
note_on channel=0 note=57 velocity=0 time=33
note_on channel=0 note=52 velocity=62 time=13
control_change channel=0 control=64 value=64 time=14
note_on channel=0 note=52 velocity=0 time=45
note_on channel=0 note=50 velocity=50 time=27
control_change channel=0 control=64 value=63 time=3
control_change channel=0 control=64 value=62 time=15
note_on channel=0 note=50 velocity=0 time=21
note_on channel=0 note=54 velocity=63 time=3
control_change channel=0 control=64 value=61 time=53
note_on channel=0 note=54 velocity=0 time=13
control_change channel=0 control=64 value=61 time=2
note_on channel=0 note=50 velocity=58 time=10
control_change channel=0 control=64 value=61 time=20
note_on channel=0 note=50 velocity=0 time=23
note_on channel=0 note=47 velocity=55 time=25
note_on channel=0 note=47 velocity=0 time=69
control_change channel=0 control=64 value=61 time=6
note_on channel=0 note=44 velocity=50 time=30
control_change channel=0 control=64 value=59 time=38
note_on channel=0 note=44 velocity=0 time=9
control_change channel=0 control=64 value=55 time=6
control_change channel=0 control=64 value=53 time=16
note_on channel=0 note=47 velocity=38 time=11
note_on channel=0 note=47 velocity=0 time=52
note_on channel=0 note=45 velocity=52 time=18
note_on channel=0 note=45 velocity=0 time=75
note_on channel=0 note=40 velocity=42 time=18
control_change channel=0 control=64 value=52 time=145
note_on channel=0 note=40 velocity=0 time=3
control_change channel=0 control=64 value=47 time=12
note_on channel=0 note=38 velocity=38 time=6
control_change channel=0 control=64 value=0 time=8
control_change channel=0 control=64 value=29 time=288
control_change channel=0 control=64 value=51 time=15
control_change channel=0 control=64 value=59 time=15
control_change channel=0 control=64 value=64 time=15
control_change channel=0 control=64 value=65 time=16
control_change channel=0 control=64 value=67 time=15
control_change channel=0 control=64 value=69 time=24
control_change channel=0 control=64 value=71 time=14
control_change channel=0 control=64 value=73 time=16
control_change channel=0 control=64 value=74 time=15
control_change channel=0 control=64 value=75 time=16
control_change channel=0 control=64 value=77 time=15
control_change channel=0 control=64 value=79 time=15
control_change channel=0 control=64 value=81 time=16
control_change channel=0 control=64 value=82 time=14
control_change channel=0 control=64 value=81 time=183
note_on channel=0 note=38 velocity=0 time=0
control_change channel=0 control=64 value=81 time=29
control_change channel=0 control=64 value=80 time=16
control_change channel=0 control=64 value=80 time=15
control_change channel=0 control=64 value=79 time=30
control_change channel=0 control=64 value=78 time=15
control_change channel=0 control=64 value=77 time=16
control_change channel=0 control=64 value=76 time=15
control_change channel=0 control=64 value=75 time=15
control_change channel=0 control=64 value=73 time=16
control_change channel=0 control=64 value=71 time=14
control_change channel=0 control=64 value=70 time=16
control_change channel=0 control=64 value=69 time=15
control_change channel=0 control=64 value=68 time=15
control_change channel=0 control=64 value=68 time=16
control_change channel=0 control=64 value=67 time=15
control_change channel=0 control=64 value=67 time=14
control_change channel=0 control=64 value=66 time=16
control_change channel=0 control=64 value=65 time=15
control_change channel=0 control=64 value=65 time=32
control_change channel=0 control=64 value=64 time=45
control_change channel=0 control=64 value=64 time=45
control_change channel=0 control=64 value=63 time=85
control_change channel=0 control=64 value=63 time=15
control_change channel=0 control=64 value=62 time=31
control_change channel=0 control=64 value=62 time=30
control_change channel=0 control=64 value=61 time=15
control_change channel=0 control=64 value=60 time=15
control_change channel=0 control=64 value=59 time=15
control_change channel=0 control=64 value=59 time=16
control_change channel=0 control=64 value=58 time=14
control_change channel=0 control=64 value=57 time=31
control_change channel=0 control=64 value=57 time=15
control_change channel=0 control=64 value=56 time=16
control_change channel=0 control=64 value=56 time=15
control_change channel=0 control=64 value=55 time=15
control_change channel=0 control=64 value=54 time=16
control_change channel=0 control=64 value=54 time=15
control_change channel=0 control=64 value=53 time=15
control_change channel=0 control=64 value=52 time=30
control_change channel=0 control=64 value=52 time=15
control_change channel=0 control=64 value=51 time=30
control_change channel=0 control=64 value=51 time=31
control_change channel=0 control=64 value=51 time=151
control_change channel=0 control=64 value=52 time=31
control_change channel=0 control=64 value=53 time=15
control_change channel=0 control=67 value=114 time=0
control_change channel=0 control=64 value=54 time=16
control_change channel=0 control=67 value=113 time=0
control_change channel=0 control=64 value=55 time=15
control_change channel=0 control=67 value=113 time=0
control_change channel=0 control=64 value=56 time=14
control_change channel=0 control=64 value=58 time=16
control_change channel=0 control=64 value=59 time=15
control_change channel=0 control=67 value=112 time=0
control_change channel=0 control=64 value=61 time=15
control_change channel=0 control=67 value=111 time=0
control_change channel=0 control=64 value=62 time=16
control_change channel=0 control=67 value=111 time=0
control_change channel=0 control=64 value=64 time=22
control_change channel=0 control=67 value=109 time=0
control_change channel=0 control=64 value=65 time=16
control_change channel=0 control=67 value=108 time=0
control_change channel=0 control=64 value=66 time=14
control_change channel=0 control=67 value=107 time=0
control_change channel=0 control=64 value=68 time=16
control_change channel=0 control=67 value=105 time=0
control_change channel=0 control=64 value=69 time=15
control_change channel=0 control=67 value=104 time=0
control_change channel=0 control=64 value=70 time=16
control_change channel=0 control=67 value=102 time=0
control_change channel=0 control=64 value=72 time=16
control_change channel=0 control=67 value=101 time=0
control_change channel=0 control=64 value=73 time=15
control_change channel=0 control=67 value=96 time=0
control_change channel=0 control=64 value=76 time=14
control_change channel=0 control=67 value=90 time=0
control_change channel=0 control=64 value=77 time=16
control_change channel=0 control=67 value=82 time=0
control_change channel=0 control=64 value=79 time=15
control_change channel=0 control=67 value=75 time=0
control_change channel=0 control=64 value=81 time=16
control_change channel=0 control=67 value=67 time=0
control_change channel=0 control=64 value=83 time=15
control_change channel=0 control=67 value=60 time=0
control_change channel=0 control=64 value=86 time=15
control_change channel=0 control=67 value=53 time=0
control_change channel=0 control=64 value=89 time=15
control_change channel=0 control=67 value=45 time=0
control_change channel=0 control=64 value=91 time=15
control_change channel=0 control=67 value=40 time=0
control_change channel=0 control=64 value=93 time=16
control_change channel=0 control=67 value=36 time=0
control_change channel=0 control=64 value=95 time=14
control_change channel=0 control=67 value=31 time=0
control_change channel=0 control=64 value=98 time=15
control_change channel=0 control=67 value=26 time=0
control_change channel=0 control=64 value=101 time=16
control_change channel=0 control=67 value=19 time=0
control_change channel=0 control=64 value=104 time=15
control_change channel=0 control=67 value=10 time=0
note_on channel=0 note=69 velocity=71 time=9
control_change channel=0 control=64 value=107 time=6
control_change channel=0 control=67 value=0 time=0
note_on channel=0 note=65 velocity=50 time=13
control_change channel=0 control=64 value=111 time=3
control_change channel=0 control=64 value=117 time=15
control_change channel=0 control=64 value=127 time=16
note_on channel=0 note=74 velocity=74 time=421
note_on channel=0 note=65 velocity=0 time=15
note_on channel=0 note=64 velocity=59 time=350
note_on channel=0 note=57 velocity=52 time=6
control_change channel=0 control=64 value=110 time=233
control_change channel=0 control=64 value=77 time=16
control_change channel=0 control=64 value=0 time=14
control_change channel=0 control=64 value=45 time=91
control_change channel=0 control=64 value=60 time=24
control_change channel=0 control=64 value=64 time=15
control_change channel=0 control=64 value=65 time=16
control_change channel=0 control=64 value=68 time=14
control_change channel=0 control=64 value=71 time=15
control_change channel=0 control=64 value=73 time=16
control_change channel=0 control=64 value=76 time=15
note_on channel=0 note=72 velocity=75 time=0
control_change channel=0 control=64 value=78 time=14
control_change channel=0 control=64 value=80 time=16
note_on channel=0 note=74 velocity=0 time=10
control_change channel=0 control=64 value=81 time=5
control_change channel=0 control=64 value=83 time=16
control_change channel=0 control=64 value=83 time=15
control_change channel=0 control=64 value=84 time=16
control_change channel=0 control=64 value=85 time=15
control_change channel=0 control=64 value=87 time=15
control_change channel=0 control=64 value=88 time=16
control_change channel=0 control=64 value=89 time=15
control_change channel=0 control=64 value=90 time=30
note_on channel=0 note=77 velocity=83 time=47
control_change channel=0 control=64 value=90 time=13
note_on channel=0 note=72 velocity=0 time=0
control_change channel=0 control=64 value=90 time=107
control_change channel=0 control=64 value=89 time=76
control_change channel=0 control=64 value=88 time=15
control_change channel=0 control=64 value=86 time=16
control_change channel=0 control=64 value=82 time=15
note_on channel=0 note=65 velocity=73 time=8
control_change channel=0 control=64 value=75 time=7
control_change channel=0 control=64 value=66 time=16
control_change channel=0 control=64 value=32 time=14
control_change channel=0 control=64 value=0 time=15
note_on channel=0 note=64 velocity=0 time=51
control_change channel=0 control=64 value=47 time=56
control_change channel=0 control=64 value=59 time=14
control_change channel=0 control=64 value=63 time=24
control_change channel=0 control=64 value=65 time=14
control_change channel=0 control=64 value=67 time=16
control_change channel=0 control=64 value=69 time=15
control_change channel=0 control=64 value=72 time=16
control_change channel=0 control=64 value=75 time=15
control_change channel=0 control=64 value=77 time=15
control_change channel=0 control=64 value=79 time=16
control_change channel=0 control=64 value=81 time=14
control_change channel=0 control=64 value=84 time=15
control_change channel=0 control=64 value=87 time=16
control_change channel=0 control=64 value=89 time=15
control_change channel=0 control=64 value=92 time=15
control_change channel=0 control=64 value=95 time=15
control_change channel=0 control=64 value=98 time=15
control_change channel=0 control=64 value=100 time=17
control_change channel=0 control=64 value=103 time=15
note_on channel=0 note=76 velocity=77 time=1
control_change channel=0 control=64 value=104 time=15
note_on channel=0 note=77 velocity=0 time=11
control_change channel=0 control=64 value=105 time=3
control_change channel=0 control=64 value=107 time=15
control_change channel=0 control=64 value=108 time=16
note_on channel=0 note=57 velocity=0 time=4
control_change channel=0 control=64 value=109 time=11
control_change channel=0 control=64 value=110 time=15
control_change channel=0 control=64 value=110 time=16
control_change channel=0 control=64 value=110 time=197
control_change channel=0 control=64 value=108 time=105
control_change channel=0 control=64 value=107 time=16
control_change channel=0 control=64 value=106 time=15
control_change channel=0 control=64 value=105 time=16
control_change channel=0 control=64 value=103 time=15
control_change channel=0 control=64 value=101 time=15
control_change channel=0 control=64 value=98 time=16
control_change channel=0 control=64 value=95 time=21
control_change channel=0 control=64 value=91 time=16
control_change channel=0 control=64 value=86 time=15
note_on channel=0 note=75 velocity=67 time=9
control_change channel=0 control=64 value=81 time=6
note_on channel=0 note=76 velocity=0 time=2
note_on channel=0 note=66 velocity=40 time=8
control_change channel=0 control=64 value=74 time=5
note_on channel=0 note=59 velocity=34 time=1
control_change channel=0 control=64 value=65 time=14
control_change channel=0 control=64 value=30 time=15
note_on channel=0 note=65 velocity=0 time=7
control_change channel=0 control=64 value=0 time=9
control_change channel=0 control=64 value=29 time=199
control_change channel=0 control=64 value=52 time=15
control_change channel=0 control=64 value=60 time=16
control_change channel=0 control=64 value=63 time=14
control_change channel=0 control=64 value=65 time=15
control_change channel=0 control=64 value=67 time=16
control_change channel=0 control=64 value=69 time=15
control_change channel=0 control=64 value=71 time=16
control_change channel=0 control=64 value=73 time=14
control_change channel=0 control=64 value=74 time=15
control_change channel=0 control=64 value=77 time=16
control_change channel=0 control=64 value=79 time=15
control_change channel=0 control=64 value=81 time=14
control_change channel=0 control=64 value=83 time=16
control_change channel=0 control=64 value=85 time=15
control_change channel=0 control=64 value=88 time=16
control_change channel=0 control=64 value=90 time=15
control_change channel=0 control=64 value=92 time=14
control_change channel=0 control=64 value=94 time=16
control_change channel=0 control=64 value=96 time=15
control_change channel=0 control=64 value=98 time=14
control_change channel=0 control=64 value=100 time=16
control_change channel=0 control=64 value=103 time=15
control_change channel=0 control=64 value=106 time=16
control_change channel=0 control=64 value=108 time=15
control_change channel=0 control=64 value=110 time=14
control_change channel=0 control=64 value=113 time=16
control_change channel=0 control=64 value=115 time=15
note_on channel=0 note=83 velocity=67 time=6
control_change channel=0 control=64 value=117 time=9
control_change channel=0 control=64 value=117 time=16
control_change channel=0 control=64 value=118 time=38
control_change channel=0 control=64 value=118 time=15
control_change channel=0 control=64 value=119 time=30
note_on channel=0 note=69 velocity=0 time=121
note_on channel=0 note=59 velocity=0 time=41
control_change channel=0 control=64 value=118 time=6
note_on channel=0 note=75 velocity=0 time=14
note_on channel=0 note=83 velocity=0 time=4
note_on channel=0 note=66 velocity=0 time=32
control_change channel=0 control=64 value=118 time=88
control_change channel=0 control=64 value=116 time=15
control_change channel=0 control=64 value=113 time=15
control_change channel=0 control=64 value=112 time=16
control_change channel=0 control=64 value=110 time=14
control_change channel=0 control=64 value=107 time=15
control_change channel=0 control=64 value=104 time=16
control_change channel=0 control=64 value=102 time=15
control_change channel=0 control=64 value=100 time=16
control_change channel=0 control=64 value=98 time=15
control_change channel=0 control=64 value=97 time=15
control_change channel=0 control=64 value=95 time=16
control_change channel=0 control=64 value=94 time=15
control_change channel=0 control=64 value=92 time=15
control_change channel=0 control=67 value=8 time=0
control_change channel=0 control=64 value=90 time=15
control_change channel=0 control=67 value=8 time=0
control_change channel=0 control=64 value=88 time=15
control_change channel=0 control=67 value=9 time=0
control_change channel=0 control=64 value=86 time=16
control_change channel=0 control=67 value=9 time=0
control_change channel=0 control=64 value=83 time=15
control_change channel=0 control=67 value=11 time=0
control_change channel=0 control=64 value=82 time=14
control_change channel=0 control=67 value=12 time=0
control_change channel=0 control=64 value=81 time=16
control_change channel=0 control=67 value=14 time=0
control_change channel=0 control=64 value=79 time=15
control_change channel=0 control=67 value=15 time=0
control_change channel=0 control=64 value=76 time=15
control_change channel=0 control=67 value=17 time=0
control_change channel=0 control=64 value=75 time=15
control_change channel=0 control=67 value=19 time=0
control_change channel=0 control=64 value=73 time=15
control_change channel=0 control=67 value=22 time=0
control_change channel=0 control=64 value=72 time=16
control_change channel=0 control=67 value=25 time=0
control_change channel=0 control=64 value=71 time=15
control_change channel=0 control=67 value=28 time=0
control_change channel=0 control=64 value=70 time=23
control_change channel=0 control=67 value=31 time=0
control_change channel=0 control=64 value=68 time=15
control_change channel=0 control=67 value=34 time=0
control_change channel=0 control=64 value=68 time=15
control_change channel=0 control=67 value=37 time=0
control_change channel=0 control=67 value=40 time=16
control_change channel=0 control=64 value=67 time=15
control_change channel=0 control=67 value=42 time=0
control_change channel=0 control=64 value=66 time=15
control_change channel=0 control=67 value=45 time=0
control_change channel=0 control=64 value=66 time=15
control_change channel=0 control=67 value=48 time=0
control_change channel=0 control=64 value=65 time=15
control_change channel=0 control=67 value=52 time=0
control_change channel=0 control=64 value=65 time=15
control_change channel=0 control=67 value=54 time=0
control_change channel=0 control=64 value=64 time=15
control_change channel=0 control=67 value=56 time=0
control_change channel=0 control=64 value=64 time=15
control_change channel=0 control=67 value=58 time=0
control_change channel=0 control=64 value=63 time=16
control_change channel=0 control=67 value=61 time=0
control_change channel=0 control=67 value=64 time=15
control_change channel=0 control=64 value=63 time=15
control_change channel=0 control=67 value=67 time=0
control_change channel=0 control=67 value=70 time=15
control_change channel=0 control=64 value=62 time=15
control_change channel=0 control=67 value=72 time=0
control_change channel=0 control=64 value=61 time=16
control_change channel=0 control=67 value=74 time=0
control_change channel=0 control=67 value=77 time=15
control_change channel=0 control=67 value=78 time=14
control_change channel=0 control=64 value=61 time=16
control_change channel=0 control=67 value=81 time=0
control_change channel=0 control=64 value=60 time=15
control_change channel=0 control=67 value=84 time=0
control_change channel=0 control=64 value=59 time=16
control_change channel=0 control=67 value=86 time=0
control_change channel=0 control=67 value=89 time=14
control_change channel=0 control=67 value=91 time=15
control_change channel=0 control=64 value=58 time=16
control_change channel=0 control=67 value=94 time=0
control_change channel=0 control=64 value=56 time=16
control_change channel=0 control=67 value=97 time=0
control_change channel=0 control=64 value=50 time=16
control_change channel=0 control=67 value=101 time=0
control_change channel=0 control=64 value=46 time=15
control_change channel=0 control=67 value=105 time=0
control_change channel=0 control=64 value=46 time=14
control_change channel=0 control=67 value=108 time=0
control_change channel=0 control=67 value=111 time=16
control_change channel=0 control=67 value=114 time=15
control_change channel=0 control=67 value=117 time=15
control_change channel=0 control=67 value=121 time=16
control_change channel=0 control=64 value=46 time=14
control_change channel=0 control=67 value=124 time=0
control_change channel=0 control=64 value=47 time=16
control_change channel=0 control=67 value=127 time=0
control_change channel=0 control=64 value=48 time=15
control_change channel=0 control=64 value=50 time=15
control_change channel=0 control=64 value=51 time=16
control_change channel=0 control=64 value=53 time=15
control_change channel=0 control=64 value=54 time=14
control_change channel=0 control=64 value=55 time=16
control_change channel=0 control=64 value=56 time=15
control_change channel=0 control=64 value=58 time=16
control_change channel=0 control=64 value=58 time=15
control_change channel=0 control=64 value=59 time=15
control_change channel=0 control=64 value=61 time=16
control_change channel=0 control=64 value=63 time=15
control_change channel=0 control=64 value=63 time=16
control_change channel=0 control=64 value=64 time=15
control_change channel=0 control=64 value=65 time=14
control_change channel=0 control=64 value=65 time=23
control_change channel=0 control=64 value=66 time=15
control_change channel=0 control=64 value=67 time=16
control_change channel=0 control=64 value=68 time=15
control_change channel=0 control=64 value=69 time=15
control_change channel=0 control=64 value=70 time=15
control_change channel=0 control=64 value=71 time=15
control_change channel=0 control=64 value=71 time=16
control_change channel=0 control=64 value=72 time=15
control_change channel=0 control=64 value=73 time=14
note_on channel=0 note=66 velocity=45 time=8
control_change channel=0 control=64 value=74 time=8
note_on channel=0 note=62 velocity=28 time=1
control_change channel=0 control=64 value=75 time=14
control_change channel=0 control=64 value=75 time=15
control_change channel=0 control=64 value=76 time=16
control_change channel=0 control=64 value=77 time=15
control_change channel=0 control=64 value=78 time=16
control_change channel=0 control=64 value=79 time=15
control_change channel=0 control=64 value=81 time=15
control_change channel=0 control=64 value=82 time=15
control_change channel=0 control=64 value=83 time=15
control_change channel=0 control=64 value=85 time=15
control_change channel=0 control=64 value=87 time=16
control_change channel=0 control=64 value=88 time=14
control_change channel=0 control=64 value=89 time=16
control_change channel=0 control=64 value=91 time=15
control_change channel=0 control=64 value=92 time=15
control_change channel=0 control=64 value=95 time=16
control_change channel=0 control=64 value=97 time=14
control_change channel=0 control=64 value=99 time=17
control_change channel=0 control=64 value=101 time=15
control_change channel=0 control=64 value=102 time=15
control_change channel=0 control=64 value=104 time=16
control_change channel=0 control=64 value=105 time=15
control_change channel=0 control=64 value=107 time=14
control_change channel=0 control=64 value=109 time=16
note_on channel=0 note=71 velocity=54 time=6
control_change channel=0 control=64 value=110 time=9
control_change channel=0 control=64 value=110 time=16
note_on channel=0 note=62 velocity=0 time=143
control_change channel=0 control=64 value=110 time=197
control_change channel=0 control=64 value=109 time=15
control_change channel=0 control=64 value=109 time=16
control_change channel=0 control=64 value=108 time=14
note_on channel=0 note=54 velocity=40 time=1
note_on channel=0 note=61 velocity=41 time=2
control_change channel=0 control=64 value=107 time=13
control_change channel=0 control=64 value=105 time=15
control_change channel=0 control=64 value=104 time=15
control_change channel=0 control=64 value=102 time=16
control_change channel=0 control=64 value=101 time=15
control_change channel=0 control=64 value=99 time=16
control_change channel=0 control=64 value=98 time=14
control_change channel=0 control=64 value=96 time=15
control_change channel=0 control=64 value=94 time=16
control_change channel=0 control=64 value=92 time=15
control_change channel=0 control=64 value=90 time=15
control_change channel=0 control=64 value=86 time=15
control_change channel=0 control=64 value=75 time=15
control_change channel=0 control=64 value=46 time=16
control_change channel=0 control=64 value=0 time=15
control_change channel=0 control=64 value=11 time=153
control_change channel=0 control=64 value=45 time=15
control_change channel=0 control=64 value=55 time=14
control_change channel=0 control=64 value=60 time=16
control_change channel=0 control=64 value=62 time=15
control_change channel=0 control=64 value=64 time=16
control_change channel=0 control=64 value=65 time=14
note_on channel=0 note=71 velocity=0 time=8
control_change channel=0 control=64 value=67 time=7
control_change channel=0 control=64 value=68 time=16
note_on channel=0 note=69 velocity=39 time=8
control_change channel=0 control=64 value=70 time=7
control_change channel=0 control=64 value=71 time=16
control_change channel=0 control=64 value=72 time=14
control_change channel=0 control=64 value=73 time=15
control_change channel=0 control=64 value=74 time=16
control_change channel=0 control=64 value=75 time=23
control_change channel=0 control=64 value=77 time=16
control_change channel=0 control=64 value=78 time=14
control_change channel=0 control=64 value=80 time=15
control_change channel=0 control=64 value=82 time=16
control_change channel=0 control=64 value=84 time=14
control_change channel=0 control=64 value=86 time=16
control_change channel=0 control=64 value=87 time=15
control_change channel=0 control=64 value=89 time=15
control_change channel=0 control=64 value=90 time=16
control_change channel=0 control=64 value=91 time=14
note_on channel=0 note=69 velocity=0 time=7
note_on channel=0 note=74 velocity=49 time=4
control_change channel=0 control=67 value=127 time=65
control_change channel=0 control=67 value=126 time=15
control_change channel=0 control=67 value=124 time=16
control_change channel=0 control=67 value=122 time=15
control_change channel=0 control=67 value=121 time=15
control_change channel=0 control=67 value=120 time=31
control_change channel=0 control=64 value=90 time=16
control_change channel=0 control=64 value=89 time=14
control_change channel=0 control=64 value=89 time=15
control_change channel=0 control=64 value=88 time=16
control_change channel=0 control=64 value=87 time=15
note_on channel=0 note=62 velocity=46 time=9
control_change channel=0 control=64 value=84 time=5
note_on channel=0 note=61 velocity=0 time=10
control_change channel=0 control=64 value=80 time=6
control_change channel=0 control=64 value=74 time=15
control_change channel=0 control=64 value=67 time=16
control_change channel=0 control=64 value=57 time=15
control_change channel=0 control=64 value=53 time=14
control_change channel=0 control=64 value=58 time=16
control_change channel=0 control=67 value=120 time=0
control_change channel=0 control=64 value=61 time=15
control_change channel=0 control=64 value=62 time=17
control_change channel=0 control=67 value=119 time=0
control_change channel=0 control=64 value=63 time=15
control_change channel=0 control=64 value=64 time=15
control_change channel=0 control=67 value=119 time=0
control_change channel=0 control=64 value=65 time=15
control_change channel=0 control=67 value=118 time=0
control_change channel=0 control=64 value=67 time=15
control_change channel=0 control=67 value=115 time=0
control_change channel=0 control=64 value=68 time=15
control_change channel=0 control=67 value=112 time=0
control_change channel=0 control=64 value=69 time=16
control_change channel=0 control=67 value=109 time=0
control_change channel=0 control=64 value=71 time=15
control_change channel=0 control=67 value=107 time=0
control_change channel=0 control=64 value=72 time=15
control_change channel=0 control=67 value=103 time=0
control_change channel=0 control=64 value=74 time=15
control_change channel=0 control=67 value=100 time=0
control_change channel=0 control=64 value=75 time=15
control_change channel=0 control=67 value=96 time=0
control_change channel=0 control=64 value=77 time=16
control_change channel=0 control=67 value=93 time=0
control_change channel=0 control=64 value=79 time=14
control_change channel=0 control=67 value=89 time=0
control_change channel=0 control=64 value=81 time=15
control_change channel=0 control=67 value=85 time=0
control_change channel=0 control=64 value=82 time=16
control_change channel=0 control=67 value=81 time=0
control_change channel=0 control=64 value=84 time=23
control_change channel=0 control=67 value=76 time=0
control_change channel=0 control=64 value=86 time=16
control_change channel=0 control=67 value=72 time=0
control_change channel=0 control=64 value=88 time=14
control_change channel=0 control=67 value=69 time=0
control_change channel=0 control=64 value=91 time=16
control_change channel=0 control=67 value=66 time=0
control_change channel=0 control=64 value=93 time=15
control_change channel=0 control=67 value=63 time=0
control_change channel=0 control=64 value=94 time=15
control_change channel=0 control=67 value=61 time=0
control_change channel=0 control=64 value=95 time=16
control_change channel=0 control=67 value=58 time=0
control_change channel=0 control=64 value=96 time=14
control_change channel=0 control=67 value=56 time=0
note_on channel=0 note=73 velocity=62 time=1
control_change channel=0 control=67 value=54 time=14
note_on channel=0 note=74 velocity=0 time=10
control_change channel=0 control=64 value=97 time=6
control_change channel=0 control=67 value=52 time=0
control_change channel=0 control=64 value=98 time=14
control_change channel=0 control=67 value=50 time=0
control_change channel=0 control=64 value=99 time=16
control_change channel=0 control=67 value=48 time=0
control_change channel=0 control=64 value=100 time=15
control_change channel=0 control=67 value=48 time=0
note_on channel=0 note=62 velocity=0 time=2
control_change channel=0 control=64 value=100 time=13
control_change channel=0 control=67 value=47 time=0
control_change channel=0 control=67 value=46 time=16
control_change channel=0 control=64 value=101 time=14
control_change channel=0 control=67 value=46 time=0
control_change channel=0 control=64 value=102 time=16
control_change channel=0 control=67 value=45 time=0
control_change channel=0 control=64 value=103 time=15
control_change channel=0 control=67 value=45 time=0
control_change channel=0 control=64 value=104 time=15
control_change channel=0 control=67 value=44 time=0
control_change channel=0 control=67 value=43 time=15
control_change channel=0 control=67 value=42 time=15
control_change channel=0 control=67 value=41 time=15
control_change channel=0 control=67 value=40 time=16
control_change channel=0 control=67 value=39 time=15
control_change channel=0 control=67 value=38 time=16
control_change channel=0 control=67 value=37 time=15
control_change channel=0 control=67 value=36 time=14
control_change channel=0 control=67 value=35 time=16
control_change channel=0 control=67 value=34 time=15
control_change channel=0 control=67 value=32 time=15
control_change channel=0 control=67 value=31 time=16
control_change channel=0 control=67 value=30 time=15
control_change channel=0 control=67 value=28 time=15
control_change channel=0 control=67 value=27 time=15
control_change channel=0 control=67 value=26 time=15
control_change channel=0 control=67 value=25 time=16
control_change channel=0 control=67 value=24 time=15
control_change channel=0 control=67 value=24 time=14
control_change channel=0 control=67 value=23 time=17
control_change channel=0 control=64 value=104 time=15
control_change channel=0 control=67 value=23 time=0
control_change channel=0 control=67 value=22 time=16
control_change channel=0 control=64 value=103 time=15
control_change channel=0 control=67 value=21 time=0
control_change channel=0 control=64 value=103 time=15
control_change channel=0 control=67 value=20 time=0
control_change channel=0 control=64 value=102 time=15
control_change channel=0 control=64 value=101 time=15
control_change channel=0 control=67 value=20 time=0
control_change channel=0 control=64 value=100 time=16
control_change channel=0 control=64 value=99 time=15
control_change channel=0 control=64 value=99 time=14
control_change channel=0 control=64 value=98 time=16
control_change channel=0 control=64 value=98 time=15
control_change channel=0 control=64 value=97 time=23
control_change channel=0 control=64 value=95 time=15
control_change channel=0 control=64 value=94 time=15
note_on channel=0 note=72 velocity=45 time=11
control_change channel=0 control=64 value=92 time=5
note_on channel=0 note=63 velocity=29 time=5
note_on channel=0 note=56 velocity=37 time=4
control_change channel=0 control=64 value=90 time=6
note_on channel=0 note=73 velocity=0 time=6
control_change channel=0 control=64 value=87 time=10
control_change channel=0 control=64 value=83 time=15
control_change channel=0 control=64 value=80 time=14
control_change channel=0 control=64 value=76 time=16
note_on channel=0 note=54 velocity=0 time=4
control_change channel=0 control=64 value=71 time=11
control_change channel=0 control=64 value=63 time=14
control_change channel=0 control=64 value=36 time=16
control_change channel=0 control=64 value=0 time=15
control_change channel=0 control=67 value=20 time=152
control_change channel=0 control=67 value=21 time=14
control_change channel=0 control=67 value=22 time=16
control_change channel=0 control=67 value=23 time=15
control_change channel=0 control=64 value=17 time=16
control_change channel=0 control=67 value=24 time=0
control_change channel=0 control=64 value=31 time=15
control_change channel=0 control=67 value=24 time=0
control_change channel=0 control=64 value=45 time=15
control_change channel=0 control=67 value=25 time=0
control_change channel=0 control=64 value=56 time=15
control_change channel=0 control=67 value=26 time=0
control_change channel=0 control=64 value=61 time=15
control_change channel=0 control=67 value=27 time=0
control_change channel=0 control=64 value=64 time=15
control_change channel=0 control=67 value=28 time=0
control_change channel=0 control=64 value=65 time=16
control_change channel=0 control=64 value=66 time=15
control_change channel=0 control=67 value=29 time=0
control_change channel=0 control=64 value=67 time=16
control_change channel=0 control=67 value=29 time=0
control_change channel=0 control=64 value=69 time=15
control_change channel=0 control=67 value=30 time=0
control_change channel=0 control=64 value=71 time=15
control_change channel=0 control=64 value=72 time=15
control_change channel=0 control=64 value=74 time=15
control_change channel=0 control=67 value=30 time=0
control_change channel=0 control=64 value=76 time=15
control_change channel=0 control=64 value=78 time=16
control_change channel=0 control=67 value=31 time=0
control_change channel=0 control=64 value=80 time=15
control_change channel=0 control=64 value=82 time=17
control_change channel=0 control=64 value=83 time=14
control_change channel=0 control=64 value=86 time=15
control_change channel=0 control=64 value=88 time=16
control_change channel=0 control=64 value=89 time=15
control_change channel=0 control=64 value=90 time=16
control_change channel=0 control=67 value=31 time=0
control_change channel=0 control=64 value=92 time=15
control_change channel=0 control=64 value=93 time=14
control_change channel=0 control=64 value=95 time=24
control_change channel=0 control=64 value=97 time=15
control_change channel=0 control=67 value=32 time=0
control_change channel=0 control=64 value=98 time=15
control_change channel=0 control=64 value=99 time=15
control_change channel=0 control=64 value=100 time=15
control_change channel=0 control=64 value=101 time=16
control_change channel=0 control=67 value=32 time=0
note_on channel=0 note=80 velocity=44 time=12
control_change channel=0 control=64 value=102 time=3
control_change channel=0 control=64 value=102 time=15
control_change channel=0 control=64 value=103 time=30
control_change channel=0 control=67 value=33 time=0
control_change channel=0 control=64 value=103 time=31
control_change channel=0 control=67 value=33 time=76
control_change channel=0 control=67 value=34 time=91
note_on channel=0 note=80 velocity=0 time=62
control_change channel=0 control=67 value=34 time=14
control_change channel=0 control=67 value=35 time=14
note_on channel=0 note=66 velocity=0 time=6
note_on channel=0 note=72 velocity=0 time=9
control_change channel=0 control=67 value=35 time=1
control_change channel=0 control=67 value=36 time=15
control_change channel=0 control=67 value=36 time=16
control_change channel=0 control=67 value=37 time=15
note_on channel=0 note=56 velocity=0 time=29
control_change channel=0 control=67 value=37 time=16
note_on channel=0 note=63 velocity=0 time=76
control_change channel=0 control=64 value=103 time=45
control_change channel=0 control=64 value=102 time=16
control_change channel=0 control=64 value=102 time=16
control_change channel=0 control=64 value=101 time=15
control_change channel=0 control=64 value=101 time=16
control_change channel=0 control=64 value=100 time=14
control_change channel=0 control=64 value=99 time=15
control_change channel=0 control=64 value=98 time=24
control_change channel=0 control=64 value=98 time=15
control_change channel=0 control=64 value=96 time=16
control_change channel=0 control=64 value=95 time=14
control_change channel=0 control=64 value=94 time=16
control_change channel=0 control=64 value=92 time=15
control_change channel=0 control=64 value=90 time=15
control_change channel=0 control=64 value=88 time=15
control_change channel=0 control=64 value=87 time=15
control_change channel=0 control=64 value=84 time=15
control_change channel=0 control=64 value=82 time=16
control_change channel=0 control=64 value=80 time=15
control_change channel=0 control=64 value=77 time=15
control_change channel=0 control=64 value=75 time=15
control_change channel=0 control=64 value=73 time=15
control_change channel=0 control=64 value=72 time=15
control_change channel=0 control=67 value=37 time=0
control_change channel=0 control=64 value=70 time=15
control_change channel=0 control=64 value=69 time=16
control_change channel=0 control=64 value=68 time=15
control_change channel=0 control=64 value=67 time=15
control_change channel=0 control=64 value=66 time=31
control_change channel=0 control=64 value=65 time=14
control_change channel=0 control=64 value=64 time=16
control_change channel=0 control=64 value=64 time=15
control_change channel=0 control=64 value=63 time=16
control_change channel=0 control=64 value=62 time=15
control_change channel=0 control=64 value=32 time=15
control_change channel=0 control=64 value=0 time=15
control_change channel=0 control=64 value=56 time=106
control_change channel=0 control=67 value=36 time=0
control_change channel=0 control=64 value=66 time=16
control_change channel=0 control=64 value=69 time=15
control_change channel=0 control=64 value=71 time=14
control_change channel=0 control=67 value=36 time=0
control_change channel=0 control=64 value=73 time=16
control_change channel=0 control=64 value=76 time=15
control_change channel=0 control=64 value=79 time=16
control_change channel=0 control=64 value=83 time=14
control_change channel=0 control=64 value=85 time=14
control_change channel=0 control=64 value=87 time=16
control_change channel=0 control=64 value=89 time=15
control_change channel=0 control=64 value=91 time=18
note_on channel=0 note=80 velocity=60 time=12
control_change channel=0 control=64 value=94 time=5
control_change channel=0 control=64 value=96 time=16
control_change channel=0 control=64 value=97 time=15
control_change channel=0 control=67 value=35 time=0
control_change channel=0 control=64 value=99 time=24
control_change channel=0 control=64 value=101 time=15
control_change channel=0 control=67 value=35 time=0
control_change channel=0 control=64 value=103 time=15
control_change channel=0 control=67 value=34 time=0
note_on channel=0 note=80 velocity=0 time=3
control_change channel=0 control=64 value=106 time=12
control_change channel=0 control=64 value=110 time=15
control_change channel=0 control=64 value=115 time=16
control_change channel=0 control=64 value=126 time=15
control_change channel=0 control=67 value=34 time=0
note_on channel=0 note=80 velocity=59 time=10
control_change channel=0 control=64 value=127 time=4
control_change channel=0 control=67 value=33 time=62
control_change channel=0 control=67 value=33 time=60
control_change channel=0 control=67 value=32 time=30
control_change channel=0 control=67 value=32 time=62
note_on channel=0 note=80 velocity=0 time=0
note_on channel=0 note=81 velocity=62 time=25
control_change channel=0 control=67 value=31 time=5
control_change channel=0 control=67 value=30 time=61
note_on channel=0 note=81 velocity=0 time=3
note_on channel=0 note=80 velocity=64 time=25
note_on channel=0 note=80 velocity=0 time=26
control_change channel=0 control=67 value=30 time=6
note_on channel=0 note=81 velocity=66 time=30
control_change channel=0 control=67 value=29 time=16
note_on channel=0 note=81 velocity=0 time=15
note_on channel=0 note=80 velocity=64 time=32
note_on channel=0 note=80 velocity=0 time=27
control_change channel=0 control=67 value=29 time=17
note_on channel=0 note=81 velocity=73 time=3
control_change channel=0 control=67 value=28 time=27
note_on channel=0 note=81 velocity=0 time=7
note_on channel=0 note=80 velocity=73 time=15
control_change channel=0 control=67 value=28 time=38
note_on channel=0 note=80 velocity=0 time=6
note_on channel=0 note=81 velocity=70 time=3
control_change channel=0 control=67 value=27 time=7
control_change channel=0 control=67 value=27 time=30
control_change channel=0 control=67 value=26 time=23
note_on channel=0 note=81 velocity=0 time=4
note_on channel=0 note=80 velocity=65 time=3
control_change channel=0 control=67 value=25 time=8
control_change channel=0 control=67 value=25 time=17
note_on channel=0 note=81 velocity=59 time=0
note_on channel=0 note=80 velocity=0 time=8
control_change channel=0 control=67 value=24 time=6
control_change channel=0 control=67 value=21 time=15
control_change channel=0 control=67 value=19 time=16
control_change channel=0 control=67 value=14 time=15
note_on channel=0 note=81 velocity=0 time=5
note_on channel=0 note=80 velocity=79 time=3
control_change channel=0 control=67 value=8 time=8
control_change channel=0 control=67 value=0 time=15
note_on channel=0 note=81 velocity=61 time=13
note_on channel=0 note=80 velocity=0 time=6
note_on channel=0 note=80 velocity=87 time=61
note_on channel=0 note=81 velocity=0 time=5
control_change channel=0 control=64 value=103 time=66
note_on channel=0 note=80 velocity=0 time=3
note_on channel=0 note=78 velocity=88 time=6
control_change channel=0 control=64 value=93 time=6
control_change channel=0 control=64 value=94 time=31
control_change channel=0 control=64 value=97 time=15
control_change channel=0 control=64 value=104 time=16
note_on channel=0 note=54 velocity=66 time=6
control_change channel=0 control=64 value=114 time=9
control_change channel=0 control=64 value=127 time=14
note_on channel=0 note=80 velocity=88 time=37
note_on channel=0 note=78 velocity=0 time=6
note_on channel=0 note=59 velocity=69 time=8
note_on channel=0 note=62 velocity=69 time=69
note_on channel=0 note=54 velocity=0 time=15
control_change channel=0 control=64 value=104 time=108
control_change channel=0 control=64 value=92 time=17
control_change channel=0 control=64 value=87 time=14
note_on channel=0 note=83 velocity=95 time=12
control_change channel=0 control=64 value=88 time=4
note_on channel=0 note=68 velocity=69 time=4
control_change channel=0 control=64 value=89 time=11
note_on channel=0 note=80 velocity=0 time=0
control_change channel=0 control=64 value=92 time=15
control_change channel=0 control=64 value=98 time=15
control_change channel=0 control=64 value=104 time=15
control_change channel=0 control=64 value=109 time=16
control_change channel=0 control=64 value=110 time=23
control_change channel=0 control=64 value=111 time=15
control_change channel=0 control=64 value=111 time=46
control_change channel=0 control=64 value=112 time=31
control_change channel=0 control=64 value=112 time=121
control_change channel=0 control=64 value=113 time=31
control_change channel=0 control=64 value=114 time=30
control_change channel=0 control=64 value=115 time=15
control_change channel=0 control=64 value=118 time=16
control_change channel=0 control=64 value=120 time=15
control_change channel=0 control=64 value=122 time=14
control_change channel=0 control=64 value=124 time=16
control_change channel=0 control=64 value=126 time=15
control_change channel=0 control=64 value=127 time=15
note_on channel=0 note=68 velocity=0 time=268
note_on channel=0 note=81 velocity=63 time=767
note_on channel=0 note=83 velocity=0 time=59
control_change channel=0 control=64 value=120 time=290
control_change channel=0 control=64 value=116 time=16
control_change channel=0 control=64 value=113 time=15
control_change channel=0 control=64 value=112 time=14
control_change channel=0 control=64 value=110 time=16
control_change channel=0 control=64 value=108 time=15
control_change channel=0 control=64 value=105 time=15
control_change channel=0 control=64 value=102 time=15
control_change channel=0 control=64 value=99 time=15
note_on channel=0 note=53 velocity=43 time=10
note_on channel=0 note=80 velocity=51 time=1
control_change channel=0 control=64 value=95 time=5
control_change channel=0 control=64 value=87 time=15
control_change channel=0 control=64 value=78 time=15
note_on channel=0 note=59 velocity=0 time=11
note_on channel=0 note=81 velocity=0 time=3
control_change channel=0 control=64 value=67 time=1
note_on channel=0 note=62 velocity=0 time=5
control_change channel=0 control=64 value=37 time=10
control_change channel=0 control=64 value=35 time=15
control_change channel=0 control=64 value=49 time=16
control_change channel=0 control=64 value=56 time=15
control_change channel=0 control=64 value=60 time=15
control_change channel=0 control=64 value=63 time=15
control_change channel=0 control=64 value=64 time=15
control_change channel=0 control=64 value=66 time=15
control_change channel=0 control=64 value=68 time=15
control_change channel=0 control=64 value=70 time=16
control_change channel=0 control=64 value=71 time=15
control_change channel=0 control=64 value=73 time=15
control_change channel=0 control=64 value=74 time=16
control_change channel=0 control=64 value=76 time=15
control_change channel=0 control=64 value=78 time=15
control_change channel=0 control=64 value=80 time=15
control_change channel=0 control=64 value=82 time=15
control_change channel=0 control=64 value=84 time=16
control_change channel=0 control=64 value=85 time=15
control_change channel=0 control=64 value=88 time=15
control_change channel=0 control=64 value=90 time=15
control_change channel=0 control=64 value=92 time=15
control_change channel=0 control=64 value=93 time=23
control_change channel=0 control=64 value=94 time=15
note_on channel=0 note=80 velocity=0 time=4
control_change channel=0 control=64 value=95 time=11
control_change channel=0 control=64 value=95 time=16
control_change channel=0 control=64 value=96 time=30
note_on channel=0 note=53 velocity=0 time=44
control_change channel=0 control=64 value=96 time=17
control_change channel=0 control=64 value=97 time=45
control_change channel=0 control=64 value=96 time=139
note_on channel=0 note=71 velocity=45 time=50
control_change channel=0 control=64 value=96 time=55
control_change channel=0 control=64 value=95 time=16
control_change channel=0 control=64 value=95 time=15
control_change channel=0 control=64 value=94 time=30
control_change channel=0 control=64 value=93 time=31
control_change channel=0 control=64 value=93 time=14
control_change channel=0 control=64 value=92 time=15
control_change channel=0 control=64 value=92 time=16
control_change channel=0 control=64 value=91 time=15
control_change channel=0 control=64 value=91 time=15
note_on channel=0 note=73 velocity=61 time=18
control_change channel=0 control=64 value=90 time=12
control_change channel=0 control=64 value=90 time=17
control_change channel=0 control=64 value=89 time=15
control_change channel=0 control=64 value=88 time=15
control_change channel=0 control=64 value=88 time=15
control_change channel=0 control=64 value=87 time=15
control_change channel=0 control=64 value=86 time=16
control_change channel=0 control=64 value=85 time=14
control_change channel=0 control=64 value=85 time=15
control_change channel=0 control=64 value=84 time=24
control_change channel=0 control=64 value=84 time=15
control_change channel=0 control=64 value=83 time=16
control_change channel=0 control=64 value=82 time=14
control_change channel=0 control=64 value=81 time=15
control_change channel=0 control=64 value=80 time=16
note_on channel=0 note=76 velocity=59 time=2
control_change channel=0 control=64 value=79 time=13
note_on channel=0 note=71 velocity=0 time=13
control_change channel=0 control=64 value=77 time=3
note_on channel=0 note=73 velocity=0 time=10
control_change channel=0 control=64 value=76 time=5
control_change channel=0 control=64 value=75 time=14
control_change channel=0 control=64 value=75 time=16
control_change channel=0 control=64 value=74 time=15
control_change channel=0 control=64 value=73 time=14
control_change channel=0 control=64 value=72 time=16
control_change channel=0 control=64 value=70 time=15
control_change channel=0 control=64 value=66 time=16
control_change channel=0 control=64 value=63 time=15
control_change channel=0 control=64 value=60 time=14
control_change channel=0 control=64 value=61 time=32
note_on channel=0 note=74 velocity=64 time=8
control_change channel=0 control=64 value=62 time=7
control_change channel=0 control=64 value=63 time=16
note_on channel=0 note=76 velocity=0 time=5
control_change channel=0 control=64 value=63 time=10
control_change channel=0 control=64 value=64 time=30
control_change channel=0 control=64 value=65 time=15
control_change channel=0 control=64 value=65 time=16
control_change channel=0 control=64 value=66 time=14
control_change channel=0 control=64 value=68 time=16
note_on channel=0 note=74 velocity=0 time=3
note_on channel=0 note=68 velocity=65 time=10
control_change channel=0 control=64 value=69 time=2
control_change channel=0 control=64 value=70 time=15
control_change channel=0 control=64 value=72 time=16
control_change channel=0 control=64 value=73 time=15
control_change channel=0 control=64 value=74 time=15
control_change channel=0 control=64 value=75 time=16
control_change channel=0 control=64 value=76 time=15
control_change channel=0 control=64 value=78 time=16
note_on channel=0 note=73 velocity=76 time=10
control_change channel=0 control=64 value=79 time=4
control_change channel=0 control=64 value=80 time=15
control_change channel=0 control=64 value=80 time=16
note_on channel=0 note=68 velocity=0 time=3
control_change channel=0 control=64 value=81 time=42
note_on channel=0 note=71 velocity=76 time=33
control_change channel=0 control=64 value=80 time=27
control_change channel=0 control=64 value=80 time=16
note_on channel=0 note=73 velocity=0 time=2
control_change channel=0 control=64 value=79 time=13
note_on channel=0 note=71 velocity=0 time=47
note_on channel=0 note=65 velocity=76 time=12
control_change channel=0 control=64 value=80 time=55
control_change channel=0 control=64 value=80 time=31
note_on channel=0 note=69 velocity=78 time=20
control_change channel=0 control=64 value=80 time=25
note_on channel=0 note=65 velocity=0 time=1
control_change channel=0 control=64 value=78 time=14
control_change channel=0 control=64 value=75 time=15
control_change channel=0 control=64 value=71 time=15
control_change channel=0 control=64 value=68 time=15
control_change channel=0 control=64 value=68 time=16
control_change channel=0 control=64 value=69 time=15
note_on channel=0 note=68 velocity=81 time=12
control_change channel=0 control=64 value=69 time=3
control_change channel=0 control=64 value=70 time=15
note_on channel=0 note=69 velocity=0 time=2
control_change channel=0 control=64 value=71 time=13
control_change channel=0 control=64 value=72 time=16
control_change channel=0 control=64 value=74 time=15
control_change channel=0 control=64 value=75 time=16
control_change channel=0 control=64 value=76 time=16
control_change channel=0 control=64 value=74 time=30
note_on channel=0 note=68 velocity=0 time=10
control_change channel=0 control=64 value=72 time=5
control_change channel=0 control=64 value=70 time=15
note_on channel=0 note=61 velocity=85 time=2
control_change channel=0 control=64 value=70 time=13
control_change channel=0 control=64 value=70 time=15
control_change channel=0 control=64 value=71 time=15
control_change channel=0 control=64 value=72 time=16
control_change channel=0 control=64 value=73 time=14
control_change channel=0 control=64 value=74 time=16
control_change channel=0 control=64 value=75 time=15
control_change channel=0 control=64 value=75 time=15
control_change channel=0 control=64 value=76 time=16
control_change channel=0 control=64 value=77 time=15
control_change channel=0 control=64 value=74 time=45
note_on channel=0 note=64 velocity=79 time=15
control_change channel=0 control=64 value=69 time=1
note_on channel=0 note=61 velocity=0 time=9
control_change channel=0 control=64 value=59 time=5
control_change channel=0 control=64 value=44 time=15
control_change channel=0 control=64 value=55 time=16
control_change channel=0 control=64 value=61 time=14
control_change channel=0 control=64 value=65 time=16
control_change channel=0 control=64 value=68 time=15
control_change channel=0 control=64 value=71 time=15
control_change channel=0 control=64 value=73 time=16
control_change channel=0 control=64 value=75 time=22
control_change channel=0 control=64 value=76 time=16
control_change channel=0 control=64 value=78 time=15
control_change channel=0 control=64 value=79 time=14
control_change channel=0 control=64 value=80 time=16
note_on channel=0 note=64 velocity=0 time=8
control_change channel=0 control=64 value=81 time=7
control_change channel=0 control=64 value=82 time=16
control_change channel=0 control=64 value=81 time=15
control_change channel=0 control=64 value=79 time=14
control_change channel=0 control=64 value=75 time=16
note_on channel=0 note=62 velocity=78 time=7
control_change channel=0 control=64 value=68 time=8
control_change channel=0 control=64 value=65 time=15
control_change channel=0 control=64 value=66 time=16
control_change channel=0 control=64 value=67 time=14
control_change channel=0 control=64 value=69 time=16
control_change channel=0 control=64 value=71 time=15
control_change channel=0 control=64 value=74 time=15
control_change channel=0 control=64 value=76 time=15
control_change channel=0 control=64 value=78 time=15
control_change channel=0 control=64 value=79 time=15
control_change channel=0 control=64 value=81 time=16
control_change channel=0 control=64 value=81 time=15
control_change channel=0 control=64 value=80 time=15
control_change channel=0 control=64 value=77 time=15
control_change channel=0 control=64 value=72 time=15
note_on channel=0 note=61 velocity=77 time=13
control_change channel=0 control=64 value=67 time=4
note_on channel=0 note=62 velocity=0 time=30
control_change channel=0 control=64 value=68 time=1
control_change channel=0 control=64 value=69 time=14
control_change channel=0 control=64 value=70 time=15
control_change channel=0 control=64 value=72 time=16
control_change channel=0 control=64 value=74 time=15
control_change channel=0 control=64 value=75 time=14
control_change channel=0 control=64 value=74 time=16
control_change channel=0 control=64 value=72 time=15
control_change channel=0 control=64 value=68 time=16
control_change channel=0 control=64 value=64 time=15
note_on channel=0 note=59 velocity=72 time=29
control_change channel=0 control=64 value=66 time=2
note_on channel=0 note=61 velocity=0 time=12
control_change channel=0 control=64 value=67 time=3
control_change channel=0 control=64 value=69 time=15
control_change channel=0 control=64 value=72 time=15
control_change channel=0 control=64 value=75 time=15
control_change channel=0 control=64 value=75 time=16
control_change channel=0 control=64 value=74 time=15
control_change channel=0 control=64 value=71 time=14
control_change channel=0 control=64 value=68 time=16
control_change channel=0 control=64 value=69 time=15
control_change channel=0 control=64 value=71 time=16
control_change channel=0 control=64 value=72 time=15
note_on channel=0 note=62 velocity=69 time=20
control_change channel=0 control=64 value=74 time=2
control_change channel=0 control=64 value=75 time=15
control_change channel=0 control=64 value=74 time=15
note_on channel=0 note=59 velocity=0 time=7
control_change channel=0 control=64 value=74 time=9
control_change channel=0 control=64 value=75 time=30
note_on channel=0 note=66 velocity=72 time=26
control_change channel=0 control=64 value=74 time=5
control_change channel=0 control=64 value=73 time=14
note_on channel=0 note=62 velocity=0 time=20
control_change channel=0 control=64 value=74 time=11
note_on channel=0 note=69 velocity=74 time=43
note_on channel=0 note=66 velocity=0 time=17
control_change channel=0 control=64 value=74 time=1
control_change channel=0 control=64 value=75 time=15
note_on channel=0 note=69 velocity=0 time=6
control_change channel=0 control=64 value=75 time=10
control_change channel=0 control=64 value=75 time=45
note_on channel=0 note=68 velocity=85 time=2
control_change channel=0 control=64 value=74 time=58
note_on channel=0 note=71 velocity=82 time=27
note_on channel=0 note=68 velocity=0 time=15
control_change channel=0 control=64 value=75 time=4
control_change channel=0 control=64 value=75 time=15
control_change channel=0 control=64 value=75 time=16
control_change channel=0 control=64 value=71 time=15
note_on channel=0 note=74 velocity=82 time=15
control_change channel=0 control=64 value=65 time=1
control_change channel=0 control=64 value=64 time=15
control_change channel=0 control=64 value=65 time=16
note_on channel=0 note=71 velocity=0 time=12
control_change channel=0 control=64 value=67 time=3
control_change channel=0 control=64 value=71 time=14
note_on channel=0 note=78 velocity=86 time=15
control_change channel=0 control=64 value=75 time=1
control_change channel=0 control=64 value=81 time=15
note_on channel=0 note=74 velocity=0 time=2
control_change channel=0 control=64 value=86 time=13
control_change channel=0 control=64 value=87 time=15
note_on channel=0 note=78 velocity=0 time=13
control_change channel=0 control=64 value=82 time=2
control_change channel=0 control=64 value=71 time=16
control_change channel=0 control=64 value=64 time=15
note_on channel=0 note=77 velocity=90 time=4
control_change channel=0 control=64 value=65 time=11
control_change channel=0 control=64 value=68 time=16
control_change channel=0 control=64 value=72 time=15
control_change channel=0 control=64 value=78 time=16
control_change channel=0 control=64 value=85 time=15
control_change channel=0 control=64 value=88 time=14
note_on channel=0 note=80 velocity=89 time=3
control_change channel=0 control=64 value=86 time=13
note_on channel=0 note=77 velocity=0 time=0
control_change channel=0 control=64 value=76 time=15
control_change channel=0 control=64 value=66 time=23
control_change channel=0 control=64 value=67 time=15
control_change channel=0 control=64 value=72 time=15
control_change channel=0 control=64 value=78 time=16
note_on channel=0 note=83 velocity=88 time=4
control_change channel=0 control=64 value=87 time=11
control_change channel=0 control=64 value=95 time=15
note_on channel=0 note=80 velocity=0 time=3
control_change channel=0 control=64 value=99 time=12
control_change channel=0 control=64 value=95 time=15
control_change channel=0 control=64 value=78 time=15
control_change channel=0 control=64 value=71 time=15
control_change channel=0 control=64 value=77 time=15
note_on channel=0 note=86 velocity=98 time=15
control_change channel=0 control=64 value=88 time=1
note_on channel=0 note=83 velocity=0 time=12
control_change channel=0 control=64 value=103 time=3
control_change channel=0 control=64 value=127 time=16
note_on channel=0 note=86 velocity=0 time=99
note_on channel=0 note=86 velocity=101 time=85
note_on channel=0 note=74 velocity=85 time=7
control_change channel=0 control=64 value=99 time=265
control_change channel=0 control=64 value=65 time=15
control_change channel=0 control=64 value=0 time=16
note_on channel=0 note=37 velocity=72 time=17
control_change channel=0 control=64 value=38 time=43
control_change channel=0 control=64 value=66 time=23
control_change channel=0 control=64 value=73 time=15
control_change channel=0 control=64 value=80 time=16
control_change channel=0 control=64 value=85 time=15
control_change channel=0 control=64 value=90 time=15
note_on channel=0 note=74 velocity=0 time=0
control_change channel=0 control=64 value=95 time=15
control_change channel=0 control=64 value=100 time=15
control_change channel=0 control=64 value=106 time=16
control_change channel=0 control=64 value=118 time=15
control_change channel=0 control=64 value=127 time=15
note_on channel=0 note=86 velocity=0 time=65
note_on channel=0 note=44 velocity=81 time=26
note_on channel=0 note=37 velocity=0 time=176
note_on channel=0 note=86 velocity=95 time=55
note_on channel=0 note=49 velocity=78 time=4
note_on channel=0 note=74 velocity=82 time=3
note_on channel=0 note=44 velocity=0 time=7
note_on channel=0 note=49 velocity=0 time=61
note_on channel=0 note=74 velocity=0 time=62
note_on channel=0 note=86 velocity=0 time=7
note_on channel=0 note=54 velocity=75 time=71
note_on channel=0 note=86 velocity=89 time=10
note_on channel=0 note=74 velocity=82 time=5
note_on channel=0 note=74 velocity=0 time=91
note_on channel=0 note=86 velocity=0 time=19
control_change channel=0 control=64 value=116 time=60
control_change channel=0 control=64 value=105 time=16
note_on channel=0 note=56 velocity=82 time=0
note_on channel=0 note=74 velocity=90 time=9
note_on channel=0 note=86 velocity=91 time=3
control_change channel=0 control=64 value=103 time=3
note_on channel=0 note=54 velocity=0 time=31
note_on channel=0 note=74 velocity=0 time=11
control_change channel=0 control=64 value=106 time=3
note_on channel=0 note=86 velocity=0 time=6
control_change channel=0 control=64 value=110 time=10
control_change channel=0 control=64 value=117 time=15
control_change channel=0 control=64 value=119 time=15
control_change channel=0 control=64 value=119 time=15
control_change channel=0 control=64 value=117 time=15
note_on channel=0 note=56 velocity=0 time=15
control_change channel=0 control=64 value=109 time=1
note_on channel=0 note=61 velocity=86 time=8
note_on channel=0 note=86 velocity=92 time=1
note_on channel=0 note=74 velocity=93 time=2
control_change channel=0 control=64 value=104 time=4
control_change channel=0 control=64 value=103 time=14
note_on channel=0 note=74 velocity=0 time=24
note_on channel=0 note=86 velocity=0 time=3
control_change channel=0 control=64 value=105 time=19
note_on channel=0 note=61 velocity=0 time=2
control_change channel=0 control=64 value=108 time=14
control_change channel=0 control=64 value=105 time=45
note_on channel=0 note=66 velocity=82 time=6
note_on channel=0 note=86 velocity=96 time=3
note_on channel=0 note=74 velocity=91 time=3
control_change channel=0 control=64 value=99 time=3
control_change channel=0 control=64 value=91 time=16
control_change channel=0 control=64 value=90 time=14
note_on channel=0 note=74 velocity=0 time=13
note_on channel=0 note=86 velocity=0 time=1
control_change channel=0 control=64 value=91 time=1
control_change channel=0 control=64 value=94 time=16
control_change channel=0 control=64 value=98 time=15
control_change channel=0 control=64 value=101 time=16
control_change channel=0 control=64 value=98 time=30
note_on channel=0 note=68 velocity=85 time=10
control_change channel=0 control=64 value=94 time=6
note_on channel=0 note=86 velocity=93 time=1
note_on channel=0 note=74 velocity=88 time=2
control_change channel=0 control=64 value=92 time=11
note_on channel=0 note=66 velocity=0 time=22
note_on channel=0 note=74 velocity=0 time=17
note_on channel=0 note=86 velocity=0 time=1
control_change channel=0 control=64 value=93 time=6
control_change channel=0 control=64 value=95 time=16
control_change channel=0 control=64 value=98 time=15
control_change channel=0 control=64 value=98 time=15
control_change channel=0 control=64 value=97 time=16
control_change channel=0 control=64 value=93 time=15
note_on channel=0 note=68 velocity=0 time=3
note_on channel=0 note=73 velocity=97 time=6
note_on channel=0 note=74 velocity=94 time=5
note_on channel=0 note=86 velocity=92 time=1
control_change channel=0 control=64 value=89 time=1
control_change channel=0 control=64 value=88 time=14
control_change channel=0 control=64 value=89 time=53
control_change channel=0 control=64 value=91 time=16
control_change channel=0 control=64 value=92 time=14
control_change channel=0 control=64 value=92 time=31
control_change channel=0 control=64 value=93 time=15
control_change channel=0 control=64 value=94 time=16
control_change channel=0 control=64 value=95 time=15
note_on channel=0 note=74 velocity=0 time=1
note_on channel=0 note=86 velocity=0 time=7
control_change channel=0 control=64 value=95 time=7
control_change channel=0 control=64 value=96 time=16
control_change channel=0 control=64 value=97 time=14
control_change channel=0 control=64 value=98 time=15
control_change channel=0 control=64 value=97 time=31
note_on channel=0 note=78 velocity=86 time=12
control_change channel=0 control=64 value=89 time=4
note_on channel=0 note=74 velocity=91 time=2
note_on channel=0 note=86 velocity=95 time=1
control_change channel=0 control=64 value=77 time=11
control_change channel=0 control=64 value=68 time=15
note_on channel=0 note=73 velocity=0 time=1
control_change channel=0 control=64 value=69 time=15
control_change channel=0 control=64 value=71 time=14
control_change channel=0 control=64 value=73 time=15
control_change channel=0 control=64 value=76 time=16
control_change channel=0 control=64 value=81 time=15
control_change channel=0 control=64 value=85 time=16
control_change channel=0 control=64 value=87 time=14
control_change channel=0 control=64 value=88 time=15
control_change channel=0 control=64 value=89 time=16
control_change channel=0 control=64 value=91 time=15
control_change channel=0 control=64 value=92 time=16
control_change channel=0 control=64 value=93 time=14
control_change channel=0 control=64 value=94 time=15
control_change channel=0 control=64 value=95 time=16
control_change channel=0 control=64 value=96 time=15
control_change channel=0 control=64 value=97 time=14
control_change channel=0 control=64 value=98 time=16
control_change channel=0 control=64 value=98 time=15
control_change channel=0 control=64 value=99 time=31
control_change channel=0 control=64 value=99 time=15
control_change channel=0 control=64 value=100 time=16
control_change channel=0 control=64 value=100 time=15
control_change channel=0 control=64 value=100 time=372
control_change channel=0 control=64 value=99 time=30
control_change channel=0 control=64 value=99 time=31
control_change channel=0 control=64 value=98 time=31
control_change channel=0 control=64 value=98 time=29
control_change channel=0 control=64 value=97 time=30
control_change channel=0 control=64 value=97 time=31
control_change channel=0 control=64 value=96 time=15
control_change channel=0 control=67 value=9 time=0
control_change channel=0 control=67 value=10 time=16
control_change channel=0 control=64 value=96 time=14
control_change channel=0 control=67 value=11 time=0
control_change channel=0 control=67 value=12 time=15
control_change channel=0 control=64 value=95 time=16
control_change channel=0 control=67 value=13 time=0
control_change channel=0 control=64 value=94 time=15
control_change channel=0 control=67 value=14 time=0
control_change channel=0 control=67 value=16 time=16
control_change channel=0 control=64 value=94 time=14
control_change channel=0 control=67 value=17 time=0
control_change channel=0 control=67 value=19 time=15
control_change channel=0 control=67 value=21 time=16
control_change channel=0 control=64 value=93 time=15
control_change channel=0 control=67 value=23 time=0
control_change channel=0 control=64 value=93 time=16
control_change channel=0 control=67 value=25 time=0
control_change channel=0 control=67 value=25 time=15
control_change channel=0 control=64 value=92 time=15
control_change channel=0 control=67 value=27 time=0
control_change channel=0 control=64 value=92 time=16
control_change channel=0 control=67 value=28 time=0
control_change channel=0 control=67 value=29 time=15
control_change channel=0 control=64 value=91 time=15
control_change channel=0 control=67 value=30 time=0
control_change channel=0 control=64 value=91 time=16
control_change channel=0 control=67 value=31 time=0
control_change channel=0 control=64 value=90 time=14
control_change channel=0 control=67 value=32 time=0
control_change channel=0 control=67 value=33 time=17
control_change channel=0 control=64 value=90 time=15
control_change channel=0 control=67 value=35 time=0
control_change channel=0 control=64 value=89 time=15
control_change channel=0 control=67 value=36 time=0
control_change channel=0 control=64 value=89 time=16
control_change channel=0 control=67 value=37 time=0
control_change channel=0 control=64 value=88 time=14
control_change channel=0 control=67 value=38 time=0
control_change channel=0 control=64 value=88 time=24
control_change channel=0 control=67 value=39 time=0
control_change channel=0 control=64 value=87 time=15
control_change channel=0 control=67 value=41 time=0
control_change channel=0 control=64 value=87 time=14
control_change channel=0 control=67 value=43 time=0
control_change channel=0 control=64 value=86 time=16
control_change channel=0 control=67 value=44 time=0
control_change channel=0 control=67 value=46 time=15
control_change channel=0 control=64 value=86 time=16
control_change channel=0 control=67 value=47 time=0
control_change channel=0 control=67 value=48 time=15
control_change channel=0 control=64 value=85 time=14
control_change channel=0 control=67 value=50 time=0
control_change channel=0 control=64 value=84 time=16
control_change channel=0 control=67 value=52 time=0
control_change channel=0 control=67 value=54 time=15
control_change channel=0 control=64 value=83 time=15
control_change channel=0 control=67 value=56 time=0
control_change channel=0 control=64 value=83 time=16
control_change channel=0 control=67 value=58 time=0
control_change channel=0 control=64 value=82 time=14
control_change channel=0 control=67 value=61 time=0
control_change channel=0 control=64 value=82 time=16
control_change channel=0 control=67 value=64 time=0
control_change channel=0 control=64 value=81 time=15
control_change channel=0 control=67 value=66 time=0
control_change channel=0 control=67 value=68 time=14
control_change channel=0 control=64 value=81 time=16
control_change channel=0 control=67 value=71 time=0
control_change channel=0 control=64 value=80 time=15
control_change channel=0 control=67 value=73 time=0
control_change channel=0 control=64 value=80 time=16
control_change channel=0 control=67 value=75 time=0
control_change channel=0 control=67 value=77 time=15
control_change channel=0 control=64 value=79 time=15
control_change channel=0 control=67 value=80 time=0
control_change channel=0 control=67 value=82 time=16
control_change channel=0 control=67 value=86 time=15
control_change channel=0 control=64 value=79 time=14
control_change channel=0 control=67 value=89 time=0
control_change channel=0 control=67 value=92 time=16
control_change channel=0 control=64 value=78 time=15
control_change channel=0 control=67 value=96 time=0
control_change channel=0 control=64 value=78 time=16
control_change channel=0 control=67 value=99 time=0
control_change channel=0 control=64 value=77 time=15
control_change channel=0 control=67 value=104 time=0
control_change channel=0 control=64 value=77 time=14
control_change channel=0 control=67 value=108 time=0
control_change channel=0 control=64 value=76 time=16
control_change channel=0 control=67 value=112 time=0
control_change channel=0 control=64 value=75 time=15
control_change channel=0 control=67 value=116 time=0
control_change channel=0 control=64 value=75 time=15
control_change channel=0 control=67 value=121 time=0
control_change channel=0 control=67 value=126 time=16
control_change channel=0 control=64 value=74 time=14
control_change channel=0 control=67 value=127 time=0
control_change channel=0 control=64 value=73 time=31
control_change channel=0 control=64 value=73 time=15
control_change channel=0 control=64 value=72 time=15
control_change channel=0 control=64 value=72 time=15
control_change channel=0 control=64 value=71 time=15
control_change channel=0 control=64 value=71 time=16
control_change channel=0 control=64 value=70 time=15
control_change channel=0 control=64 value=69 time=15
control_change channel=0 control=64 value=68 time=15
control_change channel=0 control=64 value=68 time=15
control_change channel=0 control=64 value=67 time=31
control_change channel=0 control=64 value=67 time=15
control_change channel=0 control=64 value=66 time=31
control_change channel=0 control=64 value=65 time=24
control_change channel=0 control=64 value=65 time=15
control_change channel=0 control=64 value=64 time=16
note_on channel=0 note=49 velocity=39 time=2
control_change channel=0 control=64 value=60 time=12
control_change channel=0 control=64 value=0 time=15
note_on channel=0 note=53 velocity=37 time=121
control_change channel=0 control=64 value=29 time=31
control_change channel=0 control=64 value=56 time=15
control_change channel=0 control=64 value=63 time=15
control_change channel=0 control=64 value=64 time=15
control_change channel=0 control=64 value=66 time=16
control_change channel=0 control=64 value=68 time=15
control_change channel=0 control=64 value=70 time=14
control_change channel=0 control=64 value=73 time=16
control_change channel=0 control=64 value=75 time=15
note_on channel=0 note=56 velocity=38 time=0
control_change channel=0 control=64 value=77 time=16
control_change channel=0 control=64 value=79 time=15
note_on channel=0 note=86 velocity=0 time=11
control_change channel=0 control=64 value=81 time=4
control_change channel=0 control=64 value=83 time=16
note_on channel=0 note=53 velocity=0 time=7
control_change channel=0 control=64 value=86 time=7
note_on channel=0 note=49 velocity=0 time=4
control_change channel=0 control=64 value=88 time=12
control_change channel=0 control=64 value=89 time=15
note_on channel=0 note=74 velocity=0 time=6
control_change channel=0 control=64 value=91 time=9
note_on channel=0 note=56 velocity=0 time=13
control_change channel=0 control=64 value=93 time=3
control_change channel=0 control=64 value=95 time=15
control_change channel=0 control=64 value=96 time=14
control_change channel=0 control=64 value=97 time=16
note_on channel=0 note=61 velocity=43 time=1
note_on channel=0 note=78 velocity=0 time=18
control_change channel=0 control=64 value=96 time=263
control_change channel=0 control=64 value=96 time=15
control_change channel=0 control=64 value=95 time=16
control_change channel=0 control=64 value=95 time=15
control_change channel=0 control=64 value=94 time=30
control_change channel=0 control=64 value=94 time=15
control_change channel=0 control=64 value=93 time=16
control_change channel=0 control=64 value=93 time=15
control_change channel=0 control=64 value=92 time=15
control_change channel=0 control=64 value=92 time=15
note_on channel=0 note=85 velocity=57 time=14
control_change channel=0 control=64 value=90 time=1
note_on channel=0 note=73 velocity=42 time=11
control_change channel=0 control=64 value=88 time=4
note_on channel=0 note=77 velocity=41 time=9
control_change channel=0 control=64 value=86 time=7
note_on channel=0 note=65 velocity=31 time=4
control_change channel=0 control=64 value=84 time=11
control_change channel=0 control=64 value=81 time=15
control_change channel=0 control=64 value=77 time=15
control_change channel=0 control=64 value=73 time=15
control_change channel=0 control=64 value=74 time=30
control_change channel=0 control=64 value=75 time=15
control_change channel=0 control=64 value=76 time=16
control_change channel=0 control=64 value=78 time=15
control_change channel=0 control=64 value=80 time=15
control_change channel=0 control=64 value=82 time=15
control_change channel=0 control=64 value=83 time=15
control_change channel=0 control=64 value=84 time=45
control_change channel=0 control=64 value=86 time=16
control_change channel=0 control=64 value=89 time=15
control_change channel=0 control=64 value=90 time=16
control_change channel=0 control=64 value=91 time=15
control_change channel=0 control=64 value=92 time=15
control_change channel=0 control=64 value=92 time=16
control_change channel=0 control=64 value=94 time=15
control_change channel=0 control=64 value=95 time=15
control_change channel=0 control=64 value=96 time=15
control_change channel=0 control=64 value=96 time=15
control_change channel=0 control=64 value=97 time=16
control_change channel=0 control=64 value=98 time=13
control_change channel=0 control=64 value=99 time=14
control_change channel=0 control=64 value=100 time=16
control_change channel=0 control=64 value=101 time=15
control_change channel=0 control=64 value=102 time=31
control_change channel=0 control=64 value=103 time=15
control_change channel=0 control=64 value=103 time=16
control_change channel=0 control=64 value=104 time=22
control_change channel=0 control=64 value=105 time=45
control_change channel=0 control=64 value=105 time=93
control_change channel=0 control=64 value=106 time=15
control_change channel=0 control=64 value=106 time=30
control_change channel=0 control=64 value=107 time=152
control_change channel=0 control=64 value=107 time=366
note_on channel=0 note=65 velocity=0 time=1677
control_change channel=0 control=64 value=107 time=18
note_on channel=0 note=61 velocity=0 time=11
note_on channel=0 note=85 velocity=0 time=32
note_on channel=0 note=73 velocity=0 time=4
control_change channel=0 control=64 value=106 time=14
control_change channel=0 control=64 value=106 time=15
control_change channel=0 control=64 value=105 time=15
note_on channel=0 note=77 velocity=0 time=6
control_change channel=0 control=64 value=105 time=25
control_change channel=0 control=64 value=104 time=16
control_change channel=0 control=64 value=104 time=15
control_change channel=0 control=64 value=103 time=15
control_change channel=0 control=64 value=103 time=30
control_change channel=0 control=64 value=102 time=15
control_change channel=0 control=64 value=101 time=16
control_change channel=0 control=64 value=101 time=15
control_change channel=0 control=64 value=100 time=16
control_change channel=0 control=64 value=100 time=15
control_change channel=0 control=64 value=98 time=15
control_change channel=0 control=64 value=97 time=16
control_change channel=0 control=64 value=96 time=14
control_change channel=0 control=64 value=95 time=16
control_change channel=0 control=64 value=93 time=15
control_change channel=0 control=64 value=90 time=15
control_change channel=0 control=64 value=88 time=16
control_change channel=0 control=64 value=87 time=14
control_change channel=0 control=64 value=86 time=15
control_change channel=0 control=64 value=85 time=16
control_change channel=0 control=64 value=83 time=14
control_change channel=0 control=64 value=81 time=16
control_change channel=0 control=64 value=80 time=15
control_change channel=0 control=64 value=79 time=15
control_change channel=0 control=64 value=78 time=16
control_change channel=0 control=64 value=77 time=14
control_change channel=0 control=64 value=76 time=15
control_change channel=0 control=64 value=75 time=15
control_change channel=0 control=64 value=74 time=15
control_change channel=0 control=67 value=126 time=0
control_change channel=0 control=64 value=74 time=16
control_change channel=0 control=67 value=125 time=0
control_change channel=0 control=64 value=73 time=15
control_change channel=0 control=67 value=122 time=0
control_change channel=0 control=64 value=72 time=15
control_change channel=0 control=67 value=119 time=0
control_change channel=0 control=64 value=71 time=16
control_change channel=0 control=67 value=117 time=0
control_change channel=0 control=64 value=71 time=14
control_change channel=0 control=67 value=114 time=0
control_change channel=0 control=64 value=70 time=15
control_change channel=0 control=67 value=111 time=0
control_change channel=0 control=64 value=70 time=23
control_change channel=0 control=67 value=108 time=0
control_change channel=0 control=64 value=69 time=15
control_change channel=0 control=67 value=104 time=0
control_change channel=0 control=64 value=68 time=16
control_change channel=0 control=67 value=101 time=0
control_change channel=0 control=64 value=68 time=14
control_change channel=0 control=67 value=97 time=0
control_change channel=0 control=64 value=67 time=16
control_change channel=0 control=67 value=92 time=0
control_change channel=0 control=64 value=67 time=15
control_change channel=0 control=67 value=85 time=0
control_change channel=0 control=64 value=66 time=15
control_change channel=0 control=67 value=79 time=0
control_change channel=0 control=67 value=74 time=16
control_change channel=0 control=67 value=71 time=14
control_change channel=0 control=67 value=69 time=15
control_change channel=0 control=64 value=65 time=16
control_change channel=0 control=67 value=65 time=0
control_change channel=0 control=67 value=61 time=15
control_change channel=0 control=64 value=65 time=16
control_change channel=0 control=67 value=57 time=0
control_change channel=0 control=67 value=55 time=15
control_change channel=0 control=67 value=53 time=15
control_change channel=0 control=64 value=64 time=16
control_change channel=0 control=67 value=51 time=0
control_change channel=0 control=64 value=58 time=15
control_change channel=0 control=67 value=49 time=0
control_change channel=0 control=64 value=0 time=14
control_change channel=0 control=67 value=47 time=0
control_change channel=0 control=67 value=45 time=16
control_change channel=0 control=67 value=43 time=15
control_change channel=0 control=67 value=41 time=16
control_change channel=0 control=67 value=38 time=15
control_change channel=0 control=67 value=34 time=15
control_change channel=0 control=67 value=28 time=16
control_change channel=0 control=67 value=21 time=15
control_change channel=0 control=67 value=10 time=16
control_change channel=0 control=67 value=0 time=15
control_change channel=0 control=64 value=47 time=14
control_change channel=0 control=64 value=61 time=16
control_change channel=0 control=64 value=65 time=15
control_change channel=0 control=64 value=66 time=15
control_change channel=0 control=64 value=67 time=16
control_change channel=0 control=64 value=68 time=14
note_on channel=0 note=74 velocity=69 time=3
control_change channel=0 control=64 value=70 time=13
control_change channel=0 control=64 value=71 time=15
control_change channel=0 control=64 value=73 time=14
control_change channel=0 control=64 value=74 time=16
control_change channel=0 control=64 value=75 time=15
control_change channel=0 control=64 value=77 time=15
control_change channel=0 control=64 value=78 time=16
control_change channel=0 control=64 value=81 time=14
control_change channel=0 control=64 value=83 time=16
control_change channel=0 control=64 value=84 time=16
control_change channel=0 control=64 value=85 time=15
control_change channel=0 control=64 value=87 time=16
control_change channel=0 control=64 value=88 time=14
control_change channel=0 control=64 value=90 time=16
control_change channel=0 control=64 value=93 time=15
control_change channel=0 control=64 value=94 time=14
control_change channel=0 control=64 value=95 time=16
control_change channel=0 control=64 value=96 time=23
control_change channel=0 control=64 value=97 time=16
control_change channel=0 control=64 value=98 time=15
control_change channel=0 control=64 value=99 time=14
control_change channel=0 control=64 value=100 time=16
control_change channel=0 control=64 value=100 time=106
control_change channel=0 control=64 value=99 time=91
control_change channel=0 control=64 value=98 time=15
control_change channel=0 control=64 value=97 time=15
control_change channel=0 control=64 value=95 time=16
control_change channel=0 control=64 value=94 time=15
note_on channel=0 note=53 velocity=35 time=1
note_on channel=0 note=73 velocity=55 time=4
control_change channel=0 control=64 value=93 time=12
control_change channel=0 control=64 value=91 time=15
note_on channel=0 note=74 velocity=0 time=2
control_change channel=0 control=64 value=87 time=12
control_change channel=0 control=64 value=79 time=16
control_change channel=0 control=64 value=70 time=15
control_change channel=0 control=64 value=64 time=15
control_change channel=0 control=64 value=64 time=15
control_change channel=0 control=64 value=64 time=15
control_change channel=0 control=64 value=65 time=45
control_change channel=0 control=64 value=65 time=16
control_change channel=0 control=64 value=66 time=15
control_change channel=0 control=64 value=67 time=16
control_change channel=0 control=64 value=68 time=15
control_change channel=0 control=64 value=68 time=15
control_change channel=0 control=64 value=69 time=16
control_change channel=0 control=64 value=71 time=15
control_change channel=0 control=64 value=73 time=14
control_change channel=0 control=64 value=74 time=16
note_on channel=0 note=53 velocity=0 time=3
control_change channel=0 control=64 value=76 time=12
note_on channel=0 note=49 velocity=37 time=5
control_change channel=0 control=64 value=77 time=11
control_change channel=0 control=64 value=79 time=15
control_change channel=0 control=64 value=81 time=14
control_change channel=0 control=64 value=83 time=16
control_change channel=0 control=64 value=85 time=15
control_change channel=0 control=64 value=87 time=16
control_change channel=0 control=64 value=89 time=15
control_change channel=0 control=64 value=91 time=22
control_change channel=0 control=64 value=93 time=16
control_change channel=0 control=64 value=94 time=14
control_change channel=0 control=64 value=95 time=16
note_on channel=0 note=49 velocity=0 time=8
control_change channel=0 control=64 value=95 time=7
note_on channel=0 note=56 velocity=37 time=17
control_change channel=0 control=64 value=96 time=14
control_change channel=0 control=64 value=96 time=15
note_on channel=0 note=49 velocity=35 time=128
note_on channel=0 note=56 velocity=0 time=12
control_change channel=0 control=64 value=95 time=87
control_change channel=0 control=64 value=93 time=15
control_change channel=0 control=64 value=89 time=16
control_change channel=0 control=64 value=85 time=16
note_on channel=0 note=66 velocity=52 time=12
control_change channel=0 control=64 value=83 time=3
note_on channel=0 note=57 velocity=37 time=1
note_on channel=0 note=49 velocity=0 time=7
control_change channel=0 control=64 value=84 time=68
control_change channel=0 control=64 value=85 time=15
control_change channel=0 control=64 value=86 time=15
control_change channel=0 control=64 value=87 time=15
note_on channel=0 note=49 velocity=47 time=14
note_on channel=0 note=57 velocity=0 time=8
control_change channel=0 control=64 value=87 time=9
control_change channel=0 control=64 value=88 time=15
control_change channel=0 control=64 value=88 time=30
control_change channel=0 control=64 value=85 time=62
control_change channel=0 control=64 value=80 time=14
note_on channel=0 note=68 velocity=66 time=6
control_change channel=0 control=64 value=76 time=10
note_on channel=0 note=59 velocity=57 time=0
control_change channel=0 control=64 value=76 time=15
note_on channel=0 note=49 velocity=0 time=1
note_on channel=0 note=66 velocity=0 time=6
control_change channel=0 control=64 value=76 time=8
control_change channel=0 control=64 value=78 time=16
control_change channel=0 control=64 value=80 time=15
control_change channel=0 control=64 value=83 time=22
control_change channel=0 control=64 value=86 time=15
control_change channel=0 control=64 value=88 time=15
note_on channel=0 note=73 velocity=0 time=10
control_change channel=0 control=64 value=89 time=6
control_change channel=0 control=64 value=90 time=14
control_change channel=0 control=64 value=90 time=16
note_on channel=0 note=49 velocity=57 time=7
note_on channel=0 note=59 velocity=0 time=5
control_change channel=0 control=64 value=90 time=80
control_change channel=0 control=64 value=89 time=15
control_change channel=0 control=64 value=88 time=16
control_change channel=0 control=64 value=85 time=14
control_change channel=0 control=64 value=81 time=15
note_on channel=0 note=61 velocity=55 time=8
note_on channel=0 note=60 velocity=57 time=4
control_change channel=0 control=64 value=74 time=4
note_on channel=0 note=49 velocity=0 time=2
control_change channel=0 control=64 value=65 time=12
note_on channel=0 note=68 velocity=0 time=6
control_change channel=0 control=64 value=55 time=9
control_change channel=0 control=64 value=60 time=16
control_change channel=0 control=64 value=63 time=15
control_change channel=0 control=64 value=64 time=16
control_change channel=0 control=64 value=64 time=14
control_change channel=0 control=64 value=65 time=15
control_change channel=0 control=64 value=66 time=16
control_change channel=0 control=64 value=67 time=15
control_change channel=0 control=64 value=69 time=16
control_change channel=0 control=64 value=71 time=14
control_change channel=0 control=64 value=72 time=16
control_change channel=0 control=64 value=73 time=16
control_change channel=0 control=64 value=74 time=15
note_on channel=0 note=60 velocity=0 time=10
control_change channel=0 control=64 value=75 time=5
control_change channel=0 control=64 value=76 time=15
note_on channel=0 note=49 velocity=46 time=3
control_change channel=0 control=64 value=75 time=88
control_change channel=0 control=64 value=74 time=15
note_on channel=0 note=49 velocity=0 time=11
control_change channel=0 control=64 value=72 time=5
control_change channel=0 control=64 value=68 time=15
note_on channel=0 note=59 velocity=52 time=8
control_change channel=0 control=64 value=67 time=7
control_change channel=0 control=64 value=68 time=15
control_change channel=0 control=64 value=69 time=15
control_change channel=0 control=64 value=70 time=16
control_change channel=0 control=64 value=72 time=14
control_change channel=0 control=64 value=74 time=16
control_change channel=0 control=64 value=75 time=15
control_change channel=0 control=64 value=76 time=15
control_change channel=0 control=64 value=77 time=23
note_on channel=0 note=49 velocity=40 time=11
control_change channel=0 control=64 value=78 time=4
control_change channel=0 control=64 value=78 time=16
control_change channel=0 control=64 value=79 time=30
control_change channel=0 control=64 value=78 time=15
control_change channel=0 control=64 value=76 time=15
control_change channel=0 control=64 value=73 time=16
note_on channel=0 note=49 velocity=0 time=14
control_change channel=0 control=64 value=67 time=1
note_on channel=0 note=59 velocity=0 time=4
control_change channel=0 control=64 value=62 time=10
control_change channel=0 control=64 value=63 time=16
note_on channel=0 note=58 velocity=44 time=4
control_change channel=0 control=64 value=65 time=11
control_change channel=0 control=64 value=67 time=15
control_change channel=0 control=64 value=69 time=16
control_change channel=0 control=64 value=71 time=15
control_change channel=0 control=64 value=73 time=16
control_change channel=0 control=64 value=74 time=15
control_change channel=0 control=64 value=76 time=14
control_change channel=0 control=64 value=78 time=16
control_change channel=0 control=64 value=79 time=15
control_change channel=0 control=64 value=79 time=15
note_on channel=0 note=58 velocity=0 time=6
note_on channel=0 note=49 velocity=48 time=8
control_change channel=0 control=64 value=80 time=2
control_change channel=0 control=64 value=80 time=14
control_change channel=0 control=64 value=80 time=31
control_change channel=0 control=64 value=78 time=15
control_change channel=0 control=64 value=75 time=16
control_change channel=0 control=64 value=73 time=14
note_on channel=0 note=49 velocity=0 time=20
control_change channel=0 control=64 value=74 time=11
note_on channel=0 note=66 velocity=51 time=6
control_change channel=0 control=64 value=75 time=8
note_on channel=0 note=57 velocity=37 time=8
control_change channel=0 control=64 value=77 time=8
note_on channel=0 note=61 velocity=0 time=16
control_change channel=0 control=64 value=79 time=1
control_change channel=0 control=64 value=81 time=14
control_change channel=0 control=64 value=82 time=16
control_change channel=0 control=64 value=84 time=15
control_change channel=0 control=64 value=84 time=16
control_change channel=0 control=64 value=85 time=14
note_on channel=0 note=49 velocity=38 time=27
note_on channel=0 note=57 velocity=0 time=5
control_change channel=0 control=64 value=84 time=76
control_change channel=0 control=64 value=82 time=15
note_on channel=0 note=49 velocity=0 time=13
control_change channel=0 control=64 value=80 time=2
control_change channel=0 control=64 value=76 time=15
control_change channel=0 control=64 value=69 time=15
note_on channel=0 note=65 velocity=54 time=1
note_on channel=0 note=56 velocity=44 time=4
control_change channel=0 control=64 value=65 time=11
note_on channel=0 note=66 velocity=0 time=15
control_change channel=0 control=64 value=65 time=7
control_change channel=0 control=64 value=66 time=15
control_change channel=0 control=64 value=67 time=16
control_change channel=0 control=64 value=67 time=15
control_change channel=0 control=64 value=68 time=16
control_change channel=0 control=64 value=70 time=14
control_change channel=0 control=64 value=73 time=15
control_change channel=0 control=64 value=74 time=16
note_on channel=0 note=49 velocity=50 time=10
control_change channel=0 control=64 value=76 time=4
control_change channel=0 control=64 value=77 time=15
note_on channel=0 note=56 velocity=0 time=5
control_change channel=0 control=64 value=78 time=11
control_change channel=0 control=64 value=79 time=15
control_change channel=0 control=64 value=80 time=16
control_change channel=0 control=64 value=79 time=45
control_change channel=0 control=64 value=76 time=15
note_on channel=0 note=49 velocity=0 time=1
note_on channel=0 note=66 velocity=66 time=7
control_change channel=0 control=64 value=73 time=8
control_change channel=0 control=64 value=69 time=15
note_on channel=0 note=57 velocity=41 time=2
control_change channel=0 control=64 value=69 time=12
control_change channel=0 control=64 value=70 time=16
note_on channel=0 note=65 velocity=0 time=9
control_change channel=0 control=64 value=71 time=6
control_change channel=0 control=64 value=72 time=14
control_change channel=0 control=64 value=73 time=16
control_change channel=0 control=64 value=75 time=15
control_change channel=0 control=64 value=77 time=16
note_on channel=0 note=49 velocity=53 time=8
control_change channel=0 control=64 value=79 time=7
control_change channel=0 control=64 value=81 time=15
note_on channel=0 note=57 velocity=0 time=3
control_change channel=0 control=64 value=82 time=13
control_change channel=0 control=64 value=82 time=14
control_change channel=0 control=64 value=80 time=62
control_change channel=0 control=64 value=76 time=15
note_on channel=0 note=49 velocity=0 time=9
control_change channel=0 control=64 value=70 time=6
note_on channel=0 note=68 velocity=73 time=13
control_change channel=0 control=64 value=65 time=3
note_on channel=0 note=53 velocity=39 time=6
control_change channel=0 control=64 value=66 time=9
control_change channel=0 control=64 value=67 time=16
note_on channel=0 note=66 velocity=0 time=12
control_change channel=0 control=64 value=68 time=3
control_change channel=0 control=64 value=70 time=14
control_change channel=0 control=64 value=72 time=16
control_change channel=0 control=64 value=73 time=14
control_change channel=0 control=64 value=74 time=15
control_change channel=0 control=64 value=74 time=16
note_on channel=0 note=53 velocity=0 time=6
control_change channel=0 control=64 value=76 time=9
note_on channel=0 note=49 velocity=50 time=5
control_change channel=0 control=64 value=77 time=11
control_change channel=0 control=64 value=78 time=14
control_change channel=0 control=64 value=78 time=15
control_change channel=0 control=64 value=79 time=16
control_change channel=0 control=64 value=79 time=22
control_change channel=0 control=64 value=78 time=31
control_change channel=0 control=64 value=76 time=15
control_change channel=0 control=64 value=72 time=16
note_on channel=0 note=69 velocity=69 time=10
control_change channel=0 control=64 value=66 time=4
note_on channel=0 note=49 velocity=0 time=9
note_on channel=0 note=54 velocity=51 time=3
control_change channel=0 control=64 value=64 time=4
note_on channel=0 note=68 velocity=0 time=13
control_change channel=0 control=64 value=66 time=2
control_change channel=0 control=64 value=67 time=15
control_change channel=0 control=64 value=69 time=16
control_change channel=0 control=64 value=71 time=14
control_change channel=0 control=64 value=73 time=15
control_change channel=0 control=64 value=75 time=16
control_change channel=0 control=64 value=76 time=14
control_change channel=0 control=64 value=77 time=16
note_on channel=0 note=49 velocity=59 time=1
note_on channel=0 note=54 velocity=0 time=10
control_change channel=0 control=64 value=78 time=4
control_change channel=0 control=64 value=79 time=45
note_on channel=0 note=49 velocity=0 time=38
control_change channel=0 control=64 value=78 time=8
control_change channel=0 control=64 value=75 time=16
control_change channel=0 control=64 value=70 time=14
control_change channel=0 control=64 value=61 time=15
note_on channel=0 note=69 velocity=0 time=2
control_change channel=0 control=64 value=53 time=14
note_on channel=0 note=73 velocity=68 time=3
control_change channel=0 control=64 value=59 time=12
note_on channel=0 note=64 velocity=41 time=6
control_change channel=0 control=64 value=62 time=10
note_on channel=0 note=66 velocity=31 time=0
control_change channel=0 control=64 value=63 time=15
control_change channel=0 control=64 value=65 time=15
control_change channel=0 control=64 value=66 time=16
control_change channel=0 control=64 value=69 time=15
note_on channel=0 note=64 velocity=0 time=9
control_change channel=0 control=64 value=71 time=5
control_change channel=0 control=64 value=72 time=16
control_change channel=0 control=64 value=73 time=15
note_on channel=0 note=49 velocity=48 time=15
control_change channel=0 control=64 value=74 time=1
control_change channel=0 control=64 value=76 time=15
control_change channel=0 control=64 value=77 time=14
control_change channel=0 control=64 value=76 time=63
control_change channel=0 control=64 value=74 time=14
control_change channel=0 control=64 value=71 time=16
control_change channel=0 control=64 value=65 time=15
note_on channel=0 note=73 velocity=0 time=7
note_on channel=0 note=49 velocity=0 time=7
control_change channel=0 control=64 value=51 time=1
note_on channel=0 note=71 velocity=55 time=3
control_change channel=0 control=64 value=50 time=13
control_change channel=0 control=64 value=60 time=14
note_on channel=0 note=62 velocity=31 time=3
control_change channel=0 control=64 value=64 time=13
control_change channel=0 control=64 value=66 time=15
control_change channel=0 control=64 value=67 time=22
control_change channel=0 control=64 value=69 time=16
control_change channel=0 control=64 value=70 time=14
note_on channel=0 note=62 velocity=0 time=11
control_change channel=0 control=64 value=73 time=5
control_change channel=0 control=64 value=74 time=15
control_change channel=0 control=64 value=75 time=15
note_on channel=0 note=49 velocity=37 time=8
control_change channel=0 control=64 value=75 time=8
control_change channel=0 control=64 value=75 time=91
control_change channel=0 control=64 value=74 time=15
control_change channel=0 control=64 value=74 time=16
control_change channel=0 control=64 value=72 time=14
control_change channel=0 control=64 value=69 time=16
note_on channel=0 note=71 velocity=0 time=10
note_on channel=0 note=49 velocity=0 time=4
control_change channel=0 control=64 value=63 time=1
note_on channel=0 note=66 velocity=0 time=8
control_change channel=0 control=64 value=41 time=6
control_change channel=0 control=64 value=0 time=16
note_on channel=0 note=68 velocity=38 time=1
note_on channel=0 note=61 velocity=32 time=7
note_on channel=0 note=65 velocity=18 time=11
control_change channel=0 control=64 value=28 time=41
control_change channel=0 control=64 value=37 time=16
control_change channel=0 control=64 value=47 time=15
control_change channel=0 control=64 value=59 time=15
control_change channel=0 control=64 value=63 time=15
control_change channel=0 control=64 value=65 time=15
note_on channel=0 note=65 velocity=0 time=12
control_change channel=0 control=64 value=66 time=3
note_on channel=0 note=68 velocity=0 time=3
control_change channel=0 control=64 value=68 time=13
control_change channel=0 control=64 value=70 time=15
control_change channel=0 control=64 value=73 time=16
note_on channel=0 note=49 velocity=38 time=8
control_change channel=0 control=64 value=75 time=7
control_change channel=0 control=64 value=76 time=14
note_on channel=0 note=61 velocity=0 time=1
control_change channel=0 control=64 value=78 time=15
control_change channel=0 control=64 value=80 time=15
control_change channel=0 control=64 value=82 time=16
control_change channel=0 control=64 value=84 time=15
control_change channel=0 control=64 value=86 time=15
control_change channel=0 control=64 value=87 time=15
control_change channel=0 control=64 value=89 time=15
control_change channel=0 control=64 value=90 time=16
control_change channel=0 control=64 value=91 time=16
control_change channel=0 control=64 value=91 time=14
note_on channel=0 note=49 velocity=0 time=3
control_change channel=0 control=64 value=91 time=248
control_change channel=0 control=64 value=90 time=31
note_on channel=0 note=74 velocity=58 time=9
control_change channel=0 control=64 value=90 time=7
control_change channel=0 control=64 value=89 time=15
control_change channel=0 control=64 value=88 time=14
control_change channel=0 control=64 value=87 time=16
control_change channel=0 control=64 value=86 time=15
control_change channel=0 control=64 value=84 time=14
control_change channel=0 control=64 value=82 time=16
control_change channel=0 control=64 value=80 time=15
control_change channel=0 control=64 value=77 time=16
control_change channel=0 control=64 value=75 time=15
control_change channel=0 control=64 value=73 time=14
control_change channel=0 control=64 value=71 time=16
control_change channel=0 control=64 value=69 time=15
control_change channel=0 control=64 value=67 time=16
control_change channel=0 control=64 value=64 time=15
control_change channel=0 control=67 value=8 time=0
control_change channel=0 control=64 value=59 time=15
control_change channel=0 control=67 value=13 time=0
control_change channel=0 control=64 value=26 time=15
control_change channel=0 control=67 value=19 time=0
control_change channel=0 control=64 value=0 time=15
control_change channel=0 control=67 value=26 time=0
control_change channel=0 control=67 value=33 time=15
control_change channel=0 control=67 value=39 time=15
control_change channel=0 control=67 value=45 time=15
control_change channel=0 control=67 value=51 time=16
control_change channel=0 control=67 value=59 time=15
control_change channel=0 control=67 value=68 time=15
control_change channel=0 control=67 value=74 time=15
control_change channel=0 control=67 value=78 time=15
control_change channel=0 control=67 value=81 time=15
control_change channel=0 control=67 value=86 time=16
control_change channel=0 control=67 value=89 time=15
control_change channel=0 control=67 value=91 time=16
control_change channel=0 control=67 value=93 time=15
control_change channel=0 control=67 value=93 time=15
control_change channel=0 control=67 value=94 time=16
control_change channel=0 control=64 value=28 time=15
control_change channel=0 control=64 value=48 time=15
control_change channel=0 control=64 value=58 time=15
control_change channel=0 control=64 value=62 time=15
control_change channel=0 control=64 value=63 time=24
control_change channel=0 control=64 value=65 time=15
control_change channel=0 control=64 value=66 time=15
note_on channel=0 note=62 velocity=30 time=0
control_change channel=0 control=64 value=68 time=15
control_change channel=0 control=64 value=69 time=15
control_change channel=0 control=64 value=71 time=16
control_change channel=0 control=64 value=72 time=15
control_change channel=0 control=64 value=74 time=15
control_change channel=0 control=64 value=75 time=15
control_change channel=0 control=64 value=77 time=15
control_change channel=0 control=64 value=78 time=15
control_change channel=0 control=64 value=80 time=15
note_on channel=0 note=62 velocity=0 time=10
control_change channel=0 control=64 value=81 time=5
control_change channel=0 control=64 value=82 time=16
control_change channel=0 control=64 value=83 time=15
note_on channel=0 note=50 velocity=38 time=9
control_change channel=0 control=64 value=85 time=7
control_change channel=0 control=64 value=86 time=15
control_change channel=0 control=64 value=87 time=14
control_change channel=0 control=64 value=88 time=16
control_change channel=0 control=64 value=88 time=15
control_change channel=0 control=64 value=89 time=31
note_on channel=0 note=50 velocity=0 time=28
control_change channel=0 control=64 value=89 time=3
note_on channel=0 note=62 velocity=35 time=39
note_on channel=0 note=50 velocity=38 time=123
control_change channel=0 control=67 value=94 time=4
control_change channel=0 control=64 value=89 time=60
control_change channel=0 control=67 value=93 time=0
control_change channel=0 control=64 value=88 time=31
control_change channel=0 control=64 value=88 time=15
control_change channel=0 control=64 value=87 time=31
control_change channel=0 control=64 value=87 time=16
control_change channel=0 control=64 value=86 time=15
note_on channel=0 note=62 velocity=0 time=2
control_change channel=0 control=64 value=84 time=13
control_change channel=0 control=64 value=80 time=15
note_on channel=0 note=67 velocity=49 time=12
control_change channel=0 control=64 value=76 time=3
note_on channel=0 note=50 velocity=0 time=9
note_on channel=0 note=59 velocity=38 time=6
control_change channel=0 control=64 value=73 time=2
control_change channel=0 control=64 value=72 time=22
control_change channel=0 control=64 value=73 time=15
control_change channel=0 control=64 value=73 time=16
control_change channel=0 control=64 value=74 time=15
control_change channel=0 control=64 value=74 time=16
control_change channel=0 control=64 value=75 time=15
control_change channel=0 control=67 value=93 time=0
control_change channel=0 control=64 value=76 time=15
control_change channel=0 control=64 value=78 time=15
control_change channel=0 control=64 value=79 time=15
control_change channel=0 control=67 value=92 time=0
note_on channel=0 note=74 velocity=0 time=3
note_on channel=0 note=59 velocity=0 time=8
control_change channel=0 control=64 value=79 time=5
note_on channel=0 note=50 velocity=34 time=11
control_change channel=0 control=64 value=80 time=4
control_change channel=0 control=64 value=80 time=15
control_change channel=0 control=67 value=92 time=0
control_change channel=0 control=64 value=81 time=15
control_change channel=0 control=64 value=81 time=15
control_change channel=0 control=64 value=82 time=15
control_change channel=0 control=64 value=83 time=15
control_change channel=0 control=64 value=82 time=46
control_change channel=0 control=64 value=81 time=15
note_on channel=0 note=50 velocity=0 time=34
note_on channel=0 note=69 velocity=63 time=4
note_on channel=0 note=60 velocity=40 time=3
control_change channel=0 control=64 value=81 time=20
control_change channel=0 control=67 value=91 time=0
note_on channel=0 note=67 velocity=0 time=14
control_change channel=0 control=64 value=82 time=1
control_change channel=0 control=64 value=84 time=15
control_change channel=0 control=64 value=85 time=15
control_change channel=0 control=64 value=87 time=15
control_change channel=0 control=64 value=88 time=16
control_change channel=0 control=67 value=91 time=0
control_change channel=0 control=67 value=90 time=15
note_on channel=0 note=60 velocity=0 time=14
note_on channel=0 note=50 velocity=42 time=9
control_change channel=0 control=64 value=88 time=38
control_change channel=0 control=64 value=88 time=15
control_change channel=0 control=64 value=87 time=45
control_change channel=0 control=64 value=86 time=16
control_change channel=0 control=64 value=83 time=15
note_on channel=0 note=50 velocity=0 time=8
control_change channel=0 control=64 value=77 time=7
control_change channel=0 control=64 value=68 time=16
note_on channel=0 note=62 velocity=62 time=1
note_on channel=0 note=69 velocity=0 time=0
note_on channel=0 note=54 velocity=39 time=7
control_change channel=0 control=64 value=63 time=5
control_change channel=0 control=64 value=64 time=15
control_change channel=0 control=67 value=90 time=0
control_change channel=0 control=64 value=65 time=16
control_change channel=0 control=64 value=65 time=15
control_change channel=0 control=64 value=66 time=16
control_change channel=0 control=64 value=67 time=14
control_change channel=0 control=67 value=89 time=0
control_change channel=0 control=64 value=69 time=15
note_on channel=0 note=54 velocity=0 time=13
control_change channel=0 control=64 value=71 time=3
control_change channel=0 control=64 value=74 time=22
note_on channel=0 note=50 velocity=43 time=4
control_change channel=0 control=64 value=75 time=12
control_change channel=0 control=64 value=76 time=16
control_change channel=0 control=64 value=77 time=15
control_change channel=0 control=64 value=78 time=16
control_change channel=0 control=64 value=79 time=15
control_change channel=0 control=64 value=78 time=30
control_change channel=0 control=64 value=75 time=15
control_change channel=0 control=64 value=71 time=16
note_on channel=0 note=50 velocity=0 time=0
note_on channel=0 note=54 velocity=49 time=13
control_change channel=0 control=64 value=65 time=2
control_change channel=0 control=64 value=65 time=15
control_change channel=0 control=64 value=66 time=15
control_change channel=0 control=64 value=67 time=15
control_change channel=0 control=64 value=69 time=16
control_change channel=0 control=64 value=71 time=14
control_change channel=0 control=64 value=73 time=15
note_on channel=0 note=54 velocity=0 time=12
control_change channel=0 control=64 value=75 time=4
control_change channel=0 control=64 value=76 time=15
note_on channel=0 note=48 velocity=51 time=8
control_change channel=0 control=64 value=78 time=7
control_change channel=0 control=64 value=79 time=15
control_change channel=0 control=64 value=79 time=15
control_change channel=0 control=64 value=78 time=61
control_change channel=0 control=64 value=76 time=15
note_on channel=0 note=48 velocity=0 time=0
control_change channel=0 control=64 value=71 time=16
note_on channel=0 note=55 velocity=51 time=9
control_change channel=0 control=64 value=64 time=6
control_change channel=0 control=64 value=60 time=15
control_change channel=0 control=64 value=63 time=16
control_change channel=0 control=64 value=65 time=15
control_change channel=0 control=64 value=66 time=14
control_change channel=0 control=64 value=68 time=16
control_change channel=0 control=64 value=70 time=15
note_on channel=0 note=55 velocity=0 time=4
control_change channel=0 control=64 value=72 time=12
control_change channel=0 control=64 value=74 time=15
control_change channel=0 control=67 value=89 time=0
control_change channel=0 control=64 value=75 time=15
control_change channel=0 control=64 value=77 time=16
note_on channel=0 note=47 velocity=45 time=0
control_change channel=0 control=64 value=78 time=14
control_change channel=0 control=67 value=88 time=0
control_change channel=0 control=64 value=79 time=15
control_change channel=0 control=64 value=78 time=30
control_change channel=0 control=64 value=77 time=16
control_change channel=0 control=64 value=74 time=15
control_change channel=0 control=64 value=71 time=15
note_on channel=0 note=47 velocity=0 time=8
control_change channel=0 control=64 value=69 time=8
control_change channel=0 control=64 value=70 time=14
control_change channel=0 control=67 value=88 time=0
note_on channel=0 note=59 velocity=48 time=14
control_change channel=0 control=64 value=71 time=1
note_on channel=0 note=67 velocity=56 time=0
control_change channel=0 control=64 value=73 time=16
control_change channel=0 control=67 value=87 time=0
control_change channel=0 control=64 value=74 time=23
note_on channel=0 note=62 velocity=0 time=0
control_change channel=0 control=64 value=76 time=16
control_change channel=0 control=67 value=87 time=0
control_change channel=0 control=64 value=78 time=14
control_change channel=0 control=64 value=80 time=16
note_on channel=0 note=59 velocity=0 time=6
control_change channel=0 control=64 value=81 time=9
control_change channel=0 control=64 value=82 time=15
control_change channel=0 control=67 value=86 time=0
note_on channel=0 note=47 velocity=42 time=12
control_change channel=0 control=64 value=83 time=4
control_change channel=0 control=64 value=84 time=15
control_change channel=0 control=67 value=86 time=0
control_change channel=0 control=64 value=84 time=31
control_change channel=0 control=64 value=83 time=60
note_on channel=0 note=67 velocity=0 time=8
control_change channel=0 control=64 value=80 time=8
control_change channel=0 control=64 value=74 time=15
note_on channel=0 note=57 velocity=43 time=15
control_change channel=0 control=64 value=66 time=1
note_on channel=0 note=66 velocity=48 time=0
note_on channel=0 note=61 velocity=45 time=12
control_change channel=0 control=64 value=64 time=2
note_on channel=0 note=47 velocity=0 time=0
control_change channel=0 control=64 value=65 time=15
note_on channel=0 note=66 velocity=0 time=12
control_change channel=0 control=64 value=66 time=4
control_change channel=0 control=64 value=67 time=14
control_change channel=0 control=64 value=68 time=15
note_on channel=0 note=68 velocity=61 time=9
control_change channel=0 control=64 value=70 time=7
note_on channel=0 note=57 velocity=0 time=5
control_change channel=0 control=64 value=72 time=10
control_change channel=0 control=64 value=74 time=16
note_on channel=0 note=68 velocity=0 time=5
note_on channel=0 note=49 velocity=50 time=6
control_change channel=0 control=64 value=75 time=3
control_change channel=0 control=67 value=85 time=0
note_on channel=0 note=66 velocity=65 time=2
control_change channel=0 control=64 value=77 time=13
note_on channel=0 note=61 velocity=0 time=0
control_change channel=0 control=64 value=77 time=16
note_on channel=0 note=66 velocity=0 time=14
control_change channel=0 control=64 value=77 time=1
note_on channel=0 note=68 velocity=63 time=14
control_change channel=0 control=64 value=75 time=1
control_change channel=0 control=67 value=85 time=0
control_change channel=0 control=64 value=71 time=15
note_on channel=0 note=49 velocity=0 time=4
control_change channel=0 control=64 value=68 time=11
note_on channel=0 note=68 velocity=0 time=3
note_on channel=0 note=57 velocity=49 time=4
control_change channel=0 control=64 value=69 time=9
note_on channel=0 note=66 velocity=56 time=12
control_change channel=0 control=64 value=70 time=3
control_change channel=0 control=64 value=71 time=14
note_on channel=0 note=68 velocity=67 time=7
note_on channel=0 note=66 velocity=0 time=3
control_change channel=0 control=64 value=72 time=6
control_change channel=0 control=64 value=74 time=15
control_change channel=0 control=64 value=76 time=16
note_on channel=0 note=57 velocity=0 time=9
control_change channel=0 control=64 value=79 time=6
note_on channel=0 note=66 velocity=71 time=7
note_on channel=0 note=68 velocity=0 time=0
note_on channel=0 note=49 velocity=50 time=4
control_change channel=0 control=64 value=80 time=4
control_change channel=0 control=64 value=81 time=16
note_on channel=0 note=66 velocity=0 time=11
control_change channel=0 control=64 value=81 time=4
note_on channel=0 note=65 velocity=67 time=2
control_change channel=0 control=67 value=85 time=12
note_on channel=0 note=49 velocity=0 time=43
control_change channel=0 control=64 value=79 time=3
note_on channel=0 note=66 velocity=68 time=0
note_on channel=0 note=65 velocity=0 time=10
control_change channel=0 control=64 value=77 time=5
control_change channel=0 control=64 value=71 time=14
control_change channel=0 control=64 value=62 time=16
note_on channel=0 note=59 velocity=41 time=8
control_change channel=0 control=64 value=0 time=7
note_on channel=0 note=66 velocity=0 time=0
note_on channel=0 note=68 velocity=67 time=23
control_change channel=0 control=67 value=86 time=1
control_change channel=0 control=64 value=30 time=15
control_change channel=0 control=64 value=48 time=14
control_change channel=0 control=64 value=55 time=16
control_change channel=0 control=64 value=59 time=15
control_change channel=0 control=64 value=61 time=15
control_change channel=0 control=64 value=64 time=15
note_on channel=0 note=59 velocity=0 time=3
control_change channel=0 control=64 value=66 time=12
note_on channel=0 note=49 velocity=49 time=16
control_change channel=0 control=64 value=68 time=1
control_change channel=0 control=64 value=69 time=15
control_change channel=0 control=64 value=70 time=15
control_change channel=0 control=67 value=85 time=0
control_change channel=0 control=64 value=72 time=16
control_change channel=0 control=64 value=74 time=14
control_change channel=0 control=64 value=76 time=16
note_on channel=0 note=49 velocity=0 time=11
control_change channel=0 control=64 value=77 time=4
control_change channel=0 control=64 value=77 time=31
control_change channel=0 control=64 value=74 time=14
note_on channel=0 note=68 velocity=0 time=14
control_change channel=0 control=64 value=70 time=1
note_on channel=0 note=59 velocity=37 time=6
note_on channel=0 note=73 velocity=74 time=6
control_change channel=0 control=64 value=65 time=4
note_on channel=0 note=65 velocity=54 time=11
control_change channel=0 control=64 value=66 time=4
control_change channel=0 control=64 value=68 time=16
control_change channel=0 control=64 value=69 time=14
control_change channel=0 control=64 value=71 time=15
control_change channel=0 control=67 value=85 time=0
control_change channel=0 control=64 value=74 time=16
control_change channel=0 control=64 value=77 time=14
note_on channel=0 note=59 velocity=0 time=9
control_change channel=0 control=64 value=80 time=7
control_change channel=0 control=64 value=83 time=15
note_on channel=0 note=49 velocity=51 time=10
control_change channel=0 control=64 value=86 time=5
control_change channel=0 control=64 value=87 time=16
note_on channel=0 note=49 velocity=0 time=12
control_change channel=0 control=64 value=88 time=2
note_on channel=0 note=73 velocity=0 time=35
control_change channel=0 control=64 value=88 time=42
control_change channel=0 control=67 value=85 time=0
note_on channel=0 note=65 velocity=0 time=2
control_change channel=0 control=64 value=85 time=12
control_change channel=0 control=64 value=79 time=16
note_on channel=0 note=42 velocity=41 time=12
control_change channel=0 control=64 value=70 time=3
note_on channel=0 note=73 velocity=61 time=6
control_change channel=0 control=64 value=50 time=9
note_on channel=0 note=66 velocity=41 time=1
control_change channel=0 control=64 value=30 time=15
control_change channel=0 control=64 value=47 time=15
control_change channel=0 control=64 value=55 time=16
control_change channel=0 control=64 value=60 time=15
control_change channel=0 control=64 value=64 time=15
control_change channel=0 control=64 value=66 time=16
control_change channel=0 control=64 value=68 time=15
control_change channel=0 control=67 value=85 time=0
control_change channel=0 control=64 value=70 time=14
note_on channel=0 note=49 velocity=45 time=2
note_on channel=0 note=42 velocity=0 time=12
control_change channel=0 control=64 value=72 time=2
control_change channel=0 control=64 value=73 time=15
control_change channel=0 control=64 value=75 time=23
control_change channel=0 control=67 value=84 time=0
control_change channel=0 control=64 value=76 time=15
control_change channel=0 control=64 value=78 time=15
control_change channel=0 control=64 value=80 time=15
control_change channel=0 control=64 value=81 time=15
note_on channel=0 note=49 velocity=0 time=0
control_change channel=0 control=64 value=80 time=16
control_change channel=0 control=64 value=76 time=15
note_on channel=0 note=57 velocity=46 time=2
control_change channel=0 control=64 value=69 time=12
control_change channel=0 control=64 value=55 time=16
control_change channel=0 control=64 value=59 time=15
control_change channel=0 control=64 value=63 time=16
control_change channel=0 control=67 value=84 time=0
note_on channel=0 note=57 velocity=0 time=12
control_change channel=0 control=64 value=65 time=3
control_change channel=0 control=64 value=67 time=16
control_change channel=0 control=64 value=70 time=15
control_change channel=0 control=64 value=73 time=15
control_change channel=0 control=64 value=76 time=16
control_change channel=0 control=67 value=83 time=0
note_on channel=0 note=54 velocity=44 time=4
control_change channel=0 control=64 value=78 time=11
control_change channel=0 control=67 value=83 time=0
control_change channel=0 control=64 value=80 time=14
control_change channel=0 control=64 value=81 time=16
control_change channel=0 control=67 value=82 time=0
note_on channel=0 note=66 velocity=0 time=6
note_on channel=0 note=73 velocity=0 time=6
control_change channel=0 control=64 value=82 time=3
control_change channel=0 control=64 value=82 time=46
control_change channel=0 control=67 value=83 time=61
control_change channel=0 control=64 value=80 time=15
note_on channel=0 note=66 velocity=46 time=8
control_change channel=0 control=64 value=72 time=7
control_change channel=0 control=64 value=56 time=16
control_change channel=0 control=64 value=0 time=14
control_change channel=0 control=67 value=82 time=76
control_change channel=0 control=64 value=42 time=31
control_change channel=0 control=67 value=81 time=0
control_change channel=0 control=64 value=62 time=14
control_change channel=0 control=67 value=81 time=0
control_change channel=0 control=64 value=65 time=16
control_change channel=0 control=67 value=80 time=0
control_change channel=0 control=64 value=68 time=15
control_change channel=0 control=67 value=77 time=0
control_change channel=0 control=64 value=70 time=15
control_change channel=0 control=67 value=74 time=0
control_change channel=0 control=64 value=73 time=16
control_change channel=0 control=67 value=69 time=0
control_change channel=0 control=64 value=76 time=14
control_change channel=0 control=67 value=63 time=0
control_change channel=0 control=64 value=80 time=16
control_change channel=0 control=67 value=57 time=0
control_change channel=0 control=64 value=84 time=15
control_change channel=0 control=67 value=49 time=0
control_change channel=0 control=64 value=87 time=15
control_change channel=0 control=67 value=43 time=0
control_change channel=0 control=64 value=91 time=16
control_change channel=0 control=67 value=38 time=0
control_change channel=0 control=64 value=94 time=15
control_change channel=0 control=67 value=34 time=0
control_change channel=0 control=64 value=97 time=14
control_change channel=0 control=67 value=30 time=0
control_change channel=0 control=64 value=99 time=24
control_change channel=0 control=67 value=24 time=0
control_change channel=0 control=64 value=100 time=15
control_change channel=0 control=67 value=15 time=0
control_change channel=0 control=67 value=0 time=15
note_on channel=0 note=66 velocity=0 time=8
note_on channel=0 note=54 velocity=0 time=46
note_on channel=0 note=78 velocity=65 time=24
control_change channel=0 control=64 value=98 time=44
control_change channel=0 control=64 value=96 time=15
control_change channel=0 control=64 value=93 time=15
control_change channel=0 control=64 value=91 time=15
control_change channel=0 control=64 value=89 time=15
control_change channel=0 control=64 value=87 time=17
control_change channel=0 control=64 value=84 time=15
control_change channel=0 control=64 value=81 time=14
control_change channel=0 control=64 value=78 time=16
control_change channel=0 control=64 value=74 time=15
control_change channel=0 control=64 value=67 time=16
control_change channel=0 control=64 value=52 time=15
control_change channel=0 control=64 value=27 time=14
control_change channel=0 control=64 value=35 time=16
control_change channel=0 control=64 value=40 time=15
control_change channel=0 control=64 value=43 time=16
control_change channel=0 control=67 value=8 time=0
control_change channel=0 control=64 value=45 time=15
control_change channel=0 control=67 value=11 time=0
control_change channel=0 control=64 value=47 time=15
control_change channel=0 control=67 value=13 time=0
control_change channel=0 control=64 value=50 time=16
control_change channel=0 control=67 value=20 time=0
control_change channel=0 control=64 value=54 time=15
control_change channel=0 control=67 value=28 time=0
control_change channel=0 control=64 value=55 time=14
control_change channel=0 control=67 value=34 time=0
control_change channel=0 control=64 value=56 time=16
control_change channel=0 control=67 value=38 time=0
control_change channel=0 control=64 value=57 time=15
control_change channel=0 control=67 value=42 time=0
control_change channel=0 control=64 value=59 time=16
control_change channel=0 control=67 value=45 time=0
control_change channel=0 control=64 value=61 time=15
control_change channel=0 control=67 value=48 time=0
control_change channel=0 control=64 value=63 time=14
control_change channel=0 control=67 value=51 time=0
control_change channel=0 control=64 value=64 time=16
control_change channel=0 control=67 value=53 time=0
control_change channel=0 control=64 value=65 time=15
control_change channel=0 control=67 value=54 time=0
control_change channel=0 control=64 value=66 time=15
control_change channel=0 control=67 value=57 time=0
control_change channel=0 control=64 value=67 time=16
control_change channel=0 control=67 value=60 time=0
control_change channel=0 control=64 value=68 time=14
control_change channel=0 control=67 value=63 time=0
note_on channel=0 note=58 velocity=38 time=4
control_change channel=0 control=64 value=70 time=12
control_change channel=0 control=67 value=65 time=0
control_change channel=0 control=64 value=71 time=15
control_change channel=0 control=67 value=65 time=0
control_change channel=0 control=64 value=72 time=14
control_change channel=0 control=67 value=66 time=0
control_change channel=0 control=64 value=74 time=16
control_change channel=0 control=67 value=66 time=0
control_change channel=0 control=64 value=75 time=15
control_change channel=0 control=67 value=67 time=0
control_change channel=0 control=64 value=77 time=16
control_change channel=0 control=67 value=67 time=0
control_change channel=0 control=64 value=79 time=15
control_change channel=0 control=67 value=68 time=0
control_change channel=0 control=64 value=81 time=14
control_change channel=0 control=64 value=82 time=16
control_change channel=0 control=64 value=84 time=21
note_on channel=0 note=54 velocity=43 time=13
control_change channel=0 control=64 value=86 time=2
note_on channel=0 note=58 velocity=0 time=3
control_change channel=0 control=64 value=88 time=12
control_change channel=0 control=64 value=89 time=15
control_change channel=0 control=64 value=90 time=16
control_change channel=0 control=64 value=90 time=15
control_change channel=0 control=64 value=92 time=15
control_change channel=0 control=64 value=95 time=15
note_on channel=0 note=54 velocity=0 time=6
control_change channel=0 control=64 value=97 time=9
control_change channel=0 control=64 value=98 time=15
control_change channel=0 control=67 value=67 time=0
control_change channel=0 control=64 value=99 time=16
note_on channel=0 note=61 velocity=44 time=12
control_change channel=0 control=64 value=99 time=3
control_change channel=0 control=64 value=100 time=15
control_change channel=0 control=67 value=67 time=0
control_change channel=0 control=64 value=102 time=15
control_change channel=0 control=67 value=66 time=0
control_change channel=0 control=64 value=104 time=15
control_change channel=0 control=64 value=106 time=15
control_change channel=0 control=67 value=66 time=0
control_change channel=0 control=67 value=65 time=15
control_change channel=0 control=64 value=106 time=15
control_change channel=0 control=67 value=65 time=17
note_on channel=0 note=54 velocity=40 time=22
control_change channel=0 control=67 value=64 time=9
note_on channel=0 note=61 velocity=0 time=16
control_change channel=0 control=64 value=106 time=44
control_change channel=0 control=64 value=104 time=31
control_change channel=0 control=64 value=98 time=14
note_on channel=0 note=71 velocity=67 time=14
control_change channel=0 control=64 value=90 time=2
note_on channel=0 note=54 velocity=0 time=3
control_change channel=0 control=64 value=82 time=12
note_on channel=0 note=62 velocity=39 time=5
control_change channel=0 control=64 value=80 time=10
control_change channel=0 control=64 value=80 time=30
control_change channel=0 control=67 value=64 time=0
control_change channel=0 control=64 value=82 time=16
control_change channel=0 control=64 value=83 time=15
control_change channel=0 control=64 value=85 time=15
control_change channel=0 control=67 value=63 time=0
control_change channel=0 control=64 value=88 time=16
control_change channel=0 control=67 value=63 time=0
control_change channel=0 control=64 value=89 time=15
control_change channel=0 control=67 value=62 time=0
note_on channel=0 note=54 velocity=56 time=8
note_on channel=0 note=62 velocity=0 time=4
control_change channel=0 control=64 value=90 time=3
control_change channel=0 control=67 value=62 time=0
control_change channel=0 control=64 value=91 time=16
control_change channel=0 control=67 value=61 time=0
control_change channel=0 control=64 value=91 time=14
control_change channel=0 control=67 value=61 time=0
control_change channel=0 control=64 value=92 time=16
control_change channel=0 control=64 value=92 time=15
control_change channel=0 control=67 value=60 time=0
control_change channel=0 control=64 value=91 time=14
control_change channel=0 control=67 value=60 time=0
control_change channel=0 control=64 value=87 time=16
control_change channel=0 control=64 value=79 time=15
control_change channel=0 control=67 value=59 time=0
control_change channel=0 control=64 value=70 time=15
control_change channel=0 control=67 value=59 time=0
note_on channel=0 note=64 velocity=61 time=0
note_on channel=0 note=73 velocity=74 time=5
control_change channel=0 control=64 value=67 time=9
control_change channel=0 control=67 value=58 time=0
note_on channel=0 note=54 velocity=0 time=0
control_change channel=0 control=64 value=69 time=14
control_change channel=0 control=67 value=58 time=0
note_on channel=0 note=71 velocity=0 time=4
control_change channel=0 control=64 value=72 time=11
control_change channel=0 control=64 value=74 time=24
control_change channel=0 control=64 value=77 time=15
control_change channel=0 control=67 value=57 time=0
control_change channel=0 control=64 value=80 time=15
control_change channel=0 control=64 value=82 time=15
control_change channel=0 control=64 value=84 time=16
control_change channel=0 control=64 value=84 time=15
note_on channel=0 note=54 velocity=65 time=3
control_change channel=0 control=67 value=57 time=12
note_on channel=0 note=64 velocity=0 time=2
note_on channel=0 note=78 velocity=0 time=17
control_change channel=0 control=64 value=82 time=42
control_change channel=0 control=64 value=78 time=15
control_change channel=0 control=64 value=70 time=15
control_change channel=0 control=64 value=61 time=15
note_on channel=0 note=65 velocity=66 time=2
control_change channel=0 control=64 value=61 time=13
note_on channel=0 note=54 velocity=0 time=1
note_on channel=0 note=66 velocity=57 time=0
control_change channel=0 control=64 value=64 time=15
control_change channel=0 control=64 value=65 time=15
control_change channel=0 control=64 value=66 time=14
control_change channel=0 control=64 value=67 time=16
note_on channel=0 note=73 velocity=0 time=5
control_change channel=0 control=64 value=68 time=10
control_change channel=0 control=64 value=69 time=15
control_change channel=0 control=64 value=70 time=15
control_change channel=0 control=64 value=72 time=16
control_change channel=0 control=64 value=73 time=16
note_on channel=0 note=65 velocity=0 time=14
control_change channel=0 control=64 value=73 time=1
note_on channel=0 note=54 velocity=48 time=0
control_change channel=0 control=64 value=74 time=31
control_change channel=0 control=64 value=73 time=30
control_change channel=0 control=67 value=57 time=0
control_change channel=0 control=64 value=71 time=15
control_change channel=0 control=64 value=67 time=15
control_change channel=0 control=64 value=63 time=16
note_on channel=0 note=54 velocity=0 time=13
control_change channel=0 control=64 value=64 time=1
control_change channel=0 control=64 value=65 time=16
note_on channel=0 note=64 velocity=61 time=0
control_change channel=0 control=64 value=66 time=15
control_change channel=0 control=64 value=66 time=14
control_change channel=0 control=67 value=57 time=0
control_change channel=0 control=64 value=68 time=16
control_change channel=0 control=64 value=69 time=15
control_change channel=0 control=64 value=70 time=15
control_change channel=0 control=64 value=71 time=16
control_change channel=0 control=64 value=72 time=15
note_on channel=0 note=54 velocity=44 time=16
control_change channel=0 control=64 value=73 time=30
control_change channel=0 control=67 value=57 time=30
note_on channel=0 note=64 velocity=0 time=4
control_change channel=0 control=64 value=71 time=11
control_change channel=0 control=64 value=68 time=16
control_change channel=0 control=64 value=65 time=15
note_on channel=0 note=54 velocity=0 time=13
control_change channel=0 control=64 value=64 time=3
control_change channel=0 control=64 value=65 time=22
note_on channel=0 note=63 velocity=45 time=9
control_change channel=0 control=64 value=67 time=7
control_change channel=0 control=64 value=68 time=15
control_change channel=0 control=67 value=57 time=0
control_change channel=0 control=64 value=68 time=15
control_change channel=0 control=64 value=69 time=15
control_change channel=0 control=64 value=70 time=15
control_change channel=0 control=64 value=71 time=15
control_change channel=0 control=64 value=72 time=16
control_change channel=0 control=64 value=72 time=14
note_on channel=0 note=54 velocity=39 time=3
control_change channel=0 control=64 value=73 time=13
note_on channel=0 note=63 velocity=0 time=0
control_change channel=0 control=64 value=73 time=15
control_change channel=0 control=64 value=74 time=31
control_change channel=0 control=67 value=56 time=0
control_change channel=0 control=64 value=74 time=45
note_on channel=0 note=54 velocity=0 time=3
control_change channel=0 control=64 value=75 time=12
control_change channel=0 control=64 value=76 time=16
note_on channel=0 note=62 velocity=35 time=14
control_change channel=0 control=64 value=77 time=1
note_on channel=0 note=71 velocity=53 time=9
control_change channel=0 control=64 value=78 time=6
control_change channel=0 control=64 value=78 time=46
control_change channel=0 control=64 value=79 time=15
note_on channel=0 note=66 velocity=0 time=13
control_change channel=0 control=64 value=80 time=2
control_change channel=0 control=67 value=56 time=46
note_on channel=0 note=62 velocity=0 time=7
note_on channel=0 note=54 velocity=42 time=7
control_change channel=0 control=64 value=80 time=17
note_on channel=0 note=54 velocity=0 time=104
note_on channel=0 note=70 velocity=57 time=11
control_change channel=0 control=64 value=80 time=6
control_change channel=0 control=64 value=79 time=16
note_on channel=0 note=61 velocity=39 time=1
control_change channel=0 control=64 value=77 time=14
control_change channel=0 control=64 value=73 time=14
control_change channel=0 control=64 value=68 time=16
control_change channel=0 control=67 value=56 time=0
note_on channel=0 note=71 velocity=0 time=11
control_change channel=0 control=64 value=68 time=4
control_change channel=0 control=64 value=69 time=16
control_change channel=0 control=64 value=69 time=15
control_change channel=0 control=64 value=70 time=14
control_change channel=0 control=64 value=70 time=16
note_on channel=0 note=54 velocity=32 time=8
control_change channel=0 control=64 value=71 time=7
control_change channel=0 control=64 value=72 time=15
control_change channel=0 control=64 value=72 time=16
control_change channel=0 control=64 value=73 time=22
control_change channel=0 control=64 value=74 time=16
note_on channel=0 note=61 velocity=0 time=7
control_change channel=0 control=64 value=75 time=8
note_on channel=0 note=54 velocity=0 time=15
control_change channel=0 control=64 value=74 time=15
note_on channel=0 note=71 velocity=69 time=14
control_change channel=0 control=64 value=72 time=1
note_on channel=0 note=62 velocity=33 time=5
note_on channel=0 note=70 velocity=0 time=0
control_change channel=0 control=64 value=68 time=11
control_change channel=0 control=64 value=66 time=15
control_change channel=0 control=64 value=66 time=15
control_change channel=0 control=64 value=67 time=15
control_change channel=0 control=64 value=68 time=15
control_change channel=0 control=64 value=68 time=16
control_change channel=0 control=67 value=56 time=0
control_change channel=0 control=64 value=70 time=14
control_change channel=0 control=64 value=71 time=15
control_change channel=0 control=64 value=73 time=16
note_on channel=0 note=54 velocity=38 time=0
note_on channel=0 note=62 velocity=0 time=0
control_change channel=0 control=64 value=74 time=15
control_change channel=0 control=64 value=75 time=15
control_change channel=0 control=64 value=76 time=15
control_change channel=0 control=64 value=76 time=15
control_change channel=0 control=64 value=77 time=16
control_change channel=0 control=64 value=78 time=15
control_change channel=0 control=64 value=77 time=15
note_on channel=0 note=54 velocity=0 time=5
control_change channel=0 control=64 value=75 time=11
note_on channel=0 note=73 velocity=75 time=13
control_change channel=0 control=64 value=72 time=2
note_on channel=0 note=58 velocity=44 time=8
control_change channel=0 control=64 value=69 time=8
control_change channel=0 control=64 value=70 time=29
control_change channel=0 control=67 value=55 time=0
note_on channel=0 note=71 velocity=0 time=0
control_change channel=0 control=64 value=71 time=16
control_change channel=0 control=64 value=72 time=15
control_change channel=0 control=67 value=55 time=0
note_on channel=0 note=58 velocity=0 time=10
control_change channel=0 control=64 value=74 time=5
control_change channel=0 control=64 value=75 time=16
note_on channel=0 note=54 velocity=46 time=0
control_change channel=0 control=64 value=76 time=15
control_change channel=0 control=67 value=54 time=0
control_change channel=0 control=64 value=77 time=16
control_change channel=0 control=64 value=78 time=15
control_change channel=0 control=64 value=79 time=15
control_change channel=0 control=64 value=79 time=16
control_change channel=0 control=64 value=80 time=15
control_change channel=0 control=64 value=80 time=14
control_change channel=0 control=64 value=80 time=16
note_on channel=0 note=54 velocity=0 time=6
control_change channel=0 control=64 value=78 time=9
note_on channel=0 note=74 velocity=76 time=10
note_on channel=0 note=59 velocity=49 time=3
control_change channel=0 control=64 value=74 time=2
control_change channel=0 control=64 value=69 time=15
control_change channel=0 control=64 value=67 time=14
note_on channel=0 note=73 velocity=0 time=1
control_change channel=0 control=64 value=69 time=15
control_change channel=0 control=67 value=54 time=0
control_change channel=0 control=64 value=71 time=15
control_change channel=0 control=67 value=53 time=0
control_change channel=0 control=64 value=72 time=14
control_change channel=0 control=67 value=51 time=0
control_change channel=0 control=64 value=74 time=16
control_change channel=0 control=67 value=50 time=0
control_change channel=0 control=64 value=76 time=15
control_change channel=0 control=67 value=48 time=0
control_change channel=0 control=64 value=78 time=16
control_change channel=0 control=67 value=47 time=0
note_on channel=0 note=54 velocity=50 time=6
control_change channel=0 control=64 value=80 time=9
control_change channel=0 control=67 value=46 time=0
control_change channel=0 control=64 value=81 time=23
control_change channel=0 control=67 value=46 time=0
control_change channel=0 control=67 value=45 time=15
note_on channel=0 note=59 velocity=0 time=5
control_change channel=0 control=67 value=44 time=10
control_change channel=0 control=64 value=81 time=15
control_change channel=0 control=67 value=43 time=0
control_change channel=0 control=64 value=78 time=15
control_change channel=0 control=67 value=43 time=0
control_change channel=0 control=64 value=73 time=15
control_change channel=0 control=67 value=42 time=0
control_change channel=0 control=64 value=65 time=16
control_change channel=0 control=67 value=42 time=0
control_change channel=0 control=64 value=54 time=15
control_change channel=0 control=67 value=41 time=0
note_on channel=0 note=54 velocity=0 time=2
control_change channel=0 control=64 value=62 time=14
control_change channel=0 control=67 value=39 time=0
note_on channel=0 note=66 velocity=52 time=1
note_on channel=0 note=76 velocity=72 time=1
note_on channel=0 note=74 velocity=0 time=7
control_change channel=0 control=64 value=65 time=5
control_change channel=0 control=67 value=37 time=0
note_on channel=0 note=73 velocity=53 time=0
control_change channel=0 control=64 value=66 time=15
control_change channel=0 control=67 value=35 time=0
control_change channel=0 control=64 value=68 time=16
control_change channel=0 control=67 value=33 time=0
control_change channel=0 control=64 value=70 time=15
control_change channel=0 control=67 value=30 time=0
control_change channel=0 control=64 value=71 time=16
control_change channel=0 control=67 value=28 time=0
control_change channel=0 control=64 value=73 time=14
control_change channel=0 control=67 value=26 time=0
control_change channel=0 control=64 value=74 time=15
control_change channel=0 control=67 value=24 time=0
note_on channel=0 note=54 velocity=61 time=12
control_change channel=0 control=64 value=76 time=4
control_change channel=0 control=67 value=23 time=0
control_change channel=0 control=64 value=77 time=15
control_change channel=0 control=67 value=19 time=0
control_change channel=0 control=64 value=79 time=15
control_change channel=0 control=67 value=15 time=0
note_on channel=0 note=66 velocity=0 time=0
control_change channel=0 control=64 value=81 time=15
control_change channel=0 control=67 value=12 time=0
control_change channel=0 control=64 value=82 time=15
control_change channel=0 control=67 value=10 time=0
control_change channel=0 control=64 value=80 time=16
control_change channel=0 control=67 value=9 time=0
control_change channel=0 control=64 value=78 time=15
control_change channel=0 control=67 value=0 time=0
control_change channel=0 control=64 value=74 time=15
control_change channel=0 control=64 value=71 time=16
note_on channel=0 note=54 velocity=0 time=3
control_change channel=0 control=64 value=72 time=12
note_on channel=0 note=67 velocity=72 time=9
control_change channel=0 control=64 value=74 time=6
control_change channel=0 control=64 value=76 time=15
control_change channel=0 control=64 value=79 time=15
control_change channel=0 control=64 value=82 time=16
control_change channel=0 control=64 value=86 time=14
control_change channel=0 control=64 value=89 time=15
control_change channel=0 control=64 value=90 time=17
note_on channel=0 note=55 velocity=70 time=27
note_on channel=0 note=67 velocity=0 time=0
control_change channel=0 control=64 value=91 time=34
control_change channel=0 control=64 value=90 time=91
control_change channel=0 control=64 value=84 time=15
note_on channel=0 note=76 velocity=0 time=11
control_change channel=0 control=64 value=68 time=4
note_on channel=0 note=73 velocity=0 time=7
note_on channel=0 note=68 velocity=46 time=3
note_on channel=0 note=75 velocity=64 time=0
control_change channel=0 control=64 value=0 time=5
note_on channel=0 note=55 velocity=0 time=8
note_on channel=0 note=72 velocity=50 time=4
control_change channel=0 control=64 value=60 time=103
control_change channel=0 control=64 value=65 time=15
note_on channel=0 note=68 velocity=0 time=6
control_change channel=0 control=64 value=68 time=9
note_on channel=0 note=56 velocity=62 time=6
note_on channel=0 note=75 velocity=0 time=4
control_change channel=0 control=64 value=72 time=5
control_change channel=0 control=64 value=77 time=15
control_change channel=0 control=64 value=83 time=15
control_change channel=0 control=64 value=89 time=15
control_change channel=0 control=64 value=93 time=15
control_change channel=0 control=64 value=94 time=16
control_change channel=0 control=64 value=95 time=15
control_change channel=0 control=64 value=94 time=60
control_change channel=0 control=64 value=92 time=16
control_change channel=0 control=64 value=87 time=15
note_on channel=0 note=56 velocity=0 time=10
note_on channel=0 note=81 velocity=75 time=2
control_change channel=0 control=64 value=80 time=4
note_on channel=0 note=72 velocity=0 time=1
note_on channel=0 note=68 velocity=47 time=11
control_change channel=0 control=64 value=71 time=2
control_change channel=0 control=64 value=51 time=15
control_change channel=0 control=64 value=27 time=16
control_change channel=0 control=64 value=48 time=14
control_change channel=0 control=64 value=56 time=15
control_change channel=0 control=64 value=59 time=16
control_change channel=0 control=64 value=62 time=15
control_change channel=0 control=64 value=63 time=16
control_change channel=0 control=64 value=65 time=15
control_change channel=0 control=64 value=67 time=15
control_change channel=0 control=64 value=68 time=16
control_change channel=0 control=64 value=70 time=14
control_change channel=0 control=67 value=8 time=0
note_on channel=0 note=68 velocity=0 time=13
control_change channel=0 control=64 value=70 time=3
control_change channel=0 control=67 value=10 time=0
control_change channel=0 control=64 value=71 time=15
control_change channel=0 control=67 value=12 time=0
note_on channel=0 note=56 velocity=42 time=13
control_change channel=0 control=64 value=72 time=2
control_change channel=0 control=67 value=13 time=0
control_change channel=0 control=64 value=73 time=16
control_change channel=0 control=67 value=13 time=0
control_change channel=0 control=67 value=14 time=15
control_change channel=0 control=67 value=16 time=15
control_change channel=0 control=64 value=74 time=16
control_change channel=0 control=67 value=18 time=0
control_change channel=0 control=67 value=20 time=15
control_change channel=0 control=67 value=23 time=16
control_change channel=0 control=64 value=72 time=15
control_change channel=0 control=67 value=26 time=0
control_change channel=0 control=64 value=70 time=15
control_change channel=0 control=67 value=28 time=0
control_change channel=0 control=64 value=67 time=15
control_change channel=0 control=67 value=30 time=0
control_change channel=0 control=64 value=66 time=15
control_change channel=0 control=67 value=32 time=0
note_on channel=0 note=80 velocity=60 time=14
control_change channel=0 control=64 value=67 time=2
control_change channel=0 control=67 value=34 time=0
note_on channel=0 note=56 velocity=0 time=10
control_change channel=0 control=64 value=68 time=5
control_change channel=0 control=67 value=36 time=0
note_on channel=0 note=81 velocity=0 time=0
control_change channel=0 control=64 value=69 time=15
control_change channel=0 control=67 value=37 time=0
note_on channel=0 note=68 velocity=33 time=5
control_change channel=0 control=64 value=69 time=11
control_change channel=0 control=67 value=38 time=0
control_change channel=0 control=64 value=70 time=15
control_change channel=0 control=64 value=71 time=15
control_change channel=0 control=67 value=39 time=0
control_change channel=0 control=64 value=72 time=23
control_change channel=0 control=67 value=39 time=0
control_change channel=0 control=67 value=40 time=15
control_change channel=0 control=64 value=73 time=16
control_change channel=0 control=67 value=40 time=0
note_on channel=0 note=68 velocity=0 time=4
control_change channel=0 control=64 value=74 time=11
note_on channel=0 note=56 velocity=28 time=15
control_change channel=0 control=64 value=76 time=1
control_change channel=0 control=64 value=76 time=14
control_change channel=0 control=64 value=77 time=15
control_change channel=0 control=64 value=78 time=16
control_change channel=0 control=64 value=79 time=15
control_change channel=0 control=67 value=40 time=0
control_change channel=0 control=64 value=80 time=15
control_change channel=0 control=64 value=82 time=15
control_change channel=0 control=67 value=39 time=0
control_change channel=0 control=64 value=84 time=15
note_on channel=0 note=56 velocity=0 time=12
control_change channel=0 control=64 value=85 time=4
control_change channel=0 control=67 value=39 time=0
control_change channel=0 control=64 value=85 time=14
control_change channel=0 control=67 value=38 time=0
control_change channel=0 control=64 value=86 time=15
control_change channel=0 control=67 value=38 time=0
note_on channel=0 note=68 velocity=42 time=0
control_change channel=0 control=64 value=86 time=16
control_change channel=0 control=64 value=87 time=15
control_change channel=0 control=64 value=87 time=15
control_change channel=0 control=67 value=37 time=0
control_change channel=0 control=67 value=37 time=16
note_on channel=0 note=56 velocity=37 time=52
control_change channel=0 control=67 value=36 time=24
control_change channel=0 control=67 value=36 time=15
control_change channel=0 control=64 value=87 time=31
control_change channel=0 control=64 value=86 time=14
control_change channel=0 control=64 value=85 time=16
control_change channel=0 control=64 value=84 time=15
note_on channel=0 note=73 velocity=62 time=14
control_change channel=0 control=64 value=80 time=1
note_on channel=0 note=68 velocity=0 time=6
control_change channel=0 control=64 value=76 time=10
note_on channel=0 note=56 velocity=0 time=7
note_on channel=0 note=64 velocity=43 time=6
control_change channel=0 control=64 value=74 time=1
control_change channel=0 control=64 value=73 time=16
control_change channel=0 control=64 value=73 time=29
control_change channel=0 control=67 value=35 time=0
control_change channel=0 control=64 value=73 time=31
control_change channel=0 control=67 value=34 time=0
control_change channel=0 control=64 value=74 time=15
control_change channel=0 control=67 value=34 time=0
control_change channel=0 control=64 value=75 time=17
note_on channel=0 note=56 velocity=45 time=4
control_change channel=0 control=64 value=76 time=11
control_change channel=0 control=67 value=33 time=0
control_change channel=0 control=64 value=76 time=16
control_change channel=0 control=64 value=78 time=14
control_change channel=0 control=67 value=33 time=0
control_change channel=0 control=64 value=79 time=15
control_change channel=0 control=67 value=32 time=0
control_change channel=0 control=64 value=77 time=47
control_change channel=0 control=67 value=32 time=0
note_on channel=0 note=80 velocity=0 time=7
control_change channel=0 control=64 value=74 time=7
note_on channel=0 note=66 velocity=63 time=12
control_change channel=0 control=64 value=72 time=3
note_on channel=0 note=75 velocity=63 time=0
control_change channel=0 control=67 value=31 time=16
note_on channel=0 note=56 velocity=0 time=1
control_change channel=0 control=64 value=73 time=21
control_change channel=0 control=64 value=74 time=16
control_change channel=0 control=67 value=30 time=0
control_change channel=0 control=64 value=75 time=15
control_change channel=0 control=67 value=30 time=0
control_change channel=0 control=64 value=77 time=15
note_on channel=0 note=73 velocity=0 time=7
control_change channel=0 control=64 value=80 time=9
control_change channel=0 control=64 value=83 time=14
control_change channel=0 control=67 value=29 time=0
control_change channel=0 control=64 value=86 time=15
control_change channel=0 control=67 value=29 time=0
note_on channel=0 note=56 velocity=62 time=14
control_change channel=0 control=64 value=86 time=2
note_on channel=0 note=66 velocity=0 time=6
control_change channel=0 control=64 value=87 time=9
control_change channel=0 control=64 value=86 time=30
control_change channel=0 control=64 value=85 time=31
control_change channel=0 control=64 value=83 time=14
control_change channel=0 control=64 value=78 time=16
control_change channel=0 control=67 value=29 time=0
control_change channel=0 control=64 value=68 time=15
note_on channel=0 note=56 velocity=0 time=0
note_on channel=0 note=67 velocity=65 time=8
control_change channel=0 control=64 value=60 time=7
note_on channel=0 note=68 velocity=57 time=12
control_change channel=0 control=64 value=62 time=4
control_change channel=0 control=64 value=64 time=14
control_change channel=0 control=64 value=65 time=15
control_change channel=0 control=67 value=29 time=0
control_change channel=0 control=64 value=66 time=16
note_on channel=0 note=75 velocity=0 time=6
control_change channel=0 control=64 value=67 time=9
control_change channel=0 control=64 value=69 time=16
control_change channel=0 control=64 value=71 time=15
note_on channel=0 note=67 velocity=0 time=11
control_change channel=0 control=64 value=72 time=4
control_change channel=0 control=64 value=73 time=16
note_on channel=0 note=56 velocity=49 time=5
control_change channel=0 control=64 value=73 time=9
control_change channel=0 control=64 value=74 time=15
control_change channel=0 control=64 value=75 time=16
control_change channel=0 control=64 value=76 time=15
control_change channel=0 control=64 value=76 time=16
control_change channel=0 control=64 value=75 time=15
control_change channel=0 control=67 value=29 time=0
control_change channel=0 control=64 value=73 time=14
note_on channel=0 note=56 velocity=0 time=11
control_change channel=0 control=64 value=69 time=5
note_on channel=0 note=66 velocity=51 time=14
control_change channel=0 control=64 value=64 time=1
control_change channel=0 control=64 value=63 time=16
control_change channel=0 control=64 value=64 time=15
control_change channel=0 control=64 value=66 time=14
note_on channel=0 note=64 velocity=0 time=0
control_change channel=0 control=64 value=67 time=16
control_change channel=0 control=64 value=69 time=15
control_change channel=0 control=64 value=71 time=14
control_change channel=0 control=64 value=72 time=16
control_change channel=0 control=64 value=73 time=16
control_change channel=0 control=64 value=74 time=16
note_on channel=0 note=56 velocity=43 time=10
control_change channel=0 control=64 value=75 time=5
note_on channel=0 note=66 velocity=0 time=10
control_change channel=0 control=64 value=75 time=5
control_change channel=0 control=64 value=76 time=16
control_change channel=0 control=64 value=75 time=29
control_change channel=0 control=64 value=73 time=16
control_change channel=0 control=64 value=69 time=22
note_on channel=0 note=56 velocity=0 time=13
control_change channel=0 control=64 value=68 time=3
control_change channel=0 control=64 value=69 time=15
note_on channel=0 note=65 velocity=44 time=10
control_change channel=0 control=64 value=70 time=6
control_change channel=0 control=64 value=71 time=15
control_change channel=0 control=67 value=29 time=0
control_change channel=0 control=64 value=72 time=14
control_change channel=0 control=64 value=74 time=16
control_change channel=0 control=64 value=75 time=15
control_change channel=0 control=64 value=76 time=15
control_change channel=0 control=64 value=77 time=16
note_on channel=0 note=65 velocity=0 time=13
control_change channel=0 control=64 value=77 time=1
note_on channel=0 note=56 velocity=44 time=14
control_change channel=0 control=64 value=78 time=2
control_change channel=0 control=64 value=79 time=15
control_change channel=0 control=64 value=80 time=15
control_change channel=0 control=64 value=81 time=16
control_change channel=0 control=64 value=81 time=14
note_on channel=0 note=56 velocity=0 time=58
control_change channel=0 control=64 value=80 time=3
control_change channel=0 control=64 value=77 time=15
note_on channel=0 note=73 velocity=56 time=6
note_on channel=0 note=68 velocity=0 time=5
control_change channel=0 control=64 value=73 time=4
note_on channel=0 note=64 velocity=39 time=15
control_change channel=0 control=64 value=70 time=1
control_change channel=0 control=64 value=71 time=15
control_change channel=0 control=64 value=72 time=15
control_change channel=0 control=64 value=72 time=15
control_change channel=0 control=64 value=73 time=15
control_change channel=0 control=64 value=75 time=16
control_change channel=0 control=67 value=28 time=0
control_change channel=0 control=64 value=77 time=14
control_change channel=0 control=64 value=79 time=15
note_on channel=0 note=56 velocity=34 time=3
control_change channel=0 control=64 value=80 time=13
control_change channel=0 control=67 value=28 time=15
note_on channel=0 note=64 velocity=0 time=30
control_change channel=0 control=64 value=80 time=32
control_change channel=0 control=64 value=78 time=15
control_change channel=0 control=67 value=28 time=0
control_change channel=0 control=64 value=76 time=14
control_change channel=0 control=64 value=70 time=16
note_on channel=0 note=56 velocity=0 time=8
note_on channel=0 note=72 velocity=49 time=1
note_on channel=0 note=73 velocity=0 time=4
control_change channel=0 control=64 value=64 time=2
control_change channel=0 control=64 value=61 time=15
note_on channel=0 note=63 velocity=38 time=4
control_change channel=0 control=64 value=63 time=11
control_change channel=0 control=64 value=64 time=14
control_change channel=0 control=64 value=65 time=16
control_change channel=0 control=67 value=28 time=0
control_change channel=0 control=64 value=66 time=15
control_change channel=0 control=64 value=67 time=17
control_change channel=0 control=64 value=68 time=15
control_change channel=0 control=64 value=69 time=14
control_change channel=0 control=64 value=70 time=16
control_change channel=0 control=67 value=27 time=0
note_on channel=0 note=56 velocity=39 time=3
control_change channel=0 control=64 value=71 time=12
control_change channel=0 control=64 value=71 time=23
control_change channel=0 control=67 value=27 time=0
control_change channel=0 control=64 value=72 time=15
control_change channel=0 control=64 value=73 time=15
control_change channel=0 control=67 value=26 time=0
control_change channel=0 control=64 value=74 time=16
control_change channel=0 control=64 value=74 time=15
control_change channel=0 control=64 value=75 time=16
note_on channel=0 note=56 velocity=0 time=1
note_on channel=0 note=63 velocity=0 time=11
control_change channel=0 control=64 value=75 time=3
control_change channel=0 control=67 value=26 time=0
note_on channel=0 note=73 velocity=58 time=6
control_change channel=0 control=64 value=76 time=8
control_change channel=0 control=67 value=24 time=0
note_on channel=0 note=72 velocity=0 time=3
control_change channel=0 control=64 value=77 time=13
control_change channel=0 control=67 value=21 time=0
note_on channel=0 note=64 velocity=39 time=5
control_change channel=0 control=64 value=78 time=10
control_change channel=0 control=67 value=19 time=0
control_change channel=0 control=64 value=78 time=14
control_change channel=0 control=67 value=17 time=0
control_change channel=0 control=64 value=79 time=16
control_change channel=0 control=67 value=16 time=0
control_change channel=0 control=64 value=79 time=15
control_change channel=0 control=67 value=15 time=0
control_change channel=0 control=64 value=80 time=16
control_change channel=0 control=67 value=14 time=0
control_change channel=0 control=64 value=81 time=15
control_change channel=0 control=67 value=13 time=0
note_on channel=0 note=56 velocity=40 time=7
control_change channel=0 control=67 value=13 time=7
control_change channel=0 control=64 value=81 time=16
control_change channel=0 control=67 value=12 time=0
control_change channel=0 control=64 value=82 time=15
control_change channel=0 control=67 value=12 time=0
note_on channel=0 note=64 velocity=0 time=5
control_change channel=0 control=64 value=82 time=10
control_change channel=0 control=67 value=11 time=0
control_change channel=0 control=64 value=83 time=15
control_change channel=0 control=67 value=11 time=0
control_change channel=0 control=64 value=84 time=15
control_change channel=0 control=67 value=10 time=0
control_change channel=0 control=64 value=84 time=16
control_change channel=0 control=67 value=10 time=0
note_on channel=0 note=56 velocity=0 time=6
control_change channel=0 control=67 value=9 time=9
control_change channel=0 control=67 value=9 time=15
note_on channel=0 note=75 velocity=57 time=12
control_change channel=0 control=64 value=85 time=3
control_change channel=0 control=67 value=8 time=0
note_on channel=0 note=60 velocity=41 time=4
note_on channel=0 note=73 velocity=0 time=10
control_change channel=0 control=64 value=86 time=1
control_change channel=0 control=67 value=0 time=0
control_change channel=0 control=64 value=87 time=15
control_change channel=0 control=64 value=87 time=16
control_change channel=0 control=64 value=88 time=15
control_change channel=0 control=64 value=89 time=16
note_on channel=0 note=60 velocity=0 time=12
control_change channel=0 control=64 value=90 time=2
control_change channel=0 control=64 value=92 time=15
note_on channel=0 note=56 velocity=38 time=5
control_change channel=0 control=64 value=93 time=11
control_change channel=0 control=64 value=93 time=15
control_change channel=0 control=64 value=94 time=16
control_change channel=0 control=64 value=95 time=15
control_change channel=0 control=64 value=97 time=15
control_change channel=0 control=64 value=98 time=15
control_change channel=0 control=64 value=99 time=15
note_on channel=0 note=56 velocity=0 time=11
control_change channel=0 control=64 value=100 time=4
control_change channel=0 control=64 value=100 time=16
note_on channel=0 note=76 velocity=63 time=14
control_change channel=0 control=64 value=101 time=1
note_on channel=0 note=61 velocity=47 time=3
note_on channel=0 note=75 velocity=0 time=6
control_change channel=0 control=64 value=102 time=6
control_change channel=0 control=64 value=103 time=15
control_change channel=0 control=64 value=103 time=30
note_on channel=0 note=56 velocity=49 time=54
note_on channel=0 note=61 velocity=0 time=39
note_on channel=0 note=76 velocity=0 time=3
control_change channel=0 control=64 value=103 time=65
control_change channel=0 control=64 value=97 time=15
control_change channel=0 control=64 value=89 time=15
note_on channel=0 note=56 velocity=0 time=7
note_on channel=0 note=78 velocity=63 time=6
control_change channel=0 control=64 value=79 time=3
note_on channel=0 note=68 velocity=46 time=9
control_change channel=0 control=64 value=72 time=6
note_on channel=0 note=75 velocity=43 time=0
control_change channel=0 control=64 value=71 time=15
control_change channel=0 control=64 value=73 time=15
control_change channel=0 control=64 value=73 time=15
control_change channel=0 control=64 value=74 time=16
control_change channel=0 control=64 value=75 time=15
control_change channel=0 control=64 value=76 time=14
note_on channel=0 note=56 velocity=58 time=9
control_change channel=0 control=64 value=78 time=7
control_change channel=0 control=64 value=80 time=15
control_change channel=0 control=64 value=81 time=16
note_on channel=0 note=68 velocity=0 time=1
control_change channel=0 control=64 value=83 time=14
control_change channel=0 control=64 value=84 time=14
control_change channel=0 control=64 value=86 time=16
control_change channel=0 control=64 value=87 time=15
note_on channel=0 note=56 velocity=0 time=24
control_change channel=0 control=64 value=85 time=6
note_on channel=0 note=69 velocity=61 time=11
control_change channel=0 control=64 value=82 time=4
control_change channel=0 control=64 value=78 time=16
control_change channel=0 control=64 value=77 time=15
control_change channel=0 control=64 value=77 time=45
control_change channel=0 control=64 value=79 time=16
control_change channel=0 control=64 value=81 time=15
note_on channel=0 note=69 velocity=0 time=5
note_on channel=0 note=57 velocity=61 time=5
control_change channel=0 control=64 value=83 time=5
control_change channel=0 control=64 value=85 time=15
control_change channel=0 control=64 value=82 time=30
control_change channel=0 control=64 value=76 time=16
control_change channel=0 control=64 value=67 time=15
control_change channel=0 control=64 value=61 time=16
control_change channel=0 control=64 value=64 time=15
note_on channel=0 note=70 velocity=70 time=9
control_change channel=0 control=64 value=66 time=6
control_change channel=0 control=64 value=68 time=16
control_change channel=0 control=64 value=72 time=14
control_change channel=0 control=64 value=75 time=16
control_change channel=0 control=64 value=78 time=15
note_on channel=0 note=57 velocity=0 time=10
control_change channel=0 control=64 value=81 time=5
control_change channel=0 control=64 value=83 time=16
note_on channel=0 note=58 velocity=67 time=8
control_change channel=0 control=64 value=85 time=7
control_change channel=0 control=64 value=86 time=15
note_on channel=0 note=70 velocity=0 time=36
control_change channel=0 control=64 value=85 time=18
control_change channel=0 control=64 value=81 time=15
control_change channel=0 control=64 value=77 time=16
note_on channel=0 note=78 velocity=0 time=4
control_change channel=0 control=64 value=74 time=11
control_change channel=0 control=64 value=74 time=15
control_change channel=0 control=64 value=76 time=15
note_on channel=0 note=77 velocity=86 time=6
control_change channel=0 control=64 value=78 time=9
note_on channel=0 note=71 velocity=70 time=1
note_on channel=0 note=74 velocity=69 time=3
control_change channel=0 control=64 value=81 time=11
note_on channel=0 note=75 velocity=0 time=2
control_change channel=0 control=64 value=85 time=14
control_change channel=0 control=64 value=88 time=15
control_change channel=0 control=64 value=91 time=15
control_change channel=0 control=64 value=92 time=15
control_change channel=0 control=64 value=94 time=15
control_change channel=0 control=64 value=97 time=15
note_on channel=0 note=59 velocity=75 time=4
note_on channel=0 note=58 velocity=0 time=2
note_on channel=0 note=71 velocity=0 time=7
control_change channel=0 control=64 value=99 time=2
control_change channel=0 control=64 value=101 time=15
control_change channel=0 control=64 value=101 time=16
note_on channel=0 note=77 velocity=0 time=22
note_on channel=0 note=59 velocity=0 time=38
control_change channel=0 control=64 value=98 time=1
control_change channel=0 control=64 value=89 time=16
control_change channel=0 control=64 value=75 time=14
note_on channel=0 note=72 velocity=71 time=10
note_on channel=0 note=80 velocity=96 time=2
control_change channel=0 control=64 value=63 time=4
control_change channel=0 control=64 value=65 time=15
note_on channel=0 note=77 velocity=65 time=3
note_on channel=0 note=74 velocity=0 time=8
control_change channel=0 control=64 value=68 time=4
control_change channel=0 control=64 value=71 time=15
control_change channel=0 control=64 value=74 time=15
control_change channel=0 control=64 value=77 time=15
control_change channel=0 control=64 value=81 time=16
note_on channel=0 note=60 velocity=72 time=10
note_on channel=0 note=72 velocity=0 time=3
control_change channel=0 control=64 value=84 time=2
control_change channel=0 control=64 value=87 time=15
control_change channel=0 control=64 value=90 time=15
control_change channel=0 control=64 value=92 time=15
control_change channel=0 control=64 value=93 time=16
control_change channel=0 control=64 value=93 time=14
control_change channel=0 control=64 value=91 time=31
control_change channel=0 control=64 value=87 time=15
note_on channel=0 note=73 velocity=88 time=6
control_change channel=0 control=64 value=81 time=10
note_on channel=0 note=60 velocity=0 time=13
control_change channel=0 control=64 value=77 time=1
control_change channel=0 control=64 value=78 time=15
control_change channel=0 control=64 value=80 time=16
control_change channel=0 control=64 value=82 time=15
control_change channel=0 control=64 value=85 time=15
control_change channel=0 control=64 value=89 time=15
note_on channel=0 note=61 velocity=76 time=14
control_change channel=0 control=64 value=92 time=1
control_change channel=0 control=64 value=96 time=16
note_on channel=0 note=73 velocity=0 time=2
control_change channel=0 control=64 value=98 time=20
note_on channel=0 note=77 velocity=0 time=2
control_change channel=0 control=64 value=100 time=14
control_change channel=0 control=64 value=100 time=15
control_change channel=0 control=64 value=98 time=31
note_on channel=0 note=80 velocity=0 time=7
control_change channel=0 control=64 value=92 time=9
note_on channel=0 note=61 velocity=0 time=11
note_on channel=0 note=74 velocity=87 time=2
control_change channel=0 control=64 value=83 time=3
control_change channel=0 control=64 value=77 time=14
control_change channel=0 control=64 value=79 time=15
control_change channel=0 control=64 value=83 time=16
control_change channel=0 control=64 value=87 time=15
control_change channel=0 control=64 value=92 time=15
control_change channel=0 control=64 value=97 time=15
control_change channel=0 control=64 value=103 time=15
note_on channel=0 note=62 velocity=74 time=9
control_change channel=0 control=64 value=107 time=7
control_change channel=0 control=64 value=109 time=14
note_on channel=0 note=74 velocity=0 time=2
control_change channel=0 control=64 value=110 time=13
control_change channel=0 control=64 value=110 time=16
control_change channel=0 control=64 value=113 time=15
control_change channel=0 control=64 value=113 time=15
control_change channel=0 control=64 value=112 time=15
control_change channel=0 control=64 value=103 time=15
note_on channel=0 note=62 velocity=0 time=0
control_change channel=0 control=64 value=90 time=16
control_change channel=0 control=64 value=79 time=15
note_on channel=0 note=83 velocity=97 time=3
note_on channel=0 note=73 velocity=76 time=9
control_change channel=0 control=64 value=75 time=3
note_on channel=0 note=80 velocity=73 time=4
control_change channel=0 control=64 value=79 time=12
control_change channel=0 control=64 value=85 time=14
control_change channel=0 control=64 value=90 time=15
control_change channel=0 control=64 value=96 time=16
control_change channel=0 control=64 value=102 time=15
control_change channel=0 control=64 value=109 time=16
note_on channel=0 note=61 velocity=76 time=2
note_on channel=0 note=73 velocity=0 time=4
control_change channel=0 control=64 value=116 time=9
control_change channel=0 control=64 value=119 time=15
note_on channel=0 note=65 velocity=69 time=16
control_change channel=0 control=64 value=118 time=30
note_on channel=0 note=68 velocity=71 time=21
note_on channel=0 note=83 velocity=0 time=5
control_change channel=0 control=64 value=114 time=4
control_change channel=0 control=64 value=106 time=15
control_change channel=0 control=64 value=94 time=15
control_change channel=0 control=64 value=80 time=15
control_change channel=0 control=64 value=66 time=16
note_on channel=0 note=71 velocity=70 time=13
control_change channel=0 control=64 value=0 time=1
note_on channel=0 note=86 velocity=91 time=21
note_on channel=0 note=80 velocity=0 time=3
control_change channel=0 control=64 value=32 time=7
control_change channel=0 control=64 value=62 time=15
control_change channel=0 control=64 value=66 time=16
note_on channel=0 note=71 velocity=0 time=4
control_change channel=0 control=64 value=70 time=10
note_on channel=0 note=65 velocity=0 time=6
control_change channel=0 control=64 value=73 time=9
note_on channel=0 note=68 velocity=0 time=1
control_change channel=0 control=64 value=78 time=15
note_on channel=0 note=61 velocity=0 time=17
control_change channel=0 control=64 value=83 time=6
control_change channel=0 control=64 value=90 time=16
note_on channel=0 note=83 velocity=94 time=8
control_change channel=0 control=64 value=98 time=6
control_change channel=0 control=64 value=105 time=16
note_on channel=0 note=86 velocity=0 time=13
control_change channel=0 control=64 value=112 time=2
control_change channel=0 control=64 value=124 time=14
control_change channel=0 control=64 value=127 time=16
note_on channel=0 note=80 velocity=95 time=53
note_on channel=0 note=83 velocity=0 time=30
note_on channel=0 note=49 velocity=79 time=37
note_on channel=0 note=77 velocity=92 time=43
note_on channel=0 note=80 velocity=0 time=3
note_on channel=0 note=53 velocity=76 time=12
control_change channel=0 control=64 value=112 time=21
note_on channel=0 note=56 velocity=78 time=12
control_change channel=0 control=64 value=91 time=2
note_on channel=0 note=77 velocity=0 time=8
control_change channel=0 control=64 value=70 time=7
control_change channel=0 control=64 value=0 time=16
note_on channel=0 note=59 velocity=87 time=30
note_on channel=0 note=74 velocity=100 time=11
control_change channel=0 control=64 value=55 time=22
note_on channel=0 note=59 velocity=0 time=12
control_change channel=0 control=64 value=71 time=3
note_on channel=0 note=56 velocity=0 time=10
note_on channel=0 note=53 velocity=0 time=4
control_change channel=0 control=64 value=81 time=1
note_on channel=0 note=49 velocity=0 time=5
control_change channel=0 control=64 value=93 time=11
control_change channel=0 control=64 value=100 time=14
control_change channel=0 control=64 value=101 time=15
note_on channel=0 note=71 velocity=91 time=20
control_change channel=0 control=64 value=97 time=11
control_change channel=0 control=64 value=83 time=16
note_on channel=0 note=74 velocity=0 time=4
control_change channel=0 control=64 value=62 time=11
control_change channel=0 control=64 value=0 time=15
note_on channel=0 note=68 velocity=87 time=66
note_on channel=0 note=71 velocity=0 time=13
note_on channel=0 note=37 velocity=67 time=41
note_on channel=0 note=41 velocity=68 time=51
note_on channel=0 note=68 velocity=0 time=1
note_on channel=0 note=65 velocity=85 time=6
note_on channel=0 note=44 velocity=74 time=43
note_on channel=0 note=65 velocity=0 time=42
control_change channel=0 control=64 value=55 time=16
note_on channel=0 note=47 velocity=83 time=2
note_on channel=0 note=37 velocity=0 time=2
note_on channel=0 note=41 velocity=0 time=10
control_change channel=0 control=64 value=72 time=1
note_on channel=0 note=62 velocity=85 time=9
note_on channel=0 note=44 velocity=0 time=3
control_change channel=0 control=64 value=82 time=3
control_change channel=0 control=64 value=93 time=15
note_on channel=0 note=47 velocity=0 time=1
control_change channel=0 control=64 value=99 time=15
control_change channel=0 control=64 value=99 time=15
note_on channel=0 note=62 velocity=0 time=27
note_on channel=0 note=61 velocity=78 time=37
control_change channel=0 control=64 value=98 time=13
note_on channel=0 note=61 velocity=0 time=9
control_change channel=0 control=64 value=96 time=7
control_change channel=0 control=64 value=92 time=15
control_change channel=0 control=64 value=87 time=14
control_change channel=0 control=64 value=76 time=16
control_change channel=0 control=64 value=58 time=15
control_change channel=0 control=64 value=0 time=15
note_on channel=0 note=50 velocity=53 time=37
note_on channel=0 note=74 velocity=69 time=15
control_change channel=0 control=64 value=26 time=70
control_change channel=0 control=64 value=64 time=16
control_change channel=0 control=64 value=72 time=14
note_on channel=0 note=74 velocity=0 time=1
note_on channel=0 note=50 velocity=0 time=2
note_on channel=0 note=49 velocity=65 time=3
note_on channel=0 note=73 velocity=76 time=9
control_change channel=0 control=64 value=77 time=1
control_change channel=0 control=64 value=82 time=15
note_on channel=0 note=49 velocity=0 time=4
note_on channel=0 note=73 velocity=0 time=2
control_change channel=0 control=64 value=87 time=9
control_change channel=0 control=64 value=93 time=16
control_change channel=0 control=64 value=98 time=14
control_change channel=0 control=64 value=99 time=15
control_change channel=0 control=64 value=97 time=30
control_change channel=0 control=64 value=88 time=16
control_change channel=0 control=64 value=70 time=15
note_on channel=0 note=74 velocity=92 time=0
control_change channel=0 control=64 value=0 time=15
note_on channel=0 note=50 velocity=65 time=11
control_change channel=0 control=64 value=59 time=51
control_change channel=0 control=64 value=68 time=15
control_change channel=0 control=64 value=74 time=15
note_on channel=0 note=73 velocity=91 time=11
control_change channel=0 control=64 value=81 time=4
note_on channel=0 note=74 velocity=0 time=3
note_on channel=0 note=49 velocity=72 time=7
note_on channel=0 note=50 velocity=0 time=4
control_change channel=0 control=64 value=90 time=1
note_on channel=0 note=73 velocity=0 time=12
control_change channel=0 control=64 value=97 time=12
control_change channel=0 control=64 value=101 time=14
note_on channel=0 note=49 velocity=0 time=3
control_change channel=0 control=64 value=103 time=13
control_change channel=0 control=64 value=103 time=15
control_change channel=0 control=64 value=101 time=91
control_change channel=0 control=64 value=96 time=15
note_on channel=0 note=74 velocity=88 time=10
control_change channel=0 control=64 value=89 time=5
control_change channel=0 control=64 value=80 time=16
control_change channel=0 control=64 value=68 time=17
note_on channel=0 note=50 velocity=45 time=4
control_change channel=0 control=64 value=0 time=12
control_change channel=0 control=64 value=47 time=122
control_change channel=0 control=64 value=62 time=15
note_on channel=0 note=49 velocity=60 time=7
control_change channel=0 control=64 value=65 time=8
note_on channel=0 note=50 velocity=0 time=2
control_change channel=0 control=64 value=67 time=13
control_change channel=0 control=64 value=69 time=15
note_on channel=0 note=49 velocity=0 time=10
control_change channel=0 control=64 value=71 time=6
control_change channel=0 control=64 value=74 time=15
control_change channel=0 control=64 value=76 time=15
control_change channel=0 control=64 value=77 time=15
control_change channel=0 control=64 value=78 time=15
control_change channel=0 control=64 value=79 time=15
control_change channel=0 control=64 value=81 time=16
control_change channel=0 control=64 value=82 time=15
control_change channel=0 control=64 value=83 time=15
control_change channel=0 control=64 value=82 time=76
note_on channel=0 note=53 velocity=46 time=3
control_change channel=0 control=64 value=79 time=13
control_change channel=0 control=64 value=75 time=15
control_change channel=0 control=64 value=67 time=15
control_change channel=0 control=64 value=46 time=15
control_change channel=0 control=64 value=0 time=15
control_change channel=0 control=64 value=17 time=114
control_change channel=0 control=64 value=41 time=15
control_change channel=0 control=64 value=52 time=15
control_change channel=0 control=64 value=58 time=15
control_change channel=0 control=64 value=61 time=16
control_change channel=0 control=64 value=63 time=15
control_change channel=0 control=64 value=64 time=15
note_on channel=0 note=49 velocity=45 time=3
control_change channel=0 control=64 value=66 time=13
control_change channel=0 control=64 value=68 time=15
control_change channel=0 control=64 value=69 time=16
control_change channel=0 control=64 value=70 time=14
control_change channel=0 control=64 value=71 time=15
control_change channel=0 control=64 value=72 time=16
control_change channel=0 control=64 value=74 time=14
control_change channel=0 control=64 value=75 time=16
control_change channel=0 control=64 value=77 time=15
control_change channel=0 control=64 value=78 time=16
control_change channel=0 control=64 value=79 time=16
control_change channel=0 control=64 value=81 time=15
control_change channel=0 control=64 value=83 time=15
control_change channel=0 control=64 value=84 time=15
note_on channel=0 note=74 velocity=0 time=7
control_change channel=0 control=64 value=84 time=8
note_on channel=0 note=73 velocity=64 time=2
control_change channel=0 control=64 value=85 time=14
note_on channel=0 note=49 velocity=0 time=0
note_on channel=0 note=56 velocity=43 time=11
control_change channel=0 control=64 value=86 time=4
control_change channel=0 control=64 value=88 time=15
note_on channel=0 note=53 velocity=0 time=10
control_change channel=0 control=64 value=89 time=5
control_change channel=0 control=64 value=90 time=15
control_change channel=0 control=64 value=90 time=15
control_change channel=0 control=64 value=91 time=15
control_change channel=0 control=64 value=93 time=15
control_change channel=0 control=64 value=95 time=16
control_change channel=0 control=64 value=97 time=15
control_change channel=0 control=64 value=98 time=15
note_on channel=0 note=56 velocity=0 time=3
note_on channel=0 note=49 velocity=59 time=5
control_change channel=0 control=64 value=99 time=7
control_change channel=0 control=64 value=99 time=15
control_change channel=0 control=64 value=100 time=16
control_change channel=0 control=64 value=101 time=15
control_change channel=0 control=64 value=102 time=15
control_change channel=0 control=64 value=101 time=30
control_change channel=0 control=64 value=90 time=15
control_change channel=0 control=64 value=73 time=16
note_on channel=0 note=66 velocity=73 time=0
control_change channel=0 control=64 value=53 time=15
note_on channel=0 note=57 velocity=48 time=3
control_change channel=0 control=64 value=45 time=12
note_on channel=0 note=49 velocity=0 time=3
control_change channel=0 control=64 value=61 time=12
control_change channel=0 control=64 value=65 time=15
control_change channel=0 control=64 value=70 time=16
control_change channel=0 control=64 value=74 time=15
control_change channel=0 control=64 value=77 time=23
control_change channel=0 control=64 value=79 time=15
control_change channel=0 control=64 value=82 time=15
control_change channel=0 control=64 value=85 time=16
note_on channel=0 note=49 velocity=58 time=2
control_change channel=0 control=64 value=86 time=12
note_on channel=0 note=57 velocity=0 time=2
control_change channel=0 control=64 value=85 time=43
control_change channel=0 control=64 value=82 time=16
control_change channel=0 control=64 value=76 time=15
control_change channel=0 control=64 value=66 time=15
control_change channel=0 control=64 value=0 time=16
note_on channel=0 note=68 velocity=69 time=6
control_change channel=0 control=64 value=28 time=9
note_on channel=0 note=59 velocity=58 time=0
note_on channel=0 note=49 velocity=0 time=5
control_change channel=0 control=64 value=54 time=11
note_on channel=0 note=66 velocity=0 time=6
control_change channel=0 control=64 value=62 time=9
control_change channel=0 control=64 value=65 time=14
note_on channel=0 note=73 velocity=0 time=6
control_change channel=0 control=64 value=69 time=10
control_change channel=0 control=64 value=73 time=15
control_change channel=0 control=64 value=75 time=15
control_change channel=0 control=64 value=76 time=16
control_change channel=0 control=64 value=77 time=14
control_change channel=0 control=64 value=77 time=32
note_on channel=0 note=49 velocity=52 time=5
control_change channel=0 control=64 value=78 time=10
note_on channel=0 note=59 velocity=0 time=13
control_change channel=0 control=64 value=77 time=33
control_change channel=0 control=64 value=77 time=15
control_change channel=0 control=64 value=76 time=15
control_change channel=0 control=64 value=76 time=16
control_change channel=0 control=64 value=74 time=15
control_change channel=0 control=64 value=71 time=15
control_change channel=0 control=64 value=65 time=15
control_change channel=0 control=64 value=55 time=15
note_on channel=0 note=49 velocity=0 time=3
note_on channel=0 note=60 velocity=55 time=1
note_on channel=0 note=61 velocity=59 time=10
control_change channel=0 control=64 value=45 time=2
control_change channel=0 control=67 value=8 time=0
note_on channel=0 note=68 velocity=0 time=4
control_change channel=0 control=64 value=47 time=10
control_change channel=0 control=64 value=51 time=15
control_change channel=0 control=67 value=8 time=0
control_change channel=0 control=64 value=55 time=16
control_change channel=0 control=64 value=58 time=15
control_change channel=0 control=64 value=61 time=15
control_change channel=0 control=64 value=63 time=15
control_change channel=0 control=67 value=9 time=0
control_change channel=0 control=64 value=65 time=15
control_change channel=0 control=67 value=11 time=0
control_change channel=0 control=64 value=68 time=15
control_change channel=0 control=67 value=13 time=0
control_change channel=0 control=64 value=69 time=15
control_change channel=0 control=67 value=15 time=0
control_change channel=0 control=64 value=70 time=15
control_change channel=0 control=67 value=17 time=0
control_change channel=0 control=64 value=71 time=16
control_change channel=0 control=67 value=20 time=0
control_change channel=0 control=64 value=72 time=15
control_change channel=0 control=67 value=23 time=0
control_change channel=0 control=64 value=73 time=14
control_change channel=0 control=67 value=25 time=0
control_change channel=0 control=67 value=27 time=16
note_on channel=0 note=60 velocity=0 time=13
control_change channel=0 control=67 value=31 time=2
control_change channel=0 control=67 value=34 time=23
note_on channel=0 note=49 velocity=52 time=12
control_change channel=0 control=67 value=37 time=3
control_change channel=0 control=67 value=39 time=16
control_change channel=0 control=67 value=42 time=15
control_change channel=0 control=67 value=45 time=14
control_change channel=0 control=67 value=48 time=16
control_change channel=0 control=67 value=50 time=15
control_change channel=0 control=64 value=72 time=14
control_change channel=0 control=67 value=53 time=0
note_on channel=0 note=49 velocity=0 time=15
control_change channel=0 control=64 value=70 time=1
control_change channel=0 control=67 value=56 time=0
control_change channel=0 control=64 value=67 time=15
control_change channel=0 control=67 value=58 time=0
note_on channel=0 note=59 velocity=49 time=15
control_change channel=0 control=64 value=64 time=1
control_change channel=0 control=67 value=60 time=0
control_change channel=0 control=64 value=65 time=15
control_change channel=0 control=64 value=65 time=15
control_change channel=0 control=64 value=66 time=16
control_change channel=0 control=67 value=61 time=0
control_change channel=0 control=64 value=66 time=15
control_change channel=0 control=64 value=67 time=16
control_change channel=0 control=64 value=69 time=15
control_change channel=0 control=64 value=71 time=14
control_change channel=0 control=64 value=73 time=16
note_on channel=0 note=49 velocity=48 time=12
control_change channel=0 control=64 value=73 time=3
control_change channel=0 control=64 value=71 time=76
note_on channel=0 note=59 velocity=0 time=8
note_on channel=0 note=49 velocity=0 time=6
control_change channel=0 control=64 value=68 time=2
control_change channel=0 control=64 value=62 time=16
control_change channel=0 control=64 value=52 time=14
control_change channel=0 control=67 value=60 time=0
note_on channel=0 note=58 velocity=42 time=10
control_change channel=0 control=64 value=57 time=5
control_change channel=0 control=67 value=60 time=0
control_change channel=0 control=64 value=61 time=16
control_change channel=0 control=64 value=64 time=15
control_change channel=0 control=67 value=59 time=0
control_change channel=0 control=64 value=65 time=16
control_change channel=0 control=67 value=59 time=0
control_change channel=0 control=64 value=67 time=14
control_change channel=0 control=67 value=58 time=0
control_change channel=0 control=64 value=69 time=15
control_change channel=0 control=67 value=58 time=0
control_change channel=0 control=64 value=70 time=16
control_change channel=0 control=67 value=57 time=0
control_change channel=0 control=64 value=71 time=14
note_on channel=0 note=58 velocity=0 time=24
control_change channel=0 control=64 value=71 time=7
note_on channel=0 note=49 velocity=45 time=5
control_change channel=0 control=64 value=72 time=10
control_change channel=0 control=64 value=71 time=30
control_change channel=0 control=64 value=70 time=15
control_change channel=0 control=64 value=68 time=17
control_change channel=0 control=64 value=66 time=15
note_on channel=0 note=49 velocity=0 time=7
control_change channel=0 control=64 value=67 time=9
control_change channel=0 control=64 value=68 time=14
control_change channel=0 control=67 value=57 time=0
note_on channel=0 note=66 velocity=51 time=5
control_change channel=0 control=64 value=69 time=10
note_on channel=0 note=61 velocity=0 time=5
note_on channel=0 note=57 velocity=38 time=3
control_change channel=0 control=64 value=71 time=8
control_change channel=0 control=67 value=56 time=0
control_change channel=0 control=64 value=73 time=14
control_change channel=0 control=67 value=56 time=0
control_change channel=0 control=64 value=75 time=15
control_change channel=0 control=67 value=55 time=0
control_change channel=0 control=64 value=77 time=24
control_change channel=0 control=67 value=55 time=0
note_on channel=0 note=57 velocity=0 time=0
control_change channel=0 control=64 value=78 time=15
control_change channel=0 control=64 value=79 time=16
control_change channel=0 control=67 value=54 time=45
note_on channel=0 note=49 velocity=42 time=1
control_change channel=0 control=64 value=78 time=30
control_change channel=0 control=64 value=78 time=15
control_change channel=0 control=67 value=55 time=0
control_change channel=0 control=64 value=77 time=14
control_change channel=0 control=67 value=55 time=0
control_change channel=0 control=64 value=76 time=16
control_change channel=0 control=64 value=73 time=15
note_on channel=0 note=49 velocity=0 time=2
control_change channel=0 control=64 value=67 time=13
control_change channel=0 control=64 value=63 time=15
note_on channel=0 note=65 velocity=53 time=0
note_on channel=0 note=56 velocity=40 time=14
note_on channel=0 note=66 velocity=0 time=0
control_change channel=0 control=64 value=64 time=1
control_change channel=0 control=67 value=55 time=0
control_change channel=0 control=64 value=64 time=16
control_change channel=0 control=67 value=54 time=0
control_change channel=0 control=64 value=65 time=15
control_change channel=0 control=67 value=54 time=14
control_change channel=0 control=64 value=66 time=16
control_change channel=0 control=64 value=67 time=15
control_change channel=0 control=67 value=53 time=0
control_change channel=0 control=64 value=69 time=16
control_change channel=0 control=67 value=52 time=0
control_change channel=0 control=64 value=71 time=15
control_change channel=0 control=67 value=52 time=0
control_change channel=0 control=64 value=73 time=14
control_change channel=0 control=67 value=51 time=0
note_on channel=0 note=49 velocity=53 time=9
control_change channel=0 control=64 value=74 time=7
control_change channel=0 control=67 value=51 time=0
control_change channel=0 control=64 value=75 time=15
note_on channel=0 note=56 velocity=0 time=7
control_change channel=0 control=67 value=50 time=9
control_change channel=0 control=64 value=76 time=15
control_change channel=0 control=64 value=76 time=15
control_change channel=0 control=64 value=77 time=16
control_change channel=0 control=64 value=76 time=15
note_on channel=0 note=49 velocity=0 time=9
control_change channel=0 control=64 value=74 time=6
control_change channel=0 control=67 value=51 time=0
control_change channel=0 control=64 value=71 time=16
note_on channel=0 note=66 velocity=75 time=7
control_change channel=0 control=64 value=67 time=7
note_on channel=0 note=57 velocity=46 time=6
control_change channel=0 control=67 value=50 time=10
control_change channel=0 control=64 value=68 time=15
control_change channel=0 control=64 value=69 time=15
control_change channel=0 control=67 value=50 time=0
note_on channel=0 note=65 velocity=0 time=13
control_change channel=0 control=64 value=70 time=3
control_change channel=0 control=67 value=49 time=0
control_change channel=0 control=64 value=71 time=15
control_change channel=0 control=64 value=73 time=16
control_change channel=0 control=67 value=49 time=0
control_change channel=0 control=64 value=75 time=15
control_change channel=0 control=67 value=48 time=0
control_change channel=0 control=64 value=76 time=14
control_change channel=0 control=67 value=48 time=0
note_on channel=0 note=49 velocity=59 time=2
control_change channel=0 control=64 value=77 time=14
control_change channel=0 control=67 value=47 time=0
control_change channel=0 control=64 value=78 time=15
control_change channel=0 control=67 value=46 time=0
note_on channel=0 note=57 velocity=0 time=0
control_change channel=0 control=64 value=79 time=15
control_change channel=0 control=67 value=45 time=0
control_change channel=0 control=64 value=80 time=16
control_change channel=0 control=64 value=81 time=14
control_change channel=0 control=64 value=81 time=16
control_change channel=0 control=64 value=80 time=15
control_change channel=0 control=67 value=45 time=0
control_change channel=0 control=64 value=78 time=15
note_on channel=0 note=68 velocity=77 time=12
control_change channel=0 control=64 value=73 time=4
note_on channel=0 note=49 velocity=0 time=0
note_on channel=0 note=53 velocity=50 time=20
control_change channel=0 control=64 value=65 time=2
control_change channel=0 control=67 value=44 time=0
control_change channel=0 control=64 value=63 time=15
control_change channel=0 control=67 value=44 time=0
note_on channel=0 note=66 velocity=0 time=7
control_change channel=0 control=64 value=64 time=8
control_change channel=0 control=67 value=42 time=0
control_change channel=0 control=64 value=65 time=15
control_change channel=0 control=67 value=41 time=0
control_change channel=0 control=64 value=66 time=16
control_change channel=0 control=67 value=40 time=0
control_change channel=0 control=64 value=67 time=15
control_change channel=0 control=67 value=39 time=0
control_change channel=0 control=64 value=69 time=16
control_change channel=0 control=67 value=37 time=0
control_change channel=0 control=64 value=70 time=15
control_change channel=0 control=67 value=35 time=0
note_on channel=0 note=53 velocity=0 time=0
control_change channel=0 control=64 value=73 time=14
control_change channel=0 control=67 value=33 time=0
note_on channel=0 note=49 velocity=55 time=0
control_change channel=0 control=64 value=74 time=16
control_change channel=0 control=67 value=32 time=0
control_change channel=0 control=64 value=76 time=15
control_change channel=0 control=67 value=30 time=0
control_change channel=0 control=64 value=76 time=15
control_change channel=0 control=67 value=29 time=0
control_change channel=0 control=64 value=77 time=15
control_change channel=0 control=67 value=29 time=0
control_change channel=0 control=64 value=78 time=15
control_change channel=0 control=67 value=28 time=0
control_change channel=0 control=64 value=77 time=16
control_change channel=0 control=67 value=27 time=0
note_on channel=0 note=54 velocity=47 time=11
control_change channel=0 control=64 value=75 time=4
control_change channel=0 control=67 value=26 time=0
note_on channel=0 note=49 velocity=0 time=6
control_change channel=0 control=64 value=71 time=9
control_change channel=0 control=67 value=26 time=0
note_on channel=0 note=69 velocity=72 time=13
control_change channel=0 control=64 value=65 time=2
control_change channel=0 control=67 value=25 time=0
control_change channel=0 control=64 value=63 time=15
control_change channel=0 control=67 value=24 time=0
control_change channel=0 control=64 value=65 time=15
control_change channel=0 control=67 value=23 time=0
note_on channel=0 note=68 velocity=0 time=3
control_change channel=0 control=64 value=67 time=13
control_change channel=0 control=67 value=22 time=0
control_change channel=0 control=64 value=69 time=15
control_change channel=0 control=67 value=21 time=0
control_change channel=0 control=64 value=71 time=15
control_change channel=0 control=67 value=20 time=0
control_change channel=0 control=64 value=74 time=15
control_change channel=0 control=67 value=20 time=0
note_on channel=0 note=54 velocity=0 time=5
note_on channel=0 note=49 velocity=62 time=3
control_change channel=0 control=64 value=76 time=7
control_change channel=0 control=67 value=18 time=0
control_change channel=0 control=64 value=79 time=15
control_change channel=0 control=67 value=16 time=0
control_change channel=0 control=64 value=80 time=15
control_change channel=0 control=67 value=15 time=0
control_change channel=0 control=64 value=81 time=15
control_change channel=0 control=67 value=13 time=0
control_change channel=0 control=67 value=11 time=16
note_on channel=0 note=49 velocity=0 time=12
control_change channel=0 control=67 value=9 time=3
control_change channel=0 control=67 value=8 time=16
control_change channel=0 control=67 value=0 time=15
control_change channel=0 control=64 value=79 time=31
note_on channel=0 note=69 velocity=0 time=14
control_change channel=0 control=64 value=74 time=1
note_on channel=0 note=73 velocity=66 time=12
control_change channel=0 control=64 value=66 time=4
note_on channel=0 note=64 velocity=45 time=10
control_change channel=0 control=64 value=51 time=5
control_change channel=0 control=64 value=53 time=14
note_on channel=0 note=66 velocity=26 time=9
control_change channel=0 control=64 value=60 time=7
control_change channel=0 control=64 value=62 time=15
note_on channel=0 note=64 velocity=0 time=12
control_change channel=0 control=64 value=63 time=3
control_change channel=0 control=64 value=65 time=16
control_change channel=0 control=64 value=66 time=15
control_change channel=0 control=64 value=69 time=15
note_on channel=0 note=50 velocity=52 time=5
control_change channel=0 control=64 value=71 time=10
control_change channel=0 control=64 value=72 time=15
control_change channel=0 control=64 value=72 time=16
control_change channel=0 control=64 value=73 time=15
control_change channel=0 control=64 value=72 time=31
control_change channel=0 control=64 value=70 time=21
control_change channel=0 control=64 value=65 time=16
note_on channel=0 note=50 velocity=0 time=6
control_change channel=0 control=64 value=63 time=9
note_on channel=0 note=71 velocity=68 time=13
control_change channel=0 control=64 value=64 time=2
control_change channel=0 control=64 value=66 time=15
note_on channel=0 note=62 velocity=40 time=3
control_change channel=0 control=64 value=67 time=12
note_on channel=0 note=73 velocity=0 time=10
control_change channel=0 control=64 value=68 time=6
control_change channel=0 control=64 value=70 time=15
control_change channel=0 control=64 value=72 time=15
control_change channel=0 control=64 value=74 time=16
note_on channel=0 note=62 velocity=0 time=3
control_change channel=0 control=64 value=75 time=12
control_change channel=0 control=64 value=76 time=16
note_on channel=0 note=50 velocity=45 time=13
control_change channel=0 control=64 value=77 time=2
control_change channel=0 control=64 value=77 time=14
control_change channel=0 control=64 value=77 time=61
control_change channel=0 control=64 value=76 time=15
control_change channel=0 control=64 value=73 time=16
control_change channel=0 control=64 value=67 time=15
note_on channel=0 note=66 velocity=0 time=1
note_on channel=0 note=71 velocity=0 time=1
note_on channel=0 note=68 velocity=57 time=11
control_change channel=0 control=64 value=54 time=2
control_change channel=0 control=64 value=0 time=15
note_on channel=0 note=59 velocity=37 time=5
note_on channel=0 note=50 velocity=0 time=18
control_change channel=0 control=64 value=36 time=8
control_change channel=0 control=64 value=49 time=15
control_change channel=0 control=64 value=56 time=15
control_change channel=0 control=64 value=60 time=15
note_on channel=0 note=59 velocity=0 time=11
control_change channel=0 control=64 value=63 time=4
control_change channel=0 control=64 value=64 time=15
control_change channel=0 control=64 value=66 time=15
note_on channel=0 note=52 velocity=44 time=10
control_change channel=0 control=64 value=67 time=5
control_change channel=0 control=64 value=68 time=16
control_change channel=0 control=64 value=69 time=15
control_change channel=0 control=64 value=70 time=15
control_change channel=0 control=64 value=71 time=17
note_on channel=0 note=68 velocity=0 time=10
note_on channel=0 note=52 velocity=0 time=4
control_change channel=0 control=64 value=72 time=1
control_change channel=0 control=64 value=73 time=15
control_change channel=0 control=64 value=73 time=15
control_change channel=0 control=64 value=72 time=15
note_on channel=0 note=68 velocity=50 time=5
note_on channel=0 note=59 velocity=32 time=10
control_change channel=0 control=64 value=70 time=1
control_change channel=0 control=64 value=69 time=15
control_change channel=0 control=64 value=70 time=30
control_change channel=0 control=64 value=70 time=15
control_change channel=0 control=64 value=71 time=15
control_change channel=0 control=64 value=72 time=15
note_on channel=0 note=59 velocity=0 time=3
control_change channel=0 control=64 value=73 time=12
note_on channel=0 note=52 velocity=42 time=9
control_change channel=0 control=64 value=74 time=7
control_change channel=0 control=64 value=75 time=15
control_change channel=0 control=64 value=76 time=38
control_change channel=0 control=64 value=76 time=15
note_on channel=0 note=52 velocity=0 time=12
control_change channel=0 control=64 value=77 time=4
control_change channel=0 control=64 value=76 time=30
control_change channel=0 control=64 value=75 time=15
note_on channel=0 note=60 velocity=46 time=2
control_change channel=0 control=64 value=74 time=13
note_on channel=0 note=60 velocity=0 time=53
control_change channel=0 control=64 value=75 time=8
control_change channel=0 control=64 value=75 time=31
note_on channel=0 note=52 velocity=43 time=15
control_change channel=0 control=64 value=76 time=30
control_change channel=0 control=64 value=76 time=30
control_change channel=0 control=64 value=76 time=47
note_on channel=0 note=52 velocity=0 time=10
control_change channel=0 control=64 value=75 time=4
note_on channel=0 note=61 velocity=48 time=13
note_on channel=0 note=68 velocity=0 time=3
note_on channel=0 note=69 velocity=62 time=2
control_change channel=0 control=64 value=76 time=58
note_on channel=0 note=61 velocity=0 time=35
control_change channel=0 control=64 value=76 time=10
note_on channel=0 note=52 velocity=54 time=11
control_change channel=0 control=64 value=77 time=35
control_change channel=0 control=64 value=77 time=16
control_change channel=0 control=64 value=78 time=14
control_change channel=0 control=64 value=78 time=15
control_change channel=0 control=64 value=78 time=32
control_change channel=0 control=64 value=77 time=15
note_on channel=0 note=56 velocity=53 time=9
note_on channel=0 note=52 velocity=0 time=6
control_change channel=0 control=64 value=76 time=1
note_on channel=0 note=71 velocity=71 time=2
control_change channel=0 control=64 value=76 time=74
note_on channel=0 note=69 velocity=0 time=8
control_change channel=0 control=64 value=77 time=7
note_on channel=0 note=56 velocity=0 time=5
control_change channel=0 control=64 value=77 time=10
note_on channel=0 note=52 velocity=63 time=14
control_change channel=0 control=64 value=78 time=16
control_change channel=0 control=64 value=78 time=23
control_change channel=0 control=64 value=79 time=15
control_change channel=0 control=64 value=78 time=31
control_change channel=0 control=64 value=77 time=15
control_change channel=0 control=64 value=77 time=15
note_on channel=0 note=52 velocity=0 time=10
note_on channel=0 note=73 velocity=82 time=6
note_on channel=0 note=57 velocity=55 time=19
control_change channel=0 control=64 value=77 time=11
note_on channel=0 note=71 velocity=0 time=1
control_change channel=0 control=64 value=78 time=14
control_change channel=0 control=64 value=79 time=15
control_change channel=0 control=64 value=80 time=15
control_change channel=0 control=64 value=83 time=15
control_change channel=0 control=64 value=85 time=16
control_change channel=0 control=64 value=88 time=14
control_change channel=0 control=64 value=90 time=16
note_on channel=0 note=52 velocity=73 time=6
control_change channel=0 control=64 value=91 time=9
control_change channel=0 control=64 value=92 time=15
note_on channel=0 note=57 velocity=0 time=2
control_change channel=0 control=64 value=90 time=59
note_on channel=0 note=52 velocity=0 time=10
control_change channel=0 control=64 value=84 time=5
control_change channel=0 control=64 value=76 time=16
note_on channel=0 note=76 velocity=78 time=6
control_change channel=0 control=64 value=65 time=9
note_on channel=0 note=66 velocity=61 time=3
note_on channel=0 note=69 velocity=59 time=3
control_change channel=0 control=64 value=50 time=9
note_on channel=0 note=73 velocity=0 time=1
control_change channel=0 control=64 value=59 time=15
control_change channel=0 control=64 value=63 time=14
control_change channel=0 control=64 value=64 time=15
control_change channel=0 control=64 value=65 time=16
control_change channel=0 control=64 value=67 time=15
control_change channel=0 control=64 value=70 time=16
control_change channel=0 control=64 value=73 time=14
note_on channel=0 note=54 velocity=74 time=0
note_on channel=0 note=66 velocity=0 time=3
control_change channel=0 control=64 value=75 time=12
control_change channel=0 control=64 value=77 time=16
control_change channel=0 control=64 value=79 time=14
control_change channel=0 control=64 value=82 time=16
control_change channel=0 control=64 value=83 time=15
control_change channel=0 control=64 value=82 time=15
control_change channel=0 control=64 value=81 time=16
control_change channel=0 control=64 value=79 time=14
control_change channel=0 control=64 value=78 time=15
note_on channel=0 note=66 velocity=71 time=0
note_on channel=0 note=75 velocity=84 time=6
note_on channel=0 note=54 velocity=0 time=10
control_change channel=0 control=64 value=79 time=16
note_on channel=0 note=69 velocity=0 time=14
control_change channel=0 control=64 value=80 time=2
note_on channel=0 note=76 velocity=0 time=1
control_change channel=0 control=64 value=82 time=14
control_change channel=0 control=64 value=84 time=15
control_change channel=0 control=64 value=87 time=15
control_change channel=0 control=64 value=90 time=15
control_change channel=0 control=64 value=91 time=13
note_on channel=0 note=54 velocity=75 time=0
note_on channel=0 note=66 velocity=0 time=18
control_change channel=0 control=64 value=92 time=20
control_change channel=0 control=64 value=91 time=31
control_change channel=0 control=64 value=88 time=30
control_change channel=0 control=64 value=80 time=15
control_change channel=0 control=64 value=67 time=15
control_change channel=0 control=64 value=0 time=16
note_on channel=0 note=63 velocity=66 time=5
note_on channel=0 note=72 velocity=77 time=0
note_on channel=0 note=68 velocity=66 time=3
note_on channel=0 note=54 velocity=0 time=13
note_on channel=0 note=75 velocity=0 time=34
control_change channel=0 control=64 value=49 time=35
control_change channel=0 control=64 value=63 time=16
control_change channel=0 control=64 value=66 time=15
note_on channel=0 note=56 velocity=75 time=7
note_on channel=0 note=68 velocity=0 time=7
control_change channel=0 control=64 value=68 time=1
note_on channel=0 note=63 velocity=0 time=5
control_change channel=0 control=64 value=70 time=11
control_change channel=0 control=64 value=73 time=14
control_change channel=0 control=64 value=74 time=15
control_change channel=0 control=64 value=76 time=16
note_on channel=0 note=72 velocity=0 time=2
control_change channel=0 control=64 value=79 time=13
control_change channel=0 control=64 value=80 time=16
control_change channel=0 control=64 value=80 time=29
note_on channel=0 note=72 velocity=89 time=13
control_change channel=0 control=64 value=81 time=3
note_on channel=0 note=63 velocity=68 time=5
note_on channel=0 note=56 velocity=0 time=7
control_change channel=0 control=64 value=83 time=3
control_change channel=0 control=64 value=84 time=15
control_change channel=0 control=64 value=86 time=16
control_change channel=0 control=64 value=87 time=14
control_change channel=0 control=64 value=87 time=16
control_change channel=0 control=64 value=88 time=15
control_change channel=0 control=64 value=89 time=15
note_on channel=0 note=56 velocity=75 time=11
control_change channel=0 control=64 value=89 time=5
note_on channel=0 note=63 velocity=0 time=7
control_change channel=0 control=64 value=90 time=24
control_change channel=0 control=64 value=91 time=29
control_change channel=0 control=64 value=92 time=16
control_change channel=0 control=64 value=91 time=29
control_change channel=0 control=64 value=88 time=16
note_on channel=0 note=63 velocity=78 time=1
control_change channel=0 control=64 value=84 time=14
note_on channel=0 note=56 velocity=0 time=10
control_change channel=0 control=64 value=83 time=6
control_change channel=0 control=64 value=83 time=31
control_change channel=0 control=64 value=84 time=15
control_change channel=0 control=64 value=86 time=13
control_change channel=0 control=64 value=88 time=15
control_change channel=0 control=64 value=90 time=23
note_on channel=0 note=56 velocity=77 time=4
control_change channel=0 control=64 value=92 time=11
control_change channel=0 control=64 value=93 time=15
note_on channel=0 note=63 velocity=0 time=4
control_change channel=0 control=64 value=93 time=11
control_change channel=0 control=64 value=95 time=15
control_change channel=0 control=64 value=97 time=16
control_change channel=0 control=64 value=97 time=15
control_change channel=0 control=64 value=97 time=31
note_on channel=0 note=73 velocity=97 time=8
note_on channel=0 note=64 velocity=77 time=3
control_change channel=0 control=64 value=94 time=4
note_on channel=0 note=56 velocity=0 time=13
control_change channel=0 control=64 value=91 time=2
note_on channel=0 note=72 velocity=0 time=10
control_change channel=0 control=64 value=91 time=51
control_change channel=0 control=64 value=92 time=14
control_change channel=0 control=64 value=94 time=16
note_on channel=0 note=56 velocity=83 time=3
control_change channel=0 control=64 value=95 time=12
note_on channel=0 note=64 velocity=0 time=15
control_change channel=0 control=64 value=97 time=1
control_change channel=0 control=64 value=99 time=14
control_change channel=0 control=64 value=100 time=15
control_change channel=0 control=64 value=102 time=16
control_change channel=0 control=64 value=103 time=15
control_change channel=0 control=64 value=102 time=30
control_change channel=0 control=64 value=96 time=15
control_change channel=0 control=64 value=87 time=16
note_on channel=0 note=75 velocity=94 time=5
control_change channel=0 control=64 value=80 time=10
note_on channel=0 note=60 velocity=70 time=0
control_change channel=0 control=64 value=79 time=15
control_change channel=0 control=64 value=80 time=15
note_on channel=0 note=73 velocity=0 time=6
control_change channel=0 control=64 value=82 time=9
control_change channel=0 control=64 value=85 time=16
control_change channel=0 control=64 value=88 time=15
note_on channel=0 note=56 velocity=0 time=5
control_change channel=0 control=64 value=92 time=9
control_change channel=0 control=64 value=95 time=16
control_change channel=0 control=64 value=99 time=15
control_change channel=0 control=64 value=104 time=15
note_on channel=0 note=63 velocity=72 time=4
control_change channel=0 control=64 value=110 time=12
control_change channel=0 control=64 value=112 time=15
control_change channel=0 control=64 value=113 time=16
control_change channel=0 control=64 value=112 time=14
control_change channel=0 control=64 value=110 time=15
control_change channel=0 control=64 value=99 time=16
control_change channel=0 control=64 value=87 time=15
note_on channel=0 note=56 velocity=69 time=9
note_on channel=0 note=78 velocity=89 time=5
control_change channel=0 control=64 value=80 time=2
note_on channel=0 note=60 velocity=0 time=9
note_on channel=0 note=75 velocity=0 time=3
control_change channel=0 control=64 value=83 time=17
control_change channel=0 control=64 value=87 time=16
control_change channel=0 control=64 value=93 time=16
control_change channel=0 control=64 value=98 time=15
control_change channel=0 control=64 value=104 time=23
control_change channel=0 control=64 value=110 time=15
note_on channel=0 note=63 velocity=0 time=0
control_change channel=0 control=64 value=115 time=15
control_change channel=0 control=64 value=116 time=15
note_on channel=0 note=56 velocity=0 time=13
note_on channel=0 note=54 velocity=76 time=1
control_change channel=0 control=64 value=109 time=77
note_on channel=0 note=78 velocity=0 time=3
note_on channel=0 note=61 velocity=68 time=2
control_change channel=0 control=64 value=94 time=11
control_change channel=0 control=64 value=71 time=15
control_change channel=0 control=64 value=0 time=16
note_on channel=0 note=81 velocity=85 time=16
note_on channel=0 note=69 velocity=64 time=10
note_on channel=0 note=66 velocity=66 time=9
control_change channel=0 control=64 value=50 time=86
control_change channel=0 control=64 value=62 time=15
control_change channel=0 control=64 value=65 time=15
control_change channel=0 control=64 value=68 time=15
control_change channel=0 control=64 value=71 time=15
note_on channel=0 note=80 velocity=86 time=12
control_change channel=0 control=64 value=73 time=3
control_change channel=0 control=64 value=77 time=16
control_change channel=0 control=64 value=82 time=15
note_on channel=0 note=66 velocity=0 time=13
control_change channel=0 control=64 value=87 time=3
control_change channel=0 control=64 value=91 time=14
note_on channel=0 note=61 velocity=0 time=6
control_change channel=0 control=64 value=95 time=9
note_on channel=0 note=54 velocity=0 time=6
control_change channel=0 control=64 value=99 time=10
control_change channel=0 control=64 value=103 time=14
control_change channel=0 control=64 value=106 time=16
note_on channel=0 note=78 velocity=91 time=3
note_on channel=0 note=81 velocity=0 time=3
control_change channel=0 control=64 value=108 time=9
control_change channel=0 control=64 value=108 time=15
control_change channel=0 control=64 value=109 time=16
note_on channel=0 note=69 velocity=0 time=12
control_change channel=0 control=64 value=113 time=2
control_change channel=0 control=64 value=121 time=15
note_on channel=0 note=80 velocity=0 time=6
control_change channel=0 control=64 value=127 time=10
note_on channel=0 note=73 velocity=95 time=32
note_on channel=0 note=78 velocity=0 time=37
note_on channel=0 note=69 velocity=92 time=69
note_on channel=0 note=73 velocity=0 time=7
control_change channel=0 control=64 value=124 time=45
control_change channel=0 control=64 value=121 time=16
control_change channel=0 control=64 value=119 time=15
control_change channel=0 control=64 value=117 time=16
control_change channel=0 control=64 value=113 time=15
note_on channel=0 note=68 velocity=84 time=11
control_change channel=0 control=64 value=108 time=4
control_change channel=0 control=64 value=105 time=15
note_on channel=0 note=69 velocity=0 time=0
control_change channel=0 control=64 value=103 time=15
note_on channel=0 note=47 velocity=72 time=7
control_change channel=0 control=64 value=96 time=9
note_on channel=0 note=54 velocity=73 time=12
control_change channel=0 control=64 value=77 time=2
control_change channel=0 control=64 value=0 time=15
note_on channel=0 note=66 velocity=91 time=44
note_on channel=0 note=59 velocity=87 time=6
note_on channel=0 note=68 velocity=0 time=15
note_on channel=0 note=59 velocity=0 time=76
note_on channel=0 note=54 velocity=0 time=3
note_on channel=0 note=74 velocity=88 time=13
note_on channel=0 note=66 velocity=0 time=5
control_change channel=0 control=64 value=54 time=112
note_on channel=0 note=57 velocity=89 time=14
note_on channel=0 note=54 velocity=88 time=1
control_change channel=0 control=64 value=72 time=1
note_on channel=0 note=73 velocity=96 time=4
note_on channel=0 note=49 velocity=76 time=3
note_on channel=0 note=74 velocity=0 time=5
control_change channel=0 control=64 value=91 time=3
note_on channel=0 note=57 velocity=0 time=4
note_on channel=0 note=47 velocity=0 time=3
note_on channel=0 note=54 velocity=0 time=3
control_change channel=0 control=64 value=127 time=5
note_on channel=0 note=73 velocity=0 time=7
note_on channel=0 note=49 velocity=0 time=3
control_change channel=0 control=64 value=115 time=96
control_change channel=0 control=64 value=77 time=15
control_change channel=0 control=64 value=0 time=16
note_on channel=0 note=56 velocity=86 time=428
note_on channel=0 note=49 velocity=73 time=2
note_on channel=0 note=65 velocity=91 time=0
note_on channel=0 note=59 velocity=82 time=3
control_change channel=0 control=64 value=42 time=2
note_on channel=0 note=61 velocity=86 time=1
control_change channel=0 control=64 value=79 time=13
note_on channel=0 note=59 velocity=0 time=6
note_on channel=0 note=56 velocity=0 time=1
note_on channel=0 note=61 velocity=0 time=0
note_on channel=0 note=49 velocity=0 time=4
control_change channel=0 control=64 value=112 time=4
note_on channel=0 note=65 velocity=0 time=3
control_change channel=0 control=64 value=127 time=13
control_change channel=0 control=64 value=107 time=182
control_change channel=0 control=64 value=87 time=16
control_change channel=0 control=64 value=67 time=15
control_change channel=0 control=64 value=0 time=14
note_on channel=0 note=35 velocity=91 time=469
note_on channel=0 note=86 velocity=98 time=4
control_change channel=0 control=64 value=42 time=98
note_on channel=0 note=85 velocity=88 time=13
control_change channel=0 control=64 value=60 time=1
note_on channel=0 note=37 velocity=80 time=11
control_change channel=0 control=64 value=65 time=4
control_change channel=0 control=64 value=67 time=16
note_on channel=0 note=86 velocity=0 time=3
note_on channel=0 note=35 velocity=0 time=9
control_change channel=0 control=64 value=60 time=19
control_change channel=0 control=64 value=0 time=15
note_on channel=0 note=82 velocity=92 time=2
note_on channel=0 note=84 velocity=59 time=9
note_on channel=0 note=38 velocity=69 time=10
note_on channel=0 note=85 velocity=0 time=9
note_on channel=0 note=84 velocity=0 time=3
note_on channel=0 note=83 velocity=65 time=17
note_on channel=0 note=37 velocity=0 time=6
note_on channel=0 note=42 velocity=74 time=15
control_change channel=0 control=64 value=40 time=5
note_on channel=0 note=78 velocity=86 time=3
control_change channel=0 control=64 value=61 time=12
note_on channel=0 note=38 velocity=0 time=13
control_change channel=0 control=64 value=63 time=3
note_on channel=0 note=82 velocity=0 time=0
note_on channel=0 note=83 velocity=0 time=0
control_change channel=0 control=64 value=64 time=29
note_on channel=0 note=47 velocity=77 time=1
note_on channel=0 note=42 velocity=0 time=4
note_on channel=0 note=78 velocity=0 time=0
note_on channel=0 note=74 velocity=85 time=9
control_change channel=0 control=64 value=65 time=2
control_change channel=0 control=64 value=68 time=15
control_change channel=0 control=64 value=70 time=15
note_on channel=0 note=74 velocity=0 time=8
note_on channel=0 note=47 velocity=0 time=2
control_change channel=0 control=64 value=71 time=5
note_on channel=0 note=73 velocity=95 time=29
note_on channel=0 note=49 velocity=86 time=9
control_change channel=0 control=64 value=72 time=8
control_change channel=0 control=64 value=65 time=30
control_change channel=0 control=64 value=0 time=15
note_on channel=0 note=50 velocity=74 time=4
note_on channel=0 note=71 velocity=96 time=20
note_on channel=0 note=73 velocity=0 time=32
note_on channel=0 note=49 velocity=0 time=14
note_on channel=0 note=54 velocity=81 time=21
control_change channel=0 control=64 value=63 time=8
note_on channel=0 note=66 velocity=85 time=10
control_change channel=0 control=64 value=70 time=5
control_change channel=0 control=64 value=72 time=15
note_on channel=0 note=71 velocity=0 time=8
note_on channel=0 note=50 velocity=0 time=9
control_change channel=0 control=64 value=71 time=14
control_change channel=0 control=64 value=71 time=15
note_on channel=0 note=66 velocity=0 time=0
note_on channel=0 note=54 velocity=0 time=1
note_on channel=0 note=59 velocity=80 time=4
note_on channel=0 note=62 velocity=81 time=0
control_change channel=0 control=64 value=69 time=42
control_change channel=0 control=64 value=64 time=15
note_on channel=0 note=66 velocity=80 time=13
control_change channel=0 control=64 value=0 time=3
note_on channel=0 note=54 velocity=76 time=1
note_on channel=0 note=62 velocity=0 time=15
note_on channel=0 note=59 velocity=0 time=13
note_on channel=0 note=71 velocity=71 time=7
note_on channel=0 note=50 velocity=65 time=16
note_on channel=0 note=66 velocity=0 time=18
note_on channel=0 note=74 velocity=84 time=13
note_on channel=0 note=54 velocity=0 time=19
note_on channel=0 note=71 velocity=0 time=13
note_on channel=0 note=47 velocity=72 time=7
note_on channel=0 note=74 velocity=0 time=12
note_on channel=0 note=50 velocity=0 time=2
note_on channel=0 note=57 velocity=85 time=59
control_change channel=0 control=64 value=64 time=1
note_on channel=0 note=54 velocity=92 time=2
note_on channel=0 note=73 velocity=105 time=0
note_on channel=0 note=61 velocity=87 time=6
control_change channel=0 control=64 value=83 time=8
note_on channel=0 note=49 velocity=79 time=0
note_on channel=0 note=57 velocity=0 time=4
note_on channel=0 note=54 velocity=0 time=5
note_on channel=0 note=61 velocity=0 time=2
control_change channel=0 control=64 value=105 time=3
note_on channel=0 note=73 velocity=0 time=0
note_on channel=0 note=47 velocity=0 time=1
note_on channel=0 note=49 velocity=0 time=11
control_change channel=0 control=64 value=127 time=4
control_change channel=0 control=64 value=101 time=137
control_change channel=0 control=64 value=70 time=15
control_change channel=0 control=64 value=0 time=15
note_on channel=0 note=49 velocity=81 time=386
note_on channel=0 note=65 velocity=97 time=1
note_on channel=0 note=56 velocity=88 time=1
note_on channel=0 note=61 velocity=93 time=4
note_on channel=0 note=59 velocity=82 time=1
control_change channel=0 control=64 value=55 time=10
note_on channel=0 note=61 velocity=0 time=10
note_on channel=0 note=59 velocity=0 time=4
control_change channel=0 control=64 value=82 time=1
note_on channel=0 note=49 velocity=0 time=4
note_on channel=0 note=56 velocity=0 time=4
note_on channel=0 note=65 velocity=0 time=0
control_change channel=0 control=64 value=110 time=8
control_change channel=0 control=64 value=127 time=15
control_change channel=0 control=64 value=86 time=197
control_change channel=0 control=64 value=0 time=14
note_on channel=0 note=42 velocity=71 time=360
note_on channel=0 note=85 velocity=75 time=17
note_on channel=0 note=86 velocity=78 time=9
note_on channel=0 note=49 velocity=81 time=5
note_on channel=0 note=85 velocity=0 time=36
note_on channel=0 note=42 velocity=0 time=11
note_on channel=0 note=78 velocity=101 time=3
note_on channel=0 note=90 velocity=103 time=1
note_on channel=0 note=57 velocity=95 time=3
note_on channel=0 note=88 velocity=62 time=9
control_change channel=0 control=64 value=11 time=10
note_on channel=0 note=86 velocity=0 time=10
control_change channel=0 control=64 value=68 time=5
note_on channel=0 note=88 velocity=0 time=14
control_change channel=0 control=64 value=77 time=2
note_on channel=0 note=57 velocity=0 time=7
note_on channel=0 note=49 velocity=0 time=6
control_change channel=0 control=64 value=90 time=3
control_change channel=0 control=64 value=124 time=15
control_change channel=0 control=64 value=127 time=16
note_on channel=0 note=90 velocity=0 time=84
note_on channel=0 note=78 velocity=0 time=152
note_on channel=0 note=88 velocity=89 time=52
note_on channel=0 note=88 velocity=0 time=42
note_on channel=0 note=69 velocity=71 time=19
note_on channel=0 note=71 velocity=79 time=23
note_on channel=0 note=81 velocity=84 time=10
control_change channel=0 control=64 value=79 time=13
note_on channel=0 note=83 velocity=98 time=0
note_on channel=0 note=73 velocity=86 time=9
control_change channel=0 control=64 value=0 time=6
note_on channel=0 note=86 velocity=96 time=16
note_on channel=0 note=81 velocity=0 time=1
note_on channel=0 note=74 velocity=91 time=17
note_on channel=0 note=69 velocity=0 time=1
note_on channel=0 note=83 velocity=0 time=5
note_on channel=0 note=71 velocity=0 time=26
control_change channel=0 control=64 value=54 time=2
control_change channel=0 control=64 value=67 time=14
note_on channel=0 note=73 velocity=0 time=12
control_change channel=0 control=64 value=75 time=3
control_change channel=0 control=64 value=83 time=16
control_change channel=0 control=64 value=89 time=15
control_change channel=0 control=64 value=93 time=16
control_change channel=0 control=64 value=96 time=15
note_on channel=0 note=74 velocity=0 time=9
control_change channel=0 control=64 value=101 time=5
control_change channel=0 control=64 value=111 time=16
control_change channel=0 control=64 value=127 time=15
note_on channel=0 note=86 velocity=0 time=12
note_on channel=0 note=85 velocity=90 time=169
note_on channel=0 note=73 velocity=82 time=11
note_on channel=0 note=73 velocity=0 time=26
note_on channel=0 note=54 velocity=70 time=11
note_on channel=0 note=85 velocity=0 time=4
note_on channel=0 note=55 velocity=72 time=18
note_on channel=0 note=78 velocity=78 time=42
note_on channel=0 note=57 velocity=79 time=4
note_on channel=0 note=71 velocity=89 time=0
note_on channel=0 note=79 velocity=87 time=3
control_change channel=0 control=64 value=85 time=5
note_on channel=0 note=54 velocity=0 time=13
control_change channel=0 control=64 value=0 time=2
note_on channel=0 note=59 velocity=94 time=4
note_on channel=0 note=83 velocity=92 time=1
note_on channel=0 note=78 velocity=0 time=20
note_on channel=0 note=71 velocity=0 time=14
note_on channel=0 note=79 velocity=0 time=5
note_on channel=0 note=55 velocity=0 time=1
note_on channel=0 note=57 velocity=0 time=8
control_change channel=0 control=64 value=45 time=38
control_change channel=0 control=64 value=67 time=16
control_change channel=0 control=64 value=74 time=15
control_change channel=0 control=64 value=79 time=15
control_change channel=0 control=64 value=85 time=15
control_change channel=0 control=64 value=91 time=15
control_change channel=0 control=64 value=94 time=15
control_change channel=0 control=64 value=97 time=15
control_change channel=0 control=64 value=101 time=15
control_change channel=0 control=64 value=107 time=16
note_on channel=0 note=83 velocity=0 time=8
control_change channel=0 control=64 value=111 time=7
control_change channel=0 control=64 value=112 time=16
control_change channel=0 control=64 value=113 time=15
control_change channel=0 control=64 value=114 time=23
control_change channel=0 control=64 value=116 time=15
note_on channel=0 note=59 velocity=0 time=8
control_change channel=0 control=64 value=119 time=7
note_on channel=0 note=57 velocity=69 time=12
control_change channel=0 control=64 value=119 time=4
control_change channel=0 control=64 value=120 time=14
note_on channel=0 note=57 velocity=0 time=8
note_on channel=0 note=81 velocity=83 time=10
note_on channel=0 note=69 velocity=82 time=7
control_change channel=0 control=64 value=121 time=6
note_on channel=0 note=81 velocity=0 time=11
control_change channel=0 control=64 value=124 time=3
control_change channel=0 control=64 value=127 time=16
note_on channel=0 note=69 velocity=0 time=8
note_on channel=0 note=74 velocity=80 time=55
note_on channel=0 note=76 velocity=85 time=3
note_on channel=0 note=38 velocity=73 time=2
note_on channel=0 note=74 velocity=0 time=17
note_on channel=0 note=40 velocity=70 time=11
control_change channel=0 control=64 value=99 time=10
note_on channel=0 note=42 velocity=87 time=3
control_change channel=0 control=64 value=70 time=13
note_on channel=0 note=79 velocity=91 time=3
note_on channel=0 note=43 velocity=91 time=1
note_on channel=0 note=67 velocity=95 time=1
control_change channel=0 control=64 value=0 time=10
note_on channel=0 note=38 velocity=0 time=11
note_on channel=0 note=77 velocity=53 time=3
note_on channel=0 note=76 velocity=0 time=4
note_on channel=0 note=40 velocity=0 time=10
note_on channel=0 note=77 velocity=0 time=10
note_on channel=0 note=42 velocity=0 time=13
control_change channel=0 control=64 value=63 time=40
control_change channel=0 control=64 value=70 time=16
note_on channel=0 note=67 velocity=0 time=13
control_change channel=0 control=64 value=74 time=2
control_change channel=0 control=64 value=77 time=15
control_change channel=0 control=64 value=80 time=16
control_change channel=0 control=64 value=83 time=15
control_change channel=0 control=64 value=85 time=16
control_change channel=0 control=64 value=87 time=15
control_change channel=0 control=64 value=87 time=14
note_on channel=0 note=79 velocity=0 time=65
control_change channel=0 control=64 value=88 time=11
note_on channel=0 note=42 velocity=72 time=59
note_on channel=0 note=43 velocity=0 time=6
note_on channel=0 note=78 velocity=83 time=9
note_on channel=0 note=66 velocity=83 time=1
note_on channel=0 note=42 velocity=0 time=17
note_on channel=0 note=66 velocity=0 time=23
note_on channel=0 note=78 velocity=0 time=13
control_change channel=0 control=64 value=87 time=39
control_change channel=0 control=64 value=87 time=15
control_change channel=0 control=64 value=85 time=15
control_change channel=0 control=64 value=83 time=24
control_change channel=0 control=64 value=80 time=15
note_on channel=0 note=52 velocity=83 time=3
note_on channel=0 note=64 velocity=72 time=10
note_on channel=0 note=76 velocity=77 time=2
control_change channel=0 control=64 value=75 time=1
control_change channel=0 control=64 value=67 time=14
control_change channel=0 control=64 value=32 time=15
note_on channel=0 note=64 velocity=0 time=1
note_on channel=0 note=76 velocity=0 time=11
control_change channel=0 control=64 value=0 time=4
note_on channel=0 note=52 velocity=0 time=2
control_change channel=0 control=64 value=14 time=58
control_change channel=0 control=64 value=32 time=16
control_change channel=0 control=64 value=42 time=15
control_change channel=0 control=64 value=47 time=14
note_on channel=0 note=74 velocity=80 time=5
note_on channel=0 note=50 velocity=77 time=1
note_on channel=0 note=62 velocity=64 time=5
control_change channel=0 control=64 value=48 time=5
note_on channel=0 note=62 velocity=0 time=25
control_change channel=0 control=64 value=48 time=5
note_on channel=0 note=50 velocity=0 time=0
note_on channel=0 note=74 velocity=0 time=2
control_change channel=0 control=64 value=46 time=14
control_change channel=0 control=64 value=44 time=14
control_change channel=0 control=64 value=44 time=16
control_change channel=0 control=64 value=44 time=15
note_on channel=0 note=61 velocity=79 time=48
note_on channel=0 note=73 velocity=78 time=0
note_on channel=0 note=49 velocity=79 time=3
control_change channel=0 control=64 value=45 time=25
note_on channel=0 note=49 velocity=0 time=9
note_on channel=0 note=61 velocity=0 time=19
control_change channel=0 control=64 value=44 time=3
note_on channel=0 note=73 velocity=0 time=3
control_change channel=0 control=64 value=38 time=12
control_change channel=0 control=64 value=34 time=15
control_change channel=0 control=64 value=35 time=47
control_change channel=0 control=64 value=36 time=15
note_on channel=0 note=47 velocity=78 time=3
note_on channel=0 note=59 velocity=79 time=3
note_on channel=0 note=71 velocity=82 time=2
note_on channel=0 note=47 velocity=0 time=34
note_on channel=0 note=59 velocity=0 time=7
note_on channel=0 note=71 velocity=0 time=5
control_change channel=0 control=64 value=30 time=22
control_change channel=0 control=64 value=0 time=15
control_change channel=0 control=64 value=11 time=45
control_change channel=0 control=64 value=24 time=17
note_on channel=0 note=45 velocity=81 time=1
note_on channel=0 note=69 velocity=84 time=7
note_on channel=0 note=57 velocity=77 time=1
control_change channel=0 control=64 value=29 time=5
control_change channel=0 control=64 value=30 time=15
note_on channel=0 note=57 velocity=0 time=11
control_change channel=0 control=64 value=32 time=5
note_on channel=0 note=69 velocity=0 time=3
note_on channel=0 note=45 velocity=0 time=3
control_change channel=0 control=64 value=34 time=9
control_change channel=0 control=64 value=36 time=16
control_change channel=0 control=64 value=36 time=52
control_change channel=0 control=64 value=42 time=15
control_change channel=0 control=64 value=46 time=16
note_on channel=0 note=44 velocity=76 time=3
note_on channel=0 note=68 velocity=85 time=3
note_on channel=0 note=56 velocity=84 time=2
control_change channel=0 control=64 value=47 time=6
control_change channel=0 control=64 value=48 time=15
control_change channel=0 control=64 value=48 time=16
note_on channel=0 note=44 velocity=0 time=11
note_on channel=0 note=56 velocity=0 time=4
note_on channel=0 note=68 velocity=0 time=4
control_change channel=0 control=64 value=45 time=42
control_change channel=0 control=64 value=41 time=16
control_change channel=0 control=64 value=38 time=15
note_on channel=0 note=52 velocity=79 time=28
note_on channel=0 note=64 velocity=81 time=0
note_on channel=0 note=40 velocity=72 time=4
control_change channel=0 control=64 value=40 time=29
note_on channel=0 note=52 velocity=0 time=0
note_on channel=0 note=40 velocity=0 time=10
control_change channel=0 control=64 value=42 time=5
control_change channel=0 control=64 value=43 time=14
note_on channel=0 note=64 velocity=0 time=3
control_change channel=0 control=64 value=42 time=44
control_change channel=0 control=64 value=40 time=15
control_change channel=0 control=64 value=40 time=14
note_on channel=0 note=50 velocity=83 time=12
note_on channel=0 note=38 velocity=80 time=3
note_on channel=0 note=62 velocity=87 time=0
control_change channel=0 control=64 value=41 time=1
control_change channel=0 control=64 value=45 time=15
control_change channel=0 control=64 value=50 time=14
control_change channel=0 control=64 value=53 time=16
note_on channel=0 note=38 velocity=0 time=1
note_on channel=0 note=50 velocity=0 time=1
control_change channel=0 control=64 value=56 time=13
note_on channel=0 note=62 velocity=0 time=11
control_change channel=0 control=64 value=58 time=5
control_change channel=0 control=64 value=58 time=15
control_change channel=0 control=64 value=53 time=14
control_change channel=0 control=64 value=39 time=16
control_change channel=0 control=64 value=24 time=16
note_on channel=0 note=49 velocity=88 time=8
note_on channel=0 note=61 velocity=86 time=4
note_on channel=0 note=37 velocity=81 time=5
control_change channel=0 control=64 value=35 time=14
control_change channel=0 control=64 value=47 time=15
control_change channel=0 control=64 value=55 time=16
note_on channel=0 note=49 velocity=0 time=11
control_change channel=0 control=64 value=60 time=3
note_on channel=0 note=37 velocity=0 time=8
control_change channel=0 control=64 value=63 time=7
note_on channel=0 note=61 velocity=0 time=3
control_change channel=0 control=64 value=60 time=13
control_change channel=0 control=64 value=39 time=14
control_change channel=0 control=64 value=0 time=16
note_on channel=0 note=59 velocity=98 time=31
note_on channel=0 note=47 velocity=90 time=4
note_on channel=0 note=35 velocity=81 time=5
control_change channel=0 control=64 value=59 time=18
control_change channel=0 control=64 value=69 time=11
note_on channel=0 note=47 velocity=0 time=3
note_on channel=0 note=35 velocity=0 time=9
control_change channel=0 control=64 value=73 time=3
note_on channel=0 note=59 velocity=0 time=3
control_change channel=0 control=64 value=72 time=13
control_change channel=0 control=64 value=64 time=15
control_change channel=0 control=64 value=0 time=21
note_on channel=0 note=45 velocity=96 time=46
note_on channel=0 note=33 velocity=90 time=1
note_on channel=0 note=57 velocity=92 time=3
control_change channel=0 control=64 value=57 time=25
control_change channel=0 control=64 value=69 time=15
note_on channel=0 note=45 velocity=0 time=1
note_on channel=0 note=33 velocity=0 time=8
control_change channel=0 control=64 value=71 time=6
note_on channel=0 note=57 velocity=0 time=12
control_change channel=0 control=64 value=69 time=19
control_change channel=0 control=64 value=68 time=15
control_change channel=0 control=64 value=68 time=15
control_change channel=0 control=64 value=68 time=15
note_on channel=0 note=44 velocity=94 time=10
note_on channel=0 note=56 velocity=95 time=3
note_on channel=0 note=32 velocity=82 time=4
control_change channel=0 control=64 value=68 time=14
control_change channel=0 control=64 value=67 time=15
control_change channel=0 control=64 value=66 time=15
note_on channel=0 note=44 velocity=0 time=8
control_change channel=0 control=64 value=64 time=7
note_on channel=0 note=32 velocity=0 time=8
control_change channel=0 control=64 value=0 time=7
note_on channel=0 note=56 velocity=0 time=23
note_on channel=0 note=42 velocity=99 time=61
note_on channel=0 note=30 velocity=88 time=3
control_change channel=0 control=64 value=37 time=4
note_on channel=0 note=54 velocity=100 time=0
control_change channel=0 control=64 value=77 time=15
control_change channel=0 control=64 value=112 time=15
note_on channel=0 note=30 velocity=0 time=0
note_on channel=0 note=42 velocity=0 time=6
note_on channel=0 note=54 velocity=0 time=8
control_change channel=0 control=64 value=127 time=1
control_change channel=0 control=64 value=109 time=215
control_change channel=0 control=64 value=91 time=14
control_change channel=0 control=64 value=74 time=16
control_change channel=0 control=64 value=45 time=15
control_change channel=0 control=64 value=0 time=15
note_on channel=0 note=42 velocity=75 time=63
note_on channel=0 note=45 velocity=74 time=27
note_on channel=0 note=49 velocity=84 time=38
note_on channel=0 note=42 velocity=0 time=45
control_change channel=0 control=64 value=61 time=4
note_on channel=0 note=73 velocity=70 time=2
note_on channel=0 note=78 velocity=101 time=2
note_on channel=0 note=57 velocity=103 time=2
note_on channel=0 note=66 velocity=109 time=0
note_on channel=0 note=69 velocity=80 time=3
control_change channel=0 control=64 value=85 time=6
note_on channel=0 note=45 velocity=0 time=11
control_change channel=0 control=64 value=127 time=5
note_on channel=0 note=69 velocity=0 time=6
note_on channel=0 note=57 velocity=0 time=10
note_on channel=0 note=66 velocity=0 time=8
note_on channel=0 note=49 velocity=0 time=4
note_on channel=0 note=73 velocity=0 time=17
note_on channel=0 note=78 velocity=0 time=5
control_change channel=0 control=64 value=124 time=314
control_change channel=0 control=64 value=100 time=15
control_change channel=0 control=64 value=88 time=16
control_change channel=0 control=64 value=75 time=14
note_on channel=0 note=54 velocity=83 time=2
control_change channel=0 control=64 value=48 time=13
note_on channel=0 note=57 velocity=72 time=10
control_change channel=0 control=64 value=0 time=6
note_on channel=0 note=61 velocity=83 time=30
note_on channel=0 note=54 velocity=0 time=48
control_change channel=0 control=64 value=43 time=14
control_change channel=0 control=64 value=74 time=15
note_on channel=0 note=85 velocity=89 time=2
note_on channel=0 note=81 velocity=89 time=3
note_on channel=0 note=90 velocity=104 time=0
note_on channel=0 note=78 velocity=106 time=1
note_on channel=0 note=69 velocity=92 time=8
control_change channel=0 control=64 value=103 time=1
control_change channel=0 control=64 value=127 time=15
note_on channel=0 note=57 velocity=0 time=51
note_on channel=0 note=61 velocity=0 time=39
note_on channel=0 note=69 velocity=0 time=5
note_on channel=0 note=78 velocity=0 time=135
note_on channel=0 note=81 velocity=0 time=37
note_on channel=0 note=90 velocity=0 time=17
note_on channel=0 note=85 velocity=0 time=13
control_change channel=0 control=64 value=111 time=399
control_change channel=0 control=64 value=100 time=17
control_change channel=0 control=64 value=91 time=16
control_change channel=0 control=64 value=80 time=15
control_change channel=0 control=64 value=68 time=15
control_change channel=0 control=64 value=0 time=16
note_on channel=0 note=62 velocity=94 time=435
note_on channel=0 note=50 velocity=90 time=6
control_change channel=0 control=64 value=49 time=10
control_change channel=0 control=64 value=67 time=16
control_change channel=0 control=64 value=73 time=14
control_change channel=0 control=64 value=82 time=16
control_change channel=0 control=64 value=93 time=15
control_change channel=0 control=64 value=105 time=15
control_change channel=0 control=64 value=112 time=16
control_change channel=0 control=64 value=114 time=15
control_change channel=0 control=64 value=117 time=15
control_change channel=0 control=64 value=126 time=15
note_on channel=0 note=62 velocity=0 time=14
control_change channel=0 control=64 value=127 time=1
note_on channel=0 note=50 velocity=0 time=29
control_change channel=0 control=64 value=98 time=63
note_on channel=0 note=61 velocity=99 time=2
note_on channel=0 note=49 velocity=96 time=7
control_change channel=0 control=64 value=78 time=6
control_change channel=0 control=64 value=62 time=15
control_change channel=0 control=64 value=63 time=16
control_change channel=0 control=64 value=70 time=15
control_change channel=0 control=64 value=76 time=15
control_change channel=0 control=64 value=84 time=16
control_change channel=0 control=64 value=92 time=15
control_change channel=0 control=64 value=99 time=16
note_on channel=0 note=61 velocity=0 time=0
control_change channel=0 control=64 value=102 time=21
note_on channel=0 note=49 velocity=0 time=4
control_change channel=0 control=64 value=103 time=12
control_change channel=0 control=64 value=104 time=15
control_change channel=0 control=64 value=105 time=15
control_change channel=0 control=64 value=109 time=16
control_change channel=0 control=64 value=114 time=14
control_change channel=0 control=64 value=116 time=15
control_change channel=0 control=64 value=116 time=16
control_change channel=0 control=64 value=113 time=15
note_on channel=0 note=56 velocity=95 time=13
control_change channel=0 control=64 value=90 time=3
note_on channel=0 note=44 velocity=81 time=6
control_change channel=0 control=64 value=52 time=9
control_change channel=0 control=64 value=0 time=15
note_on channel=0 note=56 velocity=0 time=3
note_on channel=0 note=44 velocity=0 time=10
note_on channel=0 note=57 velocity=93 time=75
note_on channel=0 note=45 velocity=88 time=7
note_on channel=0 note=57 velocity=0 time=32
note_on channel=0 note=45 velocity=0 time=1
note_on channel=0 note=54 velocity=95 time=89
note_on channel=0 note=42 velocity=92 time=5
control_change channel=0 control=64 value=11 time=6
control_change channel=0 control=64 value=71 time=14
control_change channel=0 control=64 value=82 time=16
control_change channel=0 control=64 value=98 time=15
control_change channel=0 control=64 value=112 time=16
control_change channel=0 control=64 value=127 time=15
note_on channel=0 note=54 velocity=0 time=12
note_on channel=0 note=42 velocity=0 time=39
note_on channel=0 note=52 velocity=90 time=106
note_on channel=0 note=40 velocity=84 time=2
control_change channel=0 control=64 value=109 time=24
note_on channel=0 note=40 velocity=0 time=4
note_on channel=0 note=52 velocity=0 time=9
control_change channel=0 control=64 value=75 time=2
control_change channel=0 control=64 value=0 time=14
note_on channel=0 note=54 velocity=91 time=61
note_on channel=0 note=42 velocity=81 time=10
note_on channel=0 note=54 velocity=0 time=37
note_on channel=0 note=42 velocity=0 time=11
note_on channel=0 note=50 velocity=95 time=85
control_change channel=0 control=64 value=66 time=2
note_on channel=0 note=38 velocity=90 time=2
control_change channel=0 control=64 value=77 time=14
control_change channel=0 control=64 value=88 time=14
control_change channel=0 control=64 value=100 time=16
note_on channel=0 note=50 velocity=0 time=4
note_on channel=0 note=38 velocity=0 time=2
control_change channel=0 control=64 value=104 time=9
control_change channel=0 control=64 value=106 time=15
control_change channel=0 control=64 value=106 time=16
control_change channel=0 control=64 value=107 time=29
control_change channel=0 control=64 value=107 time=77
control_change channel=0 control=64 value=108 time=16
control_change channel=0 control=64 value=107 time=30
note_on channel=0 note=49 velocity=90 time=9
control_change channel=0 control=64 value=90 time=6
note_on channel=0 note=37 velocity=76 time=0
control_change channel=0 control=64 value=66 time=18
note_on channel=0 note=49 velocity=0 time=2
control_change channel=0 control=64 value=0 time=13
note_on channel=0 note=37 velocity=0 time=3
note_on channel=0 note=50 velocity=82 time=80
note_on channel=0 note=38 velocity=80 time=4
note_on channel=0 note=50 velocity=0 time=21
note_on channel=0 note=38 velocity=0 time=11
control_change channel=0 control=64 value=66 time=77
control_change channel=0 control=64 value=73 time=15
note_on channel=0 note=47 velocity=94 time=3
note_on channel=0 note=35 velocity=86 time=2
control_change channel=0 control=64 value=79 time=11
control_change channel=0 control=64 value=84 time=15
control_change channel=0 control=64 value=88 time=15
note_on channel=0 note=47 velocity=0 time=0
note_on channel=0 note=35 velocity=0 time=3
control_change channel=0 control=64 value=91 time=12
control_change channel=0 control=64 value=93 time=15
control_change channel=0 control=64 value=94 time=15
control_change channel=0 control=64 value=94 time=16
control_change channel=0 control=64 value=95 time=15
control_change channel=0 control=64 value=97 time=22
control_change channel=0 control=64 value=97 time=15
control_change channel=0 control=64 value=92 time=32
control_change channel=0 control=64 value=75 time=15
control_change channel=0 control=64 value=0 time=16
control_change channel=0 control=64 value=31 time=15
note_on channel=0 note=45 velocity=91 time=11
control_change channel=0 control=64 value=65 time=1
note_on channel=0 note=59 velocity=91 time=1
note_on channel=0 note=33 velocity=85 time=2
note_on channel=0 note=71 velocity=94 time=2
control_change channel=0 control=64 value=72 time=11
note_on channel=0 note=66 velocity=55 time=0
note_on channel=0 note=59 velocity=0 time=5
note_on channel=0 note=45 velocity=0 time=4
control_change channel=0 control=64 value=78 time=6
note_on channel=0 note=33 velocity=0 time=1
note_on channel=0 note=66 velocity=0 time=6
control_change channel=0 control=64 value=86 time=7
note_on channel=0 note=71 velocity=0 time=10
control_change channel=0 control=64 value=94 time=6
control_change channel=0 control=64 value=97 time=15
control_change channel=0 control=64 value=98 time=16
note_on channel=0 note=47 velocity=87 time=32
note_on channel=0 note=35 velocity=77 time=5
note_on channel=0 note=47 velocity=0 time=22
note_on channel=0 note=35 velocity=0 time=9
control_change channel=0 control=64 value=91 time=7
control_change channel=0 control=64 value=74 time=16
control_change channel=0 control=64 value=0 time=15
control_change channel=0 control=64 value=65 time=45
note_on channel=0 note=43 velocity=99 time=5
note_on channel=0 note=31 velocity=90 time=6
note_on channel=0 note=71 velocity=98 time=0
note_on channel=0 note=83 velocity=102 time=0
control_change channel=0 control=64 value=79 time=5
control_change channel=0 control=64 value=94 time=15
note_on channel=0 note=31 velocity=0 time=7
note_on channel=0 note=71 velocity=0 time=2
note_on channel=0 note=43 velocity=0 time=4
control_change channel=0 control=64 value=110 time=2
note_on channel=0 note=83 velocity=0 time=8
control_change channel=0 control=64 value=115 time=8
control_change channel=0 control=64 value=117 time=14
control_change channel=0 control=64 value=118 time=16
control_change channel=0 control=64 value=119 time=15
control_change channel=0 control=64 value=120 time=15
control_change channel=0 control=64 value=121 time=45
control_change channel=0 control=64 value=122 time=16
control_change channel=0 control=64 value=121 time=30
control_change channel=0 control=64 value=110 time=15
control_change channel=0 control=64 value=85 time=15
note_on channel=0 note=55 velocity=79 time=14
note_on channel=0 note=59 velocity=82 time=0
control_change channel=0 control=64 value=52 time=2
note_on channel=0 note=52 velocity=75 time=2
note_on channel=0 note=78 velocity=93 time=5
note_on channel=0 note=66 velocity=78 time=2
control_change channel=0 control=64 value=0 time=6
note_on channel=0 note=66 velocity=0 time=15
note_on channel=0 note=78 velocity=0 time=21
control_change channel=0 control=64 value=46 time=40
control_change channel=0 control=64 value=62 time=15
note_on channel=0 note=59 velocity=0 time=0
note_on channel=0 note=79 velocity=84 time=12
note_on channel=0 note=67 velocity=84 time=1
control_change channel=0 control=64 value=65 time=3
note_on channel=0 note=55 velocity=0 time=5
control_change channel=0 control=64 value=66 time=10
note_on channel=0 note=52 velocity=0 time=3
note_on channel=0 note=67 velocity=0 time=2
note_on channel=0 note=79 velocity=0 time=18
note_on channel=0 note=77 velocity=22 time=7
note_on channel=0 note=77 velocity=0 time=1
control_change channel=0 control=64 value=66 time=6
control_change channel=0 control=64 value=67 time=16
control_change channel=0 control=64 value=68 time=15
control_change channel=0 control=64 value=65 time=15
control_change channel=0 control=64 value=54 time=17
control_change channel=0 control=64 value=0 time=15
note_on channel=0 note=76 velocity=93 time=1
note_on channel=0 note=64 velocity=83 time=3
control_change channel=0 control=64 value=55 time=71
control_change channel=0 control=64 value=64 time=15
control_change channel=0 control=64 value=66 time=16
note_on channel=0 note=64 velocity=0 time=11
note_on channel=0 note=76 velocity=0 time=3
control_change channel=0 control=64 value=68 time=1
control_change channel=0 control=64 value=69 time=14
control_change channel=0 control=64 value=70 time=16
control_change channel=0 control=64 value=71 time=15
control_change channel=0 control=64 value=74 time=16
control_change channel=0 control=64 value=75 time=15
control_change channel=0 control=64 value=66 time=15
control_change channel=0 control=64 value=0 time=15
note_on channel=0 note=42 velocity=82 time=8
note_on channel=0 note=62 velocity=84 time=4
note_on channel=0 note=30 velocity=80 time=3
note_on channel=0 note=74 velocity=93 time=0
note_on channel=0 note=42 velocity=0 time=24
note_on channel=0 note=62 velocity=0 time=0
note_on channel=0 note=30 velocity=0 time=9
note_on channel=0 note=74 velocity=0 time=10
control_change channel=0 control=64 value=39 time=19
control_change channel=0 control=64 value=63 time=15
control_change channel=0 control=64 value=70 time=15
control_change channel=0 control=64 value=74 time=15
note_on channel=0 note=76 velocity=94 time=1
note_on channel=0 note=64 velocity=86 time=1
note_on channel=0 note=43 velocity=80 time=6
control_change channel=0 control=64 value=77 time=7
note_on channel=0 note=31 velocity=74 time=0
note_on channel=0 note=64 velocity=0 time=14
control_change channel=0 control=64 value=73 time=2
note_on channel=0 note=43 velocity=0 time=6
note_on channel=0 note=31 velocity=0 time=6
note_on channel=0 note=76 velocity=0 time=0
control_change channel=0 control=64 value=61 time=3
control_change channel=0 control=64 value=0 time=15
note_on channel=0 note=40 velocity=95 time=57
note_on channel=0 note=28 velocity=89 time=5
note_on channel=0 note=73 velocity=100 time=2
note_on channel=0 note=61 velocity=90 time=5
control_change channel=0 control=64 value=65 time=6
note_on channel=0 note=28 velocity=0 time=11
control_change channel=0 control=64 value=72 time=5
note_on channel=0 note=40 velocity=0 time=6
control_change channel=0 control=64 value=79 time=9
control_change channel=0 control=64 value=84 time=15
note_on channel=0 note=61 velocity=0 time=12
control_change channel=0 control=64 value=87 time=4
note_on channel=0 note=73 velocity=0 time=33
control_change channel=0 control=64 value=85 time=73
control_change channel=0 control=64 value=72 time=23
control_change channel=0 control=64 value=0 time=15
note_on channel=0 note=59 velocity=88 time=37
note_on channel=0 note=71 velocity=90 time=0
note_on channel=0 note=55 velocity=83 time=2
note_on channel=0 note=52 velocity=71 time=5
note_on channel=0 note=59 velocity=0 time=21
note_on channel=0 note=55 velocity=0 time=16
note_on channel=0 note=71 velocity=0 time=7
control_change channel=0 control=64 value=14 time=4
control_change channel=0 control=64 value=61 time=15
note_on channel=0 note=52 velocity=0 time=3
control_change channel=0 control=64 value=66 time=13
control_change channel=0 control=64 value=69 time=16
note_on channel=0 note=61 velocity=92 time=9
note_on channel=0 note=73 velocity=93 time=3
control_change channel=0 control=64 value=70 time=3
control_change channel=0 control=64 value=71 time=15
note_on channel=0 note=61 velocity=0 time=11
control_change channel=0 control=64 value=72 time=4
control_change channel=0 control=64 value=69 time=15
note_on channel=0 note=73 velocity=0 time=0
control_change channel=0 control=64 value=60 time=15
control_change channel=0 control=64 value=0 time=15
note_on channel=0 note=58 velocity=98 time=44
note_on channel=0 note=70 velocity=97 time=1
control_change channel=0 control=64 value=50 time=1
control_change channel=0 control=64 value=63 time=15
control_change channel=0 control=64 value=68 time=15
control_change channel=0 control=64 value=70 time=15
control_change channel=0 control=64 value=73 time=16
control_change channel=0 control=64 value=76 time=15
control_change channel=0 control=64 value=78 time=14
control_change channel=0 control=64 value=80 time=16
control_change channel=0 control=64 value=82 time=15
note_on channel=0 note=58 velocity=0 time=12
control_change channel=0 control=64 value=83 time=4
note_on channel=0 note=70 velocity=0 time=11
control_change channel=0 control=64 value=80 time=18
control_change channel=0 control=64 value=72 time=16
control_change channel=0 control=64 value=53 time=15
control_change channel=0 control=64 value=57 time=16
control_change channel=0 control=64 value=66 time=14
note_on channel=0 note=54 velocity=100 time=6
note_on channel=0 note=42 velocity=81 time=7
control_change channel=0 control=64 value=72 time=2
note_on channel=0 note=71 velocity=91 time=1
note_on channel=0 note=59 velocity=83 time=2
control_change channel=0 control=64 value=77 time=13
note_on channel=0 note=42 velocity=0 time=6
note_on channel=0 note=54 velocity=0 time=3
note_on channel=0 note=59 velocity=0 time=3
control_change channel=0 control=64 value=83 time=3
note_on channel=0 note=71 velocity=0 time=12
control_change channel=0 control=64 value=88 time=3
control_change channel=0 control=64 value=94 time=16
control_change channel=0 control=64 value=96 time=15
control_change channel=0 control=64 value=98 time=16
note_on channel=0 note=61 velocity=96 time=13
control_change channel=0 control=64 value=100 time=1
note_on channel=0 note=73 velocity=97 time=1
control_change channel=0 control=64 value=103 time=14
control_change channel=0 control=64 value=103 time=16
control_change channel=0 control=64 value=100 time=15
note_on channel=0 note=61 velocity=0 time=0
control_change channel=0 control=64 value=86 time=15
note_on channel=0 note=73 velocity=0 time=14
control_change channel=0 control=64 value=68 time=1
control_change channel=0 control=64 value=0 time=15
control_change channel=0 control=64 value=59 time=16
control_change channel=0 control=64 value=67 time=15
note_on channel=0 note=62 velocity=93 time=12
note_on channel=0 note=66 velocity=102 time=1
note_on channel=0 note=54 velocity=91 time=3
note_on channel=0 note=74 velocity=106 time=0
control_change channel=0 control=64 value=72 time=7
control_change channel=0 control=64 value=78 time=15
note_on channel=0 note=62 velocity=0 time=5
control_change channel=0 control=64 value=85 time=10
note_on channel=0 note=66 velocity=0 time=5
note_on channel=0 note=74 velocity=0 time=7
control_change channel=0 control=64 value=90 time=3
note_on channel=0 note=54 velocity=0 time=7
control_change channel=0 control=64 value=92 time=8
control_change channel=0 control=64 value=93 time=15
control_change channel=0 control=64 value=94 time=16
control_change channel=0 control=64 value=94 time=15
control_change channel=0 control=64 value=95 time=16
control_change channel=0 control=64 value=97 time=14
control_change channel=0 control=64 value=98 time=15
control_change channel=0 control=64 value=90 time=47
control_change channel=0 control=64 value=73 time=15
control_change channel=0 control=64 value=0 time=15
note_on channel=0 note=61 velocity=89 time=6
note_on channel=0 note=71 velocity=87 time=2
note_on channel=0 note=83 velocity=96 time=0
note_on channel=0 note=49 velocity=69 time=8
note_on channel=0 note=61 velocity=0 time=11
note_on channel=0 note=71 velocity=0 time=3
note_on channel=0 note=78 velocity=45 time=4
note_on channel=0 note=49 velocity=0 time=19
note_on channel=0 note=83 velocity=0 time=3
control_change channel=0 control=64 value=58 time=5
note_on channel=0 note=78 velocity=0 time=1
control_change channel=0 control=64 value=65 time=14
control_change channel=0 control=64 value=69 time=16
control_change channel=0 control=64 value=72 time=15
control_change channel=0 control=64 value=75 time=15
note_on channel=0 note=62 velocity=84 time=1
note_on channel=0 note=50 velocity=79 time=2
control_change channel=0 control=64 value=79 time=12
note_on channel=0 note=62 velocity=0 time=11
control_change channel=0 control=64 value=81 time=4
control_change channel=0 control=64 value=80 time=15
note_on channel=0 note=50 velocity=0 time=1
control_change channel=0 control=64 value=73 time=15
control_change channel=0 control=64 value=54 time=14
control_change channel=0 control=64 value=0 time=16
note_on channel=0 note=59 velocity=92 time=37
note_on channel=0 note=47 velocity=84 time=2
control_change channel=0 control=64 value=54 time=36
note_on channel=0 note=59 velocity=0 time=5
control_change channel=0 control=64 value=62 time=11
note_on channel=0 note=47 velocity=0 time=2
control_change channel=0 control=64 value=63 time=13
control_change channel=0 control=64 value=64 time=16
control_change channel=0 control=64 value=65 time=14
control_change channel=0 control=64 value=66 time=15
control_change channel=0 control=64 value=68 time=16
control_change channel=0 control=64 value=70 time=15
control_change channel=0 control=64 value=70 time=16
control_change channel=0 control=64 value=67 time=15
control_change channel=0 control=64 value=42 time=15
control_change channel=0 control=64 value=0 time=15
note_on channel=0 note=57 velocity=80 time=19
note_on channel=0 note=45 velocity=78 time=2
note_on channel=0 note=73 velocity=91 time=7
note_on channel=0 note=61 velocity=87 time=4
note_on channel=0 note=57 velocity=0 time=12
note_on channel=0 note=45 velocity=0 time=8
note_on channel=0 note=61 velocity=0 time=2
control_change channel=0 control=64 value=59 time=30
note_on channel=0 note=73 velocity=0 time=5
control_change channel=0 control=64 value=67 time=9
control_change channel=0 control=64 value=71 time=16
control_change channel=0 control=64 value=74 time=15
note_on channel=0 note=59 velocity=85 time=10
note_on channel=0 note=47 velocity=85 time=2
control_change channel=0 control=64 value=78 time=3
note_on channel=0 note=63 velocity=93 time=0
note_on channel=0 note=75 velocity=96 time=1
control_change channel=0 control=64 value=81 time=14
note_on channel=0 note=59 velocity=0 time=5
note_on channel=0 note=47 velocity=0 time=10
control_change channel=0 control=64 value=71 time=15
note_on channel=0 note=63 velocity=0 time=0
note_on channel=0 note=75 velocity=0 time=3
control_change channel=0 control=64 value=0 time=13
note_on channel=0 note=55 velocity=98 time=46
note_on channel=0 note=43 velocity=95 time=3
note_on channel=0 note=64 velocity=87 time=7
note_on channel=0 note=76 velocity=102 time=0
control_change channel=0 control=64 value=42 time=5
note_on channel=0 note=64 velocity=0 time=15
control_change channel=0 control=64 value=67 time=1
note_on channel=0 note=55 velocity=0 time=11
control_change channel=0 control=64 value=79 time=4
note_on channel=0 note=43 velocity=0 time=2
note_on channel=0 note=76 velocity=0 time=1
control_change channel=0 control=64 value=88 time=12
control_change channel=0 control=64 value=93 time=15
control_change channel=0 control=64 value=94 time=15
control_change channel=0 control=64 value=88 time=93
control_change channel=0 control=64 value=69 time=14
control_change channel=0 control=64 value=0 time=15
note_on channel=0 note=54 velocity=93 time=33
note_on channel=0 note=76 velocity=96 time=3
note_on channel=0 note=88 velocity=102 time=0
note_on channel=0 note=42 velocity=80 time=1
control_change channel=0 control=64 value=56 time=24
note_on channel=0 note=76 velocity=0 time=5
note_on channel=0 note=54 velocity=0 time=2
note_on channel=0 note=88 velocity=0 time=6
control_change channel=0 control=64 value=69 time=2
note_on channel=0 note=42 velocity=0 time=5
control_change channel=0 control=64 value=76 time=11
control_change channel=0 control=64 value=83 time=15
control_change channel=0 control=64 value=88 time=14
control_change channel=0 control=64 value=91 time=16
note_on channel=0 note=55 velocity=86 time=11
control_change channel=0 control=64 value=93 time=4
note_on channel=0 note=43 velocity=81 time=3
control_change channel=0 control=64 value=96 time=12
note_on channel=0 note=55 velocity=0 time=11
control_change channel=0 control=64 value=98 time=5
note_on channel=0 note=43 velocity=0 time=8
control_change channel=0 control=64 value=99 time=6
control_change channel=0 control=64 value=96 time=16
control_change channel=0 control=64 value=75 time=15
control_change channel=0 control=64 value=0 time=14
note_on channel=0 note=52 velocity=101 time=31
note_on channel=0 note=40 velocity=93 time=1
note_on channel=0 note=52 velocity=0 time=42
control_change channel=0 control=64 value=39 time=1
note_on channel=0 note=40 velocity=0 time=2
control_change channel=0 control=64 value=64 time=14
control_change channel=0 control=64 value=71 time=15
control_change channel=0 control=64 value=75 time=23
control_change channel=0 control=64 value=80 time=15
control_change channel=0 control=64 value=83 time=15
control_change channel=0 control=64 value=86 time=16
control_change channel=0 control=64 value=86 time=15
control_change channel=0 control=64 value=82 time=14
control_change channel=0 control=64 value=65 time=16
control_change channel=0 control=64 value=0 time=15
control_change channel=0 control=64 value=58 time=45
note_on channel=0 note=50 velocity=95 time=1
note_on channel=0 note=65 velocity=95 time=3
note_on channel=0 note=77 velocity=98 time=0
note_on channel=0 note=38 velocity=88 time=1
control_change channel=0 control=64 value=71 time=11
note_on channel=0 note=65 velocity=0 time=10
control_change channel=0 control=64 value=83 time=5
note_on channel=0 note=38 velocity=0 time=1
note_on channel=0 note=50 velocity=0 time=0
control_change channel=0 control=64 value=96 time=14
note_on channel=0 note=77 velocity=0 time=2
control_change channel=0 control=64 value=106 time=14
control_change channel=0 control=64 value=113 time=14
control_change channel=0 control=64 value=122 time=16
control_change channel=0 control=64 value=127 time=15
note_on channel=0 note=52 velocity=92 time=23
note_on channel=0 note=40 velocity=86 time=4
note_on channel=0 note=52 velocity=0 time=25
note_on channel=0 note=40 velocity=0 time=9
control_change channel=0 control=64 value=88 time=61
control_change channel=0 control=64 value=24 time=15
control_change channel=0 control=64 value=0 time=16
note_on channel=0 note=81 velocity=65 time=20
note_on channel=0 note=48 velocity=99 time=2
note_on channel=0 note=77 velocity=98 time=1
note_on channel=0 note=89 velocity=111 time=0
note_on channel=0 note=36 velocity=91 time=6
control_change channel=0 control=64 value=58 time=16
control_change channel=0 control=64 value=72 time=15
note_on channel=0 note=87 velocity=42 time=8
control_change channel=0 control=64 value=82 time=8
control_change channel=0 control=64 value=93 time=15
note_on channel=0 note=87 velocity=0 time=8
control_change channel=0 control=64 value=103 time=7
note_on channel=0 note=77 velocity=0 time=3
note_on channel=0 note=48 velocity=0 time=2
note_on channel=0 note=89 velocity=0 time=3
note_on channel=0 note=36 velocity=0 time=4
control_change channel=0 control=64 value=107 time=3
control_change channel=0 control=64 value=109 time=15
control_change channel=0 control=64 value=112 time=16
note_on channel=0 note=81 velocity=0 time=0
control_change channel=0 control=64 value=117 time=15
control_change channel=0 control=64 value=127 time=15
control_change channel=0 control=64 value=81 time=92
note_on channel=0 note=83 velocity=87 time=11
note_on channel=0 note=45 velocity=73 time=1
control_change channel=0 control=64 value=0 time=3
note_on channel=0 note=48 velocity=78 time=0
note_on channel=0 note=71 velocity=74 time=0
note_on channel=0 note=36 velocity=63 time=8
note_on channel=0 note=71 velocity=0 time=7
note_on channel=0 note=83 velocity=0 time=8
note_on channel=0 note=84 velocity=86 time=98
note_on channel=0 note=84 velocity=0 time=20
note_on channel=0 note=72 velocity=38 time=7
note_on channel=0 note=72 velocity=0 time=1
note_on channel=0 note=48 velocity=0 time=50
note_on channel=0 note=36 velocity=0 time=9
note_on channel=0 note=45 velocity=0 time=3
note_on channel=0 note=81 velocity=83 time=34
control_change channel=0 control=64 value=55 time=5
note_on channel=0 note=69 velocity=65 time=5
control_change channel=0 control=64 value=64 time=11
control_change channel=0 control=64 value=70 time=15
control_change channel=0 control=64 value=74 time=15
control_change channel=0 control=64 value=79 time=16
control_change channel=0 control=64 value=82 time=15
control_change channel=0 control=64 value=83 time=16
control_change channel=0 control=64 value=84 time=15
note_on channel=0 note=48 velocity=73 time=3
note_on channel=0 note=45 velocity=62 time=6
control_change channel=0 control=64 value=85 time=5
note_on channel=0 note=48 velocity=0 time=15
note_on channel=0 note=69 velocity=0 time=10
note_on channel=0 note=45 velocity=0 time=3
note_on channel=0 note=81 velocity=0 time=1
control_change channel=0 control=64 value=83 time=18
control_change channel=0 control=64 value=70 time=15
control_change channel=0 control=64 value=0 time=15
note_on channel=0 note=45 velocity=74 time=33
note_on channel=0 note=49 velocity=90 time=0
note_on channel=0 note=67 velocity=79 time=8
note_on channel=0 note=79 velocity=89 time=0
note_on channel=0 note=37 velocity=67 time=3
note_on channel=0 note=67 velocity=0 time=18
note_on channel=0 note=79 velocity=0 time=5
note_on channel=0 note=81 velocity=83 time=93
note_on channel=0 note=69 velocity=61 time=8
note_on channel=0 note=81 velocity=0 time=13
note_on channel=0 note=69 velocity=0 time=8
control_change channel=0 control=64 value=38 time=39
control_change channel=0 control=64 value=66 time=15
control_change channel=0 control=64 value=72 time=16
note_on channel=0 note=49 velocity=0 time=1
note_on channel=0 note=37 velocity=0 time=12
note_on channel=0 note=45 velocity=0 time=1
control_change channel=0 control=64 value=75 time=1
note_on channel=0 note=77 velocity=82 time=1
note_on channel=0 note=65 velocity=74 time=5
control_change channel=0 control=64 value=80 time=10
control_change channel=0 control=64 value=85 time=15
control_change channel=0 control=64 value=88 time=15
control_change channel=0 control=64 value=90 time=16
control_change channel=0 control=64 value=92 time=14
control_change channel=0 control=64 value=93 time=15
control_change channel=0 control=64 value=94 time=24
control_change channel=0 control=64 value=95 time=15
note_on channel=0 note=49 velocity=84 time=0
note_on channel=0 note=37 velocity=71 time=4
note_on channel=0 note=45 velocity=73 time=3
control_change channel=0 control=64 value=95 time=8
control_change channel=0 control=64 value=96 time=15
note_on channel=0 note=49 velocity=0 time=0
note_on channel=0 note=77 velocity=0 time=2
note_on channel=0 note=65 velocity=0 time=4
note_on channel=0 note=37 velocity=0 time=3
note_on channel=0 note=45 velocity=0 time=1
control_change channel=0 control=64 value=89 time=36
control_change channel=0 control=64 value=68 time=15
control_change channel=0 control=64 value=0 time=15
note_on channel=0 note=45 velocity=73 time=13
note_on channel=0 note=50 velocity=87 time=1
note_on channel=0 note=64 velocity=91 time=2
note_on channel=0 note=76 velocity=96 time=1
note_on channel=0 note=38 velocity=69 time=9
note_on channel=0 note=64 velocity=0 time=15
note_on channel=0 note=76 velocity=0 time=12
note_on channel=0 note=77 velocity=94 time=76
note_on channel=0 note=65 velocity=81 time=2
note_on channel=0 note=65 velocity=0 time=23
note_on channel=0 note=77 velocity=0 time=3
note_on channel=0 note=50 velocity=0 time=57
note_on channel=0 note=45 velocity=0 time=3
note_on channel=0 note=38 velocity=0 time=7
control_change channel=0 control=64 value=51 time=4
control_change channel=0 control=64 value=63 time=15
note_on channel=0 note=74 velocity=87 time=6
note_on channel=0 note=62 velocity=74 time=7
control_change channel=0 control=64 value=68 time=4
control_change channel=0 control=64 value=71 time=15
control_change channel=0 control=64 value=74 time=14
control_change channel=0 control=64 value=75 time=16
control_change channel=0 control=64 value=76 time=15
control_change channel=0 control=64 value=77 time=14
control_change channel=0 control=64 value=79 time=16
control_change channel=0 control=64 value=82 time=15
note_on channel=0 note=50 velocity=79 time=6
note_on channel=0 note=45 velocity=72 time=4
note_on channel=0 note=38 velocity=57 time=5
control_change channel=0 control=64 value=85 time=1
note_on channel=0 note=74 velocity=0 time=6
control_change channel=0 control=64 value=87 time=9
note_on channel=0 note=50 velocity=0 time=2
note_on channel=0 note=62 velocity=0 time=1
note_on channel=0 note=38 velocity=0 time=8
note_on channel=0 note=45 velocity=0 time=3
control_change channel=0 control=64 value=82 time=16
control_change channel=0 control=64 value=63 time=15
control_change channel=0 control=64 value=0 time=15
note_on channel=0 note=51 velocity=96 time=20
note_on channel=0 note=45 velocity=76 time=2
note_on channel=0 note=39 velocity=84 time=3
note_on channel=0 note=60 velocity=84 time=0
note_on channel=0 note=72 velocity=89 time=0
note_on channel=0 note=60 velocity=0 time=21
note_on channel=0 note=72 velocity=0 time=16
note_on channel=0 note=45 velocity=0 time=58
control_change channel=0 control=64 value=56 time=1
note_on channel=0 note=74 velocity=91 time=13
note_on channel=0 note=62 velocity=84 time=1
control_change channel=0 control=64 value=64 time=2
control_change channel=0 control=64 value=70 time=14
note_on channel=0 note=62 velocity=0 time=11
control_change channel=0 control=64 value=75 time=5
note_on channel=0 note=39 velocity=0 time=3
note_on channel=0 note=74 velocity=0 time=2
control_change channel=0 control=64 value=80 time=18
note_on channel=0 note=51 velocity=0 time=7
control_change channel=0 control=64 value=84 time=9
control_change channel=0 control=64 value=87 time=15
control_change channel=0 control=64 value=90 time=14
control_change channel=0 control=64 value=93 time=16
note_on channel=0 note=71 velocity=93 time=11
note_on channel=0 note=59 velocity=91 time=3
control_change channel=0 control=64 value=94 time=1
control_change channel=0 control=64 value=94 time=15
control_change channel=0 control=64 value=95 time=15
control_change channel=0 control=64 value=97 time=15
control_change channel=0 control=64 value=101 time=16
control_change channel=0 control=64 value=106 time=15
control_change channel=0 control=64 value=108 time=15
control_change channel=0 control=64 value=109 time=15
note_on channel=0 note=51 velocity=90 time=0
note_on channel=0 note=45 velocity=84 time=5
note_on channel=0 note=71 velocity=0 time=0
note_on channel=0 note=39 velocity=55 time=9
control_change channel=0 control=64 value=110 time=1
note_on channel=0 note=59 velocity=0 time=12
control_change channel=0 control=64 value=115 time=3
note_on channel=0 note=42 velocity=39 time=6
note_on channel=0 note=51 velocity=0 time=2
note_on channel=0 note=39 velocity=0 time=6
control_change channel=0 control=64 value=127 time=1
note_on channel=0 note=45 velocity=0 time=20
note_on channel=0 note=42 velocity=0 time=8
control_change channel=0 control=64 value=96 time=18
control_change channel=0 control=64 value=61 time=15
note_on channel=0 note=47 velocity=70 time=8
note_on channel=0 note=53 velocity=98 time=2
note_on channel=0 note=57 velocity=93 time=4
note_on channel=0 note=41 velocity=80 time=1
control_change channel=0 control=64 value=0 time=1
note_on channel=0 note=69 velocity=82 time=2
note_on channel=0 note=63 velocity=82 time=3
note_on channel=0 note=57 velocity=0 time=18
note_on channel=0 note=63 velocity=0 time=16
note_on channel=0 note=69 velocity=0 time=5
note_on channel=0 note=71 velocity=93 time=64
note_on channel=0 note=59 velocity=88 time=4
control_change channel=0 control=64 value=44 time=26
note_on channel=0 note=59 velocity=0 time=1
control_change channel=0 control=64 value=63 time=15
note_on channel=0 note=69 velocity=32 time=1
note_on channel=0 note=69 velocity=0 time=1
note_on channel=0 note=71 velocity=0 time=2
control_change channel=0 control=64 value=68 time=11
control_change channel=0 control=64 value=71 time=14
note_on channel=0 note=41 velocity=0 time=15
control_change channel=0 control=64 value=73 time=1
note_on channel=0 note=53 velocity=0 time=1
note_on channel=0 note=47 velocity=0 time=11
control_change channel=0 control=64 value=75 time=3
note_on channel=0 note=68 velocity=91 time=11
note_on channel=0 note=56 velocity=93 time=1
control_change channel=0 control=64 value=77 time=2
note_on channel=0 note=64 velocity=69 time=6
control_change channel=0 control=64 value=80 time=10
control_change channel=0 control=64 value=83 time=15
control_change channel=0 control=64 value=83 time=16
control_change channel=0 control=64 value=84 time=29
control_change channel=0 control=64 value=85 time=16
control_change channel=0 control=64 value=88 time=15
note_on channel=0 note=52 velocity=90 time=8
note_on channel=0 note=40 velocity=72 time=1
note_on channel=0 note=47 velocity=77 time=2
control_change channel=0 control=64 value=90 time=5
note_on channel=0 note=64 velocity=0 time=14
control_change channel=0 control=64 value=92 time=1
note_on channel=0 note=56 velocity=0 time=2
note_on channel=0 note=40 velocity=0 time=2
note_on channel=0 note=52 velocity=0 time=5
control_change channel=0 control=64 value=93 time=6
note_on channel=0 note=68 velocity=0 time=4
control_change channel=0 control=64 value=95 time=11
note_on channel=0 note=47 velocity=0 time=4
control_change channel=0 control=64 value=89 time=26
control_change channel=0 control=64 value=69 time=16
note_on channel=0 note=53 velocity=93 time=9
note_on channel=0 note=57 velocity=87 time=0
note_on channel=0 note=69 velocity=85 time=1
note_on channel=0 note=47 velocity=67 time=1
note_on channel=0 note=63 velocity=79 time=1
control_change channel=0 control=64 value=0 time=10
note_on channel=0 note=41 velocity=82 time=0
note_on channel=0 note=57 velocity=0 time=16
note_on channel=0 note=63 velocity=0 time=19
note_on channel=0 note=69 velocity=0 time=9
control_change channel=0 control=64 value=42 time=32
control_change channel=0 control=64 value=66 time=16
note_on channel=0 note=71 velocity=96 time=9
note_on channel=0 note=59 velocity=85 time=4
control_change channel=0 control=64 value=70 time=1
control_change channel=0 control=64 value=74 time=15
note_on channel=0 note=41 velocity=0 time=3
note_on channel=0 note=59 velocity=0 time=6
note_on channel=0 note=53 velocity=0 time=6
control_change channel=0 control=64 value=77 time=1
note_on channel=0 note=47 velocity=0 time=12
note_on channel=0 note=71 velocity=0 time=0
control_change channel=0 control=64 value=79 time=3
control_change channel=0 control=64 value=81 time=16
control_change channel=0 control=64 value=75 time=30
control_change channel=0 control=64 value=51 time=16
note_on channel=0 note=68 velocity=98 time=6
note_on channel=0 note=56 velocity=94 time=3
control_change channel=0 control=64 value=0 time=6
note_on channel=0 note=56 velocity=0 time=18
note_on channel=0 note=58 velocity=52 time=0
note_on channel=0 note=68 velocity=0 time=21
note_on channel=0 note=58 velocity=0 time=5
control_change channel=0 control=64 value=56 time=31
control_change channel=0 control=64 value=68 time=15
note_on channel=0 note=52 velocity=95 time=8
note_on channel=0 note=47 velocity=83 time=3
control_change channel=0 control=64 value=72 time=5
note_on channel=0 note=40 velocity=74 time=3
control_change channel=0 control=64 value=76 time=12
control_change channel=0 control=64 value=78 time=16
note_on channel=0 note=52 velocity=0 time=5
control_change channel=0 control=64 value=79 time=9
note_on channel=0 note=47 velocity=0 time=10
control_change channel=0 control=64 value=77 time=5
control_change channel=0 control=64 value=68 time=16
note_on channel=0 note=40 velocity=0 time=11
control_change channel=0 control=64 value=0 time=4
note_on channel=0 note=64 velocity=102 time=38
note_on channel=0 note=52 velocity=84 time=4
control_change channel=0 control=64 value=64 time=22
note_on channel=0 note=52 velocity=0 time=3
control_change channel=0 control=64 value=75 time=12
note_on channel=0 note=64 velocity=0 time=0
control_change channel=0 control=64 value=85 time=16
control_change channel=0 control=64 value=94 time=14
control_change channel=0 control=64 value=95 time=15
control_change channel=0 control=64 value=93 time=46
control_change channel=0 control=64 value=87 time=15
control_change channel=0 control=64 value=76 time=15
control_change channel=0 control=64 value=61 time=17
control_change channel=0 control=64 value=0 time=15
note_on channel=0 note=28 velocity=83 time=85
note_on channel=0 note=40 velocity=93 time=0
note_on channel=0 note=28 velocity=0 time=39
note_on channel=0 note=40 velocity=0 time=18
control_change channel=0 control=64 value=39 time=3
control_change channel=0 control=64 value=65 time=15
control_change channel=0 control=64 value=73 time=14
control_change channel=0 control=64 value=83 time=16
control_change channel=0 control=64 value=93 time=15
control_change channel=0 control=64 value=100 time=16
control_change channel=0 control=64 value=101 time=15
control_change channel=0 control=64 value=102 time=14
control_change channel=0 control=64 value=103 time=16
control_change channel=0 control=64 value=102 time=45
control_change channel=0 control=64 value=102 time=46
control_change channel=0 control=64 value=101 time=14
control_change channel=0 control=64 value=100 time=16
control_change channel=0 control=64 value=99 time=15
control_change channel=0 control=64 value=97 time=15
control_change channel=0 control=64 value=97 time=16
control_change channel=0 control=64 value=96 time=45
control_change channel=0 control=64 value=96 time=15
control_change channel=0 control=64 value=94 time=16
control_change channel=0 control=64 value=90 time=15
control_change channel=0 control=64 value=83 time=15
control_change channel=0 control=64 value=69 time=15
note_on channel=0 note=64 velocity=87 time=5
control_change channel=0 control=64 value=0 time=10
note_on channel=0 note=44 velocity=76 time=439
note_on channel=0 note=44 velocity=0 time=60
control_change channel=0 control=64 value=47 time=11
control_change channel=0 control=64 value=63 time=15
control_change channel=0 control=64 value=66 time=16
control_change channel=0 control=64 value=66 time=15
control_change channel=0 control=64 value=68 time=30
control_change channel=0 control=64 value=69 time=15
control_change channel=0 control=64 value=71 time=16
control_change channel=0 control=64 value=72 time=15
control_change channel=0 control=64 value=72 time=14
control_change channel=0 control=64 value=73 time=16
control_change channel=0 control=64 value=75 time=15
control_change channel=0 control=64 value=78 time=15
control_change channel=0 control=64 value=81 time=15
note_on channel=0 note=59 velocity=62 time=3
control_change channel=0 control=64 value=83 time=12
control_change channel=0 control=64 value=85 time=16
control_change channel=0 control=64 value=89 time=15
control_change channel=0 control=64 value=93 time=15
control_change channel=0 control=64 value=96 time=15
control_change channel=0 control=64 value=98 time=15
control_change channel=0 control=64 value=100 time=16
control_change channel=0 control=64 value=103 time=15
control_change channel=0 control=64 value=106 time=15
note_on channel=0 note=64 velocity=0 time=13
control_change channel=0 control=64 value=111 time=3
control_change channel=0 control=64 value=114 time=15
note_on channel=0 note=76 velocity=92 time=5
control_change channel=0 control=64 value=116 time=10
control_change channel=0 control=64 value=120 time=16
note_on channel=0 note=51 velocity=54 time=6
control_change channel=0 control=64 value=127 time=9
note_on channel=0 note=59 velocity=0 time=28
note_on channel=0 note=52 velocity=77 time=70
note_on channel=0 note=51 velocity=0 time=23
note_on channel=0 note=52 velocity=0 time=7
note_on channel=0 note=40 velocity=72 time=135
control_change channel=0 control=64 value=97 time=3
control_change channel=0 control=64 value=64 time=15
control_change channel=0 control=64 value=0 time=16
note_on channel=0 note=40 velocity=0 time=27
control_change channel=0 control=64 value=27 time=3
control_change channel=0 control=64 value=51 time=15
control_change channel=0 control=64 value=63 time=15
control_change channel=0 control=64 value=68 time=16
control_change channel=0 control=64 value=73 time=15
control_change channel=0 control=64 value=76 time=15
control_change channel=0 control=64 value=81 time=15
control_change channel=0 control=64 value=84 time=15
note_on channel=0 note=71 velocity=86 time=5
note_on channel=0 note=62 velocity=55 time=5
control_change channel=0 control=64 value=87 time=5
note_on channel=0 note=76 velocity=0 time=8
control_change channel=0 control=64 value=90 time=8
control_change channel=0 control=64 value=91 time=15
note_on channel=0 note=71 velocity=0 time=10
control_change channel=0 control=64 value=90 time=5
control_change channel=0 control=64 value=85 time=15
control_change channel=0 control=64 value=76 time=15
control_change channel=0 control=64 value=70 time=16
control_change channel=0 control=64 value=72 time=15
note_on channel=0 note=74 velocity=86 time=8
control_change channel=0 control=64 value=78 time=6
note_on channel=0 note=62 velocity=0 time=8
note_on channel=0 note=72 velocity=87 time=1
note_on channel=0 note=74 velocity=0 time=3
control_change channel=0 control=64 value=81 time=4
control_change channel=0 control=64 value=84 time=15
note_on channel=0 note=51 velocity=57 time=2
control_change channel=0 control=64 value=89 time=13
note_on channel=0 note=72 velocity=0 time=0
control_change channel=0 control=64 value=93 time=15
control_change channel=0 control=64 value=97 time=15
control_change channel=0 control=64 value=98 time=16
control_change channel=0 control=64 value=99 time=15
note_on channel=0 note=71 velocity=93 time=13
control_change channel=0 control=64 value=102 time=2
control_change channel=0 control=64 value=106 time=15
note_on channel=0 note=51 velocity=0 time=1
note_on channel=0 note=52 velocity=55 time=4
control_change channel=0 control=64 value=108 time=10
note_on channel=0 note=52 velocity=0 time=17
note_on channel=0 note=71 velocity=0 time=2
control_change channel=0 control=64 value=106 time=58
control_change channel=0 control=64 value=93 time=16
note_on channel=0 note=69 velocity=74 time=11
control_change channel=0 control=64 value=72 time=4
note_on channel=0 note=45 velocity=57 time=5
control_change channel=0 control=64 value=0 time=9
note_on channel=0 note=45 velocity=0 time=59
control_change channel=0 control=64 value=52 time=87
control_change channel=0 control=64 value=64 time=14
note_on channel=0 note=60 velocity=52 time=9
control_change channel=0 control=64 value=66 time=7
control_change channel=0 control=64 value=66 time=15
control_change channel=0 control=64 value=66 time=14
control_change channel=0 control=64 value=67 time=31
note_on channel=0 note=60 velocity=0 time=9
control_change channel=0 control=64 value=68 time=7
control_change channel=0 control=64 value=67 time=30
note_on channel=0 note=69 velocity=0 time=1
note_on channel=0 note=64 velocity=52 time=26
note_on channel=0 note=51 velocity=51 time=22
control_change channel=0 control=64 value=68 time=13
control_change channel=0 control=64 value=68 time=14
note_on channel=0 note=51 velocity=0 time=12
control_change channel=0 control=64 value=69 time=4
control_change channel=0 control=64 value=71 time=15
control_change channel=0 control=64 value=72 time=15
control_change channel=0 control=64 value=74 time=16
control_change channel=0 control=64 value=76 time=15
note_on channel=0 note=52 velocity=59 time=4
control_change channel=0 control=64 value=78 time=12
note_on channel=0 note=64 velocity=0 time=0
control_change channel=0 control=64 value=79 time=14
note_on channel=0 note=52 velocity=0 time=11
control_change channel=0 control=64 value=80 time=4
control_change channel=0 control=64 value=81 time=16
control_change channel=0 control=64 value=82 time=15
control_change channel=0 control=64 value=83 time=15
control_change channel=0 control=64 value=83 time=14
note_on channel=0 note=48 velocity=78 time=18
control_change channel=0 control=64 value=81 time=42
control_change channel=0 control=64 value=72 time=15
control_change channel=0 control=64 value=44 time=15
control_change channel=0 control=64 value=0 time=15
note_on channel=0 note=57 velocity=78 time=30
control_change channel=0 control=64 value=14 time=15
control_change channel=0 control=64 value=47 time=16
note_on channel=0 note=48 velocity=0 time=11
control_change channel=0 control=64 value=60 time=4
control_change channel=0 control=64 value=66 time=16
control_change channel=0 control=64 value=71 time=14
control_change channel=0 control=64 value=73 time=17
note_on channel=0 note=64 velocity=93 time=28
control_change channel=0 control=64 value=73 time=2
control_change channel=0 control=64 value=74 time=15
note_on channel=0 note=51 velocity=63 time=6
note_on channel=0 note=57 velocity=0 time=4
control_change channel=0 control=64 value=75 time=6
control_change channel=0 control=64 value=76 time=22
control_change channel=0 control=64 value=76 time=31
note_on channel=0 note=51 velocity=0 time=15
control_change channel=0 control=64 value=78 time=1
control_change channel=0 control=64 value=79 time=15
note_on channel=0 note=52 velocity=79 time=0
control_change channel=0 control=64 value=80 time=14
control_change channel=0 control=64 value=80 time=16
control_change channel=0 control=64 value=81 time=15
control_change channel=0 control=64 value=83 time=15
control_change channel=0 control=64 value=83 time=16
note_on channel=0 note=52 velocity=0 time=47
control_change channel=0 control=64 value=83 time=12
note_on channel=0 note=44 velocity=85 time=5
control_change channel=0 control=64 value=74 time=11
control_change channel=0 control=64 value=53 time=15
control_change channel=0 control=64 value=0 time=16
note_on channel=0 note=44 velocity=0 time=70
note_on channel=0 note=59 velocity=84 time=20
control_change channel=0 control=64 value=59 time=76
control_change channel=0 control=64 value=65 time=15
control_change channel=0 control=64 value=68 time=15
control_change channel=0 control=64 value=69 time=16
note_on channel=0 note=51 velocity=69 time=6
control_change channel=0 control=64 value=71 time=9
note_on channel=0 note=64 velocity=0 time=1
note_on channel=0 note=76 velocity=93 time=4
control_change channel=0 control=64 value=74 time=11
note_on channel=0 note=59 velocity=0 time=9
control_change channel=0 control=64 value=78 time=6
control_change channel=0 control=64 value=81 time=15
control_change channel=0 control=64 value=84 time=15
control_change channel=0 control=64 value=85 time=15
control_change channel=0 control=64 value=88 time=15
control_change channel=0 control=64 value=92 time=16
note_on channel=0 note=52 velocity=82 time=3
control_change channel=0 control=64 value=95 time=12
control_change channel=0 control=64 value=96 time=15
note_on channel=0 note=51 velocity=0 time=4
control_change channel=0 control=64 value=96 time=11
control_change channel=0 control=64 value=97 time=31
note_on channel=0 note=52 velocity=0 time=18
note_on channel=0 note=50 velocity=86 time=38
control_change channel=0 control=64 value=96 time=20
control_change channel=0 control=64 value=88 time=16
control_change channel=0 control=64 value=69 time=19
control_change channel=0 control=64 value=0 time=16
note_on channel=0 note=71 velocity=85 time=41
note_on channel=0 note=56 velocity=67 time=11
note_on channel=0 note=76 velocity=0 time=0
note_on channel=0 note=71 velocity=0 time=22
note_on channel=0 note=74 velocity=90 time=79
note_on channel=0 note=72 velocity=90 time=11
note_on channel=0 note=74 velocity=0 time=7
note_on channel=0 note=51 velocity=58 time=23
note_on channel=0 note=72 velocity=0 time=3
note_on channel=0 note=56 velocity=0 time=42
note_on channel=0 note=50 velocity=0 time=6
note_on channel=0 note=71 velocity=87 time=40
note_on channel=0 note=52 velocity=58 time=27
note_on channel=0 note=71 velocity=0 time=1
note_on channel=0 note=51 velocity=0 time=14
note_on channel=0 note=52 velocity=0 time=74
note_on channel=0 note=69 velocity=73 time=37
note_on channel=0 note=48 velocity=54 time=6
note_on channel=0 note=57 velocity=51 time=126
control_change channel=0 control=64 value=50 time=8
control_change channel=0 control=64 value=62 time=15
control_change channel=0 control=64 value=65 time=15
control_change channel=0 control=64 value=66 time=15
control_change channel=0 control=64 value=68 time=16
control_change channel=0 control=64 value=70 time=15
note_on channel=0 note=57 velocity=0 time=3
control_change channel=0 control=64 value=72 time=11
note_on channel=0 note=48 velocity=0 time=7
control_change channel=0 control=64 value=73 time=9
note_on channel=0 note=64 velocity=65 time=10
control_change channel=0 control=64 value=75 time=5
note_on channel=0 note=51 velocity=51 time=4
control_change channel=0 control=64 value=76 time=12
control_change channel=0 control=64 value=77 time=15
control_change channel=0 control=64 value=78 time=22
note_on channel=0 note=69 velocity=0 time=18
control_change channel=0 control=64 value=76 time=13
note_on channel=0 note=51 velocity=0 time=0
control_change channel=0 control=64 value=71 time=16
note_on channel=0 note=52 velocity=70 time=2
control_change channel=0 control=64 value=62 time=13
control_change channel=0 control=64 value=53 time=14
control_change channel=0 control=64 value=61 time=16
control_change channel=0 control=64 value=64 time=15
control_change channel=0 control=64 value=66 time=16
note_on channel=0 note=64 velocity=0 time=6
control_change channel=0 control=64 value=69 time=9
control_change channel=0 control=64 value=73 time=14
note_on channel=0 note=45 velocity=85 time=14
control_change channel=0 control=64 value=80 time=2
control_change channel=0 control=64 value=86 time=15
control_change channel=0 control=64 value=89 time=16
note_on channel=0 note=45 velocity=0 time=26
control_change channel=0 control=64 value=90 time=20
control_change channel=0 control=64 value=92 time=15
control_change channel=0 control=64 value=96 time=15
note_on channel=0 note=60 velocity=83 time=1
control_change channel=0 control=64 value=98 time=14
control_change channel=0 control=64 value=99 time=15
control_change channel=0 control=64 value=99 time=16
note_on channel=0 note=52 velocity=0 time=17
note_on channel=0 note=69 velocity=96 time=72
note_on channel=0 note=51 velocity=76 time=2
note_on channel=0 note=60 velocity=0 time=11
control_change channel=0 control=64 value=99 time=49
control_change channel=0 control=64 value=98 time=15
control_change channel=0 control=64 value=98 time=15
control_change channel=0 control=64 value=97 time=16
note_on channel=0 note=52 velocity=85 time=9
control_change channel=0 control=64 value=95 time=6
control_change channel=0 control=64 value=94 time=15
control_change channel=0 control=64 value=92 time=15
control_change channel=0 control=64 value=91 time=15
note_on channel=0 note=51 velocity=0 time=3
control_change channel=0 control=64 value=89 time=12
control_change channel=0 control=64 value=87 time=16
control_change channel=0 control=64 value=83 time=15
control_change channel=0 control=64 value=73 time=15
note_on channel=0 note=52 velocity=0 time=7
control_change channel=0 control=64 value=0 time=8
note_on channel=0 note=49 velocity=94 time=28
note_on channel=0 note=57 velocity=80 time=183
note_on channel=0 note=69 velocity=0 time=135
note_on channel=0 note=81 velocity=96 time=21
note_on channel=0 note=51 velocity=71 time=20
note_on channel=0 note=57 velocity=0 time=1
note_on channel=0 note=49 velocity=0 time=51
control_change channel=0 control=64 value=56 time=11
control_change channel=0 control=64 value=66 time=15
control_change channel=0 control=64 value=67 time=15
note_on channel=0 note=52 velocity=78 time=8
control_change channel=0 control=64 value=69 time=7
note_on channel=0 note=51 velocity=0 time=11
control_change channel=0 control=64 value=72 time=5
control_change channel=0 control=64 value=77 time=15
control_change channel=0 control=64 value=81 time=15
control_change channel=0 control=64 value=82 time=15
control_change channel=0 control=64 value=82 time=15
control_change channel=0 control=64 value=74 time=16
control_change channel=0 control=64 value=57 time=14
note_on channel=0 note=45 velocity=79 time=5
control_change channel=0 control=64 value=0 time=10
control_change channel=0 control=64 value=43 time=31
control_change channel=0 control=64 value=65 time=15
note_on channel=0 note=45 velocity=0 time=8
control_change channel=0 control=64 value=73 time=7
note_on channel=0 note=52 velocity=0 time=6
control_change channel=0 control=64 value=76 time=9
control_change channel=0 control=64 value=75 time=16
control_change channel=0 control=64 value=69 time=15
note_on channel=0 note=76 velocity=97 time=2
control_change channel=0 control=64 value=57 time=13
note_on channel=0 note=61 velocity=83 time=2
note_on channel=0 note=81 velocity=0 time=4
control_change channel=0 control=64 value=46 time=9
control_change channel=0 control=64 value=60 time=15
note_on channel=0 note=76 velocity=0 time=5
control_change channel=0 control=64 value=65 time=11
control_change channel=0 control=64 value=69 time=14
control_change channel=0 control=64 value=72 time=15
note_on channel=0 note=61 velocity=0 time=13
control_change channel=0 control=64 value=74 time=3
note_on channel=0 note=79 velocity=89 time=4
note_on channel=0 note=51 velocity=72 time=5
note_on channel=0 note=77 velocity=84 time=12
note_on channel=0 note=79 velocity=0 time=46
control_change channel=0 control=64 value=73 time=1
note_on channel=0 note=77 velocity=0 time=27
control_change channel=0 control=64 value=72 time=4
note_on channel=0 note=52 velocity=64 time=10
control_change channel=0 control=64 value=72 time=6
note_on channel=0 note=51 velocity=0 time=3
note_on channel=0 note=76 velocity=81 time=7
control_change channel=0 control=64 value=71 time=4
note_on channel=0 note=76 velocity=0 time=20
note_on channel=0 note=52 velocity=0 time=10
control_change channel=0 control=64 value=70 time=16
control_change channel=0 control=64 value=68 time=16
control_change channel=0 control=64 value=60 time=15
control_change channel=0 control=64 value=0 time=15
note_on channel=0 note=76 velocity=86 time=28
note_on channel=0 note=50 velocity=69 time=5
note_on channel=0 note=65 velocity=60 time=14
note_on channel=0 note=69 velocity=46 time=4
note_on channel=0 note=74 velocity=86 time=98
note_on channel=0 note=76 velocity=0 time=3
note_on channel=0 note=69 velocity=0 time=16
note_on channel=0 note=65 velocity=0 time=2
note_on channel=0 note=50 velocity=0 time=7
note_on channel=0 note=74 velocity=0 time=24
note_on channel=0 note=52 velocity=88 time=61
note_on channel=0 note=74 velocity=88 time=5
note_on channel=0 note=64 velocity=77 time=11
note_on channel=0 note=52 velocity=0 time=9
note_on channel=0 note=69 velocity=61 time=0
note_on channel=0 note=74 velocity=0 time=97
note_on channel=0 note=69 velocity=0 time=6
note_on channel=0 note=72 velocity=85 time=1
note_on channel=0 note=64 velocity=0 time=19
note_on channel=0 note=72 velocity=0 time=33
note_on channel=0 note=53 velocity=90 time=61
note_on channel=0 note=72 velocity=76 time=6
note_on channel=0 note=62 velocity=70 time=10
note_on channel=0 note=68 velocity=71 time=3
note_on channel=0 note=53 velocity=0 time=4
note_on channel=0 note=62 velocity=0 time=38
note_on channel=0 note=72 velocity=0 time=39
note_on channel=0 note=68 velocity=0 time=34
note_on channel=0 note=71 velocity=78 time=0
note_on channel=0 note=71 velocity=0 time=46
note_on channel=0 note=54 velocity=84 time=59
note_on channel=0 note=71 velocity=74 time=10
note_on channel=0 note=63 velocity=70 time=6
note_on channel=0 note=54 velocity=0 time=7
note_on channel=0 note=60 velocity=51 time=6
note_on channel=0 note=71 velocity=0 time=70
note_on channel=0 note=69 velocity=71 time=34
note_on channel=0 note=63 velocity=0 time=3
note_on channel=0 note=60 velocity=0 time=20
note_on channel=0 note=69 velocity=0 time=14
note_on channel=0 note=55 velocity=80 time=77
note_on channel=0 note=69 velocity=74 time=9
note_on channel=0 note=43 velocity=68 time=1
note_on channel=0 note=60 velocity=52 time=8
note_on channel=0 note=55 velocity=0 time=4
note_on channel=0 note=64 velocity=52 time=2
note_on channel=0 note=43 velocity=0 time=12
note_on channel=0 note=60 velocity=0 time=23
note_on channel=0 note=64 velocity=0 time=8
note_on channel=0 note=69 velocity=0 time=32
note_on channel=0 note=67 velocity=61 time=28
note_on channel=0 note=67 velocity=0 time=36
note_on channel=0 note=44 velocity=64 time=84
note_on channel=0 note=67 velocity=64 time=6
note_on channel=0 note=59 velocity=49 time=13
note_on channel=0 note=62 velocity=42 time=4
note_on channel=0 note=44 velocity=0 time=7
note_on channel=0 note=59 velocity=0 time=40
note_on channel=0 note=62 velocity=0 time=11
note_on channel=0 note=67 velocity=0 time=7
note_on channel=0 note=65 velocity=66 time=31
note_on channel=0 note=65 velocity=0 time=38
note_on channel=0 note=65 velocity=54 time=94
note_on channel=0 note=45 velocity=41 time=12
note_on channel=0 note=57 velocity=46 time=0
note_on channel=0 note=60 velocity=31 time=8
note_on channel=0 note=45 velocity=0 time=27
note_on channel=0 note=60 velocity=0 time=23
note_on channel=0 note=65 velocity=0 time=0
note_on channel=0 note=57 velocity=0 time=1
note_on channel=0 note=64 velocity=50 time=34
note_on channel=0 note=64 velocity=0 time=33
note_on channel=0 note=64 velocity=63 time=84
note_on channel=0 note=47 velocity=54 time=8
note_on channel=0 note=56 velocity=56 time=5
note_on channel=0 note=53 velocity=38 time=18
note_on channel=0 note=47 velocity=0 time=4
note_on channel=0 note=64 velocity=0 time=42
note_on channel=0 note=56 velocity=0 time=2
note_on channel=0 note=53 velocity=0 time=11
note_on channel=0 note=62 velocity=63 time=21
note_on channel=0 note=62 velocity=0 time=36
note_on channel=0 note=62 velocity=51 time=94
note_on channel=0 note=48 velocity=38 time=4
note_on channel=0 note=52 velocity=46 time=8
note_on channel=0 note=57 velocity=27 time=17
note_on channel=0 note=48 velocity=0 time=11
note_on channel=0 note=62 velocity=0 time=16
note_on channel=0 note=57 velocity=0 time=16
note_on channel=0 note=52 velocity=0 time=24
note_on channel=0 note=60 velocity=52 time=7
note_on channel=0 note=60 velocity=0 time=40
note_on channel=0 note=59 velocity=55 time=372
note_on channel=0 note=54 velocity=30 time=14
note_on channel=0 note=51 velocity=44 time=15
note_on channel=0 note=51 velocity=0 time=35
note_on channel=0 note=54 velocity=0 time=1
note_on channel=0 note=59 velocity=0 time=24
note_on channel=0 note=57 velocity=57 time=33
note_on channel=0 note=57 velocity=0 time=31
note_on channel=0 note=56 velocity=68 time=422
note_on channel=0 note=52 velocity=30 time=19
note_on channel=0 note=56 velocity=0 time=14
note_on channel=0 note=64 velocity=58 time=74
note_on channel=0 note=52 velocity=0 time=171
control_change channel=0 control=64 value=41 time=239
control_change channel=0 control=64 value=51 time=14
control_change channel=0 control=64 value=58 time=16
control_change channel=0 control=64 value=63 time=15
control_change channel=0 control=64 value=66 time=16
control_change channel=0 control=64 value=69 time=15
note_on channel=0 note=47 velocity=45 time=3
note_on channel=0 note=40 velocity=38 time=6
control_change channel=0 control=64 value=70 time=6
control_change channel=0 control=64 value=73 time=23
note_on channel=0 note=47 velocity=0 time=4
control_change channel=0 control=64 value=77 time=11
note_on channel=0 note=40 velocity=0 time=1
control_change channel=0 control=64 value=82 time=14
control_change channel=0 control=64 value=85 time=15
control_change channel=0 control=64 value=87 time=15
control_change channel=0 control=64 value=89 time=16
control_change channel=0 control=64 value=93 time=15
control_change channel=0 control=64 value=96 time=15
control_change channel=0 control=64 value=99 time=15
control_change channel=0 control=64 value=102 time=15
control_change channel=0 control=64 value=103 time=16
control_change channel=0 control=64 value=104 time=46
control_change channel=0 control=64 value=104 time=15
control_change channel=0 control=64 value=105 time=15
control_change channel=0 control=64 value=106 time=15
control_change channel=0 control=64 value=108 time=15
note_on channel=0 note=64 velocity=0 time=7
control_change channel=0 control=64 value=111 time=9
control_change channel=0 control=64 value=112 time=15
control_change channel=0 control=64 value=109 time=15
control_change channel=0 control=64 value=96 time=15
control_change channel=0 control=64 value=79 time=15
note_on channel=0 note=44 velocity=94 time=3
note_on channel=0 note=32 velocity=78 time=7
note_on channel=0 note=64 velocity=84 time=4
note_on channel=0 note=76 velocity=84 time=0
control_change channel=0 control=64 value=70 time=2
note_on channel=0 note=77 velocity=88 time=1
control_change channel=0 control=64 value=74 time=13
note_on channel=0 note=44 velocity=0 time=1
note_on channel=0 note=32 velocity=0 time=7
control_change channel=0 control=64 value=80 time=8
control_change channel=0 control=64 value=87 time=16
control_change channel=0 control=64 value=97 time=15
control_change channel=0 control=64 value=110 time=16
note_on channel=0 note=77 velocity=0 time=3
control_change channel=0 control=64 value=127 time=12
note_on channel=0 note=44 velocity=82 time=100
note_on channel=0 note=52 velocity=82 time=31
control_change channel=0 control=64 value=122 time=5
note_on channel=0 note=64 velocity=0 time=13
control_change channel=0 control=64 value=85 time=2
note_on channel=0 note=44 velocity=0 time=9
control_change channel=0 control=64 value=69 time=6
note_on channel=0 note=59 velocity=101 time=4
note_on channel=0 note=75 velocity=94 time=2
control_change channel=0 control=64 value=70 time=10
control_change channel=0 control=64 value=82 time=15
note_on channel=0 note=76 velocity=0 time=4
note_on channel=0 note=52 velocity=0 time=10
control_change channel=0 control=64 value=92 time=1
note_on channel=0 note=75 velocity=0 time=12
control_change channel=0 control=64 value=101 time=3
control_change channel=0 control=64 value=110 time=15
control_change channel=0 control=64 value=127 time=15
note_on channel=0 note=59 velocity=0 time=12
control_change channel=0 control=64 value=90 time=133
control_change channel=0 control=64 value=68 time=15
control_change channel=0 control=64 value=60 time=15
note_on channel=0 note=88 velocity=98 time=2
note_on channel=0 note=74 velocity=94 time=6
note_on channel=0 note=54 velocity=77 time=2
control_change channel=0 control=64 value=68 time=5
control_change channel=0 control=64 value=75 time=16
control_change channel=0 control=64 value=81 time=15
control_change channel=0 control=64 value=89 time=15
note_on channel=0 note=54 velocity=0 time=14
control_change channel=0 control=64 value=98 time=1
control_change channel=0 control=64 value=110 time=15
control_change channel=0 control=64 value=127 time=15
note_on channel=0 note=56 velocity=97 time=9
note_on channel=0 note=88 velocity=0 time=54
note_on channel=0 note=56 velocity=0 time=35
control_change channel=0 control=64 value=95 time=9
control_change channel=0 control=64 value=74 time=16
note_on channel=0 note=52 velocity=90 time=0
control_change channel=0 control=64 value=70 time=15
note_on channel=0 note=74 velocity=0 time=3
control_change channel=0 control=64 value=82 time=12
control_change channel=0 control=64 value=93 time=15
control_change channel=0 control=64 value=102 time=15
note_on channel=0 note=52 velocity=0 time=10
control_change channel=0 control=64 value=110 time=5
control_change channel=0 control=64 value=127 time=16
note_on channel=0 note=83 velocity=95 time=37
note_on channel=0 note=71 velocity=89 time=6
note_on channel=0 note=71 velocity=0 time=25
note_on channel=0 note=83 velocity=0 time=18
control_change channel=0 control=64 value=96 time=51
note_on channel=0 note=50 velocity=71 time=2
note_on channel=0 note=84 velocity=89 time=9
note_on channel=0 note=86 velocity=90 time=2
control_change channel=0 control=64 value=60 time=3
note_on channel=0 note=72 velocity=93 time=1
control_change channel=0 control=64 value=0 time=14
note_on channel=0 note=72 velocity=0 time=6
note_on channel=0 note=50 velocity=0 time=2
note_on channel=0 note=86 velocity=0 time=2
note_on channel=0 note=84 velocity=0 time=16
note_on channel=0 note=83 velocity=89 time=66
note_on channel=0 note=52 velocity=64 time=1
note_on channel=0 note=71 velocity=82 time=1
note_on channel=0 note=71 velocity=0 time=23
note_on channel=0 note=52 velocity=0 time=6
note_on channel=0 note=83 velocity=0 time=1
note_on channel=0 note=48 velocity=79 time=90
note_on channel=0 note=81 velocity=79 time=7
note_on channel=0 note=69 velocity=70 time=11
control_change channel=0 control=64 value=65 time=3
note_on channel=0 note=48 velocity=0 time=4
control_change channel=0 control=64 value=73 time=11
control_change channel=0 control=64 value=81 time=16
control_change channel=0 control=64 value=87 time=14
control_change channel=0 control=64 value=92 time=15
note_on channel=0 note=81 velocity=0 time=14
control_change channel=0 control=64 value=94 time=2
control_change channel=0 control=64 value=95 time=15
control_change channel=0 control=64 value=96 time=16
note_on channel=0 note=69 velocity=0 time=13
control_change channel=0 control=64 value=97 time=1
control_change channel=0 control=64 value=99 time=15
control_change channel=0 control=64 value=102 time=16
control_change channel=0 control=64 value=104 time=14
control_change channel=0 control=64 value=96 time=46
note_on channel=0 note=47 velocity=92 time=7
note_on channel=0 note=76 velocity=83 time=8
control_change channel=0 control=64 value=73 time=1
note_on channel=0 note=64 velocity=73 time=5
control_change channel=0 control=64 value=0 time=9
note_on channel=0 note=47 velocity=0 time=11
note_on channel=0 note=48 velocity=87 time=78
note_on channel=0 note=48 velocity=0 time=35
note_on channel=0 note=45 velocity=99 time=88
note_on channel=0 note=45 velocity=0 time=21
control_change channel=0 control=64 value=65 time=27
control_change channel=0 control=64 value=71 time=16
control_change channel=0 control=64 value=75 time=15
control_change channel=0 control=64 value=79 time=15
control_change channel=0 control=64 value=82 time=15
control_change channel=0 control=64 value=83 time=15
control_change channel=0 control=64 value=85 time=16
note_on channel=0 note=64 velocity=0 time=12
control_change channel=0 control=64 value=88 time=2
control_change channel=0 control=64 value=93 time=15
control_change channel=0 control=64 value=97 time=16
note_on channel=0 note=76 velocity=0 time=4
control_change channel=0 control=64 value=97 time=11
control_change channel=0 control=64 value=92 time=16
control_change channel=0 control=64 value=79 time=14
control_change channel=0 control=64 value=68 time=23
note_on channel=0 note=47 velocity=88 time=5
note_on channel=0 note=33 velocity=68 time=1
note_on channel=0 note=77 velocity=100 time=0
note_on channel=0 note=65 velocity=89 time=1
note_on channel=0 note=45 velocity=69 time=3
control_change channel=0 control=64 value=72 time=5
note_on channel=0 note=47 velocity=0 time=12
control_change channel=0 control=64 value=80 time=3
note_on channel=0 note=33 velocity=0 time=3
note_on channel=0 note=45 velocity=0 time=3
control_change channel=0 control=64 value=87 time=10
control_change channel=0 control=64 value=93 time=15
control_change channel=0 control=64 value=100 time=15
control_change channel=0 control=64 value=106 time=16
control_change channel=0 control=64 value=108 time=14
control_change channel=0 control=64 value=109 time=16
control_change channel=0 control=64 value=112 time=15
note_on channel=0 note=45 velocity=56 time=1
control_change channel=0 control=64 value=119 time=14
control_change channel=0 control=64 value=127 time=16
note_on channel=0 note=53 velocity=76 time=21
control_change channel=0 control=64 value=118 time=8
control_change channel=0 control=64 value=90 time=16
note_on channel=0 note=65 velocity=0 time=10
control_change channel=0 control=64 value=66 time=5
note_on channel=0 note=45 velocity=0 time=3
control_change channel=0 control=64 value=0 time=13
note_on channel=0 note=60 velocity=101 time=7
note_on channel=0 note=76 velocity=99 time=2
control_change channel=0 control=64 value=28 time=5
control_change channel=0 control=64 value=64 time=15
note_on channel=0 note=77 velocity=0 time=1
control_change channel=0 control=64 value=71 time=15
note_on channel=0 note=53 velocity=0 time=2
note_on channel=0 note=76 velocity=0 time=5
control_change channel=0 control=64 value=79 time=7
control_change channel=0 control=64 value=89 time=16
control_change channel=0 control=64 value=98 time=15
control_change channel=0 control=64 value=101 time=15
note_on channel=0 note=60 velocity=0 time=8
control_change channel=0 control=64 value=104 time=8
control_change channel=0 control=64 value=115 time=14
control_change channel=0 control=64 value=127 time=15
control_change channel=0 control=64 value=106 time=77
control_change channel=0 control=64 value=76 time=15
note_on channel=0 note=55 velocity=81 time=12
control_change channel=0 control=64 value=64 time=3
note_on channel=0 note=89 velocity=96 time=0
note_on channel=0 note=75 velocity=95 time=3
control_change channel=0 control=64 value=69 time=12
note_on channel=0 note=88 velocity=65 time=1
control_change channel=0 control=64 value=74 time=15
note_on channel=0 note=55 velocity=0 time=1
note_on channel=0 note=88 velocity=0 time=8
control_change channel=0 control=64 value=79 time=6
control_change channel=0 control=64 value=85 time=16
control_change channel=0 control=64 value=99 time=15
control_change channel=0 control=64 value=114 time=15
note_on channel=0 note=89 velocity=0 time=10
note_on channel=0 note=88 velocity=42 time=3
control_change channel=0 control=64 value=127 time=3
note_on channel=0 note=57 velocity=89 time=0
note_on channel=0 note=88 velocity=0 time=28
note_on channel=0 note=57 velocity=0 time=26
control_change channel=0 control=64 value=96 time=37
control_change channel=0 control=64 value=73 time=15
note_on channel=0 note=75 velocity=0 time=1
note_on channel=0 note=53 velocity=95 time=8
control_change channel=0 control=64 value=64 time=7
control_change channel=0 control=64 value=71 time=15
note_on channel=0 note=53 velocity=0 time=21
control_change channel=0 control=64 value=77 time=2
control_change channel=0 control=64 value=85 time=15
control_change channel=0 control=64 value=93 time=16
control_change channel=0 control=64 value=103 time=15
control_change channel=0 control=64 value=114 time=14
note_on channel=0 note=84 velocity=89 time=8
control_change channel=0 control=64 value=127 time=8
note_on channel=0 note=72 velocity=78 time=2
note_on channel=0 note=72 velocity=0 time=21
note_on channel=0 note=84 velocity=0 time=16
note_on channel=0 note=87 velocity=106 time=64
note_on channel=0 note=75 velocity=81 time=9
control_change channel=0 control=64 value=106 time=9
note_on channel=0 note=51 velocity=68 time=3
note_on channel=0 note=75 velocity=0 time=9
control_change channel=0 control=64 value=71 time=3
note_on channel=0 note=87 velocity=0 time=5
control_change channel=0 control=64 value=0 time=10
note_on channel=0 note=51 velocity=0 time=3
note_on channel=0 note=84 velocity=94 time=65
note_on channel=0 note=72 velocity=85 time=3
note_on channel=0 note=53 velocity=67 time=6
note_on channel=0 note=72 velocity=0 time=18
note_on channel=0 note=53 velocity=0 time=6
note_on channel=0 note=84 velocity=0 time=2
note_on channel=0 note=83 velocity=94 time=81
note_on channel=0 note=50 velocity=66 time=8
note_on channel=0 note=71 velocity=82 time=1
control_change channel=0 control=64 value=62 time=21
control_change channel=0 control=64 value=69 time=14
control_change channel=0 control=64 value=77 time=16
control_change channel=0 control=64 value=89 time=15
note_on channel=0 note=50 velocity=0 time=2
control_change channel=0 control=64 value=97 time=13
control_change channel=0 control=64 value=100 time=15
note_on channel=0 note=83 velocity=0 time=4
control_change channel=0 control=64 value=101 time=11
note_on channel=0 note=71 velocity=0 time=11
control_change channel=0 control=64 value=103 time=4
control_change channel=0 control=64 value=105 time=16
control_change channel=0 control=64 value=108 time=15
control_change channel=0 control=64 value=112 time=17
control_change channel=0 control=64 value=113 time=14
control_change channel=0 control=64 value=106 time=30
control_change channel=0 control=64 value=89 time=15
note_on channel=0 note=74 velocity=83 time=11
control_change channel=0 control=64 value=72 time=4
note_on channel=0 note=53 velocity=59 time=5
note_on channel=0 note=62 velocity=65 time=1
control_change channel=0 control=64 value=67 time=9
control_change channel=0 control=64 value=72 time=15
control_change channel=0 control=64 value=77 time=16
control_change channel=0 control=64 value=81 time=15
note_on channel=0 note=53 velocity=0 time=0
note_on channel=0 note=62 velocity=0 time=1
control_change channel=0 control=64 value=87 time=14
control_change channel=0 control=64 value=96 time=23
note_on channel=0 note=74 velocity=0 time=2
note_on channel=0 note=56 velocity=80 time=6
control_change channel=0 control=64 value=106 time=7
control_change channel=0 control=64 value=114 time=16
control_change channel=0 control=64 value=124 time=14
note_on channel=0 note=56 velocity=0 time=0
control_change channel=0 control=64 value=127 time=15
control_change channel=0 control=64 value=102 time=31
control_change channel=0 control=64 value=77 time=16
control_change channel=0 control=64 value=0 time=14
note_on channel=0 note=41 velocity=90 time=6
control_change channel=0 control=64 value=42 time=9
control_change channel=0 control=64 value=64 time=16
note_on channel=0 note=41 velocity=0 time=10
control_change channel=0 control=64 value=68 time=5
control_change channel=0 control=64 value=75 time=16
control_change channel=0 control=64 value=85 time=15
control_change channel=0 control=64 value=101 time=15
control_change channel=0 control=64 value=112 time=15
control_change channel=0 control=64 value=127 time=15
note_on channel=0 note=82 velocity=90 time=2
note_on channel=0 note=70 velocity=76 time=7
note_on channel=0 note=70 velocity=0 time=24
note_on channel=0 note=82 velocity=0 time=15
note_on channel=0 note=85 velocity=66 time=53
control_change channel=0 control=64 value=79 time=7
note_on channel=0 note=52 velocity=69 time=0
note_on channel=0 note=84 velocity=95 time=1
note_on channel=0 note=72 velocity=92 time=5
control_change channel=0 control=64 value=0 time=9
note_on channel=0 note=52 velocity=0 time=10
note_on channel=0 note=85 velocity=0 time=0
note_on channel=0 note=72 velocity=0 time=4
note_on channel=0 note=86 velocity=37 time=1
note_on channel=0 note=86 velocity=0 time=2
note_on channel=0 note=84 velocity=0 time=13
note_on channel=0 note=55 velocity=73 time=71
note_on channel=0 note=82 velocity=94 time=1
note_on channel=0 note=70 velocity=80 time=6
note_on channel=0 note=55 velocity=0 time=21
note_on channel=0 note=70 velocity=0 time=2
note_on channel=0 note=82 velocity=0 time=22
note_on channel=0 note=81 velocity=89 time=75
note_on channel=0 note=69 velocity=74 time=9
note_on channel=0 note=41 velocity=65 time=4
control_change channel=0 control=64 value=24 time=1
control_change channel=0 control=64 value=57 time=16
control_change channel=0 control=64 value=66 time=16
control_change channel=0 control=64 value=72 time=15
control_change channel=0 control=64 value=79 time=16
note_on channel=0 note=41 velocity=0 time=2
control_change channel=0 control=64 value=87 time=12
control_change channel=0 control=64 value=92 time=15
control_change channel=0 control=64 value=95 time=16
note_on channel=0 note=81 velocity=0 time=4
note_on channel=0 note=69 velocity=0 time=5
control_change channel=0 control=64 value=99 time=6
control_change channel=0 control=64 value=104 time=16
control_change channel=0 control=64 value=107 time=22
control_change channel=0 control=64 value=107 time=16
control_change channel=0 control=64 value=101 time=15
control_change channel=0 control=64 value=85 time=15
control_change channel=0 control=64 value=69 time=15
note_on channel=0 note=48 velocity=56 time=14
control_change channel=0 control=64 value=63 time=1
note_on channel=0 note=75 velocity=84 time=2
control_change channel=0 control=64 value=69 time=13
note_on channel=0 note=63 velocity=62 time=7
note_on channel=0 note=48 velocity=0 time=7
control_change channel=0 control=64 value=75 time=2
control_change channel=0 control=64 value=79 time=14
control_change channel=0 control=64 value=84 time=16
control_change channel=0 control=64 value=89 time=15
control_change channel=0 control=64 value=94 time=15
control_change channel=0 control=64 value=97 time=16
note_on channel=0 note=63 velocity=0 time=4
note_on channel=0 note=53 velocity=86 time=5
control_change channel=0 control=64 value=98 time=5
note_on channel=0 note=75 velocity=0 time=14
control_change channel=0 control=64 value=99 time=1
note_on channel=0 note=53 velocity=0 time=17
control_change channel=0 control=64 value=98 time=14
control_change channel=0 control=64 value=91 time=15
control_change channel=0 control=64 value=76 time=15
control_change channel=0 control=64 value=30 time=15
control_change channel=0 control=64 value=0 time=16
note_on channel=0 note=41 velocity=93 time=6
control_change channel=0 control=64 value=61 time=9
control_change channel=0 control=64 value=68 time=15
note_on channel=0 note=41 velocity=0 time=11
control_change channel=0 control=64 value=75 time=4
control_change channel=0 control=64 value=84 time=15
control_change channel=0 control=64 value=95 time=16
control_change channel=0 control=64 value=103 time=15
control_change channel=0 control=64 value=109 time=15
control_change channel=0 control=64 value=127 time=15
note_on channel=0 note=81 velocity=100 time=1
note_on channel=0 note=69 velocity=85 time=2
note_on channel=0 note=69 velocity=0 time=18
note_on channel=0 note=81 velocity=0 time=18
note_on channel=0 note=50 velocity=74 time=73
note_on channel=0 note=82 velocity=101 time=6
note_on channel=0 note=70 velocity=91 time=3
control_change channel=0 control=64 value=82 time=1
control_change channel=0 control=64 value=0 time=15
note_on channel=0 note=50 velocity=0 time=0
note_on channel=0 note=70 velocity=0 time=2
note_on channel=0 note=82 velocity=0 time=2
note_on channel=0 note=53 velocity=71 time=95
note_on channel=0 note=74 velocity=94 time=1
note_on channel=0 note=62 velocity=87 time=2
note_on channel=0 note=62 velocity=0 time=21
note_on channel=0 note=53 velocity=0 time=2
note_on channel=0 note=74 velocity=0 time=11
note_on channel=0 note=75 velocity=92 time=95
note_on channel=0 note=63 velocity=81 time=10
note_on channel=0 note=41 velocity=74 time=3
control_change channel=0 control=64 value=46 time=8
control_change channel=0 control=64 value=67 time=15
control_change channel=0 control=64 value=72 time=15
control_change channel=0 control=64 value=77 time=16
note_on channel=0 note=63 velocity=0 time=2
control_change channel=0 control=64 value=83 time=13
control_change channel=0 control=64 value=90 time=15
note_on channel=0 note=41 velocity=0 time=9
control_change channel=0 control=64 value=95 time=6
control_change channel=0 control=64 value=97 time=15
control_change channel=0 control=64 value=100 time=16
control_change channel=0 control=64 value=105 time=15
control_change channel=0 control=64 value=110 time=15
note_on channel=0 note=75 velocity=0 time=11
control_change channel=0 control=64 value=112 time=4
control_change channel=0 control=64 value=105 time=15
control_change channel=0 control=64 value=85 time=15
control_change channel=0 control=64 value=64 time=16
note_on channel=0 note=48 velocity=69 time=7
note_on channel=0 note=81 velocity=92 time=7
control_change channel=0 control=64 value=0 time=1
note_on channel=0 note=69 velocity=73 time=10
control_change channel=0 control=64 value=57 time=6
note_on channel=0 note=48 velocity=0 time=9
control_change channel=0 control=64 value=65 time=6
control_change channel=0 control=64 value=69 time=15
control_change channel=0 control=64 value=77 time=15
control_change channel=0 control=64 value=87 time=15
control_change channel=0 control=64 value=98 time=16
control_change channel=0 control=64 value=103 time=15
note_on channel=0 note=53 velocity=85 time=6
control_change channel=0 control=64 value=105 time=9
control_change channel=0 control=64 value=105 time=15
note_on channel=0 note=53 velocity=0 time=20
control_change channel=0 control=64 value=96 time=10
control_change channel=0 control=64 value=70 time=16
control_change channel=0 control=64 value=0 time=15
note_on channel=0 note=41 velocity=91 time=33
note_on channel=0 note=69 velocity=0 time=8
note_on channel=0 note=81 velocity=0 time=14
control_change channel=0 control=64 value=36 time=5
control_change channel=0 control=64 value=67 time=15
note_on channel=0 note=41 velocity=0 time=2
control_change channel=0 control=64 value=77 time=13
control_change channel=0 control=64 value=87 time=16
control_change channel=0 control=64 value=97 time=15
control_change channel=0 control=64 value=102 time=15
control_change channel=0 control=64 value=104 time=15
note_on channel=0 note=81 velocity=98 time=2
note_on channel=0 note=69 velocity=78 time=6
control_change channel=0 control=64 value=108 time=7
control_change channel=0 control=64 value=113 time=16
note_on channel=0 note=69 velocity=0 time=0
note_on channel=0 note=81 velocity=0 time=8
control_change channel=0 control=64 value=115 time=7
control_change channel=0 control=64 value=115 time=15
control_change channel=0 control=64 value=107 time=16
control_change channel=0 control=64 value=74 time=15
control_change channel=0 control=64 value=0 time=16
note_on channel=0 note=50 velocity=63 time=1
note_on channel=0 note=82 velocity=98 time=8
note_on channel=0 note=70 velocity=85 time=4
note_on channel=0 note=50 velocity=0 time=23
note_on channel=0 note=70 velocity=0 time=6
note_on channel=0 note=82 velocity=0 time=0
note_on channel=0 note=53 velocity=71 time=92
note_on channel=0 note=74 velocity=92 time=9
note_on channel=0 note=62 velocity=78 time=4
note_on channel=0 note=53 velocity=0 time=15
note_on channel=0 note=62 velocity=0 time=7
note_on channel=0 note=74 velocity=0 time=11
note_on channel=0 note=75 velocity=82 time=88
note_on channel=0 note=63 velocity=75 time=5
note_on channel=0 note=41 velocity=65 time=7
control_change channel=0 control=64 value=55 time=1
control_change channel=0 control=64 value=70 time=15
control_change channel=0 control=64 value=75 time=15
control_change channel=0 control=64 value=79 time=16
note_on channel=0 note=41 velocity=0 time=5
control_change channel=0 control=64 value=82 time=10
note_on channel=0 note=63 velocity=0 time=14
control_change channel=0 control=64 value=83 time=1
control_change channel=0 control=64 value=83 time=15
control_change channel=0 control=64 value=84 time=15
control_change channel=0 control=64 value=87 time=16
control_change channel=0 control=64 value=90 time=15
note_on channel=0 note=75 velocity=0 time=12
control_change channel=0 control=64 value=91 time=3
control_change channel=0 control=64 value=90 time=30
control_change channel=0 control=64 value=78 time=16
control_change channel=0 control=64 value=53 time=15
control_change channel=0 control=64 value=0 time=15
note_on channel=0 note=81 velocity=77 time=12
note_on channel=0 note=48 velocity=59 time=4
note_on channel=0 note=69 velocity=58 time=11
note_on channel=0 note=48 velocity=0 time=17
control_change channel=0 control=64 value=27 time=16
control_change channel=0 control=64 value=58 time=15
control_change channel=0 control=64 value=64 time=16
control_change channel=0 control=64 value=64 time=15
control_change channel=0 control=64 value=52 time=15
control_change channel=0 control=64 value=0 time=15
note_on channel=0 note=53 velocity=73 time=5
note_on channel=0 note=53 velocity=0 time=28
control_change channel=0 control=64 value=33 time=74
note_on channel=0 note=69 velocity=0 time=1
note_on channel=0 note=81 velocity=0 time=2
control_change channel=0 control=64 value=0 time=13
note_on channel=0 note=41 velocity=89 time=2
note_on channel=0 note=41 velocity=0 time=37
note_on channel=0 note=81 velocity=86 time=92
note_on channel=0 note=69 velocity=58 time=13
note_on channel=0 note=69 velocity=0 time=22
note_on channel=0 note=81 velocity=0 time=0
note_on channel=0 note=50 velocity=65 time=97
note_on channel=0 note=82 velocity=86 time=0
note_on channel=0 note=70 velocity=77 time=4
note_on channel=0 note=82 velocity=0 time=17
note_on channel=0 note=70 velocity=0 time=4
note_on channel=0 note=50 velocity=0 time=7
note_on channel=0 note=74 velocity=86 time=105
note_on channel=0 note=53 velocity=66 time=4
note_on channel=0 note=62 velocity=70 time=2
note_on channel=0 note=62 velocity=0 time=20
note_on channel=0 note=74 velocity=0 time=0
note_on channel=0 note=53 velocity=0 time=8
note_on channel=0 note=75 velocity=74 time=146
control_change channel=0 control=64 value=24 time=3
note_on channel=0 note=41 velocity=54 time=2
note_on channel=0 note=63 velocity=58 time=6
control_change channel=0 control=64 value=68 time=8
control_change channel=0 control=64 value=72 time=15
note_on channel=0 note=41 velocity=0 time=6
note_on channel=0 note=63 velocity=0 time=8
control_change channel=0 control=64 value=73 time=1
control_change channel=0 control=67 value=8 time=0
control_change channel=0 control=64 value=74 time=15
control_change channel=0 control=67 value=11 time=0
control_change channel=0 control=67 value=13 time=15
control_change channel=0 control=64 value=74 time=30
control_change channel=0 control=67 value=13 time=0
control_change channel=0 control=67 value=13 time=15
control_change channel=0 control=67 value=14 time=15
control_change channel=0 control=67 value=15 time=15
note_on channel=0 note=75 velocity=0 time=57
note_on channel=0 note=48 velocity=62 time=37
control_change channel=0 control=64 value=71 time=6
control_change channel=0 control=67 value=15 time=0
control_change channel=0 control=64 value=50 time=14
note_on channel=0 note=53 velocity=73 time=8
control_change channel=0 control=64 value=0 time=7
control_change channel=0 control=67 value=15 time=0
note_on channel=0 note=48 velocity=0 time=3
note_on channel=0 note=53 velocity=0 time=22
control_change channel=0 control=67 value=15 time=22
control_change channel=0 control=67 value=15 time=76
control_change channel=0 control=67 value=14 time=106
control_change channel=0 control=67 value=13 time=15
control_change channel=0 control=67 value=13 time=16
note_on channel=0 note=36 velocity=58 time=14
control_change channel=0 control=67 value=12 time=1
note_on channel=0 note=41 velocity=62 time=3
note_on channel=0 note=81 velocity=75 time=2
note_on channel=0 note=75 velocity=61 time=7
control_change channel=0 control=64 value=59 time=4
control_change channel=0 control=67 value=11 time=0
note_on channel=0 note=69 velocity=58 time=2
control_change channel=0 control=64 value=74 time=12
control_change channel=0 control=67 value=10 time=0
note_on channel=0 note=36 velocity=0 time=3
note_on channel=0 note=41 velocity=0 time=0
note_on channel=0 note=75 velocity=0 time=5
note_on channel=0 note=69 velocity=0 time=1
control_change channel=0 control=64 value=79 time=6
control_change channel=0 control=67 value=10 time=0
note_on channel=0 note=81 velocity=0 time=1
control_change channel=0 control=64 value=82 time=15
control_change channel=0 control=64 value=83 time=15
control_change channel=0 control=67 value=9 time=0
control_change channel=0 control=64 value=84 time=15
control_change channel=0 control=67 value=9 time=0
control_change channel=0 control=67 value=9 time=137
control_change channel=0 control=64 value=84 time=15
note_on channel=0 note=48 velocity=65 time=26
control_change channel=0 control=64 value=82 time=4
control_change channel=0 control=64 value=70 time=15
note_on channel=0 note=53 velocity=63 time=13
control_change channel=0 control=64 value=0 time=3
note_on channel=0 note=48 velocity=0 time=3
control_change channel=0 control=67 value=10 time=12
note_on channel=0 note=53 velocity=0 time=7
note_on channel=0 note=36 velocity=51 time=238
note_on channel=0 note=48 velocity=47 time=1
note_on channel=0 note=41 velocity=66 time=9
note_on channel=0 note=53 velocity=46 time=15
note_on channel=0 note=48 velocity=0 time=7
note_on channel=0 note=36 velocity=0 time=1
note_on channel=0 note=53 velocity=0 time=21
note_on channel=0 note=41 velocity=0 time=5
control_change channel=0 control=67 value=10 time=54
control_change channel=0 control=67 value=9 time=167
note_on channel=0 note=45 velocity=64 time=7
note_on channel=0 note=57 velocity=54 time=0
control_change channel=0 control=67 value=0 time=9
note_on channel=0 note=60 velocity=76 time=1
note_on channel=0 note=48 velocity=73 time=12
note_on channel=0 note=57 velocity=0 time=3
note_on channel=0 note=45 velocity=0 time=4
note_on channel=0 note=60 velocity=0 time=7
note_on channel=0 note=48 velocity=0 time=12
note_on channel=0 note=65 velocity=52 time=213
note_on channel=0 note=53 velocity=74 time=12
note_on channel=0 note=69 velocity=89 time=5
note_on channel=0 note=57 velocity=76 time=4
note_on channel=0 note=65 velocity=0 time=11
note_on channel=0 note=69 velocity=0 time=20
note_on channel=0 note=53 velocity=0 time=3
note_on channel=0 note=57 velocity=0 time=11
note_on channel=0 note=72 velocity=70 time=209
note_on channel=0 note=60 velocity=66 time=12
note_on channel=0 note=65 velocity=83 time=11
note_on channel=0 note=77 velocity=90 time=1
note_on channel=0 note=72 velocity=0 time=3
control_change channel=0 control=64 value=14 time=16
note_on channel=0 note=65 velocity=0 time=0
note_on channel=0 note=60 velocity=0 time=10
control_change channel=0 control=64 value=66 time=5
control_change channel=0 control=64 value=72 time=16
note_on channel=0 note=77 velocity=0 time=0
control_change channel=0 control=64 value=77 time=15
control_change channel=0 control=64 value=80 time=14
control_change channel=0 control=64 value=82 time=16
control_change channel=0 control=64 value=83 time=15
note_on channel=0 note=77 velocity=17 time=8
note_on channel=0 note=77 velocity=0 time=44
control_change channel=0 control=64 value=82 time=9
control_change channel=0 control=64 value=77 time=15
control_change channel=0 control=64 value=66 time=15
control_change channel=0 control=64 value=0 time=15
control_change channel=0 control=64 value=27 time=31
note_on channel=0 note=41 velocity=69 time=9
note_on channel=0 note=46 velocity=85 time=4
control_change channel=0 control=64 value=66 time=2
note_on channel=0 note=65 velocity=86 time=10
note_on channel=0 note=77 velocity=87 time=0
note_on channel=0 note=73 velocity=86 time=2
control_change channel=0 control=64 value=81 time=3
note_on channel=0 note=70 velocity=67 time=4
note_on channel=0 note=65 velocity=0 time=10
control_change channel=0 control=64 value=100 time=2
control_change channel=0 control=64 value=127 time=14
note_on channel=0 note=70 velocity=0 time=0
note_on channel=0 note=41 velocity=0 time=2
note_on channel=0 note=73 velocity=0 time=4
note_on channel=0 note=77 velocity=0 time=4
note_on channel=0 note=46 velocity=0 time=1
control_change channel=0 control=64 value=104 time=34
control_change channel=0 control=64 value=71 time=16
control_change channel=0 control=64 value=0 time=15
note_on channel=0 note=49 velocity=74 time=154
note_on channel=0 note=53 velocity=67 time=41
note_on channel=0 note=49 velocity=0 time=12
note_on channel=0 note=53 velocity=0 time=28
note_on channel=0 note=41 velocity=67 time=205
note_on channel=0 note=70 velocity=79 time=2
note_on channel=0 note=82 velocity=89 time=1
note_on channel=0 note=77 velocity=76 time=2
control_change channel=0 control=64 value=51 time=5
note_on channel=0 note=73 velocity=70 time=0
note_on channel=0 note=46 velocity=69 time=4
note_on channel=0 note=70 velocity=0 time=10
control_change channel=0 control=64 value=70 time=2
note_on channel=0 note=77 velocity=0 time=8
note_on channel=0 note=41 velocity=0 time=4
note_on channel=0 note=73 velocity=0 time=0
control_change channel=0 control=64 value=87 time=2
note_on channel=0 note=82 velocity=0 time=11
note_on channel=0 note=46 velocity=0 time=1
control_change channel=0 control=64 value=113 time=3
control_change channel=0 control=64 value=127 time=16
control_change channel=0 control=64 value=87 time=198
note_on channel=0 note=49 velocity=68 time=6
control_change channel=0 control=64 value=0 time=9
note_on channel=0 note=53 velocity=72 time=21
note_on channel=0 note=49 velocity=0 time=22
note_on channel=0 note=53 velocity=0 time=10
note_on channel=0 note=41 velocity=49 time=212
note_on channel=0 note=53 velocity=54 time=7
note_on channel=0 note=53 velocity=0 time=26
note_on channel=0 note=58 velocity=58 time=3
note_on channel=0 note=46 velocity=37 time=12
note_on channel=0 note=41 velocity=0 time=1
note_on channel=0 note=58 velocity=0 time=29
note_on channel=0 note=46 velocity=0 time=14
note_on channel=0 note=61 velocity=64 time=170
note_on channel=0 note=49 velocity=70 time=9
note_on channel=0 note=65 velocity=75 time=20
note_on channel=0 note=53 velocity=77 time=6
note_on channel=0 note=61 velocity=0 time=4
note_on channel=0 note=49 velocity=0 time=5
note_on channel=0 note=65 velocity=0 time=10
note_on channel=0 note=53 velocity=0 time=9
note_on channel=0 note=70 velocity=78 time=196
note_on channel=0 note=58 velocity=87 time=13
note_on channel=0 note=61 velocity=85 time=11
note_on channel=0 note=73 velocity=89 time=2
control_change channel=0 control=64 value=66 time=17
note_on channel=0 note=70 velocity=0 time=9
control_change channel=0 control=64 value=77 time=6
note_on channel=0 note=58 velocity=0 time=9
control_change channel=0 control=64 value=85 time=6
note_on channel=0 note=73 velocity=0 time=0
control_change channel=0 control=64 value=87 time=15
control_change channel=0 control=64 value=85 time=31
note_on channel=0 note=61 velocity=0 time=5
control_change channel=0 control=64 value=77 time=10
control_change channel=0 control=64 value=64 time=14
control_change channel=0 control=64 value=0 time=16
note_on channel=0 note=65 velocity=59 time=95
note_on channel=0 note=77 velocity=87 time=7
note_on channel=0 note=70 velocity=98 time=21
note_on channel=0 note=82 velocity=96 time=3
control_change channel=0 control=64 value=67 time=3
control_change channel=0 control=64 value=86 time=15
note_on channel=0 note=70 velocity=0 time=6
note_on channel=0 note=77 velocity=0 time=0
control_change channel=0 control=64 value=114 time=10
note_on channel=0 note=82 velocity=0 time=9
note_on channel=0 note=65 velocity=0 time=3
control_change channel=0 control=64 value=127 time=3
control_change channel=0 control=64 value=76 time=151
control_change channel=0 control=64 value=0 time=15
note_on channel=0 note=38 velocity=85 time=29
note_on channel=0 note=71 velocity=101 time=7
note_on channel=0 note=83 velocity=99 time=3
note_on channel=0 note=80 velocity=87 time=1
note_on channel=0 note=44 velocity=89 time=3
control_change channel=0 control=64 value=68 time=5
note_on channel=0 note=77 velocity=48 time=7
control_change channel=0 control=64 value=83 time=8
note_on channel=0 note=71 velocity=0 time=2
control_change channel=0 control=64 value=106 time=12
note_on channel=0 note=38 velocity=0 time=2
note_on channel=0 note=77 velocity=0 time=2
note_on channel=0 note=80 velocity=0 time=4
note_on channel=0 note=83 velocity=0 time=0
control_change channel=0 control=64 value=127 time=8
note_on channel=0 note=44 velocity=0 time=4
control_change channel=0 control=64 value=91 time=163
control_change channel=0 control=64 value=0 time=15
note_on channel=0 note=50 velocity=79 time=16
note_on channel=0 note=56 velocity=105 time=21
note_on channel=0 note=56 velocity=0 time=57
note_on channel=0 note=50 velocity=0 time=9
control_change channel=0 control=64 value=61 time=2
control_change channel=0 control=64 value=67 time=15
control_change channel=0 control=64 value=70 time=15
control_change channel=0 control=64 value=71 time=15
control_change channel=0 control=64 value=72 time=15
control_change channel=0 control=64 value=74 time=24
control_change channel=0 control=64 value=75 time=15
control_change channel=0 control=64 value=68 time=15
control_change channel=0 control=64 value=0 time=15
note_on channel=0 note=45 velocity=88 time=48
note_on channel=0 note=39 velocity=88 time=3
note_on channel=0 note=84 velocity=95 time=1
note_on channel=0 note=72 velocity=102 time=3
control_change channel=0 control=64 value=60 time=6
note_on channel=0 note=81 velocity=85 time=0
note_on channel=0 note=78 velocity=79 time=3
control_change channel=0 control=64 value=76 time=12
note_on channel=0 note=42 velocity=52 time=4
note_on channel=0 note=72 velocity=0 time=0
note_on channel=0 note=78 velocity=0 time=3
control_change channel=0 control=64 value=94 time=8
note_on channel=0 note=84 velocity=0 time=8
note_on channel=0 note=81 velocity=0 time=3
note_on channel=0 note=39 velocity=0 time=2
control_change channel=0 control=64 value=127 time=2
note_on channel=0 note=42 velocity=0 time=5
note_on channel=0 note=45 velocity=0 time=1
control_change channel=0 control=64 value=104 time=146
control_change channel=0 control=64 value=70 time=15
control_change channel=0 control=64 value=0 time=15
note_on channel=0 note=51 velocity=91 time=11
note_on channel=0 note=57 velocity=98 time=11
control_change channel=0 control=64 value=56 time=24
note_on channel=0 note=57 velocity=0 time=12
control_change channel=0 control=64 value=72 time=4
note_on channel=0 note=51 velocity=0 time=2
control_change channel=0 control=64 value=85 time=13
control_change channel=0 control=64 value=102 time=16
control_change channel=0 control=64 value=126 time=15
control_change channel=0 control=64 value=127 time=14
control_change channel=0 control=64 value=99 time=122
control_change channel=0 control=64 value=58 time=16
note_on channel=0 note=52 velocity=96 time=1
note_on channel=0 note=85 velocity=94 time=4
note_on channel=0 note=73 velocity=100 time=1
control_change channel=0 control=64 value=0 time=9
note_on channel=0 note=40 velocity=67 time=5
note_on channel=0 note=81 velocity=62 time=6
note_on channel=0 note=52 velocity=0 time=2
note_on channel=0 note=38 velocity=44 time=4
note_on channel=0 note=38 velocity=0 time=1
note_on channel=0 note=73 velocity=0 time=12
note_on channel=0 note=40 velocity=0 time=1
note_on channel=0 note=81 velocity=0 time=0
note_on channel=0 note=85 velocity=0 time=15
control_change channel=0 control=64 value=81 time=203
note_on channel=0 note=53 velocity=102 time=6
note_on channel=0 note=74 velocity=105 time=2
note_on channel=0 note=81 velocity=85 time=1
note_on channel=0 note=41 velocity=96 time=2
note_on channel=0 note=86 velocity=105 time=0
control_change channel=0 control=64 value=127 time=5
note_on channel=0 note=53 velocity=0 time=24
note_on channel=0 note=41 velocity=0 time=6
note_on channel=0 note=81 velocity=0 time=94
note_on channel=0 note=74 velocity=0 time=209
note_on channel=0 note=86 velocity=0 time=3
control_change channel=0 control=64 value=97 time=89
control_change channel=0 control=64 value=0 time=16
note_on channel=0 note=49 velocity=103 time=29
control_change channel=0 control=64 value=70 time=1
note_on channel=0 note=37 velocity=83 time=2
note_on channel=0 note=45 velocity=85 time=0
note_on channel=0 note=76 velocity=108 time=1
note_on channel=0 note=88 velocity=103 time=3
control_change channel=0 control=64 value=85 time=9
note_on channel=0 note=81 velocity=57 time=0
control_change channel=0 control=64 value=127 time=15
note_on channel=0 note=81 velocity=0 time=4
note_on channel=0 note=49 velocity=0 time=35
note_on channel=0 note=37 velocity=0 time=1
note_on channel=0 note=45 velocity=0 time=39
note_on channel=0 note=88 velocity=0 time=43
note_on channel=0 note=76 velocity=0 time=19
control_change channel=0 control=64 value=97 time=49
control_change channel=0 control=64 value=61 time=15
control_change channel=0 control=64 value=0 time=16
control_change channel=0 control=64 value=58 time=30
note_on channel=0 note=50 velocity=103 time=13
control_change channel=0 control=64 value=80 time=2
note_on channel=0 note=45 velocity=87 time=3
note_on channel=0 note=89 velocity=108 time=0
note_on channel=0 note=77 velocity=105 time=1
note_on channel=0 note=38 velocity=80 time=2
note_on channel=0 note=81 velocity=75 time=2
control_change channel=0 control=64 value=127 time=7
note_on channel=0 note=81 velocity=0 time=16
note_on channel=0 note=38 velocity=0 time=3
note_on channel=0 note=77 velocity=0 time=4
note_on channel=0 note=87 velocity=59 time=1
note_on channel=0 note=50 velocity=0 time=6
note_on channel=0 note=45 velocity=0 time=6
note_on channel=0 note=89 velocity=0 time=3
note_on channel=0 note=87 velocity=0 time=9
control_change channel=0 control=64 value=103 time=287
control_change channel=0 control=64 value=89 time=15
control_change channel=0 control=64 value=77 time=16
control_change channel=0 control=64 value=54 time=16
control_change channel=0 control=64 value=0 time=15
note_on channel=0 note=40 velocity=80 time=508
note_on channel=0 note=44 velocity=79 time=24
note_on channel=0 note=47 velocity=72 time=48
note_on channel=0 note=52 velocity=102 time=22
note_on channel=0 note=68 velocity=109 time=8
note_on channel=0 note=71 velocity=82 time=1
note_on channel=0 note=80 velocity=96 time=2
control_change channel=0 control=64 value=55 time=1
note_on channel=0 note=74 velocity=83 time=0
control_change channel=0 control=64 value=95 time=15
note_on channel=0 note=40 velocity=0 time=1
control_change channel=0 control=64 value=127 time=14
note_on channel=0 note=68 velocity=0 time=5
note_on channel=0 note=71 velocity=0 time=4
note_on channel=0 note=52 velocity=0 time=11
note_on channel=0 note=74 velocity=0 time=2
note_on channel=0 note=47 velocity=0 time=4
note_on channel=0 note=44 velocity=0 time=8
note_on channel=0 note=80 velocity=0 time=3
control_change channel=0 control=64 value=106 time=442
control_change channel=0 control=64 value=85 time=16
control_change channel=0 control=64 value=67 time=15
control_change channel=0 control=64 value=0 time=15
note_on channel=0 note=33 velocity=83 time=388
note_on channel=0 note=40 velocity=69 time=22
control_change channel=0 control=64 value=60 time=32
note_on channel=0 note=45 velocity=93 time=11
control_change channel=0 control=64 value=83 time=5
note_on channel=0 note=33 velocity=0 time=11
control_change channel=0 control=64 value=127 time=3
note_on channel=0 note=40 velocity=0 time=21
note_on channel=0 note=45 velocity=0 time=2
note_on channel=0 note=73 velocity=89 time=15
note_on channel=0 note=76 velocity=91 time=0
note_on channel=0 note=69 velocity=101 time=1
note_on channel=0 note=81 velocity=99 time=1
note_on channel=0 note=67 velocity=99 time=131
note_on channel=0 note=55 velocity=89 time=4
note_on channel=0 note=67 velocity=0 time=20
note_on channel=0 note=55 velocity=0 time=4
note_on channel=0 note=57 velocity=36 time=18
note_on channel=0 note=57 velocity=0 time=1
note_on channel=0 note=67 velocity=101 time=60
note_on channel=0 note=55 velocity=91 time=1
note_on channel=0 note=67 velocity=0 time=30
note_on channel=0 note=55 velocity=0 time=1
note_on channel=0 note=67 velocity=102 time=77
note_on channel=0 note=55 velocity=99 time=3
note_on channel=0 note=67 velocity=0 time=31
note_on channel=0 note=55 velocity=0 time=8
control_change channel=0 control=64 value=100 time=65
control_change channel=0 control=64 value=73 time=16
note_on channel=0 note=67 velocity=100 time=1
note_on channel=0 note=55 velocity=101 time=3
control_change channel=0 control=64 value=66 time=10
control_change channel=0 control=64 value=73 time=16
control_change channel=0 control=64 value=78 time=15
control_change channel=0 control=64 value=82 time=15
control_change channel=0 control=64 value=90 time=16
control_change channel=0 control=64 value=107 time=14
control_change channel=0 control=64 value=127 time=15
note_on channel=0 note=81 velocity=0 time=8
note_on channel=0 note=76 velocity=0 time=23
note_on channel=0 note=69 velocity=0 time=1
note_on channel=0 note=73 velocity=0 time=18
note_on channel=0 note=81 velocity=102 time=66
note_on channel=0 note=69 velocity=99 time=3
note_on channel=0 note=67 velocity=0 time=1
note_on channel=0 note=79 velocity=95 time=0
note_on channel=0 note=55 velocity=0 time=12
note_on channel=0 note=81 velocity=0 time=151
note_on channel=0 note=69 velocity=0 time=5
note_on channel=0 note=79 velocity=0 time=37
note_on channel=0 note=77 velocity=78 time=58
note_on channel=0 note=81 velocity=90 time=1
note_on channel=0 note=69 velocity=77 time=6
control_change channel=0 control=64 value=95 time=75
control_change channel=0 control=64 value=68 time=15
note_on channel=0 note=65 velocity=94 time=10
control_change channel=0 control=64 value=38 time=6
note_on channel=0 note=53 velocity=83 time=0
control_change channel=0 control=64 value=65 time=15
note_on channel=0 note=53 velocity=0 time=12
control_change channel=0 control=64 value=72 time=4
note_on channel=0 note=65 velocity=0 time=4
control_change channel=0 control=64 value=79 time=11
control_change channel=0 control=64 value=90 time=14
control_change channel=0 control=64 value=106 time=16
control_change channel=0 control=64 value=127 time=15
note_on channel=0 note=53 velocity=88 time=3
note_on channel=0 note=65 velocity=87 time=0
note_on channel=0 note=65 velocity=0 time=37
note_on channel=0 note=53 velocity=0 time=4
note_on channel=0 note=65 velocity=103 time=77
note_on channel=0 note=53 velocity=95 time=5
note_on channel=0 note=65 velocity=0 time=36
note_on channel=0 note=53 velocity=0 time=4
note_on channel=0 note=69 velocity=0 time=28
note_on channel=0 note=77 velocity=0 time=15
control_change channel=0 control=64 value=108 time=19
note_on channel=0 note=74 velocity=94 time=5
note_on channel=0 note=62 velocity=101 time=8
control_change channel=0 control=64 value=75 time=2
note_on channel=0 note=50 velocity=99 time=1
note_on channel=0 note=81 velocity=0 time=12
control_change channel=0 control=64 value=58 time=3
control_change channel=0 control=64 value=67 time=15
note_on channel=0 note=50 velocity=0 time=14
control_change channel=0 control=64 value=76 time=1
note_on channel=0 note=62 velocity=0 time=13
control_change channel=0 control=64 value=85 time=2
control_change channel=0 control=64 value=102 time=15
control_change channel=0 control=64 value=127 time=16
note_on channel=0 note=64 velocity=99 time=143
note_on channel=0 note=52 velocity=70 time=7
note_on channel=0 note=74 velocity=0 time=1
note_on channel=0 note=76 velocity=85 time=6
note_on channel=0 note=69 velocity=99 time=1
note_on channel=0 note=81 velocity=98 time=5
note_on channel=0 note=53 velocity=65 time=4
note_on channel=0 note=64 velocity=0 time=9
note_on channel=0 note=53 velocity=0 time=9
note_on channel=0 note=52 velocity=0 time=11
note_on channel=0 note=45 velocity=63 time=120
note_on channel=0 note=49 velocity=80 time=5
note_on channel=0 note=69 velocity=0 time=1
note_on channel=0 note=81 velocity=0 time=0
note_on channel=0 note=52 velocity=67 time=20
control_change channel=0 control=64 value=88 time=3
control_change channel=0 control=64 value=0 time=15
note_on channel=0 note=76 velocity=0 time=7
note_on channel=0 note=57 velocity=86 time=21
note_on channel=0 note=45 velocity=0 time=8
note_on channel=0 note=49 velocity=0 time=19
note_on channel=0 note=69 velocity=91 time=2
control_change channel=0 control=64 value=64 time=3
note_on channel=0 note=76 velocity=77 time=0
note_on channel=0 note=81 velocity=90 time=0
note_on channel=0 note=52 velocity=0 time=2
note_on channel=0 note=57 velocity=0 time=0
note_on channel=0 note=73 velocity=86 time=0
control_change channel=0 control=64 value=78 time=14
control_change channel=0 control=64 value=94 time=15
control_change channel=0 control=64 value=127 time=15
note_on channel=0 note=67 velocity=95 time=61
note_on channel=0 note=55 velocity=90 time=5
note_on channel=0 note=55 velocity=0 time=22
note_on channel=0 note=67 velocity=0 time=5
note_on channel=0 note=67 velocity=105 time=81
note_on channel=0 note=55 velocity=94 time=1
note_on channel=0 note=55 velocity=0 time=26
note_on channel=0 note=67 velocity=0 time=3
note_on channel=0 note=67 velocity=107 time=69
note_on channel=0 note=55 velocity=97 time=4
note_on channel=0 note=67 velocity=0 time=32
note_on channel=0 note=55 velocity=0 time=7
control_change channel=0 control=64 value=96 time=78
note_on channel=0 note=67 velocity=100 time=0
note_on channel=0 note=55 velocity=101 time=3
control_change channel=0 control=64 value=50 time=13
control_change channel=0 control=64 value=0 time=16
control_change channel=0 control=64 value=52 time=69
control_change channel=0 control=64 value=68 time=15
control_change channel=0 control=64 value=77 time=14
control_change channel=0 control=64 value=85 time=16
note_on channel=0 note=81 velocity=0 time=11
control_change channel=0 control=64 value=94 time=4
note_on channel=0 note=69 velocity=0 time=9
note_on channel=0 note=76 velocity=0 time=0
control_change channel=0 control=64 value=103 time=7
note_on channel=0 note=73 velocity=0 time=1
control_change channel=0 control=64 value=119 time=13
control_change channel=0 control=64 value=127 time=15
note_on channel=0 note=81 velocity=103 time=38
note_on channel=0 note=69 velocity=103 time=1
note_on channel=0 note=79 velocity=98 time=2
note_on channel=0 note=67 velocity=0 time=19
note_on channel=0 note=55 velocity=0 time=1
note_on channel=0 note=81 velocity=0 time=152
note_on channel=0 note=69 velocity=0 time=8
note_on channel=0 note=79 velocity=0 time=23
note_on channel=0 note=77 velocity=82 time=61
note_on channel=0 note=81 velocity=93 time=1
note_on channel=0 note=69 velocity=83 time=3
note_on channel=0 note=65 velocity=94 time=100
control_change channel=0 control=64 value=124 time=4
note_on channel=0 note=53 velocity=82 time=2
control_change channel=0 control=64 value=72 time=13
control_change channel=0 control=64 value=0 time=16
note_on channel=0 note=53 velocity=0 time=5
note_on channel=0 note=65 velocity=0 time=2
control_change channel=0 control=64 value=40 time=7
control_change channel=0 control=64 value=65 time=15
control_change channel=0 control=64 value=71 time=16
control_change channel=0 control=64 value=80 time=15
note_on channel=0 note=65 velocity=86 time=8
note_on channel=0 note=53 velocity=85 time=3
control_change channel=0 control=64 value=96 time=3
control_change channel=0 control=64 value=123 time=16
control_change channel=0 control=64 value=127 time=15
note_on channel=0 note=53 velocity=0 time=11
note_on channel=0 note=65 velocity=0 time=1
note_on channel=0 note=65 velocity=93 time=74
note_on channel=0 note=53 velocity=84 time=9
note_on channel=0 note=53 velocity=0 time=33
note_on channel=0 note=65 velocity=0 time=0
note_on channel=0 note=69 velocity=0 time=10
note_on channel=0 note=77 velocity=0 time=31
control_change channel=0 control=64 value=90 time=8
control_change channel=0 control=64 value=77 time=15
note_on channel=0 note=50 velocity=100 time=9
note_on channel=0 note=62 velocity=98 time=0
note_on channel=0 note=74 velocity=101 time=0
control_change channel=0 control=64 value=79 time=6
note_on channel=0 note=81 velocity=0 time=12
control_change channel=0 control=64 value=94 time=3
control_change channel=0 control=64 value=109 time=15
note_on channel=0 note=50 velocity=0 time=9
control_change channel=0 control=64 value=127 time=7
note_on channel=0 note=62 velocity=0 time=0
note_on channel=0 note=74 velocity=0 time=174
note_on channel=0 note=64 velocity=96 time=3
note_on channel=0 note=52 velocity=88 time=1
note_on channel=0 note=76 velocity=86 time=6
note_on channel=0 note=69 velocity=101 time=3
note_on channel=0 note=81 velocity=99 time=1
note_on channel=0 note=64 velocity=0 time=14
note_on channel=0 note=52 velocity=0 time=24
note_on channel=0 note=81 velocity=0 time=104
note_on channel=0 note=69 velocity=0 time=9
note_on channel=0 note=76 velocity=0 time=40
control_change channel=0 control=64 value=89 time=33
control_change channel=0 control=64 value=0 time=14
note_on channel=0 note=49 velocity=80 time=5
note_on channel=0 note=52 velocity=85 time=0
note_on channel=0 note=57 velocity=94 time=2
note_on channel=0 note=69 velocity=99 time=1
note_on channel=0 note=81 velocity=98 time=2
note_on channel=0 note=45 velocity=75 time=1
note_on channel=0 note=76 velocity=84 time=0
note_on channel=0 note=73 velocity=89 time=1
control_change channel=0 control=64 value=62 time=111
control_change channel=0 control=64 value=70 time=15
control_change channel=0 control=64 value=75 time=22
control_change channel=0 control=64 value=81 time=16
control_change channel=0 control=64 value=87 time=15
control_change channel=0 control=64 value=91 time=16
control_change channel=0 control=64 value=95 time=15
control_change channel=0 control=64 value=100 time=15
control_change channel=0 control=64 value=105 time=16
control_change channel=0 control=64 value=110 time=15
note_on channel=0 note=57 velocity=0 time=14
control_change channel=0 control=64 value=126 time=1
control_change channel=0 control=64 value=127 time=16
note_on channel=0 note=69 velocity=0 time=51
note_on channel=0 note=81 velocity=0 time=26
note_on channel=0 note=56 velocity=93 time=158
note_on channel=0 note=68 velocity=102 time=1
note_on channel=0 note=73 velocity=0 time=18
note_on channel=0 note=52 velocity=0 time=3
note_on channel=0 note=68 velocity=0 time=238
note_on channel=0 note=45 velocity=0 time=6
note_on channel=0 note=56 velocity=0 time=10
note_on channel=0 note=76 velocity=0 time=20
control_change channel=0 control=64 value=93 time=190
note_on channel=0 note=74 velocity=85 time=6
note_on channel=0 note=81 velocity=103 time=2
note_on channel=0 note=67 velocity=97 time=1
control_change channel=0 control=64 value=61 time=6
note_on channel=0 note=50 velocity=79 time=0
note_on channel=0 note=55 velocity=89 time=0
note_on channel=0 note=57 velocity=81 time=0
note_on channel=0 note=49 velocity=0 time=2
note_on channel=0 note=45 velocity=70 time=5
control_change channel=0 control=64 value=0 time=10
control_change channel=0 control=64 value=61 time=91
control_change channel=0 control=64 value=68 time=14
control_change channel=0 control=64 value=74 time=16
control_change channel=0 control=64 value=79 time=15
control_change channel=0 control=64 value=84 time=15
control_change channel=0 control=64 value=89 time=16
control_change channel=0 control=64 value=94 time=14
control_change channel=0 control=64 value=99 time=16
control_change channel=0 control=64 value=105 time=15
control_change channel=0 control=64 value=110 time=15
control_change channel=0 control=64 value=119 time=16
control_change channel=0 control=64 value=127 time=15
note_on channel=0 note=81 velocity=0 time=65
note_on channel=0 note=57 velocity=0 time=4
note_on channel=0 note=55 velocity=0 time=9
note_on channel=0 note=67 velocity=0 time=17
note_on channel=0 note=65 velocity=96 time=129
note_on channel=0 note=53 velocity=83 time=2
note_on channel=0 note=74 velocity=0 time=13
note_on channel=0 note=50 velocity=0 time=3
note_on channel=0 note=65 velocity=0 time=39
note_on channel=0 note=45 velocity=0 time=59
note_on channel=0 note=53 velocity=0 time=124
control_change channel=0 control=64 value=81 time=243
note_on channel=0 note=57 velocity=94 time=0
note_on channel=0 note=69 velocity=90 time=2
note_on channel=0 note=64 velocity=78 time=2
note_on channel=0 note=61 velocity=76 time=1
note_on channel=0 note=52 velocity=77 time=3
note_on channel=0 note=45 velocity=69 time=3
control_change channel=0 control=64 value=0 time=4
control_change channel=0 control=64 value=31 time=45
control_change channel=0 control=64 value=60 time=16
control_change channel=0 control=64 value=67 time=15
control_change channel=0 control=64 value=73 time=15
control_change channel=0 control=64 value=79 time=16
control_change channel=0 control=64 value=86 time=15
control_change channel=0 control=64 value=91 time=16
control_change channel=0 control=64 value=97 time=14
control_change channel=0 control=64 value=102 time=15
control_change channel=0 control=64 value=109 time=16
control_change channel=0 control=64 value=119 time=15
control_change channel=0 control=64 value=127 time=16
note_on channel=0 note=52 velocity=0 time=106
note_on channel=0 note=45 velocity=0 time=32
control_change channel=0 control=64 value=90 time=112
control_change channel=0 control=64 value=71 time=15
note_on channel=0 note=56 velocity=102 time=6
note_on channel=0 note=44 velocity=87 time=3
control_change channel=0 control=64 value=68 time=7
control_change channel=0 control=64 value=76 time=14
control_change channel=0 control=64 value=80 time=15
control_change channel=0 control=64 value=86 time=16
control_change channel=0 control=64 value=95 time=15
control_change channel=0 control=64 value=111 time=14
control_change channel=0 control=64 value=127 time=16
note_on channel=0 note=61 velocity=0 time=166
note_on channel=0 note=57 velocity=0 time=86
note_on channel=0 note=56 velocity=0 time=3
note_on channel=0 note=69 velocity=0 time=0
note_on channel=0 note=64 velocity=0 time=83
note_on channel=0 note=57 velocity=89 time=56
control_change channel=0 control=64 value=93 time=2
note_on channel=0 note=62 velocity=77 time=0
note_on channel=0 note=69 velocity=92 time=0
note_on channel=0 note=50 velocity=83 time=4
note_on channel=0 note=55 velocity=95 time=1
note_on channel=0 note=43 velocity=76 time=3
note_on channel=0 note=44 velocity=0 time=1
control_change channel=0 control=64 value=60 time=6
control_change channel=0 control=64 value=0 time=15
control_change channel=0 control=64 value=53 time=76
control_change channel=0 control=64 value=67 time=16
control_change channel=0 control=64 value=75 time=15
control_change channel=0 control=64 value=80 time=16
control_change channel=0 control=64 value=85 time=14
control_change channel=0 control=64 value=89 time=15
control_change channel=0 control=64 value=95 time=16
control_change channel=0 control=64 value=105 time=22
control_change channel=0 control=64 value=119 time=16
control_change channel=0 control=64 value=127 time=15
note_on channel=0 note=43 velocity=0 time=58
note_on channel=0 note=55 velocity=0 time=6
control_change channel=0 control=64 value=123 time=179
control_change channel=0 control=64 value=76 time=16
control_change channel=0 control=64 value=0 time=15
note_on channel=0 note=53 velocity=86 time=11
note_on channel=0 note=41 velocity=77 time=5
note_on channel=0 note=50 velocity=0 time=34
control_change channel=0 control=64 value=45 time=11
control_change channel=0 control=64 value=64 time=15
note_on channel=0 note=53 velocity=0 time=8
control_change channel=0 control=64 value=73 time=7
control_change channel=0 control=64 value=84 time=16
control_change channel=0 control=64 value=95 time=15
note_on channel=0 note=41 velocity=0 time=4
control_change channel=0 control=64 value=103 time=10
control_change channel=0 control=64 value=109 time=16
note_on channel=0 note=62 velocity=0 time=9
control_change channel=0 control=64 value=122 time=6
control_change channel=0 control=64 value=127 time=15
note_on channel=0 note=33 velocity=75 time=126
note_on channel=0 note=69 velocity=0 time=0
control_change channel=0 control=64 value=82 time=11
control_change channel=0 control=64 value=0 time=15
note_on channel=0 note=57 velocity=0 time=0
note_on channel=0 note=40 velocity=72 time=17
control_change channel=0 control=64 value=35 time=45
note_on channel=0 note=33 velocity=0 time=6
control_change channel=0 control=64 value=64 time=8
note_on channel=0 note=45 velocity=73 time=12
control_change channel=0 control=64 value=70 time=3
control_change channel=0 control=64 value=75 time=16
note_on channel=0 note=40 velocity=0 time=0
control_change channel=0 control=64 value=78 time=21
control_change channel=0 control=64 value=80 time=16
control_change channel=0 control=64 value=81 time=15
note_on channel=0 note=45 velocity=0 time=6
control_change channel=0 control=64 value=82 time=10
control_change channel=0 control=64 value=84 time=15
control_change channel=0 control=64 value=88 time=15
note_on channel=0 note=52 velocity=76 time=12
note_on channel=0 note=57 velocity=85 time=2
note_on channel=0 note=69 velocity=88 time=0
control_change channel=0 control=64 value=90 time=2
note_on channel=0 note=64 velocity=75 time=3
note_on channel=0 note=61 velocity=74 time=2
control_change channel=0 control=64 value=92 time=9
note_on channel=0 note=52 velocity=0 time=10
control_change channel=0 control=64 value=93 time=5
control_change channel=0 control=64 value=95 time=16
control_change channel=0 control=64 value=95 time=15
control_change channel=0 control=64 value=96 time=16
control_change channel=0 control=64 value=97 time=15
control_change channel=0 control=64 value=98 time=15
control_change channel=0 control=64 value=99 time=15
control_change channel=0 control=64 value=100 time=15
control_change channel=0 control=64 value=100 time=16
control_change channel=0 control=64 value=101 time=15
control_change channel=0 control=64 value=103 time=15
control_change channel=0 control=64 value=103 time=15
control_change channel=0 control=64 value=104 time=15
control_change channel=0 control=64 value=104 time=32
control_change channel=0 control=64 value=91 time=433
control_change channel=0 control=64 value=69 time=15
control_change channel=0 control=64 value=0 time=14
note_on channel=0 note=33 velocity=75 time=11
note_on channel=0 note=40 velocity=72 time=47
control_change channel=0 control=64 value=51 time=3
control_change channel=0 control=64 value=65 time=15
note_on channel=0 note=33 velocity=0 time=12
control_change channel=0 control=64 value=71 time=4
control_change channel=0 control=64 value=76 time=15
note_on channel=0 note=69 velocity=0 time=7
note_on channel=0 note=45 velocity=72 time=4
control_change channel=0 control=64 value=81 time=3
note_on channel=0 note=40 velocity=0 time=7
control_change channel=0 control=64 value=84 time=9
note_on channel=0 note=57 velocity=0 time=3
control_change channel=0 control=64 value=86 time=12
note_on channel=0 note=61 velocity=0 time=7
note_on channel=0 note=64 velocity=0 time=2
control_change channel=0 control=64 value=88 time=7
note_on channel=0 note=45 velocity=0 time=13
control_change channel=0 control=64 value=91 time=2
control_change channel=0 control=64 value=95 time=15
control_change channel=0 control=64 value=98 time=16
note_on channel=0 note=52 velocity=72 time=12
control_change channel=0 control=64 value=99 time=3
note_on channel=0 note=69 velocity=81 time=2
note_on channel=0 note=57 velocity=82 time=1
control_change channel=0 control=64 value=99 time=12
note_on channel=0 note=61 velocity=67 time=0
note_on channel=0 note=64 velocity=61 time=0
control_change channel=0 control=64 value=100 time=15
note_on channel=0 note=52 velocity=0 time=1
control_change channel=0 control=64 value=102 time=14
control_change channel=0 control=64 value=103 time=16
control_change channel=0 control=64 value=103 time=61
control_change channel=0 control=64 value=104 time=16
control_change channel=0 control=64 value=105 time=15
control_change channel=0 control=64 value=105 time=15
control_change channel=0 control=64 value=106 time=30
control_change channel=0 control=64 value=107 time=15
control_change channel=0 control=64 value=108 time=16
control_change channel=0 control=64 value=109 time=15
control_change channel=0 control=64 value=110 time=30
control_change channel=0 control=64 value=112 time=15
control_change channel=0 control=64 value=115 time=16
control_change channel=0 control=64 value=121 time=15
control_change channel=0 control=64 value=127 time=14
control_change channel=0 control=64 value=82 time=387
control_change channel=0 control=64 value=0 time=14
note_on channel=0 note=33 velocity=77 time=18
control_change channel=0 control=64 value=41 time=58
note_on channel=0 note=40 velocity=74 time=10
control_change channel=0 control=64 value=64 time=6
control_change channel=0 control=64 value=70 time=15
note_on channel=0 note=33 velocity=0 time=9
control_change channel=0 control=64 value=75 time=7
control_change channel=0 control=64 value=78 time=14
note_on channel=0 note=69 velocity=0 time=2
control_change channel=0 control=64 value=80 time=13
note_on channel=0 note=45 velocity=72 time=2
note_on channel=0 note=40 velocity=0 time=6
control_change channel=0 control=64 value=83 time=8
note_on channel=0 note=57 velocity=0 time=4
control_change channel=0 control=64 value=87 time=11
control_change channel=0 control=64 value=91 time=16
control_change channel=0 control=64 value=95 time=16
note_on channel=0 note=45 velocity=0 time=4
note_on channel=0 note=61 velocity=0 time=4
note_on channel=0 note=64 velocity=0 time=0
control_change channel=0 control=64 value=97 time=6
control_change channel=0 control=64 value=98 time=16
control_change channel=0 control=64 value=100 time=15
control_change channel=0 control=64 value=102 time=15
note_on channel=0 note=52 velocity=78 time=13
note_on channel=0 note=57 velocity=78 time=1
control_change channel=0 control=64 value=106 time=2
note_on channel=0 note=69 velocity=82 time=1
note_on channel=0 note=61 velocity=64 time=6
note_on channel=0 note=64 velocity=67 time=2
control_change channel=0 control=64 value=110 time=5
note_on channel=0 note=52 velocity=0 time=10
control_change channel=0 control=64 value=113 time=5
control_change channel=0 control=64 value=115 time=16
control_change channel=0 control=64 value=115 time=14
control_change channel=0 control=64 value=116 time=16
control_change channel=0 control=64 value=117 time=15
control_change channel=0 control=64 value=118 time=15
control_change channel=0 control=64 value=119 time=17
control_change channel=0 control=64 value=119 time=30
control_change channel=0 control=64 value=120 time=15
control_change channel=0 control=64 value=122 time=15
control_change channel=0 control=64 value=124 time=15
control_change channel=0 control=64 value=126 time=15
control_change channel=0 control=64 value=127 time=15
control_change channel=0 control=64 value=110 time=851
control_change channel=0 control=64 value=97 time=15
note_on channel=0 note=31 velocity=71 time=3
control_change channel=0 control=64 value=84 time=12
control_change channel=0 control=64 value=71 time=15
control_change channel=0 control=64 value=46 time=15
control_change channel=0 control=64 value=0 time=15
control_change channel=0 control=64 value=19 time=167
control_change channel=0 control=64 value=56 time=15
control_change channel=0 control=64 value=63 time=15
control_change channel=0 control=67 value=8 time=0
control_change channel=0 control=64 value=65 time=16
control_change channel=0 control=67 value=9 time=0
control_change channel=0 control=64 value=68 time=15
control_change channel=0 control=67 value=11 time=0
control_change channel=0 control=64 value=70 time=15
control_change channel=0 control=67 value=13 time=0
control_change channel=0 control=64 value=73 time=15
control_change channel=0 control=67 value=16 time=0
control_change channel=0 control=64 value=75 time=15
control_change channel=0 control=67 value=18 time=0
control_change channel=0 control=64 value=78 time=16
control_change channel=0 control=67 value=21 time=0
control_change channel=0 control=64 value=81 time=15
control_change channel=0 control=67 value=25 time=0
control_change channel=0 control=64 value=85 time=15
control_change channel=0 control=67 value=29 time=0
control_change channel=0 control=64 value=88 time=16
control_change channel=0 control=67 value=32 time=0
control_change channel=0 control=64 value=91 time=15
control_change channel=0 control=67 value=35 time=0
control_change channel=0 control=64 value=93 time=16
control_change channel=0 control=67 value=38 time=0
control_change channel=0 control=64 value=96 time=14
control_change channel=0 control=67 value=42 time=0
note_on channel=0 note=69 velocity=0 time=10
control_change channel=0 control=64 value=99 time=6
control_change channel=0 control=67 value=45 time=0
control_change channel=0 control=64 value=102 time=16
control_change channel=0 control=67 value=49 time=0
control_change channel=0 control=64 value=105 time=14
control_change channel=0 control=67 value=53 time=0
control_change channel=0 control=64 value=108 time=15
control_change channel=0 control=67 value=58 time=0
control_change channel=0 control=64 value=112 time=16
control_change channel=0 control=67 value=65 time=0
control_change channel=0 control=64 value=118 time=15
control_change channel=0 control=67 value=73 time=0
control_change channel=0 control=64 value=127 time=16
control_change channel=0 control=67 value=80 time=0
control_change channel=0 control=67 value=85 time=15
control_change channel=0 control=67 value=92 time=15
control_change channel=0 control=67 value=98 time=15
control_change channel=0 control=67 value=104 time=15
control_change channel=0 control=67 value=109 time=15
control_change channel=0 control=67 value=115 time=16
control_change channel=0 control=67 value=120 time=15
control_change channel=0 control=67 value=126 time=15
note_on channel=0 note=57 velocity=0 time=5
control_change channel=0 control=67 value=127 time=17
note_on channel=0 note=31 velocity=0 time=15
control_change channel=0 control=64 value=100 time=138
note_on channel=0 note=30 velocity=60 time=11
control_change channel=0 control=64 value=70 time=4
note_on channel=0 note=61 velocity=0 time=7
control_change channel=0 control=64 value=0 time=8
note_on channel=0 note=64 velocity=0 time=32
note_on channel=0 note=37 velocity=56 time=10
note_on channel=0 note=30 velocity=0 time=48
control_change channel=0 control=64 value=39 time=1
control_change channel=0 control=64 value=63 time=15
note_on channel=0 note=42 velocity=60 time=10
note_on channel=0 note=37 velocity=0 time=4
control_change channel=0 control=64 value=66 time=2
control_change channel=0 control=64 value=67 time=14
control_change channel=0 control=64 value=69 time=16
note_on channel=0 note=42 velocity=0 time=10
control_change channel=0 control=64 value=72 time=5
control_change channel=0 control=64 value=75 time=15
control_change channel=0 control=64 value=80 time=15
control_change channel=0 control=64 value=83 time=15
control_change channel=0 control=64 value=85 time=15
control_change channel=0 control=64 value=87 time=16
control_change channel=0 control=64 value=89 time=14
control_change channel=0 control=64 value=92 time=16
note_on channel=0 note=70 velocity=67 time=6
control_change channel=0 control=64 value=95 time=9
note_on channel=0 note=58 velocity=47 time=3
note_on channel=0 note=52 velocity=50 time=5
note_on channel=0 note=64 velocity=48 time=0
note_on channel=0 note=61 velocity=40 time=6
control_change channel=0 control=64 value=98 time=1
control_change channel=0 control=64 value=100 time=16
control_change channel=0 control=64 value=103 time=15
note_on channel=0 note=52 velocity=0 time=0
control_change channel=0 control=64 value=106 time=15
control_change channel=0 control=64 value=108 time=16
control_change channel=0 control=64 value=109 time=15
control_change channel=0 control=64 value=110 time=16
control_change channel=0 control=64 value=110 time=15
control_change channel=0 control=64 value=114 time=14
control_change channel=0 control=64 value=119 time=16
control_change channel=0 control=64 value=126 time=15
control_change channel=0 control=64 value=127 time=16
control_change channel=0 control=64 value=120 time=342
control_change channel=0 control=64 value=116 time=15
control_change channel=0 control=67 value=127 time=46
control_change channel=0 control=67 value=126 time=14
control_change channel=0 control=67 value=125 time=15
control_change channel=0 control=67 value=123 time=16
control_change channel=0 control=67 value=120 time=15
note_on channel=0 note=70 velocity=0 time=13
control_change channel=0 control=67 value=117 time=2
control_change channel=0 control=64 value=117 time=15
control_change channel=0 control=67 value=114 time=0
control_change channel=0 control=67 value=111 time=15
control_change channel=0 control=64 value=118 time=16
control_change channel=0 control=67 value=108 time=0
control_change channel=0 control=64 value=122 time=15
control_change channel=0 control=67 value=105 time=0
control_change channel=0 control=64 value=127 time=15
control_change channel=0 control=67 value=102 time=0
control_change channel=0 control=67 value=99 time=15
note_on channel=0 note=30 velocity=54 time=13
control_change channel=0 control=67 value=97 time=2
control_change channel=0 control=67 value=95 time=16
note_on channel=0 note=64 velocity=0 time=13
control_change channel=0 control=67 value=95 time=2
note_on channel=0 note=37 velocity=55 time=2
note_on channel=0 note=58 velocity=0 time=6
control_change channel=0 control=67 value=94 time=6
note_on channel=0 note=30 velocity=0 time=6
control_change channel=0 control=67 value=93 time=10
note_on channel=0 note=61 velocity=0 time=5
control_change channel=0 control=67 value=92 time=10
note_on channel=0 note=42 velocity=60 time=8
note_on channel=0 note=37 velocity=0 time=1
control_change channel=0 control=67 value=91 time=6
control_change channel=0 control=67 value=89 time=16
note_on channel=0 note=42 velocity=0 time=9
control_change channel=0 control=67 value=87 time=6
control_change channel=0 control=67 value=84 time=16
control_change channel=0 control=67 value=80 time=14
control_change channel=0 control=67 value=77 time=14
control_change channel=0 control=67 value=73 time=16
control_change channel=0 control=67 value=71 time=15
control_change channel=0 control=67 value=69 time=14
control_change channel=0 control=67 value=67 time=16
note_on channel=0 note=70 velocity=70 time=3
note_on channel=0 note=52 velocity=50 time=9
note_on channel=0 note=58 velocity=49 time=1
control_change channel=0 control=67 value=64 time=2
note_on channel=0 note=64 velocity=50 time=5
note_on channel=0 note=61 velocity=44 time=4
control_change channel=0 control=67 value=62 time=6
control_change channel=0 control=67 value=61 time=16
note_on channel=0 note=52 velocity=0 time=19
control_change channel=0 control=67 value=59 time=3
control_change channel=0 control=67 value=58 time=16
control_change channel=0 control=67 value=58 time=15
control_change channel=0 control=67 value=57 time=16
control_change channel=0 control=67 value=57 time=12
control_change channel=0 control=67 value=56 time=11
control_change channel=0 control=67 value=55 time=15
control_change channel=0 control=67 value=55 time=15
control_change channel=0 control=67 value=54 time=16
control_change channel=0 control=67 value=54 time=14
control_change channel=0 control=67 value=54 time=229
control_change channel=0 control=67 value=55 time=30
control_change channel=0 control=67 value=56 time=15
control_change channel=0 control=67 value=58 time=15
control_change channel=0 control=67 value=60 time=16
control_change channel=0 control=67 value=61 time=14
control_change channel=0 control=67 value=62 time=15
control_change channel=0 control=67 value=64 time=16
control_change channel=0 control=67 value=66 time=15
control_change channel=0 control=67 value=68 time=15
control_change channel=0 control=67 value=72 time=15
control_change channel=0 control=67 value=75 time=15
control_change channel=0 control=67 value=79 time=16
control_change channel=0 control=67 value=85 time=15
control_change channel=0 control=67 value=91 time=14
note_on channel=0 note=58 velocity=0 time=3
control_change channel=0 control=67 value=96 time=13
control_change channel=0 control=67 value=99 time=15
control_change channel=0 control=67 value=100 time=16
control_change channel=0 control=67 value=101 time=15
note_on channel=0 note=70 velocity=0 time=8
note_on channel=0 note=61 velocity=0 time=9
note_on channel=0 note=64 velocity=0 time=12
control_change channel=0 control=67 value=100 time=17
control_change channel=0 control=67 value=100 time=16
control_change channel=0 control=67 value=99 time=15
control_change channel=0 control=67 value=98 time=15
control_change channel=0 control=67 value=98 time=38
control_change channel=0 control=67 value=97 time=16
control_change channel=0 control=67 value=96 time=15
control_change channel=0 control=67 value=96 time=14
control_change channel=0 control=67 value=95 time=16
note_on channel=0 note=30 velocity=48 time=0
control_change channel=0 control=67 value=94 time=15
control_change channel=0 control=67 value=94 time=16
control_change channel=0 control=67 value=93 time=15
control_change channel=0 control=67 value=92 time=14
note_on channel=0 note=37 velocity=54 time=0
control_change channel=0 control=67 value=91 time=16
note_on channel=0 note=30 velocity=0 time=8
control_change channel=0 control=67 value=90 time=7
control_change channel=0 control=67 value=89 time=14
note_on channel=0 note=37 velocity=0 time=13
control_change channel=0 control=67 value=89 time=3
note_on channel=0 note=42 velocity=48 time=12
control_change channel=0 control=67 value=88 time=3
control_change channel=0 control=67 value=86 time=16
control_change channel=0 control=67 value=83 time=15
note_on channel=0 note=42 velocity=0 time=0
control_change channel=0 control=67 value=81 time=14
control_change channel=0 control=67 value=78 time=16
control_change channel=0 control=67 value=77 time=15
control_change channel=0 control=67 value=75 time=15
control_change channel=0 control=67 value=73 time=16
control_change channel=0 control=67 value=71 time=15
control_change channel=0 control=67 value=69 time=16
control_change channel=0 control=67 value=67 time=14
control_change channel=0 control=67 value=66 time=15
control_change channel=0 control=67 value=65 time=16
control_change channel=0 control=67 value=65 time=15
control_change channel=0 control=67 value=64 time=16
control_change channel=0 control=67 value=63 time=15
note_on channel=0 note=52 velocity=43 time=1
note_on channel=0 note=70 velocity=57 time=5
control_change channel=0 control=67 value=62 time=8
note_on channel=0 note=58 velocity=38 time=6
note_on channel=0 note=64 velocity=42 time=5
note_on channel=0 note=61 velocity=35 time=3
control_change channel=0 control=67 value=61 time=2
control_change channel=0 control=67 value=61 time=15
control_change channel=0 control=67 value=60 time=13
control_change channel=0 control=67 value=58 time=16
control_change channel=0 control=67 value=57 time=14
control_change channel=0 control=67 value=55 time=15
control_change channel=0 control=67 value=54 time=16
control_change channel=0 control=67 value=53 time=15
control_change channel=0 control=67 value=52 time=14
control_change channel=0 control=67 value=50 time=16
control_change channel=0 control=67 value=49 time=15
control_change channel=0 control=67 value=48 time=16
control_change channel=0 control=67 value=46 time=15
control_change channel=0 control=67 value=45 time=14
control_change channel=0 control=67 value=44 time=16
control_change channel=0 control=67 value=43 time=15
control_change channel=0 control=67 value=42 time=15
control_change channel=0 control=67 value=41 time=17
control_change channel=0 control=67 value=40 time=15
control_change channel=0 control=67 value=39 time=23
control_change channel=0 control=67 value=38 time=15
control_change channel=0 control=67 value=37 time=16
control_change channel=0 control=67 value=36 time=15
control_change channel=0 control=67 value=36 time=14
control_change channel=0 control=67 value=35 time=16
control_change channel=0 control=67 value=33 time=15
control_change channel=0 control=67 value=32 time=16
control_change channel=0 control=67 value=31 time=15
control_change channel=0 control=67 value=30 time=14
control_change channel=0 control=67 value=29 time=16
control_change channel=0 control=67 value=28 time=15
control_change channel=0 control=67 value=26 time=15
control_change channel=0 control=67 value=25 time=16
control_change channel=0 control=67 value=24 time=14
control_change channel=0 control=67 value=22 time=16
control_change channel=0 control=67 value=21 time=15
control_change channel=0 control=67 value=19 time=14
control_change channel=0 control=67 value=17 time=16
control_change channel=0 control=67 value=16 time=15
control_change channel=0 control=67 value=14 time=15
control_change channel=0 control=67 value=12 time=16
control_change channel=0 control=67 value=11 time=14
control_change channel=0 control=67 value=10 time=16
control_change channel=0 control=67 value=8 time=15
control_change channel=0 control=67 value=0 time=15
note_on channel=0 note=52 velocity=0 time=540
note_on channel=0 note=58 velocity=0 time=169
note_on channel=0 note=64 velocity=0 time=83
note_on channel=0 note=61 velocity=0 time=28
note_on channel=0 note=70 velocity=0 time=146
control_change channel=0 control=64 value=89 time=106
control_change channel=0 control=64 value=0 time=16
note_on channel=0 note=54 velocity=97 time=330
note_on channel=0 note=70 velocity=101 time=4
note_on channel=0 note=78 velocity=91 time=0
note_on channel=0 note=82 velocity=98 time=1
note_on channel=0 note=46 velocity=83 time=2
note_on channel=0 note=49 velocity=85 time=0
note_on channel=0 note=42 velocity=76 time=3
control_change channel=0 control=64 value=58 time=17
note_on channel=0 note=54 velocity=0 time=10
note_on channel=0 note=70 velocity=0 time=1
control_change channel=0 control=64 value=91 time=5
note_on channel=0 note=49 velocity=0 time=1
note_on channel=0 note=78 velocity=0 time=3
note_on channel=0 note=82 velocity=0 time=5
note_on channel=0 note=46 velocity=0 time=3
control_change channel=0 control=64 value=127 time=3
note_on channel=0 note=42 velocity=0 time=9
control_change channel=0 control=64 value=111 time=188
note_on channel=0 note=35 velocity=78 time=6
control_change channel=0 control=64 value=68 time=9
control_change channel=0 control=64 value=0 time=15
note_on channel=0 note=42 velocity=78 time=6
note_on channel=0 note=47 velocity=90 time=39
control_change channel=0 control=64 value=62 time=16
note_on channel=0 note=71 velocity=104 time=5
note_on channel=0 note=83 velocity=99 time=1
note_on channel=0 note=75 velocity=92 time=1
note_on channel=0 note=78 velocity=90 time=0
note_on channel=0 note=35 velocity=0 time=3
control_change channel=0 control=64 value=77 time=5
note_on channel=0 note=42 velocity=0 time=15
control_change channel=0 control=64 value=95 time=1
note_on channel=0 note=47 velocity=0 time=7
control_change channel=0 control=64 value=127 time=9
note_on channel=0 note=69 velocity=90 time=216
note_on channel=0 note=57 velocity=86 time=3
note_on channel=0 note=69 velocity=0 time=31
note_on channel=0 note=57 velocity=0 time=3
note_on channel=0 note=69 velocity=97 time=77
note_on channel=0 note=57 velocity=92 time=3
note_on channel=0 note=69 velocity=0 time=32
note_on channel=0 note=57 velocity=0 time=1
note_on channel=0 note=69 velocity=98 time=65
note_on channel=0 note=57 velocity=86 time=6
note_on channel=0 note=57 velocity=0 time=30
note_on channel=0 note=69 velocity=0 time=3
note_on channel=0 note=69 velocity=105 time=73
note_on channel=0 note=57 velocity=100 time=3
control_change channel=0 control=64 value=90 time=9
control_change channel=0 control=64 value=76 time=16
control_change channel=0 control=64 value=78 time=15
control_change channel=0 control=64 value=85 time=15
control_change channel=0 control=64 value=93 time=15
control_change channel=0 control=64 value=108 time=15
control_change channel=0 control=64 value=127 time=16
note_on channel=0 note=83 velocity=0 time=14
note_on channel=0 note=71 velocity=0 time=39
note_on channel=0 note=78 velocity=0 time=0
note_on channel=0 note=75 velocity=0 time=27
note_on channel=0 note=71 velocity=102 time=57
note_on channel=0 note=81 velocity=100 time=0
note_on channel=0 note=83 velocity=98 time=1
note_on channel=0 note=69 velocity=0 time=24
note_on channel=0 note=57 velocity=0 time=9
note_on channel=0 note=71 velocity=0 time=139
note_on channel=0 note=83 velocity=0 time=7
note_on channel=0 note=81 velocity=0 time=14
note_on channel=0 note=79 velocity=83 time=62
note_on channel=0 note=83 velocity=93 time=2
note_on channel=0 note=71 velocity=85 time=3
control_change channel=0 control=64 value=109 time=50
control_change channel=0 control=64 value=71 time=14
control_change channel=0 control=64 value=0 time=16
note_on channel=0 note=67 velocity=89 time=23
note_on channel=0 note=55 velocity=83 time=6
control_change channel=0 control=64 value=24 time=1
control_change channel=0 control=64 value=63 time=15
note_on channel=0 note=55 velocity=0 time=12
note_on channel=0 note=67 velocity=0 time=0
control_change channel=0 control=64 value=71 time=3
control_change channel=0 control=64 value=81 time=16
control_change channel=0 control=64 value=92 time=15
control_change channel=0 control=64 value=100 time=15
control_change channel=0 control=64 value=105 time=16
note_on channel=0 note=67 velocity=89 time=10
control_change channel=0 control=64 value=108 time=4
note_on channel=0 note=55 velocity=87 time=1
control_change channel=0 control=64 value=110 time=15
note_on channel=0 note=55 velocity=0 time=14
note_on channel=0 note=67 velocity=0 time=0
control_change channel=0 control=64 value=114 time=1
control_change channel=0 control=64 value=117 time=15
control_change channel=0 control=64 value=119 time=16
control_change channel=0 control=64 value=122 time=15
control_change channel=0 control=64 value=127 time=15
note_on channel=0 note=67 velocity=91 time=4
note_on channel=0 note=55 velocity=86 time=3
note_on channel=0 note=67 velocity=0 time=34
note_on channel=0 note=55 velocity=0 time=3
note_on channel=0 note=71 velocity=0 time=28
control_change channel=0 control=64 value=104 time=9
control_change channel=0 control=64 value=75 time=19
note_on channel=0 note=79 velocity=0 time=7
control_change channel=0 control=64 value=0 time=8
control_change channel=0 control=64 value=58 time=15
note_on channel=0 note=64 velocity=98 time=1
note_on channel=0 note=52 velocity=97 time=1
note_on channel=0 note=76 velocity=97 time=2
control_change channel=0 control=64 value=67 time=12
note_on channel=0 note=83 velocity=0 time=11
control_change channel=0 control=64 value=73 time=4
control_change channel=0 control=64 value=81 time=14
note_on channel=0 note=52 velocity=0 time=3
note_on channel=0 note=64 velocity=0 time=3
control_change channel=0 control=64 value=93 time=10
control_change channel=0 control=64 value=113 time=15
control_change channel=0 control=64 value=127 time=15
note_on channel=0 note=66 velocity=88 time=139
note_on channel=0 note=76 velocity=0 time=6
note_on channel=0 note=54 velocity=77 time=1
note_on channel=0 note=66 velocity=0 time=14
note_on channel=0 note=71 velocity=95 time=3
note_on channel=0 note=78 velocity=93 time=0
note_on channel=0 note=83 velocity=96 time=4
note_on channel=0 note=54 velocity=0 time=11
note_on channel=0 note=47 velocity=78 time=138
control_change channel=0 control=64 value=120 time=27
note_on channel=0 note=71 velocity=0 time=0
note_on channel=0 note=51 velocity=75 time=3
note_on channel=0 note=83 velocity=0 time=1
control_change channel=0 control=64 value=74 time=12
note_on channel=0 note=78 velocity=0 time=12
control_change channel=0 control=64 value=0 time=2
note_on channel=0 note=54 velocity=78 time=1
note_on channel=0 note=47 velocity=0 time=31
note_on channel=0 note=59 velocity=84 time=3
control_change channel=0 control=64 value=57 time=11
note_on channel=0 note=78 velocity=89 time=8
note_on channel=0 note=71 velocity=95 time=2
note_on channel=0 note=75 velocity=89 time=1
note_on channel=0 note=83 velocity=101 time=0
note_on channel=0 note=59 velocity=0 time=1
note_on channel=0 note=51 velocity=0 time=1
control_change channel=0 control=64 value=69 time=2
note_on channel=0 note=54 velocity=0 time=3
control_change channel=0 control=64 value=79 time=12
control_change channel=0 control=64 value=91 time=15
control_change channel=0 control=64 value=103 time=16
control_change channel=0 control=64 value=109 time=15
control_change channel=0 control=64 value=114 time=15
control_change channel=0 control=64 value=121 time=15
note_on channel=0 note=69 velocity=92 time=12
control_change channel=0 control=64 value=127 time=3
note_on channel=0 note=57 velocity=84 time=3
note_on channel=0 note=69 velocity=0 time=16
note_on channel=0 note=57 velocity=0 time=6
note_on channel=0 note=69 velocity=94 time=81
note_on channel=0 note=57 velocity=85 time=1
note_on channel=0 note=69 velocity=0 time=33
note_on channel=0 note=57 velocity=0 time=1
note_on channel=0 note=69 velocity=95 time=70
note_on channel=0 note=57 velocity=88 time=5
control_change channel=0 control=64 value=107 time=25
note_on channel=0 note=57 velocity=0 time=4
note_on channel=0 note=69 velocity=0 time=3
control_change channel=0 control=64 value=74 time=8
control_change channel=0 control=64 value=64 time=16
control_change channel=0 control=64 value=70 time=15
control_change channel=0 control=64 value=76 time=23
note_on channel=0 note=69 velocity=96 time=12
control_change channel=0 control=64 value=83 time=3
note_on channel=0 note=57 velocity=92 time=0
control_change channel=0 control=64 value=93 time=15
control_change channel=0 control=64 value=110 time=16
control_change channel=0 control=64 value=127 time=15
note_on channel=0 note=83 velocity=0 time=88
note_on channel=0 note=78 velocity=0 time=7
note_on channel=0 note=75 velocity=0 time=23
note_on channel=0 note=71 velocity=0 time=2
note_on channel=0 note=81 velocity=101 time=79
note_on channel=0 note=83 velocity=100 time=0
note_on channel=0 note=71 velocity=96 time=2
note_on channel=0 note=57 velocity=0 time=43
note_on channel=0 note=69 velocity=0 time=0
note_on channel=0 note=71 velocity=0 time=152
note_on channel=0 note=83 velocity=0 time=7
note_on channel=0 note=81 velocity=0 time=19
note_on channel=0 note=71 velocity=96 time=55
note_on channel=0 note=83 velocity=100 time=1
note_on channel=0 note=79 velocity=85 time=2
control_change channel=0 control=64 value=74 time=22
control_change channel=0 control=64 value=0 time=15
control_change channel=0 control=64 value=53 time=45
control_change channel=0 control=64 value=66 time=16
note_on channel=0 note=67 velocity=88 time=6
note_on channel=0 note=55 velocity=79 time=3
control_change channel=0 control=64 value=76 time=6
control_change channel=0 control=64 value=88 time=15
note_on channel=0 note=67 velocity=0 time=8
control_change channel=0 control=64 value=102 time=8
note_on channel=0 note=55 velocity=0 time=0
control_change channel=0 control=64 value=120 time=15
control_change channel=0 control=64 value=127 time=16
note_on channel=0 note=67 velocity=86 time=51
note_on channel=0 note=55 velocity=85 time=3
note_on channel=0 note=55 velocity=0 time=34
note_on channel=0 note=67 velocity=0 time=6
note_on channel=0 note=67 velocity=86 time=54
note_on channel=0 note=55 velocity=83 time=9
note_on channel=0 note=55 velocity=0 time=28
note_on channel=0 note=67 velocity=0 time=1
note_on channel=0 note=71 velocity=0 time=40
note_on channel=0 note=79 velocity=0 time=2
note_on channel=0 note=52 velocity=104 time=32
note_on channel=0 note=64 velocity=100 time=1
note_on channel=0 note=76 velocity=97 time=3
note_on channel=0 note=52 velocity=0 time=34
note_on channel=0 note=83 velocity=0 time=6
note_on channel=0 note=64 velocity=0 time=3
note_on channel=0 note=66 velocity=97 time=184
note_on channel=0 note=54 velocity=93 time=3
note_on channel=0 note=76 velocity=0 time=1
note_on channel=0 note=71 velocity=97 time=2
note_on channel=0 note=78 velocity=87 time=0
note_on channel=0 note=83 velocity=95 time=1
note_on channel=0 note=66 velocity=0 time=19
note_on channel=0 note=54 velocity=0 time=17
note_on channel=0 note=82 velocity=35 time=10
note_on channel=0 note=82 velocity=0 time=39
note_on channel=0 note=83 velocity=0 time=88
note_on channel=0 note=71 velocity=0 time=7
note_on channel=0 note=78 velocity=0 time=29
control_change channel=0 control=64 value=72 time=30
note_on channel=0 note=54 velocity=90 time=11
note_on channel=0 note=59 velocity=94 time=0
note_on channel=0 note=51 velocity=84 time=2
note_on channel=0 note=78 velocity=84 time=0
control_change channel=0 control=64 value=0 time=2
note_on channel=0 note=47 velocity=75 time=1
note_on channel=0 note=71 velocity=101 time=0
note_on channel=0 note=75 velocity=84 time=1
note_on channel=0 note=83 velocity=99 time=0
control_change channel=0 control=64 value=54 time=81
control_change channel=0 control=64 value=69 time=16
control_change channel=0 control=64 value=80 time=15
control_change channel=0 control=64 value=87 time=16
control_change channel=0 control=64 value=90 time=14
control_change channel=0 control=64 value=92 time=15
control_change channel=0 control=64 value=96 time=16
control_change channel=0 control=64 value=100 time=15
control_change channel=0 control=64 value=103 time=16
control_change channel=0 control=64 value=104 time=14
control_change channel=0 control=64 value=104 time=15
control_change channel=0 control=64 value=112 time=16
control_change channel=0 control=64 value=127 time=15
note_on channel=0 note=59 velocity=0 time=10
note_on channel=0 note=71 velocity=0 time=14
note_on channel=0 note=83 velocity=0 time=48
note_on channel=0 note=70 velocity=103 time=132
note_on channel=0 note=58 velocity=93 time=8
note_on channel=0 note=75 velocity=0 time=20
note_on channel=0 note=54 velocity=0 time=18
note_on channel=0 note=47 velocity=0 time=260
note_on channel=0 note=58 velocity=0 time=6
note_on channel=0 note=70 velocity=0 time=1
note_on channel=0 note=78 velocity=0 time=82
control_change channel=0 control=64 value=88 time=76
note_on channel=0 note=76 velocity=82 time=5
note_on channel=0 note=69 velocity=99 time=1
note_on channel=0 note=83 velocity=95 time=0
note_on channel=0 note=52 velocity=82 time=3
note_on channel=0 note=57 velocity=85 time=1
note_on channel=0 note=59 velocity=85 time=1
control_change channel=0 control=64 value=64 time=4
note_on channel=0 note=47 velocity=73 time=6
note_on channel=0 note=51 velocity=0 time=7
control_change channel=0 control=64 value=0 time=3
control_change channel=0 control=64 value=26 time=46
control_change channel=0 control=64 value=62 time=15
control_change channel=0 control=64 value=68 time=15
control_change channel=0 control=64 value=73 time=15
control_change channel=0 control=64 value=80 time=15
control_change channel=0 control=64 value=86 time=16
control_change channel=0 control=64 value=92 time=15
control_change channel=0 control=64 value=97 time=14
control_change channel=0 control=64 value=104 time=16
control_change channel=0 control=64 value=114 time=15
control_change channel=0 control=64 value=127 time=16
note_on channel=0 note=59 velocity=0 time=88
note_on channel=0 note=57 velocity=0 time=12
note_on channel=0 note=69 velocity=0 time=41
note_on channel=0 note=83 velocity=0 time=14
note_on channel=0 note=67 velocity=94 time=93
note_on channel=0 note=55 velocity=78 time=2
note_on channel=0 note=76 velocity=0 time=1
note_on channel=0 note=52 velocity=0 time=11
note_on channel=0 note=67 velocity=0 time=46
note_on channel=0 note=47 velocity=0 time=150
note_on channel=0 note=55 velocity=0 time=99
control_change channel=0 control=64 value=113 time=106
control_change channel=0 control=64 value=84 time=15
control_change channel=0 control=64 value=59 time=15
note_on channel=0 note=71 velocity=89 time=6
note_on channel=0 note=59 velocity=91 time=3
note_on channel=0 note=63 velocity=76 time=3
note_on channel=0 note=66 velocity=78 time=0
control_change channel=0 control=64 value=0 time=4
note_on channel=0 note=54 velocity=78 time=0
note_on channel=0 note=51 velocity=70 time=3
note_on channel=0 note=47 velocity=68 time=3
control_change channel=0 control=64 value=53 time=9
control_change channel=0 control=64 value=63 time=15
control_change channel=0 control=64 value=66 time=16
control_change channel=0 control=64 value=69 time=15
control_change channel=0 control=64 value=76 time=15
control_change channel=0 control=64 value=83 time=15
control_change channel=0 control=64 value=89 time=15
control_change channel=0 control=64 value=94 time=16
control_change channel=0 control=64 value=98 time=15
control_change channel=0 control=64 value=103 time=15
control_change channel=0 control=64 value=109 time=15
control_change channel=0 control=64 value=124 time=15
control_change channel=0 control=64 value=127 time=15
note_on channel=0 note=47 velocity=0 time=75
note_on channel=0 note=51 velocity=0 time=112
note_on channel=0 note=54 velocity=0 time=18
note_on channel=0 note=58 velocity=103 time=54
control_change channel=0 control=64 value=91 time=2
note_on channel=0 note=46 velocity=86 time=3
control_change channel=0 control=64 value=67 time=11
control_change channel=0 control=64 value=56 time=23
control_change channel=0 control=64 value=65 time=15
control_change channel=0 control=64 value=69 time=16
control_change channel=0 control=64 value=72 time=15
control_change channel=0 control=64 value=77 time=15
control_change channel=0 control=64 value=84 time=16
control_change channel=0 control=64 value=90 time=15
control_change channel=0 control=64 value=94 time=15
control_change channel=0 control=64 value=98 time=15
control_change channel=0 control=64 value=103 time=15
control_change channel=0 control=64 value=110 time=15
control_change channel=0 control=64 value=127 time=15
note_on channel=0 note=71 velocity=0 time=97
note_on channel=0 note=63 velocity=0 time=46
note_on channel=0 note=58 velocity=0 time=3
note_on channel=0 note=59 velocity=0 time=5
note_on channel=0 note=66 velocity=0 time=86
control_change channel=0 control=64 value=87 time=6
control_change channel=0 control=64 value=64 time=16
note_on channel=0 note=57 velocity=83 time=3
note_on channel=0 note=59 velocity=90 time=0
note_on channel=0 note=52 velocity=76 time=2
note_on channel=0 note=71 velocity=96 time=1
note_on channel=0 note=64 velocity=69 time=2
note_on channel=0 note=45 velocity=71 time=3
note_on channel=0 note=46 velocity=0 time=3
control_change channel=0 control=64 value=0 time=1
control_change channel=0 control=64 value=24 time=15
control_change channel=0 control=64 value=59 time=16
control_change channel=0 control=64 value=65 time=15
control_change channel=0 control=64 value=69 time=15
control_change channel=0 control=64 value=75 time=15
control_change channel=0 control=64 value=82 time=16
control_change channel=0 control=64 value=88 time=16
control_change channel=0 control=64 value=94 time=15
control_change channel=0 control=64 value=99 time=15
control_change channel=0 control=64 value=104 time=15
control_change channel=0 control=64 value=108 time=15
control_change channel=0 control=64 value=113 time=16
control_change channel=0 control=64 value=123 time=14
control_change channel=0 control=64 value=127 time=15
note_on channel=0 note=45 velocity=0 time=69
note_on channel=0 note=57 velocity=0 time=6
control_change channel=0 control=64 value=111 time=115
control_change channel=0 control=64 value=87 time=13
control_change channel=0 control=64 value=70 time=16
control_change channel=0 control=64 value=65 time=15
control_change channel=0 control=64 value=70 time=15
note_on channel=0 note=55 velocity=83 time=6
control_change channel=0 control=64 value=76 time=9
note_on channel=0 note=43 velocity=76 time=0
note_on channel=0 note=52 velocity=0 time=3
control_change channel=0 control=64 value=82 time=12
note_on channel=0 note=55 velocity=0 time=12
control_change channel=0 control=64 value=92 time=3
note_on channel=0 note=59 velocity=0 time=4
control_change channel=0 control=64 value=105 time=12
note_on channel=0 note=43 velocity=0 time=12
control_change channel=0 control=64 value=127 time=3
control_change channel=0 control=64 value=71 time=166
note_on channel=0 note=35 velocity=71 time=10
control_change channel=0 control=64 value=0 time=6
note_on channel=0 note=42 velocity=72 time=39
note_on channel=0 note=35 velocity=0 time=32
note_on channel=0 note=47 velocity=76 time=19
control_change channel=0 control=64 value=57 time=1
note_on channel=0 note=71 velocity=0 time=4
control_change channel=0 control=64 value=67 time=11
note_on channel=0 note=64 velocity=0 time=2
note_on channel=0 note=42 velocity=0 time=2
control_change channel=0 control=64 value=72 time=11
control_change channel=0 control=64 value=75 time=15
note_on channel=0 note=47 velocity=0 time=12
control_change channel=0 control=64 value=79 time=4
control_change channel=0 control=64 value=85 time=15
control_change channel=0 control=64 value=92 time=15
control_change channel=0 control=64 value=97 time=17
control_change channel=0 control=64 value=102 time=14
note_on channel=0 note=54 velocity=77 time=3
note_on channel=0 note=71 velocity=90 time=9
note_on channel=0 note=59 velocity=82 time=1
control_change channel=0 control=64 value=107 time=2
note_on channel=0 note=63 velocity=78 time=0
note_on channel=0 note=54 velocity=0 time=14
control_change channel=0 control=64 value=113 time=2
control_change channel=0 control=64 value=124 time=15
control_change channel=0 control=64 value=127 time=15
control_change channel=0 control=64 value=104 time=554
control_change channel=0 control=64 value=68 time=16
note_on channel=0 note=35 velocity=76 time=13
control_change channel=0 control=64 value=0 time=2
control_change channel=0 control=64 value=54 time=45
note_on channel=0 note=42 velocity=77 time=6
control_change channel=0 control=64 value=67 time=10
control_change channel=0 control=64 value=76 time=15
note_on channel=0 note=35 velocity=0 time=8
control_change channel=0 control=64 value=86 time=8
note_on channel=0 note=47 velocity=78 time=8
control_change channel=0 control=64 value=96 time=6
note_on channel=0 note=71 velocity=0 time=6
control_change channel=0 control=64 value=101 time=7
note_on channel=0 note=42 velocity=0 time=9
note_on channel=0 note=59 velocity=0 time=0
control_change channel=0 control=64 value=103 time=6
note_on channel=0 note=63 velocity=0 time=13
control_change channel=0 control=64 value=105 time=4
note_on channel=0 note=47 velocity=0 time=11
control_change channel=0 control=64 value=109 time=4
control_change channel=0 control=64 value=116 time=16
control_change channel=0 control=64 value=127 time=14
note_on channel=0 note=54 velocity=75 time=34
note_on channel=0 note=71 velocity=91 time=5
note_on channel=0 note=59 velocity=79 time=2
note_on channel=0 note=63 velocity=77 time=6
note_on channel=0 note=54 velocity=0 time=13
control_change channel=0 control=64 value=91 time=602
control_change channel=0 control=64 value=0 time=14
note_on channel=0 note=35 velocity=67 time=16
control_change channel=0 control=64 value=33 time=46
note_on channel=0 note=42 velocity=71 time=8
control_change channel=0 control=64 value=65 time=9
control_change channel=0 control=64 value=74 time=16
control_change channel=0 control=64 value=84 time=16
note_on channel=0 note=35 velocity=0 time=2
control_change channel=0 control=64 value=93 time=13
note_on channel=0 note=47 velocity=69 time=15
control_change channel=0 control=64 value=98 time=1
control_change channel=0 control=64 value=99 time=14
note_on channel=0 note=42 velocity=0 time=2
note_on channel=0 note=71 velocity=0 time=4
note_on channel=0 note=59 velocity=0 time=2
note_on channel=0 note=63 velocity=0 time=29
note_on channel=0 note=47 velocity=0 time=14
control_change channel=0 control=64 value=100 time=2
control_change channel=0 control=64 value=101 time=16
control_change channel=0 control=64 value=101 time=15
note_on channel=0 note=71 velocity=88 time=30
note_on channel=0 note=59 velocity=78 time=4
note_on channel=0 note=54 velocity=70 time=5
note_on channel=0 note=63 velocity=76 time=6
note_on channel=0 note=54 velocity=0 time=21
control_change channel=0 control=64 value=100 time=747
control_change channel=0 control=64 value=99 time=16
control_change channel=0 control=64 value=98 time=14
control_change channel=0 control=64 value=97 time=16
control_change channel=0 control=64 value=94 time=15
control_change channel=0 control=64 value=91 time=15
control_change channel=0 control=64 value=87 time=16
control_change channel=0 control=64 value=80 time=15
note_on channel=0 note=33 velocity=76 time=11
control_change channel=0 control=64 value=68 time=4
control_change channel=0 control=64 value=0 time=16
control_change channel=0 control=64 value=14 time=121
control_change channel=0 control=64 value=47 time=14
control_change channel=0 control=64 value=58 time=16
control_change channel=0 control=64 value=63 time=15
control_change channel=0 control=64 value=65 time=15
control_change channel=0 control=64 value=67 time=16
control_change channel=0 control=64 value=69 time=14
control_change channel=0 control=64 value=71 time=15
control_change channel=0 control=64 value=73 time=16
control_change channel=0 control=64 value=76 time=15
control_change channel=0 control=64 value=80 time=16
control_change channel=0 control=64 value=84 time=14
control_change channel=0 control=64 value=87 time=15
control_change channel=0 control=64 value=90 time=16
control_change channel=0 control=64 value=93 time=15
control_change channel=0 control=64 value=97 time=16
control_change channel=0 control=64 value=101 time=14
control_change channel=0 control=64 value=106 time=15
control_change channel=0 control=64 value=110 time=16
control_change channel=0 control=64 value=113 time=15
control_change channel=0 control=64 value=115 time=15
control_change channel=0 control=64 value=119 time=16
control_change channel=0 control=64 value=127 time=15
note_on channel=0 note=33 velocity=0 time=91
control_change channel=0 control=64 value=99 time=100
control_change channel=0 control=64 value=71 time=14
control_change channel=0 control=64 value=0 time=16
note_on channel=0 note=32 velocity=64 time=7
note_on channel=0 note=71 velocity=0 time=14
note_on channel=0 note=39 velocity=64 time=48
note_on channel=0 note=63 velocity=0 time=31
control_change channel=0 control=64 value=61 time=6
control_change channel=0 control=64 value=67 time=16
note_on channel=0 note=32 velocity=0 time=7
control_change channel=0 control=64 value=70 time=8
note_on channel=0 note=44 velocity=73 time=3
note_on channel=0 note=59 velocity=0 time=12
control_change channel=0 control=64 value=72 time=1
control_change channel=0 control=64 value=75 time=14
note_on channel=0 note=39 velocity=0 time=0
control_change channel=0 control=64 value=80 time=15
note_on channel=0 note=44 velocity=0 time=15
control_change channel=0 control=64 value=84 time=1
control_change channel=0 control=64 value=86 time=15
control_change channel=0 control=64 value=88 time=15
control_change channel=0 control=64 value=91 time=16
control_change channel=0 control=64 value=94 time=14
control_change channel=0 control=64 value=97 time=16
control_change channel=0 control=64 value=100 time=15
note_on channel=0 note=72 velocity=78 time=7
control_change channel=0 control=64 value=102 time=8
note_on channel=0 note=63 velocity=64 time=1
note_on channel=0 note=60 velocity=59 time=4
note_on channel=0 note=54 velocity=64 time=4
control_change channel=0 control=64 value=104 time=6
control_change channel=0 control=64 value=107 time=15
note_on channel=0 note=54 velocity=0 time=10
control_change channel=0 control=64 value=110 time=5
control_change channel=0 control=64 value=116 time=16
control_change channel=0 control=64 value=127 time=14
control_change channel=0 control=64 value=109 time=545
control_change channel=0 control=64 value=87 time=16
control_change channel=0 control=64 value=67 time=14
note_on channel=0 note=32 velocity=66 time=1
control_change channel=0 control=64 value=56 time=14
control_change channel=0 control=64 value=65 time=16
control_change channel=0 control=64 value=68 time=15
note_on channel=0 note=39 velocity=65 time=12
control_change channel=0 control=64 value=70 time=3
control_change channel=0 control=64 value=74 time=15
note_on channel=0 note=32 velocity=0 time=13
control_change channel=0 control=64 value=81 time=2
control_change channel=0 control=64 value=88 time=16
note_on channel=0 note=44 velocity=69 time=1
control_change channel=0 control=64 value=93 time=14
note_on channel=0 note=72 velocity=0 time=1
note_on channel=0 note=39 velocity=0 time=7
note_on channel=0 note=60 velocity=0 time=0
control_change channel=0 control=64 value=96 time=7
control_change channel=0 control=64 value=99 time=15
note_on channel=0 note=44 velocity=0 time=2
note_on channel=0 note=63 velocity=0 time=8
control_change channel=0 control=64 value=103 time=5
control_change channel=0 control=64 value=106 time=15
control_change channel=0 control=64 value=108 time=15
control_change channel=0 control=64 value=110 time=15
control_change channel=0 control=64 value=110 time=16
note_on channel=0 note=72 velocity=83 time=8
note_on channel=0 note=60 velocity=67 time=4
note_on channel=0 note=54 velocity=66 time=8
note_on channel=0 note=63 velocity=64 time=1
note_on channel=0 note=54 velocity=0 time=24
control_change channel=0 control=64 value=111 time=137
control_change channel=0 control=64 value=111 time=23
control_change channel=0 control=64 value=112 time=15
control_change channel=0 control=64 value=113 time=16
control_change channel=0 control=64 value=108 time=411
control_change channel=0 control=64 value=88 time=15
note_on channel=0 note=32 velocity=71 time=15
control_change channel=0 control=64 value=70 time=1
control_change channel=0 control=64 value=61 time=14
control_change channel=0 control=64 value=66 time=15
control_change channel=0 control=64 value=70 time=16
note_on channel=0 note=39 velocity=67 time=13
control_change channel=0 control=64 value=73 time=1
control_change channel=0 control=64 value=78 time=15
note_on channel=0 note=32 velocity=0 time=14
control_change channel=0 control=64 value=87 time=2
control_change channel=0 control=64 value=95 time=15
note_on channel=0 note=44 velocity=73 time=1
control_change channel=0 control=64 value=100 time=15
note_on channel=0 note=72 velocity=0 time=1
note_on channel=0 note=39 velocity=0 time=3
control_change channel=0 control=64 value=102 time=10
note_on channel=0 note=60 velocity=0 time=2
note_on channel=0 note=44 velocity=0 time=8
control_change channel=0 control=64 value=104 time=5
control_change channel=0 control=64 value=106 time=17
note_on channel=0 note=63 velocity=0 time=11
control_change channel=0 control=64 value=109 time=4
control_change channel=0 control=64 value=113 time=16
control_change channel=0 control=64 value=116 time=15
control_change channel=0 control=64 value=118 time=14
note_on channel=0 note=72 velocity=85 time=7
control_change channel=0 control=64 value=119 time=9
note_on channel=0 note=63 velocity=69 time=0
note_on channel=0 note=60 velocity=71 time=2
control_change channel=0 control=64 value=122 time=13
control_change channel=0 control=64 value=127 time=14
control_change channel=0 control=64 value=122 time=837
control_change channel=0 control=64 value=116 time=16
control_change channel=0 control=64 value=110 time=15
control_change channel=0 control=64 value=104 time=15
control_change channel=0 control=64 value=94 time=14
note_on channel=0 note=42 velocity=80 time=3
control_change channel=0 control=64 value=80 time=11
control_change channel=0 control=64 value=64 time=15
control_change channel=0 control=64 value=0 time=16
control_change channel=0 control=64 value=26 time=92
control_change channel=0 control=64 value=54 time=15
control_change channel=0 control=64 value=63 time=16
control_change channel=0 control=64 value=66 time=14
control_change channel=0 control=64 value=68 time=16
control_change channel=0 control=64 value=70 time=15
control_change channel=0 control=64 value=72 time=15
control_change channel=0 control=64 value=74 time=16
note_on channel=0 note=60 velocity=0 time=9
control_change channel=0 control=64 value=76 time=5
note_on channel=0 note=63 velocity=0 time=5
control_change channel=0 control=64 value=79 time=10
control_change channel=0 control=64 value=82 time=16
control_change channel=0 control=64 value=84 time=15
control_change channel=0 control=64 value=86 time=16
control_change channel=0 control=64 value=88 time=14
control_change channel=0 control=64 value=91 time=15
control_change channel=0 control=67 value=8 time=0
control_change channel=0 control=64 value=93 time=16
control_change channel=0 control=67 value=9 time=0
control_change channel=0 control=64 value=96 time=14
control_change channel=0 control=67 value=11 time=0
control_change channel=0 control=64 value=97 time=15
control_change channel=0 control=67 value=14 time=0
control_change channel=0 control=64 value=98 time=16
control_change channel=0 control=67 value=16 time=0
control_change channel=0 control=64 value=99 time=15
control_change channel=0 control=67 value=19 time=0
control_change channel=0 control=64 value=99 time=16
control_change channel=0 control=67 value=21 time=0
control_change channel=0 control=64 value=100 time=14
control_change channel=0 control=67 value=24 time=0
control_change channel=0 control=64 value=100 time=15
control_change channel=0 control=67 value=27 time=0
control_change channel=0 control=64 value=101 time=16
control_change channel=0 control=67 value=30 time=0
control_change channel=0 control=67 value=34 time=15
control_change channel=0 control=67 value=38 time=16
control_change channel=0 control=67 value=42 time=14
control_change channel=0 control=67 value=45 time=15
control_change channel=0 control=67 value=48 time=16
control_change channel=0 control=67 value=51 time=15
control_change channel=0 control=67 value=55 time=15
control_change channel=0 control=67 value=58 time=16
control_change channel=0 control=67 value=63 time=15
control_change channel=0 control=67 value=66 time=16
control_change channel=0 control=67 value=70 time=21
control_change channel=0 control=67 value=74 time=16
control_change channel=0 control=67 value=78 time=15
control_change channel=0 control=64 value=99 time=15
control_change channel=0 control=67 value=81 time=0
control_change channel=0 control=64 value=82 time=15
control_change channel=0 control=67 value=84 time=0
control_change channel=0 control=64 value=28 time=15
control_change channel=0 control=67 value=85 time=0
control_change channel=0 control=64 value=0 time=15
control_change channel=0 control=67 value=86 time=0
control_change channel=0 control=67 value=87 time=16
note_on channel=0 note=42 velocity=0 time=4
note_on channel=0 note=41 velocity=68 time=2
control_change channel=0 control=64 value=52 time=70
control_change channel=0 control=64 value=64 time=15
note_on channel=0 note=49 velocity=71 time=3
note_on channel=0 note=41 velocity=0 time=9
control_change channel=0 control=64 value=67 time=3
control_change channel=0 control=64 value=70 time=16
control_change channel=0 control=64 value=72 time=15
note_on channel=0 note=72 velocity=0 time=10
control_change channel=0 control=64 value=73 time=5
control_change channel=0 control=64 value=74 time=15
note_on channel=0 note=61 velocity=60 time=0
control_change channel=0 control=64 value=76 time=16
note_on channel=0 note=59 velocity=60 time=11
control_change channel=0 control=64 value=77 time=5
control_change channel=0 control=64 value=79 time=14
note_on channel=0 note=68 velocity=66 time=0
control_change channel=0 control=64 value=80 time=16
control_change channel=0 control=64 value=80 time=15
note_on channel=0 note=73 velocity=79 time=13
control_change channel=0 control=64 value=81 time=2
control_change channel=0 control=64 value=82 time=16
control_change channel=0 control=64 value=83 time=15
control_change channel=0 control=67 value=86 time=0
control_change channel=0 control=64 value=86 time=15
control_change channel=0 control=67 value=86 time=0
control_change channel=0 control=64 value=89 time=16
control_change channel=0 control=64 value=90 time=14
control_change channel=0 control=67 value=85 time=0
control_change channel=0 control=64 value=91 time=16
control_change channel=0 control=64 value=92 time=15
control_change channel=0 control=67 value=85 time=0
control_change channel=0 control=64 value=94 time=14
control_change channel=0 control=64 value=99 time=16
control_change channel=0 control=67 value=84 time=0
control_change channel=0 control=64 value=105 time=15
note_on channel=0 note=59 velocity=0 time=10
control_change channel=0 control=64 value=109 time=5
control_change channel=0 control=64 value=113 time=16
control_change channel=0 control=67 value=84 time=0
control_change channel=0 control=64 value=123 time=14
control_change channel=0 control=64 value=127 time=16
control_change channel=0 control=67 value=83 time=0
control_change channel=0 control=67 value=82 time=30
note_on channel=0 note=61 velocity=0 time=35
control_change channel=0 control=67 value=82 time=9
control_change channel=0 control=67 value=81 time=77
note_on channel=0 note=68 velocity=0 time=7
control_change channel=0 control=67 value=81 time=46
control_change channel=0 control=67 value=80 time=15
control_change channel=0 control=67 value=80 time=31
control_change channel=0 control=67 value=79 time=60
note_on channel=0 note=49 velocity=0 time=5
control_change channel=0 control=67 value=79 time=26
control_change channel=0 control=67 value=78 time=76
control_change channel=0 control=67 value=78 time=31
control_change channel=0 control=67 value=77 time=15
note_on channel=0 note=41 velocity=56 time=14
control_change channel=0 control=67 value=76 time=1
control_change channel=0 control=67 value=75 time=15
note_on channel=0 note=41 velocity=0 time=13
control_change channel=0 control=67 value=75 time=2
note_on channel=0 note=49 velocity=69 time=7
control_change channel=0 control=67 value=73 time=10
control_change channel=0 control=67 value=72 time=14
note_on channel=0 note=73 velocity=0 time=12
control_change channel=0 control=67 value=71 time=3
control_change channel=0 control=67 value=70 time=16
note_on channel=0 note=59 velocity=62 time=17
control_change channel=0 control=67 value=70 time=14
note_on channel=0 note=61 velocity=64 time=6
note_on channel=0 note=68 velocity=71 time=37
control_change channel=0 control=67 value=69 time=33
note_on channel=0 note=61 velocity=0 time=7
note_on channel=0 note=59 velocity=0 time=8
note_on channel=0 note=73 velocity=81 time=3
note_on channel=0 note=68 velocity=0 time=47
note_on channel=0 note=49 velocity=0 time=449
control_change channel=0 control=67 value=69 time=70
control_change channel=0 control=67 value=68 time=92
control_change channel=0 control=67 value=68 time=61
note_on channel=0 note=41 velocity=50 time=7
note_on channel=0 note=41 velocity=0 time=33
note_on channel=0 note=49 velocity=64 time=15
control_change channel=0 control=67 value=67 time=6
note_on channel=0 note=73 velocity=0 time=11
control_change channel=0 control=67 value=66 time=50
note_on channel=0 note=59 velocity=60 time=12
control_change channel=0 control=67 value=65 time=3
control_change channel=0 control=67 value=64 time=16
control_change channel=0 control=67 value=63 time=15
note_on channel=0 note=61 velocity=62 time=6
control_change channel=0 control=67 value=63 time=9
control_change channel=0 control=67 value=62 time=15
control_change channel=0 control=67 value=62 time=15
note_on channel=0 note=68 velocity=68 time=7
control_change channel=0 control=67 value=61 time=9
control_change channel=0 control=67 value=61 time=15
control_change channel=0 control=67 value=60 time=14
note_on channel=0 note=59 velocity=0 time=17
note_on channel=0 note=73 velocity=86 time=6
control_change channel=0 control=67 value=60 time=8
control_change channel=0 control=67 value=59 time=38
note_on channel=0 note=49 velocity=0 time=94
control_change channel=0 control=67 value=60 time=270
control_change channel=0 control=67 value=60 time=349
control_change channel=0 control=67 value=61 time=99
control_change channel=0 control=67 value=61 time=61
control_change channel=0 control=67 value=62 time=45
control_change channel=0 control=67 value=62 time=31
control_change channel=0 control=67 value=63 time=15
control_change channel=0 control=67 value=64 time=30
control_change channel=0 control=64 value=103 time=15
control_change channel=0 control=67 value=64 time=0
control_change channel=0 control=64 value=86 time=16
control_change channel=0 control=67 value=65 time=0
control_change channel=0 control=64 value=70 time=14
control_change channel=0 control=67 value=65 time=0
note_on channel=0 note=40 velocity=51 time=2
control_change channel=0 control=64 value=0 time=13
control_change channel=0 control=67 value=66 time=0
control_change channel=0 control=67 value=66 time=16
control_change channel=0 control=67 value=67 time=31
control_change channel=0 control=67 value=68 time=15
control_change channel=0 control=64 value=30 time=15
control_change channel=0 control=67 value=68 time=0
control_change channel=0 control=64 value=53 time=16
control_change channel=0 control=64 value=62 time=15
control_change channel=0 control=67 value=69 time=0
control_change channel=0 control=64 value=65 time=16
control_change channel=0 control=67 value=69 time=0
control_change channel=0 control=64 value=67 time=14
control_change channel=0 control=67 value=70 time=0
control_change channel=0 control=64 value=70 time=15
control_change channel=0 control=67 value=71 time=0
control_change channel=0 control=64 value=73 time=16
control_change channel=0 control=67 value=71 time=0
control_change channel=0 control=64 value=76 time=15
control_change channel=0 control=67 value=72 time=0
control_change channel=0 control=64 value=79 time=15
control_change channel=0 control=67 value=73 time=0
control_change channel=0 control=64 value=82 time=16
control_change channel=0 control=67 value=75 time=0
control_change channel=0 control=64 value=85 time=15
control_change channel=0 control=67 value=77 time=0
control_change channel=0 control=64 value=89 time=16
control_change channel=0 control=67 value=79 time=0
control_change channel=0 control=64 value=92 time=15
control_change channel=0 control=67 value=80 time=0
control_change channel=0 control=64 value=94 time=15
control_change channel=0 control=67 value=81 time=0
control_change channel=0 control=64 value=97 time=15
control_change channel=0 control=64 value=100 time=15
control_change channel=0 control=64 value=103 time=16
control_change channel=0 control=64 value=106 time=15
control_change channel=0 control=64 value=110 time=15
control_change channel=0 control=67 value=80 time=0
note_on channel=0 note=40 velocity=0 time=3
control_change channel=0 control=64 value=114 time=12
control_change channel=0 control=67 value=80 time=0
control_change channel=0 control=64 value=118 time=15
control_change channel=0 control=67 value=79 time=0
control_change channel=0 control=64 value=126 time=15
control_change channel=0 control=67 value=78 time=0
control_change channel=0 control=64 value=127 time=15
control_change channel=0 control=67 value=78 time=0
control_change channel=0 control=67 value=77 time=15
control_change channel=0 control=67 value=77 time=16
control_change channel=0 control=67 value=76 time=37
control_change channel=0 control=67 value=76 time=33
control_change channel=0 control=67 value=75 time=61
control_change channel=0 control=67 value=75 time=45
note_on channel=0 note=68 velocity=0 time=12
note_on channel=0 note=47 velocity=34 time=306
control_change channel=0 control=67 value=74 time=16
note_on channel=0 note=52 velocity=47 time=44
note_on channel=0 note=61 velocity=0 time=0
control_change channel=0 control=64 value=124 time=49
note_on channel=0 note=59 velocity=45 time=14
control_change channel=0 control=64 value=121 time=1
note_on channel=0 note=73 velocity=0 time=6
control_change channel=0 control=64 value=119 time=10
control_change channel=0 control=64 value=117 time=15
note_on channel=0 note=62 velocity=49 time=4
control_change channel=0 control=64 value=113 time=11
control_change channel=0 control=64 value=107 time=16
control_change channel=0 control=64 value=101 time=14
note_on channel=0 note=68 velocity=55 time=5
control_change channel=0 control=64 value=92 time=10
control_change channel=0 control=64 value=81 time=16
control_change channel=0 control=64 value=69 time=15
note_on channel=0 note=74 velocity=67 time=9
control_change channel=0 control=64 value=45 time=7
control_change channel=0 control=64 value=14 time=15
control_change channel=0 control=64 value=49 time=23
control_change channel=0 control=64 value=59 time=15
control_change channel=0 control=64 value=63 time=14
control_change channel=0 control=64 value=65 time=16
control_change channel=0 control=64 value=68 time=15
control_change channel=0 control=67 value=74 time=0
control_change channel=0 control=64 value=72 time=15
control_change channel=0 control=64 value=75 time=16
control_change channel=0 control=64 value=78 time=14
control_change channel=0 control=64 value=81 time=16
control_change channel=0 control=64 value=84 time=15
control_change channel=0 control=64 value=88 time=15
control_change channel=0 control=64 value=90 time=16
control_change channel=0 control=64 value=92 time=15
control_change channel=0 control=64 value=94 time=14
control_change channel=0 control=64 value=97 time=16
control_change channel=0 control=64 value=99 time=15
control_change channel=0 control=64 value=101 time=16
control_change channel=0 control=67 value=73 time=0
note_on channel=0 note=62 velocity=0 time=7
control_change channel=0 control=64 value=103 time=8
control_change channel=0 control=64 value=107 time=15
note_on channel=0 note=68 velocity=0 time=8
note_on channel=0 note=47 velocity=0 time=5
control_change channel=0 control=64 value=111 time=3
note_on channel=0 note=74 velocity=0 time=9
control_change channel=0 control=64 value=116 time=5
note_on channel=0 note=59 velocity=0 time=10
control_change channel=0 control=64 value=124 time=6
control_change channel=0 control=64 value=127 time=15
note_on channel=0 note=52 velocity=0 time=43
control_change channel=0 control=67 value=73 time=154
note_on channel=0 note=47 velocity=38 time=110
note_on channel=0 note=52 velocity=42 time=67
note_on channel=0 note=59 velocity=45 time=66
note_on channel=0 note=62 velocity=47 time=39
note_on channel=0 note=68 velocity=56 time=35
note_on channel=0 note=74 velocity=64 time=37
note_on channel=0 note=62 velocity=0 time=74
note_on channel=0 note=68 velocity=0 time=71
note_on channel=0 note=59 velocity=0 time=4
note_on channel=0 note=47 velocity=0 time=36
note_on channel=0 note=74 velocity=0 time=28
note_on channel=0 note=52 velocity=0 time=93
control_change channel=0 control=67 value=72 time=405
note_on channel=0 note=47 velocity=32 time=47
note_on channel=0 note=52 velocity=43 time=74
control_change channel=0 control=67 value=72 time=16
note_on channel=0 note=59 velocity=42 time=50
control_change channel=0 control=67 value=71 time=26
note_on channel=0 note=62 velocity=46 time=41
control_change channel=0 control=67 value=71 time=4
note_on channel=0 note=68 velocity=52 time=28
control_change channel=0 control=67 value=70 time=49
note_on channel=0 note=74 velocity=66 time=1
control_change channel=0 control=67 value=70 time=29
control_change channel=0 control=67 value=69 time=30
control_change channel=0 control=67 value=69 time=31
control_change channel=0 control=67 value=68 time=30
control_change channel=0 control=67 value=68 time=46
control_change channel=0 control=67 value=67 time=30
control_change channel=0 control=67 value=66 time=15
control_change channel=0 control=67 value=64 time=16
control_change channel=0 control=67 value=63 time=14
control_change channel=0 control=67 value=62 time=15
note_on channel=0 note=59 velocity=0 time=2
control_change channel=0 control=67 value=61 time=14
control_change channel=0 control=67 value=61 time=16
control_change channel=0 control=67 value=60 time=15
note_on channel=0 note=52 velocity=0 time=5
control_change channel=0 control=67 value=60 time=11
control_change channel=0 control=67 value=59 time=15
control_change channel=0 control=67 value=59 time=15
control_change channel=0 control=67 value=58 time=22
control_change channel=0 control=67 value=58 time=16
note_on channel=0 note=47 velocity=0 time=12
control_change channel=0 control=67 value=57 time=3
control_change channel=0 control=67 value=57 time=15
control_change channel=0 control=67 value=56 time=16
control_change channel=0 control=67 value=55 time=15
control_change channel=0 control=67 value=55 time=15
control_change channel=0 control=67 value=54 time=15
control_change channel=0 control=67 value=54 time=15
control_change channel=0 control=67 value=53 time=16
control_change channel=0 control=67 value=53 time=15
control_change channel=0 control=67 value=52 time=15
control_change channel=0 control=67 value=51 time=15
control_change channel=0 control=67 value=51 time=15
control_change channel=0 control=67 value=50 time=15
control_change channel=0 control=67 value=49 time=16
control_change channel=0 control=67 value=48 time=15
control_change channel=0 control=67 value=48 time=15
control_change channel=0 control=67 value=47 time=15
control_change channel=0 control=67 value=46 time=15
control_change channel=0 control=67 value=46 time=15
control_change channel=0 control=67 value=45 time=15
control_change channel=0 control=67 value=44 time=15
control_change channel=0 control=67 value=44 time=16
control_change channel=0 control=67 value=43 time=31
control_change channel=0 control=67 value=42 time=14
control_change channel=0 control=67 value=42 time=15
control_change channel=0 control=67 value=41 time=16
control_change channel=0 control=67 value=41 time=30
control_change channel=0 control=67 value=40 time=15
control_change channel=0 control=67 value=40 time=15
control_change channel=0 control=67 value=39 time=31
control_change channel=0 control=67 value=38 time=15
control_change channel=0 control=67 value=38 time=16
control_change channel=0 control=67 value=37 time=15
control_change channel=0 control=67 value=37 time=30
control_change channel=0 control=67 value=36 time=15
control_change channel=0 control=67 value=36 time=31
control_change channel=0 control=67 value=35 time=30
control_change channel=0 control=67 value=35 time=60
note_on channel=0 note=39 velocity=50 time=162
control_change channel=0 control=64 value=103 time=28
control_change channel=0 control=67 value=35 time=0
control_change channel=0 control=64 value=84 time=14
control_change channel=0 control=64 value=65 time=16
control_change channel=0 control=64 value=0 time=15
control_change channel=0 control=64 value=53 time=122
control_change channel=0 control=64 value=62 time=14
control_change channel=0 control=64 value=65 time=16
control_change channel=0 control=64 value=67 time=15
control_change channel=0 control=64 value=70 time=16
control_change channel=0 control=64 value=73 time=14
control_change channel=0 control=64 value=76 time=15
control_change channel=0 control=64 value=79 time=16
control_change channel=0 control=64 value=82 time=15
note_on channel=0 note=39 velocity=0 time=3
note_on channel=0 note=62 velocity=0 time=10
control_change channel=0 control=64 value=84 time=3
control_change channel=0 control=64 value=87 time=14
control_change channel=0 control=67 value=35 time=0
control_change channel=0 control=64 value=90 time=15
control_change channel=0 control=64 value=93 time=16
control_change channel=0 control=64 value=96 time=15
control_change channel=0 control=64 value=98 time=14
control_change channel=0 control=64 value=100 time=16
control_change channel=0 control=67 value=34 time=0
control_change channel=0 control=64 value=103 time=15
control_change channel=0 control=64 value=106 time=16
control_change channel=0 control=64 value=110 time=15
control_change channel=0 control=64 value=115 time=15
control_change channel=0 control=64 value=121 time=16
control_change channel=0 control=64 value=127 time=14
note_on channel=0 note=68 velocity=0 time=6
note_on channel=0 note=74 velocity=0 time=366
note_on channel=0 note=51 velocity=36 time=182
note_on channel=0 note=56 velocity=43 time=75
note_on channel=0 note=58 velocity=38 time=73
note_on channel=0 note=63 velocity=45 time=45
note_on channel=0 note=68 velocity=50 time=40
note_on channel=0 note=70 velocity=56 time=35
note_on channel=0 note=75 velocity=60 time=50
note_on channel=0 note=58 velocity=0 time=227
note_on channel=0 note=56 velocity=0 time=30
note_on channel=0 note=51 velocity=0 time=179
note_on channel=0 note=37 velocity=57 time=775
control_change channel=0 control=64 value=112 time=8
control_change channel=0 control=64 value=91 time=16
control_change channel=0 control=64 value=68 time=15
control_change channel=0 control=64 value=0 time=15
note_on channel=0 note=63 velocity=0 time=15
note_on channel=0 note=68 velocity=0 time=46
control_change channel=0 control=64 value=54 time=46
control_change channel=0 control=64 value=63 time=16
note_on channel=0 note=70 velocity=0 time=6
control_change channel=0 control=64 value=66 time=8
control_change channel=0 control=67 value=34 time=0
control_change channel=0 control=64 value=70 time=15
control_change channel=0 control=64 value=74 time=16
control_change channel=0 control=64 value=79 time=15
control_change channel=0 control=64 value=83 time=15
control_change channel=0 control=67 value=33 time=0
control_change channel=0 control=64 value=88 time=15
control_change channel=0 control=64 value=92 time=15
note_on channel=0 note=37 velocity=0 time=9
control_change channel=0 control=64 value=96 time=7
control_change channel=0 control=64 value=103 time=15
control_change channel=0 control=67 value=33 time=0
control_change channel=0 control=64 value=111 time=14
control_change channel=0 control=64 value=123 time=24
control_change channel=0 control=64 value=127 time=15
control_change channel=0 control=67 value=32 time=16
control_change channel=0 control=67 value=32 time=45
control_change channel=0 control=67 value=27 time=15
control_change channel=0 control=67 value=22 time=15
control_change channel=0 control=67 value=18 time=15
control_change channel=0 control=67 value=15 time=15
control_change channel=0 control=67 value=13 time=16
control_change channel=0 control=67 value=11 time=15
control_change channel=0 control=67 value=9 time=16
control_change channel=0 control=67 value=8 time=16
control_change channel=0 control=67 value=0 time=14
note_on channel=0 note=75 velocity=0 time=145
note_on channel=0 note=51 velocity=43 time=153
note_on channel=0 note=55 velocity=50 time=43
note_on channel=0 note=58 velocity=53 time=56
note_on channel=0 note=63 velocity=62 time=32
note_on channel=0 note=67 velocity=64 time=49
note_on channel=0 note=70 velocity=72 time=34
note_on channel=0 note=75 velocity=78 time=63
note_on channel=0 note=79 velocity=90 time=56
note_on channel=0 note=63 velocity=0 time=51
note_on channel=0 note=58 velocity=0 time=123
note_on channel=0 note=55 velocity=0 time=23
note_on channel=0 note=51 velocity=0 time=67
note_on channel=0 note=36 velocity=91 time=827
control_change channel=0 control=64 value=77 time=28
control_change channel=0 control=64 value=0 time=14
control_change channel=0 control=64 value=55 time=107
control_change channel=0 control=64 value=64 time=14
control_change channel=0 control=64 value=69 time=16
control_change channel=0 control=64 value=75 time=15
control_change channel=0 control=64 value=82 time=16
control_change channel=0 control=64 value=90 time=14
control_change channel=0 control=64 value=97 time=15
control_change channel=0 control=64 value=106 time=16
control_change channel=0 control=64 value=123 time=15
control_change channel=0 control=64 value=127 time=14
note_on channel=0 note=36 velocity=0 time=7
note_on channel=0 note=70 velocity=0 time=49
note_on channel=0 note=67 velocity=0 time=113
note_on channel=0 note=75 velocity=0 time=173
note_on channel=0 note=79 velocity=0 time=173
note_on channel=0 note=51 velocity=82 time=124
note_on channel=0 note=58 velocity=87 time=69
note_on channel=0 note=55 velocity=39 time=64
note_on channel=0 note=63 velocity=93 time=5
note_on channel=0 note=70 velocity=84 time=33
note_on channel=0 note=55 velocity=0 time=8
note_on channel=0 note=75 velocity=84 time=61
note_on channel=0 note=70 velocity=0 time=24
note_on channel=0 note=82 velocity=99 time=37
note_on channel=0 note=75 velocity=0 time=23
note_on channel=0 note=63 velocity=0 time=13
note_on channel=0 note=58 velocity=0 time=44
note_on channel=0 note=51 velocity=0 time=86
note_on channel=0 note=82 velocity=0 time=654
note_on channel=0 note=35 velocity=92 time=400
control_change channel=0 control=64 value=119 time=40
control_change channel=0 control=64 value=73 time=15
control_change channel=0 control=64 value=0 time=15
control_change channel=0 control=64 value=60 time=91
control_change channel=0 control=64 value=71 time=18
control_change channel=0 control=64 value=80 time=15
control_change channel=0 control=64 value=91 time=16
control_change channel=0 control=64 value=102 time=21
control_change channel=0 control=64 value=111 time=16
control_change channel=0 control=64 value=127 time=15
note_on channel=0 note=35 velocity=0 time=152
note_on channel=0 note=51 velocity=95 time=423
note_on channel=0 note=56 velocity=81 time=120
note_on channel=0 note=51 velocity=0 time=51
note_on channel=0 note=56 velocity=0 time=42
note_on channel=0 note=63 velocity=80 time=7
note_on channel=0 note=63 velocity=0 time=54
note_on channel=0 note=68 velocity=90 time=37
note_on channel=0 note=68 velocity=0 time=32
note_on channel=0 note=75 velocity=82 time=13
note_on channel=0 note=80 velocity=86 time=54
note_on channel=0 note=75 velocity=0 time=23
note_on channel=0 note=87 velocity=104 time=28
note_on channel=0 note=80 velocity=0 time=16
note_on channel=0 note=88 velocity=53 time=24
note_on channel=0 note=87 velocity=0 time=6
note_on channel=0 note=88 velocity=0 time=15
note_on channel=0 note=34 velocity=96 time=1208
control_change channel=0 control=64 value=69 time=54
control_change channel=0 control=64 value=0 time=14
control_change channel=0 control=64 value=56 time=197
control_change channel=0 control=64 value=65 time=15
control_change channel=0 control=64 value=71 time=16
control_change channel=0 control=64 value=78 time=15
control_change channel=0 control=64 value=86 time=15
control_change channel=0 control=64 value=96 time=16
control_change channel=0 control=64 value=103 time=15
control_change channel=0 control=64 value=109 time=16
control_change channel=0 control=64 value=124 time=14
control_change channel=0 control=64 value=127 time=15
note_on channel=0 note=46 velocity=102 time=953
note_on channel=0 note=34 velocity=0 time=23
note_on channel=0 note=46 velocity=0 time=14
note_on channel=0 note=87 velocity=43 time=410
note_on channel=0 note=75 velocity=97 time=14
note_on channel=0 note=92 velocity=107 time=1
note_on channel=0 note=65 velocity=81 time=3
note_on channel=0 note=68 velocity=80 time=0
note_on channel=0 note=80 velocity=94 time=0
note_on channel=0 note=87 velocity=0 time=31
note_on channel=0 note=80 velocity=0 time=12
note_on channel=0 note=92 velocity=0 time=18
note_on channel=0 note=65 velocity=0 time=278
note_on channel=0 note=75 velocity=0 time=6
note_on channel=0 note=68 velocity=0 time=4
note_on channel=0 note=89 velocity=103 time=130
note_on channel=0 note=77 velocity=95 time=1
note_on channel=0 note=74 velocity=100 time=3
note_on channel=0 note=80 velocity=90 time=1
note_on channel=0 note=68 velocity=73 time=4
note_on channel=0 note=65 velocity=68 time=7
note_on channel=0 note=87 velocity=33 time=27
note_on channel=0 note=87 velocity=0 time=33
note_on channel=0 note=77 velocity=0 time=11
note_on channel=0 note=89 velocity=0 time=0
note_on channel=0 note=68 velocity=0 time=13
note_on channel=0 note=65 velocity=0 time=14
note_on channel=0 note=80 velocity=0 time=4
note_on channel=0 note=74 velocity=0 time=6
note_on channel=0 note=68 velocity=88 time=70
note_on channel=0 note=70 velocity=83 time=2
note_on channel=0 note=86 velocity=98 time=1
note_on channel=0 note=74 velocity=91 time=4
note_on channel=0 note=65 velocity=50 time=7
note_on channel=0 note=80 velocity=83 time=0
note_on channel=0 note=70 velocity=0 time=6
note_on channel=0 note=68 velocity=0 time=10
note_on channel=0 note=65 velocity=0 time=4
note_on channel=0 note=80 velocity=0 time=3
note_on channel=0 note=86 velocity=0 time=2
note_on channel=0 note=74 velocity=0 time=2
control_change channel=0 control=64 value=68 time=176
note_on channel=0 note=62 velocity=55 time=12
note_on channel=0 note=56 velocity=92 time=1
note_on channel=0 note=58 velocity=104 time=1
note_on channel=0 note=44 velocity=95 time=1
control_change channel=0 control=64 value=0 time=1
note_on channel=0 note=70 velocity=93 time=1
note_on channel=0 note=65 velocity=72 time=5
note_on channel=0 note=56 velocity=0 time=14
control_change channel=0 control=64 value=61 time=25
note_on channel=0 note=44 velocity=0 time=2
control_change channel=0 control=64 value=76 time=13
control_change channel=0 control=64 value=92 time=17
control_change channel=0 control=64 value=127 time=15
note_on channel=0 note=58 velocity=0 time=158
note_on channel=0 note=70 velocity=0 time=19
note_on channel=0 note=65 velocity=0 time=19
note_on channel=0 note=62 velocity=0 time=8
control_change channel=0 control=64 value=97 time=78
control_change channel=0 control=64 value=77 time=16
note_on channel=0 note=58 velocity=95 time=14
control_change channel=0 control=64 value=76 time=1
note_on channel=0 note=44 velocity=91 time=1
note_on channel=0 note=70 velocity=86 time=1
note_on channel=0 note=65 velocity=72 time=5
note_on channel=0 note=32 velocity=81 time=1
control_change channel=0 control=64 value=85 time=7
note_on channel=0 note=62 velocity=47 time=6
control_change channel=0 control=64 value=98 time=10
control_change channel=0 control=64 value=127 time=14
note_on channel=0 note=62 velocity=0 time=1
note_on channel=0 note=44 velocity=0 time=2
note_on channel=0 note=58 velocity=0 time=19
note_on channel=0 note=70 velocity=0 time=48
note_on channel=0 note=32 velocity=0 time=18
control_change channel=0 control=64 value=77 time=25
note_on channel=0 note=65 velocity=0 time=9
control_change channel=0 control=64 value=0 time=7
note_on channel=0 note=43 velocity=103 time=14
note_on channel=0 note=31 velocity=69 time=6
note_on channel=0 note=58 velocity=85 time=0
note_on channel=0 note=70 velocity=88 time=8
note_on channel=0 note=63 velocity=74 time=2
note_on channel=0 note=58 velocity=0 time=10
control_change channel=0 control=64 value=51 time=6
note_on channel=0 note=31 velocity=0 time=3
note_on channel=0 note=43 velocity=0 time=0
note_on channel=0 note=63 velocity=0 time=4
control_change channel=0 control=64 value=73 time=8
note_on channel=0 note=70 velocity=0 time=14
control_change channel=0 control=64 value=95 time=1
control_change channel=0 control=64 value=127 time=15
note_on channel=0 note=75 velocity=97 time=224
note_on channel=0 note=70 velocity=76 time=1
note_on channel=0 note=67 velocity=75 time=2
note_on channel=0 note=82 velocity=103 time=0
note_on channel=0 note=94 velocity=103 time=0
note_on channel=0 note=82 velocity=0 time=37
note_on channel=0 note=94 velocity=0 time=0
note_on channel=0 note=75 velocity=0 time=109
note_on channel=0 note=70 velocity=0 time=12
note_on channel=0 note=67 velocity=0 time=7
note_on channel=0 note=73 velocity=17 time=98
note_on channel=0 note=73 velocity=0 time=49
note_on channel=0 note=85 velocity=98 time=49
note_on channel=0 note=73 velocity=101 time=1
note_on channel=0 note=82 velocity=91 time=1
note_on channel=0 note=70 velocity=86 time=4
note_on channel=0 note=67 velocity=78 time=3
note_on channel=0 note=73 velocity=0 time=81
note_on channel=0 note=85 velocity=0 time=7
note_on channel=0 note=82 velocity=0 time=24
note_on channel=0 note=68 velocity=82 time=52
note_on channel=0 note=70 velocity=0 time=2
note_on channel=0 note=83 velocity=98 time=1
note_on channel=0 note=71 velocity=88 time=4
note_on channel=0 note=67 velocity=0 time=4
note_on channel=0 note=75 velocity=78 time=0
note_on channel=0 note=68 velocity=0 time=10
note_on channel=0 note=71 velocity=0 time=8
note_on channel=0 note=75 velocity=0 time=3
note_on channel=0 note=83 velocity=0 time=5
control_change channel=0 control=64 value=86 time=153
control_change channel=0 control=64 value=0 time=15
note_on channel=0 note=71 velocity=86 time=5
note_on channel=0 note=59 velocity=77 time=5
note_on channel=0 note=56 velocity=85 time=1
note_on channel=0 note=63 velocity=71 time=3
note_on channel=0 note=44 velocity=80 time=3
note_on channel=0 note=56 velocity=0 time=43
control_change channel=0 control=64 value=53 time=1
note_on channel=0 note=44 velocity=0 time=11
control_change channel=0 control=64 value=69 time=4
control_change channel=0 control=64 value=83 time=15
control_change channel=0 control=64 value=100 time=15
control_change channel=0 control=64 value=127 time=14
note_on channel=0 note=59 velocity=0 time=117
note_on channel=0 note=71 velocity=0 time=1
note_on channel=0 note=63 velocity=0 time=19
note_on channel=0 note=71 velocity=91 time=105
note_on channel=0 note=59 velocity=86 time=5
note_on channel=0 note=44 velocity=87 time=3
note_on channel=0 note=63 velocity=75 time=2
note_on channel=0 note=32 velocity=72 time=4
note_on channel=0 note=59 velocity=0 time=35
note_on channel=0 note=44 velocity=0 time=14
note_on channel=0 note=71 velocity=0 time=16
note_on channel=0 note=63 velocity=0 time=37
note_on channel=0 note=32 velocity=0 time=3
control_change channel=0 control=64 value=70 time=28
control_change channel=0 control=64 value=0 time=15
note_on channel=0 note=43 velocity=105 time=21
note_on channel=0 note=58 velocity=94 time=3
note_on channel=0 note=70 velocity=97 time=2
note_on channel=0 note=31 velocity=65 time=1
note_on channel=0 note=58 velocity=0 time=14
control_change channel=0 control=64 value=60 time=6
note_on channel=0 note=43 velocity=0 time=4
note_on channel=0 note=31 velocity=0 time=8
control_change channel=0 control=64 value=77 time=3
note_on channel=0 note=70 velocity=0 time=13
control_change channel=0 control=64 value=99 time=2
control_change channel=0 control=64 value=127 time=16
note_on channel=0 note=75 velocity=96 time=229
note_on channel=0 note=70 velocity=83 time=1
note_on channel=0 note=82 velocity=105 time=0
note_on channel=0 note=94 velocity=100 time=0
note_on channel=0 note=67 velocity=77 time=6
note_on channel=0 note=82 velocity=0 time=29
note_on channel=0 note=94 velocity=0 time=3
note_on channel=0 note=92 velocity=24 time=7
note_on channel=0 note=92 velocity=0 time=46
note_on channel=0 note=75 velocity=0 time=62
note_on channel=0 note=70 velocity=0 time=20
note_on channel=0 note=67 velocity=0 time=5
note_on channel=0 note=85 velocity=103 time=184
note_on channel=0 note=73 velocity=104 time=3
note_on channel=0 note=82 velocity=94 time=0
note_on channel=0 note=70 velocity=88 time=3
note_on channel=0 note=67 velocity=79 time=3
note_on channel=0 note=73 velocity=0 time=113
note_on channel=0 note=85 velocity=0 time=2
note_on channel=0 note=82 velocity=0 time=18
note_on channel=0 note=68 velocity=80 time=48
note_on channel=0 note=70 velocity=0 time=7
note_on channel=0 note=83 velocity=96 time=1
note_on channel=0 note=71 velocity=95 time=5
note_on channel=0 note=67 velocity=0 time=4
note_on channel=0 note=75 velocity=77 time=3
note_on channel=0 note=68 velocity=0 time=1
note_on channel=0 note=71 velocity=0 time=12
note_on channel=0 note=75 velocity=0 time=8
note_on channel=0 note=83 velocity=0 time=10
control_change channel=0 control=64 value=102 time=141
control_change channel=0 control=64 value=67 time=15
note_on channel=0 note=71 velocity=83 time=12
note_on channel=0 note=59 velocity=76 time=2
control_change channel=0 control=64 value=0 time=1
note_on channel=0 note=56 velocity=83 time=1
note_on channel=0 note=63 velocity=68 time=3
note_on channel=0 note=44 velocity=78 time=2
control_change channel=0 control=64 value=46 time=24
note_on channel=0 note=56 velocity=0 time=6
control_change channel=0 control=64 value=66 time=9
note_on channel=0 note=44 velocity=0 time=4
control_change channel=0 control=64 value=76 time=12
control_change channel=0 control=64 value=87 time=15
control_change channel=0 control=64 value=102 time=16
control_change channel=0 control=64 value=127 time=14
note_on channel=0 note=71 velocity=0 time=111
note_on channel=0 note=59 velocity=0 time=3
note_on channel=0 note=63 velocity=0 time=7
control_change channel=0 control=64 value=109 time=99
control_change channel=0 control=64 value=80 time=16
note_on channel=0 note=71 velocity=74 time=6
note_on channel=0 note=59 velocity=64 time=3
note_on channel=0 note=63 velocity=59 time=0
control_change channel=0 control=64 value=69 time=6
note_on channel=0 note=44 velocity=63 time=5
note_on channel=0 note=32 velocity=52 time=9
control_change channel=0 control=64 value=73 time=2
control_change channel=0 control=64 value=80 time=15
note_on channel=0 note=44 velocity=0 time=0
control_change channel=0 control=64 value=89 time=15
note_on channel=0 note=59 velocity=0 time=0
note_on channel=0 note=32 velocity=0 time=7
note_on channel=0 note=71 velocity=0 time=8
control_change channel=0 control=64 value=97 time=1
control_change channel=0 control=64 value=110 time=15
note_on channel=0 note=63 velocity=0 time=15
control_change channel=0 control=64 value=127 time=1
control_change channel=0 control=64 value=101 time=45
control_change channel=0 control=64 value=79 time=15
note_on channel=0 note=43 velocity=83 time=12
control_change channel=0 control=64 value=78 time=3
note_on channel=0 note=70 velocity=78 time=0
note_on channel=0 note=58 velocity=71 time=7
note_on channel=0 note=31 velocity=52 time=3
control_change channel=0 control=64 value=92 time=5
note_on channel=0 note=43 velocity=0 time=8
note_on channel=0 note=63 velocity=55 time=1
control_change channel=0 control=64 value=127 time=6
note_on channel=0 note=31 velocity=0 time=14
note_on channel=0 note=58 velocity=0 time=58
note_on channel=0 note=70 velocity=0 time=18
note_on channel=0 note=63 velocity=0 time=40
control_change channel=0 control=64 value=87 time=7
control_change channel=0 control=64 value=0 time=15
note_on channel=0 note=59 velocity=88 time=13
note_on channel=0 note=56 velocity=82 time=1
note_on channel=0 note=63 velocity=69 time=0
note_on channel=0 note=71 velocity=94 time=0
note_on channel=0 note=44 velocity=85 time=1
note_on channel=0 note=56 velocity=0 time=21
control_change channel=0 control=64 value=40 time=9
note_on channel=0 note=44 velocity=0 time=0
control_change channel=0 control=64 value=66 time=17
control_change channel=0 control=64 value=76 time=15
control_change channel=0 control=64 value=93 time=15
control_change channel=0 control=64 value=110 time=15
control_change channel=0 control=64 value=121 time=15
control_change channel=0 control=64 value=122 time=15
control_change channel=0 control=64 value=124 time=30
control_change channel=0 control=64 value=127 time=16
note_on channel=0 note=71 velocity=0 time=103
note_on channel=0 note=59 velocity=0 time=3
note_on channel=0 note=63 velocity=0 time=16
control_change channel=0 control=64 value=88 time=35
control_change channel=0 control=64 value=0 time=16
note_on channel=0 note=44 velocity=78 time=22
note_on channel=0 note=71 velocity=85 time=4
note_on channel=0 note=32 velocity=68 time=4
note_on channel=0 note=59 velocity=73 time=3
note_on channel=0 note=63 velocity=77 time=4
note_on channel=0 note=44 velocity=0 time=20
control_change channel=0 control=64 value=65 time=3
note_on channel=0 note=32 velocity=0 time=14
control_change channel=0 control=64 value=76 time=2
control_change channel=0 control=64 value=91 time=14
note_on channel=0 note=59 velocity=0 time=4
control_change channel=0 control=64 value=127 time=11
note_on channel=0 note=71 velocity=0 time=18
control_change channel=0 control=64 value=102 time=30
note_on channel=0 note=63 velocity=0 time=5
control_change channel=0 control=64 value=68 time=10
control_change channel=0 control=64 value=0 time=15
note_on channel=0 note=43 velocity=94 time=12
control_change channel=0 control=64 value=69 time=3
note_on channel=0 note=58 velocity=91 time=9
note_on channel=0 note=70 velocity=91 time=1
note_on channel=0 note=31 velocity=58 time=1
control_change channel=0 control=64 value=84 time=4
note_on channel=0 note=63 velocity=55 time=4
note_on channel=0 note=43 velocity=0 time=2
control_change channel=0 control=64 value=127 time=9
note_on channel=0 note=31 velocity=0 time=19
note_on channel=0 note=58 velocity=0 time=33
note_on channel=0 note=70 velocity=0 time=43
note_on channel=0 note=63 velocity=0 time=34
control_change channel=0 control=64 value=87 time=9
control_change channel=0 control=64 value=0 time=15
note_on channel=0 note=59 velocity=103 time=30
note_on channel=0 note=71 velocity=102 time=0
note_on channel=0 note=56 velocity=90 time=3
note_on channel=0 note=63 velocity=83 time=2
note_on channel=0 note=68 velocity=87 time=1
note_on channel=0 note=44 velocity=91 time=3
note_on channel=0 note=56 velocity=0 time=14
control_change channel=0 control=64 value=38 time=8
note_on channel=0 note=44 velocity=0 time=3
control_change channel=0 control=64 value=69 time=11
control_change channel=0 control=64 value=81 time=15
control_change channel=0 control=64 value=95 time=16
control_change channel=0 control=64 value=110 time=15
control_change channel=0 control=64 value=119 time=16
control_change channel=0 control=64 value=127 time=14
note_on channel=0 note=59 velocity=0 time=207
note_on channel=0 note=71 velocity=0 time=3
note_on channel=0 note=63 velocity=0 time=24
note_on channel=0 note=68 velocity=0 time=12
control_change channel=0 control=64 value=87 time=35
control_change channel=0 control=64 value=0 time=15
note_on channel=0 note=44 velocity=97 time=10
note_on channel=0 note=71 velocity=96 time=2
note_on channel=0 note=68 velocity=75 time=1
note_on channel=0 note=59 velocity=92 time=1
note_on channel=0 note=32 velocity=91 time=1
note_on channel=0 note=63 velocity=82 time=12
control_change channel=0 control=64 value=67 time=3
note_on channel=0 note=44 velocity=0 time=2
note_on channel=0 note=32 velocity=0 time=7
control_change channel=0 control=64 value=76 time=7
note_on channel=0 note=34 velocity=31 time=3
note_on channel=0 note=34 velocity=0 time=1
control_change channel=0 control=64 value=94 time=11
control_change channel=0 control=64 value=127 time=15
note_on channel=0 note=59 velocity=0 time=10
note_on channel=0 note=71 velocity=0 time=1
note_on channel=0 note=68 velocity=0 time=33
control_change channel=0 control=64 value=93 time=62
control_change channel=0 control=64 value=0 time=15
note_on channel=0 note=63 velocity=0 time=12
note_on channel=0 note=39 velocity=97 time=35
note_on channel=0 note=27 velocity=87 time=1
note_on channel=0 note=58 velocity=99 time=3
note_on channel=0 note=70 velocity=99 time=1
note_on channel=0 note=58 velocity=0 time=17
control_change channel=0 control=64 value=36 time=6
note_on channel=0 note=27 velocity=0 time=3
note_on channel=0 note=39 velocity=0 time=11
control_change channel=0 control=64 value=75 time=1
control_change channel=0 control=64 value=97 time=16
note_on channel=0 note=70 velocity=0 time=0
control_change channel=0 control=64 value=127 time=15
control_change channel=0 control=64 value=85 time=198
note_on channel=0 note=51 velocity=88 time=3
note_on channel=0 note=63 velocity=100 time=2
note_on channel=0 note=55 velocity=83 time=3
note_on channel=0 note=58 velocity=92 time=0
note_on channel=0 note=82 velocity=94 time=0
note_on channel=0 note=79 velocity=91 time=1
note_on channel=0 note=87 velocity=101 time=1
note_on channel=0 note=75 velocity=100 time=1
control_change channel=0 control=64 value=63 time=5
control_change channel=0 control=64 value=70 time=21
control_change channel=0 control=64 value=89 time=15
control_change channel=0 control=64 value=127 time=16
note_on channel=0 note=63 velocity=0 time=9
note_on channel=0 note=51 velocity=0 time=1
note_on channel=0 note=55 velocity=0 time=8
note_on channel=0 note=58 velocity=0 time=1
note_on channel=0 note=87 velocity=0 time=469
note_on channel=0 note=79 velocity=0 time=2
note_on channel=0 note=75 velocity=0 time=7
note_on channel=0 note=82 velocity=0 time=60
control_change channel=0 control=64 value=73 time=36
note_on channel=0 note=63 velocity=97 time=12
control_change channel=0 control=64 value=0 time=3
note_on channel=0 note=58 velocity=86 time=4
note_on channel=0 note=82 velocity=94 time=1
note_on channel=0 note=55 velocity=76 time=1
note_on channel=0 note=79 velocity=83 time=1
note_on channel=0 note=51 velocity=72 time=1
note_on channel=0 note=75 velocity=102 time=0
note_on channel=0 note=87 velocity=103 time=1
control_change channel=0 control=64 value=49 time=6
control_change channel=0 control=64 value=70 time=15
note_on channel=0 note=63 velocity=0 time=4
note_on channel=0 note=79 velocity=0 time=3
control_change channel=0 control=64 value=87 time=8
note_on channel=0 note=58 velocity=0 time=2
note_on channel=0 note=55 velocity=0 time=4
control_change channel=0 control=64 value=127 time=10
note_on channel=0 note=51 velocity=0 time=4
note_on channel=0 note=82 velocity=0 time=6
note_on channel=0 note=87 velocity=0 time=233
note_on channel=0 note=75 velocity=0 time=3
control_change channel=0 control=64 value=94 time=45
control_change channel=0 control=64 value=0 time=16
note_on channel=0 note=32 velocity=85 time=22
note_on channel=0 note=75 velocity=104 time=0
note_on channel=0 note=44 velocity=95 time=1
note_on channel=0 note=83 velocity=92 time=0
note_on channel=0 note=87 velocity=101 time=0
note_on channel=0 note=80 velocity=83 time=4
control_change channel=0 control=64 value=53 time=19
note_on channel=0 note=32 velocity=0 time=5
control_change channel=0 control=64 value=73 time=10
note_on channel=0 note=44 velocity=0 time=7
control_change channel=0 control=64 value=98 time=8
control_change channel=0 control=64 value=127 time=15
note_on channel=0 note=75 velocity=0 time=171
note_on channel=0 note=51 velocity=61 time=21
note_on channel=0 note=56 velocity=65 time=4
note_on channel=0 note=59 velocity=52 time=1
note_on channel=0 note=87 velocity=0 time=0
note_on channel=0 note=80 velocity=0 time=6
note_on channel=0 note=83 velocity=0 time=2
note_on channel=0 note=59 velocity=0 time=17
note_on channel=0 note=56 velocity=0 time=2
note_on channel=0 note=51 velocity=0 time=1
note_on channel=0 note=59 velocity=75 time=74
note_on channel=0 note=56 velocity=67 time=2
note_on channel=0 note=51 velocity=69 time=3
note_on channel=0 note=59 velocity=0 time=20
note_on channel=0 note=56 velocity=0 time=11
note_on channel=0 note=51 velocity=0 time=4
note_on channel=0 note=59 velocity=86 time=68
note_on channel=0 note=56 velocity=80 time=14
note_on channel=0 note=51 velocity=29 time=14
note_on channel=0 note=52 velocity=50 time=12
note_on channel=0 note=59 velocity=0 time=18
note_on channel=0 note=51 velocity=0 time=4
note_on channel=0 note=52 velocity=0 time=7
note_on channel=0 note=56 velocity=0 time=21
note_on channel=0 note=80 velocity=102 time=18
note_on channel=0 note=68 velocity=97 time=2
control_change channel=0 control=64 value=82 time=9
control_change channel=0 control=64 value=0 time=16
control_change channel=0 control=64 value=60 time=60
control_change channel=0 control=64 value=70 time=16
note_on channel=0 note=51 velocity=68 time=5
note_on channel=0 note=59 velocity=69 time=5
control_change channel=0 control=64 value=81 time=4
note_on channel=0 note=56 velocity=62 time=11
control_change channel=0 control=64 value=95 time=4
note_on channel=0 note=68 velocity=0 time=4
note_on channel=0 note=59 velocity=0 time=9
control_change channel=0 control=64 value=120 time=3
control_change channel=0 control=64 value=127 time=15
note_on channel=0 note=56 velocity=0 time=2
control_change channel=0 control=64 value=107 time=28
note_on channel=0 note=51 velocity=0 time=1
control_change channel=0 control=64 value=84 time=14
note_on channel=0 note=70 velocity=89 time=13
control_change channel=0 control=64 value=71 time=3
note_on channel=0 note=82 velocity=94 time=0
control_change channel=0 control=64 value=75 time=15
note_on channel=0 note=80 velocity=0 time=9
control_change channel=0 control=64 value=86 time=6
note_on channel=0 note=70 velocity=0 time=9
note_on channel=0 note=82 velocity=0 time=4
control_change channel=0 control=64 value=99 time=2
control_change channel=0 control=64 value=117 time=15
control_change channel=0 control=64 value=127 time=16
note_on channel=0 note=52 velocity=64 time=26
note_on channel=0 note=61 velocity=74 time=1
note_on channel=0 note=56 velocity=66 time=4
note_on channel=0 note=56 velocity=0 time=34
note_on channel=0 note=61 velocity=0 time=16
note_on channel=0 note=52 velocity=0 time=12
note_on channel=0 note=75 velocity=81 time=62
note_on channel=0 note=63 velocity=77 time=3
control_change channel=0 control=64 value=97 time=56
control_change channel=0 control=64 value=56 time=15
control_change channel=0 control=64 value=0 time=15
note_on channel=0 note=60 velocity=72 time=19
note_on channel=0 note=56 velocity=68 time=1
note_on channel=0 note=54 velocity=67 time=5
note_on channel=0 note=60 velocity=0 time=18
note_on channel=0 note=56 velocity=0 time=3
note_on channel=0 note=54 velocity=0 time=4
note_on channel=0 note=56 velocity=74 time=82
note_on channel=0 note=54 velocity=68 time=3
note_on channel=0 note=60 velocity=75 time=0
note_on channel=0 note=60 velocity=0 time=24
note_on channel=0 note=54 velocity=0 time=4
note_on channel=0 note=56 velocity=0 time=2
note_on channel=0 note=63 velocity=0 time=17
note_on channel=0 note=54 velocity=67 time=54
note_on channel=0 note=60 velocity=70 time=3
note_on channel=0 note=56 velocity=60 time=14
note_on channel=0 note=60 velocity=0 time=12
note_on channel=0 note=54 velocity=0 time=11
note_on channel=0 note=56 velocity=0 time=0
note_on channel=0 note=75 velocity=0 time=51
note_on channel=0 note=80 velocity=72 time=19
note_on channel=0 note=68 velocity=60 time=5
note_on channel=0 note=61 velocity=59 time=120
note_on channel=0 note=68 velocity=0 time=1
note_on channel=0 note=56 velocity=59 time=2
note_on channel=0 note=80 velocity=0 time=2
note_on channel=0 note=52 velocity=51 time=1
control_change channel=0 control=64 value=52 time=2
control_change channel=0 control=64 value=64 time=14
note_on channel=0 note=61 velocity=0 time=2
note_on channel=0 note=56 velocity=0 time=8
control_change channel=0 control=64 value=67 time=5
note_on channel=0 note=52 velocity=0 time=3
control_change channel=0 control=64 value=70 time=13
control_change channel=0 control=64 value=72 time=14
control_change channel=0 control=64 value=75 time=15
control_change channel=0 control=64 value=78 time=16
note_on channel=0 note=80 velocity=69 time=11
control_change channel=0 control=64 value=81 time=4
note_on channel=0 note=68 velocity=56 time=0
control_change channel=0 control=64 value=83 time=16
control_change channel=0 control=64 value=84 time=15
control_change channel=0 control=64 value=84 time=15
control_change channel=0 control=64 value=86 time=16
control_change channel=0 control=64 value=89 time=15
note_on channel=0 note=61 velocity=70 time=13
control_change channel=0 control=64 value=93 time=3
note_on channel=0 note=52 velocity=59 time=5
control_change channel=0 control=64 value=94 time=10
note_on channel=0 note=61 velocity=0 time=8
note_on channel=0 note=52 velocity=0 time=10
note_on channel=0 note=68 velocity=0 time=6
note_on channel=0 note=80 velocity=0 time=22
control_change channel=0 control=64 value=93 time=28
control_change channel=0 control=64 value=86 time=15
note_on channel=0 note=79 velocity=69 time=15
control_change channel=0 control=64 value=68 time=1
note_on channel=0 note=67 velocity=61 time=1
control_change channel=0 control=64 value=0 time=14
note_on channel=0 note=67 velocity=0 time=85
note_on channel=0 note=61 velocity=70 time=15
note_on channel=0 note=64 velocity=64 time=5
note_on channel=0 note=51 velocity=44 time=16
note_on channel=0 note=64 velocity=0 time=11
note_on channel=0 note=61 velocity=0 time=1
note_on channel=0 note=51 velocity=0 time=22
note_on channel=0 note=79 velocity=0 time=32
note_on channel=0 note=80 velocity=73 time=13
note_on channel=0 note=68 velocity=59 time=16
note_on channel=0 note=68 velocity=0 time=41
note_on channel=0 note=63 velocity=74 time=52
note_on channel=0 note=59 velocity=65 time=7
note_on channel=0 note=51 velocity=42 time=7
note_on channel=0 note=63 velocity=0 time=11
note_on channel=0 note=59 velocity=0 time=12
note_on channel=0 note=51 velocity=0 time=10
note_on channel=0 note=80 velocity=0 time=26
note_on channel=0 note=82 velocity=69 time=30
note_on channel=0 note=70 velocity=55 time=10
note_on channel=0 note=61 velocity=65 time=99
note_on channel=0 note=58 velocity=65 time=1
note_on channel=0 note=70 velocity=0 time=18
note_on channel=0 note=58 velocity=0 time=15
note_on channel=0 note=61 velocity=0 time=0
note_on channel=0 note=51 velocity=22 time=2
note_on channel=0 note=51 velocity=0 time=34
note_on channel=0 note=83 velocity=80 time=37
note_on channel=0 note=71 velocity=70 time=4
note_on channel=0 note=82 velocity=0 time=4
note_on channel=0 note=71 velocity=0 time=17
note_on channel=0 note=83 velocity=0 time=17
note_on channel=0 note=59 velocity=62 time=62
control_change channel=0 control=64 value=63 time=6
note_on channel=0 note=56 velocity=56 time=0
note_on channel=0 note=51 velocity=45 time=6
control_change channel=0 control=64 value=68 time=9
control_change channel=0 control=64 value=70 time=15
note_on channel=0 note=59 velocity=0 time=0
note_on channel=0 note=56 velocity=0 time=1
control_change channel=0 control=64 value=72 time=15
note_on channel=0 note=51 velocity=0 time=1
control_change channel=0 control=64 value=74 time=13
control_change channel=0 control=64 value=78 time=15
control_change channel=0 control=64 value=82 time=16
control_change channel=0 control=64 value=85 time=15
note_on channel=0 note=85 velocity=88 time=20
control_change channel=0 control=64 value=86 time=3
note_on channel=0 note=73 velocity=73 time=6
control_change channel=0 control=64 value=87 time=9
control_change channel=0 control=64 value=87 time=15
note_on channel=0 note=58 velocity=80 time=56
note_on channel=0 note=51 velocity=69 time=6
note_on channel=0 note=55 velocity=57 time=15
note_on channel=0 note=58 velocity=0 time=6
control_change channel=0 control=64 value=88 time=9
note_on channel=0 note=55 velocity=0 time=10
note_on channel=0 note=51 velocity=0 time=1
control_change channel=0 control=64 value=90 time=4
control_change channel=0 control=64 value=91 time=14
control_change channel=0 control=64 value=89 time=16
control_change channel=0 control=64 value=69 time=15
control_change channel=0 control=64 value=0 time=16
note_on channel=0 note=55 velocity=74 time=4
note_on channel=0 note=58 velocity=79 time=3
note_on channel=0 note=52 velocity=69 time=3
note_on channel=0 note=58 velocity=0 time=18
note_on channel=0 note=55 velocity=0 time=13
note_on channel=0 note=52 velocity=0 time=12
note_on channel=0 note=58 velocity=92 time=53
note_on channel=0 note=73 velocity=0 time=1
note_on channel=0 note=55 velocity=69 time=9
note_on channel=0 note=52 velocity=57 time=7
note_on channel=0 note=51 velocity=78 time=1
note_on channel=0 note=85 velocity=0 time=11
control_change channel=0 control=64 value=33 time=1
note_on channel=0 note=55 velocity=0 time=11
control_change channel=0 control=64 value=46 time=3
note_on channel=0 note=58 velocity=0 time=2
note_on channel=0 note=52 velocity=0 time=4
control_change channel=0 control=64 value=54 time=10
note_on channel=0 note=51 velocity=0 time=14
control_change channel=0 control=64 value=61 time=1
control_change channel=0 control=64 value=64 time=15
control_change channel=0 control=64 value=67 time=16
note_on channel=0 note=84 velocity=95 time=12
note_on channel=0 note=72 velocity=87 time=2
control_change channel=0 control=64 value=70 time=1
control_change channel=0 control=64 value=71 time=16
note_on channel=0 note=72 velocity=0 time=0
control_change channel=0 control=64 value=65 time=14
note_on channel=0 note=84 velocity=0 time=0
control_change channel=0 control=64 value=56 time=15
control_change channel=0 control=64 value=61 time=16
control_change channel=0 control=64 value=66 time=15
note_on channel=0 note=54 velocity=84 time=6
note_on channel=0 note=44 velocity=75 time=1
control_change channel=0 control=64 value=70 time=9
control_change channel=0 control=64 value=76 time=15
note_on channel=0 note=54 velocity=0 time=7
control_change channel=0 control=64 value=86 time=7
control_change channel=0 control=64 value=96 time=16
note_on channel=0 note=44 velocity=0 time=7
control_change channel=0 control=64 value=106 time=8
control_change channel=0 control=64 value=114 time=15
control_change channel=0 control=64 value=122 time=16
control_change channel=0 control=64 value=127 time=16
note_on channel=0 note=80 velocity=99 time=15
note_on channel=0 note=92 velocity=104 time=0
note_on channel=0 note=54 velocity=83 time=6
note_on channel=0 note=45 velocity=72 time=3
note_on channel=0 note=51 velocity=79 time=3
note_on channel=0 note=80 velocity=0 time=9
note_on channel=0 note=92 velocity=0 time=11
note_on channel=0 note=54 velocity=0 time=3
note_on channel=0 note=51 velocity=0 time=8
note_on channel=0 note=45 velocity=0 time=23
note_on channel=0 note=54 velocity=85 time=56
note_on channel=0 note=51 velocity=82 time=2
note_on channel=0 note=44 velocity=76 time=6
note_on channel=0 note=51 velocity=0 time=25
note_on channel=0 note=54 velocity=0 time=10
note_on channel=0 note=44 velocity=0 time=10
control_change channel=0 control=64 value=86 time=60
control_change channel=0 control=64 value=0 time=16
note_on channel=0 note=92 velocity=104 time=23
note_on channel=0 note=80 velocity=97 time=1
note_on channel=0 note=49 velocity=95 time=1
note_on channel=0 note=37 velocity=84 time=6
note_on channel=0 note=49 velocity=0 time=19
note_on channel=0 note=37 velocity=0 time=6
control_change channel=0 control=64 value=62 time=4
note_on channel=0 note=93 velocity=48 time=1
control_change channel=0 control=64 value=74 time=15
note_on channel=0 note=82 velocity=23 time=1
note_on channel=0 note=82 velocity=0 time=1
note_on channel=0 note=93 velocity=0 time=10
control_change channel=0 control=64 value=85 time=3
control_change channel=0 control=64 value=99 time=16
control_change channel=0 control=64 value=108 time=15
control_change channel=0 control=64 value=111 time=15
control_change channel=0 control=64 value=112 time=16
control_change channel=0 control=64 value=112 time=15
control_change channel=0 control=64 value=113 time=30
control_change channel=0 control=64 value=115 time=15
note_on channel=0 note=65 velocity=91 time=3
note_on channel=0 note=61 velocity=75 time=6
control_change channel=0 control=64 value=116 time=6
note_on channel=0 note=80 velocity=0 time=0
note_on channel=0 note=92 velocity=0 time=1
note_on channel=0 note=56 velocity=59 time=1
note_on channel=0 note=65 velocity=0 time=5
note_on channel=0 note=61 velocity=0 time=10
note_on channel=0 note=56 velocity=0 time=9
control_change channel=0 control=64 value=117 time=20
control_change channel=0 control=64 value=117 time=15
control_change channel=0 control=64 value=118 time=14
note_on channel=0 note=61 velocity=87 time=15
note_on channel=0 note=65 velocity=87 time=4
note_on channel=0 note=56 velocity=77 time=2
note_on channel=0 note=56 velocity=0 time=17
note_on channel=0 note=65 velocity=0 time=1
control_change channel=0 control=64 value=115 time=8
note_on channel=0 note=61 velocity=0 time=2
control_change channel=0 control=64 value=93 time=13
control_change channel=0 control=64 value=64 time=14
control_change channel=0 control=64 value=0 time=16
note_on channel=0 note=56 velocity=70 time=28
note_on channel=0 note=65 velocity=89 time=4
note_on channel=0 note=61 velocity=77 time=3
note_on channel=0 note=61 velocity=0 time=32
note_on channel=0 note=65 velocity=0 time=0
note_on channel=0 note=56 velocity=0 time=9
note_on channel=0 note=85 velocity=96 time=51
note_on channel=0 note=73 velocity=85 time=5
note_on channel=0 note=65 velocity=78 time=115
note_on channel=0 note=56 velocity=67 time=3
note_on channel=0 note=61 velocity=64 time=13
control_change channel=0 control=64 value=58 time=3
note_on channel=0 note=65 velocity=0 time=12
control_change channel=0 control=64 value=59 time=4
note_on channel=0 note=73 velocity=0 time=1
note_on channel=0 note=61 velocity=0 time=12
control_change channel=0 control=64 value=61 time=2
note_on channel=0 note=56 velocity=0 time=2
control_change channel=0 control=64 value=66 time=14
control_change channel=0 control=64 value=73 time=15
control_change channel=0 control=64 value=77 time=14
note_on channel=0 note=85 velocity=0 time=3
control_change channel=0 control=64 value=78 time=13
note_on channel=0 note=86 velocity=94 time=3
note_on channel=0 note=74 velocity=84 time=3
control_change channel=0 control=64 value=80 time=9
control_change channel=0 control=64 value=83 time=15
note_on channel=0 note=74 velocity=0 time=0
control_change channel=0 control=64 value=88 time=16
note_on channel=0 note=86 velocity=0 time=3
control_change channel=0 control=64 value=93 time=11
control_change channel=0 control=64 value=98 time=16
control_change channel=0 control=64 value=104 time=15
note_on channel=0 note=66 velocity=82 time=2
note_on channel=0 note=57 velocity=65 time=2
note_on channel=0 note=61 velocity=68 time=7
control_change channel=0 control=64 value=112 time=4
control_change channel=0 control=64 value=127 time=15
note_on channel=0 note=61 velocity=0 time=10
note_on channel=0 note=66 velocity=0 time=3
note_on channel=0 note=57 velocity=0 time=3
note_on channel=0 note=80 velocity=87 time=76
note_on channel=0 note=68 velocity=77 time=9
control_change channel=0 control=64 value=99 time=21
control_change channel=0 control=64 value=70 time=15
control_change channel=0 control=64 value=0 time=16
note_on channel=0 note=65 velocity=72 time=37
note_on channel=0 note=62 velocity=65 time=6
note_on channel=0 note=59 velocity=60 time=1
note_on channel=0 note=65 velocity=0 time=17
note_on channel=0 note=62 velocity=0 time=10
note_on channel=0 note=59 velocity=0 time=2
note_on channel=0 note=68 velocity=0 time=55
note_on channel=0 note=59 velocity=75 time=17
note_on channel=0 note=62 velocity=71 time=1
note_on channel=0 note=65 velocity=75 time=2
note_on channel=0 note=65 velocity=0 time=23
note_on channel=0 note=62 velocity=0 time=4
note_on channel=0 note=59 velocity=0 time=5
note_on channel=0 note=65 velocity=86 time=69
note_on channel=0 note=59 velocity=67 time=14
note_on channel=0 note=62 velocity=62 time=4
note_on channel=0 note=65 velocity=0 time=20
note_on channel=0 note=62 velocity=0 time=4
note_on channel=0 note=59 velocity=0 time=7
note_on channel=0 note=80 velocity=0 time=44
note_on channel=0 note=85 velocity=72 time=33
note_on channel=0 note=73 velocity=79 time=9
control_change channel=0 control=64 value=36 time=4
control_change channel=0 control=64 value=61 time=16
note_on channel=0 note=85 velocity=0 time=6
control_change channel=0 control=64 value=67 time=9
control_change channel=0 control=64 value=70 time=14
note_on channel=0 note=73 velocity=0 time=13
control_change channel=0 control=64 value=71 time=3
control_change channel=0 control=64 value=72 time=15
control_change channel=0 control=64 value=73 time=17
note_on channel=0 note=66 velocity=71 time=6
note_on channel=0 note=58 velocity=59 time=7
control_change channel=0 control=64 value=76 time=2
note_on channel=0 note=61 velocity=57 time=7
control_change channel=0 control=64 value=80 time=8
note_on channel=0 note=66 velocity=0 time=2
control_change channel=0 control=64 value=83 time=14
note_on channel=0 note=61 velocity=0 time=6
note_on channel=0 note=58 velocity=0 time=3
control_change channel=0 control=64 value=84 time=6
control_change channel=0 control=64 value=85 time=15
control_change channel=0 control=64 value=87 time=15
control_change channel=0 control=64 value=91 time=15
control_change channel=0 control=64 value=96 time=16
note_on channel=0 note=73 velocity=84 time=5
control_change channel=0 control=64 value=101 time=10
control_change channel=0 control=64 value=103 time=15
control_change channel=0 control=64 value=106 time=15
control_change channel=0 control=64 value=108 time=15
control_change channel=0 control=64 value=111 time=15
note_on channel=0 note=66 velocity=63 time=15
control_change channel=0 control=64 value=111 time=2
note_on channel=0 note=57 velocity=53 time=16
note_on channel=0 note=66 velocity=0 time=4
note_on channel=0 note=57 velocity=0 time=21
control_change channel=0 control=64 value=110 time=66
control_change channel=0 control=64 value=99 time=15
note_on channel=0 note=72 velocity=62 time=15
control_change channel=0 control=64 value=76 time=1
note_on channel=0 note=56 velocity=60 time=5
control_change channel=0 control=64 value=0 time=10
note_on channel=0 note=73 velocity=0 time=16
note_on channel=0 note=66 velocity=59 time=74
note_on channel=0 note=72 velocity=0 time=16
control_change channel=0 control=64 value=52 time=1
note_on channel=0 note=63 velocity=48 time=6
control_change channel=0 control=64 value=64 time=8
control_change channel=0 control=64 value=67 time=15
control_change channel=0 control=64 value=69 time=16
control_change channel=0 control=64 value=71 time=13
control_change channel=0 control=64 value=73 time=16
note_on channel=0 note=66 velocity=0 time=6
control_change channel=0 control=64 value=75 time=9
note_on channel=0 note=73 velocity=76 time=1
note_on channel=0 note=63 velocity=0 time=5
control_change channel=0 control=64 value=78 time=9
control_change channel=0 control=64 value=79 time=16
control_change channel=0 control=64 value=80 time=15
control_change channel=0 control=64 value=81 time=14
control_change channel=0 control=64 value=83 time=16
control_change channel=0 control=64 value=85 time=15
note_on channel=0 note=68 velocity=70 time=17
note_on channel=0 note=64 velocity=64 time=2
control_change channel=0 control=64 value=86 time=5
note_on channel=0 note=73 velocity=0 time=9
control_change channel=0 control=64 value=87 time=7
control_change channel=0 control=64 value=88 time=30
note_on channel=0 note=64 velocity=0 time=4
control_change channel=0 control=64 value=89 time=11
control_change channel=0 control=64 value=85 time=30
note_on channel=0 note=68 velocity=0 time=2
note_on channel=0 note=48 velocity=56 time=1
note_on channel=0 note=75 velocity=85 time=1
control_change channel=0 control=64 value=75 time=12
note_on channel=0 note=56 velocity=0 time=10
control_change channel=0 control=64 value=43 time=5
control_change channel=0 control=64 value=0 time=15
control_change channel=0 control=64 value=50 time=16
control_change channel=0 control=64 value=62 time=14
control_change channel=0 control=64 value=67 time=15
control_change channel=0 control=64 value=72 time=16
note_on channel=0 note=66 velocity=70 time=8
note_on channel=0 note=68 velocity=72 time=0
control_change channel=0 control=64 value=78 time=7
control_change channel=0 control=64 value=84 time=16
note_on channel=0 note=75 velocity=0 time=6
control_change channel=0 control=64 value=90 time=8
control_change channel=0 control=64 value=94 time=15
control_change channel=0 control=64 value=95 time=16
note_on channel=0 note=66 velocity=0 time=0
control_change channel=0 control=64 value=92 time=14
control_change channel=0 control=64 value=80 time=15
note_on channel=0 note=76 velocity=89 time=9
note_on channel=0 note=49 velocity=67 time=1
note_on channel=0 note=48 velocity=0 time=4
control_change channel=0 control=64 value=65 time=2
note_on channel=0 note=68 velocity=0 time=5
control_change channel=0 control=64 value=52 time=10
control_change channel=0 control=64 value=64 time=16
control_change channel=0 control=64 value=68 time=15
control_change channel=0 control=64 value=71 time=15
control_change channel=0 control=64 value=75 time=16
control_change channel=0 control=64 value=81 time=15
note_on channel=0 note=64 velocity=61 time=11
control_change channel=0 control=64 value=86 time=3
note_on channel=0 note=68 velocity=66 time=4
note_on channel=0 note=76 velocity=0 time=1
control_change channel=0 control=64 value=89 time=11
note_on channel=0 note=64 velocity=0 time=4
control_change channel=0 control=64 value=90 time=11
note_on channel=0 note=68 velocity=0 time=5
control_change channel=0 control=64 value=90 time=11
control_change channel=0 control=64 value=90 time=15
control_change channel=0 control=64 value=82 time=14
control_change channel=0 control=64 value=69 time=16
control_change channel=0 control=64 value=0 time=15
note_on channel=0 note=49 velocity=0 time=1
note_on channel=0 note=80 velocity=78 time=7
note_on channel=0 note=44 velocity=58 time=8
note_on channel=0 note=78 velocity=49 time=20
control_change channel=0 control=64 value=33 time=9
control_change channel=0 control=64 value=63 time=16
note_on channel=0 note=78 velocity=0 time=12
control_change channel=0 control=64 value=68 time=3
control_change channel=0 control=64 value=71 time=15
control_change channel=0 control=64 value=73 time=16
note_on channel=0 note=44 velocity=0 time=10
control_change channel=0 control=64 value=75 time=4
note_on channel=0 note=72 velocity=51 time=15
control_change channel=0 control=64 value=78 time=1
note_on channel=0 note=68 velocity=48 time=4
control_change channel=0 control=64 value=82 time=11
note_on channel=0 note=80 velocity=0 time=3
control_change channel=0 control=64 value=84 time=11
note_on channel=0 note=68 velocity=0 time=36
control_change channel=0 control=64 value=84 time=10
control_change channel=0 control=64 value=85 time=24
note_on channel=0 note=78 velocity=71 time=7
note_on channel=0 note=72 velocity=0 time=4
control_change channel=0 control=64 value=85 time=4
control_change channel=0 control=64 value=86 time=15
note_on channel=0 note=68 velocity=50 time=83
note_on channel=0 note=72 velocity=66 time=15
control_change channel=0 control=64 value=84 time=25
control_change channel=0 control=64 value=77 time=14
note_on channel=0 note=78 velocity=0 time=5
control_change channel=0 control=64 value=65 time=11
note_on channel=0 note=75 velocity=72 time=12
control_change channel=0 control=64 value=0 time=3
note_on channel=0 note=72 velocity=0 time=1
note_on channel=0 note=68 velocity=0 time=5
note_on channel=0 note=72 velocity=69 time=102
note_on channel=0 note=68 velocity=68 time=6
control_change channel=0 control=64 value=46 time=7
control_change channel=0 control=64 value=63 time=15
note_on channel=0 note=75 velocity=0 time=5
control_change channel=0 control=64 value=68 time=11
control_change channel=0 control=64 value=71 time=14
control_change channel=0 control=64 value=75 time=16
note_on channel=0 note=68 velocity=0 time=14
control_change channel=0 control=64 value=78 time=1
note_on channel=0 note=57 velocity=88 time=14
control_change channel=0 control=64 value=83 time=1
note_on channel=0 note=75 velocity=75 time=12
control_change channel=0 control=64 value=87 time=4
note_on channel=0 note=72 velocity=0 time=0
control_change channel=0 control=64 value=90 time=15
control_change channel=0 control=64 value=91 time=14
control_change channel=0 control=64 value=92 time=16
control_change channel=0 control=64 value=93 time=15
control_change channel=0 control=64 value=95 time=16
control_change channel=0 control=64 value=97 time=15
note_on channel=0 note=66 velocity=62 time=14
control_change channel=0 control=64 value=98 time=1
note_on channel=0 note=72 velocity=62 time=4
note_on channel=0 note=75 velocity=0 time=6
control_change channel=0 control=64 value=98 time=6
control_change channel=0 control=64 value=98 time=60
control_change channel=0 control=64 value=97 time=16
control_change channel=0 control=64 value=93 time=15
note_on channel=0 note=72 velocity=0 time=3
control_change channel=0 control=64 value=85 time=12
note_on channel=0 note=58 velocity=76 time=11
control_change channel=0 control=64 value=72 time=5
note_on channel=0 note=74 velocity=70 time=5
note_on channel=0 note=66 velocity=0 time=1
control_change channel=0 control=64 value=43 time=9
control_change channel=0 control=64 value=0 time=15
note_on channel=0 note=57 velocity=0 time=4
control_change channel=0 control=64 value=38 time=49
control_change channel=0 control=64 value=56 time=15
control_change channel=0 control=64 value=63 time=15
control_change channel=0 control=64 value=65 time=15
note_on channel=0 note=68 velocity=72 time=3
note_on channel=0 note=65 velocity=57 time=10
control_change channel=0 control=64 value=68 time=2
control_change channel=0 control=64 value=70 time=16
note_on channel=0 note=74 velocity=0 time=12
control_change channel=0 control=64 value=72 time=3
control_change channel=0 control=64 value=75 time=16
note_on channel=0 note=65 velocity=0 time=9
control_change channel=0 control=64 value=77 time=6
control_change channel=0 control=64 value=79 time=15
note_on channel=0 note=75 velocity=83 time=2
note_on channel=0 note=68 velocity=0 time=9
control_change channel=0 control=64 value=81 time=5
control_change channel=0 control=64 value=83 time=15
control_change channel=0 control=64 value=87 time=15
control_change channel=0 control=64 value=89 time=16
control_change channel=0 control=64 value=91 time=14
control_change channel=0 control=64 value=92 time=31
note_on channel=0 note=66 velocity=75 time=2
note_on channel=0 note=75 velocity=0 time=7
note_on channel=0 note=69 velocity=66 time=5
control_change channel=0 control=64 value=92 time=1
control_change channel=0 control=64 value=95 time=16
note_on channel=0 note=66 velocity=0 time=8
control_change channel=0 control=64 value=96 time=7
note_on channel=0 note=69 velocity=0 time=12
control_change channel=0 control=64 value=94 time=19
control_change channel=0 control=64 value=88 time=14
note_on channel=0 note=77 velocity=90 time=12
note_on channel=0 note=50 velocity=63 time=2
control_change channel=0 control=64 value=74 time=2
control_change channel=0 control=64 value=66 time=15
note_on channel=0 note=58 velocity=0 time=5
control_change channel=0 control=64 value=68 time=25
control_change channel=0 control=64 value=70 time=15
control_change channel=0 control=64 value=72 time=16
control_change channel=0 control=64 value=76 time=15
note_on channel=0 note=68 velocity=68 time=5
control_change channel=0 control=64 value=80 time=9
note_on channel=0 note=77 velocity=0 time=2
note_on channel=0 note=70 velocity=67 time=2
control_change channel=0 control=64 value=85 time=12
control_change channel=0 control=64 value=89 time=15
control_change channel=0 control=64 value=90 time=15
note_on channel=0 note=68 velocity=0 time=11
control_change channel=0 control=64 value=89 time=5
control_change channel=0 control=64 value=84 time=15
control_change channel=0 control=64 value=74 time=15
note_on channel=0 note=78 velocity=93 time=8
note_on channel=0 note=70 velocity=0 time=6
control_change channel=0 control=64 value=65 time=1
note_on channel=0 note=51 velocity=64 time=3
control_change channel=0 control=64 value=70 time=27
control_change channel=0 control=64 value=74 time=15
note_on channel=0 note=50 velocity=0 time=10
control_change channel=0 control=64 value=79 time=5
control_change channel=0 control=64 value=86 time=16
control_change channel=0 control=64 value=91 time=15
note_on channel=0 note=66 velocity=76 time=8
note_on channel=0 note=70 velocity=79 time=5
control_change channel=0 control=64 value=94 time=2
note_on channel=0 note=78 velocity=0 time=9
control_change channel=0 control=64 value=96 time=6
note_on channel=0 note=66 velocity=0 time=9
control_change channel=0 control=64 value=96 time=6
note_on channel=0 note=70 velocity=0 time=10
control_change channel=0 control=64 value=96 time=6
control_change channel=0 control=64 value=94 time=30
control_change channel=0 control=64 value=86 time=23
control_change channel=0 control=64 value=72 time=15
note_on channel=0 note=82 velocity=88 time=2
note_on channel=0 note=46 velocity=53 time=12
control_change channel=0 control=64 value=45 time=2
note_on channel=0 note=51 velocity=0 time=2
control_change channel=0 control=64 value=0 time=12
note_on channel=0 note=80 velocity=43 time=3
control_change channel=0 control=64 value=31 time=13
control_change channel=0 control=64 value=54 time=15
control_change channel=0 control=64 value=62 time=15
control_change channel=0 control=64 value=66 time=15
control_change channel=0 control=64 value=68 time=15
control_change channel=0 control=64 value=70 time=15
note_on channel=0 note=74 velocity=60 time=10
note_on channel=0 note=80 velocity=0 time=3
control_change channel=0 control=64 value=72 time=3
note_on channel=0 note=70 velocity=58 time=0
control_change channel=0 control=64 value=74 time=15
note_on channel=0 note=82 velocity=0 time=12
control_change channel=0 control=64 value=75 time=5
control_change channel=0 control=64 value=76 time=15
note_on channel=0 note=46 velocity=0 time=2
control_change channel=0 control=64 value=78 time=12
note_on channel=0 note=70 velocity=0 time=2
control_change channel=0 control=64 value=79 time=14
note_on channel=0 note=80 velocity=83 time=5
control_change channel=0 control=64 value=80 time=10
note_on channel=0 note=74 velocity=0 time=6
control_change channel=0 control=64 value=80 time=9
control_change channel=0 control=64 value=81 time=30
control_change channel=0 control=64 value=82 time=16
control_change channel=0 control=64 value=83 time=15
control_change channel=0 control=64 value=83 time=15
note_on channel=0 note=74 velocity=67 time=0
note_on channel=0 note=70 velocity=57 time=10
control_change channel=0 control=64 value=79 time=6
control_change channel=0 control=64 value=73 time=14
note_on channel=0 note=80 velocity=0 time=1
control_change channel=0 control=64 value=65 time=15
control_change channel=0 control=64 value=64 time=15
control_change channel=0 control=64 value=67 time=15
control_change channel=0 control=64 value=68 time=16
note_on channel=0 note=70 velocity=0 time=3
control_change channel=0 control=64 value=70 time=12
note_on channel=0 note=77 velocity=79 time=0
note_on channel=0 note=74 velocity=0 time=13
control_change channel=0 control=64 value=74 time=2
control_change channel=0 control=64 value=77 time=15
control_change channel=0 control=64 value=80 time=15
control_change channel=0 control=64 value=81 time=16
control_change channel=0 control=64 value=82 time=15
control_change channel=0 control=64 value=83 time=15
note_on channel=0 note=77 velocity=0 time=14
control_change channel=0 control=64 value=83 time=1
note_on channel=0 note=74 velocity=68 time=4
note_on channel=0 note=70 velocity=54 time=8
control_change channel=0 control=64 value=84 time=3
control_change channel=0 control=64 value=86 time=16
control_change channel=0 control=64 value=87 time=15
control_change channel=0 control=64 value=88 time=15
note_on channel=0 note=70 velocity=0 time=17
control_change channel=0 control=64 value=87 time=13
control_change channel=0 control=64 value=81 time=15
note_on channel=0 note=59 velocity=74 time=11
control_change channel=0 control=64 value=71 time=4
note_on channel=0 note=77 velocity=76 time=6
control_change channel=0 control=64 value=53 time=9
note_on channel=0 note=74 velocity=0 time=4
control_change channel=0 control=64 value=47 time=12
control_change channel=0 control=64 value=63 time=15
control_change channel=0 control=64 value=66 time=15
control_change channel=0 control=64 value=69 time=15
control_change channel=0 control=64 value=73 time=15
control_change channel=0 control=64 value=78 time=24
note_on channel=0 note=68 velocity=55 time=14
control_change channel=0 control=64 value=83 time=1
note_on channel=0 note=74 velocity=66 time=1
control_change channel=0 control=64 value=88 time=14
control_change channel=0 control=64 value=89 time=15
control_change channel=0 control=64 value=90 time=15
control_change channel=0 control=64 value=91 time=30
note_on channel=0 note=77 velocity=0 time=15
note_on channel=0 note=68 velocity=0 time=5
note_on channel=0 note=74 velocity=0 time=2
control_change channel=0 control=64 value=90 time=24
control_change channel=0 control=64 value=87 time=15
note_on channel=0 note=76 velocity=74 time=14
control_change channel=0 control=64 value=79 time=1
control_change channel=0 control=64 value=68 time=15
note_on channel=0 note=60 velocity=45 time=3
control_change channel=0 control=64 value=32 time=13
control_change channel=0 control=64 value=0 time=16
note_on channel=0 note=59 velocity=0 time=5
control_change channel=0 control=64 value=34 time=10
control_change channel=0 control=64 value=51 time=16
control_change channel=0 control=64 value=57 time=15
control_change channel=0 control=64 value=62 time=14
control_change channel=0 control=64 value=64 time=16
control_change channel=0 control=64 value=67 time=15
note_on channel=0 note=72 velocity=63 time=4
note_on channel=0 note=67 velocity=56 time=3
control_change channel=0 control=64 value=70 time=8
control_change channel=0 control=64 value=71 time=15
control_change channel=0 control=64 value=73 time=15
note_on channel=0 note=76 velocity=0 time=7
control_change channel=0 control=64 value=74 time=9
note_on channel=0 note=67 velocity=0 time=3
control_change channel=0 control=64 value=76 time=12
control_change channel=0 control=64 value=79 time=15
note_on channel=0 note=72 velocity=0 time=5
note_on channel=0 note=77 velocity=78 time=2
control_change channel=0 control=64 value=82 time=8
control_change channel=0 control=64 value=85 time=15
control_change channel=0 control=64 value=87 time=16
control_change channel=0 control=64 value=88 time=15
control_change channel=0 control=64 value=89 time=15
control_change channel=0 control=64 value=90 time=16
note_on channel=0 note=68 velocity=72 time=7
note_on channel=0 note=72 velocity=70 time=5
control_change channel=0 control=64 value=91 time=3
control_change channel=0 control=64 value=92 time=16
control_change channel=0 control=64 value=93 time=14
control_change channel=0 control=64 value=93 time=15
note_on channel=0 note=68 velocity=0 time=24
control_change channel=0 control=64 value=93 time=7
control_change channel=0 control=64 value=87 time=15
note_on channel=0 note=79 velocity=86 time=0
note_on channel=0 note=52 velocity=61 time=10
note_on channel=0 note=72 velocity=0 time=0
control_change channel=0 control=64 value=77 time=5
note_on channel=0 note=60 velocity=0 time=9
control_change channel=0 control=64 value=65 time=6
note_on channel=0 note=77 velocity=0 time=4
control_change channel=0 control=64 value=63 time=12
control_change channel=0 control=64 value=66 time=15
control_change channel=0 control=64 value=68 time=15
control_change channel=0 control=64 value=70 time=15
control_change channel=0 control=64 value=74 time=15
note_on channel=0 note=79 velocity=0 time=2
note_on channel=0 note=72 velocity=68 time=11
control_change channel=0 control=64 value=78 time=3
note_on channel=0 note=70 velocity=67 time=7
control_change channel=0 control=64 value=82 time=7
control_change channel=0 control=64 value=88 time=15
control_change channel=0 control=64 value=91 time=24
note_on channel=0 note=70 velocity=0 time=17
control_change channel=0 control=64 value=89 time=14
note_on channel=0 note=72 velocity=0 time=8
note_on channel=0 note=80 velocity=84 time=2
control_change channel=0 control=64 value=83 time=4
note_on channel=0 note=53 velocity=67 time=7
control_change channel=0 control=64 value=75 time=8
control_change channel=0 control=64 value=70 time=16
control_change channel=0 control=64 value=72 time=14
control_change channel=0 control=64 value=75 time=15
control_change channel=0 control=64 value=78 time=16
note_on channel=0 note=70 velocity=68 time=13
control_change channel=0 control=64 value=82 time=2
note_on channel=0 note=72 velocity=70 time=4
control_change channel=0 control=64 value=88 time=12
note_on channel=0 note=80 velocity=0 time=0
control_change channel=0 control=64 value=94 time=14
control_change channel=0 control=64 value=98 time=15
control_change channel=0 control=64 value=98 time=16
note_on channel=0 note=70 velocity=0 time=7
control_change channel=0 control=64 value=96 time=24
note_on channel=0 note=72 velocity=0 time=12
control_change channel=0 control=64 value=86 time=2
note_on channel=0 note=79 velocity=79 time=3
note_on channel=0 note=52 velocity=0 time=4
note_on channel=0 note=53 velocity=0 time=2
control_change channel=0 control=64 value=71 time=6
note_on channel=0 note=60 velocity=55 time=8
note_on channel=0 note=48 velocity=57 time=4
control_change channel=0 control=64 value=19 time=5
control_change channel=0 control=64 value=53 time=15
control_change channel=0 control=64 value=63 time=15
control_change channel=0 control=64 value=65 time=16
control_change channel=0 control=64 value=67 time=15
control_change channel=0 control=64 value=71 time=15
note_on channel=0 note=68 velocity=75 time=9
control_change channel=0 control=64 value=75 time=6
note_on channel=0 note=79 velocity=0 time=0
control_change channel=0 control=64 value=79 time=15
note_on channel=0 note=76 velocity=48 time=11
control_change channel=0 control=64 value=82 time=4
note_on channel=0 note=77 velocity=39 time=6
control_change channel=0 control=64 value=84 time=9
control_change channel=0 control=64 value=85 time=15
note_on channel=0 note=68 velocity=0 time=9
control_change channel=0 control=64 value=87 time=7
note_on channel=0 note=76 velocity=0 time=3
note_on channel=0 note=77 velocity=0 time=10
control_change channel=0 control=64 value=90 time=2
note_on channel=0 note=80 velocity=86 time=2
note_on channel=0 note=60 velocity=0 time=3
control_change channel=0 control=64 value=93 time=10
control_change channel=0 control=64 value=95 time=15
note_on channel=0 note=48 velocity=0 time=1
control_change channel=0 control=64 value=96 time=30
control_change channel=0 control=64 value=98 time=15
control_change channel=0 control=64 value=102 time=16
note_on channel=0 note=68 velocity=73 time=7
note_on channel=0 note=77 velocity=76 time=5
control_change channel=0 control=64 value=107 time=3
control_change channel=0 control=64 value=109 time=14
control_change channel=0 control=64 value=110 time=16
control_change channel=0 control=64 value=110 time=15
note_on channel=0 note=68 velocity=0 time=3
note_on channel=0 note=80 velocity=0 time=0
control_change channel=0 control=64 value=109 time=28
control_change channel=0 control=64 value=95 time=15
note_on channel=0 note=55 velocity=79 time=0
note_on channel=0 note=43 velocity=76 time=3
note_on channel=0 note=82 velocity=92 time=7
control_change channel=0 control=64 value=78 time=6
note_on channel=0 note=77 velocity=0 time=0
control_change channel=0 control=64 value=63 time=14
control_change channel=0 control=64 value=63 time=15
control_change channel=0 control=64 value=68 time=16
control_change channel=0 control=64 value=71 time=14
control_change channel=0 control=64 value=75 time=15
note_on channel=0 note=55 velocity=0 time=1
control_change channel=0 control=64 value=82 time=22
note_on channel=0 note=76 velocity=79 time=9
control_change channel=0 control=64 value=90 time=6
note_on channel=0 note=73 velocity=77 time=5
control_change channel=0 control=64 value=99 time=11
note_on channel=0 note=82 velocity=0 time=3
control_change channel=0 control=64 value=105 time=12
control_change channel=0 control=64 value=107 time=16
note_on channel=0 note=76 velocity=0 time=8
control_change channel=0 control=64 value=105 time=7
note_on channel=0 note=73 velocity=0 time=1
control_change channel=0 control=64 value=90 time=14
note_on channel=0 note=43 velocity=0 time=3
control_change channel=0 control=64 value=74 time=13
note_on channel=0 note=56 velocity=85 time=10
note_on channel=0 note=84 velocity=86 time=1
note_on channel=0 note=44 velocity=75 time=1
control_change channel=0 control=64 value=65 time=2
control_change channel=0 control=64 value=70 time=15
control_change channel=0 control=64 value=75 time=16
note_on channel=0 note=86 velocity=9 time=9
note_on channel=0 note=86 velocity=0 time=1
control_change channel=0 control=64 value=81 time=4
note_on channel=0 note=56 velocity=0 time=0
control_change channel=0 control=64 value=91 time=16
control_change channel=0 control=64 value=104 time=15
note_on channel=0 note=44 velocity=0 time=1
note_on channel=0 note=77 velocity=61 time=4
control_change channel=0 control=64 value=127 time=10
note_on channel=0 note=72 velocity=70 time=1
note_on channel=0 note=84 velocity=0 time=33
control_change channel=0 control=64 value=119 time=42
control_change channel=0 control=64 value=81 time=16
note_on channel=0 note=72 velocity=0 time=4
control_change channel=0 control=64 value=0 time=12
note_on channel=0 note=48 velocity=65 time=15
note_on channel=0 note=77 velocity=0 time=5
note_on channel=0 note=36 velocity=64 time=2
note_on channel=0 note=85 velocity=90 time=0
control_change channel=0 control=64 value=23 time=39
control_change channel=0 control=64 value=64 time=14
control_change channel=0 control=64 value=73 time=15
control_change channel=0 control=64 value=83 time=16
note_on channel=0 note=36 velocity=0 time=10
control_change channel=0 control=64 value=95 time=5
control_change channel=0 control=64 value=102 time=15
control_change channel=0 control=64 value=107 time=15
note_on channel=0 note=48 velocity=0 time=0
note_on channel=0 note=76 velocity=74 time=1
note_on channel=0 note=85 velocity=0 time=0
note_on channel=0 note=72 velocity=63 time=6
control_change channel=0 control=64 value=112 time=8
control_change channel=0 control=64 value=126 time=16
control_change channel=0 control=64 value=127 time=15
note_on channel=0 note=72 velocity=0 time=28
note_on channel=0 note=84 velocity=94 time=24
note_on channel=0 note=60 velocity=83 time=5
note_on channel=0 note=52 velocity=73 time=6
note_on channel=0 note=55 velocity=69 time=1
note_on channel=0 note=76 velocity=0 time=1
note_on channel=0 note=72 velocity=86 time=87
note_on channel=0 note=76 velocity=89 time=1
note_on channel=0 note=84 velocity=0 time=13
note_on channel=0 note=72 velocity=0 time=76
note_on channel=0 note=79 velocity=96 time=13
note_on channel=0 note=60 velocity=0 time=17
note_on channel=0 note=76 velocity=0 time=0
note_on channel=0 note=52 velocity=0 time=10
note_on channel=0 note=55 velocity=0 time=8
note_on channel=0 note=72 velocity=84 time=59
note_on channel=0 note=76 velocity=89 time=4
note_on channel=0 note=72 velocity=0 time=77
note_on channel=0 note=55 velocity=81 time=18
note_on channel=0 note=60 velocity=93 time=3
note_on channel=0 note=84 velocity=94 time=4
note_on channel=0 note=52 velocity=77 time=5
note_on channel=0 note=76 velocity=0 time=0
note_on channel=0 note=60 velocity=0 time=18
note_on channel=0 note=81 velocity=31 time=4
note_on channel=0 note=55 velocity=0 time=13
note_on channel=0 note=79 velocity=0 time=7
note_on channel=0 note=52 velocity=0 time=12
note_on channel=0 note=81 velocity=0 time=6
note_on channel=0 note=72 velocity=87 time=20
note_on channel=0 note=76 velocity=80 time=12
note_on channel=0 note=84 velocity=0 time=4
note_on channel=0 note=79 velocity=25 time=1
note_on channel=0 note=72 velocity=0 time=31
note_on channel=0 note=76 velocity=0 time=10
note_on channel=0 note=79 velocity=0 time=3
control_change channel=0 control=64 value=81 time=31
control_change channel=0 control=64 value=0 time=15
note_on channel=0 note=34 velocity=94 time=16
note_on channel=0 note=46 velocity=92 time=1
note_on channel=0 note=87 velocity=103 time=5
control_change channel=0 control=64 value=53 time=23
control_change channel=0 control=64 value=69 time=16
note_on channel=0 note=34 velocity=0 time=1
note_on channel=0 note=46 velocity=0 time=8
control_change channel=0 control=64 value=81 time=5
control_change channel=0 control=64 value=100 time=15
control_change channel=0 control=64 value=127 time=16
note_on channel=0 note=79 velocity=79 time=14
note_on channel=0 note=75 velocity=81 time=7
note_on channel=0 note=87 velocity=0 time=23
note_on channel=0 note=75 velocity=0 time=55
note_on channel=0 note=61 velocity=98 time=28
note_on channel=0 note=55 velocity=73 time=5
note_on channel=0 note=85 velocity=95 time=0
note_on channel=0 note=51 velocity=77 time=1
note_on channel=0 note=79 velocity=0 time=10
note_on channel=0 note=75 velocity=87 time=84
note_on channel=0 note=79 velocity=88 time=0
note_on channel=0 note=85 velocity=0 time=25
note_on channel=0 note=75 velocity=0 time=66
note_on channel=0 note=51 velocity=0 time=16
note_on channel=0 note=82 velocity=105 time=10
note_on channel=0 note=61 velocity=0 time=6
note_on channel=0 note=55 velocity=0 time=9
note_on channel=0 note=79 velocity=0 time=11
note_on channel=0 note=79 velocity=88 time=70
note_on channel=0 note=75 velocity=85 time=4
note_on channel=0 note=82 velocity=0 time=15
note_on channel=0 note=75 velocity=0 time=90
note_on channel=0 note=61 velocity=94 time=6
note_on channel=0 note=55 velocity=86 time=2
note_on channel=0 note=85 velocity=93 time=10
note_on channel=0 note=51 velocity=89 time=3
note_on channel=0 note=61 velocity=0 time=10
note_on channel=0 note=79 velocity=0 time=6
note_on channel=0 note=55 velocity=0 time=9
note_on channel=0 note=51 velocity=0 time=26
note_on channel=0 note=86 velocity=21 time=6
note_on channel=0 note=86 velocity=0 time=40
note_on channel=0 note=79 velocity=88 time=20
note_on channel=0 note=75 velocity=81 time=1
note_on channel=0 note=75 velocity=0 time=49
note_on channel=0 note=85 velocity=0 time=10
note_on channel=0 note=79 velocity=0 time=8
control_change channel=0 control=64 value=96 time=58
control_change channel=0 control=64 value=38 time=16
note_on channel=0 note=39 velocity=94 time=13
control_change channel=0 control=64 value=0 time=2
note_on channel=0 note=27 velocity=80 time=6
note_on channel=0 note=79 velocity=102 time=7
note_on channel=0 note=82 velocity=99 time=0
note_on channel=0 note=91 velocity=112 time=0
note_on channel=0 note=27 velocity=0 time=19
note_on channel=0 note=39 velocity=0 time=10
control_change channel=0 control=64 value=57 time=3
control_change channel=0 control=64 value=71 time=15
control_change channel=0 control=64 value=83 time=16
control_change channel=0 control=64 value=98 time=14
note_on channel=0 note=91 velocity=0 time=11
control_change channel=0 control=64 value=109 time=5
control_change channel=0 control=64 value=117 time=15
control_change channel=0 control=64 value=126 time=15
control_change channel=0 control=64 value=127 time=16
note_on channel=0 note=79 velocity=0 time=0
note_on channel=0 note=87 velocity=102 time=38
note_on channel=0 note=82 velocity=0 time=16
note_on channel=0 note=87 velocity=0 time=48
control_change channel=0 control=64 value=97 time=72
note_on channel=0 note=76 velocity=100 time=7
note_on channel=0 note=85 velocity=110 time=2
note_on channel=0 note=64 velocity=80 time=1
note_on channel=0 note=70 velocity=84 time=0
note_on channel=0 note=68 velocity=81 time=1
note_on channel=0 note=73 velocity=93 time=2
control_change channel=0 control=64 value=66 time=2
control_change channel=0 control=64 value=40 time=16
control_change channel=0 control=64 value=67 time=15
note_on channel=0 note=73 velocity=0 time=10
control_change channel=0 control=64 value=75 time=5
note_on channel=0 note=76 velocity=0 time=14
control_change channel=0 control=64 value=88 time=1
control_change channel=0 control=64 value=108 time=15
control_change channel=0 control=64 value=127 time=16
note_on channel=0 note=82 velocity=93 time=24
note_on channel=0 note=85 velocity=0 time=33
note_on channel=0 note=70 velocity=0 time=11
note_on channel=0 note=68 velocity=0 time=11
note_on channel=0 note=64 velocity=0 time=6
note_on channel=0 note=80 velocity=96 time=37
note_on channel=0 note=82 velocity=0 time=27
note_on channel=0 note=76 velocity=89 time=61
note_on channel=0 note=80 velocity=0 time=6
note_on channel=0 note=76 velocity=0 time=48
note_on channel=0 note=73 velocity=91 time=53
note_on channel=0 note=64 velocity=97 time=6
note_on channel=0 note=52 velocity=88 time=6
note_on channel=0 note=64 velocity=0 time=12
note_on channel=0 note=52 velocity=0 time=12
note_on channel=0 note=73 velocity=0 time=47
note_on channel=0 note=68 velocity=84 time=5
note_on channel=0 note=68 velocity=0 time=45
note_on channel=0 note=79 velocity=90 time=82
note_on channel=0 note=63 velocity=92 time=3
note_on channel=0 note=67 velocity=90 time=2
control_change channel=0 control=64 value=83 time=3
note_on channel=0 note=51 velocity=83 time=0
note_on channel=0 note=70 velocity=82 time=0
control_change channel=0 control=64 value=0 time=16
note_on channel=0 note=63 velocity=0 time=0
note_on channel=0 note=51 velocity=0 time=9
note_on channel=0 note=79 velocity=0 time=30
note_on channel=0 note=67 velocity=0 time=10
note_on channel=0 note=75 velocity=83 time=36
note_on channel=0 note=70 velocity=0 time=4
note_on channel=0 note=75 velocity=0 time=57
note_on channel=0 note=64 velocity=103 time=42
note_on channel=0 note=58 velocity=89 time=3
note_on channel=0 note=73 velocity=101 time=0
note_on channel=0 note=61 velocity=97 time=1
note_on channel=0 note=56 velocity=81 time=2
note_on channel=0 note=52 velocity=81 time=2
control_change channel=0 control=64 value=62 time=2
control_change channel=0 control=64 value=90 time=15
control_change channel=0 control=64 value=127 time=15
note_on channel=0 note=64 velocity=0 time=2
note_on channel=0 note=61 velocity=0 time=21
note_on channel=0 note=56 velocity=0 time=25
note_on channel=0 note=58 velocity=0 time=0
note_on channel=0 note=52 velocity=0 time=13
note_on channel=0 note=70 velocity=85 time=1
note_on channel=0 note=73 velocity=0 time=58
note_on channel=0 note=68 velocity=91 time=42
note_on channel=0 note=70 velocity=0 time=32
note_on channel=0 note=64 velocity=84 time=58
note_on channel=0 note=68 velocity=0 time=7
note_on channel=0 note=64 velocity=0 time=57
note_on channel=0 note=52 velocity=90 time=42
note_on channel=0 note=61 velocity=90 time=0
note_on channel=0 note=40 velocity=83 time=4
note_on channel=0 note=52 velocity=0 time=18
note_on channel=0 note=40 velocity=0 time=8
note_on channel=0 note=56 velocity=89 time=52
note_on channel=0 note=61 velocity=0 time=2
note_on channel=0 note=56 velocity=0 time=54
control_change channel=0 control=64 value=105 time=58
control_change channel=0 control=64 value=68 time=16
note_on channel=0 note=51 velocity=95 time=4
note_on channel=0 note=67 velocity=84 time=0
note_on channel=0 note=55 velocity=84 time=4
note_on channel=0 note=39 velocity=81 time=1
note_on channel=0 note=58 velocity=78 time=1
control_change channel=0 control=64 value=0 time=5
note_on channel=0 note=51 velocity=0 time=11
note_on channel=0 note=39 velocity=0 time=13
note_on channel=0 note=55 velocity=0 time=6
note_on channel=0 note=67 velocity=0 time=15
note_on channel=0 note=63 velocity=84 time=45
note_on channel=0 note=58 velocity=0 time=19
note_on channel=0 note=58 velocity=2 time=0
note_on channel=0 note=58 velocity=0 time=1
note_on channel=0 note=63 velocity=0 time=30
note_on channel=0 note=52 velocity=94 time=56
note_on channel=0 note=61 velocity=95 time=5
note_on channel=0 note=46 velocity=83 time=1
note_on channel=0 note=49 velocity=84 time=0
note_on channel=0 note=40 velocity=69 time=2
note_on channel=0 note=44 velocity=77 time=0
control_change channel=0 control=64 value=55 time=8
note_on channel=0 note=52 velocity=0 time=7
control_change channel=0 control=64 value=80 time=9
note_on channel=0 note=49 velocity=0 time=2
note_on channel=0 note=46 velocity=0 time=2
control_change channel=0 control=64 value=102 time=11
note_on channel=0 note=44 velocity=0 time=0
note_on channel=0 note=40 velocity=0 time=10
control_change channel=0 control=64 value=127 time=5
note_on channel=0 note=58 velocity=82 time=43
note_on channel=0 note=61 velocity=0 time=32
note_on channel=0 note=56 velocity=92 time=59
note_on channel=0 note=58 velocity=0 time=23
note_on channel=0 note=52 velocity=88 time=67
note_on channel=0 note=56 velocity=0 time=2
note_on channel=0 note=52 velocity=0 time=72
control_change channel=0 control=64 value=114 time=37
note_on channel=0 note=28 velocity=86 time=0
note_on channel=0 note=40 velocity=88 time=0
note_on channel=0 note=49 velocity=85 time=2
control_change channel=0 control=64 value=72 time=13
note_on channel=0 note=40 velocity=0 time=9
note_on channel=0 note=28 velocity=0 time=4
control_change channel=0 control=64 value=0 time=2
note_on channel=0 note=44 velocity=88 time=80
control_change channel=0 control=64 value=57 time=3
note_on channel=0 note=49 velocity=0 time=12
control_change channel=0 control=64 value=67 time=3
control_change channel=0 control=64 value=71 time=15
control_change channel=0 control=64 value=74 time=16
control_change channel=0 control=64 value=69 time=31
control_change channel=0 control=64 value=0 time=15
note_on channel=0 note=39 velocity=95 time=26
note_on channel=0 note=43 velocity=83 time=2
note_on channel=0 note=51 velocity=94 time=0
note_on channel=0 note=27 velocity=94 time=1
note_on channel=0 note=44 velocity=0 time=8
note_on channel=0 note=39 velocity=0 time=8
note_on channel=0 note=43 velocity=0 time=6
note_on channel=0 note=27 velocity=0 time=2
note_on channel=0 note=51 velocity=0 time=3
note_on channel=0 note=27 velocity=94 time=257
control_change channel=0 control=64 value=69 time=33
control_change channel=0 control=64 value=93 time=16
note_on channel=0 note=27 velocity=0 time=2
control_change channel=0 control=64 value=127 time=12
control_change channel=0 control=64 value=97 time=328
control_change channel=0 control=64 value=76 time=16
control_change channel=0 control=64 value=0 time=15
note_on channel=0 note=51 velocity=83 time=551
note_on channel=0 note=51 velocity=0 time=26
note_on channel=0 note=51 velocity=88 time=329
control_change channel=0 control=64 value=57 time=213
control_change channel=0 control=64 value=65 time=16
control_change channel=0 control=64 value=68 time=15
control_change channel=0 control=64 value=70 time=15
control_change channel=0 control=64 value=72 time=16
note_on channel=0 note=63 velocity=88 time=12
control_change channel=0 control=64 value=76 time=2
control_change channel=0 control=64 value=79 time=16
note_on channel=0 note=51 velocity=0 time=1
control_change channel=0 control=64 value=81 time=14
control_change channel=0 control=64 value=84 time=14
note_on channel=0 note=63 velocity=0 time=4
control_change channel=0 control=64 value=86 time=12
control_change channel=0 control=64 value=87 time=15
control_change channel=0 control=64 value=87 time=15
control_change channel=0 control=64 value=89 time=16
control_change channel=0 control=64 value=91 time=14
control_change channel=0 control=64 value=93 time=16
control_change channel=0 control=64 value=94 time=15
control_change channel=0 control=64 value=93 time=77
control_change channel=0 control=64 value=89 time=39
control_change channel=0 control=64 value=78 time=14
control_change channel=0 control=64 value=64 time=16
control_change channel=0 control=64 value=0 time=15
note_on channel=0 note=58 velocity=86 time=121
note_on channel=0 note=58 velocity=0 time=106
note_on channel=0 note=60 velocity=78 time=2
note_on channel=0 note=61 velocity=78 time=0
note_on channel=0 note=61 velocity=0 time=60
note_on channel=0 note=58 velocity=86 time=25
note_on channel=0 note=60 velocity=0 time=5
note_on channel=0 note=58 velocity=0 time=16
control_change channel=0 control=67 value=8 time=30
control_change channel=0 control=67 value=15 time=14
control_change channel=0 control=67 value=19 time=16
control_change channel=0 control=67 value=24 time=15
control_change channel=0 control=67 value=28 time=16
control_change channel=0 control=67 value=29 time=15
note_on channel=0 note=72 velocity=53 time=7
note_on channel=0 note=56 velocity=44 time=6
note_on channel=0 note=72 velocity=0 time=49
note_on channel=0 note=84 velocity=47 time=66
note_on channel=0 note=84 velocity=0 time=28
note_on channel=0 note=56 velocity=0 time=2
control_change channel=0 control=67 value=29 time=24
control_change channel=0 control=67 value=30 time=15
note_on channel=0 note=51 velocity=36 time=14
note_on channel=0 note=82 velocity=63 time=10
control_change channel=0 control=67 value=31 time=6
control_change channel=0 control=67 value=34 time=15
note_on channel=0 note=82 velocity=0 time=6
control_change channel=0 control=67 value=37 time=9
control_change channel=0 control=67 value=39 time=23
control_change channel=0 control=67 value=40 time=16
control_change channel=0 control=67 value=42 time=16
note_on channel=0 note=80 velocity=62 time=14
control_change channel=0 control=67 value=45 time=1
control_change channel=0 control=67 value=49 time=16
note_on channel=0 note=80 velocity=0 time=12
control_change channel=0 control=67 value=51 time=3
control_change channel=0 control=67 value=52 time=14
note_on channel=0 note=51 velocity=0 time=11
control_change channel=0 control=67 value=52 time=35
note_on channel=0 note=79 velocity=66 time=9
note_on channel=0 note=79 velocity=0 time=22
control_change channel=0 control=67 value=52 time=45
note_on channel=0 note=77 velocity=60 time=35
note_on channel=0 note=77 velocity=0 time=28
control_change channel=0 control=67 value=51 time=12
control_change channel=0 control=67 value=51 time=16
control_change channel=0 control=67 value=50 time=15
note_on channel=0 note=51 velocity=54 time=29
control_change channel=0 control=67 value=50 time=2
note_on channel=0 note=75 velocity=56 time=11
control_change channel=0 control=67 value=49 time=3
control_change channel=0 control=67 value=49 time=16
note_on channel=0 note=75 velocity=0 time=8
control_change channel=0 control=67 value=48 time=7
control_change channel=0 control=67 value=48 time=15
control_change channel=0 control=67 value=47 time=16
control_change channel=0 control=67 value=46 time=15
control_change channel=0 control=67 value=46 time=14
control_change channel=0 control=67 value=45 time=16
control_change channel=0 control=67 value=45 time=15
note_on channel=0 note=72 velocity=10 time=0
control_change channel=0 control=67 value=44 time=16
note_on channel=0 note=72 velocity=0 time=29
control_change channel=0 control=67 value=43 time=1
control_change channel=0 control=67 value=43 time=16
control_change channel=0 control=67 value=42 time=15
note_on channel=0 note=67 velocity=58 time=6
note_on channel=0 note=69 velocity=57 time=6
control_change channel=0 control=67 value=41 time=18
control_change channel=0 control=67 value=41 time=30
note_on channel=0 note=69 velocity=0 time=28
control_change channel=0 control=67 value=40 time=2
note_on channel=0 note=67 velocity=0 time=1
note_on channel=0 note=70 velocity=74 time=12
control_change channel=0 control=67 value=40 time=3
note_on channel=0 note=70 velocity=0 time=22
control_change channel=0 control=67 value=39 time=7
control_change channel=0 control=67 value=39 time=16
control_change channel=0 control=67 value=37 time=15
control_change channel=0 control=67 value=35 time=24
note_on channel=0 note=51 velocity=0 time=6
control_change channel=0 control=67 value=33 time=9
note_on channel=0 note=63 velocity=61 time=10
note_on channel=0 note=67 velocity=64 time=2
control_change channel=0 control=67 value=30 time=3
note_on channel=0 note=77 velocity=70 time=0
note_on channel=0 note=70 velocity=57 time=12
control_change channel=0 control=67 value=29 time=3
control_change channel=0 control=67 value=27 time=15
control_change channel=0 control=67 value=25 time=16
note_on channel=0 note=67 velocity=0 time=5
note_on channel=0 note=70 velocity=0 time=3
control_change channel=0 control=67 value=21 time=7
control_change channel=0 control=67 value=17 time=16
control_change channel=0 control=67 value=15 time=15
note_on channel=0 note=75 velocity=76 time=7
control_change channel=0 control=64 value=26 time=8
control_change channel=0 control=67 value=13 time=0
note_on channel=0 note=63 velocity=0 time=11
note_on channel=0 note=77 velocity=0 time=4
control_change channel=0 control=64 value=38 time=1
control_change channel=0 control=67 value=12 time=0
control_change channel=0 control=64 value=43 time=15
control_change channel=0 control=67 value=10 time=0
note_on channel=0 note=75 velocity=0 time=6
control_change channel=0 control=64 value=44 time=8
control_change channel=0 control=67 value=8 time=0
control_change channel=0 control=64 value=42 time=16
control_change channel=0 control=67 value=8 time=0
control_change channel=0 control=64 value=0 time=15
control_change channel=0 control=67 value=0 time=0
note_on channel=0 note=70 velocity=72 time=7
note_on channel=0 note=67 velocity=58 time=12
note_on channel=0 note=74 velocity=65 time=6
note_on channel=0 note=67 velocity=0 time=25
note_on channel=0 note=74 velocity=0 time=8
note_on channel=0 note=70 velocity=0 time=50
note_on channel=0 note=58 velocity=71 time=6
note_on channel=0 note=75 velocity=76 time=0
note_on channel=0 note=75 velocity=0 time=34
control_change channel=0 control=64 value=23 time=4
control_change channel=0 control=64 value=57 time=15
control_change channel=0 control=64 value=64 time=15
control_change channel=0 control=67 value=8 time=0
control_change channel=0 control=64 value=67 time=15
note_on channel=0 note=58 velocity=0 time=3
note_on channel=0 note=61 velocity=75 time=3
control_change channel=0 control=64 value=70 time=9
control_change channel=0 control=67 value=8 time=0
note_on channel=0 note=70 velocity=79 time=5
note_on channel=0 note=60 velocity=68 time=3
note_on channel=0 note=80 velocity=76 time=3
control_change channel=0 control=64 value=72 time=5
control_change channel=0 control=64 value=73 time=14
control_change channel=0 control=64 value=74 time=16
note_on channel=0 note=61 velocity=0 time=0
note_on channel=0 note=70 velocity=0 time=11
control_change channel=0 control=64 value=74 time=4
note_on channel=0 note=60 velocity=0 time=9
note_on channel=0 note=80 velocity=0 time=3
control_change channel=0 control=67 value=9 time=3
note_on channel=0 note=58 velocity=66 time=2
control_change channel=0 control=64 value=73 time=13
note_on channel=0 note=58 velocity=0 time=12
note_on channel=0 note=79 velocity=77 time=2
control_change channel=0 control=64 value=72 time=1
control_change channel=0 control=64 value=69 time=16
control_change channel=0 control=64 value=65 time=15
note_on channel=0 note=79 velocity=0 time=6
control_change channel=0 control=64 value=61 time=9
control_change channel=0 control=67 value=9 time=0
control_change channel=0 control=64 value=52 time=16
control_change channel=0 control=64 value=11 time=15
control_change channel=0 control=64 value=0 time=15
control_change channel=0 control=67 value=10 time=0
note_on channel=0 note=56 velocity=53 time=10
note_on channel=0 note=72 velocity=51 time=10
note_on channel=0 note=80 velocity=67 time=6
control_change channel=0 control=67 value=11 time=5
note_on channel=0 note=72 velocity=0 time=15
control_change channel=0 control=67 value=11 time=45
note_on channel=0 note=80 velocity=0 time=4
note_on channel=0 note=87 velocity=81 time=48
note_on channel=0 note=87 velocity=0 time=29
note_on channel=0 note=56 velocity=0 time=17
note_on channel=0 note=51 velocity=54 time=39
note_on channel=0 note=85 velocity=87 time=12
note_on channel=0 note=51 velocity=0 time=26
note_on channel=0 note=85 velocity=0 time=10
control_change channel=0 control=67 value=11 time=19
note_on channel=0 note=84 velocity=88 time=43
control_change channel=0 control=67 value=10 time=17
note_on channel=0 note=84 velocity=0 time=13
control_change channel=0 control=67 value=10 time=3
note_on channel=0 note=82 velocity=90 time=61
note_on channel=0 note=82 velocity=0 time=32
note_on channel=0 note=80 velocity=73 time=74
note_on channel=0 note=80 velocity=0 time=21
control_change channel=0 control=67 value=9 time=25
note_on channel=0 note=56 velocity=61 time=41
control_change channel=0 control=67 value=10 time=4
note_on channel=0 note=78 velocity=77 time=8
control_change channel=0 control=67 value=12 time=7
note_on channel=0 note=78 velocity=0 time=15
control_change channel=0 control=67 value=13 time=1
control_change channel=0 control=67 value=14 time=15
control_change channel=0 control=67 value=15 time=14
control_change channel=0 control=67 value=16 time=16
control_change channel=0 control=67 value=18 time=15
note_on channel=0 note=76 velocity=78 time=9
control_change channel=0 control=67 value=19 time=6
control_change channel=0 control=67 value=19 time=15
note_on channel=0 note=76 velocity=0 time=2
control_change channel=0 control=67 value=20 time=13
control_change channel=0 control=67 value=22 time=17
control_change channel=0 control=67 value=23 time=15
control_change channel=0 control=67 value=23 time=15
note_on channel=0 note=74 velocity=73 time=33
note_on channel=0 note=72 velocity=61 time=1
control_change channel=0 control=67 value=23 time=11
control_change channel=0 control=67 value=22 time=30
control_change channel=0 control=67 value=21 time=39
note_on channel=0 note=74 velocity=0 time=5
control_change channel=0 control=67 value=21 time=10
note_on channel=0 note=72 velocity=0 time=1
note_on channel=0 note=75 velocity=60 time=13
control_change channel=0 control=67 value=20 time=1
control_change channel=0 control=67 value=19 time=16
control_change channel=0 control=67 value=19 time=15
note_on channel=0 note=75 velocity=0 time=2
control_change channel=0 control=64 value=44 time=28
control_change channel=0 control=67 value=18 time=0
control_change channel=0 control=64 value=56 time=15
control_change channel=0 control=67 value=18 time=0
note_on channel=0 note=56 velocity=0 time=6
control_change channel=0 control=64 value=61 time=9
control_change channel=0 control=64 value=63 time=15
note_on channel=0 note=72 velocity=65 time=0
note_on channel=0 note=68 velocity=72 time=2
note_on channel=0 note=81 velocity=75 time=1
control_change channel=0 control=64 value=61 time=12
note_on channel=0 note=75 velocity=60 time=6
control_change channel=0 control=64 value=56 time=12
control_change channel=0 control=64 value=45 time=15
control_change channel=0 control=64 value=24 time=14
note_on channel=0 note=72 velocity=0 time=3
control_change channel=0 control=64 value=14 time=13
control_change channel=0 control=67 value=17 time=0
control_change channel=0 control=64 value=21 time=15
note_on channel=0 note=75 velocity=0 time=4
note_on channel=0 note=80 velocity=76 time=5
control_change channel=0 control=64 value=35 time=5
control_change channel=0 control=64 value=46 time=16
note_on channel=0 note=81 velocity=0 time=4
control_change channel=0 control=64 value=54 time=11
control_change channel=0 control=64 value=60 time=16
note_on channel=0 note=80 velocity=0 time=11
control_change channel=0 control=64 value=63 time=4
note_on channel=0 note=68 velocity=0 time=8
control_change channel=0 control=64 value=64 time=6
note_on channel=0 note=72 velocity=67 time=9
control_change channel=0 control=64 value=61 time=7
note_on channel=0 note=75 velocity=70 time=1
note_on channel=0 note=79 velocity=71 time=0
control_change channel=0 control=64 value=51 time=14
control_change channel=0 control=67 value=17 time=0
control_change channel=0 control=64 value=0 time=16
note_on channel=0 note=72 velocity=0 time=26
note_on channel=0 note=75 velocity=0 time=6
note_on channel=0 note=80 velocity=79 time=19
note_on channel=0 note=63 velocity=76 time=9
note_on channel=0 note=79 velocity=0 time=5
note_on channel=0 note=80 velocity=0 time=21
control_change channel=0 control=64 value=38 time=5
control_change channel=0 control=64 value=56 time=15
control_change channel=0 control=64 value=61 time=16
control_change channel=0 control=64 value=63 time=15
note_on channel=0 note=66 velocity=74 time=2
control_change channel=0 control=64 value=64 time=13
note_on channel=0 note=63 velocity=0 time=2
note_on channel=0 note=75 velocity=86 time=5
note_on channel=0 note=85 velocity=82 time=5
control_change channel=0 control=64 value=66 time=3
control_change channel=0 control=64 value=67 time=15
control_change channel=0 control=64 value=68 time=15
note_on channel=0 note=64 velocity=65 time=32
note_on channel=0 note=66 velocity=0 time=2
note_on channel=0 note=85 velocity=0 time=1
note_on channel=0 note=75 velocity=0 time=1
note_on channel=0 note=84 velocity=78 time=20
note_on channel=0 note=63 velocity=64 time=31
note_on channel=0 note=84 velocity=0 time=8
note_on channel=0 note=64 velocity=0 time=1
control_change channel=0 control=64 value=66 time=9
note_on channel=0 note=63 velocity=0 time=9
control_change channel=0 control=64 value=57 time=6
control_change channel=0 control=64 value=0 time=16
note_on channel=0 note=88 velocity=95 time=29
note_on channel=0 note=76 velocity=88 time=3
note_on channel=0 note=63 velocity=85 time=5
control_change channel=0 control=67 value=17 time=8
note_on channel=0 note=80 velocity=55 time=18
note_on channel=0 note=76 velocity=0 time=1
note_on channel=0 note=80 velocity=0 time=22
note_on channel=0 note=88 velocity=0 time=10
note_on channel=0 note=61 velocity=79 time=41
note_on channel=0 note=63 velocity=0 time=3
note_on channel=0 note=61 velocity=0 time=50
note_on channel=0 note=87 velocity=87 time=57
note_on channel=0 note=61 velocity=75 time=2
note_on channel=0 note=75 velocity=83 time=0
note_on channel=0 note=87 velocity=0 time=29
note_on channel=0 note=75 velocity=0 time=6
note_on channel=0 note=59 velocity=78 time=71
note_on channel=0 note=61 velocity=0 time=1
note_on channel=0 note=59 velocity=0 time=44
note_on channel=0 note=67 velocity=75 time=61
note_on channel=0 note=79 velocity=80 time=0
note_on channel=0 note=59 velocity=83 time=2
note_on channel=0 note=73 velocity=54 time=16
note_on channel=0 note=67 velocity=0 time=12
note_on channel=0 note=73 velocity=0 time=10
note_on channel=0 note=79 velocity=0 time=3
note_on channel=0 note=58 velocity=89 time=48
note_on channel=0 note=59 velocity=0 time=9
note_on channel=0 note=58 velocity=0 time=42
note_on channel=0 note=58 velocity=80 time=60
note_on channel=0 note=80 velocity=77 time=7
note_on channel=0 note=68 velocity=72 time=2
note_on channel=0 note=71 velocity=57 time=5
note_on channel=0 note=71 velocity=0 time=20
note_on channel=0 note=68 velocity=0 time=2
note_on channel=0 note=80 velocity=0 time=22
control_change channel=0 control=67 value=18 time=1
control_change channel=0 control=67 value=18 time=15
control_change channel=0 control=67 value=20 time=16
note_on channel=0 note=58 velocity=0 time=1
note_on channel=0 note=56 velocity=84 time=4
control_change channel=0 control=67 value=21 time=10
control_change channel=0 control=67 value=22 time=15
note_on channel=0 note=56 velocity=0 time=13
control_change channel=0 control=67 value=24 time=2
control_change channel=0 control=67 value=26 time=15
control_change channel=0 control=67 value=33 time=24
control_change channel=0 control=67 value=45 time=15
control_change channel=0 control=67 value=51 time=16
note_on channel=0 note=56 velocity=83 time=3
note_on channel=0 note=82 velocity=80 time=6
note_on channel=0 note=70 velocity=75 time=3
control_change channel=0 control=67 value=54 time=2
note_on channel=0 note=75 velocity=52 time=9
control_change channel=0 control=67 value=55 time=6
note_on channel=0 note=70 velocity=0 time=7
note_on channel=0 note=75 velocity=0 time=11
note_on channel=0 note=82 velocity=0 time=15
note_on channel=0 note=56 velocity=0 time=24
note_on channel=0 note=54 velocity=78 time=11
control_change channel=0 control=67 value=54 time=38
control_change channel=0 control=67 value=54 time=15
control_change channel=0 control=67 value=53 time=16
control_change channel=0 control=67 value=53 time=15
control_change channel=0 control=67 value=52 time=15
note_on channel=0 note=71 velocity=77 time=22
note_on channel=0 note=83 velocity=76 time=2
note_on channel=0 note=80 velocity=73 time=2
note_on channel=0 note=52 velocity=77 time=3
note_on channel=0 note=54 velocity=0 time=2
note_on channel=0 note=71 velocity=0 time=15
control_change channel=0 control=67 value=52 time=1
note_on channel=0 note=83 velocity=0 time=20
note_on channel=0 note=80 velocity=0 time=11
note_on channel=0 note=52 velocity=0 time=19
note_on channel=0 note=72 velocity=78 time=112
note_on channel=0 note=84 velocity=84 time=2
note_on channel=0 note=78 velocity=60 time=11
note_on channel=0 note=52 velocity=75 time=3
note_on channel=0 note=72 velocity=0 time=12
note_on channel=0 note=78 velocity=0 time=3
note_on channel=0 note=84 velocity=0 time=14
note_on channel=0 note=51 velocity=80 time=60
note_on channel=0 note=52 velocity=0 time=3
note_on channel=0 note=51 velocity=0 time=39
control_change channel=0 control=67 value=51 time=25
note_on channel=0 note=51 velocity=73 time=30
control_change channel=0 control=67 value=51 time=1
note_on channel=0 note=73 velocity=82 time=6
note_on channel=0 note=85 velocity=87 time=2
note_on channel=0 note=73 velocity=0 time=19
control_change channel=0 control=67 value=50 time=18
note_on channel=0 note=85 velocity=0 time=17
note_on channel=0 note=51 velocity=0 time=41
note_on channel=0 note=49 velocity=71 time=1
control_change channel=0 control=67 value=51 time=25
note_on channel=0 note=49 velocity=0 time=18
control_change channel=0 control=67 value=50 time=43
control_change channel=0 control=67 value=50 time=15
note_on channel=0 note=49 velocity=72 time=9
control_change channel=0 control=67 value=49 time=5
note_on channel=0 note=87 velocity=84 time=7
control_change channel=0 control=67 value=49 time=9
note_on channel=0 note=75 velocity=63 time=1
note_on channel=0 note=80 velocity=69 time=6
control_change channel=0 control=67 value=48 time=8
note_on channel=0 note=75 velocity=0 time=4
note_on channel=0 note=80 velocity=0 time=10
control_change channel=0 control=64 value=53 time=1
note_on channel=0 note=87 velocity=0 time=13
control_change channel=0 control=64 value=64 time=3
note_on channel=0 note=49 velocity=0 time=7
control_change channel=0 control=64 value=66 time=7
control_change channel=0 control=67 value=48 time=0
note_on channel=0 note=47 velocity=60 time=2
control_change channel=0 control=64 value=64 time=14
note_on channel=0 note=47 velocity=0 time=14
control_change channel=0 control=64 value=44 time=1
control_change channel=0 control=64 value=0 time=15
control_change channel=0 control=67 value=47 time=123
control_change channel=0 control=67 value=47 time=30
control_change channel=0 control=67 value=46 time=30
control_change channel=0 control=67 value=47 time=31
control_change channel=0 control=67 value=47 time=30
note_on channel=0 note=87 velocity=81 time=73
note_on channel=0 note=75 velocity=69 time=2
note_on channel=0 note=46 velocity=50 time=12
control_change channel=0 control=67 value=46 time=4
note_on channel=0 note=83 velocity=56 time=3
note_on channel=0 note=75 velocity=0 time=6
control_change channel=0 control=67 value=36 time=6
note_on channel=0 note=87 velocity=0 time=3
control_change channel=0 control=64 value=36 time=12
control_change channel=0 control=67 value=0 time=0
note_on channel=0 note=83 velocity=0 time=1
control_change channel=0 control=64 value=63 time=15
note_on channel=0 note=46 velocity=0 time=6
control_change channel=0 control=64 value=67 time=9
note_on channel=0 note=44 velocity=58 time=10
control_change channel=0 control=64 value=68 time=6
control_change channel=0 control=64 value=69 time=15
note_on channel=0 note=44 velocity=0 time=10
control_change channel=0 control=64 value=68 time=5
control_change channel=0 control=64 value=64 time=15
control_change channel=0 control=64 value=0 time=15
note_on channel=0 note=87 velocity=81 time=315
note_on channel=0 note=75 velocity=51 time=12
note_on channel=0 note=39 velocity=53 time=1
note_on channel=0 note=82 velocity=54 time=0
note_on channel=0 note=87 velocity=0 time=20
note_on channel=0 note=75 velocity=0 time=4
note_on channel=0 note=82 velocity=0 time=0
control_change channel=0 control=64 value=65 time=6
control_change channel=0 control=67 value=11 time=0
control_change channel=0 control=64 value=71 time=15
control_change channel=0 control=67 value=13 time=0
control_change channel=0 control=64 value=74 time=16
control_change channel=0 control=67 value=15 time=0
note_on channel=0 note=39 velocity=0 time=9
control_change channel=0 control=64 value=76 time=6
note_on channel=0 note=51 velocity=66 time=1
control_change channel=0 control=64 value=77 time=15
control_change channel=0 control=67 value=14 time=0
control_change channel=0 control=64 value=78 time=15
control_change channel=0 control=67 value=14 time=0
control_change channel=0 control=64 value=79 time=14
control_change channel=0 control=67 value=13 time=0
control_change channel=0 control=64 value=80 time=17
control_change channel=0 control=64 value=81 time=14
control_change channel=0 control=64 value=83 time=15
control_change channel=0 control=64 value=83 time=16
control_change channel=0 control=67 value=13 time=0
control_change channel=0 control=64 value=84 time=15
control_change channel=0 control=64 value=84 time=16
control_change channel=0 control=67 value=12 time=15
control_change channel=0 control=64 value=85 time=15
control_change channel=0 control=67 value=12 time=0
control_change channel=0 control=64 value=86 time=16
control_change channel=0 control=64 value=87 time=15
control_change channel=0 control=64 value=87 time=15
control_change channel=0 control=67 value=11 time=0
control_change channel=0 control=64 value=88 time=15
control_change channel=0 control=64 value=89 time=15
control_change channel=0 control=64 value=91 time=16
control_change channel=0 control=64 value=93 time=14
control_change channel=0 control=64 value=95 time=15
control_change channel=0 control=64 value=96 time=16
control_change channel=0 control=64 value=96 time=15
control_change channel=0 control=64 value=97 time=16
control_change channel=0 control=64 value=99 time=15
control_change channel=0 control=64 value=101 time=14
control_change channel=0 control=64 value=104 time=16
control_change channel=0 control=64 value=108 time=15
control_change channel=0 control=64 value=111 time=15
control_change channel=0 control=67 value=11 time=0
control_change channel=0 control=64 value=116 time=23
note_on channel=0 note=91 velocity=101 time=3
note_on channel=0 note=79 velocity=79 time=8
control_change channel=0 control=64 value=127 time=4
control_change channel=0 control=67 value=10 time=0
note_on channel=0 note=87 velocity=78 time=0
note_on channel=0 note=79 velocity=0 time=13
control_change channel=0 control=67 value=9 time=3
note_on channel=0 note=87 velocity=0 time=6
note_on channel=0 note=91 velocity=0 time=6
control_change channel=0 control=67 value=0 time=3
note_on channel=0 note=63 velocity=92 time=45
note_on channel=0 note=51 velocity=0 time=28
note_on channel=0 note=63 velocity=0 time=3
control_change channel=0 control=64 value=118 time=258
control_change channel=0 control=64 value=104 time=15
control_change channel=0 control=64 value=91 time=14
control_change channel=0 control=64 value=79 time=16
control_change channel=0 control=64 value=66 time=16
control_change channel=0 control=64 value=0 time=15
note_on channel=0 note=87 velocity=96 time=92
note_on channel=0 note=75 velocity=66 time=3
note_on channel=0 note=70 velocity=64 time=6
note_on channel=0 note=67 velocity=59 time=1
note_on channel=0 note=79 velocity=76 time=3
control_change channel=0 control=64 value=58 time=47
control_change channel=0 control=64 value=66 time=16
note_on channel=0 note=79 velocity=0 time=3
control_change channel=0 control=64 value=70 time=11
control_change channel=0 control=64 value=73 time=15
note_on channel=0 note=85 velocity=94 time=11
control_change channel=0 control=64 value=76 time=5
control_change channel=0 control=64 value=80 time=15
note_on channel=0 note=87 velocity=0 time=1
control_change channel=0 control=64 value=85 time=14
note_on channel=0 note=75 velocity=0 time=9
control_change channel=0 control=64 value=89 time=6
note_on channel=0 note=85 velocity=0 time=7
control_change channel=0 control=64 value=92 time=8
control_change channel=0 control=64 value=95 time=16
control_change channel=0 control=64 value=99 time=15
note_on channel=0 note=82 velocity=101 time=10
control_change channel=0 control=64 value=104 time=13
control_change channel=0 control=64 value=108 time=15
note_on channel=0 note=70 velocity=0 time=14
control_change channel=0 control=64 value=111 time=1
note_on channel=0 note=67 velocity=0 time=7
note_on channel=0 note=82 velocity=0 time=0
control_change channel=0 control=64 value=114 time=8
control_change channel=0 control=64 value=116 time=15
control_change channel=0 control=64 value=118 time=16
note_on channel=0 note=79 velocity=94 time=7
control_change channel=0 control=64 value=119 time=8
note_on channel=0 note=79 velocity=0 time=31
note_on channel=0 note=75 velocity=90 time=72
note_on channel=0 note=75 velocity=0 time=48
note_on channel=0 note=70 velocity=91 time=46
control_change channel=0 control=64 value=117 time=30
control_change channel=0 control=64 value=109 time=15
note_on channel=0 note=70 velocity=0 time=6
control_change channel=0 control=64 value=102 time=9
control_change channel=0 control=64 value=94 time=16
note_on channel=0 note=73 velocity=84 time=13
control_change channel=0 control=64 value=87 time=2
control_change channel=0 control=64 value=74 time=15
note_on channel=0 note=71 velocity=83 time=10
control_change channel=0 control=64 value=0 time=6
note_on channel=0 note=73 velocity=0 time=60
note_on channel=0 note=70 velocity=82 time=25
note_on channel=0 note=71 velocity=0 time=3
note_on channel=0 note=70 velocity=0 time=74
note_on channel=0 note=68 velocity=73 time=39
note_on channel=0 note=56 velocity=48 time=13
note_on channel=0 note=56 velocity=0 time=75
note_on channel=0 note=59 velocity=74 time=23
note_on channel=0 note=59 velocity=0 time=68
note_on channel=0 note=68 velocity=0 time=42
note_on channel=0 note=63 velocity=81 time=2
note_on channel=0 note=58 velocity=84 time=7
note_on channel=0 note=63 velocity=0 time=24
note_on channel=0 note=58 velocity=0 time=19
note_on channel=0 note=56 velocity=89 time=56
note_on channel=0 note=56 velocity=0 time=47
note_on channel=0 note=54 velocity=76 time=57
note_on channel=0 note=54 velocity=0 time=28
note_on channel=0 note=52 velocity=74 time=74
note_on channel=0 note=52 velocity=0 time=35
note_on channel=0 note=51 velocity=66 time=81
note_on channel=0 note=63 velocity=78 time=2
note_on channel=0 note=51 velocity=0 time=36
note_on channel=0 note=49 velocity=72 time=76
note_on channel=0 note=49 velocity=0 time=37
note_on channel=0 note=45 velocity=80 time=109
note_on channel=0 note=46 velocity=74 time=117
note_on channel=0 note=45 velocity=0 time=38
note_on channel=0 note=63 velocity=0 time=27
note_on channel=0 note=75 velocity=75 time=41
note_on channel=0 note=55 velocity=66 time=6
note_on channel=0 note=46 velocity=0 time=19
control_change channel=0 control=64 value=11 time=24
note_on channel=0 note=55 velocity=0 time=10
control_change channel=0 control=64 value=29 time=6
control_change channel=0 control=64 value=30 time=15
note_on channel=0 note=51 velocity=78 time=29
control_change channel=0 control=64 value=26 time=1
control_change channel=0 control=64 value=0 time=15
note_on channel=0 note=51 velocity=0 time=34
note_on channel=0 note=51 velocity=82 time=56
note_on channel=0 note=75 velocity=0 time=49
note_on channel=0 note=52 velocity=70 time=54
note_on channel=0 note=70 velocity=87 time=3
note_on channel=0 note=51 velocity=0 time=40
note_on channel=0 note=70 velocity=0 time=27
note_on channel=0 note=73 velocity=90 time=30
note_on channel=0 note=61 velocity=64 time=7
control_change channel=0 control=64 value=28 time=51
note_on channel=0 note=52 velocity=0 time=2
control_change channel=0 control=64 value=60 time=13
note_on channel=0 note=73 velocity=0 time=2
note_on channel=0 note=61 velocity=0 time=12
control_change channel=0 control=64 value=65 time=1
note_on channel=0 note=72 velocity=33 time=2
note_on channel=0 note=55 velocity=57 time=9
note_on channel=0 note=70 velocity=81 time=2
control_change channel=0 control=64 value=66 time=2
note_on channel=0 note=72 velocity=0 time=25
control_change channel=0 control=64 value=66 time=14
note_on channel=0 note=70 velocity=0 time=3
control_change channel=0 control=64 value=65 time=12
control_change channel=0 control=64 value=65 time=15
control_change channel=0 control=64 value=63 time=15
control_change channel=0 control=64 value=61 time=16
note_on channel=0 note=55 velocity=0 time=12
control_change channel=0 control=64 value=56 time=2
note_on channel=0 note=53 velocity=79 time=9
note_on channel=0 note=69 velocity=78 time=4
control_change channel=0 control=64 value=51 time=3
control_change channel=0 control=64 value=47 time=15
control_change channel=0 control=64 value=39 time=15
control_change channel=0 control=64 value=0 time=15
note_on channel=0 note=53 velocity=0 time=64
note_on channel=0 note=66 velocity=93 time=0
note_on channel=0 note=66 velocity=0 time=54
note_on channel=0 note=69 velocity=0 time=15
note_on channel=0 note=65 velocity=85 time=24
note_on channel=0 note=65 velocity=0 time=22
note_on channel=0 note=63 velocity=78 time=82
note_on channel=0 note=63 velocity=0 time=41
note_on channel=0 note=61 velocity=63 time=73
note_on channel=0 note=61 velocity=0 time=28
note_on channel=0 note=60 velocity=64 time=67
note_on channel=0 note=60 velocity=0 time=33
note_on channel=0 note=65 velocity=80 time=83
note_on channel=0 note=58 velocity=65 time=10
note_on channel=0 note=58 velocity=0 time=58
note_on channel=0 note=57 velocity=64 time=49
note_on channel=0 note=57 velocity=0 time=28
note_on channel=0 note=52 velocity=72 time=83
control_change channel=0 control=64 value=49 time=89
note_on channel=0 note=52 velocity=0 time=13
control_change channel=0 control=64 value=62 time=3
note_on channel=0 note=53 velocity=64 time=3
control_change channel=0 control=64 value=65 time=12
control_change channel=0 control=64 value=67 time=15
control_change channel=0 control=64 value=67 time=16
control_change channel=0 control=64 value=68 time=14
note_on channel=0 note=53 velocity=0 time=29
control_change channel=0 control=64 value=68 time=17
note_on channel=0 note=65 velocity=0 time=4
control_change channel=0 control=64 value=69 time=12
note_on channel=0 note=77 velocity=69 time=6
note_on channel=0 note=60 velocity=43 time=2
control_change channel=0 control=64 value=69 time=52
note_on channel=0 note=60 velocity=0 time=4
note_on channel=0 note=57 velocity=54 time=52
control_change channel=0 control=64 value=70 time=20
control_change channel=0 control=64 value=67 time=46
control_change channel=0 control=64 value=0 time=15
note_on channel=0 note=57 velocity=0 time=20
note_on channel=0 note=52 velocity=70 time=13
note_on channel=0 note=77 velocity=0 time=80
note_on channel=0 note=53 velocity=60 time=26
note_on channel=0 note=72 velocity=77 time=0
note_on channel=0 note=52 velocity=0 time=19
note_on channel=0 note=72 velocity=0 time=25
control_change channel=0 control=64 value=23 time=55
note_on channel=0 note=75 velocity=78 time=9
note_on channel=0 note=63 velocity=60 time=2
control_change channel=0 control=64 value=56 time=3
note_on channel=0 note=53 velocity=0 time=7
note_on channel=0 note=73 velocity=79 time=5
note_on channel=0 note=75 velocity=0 time=1
control_change channel=0 control=64 value=63 time=2
control_change channel=0 control=64 value=65 time=16
note_on channel=0 note=73 velocity=0 time=3
control_change channel=0 control=64 value=66 time=11
note_on channel=0 note=63 velocity=0 time=12
control_change channel=0 control=64 value=67 time=3
control_change channel=0 control=64 value=67 time=16
note_on channel=0 note=57 velocity=53 time=15
note_on channel=0 note=72 velocity=85 time=14
control_change channel=0 control=64 value=67 time=16
control_change channel=0 control=64 value=66 time=15
note_on channel=0 note=72 velocity=0 time=5
control_change channel=0 control=64 value=65 time=11
control_change channel=0 control=64 value=56 time=15
control_change channel=0 control=64 value=0 time=15
note_on channel=0 note=57 velocity=0 time=41
note_on channel=0 note=71 velocity=91 time=14
note_on channel=0 note=52 velocity=64 time=4
note_on channel=0 note=53 velocity=71 time=113
note_on channel=0 note=52 velocity=0 time=28
control_change channel=0 control=64 value=36 time=28
control_change channel=0 control=64 value=62 time=16
control_change channel=0 control=64 value=68 time=15
control_change channel=0 control=64 value=70 time=17
control_change channel=0 control=64 value=70 time=15
control_change channel=0 control=64 value=72 time=15
control_change channel=0 control=64 value=74 time=16
note_on channel=0 note=53 velocity=0 time=9
note_on channel=0 note=83 velocity=95 time=5
control_change channel=0 control=64 value=77 time=1
note_on channel=0 note=61 velocity=67 time=6
note_on channel=0 note=71 velocity=0 time=6
control_change channel=0 control=64 value=78 time=3
control_change channel=0 control=64 value=80 time=16
control_change channel=0 control=64 value=82 time=15
control_change channel=0 control=64 value=84 time=16
control_change channel=0 control=64 value=85 time=14
note_on channel=0 note=61 velocity=0 time=4
control_change channel=0 control=64 value=87 time=11
control_change channel=0 control=64 value=89 time=16
note_on channel=0 note=56 velocity=81 time=10
control_change channel=0 control=64 value=92 time=6
control_change channel=0 control=64 value=94 time=16
control_change channel=0 control=64 value=97 time=22
control_change channel=0 control=64 value=98 time=14
note_on channel=0 note=56 velocity=0 time=9
control_change channel=0 control=64 value=99 time=7
control_change channel=0 control=64 value=100 time=15
note_on channel=0 note=50 velocity=91 time=27
control_change channel=0 control=64 value=97 time=4
control_change channel=0 control=64 value=77 time=14
control_change channel=0 control=64 value=0 time=16
control_change channel=0 control=64 value=11 time=30
control_change channel=0 control=64 value=53 time=15
control_change channel=0 control=64 value=64 time=15
note_on channel=0 note=54 velocity=64 time=6
note_on channel=0 note=59 velocity=75 time=7
control_change channel=0 control=64 value=71 time=3
note_on channel=0 note=78 velocity=92 time=0
note_on channel=0 note=50 velocity=0 time=3
control_change channel=0 control=64 value=76 time=12
control_change channel=0 control=64 value=82 time=15
note_on channel=0 note=83 velocity=0 time=1
control_change channel=0 control=64 value=86 time=15
control_change channel=0 control=64 value=90 time=15
control_change channel=0 control=64 value=94 time=16
note_on channel=0 note=54 velocity=0 time=1
control_change channel=0 control=64 value=96 time=14
note_on channel=0 note=54 velocity=51 time=4
note_on channel=0 note=50 velocity=65 time=3
note_on channel=0 note=81 velocity=92 time=0
note_on channel=0 note=59 velocity=0 time=2
note_on channel=0 note=78 velocity=0 time=2
control_change channel=0 control=64 value=99 time=3
control_change channel=0 control=64 value=102 time=16
note_on channel=0 note=54 velocity=0 time=4
note_on channel=0 note=53 velocity=80 time=2
note_on channel=0 note=50 velocity=0 time=2
note_on channel=0 note=80 velocity=73 time=5
control_change channel=0 control=64 value=106 time=2
control_change channel=0 control=64 value=112 time=15
control_change channel=0 control=64 value=117 time=15
note_on channel=0 note=56 velocity=85 time=6
control_change channel=0 control=64 value=118 time=9
control_change channel=0 control=64 value=119 time=16
control_change channel=0 control=64 value=120 time=15
control_change channel=0 control=64 value=127 time=15
note_on channel=0 note=78 velocity=72 time=4
note_on channel=0 note=49 velocity=83 time=14
note_on channel=0 note=81 velocity=0 time=5
note_on channel=0 note=81 velocity=34 time=18
note_on channel=0 note=78 velocity=0 time=22
control_change channel=0 control=64 value=115 time=13
note_on channel=0 note=80 velocity=0 time=3
control_change channel=0 control=64 value=83 time=12
note_on channel=0 note=81 velocity=0 time=11
control_change channel=0 control=64 value=0 time=4
note_on channel=0 note=53 velocity=0 time=10
note_on channel=0 note=59 velocity=94 time=4
note_on channel=0 note=77 velocity=99 time=0
note_on channel=0 note=56 velocity=0 time=25
note_on channel=0 note=49 velocity=0 time=24
control_change channel=0 control=64 value=40 time=13
control_change channel=0 control=64 value=64 time=15
control_change channel=0 control=64 value=69 time=15
control_change channel=0 control=64 value=72 time=15
note_on channel=0 note=77 velocity=0 time=8
control_change channel=0 control=64 value=73 time=7
control_change channel=0 control=64 value=75 time=16
control_change channel=0 control=64 value=78 time=15
note_on channel=0 note=62 velocity=82 time=10
note_on channel=0 note=86 velocity=105 time=2
control_change channel=0 control=64 value=81 time=4
note_on channel=0 note=74 velocity=86 time=3
control_change channel=0 control=64 value=83 time=12
note_on channel=0 note=59 velocity=0 time=6
note_on channel=0 note=74 velocity=0 time=5
control_change channel=0 control=64 value=85 time=4
control_change channel=0 control=64 value=85 time=16
note_on channel=0 note=86 velocity=0 time=9
control_change channel=0 control=64 value=86 time=29
note_on channel=0 note=62 velocity=0 time=32
note_on channel=0 note=61 velocity=78 time=11
note_on channel=0 note=73 velocity=99 time=7
note_on channel=0 note=85 velocity=102 time=0
note_on channel=0 note=61 velocity=0 time=21
control_change channel=0 control=64 value=86 time=20
note_on channel=0 note=73 velocity=0 time=1
note_on channel=0 note=85 velocity=0 time=7
control_change channel=0 control=64 value=87 time=23
control_change channel=0 control=64 value=87 time=15
note_on channel=0 note=59 velocity=89 time=13
control_change channel=0 control=64 value=89 time=1
note_on channel=0 note=83 velocity=100 time=9
note_on channel=0 note=71 velocity=93 time=3
control_change channel=0 control=64 value=89 time=4
control_change channel=0 control=64 value=89 time=15
note_on channel=0 note=71 velocity=0 time=4
note_on channel=0 note=59 velocity=0 time=4
note_on channel=0 note=83 velocity=0 time=7
control_change channel=0 control=64 value=84 time=1
control_change channel=0 control=64 value=75 time=14
control_change channel=0 control=64 value=63 time=15
control_change channel=0 control=64 value=48 time=16
control_change channel=0 control=64 value=63 time=15
note_on channel=0 note=57 velocity=91 time=3
note_on channel=0 note=81 velocity=93 time=9
control_change channel=0 control=64 value=68 time=3
note_on channel=0 note=69 velocity=87 time=0
note_on channel=0 note=83 velocity=84 time=7
control_change channel=0 control=64 value=76 time=9
note_on channel=0 note=69 velocity=0 time=3
note_on channel=0 note=83 velocity=0 time=0
control_change channel=0 control=64 value=84 time=12
note_on channel=0 note=57 velocity=0 time=3
note_on channel=0 note=81 velocity=0 time=11
control_change channel=0 control=64 value=88 time=1
control_change channel=0 control=64 value=83 time=15
control_change channel=0 control=64 value=72 time=15
control_change channel=0 control=64 value=54 time=16
note_on channel=0 note=68 velocity=93 time=3
note_on channel=0 note=56 velocity=89 time=3
note_on channel=0 note=80 velocity=91 time=0
control_change channel=0 control=64 value=60 time=9
note_on channel=0 note=68 velocity=0 time=15
control_change channel=0 control=64 value=68 time=1
note_on channel=0 note=80 velocity=0 time=9
control_change channel=0 control=64 value=72 time=5
note_on channel=0 note=56 velocity=0 time=12
control_change channel=0 control=64 value=76 time=3
control_change channel=0 control=64 value=79 time=16
control_change channel=0 control=64 value=78 time=30
note_on channel=0 note=54 velocity=80 time=6
note_on channel=0 note=66 velocity=99 time=2
note_on channel=0 note=78 velocity=96 time=1
control_change channel=0 control=64 value=79 time=6
control_change channel=0 control=64 value=83 time=15
note_on channel=0 note=54 velocity=0 time=14
control_change channel=0 control=64 value=85 time=2
note_on channel=0 note=66 velocity=0 time=1
note_on channel=0 note=78 velocity=0 time=9
control_change channel=0 control=64 value=85 time=5
control_change channel=0 control=64 value=81 time=15
control_change channel=0 control=64 value=74 time=15
control_change channel=0 control=64 value=67 time=15
note_on channel=0 note=65 velocity=99 time=11
note_on channel=0 note=77 velocity=100 time=0
note_on channel=0 note=53 velocity=91 time=3
control_change channel=0 control=64 value=70 time=1
control_change channel=0 control=64 value=73 time=15
note_on channel=0 note=65 velocity=0 time=11
control_change channel=0 control=64 value=74 time=4
note_on channel=0 note=77 velocity=0 time=3
note_on channel=0 note=53 velocity=0 time=5
control_change channel=0 control=64 value=75 time=8
control_change channel=0 control=64 value=77 time=15
control_change channel=0 control=64 value=79 time=15
control_change channel=0 control=64 value=77 time=15
note_on channel=0 note=50 velocity=85 time=12
control_change channel=0 control=64 value=71 time=3
note_on channel=0 note=74 velocity=100 time=0
note_on channel=0 note=62 velocity=88 time=5
control_change channel=0 control=64 value=60 time=10
note_on channel=0 note=62 velocity=0 time=10
control_change channel=0 control=64 value=52 time=13
note_on channel=0 note=74 velocity=0 time=11
control_change channel=0 control=64 value=63 time=4
note_on channel=0 note=50 velocity=0 time=6
control_change channel=0 control=64 value=66 time=10
control_change channel=0 control=64 value=68 time=15
control_change channel=0 control=64 value=74 time=16
note_on channel=0 note=61 velocity=93 time=11
note_on channel=0 note=49 velocity=89 time=2
control_change channel=0 control=64 value=82 time=2
note_on channel=0 note=73 velocity=97 time=2
control_change channel=0 control=64 value=85 time=14
control_change channel=0 control=64 value=81 time=15
note_on channel=0 note=61 velocity=0 time=4
note_on channel=0 note=49 velocity=0 time=6
control_change channel=0 control=64 value=71 time=5
note_on channel=0 note=73 velocity=0 time=4
control_change channel=0 control=64 value=0 time=12
control_change channel=0 control=64 value=46 time=30
control_change channel=0 control=64 value=64 time=15
note_on channel=0 note=47 velocity=81 time=5
note_on channel=0 note=59 velocity=99 time=2
note_on channel=0 note=71 velocity=99 time=1
control_change channel=0 control=64 value=72 time=7
control_change channel=0 control=64 value=80 time=15
note_on channel=0 note=59 velocity=0 time=2
note_on channel=0 note=47 velocity=0 time=5
note_on channel=0 note=71 velocity=0 time=4
control_change channel=0 control=64 value=82 time=5
control_change channel=0 control=64 value=72 time=15
control_change channel=0 control=64 value=0 time=15
note_on channel=0 note=45 velocity=81 time=41
note_on channel=0 note=57 velocity=95 time=3
note_on channel=0 note=69 velocity=90 time=4
control_change channel=0 control=64 value=40 time=13
control_change channel=0 control=64 value=64 time=15
note_on channel=0 note=67 velocity=54 time=0
note_on channel=0 note=57 velocity=0 time=12
control_change channel=0 control=64 value=70 time=4
note_on channel=0 note=45 velocity=0 time=7
note_on channel=0 note=69 velocity=0 time=2
note_on channel=0 note=67 velocity=0 time=1
control_change channel=0 control=64 value=71 time=5
control_change channel=0 control=64 value=65 time=16
control_change channel=0 control=64 value=0 time=14
note_on channel=0 note=44 velocity=89 time=29
note_on channel=0 note=56 velocity=92 time=0
note_on channel=0 note=68 velocity=91 time=7
note_on channel=0 note=56 velocity=0 time=30
note_on channel=0 note=44 velocity=0 time=1
control_change channel=0 control=64 value=57 time=9
control_change channel=0 control=64 value=69 time=15
note_on channel=0 note=68 velocity=0 time=3
control_change channel=0 control=64 value=74 time=13
control_change channel=0 control=64 value=70 time=15
control_change channel=0 control=64 value=36 time=15
control_change channel=0 control=64 value=0 time=15
note_on channel=0 note=54 velocity=100 time=9
note_on channel=0 note=66 velocity=97 time=0
note_on channel=0 note=42 velocity=89 time=5
note_on channel=0 note=54 velocity=0 time=26
note_on channel=0 note=42 velocity=0 time=10
control_change channel=0 control=64 value=63 time=11
note_on channel=0 note=66 velocity=0 time=3
control_change channel=0 control=64 value=71 time=13
control_change channel=0 control=64 value=78 time=13
control_change channel=0 control=64 value=81 time=15
control_change channel=0 control=64 value=73 time=16
control_change channel=0 control=64 value=0 time=15
note_on channel=0 note=64 velocity=104 time=15
note_on channel=0 note=52 velocity=94 time=2
note_on channel=0 note=40 velocity=93 time=1
note_on channel=0 note=52 velocity=0 time=26
note_on channel=0 note=40 velocity=0 time=8
note_on channel=0 note=64 velocity=0 time=2
control_change channel=0 control=64 value=53 time=7
control_change channel=0 control=64 value=69 time=15
control_change channel=0 control=64 value=75 time=24
control_change channel=0 control=64 value=73 time=14
control_change channel=0 control=64 value=31 time=15
control_change channel=0 control=64 value=0 time=16
note_on channel=0 note=50 velocity=98 time=14
note_on channel=0 note=38 velocity=92 time=4
note_on channel=0 note=62 velocity=92 time=4
control_change channel=0 control=64 value=63 time=23
note_on channel=0 note=38 velocity=0 time=4
note_on channel=0 note=50 velocity=0 time=6
control_change channel=0 control=64 value=71 time=5
control_change channel=0 control=64 value=79 time=17
control_change channel=0 control=64 value=87 time=15
control_change channel=0 control=64 value=93 time=15
control_change channel=0 control=64 value=93 time=15
control_change channel=0 control=64 value=93 time=31
control_change channel=0 control=64 value=83 time=15
note_on channel=0 note=62 velocity=0 time=8
control_change channel=0 control=64 value=38 time=7
control_change channel=0 control=64 value=0 time=15
note_on channel=0 note=61 velocity=101 time=17
note_on channel=0 note=49 velocity=101 time=3
note_on channel=0 note=37 velocity=92 time=3
note_on channel=0 note=39 velocity=51 time=27
note_on channel=0 note=39 velocity=0 time=39
control_change channel=0 control=64 value=61 time=76
control_change channel=0 control=64 value=66 time=15
control_change channel=0 control=64 value=70 time=15
control_change channel=0 control=64 value=76 time=15
control_change channel=0 control=64 value=83 time=15
control_change channel=0 control=64 value=87 time=16
control_change channel=0 control=64 value=88 time=15
control_change channel=0 control=64 value=91 time=15
control_change channel=0 control=64 value=98 time=16
control_change channel=0 control=64 value=115 time=15
control_change channel=0 control=64 value=127 time=14
note_on channel=0 note=49 velocity=0 time=56
note_on channel=0 note=37 velocity=0 time=95
control_change channel=0 control=64 value=93 time=101
control_change channel=0 control=64 value=63 time=15
note_on channel=0 note=42 velocity=98 time=5
note_on channel=0 note=30 velocity=92 time=6
control_change channel=0 control=64 value=0 time=5
control_change channel=0 control=64 value=48 time=14
control_change channel=0 control=64 value=63 time=15
control_change channel=0 control=64 value=66 time=16
control_change channel=0 control=64 value=75 time=15
control_change channel=0 control=64 value=84 time=14
control_change channel=0 control=64 value=93 time=17
control_change channel=0 control=64 value=101 time=15
control_change channel=0 control=64 value=111 time=16
control_change channel=0 control=64 value=127 time=15
note_on channel=0 note=42 velocity=0 time=22
note_on channel=0 note=30 velocity=0 time=19
control_change channel=0 control=64 value=93 time=50
control_change channel=0 control=64 value=63 time=15
control_change channel=0 control=64 value=0 time=15
note_on channel=0 note=44 velocity=98 time=7
note_on channel=0 note=32 velocity=88 time=2
control_change channel=0 control=64 value=49 time=6
control_change channel=0 control=64 value=65 time=15
control_change channel=0 control=64 value=72 time=15
control_change channel=0 control=64 value=84 time=16
control_change channel=0 control=64 value=105 time=15
control_change channel=0 control=64 value=127 time=15
note_on channel=0 note=44 velocity=0 time=50
note_on channel=0 note=32 velocity=0 time=37
note_on channel=0 note=61 velocity=0 time=90
note_on channel=0 note=37 velocity=97 time=33
note_on channel=0 note=50 velocity=95 time=3
note_on channel=0 note=54 velocity=92 time=0
control_change channel=0 control=64 value=75 time=1
note_on channel=0 note=62 velocity=94 time=0
note_on channel=0 note=25 velocity=91 time=1
control_change channel=0 control=64 value=0 time=13
control_change channel=0 control=64 value=24 time=129
control_change channel=0 control=64 value=48 time=16
control_change channel=0 control=64 value=63 time=15
control_change channel=0 control=64 value=70 time=15
control_change channel=0 control=64 value=75 time=18
control_change channel=0 control=64 value=80 time=14
control_change channel=0 control=64 value=84 time=16
control_change channel=0 control=64 value=89 time=15
control_change channel=0 control=64 value=96 time=15
control_change channel=0 control=64 value=102 time=15
control_change channel=0 control=64 value=109 time=20
control_change channel=0 control=64 value=121 time=15
control_change channel=0 control=64 value=127 time=15
note_on channel=0 note=62 velocity=0 time=7
note_on channel=0 note=50 velocity=0 time=80
note_on channel=0 note=54 velocity=0 time=88
note_on channel=0 note=57 velocity=89 time=55
note_on channel=0 note=49 velocity=95 time=1
note_on channel=0 note=58 velocity=11 time=69
note_on channel=0 note=25 velocity=0 time=12
note_on channel=0 note=37 velocity=0 time=37
note_on channel=0 note=49 velocity=0 time=7
note_on channel=0 note=58 velocity=0 time=2
note_on channel=0 note=57 velocity=0 time=51
note_on channel=0 note=50 velocity=92 time=83
note_on channel=0 note=59 velocity=97 time=2
note_on channel=0 note=50 velocity=0 time=23
note_on channel=0 note=59 velocity=0 time=19
control_change channel=0 control=64 value=102 time=202
control_change channel=0 control=64 value=66 time=15
note_on channel=0 note=47 velocity=77 time=0
note_on channel=0 note=56 velocity=96 time=3
note_on channel=0 note=54 velocity=81 time=3
control_change channel=0 control=64 value=0 time=10
note_on channel=0 note=80 velocity=97 time=4
note_on channel=0 note=68 velocity=93 time=1
note_on channel=0 note=74 velocity=57 time=7
note_on channel=0 note=74 velocity=0 time=39
control_change channel=0 control=64 value=51 time=9
control_change channel=0 control=64 value=68 time=17
control_change channel=0 control=64 value=79 time=15
control_change channel=0 control=64 value=93 time=15
control_change channel=0 control=64 value=110 time=15
control_change channel=0 control=64 value=127 time=15
note_on channel=0 note=56 velocity=0 time=19
note_on channel=0 note=54 velocity=0 time=39
note_on channel=0 note=47 velocity=0 time=25
note_on channel=0 note=80 velocity=0 time=53
note_on channel=0 note=68 velocity=0 time=88
control_change channel=0 control=64 value=80 time=141
note_on channel=0 note=37 velocity=88 time=7
note_on channel=0 note=25 velocity=88 time=1
control_change channel=0 control=64 value=0 time=8
note_on channel=0 note=76 velocity=92 time=6
note_on channel=0 note=64 velocity=90 time=2
control_change channel=0 control=64 value=56 time=60
control_change channel=0 control=64 value=67 time=16
control_change channel=0 control=64 value=78 time=14
control_change channel=0 control=64 value=92 time=15
control_change channel=0 control=64 value=117 time=16
control_change channel=0 control=64 value=127 time=14
note_on channel=0 note=25 velocity=0 time=49
note_on channel=0 note=37 velocity=0 time=54
note_on channel=0 note=64 velocity=0 time=3
note_on channel=0 note=65 velocity=95 time=110
note_on channel=0 note=77 velocity=97 time=1
note_on channel=0 note=76 velocity=0 time=20
note_on channel=0 note=65 velocity=0 time=20
note_on channel=0 note=77 velocity=0 time=22
control_change channel=0 control=64 value=105 time=162
control_change channel=0 control=64 value=86 time=16
control_change channel=0 control=64 value=84 time=15
note_on channel=0 note=83 velocity=99 time=2
note_on channel=0 note=62 velocity=89 time=1
note_on channel=0 note=71 velocity=94 time=3
note_on channel=0 note=80 velocity=68 time=6
control_change channel=0 control=64 value=93 time=3
control_change channel=0 control=64 value=103 time=16
control_change channel=0 control=64 value=127 time=15
note_on channel=0 note=62 velocity=0 time=64
note_on channel=0 note=71 velocity=0 time=30
note_on channel=0 note=82 velocity=27 time=37
note_on channel=0 note=83 velocity=0 time=32
note_on channel=0 note=80 velocity=0 time=3
note_on channel=0 note=82 velocity=0 time=12
note_on channel=0 note=37 velocity=92 time=36
note_on channel=0 note=37 velocity=0 time=52
control_change channel=0 control=64 value=103 time=151
note_on channel=0 note=86 velocity=99 time=14
control_change channel=0 control=64 value=76 time=1
note_on channel=0 note=74 velocity=93 time=2
note_on channel=0 note=80 velocity=78 time=3
note_on channel=0 note=58 velocity=83 time=6
note_on channel=0 note=70 velocity=86 time=2
control_change channel=0 control=64 value=65 time=2
control_change channel=0 control=64 value=74 time=15
control_change channel=0 control=64 value=81 time=15
control_change channel=0 control=64 value=90 time=15
control_change channel=0 control=64 value=99 time=16
control_change channel=0 control=64 value=123 time=15
control_change channel=0 control=64 value=127 time=17
note_on channel=0 note=80 velocity=0 time=17
note_on channel=0 note=70 velocity=0 time=43
note_on channel=0 note=71 velocity=96 time=94
note_on channel=0 note=59 velocity=84 time=3
note_on channel=0 note=74 velocity=0 time=27
note_on channel=0 note=58 velocity=0 time=22
note_on channel=0 note=71 velocity=0 time=23
note_on channel=0 note=59 velocity=0 time=20
note_on channel=0 note=86 velocity=0 time=18
control_change channel=0 control=64 value=86 time=82
control_change channel=0 control=64 value=70 time=16
note_on channel=0 note=67 velocity=93 time=3
note_on channel=0 note=55 velocity=88 time=9
note_on channel=0 note=83 velocity=78 time=6
note_on channel=0 note=89 velocity=109 time=0
note_on channel=0 note=77 velocity=96 time=1
control_change channel=0 control=64 value=70 time=3
control_change channel=0 control=64 value=80 time=16
control_change channel=0 control=64 value=87 time=15
control_change channel=0 control=64 value=96 time=14
control_change channel=0 control=64 value=112 time=16
control_change channel=0 control=64 value=127 time=15
note_on channel=0 note=67 velocity=0 time=33
note_on channel=0 note=77 velocity=0 time=74
note_on channel=0 note=83 velocity=0 time=24
note_on channel=0 note=55 velocity=0 time=29
note_on channel=0 note=56 velocity=83 time=19
note_on channel=0 note=68 velocity=96 time=0
note_on channel=0 note=68 velocity=0 time=60
note_on channel=0 note=56 velocity=0 time=44
note_on channel=0 note=89 velocity=0 time=69
control_change channel=0 control=64 value=84 time=30
control_change channel=0 control=64 value=66 time=14
note_on channel=0 note=64 velocity=97 time=2
note_on channel=0 note=52 velocity=95 time=4
control_change channel=0 control=64 value=71 time=9
note_on channel=0 note=80 velocity=96 time=2
note_on channel=0 note=92 velocity=102 time=0
note_on channel=0 note=86 velocity=67 time=1
control_change channel=0 control=64 value=80 time=13
note_on channel=0 note=86 velocity=0 time=11
control_change channel=0 control=64 value=87 time=4
control_change channel=0 control=64 value=96 time=16
control_change channel=0 control=64 value=113 time=14
control_change channel=0 control=64 value=127 time=15
note_on channel=0 note=64 velocity=0 time=61
note_on channel=0 note=80 velocity=0 time=2
note_on channel=0 note=52 velocity=0 time=9
note_on channel=0 note=86 velocity=14 time=15
note_on channel=0 note=86 velocity=0 time=44
note_on channel=0 note=92 velocity=0 time=62
note_on channel=0 note=65 velocity=97 time=14
note_on channel=0 note=53 velocity=79 time=6
note_on channel=0 note=65 velocity=0 time=15
note_on channel=0 note=53 velocity=0 time=36
note_on channel=0 note=37 velocity=81 time=169
note_on channel=0 note=41 velocity=72 time=15
control_change channel=0 control=64 value=83 time=31
note_on channel=0 note=44 velocity=84 time=8
control_change channel=0 control=64 value=0 time=8
note_on channel=0 note=49 velocity=95 time=28
note_on channel=0 note=92 velocity=84 time=13
note_on channel=0 note=95 velocity=99 time=0
note_on channel=0 note=98 velocity=105 time=0
note_on channel=0 note=86 velocity=102 time=1
control_change channel=0 control=64 value=62 time=18
control_change channel=0 control=64 value=79 time=16
note_on channel=0 note=37 velocity=0 time=12
control_change channel=0 control=64 value=103 time=2
control_change channel=0 control=64 value=127 time=15
note_on channel=0 note=41 velocity=0 time=3
note_on channel=0 note=49 velocity=0 time=18
note_on channel=0 note=44 velocity=0 time=8
note_on channel=0 note=86 velocity=0 time=95
note_on channel=0 note=98 velocity=0 time=67
note_on channel=0 note=92 velocity=0 time=105
note_on channel=0 note=79 velocity=95 time=9
note_on channel=0 note=67 velocity=88 time=5
note_on channel=0 note=67 velocity=0 time=91
note_on channel=0 note=79 velocity=0 time=10
note_on channel=0 note=95 velocity=0 time=27
note_on channel=0 note=72 velocity=44 time=3
note_on channel=0 note=72 velocity=0 time=50
note_on channel=0 note=80 velocity=104 time=23
note_on channel=0 note=68 velocity=85 time=5
note_on channel=0 note=80 velocity=0 time=63
note_on channel=0 note=68 velocity=0 time=16
note_on channel=0 note=83 velocity=98 time=87
note_on channel=0 note=95 velocity=105 time=2
note_on channel=0 note=83 velocity=0 time=27
note_on channel=0 note=95 velocity=0 time=13
note_on channel=0 note=76 velocity=94 time=117
note_on channel=0 note=64 velocity=88 time=5
note_on channel=0 note=76 velocity=0 time=35
note_on channel=0 note=64 velocity=0 time=9
note_on channel=0 note=74 velocity=3 time=19
note_on channel=0 note=74 velocity=0 time=40
note_on channel=0 note=77 velocity=101 time=19
note_on channel=0 note=64 velocity=87 time=11
note_on channel=0 note=65 velocity=83 time=4
note_on channel=0 note=77 velocity=0 time=29
note_on channel=0 note=64 velocity=0 time=5
note_on channel=0 note=65 velocity=0 time=17
note_on channel=0 note=92 velocity=99 time=68
note_on channel=0 note=80 velocity=96 time=1
note_on channel=0 note=80 velocity=0 time=38
note_on channel=0 note=92 velocity=0 time=10
note_on channel=0 note=70 velocity=99 time=90
note_on channel=0 note=58 velocity=88 time=2
note_on channel=0 note=70 velocity=0 time=39
note_on channel=0 note=58 velocity=0 time=13
note_on channel=0 note=71 velocity=99 time=62
note_on channel=0 note=59 velocity=87 time=5
control_change channel=0 control=64 value=108 time=27
control_change channel=0 control=64 value=106 time=15
note_on channel=0 note=71 velocity=0 time=14
control_change channel=0 control=64 value=107 time=17
note_on channel=0 note=59 velocity=0 time=5
control_change channel=0 control=64 value=113 time=9
control_change channel=0 control=64 value=127 time=15
note_on channel=0 note=74 velocity=97 time=15
note_on channel=0 note=86 velocity=100 time=0
note_on channel=0 note=74 velocity=0 time=26
note_on channel=0 note=86 velocity=0 time=11
note_on channel=0 note=64 velocity=93 time=89
note_on channel=0 note=52 velocity=85 time=4
note_on channel=0 note=64 velocity=0 time=32
note_on channel=0 note=52 velocity=0 time=5
note_on channel=0 note=53 velocity=81 time=80
note_on channel=0 note=65 velocity=96 time=3
note_on channel=0 note=53 velocity=0 time=82
note_on channel=0 note=65 velocity=0 time=11
control_change channel=0 control=64 value=72 time=24
note_on channel=0 note=84 velocity=101 time=7
note_on channel=0 note=72 velocity=94 time=1
control_change channel=0 control=64 value=0 time=7
control_change channel=0 control=64 value=21 time=69
control_change channel=0 control=64 value=66 time=15
control_change channel=0 control=64 value=75 time=15
control_change channel=0 control=64 value=82 time=15
note_on channel=0 note=72 velocity=0 time=13
control_change channel=0 control=64 value=87 time=3
note_on channel=0 note=84 velocity=0 time=7
control_change channel=0 control=64 value=90 time=8
control_change channel=0 control=64 value=93 time=15
control_change channel=0 control=64 value=96 time=15
note_on channel=0 note=66 velocity=83 time=7
note_on channel=0 note=54 velocity=65 time=7
control_change channel=0 control=64 value=99 time=1
control_change channel=0 control=64 value=103 time=15
control_change channel=0 control=64 value=110 time=16
control_change channel=0 control=64 value=123 time=14
control_change channel=0 control=64 value=127 time=16
note_on channel=0 note=66 velocity=0 time=8
note_on channel=0 note=54 velocity=0 time=18
control_change channel=0 control=64 value=120 time=20
control_change channel=0 control=64 value=100 time=14
note_on channel=0 note=81 velocity=97 time=12
control_change channel=0 control=64 value=92 time=3
note_on channel=0 note=69 velocity=85 time=4
note_on channel=0 note=69 velocity=0 time=19
control_change channel=0 control=64 value=95 time=8
note_on channel=0 note=81 velocity=0 time=7
control_change channel=0 control=64 value=100 time=9
control_change channel=0 control=64 value=110 time=15
control_change channel=0 control=64 value=127 time=18
note_on channel=0 note=63 velocity=90 time=50
note_on channel=0 note=51 velocity=81 time=1
note_on channel=0 note=63 velocity=0 time=53
note_on channel=0 note=66 velocity=99 time=64
note_on channel=0 note=78 velocity=102 time=3
note_on channel=0 note=66 velocity=0 time=30
note_on channel=0 note=78 velocity=0 time=5
note_on channel=0 note=60 velocity=96 time=66
note_on channel=0 note=51 velocity=0 time=2
note_on channel=0 note=48 velocity=88 time=1
note_on channel=0 note=60 velocity=0 time=54
note_on channel=0 note=48 velocity=0 time=20
note_on channel=0 note=75 velocity=94 time=72
note_on channel=0 note=63 velocity=95 time=3
note_on channel=0 note=63 velocity=0 time=29
note_on channel=0 note=73 velocity=41 time=2
note_on channel=0 note=75 velocity=0 time=7
note_on channel=0 note=73 velocity=0 time=22
note_on channel=0 note=45 velocity=90 time=53
note_on channel=0 note=57 velocity=91 time=0
note_on channel=0 note=57 velocity=0 time=38
note_on channel=0 note=45 velocity=0 time=5
control_change channel=0 control=64 value=122 time=4
control_change channel=0 control=64 value=118 time=15
control_change channel=0 control=64 value=120 time=15
control_change channel=0 control=64 value=127 time=15
note_on channel=0 note=72 velocity=100 time=48
note_on channel=0 note=60 velocity=98 time=1
note_on channel=0 note=60 velocity=0 time=14
note_on channel=0 note=72 velocity=0 time=16
note_on channel=0 note=54 velocity=99 time=106
note_on channel=0 note=42 velocity=96 time=3
note_on channel=0 note=54 velocity=0 time=29
note_on channel=0 note=42 velocity=0 time=19
note_on channel=0 note=54 velocity=97 time=125
note_on channel=0 note=66 velocity=104 time=1
note_on channel=0 note=54 velocity=0 time=20
note_on channel=0 note=66 velocity=0 time=16
note_on channel=0 note=48 velocity=103 time=131
note_on channel=0 note=36 velocity=93 time=5
note_on channel=0 note=48 velocity=0 time=17
note_on channel=0 note=36 velocity=0 time=24
control_change channel=0 control=64 value=80 time=328
control_change channel=0 control=64 value=0 time=15
note_on channel=0 note=61 velocity=95 time=10
note_on channel=0 note=25 velocity=92 time=1
note_on channel=0 note=37 velocity=96 time=0
note_on channel=0 note=49 velocity=97 time=0
control_change channel=0 control=64 value=33 time=378
control_change channel=0 control=64 value=50 time=14
control_change channel=0 control=64 value=59 time=16
control_change channel=0 control=64 value=64 time=15
control_change channel=0 control=64 value=66 time=15
control_change channel=0 control=64 value=67 time=16
control_change channel=0 control=64 value=69 time=14
control_change channel=0 control=64 value=70 time=15
control_change channel=0 control=64 value=71 time=16
control_change channel=0 control=64 value=72 time=15
control_change channel=0 control=64 value=73 time=15
control_change channel=0 control=64 value=74 time=15
control_change channel=0 control=64 value=76 time=20
control_change channel=0 control=64 value=77 time=15
control_change channel=0 control=64 value=78 time=16
control_change channel=0 control=64 value=80 time=14
control_change channel=0 control=64 value=82 time=15
control_change channel=0 control=64 value=84 time=16
control_change channel=0 control=64 value=85 time=15
control_change channel=0 control=64 value=87 time=18
control_change channel=0 control=64 value=89 time=14
control_change channel=0 control=64 value=93 time=15
control_change channel=0 control=64 value=95 time=16
control_change channel=0 control=64 value=96 time=14
control_change channel=0 control=64 value=99 time=16
control_change channel=0 control=64 value=102 time=15
control_change channel=0 control=64 value=105 time=15
control_change channel=0 control=64 value=108 time=16
control_change channel=0 control=64 value=112 time=15
control_change channel=0 control=64 value=116 time=16
control_change channel=0 control=64 value=126 time=15
control_change channel=0 control=64 value=127 time=14
note_on channel=0 note=25 velocity=0 time=196
note_on channel=0 note=37 velocity=0 time=135
note_on channel=0 note=49 velocity=0 time=349
note_on channel=0 note=61 velocity=0 time=293
control_change channel=0 control=64 value=117 time=41
note_on channel=0 note=49 velocity=92 time=0
control_change channel=0 control=64 value=91 time=15
control_change channel=0 control=64 value=84 time=16
control_change channel=0 control=64 value=85 time=22
control_change channel=0 control=64 value=88 time=15
control_change channel=0 control=64 value=91 time=16
control_change channel=0 control=64 value=95 time=15
control_change channel=0 control=64 value=100 time=16
control_change channel=0 control=64 value=106 time=15
control_change channel=0 control=64 value=113 time=14
control_change channel=0 control=64 value=119 time=16
control_change channel=0 control=64 value=126 time=15
control_change channel=0 control=64 value=127 time=16
note_on channel=0 note=54 velocity=90 time=245
note_on channel=0 note=68 velocity=89 time=241
note_on channel=0 note=56 velocity=83 time=8
control_change channel=0 control=64 value=90 time=7
control_change channel=0 control=64 value=69 time=15
control_change channel=0 control=64 value=63 time=16
control_change channel=0 control=64 value=68 time=15
control_change channel=0 control=64 value=70 time=15
control_change channel=0 control=64 value=72 time=15
control_change channel=0 control=64 value=75 time=15
control_change channel=0 control=64 value=81 time=16
control_change channel=0 control=64 value=88 time=21
control_change channel=0 control=64 value=93 time=16
control_change channel=0 control=64 value=95 time=15
note_on channel=0 note=56 velocity=0 time=3
control_change channel=0 control=64 value=96 time=12
control_change channel=0 control=64 value=97 time=16
control_change channel=0 control=64 value=98 time=15
control_change channel=0 control=64 value=101 time=16
control_change channel=0 control=64 value=105 time=15
control_change channel=0 control=64 value=107 time=15
control_change channel=0 control=64 value=107 time=16
note_on channel=0 note=71 velocity=89 time=20
note_on channel=0 note=59 velocity=77 time=11
note_on channel=0 note=68 velocity=0 time=27
control_change channel=0 control=64 value=108 time=64
control_change channel=0 control=64 value=109 time=30
note_on channel=0 note=54 velocity=0 time=9
control_change channel=0 control=64 value=110 time=6
control_change channel=0 control=64 value=111 time=15
control_change channel=0 control=64 value=112 time=16
control_change channel=0 control=64 value=112 time=15
control_change channel=0 control=64 value=113 time=14
note_on channel=0 note=53 velocity=79 time=15
control_change channel=0 control=64 value=113 time=1
control_change channel=0 control=64 value=114 time=15
control_change channel=0 control=64 value=116 time=16
control_change channel=0 control=64 value=117 time=14
control_change channel=0 control=64 value=117 time=15
control_change channel=0 control=64 value=118 time=16
control_change channel=0 control=64 value=121 time=15
control_change channel=0 control=64 value=126 time=15
control_change channel=0 control=64 value=127 time=15
note_on channel=0 note=49 velocity=0 time=61
note_on channel=0 note=59 velocity=0 time=32
note_on channel=0 note=56 velocity=91 time=37
note_on channel=0 note=71 velocity=0 time=67
control_change channel=0 control=64 value=107 time=160
control_change channel=0 control=64 value=76 time=15
note_on channel=0 note=69 velocity=86 time=9
note_on channel=0 note=57 velocity=80 time=6
control_change channel=0 control=64 value=0 time=1
note_on channel=0 note=49 velocity=76 time=1
note_on channel=0 note=56 velocity=0 time=21
note_on channel=0 note=53 velocity=0 time=2
control_change channel=0 control=64 value=59 time=68
control_change channel=0 control=64 value=70 time=15
note_on channel=0 note=57 velocity=0 time=9
control_change channel=0 control=64 value=76 time=6
control_change channel=0 control=64 value=82 time=15
control_change channel=0 control=64 value=86 time=15
control_change channel=0 control=64 value=91 time=16
control_change channel=0 control=64 value=96 time=15
control_change channel=0 control=64 value=102 time=14
control_change channel=0 control=64 value=109 time=16
control_change channel=0 control=64 value=115 time=15
control_change channel=0 control=64 value=127 time=16
note_on channel=0 note=73 velocity=89 time=13
note_on channel=0 note=61 velocity=75 time=2
note_on channel=0 note=69 velocity=0 time=0
note_on channel=0 note=54 velocity=78 time=225
note_on channel=0 note=61 velocity=0 time=70
note_on channel=0 note=73 velocity=0 time=131
note_on channel=0 note=49 velocity=0 time=30
note_on channel=0 note=57 velocity=83 time=19
note_on channel=0 note=54 velocity=0 time=14
note_on channel=0 note=57 velocity=0 time=22
note_on channel=0 note=37 velocity=88 time=224
control_change channel=0 control=64 value=98 time=2
control_change channel=0 control=64 value=65 time=16
control_change channel=0 control=64 value=0 time=14
note_on channel=0 note=71 velocity=85 time=5
note_on channel=0 note=59 velocity=80 time=12
control_change channel=0 control=64 value=59 time=60
control_change channel=0 control=64 value=69 time=16
control_change channel=0 control=64 value=77 time=15
control_change channel=0 control=64 value=84 time=14
control_change channel=0 control=64 value=91 time=16
control_change channel=0 control=64 value=99 time=15
control_change channel=0 control=64 value=109 time=15
control_change channel=0 control=64 value=127 time=16
note_on channel=0 note=59 velocity=0 time=6
note_on channel=0 note=37 velocity=0 time=13
note_on channel=0 note=74 velocity=94 time=118
note_on channel=0 note=71 velocity=0 time=1
note_on channel=0 note=62 velocity=79 time=11
note_on channel=0 note=49 velocity=74 time=217
note_on channel=0 note=56 velocity=88 time=5
note_on channel=0 note=49 velocity=0 time=81
note_on channel=0 note=74 velocity=0 time=78
note_on channel=0 note=62 velocity=0 time=109
note_on channel=0 note=65 velocity=83 time=8
note_on channel=0 note=65 velocity=0 time=21
note_on channel=0 note=56 velocity=0 time=34
note_on channel=0 note=37 velocity=85 time=224
control_change channel=0 control=64 value=96 time=26
control_change channel=0 control=64 value=70 time=16
note_on channel=0 note=71 velocity=89 time=12
control_change channel=0 control=64 value=0 time=3
note_on channel=0 note=59 velocity=75 time=9
control_change channel=0 control=64 value=41 time=53
control_change channel=0 control=64 value=64 time=14
control_change channel=0 control=64 value=70 time=15
control_change channel=0 control=64 value=75 time=16
control_change channel=0 control=64 value=80 time=15
control_change channel=0 control=64 value=85 time=15
control_change channel=0 control=64 value=90 time=15
control_change channel=0 control=64 value=94 time=15
control_change channel=0 control=64 value=99 time=16
note_on channel=0 note=59 velocity=0 time=5
control_change channel=0 control=64 value=104 time=10
control_change channel=0 control=64 value=109 time=14
control_change channel=0 control=64 value=114 time=16
control_change channel=0 control=64 value=122 time=15
control_change channel=0 control=64 value=127 time=15
note_on channel=0 note=37 velocity=0 time=3
note_on channel=0 note=74 velocity=94 time=54
note_on channel=0 note=62 velocity=67 time=13
note_on channel=0 note=71 velocity=0 time=9
note_on channel=0 note=56 velocity=75 time=264
note_on channel=0 note=49 velocity=68 time=1
note_on channel=0 note=49 velocity=0 time=102
note_on channel=0 note=74 velocity=0 time=197
note_on channel=0 note=65 velocity=69 time=53
note_on channel=0 note=65 velocity=0 time=49
note_on channel=0 note=62 velocity=0 time=53
note_on channel=0 note=56 velocity=0 time=5
note_on channel=0 note=37 velocity=64 time=353
control_change channel=0 control=64 value=117 time=21
note_on channel=0 note=71 velocity=80 time=3
control_change channel=0 control=64 value=95 time=12
note_on channel=0 note=59 velocity=54 time=12
control_change channel=0 control=64 value=78 time=3
control_change channel=0 control=64 value=63 time=16
control_change channel=0 control=64 value=0 time=15
control_change channel=0 control=64 value=43 time=54
control_change channel=0 control=64 value=59 time=14
control_change channel=0 control=64 value=64 time=15
control_change channel=0 control=64 value=66 time=16
control_change channel=0 control=64 value=69 time=14
control_change channel=0 control=64 value=72 time=15
control_change channel=0 control=64 value=75 time=16
control_change channel=0 control=64 value=78 time=15
control_change channel=0 control=64 value=80 time=16
control_change channel=0 control=64 value=83 time=14
control_change channel=0 control=64 value=86 time=15
control_change channel=0 control=64 value=89 time=16
control_change channel=0 control=64 value=92 time=15
control_change channel=0 control=64 value=95 time=16
control_change channel=0 control=64 value=97 time=15
control_change channel=0 control=64 value=100 time=15
control_change channel=0 control=64 value=103 time=16
note_on channel=0 note=37 velocity=0 time=6
control_change channel=0 control=64 value=106 time=8
note_on channel=0 note=59 velocity=0 time=13
control_change channel=0 control=64 value=110 time=2
control_change channel=0 control=64 value=113 time=16
control_change channel=0 control=64 value=122 time=15
control_change channel=0 control=64 value=127 time=16
note_on channel=0 note=74 velocity=80 time=192
note_on channel=0 note=71 velocity=0 time=7
note_on channel=0 note=62 velocity=50 time=19
note_on channel=0 note=56 velocity=58 time=380
note_on channel=0 note=49 velocity=45 time=5
note_on channel=0 note=49 velocity=0 time=111
note_on channel=0 note=65 velocity=48 time=663
control_change channel=0 control=67 value=8 time=1755
control_change channel=0 control=67 value=8 time=31
control_change channel=0 control=67 value=9 time=15
control_change channel=0 control=67 value=9 time=14
control_change channel=0 control=67 value=10 time=16
control_change channel=0 control=67 value=10 time=31
control_change channel=0 control=67 value=11 time=14
control_change channel=0 control=67 value=11 time=15
control_change channel=0 control=67 value=12 time=16
control_change channel=0 control=67 value=13 time=15
control_change channel=0 control=67 value=14 time=15
control_change channel=0 control=67 value=14 time=15
control_change channel=0 control=67 value=15 time=17
note_on channel=0 note=65 velocity=0 time=14
control_change channel=0 control=67 value=16 time=2
control_change channel=0 control=67 value=17 time=15
control_change channel=0 control=67 value=17 time=15
control_change channel=0 control=67 value=18 time=16
control_change channel=0 control=67 value=18 time=14
control_change channel=0 control=67 value=19 time=16
control_change channel=0 control=67 value=19 time=114
control_change channel=0 control=67 value=20 time=106
control_change channel=0 control=67 value=20 time=45
control_change channel=0 control=67 value=21 time=16
control_change channel=0 control=67 value=24 time=15
control_change channel=0 control=67 value=28 time=15
control_change channel=0 control=67 value=32 time=15
control_change channel=0 control=67 value=35 time=15
control_change channel=0 control=67 value=38 time=15
control_change channel=0 control=67 value=41 time=16
control_change channel=0 control=67 value=44 time=15
control_change channel=0 control=67 value=47 time=15
control_change channel=0 control=67 value=49 time=15
control_change channel=0 control=67 value=52 time=15
control_change channel=0 control=67 value=55 time=16
control_change channel=0 control=67 value=58 time=15
note_on channel=0 note=56 velocity=0 time=13
control_change channel=0 control=67 value=61 time=2
control_change channel=0 control=67 value=63 time=16
control_change channel=0 control=67 value=65 time=15
control_change channel=0 control=67 value=68 time=15
control_change channel=0 control=67 value=70 time=15
control_change channel=0 control=67 value=73 time=15
control_change channel=0 control=67 value=76 time=15
control_change channel=0 control=67 value=78 time=15
control_change channel=0 control=67 value=80 time=16
control_change channel=0 control=67 value=83 time=15
control_change channel=0 control=67 value=85 time=15
control_change channel=0 control=67 value=88 time=16
control_change channel=0 control=67 value=90 time=14
control_change channel=0 control=67 value=92 time=15
control_change channel=0 control=67 value=93 time=16
control_change channel=0 control=67 value=94 time=15
control_change channel=0 control=67 value=95 time=16
control_change channel=0 control=67 value=95 time=16
control_change channel=0 control=67 value=96 time=14
control_change channel=0 control=67 value=96 time=16
control_change channel=0 control=67 value=97 time=30
note_on channel=0 note=62 velocity=0 time=423
control_change channel=0 control=64 value=123 time=442
control_change channel=0 control=64 value=113 time=15
control_change channel=0 control=64 value=107 time=16
control_change channel=0 control=64 value=101 time=15
control_change channel=0 control=64 value=93 time=16
note_on channel=0 note=37 velocity=43 time=10
control_change channel=0 control=64 value=83 time=4
control_change channel=0 control=64 value=71 time=15
control_change channel=0 control=67 value=96 time=0
control_change channel=0 control=64 value=38 time=16
control_change channel=0 control=64 value=0 time=15
control_change channel=0 control=64 value=42 time=30
control_change channel=0 control=64 value=55 time=15
control_change channel=0 control=67 value=96 time=0
control_change channel=0 control=64 value=62 time=16
control_change channel=0 control=64 value=64 time=14
control_change channel=0 control=64 value=66 time=15
control_change channel=0 control=67 value=95 time=0
control_change channel=0 control=64 value=68 time=16
control_change channel=0 control=64 value=71 time=15
control_change channel=0 control=64 value=74 time=16
control_change channel=0 control=67 value=95 time=0
control_change channel=0 control=64 value=76 time=15
control_change channel=0 control=64 value=78 time=15
control_change channel=0 control=64 value=80 time=15
control_change channel=0 control=67 value=94 time=0
control_change channel=0 control=64 value=83 time=15
control_change channel=0 control=64 value=86 time=15
control_change channel=0 control=64 value=88 time=16
control_change channel=0 control=64 value=90 time=15
note_on channel=0 note=37 velocity=0 time=2
control_change channel=0 control=64 value=92 time=14
control_change channel=0 control=64 value=95 time=14
control_change channel=0 control=64 value=98 time=15
control_change channel=0 control=67 value=94 time=0
control_change channel=0 control=64 value=101 time=16
control_change channel=0 control=64 value=103 time=15
control_change channel=0 control=64 value=106 time=16
control_change channel=0 control=64 value=111 time=14
control_change channel=0 control=64 value=117 time=15
control_change channel=0 control=64 value=124 time=16
control_change channel=0 control=64 value=127 time=15
control_change channel=0 control=67 value=93 time=90
note_on channel=0 note=49 velocity=29 time=282
control_change channel=0 control=67 value=93 time=1
note_on channel=0 note=49 velocity=0 time=158
control_change channel=0 control=67 value=92 time=39
note_on channel=0 note=74 velocity=0 time=148
note_on channel=0 note=64 velocity=38 time=14
note_on channel=0 note=73 velocity=50 time=4
note_on channel=0 note=61 velocity=26 time=29
control_change channel=0 control=67 value=92 time=19
control_change channel=0 control=67 value=91 time=90
note_on channel=0 note=64 velocity=0 time=26
control_change channel=0 control=67 value=91 time=58
note_on channel=0 note=73 velocity=0 time=22
note_on channel=0 note=49 velocity=39 time=233
note_on channel=0 note=61 velocity=0 time=72
control_change channel=0 control=64 value=126 time=69
control_change channel=0 control=64 value=122 time=14
control_change channel=0 control=64 value=121 time=16
control_change channel=0 control=64 value=119 time=15
control_change channel=0 control=64 value=117 time=15
control_change channel=0 control=64 value=110 time=16
control_change channel=0 control=64 value=100 time=14
note_on channel=0 note=63 velocity=54 time=5
note_on channel=0 note=66 velocity=48 time=5
control_change channel=0 control=64 value=88 time=6
note_on channel=0 note=60 velocity=36 time=7
control_change channel=0 control=64 value=81 time=8
note_on channel=0 note=49 velocity=0 time=3
control_change channel=0 control=64 value=79 time=12
control_change channel=0 control=64 value=80 time=61
control_change channel=0 control=64 value=81 time=15
control_change channel=0 control=64 value=82 time=16
control_change channel=0 control=64 value=83 time=15
control_change channel=0 control=67 value=90 time=0
control_change channel=0 control=64 value=85 time=15
control_change channel=0 control=64 value=88 time=16
control_change channel=0 control=67 value=90 time=0
control_change channel=0 control=64 value=90 time=15
control_change channel=0 control=64 value=92 time=15
control_change channel=0 control=67 value=89 time=0
control_change channel=0 control=64 value=94 time=16
control_change channel=0 control=67 value=89 time=0
control_change channel=0 control=64 value=96 time=15
control_change channel=0 control=67 value=88 time=0
control_change channel=0 control=64 value=96 time=22
control_change channel=0 control=67 value=88 time=0
note_on channel=0 note=49 velocity=53 time=14
control_change channel=0 control=64 value=97 time=1
note_on channel=0 note=60 velocity=0 time=4
control_change channel=0 control=67 value=87 time=12
note_on channel=0 note=63 velocity=0 time=2
control_change channel=0 control=64 value=97 time=28
control_change channel=0 control=67 value=86 time=0
control_change channel=0 control=64 value=95 time=93
control_change channel=0 control=67 value=87 time=0
control_change channel=0 control=64 value=89 time=14
note_on channel=0 note=66 velocity=0 time=1
note_on channel=0 note=49 velocity=0 time=3
control_change channel=0 control=64 value=79 time=11
note_on channel=0 note=68 velocity=59 time=0
note_on channel=0 note=62 velocity=54 time=3
note_on channel=0 note=59 velocity=45 time=8
control_change channel=0 control=64 value=68 time=5
control_change channel=0 control=64 value=66 time=15
control_change channel=0 control=64 value=68 time=15
control_change channel=0 control=64 value=69 time=15
control_change channel=0 control=64 value=71 time=15
control_change channel=0 control=64 value=73 time=16
control_change channel=0 control=64 value=76 time=15
control_change channel=0 control=64 value=79 time=15
control_change channel=0 control=64 value=81 time=15
control_change channel=0 control=64 value=83 time=15
control_change channel=0 control=64 value=85 time=16
control_change channel=0 control=64 value=87 time=15
note_on channel=0 note=62 velocity=0 time=5
note_on channel=0 note=49 velocity=54 time=3
control_change channel=0 control=64 value=89 time=7
control_change channel=0 control=64 value=91 time=16
control_change channel=0 control=64 value=91 time=15
control_change channel=0 control=64 value=92 time=30
note_on channel=0 note=49 velocity=0 time=49
note_on channel=0 note=59 velocity=0 time=22
control_change channel=0 control=67 value=86 time=20
note_on channel=0 note=61 velocity=59 time=7
note_on channel=0 note=58 velocity=48 time=11
note_on channel=0 note=68 velocity=0 time=23
control_change channel=0 control=64 value=91 time=95
control_change channel=0 control=64 value=90 time=30
note_on channel=0 note=49 velocity=48 time=19
control_change channel=0 control=64 value=90 time=12
control_change channel=0 control=64 value=89 time=37
control_change channel=0 control=64 value=87 time=15
control_change channel=0 control=64 value=83 time=16
control_change channel=0 control=64 value=78 time=15
control_change channel=0 control=64 value=69 time=16
control_change channel=0 control=64 value=54 time=14
control_change channel=0 control=64 value=40 time=15
control_change channel=0 control=64 value=54 time=16
note_on channel=0 note=60 velocity=57 time=6
control_change channel=0 control=64 value=61 time=9
note_on channel=0 note=49 velocity=0 time=5
note_on channel=0 note=57 velocity=41 time=6
control_change channel=0 control=64 value=64 time=4
note_on channel=0 note=58 velocity=0 time=8
control_change channel=0 control=64 value=66 time=8
control_change channel=0 control=64 value=69 time=15
control_change channel=0 control=64 value=71 time=16
control_change channel=0 control=64 value=74 time=15
control_change channel=0 control=64 value=76 time=15
control_change channel=0 control=64 value=79 time=16
control_change channel=0 control=64 value=82 time=14
control_change channel=0 control=64 value=86 time=15
control_change channel=0 control=64 value=88 time=16
note_on channel=0 note=60 velocity=0 time=8
note_on channel=0 note=49 velocity=48 time=4
control_change channel=0 control=64 value=90 time=3
control_change channel=0 control=64 value=90 time=16
control_change channel=0 control=64 value=90 time=106
control_change channel=0 control=64 value=88 time=16
control_change channel=0 control=67 value=87 time=0
note_on channel=0 note=57 velocity=0 time=9
control_change channel=0 control=64 value=84 time=6
note_on channel=0 note=49 velocity=0 time=1
control_change channel=0 control=64 value=79 time=13
note_on channel=0 note=59 velocity=46 time=10
note_on channel=0 note=56 velocity=38 time=4
control_change channel=0 control=64 value=71 time=2
control_change channel=0 control=64 value=64 time=15
control_change channel=0 control=64 value=65 time=30
control_change channel=0 control=64 value=66 time=31
control_change channel=0 control=64 value=68 time=15
control_change channel=0 control=64 value=70 time=14
control_change channel=0 control=64 value=73 time=16
control_change channel=0 control=64 value=77 time=15
control_change channel=0 control=64 value=79 time=15
control_change channel=0 control=67 value=86 time=0
note_on channel=0 note=59 velocity=0 time=0
note_on channel=0 note=49 velocity=47 time=6
control_change channel=0 control=64 value=82 time=9
control_change channel=0 control=64 value=84 time=15
control_change channel=0 control=64 value=86 time=16
control_change channel=0 control=64 value=87 time=15
note_on channel=0 note=56 velocity=0 time=104
note_on channel=0 note=49 velocity=0 time=3
control_change channel=0 control=64 value=86 time=7
control_change channel=0 control=67 value=87 time=0
note_on channel=0 note=66 velocity=53 time=14
control_change channel=0 control=64 value=83 time=1
note_on channel=0 note=61 velocity=0 time=12
note_on channel=0 note=57 velocity=40 time=1
control_change channel=0 control=64 value=78 time=3
control_change channel=0 control=64 value=72 time=14
control_change channel=0 control=64 value=65 time=15
control_change channel=0 control=64 value=64 time=16
control_change channel=0 control=64 value=66 time=15
control_change channel=0 control=64 value=67 time=16
control_change channel=0 control=64 value=68 time=14
control_change channel=0 control=64 value=70 time=15
control_change channel=0 control=64 value=72 time=16
control_change channel=0 control=64 value=75 time=15
control_change channel=0 control=67 value=86 time=0
control_change channel=0 control=64 value=78 time=16
control_change channel=0 control=64 value=80 time=16
note_on channel=0 note=49 velocity=38 time=7
control_change channel=0 control=64 value=81 time=7
control_change channel=0 control=64 value=83 time=16
control_change channel=0 control=64 value=83 time=15
control_change channel=0 control=64 value=84 time=15
note_on channel=0 note=57 velocity=0 time=84
note_on channel=0 note=66 velocity=0 time=10
control_change channel=0 control=64 value=83 time=12
control_change channel=0 control=64 value=83 time=15
control_change channel=0 control=64 value=82 time=16
note_on channel=0 note=49 velocity=0 time=4
control_change channel=0 control=64 value=81 time=11
control_change channel=0 control=64 value=80 time=16
note_on channel=0 note=65 velocity=46 time=3
note_on channel=0 note=56 velocity=38 time=4
control_change channel=0 control=64 value=78 time=8
control_change channel=0 control=64 value=75 time=15
control_change channel=0 control=67 value=87 time=0
control_change channel=0 control=64 value=70 time=15
control_change channel=0 control=64 value=63 time=15
control_change channel=0 control=64 value=56 time=16
control_change channel=0 control=64 value=59 time=15
control_change channel=0 control=64 value=60 time=15
control_change channel=0 control=64 value=61 time=15
control_change channel=0 control=64 value=62 time=15
control_change channel=0 control=64 value=62 time=15
control_change channel=0 control=64 value=64 time=16
control_change channel=0 control=64 value=65 time=15
control_change channel=0 control=64 value=66 time=15
control_change channel=0 control=64 value=67 time=15
control_change channel=0 control=67 value=86 time=0
control_change channel=0 control=64 value=68 time=15
note_on channel=0 note=49 velocity=36 time=1
control_change channel=0 control=64 value=69 time=14
control_change channel=0 control=64 value=71 time=15
control_change channel=0 control=64 value=73 time=15
control_change channel=0 control=64 value=74 time=24
control_change channel=0 control=64 value=75 time=15
control_change channel=0 control=64 value=75 time=15
control_change channel=0 control=64 value=76 time=15
control_change channel=0 control=64 value=76 time=31
control_change channel=0 control=64 value=76 time=15
note_on channel=0 note=49 velocity=0 time=1
note_on channel=0 note=66 velocity=56 time=1
control_change channel=0 control=64 value=74 time=13
control_change channel=0 control=64 value=73 time=15
control_change channel=0 control=64 value=73 time=15
control_change channel=0 control=67 value=87 time=0
note_on channel=0 note=57 velocity=32 time=1
note_on channel=0 note=65 velocity=0 time=39
control_change channel=0 control=64 value=74 time=6
control_change channel=0 control=64 value=75 time=15
control_change channel=0 control=64 value=76 time=15
control_change channel=0 control=64 value=78 time=16
control_change channel=0 control=64 value=79 time=14
control_change channel=0 control=64 value=80 time=15
control_change channel=0 control=67 value=86 time=0
note_on channel=0 note=56 velocity=0 time=7
control_change channel=0 control=64 value=81 time=9
note_on channel=0 note=49 velocity=37 time=5
control_change channel=0 control=64 value=81 time=11
control_change channel=0 control=64 value=81 time=76
control_change channel=0 control=64 value=80 time=16
control_change channel=0 control=64 value=78 time=14
control_change channel=0 control=67 value=87 time=0
control_change channel=0 control=64 value=74 time=15
note_on channel=0 note=57 velocity=0 time=1
note_on channel=0 note=68 velocity=67 time=3
control_change channel=0 control=64 value=67 time=12
note_on channel=0 note=49 velocity=0 time=0
control_change channel=0 control=64 value=61 time=15
note_on channel=0 note=53 velocity=43 time=0
control_change channel=0 control=64 value=63 time=15
control_change channel=0 control=64 value=65 time=15
note_on channel=0 note=66 velocity=0 time=9
control_change channel=0 control=64 value=66 time=6
control_change channel=0 control=64 value=67 time=16
control_change channel=0 control=64 value=69 time=15
control_change channel=0 control=64 value=71 time=15
control_change channel=0 control=67 value=86 time=0
control_change channel=0 control=64 value=73 time=16
control_change channel=0 control=64 value=75 time=15
control_change channel=0 control=64 value=76 time=15
note_on channel=0 note=53 velocity=0 time=12
control_change channel=0 control=64 value=78 time=3
note_on channel=0 note=49 velocity=38 time=0
control_change channel=0 control=64 value=80 time=15
control_change channel=0 control=64 value=81 time=16
control_change channel=0 control=64 value=82 time=15
control_change channel=0 control=64 value=81 time=76
control_change channel=0 control=64 value=80 time=15
note_on channel=0 note=69 velocity=67 time=10
control_change channel=0 control=64 value=75 time=6
control_change channel=0 control=64 value=68 time=15
note_on channel=0 note=54 velocity=42 time=0
note_on channel=0 note=49 velocity=0 time=4
note_on channel=0 note=68 velocity=0 time=11
control_change channel=0 control=64 value=61 time=8
control_change channel=0 control=64 value=63 time=14
control_change channel=0 control=64 value=65 time=15
control_change channel=0 control=64 value=66 time=16
control_change channel=0 control=64 value=67 time=15
control_change channel=0 control=64 value=69 time=16
control_change channel=0 control=64 value=70 time=15
control_change channel=0 control=64 value=72 time=15
control_change channel=0 control=64 value=74 time=16
note_on channel=0 note=49 velocity=47 time=3
note_on channel=0 note=54 velocity=0 time=8
control_change channel=0 control=64 value=76 time=3
control_change channel=0 control=64 value=77 time=15
control_change channel=0 control=64 value=78 time=16
control_change channel=0 control=64 value=78 time=15
control_change channel=0 control=64 value=79 time=16
control_change channel=0 control=64 value=78 time=75
note_on channel=0 note=49 velocity=0 time=4
control_change channel=0 control=64 value=77 time=12
note_on channel=0 note=69 velocity=0 time=0
control_change channel=0 control=64 value=75 time=14
note_on channel=0 note=73 velocity=59 time=9
control_change channel=0 control=64 value=70 time=8
control_change channel=0 control=67 value=87 time=0
note_on channel=0 note=66 velocity=40 time=6
control_change channel=0 control=64 value=63 time=9
note_on channel=0 note=64 velocity=46 time=9
control_change channel=0 control=64 value=43 time=6
control_change channel=0 control=64 value=51 time=16
control_change channel=0 control=64 value=58 time=15
control_change channel=0 control=64 value=62 time=15
control_change channel=0 control=64 value=64 time=15
control_change channel=0 control=64 value=65 time=15
note_on channel=0 note=64 velocity=0 time=7
control_change channel=0 control=64 value=66 time=9
control_change channel=0 control=64 value=69 time=14
control_change channel=0 control=64 value=70 time=15
control_change channel=0 control=64 value=71 time=16
control_change channel=0 control=64 value=72 time=15
control_change channel=0 control=64 value=73 time=16
note_on channel=0 note=49 velocity=49 time=7
control_change channel=0 control=64 value=74 time=7
control_change channel=0 control=64 value=75 time=15
control_change channel=0 control=64 value=76 time=16
control_change channel=0 control=64 value=75 time=90
control_change channel=0 control=64 value=72 time=15
note_on channel=0 note=49 velocity=0 time=3
control_change channel=0 control=64 value=67 time=13
note_on channel=0 note=71 velocity=49 time=3
note_on channel=0 note=73 velocity=0 time=5
control_change channel=0 control=64 value=59 time=7
control_change channel=0 control=64 value=56 time=15
control_change channel=0 control=64 value=61 time=16
note_on channel=0 note=62 velocity=29 time=11
control_change channel=0 control=64 value=63 time=4
control_change channel=0 control=64 value=64 time=23
control_change channel=0 control=64 value=66 time=14
control_change channel=0 control=64 value=67 time=16
control_change channel=0 control=64 value=69 time=15
control_change channel=0 control=64 value=71 time=15
control_change channel=0 control=64 value=73 time=16
control_change channel=0 control=64 value=74 time=14
control_change channel=0 control=64 value=75 time=15
control_change channel=0 control=64 value=76 time=16
control_change channel=0 control=64 value=77 time=15
note_on channel=0 note=62 velocity=0 time=3
note_on channel=0 note=49 velocity=41 time=32
control_change channel=0 control=64 value=78 time=10
control_change channel=0 control=64 value=78 time=16
control_change channel=0 control=64 value=79 time=15
control_change channel=0 control=64 value=78 time=77
control_change channel=0 control=64 value=78 time=14
control_change channel=0 control=64 value=77 time=16
control_change channel=0 control=64 value=77 time=15
note_on channel=0 note=71 velocity=0 time=28
control_change channel=0 control=64 value=76 time=3
control_change channel=0 control=64 value=75 time=15
control_change channel=0 control=64 value=73 time=16
control_change channel=0 control=64 value=71 time=15
control_change channel=0 control=64 value=67 time=15
note_on channel=0 note=66 velocity=0 time=9
control_change channel=0 control=64 value=63 time=7
note_on channel=0 note=68 velocity=37 time=3
note_on channel=0 note=65 velocity=28 time=9
control_change channel=0 control=64 value=51 time=2
note_on channel=0 note=61 velocity=27 time=15
control_change channel=0 control=64 value=45 time=1
control_change channel=0 control=64 value=48 time=15
control_change channel=0 control=64 value=52 time=15
control_change channel=0 control=64 value=55 time=16
control_change channel=0 control=64 value=57 time=14
control_change channel=0 control=64 value=59 time=15
control_change channel=0 control=64 value=63 time=16
control_change channel=0 control=64 value=65 time=15
control_change channel=0 control=64 value=66 time=16
control_change channel=0 control=64 value=67 time=14
control_change channel=0 control=64 value=68 time=15
control_change channel=0 control=64 value=70 time=16
control_change channel=0 control=64 value=72 time=14
control_change channel=0 control=64 value=73 time=16
control_change channel=0 control=64 value=74 time=15
control_change channel=0 control=64 value=75 time=15
control_change channel=0 control=64 value=76 time=16
control_change channel=0 control=64 value=77 time=14
note_on channel=0 note=65 velocity=0 time=12
control_change channel=0 control=64 value=78 time=3
note_on channel=0 note=68 velocity=0 time=22
control_change channel=0 control=64 value=80 time=2
control_change channel=0 control=64 value=81 time=15
control_change channel=0 control=64 value=83 time=16
note_on channel=0 note=61 velocity=0 time=10
control_change channel=0 control=64 value=83 time=4
note_on channel=0 note=49 velocity=0 time=48
control_change channel=0 control=64 value=83 time=104
control_change channel=0 control=64 value=82 time=15
control_change channel=0 control=64 value=82 time=16
control_change channel=0 control=64 value=81 time=29
control_change channel=0 control=64 value=81 time=16
control_change channel=0 control=64 value=80 time=15
control_change channel=0 control=64 value=79 time=16
control_change channel=0 control=64 value=78 time=15
control_change channel=0 control=64 value=77 time=15
control_change channel=0 control=64 value=77 time=15
control_change channel=0 control=64 value=76 time=15
control_change channel=0 control=64 value=75 time=15
control_change channel=0 control=64 value=74 time=16
control_change channel=0 control=67 value=87 time=0
control_change channel=0 control=64 value=73 time=15
control_change channel=0 control=64 value=72 time=16
control_change channel=0 control=67 value=88 time=0
control_change channel=0 control=64 value=70 time=15
control_change channel=0 control=64 value=69 time=15
control_change channel=0 control=64 value=68 time=16
control_change channel=0 control=64 value=67 time=31
control_change channel=0 control=64 value=67 time=14
control_change channel=0 control=64 value=66 time=15
control_change channel=0 control=64 value=66 time=16
control_change channel=0 control=64 value=65 time=30
control_change channel=0 control=64 value=65 time=15
control_change channel=0 control=64 value=64 time=15
control_change channel=0 control=64 value=64 time=30
control_change channel=0 control=64 value=63 time=45
control_change channel=0 control=64 value=62 time=15
control_change channel=0 control=64 value=61 time=85
control_change channel=0 control=64 value=56 time=15
control_change channel=0 control=64 value=48 time=14
control_change channel=0 control=64 value=42 time=16
note_on channel=0 note=74 velocity=45 time=19
note_on channel=0 note=62 velocity=32 time=23
control_change channel=0 control=64 value=45 time=3
control_change channel=0 control=64 value=49 time=15
control_change channel=0 control=64 value=53 time=16
control_change channel=0 control=64 value=56 time=15
control_change channel=0 control=64 value=59 time=14
control_change channel=0 control=64 value=62 time=16
control_change channel=0 control=64 value=64 time=15
control_change channel=0 control=64 value=65 time=15
control_change channel=0 control=64 value=67 time=16
control_change channel=0 control=64 value=68 time=14
control_change channel=0 control=64 value=69 time=16
control_change channel=0 control=64 value=71 time=15
control_change channel=0 control=64 value=72 time=15
control_change channel=0 control=64 value=73 time=16
control_change channel=0 control=64 value=74 time=15
control_change channel=0 control=67 value=87 time=0
control_change channel=0 control=64 value=76 time=16
control_change channel=0 control=64 value=77 time=15
control_change channel=0 control=64 value=78 time=15
control_change channel=0 control=64 value=79 time=15
control_change channel=0 control=64 value=81 time=15
control_change channel=0 control=67 value=87 time=0
control_change channel=0 control=64 value=82 time=15
control_change channel=0 control=64 value=84 time=16
control_change channel=0 control=64 value=85 time=15
control_change channel=0 control=64 value=86 time=15
note_on channel=0 note=62 velocity=0 time=6
control_change channel=0 control=64 value=87 time=10
note_on channel=0 note=50 velocity=36 time=4
control_change channel=0 control=64 value=88 time=11
control_change channel=0 control=64 value=89 time=16
control_change channel=0 control=64 value=90 time=15
control_change channel=0 control=64 value=91 time=16
control_change channel=0 control=64 value=92 time=14
control_change channel=0 control=64 value=92 time=15
control_change channel=0 control=64 value=93 time=16
note_on channel=0 note=50 velocity=0 time=10
control_change channel=0 control=64 value=92 time=301
control_change channel=0 control=67 value=87 time=16
control_change channel=0 control=64 value=92 time=15
note_on channel=0 note=63 velocity=31 time=5
control_change channel=0 control=64 value=91 time=10
note_on channel=0 note=75 velocity=55 time=3
control_change channel=0 control=64 value=91 time=27
control_change channel=0 control=64 value=90 time=16
control_change channel=0 control=64 value=90 time=15
control_change channel=0 control=64 value=89 time=14
control_change channel=0 control=64 value=89 time=16
control_change channel=0 control=67 value=88 time=0
note_on channel=0 note=74 velocity=0 time=7
control_change channel=0 control=64 value=88 time=8
control_change channel=0 control=64 value=87 time=16
control_change channel=0 control=64 value=83 time=15
control_change channel=0 control=64 value=78 time=14
control_change channel=0 control=64 value=71 time=16
control_change channel=0 control=64 value=63 time=15
control_change channel=0 control=64 value=54 time=16
control_change channel=0 control=64 value=61 time=14
control_change channel=0 control=64 value=64 time=15
control_change channel=0 control=64 value=66 time=16
control_change channel=0 control=64 value=67 time=15
control_change channel=0 control=64 value=69 time=15
control_change channel=0 control=64 value=70 time=15
control_change channel=0 control=64 value=72 time=15
control_change channel=0 control=64 value=74 time=16
control_change channel=0 control=64 value=75 time=15
control_change channel=0 control=64 value=76 time=15
control_change channel=0 control=64 value=77 time=17
control_change channel=0 control=64 value=79 time=14
control_change channel=0 control=64 value=80 time=15
note_on channel=0 note=63 velocity=0 time=15
control_change channel=0 control=64 value=82 time=1
note_on channel=0 note=51 velocity=30 time=0
control_change channel=0 control=64 value=83 time=15
control_change channel=0 control=64 value=85 time=15
control_change channel=0 control=64 value=86 time=15
control_change channel=0 control=64 value=87 time=15
control_change channel=0 control=64 value=89 time=16
control_change channel=0 control=64 value=90 time=15
control_change channel=0 control=64 value=90 time=16
control_change channel=0 control=64 value=91 time=15
control_change channel=0 control=64 value=92 time=15
control_change channel=0 control=64 value=93 time=16
note_on channel=0 note=51 velocity=0 time=10
control_change channel=0 control=64 value=93 time=4
control_change channel=0 control=64 value=94 time=23
note_on channel=0 note=63 velocity=35 time=31
control_change channel=0 control=64 value=95 time=29
control_change channel=0 control=64 value=94 time=62
note_on channel=0 note=51 velocity=36 time=86
control_change channel=0 control=64 value=93 time=126
control_change channel=0 control=64 value=92 time=15
control_change channel=0 control=64 value=90 time=16
control_change channel=0 control=64 value=86 time=14
note_on channel=0 note=68 velocity=48 time=13
control_change channel=0 control=64 value=82 time=2
note_on channel=0 note=51 velocity=0 time=1
control_change channel=0 control=64 value=80 time=15
note_on channel=0 note=59 velocity=32 time=8
note_on channel=0 note=63 velocity=0 time=0
control_change channel=0 control=64 value=80 time=52
control_change channel=0 control=64 value=81 time=16
control_change channel=0 control=64 value=81 time=15
control_change channel=0 control=64 value=82 time=16
control_change channel=0 control=64 value=83 time=14
control_change channel=0 control=64 value=84 time=15
control_change channel=0 control=64 value=84 time=16
note_on channel=0 note=75 velocity=0 time=3
control_change channel=0 control=64 value=85 time=13
note_on channel=0 note=51 velocity=36 time=23
control_change channel=0 control=64 value=85 time=8
control_change channel=0 control=64 value=83 time=14
note_on channel=0 note=59 velocity=0 time=1
control_change channel=0 control=64 value=84 time=106
control_change channel=0 control=67 value=87 time=0
note_on channel=0 note=70 velocity=68 time=7
control_change channel=0 control=64 value=85 time=8
note_on channel=0 note=61 velocity=36 time=15
note_on channel=0 note=51 velocity=0 time=6
control_change channel=0 control=64 value=85 time=2
note_on channel=0 note=68 velocity=0 time=8
control_change channel=0 control=64 value=86 time=7
control_change channel=0 control=64 value=86 time=16
control_change channel=0 control=64 value=87 time=14
control_change channel=0 control=64 value=87 time=76
note_on channel=0 note=61 velocity=0 time=42
note_on channel=0 note=51 velocity=43 time=24
control_change channel=0 control=64 value=87 time=56
control_change channel=0 control=64 value=86 time=46
control_change channel=0 control=64 value=86 time=15
control_change channel=0 control=64 value=85 time=15
control_change channel=0 control=64 value=85 time=15
control_change channel=0 control=64 value=84 time=16
control_change channel=0 control=67 value=88 time=0
control_change channel=0 control=64 value=83 time=15
note_on channel=0 note=51 velocity=0 time=13
control_change channel=0 control=64 value=82 time=2
control_change channel=0 control=64 value=80 time=15
note_on channel=0 note=63 velocity=49 time=10
control_change channel=0 control=64 value=75 time=5
note_on channel=0 note=70 velocity=0 time=7
control_change channel=0 control=64 value=68 time=8
note_on channel=0 note=55 velocity=37 time=2
control_change channel=0 control=64 value=57 time=13
control_change channel=0 control=64 value=45 time=15
control_change channel=0 control=64 value=50 time=16
control_change channel=0 control=64 value=53 time=15
control_change channel=0 control=64 value=55 time=15
control_change channel=0 control=64 value=57 time=16
control_change channel=0 control=64 value=59 time=14
control_change channel=0 control=64 value=60 time=15
control_change channel=0 control=64 value=62 time=16
control_change channel=0 control=64 value=63 time=15
control_change channel=0 control=64 value=64 time=16
control_change channel=0 control=64 value=64 time=14
control_change channel=0 control=64 value=65 time=16
control_change channel=0 control=64 value=66 time=16
control_change channel=0 control=64 value=67 time=15
note_on channel=0 note=55 velocity=0 time=1
control_change channel=0 control=64 value=68 time=15
control_change channel=0 control=64 value=69 time=14
control_change channel=0 control=64 value=70 time=15
note_on channel=0 note=51 velocity=34 time=5
control_change channel=0 control=64 value=72 time=11
control_change channel=0 control=64 value=73 time=15
control_change channel=0 control=64 value=73 time=15
control_change channel=0 control=64 value=74 time=23
control_change channel=0 control=64 value=75 time=15
control_change channel=0 control=64 value=76 time=16
control_change channel=0 control=64 value=76 time=15
control_change channel=0 control=64 value=77 time=30
note_on channel=0 note=51 velocity=0 time=3
control_change channel=0 control=64 value=77 time=28
note_on channel=0 note=55 velocity=42 time=11
control_change channel=0 control=64 value=78 time=3
control_change channel=0 control=64 value=78 time=15
control_change channel=0 control=64 value=78 time=31
control_change channel=0 control=64 value=76 time=16
control_change channel=0 control=64 value=73 time=14
control_change channel=0 control=64 value=72 time=15
note_on channel=0 note=55 velocity=0 time=9
control_change channel=0 control=64 value=72 time=22
control_change channel=0 control=64 value=73 time=15
note_on channel=0 note=49 velocity=45 time=6
control_change channel=0 control=64 value=73 time=9
control_change channel=0 control=64 value=74 time=15
control_change channel=0 control=64 value=75 time=16
control_change channel=0 control=64 value=75 time=15
control_change channel=0 control=64 value=76 time=15
control_change channel=0 control=64 value=75 time=45
note_on channel=0 note=49 velocity=0 time=14
control_change channel=0 control=64 value=73 time=2
control_change channel=0 control=64 value=71 time=15
control_change channel=0 control=64 value=70 time=16
note_on channel=0 note=56 velocity=45 time=6
control_change channel=0 control=64 value=70 time=9
control_change channel=0 control=64 value=71 time=15
control_change channel=0 control=64 value=71 time=15
control_change channel=0 control=64 value=72 time=15
control_change channel=0 control=64 value=73 time=16
control_change channel=0 control=64 value=73 time=15
note_on channel=0 note=56 velocity=0 time=15
control_change channel=0 control=64 value=74 time=15
control_change channel=0 control=64 value=74 time=46
note_on channel=0 note=47 velocity=43 time=7
control_change channel=0 control=64 value=75 time=7
control_change channel=0 control=64 value=75 time=16
control_change channel=0 control=64 value=76 time=62
control_change channel=0 control=64 value=75 time=45
control_change channel=0 control=64 value=74 time=16
note_on channel=0 note=47 velocity=0 time=18
control_change channel=0 control=64 value=70 time=4
control_change channel=0 control=67 value=88 time=0
note_on channel=0 note=68 velocity=50 time=15
control_change channel=0 control=64 value=64 time=1
control_change channel=0 control=64 value=49 time=15
note_on channel=0 note=59 velocity=39 time=9
control_change channel=0 control=64 value=50 time=6
control_change channel=0 control=64 value=58 time=16
control_change channel=0 control=64 value=61 time=14
control_change channel=0 control=64 value=63 time=15
control_change channel=0 control=64 value=65 time=16
control_change channel=0 control=64 value=67 time=15
control_change channel=0 control=64 value=69 time=16
control_change channel=0 control=64 value=70 time=14
control_change channel=0 control=64 value=71 time=15
control_change channel=0 control=64 value=72 time=16
control_change channel=0 control=64 value=73 time=14
control_change channel=0 control=64 value=75 time=16
control_change channel=0 control=64 value=76 time=15
note_on channel=0 note=59 velocity=0 time=5
note_on channel=0 note=47 velocity=36 time=8
control_change channel=0 control=64 value=77 time=2
control_change channel=0 control=64 value=79 time=16
note_on channel=0 note=63 velocity=0 time=2
control_change channel=0 control=64 value=80 time=12
control_change channel=0 control=64 value=81 time=15
control_change channel=0 control=64 value=83 time=16
control_change channel=0 control=67 value=88 time=0
control_change channel=0 control=64 value=84 time=15
control_change channel=0 control=64 value=85 time=16
control_change channel=0 control=64 value=86 time=14
control_change channel=0 control=64 value=86 time=15
control_change channel=0 control=64 value=86 time=122
control_change channel=0 control=64 value=85 time=31
note_on channel=0 note=62 velocity=47 time=6
control_change channel=0 control=64 value=85 time=8
note_on channel=0 note=47 velocity=0 time=2
control_change channel=0 control=64 value=84 time=14
note_on channel=0 note=59 velocity=33 time=1
note_on channel=0 note=68 velocity=0 time=7
control_change channel=0 control=64 value=82 time=7
control_change channel=0 control=64 value=79 time=16
control_change channel=0 control=64 value=73 time=15
control_change channel=0 control=64 value=66 time=14
control_change channel=0 control=64 value=54 time=16
control_change channel=0 control=64 value=58 time=31
control_change channel=0 control=64 value=59 time=15
control_change channel=0 control=64 value=61 time=14
control_change channel=0 control=64 value=62 time=16
control_change channel=0 control=64 value=64 time=15
control_change channel=0 control=64 value=66 time=16
control_change channel=0 control=64 value=68 time=23
control_change channel=0 control=64 value=69 time=15
control_change channel=0 control=67 value=87 time=0
control_change channel=0 control=64 value=70 time=15
control_change channel=0 control=64 value=72 time=15
control_change channel=0 control=67 value=87 time=0
control_change channel=0 control=64 value=73 time=16
control_change channel=0 control=64 value=75 time=15
control_change channel=0 control=64 value=77 time=15
control_change channel=0 control=64 value=78 time=16
control_change channel=0 control=64 value=80 time=14
note_on channel=0 note=47 velocity=31 time=4
control_change channel=0 control=64 value=82 time=11
control_change channel=0 control=64 value=83 time=16
control_change channel=0 control=67 value=86 time=0
control_change channel=0 control=64 value=84 time=15
control_change channel=0 control=64 value=86 time=16
control_change channel=0 control=64 value=88 time=15
control_change channel=0 control=64 value=89 time=14
control_change channel=0 control=64 value=90 time=16
control_change channel=0 control=64 value=92 time=15
control_change channel=0 control=64 value=92 time=15
control_change channel=0 control=64 value=93 time=16
control_change channel=0 control=64 value=94 time=14
note_on channel=0 note=59 velocity=0 time=14
control_change channel=0 control=64 value=94 time=17
control_change channel=0 control=64 value=95 time=15
control_change channel=0 control=64 value=96 time=30
control_change channel=0 control=64 value=97 time=16
control_change channel=0 control=64 value=97 time=15
control_change channel=0 control=64 value=98 time=14
note_on channel=0 note=74 velocity=52 time=75
control_change channel=0 control=64 value=98 time=1
note_on channel=0 note=47 velocity=0 time=24
note_on channel=0 note=56 velocity=24 time=22
control_change channel=0 control=64 value=99 time=137
note_on channel=0 note=56 velocity=0 time=78
note_on channel=0 note=47 velocity=18 time=63
control_change channel=0 control=64 value=99 time=141
note_on channel=0 note=47 velocity=0 time=79
note_on channel=0 note=71 velocity=49 time=0
control_change channel=0 control=64 value=100 time=12
note_on channel=0 note=56 velocity=37 time=15
note_on channel=0 note=74 velocity=0 time=23
control_change channel=0 control=64 value=100 time=7
note_on channel=0 note=56 velocity=0 time=111
note_on channel=0 note=47 velocity=31 time=32
note_on channel=0 note=71 velocity=0 time=131
note_on channel=0 note=47 velocity=0 time=1
note_on channel=0 note=62 velocity=0 time=24
note_on channel=0 note=68 velocity=47 time=0
note_on channel=0 note=59 velocity=33 time=18
control_change channel=0 control=67 value=86 time=62
note_on channel=0 note=59 velocity=0 time=56
note_on channel=0 note=47 velocity=28 time=29
control_change channel=0 control=64 value=99 time=76
control_change channel=0 control=64 value=98 time=15
control_change channel=0 control=64 value=95 time=15
control_change channel=0 control=67 value=86 time=0
control_change channel=0 control=64 value=90 time=16
control_change channel=0 control=64 value=81 time=15
note_on channel=0 note=68 velocity=0 time=5
control_change channel=0 control=64 value=71 time=10
control_change channel=0 control=64 value=61 time=15
note_on channel=0 note=57 velocity=33 time=3
note_on channel=0 note=66 velocity=42 time=11
control_change channel=0 control=64 value=58 time=1
note_on channel=0 note=61 velocity=26 time=0
note_on channel=0 note=47 velocity=0 time=6
control_change channel=0 control=64 value=61 time=10
control_change channel=0 control=64 value=62 time=15
control_change channel=0 control=64 value=63 time=14
control_change channel=0 control=64 value=65 time=16
control_change channel=0 control=64 value=67 time=15
note_on channel=0 note=66 velocity=0 time=9
control_change channel=0 control=64 value=69 time=7
control_change channel=0 control=64 value=71 time=14
note_on channel=0 note=68 velocity=48 time=9
note_on channel=0 note=57 velocity=0 time=3
control_change channel=0 control=64 value=72 time=3
control_change channel=0 control=64 value=74 time=16
control_change channel=0 control=64 value=75 time=15
note_on channel=0 note=49 velocity=42 time=7
note_on channel=0 note=68 velocity=0 time=3
control_change channel=0 control=64 value=77 time=4
control_change channel=0 control=64 value=78 time=16
note_on channel=0 note=66 velocity=49 time=11
control_change channel=0 control=64 value=80 time=4
note_on channel=0 note=61 velocity=0 time=8
control_change channel=0 control=64 value=81 time=8
note_on channel=0 note=49 velocity=0 time=10
note_on channel=0 note=66 velocity=0 time=3
control_change channel=0 control=64 value=83 time=2
control_change channel=0 control=64 value=84 time=14
note_on channel=0 note=68 velocity=49 time=0
control_change channel=0 control=64 value=86 time=16
note_on channel=0 note=57 velocity=40 time=3
control_change channel=0 control=64 value=87 time=12
control_change channel=0 control=67 value=86 time=0
note_on channel=0 note=68 velocity=0 time=4
control_change channel=0 control=64 value=87 time=12
note_on channel=0 note=66 velocity=57 time=9
note_on channel=0 note=66 velocity=0 time=23
note_on channel=0 note=68 velocity=67 time=22
note_on channel=0 note=57 velocity=0 time=21
note_on channel=0 note=68 velocity=0 time=18
note_on channel=0 note=66 velocity=53 time=19
note_on channel=0 note=49 velocity=41 time=16
note_on channel=0 note=65 velocity=63 time=34
note_on channel=0 note=66 velocity=0 time=20
note_on channel=0 note=66 velocity=36 time=15
control_change channel=0 control=67 value=86 time=16
note_on channel=0 note=49 velocity=0 time=7
note_on channel=0 note=65 velocity=0 time=1
control_change channel=0 control=64 value=87 time=7
control_change channel=0 control=64 value=85 time=16
control_change channel=0 control=64 value=82 time=15
control_change channel=0 control=64 value=75 time=15
note_on channel=0 note=66 velocity=0 time=2
note_on channel=0 note=68 velocity=60 time=11
note_on channel=0 note=59 velocity=37 time=3
control_change channel=0 control=64 value=66 time=6
control_change channel=0 control=64 value=0 time=15
control_change channel=0 control=64 value=11 time=46
control_change channel=0 control=64 value=43 time=15
control_change channel=0 control=64 value=55 time=15
note_on channel=0 note=59 velocity=0 time=10
control_change channel=0 control=64 value=62 time=6
control_change channel=0 control=64 value=64 time=16
control_change channel=0 control=64 value=66 time=15
note_on channel=0 note=49 velocity=45 time=8
control_change channel=0 control=64 value=68 time=8
control_change channel=0 control=64 value=69 time=14
control_change channel=0 control=64 value=70 time=16
control_change channel=0 control=64 value=71 time=15
control_change channel=0 control=64 value=72 time=15
control_change channel=0 control=64 value=74 time=15
control_change channel=0 control=64 value=75 time=15
control_change channel=0 control=64 value=77 time=15
note_on channel=0 note=49 velocity=0 time=12
control_change channel=0 control=64 value=78 time=4
control_change channel=0 control=64 value=79 time=15
note_on channel=0 note=68 velocity=0 time=15
control_change channel=0 control=64 value=81 time=1
control_change channel=0 control=64 value=83 time=15
note_on channel=0 note=73 velocity=62 time=2
control_change channel=0 control=64 value=85 time=13
note_on channel=0 note=65 velocity=37 time=7
note_on channel=0 note=59 velocity=34 time=2
control_change channel=0 control=64 value=86 time=6
control_change channel=0 control=64 value=88 time=15
control_change channel=0 control=64 value=89 time=15
control_change channel=0 control=64 value=91 time=16
control_change channel=0 control=64 value=92 time=15
control_change channel=0 control=64 value=93 time=15
control_change channel=0 control=64 value=93 time=15
control_change channel=0 control=64 value=94 time=31
note_on channel=0 note=59 velocity=0 time=31
note_on channel=0 note=49 velocity=49 time=12
note_on channel=0 note=49 velocity=0 time=33
note_on channel=0 note=73 velocity=0 time=49
control_change channel=0 control=64 value=93 time=101
control_change channel=0 control=64 value=93 time=31
note_on channel=0 note=73 velocity=52 time=31
control_change channel=0 control=64 value=92 time=7
note_on channel=0 note=65 velocity=0 time=1
control_change channel=0 control=64 value=91 time=15
note_on channel=0 note=42 velocity=39 time=1
note_on channel=0 note=66 velocity=36 time=4
control_change channel=0 control=64 value=88 time=10
control_change channel=0 control=64 value=82 time=15
control_change channel=0 control=64 value=74 time=16
control_change channel=0 control=67 value=87 time=0
control_change channel=0 control=64 value=64 time=14
control_change channel=0 control=64 value=44 time=15
control_change channel=0 control=64 value=48 time=16
control_change channel=0 control=64 value=54 time=15
control_change channel=0 control=64 value=56 time=16
control_change channel=0 control=64 value=58 time=14
control_change channel=0 control=64 value=60 time=16
control_change channel=0 control=64 value=62 time=16
control_change channel=0 control=64 value=64 time=15
control_change channel=0 control=64 value=65 time=16
control_change channel=0 control=67 value=86 time=0
control_change channel=0 control=64 value=66 time=14
control_change channel=0 control=64 value=67 time=15
control_change channel=0 control=64 value=69 time=16
control_change channel=0 control=64 value=71 time=15
control_change channel=0 control=64 value=72 time=15
control_change channel=0 control=64 value=74 time=15
note_on channel=0 note=49 velocity=43 time=8
control_change channel=0 control=64 value=75 time=5
control_change channel=0 control=64 value=76 time=15
control_change channel=0 control=67 value=86 time=0
control_change channel=0 control=64 value=77 time=16
control_change channel=0 control=64 value=78 time=15
control_change channel=0 control=64 value=79 time=15
control_change channel=0 control=67 value=85 time=0
control_change channel=0 control=64 value=80 time=15
control_change channel=0 control=64 value=81 time=15
control_change channel=0 control=67 value=85 time=0
note_on channel=0 note=49 velocity=0 time=14
control_change channel=0 control=64 value=82 time=2
control_change channel=0 control=64 value=82 time=15
control_change channel=0 control=64 value=83 time=15
control_change channel=0 control=67 value=84 time=16
note_on channel=0 note=73 velocity=0 time=9
note_on channel=0 note=54 velocity=43 time=2
control_change channel=0 control=64 value=83 time=34
note_on channel=0 note=42 velocity=0 time=5
note_on channel=0 note=66 velocity=0 time=5
control_change channel=0 control=67 value=84 time=5
note_on channel=0 note=54 velocity=0 time=33
control_change channel=0 control=64 value=84 time=43
control_change channel=0 control=64 value=84 time=15
note_on channel=0 note=49 velocity=49 time=5
control_change channel=0 control=67 value=83 time=41
control_change channel=0 control=67 value=83 time=29
note_on channel=0 note=49 velocity=0 time=17
control_change channel=0 control=67 value=82 time=52
note_on channel=0 note=57 velocity=45 time=8
control_change channel=0 control=67 value=82 time=8
control_change channel=0 control=67 value=81 time=15
control_change channel=0 control=67 value=80 time=15
control_change channel=0 control=67 value=79 time=15
control_change channel=0 control=67 value=79 time=15
control_change channel=0 control=67 value=78 time=15
control_change channel=0 control=67 value=78 time=16
control_change channel=0 control=67 value=77 time=15
note_on channel=0 note=57 velocity=0 time=1
control_change channel=0 control=67 value=77 time=15
control_change channel=0 control=67 value=76 time=14
note_on channel=0 note=54 velocity=44 time=8
control_change channel=0 control=64 value=85 time=7
control_change channel=0 control=67 value=76 time=16
control_change channel=0 control=64 value=85 time=14
control_change channel=0 control=67 value=75 time=0
control_change channel=0 control=64 value=86 time=15
control_change channel=0 control=67 value=75 time=0
control_change channel=0 control=64 value=87 time=18
control_change channel=0 control=67 value=74 time=0
note_on channel=0 note=54 velocity=0 time=1
control_change channel=0 control=67 value=74 time=13
control_change channel=0 control=67 value=73 time=16
control_change channel=0 control=67 value=72 time=15
control_change channel=0 control=67 value=71 time=15
control_change channel=0 control=67 value=70 time=15
note_on channel=0 note=61 velocity=48 time=10
control_change channel=0 control=67 value=69 time=5
control_change channel=0 control=67 value=68 time=16
control_change channel=0 control=67 value=66 time=15
control_change channel=0 control=67 value=65 time=15
control_change channel=0 control=64 value=87 time=15
control_change channel=0 control=67 value=64 time=0
control_change channel=0 control=64 value=88 time=15
control_change channel=0 control=67 value=63 time=0
control_change channel=0 control=64 value=90 time=15
control_change channel=0 control=67 value=61 time=0
note_on channel=0 note=61 velocity=0 time=5
control_change channel=0 control=64 value=90 time=11
control_change channel=0 control=67 value=59 time=0
note_on channel=0 note=57 velocity=53 time=10
control_change channel=0 control=67 value=56 time=5
control_change channel=0 control=67 value=54 time=15
control_change channel=0 control=67 value=52 time=15
control_change channel=0 control=67 value=50 time=15
control_change channel=0 control=67 value=48 time=16
control_change channel=0 control=64 value=89 time=15
control_change channel=0 control=67 value=47 time=0
control_change channel=0 control=64 value=88 time=15
control_change channel=0 control=67 value=46 time=0
control_change channel=0 control=64 value=86 time=16
control_change channel=0 control=67 value=45 time=0
note_on channel=0 note=57 velocity=0 time=9
control_change channel=0 control=64 value=85 time=6
control_change channel=0 control=67 value=44 time=0
control_change channel=0 control=67 value=43 time=15
note_on channel=0 note=66 velocity=56 time=7
control_change channel=0 control=67 value=42 time=8
control_change channel=0 control=67 value=40 time=15
control_change channel=0 control=64 value=86 time=15
control_change channel=0 control=67 value=38 time=0
control_change channel=0 control=64 value=87 time=15
control_change channel=0 control=67 value=37 time=0
control_change channel=0 control=64 value=88 time=15
control_change channel=0 control=67 value=35 time=0
note_on channel=0 note=66 velocity=0 time=7
control_change channel=0 control=64 value=89 time=9
control_change channel=0 control=67 value=32 time=0
control_change channel=0 control=64 value=89 time=15
control_change channel=0 control=67 value=29 time=0
control_change channel=0 control=67 value=27 time=15
control_change channel=0 control=67 value=25 time=15
note_on channel=0 note=61 velocity=66 time=2
control_change channel=0 control=64 value=89 time=13
control_change channel=0 control=67 value=23 time=0
control_change channel=0 control=64 value=86 time=16
control_change channel=0 control=67 value=20 time=0
control_change channel=0 control=64 value=82 time=22
control_change channel=0 control=67 value=17 time=0
control_change channel=0 control=64 value=80 time=16
control_change channel=0 control=67 value=16 time=0
control_change channel=0 control=67 value=13 time=15
control_change channel=0 control=67 value=11 time=15
control_change channel=0 control=64 value=80 time=16
control_change channel=0 control=67 value=0 time=0
control_change channel=0 control=64 value=81 time=14
control_change channel=0 control=64 value=83 time=16
note_on channel=0 note=69 velocity=73 time=1
control_change channel=0 control=64 value=84 time=14
control_change channel=0 control=64 value=86 time=15
note_on channel=0 note=61 velocity=0 time=15
control_change channel=0 control=64 value=87 time=1
control_change channel=0 control=64 value=89 time=14
control_change channel=0 control=64 value=91 time=16
control_change channel=0 control=64 value=93 time=15
control_change channel=0 control=64 value=95 time=15
control_change channel=0 control=64 value=96 time=16
note_on channel=0 note=66 velocity=79 time=6
control_change channel=0 control=64 value=96 time=23
control_change channel=0 control=64 value=97 time=16
control_change channel=0 control=64 value=97 time=16
note_on channel=0 note=69 velocity=0 time=28
control_change channel=0 control=64 value=93 time=48
control_change channel=0 control=64 value=85 time=15
control_change channel=0 control=64 value=74 time=15
control_change channel=0 control=64 value=66 time=15
note_on channel=0 note=73 velocity=80 time=9
control_change channel=0 control=64 value=69 time=22
note_on channel=0 note=66 velocity=0 time=8
control_change channel=0 control=64 value=71 time=7
control_change channel=0 control=64 value=73 time=15
control_change channel=0 control=64 value=77 time=15
control_change channel=0 control=64 value=80 time=16
control_change channel=0 control=64 value=83 time=14
note_on channel=0 note=73 velocity=0 time=10
control_change channel=0 control=64 value=86 time=5
control_change channel=0 control=64 value=88 time=16
control_change channel=0 control=64 value=90 time=15
control_change channel=0 control=64 value=92 time=15
control_change channel=0 control=64 value=94 time=16
control_change channel=0 control=64 value=95 time=15
control_change channel=0 control=64 value=93 time=189
control_change channel=0 control=64 value=85 time=15
control_change channel=0 control=64 value=70 time=16
control_change channel=0 control=64 value=0 time=15
note_on channel=0 note=78 velocity=83 time=106
control_change channel=0 control=64 value=45 time=1
control_change channel=0 control=64 value=62 time=15
note_on channel=0 note=66 velocity=52 time=5
control_change channel=0 control=64 value=68 time=10
control_change channel=0 control=64 value=72 time=16
control_change channel=0 control=64 value=77 time=14
control_change channel=0 control=64 value=82 time=16
control_change channel=0 control=64 value=87 time=15
control_change channel=0 control=64 value=91 time=15
control_change channel=0 control=64 value=94 time=16
control_change channel=0 control=64 value=95 time=14
control_change channel=0 control=64 value=97 time=17
control_change channel=0 control=64 value=99 time=15
control_change channel=0 control=64 value=101 time=15
note_on channel=0 note=66 velocity=0 time=13
control_change channel=0 control=64 value=101 time=3
control_change channel=0 control=64 value=102 time=14
control_change channel=0 control=64 value=103 time=31
control_change channel=0 control=64 value=103 time=15
note_on channel=0 note=78 velocity=0 time=197
control_change channel=0 control=64 value=102 time=61
control_change channel=0 control=64 value=101 time=15
control_change channel=0 control=64 value=97 time=15
control_change channel=0 control=64 value=89 time=16
control_change channel=0 control=64 value=76 time=15
note_on channel=0 note=78 velocity=68 time=1
note_on channel=0 note=42 velocity=30 time=18
control_change channel=0 control=64 value=65 time=4
note_on channel=0 note=66 velocity=42 time=5
control_change channel=0 control=64 value=64 time=9
control_change channel=0 control=64 value=68 time=15
control_change channel=0 control=64 value=71 time=16
control_change channel=0 control=64 value=73 time=15
control_change channel=0 control=64 value=78 time=16
control_change channel=0 control=67 value=8 time=0
control_change channel=0 control=64 value=83 time=14
control_change channel=0 control=67 value=9 time=0
control_change channel=0 control=64 value=87 time=15
control_change channel=0 control=67 value=11 time=0
control_change channel=0 control=64 value=90 time=16
control_change channel=0 control=67 value=11 time=0
control_change channel=0 control=64 value=91 time=15
control_change channel=0 control=67 value=12 time=0
note_on channel=0 note=42 velocity=0 time=9
control_change channel=0 control=64 value=93 time=7
control_change channel=0 control=67 value=12 time=0
control_change channel=0 control=64 value=95 time=15
control_change channel=0 control=64 value=96 time=15
control_change channel=0 control=67 value=13 time=0
control_change channel=0 control=64 value=98 time=15
control_change channel=0 control=67 value=14 time=0
control_change channel=0 control=64 value=100 time=15
control_change channel=0 control=67 value=15 time=0
control_change channel=0 control=64 value=101 time=15
control_change channel=0 control=67 value=15 time=0
control_change channel=0 control=64 value=102 time=16
control_change channel=0 control=67 value=16 time=0
control_change channel=0 control=64 value=103 time=15
control_change channel=0 control=67 value=16 time=0
control_change channel=0 control=64 value=104 time=16
control_change channel=0 control=67 value=17 time=0
control_change channel=0 control=64 value=104 time=15
control_change channel=0 control=67 value=17 time=0
control_change channel=0 control=64 value=105 time=14
control_change channel=0 control=67 value=18 time=0
control_change channel=0 control=64 value=105 time=31
control_change channel=0 control=67 value=19 time=0
note_on channel=0 note=58 velocity=33 time=17
control_change channel=0 control=67 value=19 time=29
control_change channel=0 control=64 value=106 time=76
control_change channel=0 control=67 value=19 time=76
note_on channel=0 note=58 velocity=0 time=7
note_on channel=0 note=61 velocity=36 time=4
control_change channel=0 control=67 value=18 time=80
control_change channel=0 control=67 value=18 time=30
note_on channel=0 note=61 velocity=0 time=34
note_on channel=0 note=54 velocity=25 time=1
control_change channel=0 control=67 value=17 time=11
note_on channel=0 note=54 velocity=0 time=44
control_change channel=0 control=64 value=105 time=1
control_change channel=0 control=67 value=17 time=0
control_change channel=0 control=64 value=105 time=69
note_on channel=0 note=62 velocity=44 time=14
control_change channel=0 control=64 value=101 time=1
note_on channel=0 note=71 velocity=57 time=6
control_change channel=0 control=64 value=98 time=10
control_change channel=0 control=64 value=92 time=14
control_change channel=0 control=64 value=92 time=16
note_on channel=0 note=66 velocity=0 time=24
control_change channel=0 control=67 value=16 time=6
control_change channel=0 control=64 value=92 time=30
control_change channel=0 control=67 value=16 time=0
control_change channel=0 control=64 value=94 time=15
note_on channel=0 note=62 velocity=0 time=0
note_on channel=0 note=54 velocity=52 time=15
control_change channel=0 control=64 value=95 time=1
control_change channel=0 control=64 value=95 time=15
control_change channel=0 control=64 value=96 time=16
control_change channel=0 control=67 value=15 time=14
control_change channel=0 control=64 value=97 time=15
control_change channel=0 control=64 value=97 time=16
control_change channel=0 control=64 value=96 time=31
control_change channel=0 control=64 value=92 time=15
note_on channel=0 note=54 velocity=0 time=5
control_change channel=0 control=64 value=86 time=10
note_on channel=0 note=64 velocity=58 time=3
note_on channel=0 note=73 velocity=64 time=7
control_change channel=0 control=64 value=79 time=6
control_change channel=0 control=64 value=76 time=15
note_on channel=0 note=71 velocity=0 time=0
control_change channel=0 control=64 value=77 time=14
control_change channel=0 control=67 value=16 time=0
control_change channel=0 control=64 value=79 time=16
control_change channel=0 control=64 value=82 time=15
control_change channel=0 control=64 value=86 time=16
control_change channel=0 control=64 value=89 time=15
control_change channel=0 control=67 value=16 time=0
note_on channel=0 note=78 velocity=0 time=14
control_change channel=0 control=64 value=90 time=1
note_on channel=0 note=54 velocity=56 time=10
note_on channel=0 note=64 velocity=0 time=4
control_change channel=0 control=64 value=92 time=2
control_change channel=0 control=67 value=17 time=0
control_change channel=0 control=64 value=92 time=15
control_change channel=0 control=67 value=17 time=16
control_change channel=0 control=67 value=18 time=29
control_change channel=0 control=64 value=92 time=16
control_change channel=0 control=64 value=88 time=15
control_change channel=0 control=67 value=18 time=0
control_change channel=0 control=64 value=83 time=15
control_change channel=0 control=67 value=19 time=0
control_change channel=0 control=64 value=75 time=16
note_on channel=0 note=54 velocity=0 time=4
note_on channel=0 note=65 velocity=58 time=6
control_change channel=0 control=64 value=71 time=4
note_on channel=0 note=66 velocity=51 time=1
control_change channel=0 control=64 value=72 time=15
control_change channel=0 control=64 value=73 time=15
control_change channel=0 control=64 value=74 time=14
note_on channel=0 note=73 velocity=0 time=15
control_change channel=0 control=64 value=75 time=1
control_change channel=0 control=67 value=19 time=0
control_change channel=0 control=64 value=77 time=15
control_change channel=0 control=67 value=20 time=0
control_change channel=0 control=64 value=78 time=15
control_change channel=0 control=64 value=79 time=16
control_change channel=0 control=64 value=80 time=14
note_on channel=0 note=65 velocity=0 time=8
control_change channel=0 control=67 value=20 time=16
note_on channel=0 note=54 velocity=46 time=12
control_change channel=0 control=67 value=21 time=3
control_change channel=0 control=67 value=22 time=16
control_change channel=0 control=67 value=26 time=15
control_change channel=0 control=64 value=78 time=14
control_change channel=0 control=67 value=30 time=0
control_change channel=0 control=64 value=75 time=16
control_change channel=0 control=67 value=36 time=0
control_change channel=0 control=64 value=70 time=15
control_change channel=0 control=67 value=40 time=0
control_change channel=0 control=64 value=63 time=14
control_change channel=0 control=67 value=42 time=0
control_change channel=0 control=64 value=64 time=16
control_change channel=0 control=67 value=44 time=0
note_on channel=0 note=54 velocity=0 time=5
control_change channel=0 control=64 value=66 time=10
control_change channel=0 control=67 value=45 time=0
note_on channel=0 note=64 velocity=54 time=14
control_change channel=0 control=64 value=67 time=2
control_change channel=0 control=67 value=46 time=0
control_change channel=0 control=64 value=69 time=15
control_change channel=0 control=67 value=46 time=0
control_change channel=0 control=64 value=71 time=14
control_change channel=0 control=67 value=47 time=0
control_change channel=0 control=64 value=73 time=16
control_change channel=0 control=67 value=48 time=0
control_change channel=0 control=64 value=75 time=15
control_change channel=0 control=67 value=48 time=0
control_change channel=0 control=64 value=77 time=15
control_change channel=0 control=64 value=78 time=16
control_change channel=0 control=67 value=49 time=0
control_change channel=0 control=64 value=78 time=14
control_change channel=0 control=67 value=50 time=0
control_change channel=0 control=67 value=52 time=16
note_on channel=0 note=54 velocity=39 time=14
control_change channel=0 control=67 value=54 time=1
control_change channel=0 control=64 value=77 time=15
control_change channel=0 control=67 value=56 time=0
control_change channel=0 control=64 value=75 time=15
control_change channel=0 control=67 value=58 time=0
control_change channel=0 control=64 value=71 time=15
control_change channel=0 control=67 value=60 time=0
note_on channel=0 note=64 velocity=0 time=9
control_change channel=0 control=64 value=66 time=6
control_change channel=0 control=67 value=62 time=0
control_change channel=0 control=67 value=64 time=16
control_change channel=0 control=64 value=67 time=15
control_change channel=0 control=67 value=65 time=0
note_on channel=0 note=54 velocity=0 time=0
control_change channel=0 control=64 value=68 time=16
control_change channel=0 control=67 value=66 time=0
control_change channel=0 control=64 value=69 time=15
control_change channel=0 control=67 value=68 time=0
note_on channel=0 note=63 velocity=43 time=0
control_change channel=0 control=64 value=71 time=15
control_change channel=0 control=67 value=68 time=0
control_change channel=0 control=64 value=73 time=15
control_change channel=0 control=64 value=75 time=15
control_change channel=0 control=64 value=76 time=16
control_change channel=0 control=64 value=77 time=15
control_change channel=0 control=64 value=77 time=15
control_change channel=0 control=64 value=78 time=31
control_change channel=0 control=64 value=79 time=15
control_change channel=0 control=64 value=80 time=16
note_on channel=0 note=63 velocity=0 time=0
note_on channel=0 note=54 velocity=37 time=12
control_change channel=0 control=64 value=80 time=19
control_change channel=0 control=64 value=79 time=14
note_on channel=0 note=54 velocity=0 time=40
note_on channel=0 note=71 velocity=53 time=36
control_change channel=0 control=64 value=80 time=1
control_change channel=0 control=64 value=80 time=14
note_on channel=0 note=62 velocity=34 time=5
control_change channel=0 control=64 value=81 time=11
control_change channel=0 control=64 value=82 time=15
control_change channel=0 control=64 value=83 time=14
control_change channel=0 control=64 value=84 time=16
note_on channel=0 note=66 velocity=0 time=37
control_change channel=0 control=67 value=68 time=1
control_change channel=0 control=67 value=67 time=30
note_on channel=0 note=62 velocity=0 time=0
note_on channel=0 note=54 velocity=33 time=19
control_change channel=0 control=64 value=83 time=88
control_change channel=0 control=64 value=81 time=15
note_on channel=0 note=54 velocity=0 time=0
control_change channel=0 control=64 value=78 time=15
note_on channel=0 note=70 velocity=54 time=0
control_change channel=0 control=64 value=72 time=15
control_change channel=0 control=64 value=70 time=16
note_on channel=0 note=61 velocity=25 time=1
note_on channel=0 note=71 velocity=0 time=3
control_change channel=0 control=64 value=71 time=11
control_change channel=0 control=64 value=71 time=14
control_change channel=0 control=64 value=72 time=16
control_change channel=0 control=67 value=67 time=0
control_change channel=0 control=64 value=73 time=15
control_change channel=0 control=67 value=66 time=0
control_change channel=0 control=64 value=74 time=16
control_change channel=0 control=67 value=66 time=0
control_change channel=0 control=64 value=75 time=14
control_change channel=0 control=64 value=76 time=15
control_change channel=0 control=67 value=65 time=0
control_change channel=0 control=64 value=77 time=16
note_on channel=0 note=54 velocity=39 time=7
control_change channel=0 control=64 value=78 time=8
control_change channel=0 control=67 value=65 time=0
control_change channel=0 control=64 value=79 time=15
note_on channel=0 note=61 velocity=0 time=7
control_change channel=0 control=64 value=79 time=8
control_change channel=0 control=64 value=80 time=15
control_change channel=0 control=64 value=80 time=16
note_on channel=0 note=54 velocity=0 time=7
control_change channel=0 control=64 value=80 time=23
note_on channel=0 note=70 velocity=0 time=8
note_on channel=0 note=71 velocity=60 time=4
control_change channel=0 control=64 value=78 time=3
control_change channel=0 control=64 value=75 time=15
note_on channel=0 note=62 velocity=41 time=3
control_change channel=0 control=64 value=73 time=12
control_change channel=0 control=64 value=72 time=16
control_change channel=0 control=64 value=73 time=15
control_change channel=0 control=64 value=73 time=17
control_change channel=0 control=67 value=64 time=0
control_change channel=0 control=64 value=74 time=14
control_change channel=0 control=64 value=75 time=15
control_change channel=0 control=64 value=76 time=16
note_on channel=0 note=62 velocity=0 time=5
control_change channel=0 control=64 value=78 time=10
control_change channel=0 control=67 value=64 time=0
note_on channel=0 note=54 velocity=41 time=11
control_change channel=0 control=64 value=79 time=5
control_change channel=0 control=64 value=80 time=15
control_change channel=0 control=64 value=80 time=15
control_change channel=0 control=64 value=81 time=16
control_change channel=0 control=64 value=80 time=15
control_change channel=0 control=64 value=79 time=14
control_change channel=0 control=64 value=76 time=16
note_on channel=0 note=54 velocity=0 time=9
control_change channel=0 control=64 value=74 time=6
note_on channel=0 note=73 velocity=67 time=15
control_change channel=0 control=64 value=74 time=16
note_on channel=0 note=58 velocity=38 time=13
note_on channel=0 note=71 velocity=0 time=5
control_change channel=0 control=64 value=75 time=5
control_change channel=0 control=67 value=63 time=0
control_change channel=0 control=64 value=76 time=15
control_change channel=0 control=64 value=77 time=15
control_change channel=0 control=67 value=63 time=0
control_change channel=0 control=64 value=79 time=15
control_change channel=0 control=64 value=80 time=15
note_on channel=0 note=58 velocity=0 time=5
control_change channel=0 control=64 value=81 time=10
control_change channel=0 control=67 value=62 time=0
control_change channel=0 control=64 value=82 time=16
note_on channel=0 note=54 velocity=41 time=2
control_change channel=0 control=64 value=83 time=28
control_change channel=0 control=64 value=85 time=15
control_change channel=0 control=64 value=85 time=15
control_change channel=0 control=64 value=84 time=30
control_change channel=0 control=64 value=81 time=15
note_on channel=0 note=54 velocity=0 time=7
control_change channel=0 control=64 value=75 time=9
note_on channel=0 note=74 velocity=73 time=6
control_change channel=0 control=64 value=71 time=9
note_on channel=0 note=73 velocity=0 time=4
note_on channel=0 note=59 velocity=46 time=5
control_change channel=0 control=64 value=73 time=22
control_change channel=0 control=64 value=74 time=15
control_change channel=0 control=64 value=75 time=16
control_change channel=0 control=67 value=62 time=0
control_change channel=0 control=64 value=77 time=15
control_change channel=0 control=64 value=78 time=15
note_on channel=0 note=59 velocity=0 time=23
control_change channel=0 control=64 value=78 time=7
control_change channel=0 control=67 value=61 time=0
control_change channel=0 control=64 value=80 time=15
note_on channel=0 note=54 velocity=37 time=2
control_change channel=0 control=64 value=81 time=13
control_change channel=0 control=64 value=83 time=15
control_change channel=0 control=64 value=82 time=31
control_change channel=0 control=64 value=79 time=16
control_change channel=0 control=64 value=74 time=14
note_on channel=0 note=54 velocity=0 time=7
control_change channel=0 control=64 value=67 time=8
note_on channel=0 note=74 velocity=0 time=11
note_on channel=0 note=76 velocity=67 time=4
control_change channel=0 control=64 value=64 time=1
note_on channel=0 note=73 velocity=52 time=10
control_change channel=0 control=64 value=67 time=5
note_on channel=0 note=66 velocity=44 time=0
control_change channel=0 control=64 value=69 time=15
control_change channel=0 control=64 value=71 time=15
control_change channel=0 control=67 value=61 time=0
control_change channel=0 control=64 value=73 time=15
control_change channel=0 control=64 value=75 time=16
control_change channel=0 control=64 value=78 time=16
control_change channel=0 control=67 value=60 time=0
control_change channel=0 control=64 value=80 time=15
control_change channel=0 control=67 value=59 time=0
note_on channel=0 note=54 velocity=51 time=3
control_change channel=0 control=64 value=82 time=12
control_change channel=0 control=67 value=58 time=0
note_on channel=0 note=66 velocity=0 time=6
control_change channel=0 control=64 value=83 time=8
control_change channel=0 control=67 value=58 time=0
control_change channel=0 control=64 value=84 time=16
control_change channel=0 control=67 value=57 time=0
control_change channel=0 control=64 value=85 time=15
control_change channel=0 control=64 value=86 time=15
control_change channel=0 control=64 value=87 time=15
control_change channel=0 control=67 value=57 time=0
control_change channel=0 control=64 value=86 time=15
note_on channel=0 note=54 velocity=0 time=14
control_change channel=0 control=64 value=84 time=1
control_change channel=0 control=67 value=56 time=0
control_change channel=0 control=64 value=79 time=16
note_on channel=0 note=67 velocity=61 time=12
control_change channel=0 control=64 value=73 time=3
control_change channel=0 control=67 value=56 time=0
control_change channel=0 control=64 value=71 time=23
control_change channel=0 control=67 value=55 time=0
control_change channel=0 control=64 value=72 time=15
control_change channel=0 control=67 value=53 time=0
control_change channel=0 control=64 value=74 time=16
control_change channel=0 control=67 value=52 time=0
control_change channel=0 control=64 value=75 time=14
control_change channel=0 control=67 value=50 time=0
control_change channel=0 control=64 value=77 time=15
control_change channel=0 control=67 value=48 time=0
control_change channel=0 control=64 value=80 time=16
control_change channel=0 control=67 value=46 time=0
note_on channel=0 note=67 velocity=0 time=6
control_change channel=0 control=64 value=82 time=9
control_change channel=0 control=67 value=43 time=0
note_on channel=0 note=55 velocity=68 time=8
control_change channel=0 control=64 value=84 time=7
control_change channel=0 control=67 value=40 time=0
control_change channel=0 control=64 value=85 time=15
control_change channel=0 control=67 value=35 time=0
control_change channel=0 control=64 value=86 time=15
control_change channel=0 control=67 value=32 time=0
control_change channel=0 control=67 value=29 time=16
control_change channel=0 control=67 value=27 time=15
control_change channel=0 control=67 value=24 time=15
control_change channel=0 control=67 value=22 time=16
control_change channel=0 control=64 value=85 time=14
control_change channel=0 control=67 value=20 time=0
control_change channel=0 control=64 value=81 time=15
control_change channel=0 control=67 value=17 time=0
note_on channel=0 note=55 velocity=0 time=15
note_on channel=0 note=76 velocity=0 time=0
control_change channel=0 control=64 value=73 time=1
control_change channel=0 control=67 value=13 time=0
note_on channel=0 note=75 velocity=66 time=8
note_on channel=0 note=73 velocity=0 time=1
note_on channel=0 note=68 velocity=55 time=2
control_change channel=0 control=64 value=60 time=4
control_change channel=0 control=67 value=0 time=0
note_on channel=0 note=72 velocity=52 time=5
control_change channel=0 control=64 value=0 time=11
control_change channel=0 control=64 value=23 time=60
control_change channel=0 control=64 value=57 time=15
control_change channel=0 control=64 value=65 time=16
control_change channel=0 control=64 value=69 time=15
note_on channel=0 note=68 velocity=0 time=2
note_on channel=0 note=75 velocity=0 time=4
note_on channel=0 note=56 velocity=61 time=3
control_change channel=0 control=64 value=72 time=6
control_change channel=0 control=64 value=75 time=15
control_change channel=0 control=64 value=81 time=15
control_change channel=0 control=64 value=88 time=16
control_change channel=0 control=64 value=94 time=14
control_change channel=0 control=64 value=97 time=16
control_change channel=0 control=64 value=98 time=15
control_change channel=0 control=64 value=99 time=15
control_change channel=0 control=64 value=100 time=16
note_on channel=0 note=81 velocity=81 time=31
note_on channel=0 note=56 velocity=0 time=4
note_on channel=0 note=72 velocity=0 time=8
control_change channel=0 control=64 value=99 time=16
note_on channel=0 note=68 velocity=44 time=9
control_change channel=0 control=64 value=94 time=7
control_change channel=0 control=64 value=86 time=15
control_change channel=0 control=64 value=72 time=16
control_change channel=0 control=64 value=59 time=16
control_change channel=0 control=64 value=32 time=15
control_change channel=0 control=64 value=47 time=15
control_change channel=0 control=64 value=53 time=15
control_change channel=0 control=64 value=57 time=15
note_on channel=0 note=68 velocity=0 time=9
control_change channel=0 control=64 value=62 time=7
control_change channel=0 control=64 value=64 time=15
note_on channel=0 note=56 velocity=38 time=13
control_change channel=0 control=64 value=66 time=2
control_change channel=0 control=64 value=68 time=23
control_change channel=0 control=64 value=69 time=15
control_change channel=0 control=64 value=70 time=16
control_change channel=0 control=64 value=70 time=15
control_change channel=0 control=64 value=71 time=15
control_change channel=0 control=64 value=72 time=15
control_change channel=0 control=64 value=72 time=15
control_change channel=0 control=64 value=73 time=16
control_change channel=0 control=64 value=74 time=14
control_change channel=0 control=67 value=8 time=0
control_change channel=0 control=64 value=75 time=15
control_change channel=0 control=67 value=9 time=0
control_change channel=0 control=64 value=73 time=16
control_change channel=0 control=67 value=11 time=0
note_on channel=0 note=56 velocity=0 time=2
note_on channel=0 note=80 velocity=58 time=9
control_change channel=0 control=64 value=71 time=4
control_change channel=0 control=67 value=13 time=0
control_change channel=0 control=64 value=67 time=16
control_change channel=0 control=67 value=15 time=0
note_on channel=0 note=68 velocity=36 time=2
note_on channel=0 note=81 velocity=0 time=3
control_change channel=0 control=64 value=62 time=9
control_change channel=0 control=67 value=17 time=0
control_change channel=0 control=64 value=62 time=15
control_change channel=0 control=67 value=19 time=0
control_change channel=0 control=64 value=64 time=16
control_change channel=0 control=67 value=20 time=0
control_change channel=0 control=64 value=65 time=14
control_change channel=0 control=67 value=22 time=0
control_change channel=0 control=64 value=66 time=15
control_change channel=0 control=67 value=24 time=0
control_change channel=0 control=64 value=69 time=16
control_change channel=0 control=67 value=25 time=0
note_on channel=0 note=68 velocity=0 time=11
control_change channel=0 control=64 value=71 time=4
control_change channel=0 control=67 value=27 time=0
control_change channel=0 control=64 value=74 time=16
control_change channel=0 control=67 value=28 time=0
note_on channel=0 note=56 velocity=35 time=9
control_change channel=0 control=64 value=76 time=6
control_change channel=0 control=67 value=29 time=0
control_change channel=0 control=64 value=77 time=15
control_change channel=0 control=67 value=30 time=0
control_change channel=0 control=64 value=78 time=16
control_change channel=0 control=67 value=31 time=0
control_change channel=0 control=64 value=80 time=15
control_change channel=0 control=67 value=33 time=0
control_change channel=0 control=64 value=82 time=15
control_change channel=0 control=67 value=34 time=0
control_change channel=0 control=64 value=84 time=15
control_change channel=0 control=67 value=35 time=0
control_change channel=0 control=64 value=85 time=15
control_change channel=0 control=67 value=36 time=0
note_on channel=0 note=56 velocity=0 time=10
control_change channel=0 control=64 value=86 time=6
control_change channel=0 control=67 value=36 time=0
control_change channel=0 control=64 value=87 time=15
control_change channel=0 control=67 value=37 time=0
control_change channel=0 control=64 value=88 time=14
note_on channel=0 note=68 velocity=43 time=5
control_change channel=0 control=64 value=89 time=11
control_change channel=0 control=67 value=37 time=15
note_on channel=0 note=56 velocity=36 time=74
control_change channel=0 control=67 value=38 time=2
control_change channel=0 control=64 value=88 time=15
control_change channel=0 control=64 value=88 time=46
control_change channel=0 control=64 value=87 time=15
control_change channel=0 control=67 value=38 time=0
control_change channel=0 control=64 value=86 time=14
control_change channel=0 control=64 value=84 time=17
control_change channel=0 control=64 value=81 time=15
note_on channel=0 note=68 velocity=0 time=11
control_change channel=0 control=64 value=77 time=4
note_on channel=0 note=73 velocity=58 time=13
note_on channel=0 note=56 velocity=0 time=2
control_change channel=0 control=64 value=72 time=1
note_on channel=0 note=64 velocity=42 time=12
control_change channel=0 control=64 value=69 time=3
control_change channel=0 control=64 value=71 time=23
control_change channel=0 control=64 value=71 time=15
control_change channel=0 control=67 value=38 time=16
control_change channel=0 control=64 value=72 time=15
control_change channel=0 control=64 value=74 time=15
control_change channel=0 control=64 value=76 time=16
control_change channel=0 control=67 value=37 time=0
control_change channel=0 control=64 value=78 time=14
note_on channel=0 note=56 velocity=44 time=11
control_change channel=0 control=64 value=80 time=4
control_change channel=0 control=67 value=37 time=0
control_change channel=0 control=64 value=81 time=16
note_on channel=0 note=80 velocity=0 time=6
control_change channel=0 control=64 value=82 time=8
control_change channel=0 control=64 value=83 time=16
control_change channel=0 control=64 value=81 time=15
control_change channel=0 control=64 value=79 time=15
control_change channel=0 control=64 value=76 time=16
control_change channel=0 control=64 value=74 time=14
note_on channel=0 note=56 velocity=0 time=8
note_on channel=0 note=66 velocity=54 time=12
note_on channel=0 note=75 velocity=61 time=1
control_change channel=0 control=64 value=74 time=10
control_change channel=0 control=64 value=75 time=15
note_on channel=0 note=73 velocity=0 time=7
control_change channel=0 control=64 value=76 time=9
control_change channel=0 control=64 value=78 time=14
control_change channel=0 control=67 value=36 time=0
control_change channel=0 control=64 value=79 time=15
control_change channel=0 control=64 value=80 time=16
control_change channel=0 control=64 value=80 time=14
note_on channel=0 note=56 velocity=50 time=26
note_on channel=0 note=66 velocity=0 time=4
control_change channel=0 control=64 value=81 time=16
control_change channel=0 control=64 value=81 time=16
control_change channel=0 control=64 value=81 time=30
control_change channel=0 control=67 value=37 time=0
note_on channel=0 note=64 velocity=0 time=3
control_change channel=0 control=64 value=78 time=12
control_change channel=0 control=64 value=74 time=15
note_on channel=0 note=56 velocity=0 time=11
control_change channel=0 control=64 value=67 time=5
control_change channel=0 control=64 value=65 time=15
note_on channel=0 note=67 velocity=60 time=9
note_on channel=0 note=68 velocity=54 time=0
note_on channel=0 note=75 velocity=0 time=1
control_change channel=0 control=64 value=66 time=5
control_change channel=0 control=64 value=67 time=16
control_change channel=0 control=67 value=36 time=0
control_change channel=0 control=64 value=68 time=15
control_change channel=0 control=64 value=70 time=14
control_change channel=0 control=64 value=72 time=16
control_change channel=0 control=64 value=74 time=15
control_change channel=0 control=64 value=76 time=16
note_on channel=0 note=67 velocity=0 time=11
control_change channel=0 control=64 value=77 time=4
note_on channel=0 note=56 velocity=44 time=29
control_change channel=0 control=64 value=78 time=2
control_change channel=0 control=67 value=36 time=0
control_change channel=0 control=64 value=79 time=15
control_change channel=0 control=64 value=80 time=16
control_change channel=0 control=67 value=36 time=0
control_change channel=0 control=64 value=81 time=15
control_change channel=0 control=64 value=80 time=14
control_change channel=0 control=67 value=37 time=0
control_change channel=0 control=64 value=78 time=16
control_change channel=0 control=67 value=37 time=0
control_change channel=0 control=64 value=74 time=15
note_on channel=0 note=56 velocity=0 time=13
control_change channel=0 control=64 value=68 time=3
control_change channel=0 control=67 value=38 time=0
control_change channel=0 control=64 value=67 time=15
note_on channel=0 note=66 velocity=54 time=15
control_change channel=0 control=64 value=68 time=7
control_change channel=0 control=67 value=38 time=0
control_change channel=0 control=64 value=69 time=16
control_change channel=0 control=64 value=70 time=15
control_change channel=0 control=67 value=39 time=0
control_change channel=0 control=64 value=72 time=16
control_change channel=0 control=64 value=74 time=14
control_change channel=0 control=67 value=39 time=0
control_change channel=0 control=64 value=75 time=15
control_change channel=0 control=64 value=76 time=16
control_change channel=0 control=64 value=77 time=15
control_change channel=0 control=64 value=78 time=15
control_change channel=0 control=67 value=40 time=0
note_on channel=0 note=56 velocity=44 time=7
control_change channel=0 control=64 value=78 time=8
note_on channel=0 note=66 velocity=0 time=8
control_change channel=0 control=64 value=78 time=7
control_change channel=0 control=67 value=41 time=0
control_change channel=0 control=64 value=76 time=16
control_change channel=0 control=67 value=44 time=0
control_change channel=0 control=64 value=74 time=15
control_change channel=0 control=67 value=45 time=0
control_change channel=0 control=64 value=71 time=15
control_change channel=0 control=67 value=46 time=0
control_change channel=0 control=64 value=70 time=16
control_change channel=0 control=67 value=46 time=0
note_on channel=0 note=56 velocity=0 time=10
control_change channel=0 control=64 value=71 time=5
control_change channel=0 control=64 value=71 time=15
control_change channel=0 control=64 value=72 time=16
note_on channel=0 note=65 velocity=45 time=6
control_change channel=0 control=64 value=73 time=8
control_change channel=0 control=64 value=74 time=16
control_change channel=0 control=67 value=46 time=0
control_change channel=0 control=64 value=75 time=15
control_change channel=0 control=64 value=76 time=15
control_change channel=0 control=67 value=45 time=0
control_change channel=0 control=64 value=77 time=16
control_change channel=0 control=64 value=77 time=14
control_change channel=0 control=64 value=78 time=15
note_on channel=0 note=65 velocity=0 time=7
control_change channel=0 control=64 value=78 time=9
control_change channel=0 control=64 value=79 time=14
note_on channel=0 note=56 velocity=41 time=0
control_change channel=0 control=64 value=78 time=31
control_change channel=0 control=64 value=77 time=15
control_change channel=0 control=64 value=73 time=16
control_change channel=0 control=64 value=71 time=14
control_change channel=0 control=64 value=72 time=16
note_on channel=0 note=56 velocity=0 time=1
control_change channel=0 control=64 value=72 time=14
note_on channel=0 note=68 velocity=0 time=8
control_change channel=0 control=64 value=73 time=7
note_on channel=0 note=73 velocity=54 time=7
control_change channel=0 control=64 value=74 time=8
note_on channel=0 note=64 velocity=43 time=8
control_change channel=0 control=64 value=75 time=7
control_change channel=0 control=67 value=45 time=0
control_change channel=0 control=64 value=76 time=15
control_change channel=0 control=64 value=77 time=16
control_change channel=0 control=64 value=78 time=15
control_change channel=0 control=64 value=79 time=16
control_change channel=0 control=67 value=44 time=0
note_on channel=0 note=56 velocity=40 time=34
note_on channel=0 note=64 velocity=0 time=7
control_change channel=0 control=64 value=79 time=63
control_change channel=0 control=64 value=78 time=15
control_change channel=0 control=64 value=75 time=15
control_change channel=0 control=64 value=71 time=24
note_on channel=0 note=56 velocity=0 time=9
control_change channel=0 control=64 value=66 time=6
note_on channel=0 note=73 velocity=0 time=9
note_on channel=0 note=72 velocity=48 time=3
control_change channel=0 control=64 value=63 time=3
control_change channel=0 control=64 value=64 time=16
note_on channel=0 note=63 velocity=37 time=3
control_change channel=0 control=64 value=65 time=12
control_change channel=0 control=67 value=44 time=0
control_change channel=0 control=64 value=65 time=15
control_change channel=0 control=64 value=66 time=16
control_change channel=0 control=64 value=67 time=15
control_change channel=0 control=64 value=68 time=16
control_change channel=0 control=67 value=43 time=0
control_change channel=0 control=64 value=69 time=15
control_change channel=0 control=64 value=70 time=14
note_on channel=0 note=56 velocity=39 time=13
control_change channel=0 control=64 value=71 time=3
control_change channel=0 control=67 value=43 time=0
control_change channel=0 control=64 value=72 time=15
control_change channel=0 control=67 value=42 time=0
control_change channel=0 control=64 value=73 time=15
control_change channel=0 control=64 value=74 time=16
control_change channel=0 control=64 value=75 time=14
note_on channel=0 note=63 velocity=0 time=10
control_change channel=0 control=64 value=76 time=6
control_change channel=0 control=64 value=77 time=15
note_on channel=0 note=56 velocity=0 time=5
control_change channel=0 control=64 value=76 time=25
note_on channel=0 note=73 velocity=56 time=8
note_on channel=0 note=72 velocity=0 time=6
control_change channel=0 control=64 value=75 time=1
note_on channel=0 note=64 velocity=42 time=7
control_change channel=0 control=64 value=74 time=9
control_change channel=0 control=64 value=75 time=45
control_change channel=0 control=64 value=75 time=15
control_change channel=0 control=64 value=76 time=14
control_change channel=0 control=64 value=76 time=16
control_change channel=0 control=67 value=42 time=0
note_on channel=0 note=56 velocity=36 time=3
note_on channel=0 note=64 velocity=0 time=3
control_change channel=0 control=64 value=77 time=9
control_change channel=0 control=64 value=78 time=16
control_change channel=0 control=67 value=41 time=0
control_change channel=0 control=64 value=79 time=30
control_change channel=0 control=64 value=79 time=16
note_on channel=0 note=56 velocity=0 time=26
control_change channel=0 control=64 value=79 time=3
control_change channel=0 control=64 value=78 time=16
note_on channel=0 note=75 velocity=56 time=15
note_on channel=0 note=73 velocity=0 time=7
note_on channel=0 note=60 velocity=43 time=6
control_change channel=0 control=67 value=41 time=3
control_change channel=0 control=64 value=79 time=30
control_change channel=0 control=67 value=40 time=0
control_change channel=0 control=64 value=79 time=15
control_change channel=0 control=64 value=80 time=15
control_change channel=0 control=64 value=81 time=15
control_change channel=0 control=67 value=40 time=0
control_change channel=0 control=64 value=82 time=16
note_on channel=0 note=60 velocity=0 time=2
control_change channel=0 control=64 value=83 time=13
control_change channel=0 control=67 value=39 time=0
control_change channel=0 control=64 value=84 time=15
note_on channel=0 note=56 velocity=28 time=4
control_change channel=0 control=64 value=85 time=11
control_change channel=0 control=67 value=38 time=0
control_change channel=0 control=64 value=86 time=15
control_change channel=0 control=67 value=38 time=0
control_change channel=0 control=64 value=87 time=16
control_change channel=0 control=67 value=37 time=0
control_change channel=0 control=64 value=88 time=15
control_change channel=0 control=64 value=89 time=23
control_change channel=0 control=64 value=90 time=15
control_change channel=0 control=67 value=37 time=0
control_change channel=0 control=64 value=91 time=15
control_change channel=0 control=67 value=36 time=0
control_change channel=0 control=64 value=92 time=15
note_on channel=0 note=76 velocity=61 time=0
control_change channel=0 control=64 value=93 time=15
control_change channel=0 control=67 value=36 time=0
note_on channel=0 note=56 velocity=0 time=3
note_on channel=0 note=61 velocity=48 time=9
control_change channel=0 control=64 value=95 time=4
control_change channel=0 control=67 value=35 time=0
note_on channel=0 note=75 velocity=0 time=13
control_change channel=0 control=64 value=97 time=2
control_change channel=0 control=64 value=97 time=15
control_change channel=0 control=67 value=34 time=0
control_change channel=0 control=64 value=98 time=16
control_change channel=0 control=67 value=34 time=15
control_change channel=0 control=64 value=99 time=16
control_change channel=0 control=67 value=33 time=0
note_on channel=0 note=76 velocity=0 time=0
control_change channel=0 control=67 value=33 time=15
note_on channel=0 note=56 velocity=51 time=2
control_change channel=0 control=67 value=32 time=13
note_on channel=0 note=61 velocity=0 time=0
control_change channel=0 control=67 value=31 time=16
control_change channel=0 control=67 value=30 time=14
control_change channel=0 control=67 value=29 time=15
control_change channel=0 control=67 value=29 time=16
control_change channel=0 control=64 value=96 time=30
control_change channel=0 control=64 value=90 time=15
note_on channel=0 note=56 velocity=0 time=1
control_change channel=0 control=64 value=80 time=14
control_change channel=0 control=67 value=28 time=0
note_on channel=0 note=78 velocity=66 time=5
control_change channel=0 control=64 value=70 time=11
note_on channel=0 note=68 velocity=46 time=7
control_change channel=0 control=64 value=66 time=8
control_change channel=0 control=67 value=28 time=0
note_on channel=0 note=75 velocity=38 time=5
control_change channel=0 control=64 value=68 time=9
control_change channel=0 control=67 value=27 time=0
control_change channel=0 control=64 value=69 time=16
control_change channel=0 control=67 value=26 time=0
control_change channel=0 control=64 value=69 time=15
control_change channel=0 control=67 value=25 time=0
control_change channel=0 control=64 value=70 time=16
control_change channel=0 control=67 value=24 time=0
control_change channel=0 control=64 value=71 time=15
control_change channel=0 control=67 value=23 time=0
note_on channel=0 note=56 velocity=54 time=7
control_change channel=0 control=64 value=73 time=7
control_change channel=0 control=67 value=22 time=0
control_change channel=0 control=64 value=75 time=16
control_change channel=0 control=67 value=20 time=0
note_on channel=0 note=68 velocity=0 time=3
control_change channel=0 control=64 value=77 time=12
control_change channel=0 control=67 value=19 time=0
control_change channel=0 control=64 value=77 time=14
control_change channel=0 control=67 value=18 time=0
control_change channel=0 control=64 value=78 time=16
control_change channel=0 control=67 value=17 time=0
control_change channel=0 control=64 value=79 time=15
control_change channel=0 control=67 value=16 time=0
control_change channel=0 control=64 value=81 time=16
control_change channel=0 control=67 value=15 time=0
note_on channel=0 note=56 velocity=0 time=7
control_change channel=0 control=64 value=82 time=8
control_change channel=0 control=67 value=13 time=0
control_change channel=0 control=64 value=83 time=14
control_change channel=0 control=67 value=12 time=0
note_on channel=0 note=69 velocity=59 time=8
control_change channel=0 control=64 value=84 time=8
control_change channel=0 control=67 value=10 time=0
control_change channel=0 control=67 value=0 time=15
control_change channel=0 control=64 value=85 time=16
control_change channel=0 control=64 value=86 time=15
control_change channel=0 control=64 value=86 time=15
note_on channel=0 note=69 velocity=0 time=27
note_on channel=0 note=57 velocity=58 time=17
control_change channel=0 control=64 value=86 time=17
control_change channel=0 control=64 value=83 time=15
control_change channel=0 control=64 value=78 time=16
control_change channel=0 control=64 value=73 time=15
control_change channel=0 control=64 value=71 time=15
control_change channel=0 control=64 value=73 time=22
control_change channel=0 control=64 value=74 time=15
control_change channel=0 control=64 value=76 time=16
note_on channel=0 note=70 velocity=62 time=10
control_change channel=0 control=64 value=77 time=5
control_change channel=0 control=64 value=80 time=15
control_change channel=0 control=64 value=83 time=15
control_change channel=0 control=64 value=86 time=15
control_change channel=0 control=64 value=88 time=16
control_change channel=0 control=64 value=89 time=16
note_on channel=0 note=58 velocity=68 time=14
control_change channel=0 control=64 value=89 time=1
note_on channel=0 note=57 velocity=0 time=8
control_change channel=0 control=64 value=88 time=22
note_on channel=0 note=70 velocity=0 time=4
control_change channel=0 control=64 value=87 time=11
control_change channel=0 control=64 value=87 time=16
note_on channel=0 note=78 velocity=0 time=17
control_change channel=0 control=64 value=87 time=43
control_change channel=0 control=64 value=89 time=16
note_on channel=0 note=74 velocity=72 time=0
note_on channel=0 note=77 velocity=80 time=2
note_on channel=0 note=71 velocity=68 time=1
control_change channel=0 control=64 value=90 time=12
note_on channel=0 note=75 velocity=0 time=12
control_change channel=0 control=64 value=93 time=4
control_change channel=0 control=64 value=94 time=15
note_on channel=0 note=58 velocity=0 time=12
control_change channel=0 control=64 value=95 time=3
control_change channel=0 control=64 value=96 time=15
control_change channel=0 control=64 value=98 time=17
note_on channel=0 note=59 velocity=73 time=15
control_change channel=0 control=64 value=99 time=1
control_change channel=0 control=64 value=99 time=15
note_on channel=0 note=71 velocity=0 time=7
control_change channel=0 control=64 value=98 time=38
note_on channel=0 note=77 velocity=0 time=4
control_change channel=0 control=64 value=94 time=12
control_change channel=0 control=64 value=87 time=14
control_change channel=0 control=64 value=84 time=15
note_on channel=0 note=59 velocity=0 time=20
note_on channel=0 note=72 velocity=70 time=14
note_on channel=0 note=80 velocity=92 time=1
note_on channel=0 note=77 velocity=71 time=10
control_change channel=0 control=64 value=85 time=1
control_change channel=0 control=64 value=87 time=15
note_on channel=0 note=74 velocity=0 time=5
control_change channel=0 control=64 value=89 time=10
control_change channel=0 control=64 value=91 time=16
control_change channel=0 control=64 value=93 time=15
control_change channel=0 control=64 value=94 time=15
control_change channel=0 control=64 value=95 time=15
note_on channel=0 note=60 velocity=77 time=3
note_on channel=0 note=72 velocity=0 time=6
control_change channel=0 control=64 value=96 time=6
control_change channel=0 control=64 value=100 time=15
control_change channel=0 control=64 value=103 time=16
control_change channel=0 control=64 value=104 time=15
control_change channel=0 control=64 value=101 time=31
control_change channel=0 control=64 value=97 time=14
control_change channel=0 control=64 value=94 time=16
note_on channel=0 note=73 velocity=88 time=16
note_on channel=0 note=60 velocity=0 time=24
control_change channel=0 control=64 value=95 time=28
control_change channel=0 control=64 value=96 time=16
control_change channel=0 control=64 value=99 time=14
control_change channel=0 control=64 value=102 time=16
note_on channel=0 note=61 velocity=78 time=12
control_change channel=0 control=64 value=105 time=3
control_change channel=0 control=64 value=110 time=14
note_on channel=0 note=77 velocity=0 time=10
note_on channel=0 note=73 velocity=0 time=4
control_change channel=0 control=64 value=116 time=2
control_change channel=0 control=64 value=127 time=15
note_on channel=0 note=80 velocity=0 time=46
control_change channel=0 control=64 value=126 time=17
note_on channel=0 note=74 velocity=93 time=13
note_on channel=0 note=61 velocity=0 time=18
note_on channel=0 note=63 velocity=33 time=22
note_on channel=0 note=62 velocity=74 time=71
note_on channel=0 note=74 velocity=0 time=24
control_change channel=0 control=64 value=127 time=3
note_on channel=0 note=73 velocity=83 time=101
note_on channel=0 note=83 velocity=95 time=6
note_on channel=0 note=80 velocity=81 time=9
note_on channel=0 note=63 velocity=0 time=59
note_on channel=0 note=61 velocity=80 time=18
note_on channel=0 note=73 velocity=0 time=21
note_on channel=0 note=65 velocity=74 time=24
note_on channel=0 note=68 velocity=78 time=49
note_on channel=0 note=83 velocity=0 time=10
control_change channel=0 control=64 value=111 time=23
control_change channel=0 control=64 value=90 time=15
control_change channel=0 control=64 value=71 time=15
control_change channel=0 control=64 value=50 time=16
note_on channel=0 note=62 velocity=0 time=5
control_change channel=0 control=64 value=58 time=10
note_on channel=0 note=71 velocity=79 time=4
control_change channel=0 control=64 value=65 time=19
note_on channel=0 note=86 velocity=93 time=9
control_change channel=0 control=64 value=67 time=6
note_on channel=0 note=80 velocity=0 time=6
control_change channel=0 control=64 value=73 time=9
control_change channel=0 control=64 value=80 time=16
note_on channel=0 note=71 velocity=0 time=12
control_change channel=0 control=64 value=89 time=3
control_change channel=0 control=64 value=100 time=14
note_on channel=0 note=65 velocity=0 time=1
note_on channel=0 note=68 velocity=0 time=13
control_change channel=0 control=64 value=112 time=2
control_change channel=0 control=64 value=127 time=15
note_on channel=0 note=61 velocity=0 time=5
note_on channel=0 note=83 velocity=95 time=30
note_on channel=0 note=86 velocity=0 time=34
note_on channel=0 note=80 velocity=96 time=79
note_on channel=0 note=83 velocity=0 time=25
note_on channel=0 note=49 velocity=79 time=48
note_on channel=0 note=77 velocity=97 time=24
note_on channel=0 note=80 velocity=0 time=5
note_on channel=0 note=53 velocity=81 time=24
note_on channel=0 note=77 velocity=0 time=29
control_change channel=0 control=64 value=126 time=2
note_on channel=0 note=56 velocity=85 time=8
control_change channel=0 control=64 value=84 time=6
note_on channel=0 note=50 velocity=32 time=2
control_change channel=0 control=64 value=61 time=14
control_change channel=0 control=64 value=0 time=15
note_on channel=0 note=74 velocity=98 time=7
control_change channel=0 control=64 value=61 time=8
note_on channel=0 note=59 velocity=84 time=12
note_on channel=0 note=50 velocity=0 time=1
control_change channel=0 control=64 value=69 time=3
control_change channel=0 control=64 value=74 time=14
control_change channel=0 control=64 value=82 time=15
note_on channel=0 note=49 velocity=0 time=10
control_change channel=0 control=64 value=89 time=6
note_on channel=0 note=53 velocity=0 time=12
control_change channel=0 control=64 value=94 time=3
control_change channel=0 control=64 value=97 time=16
note_on channel=0 note=59 velocity=0 time=9
note_on channel=0 note=71 velocity=91 time=2
control_change channel=0 control=64 value=99 time=4
note_on channel=0 note=56 velocity=0 time=6
control_change channel=0 control=64 value=100 time=9
control_change channel=0 control=64 value=103 time=16
note_on channel=0 note=74 velocity=0 time=0
control_change channel=0 control=64 value=105 time=13
control_change channel=0 control=64 value=107 time=16
control_change channel=0 control=64 value=109 time=15
control_change channel=0 control=64 value=110 time=15
note_on channel=0 note=69 velocity=90 time=23
note_on channel=0 note=71 velocity=0 time=13
control_change channel=0 control=64 value=112 time=9
control_change channel=0 control=64 value=115 time=16
control_change channel=0 control=64 value=118 time=15
control_change channel=0 control=64 value=120 time=23
control_change channel=0 control=64 value=121 time=15
note_on channel=0 note=65 velocity=90 time=12
control_change channel=0 control=64 value=124 time=4
note_on channel=0 note=69 velocity=0 time=3
control_change channel=0 control=64 value=127 time=12
note_on channel=0 note=65 velocity=0 time=46
control_change channel=0 control=64 value=104 time=45
note_on channel=0 note=62 velocity=91 time=9
control_change channel=0 control=64 value=81 time=6
control_change channel=0 control=64 value=42 time=15
control_change channel=0 control=64 value=0 time=15
control_change channel=0 control=64 value=55 time=45
control_change channel=0 control=64 value=68 time=16
control_change channel=0 control=64 value=74 time=15
note_on channel=0 note=59 velocity=91 time=4
control_change channel=0 control=64 value=81 time=13
note_on channel=0 note=62 velocity=0 time=10
control_change channel=0 control=64 value=89 time=5
control_change channel=0 control=64 value=96 time=14
control_change channel=0 control=64 value=103 time=16
control_change channel=0 control=64 value=119 time=15
control_change channel=0 control=64 value=127 time=16
note_on channel=0 note=56 velocity=98 time=19
note_on channel=0 note=59 velocity=0 time=24
note_on channel=0 note=53 velocity=98 time=77
note_on channel=0 note=56 velocity=0 time=13
note_on channel=0 note=53 velocity=0 time=40
control_change channel=0 control=64 value=83 time=39
control_change channel=0 control=64 value=0 time=15
note_on channel=0 note=49 velocity=99 time=43
note_on channel=0 note=37 velocity=77 time=6
control_change channel=0 control=64 value=31 time=12
note_on channel=0 note=37 velocity=0 time=13
control_change channel=0 control=64 value=65 time=2
note_on channel=0 note=49 velocity=0 time=12
control_change channel=0 control=64 value=74 time=3
control_change channel=0 control=64 value=86 time=16
control_change channel=0 control=64 value=104 time=14
control_change channel=0 control=64 value=127 time=16
control_change channel=0 control=64 value=114 time=160
control_change channel=0 control=64 value=105 time=15
control_change channel=0 control=64 value=96 time=15
control_change channel=0 control=64 value=88 time=15
control_change channel=0 control=64 value=82 time=15
control_change channel=0 control=64 value=76 time=16
control_change channel=0 control=64 value=69 time=15
control_change channel=0 control=64 value=54 time=15
control_change channel=0 control=64 value=0 time=15
note_on channel=0 note=61 velocity=100 time=177
note_on channel=0 note=44 velocity=93 time=366
note_on channel=0 note=44 velocity=0 time=35
control_change channel=0 control=64 value=62 time=7
control_change channel=0 control=64 value=77 time=16
control_change channel=0 control=64 value=82 time=15
control_change channel=0 control=64 value=86 time=14
control_change channel=0 control=64 value=90 time=16
control_change channel=0 control=64 value=95 time=15
control_change channel=0 control=64 value=97 time=16
control_change channel=0 control=64 value=98 time=15
note_on channel=0 note=59 velocity=76 time=11
control_change channel=0 control=64 value=100 time=4
control_change channel=0 control=64 value=101 time=16
control_change channel=0 control=64 value=102 time=15
control_change channel=0 control=64 value=105 time=15
control_change channel=0 control=64 value=122 time=15
control_change channel=0 control=64 value=127 time=15
note_on channel=0 note=73 velocity=102 time=21
note_on channel=0 note=59 velocity=0 time=1
note_on channel=0 note=52 velocity=67 time=15
note_on channel=0 note=61 velocity=0 time=19
note_on channel=0 note=53 velocity=77 time=68
note_on channel=0 note=52 velocity=0 time=26
note_on channel=0 note=53 velocity=0 time=3
note_on channel=0 note=37 velocity=86 time=89
note_on channel=0 note=37 velocity=0 time=28
note_on channel=0 note=68 velocity=92 time=91
note_on channel=0 note=60 velocity=68 time=7
note_on channel=0 note=73 velocity=0 time=25
note_on channel=0 note=59 velocity=32 time=7
note_on channel=0 note=68 velocity=0 time=2
note_on channel=0 note=60 velocity=0 time=7
control_change channel=0 control=64 value=82 time=18
note_on channel=0 note=59 velocity=0 time=11
control_change channel=0 control=64 value=0 time=4
note_on channel=0 note=52 velocity=68 time=26
note_on channel=0 note=67 velocity=87 time=7
note_on channel=0 note=67 velocity=0 time=37
note_on channel=0 note=52 velocity=0 time=50
note_on channel=0 note=53 velocity=49 time=18
note_on channel=0 note=68 velocity=84 time=1
note_on channel=0 note=53 velocity=0 time=25
note_on channel=0 note=68 velocity=0 time=12
note_on channel=0 note=69 velocity=75 time=82
note_on channel=0 note=44 velocity=39 time=23
note_on channel=0 note=44 velocity=0 time=33
note_on channel=0 note=58 velocity=65 time=50
note_on channel=0 note=58 velocity=0 time=51
note_on channel=0 note=69 velocity=0 time=57
note_on channel=0 note=48 velocity=54 time=7
note_on channel=0 note=70 velocity=65 time=0
control_change channel=0 control=64 value=50 time=46
control_change channel=0 control=64 value=61 time=15
control_change channel=0 control=64 value=63 time=15
control_change channel=0 control=64 value=65 time=16
note_on channel=0 note=48 velocity=0 time=2
note_on channel=0 note=49 velocity=76 time=8
control_change channel=0 control=64 value=69 time=5
control_change channel=0 control=64 value=71 time=15
note_on channel=0 note=49 velocity=0 time=14
control_change channel=0 control=64 value=73 time=2
control_change channel=0 control=64 value=75 time=15
control_change channel=0 control=64 value=80 time=15
control_change channel=0 control=64 value=87 time=16
control_change channel=0 control=64 value=95 time=14
control_change channel=0 control=64 value=96 time=16
note_on channel=0 note=37 velocity=77 time=13
control_change channel=0 control=64 value=94 time=2
control_change channel=0 control=64 value=84 time=15
note_on channel=0 note=37 velocity=0 time=8
control_change channel=0 control=64 value=70 time=7
note_on channel=0 note=70 velocity=0 time=12
control_change channel=0 control=64 value=69 time=3
control_change channel=0 control=64 value=76 time=15
control_change channel=0 control=64 value=83 time=16
note_on channel=0 note=58 velocity=99 time=13
control_change channel=0 control=64 value=91 time=2
control_change channel=0 control=64 value=106 time=15
control_change channel=0 control=64 value=127 time=15
control_change channel=0 control=64 value=114 time=69
control_change channel=0 control=64 value=76 time=15
note_on channel=0 note=58 velocity=0 time=7
note_on channel=0 note=61 velocity=109 time=4
note_on channel=0 note=48 velocity=73 time=1
control_change channel=0 control=64 value=64 time=3
control_change channel=0 control=64 value=72 time=15
control_change channel=0 control=64 value=79 time=15
control_change channel=0 control=64 value=88 time=16
control_change channel=0 control=64 value=104 time=15
control_change channel=0 control=64 value=127 time=15
note_on channel=0 note=49 velocity=82 time=17
note_on channel=0 note=48 velocity=0 time=8
note_on channel=0 note=61 velocity=0 time=96
note_on channel=0 note=49 velocity=0 time=22
control_change channel=0 control=64 value=82 time=8
note_on channel=0 note=44 velocity=82 time=8
note_on channel=0 note=75 velocity=93 time=0
control_change channel=0 control=64 value=0 time=8
note_on channel=0 note=75 velocity=0 time=11
note_on channel=0 note=44 velocity=0 time=34
note_on channel=0 note=59 velocity=79 time=62
note_on channel=0 note=59 velocity=0 time=121
note_on channel=0 note=74 velocity=101 time=26
note_on channel=0 note=52 velocity=67 time=2
control_change channel=0 control=64 value=68 time=3
control_change channel=0 control=64 value=80 time=15
control_change channel=0 control=64 value=95 time=16
control_change channel=0 control=64 value=113 time=14
control_change channel=0 control=64 value=127 time=16
note_on channel=0 note=53 velocity=78 time=13
note_on channel=0 note=52 velocity=0 time=23
note_on channel=0 note=53 velocity=0 time=4
note_on channel=0 note=37 velocity=93 time=98
control_change channel=0 control=64 value=88 time=5
control_change channel=0 control=64 value=64 time=15
note_on channel=0 note=37 velocity=0 time=5
control_change channel=0 control=64 value=61 time=11
control_change channel=0 control=64 value=69 time=15
control_change channel=0 control=64 value=75 time=16
control_change channel=0 control=64 value=83 time=14
control_change channel=0 control=64 value=95 time=15
note_on channel=0 note=74 velocity=0 time=8
note_on channel=0 note=73 velocity=88 time=7
control_change channel=0 control=64 value=105 time=1
note_on channel=0 note=60 velocity=70 time=7
note_on channel=0 note=59 velocity=75 time=3
control_change channel=0 control=64 value=114 time=5
note_on channel=0 note=73 velocity=0 time=3
control_change channel=0 control=64 value=116 time=13
note_on channel=0 note=60 velocity=0 time=3
control_change channel=0 control=64 value=116 time=11
note_on channel=0 note=59 velocity=0 time=2
control_change channel=0 control=64 value=116 time=29
control_change channel=0 control=64 value=113 time=15
note_on channel=0 note=67 velocity=95 time=7
control_change channel=0 control=64 value=94 time=8
control_change channel=0 control=64 value=72 time=15
note_on channel=0 note=52 velocity=49 time=1
control_change channel=0 control=64 value=0 time=14
note_on channel=0 note=50 velocity=45 time=0
note_on channel=0 note=67 velocity=0 time=1
note_on channel=0 note=50 velocity=0 time=30
note_on channel=0 note=53 velocity=75 time=27
note_on channel=0 note=68 velocity=91 time=7
note_on channel=0 note=52 velocity=0 time=2
note_on channel=0 note=53 velocity=0 time=20
note_on channel=0 note=68 velocity=0 time=14
note_on channel=0 note=69 velocity=84 time=76
note_on channel=0 note=42 velocity=73 time=17
note_on channel=0 note=42 velocity=0 time=28
note_on channel=0 note=58 velocity=88 time=66
control_change channel=0 control=64 value=51 time=28
control_change channel=0 control=64 value=60 time=15
control_change channel=0 control=64 value=64 time=16
control_change channel=0 control=64 value=67 time=15
control_change channel=0 control=64 value=70 time=15
control_change channel=0 control=64 value=72 time=16
note_on channel=0 note=58 velocity=0 time=0
note_on channel=0 note=48 velocity=80 time=5
control_change channel=0 control=64 value=74 time=9
note_on channel=0 note=70 velocity=89 time=3
control_change channel=0 control=64 value=78 time=12
note_on channel=0 note=69 velocity=0 time=10
control_change channel=0 control=64 value=81 time=6
control_change channel=0 control=64 value=84 time=15
control_change channel=0 control=64 value=87 time=15
control_change channel=0 control=64 value=90 time=15
note_on channel=0 note=49 velocity=88 time=20
control_change channel=0 control=64 value=95 time=2
note_on channel=0 note=48 velocity=0 time=11
control_change channel=0 control=64 value=105 time=5
control_change channel=0 control=64 value=127 time=15
note_on channel=0 note=49 velocity=0 time=13
note_on channel=0 note=70 velocity=0 time=30
note_on channel=0 note=37 velocity=90 time=42
control_change channel=0 control=64 value=113 time=7
control_change channel=0 control=64 value=87 time=15
note_on channel=0 note=37 velocity=0 time=2
control_change channel=0 control=64 value=83 time=13
control_change channel=0 control=64 value=89 time=15
control_change channel=0 control=64 value=100 time=15
control_change channel=0 control=64 value=120 time=15
control_change channel=0 control=64 value=127 time=16
note_on channel=0 note=58 velocity=101 time=14
control_change channel=0 control=64 value=91 time=76
control_change channel=0 control=64 value=64 time=15
control_change channel=0 control=64 value=54 time=16
note_on channel=0 note=58 velocity=0 time=13
control_change channel=0 control=64 value=70 time=2
note_on channel=0 note=48 velocity=83 time=3
note_on channel=0 note=66 velocity=111 time=6
control_change channel=0 control=64 value=78 time=7
control_change channel=0 control=64 value=90 time=14
control_change channel=0 control=64 value=112 time=15
control_change channel=0 control=64 value=127 time=16
note_on channel=0 note=49 velocity=91 time=59
note_on channel=0 note=48 velocity=0 time=18
note_on channel=0 note=66 velocity=0 time=32
note_on channel=0 note=49 velocity=0 time=68
control_change channel=0 control=64 value=78 time=39
control_change channel=0 control=64 value=0 time=16
note_on channel=0 note=81 velocity=105 time=0
note_on channel=0 note=46 velocity=91 time=1
note_on channel=0 note=81 velocity=0 time=30
note_on channel=0 note=46 velocity=0 time=58
control_change channel=0 control=64 value=40 time=85
note_on channel=0 note=61 velocity=88 time=14
control_change channel=0 control=64 value=62 time=1
control_change channel=0 control=64 value=66 time=16
control_change channel=0 control=64 value=69 time=15
control_change channel=0 control=64 value=73 time=16
control_change channel=0 control=64 value=78 time=14
control_change channel=0 control=64 value=83 time=15
control_change channel=0 control=64 value=88 time=16
control_change channel=0 control=64 value=95 time=14
control_change channel=0 control=64 value=101 time=15
control_change channel=0 control=64 value=109 time=16
note_on channel=0 note=61 velocity=0 time=11
note_on channel=0 note=51 velocity=79 time=3
control_change channel=0 control=64 value=127 time=1
note_on channel=0 note=79 velocity=103 time=0
note_on channel=0 note=52 velocity=81 time=106
note_on channel=0 note=51 velocity=0 time=34
note_on channel=0 note=52 velocity=0 time=11
note_on channel=0 note=42 velocity=99 time=74
control_change channel=0 control=64 value=79 time=6
control_change channel=0 control=64 value=64 time=15
note_on channel=0 note=42 velocity=0 time=11
control_change channel=0 control=64 value=69 time=4
control_change channel=0 control=64 value=75 time=15
note_on channel=0 note=79 velocity=0 time=7
control_change channel=0 control=64 value=84 time=9
control_change channel=0 control=64 value=103 time=15
control_change channel=0 control=64 value=127 time=14
note_on channel=0 note=78 velocity=95 time=9
note_on channel=0 note=58 velocity=90 time=9
note_on channel=0 note=78 velocity=0 time=35
note_on channel=0 note=58 velocity=0 time=28
control_change channel=0 control=64 value=91 time=12
control_change channel=0 control=64 value=73 time=15
note_on channel=0 note=72 velocity=90 time=1
control_change channel=0 control=64 value=73 time=15
note_on channel=0 note=51 velocity=68 time=1
control_change channel=0 control=64 value=83 time=14
control_change channel=0 control=64 value=90 time=14
note_on channel=0 note=72 velocity=0 time=8
control_change channel=0 control=64 value=94 time=8
control_change channel=0 control=64 value=101 time=15
control_change channel=0 control=64 value=107 time=15
note_on channel=0 note=52 velocity=77 time=11
note_on channel=0 note=73 velocity=94 time=18
control_change channel=0 control=64 value=107 time=9
control_change channel=0 control=64 value=110 time=16
note_on channel=0 note=51 velocity=0 time=1
control_change channel=0 control=64 value=117 time=14
note_on channel=0 note=73 velocity=0 time=8
note_on channel=0 note=52 velocity=0 time=4
control_change channel=0 control=64 value=127 time=2
control_change channel=0 control=64 value=99 time=31
control_change channel=0 control=64 value=70 time=16
note_on channel=0 note=76 velocity=81 time=7
note_on channel=0 note=47 velocity=84 time=4
note_on channel=0 note=66 velocity=77 time=2
control_change channel=0 control=64 value=0 time=2
note_on channel=0 note=71 velocity=52 time=9
note_on channel=0 note=75 velocity=26 time=13
note_on channel=0 note=75 velocity=0 time=4
note_on channel=0 note=76 velocity=0 time=58
note_on channel=0 note=47 velocity=0 time=5
note_on channel=0 note=74 velocity=83 time=22
note_on channel=0 note=66 velocity=0 time=7
note_on channel=0 note=71 velocity=0 time=4
note_on channel=0 note=74 velocity=0 time=27
note_on channel=0 note=73 velocity=100 time=70
note_on channel=0 note=62 velocity=80 time=6
note_on channel=0 note=49 velocity=87 time=2
note_on channel=0 note=66 velocity=73 time=9
note_on channel=0 note=49 velocity=0 time=15
note_on channel=0 note=62 velocity=0 time=20
note_on channel=0 note=62 velocity=28 time=52
note_on channel=0 note=71 velocity=75 time=1
note_on channel=0 note=66 velocity=0 time=6
note_on channel=0 note=73 velocity=0 time=5
note_on channel=0 note=62 velocity=0 time=19
note_on channel=0 note=71 velocity=0 time=8
note_on channel=0 note=69 velocity=86 time=77
note_on channel=0 note=50 velocity=86 time=1
note_on channel=0 note=59 velocity=81 time=8
note_on channel=0 note=62 velocity=64 time=7
note_on channel=0 note=50 velocity=0 time=10
note_on channel=0 note=69 velocity=0 time=74
note_on channel=0 note=68 velocity=76 time=11
note_on channel=0 note=59 velocity=0 time=9
note_on channel=0 note=62 velocity=0 time=2
note_on channel=0 note=68 velocity=0 time=42
note_on channel=0 note=51 velocity=86 time=61
note_on channel=0 note=68 velocity=82 time=11
note_on channel=0 note=57 velocity=77 time=5
note_on channel=0 note=60 velocity=70 time=8
note_on channel=0 note=51 velocity=0 time=1
note_on channel=0 note=66 velocity=75 time=89
note_on channel=0 note=57 velocity=0 time=3
note_on channel=0 note=60 velocity=0 time=4
note_on channel=0 note=68 velocity=0 time=22
note_on channel=0 note=66 velocity=0 time=28
note_on channel=0 note=52 velocity=81 time=57
note_on channel=0 note=66 velocity=82 time=0
note_on channel=0 note=40 velocity=78 time=5
note_on channel=0 note=57 velocity=77 time=3
note_on channel=0 note=61 velocity=73 time=9
note_on channel=0 note=52 velocity=0 time=7
note_on channel=0 note=40 velocity=0 time=11
note_on channel=0 note=57 velocity=0 time=44
note_on channel=0 note=61 velocity=0 time=23
note_on channel=0 note=64 velocity=76 time=2
note_on channel=0 note=66 velocity=0 time=13
note_on channel=0 note=64 velocity=0 time=35
note_on channel=0 note=41 velocity=64 time=65
note_on channel=0 note=56 velocity=72 time=3
note_on channel=0 note=64 velocity=73 time=0
note_on channel=0 note=59 velocity=51 time=14
note_on channel=0 note=41 velocity=0 time=9
control_change channel=0 control=67 value=8 time=40
note_on channel=0 note=56 velocity=0 time=32
note_on channel=0 note=62 velocity=73 time=4
note_on channel=0 note=64 velocity=0 time=1
note_on channel=0 note=59 velocity=0 time=37
note_on channel=0 note=62 velocity=0 time=2
note_on channel=0 note=42 velocity=58 time=74
note_on channel=0 note=63 velocity=72 time=5
note_on channel=0 note=54 velocity=71 time=2
note_on channel=0 note=42 velocity=0 time=22
note_on channel=0 note=61 velocity=36 time=7
note_on channel=0 note=54 velocity=0 time=59
note_on channel=0 note=61 velocity=0 time=3
note_on channel=0 note=61 velocity=45 time=0
note_on channel=0 note=63 velocity=0 time=4
note_on channel=0 note=61 velocity=0 time=54
control_change channel=0 control=67 value=8 time=7
note_on channel=0 note=44 velocity=59 time=54
note_on channel=0 note=61 velocity=72 time=7
note_on channel=0 note=50 velocity=61 time=9
control_change channel=0 control=67 value=9 time=6
note_on channel=0 note=44 velocity=0 time=5
control_change channel=0 control=67 value=9 time=10
note_on channel=0 note=50 velocity=0 time=20
control_change channel=0 control=67 value=10 time=11
control_change channel=0 control=67 value=11 time=14
note_on channel=0 note=61 velocity=0 time=14
control_change channel=0 control=67 value=12 time=2
note_on channel=0 note=59 velocity=67 time=6
control_change channel=0 control=67 value=15 time=9
control_change channel=0 control=67 value=17 time=16
note_on channel=0 note=59 velocity=0 time=10
control_change channel=0 control=67 value=20 time=5
control_change channel=0 control=67 value=23 time=15
control_change channel=0 control=67 value=24 time=16
note_on channel=0 note=45 velocity=62 time=52
note_on channel=0 note=49 velocity=65 time=1
note_on channel=0 note=59 velocity=62 time=10
control_change channel=0 control=67 value=24 time=13
note_on channel=0 note=45 velocity=0 time=3
control_change channel=0 control=67 value=23 time=26
note_on channel=0 note=59 velocity=0 time=41
note_on channel=0 note=57 velocity=66 time=10
note_on channel=0 note=49 velocity=0 time=6
note_on channel=0 note=57 velocity=0 time=34
control_change channel=0 control=67 value=23 time=152
control_change channel=0 control=67 value=22 time=130
control_change channel=0 control=67 value=22 time=32
note_on channel=0 note=48 velocity=61 time=21
note_on channel=0 note=56 velocity=60 time=0
control_change channel=0 control=67 value=21 time=9
note_on channel=0 note=48 velocity=0 time=16
note_on channel=0 note=51 velocity=2 time=21
note_on channel=0 note=51 velocity=0 time=17
note_on channel=0 note=56 velocity=0 time=15
control_change channel=0 control=67 value=22 time=22
note_on channel=0 note=54 velocity=59 time=4
note_on channel=0 note=54 velocity=0 time=26
note_on channel=0 note=49 velocity=60 time=393
note_on channel=0 note=53 velocity=70 time=15
control_change channel=0 control=67 value=21 time=5
note_on channel=0 note=49 velocity=0 time=34
note_on channel=0 note=53 velocity=0 time=0
control_change channel=0 control=67 value=21 time=26
note_on channel=0 note=61 velocity=71 time=30
control_change channel=0 control=67 value=21 time=237
control_change channel=0 control=67 value=20 time=167
control_change channel=0 control=67 value=17 time=16
note_on channel=0 note=44 velocity=65 time=0
note_on channel=0 note=37 velocity=59 time=4
control_change channel=0 control=64 value=60 time=10
control_change channel=0 control=67 value=0 time=0
control_change channel=0 control=64 value=83 time=15
note_on channel=0 note=44 velocity=0 time=0
note_on channel=0 note=37 velocity=0 time=6
control_change channel=0 control=64 value=127 time=10
note_on channel=0 note=61 velocity=0 time=0
note_on channel=0 note=29 velocity=78 time=223
control_change channel=0 control=64 value=98 time=4
note_on channel=0 note=41 velocity=90 time=2
control_change channel=0 control=64 value=71 time=13
note_on channel=0 note=61 velocity=102 time=1
note_on channel=0 note=73 velocity=101 time=1
note_on channel=0 note=29 velocity=0 time=8
control_change channel=0 control=64 value=67 time=5
note_on channel=0 note=41 velocity=0 time=11
control_change channel=0 control=64 value=77 time=4
control_change channel=0 control=64 value=91 time=16
control_change channel=0 control=64 value=117 time=14
control_change channel=0 control=64 value=127 time=16
note_on channel=0 note=41 velocity=74 time=92
note_on channel=0 note=61 velocity=0 time=29
note_on channel=0 note=49 velocity=83 time=22
note_on channel=0 note=73 velocity=0 time=16
control_change channel=0 control=64 value=96 time=1
control_change channel=0 control=64 value=68 time=15
note_on channel=0 note=41 velocity=0 time=5
control_change channel=0 control=64 value=67 time=11
note_on channel=0 note=72 velocity=95 time=10
note_on channel=0 note=56 velocity=101 time=2
control_change channel=0 control=64 value=79 time=4
control_change channel=0 control=64 value=91 time=14
control_change channel=0 control=64 value=112 time=16
note_on channel=0 note=72 velocity=0 time=1
note_on channel=0 note=49 velocity=0 time=6
control_change channel=0 control=64 value=127 time=8
note_on channel=0 note=56 velocity=0 time=64
control_change channel=0 control=64 value=121 time=88
control_change channel=0 control=64 value=75 time=14
control_change channel=0 control=64 value=0 time=15
note_on channel=0 note=85 velocity=100 time=11
note_on channel=0 note=71 velocity=95 time=4
note_on channel=0 note=51 velocity=90 time=1
control_change channel=0 control=64 value=62 time=15
control_change channel=0 control=64 value=71 time=16
control_change channel=0 control=64 value=82 time=15
control_change channel=0 control=64 value=98 time=14
note_on channel=0 note=51 velocity=0 time=2
control_change channel=0 control=64 value=115 time=14
control_change channel=0 control=64 value=127 time=15
note_on channel=0 note=53 velocity=91 time=16
note_on channel=0 note=85 velocity=0 time=57
control_change channel=0 control=64 value=117 time=18
note_on channel=0 note=53 velocity=0 time=1
note_on channel=0 note=71 velocity=0 time=14
control_change channel=0 control=64 value=69 time=1
control_change channel=0 control=64 value=0 time=15
note_on channel=0 note=49 velocity=97 time=2
control_change channel=0 control=64 value=55 time=14
control_change channel=0 control=64 value=70 time=13
note_on channel=0 note=49 velocity=0 time=14
control_change channel=0 control=64 value=81 time=1
control_change channel=0 control=64 value=101 time=16
control_change channel=0 control=64 value=127 time=15
note_on channel=0 note=80 velocity=99 time=42
note_on channel=0 note=68 velocity=78 time=5
note_on channel=0 note=68 velocity=0 time=24
note_on channel=0 note=80 velocity=0 time=17
control_change channel=0 control=64 value=112 time=56
note_on channel=0 note=46 velocity=83 time=9
note_on channel=0 note=83 velocity=93 time=2
note_on channel=0 note=81 velocity=88 time=2
note_on channel=0 note=69 velocity=89 time=1
control_change channel=0 control=64 value=67 time=1
control_change channel=0 control=64 value=0 time=15
note_on channel=0 note=46 velocity=0 time=2
note_on channel=0 note=69 velocity=0 time=0
note_on channel=0 note=83 velocity=0 time=10
note_on channel=0 note=81 velocity=0 time=6
note_on channel=0 note=80 velocity=93 time=67
note_on channel=0 note=68 velocity=84 time=1
note_on channel=0 note=49 velocity=85 time=2
note_on channel=0 note=68 velocity=0 time=30
note_on channel=0 note=49 velocity=0 time=1
note_on channel=0 note=70 velocity=26 time=11
note_on channel=0 note=70 velocity=0 time=1
note_on channel=0 note=80 velocity=0 time=0
note_on channel=0 note=45 velocity=86 time=64
note_on channel=0 note=78 velocity=95 time=8
note_on channel=0 note=66 velocity=87 time=5
control_change channel=0 control=64 value=66 time=7
note_on channel=0 note=45 velocity=0 time=9
control_change channel=0 control=64 value=89 time=5
control_change channel=0 control=64 value=117 time=16
control_change channel=0 control=64 value=127 time=15
note_on channel=0 note=78 velocity=0 time=17
note_on channel=0 note=66 velocity=0 time=59
note_on channel=0 note=44 velocity=96 time=95
note_on channel=0 note=73 velocity=94 time=12
note_on channel=0 note=61 velocity=79 time=7
control_change channel=0 control=64 value=80 time=10
note_on channel=0 note=44 velocity=0 time=9
control_change channel=0 control=64 value=0 time=5
note_on channel=0 note=45 velocity=94 time=65
note_on channel=0 note=45 velocity=0 time=39
note_on channel=0 note=42 velocity=98 time=77
note_on channel=0 note=42 velocity=0 time=38
control_change channel=0 control=64 value=56 time=2
control_change channel=0 control=64 value=78 time=15
control_change channel=0 control=64 value=101 time=16
note_on channel=0 note=61 velocity=0 time=7
note_on channel=0 note=73 velocity=0 time=2
control_change channel=0 control=64 value=127 time=6
control_change channel=0 control=64 value=90 time=151
note_on channel=0 note=30 velocity=82 time=8
note_on channel=0 note=42 velocity=94 time=6
control_change channel=0 control=64 value=70 time=1
note_on channel=0 note=62 velocity=92 time=14
control_change channel=0 control=64 value=73 time=3
note_on channel=0 note=74 velocity=102 time=0
note_on channel=0 note=30 velocity=0 time=6
note_on channel=0 note=42 velocity=0 time=7
control_change channel=0 control=64 value=87 time=2
control_change channel=0 control=64 value=102 time=15
control_change channel=0 control=64 value=127 time=16
note_on channel=0 note=42 velocity=73 time=111
note_on channel=0 note=50 velocity=56 time=18
control_change channel=0 control=64 value=96 time=19
control_change channel=0 control=64 value=64 time=16
note_on channel=0 note=62 velocity=0 time=6
control_change channel=0 control=64 value=0 time=9
note_on channel=0 note=42 velocity=0 time=3
note_on channel=0 note=57 velocity=104 time=5
note_on channel=0 note=73 velocity=100 time=3
control_change channel=0 control=64 value=64 time=5
note_on channel=0 note=74 velocity=0 time=13
control_change channel=0 control=64 value=77 time=2
note_on channel=0 note=50 velocity=0 time=13
control_change channel=0 control=64 value=98 time=1
note_on channel=0 note=73 velocity=0 time=6
control_change channel=0 control=64 value=127 time=10
note_on channel=0 note=57 velocity=0 time=58
control_change channel=0 control=64 value=88 time=125
note_on channel=0 note=86 velocity=106 time=6
note_on channel=0 note=52 velocity=84 time=7
control_change channel=0 control=64 value=54 time=3
note_on channel=0 note=74 velocity=83 time=0
note_on channel=0 note=72 velocity=82 time=3
control_change channel=0 control=64 value=0 time=10
control_change channel=0 control=64 value=64 time=15
control_change channel=0 control=64 value=74 time=22
control_change channel=0 control=64 value=84 time=15
control_change channel=0 control=64 value=101 time=15
control_change channel=0 control=64 value=127 time=16
note_on channel=0 note=54 velocity=95 time=20
note_on channel=0 note=52 velocity=0 time=19
note_on channel=0 note=86 velocity=0 time=5
note_on channel=0 note=54 velocity=0 time=37
note_on channel=0 note=74 velocity=0 time=16
note_on channel=0 note=72 velocity=0 time=10
note_on channel=0 note=50 velocity=98 time=15
control_change channel=0 control=64 value=102 time=15
control_change channel=0 control=64 value=79 time=15
control_change channel=0 control=64 value=76 time=15
control_change channel=0 control=64 value=87 time=15
note_on channel=0 note=50 velocity=0 time=0
control_change channel=0 control=64 value=99 time=16
control_change channel=0 control=64 value=107 time=15
control_change channel=0 control=64 value=126 time=16
note_on channel=0 note=81 velocity=94 time=4
control_change channel=0 control=64 value=127 time=11
note_on channel=0 note=69 velocity=79 time=0
note_on channel=0 note=69 velocity=0 time=20
note_on channel=0 note=81 velocity=0 time=11
note_on channel=0 note=48 velocity=83 time=52
control_change channel=0 control=64 value=117 time=8
note_on channel=0 note=84 velocity=91 time=6
note_on channel=0 note=71 velocity=90 time=2
note_on channel=0 note=83 velocity=94 time=0
control_change channel=0 control=64 value=73 time=8
note_on channel=0 note=48 velocity=0 time=7
note_on channel=0 note=84 velocity=0 time=5
control_change channel=0 control=64 value=0 time=3
note_on channel=0 note=71 velocity=0 time=0
note_on channel=0 note=83 velocity=0 time=6
note_on channel=0 note=50 velocity=72 time=77
note_on channel=0 note=81 velocity=98 time=0
note_on channel=0 note=69 velocity=75 time=12
note_on channel=0 note=50 velocity=0 time=15
note_on channel=0 note=81 velocity=0 time=4
note_on channel=0 note=69 velocity=0 time=2
note_on channel=0 note=80 velocity=90 time=82
note_on channel=0 note=47 velocity=70 time=7
note_on channel=0 note=68 velocity=75 time=6
control_change channel=0 control=64 value=42 time=16
control_change channel=0 control=64 value=77 time=15
control_change channel=0 control=64 value=102 time=15
control_change channel=0 control=64 value=127 time=16
note_on channel=0 note=47 velocity=0 time=15
note_on channel=0 note=80 velocity=0 time=16
note_on channel=0 note=68 velocity=0 time=12
note_on channel=0 note=71 velocity=74 time=127
control_change channel=0 control=64 value=98 time=4
note_on channel=0 note=59 velocity=72 time=0
note_on channel=0 note=50 velocity=69 time=2
control_change channel=0 control=64 value=77 time=14
control_change channel=0 control=64 value=72 time=15
control_change channel=0 control=64 value=79 time=15
note_on channel=0 note=59 velocity=0 time=12
control_change channel=0 control=64 value=86 time=3
control_change channel=0 control=64 value=90 time=15
note_on channel=0 note=50 velocity=0 time=0
note_on channel=0 note=71 velocity=0 time=10
control_change channel=0 control=64 value=95 time=5
control_change channel=0 control=64 value=104 time=16
note_on channel=0 note=53 velocity=85 time=0
control_change channel=0 control=64 value=119 time=15
note_on channel=0 note=53 velocity=0 time=14
control_change channel=0 control=64 value=127 time=2
control_change channel=0 control=64 value=109 time=29
control_change channel=0 control=64 value=84 time=16
control_change channel=0 control=64 value=64 time=15
note_on channel=0 note=38 velocity=94 time=12
control_change channel=0 control=64 value=59 time=4
control_change channel=0 control=64 value=70 time=15
control_change channel=0 control=64 value=79 time=15
note_on channel=0 note=38 velocity=0 time=14
control_change channel=0 control=64 value=88 time=2
control_change channel=0 control=64 value=99 time=15
control_change channel=0 control=64 value=117 time=15
control_change channel=0 control=64 value=127 time=16
note_on channel=0 note=79 velocity=91 time=13
note_on channel=0 note=67 velocity=86 time=2
note_on channel=0 note=67 velocity=0 time=28
note_on channel=0 note=79 velocity=0 time=11
control_change channel=0 control=64 value=97 time=51
control_change channel=0 control=64 value=45 time=16
note_on channel=0 note=49 velocity=74 time=1
note_on channel=0 note=82 velocity=89 time=0
note_on channel=0 note=70 velocity=84 time=3
note_on channel=0 note=81 velocity=71 time=9
control_change channel=0 control=64 value=0 time=2
note_on channel=0 note=82 velocity=0 time=7
note_on channel=0 note=49 velocity=0 time=3
note_on channel=0 note=70 velocity=0 time=0
note_on channel=0 note=81 velocity=0 time=11
note_on channel=0 note=79 velocity=95 time=74
note_on channel=0 note=67 velocity=76 time=8
note_on channel=0 note=52 velocity=59 time=7
note_on channel=0 note=67 velocity=0 time=14
note_on channel=0 note=52 velocity=0 time=13
note_on channel=0 note=79 velocity=0 time=2
note_on channel=0 note=78 velocity=89 time=82
note_on channel=0 note=38 velocity=70 time=10
note_on channel=0 note=66 velocity=77 time=0
control_change channel=0 control=64 value=44 time=17
control_change channel=0 control=64 value=78 time=16
control_change channel=0 control=64 value=100 time=15
control_change channel=0 control=64 value=127 time=15
note_on channel=0 note=38 velocity=0 time=42
note_on channel=0 note=78 velocity=0 time=14
note_on channel=0 note=66 velocity=0 time=6
control_change channel=0 control=64 value=101 time=90
note_on channel=0 note=45 velocity=79 time=13
note_on channel=0 note=72 velocity=78 time=1
control_change channel=0 control=64 value=72 time=1
note_on channel=0 note=60 velocity=62 time=9
control_change channel=0 control=64 value=52 time=6
note_on channel=0 note=45 velocity=0 time=14
control_change channel=0 control=64 value=67 time=1
control_change channel=0 control=64 value=74 time=16
control_change channel=0 control=64 value=79 time=14
control_change channel=0 control=64 value=86 time=15
control_change channel=0 control=64 value=95 time=16
note_on channel=0 note=60 velocity=0 time=2
control_change channel=0 control=64 value=108 time=13
note_on channel=0 note=50 velocity=88 time=2
note_on channel=0 note=72 velocity=0 time=13
control_change channel=0 control=64 value=127 time=1
note_on channel=0 note=50 velocity=0 time=30
note_on channel=0 note=38 velocity=93 time=67
control_change channel=0 control=64 value=100 time=40
note_on channel=0 note=38 velocity=0 time=3
control_change channel=0 control=64 value=74 time=12
control_change channel=0 control=64 value=60 time=16
control_change channel=0 control=64 value=64 time=15
control_change channel=0 control=64 value=66 time=16
note_on channel=0 note=78 velocity=94 time=11
control_change channel=0 control=64 value=66 time=4
note_on channel=0 note=66 velocity=90 time=2
control_change channel=0 control=64 value=67 time=12
note_on channel=0 note=66 velocity=0 time=8
control_change channel=0 control=64 value=68 time=8
note_on channel=0 note=78 velocity=0 time=6
control_change channel=0 control=64 value=69 time=9
control_change channel=0 control=64 value=71 time=14
control_change channel=0 control=64 value=73 time=16
control_change channel=0 control=64 value=70 time=14
note_on channel=0 note=47 velocity=76 time=10
control_change channel=0 control=64 value=38 time=6
note_on channel=0 note=79 velocity=96 time=2
note_on channel=0 note=67 velocity=85 time=3
control_change channel=0 control=64 value=0 time=10
note_on channel=0 note=47 velocity=0 time=3
note_on channel=0 note=79 velocity=0 time=0
note_on channel=0 note=67 velocity=0 time=5
note_on channel=0 note=50 velocity=73 time=94
note_on channel=0 note=59 velocity=93 time=6
note_on channel=0 note=71 velocity=99 time=0
note_on channel=0 note=59 velocity=0 time=17
note_on channel=0 note=50 velocity=0 time=8
note_on channel=0 note=71 velocity=0 time=10
note_on channel=0 note=72 velocity=93 time=84
note_on channel=0 note=60 velocity=87 time=3
note_on channel=0 note=38 velocity=80 time=4
control_change channel=0 control=64 value=24 time=16
control_change channel=0 control=64 value=63 time=16
note_on channel=0 note=71 velocity=29 time=2
note_on channel=0 note=71 velocity=0 time=1
control_change channel=0 control=64 value=70 time=12
control_change channel=0 control=64 value=76 time=15
control_change channel=0 control=64 value=83 time=15
control_change channel=0 control=64 value=91 time=15
control_change channel=0 control=64 value=99 time=16
note_on channel=0 note=60 velocity=0 time=0
control_change channel=0 control=64 value=107 time=15
note_on channel=0 note=38 velocity=0 time=13
control_change channel=0 control=64 value=127 time=2
note_on channel=0 note=72 velocity=0 time=3
control_change channel=0 control=64 value=104 time=58
control_change channel=0 control=64 value=71 time=15
control_change channel=0 control=64 value=0 time=16
note_on channel=0 note=45 velocity=80 time=4
note_on channel=0 note=78 velocity=90 time=5
control_change channel=0 control=64 value=58 time=6
note_on channel=0 note=66 velocity=69 time=8
control_change channel=0 control=64 value=68 time=7
note_on channel=0 note=45 velocity=0 time=3
control_change channel=0 control=64 value=72 time=13
control_change channel=0 control=64 value=78 time=15
control_change channel=0 control=64 value=88 time=15
control_change channel=0 control=64 value=99 time=15
control_change channel=0 control=64 value=107 time=15
note_on channel=0 note=50 velocity=89 time=6
control_change channel=0 control=64 value=109 time=10
control_change channel=0 control=64 value=108 time=15
control_change channel=0 control=64 value=105 time=15
note_on channel=0 note=50 velocity=0 time=15
control_change channel=0 control=64 value=85 time=1
note_on channel=0 note=66 velocity=0 time=6
control_change channel=0 control=64 value=0 time=9
note_on channel=0 note=78 velocity=0 time=37
note_on channel=0 note=38 velocity=90 time=12
control_change channel=0 control=64 value=65 time=27
control_change channel=0 control=64 value=81 time=15
note_on channel=0 note=38 velocity=0 time=2
control_change channel=0 control=64 value=96 time=14
control_change channel=0 control=64 value=109 time=15
control_change channel=0 control=64 value=113 time=16
control_change channel=0 control=64 value=119 time=15
control_change channel=0 control=64 value=127 time=14
note_on channel=0 note=78 velocity=93 time=1
note_on channel=0 note=66 velocity=82 time=9
note_on channel=0 note=66 velocity=0 time=28
note_on channel=0 note=78 velocity=0 time=17
control_change channel=0 control=64 value=97 time=59
note_on channel=0 note=47 velocity=82 time=9
control_change channel=0 control=64 value=66 time=7
note_on channel=0 note=79 velocity=97 time=0
note_on channel=0 note=67 velocity=85 time=4
control_change channel=0 control=64 value=0 time=11
note_on channel=0 note=47 velocity=0 time=2
note_on channel=0 note=79 velocity=0 time=0
note_on channel=0 note=67 velocity=0 time=7
note_on channel=0 note=71 velocity=101 time=88
note_on channel=0 note=59 velocity=91 time=1
note_on channel=0 note=50 velocity=85 time=1
note_on channel=0 note=59 velocity=0 time=18
note_on channel=0 note=50 velocity=0 time=15
note_on channel=0 note=71 velocity=0 time=2
note_on channel=0 note=38 velocity=95 time=90
note_on channel=0 note=72 velocity=97 time=0
note_on channel=0 note=60 velocity=88 time=4
control_change channel=0 control=64 value=41 time=14
control_change channel=0 control=64 value=69 time=15
control_change channel=0 control=64 value=75 time=16
control_change channel=0 control=64 value=78 time=15
control_change channel=0 control=64 value=81 time=16
control_change channel=0 control=64 value=83 time=14
control_change channel=0 control=64 value=86 time=15
control_change channel=0 control=64 value=88 time=16
note_on channel=0 note=38 velocity=0 time=0
note_on channel=0 note=60 velocity=0 time=9
control_change channel=0 control=64 value=91 time=7
control_change channel=0 control=64 value=93 time=15
note_on channel=0 note=72 velocity=0 time=14
control_change channel=0 control=64 value=96 time=2
control_change channel=0 control=64 value=99 time=15
control_change channel=0 control=64 value=91 time=30
control_change channel=0 control=64 value=75 time=15
control_change channel=0 control=64 value=11 time=16
note_on channel=0 note=45 velocity=81 time=5
control_change channel=0 control=64 value=39 time=10
note_on channel=0 note=78 velocity=93 time=0
note_on channel=0 note=66 velocity=74 time=7
control_change channel=0 control=64 value=61 time=7
control_change channel=0 control=64 value=64 time=16
note_on channel=0 note=45 velocity=0 time=5
control_change channel=0 control=64 value=66 time=10
control_change channel=0 control=64 value=69 time=16
control_change channel=0 control=64 value=71 time=14
control_change channel=0 control=64 value=72 time=15
note_on channel=0 note=50 velocity=89 time=13
control_change channel=0 control=64 value=69 time=49
note_on channel=0 note=50 velocity=0 time=12
control_change channel=0 control=64 value=0 time=10
note_on channel=0 note=66 velocity=0 time=56
note_on channel=0 note=38 velocity=91 time=9
note_on channel=0 note=78 velocity=0 time=29
note_on channel=0 note=39 velocity=35 time=11
control_change channel=0 control=64 value=33 time=1
control_change channel=0 control=64 value=62 time=16
control_change channel=0 control=64 value=65 time=15
note_on channel=0 note=39 velocity=0 time=6
note_on channel=0 note=38 velocity=0 time=3
control_change channel=0 control=64 value=66 time=6
note_on channel=0 note=78 velocity=89 time=42
note_on channel=0 note=66 velocity=77 time=3
control_change channel=0 control=64 value=66 time=1
control_change channel=0 control=64 value=65 time=16
control_change channel=0 control=64 value=61 time=14
note_on channel=0 note=66 velocity=0 time=0
control_change channel=0 control=64 value=49 time=16
note_on channel=0 note=78 velocity=0 time=3
control_change channel=0 control=64 value=32 time=12
control_change channel=0 control=64 value=0 time=15
control_change channel=0 control=64 value=41 time=30
note_on channel=0 note=47 velocity=66 time=13
control_change channel=0 control=64 value=58 time=2
note_on channel=0 note=79 velocity=96 time=1
note_on channel=0 note=67 velocity=74 time=7
control_change channel=0 control=64 value=64 time=8
note_on channel=0 note=47 velocity=0 time=13
note_on channel=0 note=79 velocity=0 time=0
control_change channel=0 control=64 value=66 time=2
note_on channel=0 note=67 velocity=0 time=1
control_change channel=0 control=64 value=66 time=15
control_change channel=0 control=64 value=65 time=14
control_change channel=0 control=64 value=65 time=15
control_change channel=0 control=64 value=65 time=32
note_on channel=0 note=50 velocity=75 time=22
control_change channel=0 control=64 value=65 time=9
note_on channel=0 note=71 velocity=84 time=0
note_on channel=0 note=59 velocity=74 time=4
note_on channel=0 note=50 velocity=0 time=19
note_on channel=0 note=71 velocity=0 time=3
note_on channel=0 note=59 velocity=0 time=1
control_change channel=0 control=64 value=64 time=4
control_change channel=0 control=64 value=63 time=14
control_change channel=0 control=64 value=62 time=16
control_change channel=0 control=64 value=62 time=16
control_change channel=0 control=64 value=56 time=15
control_change channel=0 control=64 value=0 time=16
note_on channel=0 note=38 velocity=68 time=55
note_on channel=0 note=72 velocity=77 time=11
note_on channel=0 note=60 velocity=61 time=9
control_change channel=0 control=67 value=8 time=15
note_on channel=0 note=38 velocity=0 time=12
control_change channel=0 control=67 value=9 time=3
control_change channel=0 control=64 value=59 time=16
control_change channel=0 control=64 value=65 time=15
control_change channel=0 control=64 value=68 time=16
control_change channel=0 control=67 value=8 time=0
control_change channel=0 control=64 value=69 time=14
control_change channel=0 control=64 value=70 time=15
control_change channel=0 control=67 value=8 time=0
note_on channel=0 note=60 velocity=0 time=23
control_change channel=0 control=64 value=70 time=1
control_change channel=0 control=64 value=71 time=15
control_change channel=0 control=64 value=72 time=16
control_change channel=0 control=64 value=72 time=14
control_change channel=0 control=64 value=71 time=31
note_on channel=0 note=72 velocity=0 time=12
control_change channel=0 control=64 value=61 time=2
control_change channel=0 control=67 value=0 time=0
note_on channel=0 note=45 velocity=69 time=10
control_change channel=0 control=64 value=0 time=6
note_on channel=0 note=50 velocity=76 time=19
note_on channel=0 note=45 velocity=0 time=13
note_on channel=0 note=50 velocity=0 time=19
note_on channel=0 note=78 velocity=81 time=246
note_on channel=0 note=38 velocity=67 time=2
control_change channel=0 control=64 value=45 time=5
note_on channel=0 note=33 velocity=40 time=5
note_on channel=0 note=72 velocity=61 time=3
note_on channel=0 note=66 velocity=58 time=2
control_change channel=0 control=64 value=69 time=5
note_on channel=0 note=38 velocity=0 time=8
control_change channel=0 control=64 value=77 time=7
note_on channel=0 note=66 velocity=0 time=4
note_on channel=0 note=72 velocity=0 time=3
note_on channel=0 note=33 velocity=0 time=6
control_change channel=0 control=64 value=84 time=2
note_on channel=0 note=78 velocity=0 time=1
control_change channel=0 control=64 value=86 time=15
control_change channel=0 control=64 value=85 time=76
control_change channel=0 control=64 value=85 time=15
control_change channel=0 control=64 value=84 time=16
control_change channel=0 control=64 value=83 time=15
control_change channel=0 control=64 value=82 time=15
control_change channel=0 control=64 value=81 time=16
control_change channel=0 control=64 value=73 time=15
control_change channel=0 control=64 value=0 time=15
note_on channel=0 note=45 velocity=67 time=26
note_on channel=0 note=50 velocity=83 time=25
note_on channel=0 note=45 velocity=0 time=15
note_on channel=0 note=50 velocity=0 time=20
control_change channel=0 control=64 value=35 time=119
control_change channel=0 control=64 value=52 time=16
control_change channel=0 control=64 value=58 time=14
control_change channel=0 control=64 value=59 time=16
control_change channel=0 control=64 value=57 time=15
control_change channel=0 control=64 value=40 time=14
control_change channel=0 control=64 value=0 time=16
note_on channel=0 note=45 velocity=49 time=15
note_on channel=0 note=33 velocity=53 time=3
note_on channel=0 note=38 velocity=54 time=18
note_on channel=0 note=50 velocity=58 time=3
note_on channel=0 note=45 velocity=0 time=7
note_on channel=0 note=33 velocity=0 time=5
note_on channel=0 note=50 velocity=0 time=18
note_on channel=0 note=38 velocity=0 time=16
note_on channel=0 note=54 velocity=61 time=193
note_on channel=0 note=42 velocity=64 time=4
note_on channel=0 note=45 velocity=79 time=16
note_on channel=0 note=57 velocity=69 time=3
note_on channel=0 note=42 velocity=0 time=8
note_on channel=0 note=54 velocity=0 time=1
note_on channel=0 note=45 velocity=0 time=14
note_on channel=0 note=57 velocity=0 time=4
note_on channel=0 note=50 velocity=77 time=212
note_on channel=0 note=62 velocity=72 time=5
note_on channel=0 note=54 velocity=83 time=12
note_on channel=0 note=66 velocity=88 time=5
note_on channel=0 note=62 velocity=0 time=17
control_change channel=0 control=64 value=45 time=7
control_change channel=0 control=64 value=38 time=16
note_on channel=0 note=66 velocity=0 time=1
note_on channel=0 note=50 velocity=0 time=2
control_change channel=0 control=64 value=0 time=12
note_on channel=0 note=54 velocity=0 time=0
note_on channel=0 note=69 velocity=74 time=188
note_on channel=0 note=57 velocity=71 time=13
note_on channel=0 note=62 velocity=73 time=10
note_on channel=0 note=69 velocity=0 time=0
note_on channel=0 note=74 velocity=93 time=0
control_change channel=0 control=64 value=41 time=17
note_on channel=0 note=62 velocity=0 time=7
note_on channel=0 note=57 velocity=0 time=1
control_change channel=0 control=64 value=63 time=7
control_change channel=0 control=64 value=63 time=16
control_change channel=0 control=64 value=63 time=30
control_change channel=0 control=64 value=60 time=15
control_change channel=0 control=64 value=56 time=15
control_change channel=0 control=64 value=52 time=15
control_change channel=0 control=64 value=46 time=15
note_on channel=0 note=74 velocity=0 time=14
control_change channel=0 control=64 value=36 time=1
control_change channel=0 control=64 value=0 time=16
control_change channel=0 control=64 value=42 time=91
note_on channel=0 note=38 velocity=76 time=6
note_on channel=0 note=43 velocity=85 time=1
note_on channel=0 note=62 velocity=88 time=2
note_on channel=0 note=74 velocity=90 time=4
control_change channel=0 control=64 value=78 time=2
note_on channel=0 note=70 velocity=82 time=2
control_change channel=0 control=64 value=98 time=13
note_on channel=0 note=62 velocity=0 time=0
note_on channel=0 note=70 velocity=0 time=11
control_change channel=0 control=64 value=127 time=4
note_on channel=0 note=74 velocity=0 time=8
note_on channel=0 note=43 velocity=0 time=1
note_on channel=0 note=38 velocity=0 time=9
control_change channel=0 control=64 value=105 time=44
control_change channel=0 control=64 value=67 time=14
control_change channel=0 control=64 value=0 time=15
note_on channel=0 note=46 velocity=74 time=149
note_on channel=0 note=50 velocity=80 time=17
note_on channel=0 note=46 velocity=0 time=27
note_on channel=0 note=50 velocity=0 time=11
note_on channel=0 note=79 velocity=89 time=220
note_on channel=0 note=74 velocity=76 time=4
note_on channel=0 note=38 velocity=65 time=1
note_on channel=0 note=70 velocity=69 time=0
note_on channel=0 note=67 velocity=70 time=1
note_on channel=0 note=43 velocity=72 time=3
control_change channel=0 control=64 value=61 time=1
control_change channel=0 control=64 value=72 time=14
note_on channel=0 note=67 velocity=0 time=0
note_on channel=0 note=74 velocity=0 time=2
note_on channel=0 note=70 velocity=0 time=6
note_on channel=0 note=38 velocity=0 time=5
note_on channel=0 note=79 velocity=0 time=2
control_change channel=0 control=64 value=83 time=1
note_on channel=0 note=43 velocity=0 time=0
control_change channel=0 control=64 value=91 time=15
control_change channel=0 control=64 value=93 time=16
control_change channel=0 control=64 value=93 time=76
control_change channel=0 control=64 value=92 time=60
control_change channel=0 control=64 value=89 time=15
control_change channel=0 control=64 value=75 time=15
control_change channel=0 control=64 value=0 time=15
note_on channel=0 note=46 velocity=75 time=17
note_on channel=0 note=50 velocity=73 time=14
note_on channel=0 note=50 velocity=0 time=32
note_on channel=0 note=46 velocity=0 time=22
note_on channel=0 note=38 velocity=48 time=220
note_on channel=0 note=43 velocity=61 time=4
note_on channel=0 note=50 velocity=37 time=0
note_on channel=0 note=55 velocity=55 time=14
note_on channel=0 note=38 velocity=0 time=12
note_on channel=0 note=50 velocity=0 time=11
note_on channel=0 note=43 velocity=0 time=6
note_on channel=0 note=55 velocity=0 time=7
note_on channel=0 note=46 velocity=70 time=196
note_on channel=0 note=58 velocity=66 time=0
note_on channel=0 note=50 velocity=80 time=21
note_on channel=0 note=62 velocity=75 time=2
note_on channel=0 note=58 velocity=0 time=6
note_on channel=0 note=46 velocity=0 time=4
note_on channel=0 note=50 velocity=0 time=14
note_on channel=0 note=62 velocity=0 time=0
note_on channel=0 note=67 velocity=75 time=202
note_on channel=0 note=55 velocity=81 time=7
note_on channel=0 note=58 velocity=85 time=13
note_on channel=0 note=70 velocity=94 time=2
control_change channel=0 control=64 value=44 time=18
note_on channel=0 note=67 velocity=0 time=4
control_change channel=0 control=64 value=65 time=12
note_on channel=0 note=55 velocity=0 time=6
note_on channel=0 note=70 velocity=0 time=0
control_change channel=0 control=64 value=66 time=9
note_on channel=0 note=58 velocity=0 time=15
control_change channel=0 control=64 value=65 time=16
control_change channel=0 control=64 value=59 time=14
control_change channel=0 control=64 value=0 time=16
note_on channel=0 note=74 velocity=84 time=136
note_on channel=0 note=62 velocity=79 time=1
note_on channel=0 note=67 velocity=86 time=10
note_on channel=0 note=79 velocity=95 time=8
note_on channel=0 note=74 velocity=0 time=1
note_on channel=0 note=67 velocity=0 time=11
note_on channel=0 note=77 velocity=63 time=3
control_change channel=0 control=64 value=64 time=5
note_on channel=0 note=62 velocity=0 time=11
note_on channel=0 note=77 velocity=0 time=3
control_change channel=0 control=64 value=72 time=1
note_on channel=0 note=76 velocity=19 time=2
note_on channel=0 note=79 velocity=0 time=2
control_change channel=0 control=64 value=74 time=12
control_change channel=0 control=64 value=76 time=15
note_on channel=0 note=76 velocity=0 time=21
control_change channel=0 control=64 value=75 time=24
control_change channel=0 control=64 value=74 time=31
control_change channel=0 control=64 value=74 time=15
control_change channel=0 control=64 value=67 time=16
control_change channel=0 control=64 value=0 time=14
note_on channel=0 note=41 velocity=96 time=52
note_on channel=0 note=35 velocity=74 time=6
note_on channel=0 note=68 velocity=100 time=1
note_on channel=0 note=80 velocity=103 time=0
note_on channel=0 note=77 velocity=70 time=11
note_on channel=0 note=36 velocity=71 time=1
control_change channel=0 control=64 value=75 time=6
note_on channel=0 note=74 velocity=37 time=13
control_change channel=0 control=64 value=97 time=2
note_on channel=0 note=68 velocity=0 time=2
note_on channel=0 note=77 velocity=0 time=0
note_on channel=0 note=35 velocity=0 time=5
note_on channel=0 note=36 velocity=0 time=0
control_change channel=0 control=64 value=127 time=8
note_on channel=0 note=41 velocity=0 time=4
note_on channel=0 note=38 velocity=8 time=6
note_on channel=0 note=80 velocity=0 time=0
note_on channel=0 note=74 velocity=0 time=5
note_on channel=0 note=38 velocity=0 time=59
control_change channel=0 control=64 value=89 time=78
control_change channel=0 control=64 value=53 time=15
control_change channel=0 control=64 value=0 time=15
note_on channel=0 note=47 velocity=87 time=12
note_on channel=0 note=53 velocity=100 time=20
control_change channel=0 control=64 value=66 time=45
note_on channel=0 note=47 velocity=0 time=7
control_change channel=0 control=64 value=74 time=9
note_on channel=0 note=53 velocity=0 time=1
control_change channel=0 control=64 value=79 time=13
control_change channel=0 control=64 value=81 time=15
control_change channel=0 control=64 value=81 time=30
control_change channel=0 control=64 value=79 time=16
control_change channel=0 control=64 value=77 time=23
control_change channel=0 control=64 value=68 time=16
control_change channel=0 control=64 value=0 time=15
note_on channel=0 note=42 velocity=96 time=61
note_on channel=0 note=69 velocity=101 time=4
note_on channel=0 note=81 velocity=106 time=0
note_on channel=0 note=36 velocity=80 time=3
note_on channel=0 note=75 velocity=87 time=3
note_on channel=0 note=78 velocity=90 time=1
control_change channel=0 control=64 value=67 time=5
control_change channel=0 control=64 value=82 time=14
note_on channel=0 note=69 velocity=0 time=2
note_on channel=0 note=36 velocity=0 time=4
note_on channel=0 note=75 velocity=0 time=2
control_change channel=0 control=64 value=94 time=8
note_on channel=0 note=80 velocity=26 time=3
note_on channel=0 note=81 velocity=0 time=0
note_on channel=0 note=42 velocity=0 time=2
note_on channel=0 note=78 velocity=0 time=8
control_change channel=0 control=64 value=100 time=2
note_on channel=0 note=80 velocity=0 time=25
control_change channel=0 control=64 value=99 time=96
control_change channel=0 control=64 value=88 time=15
control_change channel=0 control=64 value=66 time=16
control_change channel=0 control=64 value=0 time=15
note_on channel=0 note=48 velocity=83 time=13
note_on channel=0 note=54 velocity=97 time=11
control_change channel=0 control=64 value=29 time=21
note_on channel=0 note=54 velocity=0 time=15
control_change channel=0 control=64 value=71 time=1
note_on channel=0 note=48 velocity=0 time=9
control_change channel=0 control=64 value=85 time=5
control_change channel=0 control=64 value=103 time=15
control_change channel=0 control=64 value=127 time=16
control_change channel=0 control=64 value=78 time=155
note_on channel=0 note=82 velocity=94 time=4
note_on channel=0 note=70 velocity=94 time=2
note_on channel=0 note=49 velocity=94 time=3
note_on channel=0 note=78 velocity=73 time=1
control_change channel=0 control=64 value=0 time=5
note_on channel=0 note=37 velocity=81 time=0
note_on channel=0 note=78 velocity=0 time=17
note_on channel=0 note=37 velocity=0 time=10
note_on channel=0 note=49 velocity=0 time=0
note_on channel=0 note=70 velocity=0 time=6
note_on channel=0 note=82 velocity=0 time=10
note_on channel=0 note=50 velocity=104 time=204
note_on channel=0 note=71 velocity=96 time=3
note_on channel=0 note=38 velocity=93 time=4
note_on channel=0 note=83 velocity=100 time=0
note_on channel=0 note=78 velocity=91 time=2
control_change channel=0 control=64 value=73 time=10
control_change channel=0 control=64 value=109 time=15
note_on channel=0 note=50 velocity=0 time=13
control_change channel=0 control=64 value=127 time=3
note_on channel=0 note=38 velocity=0 time=6
note_on channel=0 note=71 velocity=0 time=217
note_on channel=0 note=83 velocity=0 time=11
note_on channel=0 note=78 velocity=0 time=35
control_change channel=0 control=64 value=82 time=157
control_change channel=0 control=64 value=0 time=16
note_on channel=0 note=46 velocity=99 time=12
note_on channel=0 note=34 velocity=81 time=3
note_on channel=0 note=42 velocity=90 time=1
note_on channel=0 note=85 velocity=103 time=0
note_on channel=0 note=73 velocity=110 time=5
control_change channel=0 control=64 value=64 time=10
control_change channel=0 control=64 value=78 time=15
control_change channel=0 control=64 value=106 time=13
note_on channel=0 note=34 velocity=0 time=2
note_on channel=0 note=46 velocity=0 time=9
control_change channel=0 control=64 value=127 time=5
note_on channel=0 note=42 velocity=0 time=24
note_on channel=0 note=73 velocity=0 time=8
note_on channel=0 note=85 velocity=0 time=73
control_change channel=0 control=64 value=96 time=55
control_change channel=0 control=64 value=59 time=14
control_change channel=0 control=64 value=0 time=15
note_on channel=0 note=47 velocity=104 time=43
note_on channel=0 note=74 velocity=100 time=1
note_on channel=0 note=86 velocity=104 time=1
note_on channel=0 note=42 velocity=95 time=1
control_change channel=0 control=64 value=73 time=1
note_on channel=0 note=35 velocity=80 time=1
note_on channel=0 note=78 velocity=93 time=3
control_change channel=0 control=64 value=102 time=10
note_on channel=0 note=35 velocity=0 time=11
control_change channel=0 control=64 value=127 time=4
note_on channel=0 note=74 velocity=0 time=5
note_on channel=0 note=42 velocity=0 time=12
note_on channel=0 note=47 velocity=0 time=1
note_on channel=0 note=78 velocity=0 time=3
note_on channel=0 note=86 velocity=0 time=3
control_change channel=0 control=64 value=117 time=343
control_change channel=0 control=64 value=78 time=14
control_change channel=0 control=64 value=0 time=15
note_on channel=0 note=37 velocity=76 time=533
note_on channel=0 note=41 velocity=77 time=21
note_on channel=0 note=44 velocity=88 time=34
note_on channel=0 note=71 velocity=82 time=16
note_on channel=0 note=49 velocity=101 time=3
note_on channel=0 note=77 velocity=95 time=1
note_on channel=0 note=65 velocity=102 time=2
note_on channel=0 note=68 velocity=91 time=2
control_change channel=0 control=64 value=55 time=18
control_change channel=0 control=64 value=94 time=15
note_on channel=0 note=65 velocity=0 time=1
note_on channel=0 note=37 velocity=0 time=2
note_on channel=0 note=68 velocity=0 time=11
control_change channel=0 control=64 value=127 time=1
note_on channel=0 note=74 velocity=19 time=5
note_on channel=0 note=41 velocity=0 time=2
note_on channel=0 note=71 velocity=0 time=1
note_on channel=0 note=49 velocity=0 time=6
note_on channel=0 note=77 velocity=0 time=3
note_on channel=0 note=44 velocity=0 time=1
note_on channel=0 note=74 velocity=0 time=28
control_change channel=0 control=64 value=126 time=433
control_change channel=0 control=64 value=104 time=15
control_change channel=0 control=64 value=91 time=15
control_change channel=0 control=64 value=77 time=16
control_change channel=0 control=64 value=61 time=14
control_change channel=0 control=64 value=0 time=15
note_on channel=0 note=30 velocity=86 time=494
note_on channel=0 note=37 velocity=84 time=23
note_on channel=0 note=42 velocity=93 time=42
control_change channel=0 control=64 value=68 time=12
note_on channel=0 note=78 velocity=95 time=0
note_on channel=0 note=66 velocity=101 time=2
note_on channel=0 note=70 velocity=91 time=1
note_on channel=0 note=73 velocity=94 time=1
note_on channel=0 note=30 velocity=0 time=6
control_change channel=0 control=64 value=86 time=5
note_on channel=0 note=37 velocity=0 time=14
note_on channel=0 note=42 velocity=0 time=0
control_change channel=0 control=64 value=118 time=1
control_change channel=0 control=64 value=127 time=16
note_on channel=0 note=52 velocity=89 time=152
note_on channel=0 note=64 velocity=84 time=3
note_on channel=0 note=64 velocity=0 time=20
note_on channel=0 note=52 velocity=0 time=2
note_on channel=0 note=64 velocity=93 time=81
note_on channel=0 note=52 velocity=88 time=3
note_on channel=0 note=52 velocity=0 time=28
note_on channel=0 note=64 velocity=0 time=3
note_on channel=0 note=64 velocity=98 time=69
note_on channel=0 note=52 velocity=93 time=5
note_on channel=0 note=52 velocity=0 time=26
note_on channel=0 note=64 velocity=0 time=4
control_change channel=0 control=64 value=99 time=60
control_change channel=0 control=64 value=66 time=16
note_on channel=0 note=64 velocity=100 time=4
note_on channel=0 note=52 velocity=92 time=2
control_change channel=0 control=64 value=50 time=9
control_change channel=0 control=64 value=65 time=15
control_change channel=0 control=64 value=69 time=15
control_change channel=0 control=64 value=72 time=15
control_change channel=0 control=64 value=77 time=16
control_change channel=0 control=64 value=87 time=14
control_change channel=0 control=64 value=97 time=15
control_change channel=0 control=64 value=102 time=16
note_on channel=0 note=70 velocity=0 time=6
control_change channel=0 control=64 value=106 time=9
note_on channel=0 note=73 velocity=0 time=10
note_on channel=0 note=66 velocity=0 time=1
control_change channel=0 control=64 value=113 time=4
note_on channel=0 note=78 velocity=0 time=9
control_change channel=0 control=64 value=127 time=6
note_on channel=0 note=66 velocity=100 time=82
note_on channel=0 note=78 velocity=97 time=1
note_on channel=0 note=76 velocity=92 time=5
note_on channel=0 note=64 velocity=0 time=32
note_on channel=0 note=52 velocity=0 time=8
note_on channel=0 note=78 velocity=0 time=110
note_on channel=0 note=66 velocity=0 time=6
note_on channel=0 note=76 velocity=0 time=52
note_on channel=0 note=78 velocity=86 time=46
note_on channel=0 note=66 velocity=81 time=1
note_on channel=0 note=74 velocity=85 time=0
control_change channel=0 control=64 value=104 time=15
control_change channel=0 control=64 value=70 time=15
control_change channel=0 control=64 value=0 time=14
control_change channel=0 control=64 value=56 time=33
control_change channel=0 control=64 value=64 time=16
control_change channel=0 control=64 value=70 time=15
note_on channel=0 note=62 velocity=82 time=9
control_change channel=0 control=64 value=77 time=7
note_on channel=0 note=50 velocity=80 time=0
control_change channel=0 control=64 value=86 time=15
note_on channel=0 note=62 velocity=0 time=7
note_on channel=0 note=50 velocity=0 time=6
control_change channel=0 control=64 value=95 time=2
control_change channel=0 control=64 value=100 time=16
control_change channel=0 control=64 value=105 time=15
control_change channel=0 control=64 value=111 time=16
control_change channel=0 control=64 value=127 time=14
note_on channel=0 note=50 velocity=81 time=12
note_on channel=0 note=62 velocity=89 time=3
note_on channel=0 note=62 velocity=0 time=31
note_on channel=0 note=50 velocity=0 time=5
note_on channel=0 note=62 velocity=89 time=60
note_on channel=0 note=50 velocity=84 time=6
note_on channel=0 note=62 velocity=0 time=34
note_on channel=0 note=50 velocity=0 time=5
note_on channel=0 note=66 velocity=0 time=32
note_on channel=0 note=74 velocity=0 time=9
control_change channel=0 control=64 value=94 time=1
control_change channel=0 control=64 value=65 time=14
note_on channel=0 note=59 velocity=99 time=8
note_on channel=0 note=47 velocity=92 time=5
control_change channel=0 control=64 value=0 time=3
note_on channel=0 note=71 velocity=95 time=2
control_change channel=0 control=64 value=66 time=13
note_on channel=0 note=78 velocity=0 time=13
control_change channel=0 control=64 value=75 time=2
control_change channel=0 control=64 value=86 time=24
note_on channel=0 note=47 velocity=0 time=4
control_change channel=0 control=64 value=109 time=10
note_on channel=0 note=59 velocity=0 time=11
control_change channel=0 control=64 value=127 time=5
note_on channel=0 note=49 velocity=86 time=156
note_on channel=0 note=61 velocity=96 time=1
note_on channel=0 note=66 velocity=95 time=20
note_on channel=0 note=71 velocity=0 time=2
note_on channel=0 note=78 velocity=95 time=1
note_on channel=0 note=73 velocity=83 time=1
note_on channel=0 note=61 velocity=0 time=7
note_on channel=0 note=49 velocity=0 time=18
note_on channel=0 note=42 velocity=80 time=142
note_on channel=0 note=78 velocity=0 time=11
note_on channel=0 note=46 velocity=85 time=15
note_on channel=0 note=66 velocity=0 time=6
note_on channel=0 note=41 velocity=54 time=4
control_change channel=0 control=64 value=83 time=12
control_change channel=0 control=64 value=0 time=15
note_on channel=0 note=41 velocity=0 time=3
note_on channel=0 note=49 velocity=81 time=4
note_on channel=0 note=73 velocity=0 time=3
control_change channel=0 control=64 value=40 time=35
note_on channel=0 note=54 velocity=89 time=2
control_change channel=0 control=64 value=66 time=13
note_on channel=0 note=42 velocity=0 time=3
note_on channel=0 note=66 velocity=94 time=10
control_change channel=0 control=64 value=77 time=2
note_on channel=0 note=78 velocity=87 time=1
note_on channel=0 note=73 velocity=79 time=8
note_on channel=0 note=70 velocity=76 time=1
note_on channel=0 note=46 velocity=0 time=2
control_change channel=0 control=64 value=89 time=3
note_on channel=0 note=54 velocity=0 time=3
note_on channel=0 note=49 velocity=0 time=4
control_change channel=0 control=64 value=106 time=9
control_change channel=0 control=64 value=120 time=15
control_change channel=0 control=64 value=127 time=15
note_on channel=0 note=65 velocity=100 time=144
note_on channel=0 note=53 velocity=94 time=4
note_on channel=0 note=53 velocity=0 time=33
note_on channel=0 note=65 velocity=0 time=3
note_on channel=0 note=65 velocity=98 time=97
note_on channel=0 note=53 velocity=99 time=3
note_on channel=0 note=53 velocity=0 time=37
note_on channel=0 note=65 velocity=0 time=0
note_on channel=0 note=65 velocity=103 time=68
note_on channel=0 note=53 velocity=96 time=2
note_on channel=0 note=65 velocity=0 time=35
note_on channel=0 note=53 velocity=0 time=11
note_on channel=0 note=73 velocity=0 time=12
note_on channel=0 note=70 velocity=0 time=29
control_change channel=0 control=64 value=105 time=29
note_on channel=0 note=65 velocity=102 time=0
note_on channel=0 note=53 velocity=102 time=4
control_change channel=0 control=64 value=69 time=11
control_change channel=0 control=64 value=0 time=15
control_change channel=0 control=64 value=62 time=15
control_change channel=0 control=64 value=69 time=15
control_change channel=0 control=64 value=76 time=16
control_change channel=0 control=64 value=88 time=15
control_change channel=0 control=64 value=106 time=15
note_on channel=0 note=66 velocity=0 time=10
control_change channel=0 control=64 value=127 time=5
note_on channel=0 note=78 velocity=0 time=15
note_on channel=0 note=66 velocity=102 time=90
note_on channel=0 note=77 velocity=95 time=3
note_on channel=0 note=78 velocity=96 time=3
note_on channel=0 note=53 velocity=0 time=36
note_on channel=0 note=65 velocity=0 time=4
note_on channel=0 note=78 velocity=0 time=156
note_on channel=0 note=66 velocity=0 time=12
note_on channel=0 note=77 velocity=0 time=31
note_on channel=0 note=66 velocity=101 time=56
note_on channel=0 note=78 velocity=91 time=3
note_on channel=0 note=76 velocity=90 time=1
control_change channel=0 control=64 value=82 time=25
control_change channel=0 control=64 value=59 time=15
control_change channel=0 control=64 value=60 time=16
control_change channel=0 control=64 value=68 time=14
control_change channel=0 control=64 value=74 time=15
control_change channel=0 control=64 value=84 time=16
note_on channel=0 note=64 velocity=94 time=1
note_on channel=0 note=52 velocity=85 time=2
control_change channel=0 control=64 value=104 time=12
control_change channel=0 control=64 value=127 time=15
note_on channel=0 note=64 velocity=0 time=4
note_on channel=0 note=52 velocity=0 time=6
note_on channel=0 note=64 velocity=99 time=78
note_on channel=0 note=52 velocity=92 time=4
note_on channel=0 note=64 velocity=0 time=33
note_on channel=0 note=52 velocity=0 time=7
note_on channel=0 note=52 velocity=91 time=62
note_on channel=0 note=64 velocity=99 time=0
note_on channel=0 note=66 velocity=0 time=29
note_on channel=0 note=64 velocity=0 time=17
control_change channel=0 control=64 value=101 time=4
note_on channel=0 note=52 velocity=0 time=1
control_change channel=0 control=64 value=75 time=14
control_change channel=0 control=64 value=72 time=15
note_on channel=0 note=76 velocity=0 time=8
control_change channel=0 control=64 value=80 time=7
control_change channel=0 control=64 value=90 time=15
note_on channel=0 note=61 velocity=100 time=10
note_on channel=0 note=49 velocity=97 time=2
note_on channel=0 note=73 velocity=101 time=3
control_change channel=0 control=64 value=102 time=1
control_change channel=0 control=64 value=127 time=16
note_on channel=0 note=78 velocity=0 time=8
note_on channel=0 note=73 velocity=0 time=15
note_on channel=0 note=51 velocity=1 time=22
note_on channel=0 note=51 velocity=0 time=48
note_on channel=0 note=61 velocity=0 time=18
note_on channel=0 note=62 velocity=80 time=124
note_on channel=0 note=50 velocity=79 time=1
note_on channel=0 note=62 velocity=0 time=20
note_on channel=0 note=49 velocity=0 time=1
note_on channel=0 note=90 velocity=100 time=20
note_on channel=0 note=78 velocity=104 time=3
note_on channel=0 note=50 velocity=0 time=3
note_on channel=0 note=86 velocity=84 time=0
control_change channel=0 control=64 value=82 time=177
control_change channel=0 control=64 value=41 time=16
note_on channel=0 note=78 velocity=0 time=5
control_change channel=0 control=64 value=39 time=10
note_on channel=0 note=42 velocity=87 time=9
note_on channel=0 note=54 velocity=94 time=3
control_change channel=0 control=64 value=66 time=3
control_change channel=0 control=64 value=74 time=15
control_change channel=0 control=64 value=85 time=15
control_change channel=0 control=64 value=104 time=15
note_on channel=0 note=90 velocity=0 time=13
control_change channel=0 control=64 value=127 time=3
note_on channel=0 note=86 velocity=0 time=22
note_on channel=0 note=42 velocity=0 time=55
note_on channel=0 note=54 velocity=0 time=4
note_on channel=0 note=86 velocity=105 time=35
note_on channel=0 note=74 velocity=94 time=3
note_on channel=0 note=74 velocity=0 time=37
note_on channel=0 note=86 velocity=0 time=14
note_on channel=0 note=88 velocity=100 time=84
note_on channel=0 note=76 velocity=98 time=3
note_on channel=0 note=66 velocity=80 time=1
note_on channel=0 note=54 velocity=82 time=4
note_on channel=0 note=86 velocity=78 time=5
note_on channel=0 note=76 velocity=0 time=6
note_on channel=0 note=66 velocity=0 time=5
note_on channel=0 note=86 velocity=0 time=6
note_on channel=0 note=88 velocity=0 time=1
note_on channel=0 note=54 velocity=0 time=11
note_on channel=0 note=66 velocity=96 time=94
note_on channel=0 note=78 velocity=96 time=3
note_on channel=0 note=66 velocity=0 time=38
note_on channel=0 note=78 velocity=0 time=33
note_on channel=0 note=50 velocity=83 time=56
note_on channel=0 note=62 velocity=91 time=4
note_on channel=0 note=62 velocity=0 time=35
note_on channel=0 note=50 velocity=0 time=16
note_on channel=0 note=90 velocity=108 time=74
note_on channel=0 note=52 velocity=69 time=1
note_on channel=0 note=64 velocity=89 time=2
note_on channel=0 note=78 velocity=89 time=5
note_on channel=0 note=64 velocity=0 time=14
note_on channel=0 note=52 velocity=0 time=35
control_change channel=0 control=64 value=94 time=46
control_change channel=0 control=64 value=60 time=15
control_change channel=0 control=64 value=0 time=15
note_on channel=0 note=54 velocity=99 time=13
control_change channel=0 control=64 value=36 time=3
note_on channel=0 note=42 velocity=94 time=0
control_change channel=0 control=64 value=59 time=15
note_on channel=0 note=78 velocity=0 time=12
control_change channel=0 control=64 value=67 time=4
control_change channel=0 control=64 value=77 time=14
note_on channel=0 note=90 velocity=0 time=10
control_change channel=0 control=64 value=90 time=5
control_change channel=0 control=64 value=109 time=16
control_change channel=0 control=64 value=127 time=15
note_on channel=0 note=42 velocity=0 time=13
note_on channel=0 note=54 velocity=0 time=6
note_on channel=0 note=76 velocity=97 time=33
note_on channel=0 note=88 velocity=101 time=0
note_on channel=0 note=76 velocity=0 time=52
note_on channel=0 note=88 velocity=0 time=32
control_change channel=0 control=64 value=99 time=48
control_change channel=0 control=64 value=95 time=15
note_on channel=0 note=89 velocity=108 time=7
note_on channel=0 note=67 velocity=92 time=2
note_on channel=0 note=77 velocity=97 time=0
note_on channel=0 note=55 velocity=87 time=3
control_change channel=0 control=64 value=98 time=2
note_on channel=0 note=77 velocity=0 time=14
control_change channel=0 control=64 value=108 time=2
note_on channel=0 note=89 velocity=0 time=11
control_change channel=0 control=64 value=127 time=4
note_on channel=0 note=67 velocity=0 time=31
note_on channel=0 note=55 velocity=0 time=29
note_on channel=0 note=77 velocity=94 time=79
note_on channel=0 note=65 velocity=89 time=4
control_change channel=0 control=64 value=69 time=138
note_on channel=0 note=64 velocity=82 time=5
note_on channel=0 note=52 velocity=72 time=9
control_change channel=0 control=64 value=0 time=2
note_on channel=0 note=50 velocity=60 time=3
note_on channel=0 note=50 velocity=0 time=25
control_change channel=0 control=64 value=57 time=31
note_on channel=0 note=65 velocity=0 time=7
control_change channel=0 control=64 value=71 time=8
note_on channel=0 note=64 velocity=0 time=10
control_change channel=0 control=64 value=80 time=6
control_change channel=0 control=64 value=93 time=15
control_change channel=0 control=64 value=107 time=16
note_on channel=0 note=52 velocity=0 time=0
control_change channel=0 control=64 value=112 time=14
note_on channel=0 note=77 velocity=0 time=5
control_change channel=0 control=64 value=104 time=10
control_change channel=0 control=64 value=82 time=16
note_on channel=0 note=65 velocity=81 time=6
note_on channel=0 note=79 velocity=93 time=2
note_on channel=0 note=53 velocity=73 time=5
control_change channel=0 control=64 value=68 time=2
note_on channel=0 note=65 velocity=0 time=12
control_change channel=0 control=64 value=75 time=19
note_on channel=0 note=53 velocity=0 time=9
control_change channel=0 control=64 value=79 time=6
control_change channel=0 control=64 value=86 time=16
control_change channel=0 control=64 value=95 time=14
control_change channel=0 control=64 value=114 time=15
control_change channel=0 control=64 value=122 time=16
control_change channel=0 control=64 value=101 time=15
control_change channel=0 control=64 value=74 time=16
control_change channel=0 control=64 value=0 time=14
note_on channel=0 note=41 velocity=70 time=18
note_on channel=0 note=53 velocity=79 time=3
note_on channel=0 note=41 velocity=0 time=34
control_change channel=0 control=64 value=46 time=7
control_change channel=0 control=64 value=64 time=15
note_on channel=0 note=53 velocity=0 time=5
control_change channel=0 control=64 value=69 time=10
control_change channel=0 control=64 value=73 time=16
control_change channel=0 control=64 value=74 time=15
note_on channel=0 note=71 velocity=68 time=2
control_change channel=0 control=64 value=75 time=13
control_change channel=0 control=64 value=75 time=16
note_on channel=0 note=79 velocity=0 time=3
note_on channel=0 note=71 velocity=0 time=29
note_on channel=0 note=73 velocity=69 time=1
control_change channel=0 control=64 value=76 time=5
control_change channel=0 control=64 value=75 time=60
note_on channel=0 note=73 velocity=0 time=10
note_on channel=0 note=65 velocity=75 time=1
note_on channel=0 note=67 velocity=65 time=2
control_change channel=0 control=64 value=71 time=3
control_change channel=0 control=64 value=55 time=15
control_change channel=0 control=64 value=0 time=15
note_on channel=0 note=67 velocity=0 time=2
note_on channel=0 note=59 velocity=62 time=36
note_on channel=0 note=61 velocity=67 time=63
note_on channel=0 note=65 velocity=0 time=15
note_on channel=0 note=53 velocity=57 time=65
note_on channel=0 note=79 velocity=74 time=0
note_on channel=0 note=59 velocity=0 time=6
note_on channel=0 note=61 velocity=0 time=5
control_change channel=0 control=64 value=49 time=6
control_change channel=0 control=64 value=63 time=15
note_on channel=0 note=53 velocity=0 time=3
control_change channel=0 control=64 value=70 time=12
control_change channel=0 control=64 value=77 time=15
note_on channel=0 note=71 velocity=68 time=14
control_change channel=0 control=64 value=84 time=2
control_change channel=0 control=64 value=89 time=14
control_change channel=0 control=64 value=90 time=16
note_on channel=0 note=79 velocity=0 time=22
note_on channel=0 note=71 velocity=0 time=4
note_on channel=0 note=73 velocity=73 time=2
control_change channel=0 control=64 value=89 time=2
control_change channel=0 control=64 value=87 time=16
control_change channel=0 control=64 value=82 time=14
control_change channel=0 control=64 value=72 time=15
control_change channel=0 control=64 value=0 time=16
note_on channel=0 note=67 velocity=72 time=2
note_on channel=0 note=53 velocity=72 time=3
note_on channel=0 note=73 velocity=0 time=6
note_on channel=0 note=47 velocity=70 time=49
note_on channel=0 note=67 velocity=0 time=15
note_on channel=0 note=53 velocity=0 time=41
note_on channel=0 note=49 velocity=84 time=4
note_on channel=0 note=41 velocity=78 time=59
note_on channel=0 note=47 velocity=0 time=12
note_on channel=0 note=49 velocity=0 time=4
note_on channel=0 note=79 velocity=96 time=3
note_on channel=0 note=41 velocity=0 time=9
control_change channel=0 control=64 value=66 time=6
control_change channel=0 control=64 value=80 time=15
control_change channel=0 control=64 value=91 time=16
control_change channel=0 control=64 value=105 time=15
note_on channel=0 note=71 velocity=89 time=18
control_change channel=0 control=64 value=122 time=5
control_change channel=0 control=64 value=127 time=15
note_on channel=0 note=74 velocity=88 time=40
note_on channel=0 note=79 velocity=0 time=18
note_on channel=0 note=71 velocity=0 time=7
note_on channel=0 note=67 velocity=90 time=43
note_on channel=0 note=65 velocity=73 time=17
note_on channel=0 note=74 velocity=0 time=2
control_change channel=0 control=64 value=90 time=10
note_on channel=0 note=64 velocity=52 time=9
note_on channel=0 note=67 velocity=0 time=3
control_change channel=0 control=64 value=61 time=3
control_change channel=0 control=64 value=0 time=15
note_on channel=0 note=64 velocity=0 time=6
note_on channel=0 note=59 velocity=77 time=6
note_on channel=0 note=65 velocity=0 time=0
note_on channel=0 note=62 velocity=84 time=82
note_on channel=0 note=83 velocity=92 time=49
control_change channel=0 control=64 value=48 time=9
note_on channel=0 note=53 velocity=88 time=0
note_on channel=0 note=59 velocity=0 time=11
control_change channel=0 control=64 value=80 time=5
note_on channel=0 note=62 velocity=0 time=0
note_on channel=0 note=84 velocity=28 time=9
note_on channel=0 note=84 velocity=0 time=1
control_change channel=0 control=64 value=96 time=5
note_on channel=0 note=53 velocity=0 time=9
control_change channel=0 control=64 value=127 time=6
note_on channel=0 note=74 velocity=89 time=19
note_on channel=0 note=83 velocity=0 time=24
note_on channel=0 note=79 velocity=90 time=30
note_on channel=0 note=74 velocity=0 time=20
note_on channel=0 note=71 velocity=93 time=39
note_on channel=0 note=50 velocity=76 time=25
note_on channel=0 note=79 velocity=0 time=5
note_on channel=0 note=71 velocity=0 time=6
note_on channel=0 note=43 velocity=81 time=43
note_on channel=0 note=50 velocity=0 time=7
note_on channel=0 note=47 velocity=86 time=57
control_change channel=0 control=64 value=108 time=28
control_change channel=0 control=64 value=67 time=15
control_change channel=0 control=64 value=0 time=16
note_on channel=0 note=86 velocity=113 time=18
note_on channel=0 note=38 velocity=83 time=3
control_change channel=0 control=64 value=44 time=8
note_on channel=0 note=47 velocity=0 time=15
note_on channel=0 note=43 velocity=0 time=4
control_change channel=0 control=64 value=65 time=5
note_on channel=0 note=38 velocity=0 time=4
control_change channel=0 control=64 value=75 time=10
control_change channel=0 control=64 value=87 time=16
control_change channel=0 control=64 value=104 time=15
note_on channel=0 note=77 velocity=88 time=4
control_change channel=0 control=64 value=127 time=11
note_on channel=0 note=86 velocity=0 time=7
note_on channel=0 note=83 velocity=96 time=44
note_on channel=0 note=77 velocity=0 time=21
note_on channel=0 note=74 velocity=104 time=50
note_on channel=0 note=59 velocity=86 time=12
note_on channel=0 note=83 velocity=0 time=16
note_on channel=0 note=74 velocity=0 time=12
note_on channel=0 note=50 velocity=78 time=33
note_on channel=0 note=59 velocity=0 time=14
note_on channel=0 note=55 velocity=74 time=54
note_on channel=0 note=52 velocity=45 time=12
note_on channel=0 note=87 velocity=52 time=2
note_on channel=0 note=87 velocity=0 time=1
control_change channel=0 control=64 value=80 time=40
control_change channel=0 control=64 value=0 time=16
note_on channel=0 note=47 velocity=83 time=27
control_change channel=0 control=64 value=59 time=4
note_on channel=0 note=52 velocity=0 time=3
note_on channel=0 note=48 velocity=69 time=2
note_on channel=0 note=89 velocity=99 time=0
note_on channel=0 note=91 velocity=99 time=3
note_on channel=0 note=55 velocity=0 time=1
control_change channel=0 control=64 value=67 time=6
note_on channel=0 note=47 velocity=0 time=11
note_on channel=0 note=48 velocity=0 time=2
control_change channel=0 control=64 value=76 time=1
note_on channel=0 note=50 velocity=0 time=1
control_change channel=0 control=64 value=88 time=15
control_change channel=0 control=64 value=106 time=15
control_change channel=0 control=64 value=127 time=15
note_on channel=0 note=91 velocity=0 time=11
note_on channel=0 note=83 velocity=92 time=1
note_on channel=0 note=89 velocity=0 time=38
note_on channel=0 note=86 velocity=91 time=19
note_on channel=0 note=83 velocity=0 time=21
note_on channel=0 note=43 velocity=58 time=22
note_on channel=0 note=77 velocity=94 time=38
control_change channel=0 control=64 value=109 time=18
note_on channel=0 note=43 velocity=0 time=10
note_on channel=0 note=35 velocity=70 time=2
note_on channel=0 note=86 velocity=0 time=2
control_change channel=0 control=64 value=66 time=1
control_change channel=0 control=64 value=0 time=16
note_on channel=0 note=31 velocity=75 time=16
note_on channel=0 note=77 velocity=0 time=15
control_change channel=0 control=64 value=66 time=15
note_on channel=0 note=38 velocity=71 time=15
control_change channel=0 control=64 value=78 time=7
control_change channel=0 control=64 value=94 time=16
control_change channel=0 control=64 value=127 time=15
note_on channel=0 note=43 velocity=89 time=10
note_on channel=0 note=35 velocity=0 time=3
note_on channel=0 note=31 velocity=0 time=5
note_on channel=0 note=38 velocity=0 time=23
note_on channel=0 note=43 velocity=0 time=12
control_change channel=0 control=64 value=87 time=190
note_on channel=0 note=67 velocity=101 time=5
note_on channel=0 note=55 velocity=93 time=3
control_change channel=0 control=64 value=75 time=7
note_on channel=0 note=92 velocity=98 time=0
note_on channel=0 note=80 velocity=104 time=3
control_change channel=0 control=64 value=80 time=13
control_change channel=0 control=64 value=92 time=15
note_on channel=0 note=55 velocity=0 time=5
note_on channel=0 note=67 velocity=0 time=6
control_change channel=0 control=64 value=103 time=4
control_change channel=0 control=64 value=117 time=15
control_change channel=0 control=64 value=127 time=15
note_on channel=0 note=80 velocity=0 time=121
note_on channel=0 note=92 velocity=0 time=7
note_on channel=0 note=83 velocity=63 time=7
note_on channel=0 note=89 velocity=77 time=71
note_on channel=0 note=83 velocity=0 time=17
note_on channel=0 note=91 velocity=105 time=81
note_on channel=0 note=79 velocity=93 time=5
note_on channel=0 note=72 velocity=68 time=6
note_on channel=0 note=76 velocity=79 time=6
note_on channel=0 note=89 velocity=0 time=13
note_on channel=0 note=84 velocity=65 time=72
note_on channel=0 note=79 velocity=0 time=50
note_on channel=0 note=88 velocity=72 time=1
note_on channel=0 note=91 velocity=0 time=3
note_on channel=0 note=76 velocity=0 time=9
note_on channel=0 note=89 velocity=46 time=26
note_on channel=0 note=84 velocity=0 time=41
note_on channel=0 note=89 velocity=0 time=3
note_on channel=0 note=72 velocity=0 time=7
note_on channel=0 note=90 velocity=90 time=21
note_on channel=0 note=88 velocity=0 time=3
note_on channel=0 note=78 velocity=96 time=3
note_on channel=0 note=69 velocity=82 time=3
note_on channel=0 note=75 velocity=92 time=3
note_on channel=0 note=75 velocity=0 time=68
note_on channel=0 note=84 velocity=71 time=17
note_on channel=0 note=78 velocity=0 time=15
note_on channel=0 note=90 velocity=0 time=9
note_on channel=0 note=69 velocity=0 time=2
note_on channel=0 note=87 velocity=72 time=26
note_on channel=0 note=84 velocity=0 time=28
note_on channel=0 note=74 velocity=93 time=8
note_on channel=0 note=71 velocity=82 time=3
note_on channel=0 note=74 velocity=0 time=18
note_on channel=0 note=71 velocity=0 time=25
note_on channel=0 note=77 velocity=89 time=11
note_on channel=0 note=89 velocity=97 time=4
note_on channel=0 note=87 velocity=0 time=9
control_change channel=0 control=64 value=91 time=69
control_change channel=0 control=64 value=51 time=15
note_on channel=0 note=80 velocity=74 time=7
control_change channel=0 control=64 value=0 time=11
note_on channel=0 note=60 velocity=101 time=1
note_on channel=0 note=48 velocity=97 time=3
control_change channel=0 control=64 value=44 time=11
control_change channel=0 control=64 value=66 time=14
control_change channel=0 control=64 value=75 time=16
note_on channel=0 note=77 velocity=0 time=9
note_on channel=0 note=48 velocity=0 time=3
note_on channel=0 note=49 velocity=18 time=0
control_change channel=0 control=64 value=92 time=3
note_on channel=0 note=89 velocity=0 time=11
note_on channel=0 note=86 velocity=70 time=4
control_change channel=0 control=64 value=127 time=1
note_on channel=0 note=60 velocity=0 time=8
note_on channel=0 note=49 velocity=0 time=25
note_on channel=0 note=80 velocity=0 time=1
note_on channel=0 note=86 velocity=0 time=39
note_on channel=0 note=88 velocity=80 time=55
note_on channel=0 note=76 velocity=73 time=4
note_on channel=0 note=67 velocity=73 time=4
note_on channel=0 note=72 velocity=63 time=9
note_on channel=0 note=71 velocity=21 time=32
note_on channel=0 note=67 velocity=0 time=3
note_on channel=0 note=72 velocity=0 time=1
note_on channel=0 note=71 velocity=0 time=34
note_on channel=0 note=88 velocity=0 time=15
note_on channel=0 note=79 velocity=61 time=10
note_on channel=0 note=76 velocity=0 time=20
note_on channel=0 note=84 velocity=65 time=62
note_on channel=0 note=72 velocity=79 time=3
note_on channel=0 note=79 velocity=0 time=7
note_on channel=0 note=67 velocity=75 time=6
note_on channel=0 note=72 velocity=0 time=6
note_on channel=0 note=67 velocity=0 time=21
note_on channel=0 note=75 velocity=73 time=59
note_on channel=0 note=87 velocity=83 time=0
note_on channel=0 note=84 velocity=0 time=10
note_on channel=0 note=50 velocity=96 time=58
note_on channel=0 note=62 velocity=98 time=0
control_change channel=0 control=64 value=72 time=2
control_change channel=0 control=64 value=0 time=15
note_on channel=0 note=79 velocity=66 time=13
note_on channel=0 note=51 velocity=31 time=16
control_change channel=0 control=64 value=56 time=16
note_on channel=0 note=50 velocity=0 time=8
control_change channel=0 control=64 value=73 time=7
note_on channel=0 note=51 velocity=0 time=11
control_change channel=0 control=64 value=88 time=4
note_on channel=0 note=62 velocity=0 time=8
control_change channel=0 control=64 value=117 time=8
note_on channel=0 note=75 velocity=0 time=5
control_change channel=0 control=64 value=127 time=10
note_on channel=0 note=87 velocity=0 time=11
note_on channel=0 note=79 velocity=0 time=43
note_on channel=0 note=69 velocity=85 time=22
note_on channel=0 note=66 velocity=81 time=3
note_on channel=0 note=86 velocity=74 time=12
note_on channel=0 note=74 velocity=77 time=5
note_on channel=0 note=84 velocity=62 time=13
note_on channel=0 note=69 velocity=0 time=8
note_on channel=0 note=84 velocity=0 time=22
note_on channel=0 note=78 velocity=63 time=65
note_on channel=0 note=74 velocity=0 time=2
note_on channel=0 note=86 velocity=0 time=5
note_on channel=0 note=66 velocity=0 time=27
note_on channel=0 note=81 velocity=59 time=23
note_on channel=0 note=70 velocity=87 time=13
note_on channel=0 note=64 velocity=72 time=9
note_on channel=0 note=78 velocity=0 time=4
note_on channel=0 note=70 velocity=0 time=15
note_on channel=0 note=64 velocity=0 time=34
note_on channel=0 note=81 velocity=0 time=51
note_on channel=0 note=85 velocity=83 time=0
note_on channel=0 note=73 velocity=78 time=14
control_change channel=0 control=64 value=103 time=61
control_change channel=0 control=64 value=59 time=16
note_on channel=0 note=55 velocity=101 time=8
note_on channel=0 note=43 velocity=94 time=1
control_change channel=0 control=64 value=0 time=6
note_on channel=0 note=79 velocity=68 time=7
control_change channel=0 control=64 value=30 time=55
control_change channel=0 control=64 value=66 time=15
note_on channel=0 note=43 velocity=0 time=15
control_change channel=0 control=64 value=75 time=1
note_on channel=0 note=82 velocity=73 time=6
control_change channel=0 control=64 value=85 time=8
control_change channel=0 control=64 value=96 time=15
note_on channel=0 note=55 velocity=0 time=2
note_on channel=0 note=79 velocity=0 time=2
control_change channel=0 control=64 value=106 time=12
note_on channel=0 note=85 velocity=0 time=8
control_change channel=0 control=64 value=109 time=7
control_change channel=0 control=64 value=111 time=15
note_on channel=0 note=73 velocity=0 time=1
control_change channel=0 control=64 value=114 time=14
control_change channel=0 control=64 value=119 time=15
control_change channel=0 control=64 value=127 time=16
note_on channel=0 note=63 velocity=80 time=32
note_on channel=0 note=69 velocity=80 time=6
note_on channel=0 note=72 velocity=82 time=0
note_on channel=0 note=84 velocity=91 time=0
note_on channel=0 note=82 velocity=0 time=31
note_on channel=0 note=78 velocity=71 time=108
note_on channel=0 note=69 velocity=0 time=11
note_on channel=0 note=84 velocity=0 time=32
note_on channel=0 note=63 velocity=0 time=8
note_on channel=0 note=72 velocity=0 time=2
note_on channel=0 note=81 velocity=73 time=9
note_on channel=0 note=78 velocity=0 time=43
note_on channel=0 note=81 velocity=0 time=13
note_on channel=0 note=62 velocity=70 time=24
note_on channel=0 note=83 velocity=93 time=1
note_on channel=0 note=68 velocity=74 time=3
note_on channel=0 note=71 velocity=90 time=1
control_change channel=0 control=64 value=102 time=10
control_change channel=0 control=64 value=84 time=15
control_change channel=0 control=64 value=82 time=16
control_change channel=0 control=64 value=87 time=21
control_change channel=0 control=64 value=93 time=16
control_change channel=0 control=64 value=100 time=15
note_on channel=0 note=77 velocity=66 time=14
control_change channel=0 control=64 value=111 time=1
control_change channel=0 control=64 value=127 time=16
note_on channel=0 note=68 velocity=0 time=22
note_on channel=0 note=71 velocity=0 time=2
note_on channel=0 note=83 velocity=0 time=16
note_on channel=0 note=80 velocity=76 time=5
note_on channel=0 note=62 velocity=0 time=8
note_on channel=0 note=77 velocity=0 time=41
note_on channel=0 note=80 velocity=0 time=25
note_on channel=0 note=67 velocity=76 time=15
control_change channel=0 control=64 value=123 time=2
note_on channel=0 note=70 velocity=93 time=2
note_on channel=0 note=82 velocity=91 time=5
note_on channel=0 note=61 velocity=60 time=4
control_change channel=0 control=64 value=121 time=5
control_change channel=0 control=64 value=124 time=15
control_change channel=0 control=64 value=127 time=14
note_on channel=0 note=80 velocity=14 time=5
note_on channel=0 note=67 velocity=0 time=4
note_on channel=0 note=61 velocity=0 time=11
note_on channel=0 note=80 velocity=0 time=32
note_on channel=0 note=76 velocity=70 time=21
note_on channel=0 note=70 velocity=0 time=12
note_on channel=0 note=82 velocity=0 time=0
note_on channel=0 note=66 velocity=86 time=29
note_on channel=0 note=60 velocity=71 time=14
note_on channel=0 note=79 velocity=70 time=8
note_on channel=0 note=66 velocity=0 time=19
note_on channel=0 note=60 velocity=0 time=4
note_on channel=0 note=76 velocity=0 time=22
note_on channel=0 note=69 velocity=91 time=50
note_on channel=0 note=81 velocity=93 time=0
note_on channel=0 note=79 velocity=0 time=20
control_change channel=0 control=64 value=84 time=40
control_change channel=0 control=64 value=0 time=14
note_on channel=0 note=48 velocity=101 time=0
note_on channel=0 note=36 velocity=95 time=3
note_on channel=0 note=75 velocity=65 time=38
control_change channel=0 control=64 value=64 time=20
note_on channel=0 note=36 velocity=0 time=8
control_change channel=0 control=64 value=76 time=7
note_on channel=0 note=37 velocity=2 time=11
control_change channel=0 control=64 value=87 time=4
note_on channel=0 note=48 velocity=0 time=5
control_change channel=0 control=64 value=99 time=11
note_on channel=0 note=81 velocity=0 time=0
note_on channel=0 note=37 velocity=0 time=3
note_on channel=0 note=78 velocity=73 time=0
note_on channel=0 note=69 velocity=0 time=4
control_change channel=0 control=64 value=109 time=8
note_on channel=0 note=75 velocity=0 time=12
control_change channel=0 control=64 value=118 time=3
note_on channel=0 note=78 velocity=0 time=13
control_change channel=0 control=64 value=127 time=3
note_on channel=0 note=65 velocity=75 time=85
note_on channel=0 note=68 velocity=72 time=0
note_on channel=0 note=59 velocity=64 time=2
note_on channel=0 note=58 velocity=45 time=4
note_on channel=0 note=80 velocity=77 time=3
note_on channel=0 note=78 velocity=34 time=28
note_on channel=0 note=58 velocity=0 time=2
note_on channel=0 note=65 velocity=0 time=10
note_on channel=0 note=59 velocity=0 time=8
note_on channel=0 note=78 velocity=0 time=12
note_on channel=0 note=68 velocity=0 time=52
note_on channel=0 note=74 velocity=63 time=0
note_on channel=0 note=80 velocity=0 time=9
note_on channel=0 note=63 velocity=79 time=48
note_on channel=0 note=77 velocity=60 time=8
note_on channel=0 note=60 velocity=67 time=1
note_on channel=0 note=74 velocity=0 time=23
note_on channel=0 note=63 velocity=0 time=5
note_on channel=0 note=60 velocity=0 time=4
note_on channel=0 note=79 velocity=86 time=68
note_on channel=0 note=67 velocity=81 time=1
note_on channel=0 note=77 velocity=0 time=7
control_change channel=0 control=64 value=78 time=84
note_on channel=0 note=72 velocity=63 time=1
note_on channel=0 note=50 velocity=97 time=6
note_on channel=0 note=38 velocity=97 time=5
control_change channel=0 control=64 value=0 time=4
note_on channel=0 note=67 velocity=0 time=47
control_change channel=0 control=64 value=60 time=13
note_on channel=0 note=79 velocity=0 time=1
note_on channel=0 note=38 velocity=0 time=6
note_on channel=0 note=75 velocity=63 time=0
control_change channel=0 control=64 value=71 time=9
control_change channel=0 control=64 value=79 time=14
note_on channel=0 note=50 velocity=0 time=14
control_change channel=0 control=64 value=92 time=1
note_on channel=0 note=72 velocity=0 time=12
control_change channel=0 control=64 value=103 time=4
control_change channel=0 control=64 value=118 time=14
control_change channel=0 control=64 value=127 time=16
note_on channel=0 note=75 velocity=0 time=36
note_on channel=0 note=57 velocity=67 time=43
note_on channel=0 note=62 velocity=73 time=3
note_on channel=0 note=66 velocity=66 time=0
note_on channel=0 note=78 velocity=71 time=3
note_on channel=0 note=62 velocity=0 time=69
note_on channel=0 note=66 velocity=0 time=17
note_on channel=0 note=78 velocity=0 time=10
note_on channel=0 note=69 velocity=66 time=32
note_on channel=0 note=62 velocity=77 time=80
note_on channel=0 note=69 velocity=0 time=13
note_on channel=0 note=55 velocity=69 time=4
note_on channel=0 note=74 velocity=77 time=5
note_on channel=0 note=62 velocity=0 time=7
note_on channel=0 note=55 velocity=0 time=18
note_on channel=0 note=57 velocity=0 time=7
note_on channel=0 note=77 velocity=84 time=74
note_on channel=0 note=65 velocity=76 time=4
note_on channel=0 note=74 velocity=0 time=22
control_change channel=0 control=64 value=74 time=80
note_on channel=0 note=71 velocity=65 time=4
control_change channel=0 control=64 value=0 time=11
note_on channel=0 note=43 velocity=98 time=10
note_on channel=0 note=31 velocity=92 time=3
control_change channel=0 control=64 value=64 time=64
control_change channel=0 control=64 value=73 time=15
note_on channel=0 note=31 velocity=0 time=9
control_change channel=0 control=64 value=82 time=6
control_change channel=0 control=64 value=91 time=15
note_on channel=0 note=43 velocity=0 time=11
control_change channel=0 control=64 value=98 time=5
note_on channel=0 note=74 velocity=75 time=12
control_change channel=0 control=64 value=103 time=3
control_change channel=0 control=64 value=107 time=15
note_on channel=0 note=77 velocity=0 time=9
control_change channel=0 control=64 value=111 time=7
control_change channel=0 control=64 value=119 time=14
control_change channel=0 control=64 value=127 time=16
note_on channel=0 note=65 velocity=0 time=15
note_on channel=0 note=60 velocity=92 time=111
note_on channel=0 note=55 velocity=77 time=1
note_on channel=0 note=71 velocity=0 time=1
note_on channel=0 note=76 velocity=92 time=21
note_on channel=0 note=64 velocity=86 time=3
note_on channel=0 note=74 velocity=0 time=9
note_on channel=0 note=60 velocity=0 time=10
note_on channel=0 note=55 velocity=0 time=13
note_on channel=0 note=64 velocity=0 time=146
note_on channel=0 note=67 velocity=60 time=9
note_on channel=0 note=72 velocity=70 time=60
note_on channel=0 note=67 velocity=0 time=11
note_on channel=0 note=64 velocity=75 time=59
control_change channel=0 control=64 value=84 time=24
note_on channel=0 note=43 velocity=75 time=10
note_on channel=0 note=72 velocity=0 time=1
control_change channel=0 control=64 value=0 time=4
control_change channel=0 control=64 value=54 time=46
control_change channel=0 control=64 value=66 time=15
note_on channel=0 note=48 velocity=71 time=1
control_change channel=0 control=64 value=74 time=14
note_on channel=0 note=67 velocity=58 time=1
control_change channel=0 control=64 value=82 time=15
note_on channel=0 note=64 velocity=0 time=11
note_on channel=0 note=43 velocity=0 time=3
control_change channel=0 control=64 value=91 time=1
control_change channel=0 control=64 value=98 time=14
note_on channel=0 note=76 velocity=0 time=9
note_on channel=0 note=55 velocity=79 time=6
control_change channel=0 control=64 value=103 time=3
note_on channel=0 note=72 velocity=67 time=6
note_on channel=0 note=48 velocity=0 time=4
control_change channel=0 control=64 value=106 time=5
control_change channel=0 control=64 value=112 time=15
control_change channel=0 control=64 value=122 time=15
note_on channel=0 note=55 velocity=0 time=2
note_on channel=0 note=67 velocity=0 time=9
control_change channel=0 control=64 value=127 time=4
note_on channel=0 note=60 velocity=87 time=31
note_on channel=0 note=63 velocity=96 time=16
note_on channel=0 note=75 velocity=93 time=5
note_on channel=0 note=60 velocity=0 time=3
note_on channel=0 note=72 velocity=0 time=26
note_on channel=0 note=67 velocity=70 time=82
note_on channel=0 note=63 velocity=0 time=12
note_on channel=0 note=72 velocity=71 time=59
note_on channel=0 note=67 velocity=0 time=25
note_on channel=0 note=63 velocity=70 time=67
note_on channel=0 note=72 velocity=0 time=30
note_on channel=0 note=43 velocity=75 time=26
control_change channel=0 control=64 value=94 time=5
control_change channel=0 control=64 value=63 time=15
control_change channel=0 control=64 value=0 time=16
control_change channel=0 control=64 value=45 time=15
note_on channel=0 note=47 velocity=72 time=9
note_on channel=0 note=67 velocity=58 time=3
control_change channel=0 control=64 value=62 time=4
control_change channel=0 control=64 value=67 time=15
control_change channel=0 control=64 value=74 time=15
control_change channel=0 control=64 value=84 time=16
note_on channel=0 note=43 velocity=0 time=2
control_change channel=0 control=64 value=96 time=12
note_on channel=0 note=63 velocity=0 time=5
note_on channel=0 note=72 velocity=69 time=1
note_on channel=0 note=55 velocity=75 time=5
control_change channel=0 control=64 value=103 time=4
note_on channel=0 note=75 velocity=0 time=6
note_on channel=0 note=47 velocity=0 time=2
control_change channel=0 control=64 value=108 time=8
control_change channel=0 control=64 value=113 time=14
control_change channel=0 control=64 value=123 time=16
note_on channel=0 note=55 velocity=0 time=12
note_on channel=0 note=67 velocity=0 time=1
control_change channel=0 control=64 value=127 time=2
note_on channel=0 note=59 velocity=87 time=17
note_on channel=0 note=74 velocity=97 time=16
note_on channel=0 note=62 velocity=92 time=2
note_on channel=0 note=59 velocity=0 time=2
note_on channel=0 note=72 velocity=0 time=32
control_change channel=0 control=64 value=114 time=22
control_change channel=0 control=64 value=113 time=16
note_on channel=0 note=67 velocity=71 time=52
control_change channel=0 control=64 value=114 time=9
control_change channel=0 control=64 value=121 time=16
note_on channel=0 note=62 velocity=0 time=5
control_change channel=0 control=64 value=127 time=9
note_on channel=0 note=71 velocity=74 time=19
note_on channel=0 note=67 velocity=0 time=50
note_on channel=0 note=62 velocity=68 time=47
note_on channel=0 note=71 velocity=0 time=24
control_change channel=0 control=64 value=87 time=12
control_change channel=0 control=64 value=63 time=15
note_on channel=0 note=43 velocity=71 time=6
control_change channel=0 control=64 value=0 time=9
control_change channel=0 control=64 value=36 time=16
control_change channel=0 control=64 value=59 time=14
control_change channel=0 control=64 value=64 time=16
note_on channel=0 note=45 velocity=74 time=7
control_change channel=0 control=64 value=71 time=8
note_on channel=0 note=67 velocity=62 time=10
control_change channel=0 control=64 value=78 time=13
control_change channel=0 control=64 value=87 time=15
note_on channel=0 note=43 velocity=0 time=8
control_change channel=0 control=64 value=93 time=6
note_on channel=0 note=74 velocity=0 time=14
note_on channel=0 note=55 velocity=75 time=1
control_change channel=0 control=64 value=96 time=1
note_on channel=0 note=45 velocity=0 time=9
note_on channel=0 note=62 velocity=0 time=0
note_on channel=0 note=71 velocity=74 time=4
control_change channel=0 control=64 value=98 time=2
control_change channel=0 control=64 value=101 time=15
control_change channel=0 control=64 value=108 time=16
note_on channel=0 note=67 velocity=0 time=6
control_change channel=0 control=64 value=117 time=9
note_on channel=0 note=55 velocity=0 time=0
control_change channel=0 control=64 value=127 time=16
note_on channel=0 note=71 velocity=0 time=0
note_on channel=0 note=57 velocity=84 time=10
note_on channel=0 note=72 velocity=97 time=21
note_on channel=0 note=60 velocity=90 time=4
note_on channel=0 note=57 velocity=0 time=4
note_on channel=0 note=67 velocity=70 time=137
note_on channel=0 note=60 velocity=0 time=39
note_on channel=0 note=69 velocity=68 time=69
note_on channel=0 note=67 velocity=0 time=24
note_on channel=0 note=60 velocity=64 time=76
note_on channel=0 note=69 velocity=0 time=4
control_change channel=0 control=64 value=97 time=98
note_on channel=0 note=43 velocity=78 time=12
control_change channel=0 control=64 value=59 time=4
control_change channel=0 control=64 value=0 time=16
note_on channel=0 note=67 velocity=54 time=14
note_on channel=0 note=47 velocity=74 time=39
note_on channel=0 note=60 velocity=0 time=40
control_change channel=0 control=64 value=38 time=36
note_on channel=0 note=72 velocity=0 time=2
control_change channel=0 control=64 value=61 time=13
note_on channel=0 note=69 velocity=64 time=0
control_change channel=0 control=64 value=67 time=14
note_on channel=0 note=55 velocity=83 time=14
control_change channel=0 control=64 value=70 time=2
note_on channel=0 note=43 velocity=0 time=3
note_on channel=0 note=67 velocity=0 time=10
control_change channel=0 control=64 value=73 time=2
note_on channel=0 note=47 velocity=0 time=11
control_change channel=0 control=64 value=74 time=5
control_change channel=0 control=64 value=77 time=14
control_change channel=0 control=64 value=80 time=15
control_change channel=0 control=64 value=83 time=16
control_change channel=0 control=64 value=87 time=15
note_on channel=0 note=55 velocity=0 time=0
control_change channel=0 control=64 value=90 time=16
control_change channel=0 control=64 value=93 time=15
note_on channel=0 note=69 velocity=0 time=3
control_change channel=0 control=64 value=96 time=11
note_on channel=0 note=59 velocity=90 time=15
control_change channel=0 control=64 value=102 time=1
note_on channel=0 note=62 velocity=87 time=14
control_change channel=0 control=64 value=108 time=1
note_on channel=0 note=74 velocity=96 time=1
control_change channel=0 control=64 value=116 time=13
control_change channel=0 control=64 value=127 time=16
note_on channel=0 note=59 velocity=0 time=1
note_on channel=0 note=67 velocity=84 time=203
note_on channel=0 note=62 velocity=0 time=39
note_on channel=0 note=71 velocity=87 time=85
note_on channel=0 note=67 velocity=0 time=12
note_on channel=0 note=62 velocity=87 time=97
note_on channel=0 note=71 velocity=0 time=23
note_on channel=0 note=67 velocity=83 time=93
note_on channel=0 note=62 velocity=0 time=37
note_on channel=0 note=71 velocity=83 time=49
note_on channel=0 note=67 velocity=0 time=21
control_change channel=0 control=64 value=113 time=47
control_change channel=0 control=64 value=87 time=16
note_on channel=0 note=62 velocity=80 time=12
note_on channel=0 note=59 velocity=90 time=1
control_change channel=0 control=64 value=75 time=2
note_on channel=0 note=55 velocity=73 time=0
note_on channel=0 note=71 velocity=0 time=19
control_change channel=0 control=64 value=78 time=11
control_change channel=0 control=64 value=80 time=15
control_change channel=0 control=64 value=83 time=16
control_change channel=0 control=64 value=88 time=15
control_change channel=0 control=64 value=93 time=15
note_on channel=0 note=67 velocity=78 time=3
note_on channel=0 note=74 velocity=0 time=5
control_change channel=0 control=64 value=97 time=7
control_change channel=0 control=64 value=101 time=15
note_on channel=0 note=62 velocity=0 time=6
control_change channel=0 control=64 value=103 time=10
control_change channel=0 control=64 value=103 time=15
note_on channel=0 note=71 velocity=74 time=6
note_on channel=0 note=55 velocity=0 time=10
control_change channel=0 control=64 value=104 time=14
note_on channel=0 note=67 velocity=0 time=5
control_change channel=0 control=64 value=106 time=10
control_change channel=0 control=64 value=106 time=16
control_change channel=0 control=64 value=107 time=15
note_on channel=0 note=62 velocity=79 time=14
control_change channel=0 control=64 value=107 time=32
note_on channel=0 note=71 velocity=0 time=0
control_change channel=0 control=64 value=108 time=14
note_on channel=0 note=67 velocity=77 time=30
control_change channel=0 control=64 value=108 time=1
note_on channel=0 note=59 velocity=0 time=7
note_on channel=0 note=62 velocity=0 time=49
note_on channel=0 note=71 velocity=77 time=10
note_on channel=0 note=67 velocity=0 time=24
control_change channel=0 control=64 value=108 time=3
control_change channel=0 control=64 value=105 time=15
control_change channel=0 control=64 value=93 time=14
control_change channel=0 control=64 value=77 time=16
note_on channel=0 note=71 velocity=0 time=1
note_on channel=0 note=55 velocity=68 time=11
control_change channel=0 control=64 value=62 time=3
note_on channel=0 note=50 velocity=64 time=3
note_on channel=0 note=59 velocity=72 time=3
control_change channel=0 control=64 value=65 time=9
control_change channel=0 control=64 value=70 time=16
control_change channel=0 control=64 value=73 time=14
control_change channel=0 control=64 value=77 time=16
control_change channel=0 control=64 value=82 time=22
control_change channel=0 control=64 value=88 time=16
note_on channel=0 note=62 velocity=59 time=4
control_change channel=0 control=64 value=93 time=11
note_on channel=0 note=59 velocity=0 time=10
note_on channel=0 note=55 velocity=0 time=1
control_change channel=0 control=64 value=96 time=4
note_on channel=0 note=67 velocity=69 time=1
note_on channel=0 note=50 velocity=0 time=3
control_change channel=0 control=64 value=96 time=12
control_change channel=0 control=64 value=97 time=14
note_on channel=0 note=62 velocity=0 time=11
control_change channel=0 control=64 value=98 time=4
control_change channel=0 control=64 value=99 time=16
control_change channel=0 control=64 value=101 time=15
control_change channel=0 control=64 value=101 time=16
note_on channel=0 note=59 velocity=68 time=9
control_change channel=0 control=64 value=102 time=6
note_on channel=0 note=67 velocity=0 time=4
note_on channel=0 note=62 velocity=57 time=90
note_on channel=0 note=59 velocity=0 time=14
note_on channel=0 note=67 velocity=67 time=48
note_on channel=0 note=62 velocity=0 time=16
control_change channel=0 control=64 value=101 time=25
note_on channel=0 note=67 velocity=0 time=14
control_change channel=0 control=64 value=99 time=1
control_change channel=0 control=64 value=90 time=15
note_on channel=0 note=50 velocity=71 time=3
note_on channel=0 note=47 velocity=60 time=3
control_change channel=0 control=64 value=76 time=9
note_on channel=0 note=55 velocity=64 time=1
control_change channel=0 control=64 value=62 time=14
control_change channel=0 control=64 value=63 time=16
control_change channel=0 control=64 value=67 time=15
control_change channel=0 control=64 value=69 time=15
note_on channel=0 note=55 velocity=0 time=14
control_change channel=0 control=64 value=71 time=1
note_on channel=0 note=59 velocity=56 time=7
control_change channel=0 control=64 value=74 time=8
note_on channel=0 note=47 velocity=0 time=12
control_change channel=0 control=64 value=79 time=4
control_change channel=0 control=64 value=83 time=15
control_change channel=0 control=64 value=87 time=15
control_change channel=0 control=64 value=89 time=16
note_on channel=0 note=59 velocity=0 time=1
note_on channel=0 note=62 velocity=59 time=2
control_change channel=0 control=64 value=90 time=11
control_change channel=0 control=64 value=91 time=16
control_change channel=0 control=64 value=93 time=15
control_change channel=0 control=64 value=95 time=15
control_change channel=0 control=64 value=96 time=16
note_on channel=0 note=62 velocity=0 time=0
note_on channel=0 note=55 velocity=58 time=15
note_on channel=0 note=55 velocity=0 time=84
note_on channel=0 note=50 velocity=0 time=3
note_on channel=0 note=59 velocity=52 time=10
note_on channel=0 note=59 velocity=0 time=60
note_on channel=0 note=62 velocity=58 time=2
note_on channel=0 note=62 velocity=0 time=45
control_change channel=0 control=64 value=91 time=1
control_change channel=0 control=64 value=82 time=16
control_change channel=0 control=64 value=69 time=15
control_change channel=0 control=64 value=59 time=14
note_on channel=0 note=47 velocity=57 time=3
note_on channel=0 note=43 velocity=51 time=8
control_change channel=0 control=64 value=64 time=5
note_on channel=0 note=50 velocity=46 time=0
control_change channel=0 control=64 value=66 time=15
control_change channel=0 control=64 value=68 time=16
control_change channel=0 control=64 value=70 time=15
control_change channel=0 control=64 value=72 time=15
control_change channel=0 control=64 value=76 time=16
note_on channel=0 note=50 velocity=0 time=9
note_on channel=0 note=55 velocity=55 time=4
control_change channel=0 control=64 value=80 time=2
control_change channel=0 control=64 value=84 time=14
control_change channel=0 control=64 value=86 time=16
note_on channel=0 note=47 velocity=0 time=4
control_change channel=0 control=64 value=87 time=11
control_change channel=0 control=64 value=89 time=16
note_on channel=0 note=43 velocity=0 time=5
note_on channel=0 note=55 velocity=0 time=1
control_change channel=0 control=64 value=91 time=8
note_on channel=0 note=59 velocity=56 time=0
control_change channel=0 control=64 value=93 time=15
control_change channel=0 control=64 value=93 time=16
control_change channel=0 control=64 value=94 time=30
note_on channel=0 note=59 velocity=0 time=11
control_change channel=0 control=64 value=95 time=4
note_on channel=0 note=50 velocity=52 time=3
control_change channel=0 control=64 value=96 time=12
control_change channel=0 control=64 value=97 time=16
note_on channel=0 note=50 velocity=0 time=71
note_on channel=0 note=55 velocity=52 time=18
note_on channel=0 note=55 velocity=0 time=59
note_on channel=0 note=59 velocity=47 time=30
note_on channel=0 note=59 velocity=0 time=28
control_change channel=0 control=64 value=96 time=6
control_change channel=0 control=64 value=96 time=15
control_change channel=0 control=64 value=94 time=16
control_change channel=0 control=64 value=91 time=15
note_on channel=0 note=43 velocity=49 time=3
note_on channel=0 note=47 velocity=48 time=9
control_change channel=0 control=64 value=86 time=3
control_change channel=0 control=67 value=8 time=0
note_on channel=0 note=38 velocity=42 time=0
control_change channel=0 control=64 value=80 time=16
control_change channel=0 control=64 value=71 time=14
control_change channel=0 control=64 value=65 time=17
control_change channel=0 control=67 value=8 time=0
control_change channel=0 control=64 value=63 time=14
control_change channel=0 control=67 value=9 time=0
control_change channel=0 control=64 value=65 time=24
control_change channel=0 control=67 value=10 time=0
control_change channel=0 control=64 value=67 time=15
control_change channel=0 control=67 value=11 time=0
note_on channel=0 note=47 velocity=0 time=8
control_change channel=0 control=64 value=69 time=7
control_change channel=0 control=67 value=11 time=0
control_change channel=0 control=64 value=71 time=15
note_on channel=0 note=50 velocity=34 time=5
control_change channel=0 control=64 value=73 time=10
control_change channel=0 control=67 value=12 time=0
control_change channel=0 control=64 value=75 time=15
control_change channel=0 control=67 value=12 time=0
control_change channel=0 control=64 value=77 time=16
control_change channel=0 control=64 value=77 time=15
note_on channel=0 note=55 velocity=48 time=19
control_change channel=0 control=64 value=78 time=11
control_change channel=0 control=67 value=13 time=0
control_change channel=0 control=64 value=80 time=15
note_on channel=0 note=50 velocity=0 time=6
control_change channel=0 control=64 value=83 time=9
control_change channel=0 control=67 value=13 time=0
control_change channel=0 control=64 value=84 time=15
control_change channel=0 control=64 value=85 time=15
note_on channel=0 note=55 velocity=0 time=13
control_change channel=0 control=64 value=85 time=3
control_change channel=0 control=67 value=14 time=0
control_change channel=0 control=67 value=14 time=15
control_change channel=0 control=64 value=86 time=16
control_change channel=0 control=67 value=15 time=0
note_on channel=0 note=47 velocity=42 time=3
control_change channel=0 control=64 value=88 time=12
control_change channel=0 control=67 value=15 time=0
control_change channel=0 control=64 value=89 time=15
control_change channel=0 control=67 value=16 time=0
control_change channel=0 control=64 value=90 time=16
control_change channel=0 control=67 value=16 time=14
control_change channel=0 control=67 value=17 time=31
note_on channel=0 note=47 velocity=0 time=34
note_on channel=0 note=50 velocity=38 time=11
note_on channel=0 note=43 velocity=0 time=50
note_on channel=0 note=50 velocity=0 time=10
control_change channel=0 control=67 value=17 time=2
note_on channel=0 note=55 velocity=47 time=7
note_on channel=0 note=38 velocity=0 time=11
control_change channel=0 control=67 value=18 time=42
control_change channel=0 control=67 value=18 time=15
note_on channel=0 note=55 velocity=0 time=11
control_change channel=0 control=67 value=20 time=4
control_change channel=0 control=64 value=89 time=15
control_change channel=0 control=67 value=22 time=0
control_change channel=0 control=64 value=88 time=16
control_change channel=0 control=67 value=24 time=0
control_change channel=0 control=64 value=87 time=14
control_change channel=0 control=67 value=27 time=0
note_on channel=0 note=47 velocity=36 time=1
control_change channel=0 control=64 value=86 time=14
control_change channel=0 control=67 value=29 time=0
control_change channel=0 control=64 value=87 time=16
control_change channel=0 control=67 value=31 time=0
control_change channel=0 control=67 value=33 time=15
control_change channel=0 control=67 value=34 time=15
control_change channel=0 control=64 value=87 time=30
control_change channel=0 control=64 value=88 time=16
control_change channel=0 control=67 value=34 time=0
control_change channel=0 control=64 value=88 time=15
note_on channel=0 note=47 velocity=0 time=12
note_on channel=0 note=50 velocity=34 time=6
control_change channel=0 control=64 value=89 time=51
control_change channel=0 control=64 value=89 time=16
control_change channel=0 control=64 value=90 time=16
note_on channel=0 note=50 velocity=0 time=15
note_on channel=0 note=55 velocity=42 time=5
control_change channel=0 control=64 value=90 time=40
control_change channel=0 control=64 value=91 time=45
note_on channel=0 note=55 velocity=0 time=4
control_change channel=0 control=64 value=91 time=27
note_on channel=0 note=47 velocity=33 time=24
note_on channel=0 note=47 velocity=0 time=100
note_on channel=0 note=50 velocity=33 time=29
control_change channel=0 control=64 value=91 time=105
note_on channel=0 note=55 velocity=40 time=19
note_on channel=0 note=50 velocity=0 time=1
control_change channel=0 control=64 value=90 time=10
control_change channel=0 control=67 value=35 time=0
control_change channel=0 control=64 value=90 time=16
control_change channel=0 control=64 value=89 time=30
control_change channel=0 control=67 value=35 time=0
control_change channel=0 control=64 value=88 time=30
control_change channel=0 control=64 value=85 time=15
control_change channel=0 control=64 value=80 time=16
control_change channel=0 control=67 value=36 time=0
control_change channel=0 control=64 value=73 time=14
control_change channel=0 control=64 value=68 time=16
note_on channel=0 note=55 velocity=0 time=2
control_change channel=0 control=64 value=69 time=13
note_on channel=0 note=35 velocity=27 time=10
control_change channel=0 control=64 value=70 time=5
note_on channel=0 note=47 velocity=7 time=6
control_change channel=0 control=64 value=71 time=10
control_change channel=0 control=64 value=71 time=14
control_change channel=0 control=64 value=72 time=15
control_change channel=0 control=64 value=74 time=16
control_change channel=0 control=64 value=76 time=15
control_change channel=0 control=64 value=79 time=16
control_change channel=0 control=67 value=36 time=0
control_change channel=0 control=64 value=80 time=14
control_change channel=0 control=64 value=82 time=15
control_change channel=0 control=64 value=84 time=24
control_change channel=0 control=67 value=37 time=0
note_on channel=0 note=47 velocity=0 time=13
note_on channel=0 note=50 velocity=31 time=0
control_change channel=0 control=64 value=86 time=1
control_change channel=0 control=67 value=40 time=0
control_change channel=0 control=64 value=88 time=16
control_change channel=0 control=67 value=42 time=0
control_change channel=0 control=64 value=89 time=15
control_change channel=0 control=67 value=45 time=0
control_change channel=0 control=64 value=90 time=15
control_change channel=0 control=67 value=48 time=0
control_change channel=0 control=64 value=92 time=17
control_change channel=0 control=67 value=49 time=0
note_on channel=0 note=35 velocity=0 time=4
control_change channel=0 control=64 value=93 time=11
control_change channel=0 control=67 value=50 time=0
control_change channel=0 control=64 value=94 time=16
control_change channel=0 control=67 value=52 time=0
control_change channel=0 control=64 value=95 time=14
control_change channel=0 control=67 value=53 time=0
control_change channel=0 control=67 value=55 time=15
note_on channel=0 note=55 velocity=44 time=11
control_change channel=0 control=64 value=95 time=5
control_change channel=0 control=67 value=56 time=0
control_change channel=0 control=67 value=57 time=15
note_on channel=0 note=50 velocity=0 time=1
control_change channel=0 control=67 value=58 time=15
control_change channel=0 control=67 value=60 time=14
control_change channel=0 control=67 value=62 time=15
control_change channel=0 control=67 value=64 time=16
control_change channel=0 control=67 value=66 time=15
control_change channel=0 control=67 value=69 time=15
control_change channel=0 control=67 value=73 time=15
control_change channel=0 control=67 value=75 time=15
control_change channel=0 control=67 value=77 time=16
control_change channel=0 control=67 value=80 time=15
note_on channel=0 note=55 velocity=0 time=1
control_change channel=0 control=67 value=83 time=13
note_on channel=0 note=47 velocity=31 time=2
control_change channel=0 control=67 value=86 time=14
control_change channel=0 control=67 value=89 time=15
control_change channel=0 control=67 value=92 time=15
control_change channel=0 control=67 value=94 time=16
control_change channel=0 control=67 value=97 time=14
control_change channel=0 control=67 value=100 time=16
control_change channel=0 control=67 value=102 time=15
control_change channel=0 control=67 value=105 time=15
control_change channel=0 control=67 value=107 time=16
control_change channel=0 control=67 value=110 time=15
control_change channel=0 control=67 value=112 time=15
control_change channel=0 control=67 value=114 time=16
control_change channel=0 control=67 value=116 time=14
note_on channel=0 note=50 velocity=32 time=4
note_on channel=0 note=47 velocity=0 time=9
control_change channel=0 control=67 value=117 time=3
control_change channel=0 control=67 value=119 time=15
control_change channel=0 control=67 value=120 time=15
control_change channel=0 control=67 value=121 time=16
control_change channel=0 control=67 value=121 time=30
control_change channel=0 control=67 value=122 time=15
control_change channel=0 control=67 value=122 time=30
note_on channel=0 note=50 velocity=0 time=175
note_on channel=0 note=55 velocity=38 time=6
note_on channel=0 note=55 velocity=0 time=283
control_change channel=0 control=67 value=123 time=31
control_change channel=0 control=67 value=123 time=76
control_change channel=0 control=67 value=124 time=45
control_change channel=0 control=67 value=124 time=31
control_change channel=0 control=67 value=125 time=14
control_change channel=0 control=67 value=127 time=16
control_change channel=0 control=67 value=127 time=15
control_change channel=0 control=64 value=95 time=77
control_change channel=0 control=64 value=94 time=97
control_change channel=0 control=64 value=94 time=62
control_change channel=0 control=64 value=93 time=45
control_change channel=0 control=64 value=93 time=46
note_on channel=0 note=43 velocity=36 time=7
note_on channel=0 note=31 velocity=37 time=7
control_change channel=0 control=64 value=92 time=2
control_change channel=0 control=64 value=92 time=15
control_change channel=0 control=64 value=91 time=13
control_change channel=0 control=64 value=90 time=15
control_change channel=0 control=64 value=87 time=16
control_change channel=0 control=64 value=83 time=15
control_change channel=0 control=64 value=77 time=16
control_change channel=0 control=64 value=70 time=14
control_change channel=0 control=64 value=51 time=15
control_change channel=0 control=64 value=0 time=16
control_change channel=0 control=64 value=47 time=181
control_change channel=0 control=64 value=62 time=16
control_change channel=0 control=64 value=64 time=15
control_change channel=0 control=64 value=65 time=14
control_change channel=0 control=64 value=67 time=16
control_change channel=0 control=64 value=69 time=15
control_change channel=0 control=64 value=72 time=16
control_change channel=0 control=64 value=75 time=15
control_change channel=0 control=64 value=77 time=14
control_change channel=0 control=64 value=80 time=17
control_change channel=0 control=64 value=82 time=15
control_change channel=0 control=64 value=84 time=15
control_change channel=0 control=64 value=87 time=16
control_change channel=0 control=64 value=90 time=14
control_change channel=0 control=64 value=93 time=16
control_change channel=0 control=64 value=94 time=15
control_change channel=0 control=64 value=97 time=15
control_change channel=0 control=64 value=100 time=16
control_change channel=0 control=64 value=103 time=22
control_change channel=0 control=64 value=107 time=16
control_change channel=0 control=64 value=109 time=15
control_change channel=0 control=64 value=111 time=14
control_change channel=0 control=64 value=112 time=16
control_change channel=0 control=64 value=115 time=15
control_change channel=0 control=64 value=120 time=16
control_change channel=0 control=64 value=127 time=15
note_on channel=0 note=43 velocity=0 time=333
control_change channel=0 control=64 value=124 time=617
control_change channel=0 control=64 value=118 time=15
control_change channel=0 control=64 value=114 time=15
control_change channel=0 control=64 value=110 time=15
control_change channel=0 control=64 value=107 time=15
control_change channel=0 control=64 value=103 time=16
note_on channel=0 note=31 velocity=0 time=6
control_change channel=0 control=64 value=100 time=9
note_on channel=0 note=30 velocity=40 time=13
control_change channel=0 control=64 value=97 time=2
note_on channel=0 note=42 velocity=36 time=7
control_change channel=0 control=64 value=92 time=9
control_change channel=0 control=64 value=86 time=14
control_change channel=0 control=64 value=80 time=16
control_change channel=0 control=64 value=73 time=15
control_change channel=0 control=64 value=65 time=14
control_change channel=0 control=64 value=54 time=16
control_change channel=0 control=64 value=28 time=15
control_change channel=0 control=64 value=0 time=15
control_change channel=0 control=64 value=14 time=92
control_change channel=0 control=64 value=23 time=14
control_change channel=0 control=64 value=30 time=15
control_change channel=0 control=64 value=36 time=16
control_change channel=0 control=64 value=42 time=15
control_change channel=0 control=64 value=47 time=15
control_change channel=0 control=64 value=53 time=15
control_change channel=0 control=64 value=57 time=15
control_change channel=0 control=64 value=61 time=16
control_change channel=0 control=64 value=64 time=15
control_change channel=0 control=64 value=65 time=23
control_change channel=0 control=64 value=68 time=15
control_change channel=0 control=64 value=70 time=15
control_change channel=0 control=64 value=71 time=16
control_change channel=0 control=64 value=73 time=15
control_change channel=0 control=64 value=74 time=15
control_change channel=0 control=64 value=76 time=15
control_change channel=0 control=64 value=79 time=15
control_change channel=0 control=64 value=81 time=15
control_change channel=0 control=64 value=83 time=15
control_change channel=0 control=64 value=85 time=15
control_change channel=0 control=64 value=88 time=16
control_change channel=0 control=64 value=90 time=15
control_change channel=0 control=64 value=93 time=16
control_change channel=0 control=64 value=95 time=14
control_change channel=0 control=64 value=98 time=15
control_change channel=0 control=64 value=101 time=16
control_change channel=0 control=64 value=103 time=15
control_change channel=0 control=64 value=106 time=16
control_change channel=0 control=64 value=109 time=15
control_change channel=0 control=64 value=112 time=15
control_change channel=0 control=64 value=115 time=16
control_change channel=0 control=64 value=119 time=15
control_change channel=0 control=64 value=122 time=15
control_change channel=0 control=64 value=127 time=15
note_on channel=0 note=42 velocity=0 time=186
note_on channel=0 note=30 velocity=0 time=771
control_change channel=0 control=64 value=119 time=146
control_change channel=0 control=64 value=115 time=15
control_change channel=0 control=64 value=110 time=15
control_change channel=0 control=64 value=106 time=16
control_change channel=0 control=64 value=102 time=22
control_change channel=0 control=64 value=96 time=15
control_change channel=0 control=64 value=89 time=16
note_on channel=0 note=41 velocity=36 time=6
control_change channel=0 control=64 value=81 time=9
note_on channel=0 note=29 velocity=32 time=8
control_change channel=0 control=64 value=69 time=8
control_change channel=0 control=64 value=53 time=14
control_change channel=0 control=64 value=0 time=15
control_change channel=0 control=64 value=28 time=106
control_change channel=0 control=64 value=41 time=15
control_change channel=0 control=64 value=51 time=16
control_change channel=0 control=64 value=60 time=15
control_change channel=0 control=64 value=64 time=16
control_change channel=0 control=64 value=65 time=14
control_change channel=0 control=64 value=67 time=15
control_change channel=0 control=64 value=69 time=16
control_change channel=0 control=64 value=71 time=15
control_change channel=0 control=64 value=73 time=15
control_change channel=0 control=64 value=76 time=15
control_change channel=0 control=64 value=79 time=15
control_change channel=0 control=64 value=83 time=16
control_change channel=0 control=64 value=86 time=15
control_change channel=0 control=64 value=88 time=15
control_change channel=0 control=64 value=91 time=16
control_change channel=0 control=64 value=95 time=15
control_change channel=0 control=64 value=98 time=15
control_change channel=0 control=64 value=102 time=16
control_change channel=0 control=64 value=106 time=15
control_change channel=0 control=64 value=111 time=15
control_change channel=0 control=64 value=119 time=15
control_change channel=0 control=64 value=127 time=15
note_on channel=0 note=29 velocity=0 time=64
note_on channel=0 note=53 velocity=42 time=1469
note_on channel=0 note=41 velocity=0 time=865
note_on channel=0 note=53 velocity=0 time=204
note_on channel=0 note=42 velocity=42 time=1347
note_on channel=0 note=54 velocity=41 time=3
control_change channel=0 control=64 value=115 time=25
control_change channel=0 control=64 value=106 time=16
control_change channel=0 control=64 value=96 time=16
control_change channel=0 control=64 value=90 time=15
control_change channel=0 control=64 value=84 time=14
control_change channel=0 control=64 value=78 time=16
control_change channel=0 control=64 value=72 time=22
control_change channel=0 control=64 value=64 time=16
control_change channel=0 control=64 value=40 time=15
control_change channel=0 control=64 value=0 time=14
control_change channel=0 control=64 value=23 time=93
control_change channel=0 control=64 value=33 time=14
control_change channel=0 control=64 value=40 time=15
control_change channel=0 control=64 value=46 time=16
control_change channel=0 control=64 value=50 time=15
control_change channel=0 control=64 value=54 time=16
control_change channel=0 control=64 value=59 time=15
control_change channel=0 control=64 value=62 time=14
control_change channel=0 control=64 value=64 time=16
control_change channel=0 control=64 value=65 time=15
control_change channel=0 control=64 value=66 time=15
control_change channel=0 control=64 value=68 time=15
control_change channel=0 control=64 value=70 time=15
control_change channel=0 control=64 value=71 time=16
control_change channel=0 control=64 value=73 time=15
control_change channel=0 control=64 value=74 time=15
control_change channel=0 control=64 value=75 time=15
control_change channel=0 control=64 value=77 time=15
control_change channel=0 control=64 value=78 time=16
control_change channel=0 control=64 value=80 time=15
control_change channel=0 control=64 value=81 time=15
control_change channel=0 control=64 value=82 time=15
control_change channel=0 control=64 value=84 time=15
control_change channel=0 control=64 value=85 time=15
control_change channel=0 control=64 value=87 time=15
control_change channel=0 control=64 value=89 time=15
control_change channel=0 control=64 value=90 time=16
control_change channel=0 control=64 value=92 time=15
control_change channel=0 control=64 value=94 time=15
control_change channel=0 control=64 value=95 time=16
control_change channel=0 control=64 value=97 time=15
control_change channel=0 control=64 value=99 time=15
control_change channel=0 control=64 value=101 time=16
control_change channel=0 control=64 value=104 time=14
control_change channel=0 control=64 value=106 time=16
control_change channel=0 control=64 value=108 time=15
control_change channel=0 control=64 value=111 time=15
control_change channel=0 control=64 value=113 time=15
control_change channel=0 control=64 value=115 time=15
control_change channel=0 control=64 value=117 time=17
control_change channel=0 control=64 value=119 time=15
control_change channel=0 control=64 value=122 time=22
control_change channel=0 control=64 value=123 time=16
control_change channel=0 control=64 value=124 time=15
note_on channel=0 note=51 velocity=38 time=28
note_on channel=0 note=47 velocity=33 time=13
control_change channel=0 control=64 value=126 time=20
control_change channel=0 control=64 value=127 time=60
note_on channel=0 note=42 velocity=0 time=278
note_on channel=0 note=66 velocity=39 time=128
note_on channel=0 note=63 velocity=20 time=27
note_on channel=0 note=47 velocity=0 time=40
control_change channel=0 control=67 value=127 time=14
control_change channel=0 control=67 value=126 time=30
control_change channel=0 control=67 value=126 time=30
control_change channel=0 control=67 value=125 time=15
note_on channel=0 note=51 velocity=0 time=14
control_change channel=0 control=67 value=124 time=2
control_change channel=0 control=67 value=123 time=15
control_change channel=0 control=67 value=123 time=40
note_on channel=0 note=54 velocity=0 time=12
control_change channel=0 control=67 value=122 time=33
note_on channel=0 note=71 velocity=44 time=227
note_on channel=0 note=66 velocity=0 time=236
control_change channel=0 control=67 value=123 time=129
note_on channel=0 note=52 velocity=34 time=16
note_on channel=0 note=63 velocity=0 time=13
control_change channel=0 control=64 value=124 time=2
control_change channel=0 control=64 value=120 time=15
control_change channel=0 control=64 value=117 time=16
control_change channel=0 control=64 value=113 time=14
control_change channel=0 control=64 value=110 time=15
control_change channel=0 control=64 value=106 time=24
control_change channel=0 control=64 value=103 time=14
control_change channel=0 control=64 value=102 time=16
control_change channel=0 control=64 value=101 time=15
control_change channel=0 control=64 value=100 time=15
control_change channel=0 control=64 value=97 time=17
control_change channel=0 control=64 value=93 time=14
control_change channel=0 control=64 value=86 time=16
control_change channel=0 control=64 value=77 time=15
control_change channel=0 control=64 value=67 time=15
control_change channel=0 control=64 value=63 time=16
control_change channel=0 control=64 value=65 time=15
control_change channel=0 control=67 value=123 time=0
control_change channel=0 control=64 value=65 time=15
control_change channel=0 control=64 value=66 time=15
control_change channel=0 control=64 value=66 time=15
control_change channel=0 control=64 value=67 time=16
control_change channel=0 control=64 value=69 time=14
control_change channel=0 control=64 value=72 time=15
control_change channel=0 control=64 value=73 time=16
control_change channel=0 control=64 value=74 time=15
control_change channel=0 control=64 value=75 time=15
control_change channel=0 control=64 value=77 time=16
control_change channel=0 control=64 value=80 time=14
control_change channel=0 control=64 value=82 time=16
control_change channel=0 control=64 value=84 time=15
control_change channel=0 control=64 value=86 time=15
control_change channel=0 control=64 value=88 time=16
note_on channel=0 note=61 velocity=32 time=1
control_change channel=0 control=64 value=91 time=13
control_change channel=0 control=64 value=93 time=16
control_change channel=0 control=64 value=94 time=15
control_change channel=0 control=64 value=96 time=14
control_change channel=0 control=64 value=99 time=16
control_change channel=0 control=64 value=101 time=15
control_change channel=0 control=64 value=104 time=15
control_change channel=0 control=64 value=107 time=16
control_change channel=0 control=64 value=110 time=15
control_change channel=0 control=64 value=114 time=16
control_change channel=0 control=64 value=118 time=14
control_change channel=0 control=64 value=126 time=15
control_change channel=0 control=64 value=127 time=16
control_change channel=0 control=67 value=123 time=15
note_on channel=0 note=71 velocity=0 time=75
note_on channel=0 note=70 velocity=44 time=35
note_on channel=0 note=61 velocity=0 time=4
note_on channel=0 note=52 velocity=0 time=128
control_change channel=0 control=67 value=122 time=54
control_change channel=0 control=67 value=122 time=47
control_change channel=0 control=67 value=121 time=30
control_change channel=0 control=67 value=121 time=47
note_on channel=0 note=73 velocity=52 time=51
note_on channel=0 note=70 velocity=0 time=33
control_change channel=0 control=67 value=120 time=21
note_on channel=0 note=73 velocity=0 time=28
control_change channel=0 control=67 value=120 time=17
control_change channel=0 control=67 value=118 time=16
control_change channel=0 control=67 value=117 time=15
control_change channel=0 control=67 value=117 time=14
control_change channel=0 control=67 value=116 time=16
control_change channel=0 control=67 value=116 time=31
control_change channel=0 control=67 value=115 time=15
control_change channel=0 control=67 value=115 time=30
control_change channel=0 control=67 value=114 time=15
control_change channel=0 control=67 value=114 time=16
control_change channel=0 control=67 value=113 time=15
control_change channel=0 control=67 value=112 time=14
control_change channel=0 control=67 value=111 time=16
control_change channel=0 control=67 value=110 time=15
note_on channel=0 note=35 velocity=27 time=6
note_on channel=0 note=47 velocity=29 time=3
note_on channel=0 note=54 velocity=40 time=0
control_change channel=0 control=67 value=109 time=5
control_change channel=0 control=67 value=107 time=16
control_change channel=0 control=67 value=106 time=15
control_change channel=0 control=67 value=105 time=16
control_change channel=0 control=67 value=104 time=29
control_change channel=0 control=67 value=104 time=16
control_change channel=0 control=67 value=103 time=22
control_change channel=0 control=67 value=102 time=16
control_change channel=0 control=67 value=101 time=15
control_change channel=0 control=67 value=99 time=15
control_change channel=0 control=67 value=97 time=16
control_change channel=0 control=67 value=94 time=15
control_change channel=0 control=67 value=91 time=16
control_change channel=0 control=67 value=88 time=14
control_change channel=0 control=67 value=86 time=15
control_change channel=0 control=67 value=84 time=16
control_change channel=0 control=67 value=81 time=15
control_change channel=0 control=67 value=79 time=15
note_on channel=0 note=54 velocity=0 time=10
control_change channel=0 control=67 value=77 time=6
control_change channel=0 control=67 value=75 time=15
control_change channel=0 control=67 value=73 time=16
control_change channel=0 control=67 value=71 time=15
note_on channel=0 note=63 velocity=41 time=7
control_change channel=0 control=67 value=69 time=8
control_change channel=0 control=67 value=68 time=16
control_change channel=0 control=67 value=66 time=14
note_on channel=0 note=63 velocity=0 time=5
control_change channel=0 control=67 value=65 time=10
control_change channel=0 control=67 value=63 time=16
control_change channel=0 control=67 value=61 time=14
control_change channel=0 control=67 value=60 time=16
note_on channel=0 note=35 velocity=0 time=7
control_change channel=0 control=67 value=58 time=8
control_change channel=0 control=67 value=57 time=15
control_change channel=0 control=67 value=56 time=16
control_change channel=0 control=67 value=56 time=14
control_change channel=0 control=67 value=55 time=16
control_change channel=0 control=67 value=55 time=15
control_change channel=0 control=67 value=54 time=15
control_change channel=0 control=67 value=54 time=16
control_change channel=0 control=67 value=53 time=14
control_change channel=0 control=67 value=52 time=15
note_on channel=0 note=47 velocity=0 time=5
control_change channel=0 control=67 value=50 time=11
control_change channel=0 control=67 value=48 time=15
control_change channel=0 control=67 value=46 time=15
note_on channel=0 note=71 velocity=62 time=1
control_change channel=0 control=67 value=44 time=14
control_change channel=0 control=67 value=42 time=15
control_change channel=0 control=67 value=40 time=16
control_change channel=0 control=67 value=38 time=15
control_change channel=0 control=67 value=35 time=15
control_change channel=0 control=67 value=32 time=16
control_change channel=0 control=67 value=30 time=14
control_change channel=0 control=67 value=29 time=16
control_change channel=0 control=67 value=27 time=15
control_change channel=0 control=67 value=25 time=15
control_change channel=0 control=67 value=23 time=16
control_change channel=0 control=67 value=21 time=15
control_change channel=0 control=67 value=19 time=14
control_change channel=0 control=67 value=16 time=16
control_change channel=0 control=67 value=13 time=22
control_change channel=0 control=67 value=11 time=16
control_change channel=0 control=67 value=8 time=15
control_change channel=0 control=67 value=0 time=15
note_on channel=0 note=75 velocity=63 time=155
control_change channel=0 control=64 value=126 time=28
note_on channel=0 note=71 velocity=0 time=2
control_change channel=0 control=64 value=101 time=14
control_change channel=0 control=64 value=88 time=15
control_change channel=0 control=64 value=85 time=15
control_change channel=0 control=64 value=86 time=16
control_change channel=0 control=64 value=89 time=15
note_on channel=0 note=49 velocity=52 time=10
control_change channel=0 control=64 value=93 time=5
note_on channel=0 note=37 velocity=45 time=4
control_change channel=0 control=64 value=98 time=12
control_change channel=0 control=64 value=106 time=14
control_change channel=0 control=64 value=115 time=16
control_change channel=0 control=64 value=127 time=15
note_on channel=0 note=37 velocity=0 time=18
note_on channel=0 note=49 velocity=0 time=37
note_on channel=0 note=59 velocity=56 time=165
note_on channel=0 note=65 velocity=54 time=415
note_on channel=0 note=75 velocity=0 time=476
note_on channel=0 note=73 velocity=59 time=19
note_on channel=0 note=65 velocity=0 time=111
note_on channel=0 note=59 velocity=0 time=133
note_on channel=0 note=73 velocity=0 time=551
note_on channel=0 note=83 velocity=65 time=1
control_change channel=0 control=67 value=8 time=437
note_on channel=0 note=30 velocity=40 time=9
control_change channel=0 control=67 value=9 time=6
control_change channel=0 control=67 value=11 time=16
control_change channel=0 control=64 value=115 time=15
control_change channel=0 control=67 value=13 time=0
control_change channel=0 control=64 value=103 time=16
control_change channel=0 control=67 value=15 time=0
control_change channel=0 control=64 value=92 time=15
control_change channel=0 control=67 value=16 time=0
control_change channel=0 control=64 value=78 time=15
control_change channel=0 control=67 value=18 time=0
control_change channel=0 control=64 value=67 time=16
control_change channel=0 control=67 value=19 time=0
control_change channel=0 control=64 value=63 time=14
control_change channel=0 control=67 value=20 time=0
control_change channel=0 control=64 value=65 time=15
control_change channel=0 control=67 value=21 time=0
control_change channel=0 control=64 value=67 time=16
control_change channel=0 control=67 value=21 time=0
control_change channel=0 control=64 value=68 time=15
control_change channel=0 control=64 value=71 time=16
control_change channel=0 control=67 value=22 time=0
control_change channel=0 control=64 value=76 time=14
control_change channel=0 control=64 value=81 time=15
control_change channel=0 control=64 value=85 time=16
control_change channel=0 control=64 value=89 time=14
control_change channel=0 control=64 value=93 time=16
control_change channel=0 control=67 value=22 time=0
control_change channel=0 control=64 value=98 time=15
control_change channel=0 control=64 value=102 time=15
control_change channel=0 control=64 value=106 time=16
note_on channel=0 note=42 velocity=46 time=19
control_change channel=0 control=64 value=110 time=3
note_on channel=0 note=30 velocity=0 time=3
control_change channel=0 control=64 value=116 time=13
control_change channel=0 control=64 value=127 time=15
note_on channel=0 note=42 velocity=0 time=34
note_on channel=0 note=82 velocity=70 time=64
note_on channel=0 note=83 velocity=0 time=7
control_change channel=0 control=67 value=23 time=92
note_on channel=0 note=46 velocity=49 time=80
note_on channel=0 note=49 velocity=49 time=172
note_on channel=0 note=46 velocity=0 time=3
note_on channel=0 note=49 velocity=0 time=110
note_on channel=0 note=78 velocity=62 time=9
note_on channel=0 note=82 velocity=0 time=3
note_on channel=0 note=54 velocity=47 time=8
note_on channel=0 note=54 velocity=0 time=106
note_on channel=0 note=58 velocity=51 time=46
note_on channel=0 note=58 velocity=0 time=68
note_on channel=0 note=78 velocity=0 time=22
note_on channel=0 note=80 velocity=63 time=15
note_on channel=0 note=61 velocity=48 time=77
note_on channel=0 note=80 velocity=0 time=136
note_on channel=0 note=66 velocity=49 time=5
note_on channel=0 note=78 velocity=58 time=11
note_on channel=0 note=78 velocity=0 time=153
note_on channel=0 note=70 velocity=49 time=17
note_on channel=0 note=80 velocity=59 time=6
note_on channel=0 note=80 velocity=0 time=126
note_on channel=0 note=78 velocity=58 time=27
note_on channel=0 note=78 velocity=0 time=107
note_on channel=0 note=80 velocity=59 time=25
note_on channel=0 note=61 velocity=0 time=7
note_on channel=0 note=80 velocity=0 time=74
note_on channel=0 note=78 velocity=55 time=35
note_on channel=0 note=78 velocity=0 time=76
note_on channel=0 note=80 velocity=61 time=23
note_on channel=0 note=80 velocity=0 time=70
note_on channel=0 note=78 velocity=59 time=36
note_on channel=0 note=70 velocity=0 time=48
note_on channel=0 note=66 velocity=0 time=7
note_on channel=0 note=78 velocity=0 time=18
note_on channel=0 note=80 velocity=64 time=21
control_change channel=0 control=67 value=22 time=63
note_on channel=0 note=80 velocity=0 time=5
control_change channel=0 control=67 value=22 time=11
control_change channel=0 control=67 value=21 time=16
note_on channel=0 note=78 velocity=59 time=5
control_change channel=0 control=67 value=21 time=10
control_change channel=0 control=67 value=20 time=16
control_change channel=0 control=67 value=19 time=14
note_on channel=0 note=78 velocity=0 time=20
control_change channel=0 control=67 value=19 time=11
note_on channel=0 note=80 velocity=66 time=13
control_change channel=0 control=67 value=18 time=1
control_change channel=0 control=67 value=17 time=16
control_change channel=0 control=67 value=16 time=14
control_change channel=0 control=67 value=15 time=15
note_on channel=0 note=80 velocity=0 time=1
control_change channel=0 control=67 value=14 time=15
control_change channel=0 control=67 value=13 time=14
note_on channel=0 note=78 velocity=62 time=14
control_change channel=0 control=67 value=13 time=1
control_change channel=0 control=67 value=12 time=16
control_change channel=0 control=67 value=12 time=15
note_on channel=0 note=78 velocity=0 time=1
control_change channel=0 control=67 value=11 time=23
control_change channel=0 control=67 value=10 time=14
note_on channel=0 note=80 velocity=68 time=11
control_change channel=0 control=67 value=10 time=5
control_change channel=0 control=67 value=9 time=15
control_change channel=0 control=67 value=8 time=15
note_on channel=0 note=80 velocity=0 time=5
control_change channel=0 control=67 value=8 time=10
control_change channel=0 control=67 value=0 time=15
note_on channel=0 note=78 velocity=62 time=21
note_on channel=0 note=78 velocity=0 time=42
note_on channel=0 note=80 velocity=62 time=29
note_on channel=0 note=80 velocity=0 time=40
note_on channel=0 note=78 velocity=67 time=37
note_on channel=0 note=78 velocity=0 time=32
note_on channel=0 note=80 velocity=59 time=50
note_on channel=0 note=80 velocity=0 time=32
note_on channel=0 note=78 velocity=63 time=30
note_on channel=0 note=78 velocity=0 time=29
note_on channel=0 note=80 velocity=57 time=40
note_on channel=0 note=80 velocity=0 time=35
note_on channel=0 note=78 velocity=55 time=34
note_on channel=0 note=78 velocity=0 time=22
note_on channel=0 note=80 velocity=59 time=49
note_on channel=0 note=80 velocity=0 time=23
note_on channel=0 note=78 velocity=50 time=27
note_on channel=0 note=78 velocity=0 time=25
note_on channel=0 note=80 velocity=68 time=21
note_on channel=0 note=80 velocity=0 time=35
note_on channel=0 note=78 velocity=61 time=33
note_on channel=0 note=78 velocity=0 time=29
note_on channel=0 note=80 velocity=54 time=35
note_on channel=0 note=80 velocity=0 time=19
note_on channel=0 note=78 velocity=58 time=26
control_change channel=0 control=67 value=8 time=4
note_on channel=0 note=78 velocity=0 time=16
note_on channel=0 note=80 velocity=43 time=45
note_on channel=0 note=80 velocity=0 time=27
note_on channel=0 note=78 velocity=68 time=1
control_change channel=0 control=67 value=8 time=2
note_on channel=0 note=78 velocity=0 time=27
control_change channel=0 control=67 value=9 time=3
note_on channel=0 note=80 velocity=48 time=29
control_change channel=0 control=67 value=9 time=2
note_on channel=0 note=80 velocity=0 time=23
control_change channel=0 control=67 value=10 time=7
control_change channel=0 control=67 value=10 time=15
note_on channel=0 note=78 velocity=60 time=4
control_change channel=0 control=67 value=11 time=11
note_on channel=0 note=78 velocity=0 time=10
note_on channel=0 note=80 velocity=57 time=29
control_change channel=0 control=67 value=11 time=8
note_on channel=0 note=80 velocity=0 time=24
note_on channel=0 note=78 velocity=68 time=9
control_change channel=0 control=67 value=12 time=27
note_on channel=0 note=78 velocity=0 time=6
control_change channel=0 control=67 value=12 time=25
note_on channel=0 note=80 velocity=66 time=2
control_change channel=0 control=67 value=13 time=28
note_on channel=0 note=80 velocity=0 time=10
control_change channel=0 control=67 value=13 time=20
note_on channel=0 note=78 velocity=57 time=1
control_change channel=0 control=67 value=14 time=15
note_on channel=0 note=78 velocity=0 time=7
control_change channel=0 control=67 value=14 time=7
note_on channel=0 note=80 velocity=61 time=14
control_change channel=0 control=67 value=15 time=1
control_change channel=0 control=67 value=16 time=31
note_on channel=0 note=80 velocity=0 time=15
control_change channel=0 control=67 value=16 time=2
note_on channel=0 note=78 velocity=62 time=3
note_on channel=0 note=78 velocity=0 time=34
note_on channel=0 note=80 velocity=52 time=16
note_on channel=0 note=80 velocity=0 time=52
note_on channel=0 note=78 velocity=46 time=32
note_on channel=0 note=78 velocity=0 time=25
note_on channel=0 note=80 velocity=51 time=12
note_on channel=0 note=80 velocity=0 time=37
control_change channel=0 control=67 value=17 time=9
note_on channel=0 note=78 velocity=53 time=19
note_on channel=0 note=78 velocity=0 time=22
note_on channel=0 note=80 velocity=55 time=24
note_on channel=0 note=80 velocity=0 time=32
note_on channel=0 note=78 velocity=67 time=11
note_on channel=0 note=78 velocity=0 time=33
note_on channel=0 note=80 velocity=57 time=30
note_on channel=0 note=80 velocity=0 time=32
note_on channel=0 note=78 velocity=59 time=19
note_on channel=0 note=78 velocity=0 time=25
note_on channel=0 note=80 velocity=52 time=27
note_on channel=0 note=80 velocity=0 time=39
note_on channel=0 note=78 velocity=62 time=5
note_on channel=0 note=78 velocity=0 time=41
note_on channel=0 note=80 velocity=55 time=23
note_on channel=0 note=80 velocity=0 time=41
note_on channel=0 note=78 velocity=54 time=11
note_on channel=0 note=78 velocity=0 time=52
note_on channel=0 note=80 velocity=49 time=16
note_on channel=0 note=80 velocity=0 time=41
note_on channel=0 note=78 velocity=48 time=13
note_on channel=0 note=70 velocity=66 time=12
note_on channel=0 note=78 velocity=0 time=40
control_change channel=0 control=67 value=17 time=16
note_on channel=0 note=80 velocity=53 time=10
note_on channel=0 note=80 velocity=0 time=37
control_change channel=0 control=67 value=18 time=21
note_on channel=0 note=78 velocity=52 time=13
control_change channel=0 control=67 value=19 time=17
control_change channel=0 control=67 value=19 time=16
note_on channel=0 note=78 velocity=0 time=2
control_change channel=0 control=67 value=21 time=28
note_on channel=0 note=80 velocity=58 time=1
control_change channel=0 control=67 value=22 time=15
control_change channel=0 control=67 value=24 time=14
note_on channel=0 note=80 velocity=0 time=4
note_on channel=0 note=70 velocity=0 time=5
control_change channel=0 control=67 value=25 time=6
control_change channel=0 control=67 value=27 time=16
note_on channel=0 note=78 velocity=58 time=0
control_change channel=0 control=67 value=29 time=15
control_change channel=0 control=67 value=31 time=16
note_on channel=0 note=78 velocity=0 time=5
control_change channel=0 control=67 value=34 time=10
note_on channel=0 note=80 velocity=56 time=13
control_change channel=0 control=67 value=37 time=1
control_change channel=0 control=67 value=41 time=16
control_change channel=0 control=67 value=45 time=15
note_on channel=0 note=80 velocity=0 time=4
control_change channel=0 control=67 value=49 time=12
control_change channel=0 control=67 value=52 time=15
note_on channel=0 note=78 velocity=52 time=6
control_change channel=0 control=67 value=54 time=9
control_change channel=0 control=67 value=57 time=16
note_on channel=0 note=78 velocity=0 time=4
control_change channel=0 control=67 value=59 time=10
control_change channel=0 control=67 value=60 time=15
note_on channel=0 note=80 velocity=51 time=13
control_change channel=0 control=67 value=61 time=3
control_change channel=0 control=67 value=62 time=15
note_on channel=0 note=80 velocity=0 time=23
note_on channel=0 note=78 velocity=57 time=5
note_on channel=0 note=78 velocity=0 time=89
note_on channel=0 note=76 velocity=65 time=31
control_change channel=0 control=64 value=108 time=34
control_change channel=0 control=64 value=80 time=15
note_on channel=0 note=30 velocity=46 time=10
control_change channel=0 control=64 value=61 time=6
control_change channel=0 control=64 value=43 time=14
control_change channel=0 control=64 value=59 time=15
control_change channel=0 control=67 value=61 time=0
note_on channel=0 note=78 velocity=41 time=15
control_change channel=0 control=64 value=63 time=1
control_change channel=0 control=67 value=61 time=0
control_change channel=0 control=64 value=65 time=15
control_change channel=0 control=67 value=60 time=0
note_on channel=0 note=78 velocity=0 time=10
control_change channel=0 control=64 value=70 time=5
note_on channel=0 note=30 velocity=0 time=2
control_change channel=0 control=64 value=75 time=14
control_change channel=0 control=67 value=59 time=0
note_on channel=0 note=80 velocity=46 time=7
note_on channel=0 note=42 velocity=36 time=4
control_change channel=0 control=64 value=80 time=3
control_change channel=0 control=67 value=58 time=0
control_change channel=0 control=64 value=84 time=16
control_change channel=0 control=67 value=58 time=0
note_on channel=0 note=80 velocity=0 time=7
control_change channel=0 control=64 value=88 time=8
control_change channel=0 control=67 value=57 time=0
note_on channel=0 note=42 velocity=0 time=2
control_change channel=0 control=64 value=92 time=13
control_change channel=0 control=67 value=57 time=0
note_on channel=0 note=78 velocity=55 time=1
control_change channel=0 control=64 value=94 time=15
note_on channel=0 note=78 velocity=0 time=12
control_change channel=0 control=64 value=96 time=3
control_change channel=0 control=67 value=56 time=0
control_change channel=0 control=64 value=97 time=24
control_change channel=0 control=67 value=56 time=0
note_on channel=0 note=80 velocity=63 time=13
control_change channel=0 control=64 value=99 time=2
control_change channel=0 control=64 value=101 time=15
control_change channel=0 control=64 value=103 time=15
note_on channel=0 note=47 velocity=44 time=11
control_change channel=0 control=64 value=104 time=4
note_on channel=0 note=80 velocity=0 time=3
control_change channel=0 control=64 value=105 time=13
note_on channel=0 note=78 velocity=48 time=6
control_change channel=0 control=64 value=107 time=9
control_change channel=0 control=67 value=55 time=0
note_on channel=0 note=78 velocity=0 time=13
control_change channel=0 control=64 value=110 time=1
control_change channel=0 control=67 value=55 time=0
control_change channel=0 control=64 value=113 time=16
control_change channel=0 control=67 value=54 time=0
note_on channel=0 note=51 velocity=48 time=7
note_on channel=0 note=80 velocity=49 time=2
control_change channel=0 control=64 value=116 time=6
control_change channel=0 control=67 value=54 time=0
control_change channel=0 control=64 value=119 time=15
control_change channel=0 control=67 value=53 time=0
note_on channel=0 note=47 velocity=0 time=10
control_change channel=0 control=64 value=123 time=6
control_change channel=0 control=67 value=53 time=0
note_on channel=0 note=80 velocity=0 time=0
note_on channel=0 note=78 velocity=67 time=8
control_change channel=0 control=64 value=127 time=6
control_change channel=0 control=67 value=52 time=0
control_change channel=0 control=67 value=51 time=16
note_on channel=0 note=54 velocity=52 time=1
note_on channel=0 note=78 velocity=0 time=8
control_change channel=0 control=67 value=50 time=6
note_on channel=0 note=51 velocity=0 time=0
control_change channel=0 control=67 value=50 time=15
note_on channel=0 note=54 velocity=0 time=4
control_change channel=0 control=67 value=49 time=12
note_on channel=0 note=80 velocity=61 time=1
control_change channel=0 control=67 value=49 time=13
note_on channel=0 note=59 velocity=56 time=3
note_on channel=0 note=80 velocity=0 time=18
control_change channel=0 control=67 value=48 time=10
note_on channel=0 note=59 velocity=0 time=11
control_change channel=0 control=67 value=48 time=4
note_on channel=0 note=78 velocity=57 time=0
note_on channel=0 note=76 velocity=0 time=6
note_on channel=0 note=78 velocity=0 time=16
control_change channel=0 control=67 value=47 time=9
note_on channel=0 note=76 velocity=19 time=0
note_on channel=0 note=63 velocity=51 time=32
control_change channel=0 control=67 value=47 time=13
control_change channel=0 control=67 value=46 time=31
note_on channel=0 note=76 velocity=0 time=68
control_change channel=0 control=64 value=118 time=8
control_change channel=0 control=67 value=47 time=0
control_change channel=0 control=64 value=106 time=14
note_on channel=0 note=75 velocity=62 time=5
note_on channel=0 note=66 velocity=51 time=6
note_on channel=0 note=78 velocity=66 time=1
control_change channel=0 control=64 value=96 time=4
control_change channel=0 control=64 value=93 time=15
control_change channel=0 control=67 value=46 time=31
control_change channel=0 control=64 value=94 time=45
control_change channel=0 control=64 value=96 time=14
control_change channel=0 control=67 value=46 time=0
control_change channel=0 control=64 value=97 time=16
control_change channel=0 control=67 value=45 time=0
control_change channel=0 control=64 value=98 time=15
control_change channel=0 control=64 value=99 time=15
control_change channel=0 control=67 value=45 time=0
control_change channel=0 control=64 value=99 time=16
control_change channel=0 control=67 value=43 time=0
control_change channel=0 control=64 value=100 time=14
control_change channel=0 control=67 value=40 time=0
control_change channel=0 control=64 value=102 time=15
control_change channel=0 control=67 value=37 time=0
control_change channel=0 control=64 value=104 time=16
control_change channel=0 control=67 value=35 time=0
control_change channel=0 control=64 value=105 time=15
control_change channel=0 control=67 value=33 time=0
control_change channel=0 control=64 value=105 time=24
control_change channel=0 control=67 value=32 time=0
control_change channel=0 control=67 value=30 time=16
control_change channel=0 control=67 value=29 time=16
note_on channel=0 note=71 velocity=50 time=12
control_change channel=0 control=64 value=106 time=2
control_change channel=0 control=67 value=28 time=0
note_on channel=0 note=75 velocity=0 time=12
control_change channel=0 control=64 value=107 time=3
control_change channel=0 control=67 value=27 time=0
control_change channel=0 control=64 value=108 time=16
control_change channel=0 control=67 value=26 time=0
control_change channel=0 control=64 value=108 time=15
control_change channel=0 control=67 value=26 time=0
control_change channel=0 control=67 value=25 time=16
control_change channel=0 control=64 value=109 time=14
control_change channel=0 control=67 value=25 time=0
control_change channel=0 control=64 value=111 time=15
control_change channel=0 control=67 value=24 time=0
control_change channel=0 control=64 value=113 time=16
control_change channel=0 control=64 value=113 time=15
control_change channel=0 control=67 value=24 time=0
control_change channel=0 control=64 value=114 time=14
control_change channel=0 control=67 value=23 time=0
note_on channel=0 note=71 velocity=0 time=12
control_change channel=0 control=67 value=23 time=4
control_change channel=0 control=64 value=114 time=15
note_on channel=0 note=73 velocity=50 time=14
control_change channel=0 control=67 value=22 time=2
control_change channel=0 control=64 value=115 time=14
control_change channel=0 control=67 value=22 time=0
control_change channel=0 control=64 value=116 time=31
note_on channel=0 note=78 velocity=0 time=5
control_change channel=0 control=67 value=21 time=22
note_on channel=0 note=73 velocity=0 time=25
note_on channel=0 note=71 velocity=47 time=46
control_change channel=0 control=67 value=21 time=22
note_on channel=0 note=71 velocity=0 time=57
note_on channel=0 note=73 velocity=45 time=49
note_on channel=0 note=73 velocity=0 time=67
note_on channel=0 note=71 velocity=46 time=55
note_on channel=0 note=71 velocity=0 time=46
note_on channel=0 note=73 velocity=45 time=56
note_on channel=0 note=73 velocity=0 time=59
note_on channel=0 note=71 velocity=48 time=60
note_on channel=0 note=71 velocity=0 time=27
note_on channel=0 note=73 velocity=46 time=58
note_on channel=0 note=73 velocity=0 time=43
control_change channel=0 control=64 value=116 time=8
note_on channel=0 note=71 velocity=44 time=45
note_on channel=0 note=66 velocity=0 time=26
note_on channel=0 note=71 velocity=0 time=4
note_on channel=0 note=73 velocity=45 time=54
note_on channel=0 note=73 velocity=0 time=34
control_change channel=0 control=64 value=117 time=19
control_change channel=0 control=67 value=20 time=30
note_on channel=0 note=71 velocity=48 time=0
note_on channel=0 note=63 velocity=0 time=12
note_on channel=0 note=71 velocity=0 time=16
control_change channel=0 control=64 value=117 time=33
note_on channel=0 note=73 velocity=51 time=17
note_on channel=0 note=73 velocity=0 time=29
control_change channel=0 control=64 value=118 time=31
note_on channel=0 note=71 velocity=50 time=17
control_change channel=0 control=64 value=118 time=28
note_on channel=0 note=71 velocity=0 time=3
note_on channel=0 note=73 velocity=50 time=34
note_on channel=0 note=73 velocity=0 time=31
control_change channel=0 control=64 value=119 time=23
note_on channel=0 note=71 velocity=56 time=13
note_on channel=0 note=71 velocity=0 time=29
note_on channel=0 note=73 velocity=45 time=51
note_on channel=0 note=73 velocity=0 time=29
note_on channel=0 note=71 velocity=61 time=26
note_on channel=0 note=71 velocity=0 time=39
note_on channel=0 note=73 velocity=49 time=32
note_on channel=0 note=73 velocity=0 time=23
note_on channel=0 note=71 velocity=44 time=53
note_on channel=0 note=71 velocity=0 time=28
note_on channel=0 note=73 velocity=56 time=10
note_on channel=0 note=73 velocity=0 time=44
note_on channel=0 note=71 velocity=52 time=30
note_on channel=0 note=71 velocity=0 time=24
note_on channel=0 note=73 velocity=59 time=32
note_on channel=0 note=73 velocity=0 time=28
note_on channel=0 note=71 velocity=64 time=12
note_on channel=0 note=71 velocity=0 time=24
note_on channel=0 note=73 velocity=66 time=39
note_on channel=0 note=73 velocity=0 time=31
note_on channel=0 note=71 velocity=66 time=16
note_on channel=0 note=71 velocity=0 time=18
note_on channel=0 note=73 velocity=71 time=34
note_on channel=0 note=73 velocity=0 time=34
note_on channel=0 note=71 velocity=59 time=5
note_on channel=0 note=71 velocity=0 time=40
note_on channel=0 note=73 velocity=67 time=18
note_on channel=0 note=73 velocity=0 time=34
note_on channel=0 note=71 velocity=47 time=25
note_on channel=0 note=71 velocity=0 time=32
note_on channel=0 note=73 velocity=68 time=17
note_on channel=0 note=73 velocity=0 time=39
note_on channel=0 note=71 velocity=58 time=20
note_on channel=0 note=71 velocity=0 time=19
note_on channel=0 note=73 velocity=63 time=34
note_on channel=0 note=73 velocity=0 time=36
note_on channel=0 note=71 velocity=67 time=2
note_on channel=0 note=71 velocity=0 time=35
note_on channel=0 note=73 velocity=61 time=35
note_on channel=0 note=73 velocity=0 time=30
note_on channel=0 note=71 velocity=58 time=17
note_on channel=0 note=71 velocity=0 time=23
note_on channel=0 note=73 velocity=68 time=30
note_on channel=0 note=73 velocity=0 time=34
note_on channel=0 note=71 velocity=61 time=11
note_on channel=0 note=71 velocity=0 time=34
note_on channel=0 note=73 velocity=62 time=23
note_on channel=0 note=73 velocity=0 time=34
note_on channel=0 note=71 velocity=48 time=16
note_on channel=0 note=71 velocity=0 time=29
note_on channel=0 note=73 velocity=52 time=27
note_on channel=0 note=73 velocity=0 time=32
note_on channel=0 note=71 velocity=54 time=11
note_on channel=0 note=71 velocity=0 time=37
note_on channel=0 note=73 velocity=55 time=27
note_on channel=0 note=73 velocity=0 time=30
note_on channel=0 note=71 velocity=50 time=19
note_on channel=0 note=71 velocity=0 time=27
note_on channel=0 note=73 velocity=58 time=43
note_on channel=0 note=73 velocity=0 time=34
note_on channel=0 note=71 velocity=56 time=10
note_on channel=0 note=71 velocity=0 time=36
note_on channel=0 note=73 velocity=54 time=37
note_on channel=0 note=73 velocity=0 time=25
note_on channel=0 note=63 velocity=69 time=15
note_on channel=0 note=71 velocity=48 time=16
note_on channel=0 note=71 velocity=0 time=29
note_on channel=0 note=73 velocity=55 time=25
note_on channel=0 note=73 velocity=0 time=36
note_on channel=0 note=71 velocity=49 time=23
note_on channel=0 note=71 velocity=0 time=20
note_on channel=0 note=73 velocity=47 time=47
note_on channel=0 note=71 velocity=61 time=25
note_on channel=0 note=73 velocity=0 time=3
note_on channel=0 note=71 velocity=0 time=54
note_on channel=0 note=63 velocity=0 time=20
note_on channel=0 note=73 velocity=50 time=5
note_on channel=0 note=73 velocity=0 time=32
note_on channel=0 note=71 velocity=47 time=5
note_on channel=0 note=71 velocity=0 time=51
note_on channel=0 note=73 velocity=56 time=45
note_on channel=0 note=73 velocity=0 time=50
note_on channel=0 note=71 velocity=44 time=12
note_on channel=0 note=71 velocity=0 time=84
note_on channel=0 note=69 velocity=73 time=18
control_change channel=0 control=64 value=117 time=37
control_change channel=0 control=64 value=106 time=15
control_change channel=0 control=64 value=94 time=16
control_change channel=0 control=64 value=83 time=15
control_change channel=0 control=64 value=81 time=15
control_change channel=0 control=64 value=82 time=15
note_on channel=0 note=71 velocity=31 time=4
note_on channel=0 note=30 velocity=46 time=7
control_change channel=0 control=64 value=84 time=4
note_on channel=0 note=73 velocity=55 time=8
control_change channel=0 control=64 value=86 time=7
note_on channel=0 note=71 velocity=0 time=6
control_change channel=0 control=64 value=90 time=9
control_change channel=0 control=64 value=94 time=15
note_on channel=0 note=30 velocity=0 time=1
note_on channel=0 note=73 velocity=0 time=3
control_change channel=0 control=64 value=98 time=12
note_on channel=0 note=42 velocity=40 time=12
control_change channel=0 control=64 value=102 time=3
control_change channel=0 control=64 value=104 time=15
note_on channel=0 note=71 velocity=16 time=14
control_change channel=0 control=64 value=106 time=2
note_on channel=0 note=42 velocity=0 time=3
control_change channel=0 control=64 value=106 time=11
note_on channel=0 note=73 velocity=48 time=19
note_on channel=0 note=71 velocity=0 time=18
note_on channel=0 note=73 velocity=0 time=8
note_on channel=0 note=71 velocity=41 time=12
note_on channel=0 note=71 velocity=0 time=29
note_on channel=0 note=73 velocity=56 time=40
note_on channel=0 note=47 velocity=49 time=3
note_on channel=0 note=73 velocity=0 time=25
note_on channel=0 note=69 velocity=0 time=17
note_on channel=0 note=71 velocity=52 time=6
note_on channel=0 note=69 velocity=9 time=31
note_on channel=0 note=71 velocity=0 time=0
note_on channel=0 note=52 velocity=49 time=9
control_change channel=0 control=67 value=21 time=13
control_change channel=0 control=67 value=21 time=31
control_change channel=0 control=64 value=106 time=30
control_change channel=0 control=64 value=105 time=15
control_change channel=0 control=67 value=22 time=0
control_change channel=0 control=64 value=104 time=15
control_change channel=0 control=67 value=22 time=0
control_change channel=0 control=64 value=104 time=15
control_change channel=0 control=67 value=23 time=0
note_on channel=0 note=56 velocity=40 time=12
control_change channel=0 control=64 value=103 time=3
control_change channel=0 control=67 value=24 time=0
control_change channel=0 control=64 value=102 time=15
control_change channel=0 control=67 value=24 time=0
control_change channel=0 control=64 value=101 time=16
control_change channel=0 control=67 value=25 time=0
control_change channel=0 control=64 value=99 time=15
control_change channel=0 control=67 value=25 time=0
control_change channel=0 control=64 value=97 time=15
control_change channel=0 control=64 value=93 time=15
control_change channel=0 control=67 value=26 time=0
control_change channel=0 control=64 value=89 time=15
control_change channel=0 control=67 value=27 time=0
note_on channel=0 note=69 velocity=0 time=4
control_change channel=0 control=64 value=84 time=11
control_change channel=0 control=67 value=27 time=0
note_on channel=0 note=68 velocity=54 time=11
control_change channel=0 control=64 value=78 time=4
control_change channel=0 control=67 value=28 time=0
control_change channel=0 control=64 value=71 time=15
control_change channel=0 control=67 value=28 time=0
note_on channel=0 note=71 velocity=42 time=1
control_change channel=0 control=64 value=64 time=23
control_change channel=0 control=67 value=29 time=0
note_on channel=0 note=59 velocity=35 time=4
control_change channel=0 control=64 value=33 time=11
control_change channel=0 control=67 value=29 time=0
control_change channel=0 control=64 value=0 time=16
control_change channel=0 control=67 value=30 time=0
control_change channel=0 control=67 value=30 time=14
control_change channel=0 control=67 value=31 time=15
control_change channel=0 control=67 value=32 time=16
control_change channel=0 control=67 value=33 time=15
control_change channel=0 control=67 value=33 time=15
control_change channel=0 control=67 value=34 time=15
control_change channel=0 control=67 value=35 time=15
control_change channel=0 control=67 value=37 time=16
control_change channel=0 control=67 value=40 time=14
control_change channel=0 control=67 value=44 time=15
control_change channel=0 control=67 value=48 time=16
control_change channel=0 control=67 value=52 time=15
control_change channel=0 control=64 value=27 time=16
control_change channel=0 control=67 value=56 time=0
control_change channel=0 control=64 value=47 time=18
control_change channel=0 control=67 value=60 time=0
control_change channel=0 control=64 value=58 time=16
control_change channel=0 control=67 value=63 time=0
control_change channel=0 control=64 value=63 time=15
control_change channel=0 control=67 value=65 time=0
control_change channel=0 control=64 value=65 time=15
control_change channel=0 control=67 value=67 time=0
control_change channel=0 control=64 value=66 time=16
control_change channel=0 control=67 value=70 time=0
control_change channel=0 control=64 value=69 time=16
control_change channel=0 control=67 value=72 time=0
control_change channel=0 control=64 value=71 time=16
control_change channel=0 control=67 value=75 time=0
control_change channel=0 control=64 value=73 time=14
control_change channel=0 control=67 value=78 time=0
control_change channel=0 control=64 value=74 time=15
control_change channel=0 control=67 value=80 time=0
control_change channel=0 control=64 value=75 time=16
control_change channel=0 control=67 value=83 time=0
control_change channel=0 control=64 value=77 time=15
control_change channel=0 control=67 value=86 time=0
note_on channel=0 note=64 velocity=40 time=8
control_change channel=0 control=64 value=79 time=7
control_change channel=0 control=67 value=89 time=0
control_change channel=0 control=64 value=80 time=15
control_change channel=0 control=67 value=91 time=0
control_change channel=0 control=64 value=82 time=15
control_change channel=0 control=67 value=94 time=0
control_change channel=0 control=64 value=83 time=16
control_change channel=0 control=67 value=96 time=0
control_change channel=0 control=64 value=84 time=15
control_change channel=0 control=67 value=97 time=0
control_change channel=0 control=64 value=86 time=14
control_change channel=0 control=67 value=99 time=0
control_change channel=0 control=64 value=88 time=16
control_change channel=0 control=67 value=100 time=0
control_change channel=0 control=64 value=89 time=15
control_change channel=0 control=64 value=90 time=16
control_change channel=0 control=64 value=91 time=15
control_change channel=0 control=67 value=100 time=0
control_change channel=0 control=64 value=92 time=15
note_on channel=0 note=64 velocity=0 time=7
control_change channel=0 control=64 value=93 time=9
note_on channel=0 note=66 velocity=35 time=9
control_change channel=0 control=64 value=93 time=6
control_change channel=0 control=64 value=94 time=14
control_change channel=0 control=64 value=95 time=30
note_on channel=0 note=68 velocity=0 time=7
control_change channel=0 control=64 value=96 time=9
control_change channel=0 control=64 value=96 time=15
control_change channel=0 control=64 value=97 time=14
note_on channel=0 note=71 velocity=0 time=27
control_change channel=0 control=64 value=97 time=4
note_on channel=0 note=66 velocity=0 time=24
control_change channel=0 control=64 value=98 time=7
note_on channel=0 note=64 velocity=37 time=17
control_change channel=0 control=64 value=98 time=66
note_on channel=0 note=64 velocity=0 time=50
note_on channel=0 note=66 velocity=42 time=13
note_on channel=0 note=66 velocity=0 time=85
control_change channel=0 control=64 value=99 time=19
control_change channel=0 control=64 value=99 time=30
note_on channel=0 note=64 velocity=40 time=3
control_change channel=0 control=64 value=100 time=12
control_change channel=0 control=64 value=100 time=45
control_change channel=0 control=67 value=101 time=0
note_on channel=0 note=64 velocity=0 time=2
control_change channel=0 control=67 value=101 time=14
control_change channel=0 control=67 value=102 time=15
control_change channel=0 control=67 value=103 time=16
control_change channel=0 control=67 value=106 time=16
note_on channel=0 note=66 velocity=38 time=4
control_change channel=0 control=67 value=110 time=11
control_change channel=0 control=67 value=114 time=16
control_change channel=0 control=67 value=117 time=14
control_change channel=0 control=67 value=121 time=15
control_change channel=0 control=67 value=123 time=16
control_change channel=0 control=67 value=125 time=15
note_on channel=0 note=66 velocity=0 time=0
control_change channel=0 control=67 value=127 time=15
control_change channel=0 control=67 value=127 time=15
note_on channel=0 note=64 velocity=35 time=14
note_on channel=0 note=64 velocity=0 time=40
note_on channel=0 note=66 velocity=45 time=43
note_on channel=0 note=66 velocity=0 time=40
note_on channel=0 note=64 velocity=36 time=58
note_on channel=0 note=64 velocity=0 time=43
note_on channel=0 note=66 velocity=41 time=35
note_on channel=0 note=66 velocity=0 time=33
note_on channel=0 note=64 velocity=44 time=43
note_on channel=0 note=64 velocity=0 time=32
note_on channel=0 note=66 velocity=47 time=23
note_on channel=0 note=66 velocity=0 time=32
note_on channel=0 note=64 velocity=37 time=50
note_on channel=0 note=64 velocity=0 time=34
note_on channel=0 note=66 velocity=50 time=8
note_on channel=0 note=66 velocity=0 time=26
note_on channel=0 note=64 velocity=26 time=54
note_on channel=0 note=66 velocity=51 time=28
note_on channel=0 note=64 velocity=0 time=6
note_on channel=0 note=66 velocity=0 time=22
note_on channel=0 note=47 velocity=0 time=9
note_on channel=0 note=64 velocity=44 time=28
note_on channel=0 note=64 velocity=0 time=30
note_on channel=0 note=59 velocity=0 time=11
note_on channel=0 note=52 velocity=0 time=9
note_on channel=0 note=66 velocity=45 time=10
note_on channel=0 note=66 velocity=0 time=34
note_on channel=0 note=64 velocity=50 time=21
note_on channel=0 note=64 velocity=0 time=26
note_on channel=0 note=56 velocity=0 time=13
note_on channel=0 note=66 velocity=42 time=14
note_on channel=0 note=66 velocity=0 time=24
note_on channel=0 note=64 velocity=45 time=40
note_on channel=0 note=64 velocity=0 time=30
note_on channel=0 note=66 velocity=55 time=9
note_on channel=0 note=66 velocity=0 time=22
note_on channel=0 note=64 velocity=41 time=52
note_on channel=0 note=64 velocity=0 time=33
note_on channel=0 note=66 velocity=56 time=4
note_on channel=0 note=66 velocity=0 time=32
note_on channel=0 note=64 velocity=44 time=28
note_on channel=0 note=64 velocity=0 time=34
note_on channel=0 note=66 velocity=7 time=40
note_on channel=0 note=64 velocity=44 time=28
note_on channel=0 note=64 velocity=0 time=42
note_on channel=0 note=66 velocity=0 time=66
note_on channel=0 note=64 velocity=39 time=7
control_change channel=0 control=64 value=100 time=7
note_on channel=0 note=64 velocity=0 time=33
note_on channel=0 note=66 velocity=37 time=1
control_change channel=0 control=64 value=99 time=28
note_on channel=0 note=66 velocity=0 time=12
control_change channel=0 control=64 value=99 time=33
note_on channel=0 note=64 velocity=21 time=3
note_on channel=0 note=66 velocity=44 time=34
control_change channel=0 control=64 value=98 time=40
note_on channel=0 note=66 velocity=0 time=0
note_on channel=0 note=64 velocity=0 time=2
note_on channel=0 note=64 velocity=27 time=16
control_change channel=0 control=64 value=98 time=42
note_on channel=0 note=64 velocity=0 time=17
note_on channel=0 note=66 velocity=43 time=15
control_change channel=0 control=64 value=97 time=30
note_on channel=0 note=66 velocity=0 time=9
control_change channel=0 control=64 value=97 time=6
note_on channel=0 note=64 velocity=41 time=14
control_change channel=0 control=64 value=96 time=17
control_change channel=0 control=64 value=96 time=15
control_change channel=0 control=64 value=95 time=15
note_on channel=0 note=64 velocity=0 time=7
control_change channel=0 control=64 value=94 time=8
control_change channel=0 control=64 value=93 time=15
control_change channel=0 control=64 value=92 time=23
control_change channel=0 control=64 value=91 time=15
note_on channel=0 note=63 velocity=45 time=25
note_on channel=0 note=63 velocity=0 time=106
note_on channel=0 note=64 velocity=48 time=0
control_change channel=0 control=64 value=91 time=52
note_on channel=0 note=64 velocity=0 time=0
note_on channel=0 note=66 velocity=58 time=13
control_change channel=0 control=64 value=90 time=2
note_on channel=0 note=68 velocity=49 time=61
note_on channel=0 note=66 velocity=0 time=2
note_on channel=0 note=68 velocity=0 time=26
note_on channel=0 note=70 velocity=61 time=0
note_on channel=0 note=70 velocity=0 time=19
note_on channel=0 note=71 velocity=53 time=62
note_on channel=0 note=71 velocity=0 time=21
note_on channel=0 note=73 velocity=60 time=25
note_on channel=0 note=73 velocity=0 time=32
note_on channel=0 note=75 velocity=63 time=7
note_on channel=0 note=75 velocity=0 time=29
note_on channel=0 note=76 velocity=67 time=43
note_on channel=0 note=76 velocity=0 time=31
note_on channel=0 note=78 velocity=63 time=24
control_change channel=0 control=64 value=90 time=14
control_change channel=0 control=64 value=88 time=16
note_on channel=0 note=80 velocity=66 time=12
control_change channel=0 control=64 value=83 time=2
note_on channel=0 note=78 velocity=0 time=2
control_change channel=0 control=64 value=75 time=13
control_change channel=0 control=64 value=71 time=16
control_change channel=0 control=64 value=71 time=15
note_on channel=0 note=82 velocity=57 time=5
note_on channel=0 note=80 velocity=0 time=8
control_change channel=0 control=64 value=73 time=2
control_change channel=0 control=64 value=73 time=15
note_on channel=0 note=82 velocity=0 time=11
control_change channel=0 control=64 value=74 time=4
note_on channel=0 note=83 velocity=65 time=3
control_change channel=0 control=64 value=74 time=13
control_change channel=0 control=64 value=75 time=38
note_on channel=0 note=82 velocity=62 time=10
control_change channel=0 control=64 value=75 time=5
control_change channel=0 control=64 value=76 time=15
note_on channel=0 note=83 velocity=0 time=4
control_change channel=0 control=64 value=77 time=12
control_change channel=0 control=64 value=79 time=14
note_on channel=0 note=80 velocity=57 time=1
control_change channel=0 control=64 value=81 time=15
note_on channel=0 note=82 velocity=0 time=8
control_change channel=0 control=64 value=82 time=7
control_change channel=0 control=64 value=82 time=15
note_on channel=0 note=80 velocity=0 time=14
control_change channel=0 control=64 value=83 time=2
note_on channel=0 note=78 velocity=60 time=1
control_change channel=0 control=64 value=84 time=13
control_change channel=0 control=64 value=86 time=15
note_on channel=0 note=78 velocity=0 time=2
control_change channel=0 control=64 value=87 time=14
note_on channel=0 note=76 velocity=56 time=10
control_change channel=0 control=64 value=87 time=4
control_change channel=0 control=64 value=88 time=16
control_change channel=0 control=64 value=89 time=15
control_change channel=0 control=64 value=90 time=15
note_on channel=0 note=76 velocity=0 time=0
note_on channel=0 note=75 velocity=53 time=25
control_change channel=0 control=64 value=90 time=6
note_on channel=0 note=75 velocity=0 time=31
control_change channel=0 control=64 value=91 time=14
note_on channel=0 note=73 velocity=55 time=9
control_change channel=0 control=64 value=92 time=7
note_on channel=0 note=73 velocity=0 time=33
control_change channel=0 control=67 value=127 time=13
note_on channel=0 note=71 velocity=51 time=33
note_on channel=0 note=71 velocity=0 time=76
note_on channel=0 note=70 velocity=55 time=16
note_on channel=0 note=70 velocity=0 time=71
note_on channel=0 note=68 velocity=50 time=13
note_on channel=0 note=68 velocity=0 time=73
note_on channel=0 note=66 velocity=42 time=30
control_change channel=0 control=64 value=91 time=53
control_change channel=0 control=64 value=91 time=53
control_change channel=0 control=64 value=90 time=16
note_on channel=0 note=42 velocity=33 time=1
control_change channel=0 control=64 value=87 time=14
control_change channel=0 control=64 value=79 time=14
note_on channel=0 note=66 velocity=0 time=5
control_change channel=0 control=64 value=65 time=11
control_change channel=0 control=64 value=0 time=15
note_on channel=0 note=65 velocity=39 time=14
control_change channel=0 control=64 value=26 time=1
control_change channel=0 control=64 value=47 time=16
control_change channel=0 control=64 value=55 time=14
control_change channel=0 control=64 value=60 time=16
control_change channel=0 control=64 value=64 time=15
control_change channel=0 control=64 value=68 time=15
control_change channel=0 control=64 value=71 time=16
control_change channel=0 control=64 value=73 time=14
control_change channel=0 control=64 value=74 time=16
note_on channel=0 note=42 velocity=0 time=1
control_change channel=0 control=64 value=76 time=14
control_change channel=0 control=67 value=126 time=0
note_on channel=0 note=49 velocity=45 time=12
control_change channel=0 control=64 value=78 time=2
control_change channel=0 control=64 value=80 time=16
control_change channel=0 control=64 value=82 time=15
control_change channel=0 control=64 value=84 time=15
control_change channel=0 control=64 value=85 time=16
control_change channel=0 control=64 value=87 time=14
control_change channel=0 control=64 value=88 time=16
control_change channel=0 control=64 value=89 time=15
note_on channel=0 note=65 velocity=0 time=14
control_change channel=0 control=64 value=90 time=1
control_change channel=0 control=64 value=92 time=16
control_change channel=0 control=67 value=126 time=0
control_change channel=0 control=64 value=92 time=30
note_on channel=0 note=66 velocity=20 time=0
note_on channel=0 note=56 velocity=41 time=28
control_change channel=0 control=64 value=93 time=3
control_change channel=0 control=64 value=93 time=15
note_on channel=0 note=49 velocity=0 time=6
control_change channel=0 control=64 value=94 time=9
note_on channel=0 note=66 velocity=0 time=77
note_on channel=0 note=59 velocity=34 time=31
note_on channel=0 note=65 velocity=33 time=12
note_on channel=0 note=65 velocity=0 time=94
note_on channel=0 note=66 velocity=42 time=40
note_on channel=0 note=66 velocity=0 time=38
note_on channel=0 note=59 velocity=0 time=44
note_on channel=0 note=65 velocity=51 time=6
note_on channel=0 note=65 velocity=0 time=37
note_on channel=0 note=56 velocity=0 time=37
note_on channel=0 note=66 velocity=34 time=11
note_on channel=0 note=66 velocity=0 time=35
note_on channel=0 note=65 velocity=44 time=24
note_on channel=0 note=65 velocity=0 time=24
note_on channel=0 note=66 velocity=47 time=38
note_on channel=0 note=66 velocity=0 time=25
note_on channel=0 note=65 velocity=58 time=12
note_on channel=0 note=65 velocity=0 time=32
note_on channel=0 note=66 velocity=45 time=41
note_on channel=0 note=66 velocity=0 time=29
note_on channel=0 note=65 velocity=36 time=26
note_on channel=0 note=65 velocity=0 time=26
note_on channel=0 note=66 velocity=35 time=25
note_on channel=0 note=66 velocity=0 time=31
note_on channel=0 note=65 velocity=42 time=14
note_on channel=0 note=65 velocity=0 time=25
note_on channel=0 note=66 velocity=46 time=24
note_on channel=0 note=66 velocity=0 time=26
note_on channel=0 note=65 velocity=55 time=28
note_on channel=0 note=65 velocity=0 time=24
note_on channel=0 note=66 velocity=51 time=32
note_on channel=0 note=66 velocity=0 time=24
note_on channel=0 note=65 velocity=57 time=23
note_on channel=0 note=65 velocity=0 time=34
note_on channel=0 note=66 velocity=44 time=37
note_on channel=0 note=66 velocity=0 time=33
note_on channel=0 note=65 velocity=48 time=14
note_on channel=0 note=65 velocity=0 time=29
note_on channel=0 note=66 velocity=47 time=13
note_on channel=0 note=66 velocity=0 time=34
note_on channel=0 note=65 velocity=46 time=33
note_on channel=0 note=65 velocity=0 time=27
note_on channel=0 note=66 velocity=47 time=27
note_on channel=0 note=66 velocity=0 time=31
note_on channel=0 note=65 velocity=49 time=25
note_on channel=0 note=65 velocity=0 time=28
control_change channel=0 control=64 value=93 time=20
control_change channel=0 control=67 value=125 time=0
note_on channel=0 note=66 velocity=60 time=6
control_change channel=0 control=64 value=93 time=25
note_on channel=0 note=66 velocity=0 time=4
control_change channel=0 control=64 value=92 time=27
control_change channel=0 control=64 value=91 time=14
note_on channel=0 note=65 velocity=46 time=2
control_change channel=0 control=64 value=89 time=13
control_change channel=0 control=64 value=87 time=16
control_change channel=0 control=64 value=84 time=15
note_on channel=0 note=65 velocity=0 time=7
control_change channel=0 control=64 value=83 time=7
control_change channel=0 control=64 value=82 time=16
note_on channel=0 note=63 velocity=47 time=28
control_change channel=0 control=64 value=83 time=32
control_change channel=0 control=67 value=125 time=0
control_change channel=0 control=64 value=84 time=16
note_on channel=0 note=63 velocity=0 time=5
note_on channel=0 note=65 velocity=52 time=0
control_change channel=0 control=64 value=83 time=24
control_change channel=0 control=64 value=82 time=16
note_on channel=0 note=65 velocity=0 time=8
control_change channel=0 control=64 value=81 time=7
note_on channel=0 note=66 velocity=55 time=7
control_change channel=0 control=64 value=80 time=9
control_change channel=0 control=67 value=124 time=15
note_on channel=0 note=66 velocity=0 time=25
control_change channel=0 control=64 value=81 time=5
note_on channel=0 note=68 velocity=42 time=3
control_change channel=0 control=64 value=81 time=12
note_on channel=0 note=68 velocity=0 time=15
note_on channel=0 note=70 velocity=55 time=3
control_change channel=0 control=64 value=81 time=21
note_on channel=0 note=70 velocity=0 time=7
control_change channel=0 control=64 value=80 time=7
control_change channel=0 control=64 value=80 time=16
control_change channel=0 control=67 value=124 time=15
note_on channel=0 note=71 velocity=60 time=8
note_on channel=0 note=71 velocity=0 time=22
control_change channel=0 control=67 value=123 time=1
control_change channel=0 control=64 value=80 time=14
control_change channel=0 control=64 value=81 time=16
note_on channel=0 note=73 velocity=59 time=5
control_change channel=0 control=64 value=81 time=10
control_change channel=0 control=67 value=123 time=15
note_on channel=0 note=73 velocity=0 time=4
note_on channel=0 note=75 velocity=71 time=0
control_change channel=0 control=67 value=122 time=27
note_on channel=0 note=75 velocity=0 time=10
control_change channel=0 control=64 value=82 time=5
control_change channel=0 control=67 value=121 time=0
control_change channel=0 control=64 value=82 time=15
note_on channel=0 note=77 velocity=69 time=26
note_on channel=0 note=77 velocity=0 time=50
note_on channel=0 note=78 velocity=66 time=9
note_on channel=0 note=80 velocity=68 time=55
note_on channel=0 note=78 velocity=0 time=5
note_on channel=0 note=82 velocity=57 time=51
note_on channel=0 note=80 velocity=0 time=4
control_change channel=0 control=64 value=82 time=28
note_on channel=0 note=82 velocity=0 time=1
note_on channel=0 note=85 velocity=72 time=1
control_change channel=0 control=64 value=79 time=13
control_change channel=0 control=64 value=73 time=15
control_change channel=0 control=64 value=67 time=16
control_change channel=0 control=64 value=66 time=15
control_change channel=0 control=64 value=68 time=15
note_on channel=0 note=85 velocity=0 time=10
note_on channel=0 note=83 velocity=67 time=4
control_change channel=0 control=64 value=69 time=1
control_change channel=0 control=64 value=71 time=15
control_change channel=0 control=64 value=73 time=16
note_on channel=0 note=82 velocity=63 time=11
note_on channel=0 note=83 velocity=0 time=0
control_change channel=0 control=64 value=75 time=4
control_change channel=0 control=64 value=77 time=14
control_change channel=0 control=64 value=79 time=16
control_change channel=0 control=64 value=81 time=15
control_change channel=0 control=64 value=82 time=16
note_on channel=0 note=80 velocity=58 time=6
note_on channel=0 note=82 velocity=0 time=6
control_change channel=0 control=64 value=83 time=2
control_change channel=0 control=64 value=84 time=15
control_change channel=0 control=64 value=85 time=16
note_on channel=0 note=80 velocity=0 time=6
note_on channel=0 note=78 velocity=51 time=8
control_change channel=0 control=64 value=86 time=1
control_change channel=0 control=64 value=87 time=16
note_on channel=0 note=78 velocity=0 time=13
control_change channel=0 control=64 value=88 time=2
control_change channel=0 control=64 value=89 time=15
note_on channel=0 note=77 velocity=62 time=6
control_change channel=0 control=64 value=89 time=32
note_on channel=0 note=77 velocity=0 time=21
control_change channel=0 control=64 value=90 time=25
note_on channel=0 note=75 velocity=49 time=12
note_on channel=0 note=75 velocity=0 time=41
control_change channel=0 control=64 value=90 time=8
note_on channel=0 note=73 velocity=56 time=7
note_on channel=0 note=73 velocity=0 time=42
note_on channel=0 note=71 velocity=55 time=41
note_on channel=0 note=71 velocity=0 time=61
note_on channel=0 note=70 velocity=46 time=23
note_on channel=0 note=70 velocity=0 time=63
note_on channel=0 note=68 velocity=45 time=19
note_on channel=0 note=68 velocity=0 time=83
note_on channel=0 note=66 velocity=41 time=24
note_on channel=0 note=66 velocity=0 time=64
note_on channel=0 note=65 velocity=40 time=43
control_change channel=0 control=64 value=90 time=92
note_on channel=0 note=42 velocity=27 time=43
control_change channel=0 control=64 value=89 time=17
control_change channel=0 control=64 value=88 time=16
control_change channel=0 control=64 value=85 time=23
note_on channel=0 note=65 velocity=0 time=1
note_on channel=0 note=66 velocity=46 time=7
control_change channel=0 control=64 value=79 time=8
control_change channel=0 control=64 value=71 time=14
control_change channel=0 control=67 value=122 time=0
control_change channel=0 control=64 value=63 time=16
control_change channel=0 control=64 value=64 time=31
control_change channel=0 control=64 value=65 time=16
control_change channel=0 control=64 value=66 time=15
control_change channel=0 control=64 value=67 time=14
control_change channel=0 control=64 value=69 time=16
control_change channel=0 control=64 value=71 time=15
control_change channel=0 control=64 value=73 time=15
control_change channel=0 control=64 value=75 time=15
control_change channel=0 control=64 value=76 time=15
note_on channel=0 note=42 velocity=0 time=2
control_change channel=0 control=64 value=78 time=14
note_on channel=0 note=49 velocity=35 time=8
control_change channel=0 control=64 value=80 time=7
control_change channel=0 control=64 value=82 time=15
control_change channel=0 control=64 value=84 time=15
control_change channel=0 control=64 value=85 time=15
control_change channel=0 control=64 value=87 time=16
note_on channel=0 note=66 velocity=0 time=12
control_change channel=0 control=64 value=88 time=2
control_change channel=0 control=64 value=90 time=15
control_change channel=0 control=64 value=92 time=16
note_on channel=0 note=68 velocity=36 time=10
control_change channel=0 control=64 value=94 time=5
control_change channel=0 control=64 value=95 time=16
control_change channel=0 control=64 value=96 time=14
control_change channel=0 control=64 value=97 time=15
control_change channel=0 control=64 value=97 time=16
note_on channel=0 note=68 velocity=0 time=6
control_change channel=0 control=64 value=98 time=9
control_change channel=0 control=64 value=98 time=15
control_change channel=0 control=64 value=99 time=16
note_on channel=0 note=54 velocity=32 time=17
control_change channel=0 control=64 value=99 time=28
note_on channel=0 note=66 velocity=41 time=34
control_change channel=0 control=64 value=100 time=42
control_change channel=0 control=64 value=100 time=31
note_on channel=0 note=58 velocity=32 time=40
control_change channel=0 control=64 value=101 time=6
control_change channel=0 control=64 value=101 time=15
control_change channel=0 control=64 value=102 time=16
note_on channel=0 note=66 velocity=0 time=3
note_on channel=0 note=68 velocity=43 time=27
note_on channel=0 note=68 velocity=0 time=80
control_change channel=0 control=64 value=102 time=3
note_on channel=0 note=66 velocity=36 time=42
control_change channel=0 control=64 value=103 time=4
control_change channel=0 control=64 value=103 time=61
note_on channel=0 note=66 velocity=0 time=19
control_change channel=0 control=64 value=104 time=12
note_on channel=0 note=68 velocity=37 time=18
note_on channel=0 note=68 velocity=0 time=46
note_on channel=0 note=66 velocity=42 time=40
note_on channel=0 note=66 velocity=0 time=41
note_on channel=0 note=68 velocity=38 time=48
note_on channel=0 note=68 velocity=0 time=36
note_on channel=0 note=66 velocity=46 time=33
note_on channel=0 note=66 velocity=0 time=33
note_on channel=0 note=68 velocity=40 time=44
note_on channel=0 note=68 velocity=0 time=32
note_on channel=0 note=66 velocity=35 time=36
note_on channel=0 note=66 velocity=0 time=34
note_on channel=0 note=68 velocity=50 time=23
note_on channel=0 note=68 velocity=0 time=27
note_on channel=0 note=66 velocity=47 time=37
note_on channel=0 note=66 velocity=0 time=25
note_on channel=0 note=68 velocity=44 time=41
note_on channel=0 note=68 velocity=0 time=33
note_on channel=0 note=66 velocity=52 time=15
note_on channel=0 note=66 velocity=0 time=25
note_on channel=0 note=68 velocity=9 time=80
note_on channel=0 note=66 velocity=39 time=20
note_on channel=0 note=66 velocity=0 time=28
note_on channel=0 note=68 velocity=0 time=73
note_on channel=0 note=66 velocity=47 time=8
note_on channel=0 note=66 velocity=0 time=27
note_on channel=0 note=68 velocity=47 time=23
note_on channel=0 note=68 velocity=0 time=37
note_on channel=0 note=66 velocity=44 time=24
note_on channel=0 note=66 velocity=0 time=30
note_on channel=0 note=68 velocity=43 time=25
note_on channel=0 note=68 velocity=0 time=28
note_on channel=0 note=66 velocity=46 time=31
note_on channel=0 note=66 velocity=0 time=25
note_on channel=0 note=65 velocity=45 time=48
control_change channel=0 control=64 value=103 time=34
control_change channel=0 control=64 value=102 time=14
note_on channel=0 note=65 velocity=0 time=12
control_change channel=0 control=64 value=102 time=4
note_on channel=0 note=66 velocity=37 time=10
control_change channel=0 control=64 value=101 time=36
control_change channel=0 control=64 value=100 time=15
control_change channel=0 control=64 value=95 time=15
control_change channel=0 control=64 value=88 time=15
note_on channel=0 note=66 velocity=0 time=12
control_change channel=0 control=64 value=79 time=3
note_on channel=0 note=58 velocity=0 time=22
control_change channel=0 control=64 value=74 time=1
note_on channel=0 note=71 velocity=42 time=1
control_change channel=0 control=64 value=74 time=29
control_change channel=0 control=64 value=75 time=15
note_on channel=0 note=71 velocity=0 time=6
control_change channel=0 control=64 value=76 time=10
control_change channel=0 control=64 value=76 time=15
note_on channel=0 note=65 velocity=27 time=11
control_change channel=0 control=64 value=77 time=4
control_change channel=0 control=64 value=78 time=15
control_change channel=0 control=64 value=79 time=15
note_on channel=0 note=65 velocity=0 time=3
control_change channel=0 control=64 value=80 time=12
note_on channel=0 note=66 velocity=36 time=7
control_change channel=0 control=64 value=81 time=9
control_change channel=0 control=64 value=82 time=15
note_on channel=0 note=66 velocity=0 time=6
control_change channel=0 control=64 value=84 time=10
control_change channel=0 control=64 value=84 time=15
note_on channel=0 note=67 velocity=42 time=31
control_change channel=0 control=64 value=85 time=15
note_on channel=0 note=67 velocity=0 time=13
control_change channel=0 control=64 value=85 time=17
note_on channel=0 note=68 velocity=46 time=1
note_on channel=0 note=69 velocity=55 time=39
note_on channel=0 note=68 velocity=0 time=3
note_on channel=0 note=69 velocity=0 time=37
control_change channel=0 control=64 value=83 time=12
note_on channel=0 note=70 velocity=57 time=5
control_change channel=0 control=64 value=79 time=11
control_change channel=0 control=64 value=76 time=15
note_on channel=0 note=70 velocity=0 time=6
control_change channel=0 control=64 value=75 time=8
note_on channel=0 note=75 velocity=65 time=4
control_change channel=0 control=64 value=76 time=12
control_change channel=0 control=64 value=76 time=15
note_on channel=0 note=54 velocity=0 time=0
note_on channel=0 note=49 velocity=0 time=2
control_change channel=0 control=64 value=78 time=12
control_change channel=0 control=64 value=79 time=16
note_on channel=0 note=75 velocity=0 time=8
control_change channel=0 control=64 value=80 time=7
note_on channel=0 note=68 velocity=24 time=14
control_change channel=0 control=64 value=81 time=2
control_change channel=0 control=64 value=81 time=15
note_on channel=0 note=68 velocity=0 time=16
note_on channel=0 note=69 velocity=52 time=1
note_on channel=0 note=69 velocity=0 time=21
control_change channel=0 control=64 value=82 time=7
control_change channel=0 control=67 value=121 time=0
note_on channel=0 note=70 velocity=49 time=15
control_change channel=0 control=64 value=82 time=16
note_on channel=0 note=70 velocity=0 time=5
control_change channel=0 control=64 value=83 time=9
note_on channel=0 note=71 velocity=52 time=50
note_on channel=0 note=71 velocity=0 time=25
note_on channel=0 note=72 velocity=36 time=47
note_on channel=0 note=72 velocity=0 time=36
note_on channel=0 note=73 velocity=60 time=1
control_change channel=0 control=64 value=82 time=1
control_change channel=0 control=64 value=79 time=16
control_change channel=0 control=64 value=74 time=15
note_on channel=0 note=73 velocity=0 time=3
control_change channel=0 control=64 value=68 time=11
note_on channel=0 note=80 velocity=72 time=0
control_change channel=0 control=64 value=66 time=16
control_change channel=0 control=64 value=67 time=15
control_change channel=0 control=64 value=68 time=14
note_on channel=0 note=80 velocity=0 time=15
control_change channel=0 control=64 value=70 time=1
control_change channel=0 control=64 value=72 time=15
note_on channel=0 note=72 velocity=42 time=7
control_change channel=0 control=64 value=73 time=9
control_change channel=0 control=64 value=75 time=15
note_on channel=0 note=72 velocity=0 time=5
control_change channel=0 control=64 value=77 time=9
control_change channel=0 control=64 value=78 time=16
control_change channel=0 control=67 value=121 time=0
note_on channel=0 note=73 velocity=53 time=6
control_change channel=0 control=64 value=80 time=9
note_on channel=0 note=73 velocity=0 time=15
control_change channel=0 control=64 value=81 time=1
control_change channel=0 control=64 value=83 time=15
control_change channel=0 control=64 value=84 time=15
control_change channel=0 control=64 value=86 time=16
note_on channel=0 note=74 velocity=64 time=0
control_change channel=0 control=64 value=87 time=15
note_on channel=0 note=74 velocity=0 time=12
control_change channel=0 control=64 value=89 time=3
control_change channel=0 control=64 value=89 time=16
control_change channel=0 control=64 value=90 time=15
control_change channel=0 control=64 value=90 time=15
control_change channel=0 control=64 value=92 time=15
control_change channel=0 control=64 value=93 time=15
control_change channel=0 control=64 value=93 time=16
note_on channel=0 note=76 velocity=39 time=28
note_on channel=0 note=76 velocity=0 time=32
note_on channel=0 note=77 velocity=59 time=11
note_on channel=0 note=77 velocity=0 time=38
note_on channel=0 note=78 velocity=59 time=17
control_change channel=0 control=64 value=91 time=26
note_on channel=0 note=78 velocity=0 time=4
note_on channel=0 note=83 velocity=72 time=6
control_change channel=0 control=64 value=85 time=5
control_change channel=0 control=64 value=75 time=15
control_change channel=0 control=64 value=65 time=16
control_change channel=0 control=64 value=66 time=15
control_change channel=0 control=64 value=68 time=14
note_on channel=0 note=77 velocity=57 time=9
control_change channel=0 control=64 value=69 time=7
control_change channel=0 control=64 value=71 time=15
note_on channel=0 note=77 velocity=0 time=13
control_change channel=0 control=64 value=73 time=3
note_on channel=0 note=83 velocity=0 time=13
control_change channel=0 control=64 value=75 time=2
note_on channel=0 note=78 velocity=45 time=8
control_change channel=0 control=64 value=77 time=6
control_change channel=0 control=67 value=120 time=0
control_change channel=0 control=64 value=78 time=16
note_on channel=0 note=78 velocity=0 time=3
control_change channel=0 control=64 value=79 time=12
control_change channel=0 control=64 value=80 time=14
note_on channel=0 note=79 velocity=61 time=11
control_change channel=0 control=64 value=81 time=5
control_change channel=0 control=64 value=82 time=23
note_on channel=0 note=79 velocity=0 time=15
control_change channel=0 control=64 value=83 time=1
control_change channel=0 control=64 value=84 time=15
control_change channel=0 control=67 value=120 time=0
control_change channel=0 control=64 value=84 time=15
note_on channel=0 note=80 velocity=45 time=7
note_on channel=0 note=81 velocity=55 time=37
control_change channel=0 control=67 value=119 time=2
control_change channel=0 control=64 value=85 time=15
note_on channel=0 note=80 velocity=0 time=5
control_change channel=0 control=64 value=86 time=9
control_change channel=0 control=64 value=87 time=16
note_on channel=0 note=81 velocity=0 time=12
note_on channel=0 note=82 velocity=57 time=8
control_change channel=0 control=64 value=85 time=25
note_on channel=0 note=82 velocity=0 time=13
control_change channel=0 control=64 value=83 time=2
note_on channel=0 note=87 velocity=78 time=1
control_change channel=0 control=64 value=83 time=15
control_change channel=0 control=64 value=83 time=29
control_change channel=0 control=67 value=119 time=0
control_change channel=0 control=64 value=84 time=16
control_change channel=0 control=64 value=85 time=15
control_change channel=0 control=67 value=118 time=0
note_on channel=0 note=80 velocity=54 time=11
note_on channel=0 note=87 velocity=0 time=3
control_change channel=0 control=64 value=87 time=2
control_change channel=0 control=64 value=89 time=15
control_change channel=0 control=67 value=118 time=0
control_change channel=0 control=64 value=90 time=16
control_change channel=0 control=67 value=117 time=0
note_on channel=0 note=80 velocity=0 time=0
control_change channel=0 control=64 value=91 time=16
control_change channel=0 control=67 value=117 time=0
note_on channel=0 note=81 velocity=55 time=4
control_change channel=0 control=64 value=92 time=10
control_change channel=0 control=67 value=115 time=0
note_on channel=0 note=81 velocity=0 time=11
control_change channel=0 control=64 value=92 time=5
control_change channel=0 control=67 value=113 time=0
control_change channel=0 control=64 value=93 time=15
control_change channel=0 control=67 value=111 time=0
note_on channel=0 note=82 velocity=61 time=6
control_change channel=0 control=64 value=94 time=8
control_change channel=0 control=67 value=109 time=0
control_change channel=0 control=64 value=94 time=16
control_change channel=0 control=67 value=108 time=0
note_on channel=0 note=82 velocity=0 time=5
control_change channel=0 control=64 value=95 time=10
control_change channel=0 control=67 value=106 time=0
control_change channel=0 control=64 value=95 time=15
control_change channel=0 control=67 value=104 time=0
control_change channel=0 control=67 value=103 time=16
note_on channel=0 note=83 velocity=59 time=7
control_change channel=0 control=67 value=101 time=8
control_change channel=0 control=64 value=96 time=15
control_change channel=0 control=67 value=99 time=0
note_on channel=0 note=83 velocity=0 time=12
control_change channel=0 control=67 value=98 time=3
control_change channel=0 control=67 value=96 time=15
note_on channel=0 note=84 velocity=57 time=13
control_change channel=0 control=64 value=96 time=3
control_change channel=0 control=67 value=95 time=0
control_change channel=0 control=67 value=94 time=15
control_change channel=0 control=67 value=92 time=16
note_on channel=0 note=84 velocity=0 time=0
control_change channel=0 control=64 value=96 time=15
control_change channel=0 control=67 value=91 time=0
note_on channel=0 note=85 velocity=65 time=5
control_change channel=0 control=67 value=89 time=10
control_change channel=0 control=67 value=87 time=15
control_change channel=0 control=67 value=85 time=16
note_on channel=0 note=85 velocity=0 time=8
control_change channel=0 control=67 value=83 time=7
note_on channel=0 note=92 velocity=73 time=11
control_change channel=0 control=67 value=81 time=4
control_change channel=0 control=67 value=78 time=15
control_change channel=0 control=64 value=97 time=16
control_change channel=0 control=67 value=76 time=0
note_on channel=0 note=92 velocity=0 time=14
control_change channel=0 control=64 value=98 time=1
control_change channel=0 control=67 value=74 time=0
control_change channel=0 control=64 value=99 time=15
control_change channel=0 control=67 value=72 time=0
control_change channel=0 control=64 value=100 time=15
control_change channel=0 control=67 value=69 time=0
note_on channel=0 note=84 velocity=57 time=5
control_change channel=0 control=64 value=100 time=10
control_change channel=0 control=67 value=66 time=0
control_change channel=0 control=64 value=101 time=23
control_change channel=0 control=67 value=64 time=0
note_on channel=0 note=84 velocity=0 time=11
control_change channel=0 control=64 value=102 time=4
control_change channel=0 control=67 value=62 time=0
control_change channel=0 control=64 value=103 time=15
control_change channel=0 control=67 value=61 time=0
control_change channel=0 control=64 value=104 time=15
control_change channel=0 control=67 value=59 time=0
control_change channel=0 control=64 value=105 time=15
control_change channel=0 control=67 value=57 time=0
note_on channel=0 note=85 velocity=52 time=4
control_change channel=0 control=64 value=106 time=12
control_change channel=0 control=67 value=55 time=0
control_change channel=0 control=64 value=107 time=15
control_change channel=0 control=67 value=54 time=0
note_on channel=0 note=85 velocity=0 time=0
control_change channel=0 control=64 value=107 time=15
control_change channel=0 control=67 value=52 time=0
control_change channel=0 control=64 value=109 time=16
control_change channel=0 control=67 value=51 time=0
control_change channel=0 control=64 value=110 time=15
control_change channel=0 control=67 value=50 time=0
note_on channel=0 note=86 velocity=58 time=7
control_change channel=0 control=64 value=112 time=8
control_change channel=0 control=67 value=48 time=0
control_change channel=0 control=64 value=113 time=16
control_change channel=0 control=67 value=46 time=0
control_change channel=0 control=64 value=113 time=14
control_change channel=0 control=67 value=45 time=0
note_on channel=0 note=86 velocity=0 time=2
control_change channel=0 control=64 value=114 time=14
control_change channel=0 control=67 value=44 time=0
control_change channel=0 control=67 value=42 time=15
note_on channel=0 note=87 velocity=61 time=9
control_change channel=0 control=67 value=41 time=6
control_change channel=0 control=67 value=41 time=16
note_on channel=0 note=87 velocity=0 time=12
control_change channel=0 control=67 value=40 time=2
control_change channel=0 control=67 value=38 time=15
control_change channel=0 control=67 value=37 time=16
control_change channel=0 control=67 value=37 time=15
note_on channel=0 note=88 velocity=59 time=1
control_change channel=0 control=67 value=36 time=15
control_change channel=0 control=67 value=35 time=14
note_on channel=0 note=88 velocity=0 time=12
control_change channel=0 control=67 value=34 time=3
control_change channel=0 control=67 value=34 time=16
control_change channel=0 control=67 value=33 time=16
control_change channel=0 control=67 value=33 time=31
note_on channel=0 note=89 velocity=48 time=3
control_change channel=0 control=67 value=32 time=56
note_on channel=0 note=89 velocity=0 time=5
note_on channel=0 note=90 velocity=39 time=37
control_change channel=0 control=64 value=113 time=65
note_on channel=0 note=78 velocity=36 time=4
control_change channel=0 control=64 value=113 time=11
control_change channel=0 control=64 value=112 time=15
control_change channel=0 control=64 value=111 time=14
control_change channel=0 control=64 value=110 time=16
control_change channel=0 control=64 value=109 time=15
note_on channel=0 note=90 velocity=0 time=2
control_change channel=0 control=64 value=108 time=13
note_on channel=0 note=85 velocity=49 time=2
control_change channel=0 control=64 value=107 time=13
control_change channel=0 control=64 value=106 time=15
control_change channel=0 control=64 value=104 time=15
control_change channel=0 control=64 value=102 time=16
control_change channel=0 control=64 value=99 time=15
control_change channel=0 control=64 value=95 time=23
control_change channel=0 control=67 value=33 time=0
control_change channel=0 control=64 value=86 time=15
note_on channel=0 note=90 velocity=47 time=1
control_change channel=0 control=64 value=75 time=15
control_change channel=0 control=67 value=33 time=0
note_on channel=0 note=95 velocity=54 time=7
control_change channel=0 control=64 value=61 time=7
control_change channel=0 control=64 value=49 time=15
control_change channel=0 control=64 value=57 time=16
control_change channel=0 control=64 value=61 time=15
control_change channel=0 control=64 value=63 time=15
control_change channel=0 control=64 value=64 time=15
control_change channel=0 control=64 value=67 time=15
control_change channel=0 control=64 value=69 time=16
control_change channel=0 control=64 value=72 time=15
control_change channel=0 control=64 value=74 time=15
control_change channel=0 control=64 value=76 time=15
note_on channel=0 note=95 velocity=0 time=3
control_change channel=0 control=64 value=79 time=12
note_on channel=0 note=94 velocity=62 time=8
control_change channel=0 control=64 value=82 time=8
control_change channel=0 control=64 value=84 time=15
control_change channel=0 control=64 value=87 time=14
control_change channel=0 control=64 value=89 time=16
control_change channel=0 control=64 value=91 time=15
control_change channel=0 control=64 value=94 time=15
note_on channel=0 note=94 velocity=0 time=2
control_change channel=0 control=64 value=96 time=12
note_on channel=0 note=95 velocity=76 time=2
control_change channel=0 control=64 value=98 time=12
control_change channel=0 control=64 value=101 time=15
control_change channel=0 control=64 value=103 time=16
control_change channel=0 control=64 value=106 time=15
note_on channel=0 note=95 velocity=0 time=8
control_change channel=0 control=64 value=109 time=7
control_change channel=0 control=64 value=112 time=15
control_change channel=0 control=67 value=33 time=0
note_on channel=0 note=94 velocity=75 time=6
control_change channel=0 control=64 value=116 time=10
control_change channel=0 control=64 value=122 time=16
control_change channel=0 control=64 value=127 time=15
control_change channel=0 control=67 value=32 time=14
note_on channel=0 note=94 velocity=0 time=3
note_on channel=0 note=95 velocity=85 time=8
control_change channel=0 control=67 value=32 time=20
note_on channel=0 note=95 velocity=0 time=43
note_on channel=0 note=94 velocity=77 time=16
control_change channel=0 control=67 value=31 time=17
note_on channel=0 note=90 velocity=0 time=12
note_on channel=0 note=94 velocity=0 time=23
note_on channel=0 note=95 velocity=79 time=2
control_change channel=0 control=67 value=30 time=25
control_change channel=0 control=67 value=28 time=15
control_change channel=0 control=67 value=27 time=15
note_on channel=0 note=78 velocity=0 time=4
note_on channel=0 note=95 velocity=0 time=1
note_on channel=0 note=85 velocity=0 time=8
note_on channel=0 note=94 velocity=77 time=0
control_change channel=0 control=67 value=25 time=2
control_change channel=0 control=67 value=24 time=15
control_change channel=0 control=67 value=23 time=15
control_change channel=0 control=67 value=21 time=16
note_on channel=0 note=94 velocity=0 time=6
note_on channel=0 note=95 velocity=75 time=3
control_change channel=0 control=67 value=20 time=6
control_change channel=0 control=67 value=19 time=22
control_change channel=0 control=67 value=18 time=15
control_change channel=0 control=67 value=16 time=16
note_on channel=0 note=94 velocity=70 time=6
note_on channel=0 note=95 velocity=0 time=1
control_change channel=0 control=67 value=15 time=8
control_change channel=0 control=67 value=14 time=15
control_change channel=0 control=67 value=12 time=16
note_on channel=0 note=94 velocity=0 time=11
note_on channel=0 note=95 velocity=71 time=1
control_change channel=0 control=67 value=11 time=3
control_change channel=0 control=67 value=10 time=14
control_change channel=0 control=67 value=8 time=16
control_change channel=0 control=67 value=0 time=15
note_on channel=0 note=94 velocity=62 time=3
note_on channel=0 note=95 velocity=0 time=2
note_on channel=0 note=94 velocity=0 time=49
note_on channel=0 note=95 velocity=69 time=12
note_on channel=0 note=94 velocity=55 time=34
note_on channel=0 note=95 velocity=0 time=22
note_on channel=0 note=92 velocity=68 time=31
note_on channel=0 note=94 velocity=0 time=32
note_on channel=0 note=90 velocity=76 time=10
note_on channel=0 note=92 velocity=0 time=8
note_on channel=0 note=90 velocity=0 time=25
note_on channel=0 note=89 velocity=48 time=27
note_on channel=0 note=89 velocity=0 time=24
note_on channel=0 note=87 velocity=68 time=21
note_on channel=0 note=87 velocity=0 time=41
note_on channel=0 note=85 velocity=63 time=10
note_on channel=0 note=85 velocity=0 time=19
note_on channel=0 note=83 velocity=63 time=34
note_on channel=0 note=66 velocity=47 time=9
note_on channel=0 note=83 velocity=0 time=20
note_on channel=0 note=82 velocity=56 time=37
note_on channel=0 note=82 velocity=0 time=23
note_on channel=0 note=73 velocity=40 time=20
note_on channel=0 note=83 velocity=62 time=10
note_on channel=0 note=78 velocity=44 time=10
note_on channel=0 note=83 velocity=0 time=9
note_on channel=0 note=82 velocity=61 time=34
note_on channel=0 note=66 velocity=0 time=6
note_on channel=0 note=78 velocity=0 time=3
note_on channel=0 note=82 velocity=0 time=15
note_on channel=0 note=83 velocity=40 time=40
note_on channel=0 note=73 velocity=0 time=8
note_on channel=0 note=83 velocity=0 time=19
note_on channel=0 note=82 velocity=69 time=14
note_on channel=0 note=82 velocity=0 time=25
note_on channel=0 note=83 velocity=54 time=38
note_on channel=0 note=83 velocity=0 time=20
note_on channel=0 note=82 velocity=67 time=17
note_on channel=0 note=82 velocity=0 time=29
note_on channel=0 note=83 velocity=68 time=22
note_on channel=0 note=83 velocity=0 time=16
note_on channel=0 note=82 velocity=75 time=33
note_on channel=0 note=82 velocity=0 time=46
note_on channel=0 note=83 velocity=63 time=6
note_on channel=0 note=83 velocity=0 time=30
note_on channel=0 note=82 velocity=27 time=41
note_on channel=0 note=83 velocity=56 time=9
note_on channel=0 note=82 velocity=0 time=35
note_on channel=0 note=83 velocity=0 time=8
note_on channel=0 note=82 velocity=52 time=9
note_on channel=0 note=82 velocity=0 time=48
note_on channel=0 note=83 velocity=50 time=3
note_on channel=0 note=83 velocity=0 time=55
note_on channel=0 note=82 velocity=66 time=4
note_on channel=0 note=80 velocity=62 time=54
note_on channel=0 note=82 velocity=0 time=13
note_on channel=0 note=80 velocity=0 time=30
note_on channel=0 note=78 velocity=62 time=3
note_on channel=0 note=78 velocity=0 time=30
note_on channel=0 note=77 velocity=56 time=26
note_on channel=0 note=77 velocity=0 time=24
note_on channel=0 note=75 velocity=60 time=38
note_on channel=0 note=75 velocity=0 time=41
note_on channel=0 note=54 velocity=42 time=12
note_on channel=0 note=73 velocity=56 time=3
note_on channel=0 note=73 velocity=0 time=23
control_change channel=0 control=64 value=114 time=19
control_change channel=0 control=64 value=99 time=16
note_on channel=0 note=71 velocity=46 time=7
control_change channel=0 control=64 value=85 time=8
note_on channel=0 note=61 velocity=44 time=1
control_change channel=0 control=64 value=72 time=15
note_on channel=0 note=71 velocity=0 time=3
control_change channel=0 control=64 value=65 time=11
control_change channel=0 control=64 value=66 time=15
note_on channel=0 note=70 velocity=50 time=3
control_change channel=0 control=64 value=68 time=13
note_on channel=0 note=66 velocity=31 time=7
note_on channel=0 note=70 velocity=0 time=4
control_change channel=0 control=64 value=68 time=3
control_change channel=0 control=64 value=69 time=16
note_on channel=0 note=71 velocity=56 time=7
control_change channel=0 control=64 value=70 time=8
note_on channel=0 note=71 velocity=0 time=13
control_change channel=0 control=64 value=72 time=2
control_change channel=0 control=64 value=74 time=16
note_on channel=0 note=70 velocity=57 time=11
control_change channel=0 control=64 value=76 time=3
control_change channel=0 control=64 value=78 time=15
note_on channel=0 note=70 velocity=0 time=14
control_change channel=0 control=64 value=79 time=2
note_on channel=0 note=71 velocity=65 time=12
control_change channel=0 control=64 value=81 time=3
control_change channel=0 control=64 value=83 time=16
note_on channel=0 note=71 velocity=0 time=8
control_change channel=0 control=64 value=84 time=6
control_change channel=0 control=64 value=86 time=15
note_on channel=0 note=66 velocity=0 time=2
note_on channel=0 note=70 velocity=58 time=13
control_change channel=0 control=64 value=87 time=1
control_change channel=0 control=64 value=89 time=15
note_on channel=0 note=70 velocity=0 time=6
control_change channel=0 control=64 value=89 time=9
note_on channel=0 note=61 velocity=0 time=5
note_on channel=0 note=71 velocity=63 time=6
control_change channel=0 control=64 value=90 time=5
note_on channel=0 note=54 velocity=0 time=12
note_on channel=0 note=71 velocity=0 time=13
note_on channel=0 note=70 velocity=70 time=18
control_change channel=0 control=67 value=8 time=3
control_change channel=0 control=67 value=8 time=14
control_change channel=0 control=67 value=9 time=16
note_on channel=0 note=70 velocity=0 time=0
control_change channel=0 control=67 value=10 time=15
note_on channel=0 note=71 velocity=59 time=9
control_change channel=0 control=67 value=12 time=5
note_on channel=0 note=71 velocity=0 time=14
control_change channel=0 control=67 value=14 time=2
control_change channel=0 control=67 value=17 time=15
control_change channel=0 control=67 value=21 time=17
note_on channel=0 note=70 velocity=68 time=1
control_change channel=0 control=67 value=26 time=14
control_change channel=0 control=67 value=31 time=15
note_on channel=0 note=70 velocity=0 time=8
note_on channel=0 note=71 velocity=61 time=7
control_change channel=0 control=67 value=37 time=1
control_change channel=0 control=67 value=42 time=14
control_change channel=0 control=67 value=47 time=16
control_change channel=0 control=67 value=51 time=15
control_change channel=0 control=67 value=55 time=15
note_on channel=0 note=71 velocity=0 time=0
control_change channel=0 control=67 value=59 time=16
note_on channel=0 note=70 velocity=62 time=3
control_change channel=0 control=67 value=63 time=11
control_change channel=0 control=67 value=67 time=15
control_change channel=0 control=67 value=71 time=16
note_on channel=0 note=70 velocity=0 time=3
note_on channel=0 note=68 velocity=54 time=12
control_change channel=0 control=64 value=89 time=7
control_change channel=0 control=67 value=75 time=0
control_change channel=0 control=67 value=80 time=16
control_change channel=0 control=64 value=89 time=15
control_change channel=0 control=67 value=85 time=0
note_on channel=0 note=68 velocity=0 time=6
control_change channel=0 control=67 value=89 time=9
note_on channel=0 note=66 velocity=52 time=8
control_change channel=0 control=64 value=88 time=7
control_change channel=0 control=67 value=93 time=0
control_change channel=0 control=64 value=88 time=15
control_change channel=0 control=67 value=96 time=0
note_on channel=0 note=66 velocity=0 time=11
control_change channel=0 control=64 value=87 time=5
control_change channel=0 control=67 value=100 time=0
note_on channel=0 note=65 velocity=55 time=10
control_change channel=0 control=67 value=103 time=5
control_change channel=0 control=67 value=108 time=15
control_change channel=0 control=64 value=86 time=16
control_change channel=0 control=67 value=111 time=0
note_on channel=0 note=65 velocity=0 time=9
control_change channel=0 control=64 value=86 time=5
control_change channel=0 control=67 value=114 time=0
control_change channel=0 control=64 value=85 time=16
control_change channel=0 control=67 value=118 time=0
note_on channel=0 note=63 velocity=54 time=7
control_change channel=0 control=64 value=84 time=8
control_change channel=0 control=67 value=120 time=0
control_change channel=0 control=64 value=84 time=15
control_change channel=0 control=67 value=123 time=0
control_change channel=0 control=64 value=83 time=16
control_change channel=0 control=67 value=125 time=0
control_change channel=0 control=64 value=82 time=14
control_change channel=0 control=67 value=127 time=0
note_on channel=0 note=63 velocity=0 time=7
control_change channel=0 control=64 value=80 time=8
note_on channel=0 note=61 velocity=49 time=8
control_change channel=0 control=64 value=78 time=8
control_change channel=0 control=64 value=77 time=14
note_on channel=0 note=61 velocity=0 time=13
control_change channel=0 control=64 value=76 time=3
control_change channel=0 control=64 value=74 time=15
note_on channel=0 note=59 velocity=51 time=9
note_on channel=0 note=42 velocity=39 time=5
control_change channel=0 control=64 value=72 time=1
control_change channel=0 control=64 value=69 time=16
control_change channel=0 control=64 value=63 time=14
note_on channel=0 note=59 velocity=0 time=3
control_change channel=0 control=64 value=57 time=13
control_change channel=0 control=64 value=57 time=15
note_on channel=0 note=58 velocity=50 time=13
control_change channel=0 control=64 value=59 time=1
note_on channel=0 note=49 velocity=36 time=4
control_change channel=0 control=64 value=60 time=12
control_change channel=0 control=64 value=61 time=15
note_on channel=0 note=58 velocity=0 time=6
control_change channel=0 control=64 value=63 time=9
control_change channel=0 control=64 value=64 time=16
note_on channel=0 note=59 velocity=56 time=1
control_change channel=0 control=64 value=65 time=14
control_change channel=0 control=64 value=66 time=16
control_change channel=0 control=64 value=66 time=15
note_on channel=0 note=59 velocity=0 time=9
control_change channel=0 control=64 value=67 time=6
control_change channel=0 control=64 value=68 time=15
note_on channel=0 note=58 velocity=51 time=3
control_change channel=0 control=64 value=67 time=27
note_on channel=0 note=56 velocity=62 time=8
note_on channel=0 note=58 velocity=0 time=0
control_change channel=0 control=64 value=64 time=8
control_change channel=0 control=64 value=62 time=15
control_change channel=0 control=64 value=60 time=15
note_on channel=0 note=56 velocity=0 time=8
control_change channel=0 control=64 value=61 time=6
note_on channel=0 note=54 velocity=46 time=11
control_change channel=0 control=64 value=63 time=6
control_change channel=0 control=64 value=64 time=15
note_on channel=0 note=54 velocity=0 time=7
control_change channel=0 control=64 value=64 time=8
note_on channel=0 note=53 velocity=58 time=0
note_on channel=0 note=49 velocity=0 time=4
control_change channel=0 control=64 value=63 time=27
note_on channel=0 note=53 velocity=0 time=4
control_change channel=0 control=64 value=62 time=10
note_on channel=0 note=51 velocity=57 time=18
control_change channel=0 control=64 value=63 time=13
control_change channel=0 control=64 value=64 time=23
note_on channel=0 note=42 velocity=0 time=17
note_on channel=0 note=49 velocity=58 time=7
note_on channel=0 note=51 velocity=0 time=1
note_on channel=0 note=49 velocity=0 time=42
note_on channel=0 note=47 velocity=55 time=18
control_change channel=0 control=64 value=64 time=6
control_change channel=0 control=64 value=62 time=15
control_change channel=0 control=64 value=61 time=16
note_on channel=0 note=47 velocity=0 time=18
note_on channel=0 note=46 velocity=57 time=9
control_change channel=0 control=64 value=62 time=2
control_change channel=0 control=64 value=61 time=16
control_change channel=0 control=64 value=60 time=15
note_on channel=0 note=46 velocity=0 time=10
control_change channel=0 control=64 value=57 time=6
note_on channel=0 note=44 velocity=51 time=2
control_change channel=0 control=64 value=55 time=13
control_change channel=0 control=64 value=54 time=14
note_on channel=0 note=44 velocity=0 time=8
note_on channel=0 note=42 velocity=52 time=5
control_change channel=0 control=64 value=49 time=3
control_change channel=0 control=64 value=37 time=15
note_on channel=0 note=42 velocity=0 time=13
control_change channel=0 control=64 value=28 time=1
note_on channel=0 note=41 velocity=49 time=19
note_on channel=0 note=41 velocity=0 time=42
note_on channel=0 note=39 velocity=53 time=27
control_change channel=0 control=64 value=23 time=34
control_change channel=0 control=64 value=14 time=16
control_change channel=0 control=64 value=17 time=14
note_on channel=0 note=37 velocity=44 time=0
note_on channel=0 note=39 velocity=0 time=6
control_change channel=0 control=64 value=19 time=25
note_on channel=0 note=37 velocity=0 time=6
control_change channel=0 control=64 value=21 time=9
control_change channel=0 control=64 value=24 time=16
note_on channel=0 note=35 velocity=49 time=0
control_change channel=0 control=64 value=27 time=15
control_change channel=0 control=64 value=28 time=16
note_on channel=0 note=35 velocity=0 time=13
control_change channel=0 control=64 value=29 time=2
control_change channel=0 control=67 value=127 time=15
control_change channel=0 control=67 value=126 time=15
note_on channel=0 note=34 velocity=48 time=1
control_change channel=0 control=64 value=30 time=29
control_change channel=0 control=67 value=126 time=0
control_change channel=0 control=64 value=31 time=16
control_change channel=0 control=67 value=125 time=0
note_on channel=0 note=34 velocity=0 time=8
control_change channel=0 control=64 value=32 time=6
control_change channel=0 control=67 value=124 time=0
control_change channel=0 control=64 value=33 time=16
control_change channel=0 control=67 value=123 time=0
note_on channel=0 note=32 velocity=34 time=7
control_change channel=0 control=67 value=123 time=8
control_change channel=0 control=64 value=34 time=15
control_change channel=0 control=67 value=122 time=0
control_change channel=0 control=64 value=35 time=17
control_change channel=0 control=67 value=121 time=0
control_change channel=0 control=67 value=119 time=14
control_change channel=0 control=67 value=118 time=15
control_change channel=0 control=67 value=118 time=16
note_on channel=0 note=32 velocity=0 time=12
control_change channel=0 control=67 value=117 time=26
control_change channel=0 control=67 value=116 time=14
control_change channel=0 control=67 value=114 time=16
control_change channel=0 control=67 value=114 time=15
note_on channel=0 note=30 velocity=31 time=6
control_change channel=0 control=67 value=113 time=9
control_change channel=0 control=67 value=113 time=16
control_change channel=0 control=67 value=111 time=15
control_change channel=0 control=67 value=110 time=14
control_change channel=0 control=67 value=110 time=16
control_change channel=0 control=67 value=109 time=15
control_change channel=0 control=67 value=108 time=16
control_change channel=0 control=67 value=106 time=15
control_change channel=0 control=64 value=32 time=15
control_change channel=0 control=67 value=104 time=0
control_change channel=0 control=64 value=30 time=16
control_change channel=0 control=67 value=102 time=0
control_change channel=0 control=64 value=27 time=15
control_change channel=0 control=67 value=102 time=0
control_change channel=0 control=64 value=23 time=14
control_change channel=0 control=67 value=101 time=0
control_change channel=0 control=64 value=14 time=16
control_change channel=0 control=67 value=101 time=0
control_change channel=0 control=64 value=0 time=15
control_change channel=0 control=67 value=100 time=0
control_change channel=0 control=67 value=99 time=16
control_change channel=0 control=67 value=98 time=15
control_change channel=0 control=67 value=98 time=30
control_change channel=0 control=67 value=97 time=30
control_change channel=0 control=67 value=96 time=15
control_change channel=0 control=67 value=95 time=15
control_change channel=0 control=67 value=94 time=16
control_change channel=0 control=67 value=93 time=15
control_change channel=0 control=67 value=92 time=45
control_change channel=0 control=67 value=92 time=45
control_change channel=0 control=67 value=91 time=31
control_change channel=0 control=67 value=91 time=15
note_on channel=0 note=30 velocity=0 time=14
control_change channel=0 control=67 value=90 time=2
control_change channel=0 control=67 value=90 time=30
control_change channel=0 control=67 value=89 time=15
control_change channel=0 control=67 value=89 time=16
control_change channel=0 control=67 value=88 time=15
control_change channel=0 control=67 value=87 time=15
control_change channel=0 control=67 value=87 time=16
control_change channel=0 control=67 value=86 time=15
control_change channel=0 control=67 value=86 time=46
control_change channel=0 control=67 value=85 time=160
control_change channel=0 control=67 value=86 time=212
control_change channel=0 control=67 value=86 time=290
control_change channel=0 control=67 value=88 time=14
control_change channel=0 control=67 value=89 time=61
control_change channel=0 control=67 value=89 time=15
control_change channel=0 control=67 value=90 time=31
control_change channel=0 control=67 value=90 time=54
control_change channel=0 control=67 value=90 time=152
control_change channel=0 control=67 value=89 time=15
control_change channel=0 control=67 value=89 time=16
control_change channel=0 control=67 value=88 time=14
control_change channel=0 control=67 value=86 time=15
control_change channel=0 control=67 value=85 time=16
control_change channel=0 control=67 value=83 time=15
control_change channel=0 control=67 value=78 time=15
control_change channel=0 control=67 value=61 time=15
control_change channel=0 control=64 value=11 time=15
control_change channel=0 control=67 value=27 time=0
control_change channel=0 control=67 value=0 time=16
control_change channel=0 control=64 value=0 time=15
control_change channel=0 control=64 value=45 time=167
control_change channel=0 control=64 value=63 time=16
note_on channel=0 note=42 velocity=90 time=0
control_change channel=0 control=64 value=69 time=15
control_change channel=0 control=64 value=76 time=15
control_change channel=0 control=64 value=84 time=15
control_change channel=0 control=64 value=94 time=15
control_change channel=0 control=64 value=108 time=15
note_on channel=0 note=46 velocity=84 time=8
control_change channel=0 control=64 value=127 time=8
note_on channel=0 note=66 velocity=76 time=27
note_on channel=0 note=49 velocity=83 time=3
note_on channel=0 note=42 velocity=0 time=27
note_on channel=0 note=70 velocity=85 time=16
note_on channel=0 note=66 velocity=0 time=33
note_on channel=0 note=73 velocity=77 time=1
note_on channel=0 note=58 velocity=81 time=9
note_on channel=0 note=78 velocity=98 time=39
note_on channel=0 note=70 velocity=0 time=9
note_on channel=0 note=58 velocity=0 time=19
note_on channel=0 note=73 velocity=0 time=7
note_on channel=0 note=46 velocity=0 time=5
note_on channel=0 note=49 velocity=0 time=10
note_on channel=0 note=78 velocity=0 time=2
control_change channel=0 control=64 value=114 time=681
control_change channel=0 control=64 value=106 time=24
control_change channel=0 control=64 value=100 time=15
control_change channel=0 control=64 value=94 time=14
control_change channel=0 control=64 value=90 time=16
control_change channel=0 control=64 value=85 time=15
control_change channel=0 control=64 value=80 time=14
control_change channel=0 control=64 value=73 time=16
control_change channel=0 control=64 value=68 time=15
control_change channel=0 control=64 value=66 time=17
control_change channel=0 control=64 value=66 time=15
control_change channel=0 control=64 value=64 time=15
control_change channel=0 control=64 value=63 time=16
control_change channel=0 control=64 value=60 time=14
control_change channel=0 control=64 value=59 time=16
control_change channel=0 control=64 value=57 time=15
control_change channel=0 control=64 value=52 time=15
control_change channel=0 control=64 value=48 time=16
control_change channel=0 control=64 value=47 time=14
control_change channel=0 control=64 value=47 time=15
control_change channel=0 control=64 value=45 time=16
control_change channel=0 control=64 value=40 time=15
control_change channel=0 control=64 value=21 time=16
control_change channel=0 control=64 value=0 time=14
note_on channel=0 note=30 velocity=92 time=109
note_on channel=0 note=78 velocity=93 time=58
control_change channel=0 control=64 value=70 time=16
control_change channel=0 control=64 value=102 time=15
control_change channel=0 control=64 value=127 time=15
note_on channel=0 note=82 velocity=90 time=25
note_on channel=0 note=78 velocity=0 time=29
note_on channel=0 note=37 velocity=86 time=12
note_on channel=0 note=85 velocity=99 time=8
note_on channel=0 note=82 velocity=0 time=23
note_on channel=0 note=85 velocity=0 time=20
note_on channel=0 note=30 velocity=0 time=50
note_on channel=0 note=42 velocity=98 time=89
note_on channel=0 note=90 velocity=111 time=5
note_on channel=0 note=37 velocity=0 time=30
note_on channel=0 note=42 velocity=0 time=3032
note_on channel=0 note=90 velocity=0 time=16
control_change channel=0 control=64 value=111 time=387
control_change channel=0 control=64 value=100 time=15
control_change channel=0 control=64 value=91 time=16
control_change channel=0 control=64 value=83 time=15
control_change channel=0 control=64 value=73 time=14
control_change channel=0 control=64 value=60 time=16
control_change channel=0 control=64 value=0 time=15
<meta message end_of_track time=1>
