tests/data/preprocessed/melody_rnn-attention_rnn-0-2-4-The_Righteous_Brothers_-_Unchained_Melody.7.mid
Length: 94232 ticks = 94.232 beats = 23.558 bars
Tracks: 1
Time Signature: <meta message time_signature numerator=4 denominator=4 clocks_per_click=24 notated_32nd_notes_per_beat=8 time=0>
Track 0: 
ticks_per_beat: 1000
<meta message set_tempo tempo=1000000 time=0>
<meta message set_tempo tempo=1000000 time=0>
<meta message track_name name='' time=1>
<meta message time_signature numerator=4 denominator=4 clocks_per_click=24 notated_32nd_notes_per_beat=8 time=0>
<meta message track_name name='melody  ' time=0>
<meta message track_name name='melody  ' time=0>
note_on channel=1 note=69 velocity=100 time=945
note_on channel=1 note=67 velocity=100 time=313
note_off channel=1 note=69 velocity=100 time=1
note_off channel=1 note=67 velocity=100 time=1257
note_on channel=1 note=69 velocity=100 time=1
note_off channel=1 note=69 velocity=100 time=317
note_on channel=1 note=71 velocity=100 time=0
note_off channel=1 note=71 velocity=100 time=627
note_on channel=1 note=72 velocity=100 time=0
note_off channel=1 note=72 velocity=100 time=945
note_on channel=1 note=71 velocity=100 time=0
note_on channel=1 note=74 velocity=100 time=313
note_off channel=1 note=71 velocity=100 time=1
note_off channel=1 note=74 velocity=100 time=316
note_on channel=1 note=69 velocity=100 time=1
note_off channel=1 note=69 velocity=100 time=314
note_on channel=1 note=64 velocity=100 time=524
note_on channel=1 note=67 velocity=100 time=314
note_off channel=1 note=67 velocity=100 time=1258
note_on channel=1 note=71 velocity=100 time=0
note_off channel=1 note=71 velocity=100 time=317
note_on channel=1 note=69 velocity=100 time=0
note_off channel=1 note=69 velocity=100 time=314
note_on channel=1 note=71 velocity=100 time=0
note_on channel=1 note=72 velocity=100 time=313
note_off channel=1 note=71 velocity=100 time=1
note_off channel=1 note=72 velocity=100 time=316
note_on channel=1 note=74 velocity=100 time=1
note_off channel=1 note=74 velocity=100 time=941
note_on channel=1 note=67 velocity=100 time=0
note_off channel=1 note=67 velocity=100 time=631
note_on channel=1 note=65 velocity=100 time=0
note_on channel=1 note=67 velocity=100 time=630
note_off channel=1 note=65 velocity=100 time=1
note_off channel=1 note=67 velocity=100 time=313
note_on channel=1 note=69 velocity=100 time=0
note_off channel=1 note=69 velocity=100 time=314
note_on channel=1 note=69 velocity=100 time=211
note_on channel=1 note=69 velocity=100 time=0
note_on channel=1 note=69 velocity=100 time=313
note_off channel=1 note=69 velocity=100 time=1
note_off channel=1 note=69 velocity=100 time=317
note_on channel=1 note=72 velocity=100 time=0
note_on channel=1 note=74 velocity=100 time=313
note_off channel=1 note=72 velocity=100 time=1
note_off channel=1 note=74 velocity=100 time=313
note_on channel=1 note=67 velocity=100 time=0
note_off channel=1 note=67 velocity=100 time=314
note_on channel=1 note=71 velocity=100 time=0
note_off channel=1 note=71 velocity=100 time=317
note_on channel=1 note=74 velocity=100 time=0
note_off channel=1 note=74 velocity=100 time=314
note_on channel=1 note=67 velocity=100 time=0
note_on channel=1 note=69 velocity=100 time=313
note_off channel=1 note=67 velocity=100 time=1
note_off channel=1 note=69 velocity=100 time=316
note_on channel=1 note=69 velocity=100 time=0
note_off channel=1 note=69 velocity=100 time=314
note_on channel=1 note=72 velocity=100 time=0
note_off channel=1 note=72 velocity=100 time=314
note_on channel=1 note=72 velocity=100 time=0
note_off channel=1 note=72 velocity=100 time=314
note_on channel=1 note=71 velocity=100 time=0
note_off channel=1 note=71 velocity=100 time=317
note_on channel=1 note=67 velocity=100 time=0
note_on channel=1 note=74 velocity=100 time=313
note_off channel=1 note=67 velocity=100 time=1
note_off channel=1 note=74 velocity=100 time=313
note_on channel=1 note=72 velocity=100 time=0
note_off channel=1 note=72 velocity=100 time=317
note_on channel=1 note=65 velocity=100 time=0
note_off channel=1 note=65 velocity=100 time=314
note_on channel=1 note=69 velocity=100 time=0
note_off channel=1 note=69 velocity=100 time=313
note_on channel=1 note=72 velocity=100 time=1
note_off channel=1 note=72 velocity=100 time=211
note_on channel=1 note=67 velocity=100 time=0
note_on channel=1 note=71 velocity=100 time=313
note_off channel=1 note=67 velocity=100 time=1
note_off channel=1 note=71 velocity=100 time=316
note_on channel=1 note=74 velocity=100 time=0
note_off channel=1 note=74 velocity=100 time=314
note_on channel=1 note=67 velocity=100 time=0
note_off channel=1 note=67 velocity=100 time=314
note_on channel=1 note=69 velocity=100 time=0
note_off channel=1 note=69 velocity=100 time=314
note_on channel=1 note=74 velocity=100 time=0
note_off channel=1 note=74 velocity=100 time=317
note_on channel=1 note=74 velocity=100 time=0
note_on channel=1 note=72 velocity=100 time=313
note_off channel=1 note=74 velocity=100 time=1
note_off channel=1 note=72 velocity=100 time=313
note_on channel=1 note=74 velocity=100 time=0
note_off channel=1 note=74 velocity=100 time=317
note_on channel=1 note=72 velocity=100 time=0
note_off channel=1 note=72 velocity=100 time=314
note_on channel=1 note=74 velocity=100 time=0
note_off channel=1 note=74 velocity=100 time=314
note_on channel=1 note=69 velocity=100 time=0
note_on channel=1 note=79 velocity=100 time=313
note_off channel=1 note=69 velocity=100 time=1
note_off channel=1 note=79 velocity=100 time=316
note_on channel=1 note=71 velocity=100 time=0
note_off channel=1 note=71 velocity=100 time=314
note_on channel=1 note=72 velocity=100 time=0
note_off channel=1 note=72 velocity=100 time=314
note_on channel=1 note=74 velocity=100 time=0
note_off channel=1 note=74 velocity=100 time=1155
note_on channel=1 note=69 velocity=100 time=0
note_off channel=1 note=69 velocity=100 time=314
note_on channel=1 note=74 velocity=100 time=0
note_off channel=1 note=74 velocity=100 time=317
note_on channel=1 note=74 velocity=100 time=0
note_off channel=1 note=74 velocity=100 time=314
note_on channel=1 note=72 velocity=100 time=0
note_off channel=1 note=72 velocity=100 time=314
note_on channel=1 note=74 velocity=100 time=0
note_on channel=1 note=74 velocity=100 time=313
note_off channel=1 note=74 velocity=100 time=1
note_off channel=1 note=74 velocity=100 time=316
note_on channel=1 note=74 velocity=100 time=0
note_off channel=1 note=74 velocity=100 time=314
note_on channel=1 note=74 velocity=100 time=0
note_off channel=1 note=74 velocity=100 time=314
note_on channel=1 note=79 velocity=100 time=0
note_off channel=1 note=79 velocity=100 time=317
note_on channel=1 note=77 velocity=100 time=314
note_off channel=1 note=77 velocity=100 time=314
note_on channel=1 note=74 velocity=100 time=313
note_off channel=1 note=74 velocity=100 time=317
note_on channel=1 note=74 velocity=100 time=1259
note_on channel=1 note=74 velocity=100 time=313
note_off channel=1 note=74 velocity=100 time=1
note_off channel=1 note=74 velocity=100 time=210
note_on channel=1 note=71 velocity=100 time=0
note_off channel=1 note=71 velocity=100 time=314
note_on channel=1 note=74 velocity=100 time=0
note_off channel=1 note=74 velocity=100 time=317
note_on channel=1 note=74 velocity=100 time=0
note_off channel=1 note=74 velocity=100 time=314
note_on channel=1 note=79 velocity=100 time=0
note_on channel=1 note=74 velocity=100 time=313
note_off channel=1 note=79 velocity=100 time=1
note_off channel=1 note=74 velocity=100 time=313
note_on channel=1 note=74 velocity=100 time=0
note_off channel=1 note=74 velocity=100 time=317
note_on channel=1 note=74 velocity=100 time=0
note_off channel=1 note=74 velocity=100 time=314
note_on channel=1 note=79 velocity=100 time=0
note_off channel=1 note=79 velocity=100 time=314
note_on channel=1 note=74 velocity=100 time=0
note_off channel=1 note=74 velocity=100 time=317
note_off channel=1 note=69 velocity=100 time=62022
note_off channel=1 note=64 velocity=100 time=1
<meta message end_of_track time=0>
