/home/ghales/git/tg-server/tests/data/dataset/Simon_&_Garfunkel_-_El_Condor_Pasa.1.mid
Length: 83844 ticks = 218.34375 beats = 54.5859375 bars
Tracks: 2
Time Signature: <meta message time_signature numerator=4 denominator=4 clocks_per_click=24 notated_32nd_notes_per_beat=8 time=0>
Track 0: 
ticks_per_beat: 384
<meta message time_signature numerator=4 denominator=4 clocks_per_click=24 notated_32nd_notes_per_beat=8 time=0>
<meta message set_tempo tempo=1016940 time=0>
<meta message set_tempo tempo=1224480 time=384>
<meta message set_tempo tempo=845070 time=1920>
<meta message set_tempo tempo=845070 time=1536>
<meta message set_tempo tempo=857140 time=3072>
<meta message set_tempo tempo=833330 time=9216>
<meta message set_tempo tempo=882350 time=1152>
<meta message set_tempo tempo=937500 time=768>
<meta message set_tempo tempo=1132070 time=768>
<meta message end_of_track time=0>
Track 1: MELODY
ticks_per_beat: 384
<meta message track_name name='MELODY' time=0>
control_change channel=3 control=121 value=0 time=0
pitchwheel channel=3 pitch=0 time=94
control_change channel=3 control=7 value=102 time=8
control_change channel=3 control=10 value=64 time=2
control_change channel=3 control=11 value=127 time=2
control_change channel=3 control=91 value=96 time=2
control_change channel=3 control=93 value=50 time=2
control_change channel=3 control=32 value=0 time=194
program_change channel=3 program=40 time=0
control_change channel=3 control=0 value=0 time=0
note_on channel=3 note=59 velocity=92 time=15756
note_off channel=3 note=59 velocity=0 time=150
note_on channel=3 note=64 velocity=95 time=58
note_off channel=3 note=64 velocity=0 time=168
note_on channel=3 note=63 velocity=93 time=6
note_off channel=3 note=63 velocity=0 time=190
note_on channel=3 note=64 velocity=92 time=4
note_on channel=3 note=66 velocity=94 time=190
note_off channel=3 note=64 velocity=0 time=14
note_on channel=3 note=67 velocity=101 time=182
note_off channel=3 note=66 velocity=0 time=8
note_off channel=3 note=67 velocity=0 time=172
note_on channel=3 note=66 velocity=96 time=8
note_on channel=3 note=67 velocity=98 time=198
note_off channel=3 note=66 velocity=0 time=2
note_off channel=3 note=67 velocity=0 time=182
note_on channel=3 note=69 velocity=91 time=14
note_off channel=3 note=69 velocity=0 time=168
note_on channel=3 note=71 velocity=106 time=28
note_off channel=3 note=71 velocity=0 time=1034
note_on channel=3 note=74 velocity=120 time=106
note_off channel=3 note=74 velocity=0 time=26
note_on channel=3 note=74 velocity=120 time=72
note_off channel=3 note=74 velocity=0 time=250
note_on channel=3 note=71 velocity=120 time=26
pitchwheel channel=3 pitch=3380 time=6
pitchwheel channel=3 pitch=4891 time=16
pitchwheel channel=3 pitch=6113 time=16
pitchwheel channel=3 pitch=3740 time=16
pitchwheel channel=3 pitch=0 time=16
note_off channel=3 note=71 velocity=0 time=944
pitchwheel channel=3 pitch=-6372 time=126
note_on channel=3 note=76 velocity=116 time=6
pitchwheel channel=3 pitch=-7662 time=10
pitchwheel channel=3 pitch=0 time=16
note_off channel=3 note=76 velocity=0 time=38
note_on channel=3 note=74 velocity=116 time=54
note_off channel=3 note=74 velocity=0 time=248
pitchwheel channel=3 pitch=2949 time=30
note_on channel=3 note=71 velocity=113 time=2
pitchwheel channel=3 pitch=3092 time=14
pitchwheel channel=3 pitch=0 time=16
note_off channel=3 note=71 velocity=0 time=774
note_on channel=3 note=71 velocity=113 time=160
note_off channel=3 note=71 velocity=0 time=42
note_on channel=3 note=69 velocity=99 time=154
pitchwheel channel=3 pitch=1294 time=124
pitchwheel channel=3 pitch=4099 time=16
pitchwheel channel=3 pitch=4171 time=16
pitchwheel channel=3 pitch=0 time=16
note_off channel=3 note=69 velocity=0 time=12
note_on channel=3 note=67 velocity=95 time=10
note_off channel=3 note=67 velocity=0 time=78
note_on channel=3 note=69 velocity=99 time=18
note_off channel=3 note=69 velocity=0 time=176
note_on channel=3 note=67 velocity=100 time=12
note_off channel=3 note=67 velocity=0 time=88
note_on channel=3 note=64 velocity=103 time=8
note_off channel=3 note=64 velocity=0 time=562
note_on channel=3 note=71 velocity=104 time=400
pitchwheel channel=3 pitch=215 time=10
pitchwheel channel=3 pitch=0 time=16
note_off channel=3 note=71 velocity=0 time=222
pitchwheel channel=3 pitch=2805 time=26
note_on channel=3 note=69 velocity=95 time=6
pitchwheel channel=3 pitch=4315 time=12
pitchwheel channel=3 pitch=2589 time=22
pitchwheel channel=3 pitch=0 time=16
note_off channel=3 note=69 velocity=0 time=124
note_on channel=3 note=67 velocity=105 time=12
note_off channel=3 note=67 velocity=0 time=92
note_on channel=3 note=64 velocity=103 time=16
note_off channel=3 note=64 velocity=0 time=636
note_on channel=3 note=59 velocity=109 time=504
note_off channel=3 note=59 velocity=0 time=62
note_on channel=3 note=64 velocity=113 time=138
note_on channel=3 note=63 velocity=105 time=178
note_off channel=3 note=64 velocity=0 time=4
note_on channel=3 note=64 velocity=111 time=94
note_off channel=3 note=63 velocity=0 time=6
note_on channel=3 note=66 velocity=111 time=272
note_off channel=3 note=64 velocity=0 time=16
note_on channel=3 note=67 velocity=111 time=186
note_off channel=3 note=66 velocity=0 time=6
note_on channel=3 note=66 velocity=111 time=184
note_off channel=3 note=67 velocity=0 time=2
note_on channel=3 note=67 velocity=107 time=194
note_off channel=3 note=66 velocity=0 time=10
note_off channel=3 note=67 velocity=0 time=168
note_on channel=3 note=69 velocity=107 time=12
note_off channel=3 note=69 velocity=0 time=186
note_on channel=3 note=71 velocity=111 time=14
pitchwheel channel=3 pitch=-380 time=2
pitchwheel channel=3 pitch=-2124 time=24
pitchwheel channel=3 pitch=0 time=18
note_on channel=3 note=69 velocity=100 time=230
note_off channel=3 note=71 velocity=0 time=18
note_on channel=3 note=67 velocity=107 time=80
note_off channel=3 note=69 velocity=0 time=20
note_off channel=3 note=67 velocity=0 time=558
note_on channel=3 note=76 velocity=118 time=204
note_off channel=3 note=76 velocity=0 time=34
note_on channel=3 note=74 velocity=105 time=78
pitchwheel channel=3 pitch=1150 time=166
pitchwheel channel=3 pitch=3596 time=16
pitchwheel channel=3 pitch=0 time=32
note_off channel=3 note=74 velocity=0 time=22
note_on channel=3 note=71 velocity=111 time=12
note_off channel=3 note=71 velocity=0 time=734
note_on channel=3 note=76 velocity=109 time=246
note_off channel=3 note=76 velocity=0 time=38
note_on channel=3 note=74 velocity=98 time=52
note_off channel=3 note=74 velocity=0 time=38
note_on channel=3 note=76 velocity=113 time=54
pitchwheel channel=3 pitch=5106 time=4
pitchwheel channel=3 pitch=5035 time=16
pitchwheel channel=3 pitch=0 time=16
note_off channel=3 note=76 velocity=0 time=134
note_on channel=3 note=74 velocity=103 time=20
note_off channel=3 note=74 velocity=0 time=46
note_on channel=3 note=76 velocity=116 time=52
note_off channel=3 note=76 velocity=0 time=190
note_on channel=3 note=74 velocity=107 time=8
note_off channel=3 note=74 velocity=0 time=78
note_on channel=3 note=71 velocity=96 time=16
note_off channel=3 note=71 velocity=0 time=600
note_on channel=3 note=71 velocity=111 time=190
note_off channel=3 note=71 velocity=0 time=42
note_on channel=3 note=69 velocity=109 time=142
pitchwheel channel=3 pitch=2589 time=132
pitchwheel channel=3 pitch=3668 time=16
note_off channel=3 note=69 velocity=0 time=16
pitchwheel channel=3 pitch=0 time=0
note_on channel=3 note=67 velocity=109 time=6
note_off channel=3 note=67 velocity=0 time=104
note_on channel=3 note=69 velocity=107 time=6
note_off channel=3 note=69 velocity=0 time=176
note_on channel=3 note=67 velocity=98 time=8
note_off channel=3 note=67 velocity=0 time=102
note_on channel=3 note=64 velocity=105 time=4
note_off channel=3 note=64 velocity=0 time=608
note_on channel=3 note=71 velocity=105 time=344
note_off channel=3 note=71 velocity=0 time=226
pitchwheel channel=3 pitch=5250 time=64
note_on channel=3 note=69 velocity=103 time=2
pitchwheel channel=3 pitch=3164 time=22
pitchwheel channel=3 pitch=0 time=18
note_off channel=3 note=69 velocity=0 time=144
note_on channel=3 note=67 velocity=100 time=10
note_off channel=3 note=67 velocity=0 time=90
note_on channel=3 note=64 velocity=103 time=8
note_off channel=3 note=64 velocity=0 time=596
note_on channel=3 note=71 velocity=118 time=560
note_off channel=3 note=71 velocity=0 time=146
note_on channel=3 note=76 velocity=113 time=48
note_off channel=3 note=76 velocity=0 time=548
note_on channel=3 note=74 velocity=105 time=16
note_off channel=3 note=74 velocity=0 time=162
note_on channel=3 note=76 velocity=120 time=30
note_off channel=3 note=76 velocity=0 time=274
note_on channel=3 note=74 velocity=107 time=16
note_off channel=3 note=74 velocity=0 time=76
note_on channel=3 note=76 velocity=116 time=22
note_off channel=3 note=76 velocity=0 time=282
note_on channel=3 note=78 velocity=109 time=10
note_off channel=3 note=78 velocity=0 time=68
note_on channel=3 note=79 velocity=116 time=26
note_off channel=3 note=79 velocity=0 time=276
note_on channel=3 note=78 velocity=107 time=16
note_off channel=3 note=78 velocity=0 time=68
note_on channel=3 note=76 velocity=94 time=20
note_off channel=3 note=76 velocity=0 time=692
note_on channel=3 note=79 velocity=118 time=88
note_off channel=3 note=79 velocity=0 time=102
note_on channel=3 note=76 velocity=116 time=90
note_off channel=3 note=76 velocity=0 time=142
note_on channel=3 note=74 velocity=118 time=44
note_off channel=3 note=74 velocity=0 time=910
note_on channel=3 note=74 velocity=118 time=52
note_off channel=3 note=74 velocity=0 time=144
note_on channel=3 note=76 velocity=113 time=50
note_off channel=3 note=76 velocity=0 time=166
note_on channel=3 note=74 velocity=107 time=20
note_off channel=3 note=74 velocity=0 time=172
note_on channel=3 note=71 velocity=109 time=28
note_off channel=3 note=71 velocity=0 time=1080
note_on channel=3 note=71 velocity=113 time=256
note_off channel=3 note=71 velocity=0 time=138
note_on channel=3 note=76 velocity=116 time=46
note_off channel=3 note=76 velocity=0 time=564
note_on channel=3 note=74 velocity=109 time=16
note_off channel=3 note=74 velocity=0 time=146
note_on channel=3 note=76 velocity=116 time=40
note_off channel=3 note=76 velocity=0 time=274
note_on channel=3 note=74 velocity=105 time=18
note_off channel=3 note=74 velocity=0 time=66
note_on channel=3 note=76 velocity=113 time=40
note_off channel=3 note=76 velocity=0 time=256
note_on channel=3 note=74 velocity=109 time=26
note_off channel=3 note=74 velocity=0 time=60
note_on channel=3 note=76 velocity=116 time=40
note_off channel=3 note=76 velocity=0 time=954
note_on channel=3 note=79 velocity=111 time=180
note_off channel=3 note=79 velocity=0 time=86
note_on channel=3 note=76 velocity=111 time=114
note_off channel=3 note=76 velocity=0 time=84
note_on channel=3 note=74 velocity=105 time=16
note_off channel=3 note=74 velocity=0 time=994
note_on channel=3 note=74 velocity=113 time=76
note_off channel=3 note=74 velocity=0 time=104
note_on channel=3 note=76 velocity=113 time=88
note_off channel=3 note=76 velocity=0 time=168
note_on channel=3 note=74 velocity=111 time=20
note_off channel=3 note=74 velocity=0 time=182
note_on channel=3 note=71 velocity=107 time=14
note_off channel=3 note=71 velocity=0 time=668
note_on channel=3 note=71 velocity=120 time=280
note_off channel=3 note=71 velocity=0 time=42
note_on channel=3 note=69 velocity=118 time=154
note_off channel=3 note=69 velocity=0 time=150
note_on channel=3 note=67 velocity=118 time=40
pitchwheel channel=3 pitch=5610 time=2
pitchwheel channel=3 pitch=4459 time=14
pitchwheel channel=3 pitch=0 time=16
note_off channel=3 note=67 velocity=0 time=66
note_on channel=3 note=69 velocity=116 time=10
note_off channel=3 note=69 velocity=0 time=184
note_on channel=3 note=67 velocity=109 time=6
note_off channel=3 note=67 velocity=0 time=90
note_on channel=3 note=64 velocity=111 time=2
note_off channel=3 note=64 velocity=0 time=740
pitchwheel channel=3 pitch=-6220 time=198
note_on channel=3 note=71 velocity=92 time=0
pitchwheel channel=3 pitch=-5917 time=14
pitchwheel channel=3 pitch=-3262 time=16
pitchwheel channel=3 pitch=-607 time=16
pitchwheel channel=3 pitch=0 time=18
note_off channel=3 note=71 velocity=0 time=200
note_on channel=3 note=71 velocity=87 time=50
pitchwheel channel=3 pitch=-3490 time=6
pitchwheel channel=3 pitch=-3262 time=24
pitchwheel channel=3 pitch=-1366 time=16
pitchwheel channel=3 pitch=0 time=16
note_off channel=3 note=71 velocity=0 time=810
note_on channel=3 note=59 velocity=100 time=2102
note_off channel=3 note=59 velocity=0 time=160
note_on channel=3 note=64 velocity=105 time=42
note_off channel=3 note=64 velocity=0 time=178
note_on channel=3 note=63 velocity=96 time=0
note_off channel=3 note=63 velocity=0 time=162
note_on channel=3 note=64 velocity=105 time=12
note_off channel=3 note=64 velocity=0 time=206
note_on channel=3 note=66 velocity=109 time=2
note_off channel=3 note=66 velocity=0 time=90
note_on channel=3 note=67 velocity=116 time=2
note_on channel=3 note=66 velocity=105 time=286
note_off channel=3 note=67 velocity=0 time=6
note_on channel=3 note=67 velocity=109 time=196
note_off channel=3 note=66 velocity=0 time=8
note_on channel=3 note=69 velocity=109 time=186
note_off channel=3 note=67 velocity=0 time=8
note_off channel=3 note=69 velocity=0 time=164
note_on channel=3 note=71 velocity=105 time=10
note_off channel=3 note=71 velocity=0 time=350
note_on channel=3 note=74 velocity=116 time=808
note_off channel=3 note=74 velocity=0 time=58
note_on channel=3 note=74 velocity=116 time=40
note_off channel=3 note=74 velocity=0 time=272
note_on channel=3 note=71 velocity=113 time=8
note_off channel=3 note=71 velocity=0 time=392
note_on channel=3 note=76 velocity=111 time=764
pitchwheel channel=3 pitch=-8192 time=4
pitchwheel channel=3 pitch=-6448 time=18
pitchwheel channel=3 pitch=0 time=16
note_off channel=3 note=76 velocity=0 time=16
note_on channel=3 note=74 velocity=105 time=52
note_off channel=3 note=74 velocity=0 time=256
note_on channel=3 note=76 velocity=105 time=34
note_off channel=3 note=76 velocity=0 time=184
note_on channel=3 note=74 velocity=100 time=16
note_off channel=3 note=74 velocity=0 time=170
note_on channel=3 note=71 velocity=94 time=10
note_off channel=3 note=71 velocity=0 time=368
pitchwheel channel=3 pitch=-4248 time=184
note_on channel=3 note=71 velocity=105 time=14
pitchwheel channel=3 pitch=-5765 time=10
pitchwheel channel=3 pitch=0 time=16
note_off channel=3 note=71 velocity=0 time=32
note_on channel=3 note=69 velocity=107 time=134
pitchwheel channel=3 pitch=6185 time=6
pitchwheel channel=3 pitch=0 time=24
note_off channel=3 note=69 velocity=0 time=150
note_on channel=3 note=67 velocity=100 time=2
note_off channel=3 note=67 velocity=0 time=58
note_on channel=3 note=69 velocity=103 time=46
note_off channel=3 note=69 velocity=0 time=172
note_on channel=3 note=67 velocity=92 time=10
note_off channel=3 note=67 velocity=0 time=84
note_on channel=3 note=64 velocity=75 time=24
note_off channel=3 note=64 velocity=0 time=346
note_on channel=3 note=59 velocity=96 time=798
note_off channel=3 note=59 velocity=0 time=124
note_on channel=3 note=64 velocity=105 time=74
note_on channel=3 note=63 velocity=98 time=182
note_off channel=3 note=64 velocity=0 time=8
note_off channel=3 note=63 velocity=0 time=90
note_on channel=3 note=64 velocity=96 time=2
note_on channel=3 note=66 velocity=96 time=286
note_off channel=3 note=64 velocity=0 time=16
note_on channel=3 note=67 velocity=96 time=178
note_off channel=3 note=66 velocity=0 time=2
note_off channel=3 note=67 velocity=0 time=176
note_on channel=3 note=66 velocity=90 time=10
note_on channel=3 note=67 velocity=94 time=198
note_off channel=3 note=66 velocity=0 time=6
note_off channel=3 note=67 velocity=0 time=184
note_on channel=3 note=69 velocity=100 time=12
note_off channel=3 note=69 velocity=0 time=190
note_on channel=3 note=71 velocity=90 time=8
note_off channel=3 note=71 velocity=0 time=352
note_on channel=3 note=76 velocity=100 time=776
pitchwheel channel=3 pitch=-5386 time=4
pitchwheel channel=3 pitch=-3566 time=16
pitchwheel channel=3 pitch=0 time=16
note_off channel=3 note=76 velocity=0 time=28
note_on channel=3 note=74 velocity=105 time=60
note_off channel=3 note=74 velocity=0 time=256
note_on channel=3 note=71 velocity=98 time=4
note_off channel=3 note=71 velocity=0 time=424
note_on channel=3 note=76 velocity=107 time=548
pitchwheel channel=3 pitch=-3717 time=2
pitchwheel channel=3 pitch=0 time=24
note_off channel=3 note=76 velocity=0 time=64
note_on channel=3 note=74 velocity=98 time=18
note_off channel=3 note=74 velocity=0 time=78
note_on channel=3 note=76 velocity=105 time=12
note_off channel=3 note=76 velocity=0 time=188
note_on channel=3 note=74 velocity=85 time=2
note_off channel=3 note=74 velocity=0 time=50
pitchwheel channel=3 pitch=-2352 time=44
note_on channel=3 note=76 velocity=107 time=4
pitchwheel channel=3 pitch=-2579 time=12
pitchwheel channel=3 pitch=0 time=16
note_on channel=3 note=74 velocity=105 time=156
note_off channel=3 note=76 velocity=0 time=8
note_off channel=3 note=74 velocity=0 time=78
note_on channel=3 note=71 velocity=81 time=18
note_off channel=3 note=71 velocity=0 time=656
note_on channel=3 note=71 velocity=105 time=96
note_off channel=3 note=71 velocity=0 time=58
note_on channel=3 note=69 velocity=105 time=156
note_on channel=3 note=67 velocity=70 time=180
note_off channel=3 note=69 velocity=0 time=4
note_off channel=3 note=67 velocity=0 time=70
note_on channel=3 note=69 velocity=96 time=20
pitchwheel channel=3 pitch=-2959 time=4
pitchwheel channel=3 pitch=-3490 time=18
pitchwheel channel=3 pitch=0 time=14
note_off channel=3 note=69 velocity=0 time=148
note_on channel=3 note=67 velocity=77 time=12
note_off channel=3 note=67 velocity=0 time=90
note_on channel=3 note=64 velocity=98 time=2
note_off channel=3 note=64 velocity=0 time=748
control_change channel=3 control=123 value=0 time=17138
control_change channel=3 control=120 value=0 time=0
<meta message end_of_track time=368>
