tests/data/preprocessed/melody_rnn-attention_rnn-0-5-3-10cc_-_Dreadlock_Holiday.2.mid
Length: 37376 ticks = 37.376 beats = 9.344 bars
Tracks: 1
Time Signature: <meta message time_signature numerator=4 denominator=4 clocks_per_click=24 notated_32nd_notes_per_beat=8 time=0>
Track 0: 
ticks_per_beat: 1000
<meta message set_tempo tempo=1000000 time=0>
<meta message set_tempo tempo=1000000 time=0>
<meta message set_tempo tempo=1000000 time=0>
<meta message track_name name='' time=2>
<meta message smpte_offset frame_rate=25 hours=32 minutes=0 seconds=3 frames=0 sub_frames=0 time=0>
<meta message midi_port port=0 time=0>
sysex data=(126,127,9,1) time=0
<meta message midi_port port=0 time=0>
sysex data=(65,16,66,18,64,0,127,0,65) time=0
<meta message midi_port port=0 time=0>
<meta message time_signature numerator=4 denominator=4 clocks_per_click=24 notated_32nd_notes_per_beat=8 time=0>
<meta message key_signature key='Bb' time=0>
note_on channel=1 note=58 velocity=100 time=169
note_off channel=1 note=58 velocity=100 time=85
note_on channel=1 note=57 velocity=100 time=0
note_off channel=1 note=57 velocity=100 time=85
note_on channel=1 note=55 velocity=100 time=592
note_off channel=1 note=55 velocity=100 time=85
note_on channel=1 note=55 velocity=100 time=0
note_off channel=1 note=55 velocity=100 time=85
note_on channel=1 note=58 velocity=100 time=0
note_off channel=1 note=58 velocity=100 time=85
note_on channel=1 note=58 velocity=100 time=0
note_off channel=1 note=58 velocity=100 time=85
note_on channel=1 note=60 velocity=100 time=0
note_off channel=1 note=60 velocity=100 time=85
note_on channel=1 note=58 velocity=100 time=0
note_off channel=1 note=58 velocity=100 time=85
note_on channel=1 note=55 velocity=100 time=0
note_off channel=1 note=55 velocity=100 time=85
note_on channel=1 note=55 velocity=100 time=510
note_off channel=1 note=55 velocity=100 time=85
note_on channel=1 note=55 velocity=100 time=0
note_off channel=1 note=55 velocity=100 time=39
note_on channel=1 note=55 velocity=100 time=595
note_off channel=1 note=55 velocity=100 time=85
note_on channel=1 note=55 velocity=100 time=0
note_off channel=1 note=55 velocity=100 time=85
note_on channel=1 note=58 velocity=100 time=0
note_off channel=1 note=58 velocity=100 time=85
note_on channel=1 note=58 velocity=100 time=0
note_off channel=1 note=58 velocity=100 time=85
note_on channel=1 note=60 velocity=100 time=0
note_off channel=1 note=60 velocity=100 time=85
note_on channel=1 note=57 velocity=100 time=0
note_off channel=1 note=57 velocity=100 time=82
note_on channel=1 note=55 velocity=100 time=0
note_off channel=1 note=55 velocity=100 time=85
note_on channel=1 note=55 velocity=100 time=510
note_off channel=1 note=55 velocity=100 time=85
note_on channel=1 note=55 velocity=100 time=0
note_off channel=1 note=55 velocity=100 time=85
note_on channel=1 note=55 velocity=100 time=0
note_off channel=1 note=55 velocity=100 time=85
note_on channel=1 note=58 velocity=100 time=0
note_off channel=1 note=58 velocity=100 time=85
note_on channel=1 note=60 velocity=100 time=0
note_off channel=1 note=60 velocity=100 time=85
note_on channel=1 note=58 velocity=100 time=0
note_off channel=1 note=58 velocity=100 time=85
note_on channel=1 note=57 velocity=100 time=0
note_off channel=1 note=57 velocity=100 time=85
note_on channel=1 note=55 velocity=100 time=39
note_on channel=1 note=55 velocity=100 time=0
note_off channel=1 note=55 velocity=100 time=85
note_on channel=1 note=55 velocity=100 time=0
note_off channel=1 note=55 velocity=100 time=85
note_on channel=1 note=58 velocity=100 time=0
note_off channel=1 note=58 velocity=100 time=85
note_on channel=1 note=60 velocity=100 time=0
note_off channel=1 note=60 velocity=100 time=85
note_on channel=1 note=58 velocity=100 time=0
note_off channel=1 note=58 velocity=100 time=85
note_on channel=1 note=57 velocity=100 time=0
note_off channel=1 note=57 velocity=100 time=85
note_on channel=1 note=55 velocity=100 time=0
note_off channel=1 note=55 velocity=100 time=85
note_on channel=1 note=55 velocity=100 time=507
note_off channel=1 note=55 velocity=100 time=85
note_on channel=1 note=55 velocity=100 time=0
note_off channel=1 note=55 velocity=100 time=85
note_on channel=1 note=58 velocity=100 time=0
note_off channel=1 note=58 velocity=100 time=85
note_on channel=1 note=58 velocity=100 time=0
note_off channel=1 note=58 velocity=100 time=85
note_on channel=1 note=60 velocity=100 time=0
note_off channel=1 note=60 velocity=100 time=85
note_on channel=1 note=58 velocity=100 time=0
note_off channel=1 note=58 velocity=100 time=85
note_on channel=1 note=57 velocity=100 time=0
note_off channel=1 note=57 velocity=100 time=85
note_on channel=1 note=58 velocity=100 time=0
note_off channel=1 note=58 velocity=100 time=85
note_on channel=1 note=58 velocity=100 time=0
note_off channel=1 note=58 velocity=100 time=85
note_on channel=1 note=55 velocity=100 time=0
note_off channel=1 note=55 velocity=100 time=85
note_on channel=1 note=55 velocity=100 time=85
note_off channel=1 note=55 velocity=100 time=85
note_on channel=1 note=55 velocity=100 time=85
note_off channel=1 note=55 velocity=100 time=85
note_on channel=1 note=55 velocity=100 time=0
note_off channel=1 note=55 velocity=100 time=39
note_on channel=1 note=55 velocity=100 time=510
note_off channel=1 note=55 velocity=100 time=85
note_on channel=1 note=55 velocity=100 time=0
note_off channel=1 note=55 velocity=100 time=85
note_on channel=1 note=55 velocity=100 time=0
note_off channel=1 note=55 velocity=100 time=85
note_on channel=1 note=58 velocity=100 time=0
note_off channel=1 note=58 velocity=100 time=85
note_on channel=1 note=58 velocity=100 time=0
note_off channel=1 note=58 velocity=100 time=85
note_on channel=1 note=60 velocity=100 time=0
note_off channel=1 note=60 velocity=100 time=85
note_on channel=1 note=58 velocity=100 time=0
note_off channel=1 note=58 velocity=100 time=82
note_on channel=1 note=55 velocity=100 time=0
note_off channel=1 note=55 velocity=100 time=85
note_on channel=1 note=60 velocity=100 time=0
note_off channel=1 note=60 velocity=100 time=85
note_on channel=1 note=58 velocity=100 time=0
note_off channel=1 note=58 velocity=100 time=85
note_on channel=1 note=60 velocity=100 time=85
note_off channel=1 note=60 velocity=100 time=85
note_on channel=1 note=58 velocity=100 time=0
note_off channel=1 note=58 velocity=100 time=85
note_on channel=1 note=55 velocity=100 time=85
note_off channel=1 note=55 velocity=100 time=85
note_on channel=1 note=58 velocity=100 time=85
note_off channel=1 note=58 velocity=100 time=85
note_on channel=1 note=60 velocity=100 time=0
note_off channel=1 note=60 velocity=100 time=85
note_on channel=1 note=55 velocity=100 time=85
note_off channel=1 note=55 velocity=100 time=85
note_on channel=1 note=60 velocity=100 time=0
note_off channel=1 note=60 velocity=100 time=85
note_on channel=1 note=60 velocity=100 time=0
note_off channel=1 note=60 velocity=100 time=39
note_on channel=1 note=55 velocity=100 time=0
note_off channel=1 note=55 velocity=100 time=85
note_on channel=1 note=55 velocity=100 time=0
note_off channel=1 note=55 velocity=100 time=85
note_on channel=1 note=58 velocity=100 time=0
note_off channel=1 note=58 velocity=100 time=85
note_on channel=1 note=60 velocity=100 time=0
note_off channel=1 note=60 velocity=100 time=85
note_on channel=1 note=58 velocity=100 time=0
note_off channel=1 note=58 velocity=100 time=85
note_on channel=1 note=57 velocity=100 time=0
note_off channel=1 note=57 velocity=100 time=85
note_on channel=1 note=55 velocity=100 time=0
note_off channel=1 note=55 velocity=100 time=85
note_on channel=1 note=60 velocity=100 time=0
note_off channel=1 note=60 velocity=100 time=85
note_on channel=1 note=57 velocity=100 time=0
note_off channel=1 note=57 velocity=100 time=85
note_on channel=1 note=58 velocity=100 time=85
note_off channel=1 note=58 velocity=100 time=85
note_on channel=1 note=60 velocity=100 time=0
note_off channel=1 note=60 velocity=100 time=85
note_on channel=1 note=55 velocity=100 time=82
note_off channel=1 note=55 velocity=100 time=85
note_on channel=1 note=58 velocity=100 time=85
note_off channel=1 note=58 velocity=100 time=85
note_on channel=1 note=60 velocity=100 time=0
note_off channel=1 note=60 velocity=100 time=85
note_on channel=1 note=55 velocity=100 time=85
note_off channel=1 note=55 velocity=100 time=85
note_on channel=1 note=60 velocity=100 time=0
note_off channel=1 note=60 velocity=100 time=85
note_on channel=1 note=57 velocity=100 time=0
note_off channel=1 note=57 velocity=100 time=85
note_on channel=1 note=60 velocity=100 time=0
note_off channel=1 note=60 velocity=100 time=85
note_on channel=1 note=55 velocity=100 time=0
note_off channel=1 note=55 velocity=100 time=85
note_on channel=1 note=55 velocity=100 time=0
note_off channel=1 note=55 velocity=100 time=85
note_on channel=1 note=60 velocity=100 time=0
note_off channel=1 note=60 velocity=100 time=85
note_on channel=1 note=58 velocity=100 time=0
note_off channel=1 note=58 velocity=100 time=85
note_on channel=1 note=55 velocity=100 time=0
note_off channel=1 note=55 velocity=100 time=85
note_on channel=1 note=55 velocity=100 time=0
note_off channel=1 note=55 velocity=100 time=39
note_on channel=1 note=60 velocity=100 time=0
note_off channel=1 note=60 velocity=100 time=85
note_on channel=1 note=58 velocity=100 time=0
note_off channel=1 note=58 velocity=100 time=85
note_on channel=1 note=58 velocity=100 time=85
note_off channel=1 note=58 velocity=100 time=85
note_on channel=1 note=60 velocity=100 time=0
note_off channel=1 note=60 velocity=100 time=85
note_on channel=1 note=55 velocity=100 time=85
note_off channel=1 note=55 velocity=100 time=85
note_on channel=1 note=55 velocity=100 time=0
note_off channel=1 note=55 velocity=100 time=85
note_on channel=1 note=55 velocity=100 time=0
note_off channel=1 note=55 velocity=100 time=85
note_on channel=1 note=60 velocity=100 time=0
note_off channel=1 note=60 velocity=100 time=85
note_on channel=1 note=57 velocity=100 time=0
note_off channel=1 note=57 velocity=100 time=85
note_on channel=1 note=58 velocity=100 time=85
note_off channel=1 note=58 velocity=100 time=82
note_on channel=1 note=60 velocity=100 time=0
note_off channel=1 note=60 velocity=100 time=85
note_on channel=1 note=60 velocity=100 time=0
note_off channel=1 note=60 velocity=100 time=85
note_on channel=1 note=57 velocity=100 time=0
note_off channel=1 note=57 velocity=100 time=85
note_on channel=1 note=58 velocity=100 time=85
note_off channel=1 note=58 velocity=100 time=85
note_on channel=1 note=60 velocity=100 time=0
note_off channel=1 note=60 velocity=100 time=85
note_on channel=1 note=58 velocity=100 time=0
note_off channel=1 note=58 velocity=100 time=85
note_on channel=1 note=55 velocity=100 time=0
note_off channel=1 note=55 velocity=100 time=85
note_on channel=1 note=55 velocity=100 time=85
note_off channel=1 note=55 velocity=100 time=85
note_on channel=1 note=60 velocity=100 time=0
note_off channel=1 note=60 velocity=100 time=85
note_on channel=1 note=60 velocity=100 time=0
note_off channel=1 note=60 velocity=100 time=85
note_on channel=1 note=60 velocity=100 time=0
note_off channel=1 note=60 velocity=100 time=85
note_on channel=1 note=60 velocity=100 time=0
note_off channel=1 note=60 velocity=100 time=85
note_on channel=1 note=60 velocity=100 time=0
note_off channel=1 note=60 velocity=100 time=39
note_on channel=1 note=55 velocity=100 time=0
note_off channel=1 note=55 velocity=100 time=85
note_on channel=1 note=60 velocity=100 time=0
note_off channel=1 note=60 velocity=100 time=85
note_on channel=1 note=55 velocity=100 time=85
note_off channel=1 note=55 velocity=100 time=85
note_on channel=1 note=60 velocity=100 time=0
note_off channel=1 note=60 velocity=100 time=85
note_on channel=1 note=57 velocity=100 time=0
note_off channel=1 note=57 velocity=100 time=85
note_on channel=1 note=60 velocity=100 time=0
note_off channel=1 note=60 velocity=100 time=85
note_on channel=1 note=55 velocity=100 time=0
note_off channel=1 note=55 velocity=100 time=85
note_on channel=1 note=55 velocity=100 time=0
note_off channel=1 note=55 velocity=100 time=85
note_on channel=1 note=60 velocity=100 time=0
note_off channel=1 note=60 velocity=100 time=85
note_on channel=1 note=58 velocity=100 time=0
note_off channel=1 note=58 velocity=100 time=85
note_on channel=1 note=55 velocity=100 time=0
note_off channel=1 note=55 velocity=100 time=85
note_on channel=1 note=55 velocity=100 time=0
note_off channel=1 note=55 velocity=100 time=82
note_on channel=1 note=55 velocity=100 time=0
note_off channel=1 note=55 velocity=100 time=85
note_on channel=1 note=58 velocity=100 time=0
note_off channel=1 note=58 velocity=100 time=85
note_on channel=1 note=60 velocity=100 time=0
note_off channel=1 note=60 velocity=100 time=85
note_on channel=1 note=60 velocity=100 time=0
note_off channel=1 note=60 velocity=100 time=85
note_on channel=1 note=58 velocity=100 time=0
note_off channel=1 note=58 velocity=100 time=85
note_on channel=1 note=60 velocity=100 time=0
note_off channel=1 note=60 velocity=100 time=85
note_on channel=1 note=60 velocity=100 time=0
note_off channel=1 note=60 velocity=100 time=85
note_on channel=1 note=60 velocity=100 time=0
note_off channel=1 note=60 velocity=100 time=85
note_on channel=1 note=60 velocity=100 time=0
note_off channel=1 note=60 velocity=100 time=85
note_on channel=1 note=60 velocity=100 time=0
note_off channel=1 note=60 velocity=100 time=85
note_on channel=1 note=60 velocity=100 time=0
note_off channel=1 note=60 velocity=100 time=85
note_on channel=1 note=60 velocity=100 time=0
note_off channel=1 note=60 velocity=100 time=85
note_on channel=1 note=60 velocity=100 time=0
note_off channel=1 note=60 velocity=100 time=85
note_on channel=1 note=60 velocity=100 time=0
note_off channel=1 note=60 velocity=100 time=85
note_on channel=1 note=60 velocity=100 time=0
note_off channel=1 note=60 velocity=100 time=39
note_on channel=1 note=55 velocity=100 time=0
note_off channel=1 note=55 velocity=100 time=85
note_on channel=1 note=60 velocity=100 time=0
note_off channel=1 note=60 velocity=100 time=85
note_on channel=1 note=55 velocity=100 time=0
note_off channel=1 note=55 velocity=100 time=85
note_on channel=1 note=55 velocity=100 time=0
note_off channel=1 note=55 velocity=100 time=85
note_on channel=1 note=60 velocity=100 time=0
note_off channel=1 note=60 velocity=100 time=85
note_on channel=1 note=58 velocity=100 time=0
note_off channel=1 note=58 velocity=100 time=85
note_on channel=1 note=55 velocity=100 time=0
note_off channel=1 note=55 velocity=100 time=85
note_on channel=1 note=55 velocity=100 time=0
note_off channel=1 note=55 velocity=100 time=85
note_on channel=1 note=55 velocity=100 time=0
note_off channel=1 note=55 velocity=100 time=85
note_on channel=1 note=58 velocity=100 time=0
note_off channel=1 note=58 velocity=100 time=85
note_on channel=1 note=60 velocity=100 time=0
note_off channel=1 note=60 velocity=100 time=85
note_on channel=1 note=60 velocity=100 time=0
note_off channel=1 note=60 velocity=100 time=85
note_on channel=1 note=58 velocity=100 time=0
note_off channel=1 note=58 velocity=100 time=82
note_on channel=1 note=60 velocity=100 time=0
note_off channel=1 note=60 velocity=100 time=85
note_on channel=1 note=60 velocity=100 time=0
note_off channel=1 note=60 velocity=100 time=85
note_on channel=1 note=60 velocity=100 time=0
note_off channel=1 note=60 velocity=100 time=85
note_on channel=1 note=60 velocity=100 time=0
note_off channel=1 note=60 velocity=100 time=85
note_on channel=1 note=58 velocity=100 time=0
note_off channel=1 note=58 velocity=100 time=85
note_on channel=1 note=60 velocity=100 time=0
note_off channel=1 note=60 velocity=100 time=85
note_on channel=1 note=60 velocity=100 time=0
note_off channel=1 note=60 velocity=100 time=85
note_on channel=1 note=60 velocity=100 time=0
note_off channel=1 note=60 velocity=100 time=85
note_on channel=1 note=60 velocity=100 time=0
note_off channel=1 note=60 velocity=100 time=85
note_on channel=1 note=60 velocity=100 time=0
note_off channel=1 note=60 velocity=100 time=85
note_on channel=1 note=60 velocity=100 time=0
note_off channel=1 note=60 velocity=100 time=85
note_on channel=1 note=60 velocity=100 time=0
note_off channel=1 note=60 velocity=100 time=85
note_on channel=1 note=60 velocity=100 time=0
note_off channel=1 note=60 velocity=100 time=85
note_on channel=1 note=60 velocity=100 time=0
note_off channel=1 note=60 velocity=100 time=85
note_on channel=1 note=60 velocity=100 time=0
note_off channel=1 note=60 velocity=100 time=39
note_on channel=1 note=55 velocity=100 time=0
note_off channel=1 note=55 velocity=100 time=85
note_on channel=1 note=60 velocity=100 time=0
note_off channel=1 note=60 velocity=100 time=85
note_on channel=1 note=60 velocity=100 time=0
note_off channel=1 note=60 velocity=100 time=85
note_on channel=1 note=60 velocity=100 time=0
note_off channel=1 note=60 velocity=100 time=85
note_on channel=1 note=60 velocity=100 time=0
note_off channel=1 note=60 velocity=100 time=85
note_on channel=1 note=60 velocity=100 time=0
note_off channel=1 note=60 velocity=100 time=85
note_on channel=1 note=60 velocity=100 time=0
note_off channel=1 note=60 velocity=100 time=85
note_on channel=1 note=60 velocity=100 time=0
note_off channel=1 note=60 velocity=100 time=85
note_on channel=1 note=60 velocity=100 time=0
note_off channel=1 note=60 velocity=100 time=85
note_on channel=1 note=60 velocity=100 time=0
note_off channel=1 note=60 velocity=100 time=85
note_on channel=1 note=60 velocity=100 time=0
note_off channel=1 note=60 velocity=100 time=85
note_on channel=1 note=60 velocity=100 time=0
note_off channel=1 note=60 velocity=100 time=85
note_on channel=1 note=60 velocity=100 time=0
note_off channel=1 note=60 velocity=100 time=82
note_on channel=1 note=60 velocity=100 time=0
note_off channel=1 note=60 velocity=100 time=85
note_on channel=1 note=60 velocity=100 time=0
note_off channel=1 note=60 velocity=100 time=85
note_on channel=1 note=60 velocity=100 time=0
note_off channel=1 note=60 velocity=100 time=85
note_on channel=1 note=60 velocity=100 time=0
note_off channel=1 note=60 velocity=100 time=85
note_on channel=1 note=60 velocity=100 time=0
note_off channel=1 note=60 velocity=100 time=85
note_on channel=1 note=60 velocity=100 time=0
note_off channel=1 note=60 velocity=100 time=85
note_on channel=1 note=60 velocity=100 time=0
note_off channel=1 note=60 velocity=100 time=85
note_on channel=1 note=60 velocity=100 time=0
note_off channel=1 note=60 velocity=100 time=85
note_on channel=1 note=60 velocity=100 time=0
note_off channel=1 note=60 velocity=100 time=85
note_on channel=1 note=58 velocity=100 time=0
note_off channel=1 note=58 velocity=100 time=85
note_on channel=1 note=60 velocity=100 time=0
note_off channel=1 note=60 velocity=100 time=85
note_on channel=1 note=60 velocity=100 time=0
note_off channel=1 note=60 velocity=100 time=85
note_on channel=1 note=60 velocity=100 time=0
note_off channel=1 note=60 velocity=100 time=85
note_on channel=1 note=60 velocity=100 time=0
note_off channel=1 note=60 velocity=100 time=85
note_on channel=1 note=60 velocity=100 time=0
note_off channel=1 note=60 velocity=100 time=39
note_on channel=1 note=55 velocity=100 time=0
note_off channel=1 note=55 velocity=100 time=85
note_on channel=1 note=60 velocity=100 time=0
note_off channel=1 note=60 velocity=100 time=85
note_on channel=1 note=60 velocity=100 time=0
note_off channel=1 note=60 velocity=100 time=85
note_on channel=1 note=60 velocity=100 time=0
note_off channel=1 note=60 velocity=100 time=85
note_on channel=1 note=60 velocity=100 time=0
note_off channel=1 note=60 velocity=100 time=85
note_on channel=1 note=60 velocity=100 time=0
note_off channel=1 note=60 velocity=100 time=85
note_on channel=1 note=60 velocity=100 time=0
note_off channel=1 note=60 velocity=100 time=85
note_on channel=1 note=60 velocity=100 time=0
note_off channel=1 note=60 velocity=100 time=85
note_on channel=1 note=60 velocity=100 time=0
note_off channel=1 note=60 velocity=100 time=85
note_on channel=1 note=60 velocity=100 time=0
note_off channel=1 note=60 velocity=100 time=85
note_on channel=1 note=60 velocity=100 time=0
note_off channel=1 note=60 velocity=100 time=85
note_on channel=1 note=60 velocity=100 time=0
note_off channel=1 note=60 velocity=100 time=85
note_on channel=1 note=58 velocity=100 time=0
note_off channel=1 note=58 velocity=100 time=82
note_on channel=1 note=60 velocity=100 time=0
note_off channel=1 note=60 velocity=100 time=85
note_on channel=1 note=60 velocity=100 time=0
note_off channel=1 note=60 velocity=100 time=85
note_on channel=1 note=60 velocity=100 time=0
note_off channel=1 note=60 velocity=100 time=85
note_on channel=1 note=60 velocity=100 time=0
note_off channel=1 note=60 velocity=100 time=85
note_on channel=1 note=60 velocity=100 time=0
note_off channel=1 note=60 velocity=100 time=85
note_on channel=1 note=60 velocity=100 time=0
note_off channel=1 note=60 velocity=100 time=85
note_on channel=1 note=60 velocity=100 time=0
note_off channel=1 note=60 velocity=100 time=85
note_on channel=1 note=60 velocity=100 time=0
note_off channel=1 note=60 velocity=100 time=85
note_on channel=1 note=60 velocity=100 time=0
note_off channel=1 note=60 velocity=100 time=85
note_on channel=1 note=60 velocity=100 time=0
note_off channel=1 note=60 velocity=100 time=85
note_on channel=1 note=60 velocity=100 time=0
note_off channel=1 note=60 velocity=100 time=85
note_on channel=1 note=60 velocity=100 time=0
note_off channel=1 note=60 velocity=100 time=85
note_on channel=1 note=60 velocity=100 time=0
note_off channel=1 note=60 velocity=100 time=85
note_on channel=1 note=60 velocity=100 time=0
note_off channel=1 note=60 velocity=100 time=85
note_on channel=1 note=60 velocity=100 time=0
note_off channel=1 note=60 velocity=100 time=39
note_on channel=1 note=58 velocity=100 time=0
note_off channel=1 note=58 velocity=100 time=85
note_on channel=1 note=60 velocity=100 time=0
note_off channel=1 note=60 velocity=100 time=85
note_on channel=1 note=60 velocity=100 time=0
note_off channel=1 note=60 velocity=100 time=85
note_on channel=1 note=60 velocity=100 time=0
note_off channel=1 note=60 velocity=100 time=85
note_on channel=1 note=60 velocity=100 time=0
note_off channel=1 note=60 velocity=100 time=85
note_on channel=1 note=58 velocity=100 time=0
note_off channel=1 note=58 velocity=100 time=85
note_on channel=1 note=60 velocity=100 time=0
note_off channel=1 note=60 velocity=100 time=85
note_on channel=1 note=60 velocity=100 time=0
note_off channel=1 note=60 velocity=100 time=85
note_on channel=1 note=60 velocity=100 time=0
note_off channel=1 note=60 velocity=100 time=85
note_on channel=1 note=60 velocity=100 time=0
note_off channel=1 note=60 velocity=100 time=85
note_on channel=1 note=58 velocity=100 time=0
note_off channel=1 note=58 velocity=100 time=85
note_on channel=1 note=60 velocity=100 time=0
note_off channel=1 note=60 velocity=100 time=85
note_on channel=1 note=60 velocity=100 time=0
note_off channel=1 note=60 velocity=100 time=82
note_on channel=1 note=60 velocity=100 time=0
note_off channel=1 note=60 velocity=100 time=85
note_on channel=1 note=60 velocity=100 time=0
note_off channel=1 note=60 velocity=100 time=85
note_on channel=1 note=60 velocity=100 time=0
note_off channel=1 note=60 velocity=100 time=85
note_on channel=1 note=60 velocity=100 time=0
note_off channel=1 note=60 velocity=100 time=85
note_on channel=1 note=60 velocity=100 time=0
note_off channel=1 note=60 velocity=100 time=85
note_on channel=1 note=60 velocity=100 time=0
note_off channel=1 note=60 velocity=100 time=85
note_on channel=1 note=60 velocity=100 time=0
note_off channel=1 note=60 velocity=100 time=85
note_on channel=1 note=60 velocity=100 time=0
note_off channel=1 note=60 velocity=100 time=85
note_on channel=1 note=60 velocity=100 time=0
note_off channel=1 note=60 velocity=100 time=85
note_on channel=1 note=60 velocity=100 time=0
note_off channel=1 note=60 velocity=100 time=85
note_on channel=1 note=60 velocity=100 time=0
note_off channel=1 note=60 velocity=100 time=85
note_on channel=1 note=60 velocity=100 time=0
note_off channel=1 note=60 velocity=100 time=85
note_on channel=1 note=60 velocity=100 time=0
note_off channel=1 note=60 velocity=100 time=85
note_on channel=1 note=60 velocity=100 time=0
note_off channel=1 note=60 velocity=100 time=85
note_on channel=1 note=60 velocity=100 time=0
note_off channel=1 note=60 velocity=100 time=39
note_on channel=1 note=60 velocity=100 time=0
note_off channel=1 note=60 velocity=100 time=85
note_on channel=1 note=60 velocity=100 time=0
note_off channel=1 note=60 velocity=100 time=85
note_on channel=1 note=60 velocity=100 time=0
note_off channel=1 note=60 velocity=100 time=85
note_on channel=1 note=58 velocity=100 time=0
note_off channel=1 note=58 velocity=100 time=85
note_on channel=1 note=60 velocity=100 time=0
note_off channel=1 note=60 velocity=100 time=85
note_on channel=1 note=60 velocity=100 time=0
note_off channel=1 note=60 velocity=100 time=85
note_on channel=1 note=60 velocity=100 time=0
note_off channel=1 note=60 velocity=100 time=85
note_on channel=1 note=60 velocity=100 time=0
note_off channel=1 note=60 velocity=100 time=85
note_on channel=1 note=60 velocity=100 time=0
note_off channel=1 note=60 velocity=100 time=85
note_on channel=1 note=60 velocity=100 time=0
note_off channel=1 note=60 velocity=100 time=85
note_on channel=1 note=60 velocity=100 time=0
note_off channel=1 note=60 velocity=100 time=85
note_on channel=1 note=60 velocity=100 time=0
note_off channel=1 note=60 velocity=100 time=85
note_on channel=1 note=60 velocity=100 time=0
note_off channel=1 note=60 velocity=100 time=82
note_on channel=1 note=60 velocity=100 time=0
note_off channel=1 note=60 velocity=100 time=85
note_on channel=1 note=60 velocity=100 time=0
note_off channel=1 note=60 velocity=100 time=85
note_on channel=1 note=60 velocity=100 time=0
note_off channel=1 note=60 velocity=100 time=85
note_on channel=1 note=60 velocity=100 time=0
note_off channel=1 note=60 velocity=100 time=85
note_on channel=1 note=60 velocity=100 time=0
note_off channel=1 note=60 velocity=100 time=85
note_on channel=1 note=60 velocity=100 time=0
note_off channel=1 note=60 velocity=100 time=85
note_on channel=1 note=60 velocity=100 time=0
note_off channel=1 note=60 velocity=100 time=85
note_on channel=1 note=60 velocity=100 time=0
note_off channel=1 note=60 velocity=100 time=85
note_on channel=1 note=60 velocity=100 time=0
note_off channel=1 note=60 velocity=100 time=85
note_on channel=1 note=60 velocity=100 time=0
note_off channel=1 note=60 velocity=100 time=85
note_on channel=1 note=60 velocity=100 time=0
note_off channel=1 note=60 velocity=100 time=85
note_on channel=1 note=60 velocity=100 time=0
note_off channel=1 note=60 velocity=100 time=85
note_on channel=1 note=60 velocity=100 time=0
note_off channel=1 note=60 velocity=100 time=85
note_on channel=1 note=60 velocity=100 time=0
note_off channel=1 note=60 velocity=100 time=85
note_on channel=1 note=60 velocity=100 time=0
note_off channel=1 note=60 velocity=100 time=39
note_on channel=1 note=60 velocity=100 time=0
note_off channel=1 note=60 velocity=100 time=85
note_on channel=1 note=60 velocity=100 time=0
note_off channel=1 note=60 velocity=100 time=85
note_on channel=1 note=58 velocity=100 time=0
note_off channel=1 note=58 velocity=100 time=85
note_on channel=1 note=60 velocity=100 time=0
note_off channel=1 note=60 velocity=100 time=85
note_on channel=1 note=60 velocity=100 time=0
note_off channel=1 note=60 velocity=100 time=85
note_on channel=1 note=60 velocity=100 time=0
note_off channel=1 note=60 velocity=100 time=85
note_on channel=1 note=60 velocity=100 time=0
note_off channel=1 note=60 velocity=100 time=85
note_on channel=1 note=60 velocity=100 time=0
note_off channel=1 note=60 velocity=100 time=85
note_on channel=1 note=60 velocity=100 time=0
note_off channel=1 note=60 velocity=100 time=85
note_on channel=1 note=60 velocity=100 time=0
note_off channel=1 note=60 velocity=100 time=85
note_on channel=1 note=60 velocity=100 time=0
note_off channel=1 note=60 velocity=100 time=85
note_on channel=1 note=60 velocity=100 time=0
note_off channel=1 note=60 velocity=100 time=85
note_on channel=1 note=60 velocity=100 time=0
note_off channel=1 note=60 velocity=100 time=82
note_on channel=1 note=60 velocity=100 time=0
note_off channel=1 note=60 velocity=100 time=85
note_on channel=1 note=60 velocity=100 time=0
note_off channel=1 note=60 velocity=100 time=85
note_on channel=1 note=60 velocity=100 time=0
note_off channel=1 note=60 velocity=100 time=85
note_on channel=1 note=60 velocity=100 time=0
note_off channel=1 note=60 velocity=100 time=85
note_on channel=1 note=60 velocity=100 time=0
note_off channel=1 note=60 velocity=100 time=85
note_on channel=1 note=60 velocity=100 time=0
note_off channel=1 note=60 velocity=100 time=85
note_on channel=1 note=60 velocity=100 time=0
note_off channel=1 note=60 velocity=100 time=85
note_on channel=1 note=60 velocity=100 time=0
note_off channel=1 note=60 velocity=100 time=85
note_on channel=1 note=60 velocity=100 time=0
note_off channel=1 note=60 velocity=100 time=85
note_on channel=1 note=60 velocity=100 time=0
note_off channel=1 note=60 velocity=100 time=85
note_on channel=1 note=60 velocity=100 time=0
note_off channel=1 note=60 velocity=100 time=85
note_on channel=1 note=60 velocity=100 time=0
note_off channel=1 note=60 velocity=100 time=85
note_on channel=1 note=60 velocity=100 time=0
note_off channel=1 note=60 velocity=100 time=85
note_on channel=1 note=60 velocity=100 time=0
note_off channel=1 note=60 velocity=100 time=85
note_on channel=1 note=60 velocity=100 time=0
note_off channel=1 note=60 velocity=100 time=39
note_on channel=1 note=60 velocity=100 time=0
note_off channel=1 note=60 velocity=100 time=85
note_on channel=1 note=60 velocity=100 time=0
note_off channel=1 note=60 velocity=100 time=85
note_on channel=1 note=60 velocity=100 time=0
note_off channel=1 note=60 velocity=100 time=85
note_on channel=1 note=60 velocity=100 time=0
note_off channel=1 note=60 velocity=100 time=85
note_on channel=1 note=60 velocity=100 time=0
note_off channel=1 note=60 velocity=100 time=85
note_on channel=1 note=60 velocity=100 time=0
note_off channel=1 note=60 velocity=100 time=85
note_on channel=1 note=60 velocity=100 time=0
note_off channel=1 note=60 velocity=100 time=85
note_on channel=1 note=60 velocity=100 time=0
note_off channel=1 note=60 velocity=100 time=85
note_on channel=1 note=60 velocity=100 time=0
note_off channel=1 note=60 velocity=100 time=85
note_on channel=1 note=60 velocity=100 time=0
note_off channel=1 note=60 velocity=100 time=85
note_on channel=1 note=60 velocity=100 time=0
note_off channel=1 note=60 velocity=100 time=85
note_on channel=1 note=60 velocity=100 time=0
note_off channel=1 note=60 velocity=100 time=85
note_on channel=1 note=60 velocity=100 time=0
note_off channel=1 note=60 velocity=100 time=82
note_on channel=1 note=60 velocity=100 time=0
note_off channel=1 note=60 velocity=100 time=85
note_on channel=1 note=60 velocity=100 time=0
note_off channel=1 note=60 velocity=100 time=85
note_on channel=1 note=60 velocity=100 time=0
note_off channel=1 note=60 velocity=100 time=85
note_on channel=1 note=60 velocity=100 time=0
note_off channel=1 note=60 velocity=100 time=85
note_on channel=1 note=60 velocity=100 time=0
note_off channel=1 note=60 velocity=100 time=85
note_on channel=1 note=60 velocity=100 time=0
note_off channel=1 note=60 velocity=100 time=85
note_on channel=1 note=60 velocity=100 time=0
note_off channel=1 note=60 velocity=100 time=85
note_on channel=1 note=60 velocity=100 time=0
note_off channel=1 note=60 velocity=100 time=85
note_on channel=1 note=60 velocity=100 time=0
note_off channel=1 note=60 velocity=100 time=85
note_on channel=1 note=60 velocity=100 time=0
note_off channel=1 note=60 velocity=100 time=85
note_off channel=1 note=55 velocity=100 time=5290
<meta message end_of_track time=0>
tests/data/generated/melody_rnn-attention_rnn-0-5-3-10cc_-_Dreadlock_Holiday.2.mid
Length: 12314 ticks = 64.13541666666667 beats = 16.033854166666668 bars
Tracks: 2
Time Signature: <meta message time_signature numerator=4 denominator=4 clocks_per_click=24 notated_32nd_notes_per_beat=8 time=0>
Track 0: 
ticks_per_beat: 192
<meta message track_name name='' time=0>
<meta message smpte_offset frame_rate=25 hours=32 minutes=0 seconds=3 frames=0 sub_frames=0 time=0>
<meta message midi_port port=0 time=0>
sysex data=(126,127,9,1) time=0
<meta message midi_port port=0 time=0>
sysex data=(65,16,66,18,64,0,127,0,65) time=0
<meta message midi_port port=0 time=0>
<meta message time_signature numerator=4 denominator=4 clocks_per_click=24 notated_32nd_notes_per_beat=8 time=0>
<meta message key_signature key='Bb' time=0>
<meta message set_tempo tempo=582524 time=0>
<meta message end_of_track time=0>
Track 1: Melody
ticks_per_beat: 192
<meta message track_name name='Melody' time=0>
<meta message midi_port port=0 time=0>
<meta message track_name name='Melody' time=0>
note_off channel=1 note=60 velocity=100 time=28
note_on channel=1 note=58 velocity=100 time=28
note_off channel=1 note=58 velocity=100 time=28
note_on channel=1 note=57 velocity=100 time=0
note_off channel=1 note=57 velocity=100 time=28
note_on channel=1 note=55 velocity=100 time=195
note_off channel=1 note=55 velocity=100 time=28
note_on channel=1 note=55 velocity=100 time=0
note_off channel=1 note=55 velocity=100 time=28
note_on channel=1 note=58 velocity=100 time=0
note_off channel=1 note=58 velocity=100 time=28
note_on channel=1 note=58 velocity=100 time=0
note_off channel=1 note=58 velocity=100 time=28
note_on channel=1 note=60 velocity=100 time=0
note_off channel=1 note=60 velocity=100 time=28
note_on channel=1 note=58 velocity=100 time=0
note_off channel=1 note=58 velocity=100 time=28
note_on channel=1 note=55 velocity=100 time=0
note_off channel=1 note=55 velocity=100 time=28
note_on channel=1 note=55 velocity=100 time=168
note_off channel=1 note=55 velocity=100 time=28
note_on channel=1 note=55 velocity=100 time=0
note_off channel=1 note=55 velocity=100 time=13
note_on channel=1 note=55 velocity=100 time=196
note_off channel=1 note=55 velocity=100 time=28
note_on channel=1 note=55 velocity=100 time=0
note_off channel=1 note=55 velocity=100 time=28
note_on channel=1 note=58 velocity=100 time=0
note_off channel=1 note=58 velocity=100 time=28
note_on channel=1 note=58 velocity=100 time=0
note_off channel=1 note=58 velocity=100 time=28
note_on channel=1 note=60 velocity=100 time=0
note_off channel=1 note=60 velocity=100 time=28
note_on channel=1 note=57 velocity=100 time=0
note_off channel=1 note=57 velocity=100 time=27
note_on channel=1 note=55 velocity=100 time=0
note_off channel=1 note=55 velocity=100 time=28
note_on channel=1 note=55 velocity=100 time=168
note_off channel=1 note=55 velocity=100 time=28
note_on channel=1 note=55 velocity=100 time=0
note_off channel=1 note=55 velocity=100 time=28
note_on channel=1 note=55 velocity=100 time=0
note_off channel=1 note=55 velocity=100 time=28
note_on channel=1 note=58 velocity=100 time=0
note_off channel=1 note=58 velocity=100 time=28
note_on channel=1 note=60 velocity=100 time=0
note_off channel=1 note=60 velocity=100 time=28
note_on channel=1 note=58 velocity=100 time=0
note_off channel=1 note=58 velocity=100 time=28
note_on channel=1 note=57 velocity=100 time=0
note_off channel=1 note=57 velocity=100 time=28
note_on channel=1 note=55 velocity=100 time=13
note_on channel=1 note=55 velocity=100 time=0
note_off channel=1 note=55 velocity=100 time=28
note_on channel=1 note=55 velocity=100 time=0
note_off channel=1 note=55 velocity=100 time=28
note_on channel=1 note=58 velocity=100 time=0
note_off channel=1 note=58 velocity=100 time=28
note_on channel=1 note=60 velocity=100 time=0
note_off channel=1 note=60 velocity=100 time=28
note_on channel=1 note=58 velocity=100 time=0
note_off channel=1 note=58 velocity=100 time=28
note_on channel=1 note=57 velocity=100 time=0
note_off channel=1 note=57 velocity=100 time=28
note_on channel=1 note=55 velocity=100 time=0
note_off channel=1 note=55 velocity=100 time=28
note_on channel=1 note=55 velocity=100 time=167
note_off channel=1 note=55 velocity=100 time=28
note_on channel=1 note=55 velocity=100 time=0
note_off channel=1 note=55 velocity=100 time=28
note_on channel=1 note=58 velocity=100 time=0
note_off channel=1 note=58 velocity=100 time=28
note_on channel=1 note=58 velocity=100 time=0
note_off channel=1 note=58 velocity=100 time=28
note_on channel=1 note=60 velocity=100 time=0
note_off channel=1 note=60 velocity=100 time=28
note_on channel=1 note=58 velocity=100 time=0
note_off channel=1 note=58 velocity=100 time=28
note_on channel=1 note=57 velocity=100 time=0
note_off channel=1 note=57 velocity=100 time=28
note_on channel=1 note=58 velocity=100 time=0
note_off channel=1 note=58 velocity=100 time=28
note_on channel=1 note=58 velocity=100 time=0
note_off channel=1 note=58 velocity=100 time=28
note_on channel=1 note=55 velocity=100 time=0
note_off channel=1 note=55 velocity=100 time=28
note_on channel=1 note=55 velocity=100 time=28
note_off channel=1 note=55 velocity=100 time=28
note_on channel=1 note=55 velocity=100 time=28
note_off channel=1 note=55 velocity=100 time=28
note_on channel=1 note=55 velocity=100 time=0
note_off channel=1 note=55 velocity=100 time=13
note_on channel=1 note=55 velocity=100 time=168
note_off channel=1 note=55 velocity=100 time=28
note_on channel=1 note=55 velocity=100 time=0
note_off channel=1 note=55 velocity=100 time=28
note_on channel=1 note=55 velocity=100 time=0
note_off channel=1 note=55 velocity=100 time=28
note_on channel=1 note=58 velocity=100 time=0
note_off channel=1 note=58 velocity=100 time=28
note_on channel=1 note=58 velocity=100 time=0
note_off channel=1 note=58 velocity=100 time=28
note_on channel=1 note=60 velocity=100 time=0
note_off channel=1 note=60 velocity=100 time=28
note_on channel=1 note=58 velocity=100 time=0
note_off channel=1 note=58 velocity=100 time=27
note_on channel=1 note=55 velocity=100 time=0
note_off channel=1 note=55 velocity=100 time=28
note_on channel=1 note=60 velocity=100 time=0
note_off channel=1 note=60 velocity=100 time=28
note_on channel=1 note=58 velocity=100 time=0
note_off channel=1 note=58 velocity=100 time=28
note_on channel=1 note=60 velocity=100 time=28
note_off channel=1 note=60 velocity=100 time=28
note_on channel=1 note=58 velocity=100 time=0
note_off channel=1 note=58 velocity=100 time=28
note_on channel=1 note=55 velocity=100 time=28
note_off channel=1 note=55 velocity=100 time=28
note_on channel=1 note=58 velocity=100 time=28
note_off channel=1 note=58 velocity=100 time=28
note_on channel=1 note=60 velocity=100 time=0
note_off channel=1 note=60 velocity=100 time=28
note_on channel=1 note=55 velocity=100 time=28
note_off channel=1 note=55 velocity=100 time=28
note_on channel=1 note=60 velocity=100 time=0
note_off channel=1 note=60 velocity=100 time=28
note_on channel=1 note=60 velocity=100 time=0
note_off channel=1 note=60 velocity=100 time=13
note_on channel=1 note=55 velocity=100 time=0
note_off channel=1 note=55 velocity=100 time=28
note_on channel=1 note=55 velocity=100 time=0
note_off channel=1 note=55 velocity=100 time=28
note_on channel=1 note=58 velocity=100 time=0
note_off channel=1 note=58 velocity=100 time=28
note_on channel=1 note=60 velocity=100 time=0
note_off channel=1 note=60 velocity=100 time=28
note_on channel=1 note=58 velocity=100 time=0
note_off channel=1 note=58 velocity=100 time=28
note_on channel=1 note=57 velocity=100 time=0
note_off channel=1 note=57 velocity=100 time=28
note_on channel=1 note=55 velocity=100 time=0
note_off channel=1 note=55 velocity=100 time=28
note_on channel=1 note=60 velocity=100 time=0
note_off channel=1 note=60 velocity=100 time=28
note_on channel=1 note=57 velocity=100 time=0
note_off channel=1 note=57 velocity=100 time=28
note_on channel=1 note=58 velocity=100 time=28
note_off channel=1 note=58 velocity=100 time=28
note_on channel=1 note=60 velocity=100 time=0
note_off channel=1 note=60 velocity=100 time=28
note_on channel=1 note=55 velocity=100 time=27
note_off channel=1 note=55 velocity=100 time=28
note_on channel=1 note=58 velocity=100 time=28
note_off channel=1 note=58 velocity=100 time=28
note_on channel=1 note=60 velocity=100 time=0
note_off channel=1 note=60 velocity=100 time=28
note_on channel=1 note=55 velocity=100 time=28
note_off channel=1 note=55 velocity=100 time=28
note_on channel=1 note=60 velocity=100 time=0
note_off channel=1 note=60 velocity=100 time=28
note_on channel=1 note=57 velocity=100 time=0
note_off channel=1 note=57 velocity=100 time=28
note_on channel=1 note=60 velocity=100 time=0
note_off channel=1 note=60 velocity=100 time=28
note_on channel=1 note=55 velocity=100 time=0
note_off channel=1 note=55 velocity=100 time=28
note_on channel=1 note=55 velocity=100 time=0
note_off channel=1 note=55 velocity=100 time=28
note_on channel=1 note=60 velocity=100 time=0
note_off channel=1 note=60 velocity=100 time=28
note_on channel=1 note=58 velocity=100 time=0
note_off channel=1 note=58 velocity=100 time=28
note_on channel=1 note=55 velocity=100 time=0
note_off channel=1 note=55 velocity=100 time=28
note_on channel=1 note=55 velocity=100 time=0
note_off channel=1 note=55 velocity=100 time=13
note_on channel=1 note=60 velocity=100 time=0
note_off channel=1 note=60 velocity=100 time=28
note_on channel=1 note=58 velocity=100 time=0
note_off channel=1 note=58 velocity=100 time=28
note_on channel=1 note=58 velocity=100 time=28
note_off channel=1 note=58 velocity=100 time=28
note_on channel=1 note=60 velocity=100 time=0
note_off channel=1 note=60 velocity=100 time=28
note_on channel=1 note=55 velocity=100 time=28
note_off channel=1 note=55 velocity=100 time=28
note_on channel=1 note=55 velocity=100 time=0
note_off channel=1 note=55 velocity=100 time=28
note_on channel=1 note=55 velocity=100 time=0
note_off channel=1 note=55 velocity=100 time=28
note_on channel=1 note=60 velocity=100 time=0
note_off channel=1 note=60 velocity=100 time=28
note_on channel=1 note=57 velocity=100 time=0
note_off channel=1 note=57 velocity=100 time=28
note_on channel=1 note=58 velocity=100 time=28
note_off channel=1 note=58 velocity=100 time=27
note_on channel=1 note=60 velocity=100 time=0
note_off channel=1 note=60 velocity=100 time=28
note_on channel=1 note=60 velocity=100 time=0
note_off channel=1 note=60 velocity=100 time=28
note_on channel=1 note=57 velocity=100 time=0
note_off channel=1 note=57 velocity=100 time=28
note_on channel=1 note=58 velocity=100 time=28
note_off channel=1 note=58 velocity=100 time=28
note_on channel=1 note=60 velocity=100 time=0
note_off channel=1 note=60 velocity=100 time=28
note_on channel=1 note=58 velocity=100 time=0
note_off channel=1 note=58 velocity=100 time=28
note_on channel=1 note=55 velocity=100 time=0
note_off channel=1 note=55 velocity=100 time=28
note_on channel=1 note=55 velocity=100 time=28
note_off channel=1 note=55 velocity=100 time=28
note_on channel=1 note=60 velocity=100 time=0
note_off channel=1 note=60 velocity=100 time=28
note_on channel=1 note=60 velocity=100 time=0
note_off channel=1 note=60 velocity=100 time=28
note_on channel=1 note=60 velocity=100 time=0
note_off channel=1 note=60 velocity=100 time=28
note_on channel=1 note=60 velocity=100 time=0
note_off channel=1 note=60 velocity=100 time=28
note_on channel=1 note=60 velocity=100 time=0
note_off channel=1 note=60 velocity=100 time=13
note_on channel=1 note=55 velocity=100 time=0
note_off channel=1 note=55 velocity=100 time=28
note_on channel=1 note=60 velocity=100 time=0
note_off channel=1 note=60 velocity=100 time=28
note_on channel=1 note=55 velocity=100 time=28
note_off channel=1 note=55 velocity=100 time=28
note_on channel=1 note=60 velocity=100 time=0
note_off channel=1 note=60 velocity=100 time=28
note_on channel=1 note=57 velocity=100 time=0
note_off channel=1 note=57 velocity=100 time=28
note_on channel=1 note=60 velocity=100 time=0
note_off channel=1 note=60 velocity=100 time=28
note_on channel=1 note=55 velocity=100 time=0
note_off channel=1 note=55 velocity=100 time=28
note_on channel=1 note=55 velocity=100 time=0
note_off channel=1 note=55 velocity=100 time=28
note_on channel=1 note=60 velocity=100 time=0
note_off channel=1 note=60 velocity=100 time=28
note_on channel=1 note=58 velocity=100 time=0
note_off channel=1 note=58 velocity=100 time=28
note_on channel=1 note=55 velocity=100 time=0
note_off channel=1 note=55 velocity=100 time=28
note_on channel=1 note=55 velocity=100 time=0
note_off channel=1 note=55 velocity=100 time=27
note_on channel=1 note=55 velocity=100 time=0
note_off channel=1 note=55 velocity=100 time=28
note_on channel=1 note=58 velocity=100 time=0
note_off channel=1 note=58 velocity=100 time=28
note_on channel=1 note=60 velocity=100 time=0
note_off channel=1 note=60 velocity=100 time=28
note_on channel=1 note=60 velocity=100 time=0
note_off channel=1 note=60 velocity=100 time=28
note_on channel=1 note=58 velocity=100 time=0
note_off channel=1 note=58 velocity=100 time=28
note_on channel=1 note=60 velocity=100 time=0
note_off channel=1 note=60 velocity=100 time=28
note_on channel=1 note=60 velocity=100 time=0
note_off channel=1 note=60 velocity=100 time=28
note_on channel=1 note=60 velocity=100 time=0
note_off channel=1 note=60 velocity=100 time=28
note_on channel=1 note=60 velocity=100 time=0
note_off channel=1 note=60 velocity=100 time=28
note_on channel=1 note=60 velocity=100 time=0
note_off channel=1 note=60 velocity=100 time=28
note_on channel=1 note=60 velocity=100 time=0
note_off channel=1 note=60 velocity=100 time=28
note_on channel=1 note=60 velocity=100 time=0
note_off channel=1 note=60 velocity=100 time=28
note_on channel=1 note=60 velocity=100 time=0
note_off channel=1 note=60 velocity=100 time=28
note_on channel=1 note=60 velocity=100 time=0
note_off channel=1 note=60 velocity=100 time=28
note_on channel=1 note=60 velocity=100 time=0
note_off channel=1 note=60 velocity=100 time=13
note_on channel=1 note=55 velocity=100 time=0
note_off channel=1 note=55 velocity=100 time=28
note_on channel=1 note=60 velocity=100 time=0
note_off channel=1 note=60 velocity=100 time=28
note_on channel=1 note=55 velocity=100 time=0
note_off channel=1 note=55 velocity=100 time=28
note_on channel=1 note=55 velocity=100 time=0
note_off channel=1 note=55 velocity=100 time=28
note_on channel=1 note=60 velocity=100 time=0
note_off channel=1 note=60 velocity=100 time=28
note_on channel=1 note=58 velocity=100 time=0
note_off channel=1 note=58 velocity=100 time=28
note_on channel=1 note=55 velocity=100 time=0
note_off channel=1 note=55 velocity=100 time=28
note_on channel=1 note=55 velocity=100 time=0
note_off channel=1 note=55 velocity=100 time=28
note_on channel=1 note=55 velocity=100 time=0
note_off channel=1 note=55 velocity=100 time=28
note_on channel=1 note=58 velocity=100 time=0
note_off channel=1 note=58 velocity=100 time=28
note_on channel=1 note=60 velocity=100 time=0
note_off channel=1 note=60 velocity=100 time=28
note_on channel=1 note=60 velocity=100 time=0
note_off channel=1 note=60 velocity=100 time=28
note_on channel=1 note=58 velocity=100 time=0
note_off channel=1 note=58 velocity=100 time=27
note_on channel=1 note=60 velocity=100 time=0
note_off channel=1 note=60 velocity=100 time=28
note_on channel=1 note=60 velocity=100 time=0
note_off channel=1 note=60 velocity=100 time=28
note_on channel=1 note=60 velocity=100 time=0
note_off channel=1 note=60 velocity=100 time=28
note_on channel=1 note=60 velocity=100 time=0
note_off channel=1 note=60 velocity=100 time=28
note_on channel=1 note=58 velocity=100 time=0
note_off channel=1 note=58 velocity=100 time=28
note_on channel=1 note=60 velocity=100 time=0
note_off channel=1 note=60 velocity=100 time=28
note_on channel=1 note=60 velocity=100 time=0
note_off channel=1 note=60 velocity=100 time=28
note_on channel=1 note=60 velocity=100 time=0
note_off channel=1 note=60 velocity=100 time=28
note_on channel=1 note=60 velocity=100 time=0
note_off channel=1 note=60 velocity=100 time=28
note_on channel=1 note=60 velocity=100 time=0
note_off channel=1 note=60 velocity=100 time=28
note_on channel=1 note=60 velocity=100 time=0
note_off channel=1 note=60 velocity=100 time=28
note_on channel=1 note=60 velocity=100 time=0
note_off channel=1 note=60 velocity=100 time=28
note_on channel=1 note=60 velocity=100 time=0
note_off channel=1 note=60 velocity=100 time=28
note_on channel=1 note=60 velocity=100 time=0
note_off channel=1 note=60 velocity=100 time=28
note_on channel=1 note=60 velocity=100 time=0
note_off channel=1 note=60 velocity=100 time=13
note_on channel=1 note=55 velocity=100 time=0
note_off channel=1 note=55 velocity=100 time=28
note_on channel=1 note=60 velocity=100 time=0
note_off channel=1 note=60 velocity=100 time=28
note_on channel=1 note=60 velocity=100 time=0
note_off channel=1 note=60 velocity=100 time=28
note_on channel=1 note=60 velocity=100 time=0
note_off channel=1 note=60 velocity=100 time=28
note_on channel=1 note=60 velocity=100 time=0
note_off channel=1 note=60 velocity=100 time=28
note_on channel=1 note=60 velocity=100 time=0
note_off channel=1 note=60 velocity=100 time=28
note_on channel=1 note=60 velocity=100 time=0
note_off channel=1 note=60 velocity=100 time=28
note_on channel=1 note=60 velocity=100 time=0
note_off channel=1 note=60 velocity=100 time=28
note_on channel=1 note=60 velocity=100 time=0
note_off channel=1 note=60 velocity=100 time=28
note_on channel=1 note=60 velocity=100 time=0
note_off channel=1 note=60 velocity=100 time=28
note_on channel=1 note=60 velocity=100 time=0
note_off channel=1 note=60 velocity=100 time=28
note_on channel=1 note=60 velocity=100 time=0
note_off channel=1 note=60 velocity=100 time=28
note_on channel=1 note=60 velocity=100 time=0
note_off channel=1 note=60 velocity=100 time=27
note_on channel=1 note=60 velocity=100 time=0
note_off channel=1 note=60 velocity=100 time=28
note_on channel=1 note=60 velocity=100 time=0
note_off channel=1 note=60 velocity=100 time=28
note_on channel=1 note=60 velocity=100 time=0
note_off channel=1 note=60 velocity=100 time=28
note_on channel=1 note=60 velocity=100 time=0
note_off channel=1 note=60 velocity=100 time=28
note_on channel=1 note=60 velocity=100 time=0
note_off channel=1 note=60 velocity=100 time=28
note_on channel=1 note=60 velocity=100 time=0
note_off channel=1 note=60 velocity=100 time=28
note_on channel=1 note=60 velocity=100 time=0
note_off channel=1 note=60 velocity=100 time=28
note_on channel=1 note=60 velocity=100 time=0
note_off channel=1 note=60 velocity=100 time=28
note_on channel=1 note=60 velocity=100 time=0
note_off channel=1 note=60 velocity=100 time=28
note_on channel=1 note=58 velocity=100 time=0
note_off channel=1 note=58 velocity=100 time=28
note_on channel=1 note=60 velocity=100 time=0
note_off channel=1 note=60 velocity=100 time=28
note_on channel=1 note=60 velocity=100 time=0
note_off channel=1 note=60 velocity=100 time=28
note_on channel=1 note=60 velocity=100 time=0
note_off channel=1 note=60 velocity=100 time=28
note_on channel=1 note=60 velocity=100 time=0
note_off channel=1 note=60 velocity=100 time=28
note_on channel=1 note=60 velocity=100 time=0
note_off channel=1 note=60 velocity=100 time=13
note_on channel=1 note=55 velocity=100 time=0
note_off channel=1 note=55 velocity=100 time=28
note_on channel=1 note=60 velocity=100 time=0
note_off channel=1 note=60 velocity=100 time=28
note_on channel=1 note=60 velocity=100 time=0
note_off channel=1 note=60 velocity=100 time=28
note_on channel=1 note=60 velocity=100 time=0
note_off channel=1 note=60 velocity=100 time=28
note_on channel=1 note=60 velocity=100 time=0
note_off channel=1 note=60 velocity=100 time=28
note_on channel=1 note=60 velocity=100 time=0
note_off channel=1 note=60 velocity=100 time=28
note_on channel=1 note=60 velocity=100 time=0
note_off channel=1 note=60 velocity=100 time=28
note_on channel=1 note=60 velocity=100 time=0
note_off channel=1 note=60 velocity=100 time=28
note_on channel=1 note=60 velocity=100 time=0
note_off channel=1 note=60 velocity=100 time=28
note_on channel=1 note=60 velocity=100 time=0
note_off channel=1 note=60 velocity=100 time=28
note_on channel=1 note=60 velocity=100 time=0
note_off channel=1 note=60 velocity=100 time=28
note_on channel=1 note=60 velocity=100 time=0
note_off channel=1 note=60 velocity=100 time=28
note_on channel=1 note=58 velocity=100 time=0
note_off channel=1 note=58 velocity=100 time=27
note_on channel=1 note=60 velocity=100 time=0
note_off channel=1 note=60 velocity=100 time=28
note_on channel=1 note=60 velocity=100 time=0
note_off channel=1 note=60 velocity=100 time=28
note_on channel=1 note=60 velocity=100 time=0
note_off channel=1 note=60 velocity=100 time=28
note_on channel=1 note=60 velocity=100 time=0
note_off channel=1 note=60 velocity=100 time=28
note_on channel=1 note=60 velocity=100 time=0
note_off channel=1 note=60 velocity=100 time=28
note_on channel=1 note=60 velocity=100 time=0
note_off channel=1 note=60 velocity=100 time=28
note_on channel=1 note=60 velocity=100 time=0
note_off channel=1 note=60 velocity=100 time=28
note_on channel=1 note=60 velocity=100 time=0
note_off channel=1 note=60 velocity=100 time=28
note_on channel=1 note=60 velocity=100 time=0
note_off channel=1 note=60 velocity=100 time=28
note_on channel=1 note=60 velocity=100 time=0
note_off channel=1 note=60 velocity=100 time=28
note_on channel=1 note=60 velocity=100 time=0
note_off channel=1 note=60 velocity=100 time=28
note_on channel=1 note=60 velocity=100 time=0
note_off channel=1 note=60 velocity=100 time=28
note_on channel=1 note=60 velocity=100 time=0
note_off channel=1 note=60 velocity=100 time=28
note_on channel=1 note=60 velocity=100 time=0
note_off channel=1 note=60 velocity=100 time=28
note_on channel=1 note=60 velocity=100 time=0
note_off channel=1 note=60 velocity=100 time=13
note_on channel=1 note=58 velocity=100 time=0
note_off channel=1 note=58 velocity=100 time=28
note_on channel=1 note=60 velocity=100 time=0
note_off channel=1 note=60 velocity=100 time=28
note_on channel=1 note=60 velocity=100 time=0
note_off channel=1 note=60 velocity=100 time=28
note_on channel=1 note=60 velocity=100 time=0
note_off channel=1 note=60 velocity=100 time=28
note_on channel=1 note=60 velocity=100 time=0
note_off channel=1 note=60 velocity=100 time=28
note_on channel=1 note=58 velocity=100 time=0
note_off channel=1 note=58 velocity=100 time=28
note_on channel=1 note=60 velocity=100 time=0
note_off channel=1 note=60 velocity=100 time=28
note_on channel=1 note=60 velocity=100 time=0
note_off channel=1 note=60 velocity=100 time=28
note_on channel=1 note=60 velocity=100 time=0
note_off channel=1 note=60 velocity=100 time=28
note_on channel=1 note=60 velocity=100 time=0
note_off channel=1 note=60 velocity=100 time=28
note_on channel=1 note=58 velocity=100 time=0
note_off channel=1 note=58 velocity=100 time=28
note_on channel=1 note=60 velocity=100 time=0
note_off channel=1 note=60 velocity=100 time=28
note_on channel=1 note=60 velocity=100 time=0
note_off channel=1 note=60 velocity=100 time=27
note_on channel=1 note=60 velocity=100 time=0
note_off channel=1 note=60 velocity=100 time=28
note_on channel=1 note=60 velocity=100 time=0
note_off channel=1 note=60 velocity=100 time=28
note_on channel=1 note=60 velocity=100 time=0
note_off channel=1 note=60 velocity=100 time=28
note_on channel=1 note=60 velocity=100 time=0
note_off channel=1 note=60 velocity=100 time=28
note_on channel=1 note=60 velocity=100 time=0
note_off channel=1 note=60 velocity=100 time=28
note_on channel=1 note=60 velocity=100 time=0
note_off channel=1 note=60 velocity=100 time=28
note_on channel=1 note=60 velocity=100 time=0
note_off channel=1 note=60 velocity=100 time=28
note_on channel=1 note=60 velocity=100 time=0
note_off channel=1 note=60 velocity=100 time=28
note_on channel=1 note=60 velocity=100 time=0
note_off channel=1 note=60 velocity=100 time=28
note_on channel=1 note=60 velocity=100 time=0
note_off channel=1 note=60 velocity=100 time=28
note_on channel=1 note=60 velocity=100 time=0
note_off channel=1 note=60 velocity=100 time=28
note_on channel=1 note=60 velocity=100 time=0
note_off channel=1 note=60 velocity=100 time=28
note_on channel=1 note=60 velocity=100 time=0
note_off channel=1 note=60 velocity=100 time=28
note_on channel=1 note=60 velocity=100 time=0
note_off channel=1 note=60 velocity=100 time=28
note_on channel=1 note=60 velocity=100 time=0
note_off channel=1 note=60 velocity=100 time=13
note_on channel=1 note=60 velocity=100 time=0
note_off channel=1 note=60 velocity=100 time=28
note_on channel=1 note=60 velocity=100 time=0
note_off channel=1 note=60 velocity=100 time=28
note_on channel=1 note=60 velocity=100 time=0
note_off channel=1 note=60 velocity=100 time=28
note_on channel=1 note=58 velocity=100 time=0
note_off channel=1 note=58 velocity=100 time=28
note_on channel=1 note=60 velocity=100 time=0
note_off channel=1 note=60 velocity=100 time=28
note_on channel=1 note=60 velocity=100 time=0
note_off channel=1 note=60 velocity=100 time=28
note_on channel=1 note=60 velocity=100 time=0
note_off channel=1 note=60 velocity=100 time=28
note_on channel=1 note=60 velocity=100 time=0
note_off channel=1 note=60 velocity=100 time=28
note_on channel=1 note=60 velocity=100 time=0
note_off channel=1 note=60 velocity=100 time=28
note_on channel=1 note=60 velocity=100 time=0
note_off channel=1 note=60 velocity=100 time=28
note_on channel=1 note=60 velocity=100 time=0
note_off channel=1 note=60 velocity=100 time=28
note_on channel=1 note=60 velocity=100 time=0
note_off channel=1 note=60 velocity=100 time=28
note_on channel=1 note=60 velocity=100 time=0
note_off channel=1 note=60 velocity=100 time=27
note_on channel=1 note=60 velocity=100 time=0
note_off channel=1 note=60 velocity=100 time=28
note_on channel=1 note=60 velocity=100 time=0
note_off channel=1 note=60 velocity=100 time=28
note_on channel=1 note=60 velocity=100 time=0
note_off channel=1 note=60 velocity=100 time=28
note_on channel=1 note=60 velocity=100 time=0
note_off channel=1 note=60 velocity=100 time=28
note_on channel=1 note=60 velocity=100 time=0
note_off channel=1 note=60 velocity=100 time=28
note_on channel=1 note=60 velocity=100 time=0
note_off channel=1 note=60 velocity=100 time=28
note_on channel=1 note=60 velocity=100 time=0
note_off channel=1 note=60 velocity=100 time=28
note_on channel=1 note=60 velocity=100 time=0
note_off channel=1 note=60 velocity=100 time=28
note_on channel=1 note=60 velocity=100 time=0
note_off channel=1 note=60 velocity=100 time=28
note_on channel=1 note=60 velocity=100 time=0
note_off channel=1 note=60 velocity=100 time=28
note_on channel=1 note=60 velocity=100 time=0
note_off channel=1 note=60 velocity=100 time=28
note_on channel=1 note=60 velocity=100 time=0
note_off channel=1 note=60 velocity=100 time=28
note_on channel=1 note=60 velocity=100 time=0
note_off channel=1 note=60 velocity=100 time=28
note_on channel=1 note=60 velocity=100 time=0
note_off channel=1 note=60 velocity=100 time=28
note_on channel=1 note=60 velocity=100 time=0
note_off channel=1 note=60 velocity=100 time=13
note_on channel=1 note=60 velocity=100 time=0
note_off channel=1 note=60 velocity=100 time=28
note_on channel=1 note=60 velocity=100 time=0
note_off channel=1 note=60 velocity=100 time=28
note_on channel=1 note=58 velocity=100 time=0
note_off channel=1 note=58 velocity=100 time=28
note_on channel=1 note=60 velocity=100 time=0
note_off channel=1 note=60 velocity=100 time=28
note_on channel=1 note=60 velocity=100 time=0
note_off channel=1 note=60 velocity=100 time=28
note_on channel=1 note=60 velocity=100 time=0
note_off channel=1 note=60 velocity=100 time=28
note_on channel=1 note=60 velocity=100 time=0
note_off channel=1 note=60 velocity=100 time=28
note_on channel=1 note=60 velocity=100 time=0
note_off channel=1 note=60 velocity=100 time=28
note_on channel=1 note=60 velocity=100 time=0
note_off channel=1 note=60 velocity=100 time=28
note_on channel=1 note=60 velocity=100 time=0
note_off channel=1 note=60 velocity=100 time=28
note_on channel=1 note=60 velocity=100 time=0
note_off channel=1 note=60 velocity=100 time=28
note_on channel=1 note=60 velocity=100 time=0
note_off channel=1 note=60 velocity=100 time=28
note_on channel=1 note=60 velocity=100 time=0
note_off channel=1 note=60 velocity=100 time=27
note_on channel=1 note=60 velocity=100 time=0
note_off channel=1 note=60 velocity=100 time=28
note_on channel=1 note=60 velocity=100 time=0
note_off channel=1 note=60 velocity=100 time=28
note_on channel=1 note=60 velocity=100 time=0
note_off channel=1 note=60 velocity=100 time=28
note_on channel=1 note=60 velocity=100 time=0
note_off channel=1 note=60 velocity=100 time=28
note_on channel=1 note=60 velocity=100 time=0
note_off channel=1 note=60 velocity=100 time=28
note_on channel=1 note=60 velocity=100 time=0
note_off channel=1 note=60 velocity=100 time=28
note_on channel=1 note=60 velocity=100 time=0
note_off channel=1 note=60 velocity=100 time=28
note_on channel=1 note=60 velocity=100 time=0
note_off channel=1 note=60 velocity=100 time=28
note_on channel=1 note=60 velocity=100 time=0
note_off channel=1 note=60 velocity=100 time=28
note_on channel=1 note=60 velocity=100 time=0
note_off channel=1 note=60 velocity=100 time=28
note_on channel=1 note=60 velocity=100 time=0
note_off channel=1 note=60 velocity=100 time=28
note_on channel=1 note=60 velocity=100 time=0
note_off channel=1 note=60 velocity=100 time=28
note_on channel=1 note=60 velocity=100 time=0
note_off channel=1 note=60 velocity=100 time=28
note_on channel=1 note=60 velocity=100 time=0
note_off channel=1 note=60 velocity=100 time=28
note_on channel=1 note=60 velocity=100 time=0
note_off channel=1 note=60 velocity=100 time=13
note_on channel=1 note=60 velocity=100 time=0
note_off channel=1 note=60 velocity=100 time=28
note_on channel=1 note=60 velocity=100 time=0
note_off channel=1 note=60 velocity=100 time=28
note_on channel=1 note=60 velocity=100 time=0
note_off channel=1 note=60 velocity=100 time=28
note_on channel=1 note=60 velocity=100 time=0
note_off channel=1 note=60 velocity=100 time=28
note_on channel=1 note=60 velocity=100 time=0
note_off channel=1 note=60 velocity=100 time=28
note_on channel=1 note=60 velocity=100 time=0
note_off channel=1 note=60 velocity=100 time=28
note_on channel=1 note=60 velocity=100 time=0
note_off channel=1 note=60 velocity=100 time=28
note_on channel=1 note=60 velocity=100 time=0
note_off channel=1 note=60 velocity=100 time=28
note_on channel=1 note=60 velocity=100 time=0
note_off channel=1 note=60 velocity=100 time=28
note_on channel=1 note=60 velocity=100 time=0
note_off channel=1 note=60 velocity=100 time=28
note_on channel=1 note=60 velocity=100 time=0
note_off channel=1 note=60 velocity=100 time=28
note_on channel=1 note=60 velocity=100 time=0
note_off channel=1 note=60 velocity=100 time=28
note_on channel=1 note=60 velocity=100 time=0
note_off channel=1 note=60 velocity=100 time=27
note_on channel=1 note=60 velocity=100 time=0
note_off channel=1 note=60 velocity=100 time=28
note_on channel=1 note=60 velocity=100 time=0
note_off channel=1 note=60 velocity=100 time=28
note_on channel=1 note=60 velocity=100 time=0
note_off channel=1 note=60 velocity=100 time=28
note_on channel=1 note=60 velocity=100 time=0
note_off channel=1 note=60 velocity=100 time=28
note_on channel=1 note=60 velocity=100 time=0
note_off channel=1 note=60 velocity=100 time=28
note_on channel=1 note=60 velocity=100 time=0
note_off channel=1 note=60 velocity=100 time=28
note_on channel=1 note=60 velocity=100 time=0
note_off channel=1 note=60 velocity=100 time=28
note_on channel=1 note=60 velocity=100 time=0
note_off channel=1 note=60 velocity=100 time=28
note_on channel=1 note=60 velocity=100 time=0
note_off channel=1 note=60 velocity=100 time=28
note_on channel=1 note=60 velocity=100 time=0
note_off channel=1 note=60 velocity=100 time=28
note_on channel=1 note=60 velocity=100 time=0
note_off channel=1 note=60 velocity=100 time=28
note_on channel=1 note=60 velocity=100 time=0
note_off channel=1 note=60 velocity=100 time=28
note_on channel=1 note=60 velocity=100 time=0
note_off channel=1 note=60 velocity=100 time=28
note_on channel=1 note=60 velocity=100 time=0
note_off channel=1 note=60 velocity=100 time=28
note_on channel=1 note=60 velocity=100 time=0
note_off channel=1 note=60 velocity=100 time=13
note_on channel=1 note=60 velocity=100 time=0
note_off channel=1 note=60 velocity=100 time=28
note_on channel=1 note=60 velocity=100 time=0
note_off channel=1 note=60 velocity=100 time=28
note_on channel=1 note=60 velocity=100 time=0
note_off channel=1 note=60 velocity=100 time=28
note_on channel=1 note=60 velocity=100 time=0
note_off channel=1 note=60 velocity=100 time=28
note_on channel=1 note=60 velocity=100 time=0
note_off channel=1 note=60 velocity=100 time=28
note_on channel=1 note=60 velocity=100 time=0
note_off channel=1 note=60 velocity=100 time=28
note_on channel=1 note=60 velocity=100 time=0
note_off channel=1 note=60 velocity=100 time=28
note_on channel=1 note=60 velocity=100 time=0
note_off channel=1 note=60 velocity=100 time=28
note_on channel=1 note=60 velocity=100 time=0
note_off channel=1 note=60 velocity=100 time=28
note_on channel=1 note=60 velocity=100 time=0
note_off channel=1 note=60 velocity=100 time=28
note_on channel=1 note=60 velocity=100 time=0
note_off channel=1 note=60 velocity=100 time=28
note_on channel=1 note=60 velocity=100 time=0
note_off channel=1 note=60 velocity=100 time=28
note_on channel=1 note=60 velocity=100 time=0
note_off channel=1 note=60 velocity=100 time=27
note_on channel=1 note=60 velocity=100 time=0
note_off channel=1 note=60 velocity=100 time=28
note_on channel=1 note=60 velocity=100 time=0
note_off channel=1 note=60 velocity=100 time=28
note_on channel=1 note=60 velocity=100 time=0
note_off channel=1 note=60 velocity=100 time=28
note_on channel=1 note=60 velocity=100 time=0
note_off channel=1 note=60 velocity=100 time=28
note_on channel=1 note=60 velocity=100 time=0
note_off channel=1 note=60 velocity=100 time=28
note_on channel=1 note=60 velocity=100 time=0
note_off channel=1 note=60 velocity=100 time=28
note_on channel=1 note=60 velocity=100 time=0
note_off channel=1 note=60 velocity=100 time=28
note_on channel=1 note=60 velocity=100 time=0
note_off channel=1 note=60 velocity=100 time=28
note_on channel=1 note=60 velocity=100 time=0
note_off channel=1 note=60 velocity=100 time=28
note_on channel=1 note=60 velocity=100 time=0
note_off channel=1 note=60 velocity=100 time=28
note_on channel=1 note=60 velocity=100 time=0
note_off channel=1 note=60 velocity=100 time=28
note_on channel=1 note=60 velocity=100 time=0
note_off channel=1 note=60 velocity=100 time=28
note_on channel=1 note=60 velocity=100 time=0
note_off channel=1 note=60 velocity=100 time=28
note_on channel=1 note=60 velocity=100 time=0
note_off channel=1 note=60 velocity=100 time=28
note_on channel=1 note=60 velocity=100 time=0
note_off channel=1 note=60 velocity=100 time=13
note_on channel=1 note=60 velocity=100 time=0
note_off channel=1 note=60 velocity=100 time=28
note_on channel=1 note=60 velocity=100 time=0
note_off channel=1 note=60 velocity=100 time=28
note_on channel=1 note=60 velocity=100 time=0
note_off channel=1 note=60 velocity=100 time=28
note_on channel=1 note=60 velocity=100 time=0
note_off channel=1 note=60 velocity=100 time=28
note_on channel=1 note=60 velocity=100 time=0
note_off channel=1 note=60 velocity=100 time=28
note_on channel=1 note=60 velocity=100 time=0
note_off channel=1 note=60 velocity=100 time=28
note_on channel=1 note=60 velocity=100 time=0
note_off channel=1 note=60 velocity=100 time=28
note_on channel=1 note=60 velocity=100 time=0
note_off channel=1 note=60 velocity=100 time=28
note_on channel=1 note=60 velocity=100 time=0
note_off channel=1 note=60 velocity=100 time=28
note_on channel=1 note=60 velocity=100 time=0
note_off channel=1 note=60 velocity=100 time=28
note_on channel=1 note=60 velocity=100 time=0
note_off channel=1 note=60 velocity=100 time=28
note_on channel=1 note=60 velocity=100 time=0
note_off channel=1 note=60 velocity=100 time=28
note_on channel=1 note=60 velocity=100 time=0
note_off channel=1 note=60 velocity=100 time=27
note_on channel=1 note=60 velocity=100 time=0
note_off channel=1 note=60 velocity=100 time=28
note_on channel=1 note=60 velocity=100 time=0
note_off channel=1 note=60 velocity=100 time=28
note_on channel=1 note=60 velocity=100 time=0
note_off channel=1 note=60 velocity=100 time=28
note_on channel=1 note=60 velocity=100 time=0
note_off channel=1 note=60 velocity=100 time=28
note_on channel=1 note=60 velocity=100 time=0
note_off channel=1 note=60 velocity=100 time=28
note_on channel=1 note=60 velocity=100 time=0
note_off channel=1 note=60 velocity=100 time=28
note_on channel=1 note=60 velocity=100 time=0
note_off channel=1 note=60 velocity=100 time=28
note_on channel=1 note=60 velocity=100 time=0
note_off channel=1 note=60 velocity=100 time=28
note_on channel=1 note=60 velocity=100 time=0
note_off channel=1 note=60 velocity=100 time=28
note_on channel=1 note=60 velocity=100 time=0
note_off channel=1 note=60 velocity=100 time=28
note_on channel=1 note=60 velocity=100 time=0
note_off channel=1 note=60 velocity=100 time=28
note_on channel=1 note=60 velocity=100 time=0
note_off channel=1 note=60 velocity=100 time=28
note_on channel=1 note=60 velocity=100 time=0
note_off channel=1 note=60 velocity=100 time=28
note_on channel=1 note=60 velocity=100 time=0
note_off channel=1 note=60 velocity=100 time=28
note_on channel=1 note=60 velocity=100 time=0
note_off channel=1 note=60 velocity=100 time=13
note_on channel=1 note=60 velocity=100 time=0
note_off channel=1 note=60 velocity=100 time=28
note_on channel=1 note=60 velocity=100 time=0
note_off channel=1 note=60 velocity=100 time=28
note_on channel=1 note=60 velocity=100 time=0
note_off channel=1 note=60 velocity=100 time=26
<meta message end_of_track time=0>
tests/data/generated/melody_rnn-attention_rnn-0-5-3-10cc_-_Dreadlock_Holiday.2.mid
Length: 12314 ticks = 64.13541666666667 beats = 16.033854166666668 bars
Tracks: 2
Time Signature: <meta message time_signature numerator=4 denominator=4 clocks_per_click=24 notated_32nd_notes_per_beat=8 time=0>
Track 0: 
ticks_per_beat: 192
<meta message track_name name='' time=0>
<meta message smpte_offset frame_rate=25 hours=32 minutes=0 seconds=3 frames=0 sub_frames=0 time=0>
<meta message midi_port port=0 time=0>
sysex data=(126,127,9,1) time=0
<meta message midi_port port=0 time=0>
sysex data=(65,16,66,18,64,0,127,0,65) time=0
<meta message midi_port port=0 time=0>
<meta message time_signature numerator=4 denominator=4 clocks_per_click=24 notated_32nd_notes_per_beat=8 time=0>
<meta message key_signature key='Bb' time=0>
<meta message set_tempo tempo=582524 time=0>
<meta message end_of_track time=0>
Track 1: Melody
ticks_per_beat: 192
<meta message track_name name='Melody' time=0>
<meta message midi_port port=0 time=0>
<meta message track_name name='Melody' time=0>
note_off channel=1 note=60 velocity=100 time=28
note_on channel=1 note=58 velocity=100 time=28
note_off channel=1 note=58 velocity=100 time=28
note_on channel=1 note=57 velocity=100 time=0
note_off channel=1 note=57 velocity=100 time=28
note_on channel=1 note=55 velocity=100 time=195
note_off channel=1 note=55 velocity=100 time=28
note_on channel=1 note=55 velocity=100 time=0
note_off channel=1 note=55 velocity=100 time=28
note_on channel=1 note=58 velocity=100 time=0
note_off channel=1 note=58 velocity=100 time=28
note_on channel=1 note=58 velocity=100 time=0
note_off channel=1 note=58 velocity=100 time=28
note_on channel=1 note=60 velocity=100 time=0
note_off channel=1 note=60 velocity=100 time=28
note_on channel=1 note=58 velocity=100 time=0
note_off channel=1 note=58 velocity=100 time=28
note_on channel=1 note=55 velocity=100 time=0
note_off channel=1 note=55 velocity=100 time=28
note_on channel=1 note=55 velocity=100 time=168
note_off channel=1 note=55 velocity=100 time=28
note_on channel=1 note=55 velocity=100 time=0
note_off channel=1 note=55 velocity=100 time=13
note_on channel=1 note=55 velocity=100 time=196
note_off channel=1 note=55 velocity=100 time=28
note_on channel=1 note=55 velocity=100 time=0
note_off channel=1 note=55 velocity=100 time=28
note_on channel=1 note=58 velocity=100 time=0
note_off channel=1 note=58 velocity=100 time=28
note_on channel=1 note=58 velocity=100 time=0
note_off channel=1 note=58 velocity=100 time=28
note_on channel=1 note=60 velocity=100 time=0
note_off channel=1 note=60 velocity=100 time=28
note_on channel=1 note=57 velocity=100 time=0
note_off channel=1 note=57 velocity=100 time=27
note_on channel=1 note=55 velocity=100 time=0
note_off channel=1 note=55 velocity=100 time=28
note_on channel=1 note=55 velocity=100 time=168
note_off channel=1 note=55 velocity=100 time=28
note_on channel=1 note=55 velocity=100 time=0
note_off channel=1 note=55 velocity=100 time=28
note_on channel=1 note=55 velocity=100 time=0
note_off channel=1 note=55 velocity=100 time=28
note_on channel=1 note=58 velocity=100 time=0
note_off channel=1 note=58 velocity=100 time=28
note_on channel=1 note=60 velocity=100 time=0
note_off channel=1 note=60 velocity=100 time=28
note_on channel=1 note=58 velocity=100 time=0
note_off channel=1 note=58 velocity=100 time=28
note_on channel=1 note=57 velocity=100 time=0
note_off channel=1 note=57 velocity=100 time=28
note_on channel=1 note=55 velocity=100 time=13
note_on channel=1 note=55 velocity=100 time=0
note_off channel=1 note=55 velocity=100 time=28
note_on channel=1 note=55 velocity=100 time=0
note_off channel=1 note=55 velocity=100 time=28
note_on channel=1 note=58 velocity=100 time=0
note_off channel=1 note=58 velocity=100 time=28
note_on channel=1 note=60 velocity=100 time=0
note_off channel=1 note=60 velocity=100 time=28
note_on channel=1 note=58 velocity=100 time=0
note_off channel=1 note=58 velocity=100 time=28
note_on channel=1 note=57 velocity=100 time=0
note_off channel=1 note=57 velocity=100 time=28
note_on channel=1 note=55 velocity=100 time=0
note_off channel=1 note=55 velocity=100 time=28
note_on channel=1 note=55 velocity=100 time=167
note_off channel=1 note=55 velocity=100 time=28
note_on channel=1 note=55 velocity=100 time=0
note_off channel=1 note=55 velocity=100 time=28
note_on channel=1 note=58 velocity=100 time=0
note_off channel=1 note=58 velocity=100 time=28
note_on channel=1 note=58 velocity=100 time=0
note_off channel=1 note=58 velocity=100 time=28
note_on channel=1 note=60 velocity=100 time=0
note_off channel=1 note=60 velocity=100 time=28
note_on channel=1 note=58 velocity=100 time=0
note_off channel=1 note=58 velocity=100 time=28
note_on channel=1 note=57 velocity=100 time=0
note_off channel=1 note=57 velocity=100 time=28
note_on channel=1 note=58 velocity=100 time=0
note_off channel=1 note=58 velocity=100 time=28
note_on channel=1 note=58 velocity=100 time=0
note_off channel=1 note=58 velocity=100 time=28
note_on channel=1 note=55 velocity=100 time=0
note_off channel=1 note=55 velocity=100 time=28
note_on channel=1 note=55 velocity=100 time=28
note_off channel=1 note=55 velocity=100 time=28
note_on channel=1 note=55 velocity=100 time=28
note_off channel=1 note=55 velocity=100 time=28
note_on channel=1 note=55 velocity=100 time=0
note_off channel=1 note=55 velocity=100 time=13
note_on channel=1 note=55 velocity=100 time=168
note_off channel=1 note=55 velocity=100 time=28
note_on channel=1 note=55 velocity=100 time=0
note_off channel=1 note=55 velocity=100 time=28
note_on channel=1 note=55 velocity=100 time=0
note_off channel=1 note=55 velocity=100 time=28
note_on channel=1 note=58 velocity=100 time=0
note_off channel=1 note=58 velocity=100 time=28
note_on channel=1 note=58 velocity=100 time=0
note_off channel=1 note=58 velocity=100 time=28
note_on channel=1 note=60 velocity=100 time=0
note_off channel=1 note=60 velocity=100 time=28
note_on channel=1 note=58 velocity=100 time=0
note_off channel=1 note=58 velocity=100 time=27
note_on channel=1 note=55 velocity=100 time=0
note_off channel=1 note=55 velocity=100 time=28
note_on channel=1 note=60 velocity=100 time=0
note_off channel=1 note=60 velocity=100 time=28
note_on channel=1 note=58 velocity=100 time=0
note_off channel=1 note=58 velocity=100 time=28
note_on channel=1 note=60 velocity=100 time=28
note_off channel=1 note=60 velocity=100 time=28
note_on channel=1 note=58 velocity=100 time=0
note_off channel=1 note=58 velocity=100 time=28
note_on channel=1 note=55 velocity=100 time=28
note_off channel=1 note=55 velocity=100 time=28
note_on channel=1 note=58 velocity=100 time=28
note_off channel=1 note=58 velocity=100 time=28
note_on channel=1 note=60 velocity=100 time=0
note_off channel=1 note=60 velocity=100 time=28
note_on channel=1 note=55 velocity=100 time=28
note_off channel=1 note=55 velocity=100 time=28
note_on channel=1 note=60 velocity=100 time=0
note_off channel=1 note=60 velocity=100 time=28
note_on channel=1 note=60 velocity=100 time=0
note_off channel=1 note=60 velocity=100 time=13
note_on channel=1 note=55 velocity=100 time=0
note_off channel=1 note=55 velocity=100 time=28
note_on channel=1 note=55 velocity=100 time=0
note_off channel=1 note=55 velocity=100 time=28
note_on channel=1 note=58 velocity=100 time=0
note_off channel=1 note=58 velocity=100 time=28
note_on channel=1 note=60 velocity=100 time=0
note_off channel=1 note=60 velocity=100 time=28
note_on channel=1 note=58 velocity=100 time=0
note_off channel=1 note=58 velocity=100 time=28
note_on channel=1 note=57 velocity=100 time=0
note_off channel=1 note=57 velocity=100 time=28
note_on channel=1 note=55 velocity=100 time=0
note_off channel=1 note=55 velocity=100 time=28
note_on channel=1 note=60 velocity=100 time=0
note_off channel=1 note=60 velocity=100 time=28
note_on channel=1 note=57 velocity=100 time=0
note_off channel=1 note=57 velocity=100 time=28
note_on channel=1 note=58 velocity=100 time=28
note_off channel=1 note=58 velocity=100 time=28
note_on channel=1 note=60 velocity=100 time=0
note_off channel=1 note=60 velocity=100 time=28
note_on channel=1 note=55 velocity=100 time=27
note_off channel=1 note=55 velocity=100 time=28
note_on channel=1 note=58 velocity=100 time=28
note_off channel=1 note=58 velocity=100 time=28
note_on channel=1 note=60 velocity=100 time=0
note_off channel=1 note=60 velocity=100 time=28
note_on channel=1 note=55 velocity=100 time=28
note_off channel=1 note=55 velocity=100 time=28
note_on channel=1 note=60 velocity=100 time=0
note_off channel=1 note=60 velocity=100 time=28
note_on channel=1 note=57 velocity=100 time=0
note_off channel=1 note=57 velocity=100 time=28
note_on channel=1 note=60 velocity=100 time=0
note_off channel=1 note=60 velocity=100 time=28
note_on channel=1 note=55 velocity=100 time=0
note_off channel=1 note=55 velocity=100 time=28
note_on channel=1 note=55 velocity=100 time=0
note_off channel=1 note=55 velocity=100 time=28
note_on channel=1 note=60 velocity=100 time=0
note_off channel=1 note=60 velocity=100 time=28
note_on channel=1 note=58 velocity=100 time=0
note_off channel=1 note=58 velocity=100 time=28
note_on channel=1 note=55 velocity=100 time=0
note_off channel=1 note=55 velocity=100 time=28
note_on channel=1 note=55 velocity=100 time=0
note_off channel=1 note=55 velocity=100 time=13
note_on channel=1 note=60 velocity=100 time=0
note_off channel=1 note=60 velocity=100 time=28
note_on channel=1 note=58 velocity=100 time=0
note_off channel=1 note=58 velocity=100 time=28
note_on channel=1 note=58 velocity=100 time=28
note_off channel=1 note=58 velocity=100 time=28
note_on channel=1 note=60 velocity=100 time=0
note_off channel=1 note=60 velocity=100 time=28
note_on channel=1 note=55 velocity=100 time=28
note_off channel=1 note=55 velocity=100 time=28
note_on channel=1 note=55 velocity=100 time=0
note_off channel=1 note=55 velocity=100 time=28
note_on channel=1 note=55 velocity=100 time=0
note_off channel=1 note=55 velocity=100 time=28
note_on channel=1 note=60 velocity=100 time=0
note_off channel=1 note=60 velocity=100 time=28
note_on channel=1 note=57 velocity=100 time=0
note_off channel=1 note=57 velocity=100 time=28
note_on channel=1 note=58 velocity=100 time=28
note_off channel=1 note=58 velocity=100 time=27
note_on channel=1 note=60 velocity=100 time=0
note_off channel=1 note=60 velocity=100 time=28
note_on channel=1 note=60 velocity=100 time=0
note_off channel=1 note=60 velocity=100 time=28
note_on channel=1 note=57 velocity=100 time=0
note_off channel=1 note=57 velocity=100 time=28
note_on channel=1 note=58 velocity=100 time=28
note_off channel=1 note=58 velocity=100 time=28
note_on channel=1 note=60 velocity=100 time=0
note_off channel=1 note=60 velocity=100 time=28
note_on channel=1 note=58 velocity=100 time=0
note_off channel=1 note=58 velocity=100 time=28
note_on channel=1 note=55 velocity=100 time=0
note_off channel=1 note=55 velocity=100 time=28
note_on channel=1 note=55 velocity=100 time=28
note_off channel=1 note=55 velocity=100 time=28
note_on channel=1 note=60 velocity=100 time=0
note_off channel=1 note=60 velocity=100 time=28
note_on channel=1 note=60 velocity=100 time=0
note_off channel=1 note=60 velocity=100 time=28
note_on channel=1 note=60 velocity=100 time=0
note_off channel=1 note=60 velocity=100 time=28
note_on channel=1 note=60 velocity=100 time=0
note_off channel=1 note=60 velocity=100 time=28
note_on channel=1 note=60 velocity=100 time=0
note_off channel=1 note=60 velocity=100 time=13
note_on channel=1 note=55 velocity=100 time=0
note_off channel=1 note=55 velocity=100 time=28
note_on channel=1 note=60 velocity=100 time=0
note_off channel=1 note=60 velocity=100 time=28
note_on channel=1 note=55 velocity=100 time=28
note_off channel=1 note=55 velocity=100 time=28
note_on channel=1 note=60 velocity=100 time=0
note_off channel=1 note=60 velocity=100 time=28
note_on channel=1 note=57 velocity=100 time=0
note_off channel=1 note=57 velocity=100 time=28
note_on channel=1 note=60 velocity=100 time=0
note_off channel=1 note=60 velocity=100 time=28
note_on channel=1 note=55 velocity=100 time=0
note_off channel=1 note=55 velocity=100 time=28
note_on channel=1 note=55 velocity=100 time=0
note_off channel=1 note=55 velocity=100 time=28
note_on channel=1 note=60 velocity=100 time=0
note_off channel=1 note=60 velocity=100 time=28
note_on channel=1 note=58 velocity=100 time=0
note_off channel=1 note=58 velocity=100 time=28
note_on channel=1 note=55 velocity=100 time=0
note_off channel=1 note=55 velocity=100 time=28
note_on channel=1 note=55 velocity=100 time=0
note_off channel=1 note=55 velocity=100 time=27
note_on channel=1 note=55 velocity=100 time=0
note_off channel=1 note=55 velocity=100 time=28
note_on channel=1 note=58 velocity=100 time=0
note_off channel=1 note=58 velocity=100 time=28
note_on channel=1 note=60 velocity=100 time=0
note_off channel=1 note=60 velocity=100 time=28
note_on channel=1 note=60 velocity=100 time=0
note_off channel=1 note=60 velocity=100 time=28
note_on channel=1 note=58 velocity=100 time=0
note_off channel=1 note=58 velocity=100 time=28
note_on channel=1 note=60 velocity=100 time=0
note_off channel=1 note=60 velocity=100 time=28
note_on channel=1 note=60 velocity=100 time=0
note_off channel=1 note=60 velocity=100 time=28
note_on channel=1 note=60 velocity=100 time=0
note_off channel=1 note=60 velocity=100 time=28
note_on channel=1 note=60 velocity=100 time=0
note_off channel=1 note=60 velocity=100 time=28
note_on channel=1 note=60 velocity=100 time=0
note_off channel=1 note=60 velocity=100 time=28
note_on channel=1 note=60 velocity=100 time=0
note_off channel=1 note=60 velocity=100 time=28
note_on channel=1 note=60 velocity=100 time=0
note_off channel=1 note=60 velocity=100 time=28
note_on channel=1 note=60 velocity=100 time=0
note_off channel=1 note=60 velocity=100 time=28
note_on channel=1 note=60 velocity=100 time=0
note_off channel=1 note=60 velocity=100 time=28
note_on channel=1 note=60 velocity=100 time=0
note_off channel=1 note=60 velocity=100 time=13
note_on channel=1 note=55 velocity=100 time=0
note_off channel=1 note=55 velocity=100 time=28
note_on channel=1 note=60 velocity=100 time=0
note_off channel=1 note=60 velocity=100 time=28
note_on channel=1 note=55 velocity=100 time=0
note_off channel=1 note=55 velocity=100 time=28
note_on channel=1 note=55 velocity=100 time=0
note_off channel=1 note=55 velocity=100 time=28
note_on channel=1 note=60 velocity=100 time=0
note_off channel=1 note=60 velocity=100 time=28
note_on channel=1 note=58 velocity=100 time=0
note_off channel=1 note=58 velocity=100 time=28
note_on channel=1 note=55 velocity=100 time=0
note_off channel=1 note=55 velocity=100 time=28
note_on channel=1 note=55 velocity=100 time=0
note_off channel=1 note=55 velocity=100 time=28
note_on channel=1 note=55 velocity=100 time=0
note_off channel=1 note=55 velocity=100 time=28
note_on channel=1 note=58 velocity=100 time=0
note_off channel=1 note=58 velocity=100 time=28
note_on channel=1 note=60 velocity=100 time=0
note_off channel=1 note=60 velocity=100 time=28
note_on channel=1 note=60 velocity=100 time=0
note_off channel=1 note=60 velocity=100 time=28
note_on channel=1 note=58 velocity=100 time=0
note_off channel=1 note=58 velocity=100 time=27
note_on channel=1 note=60 velocity=100 time=0
note_off channel=1 note=60 velocity=100 time=28
note_on channel=1 note=60 velocity=100 time=0
note_off channel=1 note=60 velocity=100 time=28
note_on channel=1 note=60 velocity=100 time=0
note_off channel=1 note=60 velocity=100 time=28
note_on channel=1 note=60 velocity=100 time=0
note_off channel=1 note=60 velocity=100 time=28
note_on channel=1 note=58 velocity=100 time=0
note_off channel=1 note=58 velocity=100 time=28
note_on channel=1 note=60 velocity=100 time=0
note_off channel=1 note=60 velocity=100 time=28
note_on channel=1 note=60 velocity=100 time=0
note_off channel=1 note=60 velocity=100 time=28
note_on channel=1 note=60 velocity=100 time=0
note_off channel=1 note=60 velocity=100 time=28
note_on channel=1 note=60 velocity=100 time=0
note_off channel=1 note=60 velocity=100 time=28
note_on channel=1 note=60 velocity=100 time=0
note_off channel=1 note=60 velocity=100 time=28
note_on channel=1 note=60 velocity=100 time=0
note_off channel=1 note=60 velocity=100 time=28
note_on channel=1 note=60 velocity=100 time=0
note_off channel=1 note=60 velocity=100 time=28
note_on channel=1 note=60 velocity=100 time=0
note_off channel=1 note=60 velocity=100 time=28
note_on channel=1 note=60 velocity=100 time=0
note_off channel=1 note=60 velocity=100 time=28
note_on channel=1 note=60 velocity=100 time=0
note_off channel=1 note=60 velocity=100 time=13
note_on channel=1 note=55 velocity=100 time=0
note_off channel=1 note=55 velocity=100 time=28
note_on channel=1 note=60 velocity=100 time=0
note_off channel=1 note=60 velocity=100 time=28
note_on channel=1 note=60 velocity=100 time=0
note_off channel=1 note=60 velocity=100 time=28
note_on channel=1 note=60 velocity=100 time=0
note_off channel=1 note=60 velocity=100 time=28
note_on channel=1 note=60 velocity=100 time=0
note_off channel=1 note=60 velocity=100 time=28
note_on channel=1 note=60 velocity=100 time=0
note_off channel=1 note=60 velocity=100 time=28
note_on channel=1 note=60 velocity=100 time=0
note_off channel=1 note=60 velocity=100 time=28
note_on channel=1 note=60 velocity=100 time=0
note_off channel=1 note=60 velocity=100 time=28
note_on channel=1 note=60 velocity=100 time=0
note_off channel=1 note=60 velocity=100 time=28
note_on channel=1 note=60 velocity=100 time=0
note_off channel=1 note=60 velocity=100 time=28
note_on channel=1 note=60 velocity=100 time=0
note_off channel=1 note=60 velocity=100 time=28
note_on channel=1 note=60 velocity=100 time=0
note_off channel=1 note=60 velocity=100 time=28
note_on channel=1 note=60 velocity=100 time=0
note_off channel=1 note=60 velocity=100 time=27
note_on channel=1 note=60 velocity=100 time=0
note_off channel=1 note=60 velocity=100 time=28
note_on channel=1 note=60 velocity=100 time=0
note_off channel=1 note=60 velocity=100 time=28
note_on channel=1 note=60 velocity=100 time=0
note_off channel=1 note=60 velocity=100 time=28
note_on channel=1 note=60 velocity=100 time=0
note_off channel=1 note=60 velocity=100 time=28
note_on channel=1 note=60 velocity=100 time=0
note_off channel=1 note=60 velocity=100 time=28
note_on channel=1 note=60 velocity=100 time=0
note_off channel=1 note=60 velocity=100 time=28
note_on channel=1 note=60 velocity=100 time=0
note_off channel=1 note=60 velocity=100 time=28
note_on channel=1 note=60 velocity=100 time=0
note_off channel=1 note=60 velocity=100 time=28
note_on channel=1 note=60 velocity=100 time=0
note_off channel=1 note=60 velocity=100 time=28
note_on channel=1 note=58 velocity=100 time=0
note_off channel=1 note=58 velocity=100 time=28
note_on channel=1 note=60 velocity=100 time=0
note_off channel=1 note=60 velocity=100 time=28
note_on channel=1 note=60 velocity=100 time=0
note_off channel=1 note=60 velocity=100 time=28
note_on channel=1 note=60 velocity=100 time=0
note_off channel=1 note=60 velocity=100 time=28
note_on channel=1 note=60 velocity=100 time=0
note_off channel=1 note=60 velocity=100 time=28
note_on channel=1 note=60 velocity=100 time=0
note_off channel=1 note=60 velocity=100 time=13
note_on channel=1 note=55 velocity=100 time=0
note_off channel=1 note=55 velocity=100 time=28
note_on channel=1 note=60 velocity=100 time=0
note_off channel=1 note=60 velocity=100 time=28
note_on channel=1 note=60 velocity=100 time=0
note_off channel=1 note=60 velocity=100 time=28
note_on channel=1 note=60 velocity=100 time=0
note_off channel=1 note=60 velocity=100 time=28
note_on channel=1 note=60 velocity=100 time=0
note_off channel=1 note=60 velocity=100 time=28
note_on channel=1 note=60 velocity=100 time=0
note_off channel=1 note=60 velocity=100 time=28
note_on channel=1 note=60 velocity=100 time=0
note_off channel=1 note=60 velocity=100 time=28
note_on channel=1 note=60 velocity=100 time=0
note_off channel=1 note=60 velocity=100 time=28
note_on channel=1 note=60 velocity=100 time=0
note_off channel=1 note=60 velocity=100 time=28
note_on channel=1 note=60 velocity=100 time=0
note_off channel=1 note=60 velocity=100 time=28
note_on channel=1 note=60 velocity=100 time=0
note_off channel=1 note=60 velocity=100 time=28
note_on channel=1 note=60 velocity=100 time=0
note_off channel=1 note=60 velocity=100 time=28
note_on channel=1 note=58 velocity=100 time=0
note_off channel=1 note=58 velocity=100 time=27
note_on channel=1 note=60 velocity=100 time=0
note_off channel=1 note=60 velocity=100 time=28
note_on channel=1 note=60 velocity=100 time=0
note_off channel=1 note=60 velocity=100 time=28
note_on channel=1 note=60 velocity=100 time=0
note_off channel=1 note=60 velocity=100 time=28
note_on channel=1 note=60 velocity=100 time=0
note_off channel=1 note=60 velocity=100 time=28
note_on channel=1 note=60 velocity=100 time=0
note_off channel=1 note=60 velocity=100 time=28
note_on channel=1 note=60 velocity=100 time=0
note_off channel=1 note=60 velocity=100 time=28
note_on channel=1 note=60 velocity=100 time=0
note_off channel=1 note=60 velocity=100 time=28
note_on channel=1 note=60 velocity=100 time=0
note_off channel=1 note=60 velocity=100 time=28
note_on channel=1 note=60 velocity=100 time=0
note_off channel=1 note=60 velocity=100 time=28
note_on channel=1 note=60 velocity=100 time=0
note_off channel=1 note=60 velocity=100 time=28
note_on channel=1 note=60 velocity=100 time=0
note_off channel=1 note=60 velocity=100 time=28
note_on channel=1 note=60 velocity=100 time=0
note_off channel=1 note=60 velocity=100 time=28
note_on channel=1 note=60 velocity=100 time=0
note_off channel=1 note=60 velocity=100 time=28
note_on channel=1 note=60 velocity=100 time=0
note_off channel=1 note=60 velocity=100 time=28
note_on channel=1 note=60 velocity=100 time=0
note_off channel=1 note=60 velocity=100 time=13
note_on channel=1 note=58 velocity=100 time=0
note_off channel=1 note=58 velocity=100 time=28
note_on channel=1 note=60 velocity=100 time=0
note_off channel=1 note=60 velocity=100 time=28
note_on channel=1 note=60 velocity=100 time=0
note_off channel=1 note=60 velocity=100 time=28
note_on channel=1 note=60 velocity=100 time=0
note_off channel=1 note=60 velocity=100 time=28
note_on channel=1 note=60 velocity=100 time=0
note_off channel=1 note=60 velocity=100 time=28
note_on channel=1 note=58 velocity=100 time=0
note_off channel=1 note=58 velocity=100 time=28
note_on channel=1 note=60 velocity=100 time=0
note_off channel=1 note=60 velocity=100 time=28
note_on channel=1 note=60 velocity=100 time=0
note_off channel=1 note=60 velocity=100 time=28
note_on channel=1 note=60 velocity=100 time=0
note_off channel=1 note=60 velocity=100 time=28
note_on channel=1 note=60 velocity=100 time=0
note_off channel=1 note=60 velocity=100 time=28
note_on channel=1 note=58 velocity=100 time=0
note_off channel=1 note=58 velocity=100 time=28
note_on channel=1 note=60 velocity=100 time=0
note_off channel=1 note=60 velocity=100 time=28
note_on channel=1 note=60 velocity=100 time=0
note_off channel=1 note=60 velocity=100 time=27
note_on channel=1 note=60 velocity=100 time=0
note_off channel=1 note=60 velocity=100 time=28
note_on channel=1 note=60 velocity=100 time=0
note_off channel=1 note=60 velocity=100 time=28
note_on channel=1 note=60 velocity=100 time=0
note_off channel=1 note=60 velocity=100 time=28
note_on channel=1 note=60 velocity=100 time=0
note_off channel=1 note=60 velocity=100 time=28
note_on channel=1 note=60 velocity=100 time=0
note_off channel=1 note=60 velocity=100 time=28
note_on channel=1 note=60 velocity=100 time=0
note_off channel=1 note=60 velocity=100 time=28
note_on channel=1 note=60 velocity=100 time=0
note_off channel=1 note=60 velocity=100 time=28
note_on channel=1 note=60 velocity=100 time=0
note_off channel=1 note=60 velocity=100 time=28
note_on channel=1 note=60 velocity=100 time=0
note_off channel=1 note=60 velocity=100 time=28
note_on channel=1 note=60 velocity=100 time=0
note_off channel=1 note=60 velocity=100 time=28
note_on channel=1 note=60 velocity=100 time=0
note_off channel=1 note=60 velocity=100 time=28
note_on channel=1 note=60 velocity=100 time=0
note_off channel=1 note=60 velocity=100 time=28
note_on channel=1 note=60 velocity=100 time=0
note_off channel=1 note=60 velocity=100 time=28
note_on channel=1 note=60 velocity=100 time=0
note_off channel=1 note=60 velocity=100 time=28
note_on channel=1 note=60 velocity=100 time=0
note_off channel=1 note=60 velocity=100 time=13
note_on channel=1 note=60 velocity=100 time=0
note_off channel=1 note=60 velocity=100 time=28
note_on channel=1 note=60 velocity=100 time=0
note_off channel=1 note=60 velocity=100 time=28
note_on channel=1 note=60 velocity=100 time=0
note_off channel=1 note=60 velocity=100 time=28
note_on channel=1 note=58 velocity=100 time=0
note_off channel=1 note=58 velocity=100 time=28
note_on channel=1 note=60 velocity=100 time=0
note_off channel=1 note=60 velocity=100 time=28
note_on channel=1 note=60 velocity=100 time=0
note_off channel=1 note=60 velocity=100 time=28
note_on channel=1 note=60 velocity=100 time=0
note_off channel=1 note=60 velocity=100 time=28
note_on channel=1 note=60 velocity=100 time=0
note_off channel=1 note=60 velocity=100 time=28
note_on channel=1 note=60 velocity=100 time=0
note_off channel=1 note=60 velocity=100 time=28
note_on channel=1 note=60 velocity=100 time=0
note_off channel=1 note=60 velocity=100 time=28
note_on channel=1 note=60 velocity=100 time=0
note_off channel=1 note=60 velocity=100 time=28
note_on channel=1 note=60 velocity=100 time=0
note_off channel=1 note=60 velocity=100 time=28
note_on channel=1 note=60 velocity=100 time=0
note_off channel=1 note=60 velocity=100 time=27
note_on channel=1 note=60 velocity=100 time=0
note_off channel=1 note=60 velocity=100 time=28
note_on channel=1 note=60 velocity=100 time=0
note_off channel=1 note=60 velocity=100 time=28
note_on channel=1 note=60 velocity=100 time=0
note_off channel=1 note=60 velocity=100 time=28
note_on channel=1 note=60 velocity=100 time=0
note_off channel=1 note=60 velocity=100 time=28
note_on channel=1 note=60 velocity=100 time=0
note_off channel=1 note=60 velocity=100 time=28
note_on channel=1 note=60 velocity=100 time=0
note_off channel=1 note=60 velocity=100 time=28
note_on channel=1 note=60 velocity=100 time=0
note_off channel=1 note=60 velocity=100 time=28
note_on channel=1 note=60 velocity=100 time=0
note_off channel=1 note=60 velocity=100 time=28
note_on channel=1 note=60 velocity=100 time=0
note_off channel=1 note=60 velocity=100 time=28
note_on channel=1 note=60 velocity=100 time=0
note_off channel=1 note=60 velocity=100 time=28
note_on channel=1 note=60 velocity=100 time=0
note_off channel=1 note=60 velocity=100 time=28
note_on channel=1 note=60 velocity=100 time=0
note_off channel=1 note=60 velocity=100 time=28
note_on channel=1 note=60 velocity=100 time=0
note_off channel=1 note=60 velocity=100 time=28
note_on channel=1 note=60 velocity=100 time=0
note_off channel=1 note=60 velocity=100 time=28
note_on channel=1 note=60 velocity=100 time=0
note_off channel=1 note=60 velocity=100 time=13
note_on channel=1 note=60 velocity=100 time=0
note_off channel=1 note=60 velocity=100 time=28
note_on channel=1 note=60 velocity=100 time=0
note_off channel=1 note=60 velocity=100 time=28
note_on channel=1 note=58 velocity=100 time=0
note_off channel=1 note=58 velocity=100 time=28
note_on channel=1 note=60 velocity=100 time=0
note_off channel=1 note=60 velocity=100 time=28
note_on channel=1 note=60 velocity=100 time=0
note_off channel=1 note=60 velocity=100 time=28
note_on channel=1 note=60 velocity=100 time=0
note_off channel=1 note=60 velocity=100 time=28
note_on channel=1 note=60 velocity=100 time=0
note_off channel=1 note=60 velocity=100 time=28
note_on channel=1 note=60 velocity=100 time=0
note_off channel=1 note=60 velocity=100 time=28
note_on channel=1 note=60 velocity=100 time=0
note_off channel=1 note=60 velocity=100 time=28
note_on channel=1 note=60 velocity=100 time=0
note_off channel=1 note=60 velocity=100 time=28
note_on channel=1 note=60 velocity=100 time=0
note_off channel=1 note=60 velocity=100 time=28
note_on channel=1 note=60 velocity=100 time=0
note_off channel=1 note=60 velocity=100 time=28
note_on channel=1 note=60 velocity=100 time=0
note_off channel=1 note=60 velocity=100 time=27
note_on channel=1 note=60 velocity=100 time=0
note_off channel=1 note=60 velocity=100 time=28
note_on channel=1 note=60 velocity=100 time=0
note_off channel=1 note=60 velocity=100 time=28
note_on channel=1 note=60 velocity=100 time=0
note_off channel=1 note=60 velocity=100 time=28
note_on channel=1 note=60 velocity=100 time=0
note_off channel=1 note=60 velocity=100 time=28
note_on channel=1 note=60 velocity=100 time=0
note_off channel=1 note=60 velocity=100 time=28
note_on channel=1 note=60 velocity=100 time=0
note_off channel=1 note=60 velocity=100 time=28
note_on channel=1 note=60 velocity=100 time=0
note_off channel=1 note=60 velocity=100 time=28
note_on channel=1 note=60 velocity=100 time=0
note_off channel=1 note=60 velocity=100 time=28
note_on channel=1 note=60 velocity=100 time=0
note_off channel=1 note=60 velocity=100 time=28
note_on channel=1 note=60 velocity=100 time=0
note_off channel=1 note=60 velocity=100 time=28
note_on channel=1 note=60 velocity=100 time=0
note_off channel=1 note=60 velocity=100 time=28
note_on channel=1 note=60 velocity=100 time=0
note_off channel=1 note=60 velocity=100 time=28
note_on channel=1 note=60 velocity=100 time=0
note_off channel=1 note=60 velocity=100 time=28
note_on channel=1 note=60 velocity=100 time=0
note_off channel=1 note=60 velocity=100 time=28
note_on channel=1 note=60 velocity=100 time=0
note_off channel=1 note=60 velocity=100 time=13
note_on channel=1 note=60 velocity=100 time=0
note_off channel=1 note=60 velocity=100 time=28
note_on channel=1 note=60 velocity=100 time=0
note_off channel=1 note=60 velocity=100 time=28
note_on channel=1 note=60 velocity=100 time=0
note_off channel=1 note=60 velocity=100 time=28
note_on channel=1 note=60 velocity=100 time=0
note_off channel=1 note=60 velocity=100 time=28
note_on channel=1 note=60 velocity=100 time=0
note_off channel=1 note=60 velocity=100 time=28
note_on channel=1 note=60 velocity=100 time=0
note_off channel=1 note=60 velocity=100 time=28
note_on channel=1 note=60 velocity=100 time=0
note_off channel=1 note=60 velocity=100 time=28
note_on channel=1 note=60 velocity=100 time=0
note_off channel=1 note=60 velocity=100 time=28
note_on channel=1 note=60 velocity=100 time=0
note_off channel=1 note=60 velocity=100 time=28
note_on channel=1 note=60 velocity=100 time=0
note_off channel=1 note=60 velocity=100 time=28
note_on channel=1 note=60 velocity=100 time=0
note_off channel=1 note=60 velocity=100 time=28
note_on channel=1 note=60 velocity=100 time=0
note_off channel=1 note=60 velocity=100 time=28
note_on channel=1 note=60 velocity=100 time=0
note_off channel=1 note=60 velocity=100 time=27
note_on channel=1 note=60 velocity=100 time=0
note_off channel=1 note=60 velocity=100 time=28
note_on channel=1 note=60 velocity=100 time=0
note_off channel=1 note=60 velocity=100 time=28
note_on channel=1 note=60 velocity=100 time=0
note_off channel=1 note=60 velocity=100 time=28
note_on channel=1 note=60 velocity=100 time=0
note_off channel=1 note=60 velocity=100 time=28
note_on channel=1 note=60 velocity=100 time=0
note_off channel=1 note=60 velocity=100 time=28
note_on channel=1 note=60 velocity=100 time=0
note_off channel=1 note=60 velocity=100 time=28
note_on channel=1 note=60 velocity=100 time=0
note_off channel=1 note=60 velocity=100 time=28
note_on channel=1 note=60 velocity=100 time=0
note_off channel=1 note=60 velocity=100 time=28
note_on channel=1 note=60 velocity=100 time=0
note_off channel=1 note=60 velocity=100 time=28
note_on channel=1 note=60 velocity=100 time=0
note_off channel=1 note=60 velocity=100 time=28
note_on channel=1 note=60 velocity=100 time=0
note_off channel=1 note=60 velocity=100 time=28
note_on channel=1 note=60 velocity=100 time=0
note_off channel=1 note=60 velocity=100 time=28
note_on channel=1 note=60 velocity=100 time=0
note_off channel=1 note=60 velocity=100 time=28
note_on channel=1 note=60 velocity=100 time=0
note_off channel=1 note=60 velocity=100 time=28
note_on channel=1 note=60 velocity=100 time=0
note_off channel=1 note=60 velocity=100 time=13
note_on channel=1 note=60 velocity=100 time=0
note_off channel=1 note=60 velocity=100 time=28
note_on channel=1 note=60 velocity=100 time=0
note_off channel=1 note=60 velocity=100 time=28
note_on channel=1 note=60 velocity=100 time=0
note_off channel=1 note=60 velocity=100 time=28
note_on channel=1 note=60 velocity=100 time=0
note_off channel=1 note=60 velocity=100 time=28
note_on channel=1 note=60 velocity=100 time=0
note_off channel=1 note=60 velocity=100 time=28
note_on channel=1 note=60 velocity=100 time=0
note_off channel=1 note=60 velocity=100 time=28
note_on channel=1 note=60 velocity=100 time=0
note_off channel=1 note=60 velocity=100 time=28
note_on channel=1 note=60 velocity=100 time=0
note_off channel=1 note=60 velocity=100 time=28
note_on channel=1 note=60 velocity=100 time=0
note_off channel=1 note=60 velocity=100 time=28
note_on channel=1 note=60 velocity=100 time=0
note_off channel=1 note=60 velocity=100 time=28
note_on channel=1 note=60 velocity=100 time=0
note_off channel=1 note=60 velocity=100 time=28
note_on channel=1 note=60 velocity=100 time=0
note_off channel=1 note=60 velocity=100 time=28
note_on channel=1 note=60 velocity=100 time=0
note_off channel=1 note=60 velocity=100 time=27
note_on channel=1 note=60 velocity=100 time=0
note_off channel=1 note=60 velocity=100 time=28
note_on channel=1 note=60 velocity=100 time=0
note_off channel=1 note=60 velocity=100 time=28
note_on channel=1 note=60 velocity=100 time=0
note_off channel=1 note=60 velocity=100 time=28
note_on channel=1 note=60 velocity=100 time=0
note_off channel=1 note=60 velocity=100 time=28
note_on channel=1 note=60 velocity=100 time=0
note_off channel=1 note=60 velocity=100 time=28
note_on channel=1 note=60 velocity=100 time=0
note_off channel=1 note=60 velocity=100 time=28
note_on channel=1 note=60 velocity=100 time=0
note_off channel=1 note=60 velocity=100 time=28
note_on channel=1 note=60 velocity=100 time=0
note_off channel=1 note=60 velocity=100 time=28
note_on channel=1 note=60 velocity=100 time=0
note_off channel=1 note=60 velocity=100 time=28
note_on channel=1 note=60 velocity=100 time=0
note_off channel=1 note=60 velocity=100 time=28
note_on channel=1 note=60 velocity=100 time=0
note_off channel=1 note=60 velocity=100 time=28
note_on channel=1 note=60 velocity=100 time=0
note_off channel=1 note=60 velocity=100 time=28
note_on channel=1 note=60 velocity=100 time=0
note_off channel=1 note=60 velocity=100 time=28
note_on channel=1 note=60 velocity=100 time=0
note_off channel=1 note=60 velocity=100 time=28
note_on channel=1 note=60 velocity=100 time=0
note_off channel=1 note=60 velocity=100 time=13
note_on channel=1 note=60 velocity=100 time=0
note_off channel=1 note=60 velocity=100 time=28
note_on channel=1 note=60 velocity=100 time=0
note_off channel=1 note=60 velocity=100 time=28
note_on channel=1 note=60 velocity=100 time=0
note_off channel=1 note=60 velocity=100 time=28
note_on channel=1 note=60 velocity=100 time=0
note_off channel=1 note=60 velocity=100 time=28
note_on channel=1 note=60 velocity=100 time=0
note_off channel=1 note=60 velocity=100 time=28
note_on channel=1 note=60 velocity=100 time=0
note_off channel=1 note=60 velocity=100 time=28
note_on channel=1 note=60 velocity=100 time=0
note_off channel=1 note=60 velocity=100 time=28
note_on channel=1 note=60 velocity=100 time=0
note_off channel=1 note=60 velocity=100 time=28
note_on channel=1 note=60 velocity=100 time=0
note_off channel=1 note=60 velocity=100 time=28
note_on channel=1 note=60 velocity=100 time=0
note_off channel=1 note=60 velocity=100 time=28
note_on channel=1 note=60 velocity=100 time=0
note_off channel=1 note=60 velocity=100 time=28
note_on channel=1 note=60 velocity=100 time=0
note_off channel=1 note=60 velocity=100 time=28
note_on channel=1 note=60 velocity=100 time=0
note_off channel=1 note=60 velocity=100 time=27
note_on channel=1 note=60 velocity=100 time=0
note_off channel=1 note=60 velocity=100 time=28
note_on channel=1 note=60 velocity=100 time=0
note_off channel=1 note=60 velocity=100 time=28
note_on channel=1 note=60 velocity=100 time=0
note_off channel=1 note=60 velocity=100 time=28
note_on channel=1 note=60 velocity=100 time=0
note_off channel=1 note=60 velocity=100 time=28
note_on channel=1 note=60 velocity=100 time=0
note_off channel=1 note=60 velocity=100 time=28
note_on channel=1 note=60 velocity=100 time=0
note_off channel=1 note=60 velocity=100 time=28
note_on channel=1 note=60 velocity=100 time=0
note_off channel=1 note=60 velocity=100 time=28
note_on channel=1 note=60 velocity=100 time=0
note_off channel=1 note=60 velocity=100 time=28
note_on channel=1 note=60 velocity=100 time=0
note_off channel=1 note=60 velocity=100 time=28
note_on channel=1 note=60 velocity=100 time=0
note_off channel=1 note=60 velocity=100 time=28
note_on channel=1 note=60 velocity=100 time=0
note_off channel=1 note=60 velocity=100 time=28
note_on channel=1 note=60 velocity=100 time=0
note_off channel=1 note=60 velocity=100 time=28
note_on channel=1 note=60 velocity=100 time=0
note_off channel=1 note=60 velocity=100 time=28
note_on channel=1 note=60 velocity=100 time=0
note_off channel=1 note=60 velocity=100 time=28
note_on channel=1 note=60 velocity=100 time=0
note_off channel=1 note=60 velocity=100 time=13
note_on channel=1 note=60 velocity=100 time=0
note_off channel=1 note=60 velocity=100 time=28
note_on channel=1 note=60 velocity=100 time=0
note_off channel=1 note=60 velocity=100 time=28
note_on channel=1 note=60 velocity=100 time=0
note_off channel=1 note=60 velocity=100 time=26
<meta message end_of_track time=0>
