/home/ghales/git/tg-server/tests/data/dataset/Four_Tops_-_Loco_in_Acapulco.mid
Length: 189136 ticks = 492.5416666666667 beats = 123.13541666666667 bars
Tracks: 2
Time Signature: <meta message time_signature numerator=4 denominator=4 clocks_per_click=24 notated_32nd_notes_per_beat=8 time=0>
Track 0: 
ticks_per_beat: 384
<meta message set_tempo tempo=491800 time=0>
<meta message time_signature numerator=4 denominator=4 clocks_per_click=24 notated_32nd_notes_per_beat=8 time=0>
<meta message time_signature numerator=4 denominator=4 clocks_per_click=24 notated_32nd_notes_per_beat=8 time=0>
<meta message set_tempo tempo=491800 time=0>
<meta message end_of_track time=0>
Track 1: MELODY
ticks_per_beat: 384
<meta message track_name name='MELODY' time=0>
sysex data=(65,16,66,18,64,0,127,0,65) time=0
program_change channel=0 program=65 time=1536
control_change channel=0 control=7 value=90 time=0
control_change channel=0 control=93 value=127 time=26312
note_on channel=0 note=64 velocity=119 time=0
note_off channel=0 note=64 velocity=0 time=104
note_on channel=0 note=64 velocity=119 time=284
note_off channel=0 note=64 velocity=0 time=352
note_on channel=0 note=61 velocity=119 time=32
note_off channel=0 note=61 velocity=0 time=68
note_on channel=0 note=64 velocity=119 time=308
note_off channel=0 note=64 velocity=0 time=188
note_on channel=0 note=66 velocity=119 time=196
note_off channel=0 note=66 velocity=0 time=68
note_on channel=0 note=66 velocity=119 time=128
note_off channel=0 note=66 velocity=0 time=88
note_on channel=0 note=64 velocity=119 time=100
note_off channel=0 note=64 velocity=0 time=76
note_on channel=0 note=66 velocity=119 time=120
note_off channel=0 note=66 velocity=0 time=332
note_on channel=0 note=64 velocity=119 time=52
note_off channel=0 note=64 velocity=0 time=300
note_on channel=0 note=64 velocity=119 time=272
note_off channel=0 note=64 velocity=0 time=164
note_on channel=0 note=61 velocity=119 time=20
note_off channel=0 note=61 velocity=0 time=92
note_on channel=0 note=64 velocity=119 time=100
note_off channel=0 note=64 velocity=0 time=252
note_on channel=0 note=66 velocity=119 time=112
note_off channel=0 note=66 velocity=0 time=156
note_on channel=0 note=61 velocity=119 time=260
note_off channel=0 note=61 velocity=0 time=128
note_on channel=0 note=64 velocity=119 time=260
note_off channel=0 note=64 velocity=0 time=356
note_on channel=0 note=66 velocity=119 time=8
note_off channel=0 note=66 velocity=0 time=232
note_on channel=0 note=66 velocity=119 time=148
note_off channel=0 note=66 velocity=0 time=112
note_on channel=0 note=66 velocity=119 time=88
note_on channel=0 note=64 velocity=119 time=200
note_off channel=0 note=66 velocity=0 time=4
note_off channel=0 note=64 velocity=0 time=144
note_on channel=0 note=64 velocity=119 time=240
note_off channel=0 note=64 velocity=0 time=156
note_on channel=0 note=61 velocity=119 time=44
note_off channel=0 note=61 velocity=0 time=88
note_on channel=0 note=64 velocity=119 time=108
note_off channel=0 note=64 velocity=0 time=232
note_on channel=0 note=64 velocity=119 time=128
note_off channel=0 note=64 velocity=0 time=152
note_on channel=0 note=64 velocity=119 time=616
note_off channel=0 note=64 velocity=0 time=136
note_on channel=0 note=64 velocity=119 time=64
note_off channel=0 note=64 velocity=0 time=184
note_on channel=0 note=61 velocity=119 time=12
note_off channel=0 note=61 velocity=0 time=88
note_on channel=0 note=66 velocity=119 time=120
note_off channel=0 note=66 velocity=0 time=340
note_on channel=0 note=64 velocity=119 time=44
note_off channel=0 note=64 velocity=0 time=380
note_on channel=0 note=64 velocity=119 time=176
note_off channel=0 note=64 velocity=0 time=152
note_on channel=0 note=61 velocity=119 time=32
note_off channel=0 note=61 velocity=0 time=136
note_on channel=0 note=64 velocity=119 time=64
note_off channel=0 note=64 velocity=0 time=244
note_on channel=0 note=64 velocity=119 time=124
note_off channel=0 note=64 velocity=0 time=176
note_on channel=0 note=66 velocity=119 time=200
note_off channel=0 note=66 velocity=0 time=248
note_on channel=0 note=66 velocity=119 time=164
note_off channel=0 note=66 velocity=0 time=52
note_on channel=0 note=66 velocity=119 time=136
note_off channel=0 note=66 velocity=0 time=172
note_on channel=0 note=64 velocity=119 time=24
note_off channel=0 note=64 velocity=0 time=56
note_on channel=0 note=66 velocity=119 time=140
note_off channel=0 note=66 velocity=0 time=360
note_on channel=0 note=64 velocity=119 time=28
note_off channel=0 note=64 velocity=0 time=344
note_on channel=0 note=61 velocity=119 time=20
note_off channel=0 note=61 velocity=0 time=36
note_on channel=0 note=64 velocity=119 time=172
note_off channel=0 note=64 velocity=0 time=68
note_on channel=0 note=64 velocity=119 time=120
note_off channel=0 note=64 velocity=0 time=100
note_on channel=0 note=64 velocity=119 time=96
note_off channel=0 note=64 velocity=0 time=172
note_on channel=0 note=64 velocity=119 time=196
note_off channel=0 note=64 velocity=0 time=144
note_on channel=0 note=64 velocity=119 time=236
note_off channel=0 note=64 velocity=0 time=260
note_on channel=0 note=64 velocity=119 time=136
note_off channel=0 note=64 velocity=0 time=44
note_on channel=0 note=64 velocity=119 time=148
note_off channel=0 note=64 velocity=0 time=144
note_on channel=0 note=61 velocity=119 time=52
note_off channel=0 note=61 velocity=0 time=48
note_on channel=0 note=66 velocity=119 time=148
note_off channel=0 note=66 velocity=0 time=352
note_on channel=0 note=64 velocity=119 time=28
note_off channel=0 note=64 velocity=0 time=212
note_on channel=0 note=64 velocity=119 time=360
note_off channel=0 note=64 velocity=0 time=156
note_on channel=0 note=61 velocity=119 time=20
note_off channel=0 note=61 velocity=0 time=80
note_on channel=0 note=64 velocity=119 time=116
note_off channel=0 note=64 velocity=0 time=228
note_on channel=0 note=61 velocity=119 time=156
note_off channel=0 note=61 velocity=0 time=292
note_on channel=0 note=68 velocity=119 time=92
note_off channel=0 note=68 velocity=0 time=352
note_on channel=0 note=66 velocity=119 time=32
note_off channel=0 note=66 velocity=0 time=176
note_on channel=0 note=64 velocity=119 time=20
note_off channel=0 note=64 velocity=0 time=68
note_on channel=0 note=66 velocity=119 time=140
note_off channel=0 note=66 velocity=0 time=312
note_on channel=0 note=64 velocity=119 time=64
note_off channel=0 note=64 velocity=0 time=164
note_on channel=0 note=61 velocity=119 time=20
note_off channel=0 note=61 velocity=0 time=176
note_on channel=0 note=64 velocity=119 time=24
note_off channel=0 note=64 velocity=0 time=204
note_on channel=0 note=64 velocity=119 time=164
note_off channel=0 note=64 velocity=0 time=180
note_on channel=0 note=61 velocity=119 time=8
note_off channel=0 note=61 velocity=0 time=200
note_on channel=0 note=64 velocity=119 time=24
note_off channel=0 note=64 velocity=0 time=172
note_on channel=0 note=64 velocity=119 time=184
note_off channel=0 note=64 velocity=0 time=148
note_on channel=0 note=59 velocity=119 time=616
note_on channel=0 note=61 velocity=119 time=204
note_off channel=0 note=59 velocity=0 time=4
note_off channel=0 note=61 velocity=0 time=168
note_on channel=0 note=64 velocity=119 time=12
note_off channel=0 note=64 velocity=0 time=84
note_on channel=0 note=66 velocity=119 time=116
note_off channel=0 note=66 velocity=0 time=240
note_on channel=0 note=66 velocity=119 time=160
note_off channel=0 note=66 velocity=0 time=180
note_on channel=0 note=64 velocity=119 time=12
note_off channel=0 note=64 velocity=0 time=132
note_on channel=0 note=64 velocity=119 time=244
note_off channel=0 note=64 velocity=0 time=176
note_on channel=0 note=61 velocity=119 time=8
note_off channel=0 note=61 velocity=0 time=104
note_on channel=0 note=64 velocity=119 time=96
note_on channel=0 note=61 velocity=119 time=376
note_off channel=0 note=64 velocity=0 time=4
note_off channel=0 note=61 velocity=0 time=116
note_on channel=0 note=66 velocity=119 time=464
note_off channel=0 note=66 velocity=0 time=68
note_on channel=0 note=66 velocity=119 time=128
note_off channel=0 note=66 velocity=0 time=56
note_on channel=0 note=66 velocity=119 time=132
note_off channel=0 note=66 velocity=0 time=172
note_on channel=0 note=64 velocity=119 time=24
note_off channel=0 note=64 velocity=0 time=68
note_on channel=0 note=66 velocity=119 time=112
note_off channel=0 note=66 velocity=0 time=360
note_on channel=0 note=64 velocity=119 time=36
note_off channel=0 note=64 velocity=0 time=192
note_on channel=0 note=64 velocity=119 time=368
note_off channel=0 note=64 velocity=0 time=168
note_on channel=0 note=66 velocity=119 time=20
note_off channel=0 note=66 velocity=0 time=80
note_on channel=0 note=66 velocity=119 time=136
note_off channel=0 note=66 velocity=0 time=248
note_on channel=0 note=64 velocity=119 time=128
note_off channel=0 note=64 velocity=0 time=144
note_on channel=0 note=66 velocity=119 time=244
note_off channel=0 note=66 velocity=0 time=224
note_on channel=0 note=66 velocity=119 time=144
note_off channel=0 note=66 velocity=0 time=72
note_on channel=0 note=66 velocity=119 time=124
note_off channel=0 note=66 velocity=0 time=184
note_on channel=0 note=64 velocity=119 time=8
note_off channel=0 note=64 velocity=0 time=72
note_on channel=0 note=66 velocity=119 time=132
note_off channel=0 note=66 velocity=0 time=304
note_on channel=0 note=64 velocity=119 time=84
note_off channel=0 note=64 velocity=0 time=176
note_on channel=0 note=64 velocity=119 time=400
note_off channel=0 note=64 velocity=0 time=168
note_on channel=0 note=66 velocity=119 time=20
note_off channel=0 note=66 velocity=0 time=48
note_on channel=0 note=66 velocity=119 time=148
note_off channel=0 note=66 velocity=0 time=216
note_on channel=0 note=64 velocity=119 time=168
note_off channel=0 note=64 velocity=0 time=144
note_on channel=0 note=64 velocity=119 time=232
note_off channel=0 note=64 velocity=0 time=268
note_on channel=0 note=61 velocity=119 time=116
note_on channel=0 note=59 velocity=119 time=392
note_off channel=0 note=61 velocity=0 time=4
note_off channel=0 note=59 velocity=0 time=856
note_on channel=0 note=64 velocity=119 time=284
note_on channel=0 note=66 velocity=119 time=196
note_off channel=0 note=64 velocity=0 time=4
note_off channel=0 note=66 velocity=0 time=56
note_on channel=0 note=66 velocity=119 time=136
note_off channel=0 note=66 velocity=0 time=288
note_on channel=0 note=64 velocity=119 time=96
note_off channel=0 note=64 velocity=0 time=168
note_on channel=0 note=66 velocity=119 time=212
note_off channel=0 note=66 velocity=0 time=228
note_on channel=0 note=66 velocity=119 time=156
note_off channel=0 note=66 velocity=0 time=56
note_on channel=0 note=66 velocity=119 time=140
note_off channel=0 note=66 velocity=0 time=168
note_on channel=0 note=64 velocity=119 time=28
note_off channel=0 note=64 velocity=0 time=76
note_on channel=0 note=66 velocity=119 time=112
note_off channel=0 note=66 velocity=0 time=292
note_on channel=0 note=64 velocity=119 time=88
note_off channel=0 note=64 velocity=0 time=244
note_on channel=0 note=64 velocity=119 time=328
note_on channel=0 note=66 velocity=119 time=192
note_off channel=0 note=64 velocity=0 time=4
note_off channel=0 note=66 velocity=0 time=44
note_on channel=0 note=66 velocity=119 time=148
note_off channel=0 note=66 velocity=0 time=328
note_on channel=0 note=64 velocity=119 time=44
note_off channel=0 note=64 velocity=0 time=740
note_on channel=0 note=61 velocity=119 time=20
note_off channel=0 note=61 velocity=0 time=372
note_on channel=0 note=59 velocity=119 time=20
note_off channel=0 note=59 velocity=0 time=704
note_on channel=0 note=61 velocity=119 time=456
note_off channel=0 note=61 velocity=0 time=44
note_on channel=0 note=59 velocity=119 time=0
note_on channel=0 note=61 velocity=119 time=140
note_off channel=0 note=59 velocity=0 time=40
note_off channel=0 note=61 velocity=0 time=120
note_on channel=0 note=64 velocity=119 time=32
note_off channel=0 note=64 velocity=0 time=372
note_on channel=0 note=61 velocity=119 time=24
note_off channel=0 note=61 velocity=0 time=140
note_on channel=0 note=66 velocity=119 time=228
note_off channel=0 note=66 velocity=0 time=352
note_on channel=0 note=64 velocity=119 time=44
note_off channel=0 note=64 velocity=0 time=152
note_on channel=0 note=66 velocity=119 time=416
note_on channel=0 note=61 velocity=119 time=208
note_off channel=0 note=66 velocity=0 time=20
note_off channel=0 note=61 velocity=0 time=44
note_on channel=0 note=64 velocity=119 time=124
note_off channel=0 note=64 velocity=0 time=188
note_on channel=0 note=59 velocity=119 time=24
note_off channel=0 note=59 velocity=0 time=132
note_on channel=0 note=61 velocity=119 time=28
note_off channel=0 note=61 velocity=0 time=176
note_on channel=0 note=64 velocity=119 time=24
note_off channel=0 note=64 velocity=0 time=104
note_on channel=0 note=64 velocity=119 time=288
note_on channel=0 note=61 velocity=119 time=380
note_off channel=0 note=64 velocity=0 time=32
note_off channel=0 note=61 velocity=0 time=60
note_on channel=0 note=59 velocity=119 time=660
note_on channel=0 note=61 velocity=119 time=208
note_off channel=0 note=59 velocity=0 time=36
note_off channel=0 note=61 velocity=0 time=128
note_on channel=0 note=64 velocity=119 time=24
note_off channel=0 note=64 velocity=0 time=100
note_on channel=0 note=66 velocity=119 time=84
note_off channel=0 note=66 velocity=0 time=176
note_on channel=0 note=67 velocity=119 time=24
note_off channel=0 note=67 velocity=0 time=144
note_on channel=0 note=66 velocity=119 time=40
note_off channel=0 note=66 velocity=0 time=92
note_on channel=0 note=64 velocity=119 time=12
note_off channel=0 note=64 velocity=0 time=88
note_on channel=0 note=61 velocity=119 time=0
note_off channel=0 note=61 velocity=0 time=180
note_on channel=0 note=64 velocity=119 time=24
note_off channel=0 note=64 velocity=0 time=108
note_on channel=0 note=64 velocity=119 time=72
note_off channel=0 note=64 velocity=0 time=196
note_on channel=0 note=61 velocity=119 time=4
note_off channel=0 note=61 velocity=0 time=184
note_on channel=0 note=66 velocity=119 time=16
note_off channel=0 note=66 velocity=0 time=340
note_on channel=0 note=64 velocity=119 time=28
note_off channel=0 note=64 velocity=0 time=196
note_on channel=0 note=66 velocity=119 time=188
note_off channel=0 note=66 velocity=0 time=356
note_on channel=0 note=64 velocity=119 time=20
note_off channel=0 note=64 velocity=0 time=68
note_on channel=0 note=66 velocity=119 time=140
note_on channel=0 note=64 velocity=119 time=176
note_off channel=0 note=66 velocity=0 time=4
note_off channel=0 note=64 velocity=0 time=116
note_on channel=0 note=61 velocity=119 time=80
note_off channel=0 note=61 velocity=0 time=164
note_on channel=0 note=59 velocity=119 time=20
note_off channel=0 note=59 velocity=0 time=148
note_on channel=0 note=59 velocity=119 time=244
note_off channel=0 note=59 velocity=0 time=236
note_on channel=0 note=59 velocity=119 time=148
note_off channel=0 note=59 velocity=0 time=212
note_on channel=0 note=61 velocity=119 time=8
note_off channel=0 note=61 velocity=0 time=48
note_on channel=0 note=66 velocity=119 time=128
note_on channel=0 note=64 velocity=119 time=364
note_off channel=0 note=66 velocity=0 time=24
note_off channel=0 note=64 velocity=0 time=136
note_on channel=0 note=59 velocity=119 time=616
note_on channel=0 note=66 velocity=119 time=188
note_off channel=0 note=59 velocity=0 time=24
note_off channel=0 note=66 velocity=0 time=72
note_on channel=0 note=64 velocity=119 time=116
note_off channel=0 note=64 velocity=0 time=372
note_on channel=0 note=61 velocity=119 time=12
note_on channel=0 note=59 velocity=119 time=172
note_off channel=0 note=61 velocity=0 time=4
note_off channel=0 note=59 velocity=0 time=240
note_on channel=0 note=67 velocity=119 time=536
note_off channel=0 note=67 velocity=0 time=88
note_on channel=0 note=67 velocity=119 time=104
note_off channel=0 note=67 velocity=0 time=104
note_on channel=0 note=69 velocity=119 time=96
note_on channel=0 note=67 velocity=119 time=384
note_off channel=0 note=69 velocity=0 time=20
note_on channel=0 note=66 velocity=119 time=176
note_off channel=0 note=67 velocity=0 time=20
note_off channel=0 note=66 velocity=0 time=300
note_on channel=0 note=66 velocity=119 time=248
note_off channel=0 note=66 velocity=0 time=184
note_on channel=0 note=66 velocity=119 time=196
note_off channel=0 note=66 velocity=0 time=180
note_on channel=0 note=64 velocity=119 time=12
note_on channel=0 note=66 velocity=119 time=200
note_off channel=0 note=64 velocity=0 time=20
note_on channel=0 note=67 velocity=119 time=164
note_off channel=0 note=66 velocity=0 time=4
note_off channel=0 note=67 velocity=0 time=368
note_on channel=0 note=64 velocity=119 time=20
note_off channel=0 note=64 velocity=0 time=156
note_on channel=0 note=64 velocity=119 time=220
note_off channel=0 note=64 velocity=0 time=1036
note_on channel=0 note=67 velocity=119 time=1848
note_off channel=0 note=67 velocity=0 time=88
note_on channel=0 note=67 velocity=119 time=104
note_off channel=0 note=67 velocity=0 time=104
note_on channel=0 note=69 velocity=119 time=96
note_off channel=0 note=69 velocity=0 time=344
note_on channel=0 note=67 velocity=119 time=32
note_on channel=0 note=66 velocity=119 time=204
note_off channel=0 note=67 velocity=0 time=4
note_off channel=0 note=66 velocity=0 time=404
note_on channel=0 note=66 velocity=119 time=164
note_off channel=0 note=66 velocity=0 time=204
note_on channel=0 note=66 velocity=119 time=84
note_off channel=0 note=66 velocity=0 time=44
note_on channel=0 note=66 velocity=119 time=44
note_off channel=0 note=66 velocity=0 time=184
note_on channel=0 note=64 velocity=119 time=8
note_off channel=0 note=64 velocity=0 time=180
note_on channel=0 note=66 velocity=119 time=20
note_off channel=0 note=66 velocity=0 time=164
note_on channel=0 note=67 velocity=119 time=32
note_on channel=0 note=64 velocity=119 time=180
note_on channel=0 note=67 velocity=119 time=0
note_off channel=0 note=67 velocity=0 time=1
note_off channel=0 note=64 velocity=0 time=0
note_on channel=0 note=67 velocity=119 time=43
note_off channel=0 note=67 velocity=0 time=136
note_off channel=0 note=67 velocity=0 time=0
note_on channel=0 note=69 velocity=119 time=572
note_off channel=0 note=69 velocity=0 time=320
note_on channel=0 note=67 velocity=119 time=76
note_off channel=0 note=67 velocity=0 time=132
note_on channel=0 note=66 velocity=119 time=52
note_off channel=0 note=66 velocity=0 time=440
note_on channel=0 note=62 velocity=119 time=708
note_off channel=0 note=62 velocity=0 time=112
note_on channel=0 note=62 velocity=119 time=80
note_off channel=0 note=62 velocity=0 time=160
note_on channel=0 note=64 velocity=119 time=32
note_off channel=0 note=64 velocity=0 time=92
note_on channel=0 note=66 velocity=119 time=120
note_off channel=0 note=66 velocity=0 time=304
note_on channel=0 note=67 velocity=119 time=268
note_off channel=0 note=67 velocity=0 time=220
note_on channel=0 note=66 velocity=119 time=164
note_off channel=0 note=66 velocity=0 time=192
note_on channel=0 note=64 velocity=119 time=196
note_off channel=0 note=64 velocity=0 time=916
note_on channel=0 note=60 velocity=119 time=232
note_off channel=0 note=60 velocity=0 time=88
note_on channel=0 note=60 velocity=119 time=92
note_on channel=0 note=62 velocity=119 time=200
note_off channel=0 note=60 velocity=0 time=32
note_off channel=0 note=62 velocity=0 time=72
note_on channel=0 note=64 velocity=119 time=96
note_off channel=0 note=64 velocity=0 time=288
note_on channel=0 note=64 velocity=119 time=96
note_off channel=0 note=64 velocity=0 time=320
note_on channel=0 note=64 velocity=119 time=56
note_off channel=0 note=64 velocity=0 time=152
note_on channel=0 note=64 velocity=119 time=44
note_off channel=0 note=64 velocity=0 time=504
note_on channel=0 note=66 velocity=119 time=80
note_off channel=0 note=66 velocity=0 time=356
note_on channel=0 note=62 velocity=119 time=20
note_off channel=0 note=62 velocity=0 time=92
note_on channel=0 note=62 velocity=119 time=116
note_off channel=0 note=62 velocity=0 time=632
note_on channel=0 note=62 velocity=119 time=116
note_off channel=0 note=62 velocity=0 time=48
note_on channel=0 note=66 velocity=119 time=152
note_off channel=0 note=66 velocity=0 time=272
note_on channel=0 note=66 velocity=119 time=92
note_off channel=0 note=66 velocity=0 time=92
note_on channel=0 note=67 velocity=119 time=112
note_off channel=0 note=67 velocity=0 time=244
note_on channel=0 note=66 velocity=119 time=144
note_off channel=0 note=66 velocity=0 time=232
note_on channel=0 note=64 velocity=119 time=156
note_off channel=0 note=64 velocity=0 time=1316
note_on channel=0 note=71 velocity=119 time=20
note_off channel=0 note=71 velocity=0 time=100
note_on channel=0 note=71 velocity=119 time=96
note_off channel=0 note=71 velocity=0 time=564
note_on channel=0 note=69 velocity=119 time=20
note_off channel=0 note=69 velocity=0 time=92
note_on channel=0 note=69 velocity=119 time=104
note_off channel=0 note=69 velocity=0 time=376
note_on channel=0 note=71 velocity=119 time=8
note_off channel=0 note=71 velocity=0 time=1400
note_on channel=0 note=69 velocity=119 time=128
note_off channel=0 note=69 velocity=0 time=268
note_on channel=0 note=71 velocity=119 time=108
note_off channel=0 note=71 velocity=0 time=752
note_on channel=0 note=69 velocity=119 time=24
note_off channel=0 note=69 velocity=0 time=292
note_on channel=0 note=69 velocity=119 time=84
note_off channel=0 note=69 velocity=0 time=348
note_on channel=0 note=71 velocity=119 time=44
note_off channel=0 note=71 velocity=0 time=1744
note_on channel=0 note=64 velocity=119 time=18804
note_off channel=0 note=64 velocity=0 time=136
note_on channel=0 note=64 velocity=119 time=52
note_off channel=0 note=64 velocity=0 time=100
note_on channel=0 note=64 velocity=119 time=104
note_on channel=0 note=68 velocity=119 time=372
note_off channel=0 note=64 velocity=0 time=24
note_off channel=0 note=68 velocity=0 time=60
note_on channel=0 note=68 velocity=119 time=116
note_on channel=0 note=71 velocity=119 time=572
note_off channel=0 note=68 velocity=0 time=4
note_off channel=0 note=71 velocity=0 time=88
note_on channel=0 note=71 velocity=119 time=104
note_off channel=0 note=71 velocity=0 time=504
note_on channel=0 note=71 velocity=119 time=64
note_off channel=0 note=71 velocity=0 time=112
note_on channel=0 note=71 velocity=119 time=76
note_off channel=0 note=71 velocity=0 time=96
note_on channel=0 note=71 velocity=119 time=100
note_off channel=0 note=71 velocity=0 time=748
note_on channel=0 note=69 velocity=119 time=12
note_on channel=0 note=68 velocity=119 time=376
note_off channel=0 note=69 velocity=0 time=24
note_off channel=0 note=68 velocity=0 time=180
note_on channel=0 note=66 velocity=119 time=0
note_off channel=0 note=66 velocity=0 time=1588
note_on channel=0 note=64 velocity=119 time=528
note_off channel=0 note=64 velocity=0 time=68
note_on channel=0 note=64 velocity=119 time=116
note_off channel=0 note=64 velocity=0 time=68
note_on channel=0 note=64 velocity=119 time=124
note_on channel=0 note=68 velocity=119 time=384
note_off channel=0 note=64 velocity=0 time=20
note_off channel=0 note=68 velocity=0 time=40
note_on channel=0 note=68 velocity=119 time=136
note_on channel=0 note=71 velocity=119 time=588
note_off channel=0 note=68 velocity=0 time=4
note_off channel=0 note=71 velocity=0 time=68
note_on channel=0 note=71 velocity=119 time=116
note_off channel=0 note=71 velocity=0 time=700
note_on channel=0 note=71 velocity=119 time=44
note_on channel=0 note=69 velocity=119 time=956
note_off channel=0 note=71 velocity=0 time=36
note_on channel=0 note=68 velocity=119 time=172
note_off channel=0 note=69 velocity=0 time=20
note_off channel=0 note=68 velocity=0 time=340
note_on channel=0 note=66 velocity=119 time=8
note_off channel=0 note=66 velocity=0 time=1076
note_on channel=0 note=66 velocity=119 time=84
note_off channel=0 note=66 velocity=0 time=384
note_on channel=0 note=71 velocity=119 time=0
note_off channel=0 note=71 velocity=0 time=288
note_on channel=0 note=71 velocity=119 time=104
note_off channel=0 note=71 velocity=0 time=188
note_on channel=0 note=69 velocity=119 time=12
note_on channel=0 note=68 velocity=119 time=184
note_off channel=0 note=69 velocity=0 time=4
note_off channel=0 note=68 velocity=0 time=164
note_on channel=0 note=71 velocity=119 time=16
note_off channel=0 note=71 velocity=0 time=640
note_on channel=0 note=64 velocity=119 time=328
note_off channel=0 note=64 velocity=0 time=344
note_on channel=0 note=66 velocity=119 time=48
note_off channel=0 note=66 velocity=0 time=340
note_on channel=0 note=64 velocity=119 time=20
note_off channel=0 note=64 velocity=0 time=144
note_on channel=0 note=66 velocity=119 time=260
note_off channel=0 note=66 velocity=0 time=328
note_on channel=0 note=64 velocity=119 time=56
note_off channel=0 note=64 velocity=0 time=56
note_on channel=0 note=66 velocity=119 time=136
note_off channel=0 note=66 velocity=0 time=176
note_on channel=0 note=64 velocity=119 time=20
note_off channel=0 note=64 velocity=0 time=60
note_on channel=0 note=66 velocity=119 time=128
note_off channel=0 note=66 velocity=0 time=260
note_on channel=0 note=66 velocity=119 time=112
note_off channel=0 note=66 velocity=0 time=172
note_on channel=0 note=64 velocity=119 time=400
note_off channel=0 note=64 velocity=0 time=148
note_on channel=0 note=64 velocity=119 time=56
note_off channel=0 note=64 velocity=0 time=100
note_on channel=0 note=66 velocity=119 time=100
note_off channel=0 note=66 velocity=0 time=336
note_on channel=0 note=64 velocity=119 time=44
note_on channel=0 note=61 velocity=119 time=196
note_off channel=0 note=64 velocity=0 time=20
note_off channel=0 note=61 velocity=0 time=156
note_on channel=0 note=59 velocity=119 time=16
note_off channel=0 note=59 velocity=0 time=1000
note_on channel=0 note=64 velocity=119 time=912
note_off channel=0 note=64 velocity=0 time=120
note_on channel=0 note=64 velocity=119 time=64
note_off channel=0 note=64 velocity=0 time=148
note_on channel=0 note=66 velocity=119 time=56
note_off channel=0 note=66 velocity=0 time=340
note_on channel=0 note=64 velocity=119 time=32
note_off channel=0 note=64 velocity=0 time=96
note_on channel=0 note=66 velocity=119 time=288
note_off channel=0 note=66 velocity=0 time=284
note_on channel=0 note=64 velocity=119 time=108
note_off channel=0 note=64 velocity=0 time=44
note_on channel=0 note=66 velocity=119 time=136
note_off channel=0 note=66 velocity=0 time=168
note_on channel=0 note=64 velocity=119 time=44
note_off channel=0 note=64 velocity=0 time=44
note_on channel=0 note=66 velocity=119 time=144
note_off channel=0 note=66 velocity=0 time=208
note_on channel=0 note=64 velocity=119 time=184
note_off channel=0 note=64 velocity=0 time=236
note_on channel=0 note=64 velocity=119 time=332
note_off channel=0 note=64 velocity=0 time=108
note_on channel=0 note=64 velocity=119 time=64
note_off channel=0 note=64 velocity=0 time=84
note_on channel=0 note=66 velocity=119 time=128
note_off channel=0 note=66 velocity=0 time=276
note_on channel=0 note=64 velocity=119 time=96
note_off channel=0 note=64 velocity=0 time=196
note_on channel=0 note=61 velocity=119 time=188
note_off channel=0 note=61 velocity=0 time=328
note_on channel=0 note=59 velocity=119 time=84
note_off channel=0 note=59 velocity=0 time=676
note_on channel=0 note=64 velocity=119 time=840
note_off channel=0 note=64 velocity=0 time=112
note_on channel=0 note=64 velocity=119 time=88
note_off channel=0 note=64 velocity=0 time=80
note_on channel=0 note=66 velocity=119 time=108
note_off channel=0 note=66 velocity=0 time=344
note_on channel=0 note=64 velocity=119 time=28
note_off channel=0 note=64 velocity=0 time=108
note_on channel=0 note=66 velocity=119 time=276
note_off channel=0 note=66 velocity=0 time=208
note_on channel=0 note=64 velocity=119 time=176
note_off channel=0 note=64 velocity=0 time=84
note_on channel=0 note=66 velocity=119 time=116
note_off channel=0 note=66 velocity=0 time=172
note_on channel=0 note=64 velocity=119 time=32
note_off channel=0 note=64 velocity=0 time=36
note_on channel=0 note=66 velocity=119 time=136
note_on channel=0 note=68 velocity=119 time=164
note_off channel=0 note=66 velocity=0 time=36
note_off channel=0 note=68 velocity=0 time=28
note_on channel=0 note=66 velocity=119 time=156
note_off channel=0 note=66 velocity=0 time=180
note_on channel=0 note=64 velocity=119 time=28
note_off channel=0 note=64 velocity=0 time=80
note_on channel=0 note=61 velocity=119 time=296
note_on channel=0 note=64 velocity=119 time=192
note_off channel=0 note=61 velocity=0 time=8
note_off channel=0 note=64 velocity=0 time=100
note_on channel=0 note=66 velocity=119 time=88
note_off channel=0 note=66 velocity=0 time=360
note_on channel=0 note=64 velocity=119 time=20
note_off channel=0 note=64 velocity=0 time=164
note_on channel=0 note=67 velocity=119 time=592
note_off channel=0 note=67 velocity=0 time=164
note_on channel=0 note=66 velocity=119 time=32
note_off channel=0 note=66 velocity=0 time=48
note_on channel=0 note=64 velocity=119 time=136
note_off channel=0 note=64 velocity=0 time=60
note_on channel=0 note=61 velocity=119 time=136
note_off channel=0 note=61 velocity=0 time=168
note_on channel=0 note=59 velocity=119 time=48
note_on channel=0 note=61 velocity=119 time=172
note_off channel=0 note=59 velocity=0 time=24
note_off channel=0 note=61 velocity=0 time=60
note_on channel=0 note=64 velocity=119 time=28
note_off channel=0 note=64 velocity=0 time=80
note_on channel=0 note=64 velocity=119 time=24
note_off channel=0 note=64 velocity=0 time=76
note_on channel=0 note=64 velocity=119 time=300
note_off channel=0 note=64 velocity=0 time=72
note_on channel=0 note=64 velocity=119 time=104
note_off channel=0 note=64 velocity=0 time=168
note_on channel=0 note=66 velocity=119 time=36
note_off channel=0 note=66 velocity=0 time=340
note_on channel=0 note=64 velocity=119 time=32
note_off channel=0 note=64 velocity=0 time=96
note_on channel=0 note=66 velocity=119 time=288
note_off channel=0 note=66 velocity=0 time=248
note_on channel=0 note=64 velocity=119 time=160
note_off channel=0 note=64 velocity=0 time=36
note_on channel=0 note=66 velocity=119 time=140
note_off channel=0 note=66 velocity=0 time=160
note_on channel=0 note=64 velocity=119 time=32
note_off channel=0 note=64 velocity=0 time=48
note_on channel=0 note=66 velocity=119 time=136
note_on channel=0 note=68 velocity=119 time=188
note_off channel=0 note=66 velocity=0 time=4
note_off channel=0 note=68 velocity=0 time=60
note_on channel=0 note=66 velocity=119 time=124
note_off channel=0 note=66 velocity=0 time=76
note_on channel=0 note=64 velocity=119 time=12
note_off channel=0 note=64 velocity=0 time=84
note_on channel=0 note=61 velocity=119 time=20
note_off channel=0 note=61 velocity=0 time=100
note_on channel=0 note=64 velocity=119 time=284
note_off channel=0 note=64 velocity=0 time=268
note_on channel=0 note=66 velocity=119 time=140
note_off channel=0 note=66 velocity=0 time=332
note_on channel=0 note=64 velocity=119 time=20
note_on channel=0 note=61 velocity=119 time=204
note_off channel=0 note=64 velocity=0 time=4
note_off channel=0 note=61 velocity=0 time=80
note_on channel=0 note=64 velocity=119 time=316
note_off channel=0 note=64 velocity=0 time=104
note_on channel=0 note=61 velocity=119 time=84
note_off channel=0 note=61 velocity=0 time=192
note_on channel=0 note=59 velocity=119 time=180
note_off channel=0 note=59 velocity=0 time=824
note_on channel=0 note=64 velocity=119 time=348
note_off channel=0 note=64 velocity=0 time=60
note_on channel=0 note=64 velocity=119 time=132
note_off channel=0 note=64 velocity=0 time=68
note_on channel=0 note=66 velocity=119 time=120
note_off channel=0 note=66 velocity=0 time=316
note_on channel=0 note=64 velocity=119 time=68
note_off channel=0 note=64 velocity=0 time=116
note_on channel=0 note=66 velocity=119 time=284
note_off channel=0 note=66 velocity=0 time=104
note_on channel=0 note=64 velocity=119 time=268
note_off channel=0 note=64 velocity=0 time=80
note_on channel=0 note=66 velocity=119 time=112
note_off channel=0 note=66 velocity=0 time=148
note_on channel=0 note=64 velocity=119 time=44
note_off channel=0 note=64 velocity=0 time=60
note_on channel=0 note=66 velocity=119 time=116
note_off channel=0 note=66 velocity=0 time=232
note_on channel=0 note=68 velocity=119 time=168
note_off channel=0 note=68 velocity=0 time=128
note_on channel=0 note=61 velocity=119 time=464
note_off channel=0 note=61 velocity=0 time=56
note_on channel=0 note=64 velocity=119 time=312
note_off channel=0 note=64 velocity=0 time=344
note_on channel=0 note=61 velocity=119 time=32
note_off channel=0 note=61 velocity=0 time=144
note_on channel=0 note=59 velocity=119 time=244
note_off channel=0 note=59 velocity=0 time=1524
note_on channel=0 note=61 velocity=119 time=384
note_off channel=0 note=61 velocity=0 time=128
note_on channel=0 note=64 velocity=119 time=60
note_off channel=0 note=64 velocity=0 time=84
note_on channel=0 note=64 velocity=119 time=112
note_on channel=0 note=66 velocity=119 time=148
note_off channel=0 note=64 velocity=0 time=20
note_off channel=0 note=66 velocity=0 time=208
note_on channel=0 note=64 velocity=119 time=28
note_off channel=0 note=64 velocity=0 time=132
note_on channel=0 note=61 velocity=119 time=224
note_off channel=0 note=61 velocity=0 time=176
note_on channel=0 note=64 velocity=119 time=32
note_off channel=0 note=64 velocity=0 time=172
note_on channel=0 note=66 velocity=119 time=24
note_off channel=0 note=66 velocity=0 time=104
note_on channel=0 note=66 velocity=119 time=472
note_off channel=0 note=66 velocity=0 time=172
note_on channel=0 note=64 velocity=119 time=24
note_off channel=0 note=64 velocity=0 time=72
note_on channel=0 note=68 velocity=119 time=124
note_on channel=0 note=64 velocity=119 time=184
note_off channel=0 note=68 velocity=0 time=20
note_off channel=0 note=64 velocity=0 time=56
note_on channel=0 note=66 velocity=119 time=104
note_off channel=0 note=66 velocity=0 time=172
note_on channel=0 note=64 velocity=119 time=20
note_off channel=0 note=64 velocity=0 time=160
note_on channel=0 note=61 velocity=119 time=240
note_off channel=0 note=61 velocity=0 time=352
note_on channel=0 note=59 velocity=119 time=24
note_off channel=0 note=59 velocity=0 time=1244
note_on channel=0 note=64 velocity=119 time=1068
note_off channel=0 note=64 velocity=0 time=68
note_on channel=0 note=64 velocity=119 time=120
note_off channel=0 note=64 velocity=0 time=56
note_on channel=0 note=66 velocity=119 time=136
note_off channel=0 note=66 velocity=0 time=324
note_on channel=0 note=64 velocity=119 time=40
note_off channel=0 note=64 velocity=0 time=88
note_on channel=0 note=66 velocity=119 time=492
note_off channel=0 note=66 velocity=0 time=184
note_on channel=0 note=64 velocity=119 time=36
note_off channel=0 note=64 velocity=0 time=36
note_on channel=0 note=66 velocity=119 time=140
note_off channel=0 note=66 velocity=0 time=124
note_on channel=0 note=64 velocity=119 time=76
note_off channel=0 note=64 velocity=0 time=36
note_on channel=0 note=66 velocity=119 time=140
note_off channel=0 note=66 velocity=0 time=332
note_on channel=0 note=68 velocity=119 time=68
note_off channel=0 note=68 velocity=0 time=164
note_on channel=0 note=61 velocity=119 time=416
note_on channel=0 note=64 velocity=119 time=164
note_off channel=0 note=61 velocity=0 time=36
note_off channel=0 note=64 velocity=0 time=92
note_on channel=0 note=66 velocity=119 time=72
note_off channel=0 note=66 velocity=0 time=380
note_on channel=0 note=61 velocity=119 time=32
note_off channel=0 note=61 velocity=0 time=80
note_on channel=0 note=67 velocity=119 time=560
note_off channel=0 note=67 velocity=0 time=156
note_on channel=0 note=66 velocity=119 time=148
note_off channel=0 note=66 velocity=0 time=100
note_on channel=0 note=64 velocity=119 time=72
note_off channel=0 note=64 velocity=0 time=104
note_on channel=0 note=61 velocity=119 time=92
note_off channel=0 note=61 velocity=0 time=96
note_on channel=0 note=59 velocity=119 time=108
note_off channel=0 note=59 velocity=0 time=100
note_on channel=0 note=61 velocity=119 time=96
note_off channel=0 note=61 velocity=0 time=160
note_on channel=0 note=64 velocity=119 time=36
note_off channel=0 note=64 velocity=0 time=96
note_on channel=0 note=64 velocity=119 time=284
note_off channel=0 note=64 velocity=0 time=356
note_on channel=0 note=66 velocity=119 time=28
note_off channel=0 note=66 velocity=0 time=332
note_on channel=0 note=64 velocity=119 time=52
note_off channel=0 note=64 velocity=0 time=100
note_on channel=0 note=66 velocity=119 time=264
note_off channel=0 note=66 velocity=0 time=240
note_on channel=0 note=64 velocity=119 time=168
note_off channel=0 note=64 velocity=0 time=60
note_on channel=0 note=66 velocity=119 time=116
note_off channel=0 note=66 velocity=0 time=168
note_on channel=0 note=64 velocity=119 time=36
note_off channel=0 note=64 velocity=0 time=44
note_on channel=0 note=66 velocity=119 time=136
note_off channel=0 note=66 velocity=0 time=372
note_on channel=0 note=64 velocity=119 time=36
note_off channel=0 note=64 velocity=0 time=216
note_on channel=0 note=64 velocity=119 time=348
note_off channel=0 note=64 velocity=0 time=180
note_on channel=0 note=66 velocity=119 time=208
note_off channel=0 note=66 velocity=0 time=260
note_on channel=0 note=64 velocity=119 time=108
note_off channel=0 note=64 velocity=0 time=180
note_on channel=0 note=61 velocity=119 time=20
note_off channel=0 note=61 velocity=0 time=80
note_on channel=0 note=59 velocity=119 time=124
note_off channel=0 note=59 velocity=0 time=1340
control_change channel=0 control=64 value=0 time=3460
aftertouch channel=0 value=0 time=0
pitchwheel channel=0 pitch=0 time=0
<meta message end_of_track time=192>
